<?xml version="1.0" encoding="utf-8"?>
<!-- Generator: Adobe Illustrator 26.0.0, SVG Export Plug-In . SVG Version: 6.00 Build 0)  -->
<svg version="1.1" id="Layer_1" xmlns="http://www.w3.org/2000/svg" xmlns:xlink="http://www.w3.org/1999/xlink" x="0px" y="0px"
	 viewBox="0 0 3600 3600" style="enable-background:new 0 0 3600 3600;" xml:space="preserve">
<g>
	<g>
		<path d="M2608.5,3056.2c74-45.6,160.6-70.5,247.5-71.1c-86.2,3.3-171.2,30.4-243.2,77.8C2612.8,3063,2608.5,3056.2,2608.5,3056.2
			L2608.5,3056.2z"/>
	</g>
	<g>
		<path d="M2671.6,3018.9c24.8-20.6,46.2-45.4,62.6-73.2c18.7-31.7,30.9-67.2,35.8-103.7c-1.7,17.3-4.9,34.5-9.8,51.3
			c-9.7,33.6-26,65.4-47.4,93.1c-10.8,13.9-22.8,26.8-35.9,38.6L2671.6,3018.9L2671.6,3018.9z"/>
	</g>
	<g>
		<path d="M2796.2,2920.4c81.4-59.9,183.3-90.6,284.2-86.1c-75.2-1.7-150.9,15.7-217.5,50.7c-22.1,11.6-43.3,25.1-63.2,40.2
			L2796.2,2920.4L2796.2,2920.4z"/>
	</g>
	<g>
		<path d="M2898.1,2865.1c33.3-17.2,62.4-42.5,83.7-73.4c-20.5,31.7-49.2,57.9-82.2,76C2899.5,2867.7,2898.1,2865.1,2898.1,2865.1
			L2898.1,2865.1z"/>
	</g>
	<g>
		<path d="M2870.6,2853.1c35.6-44.8,61.5-97.3,75-152.9c10.7-43.3,13.9-88.4,10.1-132.9c4.9,47.7,1.6,96.3-10.2,142.8
			c-11.8,46.6-32.1,91.1-59.6,130.5c-3.7,5.3-7.5,10.5-11.4,15.6L2870.6,2853.1L2870.6,2853.1z"/>
	</g>
	<g>
		<path d="M2849.7,2874.1c22.8-26,41.3-55.9,54.1-88c21.6-53.7,26.4-113.8,14.1-170.4c13.2,56.6,9.2,117.1-11.8,171.3
			c-0.8,2.3-2.3,5.8-3.3,8.1c-3,7.5-7.4,16.5-11.1,23.7c-10.8,20.6-23.9,40.1-39.1,57.9L2849.7,2874.1L2849.7,2874.1z"/>
	</g>
	<g>
		<path d="M2906.4,2816.6c39.6-32.9,84.4-59.5,132.3-78.3c54.2-21.3,112.2-32.7,170.3-33.7c-58,1.9-115.7,14.1-169.3,36.1
			c-22,9.1-43.4,19.8-63.9,32c-23.4,14-45.5,30-66.2,47.6C2909.6,2820.4,2906.4,2816.6,2906.4,2816.6L2906.4,2816.6z"/>
	</g>
	<g>
		<path d="M3032.6,2665.5c33.6-61.8,47-134.3,37.4-204c-3.2-23.3-8.7-46.2-16.7-68.4c8.2,22,14.1,44.9,17.7,68.2
			c10.6,70.1-1.9,143.3-34.9,206C3036.1,2667.4,3032.6,2665.5,3032.6,2665.5L3032.6,2665.5z"/>
	</g>
	<g>
		<path d="M3127.7,2515.5c53.6-72.5,129.5-128.2,214.9-157.1c-63.5,22.5-121.8,59.5-169,107.6c-15.7,16-30.2,33.2-43.4,51.3
			L3127.7,2515.5L3127.7,2515.5z"/>
	</g>
	<g>
		<path d="M3141.1,2492.9c12.7-29.4,20.3-61.3,21.5-93.4c2-47.1-10.4-94.6-34.8-135c25.2,40.1,38.4,87.7,37.2,135
			c0,4.2-0.5,10.7-0.7,15c-0.5,5.7-1.3,12.9-2.3,18.6c-3.3,21-9.1,41.6-17.2,61.3C3144.8,2494.4,3141.1,2492.9,3141.1,2492.9
			L3141.1,2492.9z"/>
	</g>
	<g>
		<path d="M3209.1,2343.5c18.4-42.9,28.8-89.4,29.6-136.1c1.3-60.2-14-120.4-43.1-173.1c29.4,52.6,45.1,112.8,44.2,173.1
			c-0.3,33.5-5.7,67-15.2,99c-3.8,12.8-8.4,25.5-13.6,37.8L3209.1,2343.5L3209.1,2343.5z"/>
	</g>
	<g>
		<path d="M3243.9,2245.2c27-78,85-144.6,158.6-181.8c-54.8,28.5-101,72.8-131.5,126.5c-10.2,17.8-18.6,36.6-25.3,56L3243.9,2245.2
			L3243.9,2245.2z"/>
	</g>
	<g>
		<path d="M3300.6,2145.1c23.5-25.9,33.5-63.1,25.5-97.2c8.3,34.2-1.4,71.7-24.8,97.9C3301.3,2145.8,3300.6,2145.1,3300.6,2145.1
			L3300.6,2145.1z"/>
	</g>
	<g>
		<path d="M3289,2065.2c7.6-32,8.9-65.9,2.2-98.2c-6.6-32.4-21.3-63-42.4-88.4c21.3,25.3,36.2,56,42.9,88.3
			c3.5,16.1,4.9,32.8,4.5,49.3c-0.3,16.6-2.5,33.1-6.2,49.2L3289,2065.2L3289,2065.2z"/>
	</g>
	<g>
		<path d="M2767.4,2995.5c15.6-29.5,42.1-54.2,74.6-63.4c21.1-5.8,44.3-9.1,65.5-1.3c29.5,11.3,35.5,45.9,24.6,72.7
			c-18.9,47.7-83.4,45.8-122.9,27.1C2792.4,3023,2777.5,3011,2767.4,2995.5L2767.4,2995.5z M2767.4,2995.5
			c10.8,14.9,25.8,26.3,42.6,33.4c28.4,12.1,63.9,16.1,92.2,2.2c16.5-8.3,26.7-23.8,29.8-41.8c2.2-12.4,1.1-26-5.2-37.1
			c-14.6-25.5-48.7-24.7-74.1-19.6c-4.3,0.9-9,2-13.2,3.3C2808.6,2945,2783.6,2968.1,2767.4,2995.5L2767.4,2995.5z"/>
	</g>
	<g>
		<path d="M2753,2910.8c-32.6-20.4-44.5-59.6-33.1-95.8c6-19.5,20-37.7,40.1-43.8c15.6-4.9,34-4.6,47.9,4.9
			c22.2,15.1,18.6,46.1,10.8,68.2C2808.2,2876.4,2784.2,2899.2,2753,2910.8L2753,2910.8z M2753,2910.8
			c39.2-16.9,62.6-48.1,67.7-90.4c2.9-26.2-9.3-45.8-36.6-48c-24.4-2-46,11-56.5,32.9c-10.4,21.1-12.1,46.7-3.8,68.7
			C2729.4,2888.9,2740.1,2901.5,2753,2910.8L2753,2910.8z"/>
	</g>
	<g>
		<path d="M3105.4,2718.3c8-25.3,24.4-48.8,47.6-62.2c22.5-12.4,53.8-19.1,78-8.1c21,9.7,33.4,33.4,32.4,56.1
			c-0.9,35.1-34.7,53.7-66,56.9C3159.3,2765.4,3126.9,2749.8,3105.4,2718.3L3105.4,2718.3z M3105.4,2718.3
			c15.6,21.1,39.2,37,65.6,39.8c36,4.4,87.1-11.4,88.5-54.1c0.8-21.2-10.5-43.4-30.1-52.5c-22.8-10.7-53.6-4.3-75.1,7
			C3131.1,2671.1,3114.4,2693.7,3105.4,2718.3L3105.4,2718.3z"/>
	</g>
	<g>
		<path d="M3072.8,2482.3c-35.5-8.1-62.6-32.1-76.6-65.6c-6.8-16.2-10.7-34.3-6.9-51.8c4.6-22.2,24.9-39.6,47.3-42
			c24.2-2.7,42.1,15.9,51.6,36.1c7.6,15.8,12.4,33.3,11.6,50.9C3098.9,2436,3088.3,2461.3,3072.8,2482.3L3072.8,2482.3z
			 M3072.8,2482.3c24.7-36.9,33.5-81.3,12.2-121.8c-7.4-14.7-19-29.4-35.7-33c-20.6-4.2-42.5,8.4-52,26.5
			c-9.8,19.2-5.9,42.2,1.8,61.5C3012.6,2449,3038,2472.4,3072.8,2482.3L3072.8,2482.3z"/>
	</g>
	<g>
		<path d="M3241.3,2408.7c-6.5-17.3-8.4-36.7-3.9-54.8c13.8-55.8,86.4-93,132.9-50.6c30.6,29.9,5.1,76.4-23,98
			C3317.2,2425.6,3275.1,2424.2,3241.3,2408.7L3241.3,2408.7z M3241.3,2408.7c25.3,10.2,54.7,13.4,80.6,3.8
			c17.1-6.3,31.4-18.7,42.2-33.2c24.6-33.2,23.5-71.3-19.4-86.6c-42.9-15.1-91.1,17.4-104.4,58.6
			C3234.2,2369.8,3235.3,2390.2,3241.3,2408.7L3241.3,2408.7z"/>
	</g>
	<g>
		<path d="M3225.7,2107.1c-17.3,2-35.2-1.6-50.4-10.1c-4.1-2.4-8.2-5.1-11.7-8.2c-0.9-0.7-2.8-2.4-3.6-3.2c-0.7-0.7-2.6-2.7-3.4-3.4
			c-14.6-15.6-22.6-37-23-58.3c-0.2-20,3.6-46.4,20.8-59c15.2-10.8,35.4-3.4,49,6.5c18.8,13.9,33.8,33.9,38.9,56.9
			C3248,2055.4,3240.3,2084.1,3225.7,2107.1L3225.7,2107.1z M3225.7,2107.1c14.2-25.2,21.2-56,12.1-84.1
			c-6.5-19.5-20.1-36.5-36.7-48.5c-23-16.4-47.3-16.3-58.2,13c-14.5,40.6-2.3,89,37.4,110.2
			C3194.2,2104.9,3210.1,2108.1,3225.7,2107.1L3225.7,2107.1z"/>
	</g>
	<g>
		<path d="M2525.9,3102.3c174.5-91.7,330.3-218.7,454.9-371.5c52.3-63.3,98.5-131.9,139.1-203.2c3.8-6.5,8.3-15.1,11.9-21.6
			c8.4-14.9,17.9-34,25.8-49.2c98.1-197.2,152-416,155.8-636.2c-1.6,131.8-20.7,263.4-56.9,390.2c-54.4,190.1-146.3,370.2-270.9,524
			c-78.9,98-170.8,185.8-271.9,260.7c-25,18.2-50.5,36.1-76.5,52.8c-34.6,22.4-70.3,43.5-106.7,62.9
			C2530.6,3111.1,2525.9,3102.3,2525.9,3102.3L2525.9,3102.3z"/>
	</g>
	<g>
		<path d="M514.4,2441.3c29.6,43.7,68.4,81.4,112.9,109.8c42.1,26.8,89.3,45.6,138.4,54.9c-12.7-2.1-25.4-4.8-37.9-8.1
			c-62.7-16.6-121.2-49-168.5-93.4c-19-17.8-36.3-37.4-51.5-58.6L514.4,2441.3L514.4,2441.3z"/>
	</g>
	<g>
		<path d="M538.1,2488.2c24.8,41.5,38.8,89.4,39.9,137.8c0.9,37.3-5.8,74.9-19.3,109.6c14.1-40,19.3-83.1,14.5-125.2
			c-0.2-2-0.7-5.9-1-7.9c0,0-1.2-7.8-1.2-7.8l-1.5-7.8c-6.8-33.5-19.8-65.8-38.2-94.5C531.3,2492.4,538.1,2488.2,538.1,2488.2
			L538.1,2488.2z"/>
	</g>
	<g>
		<path d="M637.7,2651.4c40.6,48.5,98.7,82.1,161.3,92.1c20.9,3.4,42.2,4.3,63.4,2.8c-21.1,2.1-42.6,1.8-63.7-1
			c-63.8-8.4-123.7-41.1-166.3-89.2C632.4,2656,637.7,2651.4,637.7,2651.4L637.7,2651.4z"/>
	</g>
	<g>
		<path d="M620.5,2626.4c31.5,47.7,70.4,90.8,115.2,126.4c57.7,46.2,125,79.9,196.4,98.9c-71.9-17.8-140.2-50.5-198.9-95.8
			c-45.9-35.2-85.9-77.9-118.6-125.6C614.6,2630.3,620.5,2626.4,620.5,2626.4L620.5,2626.4z"/>
	</g>
	<g>
		<path d="M653.5,2673.3c24.1,49.7,25.3,109.6,2.9,160c9.8-25.4,14.2-52.7,12.5-79.8c-1.6-26.9-9.1-53.3-21.7-77.1
			C647.2,2676.4,653.5,2673.3,653.5,2673.3L653.5,2673.3z"/>
	</g>
	<g>
		<path d="M637.7,2651.3c42.5,48.4,63.8,114.6,56.6,178.7c-2.6,24.8-9.3,49.3-19.5,72c12.9-30.6,19.1-63.8,18.3-96.9
			c0-2.3-0.3-5.9-0.4-8.2c-0.2-4.7-1.1-11.7-1.6-16.4c-6.4-46.2-27.1-90.2-58.6-124.4C632.5,2656,637.7,2651.3,637.7,2651.3
			L637.7,2651.3z"/>
	</g>
	<g>
		<path d="M720.5,2758.5c59.5,68.2,91.3,159.5,86.8,249.9c2.5-89.7-30.8-179.6-91.3-245.9C716,2762.5,720.5,2758.5,720.5,2758.5
			L720.5,2758.5z"/>
	</g>
	<g>
		<path d="M824,2868.5c38.7,33,85.7,56.4,135.8,66.2c44.3,8.5,90.5,6.2,133.8-6.6c-46,14.4-95.9,17.2-143.2,7.1
			c-35.6-7.3-69.7-21.8-100.2-41.4c-10.2-6.6-20-13.7-29.4-21.4L824,2868.5L824,2868.5z"/>
	</g>
	<g>
		<path d="M905.6,2940.8c108.8,65.2,241.4,88.7,366,64.7c-93.5,19.1-192.1,12.1-281.9-20.2c-30-10.7-59-24.2-86.6-40.1L905.6,2940.8
			L905.6,2940.8z"/>
	</g>
	<g>
		<path d="M890.1,2927.8c39.9,29.7,73.8,67.6,98.4,110.9c28,48.7,44.1,104.2,47.1,160.3c-3.7-52.6-18.9-104.3-44.5-150.4
			c-12.7-22.9-28.1-44.6-45.6-64.1c-13.1-14.7-27.5-28.3-42.8-40.6c-5.1-4.1-10.3-8.1-15.6-11.9L890.1,2927.8L890.1,2927.8z"/>
	</g>
	<g>
		<path d="M1122.8,3089c109.8,65.6,245.1,81.9,366.9,42.5c17.3-5.5,34.3-12.1,50.8-19.6c-16.4,7.6-33.4,14.3-50.7,19.9
			c-69.1,22.8-143.8,28.1-215.5,15.8c-53.8-9.4-105.9-28.4-153.1-56C1121.2,3091.6,1122.8,3089,1122.8,3089L1122.8,3089z"/>
	</g>
	<g>
		<path d="M1190.2,3122.5c88.4,39.9,158.1,118.6,186.5,211.4c4.2,13.2,7.4,26.6,10,40.1c-2.7-13.5-6.1-26.9-10.3-40
			c-27.2-85.4-89.2-158.7-168.9-199.8c-6.1-3.1-12.3-6.1-18.6-8.9L1190.2,3122.5L1190.2,3122.5z"/>
	</g>
	<g>
		<path d="M1102.2,3078.3c43.4,21.9,82.5,52.3,114.1,89.2c33.7,39.1,58.9,85.5,73.7,134.9c-15.2-49.2-40.8-95.2-74.8-133.9
			c-15.4-17.5-32.6-33.7-51-48c-19.7-15.3-40.9-28.5-63.3-39.5C1100.9,3081,1102.2,3078.3,1102.2,3078.3L1102.2,3078.3z"/>
	</g>
	<g>
		<path d="M1277.7,3163.7c30.8,11.5,59.8,28.4,84.6,50c28.2,24.3,51,54.8,66.7,88.5c-15.2-31.5-36.6-59.9-62.8-83
			c-16.3-14.5-34.4-26.8-53.7-36.9c-3.3-1.7-8.3-4.2-11.7-5.8c-7.9-3.7-16-7-24.1-9.9L1277.7,3163.7L1277.7,3163.7z"/>
	</g>
	<g>
		<path d="M1430.8,3219.4c65.8,12.8,134.2,13.4,200.1,0.5c58.2-11.2,114.3-33,165-63.6c-50.6,30.7-106.7,52.7-164.9,64
			c-34.9,6.9-70.6,10.1-106.1,9.6c-31.6-0.3-63.2-3.7-94.3-9.6L1430.8,3219.4L1430.8,3219.4z"/>
	</g>
	<g>
		<path d="M1404.7,3209.3c96.5,27.8,182.1,91,236.9,175.1c7.9,12,15.1,24.3,21.7,37c-6.7-12.6-14-25-21.9-36.9
			c-39.5-59.6-94.3-108.9-157.8-141.7c-25.4-13.2-52-23.8-79.5-31.6L1404.7,3209.3L1404.7,3209.3z"/>
	</g>
	<g>
		<path d="M1628.2,3259.3c110.2,11.2,210.7,52.3,284.7,137c-53.5-61-126.5-103.3-205.2-122.2c-26.2-6.3-52.8-11.2-79.6-13.8
			C1628.1,3260.3,1628.2,3259.3,1628.2,3259.3L1628.2,3259.3z"/>
	</g>
	<g>
		<path d="M1624,3258.6c46.5,5.1,94,1,138.9-12c45-13,87.3-35,123.9-64.1c-36.5,29.3-78.8,51.4-123.8,64.6
			c-22.5,6.6-45.6,11-68.9,13.1c-23.3,2.1-46.9,1.9-70.2-0.6L1624,3258.6L1624,3258.6z"/>
	</g>
	<g>
		<path d="M650.8,2566.8c61.7-36.2,127.7-26.8,173.3,29.3c21.9,27.5,34.8,66.4-8,80.8c-34.7,11.1-78.6,3.4-108.8-16.4
			C675.7,2639.5,656.7,2603.5,650.8,2566.8L650.8,2566.8z M650.8,2566.8c6.2,31,21.3,61,45.4,81.9c16,13.8,35.9,22.4,56.5,26.5
			c20.4,4,42.3,4.5,62.2-2.1c15.2-5.2,27.2-15.4,25.5-32.8c-1.4-15.6-9.8-29.7-19.2-41.9c-19.5-24.5-47.2-43.9-78.4-49.2
			C711.3,2543.8,678.5,2551.6,650.8,2566.8L650.8,2566.8z"/>
	</g>
	<g>
		<path d="M576.4,2642.4c20.6,25.7,30.7,59.2,25.4,92c-2.3,16.3-6.6,32.8-16.5,46.3c-16.8,23.3-48.2,19.8-66.9,0.8
			c-18.2-18.9-15.3-48-8.1-71.1C519.9,2677.9,545,2653.9,576.4,2642.4L576.4,2642.4z M576.4,2642.4c-40.4,17.4-63.2,48.8-67.6,92.5
			c-2.5,25.3,6.9,47.7,32.3,56c27,8.7,44.1-9.4,52.1-33.6C606.7,2716.2,601.6,2677.9,576.4,2642.4L576.4,2642.4z"/>
	</g>
	<g>
		<path d="M798.3,2915.3c21,10.4,39.8,26.9,51.1,47.7c11.3,20.9,16.7,45.1,15.5,68.9c-1.1,19-8.4,39.5-25.1,50.2
			c-24.8,16.3-61.7,10.1-77.8-15.4c-13.2-20.3-16.1-45.5-13.9-69.1C750.8,2964.3,771,2933.9,798.3,2915.3L798.3,2915.3z
			 M798.3,2915.3c-40.2,30.6-55.9,75.1-44.1,124.2c4.4,17.6,14.3,35,31.3,42.8c16.4,7.5,37,6.4,52.2-3.4c24-16,26.4-48.8,22.5-75
			C854.4,2964.8,832.9,2934.3,798.3,2915.3L798.3,2915.3z"/>
	</g>
	<g>
		<path d="M1124.1,3013.3c20.1-34.6,56.7-61.2,97.8-60.5c31.5,0,79.8,14,86.4,49.5c5.3,35.2-32.7,67.4-63.4,76.8
			C1194.1,3095.5,1142.8,3060.1,1124.1,3013.3L1124.1,3013.3z M1124.1,3013.3c19.9,44.7,70.4,79.1,119.7,62.4
			c18.5-6.1,35.4-17.7,47.6-32.9c32-41.5,2.7-72.3-40.4-83c-19-4.7-39.3-5.8-58.3-0.3C1164.1,2967.8,1140.1,2988.6,1124.1,3013.3
			L1124.1,3013.3z"/>
	</g>
	<g>
		<path d="M1017.6,3106.2c52.2,17.9,81.3,60.1,76.5,115.5c-2.2,24.1-11.6,54.6-33.4,67.8c-13.5,8.1-30.1,3.3-42.4-4.7
			c-17.1-11-30.1-27.5-38.8-45.6C955.8,3191.7,975.8,3136.1,1017.6,3106.2L1017.6,3106.2z M1017.6,3106.2
			c-39.8,31.3-58.7,84.5-35,131.5c10.9,23.4,42.7,59.6,71.4,50.6c15.7-6,25.1-23.2,30.4-38.2c9.4-27.6,9.6-59.2-2.1-86.2
			C1070.2,3136.5,1045.1,3116.8,1017.6,3106.2L1017.6,3106.2z"/>
	</g>
	<g>
		<path d="M1430.3,3146.4c18.7-48.3,57.8-81.3,111-81.1c26.1-0.3,69,8.1,72.8,39.4c1,10.2-2.6,20.2-7.5,28.9
			c-13.9,23.5-38.6,42-64.8,49.2C1500.9,3193.4,1458.9,3176,1430.3,3146.4L1430.3,3146.4z M1430.3,3146.4
			c35.3,33.6,87.5,49.7,132.1,24.3c20-11.6,39.4-29.4,46.4-52c4.4-14.6-0.5-27.4-13-35.9c-22.8-15.2-56.8-16.6-83-11.1
			C1474.6,3080,1445.2,3111.3,1430.3,3146.4L1430.3,3146.4z"/>
	</g>
	<g>
		<path d="M1580.1,3311c34.6-0.9,70.6,9.7,96.6,33.2c21.9,20.1,36,48,41.6,77.1c2.9,16.3,3.2,35.8-6.9,49.7
			c-17.1,21.9-53.2,13.6-74.9,3.5c-29.2-13.6-54.7-38-64.3-69.3C1562.5,3374.3,1567.2,3340.2,1580.1,3311L1580.1,3311z M1580.1,3311
			c-11.6,29.4-15.5,63-5.6,93.4c9.9,30.3,34.9,53.6,63.4,66.6c19.4,9,52.7,17.2,69-1c0,0,1.2-1.4,1.2-1.4c0.4-0.5,1.2-1.8,1.6-2.3
			c0.3-0.5,1.1-2,1.4-2.5c0.5-1,1.1-2.4,1.5-3.5c11.2-31.9-6.8-77.3-27-102.6C1660.4,3326.3,1619.6,3311.4,1580.1,3311L1580.1,3311z
			"/>
	</g>
	<g>
		<path d="M1842.6,3333.7c21.9-6.6,46.7-6.7,67.7,3.3c21.3,10.2,35.7,31.2,41.8,53.6c3.8,14.9,5.1,32.8-4.5,45.8
			c-10.6,13.3-30.3,11.6-44.8,7.1c-22.1-7.2-42.3-22-53.5-42.5C1838.3,3380.6,1836.9,3355.9,1842.6,3333.7L1842.6,3333.7z
			 M1842.6,3333.7c-4.4,22.1-2.4,46.3,9,66.1c14,24.3,45.9,44.3,74.2,43c26.9-1.5,28.1-30.9,22.7-51.2
			c-5.6-21.6-19.2-41.9-39.4-52.2C1888.8,3329,1864.6,3328.4,1842.6,3333.7L1842.6,3333.7z"/>
	</g>
	<g>
		<path d="M494.4,2395.4c136.8,314.2,387.2,576.2,694.7,727.6c247,122.5,528.3,169.7,802.3,146.5
			c-271.9,24.5-551.3-20.5-797.8-139.3c-242.1-116.8-451.6-300.6-597.5-526.5c-42.3-65-79.3-133.4-110.9-204.3L494.4,2395.4
			L494.4,2395.4z"/>
	</g>
	<g>
		<path d="M3151.9,1125.6c-30.9-42.8-70.7-79.4-116-106.6c-42.8-25.6-90.6-43-139.9-51c12.8,1.8,25.5,4.1,38.1,7
			c63.1,14.8,122.5,45.6,171,88.6c19.5,17.2,37.3,36.4,53.1,57.2L3151.9,1125.6L3151.9,1125.6z"/>
	</g>
	<g>
		<path d="M3126.9,1079.4c-25.9-40.8-41.3-88.3-43.7-136.6c-2-37.2,3.7-75,16.2-110.1c-13,40.4-16.9,83.6-10.9,125.6
			c0.2,2,0.8,5.9,1.2,7.8c0,0,1.4,7.8,1.4,7.8l1.7,7.7c7.7,33.3,21.7,65.2,40.8,93.4C3133.6,1075,3126.9,1079.4,3126.9,1079.4
			L3126.9,1079.4z"/>
	</g>
	<g>
		<path d="M3022.7,919.1c-42-47.3-100.9-79.3-163.8-87.5c-21-2.8-42.3-3.1-63.5-1c21.1-2.7,42.5-3,63.7-0.7
			c64,6.6,124.8,37.6,168.7,84.5C3027.9,914.4,3022.7,919.1,3022.7,919.1L3022.7,919.1z"/>
	</g>
	<g>
		<path d="M3040.7,943.6c-32.8-46.8-72.9-88.8-118.7-123.1c-58.9-44.5-127.2-76.4-199.1-93.3c72.4,15.7,141.6,46.5,201.5,90.2
			c46.9,33.9,88,75.5,122.1,122.2L3040.7,943.6L3040.7,943.6z"/>
	</g>
	<g>
		<path d="M3006.4,897.7c-25.5-49-28.3-108.8-7.4-159.9c-9.1,25.6-12.7,53.1-10.3,80.1c2.3,26.8,10.6,53.1,23.8,76.4
			C3012.5,894.3,3006.4,897.7,3006.4,897.7L3006.4,897.7z"/>
	</g>
	<g>
		<path d="M3022.8,919.1c-43.8-47.2-67-112.8-61.6-177c1.9-24.9,7.9-49.5,17.5-72.5c-12,30.9-17.3,64.3-15.5,97.4
			c0,2.3,0.4,5.9,0.6,8.2c0.3,4.7,1.4,11.7,2,16.4c7.6,46,29.6,89.4,62.1,122.7C3027.8,914.3,3022.8,919.1,3022.8,919.1
			L3022.8,919.1z"/>
	</g>
	<g>
		<path d="M2937,814.3c-61.4-66.5-95.7-156.9-93.8-247.3c0.1,89.7,35.9,178.7,98.1,243.2C2941.4,810.2,2937,814.3,2937,814.3
			L2937,814.3z"/>
	</g>
	<g>
		<path d="M2830.4,707.3c-39.7-31.9-87.3-54-137.6-62.3c-44.5-7.3-90.7-3.6-133.6,10.3c45.6-15.7,95.4-19.9,142.9-11.1
			c35.8,6.3,70.2,19.8,101.3,38.6c10.4,6.3,20.4,13.2,30,20.6L2830.4,707.3L2830.4,707.3z"/>
	</g>
	<g>
		<path d="M2746.8,637.3c-110.5-62.2-243.8-81.9-367.6-54.4c92.9-21.7,191.7-17.5,282.3,12.3c30.3,9.9,59.7,22.5,87.7,37.7
			L2746.8,637.3L2746.8,637.3z"/>
	</g>
	<g>
		<path d="M2762.7,649.9c-40.7-28.6-75.7-65.5-101.4-108c-29.4-47.9-47-103-51.6-158.9c5.2,52.5,21.8,103.8,48.7,149.1
			c13.4,22.6,29.3,43.8,47.4,62.8c13.5,14.3,28.2,27.5,43.9,39.4c5.2,3.9,10.6,7.8,16,11.5L2762.7,649.9L2762.7,649.9z"/>
	</g>
	<g>
		<path d="M2525.6,495.3c-111.6-62.5-247.3-75-368-32.1c-17.1,6-33.9,13-50.2,21c16.2-8.1,33-15.3,50.1-21.4
			c68.4-24.7,142.9-32.1,215-21.8c54.1,7.9,106.7,25.4,154.6,51.7C2527.1,492.7,2525.6,495.3,2525.6,495.3L2525.6,495.3z"/>
	</g>
	<g>
		<path d="M2457.3,463.7c-89.5-37.4-161.3-114.1-192.4-206.1c-4.5-13-8.2-26.4-11.1-39.9c3,13.5,6.8,26.7,11.5,39.7
			c29.5,84.6,93.6,156.2,174.4,195c6.2,3,12.5,5.8,18.8,8.4L2457.3,463.7L2457.3,463.7z"/>
	</g>
	<g>
		<path d="M2546.5,505.4c-44-20.6-83.9-50-116.6-85.9c-34.8-38.2-61.3-83.8-77.4-132.8c16.6,48.8,43.5,94,78.6,131.8
			c15.9,17.1,33.5,32.8,52.3,46.6c20.1,14.7,41.7,27.4,64.4,37.7L2546.5,505.4L2546.5,505.4z"/>
	</g>
	<g>
		<path d="M2368.6,425c-31.1-10.7-60.5-26.7-86-47.6c-28.8-23.5-52.6-53.3-69.2-86.6c16.1,31,38.3,58.8,65.1,81.2
			c16.7,14,35.2,25.8,54.7,35.4c3.4,1.6,8.5,4,11.9,5.4c8,3.4,16.1,6.5,24.4,9.2L2368.6,425L2368.6,425z"/>
	</g>
	<g>
		<path d="M2214,373.6c-66.2-11-134.5-9.7-200,5.1c-57.8,12.8-113.3,36.2-163.1,68.2c49.8-32.2,105.2-55.7,163-68.7
			c34.6-7.9,70.3-12.1,105.8-12.6c31.6-0.5,63.3,1.9,94.5,6.9L2214,373.6L2214,373.6z"/>
	</g>
	<g>
		<path d="M2240.4,382.9c-97.2-25.1-184.6-85.8-241.8-168.4c-8.2-11.7-15.8-23.9-22.8-36.4c7.1,12.4,14.7,24.6,23,36.2
			c41.2,58.4,97.3,106.2,161.7,137.2c25.7,12.4,52.7,22.3,80.3,29.4L2240.4,382.9L2240.4,382.9z"/>
	</g>
	<g>
		<path d="M2015.5,339.3c-110.5-8.1-212.1-46.4-288.4-128.9c55.2,59.5,129.3,99.7,208.5,116.4c26.3,5.6,53.1,9.7,79.9,11.6
			C2015.6,338.3,2015.5,339.3,2015.5,339.3L2015.5,339.3z"/>
	</g>
	<g>
		<path d="M2019.8,339.8c-46.6-3.8-94,1.6-138.5,15.9c-44.6,14.3-86.3,37.4-122.1,67.6c35.7-30.4,77.3-53.6,121.9-68.1
			c22.3-7.2,45.3-12.3,68.6-15c23.3-2.7,46.8-3.2,70.2-1.4L2019.8,339.8L2019.8,339.8z"/>
	</g>
	<g>
		<path d="M3012.1,1004.1c-60.6,37.9-126.9,30.4-174.1-24.4c-22.6-26.9-36.7-65.4,5.7-81c34.3-12,78.5-5.6,109.2,13.3
			C2985.1,932,3005.1,967.5,3012.1,1004.1L3012.1,1004.1z M3012.1,1004.1c-7.1-30.8-23-60.4-47.6-80.6
			c-16.4-13.4-36.5-21.4-57.2-24.9c-20.5-3.4-42.4-3.3-62.1,3.8c-15.1,5.6-26.7,16.2-24.6,33.5c1.8,15.6,10.6,29.4,20.4,41.4
			c20.2,23.9,48.4,42.5,79.8,47C2952.2,1028.7,2984.7,1020,3012.1,1004.1L3012.1,1004.1z"/>
	</g>
	<g>
		<path d="M3084.3,926.3c-21.3-25.1-32.4-58.3-28-91.2c1.9-16.3,5.7-32.9,15.2-46.7c16.1-23.8,47.6-21.2,66.8-2.7
			c18.7,18.4,16.6,47.6,10.1,70.8C3139.8,889.3,3115.4,914,3084.3,926.3L3084.3,926.3z M3084.3,926.3c39.9-18.6,61.8-50.6,65-94.3
			c1.8-25.3-8.3-47.5-33.8-55.1c-27.3-8-43.8,10.7-51.1,35C3052,853.5,3058.1,891.6,3084.3,926.3L3084.3,926.3z"/>
	</g>
	<g>
		<path d="M2854.8,659.8c-21.3-9.8-40.5-25.8-52.5-46.3c-11.9-20.6-18-44.6-17.4-68.4c0.6-19,7.3-39.7,23.7-50.9
			c24.3-17,61.4-11.9,78.2,13.2c13.8,19.9,17.3,45,15.9,68.7C2900.9,609.5,2881.6,640.4,2854.8,659.8L2854.8,659.8z M2854.8,659.8
			c39.3-31.7,53.7-76.7,40.6-125.4c-4.9-17.5-15.3-34.6-32.5-41.9c-16.6-7.1-37.2-5.4-52.1,4.9c-23.5,16.7-25,49.5-20.4,75.6
			C2797.4,611.8,2819.7,641.8,2854.8,659.8L2854.8,659.8z"/>
	</g>
	<g>
		<path d="M2526.4,570.9c-19.2,35.1-55,62.8-96.1,63.3c-31.5,0.9-80.2-11.7-87.8-47.1c-6.3-35,30.8-68.3,61.2-78.5
			C2454.1,490.8,2506.4,524.7,2526.4,570.9L2526.4,570.9z M2526.4,570.9c-21.2-44.1-72.6-77.1-121.4-59
			c-18.3,6.7-34.9,18.7-46.6,34.2c-30.8,42.3-0.7,72.3,42.7,81.9c19.1,4.2,39.5,4.7,58.3-1.4
			C2487.7,617.6,2511.1,596.2,2526.4,570.9L2526.4,570.9z"/>
	</g>
	<g>
		<path d="M2630.3,475.1c-52.7-16.5-82.9-57.8-79.7-113.3c1.5-24.1,10-54.9,31.5-68.7c13.3-8.5,30-4.1,42.5,3.5
			c17.4,10.6,30.8,26.6,40.1,44.5C2689.6,387.9,2671.2,444.1,2630.3,475.1L2630.3,475.1z M2630.3,475.1
			c38.9-32.4,56.3-86.1,31.3-132.4c-11.5-23.1-44.4-58.4-72.8-48.5c-15.5,6.4-24.4,23.8-29.4,39.1c-8.6,27.9-7.9,59.5,4.6,86.1
			C2576.8,446.3,2602.5,465.3,2630.3,475.1L2630.3,475.1z"/>
	</g>
	<g>
		<path d="M2216.6,446.5c-17.3,48.8-55.5,82.9-108.7,84.2c-26.1,1.1-69.2-6.2-73.9-37.4c-1.3-10.2,2-20.2,6.7-29.1
			c13.2-23.8,37.4-43.1,63.4-51C2144.7,401.6,2187.2,417.7,2216.6,446.5L2216.6,446.5z M2216.6,446.5
			c-36.2-32.6-88.9-47.2-132.7-20.6c-19.7,12.2-38.5,30.5-44.9,53.3c-3.9,14.7,1.2,27.4,14,35.6c26,16.4,68.9,15.6,96.9,4.3
			C2181.2,506,2204.3,477.6,2216.6,446.5L2216.6,446.5z"/>
	</g>
	<g>
		<path d="M2062.3,286.2c-34.6,1.9-70.8-7.7-97.5-30.5c-22.5-19.5-37.3-47-43.7-75.9c-3.5-16.6-4.3-37.7,6.8-51.6
			c17.1-20.4,52.1-13.2,73.5-3.9c29.6,12.8,55.7,36.4,66.2,67.5C2078,222.5,2074.3,256.7,2062.3,286.2L2062.3,286.2z M2062.3,286.2
			c10.8-29.7,13.7-63.4,3-93.5c-10.7-30-36.4-52.6-65.3-64.8c-19.7-8.4-53.2-15.7-68.9,2.9c0,0-1.2,1.5-1.2,1.5
			c-0.4,0.5-1.2,1.8-1.5,2.4c-0.3,0.5-1,2-1.3,2.5c-0.5,1.1-1.1,2.4-1.4,3.5c-10.3,32.2,8.9,77.1,29.9,101.8
			C1981.5,273.1,2022.7,286.9,2062.3,286.2L2062.3,286.2z"/>
	</g>
	<g>
		<path d="M3173.2,1170.9c-145.5-310.3-403.3-565.1-714.8-707.8c-250.3-115.5-532.8-154.8-806.1-123.9
			c271.1-32.1,551.6,5,801.4,116.8c245.2,110,459.8,287.8,612,509.5c44.1,63.8,83,131.1,116.6,201.1L3173.2,1170.9L3173.2,1170.9z"
			/>
	</g>
	<g>
		<path d="M1007.4,589.9C947.1,641.6,899.1,707.7,869,781.3c-19.5,47.2-31.8,97.5-36.5,148.4c2.6-34.7,8.8-69.2,18.2-102.7
			c17.5-61.2,46.3-119.3,85.1-169.9c20-26.2,42.5-50.5,67.1-72.4L1007.4,589.9L1007.4,589.9z"/>
	</g>
	<g>
		<path d="M939.9,639.2c-77.3,58.4-169.6,96.6-265.6,109.4c-13.7,1.8-27.4,3.2-41.2,4c13.7-1.2,27.4-2.8,41-4.9
			c67.9-10.6,133.8-33.8,193.4-68.1c23.8-13.7,46.5-29.1,68.1-46L939.9,639.2L939.9,639.2z"/>
	</g>
	<g>
		<path d="M768.6,794.7c-29.5,35.5-52.1,76.9-65.8,121.1c-13.7,44.3-18.3,91.5-13.5,137.7c-2.9-23.1-3.6-46.5-1.9-69.8
			c4.9-70.2,32.2-138.2,75.7-193.4C763.1,790.3,768.6,794.7,768.6,794.7L768.6,794.7z"/>
	</g>
	<g>
		<path d="M754.3,810.2c-32.4,31.4-74.1,52.9-118.5,60.5c-26.4,4.6-53.7,4.4-80-0.5c33,5.1,66.9,2.7,98.8-6.9
			c19-5.9,37.2-14.1,54-24.8c14.9-9.5,28.6-20.6,40.8-33.2L754.3,810.2L754.3,810.2z"/>
	</g>
	<g>
		<path d="M727,840.8c-17,19-37.4,34.9-60.3,46.1c-25.6,12.7-54.3,19.2-82.9,19.1c29.2-1.1,57.9-9.2,83.3-23.5
			c3.1-1.8,7.6-4.5,10.6-6.5c5.4-3.5,11-7.6,16-11.7c10.3-8.3,19.6-17.8,27.9-27.9L727,840.8L727,840.8z"/>
	</g>
	<g>
		<path d="M785.4,777.2c-29.9,34.3-51.7,75.5-63.2,119.5c-7.4,28.4-10.6,57.8-9.6,87.1c-1.5-23.5-0.3-47.2,3.5-70.4
			c5.5-32.6,16.4-64.4,32.2-93.5c9-16.7,19.7-32.5,31.7-47.3C780,772.7,785.4,777.2,785.4,777.2L785.4,777.2z"/>
	</g>
	<g>
		<path d="M669.3,911.7c-31.4,47.7-49.4,104.1-51.4,161.2c-1.4,44.6,6.5,89.5,23,131c-11.2-26.5-19-54.5-23-83.1
			c-1-7.4-2-16.5-2.4-23.9c-0.1-2.4-0.4-7.2-0.5-9.6c-0.1-3.2-0.1-11.1-0.2-14.5c0.1-4.6,0.3-9.8,0.5-14.5
			c0.2-3.3,0.9-11.1,1.2-14.4c5-48.1,21.3-94.9,46.9-136C663.4,907.9,669.3,911.7,669.3,911.7L669.3,911.7z"/>
	</g>
	<g>
		<path d="M603.4,1005.3c-48.7,74.1-117.6,134.8-197.5,173.2c58.8-30.3,111.2-72.6,153.2-123.6c14-16.9,26.8-34.8,38.4-53.4
			L603.4,1005.3L603.4,1005.3z"/>
	</g>
	<g>
		<path d="M570.1,1057.3c-31.6,54.4-46.7,118.1-42.7,180.8c3.1,49,17.6,97.2,41.8,139.8c-14.2-24.2-25.2-50.3-32.9-77.4
			c-15.3-54.2-15.9-112.6-1.9-167.2c7-27.4,17.6-53.8,31.4-78.5C565.7,1054.9,570.1,1057.3,570.1,1057.3L570.1,1057.3z"/>
	</g>
	<g>
		<path d="M543.5,1104.4c-28.6,73.1-42,152.3-38.8,230.8c2,50.4,10.8,100.5,25.9,148.7c-10.1-30.7-17.6-62.3-22.4-94.3
			c-12-80.1-6.8-162.8,15.3-240.7c4.4-15.6,9.5-31,15.2-46.2L543.5,1104.4L543.5,1104.4z"/>
	</g>
	<g>
		<path d="M485,1224.7c-37.8,80.4-97.4,150.4-171,200.2c54.4-38.1,101-87.2,136.1-143.5c11.7-18.7,22.1-38.3,31.3-58.4L485,1224.7
			L485,1224.7z"/>
	</g>
	<g>
		<path d="M435.6,1356c-18.8,93.5-11.9,191.9,19.6,281.9c10.5,30,23.6,59.1,39.2,86.9c-15.8-27.6-29.2-56.6-39.9-86.6
			c-21.4-60-32.2-123.9-31.4-187.6c0.4-31.9,3.6-63.8,9.6-95.1C432.7,1355.4,435.6,1356,435.6,1356L435.6,1356z"/>
	</g>
	<g>
		<path d="M431.7,1370.1c-47.1,104.3-107.6,202.5-179.7,291.3c71.2-89.4,130.8-188,176.9-292.6
			C429,1368.9,431.7,1370.1,431.7,1370.1L431.7,1370.1z"/>
	</g>
	<g>
		<path d="M375.4,1632c-11.8,62.1-34.9,122-67.7,176c32.5-54.1,55.2-114.1,66.7-176.1C374.4,1631.8,375.4,1632,375.4,1632
			L375.4,1632z"/>
	</g>
	<g>
		<path d="M369,1700.8c-3.8,76.6-29,152-72,215.5c32-47.7,54.1-102,64.4-158.5c3.5-18.8,5.6-37.9,6.5-57L369,1700.8L369,1700.8z"/>
	</g>
	<g>
		<path d="M848.3,838.9c-27,13.8-50.9,36-61.5,64.8c-9.4,25.5-8.6,64.4,6.5,87.4c17.7,25.9,47.5,6.9,63.3-11
			c10-11.2,18.1-24.5,21.9-39.1c2.8-10.4,3.5-21.3,2.5-32.1c-1.2-12.4-5-24.6-10.1-35.9C865,860.6,857.2,849.2,848.3,838.9
			L848.3,838.9z M848.3,838.9c3.7,3.9,7.4,8.2,10.8,12.5c1.9,2.6,4,5.4,5.7,8.1c0,0,3.5,5.6,3.5,5.6c1.3,2.4,2.6,4.9,4,7.3
			c1.5,3.3,3.4,7.1,4.7,10.6c7.7,19.6,9.7,41.7,3.8,62.1c-7.4,24.8-29,52.2-54,60.8c-27.1,8.9-41.8-14.1-46.8-37.4
			c-4.5-21.7-3.9-44.9,4.1-65.8C795.4,873.7,820.3,851.6,848.3,838.9L848.3,838.9z"/>
	</g>
	<g>
		<path d="M757.5,729.6c-4.8,23.1-17.8,44.9-37.8,57.9c-32.5,22.1-88.7,26.3-122.8,5.7c-14.8-9.3-18.9-22.2-13.5-38.7
			c7.9-22.8,26.1-40.8,46.6-52.7C672.9,676.6,727.8,691.2,757.5,729.6L757.5,729.6z M757.5,729.6c-18.3-21.1-44.7-35.7-72.7-37.5
			c-27.9-2.1-55.4,10-75.1,29.5c-12.3,12.3-24.8,29.3-24.6,47.3c0.1,9.2,6.4,16.3,13.9,21c23.5,14.1,54.3,15.3,80.7,10.6
			C719.2,793.1,747.5,768.9,757.5,729.6L757.5,729.6z"/>
	</g>
	<g>
		<path d="M618,1112.5c-13.6,28.2-22.7,60.6-16.1,91.8c3.2,15.4,11.7,29.1,22.8,40.1c30,30.6,55.7,14.6,65.4-22.6
			C702.5,1172.9,657.8,1132.3,618,1112.5L618,1112.5z M618,1112.5c52.2,22.6,100.4,74.9,66.6,132.9c-16.9,27.6-42.4,22.8-62.6,1.7
			c-11.4-11.6-20.1-26.1-23.2-42.1C592.6,1173.4,602.8,1140,618,1112.5L618,1112.5z"/>
	</g>
	<g>
		<path d="M481.6,1131.8c-0.1,26.7-8.5,54.3-26.6,74.3c-12.2,13.4-28.9,22.3-46.4,26.7c-28.1,7.6-75.5,5.1-78.7-32
			c-1.2-22.9,12.1-44.7,27.5-60.6C390.5,1105.8,443.2,1106.7,481.6,1131.8L481.6,1131.8z M481.6,1131.8
			c-50-28.6-107.6-19.9-137.5,31.8c-13.4,23-17.9,53.5,12.1,64.7c27.4,9.8,64.1,2.1,87.1-15.2
			C468.1,1194.1,480.1,1162.4,481.6,1131.8L481.6,1131.8z"/>
	</g>
	<g>
		<path d="M384.8,1365.6c-1.1,30-11.5,60.7-33,82.2c-9.2,9.3-20.4,16.5-32.2,21.9c-28,13.2-70.3,19.3-73.9-22.2
			c-1.7-26.4,11.6-55.8,31.6-72.9c15.8-13.5,36.8-19.9,57.4-20c1.9,0,4.6,0,6.5,0.1c1.9,0.2,4.6,0.2,6.5,0.5c0,0,6.4,0.9,6.4,0.9
			l6.3,1.3c3,0.6,6.4,1.6,9.4,2.4c2.9,1.1,6.3,2,9.1,3.2C378.9,1363.2,384.8,1365.6,384.8,1365.6L384.8,1365.6z M384.8,1365.6
			c-9.9-3.9-20.4-6.7-30.9-8.1c-23.5-3-48.6,1-68.2,14.8c-1.4,1.1-3.6,2.8-5,3.9c-10.8,9.2-19,21.3-24.3,34.4
			c-7,17.1-12.3,44.2,2.7,58.4c15.4,13.2,42.4,4.9,59.1-2.4C359.6,1449.2,381.3,1409.1,384.8,1365.6L384.8,1365.6z"/>
	</g>
	<g>
		<path d="M449.5,1622.4c53,10.3,87.2,47.9,91.8,101.8c2.5,26-4.9,64.8-38.9,59.9c-22.4-3.5-42.1-18.7-56.1-36
			C416.9,1711.6,423.9,1658.9,449.5,1622.4L449.5,1622.4z M449.5,1622.4c-23.4,37.4-29.7,87.5-0.5,123.6
			c13.9,17.6,45.9,41.4,69.2,32.6c18.3-8.1,20.8-36.5,19.4-54.1C533.4,1671.1,501.3,1635,449.5,1622.4L449.5,1622.4z"/>
	</g>
	<g>
		<path d="M315.2,1576.1c22.4,43,20,91.8-22,121.4c-20.9,14.8-53.3,25.1-78,14.8c-28.2-12.9-20.8-51.6-10.9-74.6
			C223,1592.4,268.6,1573.6,315.2,1576.1L315.2,1576.1z M315.2,1576.1c-24.4-0.3-49.3,5.2-70.2,18c-17,10.4-30,26.5-37.4,44.9
			c-7.4,18-13.8,45.7-0.7,62.3c5.5,6.5,14,9.6,22.4,10.7c33.8,3.6,72.2-16.4,88.6-46.1C333,1638.2,328.3,1603.7,315.2,1576.1
			L315.2,1576.1z"/>
	</g>
	<g>
		<path d="M1056.8,559.3c-215.2,134.9-395.1,326.2-515.4,549.9c-7.1,12.7-14.5,27.9-21.2,40.8c-5.4,11-14.8,30.5-19.9,41.5
			c-19.9,43.5-38.3,89-53.9,134.2c-51.5,149.3-78.6,307-80.5,464.9c-0.9,70.2,3.2,140.5,12.4,210.2c-9.6-69.6-14.1-139.9-13.6-210.2
			c1.3-237.4,60.2-474.5,171.9-684c111.4-210.1,274.9-392,470.8-526.7c14.5-10,29.2-19.7,44.1-29.1L1056.8,559.3L1056.8,559.3z"/>
	</g>
</g>
</svg>
