<?xml version="1.0" encoding="utf-8"?>
<!-- Generator: Adobe Illustrator 26.0.0, SVG Export Plug-In . SVG Version: 6.00 Build 0)  -->
<svg version="1.1" id="Layer_1" xmlns="http://www.w3.org/2000/svg" xmlns:xlink="http://www.w3.org/1999/xlink" x="0px" y="0px"
	 viewBox="0 0 3600 3600" style="enable-background:new 0 0 3600 3600;" xml:space="preserve">
<g>
	<g>
		<path d="M2135,3228.7c-23.4-38.1-59.9-78.6-108.3-76c-12.7,0.8-32,3-39.2,14.6c-6.7,12.3,6,28.1,14.3,37
			c16,17.3,40.1,21.5,62.6,23.3C2087.9,3229.8,2111.4,3230.7,2135,3228.7L2135,3228.7z M2135,3228.7c-23.3,4.6-47.3,5.1-71,4.2
			c-30.3-0.9-56.8-6.7-75.8-32.6c-7.7-10.1-14.8-24.6-7.7-37c10.1-16.9,40.5-19.4,58.2-17.6
			C2083.7,3150.3,2116.8,3190.3,2135,3228.7L2135,3228.7z"/>
	</g>
	<g>
		<path d="M2135,3228.7c2.8,25.1-1.6,52-16.2,73c-11.5,16.8-30,27.8-49.4,33.2c-39.4,10.5-71.4-3.3-50.3-47.8
			c2.6-5.2,5.3-10.3,8.7-15c0.6-0.8,2.1-2.7,2.6-3.5c2.8-3.2,5.9-6.6,9.2-9.4c2.9-2.4,6.1-4.9,9.3-6.9c12.8-8.3,27.3-13.2,41.9-16.9
			C2105.3,3231.8,2120.1,3229,2135,3228.7L2135,3228.7z M2135,3228.7c-14.7,2.1-29,5.9-43.1,10.6c-24,7.6-48.1,18.8-61.1,41.4
			c-5.9,10.7-13.7,26.8-9.3,38.7c4.2,9.2,15.7,10.8,24.9,11c14.1-0.1,28.5-4,41.1-10.3C2121.7,3303.9,2135.3,3264.5,2135,3228.7
			L2135,3228.7z"/>
	</g>
	<g>
		<path d="M1860,3269.1c-19.4-41.7-49.2-74.2-92.4-90.9c-17.4-6.9-58.9-21.1-66.5,4.2c-3.4,11.9-0.6,25.4,4.3,36.6
			C1729,3268.4,1812,3272.1,1860,3269.1L1860,3269.1z M1860,3269.1c-50.7,8.2-135.6,6.1-161.7-46.9c-5.7-13.1-8.9-28-4.9-42.2
			c6.8-22.3,32.1-21.9,50.8-17.2C1800,3176.8,1841,3215,1860,3269.1L1860,3269.1z"/>
	</g>
	<g>
		<path d="M1860,3269.1c-22.2,4.2-47,9.8-68.9,15.4c-24.2,6.7-54.4,15.1-63.8,41c-4.8,13.3-5.5,29.1,10.2,34.7
			c23.3,7.8,55-2,75.4-14.6C1839.6,3329.2,1855.1,3299.6,1860,3269.1L1860,3269.1z M1860,3269.1c-2.4,42.3-25.1,77.3-65.1,93
			c-20,8.4-58.9,15.8-73.9-4.5c-7-10.3-5.1-23.9-1-34.9c13.4-35.6,60.5-41.7,93.1-47.7C1828.7,3272.7,1844.3,3270.2,1860,3269.1
			L1860,3269.1z"/>
	</g>
	<g>
		<path d="M1540.5,3266.6c-84.4-49.1-161.5-110.5-229.5-180.5c0,0,6.7-1.8,6.7-1.8c-2.4,9.8-3.5,19.8-3.4,29.9
			c0.6,37.5,21.6,71.9,51.4,93.9c10.9,7.8,22.9,14.7,35.7,18.5c6.5,1.9,13.2,2.6,20,3.3C1462.8,3234.9,1503.3,3247.9,1540.5,3266.6
			L1540.5,3266.6z M1540.5,3266.6c-38.2-16.1-78.4-27.7-119.7-31.2c-7-0.6-14.1-1.2-21-3c-18.9-5.3-36-15.8-50.6-28.7
			c-28.4-25.6-45.3-61.5-42.5-100.1c0.6-9.4,2.8-19,5.1-28.1c0,0,5,5.2,5,5.2C1384.1,3150.7,1459.6,3212.7,1540.5,3266.6
			L1540.5,3266.6z"/>
	</g>
	<g>
		<path d="M1540.5,3266.6c-37.5,13.9-74.9,29-111.2,45.7c-15.3,6.8-31.8,14.7-47.5,20.7c-32.5,12.4-67.2,18.4-101.7,20.9
			c0,0-5,0.3-5,0.3c3.5-22.2,11.6-43.8,24.5-62.2c19.5-28.1,50.2-49.7,83.4-58.1c8.3-2.1,17.2-3.3,25.7-3.4
			c2.9-0.2,7.4,0.2,10.4,0.3c15.3,1.3,30.4,5,45,8.9C1490.1,3246.8,1515.8,3255.5,1540.5,3266.6L1540.5,3266.6z M1540.5,3266.6
			c-37.9-13.5-77-25.1-116.9-29.8c-2.8-0.4-7-0.4-9.9-0.5c-2.7-0.1-7.1,0.2-9.8,0.3c-1.8,0.2-5.6,0.7-7.3,0.9
			c-2.4,0.5-4.9,0.9-7.2,1.4c-30.4,7.2-57.9,25.4-77.5,49.6c-14.3,18-23.8,39.6-28.1,62.1c0,0-4.1-4.6-4.1-4.6
			c22.7-1.4,45.2-4.7,67.4-9.7c22.1-5,43.2-13.3,64.3-22.3C1453.3,3295.8,1496.5,3279.6,1540.5,3266.6L1540.5,3266.6z"/>
	</g>
	<g>
		<path d="M1202.3,3159.2c-26.3-44.6-47.6-92.4-62.3-142.1c-5.5-18.2-11-36.8-21-53.1c-4.8-7.9-10.9-15.4-17.7-21.6
			c-10.2-9.1-25.9-20.3-39.7-20.8c-12.5-0.4-16.7,13-18.1,23.7c-2.1,18.7,0.5,38,4.5,56.3c3,13.1,7.7,25.8,13.5,38
			C1089.8,3096.3,1141.7,3140.3,1202.3,3159.2L1202.3,3159.2z M1202.3,3159.2c-63.3-15.3-118.9-60.5-148.1-118.8
			c-7.3-14.8-12.6-30.6-15.6-46.8c-3.8-21.3-10.9-72.9,17.4-79.4c18.4-3.7,41.8,13.7,54.1,26c10.4,10.8,18.3,24,23.9,37.8
			c5.1,12.2,8.5,24.8,11.9,37.3c3.4,12.4,7.1,24.7,11.2,37C1169.4,3089.1,1184.9,3124.6,1202.3,3159.2L1202.3,3159.2z"/>
	</g>
	<g>
		<path d="M1202.3,3159.2c-35.5-10.9-70.3-27.2-99.3-51c-6.5-5.5-13.2-11.6-19.1-17.8c-16.2-16.4-27.4-37-42.1-54.5
			c-21.1-25.3-60.2-53.2-93.2-57.9c-10-1.2-20.6,1.1-24.4,11.4c-5.7,14.2-1,39,4,53.4c15.6,43,56,70.7,95.8,89.8
			C1079.1,3159.1,1142,3163.6,1202.3,3159.2L1202.3,3159.2z M1202.3,3159.2c-60.7,7.8-124.6,4.8-181-20.9
			c-41.9-19.1-84-47.8-100.5-92.8c-2.7-7.4-4.4-15.2-5.7-22.9c-7.8-46,14.1-63.3,57.4-46c28.8,11.9,54.6,31.2,74.4,55.1
			c9.8,11.9,17.6,25.2,26.6,37.6c5.6,7.6,11.5,15,18.1,21.7c5,5.3,10.9,10.9,16.5,15.6C1135.6,3130,1168.5,3146.7,1202.3,3159.2
			L1202.3,3159.2z"/>
	</g>
	<g>
		<path d="M803.6,2920.6c-51.1-35.6-97.8-88.1-102.4-152.9c-3.5-34.2,8.5-60.2,47.1-48.9c20.1,6.2,38.3,18.5,51.1,35.2
			C834.2,2799.5,836.6,2873.5,803.6,2920.6L803.6,2920.6z M803.6,2920.6c30-50.4,24-130.2-18.9-171.7
			c-13.2-12.6-34.4-24.4-52.9-24.8c-23.4-0.5-24.4,25.3-23.1,43C712.3,2830.4,756.6,2881.8,803.6,2920.6L803.6,2920.6z"/>
	</g>
	<g>
		<path d="M803.6,2920.6c-19.2-15.5-38.4-31-58.3-45.5c-16.5-11.9-33.3-23.6-51.7-32.1c-7-3.1-14.6-5.9-22.1-6.2
			c-12.7-0.7-16.5,10.5-17,21.3c-0.9,15.4,3.4,31.2,14.2,42.6c14.9,16.1,36.6,24.6,57.7,29.2
			C752.2,2935.6,779.3,2931.3,803.6,2920.6L803.6,2920.6z M803.6,2920.6c-29,16.9-64.6,21-96.7,10.6c-35.6-10.7-62.5-33.6-60.5-73.5
			C653.7,2774.4,779.9,2897.3,803.6,2920.6L803.6,2920.6z"/>
	</g>
	<g>
		<path d="M602.5,2699.3c-64.6-46.7-121.6-116.2-134.9-196.7c-8-52.9,6.1-100.5,51.8-131.4c17-11.9,36.4-19.5,56-25.7
			c0,0,0.2,5.2,0.2,5.2c1.4,44.5,0.7,89-2.6,133.4c-2,29.4-6.8,58.7-5.3,88.2C569.8,2616.6,582.9,2659.7,602.5,2699.3L602.5,2699.3z
			 M602.5,2699.3c-21.8-38.8-36.5-82.1-39.7-126.6c-2.4-29.7,2-59.4,3.4-89c2.7-44.2,2.9-88.5,1.4-132.7c0,0,5.1,3.6,5.1,3.6
			c-17.3,5.6-34,13-48.9,23.2c-14.7,10.1-27.9,22.9-36.5,38.6c-15.4,27.7-17.4,61.1-11.8,91.9
			C489.8,2585.1,542.8,2651.2,602.5,2699.3L602.5,2699.3z"/>
	</g>
	<g>
		<path d="M600.1,2697.4c-34.9-25.9-66.1-56.8-91.7-92c-8.6-11.7-16.3-24-23.9-36.3c-7.5-12.1-14.9-24.4-24.4-34.9
			c-9.3-10.4-21-18.3-33.9-23.6c-26.1-10.8-55.5-10.4-83-5.1c0,0,3-5.4,3-5.4c10.1,25.7,24.1,49.9,41.4,71.5
			c25.7,33,60.4,57.3,96.7,77.6C520.6,2670.3,559.6,2686.3,600.1,2697.4L600.1,2697.4z M600.1,2697.4
			c-61.9-13.1-120.8-40.3-172.3-77c-39.9-29.8-70.7-71.1-89-117.4c0,0-1.8-4.5-1.8-4.5l4.7-0.9c27-5.2,56-5.7,82.2,3.9
			c15.7,5.8,30.4,15.3,41.4,28c9.8,11.1,17.1,23.8,24.5,36.4c7.3,12.4,14.8,24.7,22.9,36.5C537.1,2638,567.1,2669.7,600.1,2697.4
			L600.1,2697.4z"/>
	</g>
	<g>
		<path d="M393.2,2353.1c-24.3-39.3-46.3-97.8-27.1-142.9c0.5-1.2,2-4.1,2.5-5.3c4.1-7.2,8.7-14.2,14.1-20.5
			c14-16.5,33.9-27.2,56-22.3c23,4.5,35.4,23.5,38.8,45.5c4.5,30.1-3,61.4-17.5,87.9C445.7,2322,420.9,2342.3,393.2,2353.1
			L393.2,2353.1z M393.2,2353.1c35.6-17.2,62.7-48.9,72.8-87.1c5.1-18.4,7.5-38.1,4.1-57.1c-4.5-25.6-19.8-41.4-46.5-39.8
			c-18.9,1.8-33.5,16.6-43.9,31.7c-1.6,2.2-3.3,5.2-4.8,7.5c-0.5,1-1.9,3.7-2.4,4.7c-3.9,8.6-6.3,18.1-7.2,27.5
			C361.9,2278.4,376.4,2319.7,393.2,2353.1L393.2,2353.1z"/>
	</g>
	<g>
		<path d="M393.2,2353.1c-11.7-22.9-63.5-129.1-95.9-103.6c-5.2,4.1-9.4,10.1-12.3,16.5c-6.1,12.9-5,28.1-0.3,41.4
			C300.8,2353.2,349.1,2371.1,393.2,2353.1L393.2,2353.1z M393.2,2353.1c-35.5,19.2-80.6,11.5-104.4-22.3
			c-13.9-19.1-21.3-45.6-11-68.1c5.2-10.8,13.6-22,26.1-24.5C343,2231.9,382.2,2322.5,393.2,2353.1L393.2,2353.1z"/>
	</g>
	<g>
		<path d="M317.2,2105c-2.9-13.7-5.3-28.1-6.4-42.2c-0.2-4.3-0.7-10.1-0.7-14.3c0-2.6-0.1-8.2-0.1-10.7c0.1-2.2,0.3-8.4,0.4-10.7
			c0,0,0.5-7.1,0.5-7.1c2.6-33.6,13.4-66.3,30.7-95.1c6.6-10.6,21.5-34.8,36.4-24.7c15.2,11.5,16.3,53.4,15.2,71.3
			C390,2025.3,358,2071.6,317.2,2105L317.2,2105z M317.2,2105c16.8-16.5,32-34.8,44.1-55c1.2-2.2,4.1-7,5.1-9.2
			c0.8-1.6,2.4-4.7,3.1-6.3c1-2.1,3.3-7.4,4.3-9.6c0.8-2.3,2.9-7.6,3.7-9.8c1-3.2,2.2-6.8,3.1-10c0.9-4,2.5-9.6,3-13.6
			c0.3-1.9,1-4.9,1.1-6.8c0,0,0.7-6.9,0.7-6.9c1.5-16.1,0.6-32.6-2.2-48.4c-0.9-4.5-2-8.9-3.5-13c-1.4-3.6-3.3-7.8-6.2-9.9
			c-2.9-2.1-5.6-0.5-8.4,1.4c-10.4,8.4-17.1,21.1-23.7,32.9c-4.4,8.3-8.5,16.6-11.8,25.3C312.5,2010.2,311.1,2058.7,317.2,2105
			L317.2,2105z"/>
	</g>
	<g>
		<path d="M317.2,2105c-5.6-35.1-17.5-70.9-44-95.8c-2.9-2.5-6.4-5.6-9.5-7.9c-5.9-4.4-24.2-18-30.1-10.4
			c-5.6,8.8-2.1,26.2,0.3,36.1C243.7,2067.9,279.6,2091.9,317.2,2105L317.2,2105z M317.2,2105c-40.7-8.6-79.5-33.7-90.5-75.9
			c-3.3-12.3-7.2-31.6,0.6-42.9c13-16.7,42.7,9.5,52.8,19.8C305.4,2032,316,2069.4,317.2,2105L317.2,2105z"/>
	</g>
	<g>
		<path d="M310.3,2060.9c-6.4-21.5-18.1-41.8-35.4-56.3c-2.8-2.3-5.9-4.5-9-7c-15.1-12.6-24.4-31.3-28.6-50.2
			c-4.3-21.2-8.9-62.4,2.3-81.2c15.1-22.1,40.5,4.4,51.9,17.4c20.9,23.3,33.6,53.6,36.1,84.7
			C317.4,1998.2,311.8,2029.4,310.3,2060.9L310.3,2060.9z M310.3,2060.9c-0.9-23.6,1.1-47.4,6-70.6c1.6-7.7,3.5-15.4,5.8-23
			l-0.1,1.1c-0.9-7.4-2.4-14.7-4.4-21.9c-5.8-21.5-17-41.2-31.9-57.8c-7.5-8.2-20.8-22.8-32.2-22.9c-16.3,1.4-13.3,45.9-12.3,58.1
			c1.2,14.8,3.4,29.5,9.3,43.2c4.4,10,10.5,19.5,18.7,26.8c2.7,2.4,5.8,4.7,8.7,7.4C294.8,2016.8,305.8,2038.5,310.3,2060.9
			L310.3,2060.9z"/>
	</g>
	<g>
		<path d="M288.1,1811.6c-14-66.6-11.4-138,14-201.7c24-60.3,69.9-108.3,127.6-137.5c-11,39.8-20.4,80-28.8,120.4
			c-2.4,11.3-4.5,22.8-8.4,33.8c-4.1,11.1-10.1,21.4-17.3,30.8c-9.5,12.4-22.5,21.3-33.6,31.8c-16.5,15.6-29.1,35-37.7,55.9
			C295.2,1766.3,290.4,1788.9,288.1,1811.6L288.1,1811.6z M288.1,1811.6c1.1-23,4.9-46,12.9-67.6c8-21.8,20.5-42,36.9-58.5
			c5.4-5.5,11.4-10.4,17-15.6c11.4-9.9,20.3-21.8,26.8-35.4c3.3-6.7,5.6-13.6,7.3-20.9c9.2-44.9,18.3-90,30.4-134.3
			c0,0,5.8,4.5,5.8,4.5C304.1,1549.4,267.9,1682.4,288.1,1811.6L288.1,1811.6z"/>
	</g>
	<g>
		<path d="M288,1811.2c-6.7-33.9-9-68.6-7-103.1c1-17.3,3.2-34.5,6.4-51.5c3.2-17,7.6-33.9,12.9-50.4l-0.1,1.5
			c-3.8-18.8-9.5-37.2-17-54.8c-22.3-52.9-61.4-98.4-110.2-128.6c0,0,5.7-5.1,5.7-5.1c22.3,46.6,37.3,96.9,43,148.3
			c3.8,34,3.7,68.2,10.4,101.8C241.7,1719.6,261.9,1767.2,288,1811.2L288,1811.2z M288,1811.2c-30.6-46.4-53.6-98.7-63.4-153.6
			c-5.2-28.8-6.2-60.3-9.8-89.3c-4.1-33.7-12.3-66.8-23.7-98.7c-7.1-20.1-16.1-40-25.6-59.2c55.3,31.5,100.1,80.7,124,139.8
			c7.6,18.4,13.2,37.6,16.7,57.1c-5.7,16.4-10.3,33.2-13.9,50.2c-3.1,14.7-5.4,29.5-6.9,44.4C281.6,1738.3,282.6,1775.1,288,1811.2
			L288,1811.2z"/>
	</g>
	<g>
		<path d="M354.5,1350.5c6.8-34.4,20.3-82.3,46.7-106.6c17.8-16.3,37.5-10.8,50.3,8.2c6.2,9.1,9.5,20.3,8.4,31.3
			c-2,19-13.1,35.9-26.6,48.8C413.1,1351.4,380.7,1365.8,354.5,1350.5L354.5,1350.5z M354.5,1350.5c19.9,8.8,41.6,2.4,58.6-9.5
			c18.2-12.6,34.6-32.4,38.5-54.6c1.1-7.1,0.6-14.5-2.2-21.3c-3.7-8.6-9.8-17.1-18.4-21.3c-12.2-6-24.5,3.5-32.2,12.6
			c-9,10.5-15.8,22.6-21.8,35.1C367.9,1310.4,360.9,1330.3,354.5,1350.5L354.5,1350.5z"/>
	</g>
	<g>
		<path d="M354.5,1350.5c2.6-13.1,3.9-26.4,4.8-39.8c0.5-6.6,0.8-13.3,0.6-19.8c-0.2-12.9-2.2-26-8-37.5c-5.6-11-15.1-21-25.7-27
			c-20.5-11.7-27.8,15.6-29.4,31C291.7,1300.6,317.6,1331.6,354.5,1350.5L354.5,1350.5z M354.5,1350.5
			c-19.1-6.8-36.8-18.7-49.3-34.9c-12.9-16.6-17.8-38.3-15.9-59c2.3-30.3,19.6-56,49.5-31.1c20.4,17.1,27.5,39.5,26.3,65.4
			c-0.4,10.2-1.9,20.2-3.6,30.2C360,1331,357.7,1340.9,354.5,1350.5L354.5,1350.5z"/>
	</g>
	<g>
		<path d="M440.6,1138.8c12.7-45,31.9-89.1,63.2-124.4c31.9-36.4,81.6-50.5,128.6-52.1c0,0,9.5-0.4,9.5-0.4
			c-33.1,35.5-62,74.4-88.9,114.9c-13,18.8-26,38.7-45.9,51.1C487.4,1139.9,463.3,1142.6,440.6,1138.8L440.6,1138.8z M440.6,1138.8
			c20.9,2,42.9-1.1,61-12.1c20.8-12.2,33.3-33.7,46.3-53.4c24.2-38.6,51-75.9,81.7-109.7c0,0,3.1,6.7,3.1,6.7
			c-42.4,1.5-86.7,12.5-118.2,42.4C480.4,1045.1,456.4,1094.7,440.6,1138.8L440.6,1138.8z"/>
	</g>
	<g>
		<path d="M440.6,1138.8c-12.1-31.1-18.1-64.7-16.1-98.1c0.9-14.2,3.1-28.3,3.6-42.4c1.1-28-1.9-56.2-8.6-83.4c0,0-2.2-8.7-2.2-8.7
			l7.9,4.4c27.5,15,50.4,38.8,63,67.6c6.7,15.4,10.6,32,11.4,48.8c-6.4,8.7-12.5,17.7-18.2,26.8
			C464.6,1080.4,451.1,1109.1,440.6,1138.8L440.6,1138.8z M440.6,1138.8c8-30.7,20.4-60.2,36.1-87.8c5.3-9.2,11-18.2,17-26.9
			l-0.6,2.1c-1.7-19.8-7.5-39.2-17.6-56.3c-12.7-22.1-32-40-54.2-52.5c0,0,5.7-4.4,5.7-4.4c6.8,28,9.4,56.9,7.7,85.7
			c-0.9,14.3-3.5,28.3-4.8,42.4C426.7,1074,431.2,1107.1,440.6,1138.8L440.6,1138.8z"/>
	</g>
	<g>
		<path d="M602.8,884.2c28.7-35.5,74.9-86.8,117.7-103.4c21-7.9,39.3-2.1,47.2,19.9c5.1,14.1,1.2,28.7-7.6,40.4
			c-13.6,18-33.6,29.9-54,38.6C673.6,893.8,636,895.7,602.8,884.2L602.8,884.2z M602.8,884.2c39.1,9.2,77,3.4,112.1-16
			c19.1-10.5,46.2-29.8,47.1-53.5c0.1-10.9-5.9-24.2-16.2-28.1C708.9,773.7,628.4,858.3,602.8,884.2L602.8,884.2z"/>
	</g>
	<g>
		<path d="M602.8,884.2c-29.3-29.1-45-72.5-30.1-112.6c7.1-19.5,18.5-38.2,35.4-50.6c13.7-9.7,27.6-9.3,35.8,6.8
			c7.5,15.1,8.8,32.3,8.9,48.8C653.1,819.1,634.5,856.5,602.8,884.2L602.8,884.2z M602.8,884.2c21.7-23.2,37.9-52.2,41.8-83.9
			c1.9-15.5,1.6-31.6-0.9-47c-1.8-9.8-5.8-29-17-30.7c-14.6-0.5-29.8,19.1-37,30.6C561.4,796.8,571.1,845.2,602.8,884.2L602.8,884.2
			z"/>
	</g>
	<g>
		<path d="M640.2,841.4c1.3-7.2,2.9-18.6,3.9-26c1.2-8.8,2.8-18.1,3.9-26.9c0.7-4.8,2.2-15.3,2.9-19.9c2.8-15.8,8.9-31,18.4-44
			c13.8-18.5,33.9-31.9,55.9-38.9c16.8-5.3,40.2-5.9,42.9,16.5c2,19-8.9,43.8-20.9,58.2c-11.9,13.9-28.5,22.4-43.2,32.7
			C681.8,808,660.7,824.3,640.2,841.4L640.2,841.4z M640.2,841.4c18.8-19.1,39.2-36.7,60.8-52.6c13.8-10.6,29.8-19.5,40.8-32.9
			c9.9-11.4,27.2-49.8,14.1-61.9c-7.7-5.8-19.7-3.2-28.5-0.8c-24.5,7.7-47.1,23.6-60,46.1c-5.4,9.3-9.3,19.7-11.7,30.2
			c-0.9,4.5-2.9,15-3.9,19.7C648.6,806.8,643.8,823.9,640.2,841.4L640.2,841.4z"/>
	</g>
	<g>
		<path d="M879.3,618c-18.7-27.1-28.2-63-17-95c8.3-24.5,29.9-42.3,53.3-51.8c19.8-8.3,53.6-12.7,53.8,17.8
			C970,539,916.8,590,879.3,618L879.3,618z M879.3,618c31.3-29.2,74.9-73.8,81.7-117.2c1-7.6,2.3-19.9-4.6-24.7
			c-10.3-6.2-27-1.8-37.8,2.4c-16.3,6.5-31.6,17-42,31.3C853.9,541.9,861.3,585.4,879.3,618L879.3,618z"/>
	</g>
	<g>
		<path d="M879.3,618c34.9-39.1,90.5-79.4,145.8-66.5c16,3.7,41.7,12.7,29.7,33.6c-11.1,17.2-34.4,28.5-52.9,35.6
			C962.2,636,918.1,636.1,879.3,618L879.3,618z M879.3,618c47,16.8,99.1,10.2,142-14.3c6.9-4,13.7-8.5,19.4-13.9
			c3.3-3.2,6.2-6.4,8.1-10.3c0.9-2.2,1.5-4.4,0.6-6.7c-3.8-8.3-20.5-12.4-29.1-14.3C969,547.5,915.5,584.9,879.3,618L879.3,618z"/>
	</g>
	<g>
		<path d="M933.6,568.7c5.5-9.7,12.4-23.4,17.4-32.3c6.9-19.7,19.4-37.4,35.1-51.2c12.2-10.5,28.2-16.2,44.1-17.6
			c26.6-2.6,50.1,8.6,37.8,38.7c-3.7,8.8-8.8,16.7-15.1,23.7c-11.7,12.9-28.3,20.9-45.2,23.9c-10.9,1.1-21.8,2-32.7,3
			C963.1,560.5,946.5,564.7,933.6,568.7L933.6,568.7z M933.6,568.7c14-4.9,27.3-10.7,40.9-15.6c10.7-1.6,21.5-3.3,32.2-4.8
			c3.7-0.8,9.7-2.6,13.9-4.4c11-4.6,21-11.5,28.5-20.8c7-9.4,18.5-27,12.6-38.5c-5.9-9.5-20.6-9.9-30.9-9.2
			c-14.6,1.1-29.1,5.7-40.6,15c-15.6,12.7-28.2,29.1-36.3,47.6C947.4,547.9,939.9,558.5,933.6,568.7L933.6,568.7z"/>
	</g>
	<g>
		<path d="M1278.1,409.2c49.7-33,92.4-75.6,125.3-125.3c10.1-14.7,19.9-30.3,31.5-43.9c37.3-44.1,89-64.2,145.2-70.1
			c-21.5,17.7-42.1,38.3-53.3,64.2c-3.1,7.1-5.3,14.8-8.2,22.5c-5.4,15.6-14.5,30.2-26.2,42c-8.7,8.8-18.6,16-28.7,23.1
			c-10,7.1-20.5,13.6-31.6,18.8c-14.7,7-30.1,11.9-45.4,17.4C1349,371.2,1312.7,388.5,1278.1,409.2L1278.1,409.2z M1278.1,409.2
			c33.4-22.5,69.6-41.2,107.2-55.7c14.9-5.8,30.1-11.2,44.4-18.3c10.7-5.3,20.7-11.7,30.3-18.8c9.6-7,19.3-14.2,27.4-22.7
			c10.9-11.3,19.1-24.7,24.1-39.6c2.6-7.4,4.9-15.3,8.2-23c9.9-22.8,26.4-42.2,44.9-58.4c0,0,3.1,7,3.1,7
			c-15.5,2.1-30.9,5.5-45.7,10.6c-31.3,10.8-60.3,29.1-82,54.3c-19.4,22.6-34.4,48.6-53.6,71.5
			C1356.2,353.1,1319.1,384.7,1278.1,409.2L1278.1,409.2z"/>
	</g>
	<g>
		<path d="M1278.1,409.2c39.5-27.9,84.1-48.7,130.8-61.3c101.2-27.5,207.4-8.2,293,52.2c-56.7,17.8-133.2,32.6-192.1,22.4
			c-26.2-4.6-50.3-16.5-76.1-22.5c-28.6-6.9-58.6-8.1-87.9-5C1322.9,397.4,1300,402.4,1278.1,409.2L1278.1,409.2z M1278.1,409.2
			c22.9-8.1,46.4-14.4,70.6-17.4c28.6-3.7,57.8-3,86.1,3.1c25.9,5.3,50.1,16.9,76.2,21c25.8,4.3,52.1,3.1,78,0.3
			c34.7-4,69.2-10.9,102.6-21.3l-1,7.1c-32.1-21.6-67.6-37.9-104.8-48.1c-2.4-0.6-7.6-2-9.9-2.5c-2-0.4-7.9-1.8-10-2.2
			C1466.8,328.4,1362.4,355.3,1278.1,409.2L1278.1,409.2z"/>
	</g>
	<g>
		<path d="M1719.8,329.9c5.8-39.8,29.4-75.8,65.2-94.8c17.7-9.5,37.3-16.8,57.7-16.9c8,0,19.4,2.7,20.1,12.8
			c0.4,12.4-11.7,26.7-19.2,35.6c-11.8,13.4-25.1,25.7-40.3,35.4C1778.5,318.1,1749.2,327.4,1719.8,329.9L1719.8,329.9z
			 M1719.8,329.9c47.1-9,87.5-30.9,118.1-68.2c5.4-6.7,19.3-23.2,16.6-31.5c-1.8-3.4-8.4-3.9-12-4.1c-25.4,0.2-53.2,12.4-73.6,27.3
			C1743.9,271.9,1727.7,299.9,1719.8,329.9L1719.8,329.9z"/>
	</g>
	<g>
		<path d="M1719.8,329.9c58.4-14.5,135.6-21.5,185.2,19.1c7.1,6,13.4,13.2,18.9,20.7c7.6,10.9,17.4,27.2,8.7,40.1
			c-8.5,11.4-25.7,13.5-38.7,13.9c-22.6,0.2-45.8-5.9-64.4-18.9c-11.9-8.3-21.4-19.9-30.8-30.3c-9.4-10.5-20-19.8-32.1-26.9
			C1752.2,339.2,1736.2,333.2,1719.8,329.9L1719.8,329.9z M1719.8,329.9c31,3.5,61.2,18,82.6,41c14.4,15.2,27.4,29.5,47.3,37.2
			c18.4,7.2,39.4,10,58.7,6.3c7.4-1.7,15.9-4.4,18.9-11.6c2.7-9.5-4.4-20.6-9.8-28.5c-11.6-16.6-27.4-29.3-46.1-37.2
			C1824.2,317.7,1769.3,321.9,1719.8,329.9L1719.8,329.9z"/>
	</g>
	<g>
		<path d="M1775,318.8c44.4-35,109.1-63.2,164.4-38c25,12.2,41.9,37.1,48.9,63.5c1.9,8.2,3,17,0.9,25.5c-4.7,18.7-24.7,15.5-38.6,10
			c-16.5-6.5-31.1-15.9-45.3-26.2c-9.5-6.8-19.9-12.3-30.5-17C1843.7,322.5,1809.1,317.3,1775,318.8L1775,318.8z M1775,318.8
			c42.3-5.3,86.3,2,123.7,23c4.7,2.5,9.3,5.5,13.7,8.6c16.1,10.8,35.9,23.3,55.2,25.8c11.3,1.1,14.6-4.8,14.8-15.4
			c-0.6-24.4-14.9-50-33.6-65.4c-15.8-13-37-17.7-57.1-18.1C1849.5,277.3,1809.6,296,1775,318.8L1775,318.8z"/>
	</g>
	<g>
		<path d="M2132.4,371.6c30.6-27.6,89.2-69.4,132.3-58.7c12.8,2.6,25.4,9.6,32.5,20.9c5.9,9.4,10.2,21.2,6.5,32.4
			c-6.9,18.9-33.2,23.1-50.6,24.9C2212.1,394,2170,388,2132.4,371.6L2132.4,371.6z M2132.4,371.6c31,10.1,63.4,14.2,95.8,13.9
			c18.7-0.4,53.5-2,65.7-17.5c8.2-11.2-1.2-30.3-10.7-38.2c-7.2-6.1-16.7-9.1-26-10.7C2218.7,313.1,2163,349.4,2132.4,371.6
			L2132.4,371.6z"/>
	</g>
	<g>
		<path d="M2132.4,371.6c16.5,3.9,32.7,9.3,48.5,15.3c15.8,6.1,31.8,12,46.8,20.6c15.5,8.6,29.4,20.7,35.8,37.8
			c5.9,16.3,8.7,40.1-7.3,51.6c-21.4,13.8-56.6-0.1-75.9-12.5c-11.1-7-20.9-16-28.4-26.7C2134.5,433,2129.1,401.3,2132.4,371.6
			L2132.4,371.6z M2132.4,371.6c-0.5,53.8,21.1,98.6,73.8,117.4c20.2,7.4,53.5,12.5,54.1-17.8c0.3-12.6-3.3-26.1-10.8-36.5
			c-6.5-9.2-15.4-15.9-25-21.9c-14.3-8.7-29.8-15.5-45.1-22.3C2164,383.5,2148.4,377.2,2132.4,371.6L2132.4,371.6z"/>
	</g>
	<g>
		<path d="M2392.1,466.3c22.6-22.6,51.7-40,83.8-44.1c2.1-0.2,6.6-0.8,8.6-0.8c20.6-0.4,50.4,0.3,62.1,20.4
			c6.2,11.2,4.9,26.1-3.2,36c-12.9,15.4-36.3,16.8-54.9,16.7C2454.8,493.5,2420.5,485,2392.1,466.3L2392.1,466.3z M2392.1,466.3
			c33.1,16.7,70.6,23.3,107.4,21.1c19.6-1.4,45.2-8.2,42.9-32.6c-1-14.7-14.8-21.3-27.9-24c-10-2.2-20.8-2.6-31.1-2.6
			c-1.8,0.1-6.3,0.4-8.1,0.5c-6.8,0.8-13.5,1.9-20.1,3.8C2432,438.8,2410.9,451.5,2392.1,466.3L2392.1,466.3z"/>
	</g>
	<g>
		<path d="M2426.6,482.3c20.6,3.6,41.4,6.8,62.3,7c11.4,0.1,22.6-1.7,33.6-4.8c5.6-1.3,11.5-0.9,17,0.2c21.6,4.8,41.1,20.1,49.3,41
			c7.6,19,6.8,39.7-15.4,47.1c-14.9,4.5-32.5,2.1-45.7-6.1c-9-6.1-16.1-14.7-23.2-22.4c-4.1-4.4-8.5-9.8-12.2-14.6
			c-9-11.5-21.8-18.7-33.8-26.6C2448.1,496.5,2436.9,488.5,2426.6,482.3L2426.6,482.3z M2426.6,482.3c14.7,8.5,29.8,15.6,44.3,24.1
			c9.3,5.2,18.5,11.4,25.5,19.6c3.9,4.7,8.2,9.6,12.5,13.9c5.8,5.9,11.5,12.1,17.7,17.3c11.4,9.7,30.2,12.5,44.1,8.2
			c6.9-2.2,12.5-7.3,13.8-14.4c2-10.6-2.7-23.9-8.6-32.8c-8.8-13.1-22.7-23.1-38.1-26.8c-4.8-1.1-9.6-1.6-14.3-0.7
			c-7.2,1.7-14.7,3.1-22.1,3.4C2476.1,494.9,2451,489,2426.6,482.3L2426.6,482.3z"/>
	</g>
	<g>
		<path d="M2392.1,466.3c1.7,36.7,15.1,71.4,34.3,102.3c11.8,18.3,25.8,37.4,45.9,46.9c3.9,1.7,7.9,2.9,12,3.2
			c16,1.3,33.3-11,35.3-27.4c3.1-28.8-25-63.1-47.2-79.2c-0.9-0.5-3.1-2.3-4-2.7c-1-0.6-3.5-1.9-4.5-2.5
			C2440.5,494.3,2415.4,479.6,2392.1,466.3L2392.1,466.3z M2392.1,466.3c24.5,11.7,52.8,25.3,77.3,37.6c1.9,0.8,4.5,2.5,6.2,3.7
			c25.1,16.8,55.3,52.8,51.7,84.8c-2.3,20.6-23.4,36.1-43.7,34.2c-19.8-2.1-35-16.8-46.9-31.5
			C2408.9,558.5,2390.3,512.7,2392.1,466.3L2392.1,466.3z"/>
	</g>
	<g>
		<path d="M2655.5,631.9c9.9,45.6,25.4,89.9,42.9,133.1c17.9,43.6,43.6,81.4,81.1,110.4c24.2,19,51.7,33.6,80.7,43.9
			c0,0-5.3,4.1-5.3,4.1c-3.2-45.1-16.8-89.6-40.8-128.1c-16.1-25.9-37.1-48-58-70C2724.9,691.8,2691.3,660.6,2655.5,631.9
			L2655.5,631.9z M2655.5,631.9c37.3,26.7,72.1,57.1,104.4,89.8c21.6,21.7,43.5,43.9,60.1,69.9c26.4,40.9,40.5,89,43.3,137.4
			c-31.8-10.9-62.1-26.6-88.5-47.6c-31.1-24.7-55.6-56.7-72-92.7c-10-21.3-17.4-43.7-24.7-65.9
			C2668.3,693.1,2660.5,662.7,2655.5,631.9L2655.5,631.9z"/>
	</g>
	<g>
		<path d="M2655.5,631.9c83.8-10.5,172.7,18.3,233.1,77.8c10.2,10.1,19.5,21.2,28,32.6c-55.6,10.8-96.9,0.6-145-27.8
			C2730.4,690.9,2691.4,663.2,2655.5,631.9L2655.5,631.9z M2655.5,631.9c37.8,28.6,77.4,54.7,119.2,77.2
			c20.5,10.9,42,21.5,64.8,26.1c22.7,4.6,46.4,4.6,69.3,0.4l-2.5,6.4c-7.1-9.4-14.9-18.4-23.2-26.7
			C2823.9,656.4,2738.5,627.3,2655.5,631.9L2655.5,631.9z"/>
	</g>
	<g>
		<path d="M2951.7,925.7c33.6,0.1,67.7,8.3,96,26.8c4.7,3,9.4,6.5,13.7,10c8.8,7.2,17.7,14.6,24.2,24.3c10.5,15.1,9.7,32.9-2.3,46.9
			c-18.1,21.1-50.4,20.2-67.9-1c-3-4.6-5.8-9.3-8.6-13.9C2988.7,989,2969.5,955.5,2951.7,925.7L2951.7,925.7z M2951.7,925.7
			c16.6,24.9,36,52.7,52.7,77.5c5,7.4,11.9,17.8,16.7,25.2c0,0-0.3-0.4-0.3-0.4l1.3,1.4c0.7,0.8,2,1.9,2.8,2.6
			c0.5,0.4,1.8,1.4,2.2,1.8c0.5,0.4,1.8,1.2,2.4,1.6c10.7,6.7,24.7,7.9,36,2.2c9.9-5,18-14.6,19.5-25.7c1.6-13-7-24.3-15.8-33.2
			C3036.5,946,2997.4,930.5,2951.7,925.7L2951.7,925.7z"/>
	</g>
	<g>
		<path d="M2951.7,925.7c-14.7,13.4-27.1,29.4-35.7,47.4c-10.7,24-21.8,52.6-10.1,78.1c6.6,13.5,19.2,28,35,29.2
			c14.1,0.5,24.1-11,30.9-22.4c5.4-9,9.5-19.1,11-29.5C2987.8,992.1,2970.9,955.8,2951.7,925.7L2951.7,925.7z M2951.7,925.7
			c27,33.4,50,82.3,32.1,124.9c-7.2,17.1-20.2,36.7-40.7,37.7c-6.8,0.4-13.7-1.9-19.3-5.3c-7.4-4.5-13.5-10.7-18.5-17.6
			c-13-17.4-13.9-40.5-7.6-60.6c4.9-15.7,11.6-30.5,20.5-44.2C2927.3,947.1,2938.6,935.3,2951.7,925.7L2951.7,925.7z"/>
	</g>
	<g>
		<path d="M2983.7,981.6c13.7,15.6,25.6,32.7,36.5,50.2c3.7,5.8,7.3,11.7,10.7,17.8c6,10.8,12.2,22.6,12.4,35.4
			c-0.1,20.6-19.9,41.6-41.3,39.1c-13.5-1.7-25.2-11.8-29.7-24.5c-1.8-5.4-1.9-11.6-0.9-17.1c1.3-7.3,3.8-13.7,5.9-20.3
			c2.1-6.5,3.9-13,5.4-19.6C2987,1022.6,2986.7,1002,2983.7,981.6L2983.7,981.6z M2983.7,981.6c5.6,20,7.3,41.4,4.2,62
			c-1.8,13.6-7.1,26.7-9.4,40.1c-0.7,4.7-0.5,9.1,1,13.5c2.7,7.1,8.3,13.1,15.1,16.5c17.4,9.3,37.4-6.8,40.9-24.2
			c1.9-9.5-1.7-19-5.5-27.7c-4.1-9.4-9.2-18.2-14.1-27.2C3005.9,1016.3,2995.3,998.7,2983.7,981.6L2983.7,981.6z"/>
	</g>
	<g>
		<path d="M3080.5,1143.2c5.3,19.5,9.3,39.5,12.2,59.5c3,20.1,6.2,40.2,6.6,60.6c0.7,20.5-3.7,41.3-11.5,60.3
			c-5.1,12.9-11.6,25.4-20.9,35.9c-23.8,26.9-58.4,26.9-87.6,8.8c-4.6-2.7-9.3-6.4-13.6-9.6c39.3-19.6,72.2-51.9,90.9-91.8
			c6.7-14.3,11.7-29.4,15.5-44.7C3078.7,1196.3,3081.6,1169.9,3080.5,1143.2L3080.5,1143.2z M3080.5,1143.2
			c3.7,31.9,0.2,64.5-8.1,95.4c-9.4,36.7-29.6,70.6-57.8,95.9c-12.1,10.9-25.5,20.3-39.8,28.1c0,0,0.5-6.6,0.5-6.6
			c5.2,3.9,10.7,7.2,16.6,10c24.6,11.7,50.7,9.1,69.3-11.7c13.3-14.5,20.8-33.5,26.9-52c8-25.5,6-52.8,3.4-79.1
			C3088.8,1196.8,3085.8,1169.2,3080.5,1143.2L3080.5,1143.2z"/>
	</g>
	<g>
		<path d="M3080.5,1143.2c36.9,43.4,80.9,80.6,130.2,109c35.9,20.7,74.5,36.5,114.4,47.4c-7.8,6-16,12.1-24.7,16.7
			c-33.6,17.9-72.3,19.2-106.1,1.1c-19.5-10.3-35.8-24.5-51.3-39.7C3107.5,1241.7,3086.8,1192.7,3080.5,1143.2L3080.5,1143.2z
			 M3080.5,1143.2c10.6,55.6,37.7,108.7,82.5,144c14.9,12.4,30.6,23.4,48.8,29.7c0.8,0.2,5.4,1.7,6.2,1.9c1.8,0.5,4.4,1,6.3,1.5
			c2.5,0.5,5.1,0.9,7.6,1.3c15.3,1.9,31.1,0.4,45.7-4.4c13.1-4.3,25.4-10.9,36.5-19.2l1.3,6.9c-46.5-13.5-91-34.4-130.8-61.9
			C3144.7,1215.8,3109.3,1181.8,3080.5,1143.2L3080.5,1143.2z"/>
	</g>
	<g>
		<path d="M3193.1,1453.9c36.2-1.6,72.3,10.9,99.2,35.4c17.6,15.2,28.3,36.8,31.6,59.7c7.3,47.9-19.4,62.7-60.7,41.2
			c-28.7-15.1-51.7-38.8-61.6-70C3195.4,1498.7,3192.5,1476.2,3193.1,1453.9L3193.1,1453.9z M3193.1,1453.9
			c1.2,17.7,4.3,35.2,9,52.3c8.6,34.8,32.9,61.5,64.6,77.3c25.3,12.5,50.9,15.4,50.6-20.6c-0.4-16.9-4.6-34.4-13.2-49
			c-4.4-7.4-9.9-14.1-16.1-20C3262.8,1469.2,3228.2,1455.6,3193.1,1453.9L3193.1,1453.9z"/>
	</g>
	<g>
		<path d="M3193.1,1453.9c-48.3,16.8-85,56.4-104.8,102.7c-8.2,18.7-21.8,63.9,0.6,76.2c5,2.7,10.6,3.6,16.5,3.6
			c14.4,0.1,28.7-4.9,39.9-14.1C3188.2,1586.1,3194.8,1506.8,3193.1,1453.9L3193.1,1453.9z M3193.1,1453.9
			c7.1,56.8,0.6,153.1-56.5,183.2c-14.5,7.3-36.7,10.8-51.6,2.7c-27.6-15.4-13.7-63.4-3.1-86
			C3102.9,1507.1,3142.7,1466.9,3193.1,1453.9L3193.1,1453.9z"/>
	</g>
	<g>
		<path d="M3197.1,1503.3c2.7-0.1,4.6,8.1,5.6,10.3c3.9,11.4,8.6,22.7,15.5,32.7c9,13.3,21.3,24.2,35,32.5l0.4,0.2l0.2,0.5
			c9.8,25.7,11.5,53.5,6.2,80.4c-2.1,10.8-4.8,21.8-10.2,31.6c-8.7,16.3-23.2,21.4-38.7,10c-6.8-5-12.4-11.5-17.3-18.3
			c-6.4-8.9-12-18.3-16.5-28.3c-6.6-15-10-31.5-10.2-47.8c0,0,0-0.5,0-0.5l0.2-0.4c8.8-15.7,15.7-32.5,20-50
			c3.3-13.2,4.9-26.7,6.3-40.2C3193.9,1512.9,3194.2,1503.9,3197.1,1503.3L3197.1,1503.3z M3197.1,1503.3c-2.9,0.6-3.1,10-3.6,12.6
			c-1.3,13.2-2.6,27.5-5.4,40.4c-1.9,8.9-4.3,17.7-7.2,26.3c-3,8.6-6.5,17-10.5,25.2l0.2-0.9c0.8,10.5,2.9,20.9,6.2,30.9
			c4.5,16.4,36.6,72.2,57,60.2c7.9-4.9,12.1-15.6,15.2-24.3c9.6-29.9,11.8-62.9,2-93.2c0,0,0.6,0.8,0.6,0.8
			c-6.7-4.6-13.1-9.7-18.9-15.5c-11.5-11.5-20.3-25.5-26.1-40.7c-1.5-3.8-2.8-7.6-4.1-11.4
			C3201.6,1511.1,3199.8,1503.2,3197.1,1503.3L3197.1,1503.3z"/>
	</g>
	<g>
		<path d="M3233.2,1763.3c37.3,0.8,76.1,17.5,95.9,50.3c10,16.4,13.9,35.9,13.7,55c-0.4,23.3-9.3,54.2-35.8,59
			c-19.6,3.1-39-7.7-53.6-19.8C3211.9,1872.7,3214.2,1809.6,3233.2,1763.3L3233.2,1763.3z M3233.2,1763.3
			c-11.4,38.7-14.8,83.6,7.3,119c11.5,19.2,42.1,41.3,65.2,37.4c30.1-6,32.9-53.8,27.3-78.1
			C3323.4,1794.4,3278.5,1768.3,3233.2,1763.3L3233.2,1763.3z"/>
	</g>
	<g>
		<path d="M3233.2,1763.3c-33.9,2.1-71.7,13.7-88.4,45.5c-6,11.1-18,39.7-0.9,45.7c6.8,2.2,14.7,1.2,21.7-0.4
			C3202.9,1844.8,3222.7,1796.7,3233.2,1763.3L3233.2,1763.3z M3233.2,1763.3c-6.6,37.3-25.3,87.4-65.8,98.3
			c-8.5,2.1-17.4,3.2-26.1,0.5c-20.4-6.9-14.6-32.9-7.5-47.8C3150.9,1774.4,3192.9,1760.6,3233.2,1763.3L3233.2,1763.3z"/>
	</g>
	<g>
		<path d="M3216,2037.7c30.7,13.1,59,32.4,82.6,56.1c11.4,11.5,22.6,23.1,32.3,36.1c20.3,26.7,35,61.5-3.4,80.3
			c-9.6,4.4-20.1,6.5-30.7,5.9c-16-0.6-30.5-10.1-40.5-22C3223.2,2153.7,3215.8,2088.6,3216,2037.7L3216,2037.7z M3216,2037.7
			c3.3,41.4,9.4,83.3,26.8,121.4c8.9,18.8,21.3,38.4,41.3,46.6c16.5,6.3,38.3,1.7,51.3-10c6.7-6.1,9.4-14.5,8-23.4
			c-4-22.9-21.7-43.4-36.5-60.8C3281.4,2081.5,3251,2056,3216,2037.7L3216,2037.7z"/>
	</g>
	<g>
		<path d="M3216,2037.7c-33.1,2-66.3,12.2-93,32.1c-32.3,24.5-55.6,61.7-64.4,101.1c-1.8,9.5-4.3,27.6,4,33.9c11.8,7,37-7.9,48-14.3
			c18-10.9,35.1-24,49.4-39.5C3189.1,2119.6,3206.9,2079.4,3216,2037.7L3216,2037.7z M3216,2037.7c-7.3,53.9-32.2,105.5-74.9,140.2
			c-22.2,18-92.6,67.9-92.2,8.1c1.2-27.4,13.5-54.1,28.4-76.7C3108.2,2062,3159.9,2036.6,3216,2037.7L3216,2037.7z"/>
	</g>
	<g>
		<path d="M3216,2037.7c-4.5,29.8-14.6,58.7-29.5,84.8c-9,15.8-19.8,30.5-32,44c0,0,0.7-1.2,0.7-1.2c-3.1,10.6-4.9,21.5-5.1,32.5
			c-0.2,21.8,5.9,44.2,16.2,63.2c7.5,13.4,19.9,26,35.4,15.8c13.6-9.2,21.8-24,29.3-38.4c7.5-14.7,12-30.9,13-47.5
			c0.4-5.5,0.4-11,0-16.6l0.3,1.1c-4.9-10.8-9.3-21.9-13-33.1C3220.3,2108.8,3215,2073.2,3216,2037.7L3216,2037.7z M3216,2037.7
			c2,46.9,13.4,93.6,34.2,135.7c2,20.4-0.9,41.5-8.9,60.5c-5.6,13.4-12.7,26.2-22,37.5c-13.3,16.2-31.9,24.9-49.1,8.1
			c-15.4-15.7-23.6-42.9-26.4-64.3c-2.1-17.6-0.1-35.7,5.6-52.5c12.5-13,23.5-27.3,33.1-42.6
			C3198.2,2094.8,3209.5,2066.8,3216,2037.7L3216,2037.7z"/>
	</g>
	<g>
		<path d="M3120.1,2366.7c-30.8-7.3-63.7-7.6-94,1.7c-29.9,9.3-57.6,26.4-79.6,48.7c-10.9,11.3-30.3,35.4-17.5,50.6
			c12.2,13.8,38.6,17.1,56.3,17.2c3.7,0.1,7.8-0.5,11.5-0.8c2.2-0.3,5.4-1,7.6-1.3C3058.3,2471,3098,2414.2,3120.1,2366.7
			L3120.1,2366.7z M3120.1,2366.7c-19.2,52-60.2,113.1-118.2,123.9c-22.6,4.6-63.3,0.7-79.1-17.9c-16.1-19.7,3.8-46.4,18.3-61
			c23.2-22.8,52.2-39.9,83.6-48.4C3055.9,2355.1,3089.4,2356.8,3120.1,2366.7L3120.1,2366.7z"/>
	</g>
	<g>
		<path d="M3120.1,2366.7c56.3,29,98.1,90.5,72,154.2c-7.8,19.3-20,38.7-38,49.9c-25.3,15-42.2-3.8-51.6-26.3
			C3078.9,2484.1,3084.2,2420.9,3120.1,2366.7L3120.1,2366.7z M3120.1,2366.7c-25.2,46.2-33,95.1-19.9,146.4
			c4.6,18.6,17.6,63.7,43.7,53.8c19.4-7.6,33.5-30.2,41.3-48.8C3211.1,2457.6,3171.1,2398.5,3120.1,2366.7L3120.1,2366.7z"/>
	</g>
	<g>
		<path d="M2954.7,2658.8c-50.2-11.9-105.3-13.4-152.4,10.1c-38.5,19.3-75.4,44-112.4,66.2c-38.3,24.9-81.3,35-126.7,32.1
			c0,0,2.3-7.4,2.3-7.4C2703.5,2843.1,2854.8,2764,2954.7,2658.8L2954.7,2658.8z M2954.7,2658.8
			c-97.4,112.5-252.3,192.8-393.3,107.8c0,0-14-8.5-14-8.5l16.3,1.1c43.6,3,85.6-6.8,122.5-30.3c37.5-21.9,74.7-46,113.9-64.6
			C2848.6,2641.4,2904.4,2644.3,2954.7,2658.8L2954.7,2658.8z"/>
	</g>
	<g>
		<path d="M2954.7,2658.8c28.4,59.5,31.7,131,6.2,192c-26.1,63.5-81.5,112.8-145.3,136.7c0.2-47.1,7.2-94.3,21.9-139.1
			C2860.3,2776.9,2901.6,2711.5,2954.7,2658.8L2954.7,2658.8z M2954.7,2658.8c-70.6,77.8-117.4,173.7-128.5,278.7
			c-1.6,14.7-2.4,29.5-2.6,44.3l-5.4-3.8c7.4-2.9,14.7-6.3,21.9-10c46.4-24,86.4-61.7,109.7-108.7
			C2981.3,2797.3,2981.1,2722.5,2954.7,2658.8L2954.7,2658.8z"/>
	</g>
	<g>
		<path d="M2655.9,2968.7c-56.5-18.3-113.5-18.2-170-0.1c-11.1,3.8-35.5,11.8-40.2,22.6c-2.1,7.7,16.7,15,22.6,17.1
			C2537.2,3032.3,2599.7,3011.8,2655.9,2968.7L2655.9,2968.7z M2655.9,2968.7c-43.4,40.2-101.8,65.4-161.5,54.3
			c-9.7-1.7-19.3-4-28.8-7.3c-7.1-2.6-14.4-5.5-20.6-10.3c-16.7-13.3-3-26.1,10.9-33.1c17.6-9,37-14,56.2-17.9
			C2560.1,2944.6,2610.9,2949.7,2655.9,2968.7L2655.9,2968.7z"/>
	</g>
	<g>
		<path d="M2655.9,2968.7c9.3,32.7,8.1,69.8-8,100.4c-8,15.5-19.6,28.8-32.8,40.1c-11.9,10.1-38.8,28.7-54.9,22.5
			c-18.2-7.9-0.8-45.2,4.4-58.1C2582.7,3029.9,2616.4,2993.8,2655.9,2968.7L2655.9,2968.7z M2655.9,2968.7
			c-33,25.9-61.9,57.8-79.6,96.1c-4.1,9.2-24.2,54.5-12.9,59.5c13.1,3.8,36.9-12.7,46.9-21C2652.2,3070.4,2665.3,3020,2655.9,2968.7
			L2655.9,2968.7z"/>
	</g>
	<g>
		<path d="M2616.8,2997.7c-18.3,6.8-36.2,14.6-54.2,21.6c-8.9,2.1-18,3.6-27.1,4.5c-9.1,0.9-18.2,1.2-27.3,1l1.4-0.2
			c-23.9,10.2-40.2,29.5-46.3,54.7c-5.2,22.8,9,30.4,29.6,28.9c26.8-1.8,47.4-13.5,65.3-33.1c4.3-4.7,8.6-9.6,12.3-14.6
			c3.8-5.2,7.2-10.8,10.8-16.1C2592.5,3028.3,2604.3,3012.7,2616.8,2997.7L2616.8,2997.7z M2616.8,2997.7
			c-11,16.1-21.8,32.3-31.9,48.9c-3.5,5.6-6.5,11.2-10.1,16.8c-7.6,10.9-16.1,21-26.2,29.8c-15.2,13.3-34.9,21.3-55.2,22.7
			c-10.5,0.7-22.1-0.2-30.6-7.4c-18.7-16.2-2-52,11.3-67.1c9.2-10.4,21-18.2,33.8-23.2c9.1,0.6,18.1,0.6,27.2,0
			c8.4-0.4,19-1.7,26.2-3c4.8-1.6,9.6-3.1,14.3-4.6C2588.7,3006.7,2604.2,3002.1,2616.8,2997.7L2616.8,2997.7z"/>
	</g>
	<g>
		<path d="M2349,3151.9c-27-40-69.5-77-120.9-69c-15.3,2.1-44.7,8.6-40.7,29c2.7,11.4,11.3,20.2,20,27.9
			c9.2,7.9,19.6,14.1,31.2,17.1c11.8,3.3,24,3.4,36.4,3.3C2299.9,3160.4,2324.6,3158,2349,3151.9L2349,3151.9z M2349,3151.9
			c-23.6,8.5-48.8,12.5-73.9,13.7c-16.9,1-34.7,0.9-50.6-6.2c-18-7.9-40.3-26-44.9-45.8c-5.3-26.4,27.2-36,47.6-38.1
			C2281.4,3068.3,2324.7,3107.1,2349,3151.9L2349,3151.9z"/>
	</g>
	<g>
		<path d="M2349,3151.9c-39,10.8-79.9,35.5-90.8,76.7c-4.8,18.3-6.6,48.3,6.1,63.6c2.7,2.9,6,5,9.9,5.7c0.3,0.1,1,0.2,1.3,0.2
			c0,0,1.3,0.2,1.3,0.2l1.4,0c18.7-0.4,38.3-16.6,50.5-29.9C2358.9,3236.3,2362.8,3192.6,2349,3151.9L2349,3151.9z M2349,3151.9
			c16.3,35.5,16.3,78.4-7,110.8c-12.7,17.6-29.4,33.5-50.2,41c-22.3,7.6-37.2-2.8-42.5-24.9c-4.1-17.3-2.6-35.2,2.2-52.1
			c2.8-9.5,7.2-18.5,13-26.5C2283.8,3173.3,2316.8,3157.5,2349,3151.9L2349,3151.9z"/>
	</g>
	<g>
		<path d="M1170.1,529.4c14.5,5.2,28.4,12,42,19.3c0,0-4.4,0.4-4.4,0.4c17.2-14.5,35.1-28.5,54.7-39.7
			c-11.2,12.8-23.8,24.1-36.7,35.1c-5,4.2-10.1,8.3-15.3,12.3c0,0-2.2-1.3-2.2-1.3C1195,547.5,1182,539.1,1170.1,529.4L1170.1,529.4
			z"/>
	</g>
	<g>
		<path d="M2346,292.3c14.5,5.2,28.4,12,42,19.3c0,0-4.4,0.4-4.4,0.4c17.2-14.5,35.1-28.5,54.7-39.7c-11.1,12.8-23.8,24.1-36.7,35.1
			c-5,4.2-10.1,8.3-15.3,12.3c0,0-2.2-1.3-2.2-1.3C2370.9,310.4,2357.9,302,2346,292.3L2346,292.3z"/>
	</g>
	<g>
		<path d="M441.7,2752.6c14.5,5.2,28.4,12,42,19.3c0,0-4.4,0.4-4.4,0.4c17.2-14.5,35.1-28.5,54.7-39.7
			c-11.1,12.8-23.8,24.1-36.7,35.1c-5,4.2-10.1,8.3-15.3,12.3c0,0-2.2-1.3-2.2-1.3C466.7,2770.7,453.7,2762.4,441.7,2752.6
			L441.7,2752.6z"/>
	</g>
	<g>
		<path d="M234.1,1137.5c14.5,5.2,28.4,12,42,19.3c0,0-4.4,0.4-4.4,0.4c17.2-14.5,35.1-28.5,54.7-39.7
			c-11.1,12.8-23.8,24.1-36.7,35.1c-5,4.2-10.1,8.3-15.3,12.3c0,0-2.2-1.3-2.2-1.3C259.1,1155.6,246.1,1147.2,234.1,1137.5
			L234.1,1137.5z"/>
	</g>
	<path d="M1186.6,369.1c-14.8,3.6-33.5-1.2-42.7-14.8c-5.4-8.1-10.5-23.6-2.6-31.4c6.8-6.7,22-6.3,34,4.4
		c2.2-11.4,11.4-19.6,21.8-20c11.1-0.5,20,8.4,22.6,16.6C1225.2,340.5,1207.9,363.9,1186.6,369.1z"/>
	<path d="M1723.3,225c-11.8,2.9-26.7-0.9-34-11.8c-4.3-6.4-8.4-18.8-2.1-25c5.5-5.4,17.5-5,27.1,3.5c1.7-9.1,9.1-15.6,17.4-16
		c8.8-0.4,15.9,6.7,18,13.2C1754.1,202.2,1740.3,220.9,1723.3,225z"/>
	<path d="M2199.7,3423.1c-14.8,3.6-33.5-1.2-42.7-14.8c-5.4-8.1-10.5-23.6-2.6-31.4c6.8-6.7,22-6.3,34,4.4
		c2.2-11.4,11.4-19.6,21.8-20c11.1-0.5,20,8.4,22.6,16.6C2238.3,3394.6,2221,3418,2199.7,3423.1z"/>
	<path d="M2962.3,2272.6c-14.8,3.6-33.5-1.2-42.7-14.8c-5.4-8.1-10.5-23.6-2.6-31.4c6.8-6.7,22-6.3,34,4.4
		c2.2-11.4,11.4-19.6,21.8-20c11.1-0.5,20,8.4,22.6,16.6C3000.9,2244,2983.6,2267.4,2962.3,2272.6z"/>
	<path d="M453.4,839.5c6-13.2,18.6-21,30.7-19.6c8.3,1,18.3,6.5,20.9,15.7c3.4,11.9-7.8,22.9-12.4,27.4
		c-10.8,10.6-23.8,13.1-30.7,14.4c-9,1.6-31.4,5.6-47-8.5c-7.1-6.4-17.2-20.6-11.8-32.7c4-8.9,14.5-12.7,22.2-13.1
		C436.4,822.6,447.2,828.9,453.4,839.5z"/>
	<path d="M792.4,2569.5c6-13.2,18.6-21,30.7-19.6c8.3,1,18.3,6.5,20.9,15.7c3.4,11.9-7.8,22.9-12.4,27.4
		c-10.8,10.6-23.8,13.1-30.7,14.4c-9,1.6-31.4,5.6-47-8.5c-7.1-6.4-17.2-20.6-11.8-32.7c4-8.9,14.5-12.7,22.2-13.1
		C775.4,2552.6,786.2,2558.9,792.4,2569.5z"/>
	<path d="M3374.6,1723.5c6-13.2,18.6-21,30.7-19.6c8.3,1,18.3,6.5,20.9,15.7c3.4,11.9-7.8,22.9-12.4,27.4
		c-10.8,10.6-23.8,13.1-30.7,14.4c-9,1.6-31.4,5.6-47-8.5c-7.1-6.4-17.2-20.6-11.8-32.7c4-8.9,14.5-12.7,22.2-13.1
		C3357.6,1706.6,3368.4,1712.8,3374.6,1723.5z"/>
	<path d="M2809.1,542.1c6-13.2,18.6-21,30.7-19.6c8.3,1,18.3,6.5,20.9,15.7c3.4,11.9-7.8,22.9-12.4,27.4
		c-10.8,10.6-23.8,13.1-30.7,14.4c-9,1.6-31.4,5.6-47-8.5c-7.1-6.4-17.2-20.6-11.8-32.7c4-8.9,14.5-12.7,22.2-13.1
		C2792.1,525.2,2802.9,531.5,2809.1,542.1z"/>
	<g>
		<path d="M3026.1,803.3c13.9,7.6,25.9,19.4,32.9,33.8c5.9,11.7,8,24.8,9.5,37.6c0.1,0.9,0.3,1.8,0.4,2.2c-0.3-0.6-1.4-1.3-2.2-1.2
			c-1-0.1-2.1,0.6-2.4,1.2c1.1-4.4,1.4-9,2.3-13.7c2.7-15.8,8.4-31.7,19.5-43.7c8.1-8.8,18.9-15.2,30.2-18.7
			c-6.9,3.7-13.4,8-19,13.3c-14.3,12.9-21.1,31.5-23.9,50.2c-0.6,3.8-1,7.6-1.7,11.6c-0.4,2.1-0.8,4.7-2.9,6.1
			c-2.6,1.6-5.6,0-6.4-2.7c-1.6-6.1-1.4-12-2.5-18C3056.7,837.2,3044.8,818.4,3026.1,803.3L3026.1,803.3z"/>
	</g>
	<g>
		<path d="M3075,2656.8c13.9,7.6,25.9,19.4,32.9,33.8c5.9,11.7,8,24.8,9.5,37.6c0.1,0.9,0.3,1.9,0.5,2.2c-0.4-0.8-1.4-1.3-2.2-1.3
			c-1-0.1-2.1,0.6-2.4,1.2c1.1-4.4,1.4-9,2.3-13.7c2.7-15.8,8.4-31.7,19.5-43.7c8.1-8.8,18.9-15.2,30.2-18.7
			c-6.9,3.7-13.4,8-19,13.3c-14.3,12.9-21.1,31.5-23.9,50.2c-0.6,3.8-1,7.6-1.7,11.6c-0.4,2.1-0.8,4.7-2.9,6.1
			c-2.6,1.6-5.6,0-6.4-2.7c-1.6-6.1-1.4-12-2.5-18C3105.6,2690.8,3093.6,2671.9,3075,2656.8L3075,2656.8z"/>
	</g>
	<g>
		<path d="M2992.8,1918.8c18.4,6.9,35.4,19.7,46.8,36.3c4.5,6.4,8.1,13.8,11.8,20.5c0.9,1.5,1.9,3.1,2.7,3.9
			c0.4,0.4,0.6,0.4,0.1,0.2c-0.3-0.1-1,0.1-1.2,0.3c0,0.1,0.3-0.4,0.6-1c2.4-6.1,3.3-12.7,5.4-19.1c6.7-23.8,24.6-42.7,47.5-51.6
			c-19.3,13.4-33.8,30.9-39.3,53.9c-1.6,5.6-2.5,11.4-4.2,17.2c-0.9,2.7-1.5,4.8-3.9,7.2c-2.8,2.8-7.8,2.5-10.5-0.2
			c-2.2-2-3.7-4.5-4.8-6.5c-3.7-7.1-6.7-13.9-10.7-20.6C3023.1,1942.7,3008.8,1929.6,2992.8,1918.8L2992.8,1918.8z"/>
	</g>
	<g>
		<path d="M1525.1,3333.8c18.4,6.9,35.4,19.7,46.8,36.3c4.5,6.4,8.1,13.8,11.8,20.5c0.9,1.5,1.9,3.1,2.7,3.9
			c0.4,0.4,0.6,0.4,0.1,0.2c-0.3-0.1-1,0.1-1.2,0.3c0,0.1,0.3-0.4,0.6-1c2.4-6.1,3.3-12.7,5.4-19.1c6.7-23.8,24.6-42.7,47.5-51.6
			c-19.3,13.4-33.8,30.9-39.3,53.9c-1.6,5.6-2.5,11.4-4.2,17.2c-0.9,2.7-1.5,4.8-3.9,7.2c-2.8,2.8-7.8,2.5-10.5-0.2
			c-2.2-2-3.7-4.5-4.8-6.5c-3.7-7.1-6.7-13.9-10.7-20.6C1555.3,3357.8,1541,3344.6,1525.1,3333.8L1525.1,3333.8z"/>
	</g>
	<g>
		<path d="M407.6,2044c18.4,6.9,35.4,19.7,46.8,36.3c4.5,6.4,8.1,13.8,11.8,20.5c0.9,1.5,1.9,3.1,2.7,3.9c0.4,0.4,0.6,0.4,0.1,0.2
			c-0.3-0.1-1,0.1-1.2,0.3c0,0.1,0.3-0.4,0.6-1c2.4-6.1,3.3-12.7,5.4-19.1c6.7-23.8,24.6-42.7,47.5-51.6
			c-19.3,13.4-33.8,30.9-39.3,53.9c-1.6,5.6-2.5,11.4-4.2,17.2c-0.9,2.7-1.5,4.8-3.9,7.2c-2.8,2.8-7.8,2.5-10.5-0.2
			c-2.2-2-3.7-4.5-4.8-6.5c-3.7-7.1-6.7-13.9-10.7-20.6C437.9,2068,423.6,2054.8,407.6,2044L407.6,2044z"/>
	</g>
	<circle cx="548.8" cy="1259.3" r="16.2"/>
	<circle cx="3182.2" cy="1026.4" r="16.2"/>
	<circle cx="3007" cy="1514.4" r="16.2"/>
	<circle cx="189.4" cy="1350.4" r="16.2"/>
	<circle cx="234.9" cy="2228.1" r="11.9"/>
	<circle cx="812.6" cy="3046.9" r="11.9"/>
	<circle cx="1525.1" cy="3105.1" r="11.9"/>
	<circle cx="2349" cy="2917.6" r="11.9"/>
	<circle cx="2742.3" cy="3105.1" r="11.9"/>
	<circle cx="3052.8" cy="2732.6" r="11.9"/>
	<circle cx="2579.8" cy="703.6" r="11.9"/>
	<circle cx="2042.7" cy="450.7" r="11.9"/>
	<circle cx="2187.3" cy="256.6" r="8.2"/>
</g>
</svg>
