<?xml version="1.0" encoding="utf-8"?>
<!-- Generator: Adobe Illustrator 26.0.0, SVG Export Plug-In . SVG Version: 6.00 Build 0)  -->
<svg version="1.1" id="Layer_1" xmlns="http://www.w3.org/2000/svg" xmlns:xlink="http://www.w3.org/1999/xlink" x="0px" y="0px"
	 viewBox="0 0 3600 3600" style="enable-background:new 0 0 3600 3600;" xml:space="preserve">
<g>
	<g>
		<path d="M1789.5,3220.7c240.2-6.5,475.7-112.6,638.7-289.4c54.5-58.7,101.5-124.4,139-195.2c-37,71.1-83.7,137.1-137.9,196.3
			c-162.6,178.5-398.3,286.3-639.6,294.4C1789.7,3226.7,1789.5,3220.7,1789.5,3220.7L1789.5,3220.7z"/>
	</g>
	<g>
		<path d="M1935.4,3226.4c106.8,11.4,213,29.8,316.9,57.3c25.9,6.8,52,13.2,78.5,17.2c79.6,12.2,162,0.8,236.4-29.7
			c-61.8,25.9-129.4,39-196.6,35.7c-40.3-1.7-80.1-10.3-119-20.3c-103.9-26.5-210-43.8-316.7-54.2
			C1934.8,3232.3,1935.4,3226.4,1935.4,3226.4L1935.4,3226.4z"/>
	</g>
	<g>
		<path d="M2223.1,3192.4c119.1,9.2,239.7,3.3,357.4-17.7c117.8-21.1,233-57.4,341.6-107.6c-101.5,47.9-209,83.8-319,106.1
			c-36.3,7.5-74.2,13.6-110.9,18.1c-29.3,3.5-60.2,6.4-89.6,8c-59.9,3.5-120,3.1-179.9-1L2223.1,3192.4L2223.1,3192.4z"/>
	</g>
	<g>
		<path d="M2516.2,3092.3c59.4-41.5,112.5-92.1,155.8-150.2c59.6-79.7,99.7-173.5,116.4-271.6c-16,98.3-55.5,192.7-114.6,273
			c-30.3,41.3-65.5,79-104.4,112.3c-16.4,14-33.4,27.3-51,39.8L2516.2,3092.3L2516.2,3092.3z"/>
	</g>
	<g>
		<path d="M3177.6,2474.7c38.2-65.6,92.2-122.1,156.6-162.4c41.2-25.8,86.5-45.1,133.6-57c-48.9,12.7-95.8,33.2-138.1,60.9
			c-5.5,3.5-13.8,9.5-19.2,13.2c-3.3,2.5-10.8,8.1-13.9,10.5c-10.3,8.3-21.3,17.5-30.9,26.6c-11.2,10.4-22.3,22-32.3,33.5
			c-20.4,23.4-38.5,48.8-54,75.7L3177.6,2474.7L3177.6,2474.7z"/>
	</g>
	<g>
		<path d="M1629,3197.2c58.6,5.7,118.4,0.9,175.3-14.3c73.5-19.6,142-56.9,198.6-107.8c-55.2,51.1-122.4,89.1-194.6,110.2
			c-21.2,6.1-43.5,11-65.3,14.2c-37.9,5.5-76.3,6.8-114.5,3.6C1628.4,3203.1,1629,3197.2,1629,3197.2L1629,3197.2z"/>
	</g>
	<g>
		<path d="M1496.3,3163.5c131.1,105,298,163.6,466,164.1c-168.7,1.8-337.1-54.9-470.3-158.6
			C1492,3169.1,1496.3,3163.5,1496.3,3163.5L1496.3,3163.5z"/>
	</g>
	<g>
		<path d="M1344.5,3109.5c99.3,40.6,213.1,43.9,314.4,8.1c12.4-4.4,24.8-9.3,36.8-14.7c-11.9,5.6-24.2,10.7-36.5,15.3
			c-72.8,26.9-152.7,34.3-229.1,21c-29.9-5.1-59.3-13.2-87.7-24.2L1344.5,3109.5L1344.5,3109.5z"/>
	</g>
	<g>
		<path d="M1393.7,3135.6c-107.4,13.5-217,9.8-322.9-12.2c-93.2-19.8-184.1-50.7-270.5-90.6c138.7,61.6,288.6,103.2,441.1,105.1
			c50.7,0.8,101.3-2.4,151.5-9.2L1393.7,3135.6L1393.7,3135.6z"/>
	</g>
	<g>
		<path d="M1293.4,3093.7c-57.6-31.1-109.4-72.9-152-122.7c-45.2-52.8-79.9-114.6-101.5-180.6c22.5,65.6,57.9,126.6,103.8,178.6
			c20.7,23.5,43.8,45.3,68.3,64.8c26.3,20.8,54.5,39.1,84.2,54.6C1296.2,3088.4,1293.4,3093.7,1293.4,3093.7L1293.4,3093.7z"/>
	</g>
	<g>
		<path d="M1167.8,3029.3c-178.4-7.7-348.9-87.3-468.1-220.3c-5.7-6.4-12.8-14.6-18.2-21.1c-7.9-9.6-15.5-19.3-22.9-29.3
			c7.5,9.9,15.3,19.5,23.2,29c5.6,6.5,12.7,14.5,18.5,20.9c69.1,75.1,155.8,133.9,251.1,170.2c69.2,26.3,142.8,41.2,216.7,43.6
			C1168,3022.3,1167.8,3029.3,1167.8,3029.3L1167.8,3029.3z"/>
	</g>
	<g>
		<path d="M932.4,2865.1c-39.8-48.1-70.7-103.6-89.8-163.1c-21.9-67-28.7-138.8-21.2-208.8c-6.2,70,1.8,141.3,24.8,207.7
			c3.8,11.2,8.7,23.7,13.3,34.6c19.5,45.4,46.1,87.6,78.3,125.1C937.8,2860.6,932.4,2865.1,932.4,2865.1L932.4,2865.1z"/>
	</g>
	<g>
		<path d="M644.4,2541.1c-42.2-137.3-49.6-285-21.4-425.9c12.9-63.8,32.8-126.4,59.3-185.8c-32.2,74.6-54.2,153.8-64.8,234.4
			c-13,99.8-8.6,201.9,13.4,300.1c5.6,25.3,12.4,50.4,20.2,75.1C651.1,2539,644.4,2541.1,644.4,2541.1L644.4,2541.1z"/>
	</g>
	<g>
		<path d="M758.7,2692.9c-124.9-105.3-279.1-174.9-440.6-199.2c162.4,22.1,318.2,90,445.1,193.9
			C763.2,2687.5,758.7,2692.9,758.7,2692.9L758.7,2692.9z"/>
	</g>
	<g>
		<path d="M500.3,2540.9c-132-130.6-217.6-302.5-239.9-487c-3.3-27.9-5.4-56.9-5.9-85c-0.5-22,0.1-44,1.4-66c-1.2,22-1.7,44-1.2,66
			c0.5,28.1,2.8,57.1,6.1,85c5.5,43.6,14.5,86.9,26.7,129.1c0.1,0.3,6.9,22.4,7.3,23.6c2.6,7.2,8.3,24.2,10.9,31.1
			c2.9,7.3,7.2,18.3,10.1,25.6c1.4,4,9.2,21.1,10.9,25.2c8.6,19.4,19.3,40.2,29.4,59c0,0,10.9,19.1,10.9,19.1l2.7,4.8
			c6.3,10.1,13.8,22.7,20.5,32.5c32.2,49,69.7,94.4,111.4,135.6C501.7,2539.5,500.3,2540.9,500.3,2540.9L500.3,2540.9z"/>
	</g>
	<g>
		<path d="M434.2,2010.5c19.4-122,71.8-238.5,150.2-334.1c-66.6,84.5-113.4,184.5-135.3,289.8c-3.1,15-5.8,30.1-7.9,45.3
			L434.2,2010.5L434.2,2010.5z"/>
	</g>
	<g>
		<path d="M450.7,2091.2c-19.2-91.8-49.9-181.7-91.3-265.9c-53.2-108.7-124.4-208.5-209.4-294.6c81.5,80.4,150.6,173.4,204.2,274.6
			c20.3,38.5,38.9,79,54.6,119.6c20.7,53.5,37.4,108.6,49.8,164.6C458.5,2089.5,450.7,2091.2,450.7,2091.2L450.7,2091.2z"/>
	</g>
	<g>
		<path d="M416.6,1727.2c11-77.2,37.6-152.3,78.9-218.5c31.9-51.4,72.5-97.4,119.3-135.7c-46.2,38.9-86,85.3-117,137
			c-31.1,51.6-53.4,108.4-66.3,167.1c-3.7,16.8-6.6,33.7-8.8,50.8L416.6,1727.2L416.6,1727.2z"/>
	</g>
	<g>
		<path d="M475.1,1368.4c28.8-126.8,38.7-257.8,29.4-387.5c-7.6-104.2-27.5-207.6-59.2-307.1c32,97.6,52.7,199.1,61.4,301.4
			c8.7,102.5,5.4,206-9.8,307.8c-4.4,29.1-9.7,58-15.9,86.8L475.1,1368.4L475.1,1368.4z"/>
	</g>
	<g>
		<path d="M467,1396.2c83.8-169.7,193.6-326.6,324.6-463.3c86.7-90.4,182.5-172.1,285.5-243.3c-108.4,76.3-208.7,163.9-298.5,261.4
			c-69.8,75.6-133.4,157.4-189.6,243.6c-42.9,65.7-81.5,134.1-115.7,204.7C473.2,1399.3,467,1396.2,467,1396.2L467,1396.2z"/>
	</g>
	<g>
		<path d="M703.2,879c100.4-154.4,157.1-336.8,161.6-521c0.7-26.3,0.3-52.7-1-79c1.6,26.3,2.2,52.7,1.8,79
			c-2.2,131.9-30.5,263.4-83.2,384.3c-21,48.5-45.9,95.3-74.2,139.9L703.2,879L703.2,879z"/>
	</g>
	<g>
		<path d="M910.6,652.9c84.3-71.1,184.7-123.3,291.7-150.5c100.2-25.7,205.9-29.6,307.9-12.9c-102-15.9-207.4-11.3-307.3,15.2
			c-54.5,14.4-107.9,35.3-157.6,62c-32.2,17.3-63.2,37-92.5,58.8c-13.2,9.9-26.4,20.4-39,31.1C913.8,656.7,910.6,652.9,910.6,652.9
			L910.6,652.9z"/>
	</g>
	<g>
		<path d="M1020.2,564.4c79.7-72.8,142.3-164.3,180-265.6c-31.8,89.3-82.7,171.6-147.9,240.4c-9.3,9.9-18.9,19.5-28.8,28.8
			L1020.2,564.4L1020.2,564.4z"/>
	</g>
	<g>
		<path d="M2747.8,2809.8c43.9-37.2,84.6-78.4,121.2-122.8c60.8-74.3,110-158.1,144.5-247.7c-34.3,89.7-83.4,173.6-144.1,248.1
			c-8.8,10.7-18.9,22.5-28.1,32.8c-28.9,32.1-60,62.4-92.9,90.4C2748.5,2810.6,2747.8,2809.8,2747.8,2809.8L2747.8,2809.8z"/>
	</g>
	<path d="M858.5,454.5c0.9-6.1,3.9-32-13.2-53.6c-8.5-10.7-27.5-27.2-41.7-21.9c-16.8,6.4-19.9,40.6-13.9,63.6
		c10.8,41.5,54.4,59.1,61.7,62C853.7,487.9,856.1,471.2,858.5,454.5z"/>
	<path d="M845.3,543.3c3.7-5.3,15.3-20.5,36.4-26.5c7.3-2.1,27-7.7,36.4,1.3c14.5,14,1.9,60.9-27.8,85.4c-26,21.5-57.9,20-67.6,19.2
		C830.2,596.2,837.8,569.7,845.3,543.3z"/>
	<path d="M808.2,665.8c1.9-9.6,5-32.6-6.6-56.3c-4.1-8.4-13.7-28.1-25.8-27.8c-16.8,0.3-34.7,39.1-32.5,72.8
		c2.7,40.6,33.9,66.1,41.7,72.2C792.7,706.4,800.4,686.1,808.2,665.8z"/>
	<path d="M1165.7,377.7c-4.4-9.7-9-23.9-8.5-41c1.4-42,33.8-83,50.3-78.8c15.4,3.9,25.6,49.3,7.9,82.1
		C1200.9,367,1172.8,375.7,1165.7,377.7z"/>
	<path d="M1362.5,380.3c7.4-6.5,31.5-29.2,33.1-63.6c0.9-19.6-5.1-48.5-19.2-51.7c-15.8-3.5-35.1,26.9-43,44.4
		c-15.7,34.2-10.5,67.6-6.6,84.1C1338.6,389.2,1350.6,384.8,1362.5,380.3z"/>
	<path d="M1504.9,333.3c-0.2-7.3-0.4-40.1,23.8-61.6c19.7-17.5,51.9-24.3,59.9-14.2c5.3,6.7-0.7,19.9-5.3,30.1
		c-7.8,17.3-19.5,28.1-26.5,33.6C1539.5,325.2,1522.2,329.3,1504.9,333.3z"/>
	<path d="M1538.9,323.4c7.2-0.9,38.1-3.6,60.3,17.9c4.9,4.7,18.1,17.5,14.6,27.2c-5,13.9-43.8,18.8-71.8,4.3
		c-21.2-11-31-30.3-34.7-38.7C1514,330.2,1524.8,325.1,1538.9,323.4z"/>
	<path d="M1777.1,286.3c1-7.5,6.6-42.5,36.1-60.9c23.8-14.8,57.8-15.7,63.2-5c2.6,5.1-3.1,14.4-14.6,32.8
		c-8.1,13-15.8,23.4-21.9,30.9C1819,284.8,1798,285.5,1777.1,286.3z"/>
	<path d="M1826.1,282c4.4,1.3,69.6,20.4,67.8,39.8c-1.2,12.9-31.7,23.7-56.6,20.8c-29.7-3.4-46.3-25.7-48.3-28.5
		c-7.8-10.8-10.7-21.5-11.9-27.8C1793.4,284.9,1809.7,283.4,1826.1,282z"/>
	<path d="M2042.4,292.8c2.9-10.2,11.3-33.5,33.8-48.7c29.9-20.2,74.5-19.2,81.7-4.4c3.5,7.3-2.4,16.8-7.7,25.1
		c-15.6,25-41.7,33.2-51,35.6c5.7,3,15.4,9.2,22.9,20.5c10.3,15.6,16.6,41,6.6,50.3c-12.5,11.6-50.5-2.1-70.2-27.4
		C2043.3,324.3,2042.3,301.9,2042.4,292.8z"/>
	<path d="M2256,333.1c9.9-15.3,40.6-58.5,87.8-62.5c12.9-1.1,37.6-0.1,41.5,10.6c4.9,13.4-25.7,36.7-45,47.7
		c-17.3,9.8-33.5,14.1-44.3,16.2C2282.6,341.1,2269.3,337.1,2256,333.1z"/>
	<path d="M2497.4,340.8c-29.8-14.5-85.9-5.6-103.8,37c-14.5,34.4,4.2,71.3,26.1,88.8c11.4,9.1,35,22,47.7,12.8
		c12.7-9.2,7.3-35.3,3.1-47.2c-7.3-20.6-23.1-31.8-29.5-35.8c10.4,0.4,25.8-0.2,43.2-5.7c14-4.4,34.6-10.8,36.2-23
		C2521.7,357.1,2507.8,345.9,2497.4,340.8z"/>
	<path d="M2700.3,445.2c-18.3-17.5-45.6-21.5-67.8-15.7c-5.6,1.5-31.8,8.4-45.1,34.4c-11.2,21.8-6.3,43.2-3.4,52.2
		c7.4,22.9,25.8,39.3,45.9,45.9c1.7,0.5,32.7,10.4,40.6-0.9c9.8-14-21.7-52.2-39.6-72.2c10.5,1,78.2,6.8,85-14.2
		C2719.5,463.6,2704.6,449.4,2700.3,445.2z"/>
	<path d="M1404.2,422.5c-9.5-11.6-44.1-4.2-65.3,15c-4.7,4.3-22.5,20.4-22.5,45.9c0,33.1,30,51.2,33.1,53
		c23.3,13.5,56.7,13.2,62.9,0.9c3.6-7.1-2.4-17-8.1-26.5c-10.1-16.8-23.9-26-31.8-30.5c4.8-2.3,25.1-12.4,31.8-34.9
		C1406.2,438.9,1409.2,428.7,1404.2,422.5z"/>
	<path d="M1458.5,483.1c3.3-3.6,30.9-32.2,68.5-27c31.4,4.4,61.2,31.2,57.1,47.6c-4.1,16.3-42,23.1-70.3,16.8
		C1483,513.7,1464.8,491.6,1458.5,483.1z"/>
	<path d="M1209.9,502c9.5-0.1,39.6,0.8,62.7,23c11.2,10.7,26.9,32.3,20.3,43.3c-7.7,12.7-43.8,7.8-68-6.2
		c-28-16.1-38.9-43.5-42.4-53.9C1191.7,506.1,1200.8,504,1209.9,502z"/>
	<path d="M863.9,391.6c5.6-9.2,40.6-68.7,15.1-115.1c-9.2-16.9-29.2-36.9-42.4-32.5c-17.8,6-14.9,53.6-14.6,57.6
		C824.8,340.9,845.7,371.6,863.9,391.6z"/>
	<path d="M1028,725.4c-0.4-5.9-2.4-42.4,23.8-66.2c28.8-26.1,79.3-25.9,90.1-7.1c9.3,16.3-10.3,47.8-32.7,63.6
		C1075,739.9,1033.9,727.3,1028,725.4z"/>
	<path d="M960.1,778.4c3.4-2.1,29.2-17.6,57-6.6c13.2,5.2,32.5,18.7,30.9,31.8c-2.3,18.1-42.4,32.6-75.9,26.9
		c-22.2-3.7-37.9-15.8-46.1-23.3C937.2,797.6,948.6,788,960.1,778.4z"/>
	<path d="M899.2,830.5c2.1-3.9,20.2-38.5,3-68.7c-1.3-2.3-13.9-24-26.5-21.9c-16,2.7-25.7,43.3-21.2,76.2
		c2.5,18.3,9.3,32.6,14.6,41.7C879.1,848.7,889.2,839.6,899.2,830.5z"/>
	<path d="M818.9,907.8c7.9-3.1,63.4-24.2,73.4-8.9c6.3,9.7-7.8,30.8-19.9,41.7c-17.2,15.5-41.9,20.9-63.6,15.2
		c-11.6-3-20.1-8.6-25.1-12.6C795.4,931.4,807.2,919.6,818.9,907.8z"/>
	<path d="M767.1,964.5c2.4-6,13-34.1-1.3-60.3c-2.6-4.8-11.4-20.8-21.2-19.9c-14.3,1.4-24,38.6-23.8,66.9
		c0.1,21.3,5.8,38.5,10.6,49.7C743.3,988.7,755.2,976.6,767.1,964.5z"/>
	<path d="M704.2,1035.3c7.2-5,25.3-16.1,49-14.6c4.3,0.3,31.8,2.5,34.4,13.9c3.1,13.1-27.3,34-55,41.7c-26.2,7.3-49.1,2.7-60.9-0.7
		C682.6,1062.3,693.4,1048.8,704.2,1035.3z"/>
	<path d="M645.9,1106.8c0-7.7-0.9-20.1-5.8-34.2c-4.1-11.9-7.9-22.7-14.1-23.4c-10-1.1-23.5,24.3-26.8,47.1
		c-3.9,26.7,6.5,48.7,12.2,58.9C623,1139.1,634.4,1123,645.9,1106.8z"/>
	<path d="M582.4,1195.9c5.6-5.3,22.2-19.6,46.3-20.3c1.8-0.1,29.7-0.7,33.1,10.1c3.7,12-24.1,33.8-50.3,43
		c-21.4,7.6-40.9,6.4-53,4.6C566.5,1220.9,574.4,1208.4,582.4,1195.9z"/>
	<path d="M471.2,764.8c-3.9-10-13.8-30.7-35.9-45.4c-9.1-6.1-24.2-16.1-31.2-11.1c-12,8.5-2.9,63.1,32.6,80.7
		c16.3,8.1,33,5.7,41.1,4C475.5,783.6,473.3,774.2,471.2,764.8z"/>
	<path d="M487.6,843.3c2.5-15.4,10-45.9,35.8-65.6c6.3-4.9,21-16,30.5-11.3c12.2,6.2,10,37.3,3.3,57.6c-12.1,36.7-44.9,56-60.3,63.6
		C493.8,872.8,490.7,858.1,487.6,843.3z"/>
	<path d="M504.8,968.5c10.7-38.9,22.1-54.2,29.9-61c0.3-0.3,0.6-0.5,0.6-0.5c4.3-3.7,24.2-20.2,34.5-14c10.4,6.2,9.1,45.5-9.9,74.8
		c-16.3,25.2-40.9,35.7-52.3,39.7C506.6,994.5,505.7,981.5,504.8,968.5z"/>
	<path d="M509.5,1050.6c-2.6-9.4-13.9-45.3-47.7-60.9c-1.6-0.8-30.9-14-39.7-4c-10,11.4,11.6,47.9,31.1,69.5
		c18.6,20.6,39.3,32.1,53.6,38.4C507.7,1079.3,508.6,1064.9,509.5,1050.6z"/>
	<path d="M504,1203.1c0.8-8.2,3.9-47-23-73.1c-9-8.7-28-22.5-37.7-16.6c-12.7,7.8-5.1,47.1,8.6,73.5c14.3,27.7,36.3,43.2,48.5,50.5
		C501.6,1226,502.8,1214.6,504,1203.1z"/>
	<path d="M472.6,1432.2c-1.9,8.6-11.7,54.2,21.4,81.4c23,18.9,53.6,18.2,74.1,9.4c14.8-6.3,35.1-21.3,32.5-34.4
		c-2.4-11.9-22.5-16.8-30.8-18.9c-21.4-5.3-39.8-0.2-48.8,3c2.9-5.7,12.4-25.7,5.5-48.5c-4-13.4-15.5-33.5-28.3-32.7
		C481.5,1392.7,473.3,1428.9,472.6,1432.2z"/>
	<path d="M465.3,1427.1c-1.4-12.7-5.9-35.7-23.2-56.3c-5.4-6.4-19.7-23.4-29.1-19.9c-11.3,4.2-12.1,36.1-4.6,59.6
		c9.8,30.6,34,47.6,45,54.3C457.3,1452.2,461.3,1439.6,465.3,1427.1z"/>
	<path d="M525.6,1760.3c8.5-5.3,24.5-13.7,45.9-15c9.1-0.6,33.6-2.1,38,7.9c5.3,12.3-20.8,38.8-47.7,51.2
		c-26.9,12.5-52.6,10.1-65.3,7.9C506.2,1795,515.9,1777.7,525.6,1760.3z"/>
	<path d="M276.6,1677.3c-1.3-7.6-10.1-61.2,23-90.1c3.8-3.3,19.9-17.3,31.8-12.4c17.4,7.2,16.7,50.7,8.8,79.5
		c-8.6,31.6-27.8,52.4-38.9,62.7C293.1,1703.8,284.8,1690.5,276.6,1677.3z"/>
	<path d="M228,1617.2c1.8-11.7,4.2-39.3-11.5-65.3c-21.8-36.2-70.8-56.7-86.5-43.3c-14.8,12.6-4.3,58.7,23,84.8
		C181.7,1620.9,220.7,1617.9,228,1617.2z"/>
	<path d="M517.6,2062.5c-5.4,21.4-23,48.3-53.8,56.3c-35.3,9.1-71.7-10.8-84.8-37.1c-6.7-13.5-10.3-34.9-1-42.3
		c9.1-7.3,27.3,1.7,38.1,7c16.1,7.9,26.6,18.5,32.7,25.6c6.6-10.6,17.3-25.1,33.6-38.9c11.6-9.8,21.9-18.5,29.3-15.4
		C521.5,2022,521.8,2046.1,517.6,2062.5z"/>
	<path d="M639.5,2049c4.8-7.4,12.7-18,24.7-28.3c12.4-10.6,39.5-29.7,47.7-23c8.2,6.8-2.8,39.8-23,60.9
		c-20.6,21.5-46.9,26.9-58.9,28.5C633.2,2074.5,636.4,2061.8,639.5,2049z"/>
	<path d="M627.5,2100.2c-2.3-10.1-7.8-27.1-21.6-43.2c-7.5-8.7-17.5-20.4-24.2-17.9c-10.6,3.9-12.9,44,6.5,70.9
		c10.7,14.9,25.1,21.8,32.7,24.7C623.2,2123.2,625.3,2111.7,627.5,2100.2z"/>
	<path d="M663.6,1975.4c-2.7-5.8-18.8-41.9-1.2-75.6c11.4-21.9,36.8-42.4,50.3-36.2c14.7,6.8,15.4,45.5,0.9,72.4
		C699.1,1963.1,671.9,1972.8,663.6,1975.4z"/>
	<path d="M607.7,2239.8c3-11.9,11.4-37.4,35.3-55.6c3.7-2.8,25.9-19.7,34.4-13.2c9.8,7.4-1.5,43-18.5,67.1
		c-16.3,23.2-37.5,35-49.4,40.6C608.9,2265.7,608.3,2252.7,607.7,2239.8z"/>
	<path d="M608.6,2283.9c-0.4-7.7-2.6-36.6-25.6-56.5c-10.9-9.4-32.3-22-41.5-15c-12,9.2,0.9,48.8,16.8,74.2
		c15.9,25.6,37.1,40.5,51.2,48.6C609.2,2318.1,608.9,2301,608.6,2283.9z"/>
	<path d="M264.9,2084.3c-3.2-7.6-15-32.4-41.5-41.6c-1.9-0.7-25.5-8.7-31.8,0c-7,9.6,10.7,35.2,25.8,49.7c19.1,18.2,41,25,54,27.9
		C269.3,2108.2,267.1,2096.2,264.9,2084.3z"/>
	<path d="M281.7,2163c0.6-11.7,3.6-35,20.5-55.4c1.1-1.4,22.2-26.4,33.1-21.2c10.1,4.8,7.4,33.5,1.3,52.3c-9.6,29.8-31.8,48-45,57
		C288.3,2184.7,285,2173.8,281.7,2163z"/>
	<path d="M312.8,2257.9c-8.4-7.2-26.8-21-53-23.2c-9.4-0.8-24.5-2-27.8,4.6c-5.2,10.6,20.9,38,49.7,51c19.4,8.8,37.6,9.9,49.5,9.6
		C325,2285.9,318.9,2271.9,312.8,2257.9z"/>
	<path d="M339.7,2317.4c-0.2-13.6,1.5-40.8,20.1-64.1c3-3.7,18.9-23.7,28.5-19.9c11,4.4,8.5,38.2,3.3,59.6
		c-7,28.4-22.1,48.7-32.9,60.6C352.4,2341.5,346,2329.5,339.7,2317.4z"/>
	<path d="M254.5,1969.1c-5.6-5-31.4-28.9-31.1-64.9c0.2-25.7,13.6-58.6,31.1-59.6c17.3-1,35.7,29.5,37.1,56.3
		C293.7,1940.7,258.1,1966.6,254.5,1969.1z"/>
	<path d="M470.4,2471.1c0.5-7.3,1.5-22.3,9.3-25.2c11.5-4.2,33.4,20.2,43,43.7c9.8,24.1,6.6,46.7,4,58.3c-10.3-3.7-20.5-7.3-30.8-11
		C486.9,2526.7,468.3,2502.2,470.4,2471.1z"/>
	<path d="M459.2,2525.3c-10.9-0.4-37,0.4-60.3,18c-3.5,2.6-26.5,20-22.5,29.8c4.8,11.9,49.1,11.9,80.8-8.6
		c14.2-9.2,23.2-20.8,28.5-29.1C476.8,2532,468,2528.7,459.2,2525.3z"/>
	<path d="M597.1,2585c-10.3-2.7-42.7-9.6-73.3,7.9c-9.2,5.3-30.3,19.7-27.4,29.1c4,12.7,50.1,12.9,86.5,0.9
		c19.7-6.5,34.5-15.8,44.2-23C617.1,2595,607.1,2590,597.1,2585z"/>
	<path d="M901.8,2591.2c0.9,33-25.3,73.4-66.5,79.8c-35.8,5.6-69.7-16.6-82.7-44.5c-7.4-15.9-12-42.1-0.9-50.3
		c12.1-8.9,41,4.5,72.2,34.2c22.6-39.4,47.1-60.6,62-55.4C900.6,2560.1,901.7,2589.2,901.8,2591.2z"/>
	<path d="M822.3,2528.5c-2-1.2-37.7-22.9-37.1-60c0.5-26.5,19.4-55.8,37.1-54.7c17.3,1.1,30.6,31,30.9,54.7
		C853.6,2503,826.5,2525.2,822.3,2528.5z"/>
	<path d="M734.3,2842.7c-9.3-7.8-29.4-22.3-57.7-24.6c-3.7-0.3-36-2.9-39.7,7.9c-4.1,12,27.3,39.4,61.8,46.8
		c26.1,5.6,48.5-1.3,60.4-6.1C750.8,2858.8,742.5,2850.8,734.3,2842.7z"/>
	<path d="M773.7,2878.2c-3.6-4.3-25.8-31.2-17.7-60.9c0.4-1.3,7.2-25.3,20.3-26.5c14.7-1.3,27.9,27,32.7,41.5
		c9.2,27.8,3.6,53.8-1.8,69.8C796.1,2894.1,784.9,2886.1,773.7,2878.2z"/>
	<path d="M825.8,2916.2c-8-2.4-24.7-6.2-44.2-0.9c-2.6,0.7-33.8,9.3-34.4,23c-0.6,14.2,31.7,30.3,60,31.8c32.5,1.7,56.7-16,65.3-23
		C857,2936.8,841.4,2926.5,825.8,2916.2z"/>
	<path d="M1073.2,2868.3c-7.9-1.1-48.3-7.8-69.9-42.2c-25.2-40.2-14.1-101.1,11.5-110.4c22.5-8.2,59,22.5,72.4,56.5
		C1105.9,2819.5,1076.3,2863.8,1073.2,2868.3z"/>
	<path d="M1139.3,2963c-2.9-5.9-17.2-36.8-2.6-63.6c4.4-8.1,15.4-23,25.6-21.2c15.3,2.7,18.9,40.9,19.4,45.9
		c1.3,13.4,1.4,39.4-15,71.5C1157.6,2984.8,1148.4,2973.9,1139.3,2963z"/>
	<path d="M866.1,3060.7c-7.9,4.1-50.3,25.1-93.3,6.5c-24.5-10.6-53.6-36-48.6-54.7c5.6-21.2,54.7-33.3,91-17.7
		C854.2,3011.6,864.8,3054.6,866.1,3060.7z"/>
	<path d="M1003.3,3106.9c-11-1.3-44.7-4-74.2,17.7c-3.6,2.6-34.7,25.8-29.1,42.4c6.2,18.5,56.4,24.1,94.5,9.7
		c36.7-13.9,55.8-44.1,62.7-56.5C1039.2,3115.7,1021.3,3111.3,1003.3,3106.9z"/>
	<path d="M1081,3124.6c-34-22.6-70.3-50.9-64.5-67.1c4-11.1,26.7-13.3,40.6-11.5c34.3,4.4,63.3,38.4,76.8,85.7
		C1116.3,3129.3,1098.7,3126.9,1081,3124.6z"/>
	<path d="M1181.7,3140.5c-12,1.6-43.5,7.7-66.2,34.4c-5.7,6.7-21.7,25.6-15.9,36.2c7.9,14.6,54.7,10.4,87.4-9.7
		c28.3-17.3,41.4-43.6,46.8-56.5C1216.4,3143.4,1199.1,3141.9,1181.7,3140.5z"/>
	<path d="M1451.9,3142.2c2.9-13.8,9.5-35.1,25.6-55.6c10.2-13,35.5-40,48.6-33.6c10.5,5.2,9.5,30.4,4.4,46.8
		c-9,29.1-34.9,43.1-42.4,46.8C1476,3145.2,1464,3143.7,1451.9,3142.2z"/>
	<path d="M1621.8,3129.5c1.5-9,7.3-37,31.5-55.3c32.5-24.6,84.1-21,91.8-3.5c7.5,16.9-23.2,53.9-60,64.5
		C1656.8,3143.3,1631.8,3133.9,1621.8,3129.5z"/>
	<path d="M1557,3142.2c54.9,3,69.1,9.2,69.8,15c0.8,7.3-19.6,16.5-35.3,19.4c-5.4,1-37.4,7.4-64.5-13.2
		c-8.7-6.7-14.3-14.1-17.6-19.3C1525.2,3143.5,1541.1,3142.8,1557,3142.2z"/>
	<path d="M1846.2,3123.7c-11.8,11.2-26.4,34.2-18.5,54.7c10.6,27.5,54.5,32.5,80.4,20.3c7.9-3.7,22.5-13,21.2-22.1
		c-1.4-9.7-20.7-17.1-49.4-18.5c12.9-22.5,15-43.2,7.1-49.4C1877.9,3101.7,1857.3,3113.1,1846.2,3123.7z"/>
	<path d="M1936.8,3125.8c-0.8-5.6-5.1-40.3,18.4-64.8c24.8-25.9,70.8-30.3,82.1-14.1c9.8,13.9-5.9,43.8-23.8,60
		C1983.7,3133.8,1943.1,3126.9,1936.8,3125.8z"/>
	<path d="M1716.8,3287c-1.1,9.6-3.2,39.4,15.9,64.5c24.5,32.1,73.3,42.9,83.9,30c8.8-10.7-7.6-38.2-15.9-49.4
		c-16.1-21.8-37.7-30.6-47.7-34C1740.9,3294.4,1728.9,3290.7,1716.8,3287z"/>
	<path d="M1895.4,3324.8c5.4-5.2,41.1-38.5,87.2-30.7c27,4.6,59.5,23.6,58.3,41.5c-1.4,20.9-48.6,42-88.3,32.7
		C1918.8,3360.4,1900.5,3332.9,1895.4,3324.8z"/>
	<path d="M2238.7,3086.6c-5.4-12.8-14.4-39.3-7.9-70.6c5-24.5,20.3-56.1,33.6-54.7c12.6,1.3,19.6,31.8,21.2,48.6
		c2.3,25.3-5.4,45.6-10.6,56.5C2262.8,3073.1,2250.7,3079.8,2238.7,3086.6z"/>
	<path d="M2236,3090c59.4-7.1,75.5-2.2,77.7,4.6c3,9.3-19.5,25-33.6,31.8c-6.4,3.1-36.8,17.9-66.2,3.5c-9.6-4.7-16.1-11.1-20-15.6
		C2207.9,3106.2,2222,3098.1,2236,3090z"/>
	<path d="M2376.4,2888.8c-15.6,21.4-17.8,59.6,6.2,83.9c24.8,25.1,62.1,19.4,83,7.9c15.1-8.2,33.2-25.7,29.1-36.2
		c-6.1-15.8-59.7-8.4-74.2-6.2c3.2-37.4-3.3-63.6-15.9-67.1C2392.1,2867.6,2377.4,2887.5,2376.4,2888.8z"/>
	<path d="M2485.9,2862.3c-4.8-6.1-24.5-32.5-18.5-65.3c3.7-20.5,17.4-44,27.4-42.4c7.4,1.2,14.9,16.5,17.7,73.3
		C2503.6,2839.3,2494.8,2850.8,2485.9,2862.3z"/>
	<path d="M2545.5,2774.9c-1.3-2.2-24.9-43.5-3.9-78.6c13.2-22.2,42.8-39.9,58.3-30.9c15.9,9.2,13.5,44.9,1.8,68
		C2585.6,2764.9,2551.7,2773.5,2545.5,2774.9z"/>
	<path d="M2478.6,2872.7c3.7-3.8,21.9-21.6,47.9-20.1c12.6,0.7,32.4,6.4,33.6,15.9c1.5,12.6-29.8,28.8-56.5,33.6
		c-19.5,3.5-36.2,0.8-46.9-1.9C2464,2891,2471.3,2881.8,2478.6,2872.7z"/>
	<path d="M2357.9,3234.1c-32.9-4.6-84.7,13.7-90.3,55c-5.7,42.1,41.2,72.6,74.4,77.4c13.1,1.9,36.4,1.6,40.6-8.8
		c6.6-16.6-39.4-48.7-49.1-55.3c3.7-2,59.5-32.8,53.5-53.3C2383.7,3237.7,2362.9,3234.8,2357.9,3234.1z"/>
	<path d="M2477.9,3298.2c2.4-7.6,13.7-40.5,45.9-55.3c36.6-16.8,85.7-3.8,90.1,15c4.2,18.1-32.1,46.6-68,53
		C2514.4,3316.5,2488.4,3304,2477.9,3298.2z"/>
	<path d="M2668.7,3155.5c13-2,52.2-6.4,87.4,17.7c3.4,2.3,37.9,25.9,32.7,41.5c-6.2,18.6-68,22.9-114.8,0
		c-26.7-13.1-43.5-32.6-53-45.9C2636.9,3164.3,2652.8,3159.9,2668.7,3155.5z"/>
	<path d="M2851.7,3097.8c2.6-7.7,18.8-53.9,64.3-70.3c32.3-11.7,77.2-7.7,84.8,11.5c8.2,20.6-26.5,60-66.2,71.5
		C2894.9,3121.9,2860.2,3102.8,2851.7,3097.8z"/>
	<path d="M2719.9,3142.2c2.1-11.7,10.2-49.1,43.3-72.4c28.7-20.2,70.5-25.7,76.8-14.1c8.1,14.8-42.4,56.4-55.6,67.1
		C2762.9,3129.3,2741.4,3135.7,2719.9,3142.2z"/>
	<path d="M2712.9,2882.6c2.3-8.7,10.1-42.2-8.8-73.3c-8.9-14.6-29-37.3-42.4-32.7c-17.5,6.1-18.4,57.1-7.9,94.5
		c7.2,25.8,19.8,44.7,29.1,56.5C2692.8,2912.6,2702.9,2897.6,2712.9,2882.6z"/>
	<path d="M2773.8,2734.3c-6.5-7.1-26.1-30.3-25.6-62.7c0.6-38.9,30-78.3,49.4-75.1c17.7,3,29.8,41.6,24.7,72.4
		C2815.6,2709.9,2779.7,2730.9,2773.8,2734.3z"/>
	<path d="M2832.4,2730.1c10.5-4.8,73.4-33.2,83.6-18.8c7.9,11.3-15.9,50.3-51.2,63.6c-33,12.4-63.9-2.1-71.1-5.8
		C2806.6,2756.1,2819.5,2743.1,2832.4,2730.1z"/>
	<path d="M2895.6,2521.5c-11.3,25.9-1.6,68.9,31.6,86.5c29.8,15.8,65.6,4.3,84-15.9c9.6-10.5,20.8-30.3,14.1-39.7
		c-7.4-10.3-34.8-6.2-70.2,9.8c-11.9-37.7-28.2-60.7-41.9-59.3C2903.3,2503.9,2897.3,2517.7,2895.6,2521.5z"/>
	<path d="M2993.4,2487.4c-1.4-2.2-23.5-37.2-6.8-69.3c10.7-20.6,36.2-38,50.3-30.9c14.9,7.4,15.1,40.5,4.4,62.7
		C3028,2477.7,2998.8,2486,2993.4,2487.4z"/>
	<path d="M2795,2838.7c-23.8,16.2-40.3,61.2-16.6,93.4c24.3,32.9,72.5,27.9,96.5,9.9c7.4-5.6,21.6-19.1,18.1-29.8
		c-6.5-19.9-69.2-13.8-72.7-13.4c12.7-33.4,13.4-59.3,2.5-66.1C2813.1,2826.7,2796.9,2837.4,2795,2838.7z"/>
	<path d="M2965.2,2674.4c-16.6,20.8-25.5,62,1.3,88.1c26.3,25.7,65.1,15.6,85,2c11.4-7.8,27.9-24.6,23.6-36.2
		c-4.6-12.4-32.2-16.6-69.9-9.8c9.6-32.7,7.5-57.9-3.6-63.3C2991.1,2650.1,2973.8,2663.6,2965.2,2674.4z"/>
	<path d="M3114.5,2578.2c3.8-6.4,27.1-47.6,8.9-85.9c-2.1-4.3-13.3-28-27.4-27.4c-19.1,0.9-34.3,46.2-36.2,80.4
		c-2.1,38.1,11.8,68,20.3,83C3091.6,2611.6,3103.1,2594.9,3114.5,2578.2z"/>
	<path d="M3156.1,2516.2c12.1-7.7,38.4-21.7,72.4-19.4c13.3,0.9,27.8,1.9,30.9,9.7c5.9,14.9-30.3,51.8-72.4,59.2
		c-25,4.4-46-2.6-56.5-7.1C3139.1,2544.4,3147.6,2530.3,3156.1,2516.2z"/>
	<path d="M3212.2,2412.9c2.2-5.7,13.6-37.4-3.1-67.2c-8.1-14.3-26-34.1-38-30c-15.9,5.5-19.4,52.5-4.4,88.3
		c7.9,19,19.9,32,28.6,39.8C3201,2433.5,3206.6,2423.2,3212.2,2412.9z"/>
	<path d="M3359.6,2298.2c5.7-2.5,31.2-12.9,57-1c11.4,5.2,29.6,17.9,27.3,27.8c-3.1,13.2-41.8,18.6-72.4,11.9
		c-19.7-4.3-34.4-13.2-43.6-19.9C3338.6,2310.7,3349.1,2304.5,3359.6,2298.2z"/>
	<path d="M3399.7,2278.3c-0.1-8.2,0.1-51.8,32.8-77.4c13.5-10.6,36-20.8,42.4-14.1c5.1,5.3,1.3,23.1-38.1,77.6
		c-5.5,1.7-11.2,3.7-17.1,5.8C3412.6,2272.9,3406,2275.6,3399.7,2278.3z"/>
	<path d="M3241.3,2142.1c2.5,31.9,30.1,56,56.6,64.8c30.4,10.1,67.8,2.8,88.8-21.9c11.2-13.2,22.4-36.9,14.1-46.8
		c-12.6-15.1-65,9.2-88.4,20.9c-16.3-41.7-36.3-68.6-51.2-65.9C3247.9,2095.6,3239.7,2122,3241.3,2142.1z"/>
	<path d="M3267.2,1999.6c-1.2,34.2,31.4,66.2,66.5,74.2c36,8.1,78.2-8.2,92.7-39.3c6-12.8,10.6-35,0.3-44.2
		c-12.6-11.4-45.4-1.3-82.1,27.6c-12.7-41-36.2-63.8-53-60.7C3277,1959.9,3267.8,1982.4,3267.2,1999.6z"/>
	<path d="M3355.5,1945.1c-6-6.6-37.5-42.8-29.3-87.9c4.7-25.9,22.9-57.1,39.7-55.6c17.9,1.5,31.6,39.7,29.8,70.2
		C3393.3,1912.6,3363.3,1938.7,3355.5,1945.1z"/>
	<g>
		<path d="M3365.9,1801.6c-5.4,363.6-155.7,706.7-405.1,969.4c-96.4,101.9-206.8,191.1-327.3,263
			c-290.8,174.1-627.7,236-961.5,178.2c-533.7-90-1014.3-477.9-1186.8-994.8C334,1779.7,436.9,1286.3,684.1,903.8
			c16.8-26.3,35.9-51.3,55.5-75.6C967.9,544,1307.3,353.8,1666.5,297c351.7-54.5,714,33.6,1014.3,220.8
			c53,32.8,104.1,68.5,152.8,107.4c16.2,13,32.1,26.3,47.6,40.1c-15.6-13.7-31.6-27-47.9-39.9c-325.4-255.9-754-388.8-1166.2-323.2
			c-372.9,60-723.4,264.4-950.3,567.5c-241.5,350.8-358.2,806.3-257.7,1225.4c133.2,570.2,642.4,1012.8,1214,1109.2
			c332.8,57.8,666.7-2.9,957.2-175.5c120.3-71.3,230.5-159.9,326.9-261.1C3207.3,2506.3,3358.4,2164.7,3365.9,1801.6L3365.9,1801.6z
			"/>
	</g>
</g>
</svg>
