<?xml version="1.0" encoding="utf-8"?>
<!-- Generator: Adobe Illustrator 26.0.0, SVG Export Plug-In . SVG Version: 6.00 Build 0)  -->
<svg version="1.1" id="Layer_1" xmlns="http://www.w3.org/2000/svg" xmlns:xlink="http://www.w3.org/1999/xlink" x="0px" y="0px"
	 viewBox="0 0 3600 3600" style="enable-background:new 0 0 3600 3600;" xml:space="preserve">
<style type="text/css">
	.st0{fill:none;stroke:FRAME_COLOR;stroke-width:4;stroke-miterlimit:10;}
	.st1{fill:none;stroke:FRAME_COLOR;stroke-width:6;stroke-miterlimit:10;}
	.st2{stroke:FRAME_COLOR;stroke-width:4;stroke-miterlimit:10;}
	.st3{fill:none;stroke:FRAME_COLOR;stroke-width:5;stroke-miterlimit:10;}
	.st4{fill:none;stroke:FRAME_COLOR;stroke-width:3;stroke-miterlimit:10;}
	.st5{fill:none;stroke:FRAME_COLOR;stroke-width:2;stroke-miterlimit:10;}
	.st6{fill:none;stroke:FRAME_COLOR;stroke-width:9;stroke-miterlimit:10;}
	.st7{fill:none;stroke:FRAME_COLOR;stroke-miterlimit:10;}
	.st8{stroke:FRAME_COLOR;stroke-miterlimit:10;}
</style>
<g>
	<g>
		<path d="M3058.7,2391.5c-79.9,65.2-169.2,118.7-264.3,158.4c-138.8,57.7-289.9,85.4-440.2,82.5c150,1.3,300.4-27.8,438.3-86.9
			c16.8-7.5,37.4-16.6,53.7-24.8c17.2-8.6,35.5-18.3,52.2-27.8c54.8-31.1,106.8-67.3,155.2-107.6L3058.7,2391.5L3058.7,2391.5z"/>
	</g>
	<g>
		<path d="M2827.6,2532.6c-69-82.4-169.5-95.3-261.3-42.5c-4.3,2.5-10.5,6.1-14.5,8.9c-19.1,12.7-33.6,30.8-50.4,46.3
			c-42.2,39.1-92.7,68.8-146.7,88.5c0,0,0.3-2.5,0.3-2.5c19.2,11.8,39.4,21.7,60.2,30.1c52.1,20.8,108.9,29.1,164.9,25
			C2683.7,2679.5,2773.4,2620.1,2827.6,2532.6L2827.6,2532.6z M2828.1,2532.5c-44.6,79.2-123.7,139-213.8,154.8
			c-78.4,13.8-161,0.2-231.5-36.7c-10.9-5.7-21.5-12-31.9-18.6c55-18.4,107-47.9,149-88.2c16.5-16,30.7-34.5,49.8-47.7
			c4-2.9,10.3-6.8,14.6-9.4c52.2-31.6,117-43.3,175-21.2C2774.7,2478.7,2805.6,2502.6,2828.1,2532.5L2828.1,2532.5z"/>
	</g>
	<g>
		<path d="M2865.1,2647.9c-68.8,66.6-154.8,115-247.3,139.8c-4.4,1.1-18.4,4.5-22.6,5.6c-1.5,0.3-8.8,1.8-10.4,2.1
			c-4.6,0.9-12,2.6-16.6,3.3c-2.8,0.4-18.3,3-20.9,3.2c-2.9,0.4-9.7,1.1-12.6,1.5c-2.2,0.2-6.2,0.7-8.4,0.9
			c-6.1,0.4-15.1,1.2-21.1,1.4c-46.5,2-93.4-2-138.5-12.7c0,0,0.1-0.8,0.1-0.8c38.8,5.2,78,7.6,117,6.4
			C2633.2,2794,2753.7,2744.5,2865.1,2647.9L2865.1,2647.9z"/>
	</g>
	<path class="st0" d="M3040.8,2414.4c-22.2,39.9-51.7,104.8-61.8,189.6c-6.5,54.2-3.3,101,2,136.6"/>
	<path class="st0" d="M3054.6,2391.4c-13.9,25.8-39.1,81.3-33.2,152.6c2.5,30.4,10,55.9,17.6,75.1"/>
	<path class="st1" d="M3159,2173.2c-17.3,40.7-35.5,98.1-39.4,168.2c-1.6,28.2-0.6,54.1,1.7,77"/>
	<path class="st2" d="M3118.4,2370.5c-2,11.5-5.8,29.6-13.4,50.8c-12.1,33.7-20.9,39.7-26.6,64.3c-7.8,33.2-0.9,61.4,1.2,69.5
		c8.2,31.8,21.3,37.3,34.6,69.6c6.8,16.6,14.6,42.5,14.3,78.6c7.6-10.8,17.5-26.6,26.9-46.7c12.1-26.2,36.1-79.6,28-147.7
		C3174.8,2436.8,3135.2,2388.7,3118.4,2370.5z"/>
	<g>
		<path d="M2885.5,2624.6c-8.4,8.9-16.8,17.7-24.3,27.5c-18.5,24.3-31.9,53.3-34.7,84c-1.2,18.4,0.8,36.9,0.6,55.4
			c0,24.7-0.3,49.4-1.3,74.1c-0.8,18.5-2.3,37.6-8.7,55.2c-6.1,17.8-16.6,33.8-29.4,47.4c-16.9,18-35.1,34.6-49.4,54.9
			c-28.9,39.9-45.9,87.7-52.6,136.3c0,0-0.6,4-0.6,4c-14.6-31.4-26.8-64-36-97.5c-16-58.1-35-119.1-5.6-176.5
			c12.3-23.9,30.6-44,48-64.2c8.7-10,17.5-20.2,27.1-29.5c4.8-4.7,9.6-9.2,14.4-13.8c24.1-22.9,47.2-46.7,69.9-70.9
			C2830.5,2682,2858.1,2653.9,2885.5,2624.6L2885.5,2624.6z M2885.9,2624.3c-27,29-54.3,58.8-80.9,88.4
			c-17.7,19.8-35.6,39.5-54.3,58.5c-9.3,9.5-19,18.7-28.4,28c-9.4,9.3-18,19.3-26.7,29.3c-8.7,10.1-17.3,20.2-25.5,30.5
			c-12.2,15.4-23.1,32.1-29.2,50.8c-15.8,44.4-4.2,91.7,7.2,135.8c9.6,38.4,21.4,76.9,37.7,113.1c0,0-2.3,0.3-2.3,0.3
			c8.4-54.9,29.4-108.6,64.7-151.8c18.9-24,44.4-43.3,58.1-71c5.4-10.8,9.2-22.6,11.6-34.4c2.2-12,2.9-24.3,3.5-36.5
			c0.9-24.6,1.5-49.3,1.9-73.9c0.5-18.5-0.9-37.1,0.7-55.6C2829.1,2692.4,2854.5,2653.6,2885.9,2624.3L2885.9,2624.3z"/>
	</g>
	<g>
		<path d="M2570.7,2895.9c-68.5,70.8-117,160.7-138.6,256.9c-3.1,13.8-5.6,27.7-7.7,41.6c1.8-14,4.1-27.9,7-41.8
			c20-97.1,67.2-188.4,134.9-260.9C2566.4,2891.8,2570.7,2895.9,2570.7,2895.9L2570.7,2895.9z"/>
	</g>
	<path class="st0" d="M2507.4,2930.5c-24.6,6.2-64.3,12.8-111.8,5.1c-79.9-12.9-131.6-58.1-151.2-77.3"/>
	<path class="st2" d="M2393.7,2988.6c-25.9,9.3-58.3,26.2-76.8,58.8c-10.5,18.5-7.3,25.8-19.4,51.8c-5.6,12.1-23,48.4-61.4,77.9
		c-36,27.7-73.3,36.1-93.7,39.1c4.2-16.7,12.3-40.8,28.8-65.9c21-31.8,45.4-49.8,69.9-66.8C2278,3057.9,2328.9,3024.7,2393.7,2988.6
		z"/>
	<g>
		<path d="M2424.7,2976.7c-139.9,47.4-289.7,39.6-424.8-19.6c-56-24.4-108.7-56.5-156.3-94.9c47.8,37.9,100.7,69.6,156.8,93.5
			c85.5,36.5,179.6,53.7,272.4,47c51.2-3.6,101.8-14.1,150.2-30.8L2424.7,2976.7L2424.7,2976.7z"/>
	</g>
	<g>
		<path d="M2125.9,2995.4c-19,13.3-40.6,23-63.3,28.2c-46.7,10.9-94.2,0-132.6-28.4c-43.5-32.3-73.3-80.8-88.1-132.5
			c0,0-0.4-1.4-0.4-1.4l1.4-0.6c40.8-18.5,87.7-23.2,131.4-13.6c29.2,6.4,57.2,19.1,81,37.3c14.7,11.6,27.8,25.2,38.6,40.4
			C2108.9,2945.9,2120.2,2970,2125.9,2995.4L2125.9,2995.4z M2125.3,2995.2c-13.1-42.4-38-79.5-73.5-106.3
			c-32.2-23.6-71.4-37.6-111.2-40.5c-32.7-2.3-65.9,3.3-96.3,15.5c0,0,1-2.1,1-2.1l1.4,5.5c3.4,12.8,7.9,25.7,13.4,37.7
			c12.5,27.8,30.9,53.1,54,73c29.3,25.1,66.4,42.2,105.2,44.5C2056.5,3025,2093.4,3013.6,2125.3,2995.2L2125.3,2995.2z"/>
	</g>
	<circle cx="2239" cy="2857.2" r="25.4"/>
	<circle cx="2039.8" cy="3285.4" r="25.4"/>
	<circle cx="1957.3" cy="3286.5" r="25.4"/>
	<circle cx="1059.1" cy="2777.8" r="25.4"/>
	<circle cx="967.4" cy="2716.9" r="25.4"/>
	<circle cx="780.2" cy="746.4" r="25.4"/>
	<circle cx="1041.7" cy="273.8" r="25.4"/>
	<circle cx="1190.2" cy="288.1" r="32.9"/>
	<circle cx="849" cy="398.3" r="25.4"/>
	<circle cx="2641.2" cy="611.3" r="25.4"/>
	<circle cx="2495.8" cy="251.4" r="21.7"/>
	<circle cx="3182.9" cy="763.5" r="21.7"/>
	<circle cx="3290" cy="1053.9" r="21.7"/>
	<circle cx="765.2" cy="691.2" r="19.7"/>
	<circle cx="1097.8" cy="459" r="19.7"/>
	<circle cx="1186.1" cy="377" r="19.7"/>
	<circle cx="492.5" cy="759.1" r="19.7"/>
	<circle cx="431.6" cy="2525" r="25.4"/>
	<circle cx="2985.3" cy="2746.9" r="25.4"/>
	<circle cx="3041.3" cy="2631.6" r="25.4"/>
	<g>
		<path d="M2679.1,3152.2c0-84.7,15.2-169.4,44.8-248.8c22.4-59.3,50.2-116.6,83.6-170.5c11.2-17.9,22.9-35.5,35.2-52.7
			c-12.1,17.3-23.7,34.9-34.7,53c-53.8,90.3-96.4,189.1-113.9,293.2c-7.1,41.5-10.4,83.7-10,125.8
			C2684.1,3152.2,2679.1,3152.2,2679.1,3152.2L2679.1,3152.2z"/>
	</g>
	<path class="st3" d="M2101,3087.3c-10.2,3.5-48.9,17.9-71.2,58.5c-33.1,60.6,1.1,122.9,3.4,126.8"/>
	<path class="st3" d="M2120.2,3082.8c-15.5,2.8-81.8,16.7-127.5,78.7c-35,47.4-38.6,96.8-39,115.5"/>
	<g>
		<path d="M1970.2,3110.8c-57.2-2-113.7-19.7-162-50.5c-24.5-15-46.4-34.3-64.8-56.5c-10.1-12.3-19.3-25.4-26.9-39.4
			c0,0,0.7-0.4,0.7-0.4c11.8,14.7,24.2,29,37.6,42.3c16.6,16.4,34.6,31.7,53.4,45.5c26.9,19,56.6,33.7,88,43.6
			c23.9,7.7,48.8,12.5,73.9,14.7L1970.2,3110.8L1970.2,3110.8z"/>
	</g>
	<g>
		<path d="M1763.7,3125.3c-176.3-20.5-343.7-101.7-470.8-225.2c-29.4-28.3-56.8-58.7-82-90.7c25.5,31.8,53.1,62,82.7,90
			c127.6,122.1,295,201.8,470.7,220.9C1764.3,3120.3,1763.7,3125.3,1763.7,3125.3L1763.7,3125.3z"/>
	</g>
	<g>
		<path d="M1999.8,3108.8c-162.9,24.8-296.9,132.8-357.9,285.5c-13.9,34.2-24.4,69.9-30.7,106.4c6-36.5,16.2-72.3,29.8-106.7
			c60.1-154.2,194.3-263.8,358-290.1C1999,3103.9,1999.8,3108.8,1999.8,3108.8L1999.8,3108.8z"/>
	</g>
	<g>
		<path d="M1827.2,3122.5c-49.2-3.4-99.3,4.1-145.1,22.6c-33.7,13.7-64.8,33.6-93.3,56.1c-12.4,10-24.3,20.7-35.7,31.8
			c0,0-0.6-0.5-0.6-0.5c7.5-10.5,16-20.3,25.1-29.4c20.6-20.6,44.6-38,71-50.5c4.8-2.4,10.5-4.9,15.5-7.1c4.2-1.6,11.6-4.8,15.8-6.2
			c22.6-8.3,46.6-14.1,70.4-17.2c25.6-3.1,51.5-3.4,77-0.3L1827.2,3122.5L1827.2,3122.5z"/>
	</g>
	<g>
		<path d="M1617.3,3116.4c-73.9-3.2-149.2,11.3-215,45.8c-33.1,17.1-62,41.2-95.3,58.1c-79,40.4-172.9,30.4-253.9,1.1
			c80.9,28.5,174.6,37.8,252.9-3.1c33.1-17.1,61.8-41.5,94.9-58.9c21.9-11.6,45.3-21.4,68.9-28.7c47.6-14.9,97.9-20.9,147.7-19.3
			L1617.3,3116.4L1617.3,3116.4z"/>
	</g>
	<g>
		<path d="M1272,3032.7c-79.9-5.1-159.3-17.9-236.5-39c-50.6-13.9-102.2-33.2-153.4-44.5c-77.8-18-158-24.8-237.9-22.3
			c79.8-3.1,160.2,3.1,238.3,20.5c51.3,11,103.1,29.8,153.8,43.3c77.1,20.3,156.4,32.5,236,37
			C1272.3,3027.7,1272,3032.7,1272,3032.7L1272,3032.7z"/>
	</g>
	<g>
		<path d="M1332.7,3053.8c-47.5-5.3-95.8-3.8-142.7,5.1c-32.1,6.2-63.6,15.9-94.3,27.1c-14,5.2-27.8,10.9-41.5,16.9l-0.3-0.5
			c11.5-7.1,23.6-13.3,35.9-19c53.5-24.4,112.7-34.6,171.2-35.4c24-0.1,48.1,1.6,71.8,5.2L1332.7,3053.8L1332.7,3053.8z"/>
	</g>
	<path class="st4" d="M1190.2,2997.3c-17.4-7.6-68.5-32.6-102.6-91.6c-31.9-55.4-30.1-108.5-28.6-127.8"/>
	<path class="st4" d="M1097.2,2953.4c-20.2-10.9-75.7-44.4-108.1-113.8c-23.4-50-24-95.7-22.7-119.2"/>
	<g>
		<path d="M887.4,2826.7c-89.2-117.9-139.7-262.9-146.1-410.3c-2.6-57.5,0.8-115.3,9.9-172.1c-8.2,53.7-11.3,108.2-8.9,162.5
			c5,124.3,40.9,247.6,106,353.8c13.3,21.8,27.7,42.8,43.2,63.1L887.4,2826.7L887.4,2826.7z"/>
	</g>
	<g>
		<path d="M903.5,2838.8c-66-36.9-136.2-66.4-208.9-87.2c-20.8-6-41.9-11.3-62.4-18.3c-51.4-17.4-99.5-43.8-142.9-76.2
			c-17.4-12.9-34-26.9-49.9-41.6c16,14.5,32.8,28.3,50.2,41.1c43.6,31.9,91.8,57.8,143.2,74.6c30.9,10.1,62.7,16.9,93.7,26.8
			c62.1,19.5,122.3,45.1,179.4,76.4C905.9,2834.4,903.5,2838.8,903.5,2838.8L903.5,2838.8z"/>
	</g>
	<path class="st5" d="M661,2611.3c-25.5-15.6-55.1-31.6-88.6-46.5c-51-22.6-98.4-36.9-138.7-46.2"/>
	<g>
		<path d="M1817.3,3176.1c8.4,69-18.1,135-66.5,183.8c-5.2,5.2-10.8,10.2-16.7,14.6c-7.5,5.7-15.6,10.9-23.4,16
			c-43.1,27.8-76.9,68.4-100,113.9c-4.6-19.3-7.8-39.1-9.2-59c-3.7-46.9,4.7-93.9,20.5-138.1c7.7-22.3,18.2-43.8,32.8-62.4
			c10.2-13,22.4-24.5,35.8-34.1c1.6-1.4,4.1-2.8,5.9-4c3.4-2.2,8.5-5.4,12.1-7.3C1741.5,3181.4,1779.9,3173.7,1817.3,3176.1
			L1817.3,3176.1z M1816.9,3176.6c-25.3,0.2-50.9,4-74.7,12.7c-28,10.1-53.9,26.8-73.8,49c-25.2,27.3-38.5,62.5-49,97.7
			c-11.5,37.5-15.7,77.2-13.2,116.3c1,16.1,3.1,32.3,6.4,48.2c0,0-2.5-0.4-2.5-0.4c18.4-32.9,41.4-63.4,69.2-88.9
			c9.2-8.6,19.2-16.5,29.4-23.7c6.8-4.9,13.7-9.5,20.2-14.7c32-26,56.8-60.8,72.5-98.9C1813.5,3243.2,1818.3,3209.6,1816.9,3176.6
			L1816.9,3176.6z"/>
	</g>
	<g>
		<path d="M1467.6,3028c-15.8,3-39.9,5.6-68.6,1.5c-64.3-9.3-106.6-46.5-124.1-64.4c-60.7-62-63.9-138.5-64.1-155.8
			c23.5,1.1,57.1,4.8,95.6,17c29.9,9.5,55.2,17.5,82.1,38.9c39.7,31.7,55.6,72,63.4,92.1C1462.8,2985.8,1466.4,3010.9,1467.6,3028z"
			/>
		<path d="M1467.8,3028.2c-47.3,10.7-98.1,2.7-140.5-20.5c-26.6-14.5-50-34.6-68.5-58.5c-30.5-39.9-47.6-89.6-49.5-139.7
			c0,0,0-1.5,0-1.5l1.5,0.1c39.3,1,78,9.4,115.1,22.2c30.8,9.7,58.1,24.6,80.6,48.1C1443.1,2915.6,1465.8,2976.4,1467.8,3028.2
			L1467.8,3028.2z M1467.4,3027.9c-2.5-23.1-7.7-46-16.3-67.7c-13.5-36.1-34.7-70-65.5-93.7c-24.3-19.6-54-29.8-83.5-38.9
			c-14.8-4.6-29.9-8.3-45.2-11.1c-15.3-2.8-30.7-4.7-46.2-5.7l1.5-1.5c0.7,76.8,37.6,143.4,101.9,185.2
			C1359.9,3024.7,1413.4,3036.2,1467.4,3027.9L1467.4,3027.9z"/>
	</g>
	<g>
		<path d="M1368.8,3174.9c-9.8,60.4-53.4,111.5-115.4,120.8c-16.8,2.7-33.9,2-50.7,0.7c-59.1-4.8-114.6-33.3-157.5-73.4
			c0,0-3.5-3.3-3.5-3.3l4.9-0.2c35.8-1,71.6-12.1,99.2-35.4c22-18.9,35.9-39.5,65.1-49c21.6-7.7,45.3-7.9,67.7-3.7
			C1311.9,3136.8,1343.8,3151.8,1368.8,3174.9L1368.8,3174.9z M1368.2,3175.1c-23.1-18.3-50.5-31.7-79.6-37
			c-25.2-5.1-51.5-6.2-75.8,2.8c-10.3,3.5-19.7,9.1-28.2,15.8c-12.9,10.5-23.9,23.6-37.3,33.8c-28.3,22.5-64.9,33.3-100.8,33
			c0,0,1.4-3.5,1.4-3.5c17.6,17.7,37.6,33.2,59.5,45.4c29.2,16.3,62,25.9,95.4,27.2c24.7,1.3,50.1,0.1,73.5-8.3
			C1324.8,3267.5,1356.4,3223.7,1368.2,3175.1L1368.2,3175.1z"/>
	</g>
	<g>
		<path d="M758.4,2540.8c-20.5-18.3-37-41.2-48.5-66.1c-17.3-37.6-21.9-80.8-12.6-121.2c9-40.1,27.3-78,52.6-110.3
			c0,0,1.2-1.4,1.2-1.4l1.3,1.4c18.9,19.5,34.5,42.4,45.1,67.6c21.9,51.3,21.4,107.9,1.5,159.8c-7.3,19-16.7,37.2-28.1,54
			C766.9,2530.1,763,2535.7,758.4,2540.8L758.4,2540.8z M758.4,2540.2c22.7-33,39.3-70.5,46-110c6.8-39.3,2.8-80.4-12.2-117.4
			c-10-24.6-24.5-47.5-42.3-67.5l2.5-0.1c-44.8,52.3-64.9,121.3-50.4,189.1c7.2,34.7,23.9,67.1,46.5,94.4
			C751.5,2532.3,755.4,2536.8,758.4,2540.2L758.4,2540.2z"/>
	</g>
	<g>
		<path d="M926.7,2959.6c-28.5,34.6-72.2,56.1-117.2,56.8c-4.9,0.2-10.6,0-15.5-0.5c-4.8-0.3-10.7-1.1-15.4-2
			c-54.1-10-102.9-42.2-135.4-86.3c0,0-0.7-1-0.7-1c24-20,48.8-39.2,74.8-56.7c19.7-12.9,42.5-20.5,65.6-24.6
			C864.1,2831.8,922.5,2876.7,926.7,2959.6L926.7,2959.6z M926.1,2959.4c-6.5-56.4-37.9-101.7-97.1-108.9c-36.1-4.1-78,4.7-108.8,24
			c-25.7,16.8-50.9,34.5-75.2,53.4c0,0,0.2-1.8,0.2-1.8c15.3,22.3,35.4,41.4,58.5,55.5c17.3,10.6,36.4,17.8,56,23.1
			c32.3,8.7,67.1,9,98.9-2.2C884.2,2993.9,907.2,2978.5,926.1,2959.4L926.1,2959.4z"/>
	</g>
	<g>
		<path d="M659.4,2739.8c-17,7.5-52.1,19.7-93.5,11c-60.9-12.9-109.8-66.2-126.4-135.9c20.9-2.4,50.2-2.7,82.9,6.9
			C609,2647.2,650.1,2721.8,659.4,2739.8z"/>
		<path d="M659.6,2739.9c-22,10.9-46.7,16.5-71.2,15.7c-37.8-1.2-72-18.1-98-45.2c-25.4-26.4-43.2-59.7-52.4-95.1
			c0,0-0.4-1.7-0.4-1.7l1.8-0.2c19.7-2.6,39.7-2.4,59.3,0.6c36.6,5.6,71.3,21.7,99.4,45.7C624,2681.7,645.2,2709.2,659.6,2739.9
			L659.6,2739.9z M659.2,2739.8c-36-63.3-95.7-113-169.5-122.4c-16.5-2.2-33.3-2.4-50-0.9c0,0,1.4-1.9,1.4-1.9
			c3.9,17.6,9.9,35,18.5,50.9c22.3,42.6,63.8,75.3,111.3,84.1C600.4,2755.2,631.2,2750.5,659.2,2739.8L659.2,2739.8z"/>
	</g>
	<g>
		<path d="M589.4,2521.5c-74.3-17.6-142-63.9-182.5-129c-30.3-48.8-43.8-106.4-45.5-163.3c-1.2-41.5,2.7-83.3,13.4-123.5
			c53.7,31.4,100.7,74.3,136.7,125.1c31,43.9,53.4,93.9,66,146.1C588.9,2424,593.3,2473.1,589.4,2521.5L589.4,2521.5z M589,2521
			c3.6-144.8-51.9-282.6-164.9-375.4c-15.6-12.9-32.1-24.7-49.2-35.5c0,0,2.7-1.1,2.7-1.1c-1.6,5.1-2.9,10.3-4.2,15.6
			c-11.3,48.6-14,99.5-6,148.8C388,2395.9,471.1,2484.9,589,2521L589,2521z"/>
	</g>
	<g>
		<path d="M375.9,2108.5c65.8,194,171.7,374.4,309.6,525.9c67.2,73.8,141.6,141.6,222.6,200c50.3,36,103.3,68.1,157.6,97.5
			c19.5,10.2,43.7,23.1,63.6,32.4c14.2,7.2,37,17.4,51.8,24c6.5,3.1,19.6,8.6,26.2,11.3c157.6,66.3,326.2,108.7,497.3,116.6
			c410.9,21.6,821.5-135.8,1113.8-425.1c67.7-66.5,129.1-140.7,182.8-218.9c69.7-102.4,126.8-213.5,169.3-329.9
			c-44.1,126.1-105.5,246.4-182.1,355.8c-282.8,407.9-767.2,647.8-1262.8,628.9c-179.5-5.8-356.9-48.8-521.8-119.1
			c-6.4-2.6-20-8.5-26.3-11.4c-14.5-6.5-37.8-17.1-52-24.3c-20-9.4-44.2-22.5-63.8-32.7c-54.6-29.8-107.7-62.3-158.1-98.8
			c-81.1-59.1-155.6-127.5-222.5-202.2C543.8,2485.7,439.2,2303.8,375.9,2108.5L375.9,2108.5z"/>
	</g>
	<path class="st6" d="M2432.4,2970.1c54.7-26.9,127.1-66.8,206.4-123.4c163.2-116.6,268.4-242.3,325.7-319.2
		c107.6-144.6,169.7-283.4,205.9-385.3"/>
	<g>
		<path d="M326.6,1319.4c13.9-81.6,15.6-165.6,3.4-247.5c-22.1-111.6-6.2-209.5,40.3-312.7c-45.5,103.4-60.5,201.1-37.5,312.2
			c12.9,82.3,12,166.6-1.3,248.8C331.5,1320.2,326.6,1319.4,326.6,1319.4L326.6,1319.4z"/>
	</g>
	<g>
		<path d="M351,1225.9c58.7-123.3,164.6-209.5,295-247.9c57.5-17.2,117.7-25.3,177.6-24.8c-58.4,0-116.9,8.4-172.9,25
			c-81.7,24.3-157.7,68.6-215.7,131.4c-32.5,35-59.2,75.3-79.5,118.5C355.5,1228.1,351,1225.9,351,1225.9L351,1225.9z"/>
	</g>
	<g>
		<path d="M521.9,851.7c33.6-157.8,101.5-308.1,197.1-438c-23.5,32.7-45.3,66.7-65.3,101.6C623.9,567.6,598,622.6,576.8,679
			c-21.2,56.4-37.9,114.6-50,173.7C526.8,852.7,521.9,851.7,521.9,851.7L521.9,851.7z"/>
	</g>
	<g>
		<path d="M731,595c37.7-22.6,81.5-32.2,125.1-33.5c72.4-2.4,144.9,2.8,216.9,9.6c-72.1-6.2-144.5-10.7-216.8-7.7
			c-28.8,1.4-57.7,5.5-84.8,15.5c-13.5,5-26.5,11.3-38.9,18.6L731,595L731,595z"/>
	</g>
	<g>
		<path d="M335.3,1101.5c-31-35.2-49.2-81.8-49.2-128.8c0.2-31.3,7.5-62.1,16.9-91.8c3.6-11,7.9-22.1,12.6-32.7
			c14.5-33.3,33.6-64.6,56.1-93.2c-0.4,31.9,2.6,63.9,9,95.2c3,15,6.9,29.6,12.1,44c2.6,7.3,5.1,14.7,6.8,22.3
			C414.7,987.2,400.4,1061.4,335.3,1101.5L335.3,1101.5z M335.4,1101c58.4-41.5,72.2-104.3,61.2-172.1c-1.6-11.3-5-22.1-8.7-32.9
			c-14.9-43.8-20.4-90.7-19-136.9c0,0,2.5,0.9,2.5,0.9c-3.5,4.2-7.4,9.3-10.8,13.7c-16.3,21.6-30.2,45.1-41.1,69.9
			c-14.7,33.6-23.1,69.8-27.5,106.1C285.3,1004.1,302.3,1057.8,335.4,1101L335.4,1101z"/>
	</g>
	<g>
		<path d="M488.7,1058.5c27.2,32.9,66,48.2,107.7,36.3c15.7-4.2,30.2-11.5,44.4-19.1c7.1-3.9,14-8,20.6-12.6
			c13.3-9.4,24.6-21,36.1-32.5c34.8-34.7,77.4-61.3,123.4-78.6c0,0,0,2.4,0,2.4c-17.5-6.7-35.7-11.9-53.9-16.1
			c-30.5-6.7-61.8-9.7-93.1-8.4c-33.1,0.9-67,2.5-97.8,15.3C528.1,964.6,498.8,1008.9,488.7,1058.5L488.7,1058.5z M488.2,1058.6
			c7.7-51.4,37.3-97.2,86-117.9c31.3-13.5,66.1-15.4,99.6-16c51.7-1.8,103.8,8.4,151.3,28.5c-47.4,15.7-91.4,42.7-125.5,79.3
			c-11.3,11.9-22.4,24.1-35.7,33.9c-12.5,9.1-26.3,16.3-40.2,22.9c-16,7.3-33.2,12.6-50.8,13.2
			C538.7,1103.8,507.9,1085.8,488.2,1058.6L488.2,1058.6z"/>
	</g>
	<g>
		<path d="M570.6,691c-26.2-29-40.5-70.5-27.9-108.8c12.2-37.7,42.9-64.9,70.1-92.1c33.4-32.2,71.4-59.9,112.5-81.6
			c0,0,6.1-3.2,6.1-3.2l-4,5.6c-24.2,33.9-42.2,72.4-50.3,113.3c-4.5,20.5-5.1,41.6-9,62.2c-2.1,10.5-5.7,20.7-10.5,30.3
			C639.9,652,606.1,676,570.6,691L570.6,691z M570.7,690.5c33.8-17,66.1-40.7,82.8-75.6c7.6-15.6,10.7-32.6,12.3-49.8
			c4-56.2,24.3-111.3,58.8-156c0,0,2.1,2.4,2.1,2.4c-27.7,13.5-54.1,29.8-78.1,49.2c-24.1,19.3-45.1,42.1-65.6,65.1
			c-14.8,17.3-29.1,35.9-36.3,57.7C534.2,621.5,547.2,659.8,570.7,690.5L570.7,690.5z"/>
	</g>
	<g>
		<path d="M879.2,558.7c11.8,10.8,34.5,28.3,67.5,36.3c64.1,15.6,116.2-17.1,126.4-23.9c-6.2-8.9-30.2-40.9-74.1-50.8
			C932.2,505.3,882.1,555.6,879.2,558.7z"/>
		<path d="M879.4,558.7c15.2,12.1,32,22.3,50.3,29c38.6,13.8,82.7,12.9,120-4.7c7.9-3.6,15.5-7.9,22.6-12.9c0,0-0.3,1.7-0.3,1.7
			c-21.7-29.3-55.9-49.9-92.6-51.5C942.6,518.3,906.8,534.9,879.4,558.7L879.4,558.7z M878.9,558.7c0.6-0.9,1.7-1.9,2.5-2.7
			c10.7-10.8,23.2-19.8,36.7-26.8c36.7-19.3,79.8-19.2,115.5,2.5c16.3,9.6,30,23.2,40.5,38.8c0,0,0.7,1.1,0.7,1.1l-1.1,0.6
			c-33.4,20.1-74.2,33.1-113.4,27.7C929.7,595.5,900.5,580.9,878.9,558.7L878.9,558.7z"/>
	</g>
	<path class="st0" d="M508.8,877.1c31.3-34.2,72.8-73.7,126-111.9c43.5-31.2,85.1-54.6,121.3-72.1"/>
	<path class="st0" d="M493.7,902.4c19.7-30,73.6-102.9,172.1-137.7c43.5-15.4,82.9-18.9,111.9-18.7"/>
	<path class="st0" d="M461.1,961.1c13.5-21.8,35.6-64.2,39.2-121.4c2.1-33-2.7-60.8-7.8-80.6"/>
	<path class="st5" d="M739,589.2c22.6-18.4,59.7-53.9,84.8-110.2c14.2-32,20.4-61.4,23.2-83.7"/>
	<path class="st7" d="M893.7,458.3c19.3-10.3,66.8-32.2,128-25.1c33.1,3.8,59,14.9,75.9,23.8"/>
	<path class="st7" d="M966.3,408.2c13.6-8.3,44.5-29.9,63.3-70.6c11.7-25.4,14.3-48.7,14.7-63.3"/>
	<path class="st7" d="M1009.7,381.1c11.8-8.5,45.1-30,92.3-30.2c36.4-0.2,63.7,12.5,76.7,19.6"/>
	<g>
		<path d="M308.1,1402.6c46.2-274.8,172.7-534.9,359.4-741.6c140.5-155.4,314.2-280.4,505.8-364.8
			c-192.7,86.4-366.7,213.6-506.7,371.7C484,874.1,360.9,1132.2,316.9,1404.1C316.9,1404.1,308.1,1402.6,308.1,1402.6L308.1,1402.6z
			"/>
	</g>
	<g>
		<path d="M2088.5,203.7c65.8-45.3,145.4-70.6,225.4-69.4c79.7,1,158.4,26.9,225.1,70.1c-67-42.3-145.6-67.3-225.1-67.6
			c-59.4-0.2-118.6,14.1-171.7,40.7c-17.7,8.9-34.7,19-50.9,30.3L2088.5,203.7L2088.5,203.7z"/>
	</g>
	<g>
		<path d="M1977.1,182.8c36.8,10.6,72,28.6,99.8,55.4c30.7,28.3,42.8,60.5,58.6,97.5c31.6,72.4,98.9,114.9,170.8,140.7
			c-62.4-21.6-124.1-56.8-159.5-114.4c-15.3-24.2-23.8-52.1-37.6-76.9c-18.5-33-47.6-59.3-80.9-76.9c-16.7-8.8-34.4-15.6-52.6-20.6
			L1977.1,182.8L1977.1,182.8z"/>
	</g>
	<g>
		<path d="M2245.4,246.6c54.5,31.8,104.7,71.1,148.4,116.7c5.5,5.7,12,13.2,17.4,19c3.9,4.1,13,15.2,16.7,19.6c0,0,5.5,6.6,5.5,6.6
			l5.2,6.8c2,2.6,11.4,14.7,13,17.1c53,73,91.3,156.5,113.2,243.9c-22.7-87.1-61.6-170.1-115.2-242.5c-4.6-6.3-13.6-17.5-18.4-23.7
			c-6.4-7.4-15.7-18.9-22.4-25.9c-5.4-5.8-12-13.1-17.5-18.8c-9.8-10-20.4-20.3-30.9-29.6c-36-32.5-75.6-61-117.6-85
			C2242.9,250.9,2245.4,246.6,2245.4,246.6L2245.4,246.6z"/>
	</g>
	<g>
		<path d="M2572.4,404.3c173,104,375.9,156.9,577.7,151.1c-176.9,6.5-355-31.9-513.5-110.7c-22.7-11.2-44.9-23.3-66.8-36.1
			L2572.4,404.3L2572.4,404.3z"/>
	</g>
	<g>
		<path d="M2648.8,457.2c108.6,119.8,149,284.3,113.1,441.4c-4.9,22-11.1,43.7-18.7,64.8c7.4-21.2,13.4-43,18.1-65
			c23.7-109.7,11.4-227.6-40-327.8c-20.2-40-46.1-77.1-76.3-110.2L2648.8,457.2L2648.8,457.2z"/>
	</g>
	<g>
		<path d="M2869,658.8c46,81.2,79.8,169.4,99,260.8c25.1,117.2,26.2,239.6,4.6,357.4c21.1-117.8,19.4-240.1-6.2-357.1
			c-11.1-52-27.3-103-47.4-152.2c-15.2-36.9-32.8-72.8-52.6-107.4C2866.4,660.3,2869,658.8,2869,658.8L2869,658.8z"/>
	</g>
	<g>
		<path d="M2238.2,142.5c45.9-38.9,111.1-55.8,169.4-38.9c22.8,6.4,44.2,17.4,63.5,31c14.9,10.4,28.7,22.3,41.3,35.3
			c11,11.3,21.1,23.3,29.8,36.5c-47.4-7.2-95.6-8.1-143.2-2.6c-22.2,2.4-46.2,6.3-68.2,1.6C2292.9,198,2261.2,172.6,2238.2,142.5
			L2238.2,142.5z M2238.7,142.6c6.6,7.1,13.8,14.9,21.1,21.2c2.7,2.5,6.7,5.8,9.6,8c17.5,13.7,37.9,24.3,59.9,28.6
			c16.2,3.5,32.7,2.3,49.2,0.4c53.2-7.3,107.8-7.6,160.8,2c0,0-1.6,2.4-1.6,2.4c-3.8-6-8-11.9-12.5-17.5
			c-13.4-17-28.8-32.4-46.1-45.4c-28.6-21.7-63-36-98.8-39.6C2329.4,96.9,2279.9,113.1,2238.7,142.6L2238.7,142.6z"/>
	</g>
	<g>
		<path d="M2121.9,307.7c-21.5,67.2,2.4,132.9,69.2,160.9c18.1,7.3,37.4,12.5,56.9,13.4c19.5,1,39.2-1.7,57.8-7.4
			c0,0-1.2,2.5-1.2,2.5c-16.6-42.5-43.6-80.8-77.8-110.9C2196.5,339.4,2160.3,319.8,2121.9,307.7L2121.9,307.7z M2121.7,307.2
			c63.9,14.9,121.2,55.3,157,110.1c12.1,18.2,21.9,37.8,29.4,58.3c0,0,0.7,1.9,0.7,1.9l-1.9,0.5c-31.9,8.7-66.1,7.9-97.8-1.5
			c-22.3-6.1-44.1-15.8-61.4-31.3c-17.4-15.7-29.5-37.1-34.2-60C2108.2,359.4,2111.4,331.4,2121.7,307.2L2121.7,307.2z"/>
	</g>
	<g>
		<path d="M2462.8,456.1c-10.6,22.5-17.9,47.8-12.4,72.7c4,19.9,16.9,33.9,30.7,48.2c31.5,32.5,59.8,67.9,86.1,104.8
			c0,0-2.2,0.2-2.2,0.2c2.5-5.3,4.6-10.8,6.5-16.4C2602.6,571.9,2551.5,490.1,2462.8,456.1L2462.8,456.1z M2462.6,455.7
			c1.3,0.2,3.2,0.9,4.4,1.2c21.3,6.9,41.2,17.7,58.8,31.5c55.1,42.5,73.4,113.6,48.6,178.2c-2.4,6.3-5.2,12.4-8.2,18.4
			c0,0-1.2-1.8-1.2-1.8c-21.4-33.2-46.7-63.7-75-91.3c-15.9-16-34.5-31.5-41.5-53.9C2439.7,510.3,2448.1,480,2462.6,455.7
			L2462.6,455.7z"/>
	</g>
	<g>
		<path d="M2760.9,674.3c-51.8,63.9-70.3,148.3-45.9,227.4c6.8,21.6,16.6,42.3,29.2,61.1c0,0-1.6-0.4-1.6-0.4
			c40.3-27.2,71-70.3,79.7-118.5c6.3-34.3,2-70.3-12.4-102.1C2798.4,716.3,2781.5,693.2,2760.9,674.3L2760.9,674.3z M2760.8,673.8
			c33.3,26.2,57.8,65.4,66.4,107c5.7,28.1,3.9,57.7-5,85c-13.3,40.8-42.1,76-78.3,98.7c0,0-1,0.6-1,0.6l-0.6-1
			c-29.7-48.5-46.9-106.2-40.5-163.3C2707.4,753.6,2728.3,708.4,2760.8,673.8L2760.8,673.8z"/>
	</g>
	<g>
		<path d="M2803.9,509.3c4.1,3.5,9.1,8,13.3,11.5c9.1,7.5,18.7,14.6,28.6,21.1c19.7,13,41,23.6,63.3,31.5
			c81.2,28.5,170.6,19.7,246.2-20.9c0,0-0.2,2.4-0.2,2.4c-12.2-9.6-25.1-18.3-38.4-26.2c-6.4-3.8-13.7-7.8-20.4-11.1
			C3004.1,470.8,2898.9,470.5,2803.9,509.3L2803.9,509.3z M2803.4,509.2c116.5-56.4,256.4-39.2,355.1,44.9
			c-45,22.5-94.7,36-145,38.9c-29.9,1.5-60-1.6-88.8-10C2878.7,569.7,2836.3,543.9,2803.4,509.2L2803.4,509.2z"/>
	</g>
	<g>
		<path d="M3126.5,1072.5c-20.2,28.4-34.6,60.7-31.9,96.3c1.2,17.2,7.2,33.6,15.7,48.5c8.5,15,18.9,29,28.8,43.4
			c20.1,28.5,38.6,58.3,54.4,89.5c9.9,19.3,19.3,39.4,27.4,59.4c5,12.1,9.7,24.4,14.1,36.7c0,0-2.2-0.3-2.2-0.3
			c19.6-30.9,33-65.6,38.7-101.5C3290.5,1231.1,3221.3,1128.6,3126.5,1072.5L3126.5,1072.5z M3126.4,1072c8.3,4,16.2,9,24,14
			c30.8,20.3,58.4,45.6,80.4,75.3c52.3,69.5,62.9,156.8,30.2,237.1c-7.3,17.9-16.6,34.9-27.4,50.9c0,0-0.8-2.4-0.8-2.4
			c-16.3-49.6-38.6-97.4-67.3-141.1c-11.7-18.1-24.8-35.9-37.4-53.5c-12.6-17.9-25.5-36.2-32.3-57.3
			C3081.5,1152,3098.4,1105.7,3126.4,1072L3126.4,1072z"/>
	</g>
	<g>
		<path d="M2412.6,314.7c71,25.4,147.2,36.1,222.5,31.2c-75.5,6.5-152.2-2.6-224.1-26.5C2411,319.5,2412.6,314.7,2412.6,314.7
			L2412.6,314.7z"/>
	</g>
	<path class="st8" d="M2541.5,345.1c15.6,13.3,44.3,34.1,85.3,43.3c81.7,18.5,147.3-23.1,160.9-32.2c-13.4-0.8-32.9-3.1-55.5-9.9
		c-37.4-11.2-51.6-25.2-72.1-31.9C2636.3,306.6,2599.2,307.2,2541.5,345.1z"/>
	<path class="st0" d="M2556.9,397.4c16.9,18.3,39,46.2,56.9,84.6c21.8,46.7,28.1,89,30,116.3"/>
	<path class="st5" d="M2842.6,632.2c67.5,75.8,122.3,93.1,161.2,93.6c24.4,0.3,50.4-5.9,92.4,1.7c38.1,6.9,67.8,21.3,87.4,32.7"/>
	<path class="st8" d="M2951.2,761c0,0,7,6.6,21.2,18.1c55.1,44.7,113.7,80.3,138.3,98c10.4,7.5,15.4,11.3,18.2,13.5
		c7.1,5.4,8.7,7,14.5,10.7c50.2,31.7,102,39.4,138.8,40.7c-22.7-41.9-48.4-59.2-67.3-67.4c-36.3-15.7-51,1.1-104.1-15.1
		c-34.3-10.4-58.9-24.5-83.6-39.8C2981.8,791.7,2951.3,760.9,2951.2,761z"/>
	<path class="st5" d="M3058,930.3c25.6,24.1,62.7,54.2,112.6,80.1c41.3,21.5,79.5,34,109.9,41.6"/>
	<g>
		<path d="M2959,902.3c-12.9,11.5-35.2,34.7-49.3,70.8c-5.9,15-16.9,49-11.3,90.5c6.9,51.5,32.7,65.2,55.3,127.9
			c12.6,35.1,17.1,65.6,19,85.4c17.8-21.7,56.2-74.7,63.7-151.9C3048.2,1002.3,2972.1,916.7,2959,902.3z"/>
		<path d="M2959,902.6c-12.1,11.7-23,24.7-31.8,39.1c-26.4,42.7-35.7,96.6-21.6,145.1c4.8,16.2,13.1,30.9,21.4,45.6
			c25.6,44.2,41.7,93.7,47,144.5c0,0-2.4-0.7-2.4-0.7c14.6-18.3,26.9-38.2,36.8-59.4C3058.9,1110.1,3034.2,990.7,2959,902.6
			L2959,902.6z M2959,902.1c23.9,24.7,42.7,54,56.9,85.3c40.3,88.9,29.7,190.4-26.5,270.1c-5.5,8-11.6,15.6-17.8,22.9
			c0,0-0.3-3.3-0.3-3.3c-3.7-46.3-17-92.2-40.3-132.4c-11.7-20.2-25.2-40-31.2-62.9C2883.2,1017.1,2907.8,944.6,2959,902.1
			L2959,902.1z"/>
	</g>
	<path class="st0" d="M2222.7,241.7c31.8,12.8,83.7,29,149.1,29c48.6,0,88.8-8.9,117.2-17.7"/>
	<g>
		<path d="M2178.6,225.7c55.6,29.6,102.1,75.7,132.1,131.1c-23.4-40.6-55.8-76-94.3-102.8c-12.8-8.9-26.2-16.9-40.1-23.9
			L2178.6,225.7L2178.6,225.7z"/>
	</g>
	<g>
		<path d="M1937.6,175.6c186.8,21.6,369.7,79.1,534.9,169c149.2,81.8,285.1,188.3,398.4,315.4c85.8,96.9,158.6,205.5,216.1,321.4
			c72.3,145.4,122,301.8,148.9,461.9c-27.6-159.9-78-316-150.9-460.9C3027.1,867.1,2954,759,2867.9,662.8
			c-113.5-126.1-249.4-231.7-398.4-312.5c-48.3-26.2-100.2-50.1-151.3-70.4c-84.6-33.7-172.3-59.6-261.7-77
			c-39.7-7.7-79.7-13.8-119.9-18.3L1937.6,175.6L1937.6,175.6z"/>
	</g>
</g>
</svg>
