<?xml version="1.0" encoding="utf-8"?>
<!-- Generator: Adobe Illustrator 26.0.0, SVG Export Plug-In . SVG Version: 6.00 Build 0)  -->
<svg version="1.1" id="Layer_1" xmlns="http://www.w3.org/2000/svg" xmlns:xlink="http://www.w3.org/1999/xlink" x="0px" y="0px"
	 viewBox="0 0 3600 3600" style="enable-background:new 0 0 3600 3600;" xml:space="preserve">
<style type="text/css">
	.st0{fill:none;stroke:FRAME_COLOR;stroke-width:9;stroke-miterlimit:10;}
	.st1{fill:none;stroke:FRAME_COLOR;stroke-width:5;stroke-miterlimit:10;}
	.st2{fill:none;stroke:FRAME_COLOR;stroke-width:4;stroke-miterlimit:10;}
	.st3{fill:none;stroke:FRAME_COLOR;stroke-width:6;stroke-miterlimit:10;}
	.st4{fill:none;stroke:FRAME_COLOR;stroke-width:8;stroke-miterlimit:10;}
</style>
<g>
	<circle class="st0" cx="1803.8" cy="1798.6" r="1482.4"/>
	<path d="M1886.4,320.9c-79.9-18.1-154.8-57.1-215.4-112.2c61.4,53.4,136.8,90.5,216.5,106.6
		C1887.6,315.4,1886.4,320.9,1886.4,320.9L1886.4,320.9z"/>
	<path d="M1901.7,322.6c-50.9-14.9-96.9-45.6-130.1-86.9c-11-13.7-20.6-28.5-28.7-44c12.8,22.9,28.9,43.9,48,62
		c18.9,18,40.5,33.1,64,44.6c15.6,7.7,31.9,13.8,48.6,18.1L1901.7,322.6L1901.7,322.6z"/>
	<path d="M1999.8,332.2c-77.4-30.4-145.1-84.3-192.1-152.8c48.5,66.7,116.9,118.6,194.4,146.7
		C2002.1,326.2,1999.8,332.2,1999.8,332.2L1999.8,332.2z"/>
	<path d="M1874.1,321.1c-34.7,0.8-69.3,9.6-99.8,26.3c-23.8,13.2-44.9,31.1-61.7,52.6c13.8-18.9,31-35.5,50.4-48.7
		c22.8-15.5,48.7-26.2,75.7-32c11.6-2.4,23.4-4,35.2-4.7C1873.8,314.6,1874.1,321.1,1874.1,321.1L1874.1,321.1z"/>
	<path class="st1" d="M2071.5,340.3c-27.3,3.9-63,11.9-102,29.3c-25,11.2-45.9,23.7-62.7,35.4"/>
	<circle cx="1902.6" cy="405" r="19.3"/>
	<circle cx="1953" cy="453.2" r="19.3"/>
	<circle cx="1240.3" cy="273.2" r="24.1"/>
	<circle cx="552.7" cy="669.5" r="24.1"/>
	<circle cx="1119.7" cy="331.5" r="21.9"/>
	<circle cx="1175.9" cy="608.4" r="20.6"/>
	<circle cx="1256.8" cy="513.3" r="20.6"/>
	<circle cx="2322.3" cy="537.1" r="23.8"/>
	<circle cx="3373" cy="1441.6" r="23.8"/>
	<circle cx="3198" cy="1890" r="23.8"/>
	<circle cx="3313.4" cy="2203.1" r="23.8"/>
	<circle cx="3026.9" cy="2779.1" r="18.5"/>
	<circle cx="2798.9" cy="3030.5" r="18.5"/>
	<circle cx="2255.9" cy="3364" r="18.5"/>
	<circle cx="2434.8" cy="3061" r="14.3"/>
	<circle cx="2226.4" cy="3108.6" r="18.5"/>
	<circle cx="1325" cy="3097.7" r="23.2"/>
	<circle cx="1250.2" cy="3046.3" r="23.2"/>
	<circle cx="852.1" cy="3051.9" r="23.2"/>
	<circle cx="658.5" cy="2414.2" r="23.2"/>
	<circle cx="473.7" cy="1990.8" r="25.8"/>
	<circle cx="450" cy="1859.4" r="25.8"/>
	<circle cx="233.7" cy="1521" r="25.8"/>
	<circle cx="540" cy="1287.7" r="20.5"/>
	<circle cx="303.1" cy="1296.4" r="20.5"/>
	<circle cx="336.5" cy="1192.2" r="20.5"/>
	<circle cx="515.9" cy="2278.4" r="33.4"/>
	<circle cx="806.6" cy="3014.2" r="23.2"/>
	<circle cx="673.6" cy="2839.8" r="23.2"/>
	<circle cx="521.1" cy="2871.4" r="23.2"/>
	<circle cx="596" cy="2851.6" r="19.8"/>
	<circle cx="1725.7" cy="3396.9" r="18.5"/>
	<circle cx="2849.8" cy="2724.4" r="18.5"/>
	<circle cx="2660.1" cy="677.1" r="16.5"/>
	<circle cx="2823" cy="549.9" r="16.5"/>
	<circle cx="2892.1" cy="602.3" r="16.5"/>
	<circle cx="2917.9" cy="975.2" r="16.5"/>
	<circle cx="2965.9" cy="1073.2" r="16.5"/>
	<circle cx="3127.4" cy="1009.4" r="16.5"/>
	<circle cx="3277.4" cy="924.5" r="16.5"/>
	<circle cx="2015.6" cy="224.1" r="19.3"/>
	<path class="st1" d="M2102.3,346.3c-13.2-0.2-51.6,1-89.5,27.4c-38,26.4-52.5,61.9-56.9,74.4"/>
	<path class="st1" d="M2132.6,352.8c-21.2-12.5-50.4-33.2-77.7-65.6c-18.2-21.6-30.8-42.8-39.5-60.2"/>
	<path d="M2250.3,388c-27-4.6-54.7-4.7-81.7,0c-27.1,4.7-53.4,14.3-77.2,28.2c19-12,39.7-21.5,61.4-27.6
		c25.1-7.2,51.5-10.1,77.6-8.9c7,0.3,14,1,20.9,1.9L2250.3,388L2250.3,388z"/>
	<path d="M2226.5,380.8c-32.4-26.1-58.9-59.4-76.9-96.8c-17.9-37.2-27.5-78.5-27.8-119.7c0.8,20.6,3.7,41.1,8.9,60.9
		c10.3,39.6,29.4,77,55.8,108.3c13.1,15.6,28,29.8,44.1,42.2L2226.5,380.8L2226.5,380.8z"/>
	<path d="M2339.1,418.7c-40.4-34.9-74.1-77.6-98.5-124.9c26,46.3,60.8,87.4,102.1,120.6C2342.7,414.3,2339.1,418.7,2339.1,418.7
		L2339.1,418.7z"/>
	<path d="M2474.9,479.7c-72.9-34.5-157.6-29.9-227.1,10.9c-24.8,14.3-47.7,32.1-67.4,53c19.4-21.2,42-39.5,66.7-54.3
		c69.7-42.5,155.6-48.5,230.2-14.7C2477.3,474.6,2474.9,479.7,2474.9,479.7L2474.9,479.7z"/>
	<path d="M2455.9,469.5c-19.9-18.9-37.4-40-52.5-62.9c-6.5-9.7-12.9-19.6-18-30.2c-10.2-21.1-14.9-44.7-14.4-68.1
		c0.1,23.3,5.3,46.6,16,67.3c5.3,10.3,11.8,20,18.6,29.4c6.7,9.5,13.7,18.8,21.3,27.6c10,11.8,20.8,22.9,32.3,33.3L2455.9,469.5
		L2455.9,469.5z"/>
	<path class="st1" d="M2580.3,535.6c-25.6-10.5-67.1-24-119.6-25.3c-58.8-1.5-105.2,12.7-132,23.3"/>
	<path d="M2666.2,596.6c-24-11.5-49.6-19.8-75.9-24.3c-17.5-3.2-35.3-5-53.2-4.2c-26.8,1.1-53.3,7.3-78,18
		c16.2-7.6,33.4-13.3,51.1-16.8c35.5-7.3,72.3-4,107.4,4.1c17.6,4.2,34.8,10,51.4,17.4L2666.2,596.6L2666.2,596.6z"/>
	<path d="M2667.1,596.8c-48.1-49.8-77.5-114.7-90.9-182.1c-2-9.6-3.6-19.2-4.9-28.9c1.5,9.7,3.4,19.3,5.6,28.8
		c10.9,47.4,28.9,93.7,56.9,133.7c11.1,16,23.6,30.9,37.3,44.6L2667.1,596.8L2667.1,596.8z"/>
	<path d="M2720.6,637.6c-39.2-54-59.2-121.4-55.6-188c-0.3,16.6,0.8,33.1,3.3,49.5c3.7,24.5,10.5,48.4,20.2,71.2
		c9.7,22.6,22.3,44.1,37.3,63.5C2725.7,633.7,2720.6,637.6,2720.6,637.6L2720.6,637.6z"/>
	<path class="st2" d="M2815.8,715.4c-17.3-7.1-36.6-14-57.8-20.1c-33.8-9.7-65-15.2-92.1-18.2"/>
	<path class="st2" d="M2839.5,738c-8.8-19.2-18.8-46.6-23.4-80.6c-6-44.7-0.1-81.8,5.6-105.2"/>
	<path class="st2" d="M2872.3,771.1c-8.2-13.7-19.7-37.4-21.7-68.7c-1.1-16.3-2.8-42.9,13.2-69.3c9.1-15,20.6-24.5,28.3-29.8"/>
	<path d="M2944.9,852.8c-40.6-43.3-84.1-64.4-140.9-79c-14.8-4.2-30-5.7-44.7-10.5c-14.7-4.9-28.7-12-41.4-20.9
		c-10.1-7.1-19.5-15.2-27.9-24.1c0,0,0.4-0.5,0.4-0.5c9.6,7.5,19.4,14.6,29.9,20.8c15.5,9.2,32.2,16.4,49.6,20.8
		c11.7,2.7,24,5.3,35.6,8.9c35.2,10.4,70.3,23.8,99.7,46.4c14.7,11.1,28.1,23.8,40.1,37.7C2945.4,852.4,2944.9,852.8,2944.9,852.8
		L2944.9,852.8z"/>
	<path d="M2987.5,906.6c-17.5-37.3-29.3-77.2-35.5-117.9c-3.9-22.6-5-45.7-3.1-68.7c0.7-9.2,1.8-18.3,3.6-27.3l0.7,0.1l0.8,27.3
		c1.7,36.1,3.2,72.5,10.8,107.9c3.6,17.8,8.3,35.4,14,52.6c2.9,8.6,6,17.2,9.4,25.7L2987.5,906.6L2987.5,906.6z"/>
	<path d="M3042.9,989.8c-25.3-48.8-39.1-103.5-39.5-158.5c-0.5-54.8,12-109.4,34.7-159.2c-21.8,50-33.3,104.6-31.9,159.1
		c0.3,13.6,1.5,27.2,3.4,40.6c5.8,40.3,18.9,79.5,38.2,115.3C3048,987.1,3042.9,989.8,3042.9,989.8L3042.9,989.8z"/>
	<path d="M3062.7,1016.1c-11.4-27.8-16.3-58.5-14.1-88.5c0.2-2.7,0.7-8,1-10.7c1.7-16,6.4-31.6,13.5-46.1
		c3.1-6.4,6.7-12.6,10.8-18.4l0.6,0.3l-3.7,9.9c-6.1,16.3-10.6,33-14.1,50c-4.3,20.3-4.9,41.6-2.4,62.2c1.6,13.9,4.8,27.6,9.1,40.9
		C3063.3,1015.8,3062.7,1016.1,3062.7,1016.1L3062.7,1016.1z"/>
	<path class="st1" d="M3127.3,1125.9c-11.1-22-34.4-61-78.4-94.7c-50.3-38.5-101-49.8-125.9-53.6"/>
	<path class="st1" d="M3157.5,1193.5c-16.8-20.4-42.6-47.1-79.3-71.3c-43.3-28.6-84.4-42.2-112.3-49.1"/>
	<path class="st3" d="M3126.1,1123.6c-5-12.2-12.1-34.6-10.6-63c1.2-22.4,7.4-40.1,12.3-51.2"/>
	<path class="st1" d="M3162.3,1204.5c-7.9-21.5-13.7-47.5-12.8-76.7c3.6-120.8,118.7-194.1,133.7-203.3"/>
	<path d="M3216.1,1357.5c-9.2-59.2,9.9-121.6,50.9-165.2c13.4-14.5,28.6-27.3,45.3-37.7c-16.4,10.9-31.2,24-44.1,38.8
		c-39,43.9-56.3,105.4-45.7,163.1C3222.5,1356.5,3216.1,1357.5,3216.1,1357.5L3216.1,1357.5z"/>
	<path d="M3230.6,1406.9c-27.9-29.1-57.4-56.6-88-83c-15.4-13.2-29.9-27.9-40.4-45.3c-5.3-8.6-9.9-17.7-13.7-27.1
		c-3.8-9.4-6.8-19.1-9.1-28.9c2.6,9.8,5.9,19.3,10,28.5c8.1,18.3,19.2,35.5,33.2,49.9c7,7.2,14.7,13.7,22.4,20.1
		c15.6,12.8,31.2,25.7,46.3,39.2c15.1,13.4,30,27.3,44.4,41.4L3230.6,1406.9L3230.6,1406.9z"/>
	<path d="M3255.8,1500.5c-2.9-80.1-63.1-124.1-135.8-141.3c-12.7-3.2-25.9-6.1-37.7-12.3c-17.9-9.3-30.9-27-36.6-45.9
		c0,0,0.7-0.3,0.7-0.3c11.9,24.4,30,40.5,56.6,46.5c3.1,0.8,6.3,1.6,9.4,2.3c59.6,13.1,122.9,49.4,139.2,112.2
		c3.4,12.7,5,25.8,5,38.8C3256.6,1500.5,3255.8,1500.5,3255.8,1500.5L3255.8,1500.5z"/>
	<path d="M3237.3,1430.7c-7.2-79.6,15.8-157.9,64.1-221.5c21.4-28.4,47.1-53.6,75.7-74.8c-26.8,20.5-50.8,44.6-71.1,71.6
		c-30.9,41-52.4,89.1-60.7,139.8c-4.6,27.9-5.3,56.3-2.4,84.4L3237.3,1430.7L3237.3,1430.7z"/>
	<path class="st1" d="M3276.1,1624.6c3.9-20.7,10.5-45.4,21.9-71.9c22.1-51.5,52.7-87.6,75.1-109.8"/>
	<path d="M3246.3,1692c-18.3-23.4-39.2-44.9-62.1-63.8c-1.9-1.5-4.5-3.7-6.2-5.4c-3-2.8-5.6-6.2-7.9-9.6c-1.2-2.1-3.1-5-4.1-7.2
		c-18.9-37.6-18.6-98.7-17.4-140.6c-0.5,41.5,0.1,102.7,19.4,139.6c1,2.1,2.9,4.9,4.1,6.9c2.3,3.2,4.8,6.4,7.7,9.1
		c1.7,1.6,4.3,3.7,6.2,5.2c6.4,5.1,12.6,10.4,18.7,15.9c16.2,14.6,31.2,30.5,44.9,47.5L3246.3,1692L3246.3,1692z"/>
	<path d="M3283.4,1790.7c-8.3-39.1-25.9-76.5-52.3-106.7c-34.1-41-80.5-66.3-134.2-68.3c54.2,1,101.3,25.6,136.6,66.2
		c20.6,22.6,36.3,49.5,46.7,78.2c3.5,9.6,6.4,19.4,8.7,29.3L3283.4,1790.7L3283.4,1790.7z"/>
	<path d="M3284.6,1774.3c-15.5-51.5-44.9-99.4-86.7-133.7c-13.9-11.6-29.2-21.2-43.8-32c-29.2-21.8-52.6-50.6-70.5-82.2
		c-18-31.5-30.7-65.8-40.4-100.7c15.2,51.9,37.4,102.9,73,144c11.8,13.7,25.1,25.9,39.6,36.6c22.2,15.6,45.6,30.2,64.7,49.8
		c32.4,32.3,55.7,73,69.5,116.5C3290.1,1772.6,3284.6,1774.3,3284.6,1774.3L3284.6,1774.3z"/>
	<path d="M3284.3,1780.4c2.7-35.9,18.3-70.6,43.6-96.2c8.4-8.5,17.7-16,27.7-22.3c-19.6,13.3-36,31.1-47.5,51.7
		c-5.7,10.2-10.2,21.2-13.4,32.5c-3.2,11.3-5,22.9-5.5,34.6L3284.3,1780.4L3284.3,1780.4z"/>
	<path d="M3283.3,1809.5c-3-24.1-12.5-47.6-27.4-66.8c0,0-3.3-4.1-3.3-4.1l-3.5-3.9l-1.7-2l-1.9-1.9c-8.5-8.7-18.5-16.4-29-22.5
		c-12.2-7-25.4-12.3-39.2-15.4c27.8,5.4,54.2,19.3,73.9,39.7c8.7,8.9,16.3,19.3,22.2,30.2c7.7,14.2,13,29.8,15.5,45.8
		C3289,1808.7,3283.3,1809.5,3283.3,1809.5L3283.3,1809.5z"/>
	<path d="M3273.2,1993c11.7-35.3,27.7-69.1,47.2-100.7c2.6-4,7.3-11.3,9.9-15.3c2.7-3.8,7.7-11,10.5-14.9c3.6-4.7,7.4-9.8,11-14.5
		c12.8-16.2,26.8-32.2,41.6-46.6c25-23.9,53-45.1,83.2-62c0,0,0.4,0.5,0.4,0.5c-23.6,17.5-46.2,35.8-67.7,55.7
		c-5.7,5.4-12.9,12.2-18.5,17.8c-8.3,8.1-17,17.4-24.8,26c-5.2,6.1-11.6,13.5-16.5,19.8c-5,6.1-10.8,14.2-15.5,20.6
		c-1.9,2.8-6.8,9.9-8.7,12.8c-3.3,4.9-7.8,12.4-11,17.4c-16,26.5-29.5,54.5-40.3,83.6C3273.8,1993.2,3273.2,1993,3273.2,1993
		L3273.2,1993z"/>
	<path d="M3259.4,2063c14-58.1,54.4-109.1,108.2-135.2c3.5-1.7,7.1-3.4,10.8-4.9c-7.1,3.3-14.1,7-20.8,11.2
		c-26.8,16.3-49.6,39-66,65.7c-12.2,19.9-21.1,41.9-25.8,64.7C3265.7,2064.5,3259.4,2063,3259.4,2063L3259.4,2063z"/>
	<path class="st1" d="M3238.7,2172.4c7.1-41.4,12.2-105.8-6.2-180.2c-8.6-34.8-20.6-64.2-32.4-88"/>
	<path class="st4" d="M3189.8,2325.5c7.5-19.2,24-53.4,58.4-83.5c21.4-18.8,42.9-29.8,58.7-36.4"/>
	<path d="M3106.4,2495.6c23.6-52.5,32.9-111.2,25.3-168.4c-8.2-57.2-20.9-113.8-37.8-169.1c13.8,41.2,23.9,83.5,32.9,125.9
		c17.2,74.8,15.2,142.5-15.2,213.8C3111.6,2497.8,3106.4,2495.6,3106.4,2495.6L3106.4,2495.6z"/>
	<path d="M3091.9,2526.2c18.4-42.6,28.3-89.1,28.6-135.5c0.4-46.7-9-93.4-27.1-136.5c4.7,10.7,9,21.6,12.7,32.7
		c18.2,54.3,22.3,113.2,12.5,169.6c-4.4,24.7-11.2,48.9-20.7,72.2C3097.9,2528.7,3091.9,2526.2,3091.9,2526.2L3091.9,2526.2z"/>
	<path d="M3149.4,2413.7c7.9-32,10.4-65.1,9-98.1c-0.7-33.4,8.5-66.4,22.8-96.3c-13.2,30.2-21.3,63.1-19.5,96.2
		c0.4,8.2,1,16.6,1.1,24.9c0.5,25.1-2,50.1-7.1,74.7C3155.8,2415.1,3149.4,2413.7,3149.4,2413.7L3149.4,2413.7z"/>
	<path d="M3036.6,2626.8c12.3-32.3,31.8-61.9,56.7-85.9c12.5-12.1,26-23.4,41.3-31.8c15.2-8.4,31.6-14.9,48.6-18.3
		c0,0,0.3,0.8,0.3,0.8c-32.3,15.9-63.8,34-90.5,58.4c-10.7,10.1-20.8,21.4-29.6,33.3c-10.2,13.7-18.9,28.5-26.1,44
		C3037.3,2627.1,3036.6,2626.8,3036.6,2626.8L3036.6,2626.8z"/>
	<path d="M2931.9,2759.7c30.7-39.9,51.8-87.3,59-137.2c1.4-8.4,2.1-17.9,2.6-26.3c1-20.6,0.6-41.2-1.5-61.7c-1.6-14.8-4-29.4-7-43.9
		c0,0,0.8-0.2,0.8-0.2c4.6,11.1,8.1,22.6,10.8,34.4c5.3,23.6,7.2,48,4.9,72c-0.9,8.7-2.1,18.3-3.9,26.9
		c-4.8,26.6-13.6,52.6-25.5,76.8c-8,16.1-17.6,31.4-28.3,45.8c-3.6,4.8-7.4,9.4-11.2,14L2931.9,2759.7L2931.9,2759.7z"/>
	<path class="st3" d="M2861.2,2837.4c11-12.1,33.5-33.7,68.7-47.3c41.3-16,77.6-12.5,94.1-9.9"/>
	<path class="st3" d="M2781.2,2913.1c13.9-14.1,31.8-35.6,46.1-65.4c23.2-48.3,24.7-92.8,23.8-116.5"/>
	<path d="M2503.6,3102c46.9-30.2,89.9-68.5,118.2-117.1c14-23.3,22.2-49.4,34.9-73.4c23.4-44.5,57.6-83,97.7-113
		c-39.6,30.6-73,69.4-95.5,114.1c-12.3,24.2-20.1,50.6-33.8,74.1c-27.9,49.8-70.9,89.3-117.9,120.7
		C2507.2,3107.4,2503.6,3102,2503.6,3102L2503.6,3102z"/>
	<path class="st2" d="M2592.4,3054c20.7-10.9,56-26.3,102.4-31c43-4.3,78.2,2.2,100.1,8.1"/>
	<path d="M2481.1,3113.8c39.8-20.9,73.7-53.9,94.8-93.7c21.7-39.9,30.5-86.5,25.8-131.7c2.9,22.6,2.4,45.7-1.4,68.2
		c-3.9,22.5-11.1,44.7-21.5,65c-20.7,41.2-54.4,75.4-94.6,97.9C2484.2,3119.5,2481.1,3113.8,2481.1,3113.8L2481.1,3113.8z"/>
	<path d="M2207.8,3222.3c61.5-17.3,124.3-29.6,187.8-36.1c31.7-2.9,64.2-5.8,95.6,1c10.5,2.2,20.5,6,30.4,10.1
		c58.3,25.8,113.7,57.8,168.1,90.8c-54.7-32.4-110.4-63.8-168.9-88.8c-9.8-3.9-19.8-7.6-30.1-9.6c-31.2-6.4-63.3-3.1-94.7,0.1
		c-42.1,4.8-83.9,12.2-125.2,21.8c-20.6,4.9-41.1,10.3-61.4,16.2L2207.8,3222.3L2207.8,3222.3z"/>
	<path d="M2263.5,3205.3c82.9-27.9,173.8-38,260.1-21.7c19.1,4,38.4,6,57.8,6.9c19.4,0.9,38.9,1.1,58.2-1.6
		c28.9-4.1,56.5-15.8,80.5-32.4c-23.8,16.8-51.4,28.9-80.3,33.4c-29,4.1-58.5,2.9-87.6,0.4c-19.4-1.8-38.4-6.8-57.7-8.7
		c-19.3-2-38.7-2.6-58.1-2.2c-58.2,1-116.1,11.6-170.9,31.2C2265.4,3210.6,2263.5,3205.3,2263.5,3205.3L2263.5,3205.3z"/>
	<path d="M2286.5,3196.9c61.4-9.9,123.5-13.7,185.7-14.3c46.6-0.3,91.7-17.2,129.7-43.6c12.7-8.8,24.8-18.6,36.3-29
		c-11.3,10.6-23.2,20.6-35.8,29.7c-31.6,22.6-68.1,39.1-106.8,44.3c-23.2,2.9-46.5,2.4-69.8,3.8c-46.3,2.4-92.6,7.6-138.3,15.6
		L2286.5,3196.9L2286.5,3196.9z"/>
	<path d="M2251.5,3209.4c89.5-21.7,187.8-9.6,267.6,37c36,21.3,67.9,49.3,93.8,82c-23.7-29.1-52.2-54.3-84-74.1
		c-81.3-50.5-183.9-63.2-276-39.5C2252.9,3214.9,2251.5,3209.4,2251.5,3209.4L2251.5,3209.4z"/>
	<path class="st1" d="M2292.5,3201.3c26.4-13.8,62.8-36.9,97.5-74.5c21.5-23.3,37-46.4,48-65.8"/>
	<path class="st3" d="M2072.5,3256.6c22.8-5.7,95.3-27.1,134.7-95c9.7-16.6,15.6-33,19.2-47.5"/>
	<path class="st1" d="M2023.7,3264.7c19.9-3.7,75.9-11.4,137,17.3c50.2,23.5,78.3,59.6,90,76.9"/>
	<path class="st3" d="M1547.3,3258.8c11,1.8,27.3,5.4,45.9,13.1c42.3,17.5,69,45.3,93.1,70.8c10.6,11.2,24.7,27.4,39.5,48.6"/>
	<path d="M2098.7,3246.5c44-8.3,85.9-2.4,124,21.9c12.1,7.6,23.3,16.4,33.1,26.7c-17.9-17.1-39.5-29.9-62.7-38.3
		c-16.5-5.8-34-8.4-51.4-8.3c-13.9,0.1-27.8,2-41.4,5.1L2098.7,3246.5L2098.7,3246.5z"/>
	<path d="M1569.1,3259.6c101.8,5.2,204.3-10.5,300.4-44c74.7-26.9,141.8-73.5,194.5-132.8c-40.9,47.1-90.9,86.5-146.7,114.7
		c-35.5,18.1-73.5,30.6-112,40.8c-76.8,21.2-156.8,30.1-236.4,27.1C1568.9,3265.3,1569.1,3259.6,1569.1,3259.6L1569.1,3259.6z"/>
	<path d="M1674.7,3272.5c74.6,3.9,150-4.7,221.7-25.5c24-6.9,47.6-15.3,70.6-24.8c-68.7,30.1-142.6,48.6-217.4,54.4
		c-25,2-50.1,2.5-75.2,1.7L1674.7,3272.5L1674.7,3272.5z"/>
	<path d="M1639.7,3268.7c53.5-0.1,106.9-10.9,156.3-31.5c52.7-22.1,100.7-55.4,140.1-96.8c-39.9,43.6-89.2,78.9-143.6,101.9
		c-38.5,16.5-79.7,26.9-121.3,31c-10.4,1-21,1.6-31.4,1.9C1639.8,3275.2,1639.7,3268.7,1639.7,3268.7L1639.7,3268.7z"/>
	<path d="M1787.4,3277.6c42.3,0.3,87.9,10.7,117.4,43c6.7,7.2,12.3,15.6,17.3,24c6.6,11.1,13.2,22.3,21.7,32
		c4.1,4.8,8.8,9.5,13.5,13.8c24.2,21.7,55.2,34.7,86.9,40.8c-32-5.5-63.4-18-88.2-39.3c-9.9-8.5-18.8-18.4-26.1-29.2
		c-7.3-10.7-13.5-22.2-21.6-32.3c-20-25.4-51.1-39.1-82.6-43.9c-12.7-1.9-25.5-2.7-38.4-2.5L1787.4,3277.6L1787.4,3277.6z"/>
	<path d="M1853.6,3276.9c46.3,7.4,91.3,27.3,125.4,59.9c14.3,13.4,26.5,28.3,40.6,41.6c14,13.2,30,24.4,47.2,32.8
		c34.8,17.1,73.9,23.7,112.4,24.6c-36.3-0.2-73.1-5.5-106.7-19.8c-16.5-7.1-32.3-16.4-46.2-27.8c-18.1-14.6-33.1-32.9-50.2-48.5
		c-9.9-9.1-20.7-17.1-32.1-24.2c-27.9-16.9-59.3-27.7-91.5-32.2C1852.7,3283.3,1853.6,3276.9,1853.6,3276.9L1853.6,3276.9z"/>
	<path d="M1853.1,3276.9c50.5-0.5,102.3,10.9,144.2,40c11.9,8.1,22.6,17.8,34.1,26.3c27.2,20.3,59.2,33.8,92.4,40.4
		c15.8,3.2,31.9,4.7,48,5.1c-15.2,0-30.5-1.2-45.5-3.7c-34.5-5.8-68.1-18.9-96.6-39.5c-11.7-8.3-22.5-17.7-34.4-25.6
		c-5.9-3.9-12.1-7.5-18.3-10.8c-37.9-19.8-81.2-26.9-123.7-25.8L1853.1,3276.9z"/>
	<path d="M1446,3234.1c54.2,7.9,110,3.8,162.4-12.3c46.4-14.2,89.8-37.7,127.5-68.3c-39.6,33.6-86.1,59.2-135.9,74.1
		c-40.5,12.3-83.3,17.4-125.6,15.4c-9.8-0.4-19.6-1.3-29.3-2.5C1445.1,3240.5,1446,3234.1,1446,3234.1L1446,3234.1z"/>
	<path d="M1424.5,3228.6c32.4,3.8,65.5,1.3,96.9-7.5c52.7-14.7,99.7-48.2,131.5-92.8c-30.9,45.7-77.5,80.6-130.3,96.7
		c-23.8,7.3-48.8,11.1-73.8,11.2c-8.3,0-16.7-0.3-25-1.1L1424.5,3228.6L1424.5,3228.6z"/>
	<path d="M1303.8,3191.1c23.2,4.6,47.1,6.3,70.7,5c52.4-3,103.6-22.2,144.9-54.7c-42.5,35.4-96.5,56.5-151.8,59.6
		c-11.8,0.8-24.4,0.7-36.2-0.1c-9.6-0.7-19.3-1.8-28.8-3.4L1303.8,3191.1L1303.8,3191.1z"/>
	<path d="M1092.4,3099c28.8,17.3,56.2,37,82.1,58.5c15.7,12.8,31.2,25.8,45.1,40.7c28.5,30,47.1,66.8,55.3,107.4
		c2.7,13.3,4.4,26.7,5,40.2l-0.6,0.1c-3.3-18.2-7.3-36.1-13.1-53.5c-8.8-26.7-21.2-52.4-37.8-75.2c-15.8-21.5-35.9-39.4-56.2-56.8
		c-15.2-13.1-30.8-25.9-47-37.8c-10.8-7.9-21.8-15.6-33.1-23L1092.4,3099L1092.4,3099z"/>
	<path d="M1122.4,3115c34.8,31.6,72.8,59.6,113.6,83.1c7.5,4.3,15.9,8.6,23.7,12.3c14.2,6.6,28.9,11.8,43.7,17
		c17.1,6,33.9,13.4,48.9,23.7c45.3,30.7,75.1,80,91.4,131.4c0,0-0.6,0.2-0.6,0.2c-7.2-16.5-15-32.6-24.1-47.9
		c-22.5-37.8-53.4-72-93-92.2c-20-9.9-41.8-16.1-62.1-25.6c-8-3.6-16.5-8-24.1-12.3c-11.6-6.7-23.2-14.1-34.3-21.5
		c-29.7-20.2-57.8-42.9-83.6-67.8L1122.4,3115L1122.4,3115z"/>
	<path d="M1068.7,3085.7c33.9,17.9,63.4,44.2,85,76c17.5,25.4,30.3,54.3,35,85c2,12.7,2.9,25.6,2.2,38.3l-0.6,0
		c-2.2-17.6-5.6-35-10.5-51.9c-5.4-18-12-35.7-20.7-52.4c-11.2-21.1-25.7-40.6-42.7-57.4c-14.4-14.2-30.5-26.7-48-37L1068.7,3085.7
		L1068.7,3085.7z"/>
	<path class="st2" d="M915.4,2985.3c26.5,16.4,65.2,37.6,114.5,56c14.2,5.3,42.3,15.2,94.9,27.3c46.6,10.8,111.9,23.2,193.2,30.3"/>
	<path class="st2" d="M929.1,2995.5c35.3,18.6,91.9,43.1,165.3,52.8c64.5,8.6,118.8,2.8,155.8-4"/>
	<path d="M966.6,3019.3c20.8,13.3,36.5,34.5,42,58.7c5.5,23.9,0.7,49.4-11.2,70.5c11.5-21.9,15.2-48.3,8.3-72.1
		c-0.9-2.8-1.8-5.7-3-8.4c-0.8-1.9-1.8-4.3-2.8-6.1c-7.8-16-20.6-29.3-35.9-38.4C964.1,3023.4,966.6,3019.3,966.6,3019.3
		L966.6,3019.3z"/>
	<path d="M811,2899c37.8,33.7,86.3,55.9,136.8,60.8c4,0.3,9,0.8,12.9,0.9c20.1,0.7,40.5-0.5,60.3-3.9c11.4-1.9,22.7-4.5,33.8-7.7
		c5.6-1.6,11.1-3.4,16.6-5.3l0.2,0.5c-11.7,6-24.2,10.6-36.9,14.2c-21.3,5.9-43.5,8.8-65.6,8c-3-0.2-10.3-0.5-13.2-0.9
		c-3.2-0.4-7.8-0.8-11-1.2c-1.5-0.2-9.2-1.5-10.9-1.8c-34.7-6.3-67.8-20.4-96.5-40.9c-9.5-6.8-18.6-14.3-27-22.3L811,2899L811,2899z
		"/>
	<path class="st3" d="M762.6,2852.7c20.7,23.4,48.1,60.1,67.9,110.8c12.1,31.1,18.4,59.6,21.6,82.8"/>
	<path class="st2" d="M757.5,2848.6c11.7,13.2,31.9,39.4,42.6,78.3c9.2,33.5,7.4,62.1,5.1,78.9"/>
	<path d="M455.2,2409.2c59.2,97,147.4,175.8,250.4,223.8c14.7,6.9,29.7,13.1,45,18.8c-15.3-5.5-30.4-11.5-45.3-18.2
		c-104.2-46.8-194-124.8-254.9-221.4C450.4,2412.2,455.2,2409.2,455.2,2409.2L455.2,2409.2z"/>
	<path d="M457,2411c33,45.2,74.5,84.3,121.5,114.7c50.3,32.4,107,54.7,165.9,65.4c-57.4-9.4-113.2-29.7-163-59.8
		c-25-15-48.6-32.6-70.3-52c-21.8-19.5-41.6-41.2-59.3-64.4L457,2411L457,2411z"/>
	<path d="M456.4,2412.9c26.7,33,59.4,61.1,96,82.7c47.3,27.7,100.9,44.3,155.6,48c-54.9-2.8-109.1-18.6-157-45.6
		c-26.6-15.1-51.4-33.6-73.3-55c-8.8-8.5-17.1-17.6-25-27L456.4,2412.9L456.4,2412.9z"/>
	<path class="st3" d="M544.3,2580.5c17.8,25.8,47.6,76.6,56.5,147.1c6.2,48.7,0.2,89.5-6.1,116.3"/>
	<path class="st2" d="M559.1,2604c16.3,27.2,32.6,56.2,48.7,86.9c25.7,49.1,47.4,96.4,65.9,141"/>
	<path class="st2" d="M540.7,2574.8c10,12.6,58,76.1,47,164c-7.8,62-40.8,102.9-54.6,118.4"/>
	<path d="M482.5,2464c12,33.8,12.4,71.6,0.6,105.5c-9.8,27.7-27.5,52.6-50.1,71.2c22.6-19.9,39.8-46,48.2-75c5-17.2,7-35.4,5.7-53.2
		c-1.1-15.8-4.6-31.5-10.4-46.2L482.5,2464L482.5,2464z"/>
	<path d="M397.3,2258.5c27.2,81.2,23.2,172.1-10.9,250.6c32.2-78.6,34.3-168.9,5.6-248.8C391.9,2260.4,397.3,2258.5,397.3,2258.5
		L397.3,2258.5z"/>
	<path d="M400.7,2270.5c9.6,52.1-3,107.8-34.6,150.4c-10.4,14.1-22.7,26.9-36.4,37.7c20.2-16.7,36.9-37.5,48.9-60.7
		c11.9-23.2,19.1-48.8,20.8-74.8c1.2-17.3,0-34.7-3.5-51.6L400.7,2270.5L400.7,2270.5z"/>
	<path class="st2" d="M398.9,2273.9c12.7,22.1,32.9,50.6,64.3,76.4c76.9,63.1,165.7,64.5,195.2,63.7"/>
	<path d="M362.8,2137c11.5,35.9,15.3,74.4,9.9,111.7c-5.2,37.2-19.8,73-41.5,103.6c21-30.9,34.7-66.8,39.1-103.9
		c0.8-6.6,1.5-14.2,1.6-20.9c1-30.2-3.8-60.5-13.7-89C358.2,2138.6,362.8,2137,362.8,2137L362.8,2137z"/>
	<path d="M352.5,2089.5c3.8,19.3,4.6,39.3,2,58.8c-4.5,34.6-20.9,67.7-46.1,91.8c23.7-24.1,38.9-56.1,42.8-89.6
		c0.2-1.4,0.3-3.5,0.5-5c0.1-1.4,0.4-3.6,0.4-5c0.5-8.3,0.3-16.9-0.4-25.1c-0.7-8.3-2-16.6-3.9-24.8
		C347.7,2090.5,352.5,2089.5,352.5,2089.5L352.5,2089.5z"/>
	<path d="M333.1,1961.2c0.9,53.8-11.7,107.9-37.2,155.4c-25.2,47.3-62.8,87.8-107.4,117.4c43.9-30.2,80.6-71.2,104.9-118.7
		c0.8-1.6,4.8-9.7,5.5-11.2c1.4-3.3,3.5-8.1,4.9-11.5c12.2-29.1,19.6-60.2,22.5-91.5c1.2-13.2,1.5-26.5,1.1-39.7L333.1,1961.2
		L333.1,1961.2z"/>
	<path class="st3" d="M348.7,2082.8c17.5,34.2,42.5,75.4,78.1,117.8c27.2,32.5,54.5,58.5,78.9,78.9"/>
	<path class="st1" d="M326.2,1679.1c0.4,37.5,6.2,105.6,42.9,180.1c31.2,63.4,71.9,105.4,98.6,129"/>
	<path class="st1" d="M336.5,1586.4c-3.6,27.6-9.7,104.6,35.6,181.7c24.4,41.5,54.8,68.1,75.9,83.5"/>
	<path d="M339.4,1587.9c-51.6,97-129.6,179.1-222.2,237.9c22.8-15.2,44.6-31.7,65.4-49.5c14.2-12.2,28-25.2,41.1-38.5
		c25-25.6,47.9-53.3,68.2-82.8c15.5-22.4,29.4-45.9,41.8-70.2L339.4,1587.9L339.4,1587.9z"/>
	<path d="M322.9,1616.7c-26.4,42-43.9,90.3-47.5,139.9c-2.5,38.8,3.8,77.9,16.3,114.6c-7.5-20.9-13.1-42.6-16.1-64.7
		c-6.4-45.1-0.7-89.1,14.5-131.9c7.4-21.1,17.1-41.4,28.7-60.6L322.9,1616.7L322.9,1616.7z"/>
	<path d="M342.5,1563c-16,46.8-44.1,89.7-81.8,121.9c-37.3,32.3-83.9,53.6-132.5,61.6c46.8-8.5,91.4-29.3,127.4-60.4
		c16.2-13.9,30.8-29.9,43.3-47.2c13.3-18.6,24.3-38.9,32.8-60.2c2.2-5.7,4.3-11.4,6.2-17.2L342.5,1563L342.5,1563z"/>
	<path d="M440.8,1223.2c-16.1,62.4-17.5,129.2-0.1,191.6c5,17.9,11.4,35.4,15.3,53.7c2,9.1,3.5,18.3,4.6,27.6
		c3.5,30.1,2.2,60.7-3,90.5c-4.3,25.2-11.4,49.9-20.2,73.9c9.3-26.2,16.3-53.4,20.1-80.9c3.7-27.5,4.3-55.6,0.6-83.1
		c-2.3-18.4-6.7-36.4-12.5-54c-5.8-17.7-11.6-35.5-15.2-53.8c-11.3-55-9.1-112.4,4.1-167C434.5,1221.6,440.8,1223.2,440.8,1223.2
		L440.8,1223.2z"/>
	<path d="M431.3,1245c-9,61.8-10.3,125-0.3,186.8c1.2,7.7,2.4,15.5,3.3,23.3c7,54.8-7,111-34.9,158.3c32.2-57.1,42-117,28.8-181.2
		c-11.1-62-10.7-125.7-2.6-188C425.6,1244.2,431.3,1245,431.3,1245L431.3,1245z"/>
	<path d="M472.1,1153.3c-19.3,43.2-30.2,89.7-33.6,136.8c-6.6,73.1,10.5,147.9,53.6,207.9c10,14.1,21.2,27.3,33.4,39.5
		c-12.4-12.1-23.8-25.1-33.9-39.1c-53.9-74.2-65.8-158.3-52.7-247.4c4.9-34.4,14.6-68.1,28.1-100
		C466.9,1151,472.1,1153.3,472.1,1153.3L472.1,1153.3z"/>
	<path class="st3" d="M396.7,1331.2c-5.3,24.9-21.3,83.2-73.1,131.9c-27.4,25.8-55.6,40.3-75.9,48.6"/>
	<path class="st2" d="M530.8,1038.8c-23.4,43.6-58.6,98.7-110.8,154.3c-40.5,43.1-80.9,75.5-115.3,99.4"/>
	<path class="st2" d="M543.6,1017.6c-22.5,29.9-53.7,65.7-95.6,101.1c-37.1,31.3-72.9,54.1-103.2,70.6"/>
	<path class="st2" d="M556.7,996.9c-14.5,21.7-46.8,76.7-48,153.6c-1,65.7,21.1,115,33.4,138.1"/>
	<path d="M687,830.8c-23.9,49.6-40.2,102.7-52.2,156.4c-7.8,35.9-11.3,72.7-9.9,109.4c1,27.6,5.8,55.4,0.9,82.9
		c-4.6,27.3-14.8,53.6-29.1,77.3c9.3-15.9,16.7-32.9,21.9-50.6c5.2-17.6,8.2-36,7.8-54.3c-0.3-18.4-3-36.7-3.9-55.1
		c-3.4-55.5,6.4-110.9,21.3-164.3c9.4-35.8,21.9-70.8,37.4-104.4L687,830.8L687,830.8z"/>
	<path d="M713.1,798.2c-40.3,48.8-63.9,112.7-57.7,176.3c2,21.1,7,42,14.7,61.8c-8.1-19.7-13.5-40.5-15.9-61.7
		c-7.5-64.2,15.3-129.3,55.2-179.4C709.3,795.1,713.1,798.2,713.1,798.2L713.1,798.2z"/>
	<path d="M691.2,825.9c-30,38.1-53.1,82.3-63,129.9c-2.9,13.7-4.5,27.6-7,41.3c-3.7,20.8-10.6,41-19.9,59.9
		c-12.3,25.2-29.1,48.2-48.7,68.2c28.7-30.4,50.7-67.6,61.2-108.2c5.4-20.3,6.4-41.4,10.3-62c2.6-13.9,6.2-27.5,10.9-40.9
		c11.5-33.4,29.1-64.5,50.3-92.7C685.5,821.5,691.2,825.9,691.2,825.9L691.2,825.9z"/>
	<path d="M808.7,700.4c-43.6,28.6-90,53.3-138.2,73.3c-23.1,9.7-49.2,19.2-70.4,32.5c-33,21.3-65.1,51.4-84,86
		c-9.3,16.9-16,35.1-20.7,54.1c0,0-0.9-0.1-0.9-0.1c1.6-17.4,6-34.6,12.9-50.9c10.2-24.6,26.6-46.3,46-64.4
		c19.4-18,42-32.8,66.2-43.4c23-10.1,49.7-18.9,72.7-28.9c23.9-10.1,47.5-21.3,70.5-33.4c15.3-8.1,30.4-16.7,45.3-25.6
		C808.3,699.7,808.7,700.4,808.7,700.4L808.7,700.4z"/>
	<path d="M824.1,690.4c-52.1,38-121.9,49.7-183.4,30.2c61.1,17.1,129.5,3.6,179.5-35.4C820.2,685.2,824.1,690.4,824.1,690.4
		L824.1,690.4z"/>
	<path d="M649.1,781.5c-18.2,14-33.5,32-43.9,52.4c-10.6,20.6-16.4,43.6-17,66.8c-0.1-11.6,1.1-23.3,3.6-34.7
		c4.9-22.9,15.2-44.7,29.7-63.1c7.2-9.3,15.5-17.7,24.6-25.3L649.1,781.5L649.1,781.5z"/>
	<path d="M668.7,773.9c-41.2,5.2-83.4,1.6-123-10.8c24.9,6.7,50.6,10.1,76.4,9.9c15.4-0.1,30.8-1.4,45.9-3.9
		C668,769.1,668.7,773.9,668.7,773.9L668.7,773.9z"/>
	<path d="M1695.6,320.5c-50.2,4.7-101.4,0.1-150.1-13c-27.5-7.5-54.6-17-79.6-31c-8.2-4.5-16.6-9.5-24.4-14.7
		c-10.6-7-20.7-14.6-30.2-22.9l0.5-0.7c16.2,9.6,32.4,19,49.3,27.3c16.7,8.4,33.8,16,51,23.1c5.6,2.3,11.8,4.7,17.4,6.7
		c41.2,14.7,84.7,22.6,128.4,24.4c12.5,0.5,25.1,0.4,37.6-0.1C1695.6,319.7,1695.6,320.5,1695.6,320.5L1695.6,320.5z"/>
	<path d="M1592.4,331.5c-25.2,6-48.9,18-68.4,35.2c-12.6,11.2-22.6,24.9-31.1,39.4c-7.3,12.3-12.8,25.4-17.4,39c0,0-0.6-0.1-0.6-0.1
		c0.4-3.6,1-7.2,1.7-10.8c2.3-10.7,6.2-21.1,11.2-30.8c5.9-11.4,14-21.6,23.2-30.6c16.7-16.7,37.6-29.3,60.1-36.6
		c6.9-2.2,13.9-4,21-5.3C1592.3,330.9,1592.4,331.5,1592.4,331.5L1592.4,331.5z"/>
	<path d="M1532.5,341.3c-31.5,8.5-61.6,22.5-87.9,41.8c-18.4,13.4-34.5,29.7-49.4,46.7c-9.2,10.7-17.7,22-25.8,33.6
		c0,0-0.5-0.3-0.5-0.3c5.5-12,12.4-23.4,20.3-34c7.9-10.6,16.8-20.6,26.8-29.3c3.9-3.4,8.7-7.3,12.8-10.6c3.9-2.9,9.3-7,13.4-9.7
		c5.2-3.6,11.3-7.4,16.8-10.5c22.8-13.1,47.8-22.7,73.5-28.3L1532.5,341.3L1532.5,341.3z"/>
	<path class="st2" d="M1568.2,334.8c-46.1-0.6-100.7-4.6-161.2-15.8c-67.4-12.4-125-30.6-171.5-48.6"/>
	<path class="st2" d="M1370.3,380.6c-32.6,3.2-79.2,4.2-133.2-7c-47.3-9.7-85.2-25.6-112.3-39.5"/>
	<path d="M1309,404.2c-73.5,13.9-151,4.7-219.2-26c51.4,21.3,107.6,30.7,163.1,27.2c18.4-1.1,36.8-3.7,54.8-7.6L1309,404.2
		L1309,404.2z"/>
	<path class="st2" d="M1331.5,393c-11,5.4-37.8,20.2-56.5,51.9c-15.1,25.6-17.7,50-18.2,62.2"/>
	<path class="st2" d="M1271.1,414.8c-16.4,13.1-41.4,36.5-61.4,72.6c-24.5,44.2-29.3,85.5-30.3,107.7"/>
	<path d="M1225.9,433.6c-84.6,34.2-175.9,51.7-267.2,52.6c-44.5,0.8-89.1-3.9-132.6-13.4c-21.7-4.8-43.2-10.7-64.1-18.2
		c0,0,0.3-0.9,0.3-0.9c31.3,6.5,62.6,12.1,94.2,16c3.7,0.4,10.9,1.3,14.6,1.7c3.7,0.3,10.9,1.1,14.6,1.5c7.2,0.6,14.7,1.3,21.9,1.8
		c19.1,1.4,39.4,2.6,58.6,2.8c78.3,0.8,156.8-11.6,231.5-35.3c9.4-2.9,18.7-6.1,27.9-9.4L1225.9,433.6L1225.9,433.6z"/>
	<path d="M1064.5,517.2c-24.7,11.2-46.6,28.6-62.9,50.3c-21.1,28.3-31.7,63.8-30.1,99.1c-2.5-32,5-64.8,21.5-92.4
		c8-13.2,17.9-25.3,29.3-35.7c11.8-10.8,25.1-19.9,39.5-27.1C1061.7,511.3,1064.5,517.2,1064.5,517.2L1064.5,517.2z"/>
	<path d="M1082.8,506.8c-53.2,27.9-112.5,44.3-172.5,47.3c-59.8,3.1-120.2-7.1-175.7-29.3c55.7,21.2,116.1,30.3,175.5,26.1
		c12.4-0.8,26.5-2.5,38.8-4.5c45.8-7.6,90.2-23,130.9-45.3C1079.8,501.1,1082.8,506.8,1082.8,506.8L1082.8,506.8z"/>
	<path d="M940.9,596.4c-47.3,48.9-83.8,108.6-104.9,173.4c-25.8,78.4-29,163.7-11.7,244.3c-17.9-78.3-16.3-161.3,6.6-238.4
		c20.3-68.3,57-131.3,105.9-183.1C936.8,592.4,940.9,596.4,940.9,596.4L940.9,596.4z"/>
	<path d="M942.8,595.7c-48.4,49.1-80.2,115.4-84.6,184.5c-4.7,69.5,18.6,139.8,61.7,194.3c-22-27-39.2-58-50.4-91.1
		c-35.6-100.6-5.1-216.5,68.7-292.3C938.1,591.2,942.8,595.7,942.8,595.7z"/>
	<path d="M819.2,836.8c0,60.4,24.7,120.4,67.7,162.9c6.1,6.1,12.6,11.9,19.3,17.3c-6.8-5.4-13.3-11-19.4-17.1
		c-31-30.2-53-69.4-62.9-111.6c-4-16.8-6.1-34.2-6.3-51.5L819.2,836.8L819.2,836.8z"/>
	<path class="st3" d="M940.4,593.4c-82,49.8-145.3,57.6-189,54.9c-34.6-2.1-83-12.5-148.7,3c-23.6,5.6-42.4,12.9-54.6,18.2"/>
	<path d="M2992.5,2679.2c45-41.5,101-71.8,161.3-83.6c16.9-3.6,34-6.4,50.1-12.6c28.3-10.8,52.1-30.7,70.3-54.6
		c18.3-24.2,31.4-51.9,41.6-80.4c-8.4,25.2-19.1,49.8-33.6,72.2c-19,29.1-44.4,53.2-77,66.5c-16.2,6.7-33.5,10-50.4,13.9
		c-16.8,3.8-33.3,8.8-49.2,15.2c-23.9,9.7-46.5,22.2-67.5,37.2c-14,10-27.2,21-39.5,32.8L2992.5,2679.2L2992.5,2679.2z"/>
	<path d="M2975.4,2701.5c83.3-75.8,199.1-85.4,294.8-26.7c12.9,7.8,25.2,16.6,36.6,26.5c-11.5-9.7-24-18.3-36.9-25.9
		c-80.1-47.5-176.9-48.9-255.4,2.7c-12.5,8.1-24.3,17.4-35.1,27.6L2975.4,2701.5L2975.4,2701.5z"/>
	<path d="M2909.8,2781.5c53.1-63.3,65.4-152.3,28.1-226.5c-12-24.2-28.4-46.3-48.4-64.5c20.3,17.9,37.1,39.9,49.6,63.9
		c32.3,61.4,30.8,135.7-2.3,196.6c-6.5,12.1-14,23.6-22.7,34.2L2909.8,2781.5L2909.8,2781.5z"/>
	<path d="M2710.5,2967.3c72-51,164.8-70.3,251-51.3c10.5,2.3,20.9,5.1,31.1,8.4c-10.2-3.1-20.7-5.6-31.2-7.7
		c-61.5-12-126.4-5.1-183.9,19.7c-22.4,9.6-43.6,21.8-63.2,36.1L2710.5,2967.3L2710.5,2967.3z"/>
	<path d="M2684.7,2986.9c54.5-43.7,128.7-62.4,196.9-45.7c22.5,5.3,44.2,14.1,64,25.7c-20.2-11.2-41.9-19.4-64.4-24.1
		c-67.4-14.9-140,5.1-192.5,49.2C2688.8,2991.9,2684.7,2986.9,2684.7,2986.9L2684.7,2986.9z"/>
	<path d="M685.7,2767.6c58.9,52,142.1,66.6,214.8,36.6c10.2-4.2,20.1-9.1,29.5-14.8c-9.3,5.9-19.1,11.1-29.2,15.5
		c-50.8,22.3-110.6,23.1-161.8,1.6c-20.6-8.5-39.9-20.1-57-34.6L685.7,2767.6L685.7,2767.6z"/>
	<path d="M661.8,2739.8c22.9,23.6,53,40.3,85.2,47.1c39.2,8.3,81.2,1.4,116.3-17.9c-15.9,9.2-33.4,15.8-51.4,19.6
		c-36.2,7.8-75,3-108.2-13.4c-16.7-8.2-32.1-19-45.4-32.1L661.8,2739.8L661.8,2739.8z"/>
	<path d="M3236,2169.9c24.3-61.4,64.2-117.3,117.4-156.8c15-11.2,30.3-22,43.7-35.1c5-4.8,9.9-10,14.5-15.2
		c38.7-44.4,59.8-101.2,71.3-158.3c-9.9,52.9-27.8,105.5-60.6,148.8c-12.7,17-27.8,32.3-44.4,45.4c-14.7,11.7-30,22.4-43.8,35.2
		c-11.1,10.2-21.5,21.4-31.2,32.9c-26,31.4-46.4,67.3-60.8,105.4C3242,2172.3,3236,2169.9,3236,2169.9L3236,2169.9z"/>
	<path d="M3181.4,1241.7c-18.3-43.9-21.1-94.4-6.7-139.9c6.7-20.6,17.3-40.1,31-56.8c0,0,0.3,0.2,0.3,0.2
		c-9.1,14.5-17.1,29.7-23.1,45.8C3163,1142.6,3164.1,1190.4,3181.4,1241.7L3181.4,1241.7z"/>
	<path d="M3019.9,951.2c-27.4-42.6-67.5-81.9-120.6-85.6c-22.1-1.8-44.1,2.5-66.2,2c0,0-5.6-0.2-5.6-0.2c-1.7-0.1-6.7-0.6-8.4-0.7
		c-3.2-0.5-8-1.1-11.2-1.8c-2.5-0.6-5.8-1.2-8.3-1.9c-3-1-7.8-2.2-10.8-3.3c-28.3-9.9-53.4-28.1-72.5-50.9c0,0,0.5-0.4,0.5-0.4
		c16.2,15,34,28,53.9,37.2c19.6,9.2,41.1,14.7,62.7,15.6c23.6,1.2,48.2-3.1,72,0.4c3.1,0.6,8,1.3,11.1,2.2
		c16.4,3.7,31.9,11.2,45.7,20.8c24.3,17.4,43.1,41,58.4,66.3C3020.4,950.9,3019.9,951.2,3019.9,951.2L3019.9,951.2z"/>
	<path d="M3035.2,978c-26.8-29.3-63.6-49-103-54.7c-39.6-5.5-80.8,1.1-116.6,18.9c35.6-18.7,77-26.4,117-21.7
		c30.1,3.7,59.4,15.4,83.8,33.6c8.2,6,15.9,12.8,22.9,20.1L3035.2,978L3035.2,978z"/>
	<path d="M2590.1,544.9c-41.9-47.8-75.1-103.1-97.2-162.6c-8-21-14.6-42.8-25.6-62.4c-17.8-31.4-45.7-56.3-77.4-73.2
		c-19.9-10.7-41.1-18.7-62.9-24.7c21.8,5.7,43.3,13.5,63.3,23.9c34.2,17.6,64.2,44.5,82.3,78.8c13.5,26.2,21.3,54.7,33.7,81.4
		c22.1,49.3,52,95,88.1,135.1C2594.3,541.1,2590.1,544.9,2590.1,544.9L2590.1,544.9z"/>
	<path d="M2352.7,424.1c-49.7-7.1-100.1-0.6-141.5,29.6c-15.2,10.9-30.6,22.3-48.6,28.3c-29.6,10.5-62.3,9.9-92.5,2
		c30.2,7.3,62.6,7.4,91.9-3.6c17.7-6.3,32.5-17.8,47.5-29c20.2-15,43.7-25.8,68.5-30.7c10.8-2.2,21.9-3.5,32.9-3.9
		c14.2-0.6,28.4,0.1,42.5,1.8C2353.4,418.4,2352.7,424.1,2352.7,424.1L2352.7,424.1z"/>
	<path d="M1973,324c-46.7,4.8-93.3,19.1-131.8,46.5c-10.4,7.3-20.3,15.6-29.4,24.6c-15.3,15.1-28.9,32-44.7,46.8
		c-40.9,39.3-96.3,62.7-152.2,68.8l-0.1-0.8c51.9-12.3,101.5-34.8,142.4-69.4c18.2-15.2,33.4-33.3,50.6-49.6
		c8.6-8.2,18.1-15.8,27.9-22.6c29.5-20.4,63.6-33.6,98.8-40.1c12.6-2.5,25.7-3.9,38.5-4.9C1972.9,323.2,1973,324,1973,324z"/>
	<path d="M1729.5,321.2c-55.2,12.8-108.3,40.8-143.4,86.1c-16.5,21.4-29.5,45.4-45.6,67.1c-32.1,43.8-73.4,80.7-119.8,108.6
		c46-28.6,86.4-66,117.8-110.1c15.8-22,28.3-46.3,44.6-68c35.1-46.7,88.9-76.1,144.9-90.1C1727.9,314.9,1729.5,321.2,1729.5,321.2
		L1729.5,321.2z"/>
	<path d="M1791.1,316.7c-51.7-1.7-102.6-14.5-146.1-43.2c-14.4-9.3-27.5-20.8-40-32.4c-12.3-11.5-25.6-21.6-40.6-29.1
		c-24.2-12.3-51-19.3-77.9-21.8c-5.8-0.6-13.1-0.9-18.9-1.2c-16.9-0.5-33.8,0.5-50.8,2l-0.1-0.8c41.8-9.6,86.9-10.6,127.7,3.9
		c16.4,5.9,31.9,14.4,45.7,25c13.7,10.5,25.1,23.3,38,34.5c19.1,16.6,41,29.8,64.3,39.7c1.5,0.6,7.2,2.9,8.8,3.6
		c4.4,1.6,10.5,3.8,15,5.2c3.5,1.2,8.6,2.6,12.2,3.6c3.2,0.8,9.1,2.3,12.4,3c8,1.8,17,3.4,25.1,4.5c8.4,1.2,16.9,2,25.4,2.7
		L1791.1,316.7L1791.1,316.7z"/>
	<path d="M324.9,1841.3c-4,52-18.5,105.3-52.7,145.8c-9.5,11.6-20.9,21.3-31.4,31.9c-17.7,17.7-30.2,40.1-37.8,63.8
		c-8,25.7-10.2,53.1-8.4,79.9c-2-24.1-0.8-48.6,4.9-72.2c5.9-23.5,16.5-46.1,32-64.9c7.1-8.6,15.5-16.3,23.3-24.2
		c32.3-31.4,50.8-72.7,59-116.6c2.8-14.5,4.5-29.2,5.4-43.9L324.9,1841.3L324.9,1841.3z"/>
</g>
</svg>
