<?xml version="1.0" encoding="utf-8"?>
<!-- Generator: Adobe Illustrator 26.0.0, SVG Export Plug-In . SVG Version: 6.00 Build 0)  -->
<svg version="1.1" id="Layer_1" xmlns="http://www.w3.org/2000/svg" xmlns:xlink="http://www.w3.org/1999/xlink" x="0px" y="0px"
	 viewBox="0 0 3600 3600" style="enable-background:new 0 0 3600 3600;" xml:space="preserve">
<style type="text/css">
	.st0{fill:FRAME_COLOR;}
	.st1{fill:FRAME_COLOR;stroke:FRAME_COLOR;stroke-miterlimit:10;}
</style>
<g>
	<g>
		<path class="st0" d="M2001.2,3202.4c-105.1,25.9-202.1,82.8-276.2,161.7c-10.6,11.3-20.8,23-30.5,35.1
			c9.4-12.3,19.4-24.3,29.7-35.8c72.9-81.1,169.6-140.4,275-168.8C1999.2,3194.7,2001.2,3202.4,2001.2,3202.4L2001.2,3202.4z"/>
	</g>
	<g>
		<path class="st0" d="M2113.1,3177.1c-101.2,27.2-212.1,3.8-293.2-62.7c-8.3-6.7-16.2-13.8-23.8-21.3c9,8.5,18.6,16.5,28.5,24
			c58,43.5,130.7,67.1,203.2,65.1c28.1-0.7,56.2-5,83.2-12.8C2111,3169.4,2113.1,3177.1,2113.1,3177.1L2113.1,3177.1z"/>
	</g>
	<g>
		<path class="st0" d="M1922.3,3214.3c-74.1-3.3-147.4-21.2-214.7-52.3c-67-31.1-128-75.3-178.6-129c51.4,52.8,112.7,95.9,180,125.9
			c7.2,3,18.2,7.9,25.5,10.5c59.8,23.3,123.9,36,188,38C1922.6,3207.3,1922.3,3214.3,1922.3,3214.3L1922.3,3214.3z"/>
	</g>
	<g>
		<path class="st0" d="M1775.4,3225.7c-125,4.1-248.5,44.8-351.5,115.7c-14.7,10.1-29.1,20.9-43,32.2c13.8-11.5,27.9-22.4,42.6-32.8
			c102.5-72.7,226.1-115.3,351.7-121.1C1775.1,3219.7,1775.4,3225.7,1775.4,3225.7L1775.4,3225.7z"/>
	</g>
	<g>
		<path class="st0" d="M1631.3,3223.1c-50.3-7.7-99.1-25.1-142.7-51.3c-43.4-26.2-81.5-61.1-111.4-102c32.5,42.7,74,78.5,121.2,104
			c7.9,4.4,17.1,8.8,25.4,12.6c34.4,15.5,71.1,25.8,108.4,30.8C1632.2,3217.2,1631.3,3223.1,1631.3,3223.1L1631.3,3223.1z"/>
	</g>
	<g>
		<path class="st0" d="M1492,3207.3c-103.9-14.9-212.4,6-303.4,58.5c90.5-54.6,199.3-77.4,304.2-64.4
			C1492.8,3201.3,1492,3207.3,1492,3207.3L1492,3207.3z"/>
	</g>
	<g>
		<path class="st0" d="M1411.5,3191.4c-52.5-19.2-101.6-48.1-143.1-85.6c-41.4-37.3-75.1-83.3-98.2-134
			c23.9,50.2,58,95.5,99.9,132.1c2.8,2.3,9.1,8,11.9,10.1c2.9,2.3,7.3,5.8,10.2,8.1c25.6,19.3,53.3,35.9,82.4,49.2
			c12.6,5.7,25.5,10.9,38.5,15.5L1411.5,3191.4L1411.5,3191.4z"/>
	</g>
	<g>
		<path class="st0" d="M1356.9,3178.3c-42.8-9.2-86.8-13.2-130.5-12.1c-83.8,2.2-166.9,23.9-241.2,62.9
			c73.9-40.1,157-62.9,241.1-66.2c44.1-1.7,88.4,1.8,131.6,10.5C1357.9,3173.4,1356.9,3178.3,1356.9,3178.3L1356.9,3178.3z"/>
	</g>
	<g>
		<path class="st0" d="M1190.8,3123.7c-36.8-20.6-70.1-47.5-97.9-79.3c-29.4-33.9-52.4-73.2-67.3-115.4
			c16,43.2,40.4,83.2,71.6,117.1c12.7,13.9,26.8,26.9,41.5,38.6c16.9,13.5,35,25.3,54,35.6L1190.8,3123.7L1190.8,3123.7z"/>
	</g>
	<g>
		<path class="st0" d="M1059.8,3064.6c-48.9-31.5-104.8-52.3-162.4-60.3c-61.6-8.4-124.9-2.4-184.1,16.5
			c57.2-18.9,118.7-26,178.7-19.1c60.2,6.6,118.7,27.4,169.9,59.6C1062,3061.2,1059.8,3064.6,1059.8,3064.6L1059.8,3064.6z"/>
	</g>
	<g>
		<path class="st0" d="M1098.7,3083.8c-46.3-28.7-88.3-64.5-123.7-105.9c-35.4-41.2-64.3-88.2-85.2-138.4
			c21.5,49.8,50.9,96.3,86.7,137.1c17.8,20.3,37.4,39.4,58.2,56.7c20.8,17.4,43,33.1,66.1,47.1L1098.7,3083.8L1098.7,3083.8z"/>
	</g>
	<g>
		<path class="st0" d="M813.3,2905.1c-79.3-42.2-170.6-61.5-260.2-54.3c-12.8,1-25.6,2.5-38.3,4.6c12.7-2.1,25.4-3.8,38.2-4.9
			c64.1-5.8,129.3,1.9,190.4,22c24.5,8.1,48.3,18.1,71.2,30L813.3,2905.1L813.3,2905.1z"/>
	</g>
	<g>
		<path class="st0" d="M771.7,2870.8c-65-85.9-112.3-185.1-138-289.7c20,78.1,52,153.2,94.5,221.7c14.2,22.8,29.5,44.9,45.8,66.2
			L771.7,2870.8L771.7,2870.8z"/>
	</g>
	<g>
		<path class="st0" d="M702.5,2807.6c-83.6-71.8-191.5-114.1-301.5-118.8c82.7,2.9,164.6,26.6,235.9,68.7c23.8,14,46.4,30,67.6,47.8
			L702.5,2807.6L702.5,2807.6z"/>
	</g>
	<g>
		<path class="st0" d="M575.7,2665.9c-34.9-58.7-58.2-124.4-67-192.2c-7-52.6-5.2-106.4,4.9-158.5c-9.8,52.1-11.2,105.8-4,158.4
			c5.1,37.5,14.6,74.4,28,109.8c10.8,28.3,24.2,55.6,39.8,81.5L575.7,2665.9L575.7,2665.9z"/>
	</g>
	<g>
		<path class="st0" d="M483.6,2536.3c-61.4-77.9-143.6-139.2-235.8-175.8c69.4,27,133.4,67.9,187.1,119.5
			c17.9,17.2,34.7,35.6,50.3,55L483.6,2536.3L483.6,2536.3z"/>
	</g>
	<g>
		<path class="st0" d="M441.2,2465.4c-52.6-104.9-144.5-188.8-253.4-232.2c81.9,32.3,154.8,87,208.2,157
			c17.8,23.3,33.6,48.2,47,74.3L441.2,2465.4L441.2,2465.4z"/>
	</g>
	<g>
		<path class="st0" d="M329.9,2207.4c-134-59.2-173.3-215.9-88.1-333.7c5.9-8.2,12.5-16,19.4-23.5c35.8,29.4,64.5,67.3,82.8,109.9
			C378.2,2040.1,372.2,2131.7,329.9,2207.4L329.9,2207.4z M329.9,2207.4c32-64.6,40.9-141.5,19.9-210.8c0,0-1.7-5.8-1.7-5.8l-2-5.7
			c-0.6-1.9-2.3-6.7-2.9-8.5c-0.8-1.9-4.8-11.8-5.7-13.9c-14.6-32.7-35.4-62.8-60.9-88c-5.6-5.6-11.6-11-17.7-16.1l5.5-0.4
			C162.4,1972.4,192.3,2138.8,329.9,2207.4L329.9,2207.4z"/>
	</g>
	<g>
		<path class="st0" d="M1792.1,3301.5c-11.5-5.5-46.4-20.5-82.3-7.5c-48.6,17.5-80.8,79.5-68.6,149.4
			c40.5,18.2,87.8,11.2,120.7-17.8C1796.5,3395,1808.7,3345.4,1792.1,3301.5z"/>
		<path class="st0" d="M1792.1,3301.5c-18.6-8.2-39.2-13-59.5-10.9c-58.4,5.4-90.9,66.4-91.1,120.2c-0.2,10.8,0.8,21.5,2.6,32.1
			l-1.7-2.2C1733.4,3480.2,1823.5,3394.9,1792.1,3301.5L1792.1,3301.5z M1792.1,3301.5c27,66.8-14.5,141.6-85.8,153.3
			c-22.8,3.8-46.8,0.5-67.8-9.3c-2-11.5-3-23.2-2.8-34.8c0.5-50.5,28.3-106.7,80.2-120.3C1741.5,3283.8,1769,3289.5,1792.1,3301.5
			L1792.1,3301.5z"/>
	</g>
	<g>
		<path class="st0" d="M1509.8,3290.7c-39.9-18.1-87.6-18.9-126.5,1.9c-35.5,18.5-60.6,52.9-73.6,90.2c-10.3,30.8-11.1,64.6-3.1,96
			c0,0-2.5-2.2-2.5-2.2c6.5,0.9,13,1.4,19.5,1.7c32.6,1.1,65.8-6.1,94.2-22.3c28.7-15.9,52-40.9,67.1-70
			C1500.1,3356.5,1508.6,3323.7,1509.8,3290.7L1509.8,3290.7z M1509.8,3290.7c0.3,26.6-4.8,53.3-13.9,78.3
			c-18.8,51.6-59.5,91.8-112.5,107.4c-26.5,8-54.7,9.7-82.1,5.8c-4.1-15.1-6-30.7-6.1-46.2c-0.1-29.8,8-59.6,23-85.4
			c21.9-39.2,60.4-68.8,105.5-74.7C1453.1,3272,1483.5,3277.4,1509.8,3290.7L1509.8,3290.7z"/>
	</g>
	<g>
		<path class="st0" d="M1678.9,3146.1c-41,8.2-84.4,4.3-123-11.8c-99.5-41.7-148.3-142-116-245.5c0,0,0.6-1.9,0.6-1.9l2-0.1
			c29.4-2.1,59.3,1.2,87.5,10C1636,2930.3,1691,3039.3,1678.9,3146.1L1678.9,3146.1z M1678.9,3146.1c8-100.1-41.8-203.6-139-239.9
			c-30.8-11.6-64.2-15.9-97-13.5l2.6-2.1c-2.6,8.2-4.7,16.6-6.3,25.1c-7.9,42.4-1.9,87.6,18.5,125.7c21.9,41.3,59.7,72.9,102.4,91.1
			C1597.5,3148.1,1638.9,3152.6,1678.9,3146.1L1678.9,3146.1z"/>
	</g>
	<g>
		<path class="st0" d="M1134.1,3175.4c-30.2-23.3-67.8-37.7-106.2-34.9c-74,5.4-131.6,67.9-152.5,136c0,0-1.3-3.4-1.3-3.4
			c11.2,7.1,23.4,12.8,36,17.2c25.1,8.9,52.3,12.5,78.8,9.3c31.6-3.7,61.8-16.9,86.1-37.5
			C1101.9,3239.1,1122.3,3208.7,1134.1,3175.4L1134.1,3175.4z M1134.1,3175.4c-8.3,27.6-23.2,53.3-42.3,75
			c-26.3,29.5-63,49.5-102.3,54.4c-41.1,5.4-83.5-5-118.6-26.6c0,0-2-1.2-2-1.2l0.7-2.2c20.8-67.6,77.1-129.4,150-137.3
			C1061.2,3132.8,1102.6,3148.7,1134.1,3175.4L1134.1,3175.4z"/>
	</g>
	<g>
		<path class="st0" d="M1247,3236.6c-7.9-3.2-32.9-12.2-62.1-3.3c-44.6,13.7-59.7,57.3-61.2,61.9c5,2.2,37.6,16.1,73.5,0
			C1235,3278.1,1245.6,3241.5,1247,3236.6z"/>
		<path class="st0" d="M1247,3236.6c-52.6-18.2-102,8-120.5,59.5c0,0-1.6-3.7-1.6-3.7c11.4,5,24,7.5,36.5,7.5
			C1201.2,3300.3,1234.2,3273.7,1247,3236.6L1247,3236.6z M1247,3236.6c-8.7,36.2-38.5,64-75.7,68.5c-16.6,1.9-33.5-0.5-48.9-7.1
			c0,0-2.5-1.1-2.5-1.1c2.3-7.2,5.4-14.1,9.2-20.5C1153.1,3233.6,1202,3216,1247,3236.6L1247,3236.6z"/>
	</g>
	<g>
		<path class="st0" d="M1232.1,3067.3c-92.3-15.1-130.8-109.8-88.5-190c0,0,1.3-2.6,1.3-2.6l2.6,1.3
			C1219.4,2911.1,1254.4,2990.7,1232.1,3067.3L1232.1,3067.3z M1232.1,3067.3c17-75.7-16.8-151.7-87.1-186c0,0,3.9-1.3,3.9-1.3
			c-4.5,8.8-8.4,18-11.2,27.5l-1.9,7.2c-0.3,1.5-1.6,7.8-1.8,9.1C1122.8,2993.4,1163.8,3051.9,1232.1,3067.3L1232.1,3067.3z"/>
	</g>
	<g>
		<path class="st0" d="M930.6,2917c-30.4-4.8-60.2-21.1-77.3-47.2c-26.8-40.8-17.9-96.2,15.5-130.6c4.1-4.3,8.6-8.2,13.2-11.9
			c0,0,1.7,1,1.7,1C953.6,2768.4,968.1,2848.7,930.6,2917L930.6,2917z M930.6,2917c32.2-68.2,18.4-144.6-49.7-183.5
			c0,0,3.3-0.3,3.3-0.3c-3.9,3.1-7.6,6.5-11,10.1c-31.7,32.3-40.7,85.1-16.4,124.2C872.7,2893.6,901.2,2910.3,930.6,2917L930.6,2917
			z"/>
	</g>
	<g>
		<path class="st0" d="M825.1,3000.2c-37.4-44-84.7-52.7-131.8-17.2c-30.8,23.9-50.2,60-58.9,97.6c0,0-1.8-3.4-1.8-3.4
			c41.9,16.5,91.4,13.9,130.4-9.1C790,3052.6,811.7,3028.3,825.1,3000.2L825.1,3000.2z M825.1,3000.2
			c-11.9,29.2-33.3,54.7-60.2,71.3c-40.1,25-90.8,28.2-134.6,11.2c0,0-2.4-0.9-2.4-0.9c2.6-12,6.2-23.8,11-35.1
			c8.8-21.1,21.5-40.8,38.1-56.6c22.4-21.7,54.1-37.2,85.9-31.7C788.5,2962.6,809.9,2980,825.1,3000.2L825.1,3000.2z"/>
	</g>
	<g>
		<path class="st0" d="M518.6,2707.7c-24.4-74.5-115.3-102.8-176.4-53c-7.9,6.5-14.9,14.1-20.8,22.4l0.3-2.9
			c7.9,17.9,19.8,34.1,34.9,46.5C404.8,2760.7,474.8,2748.7,518.6,2707.7L518.6,2707.7z M518.6,2707.7
			c-57.7,59.6-151.9,57.2-195.4-17.5c-2.9-4.9-5.4-10-7.7-15.2c12.4-18.3,30.2-32.9,50.6-41.5C428.8,2606.9,501,2641.8,518.6,2707.7
			L518.6,2707.7z"/>
	</g>
	<g>
		<path class="st0" d="M667.5,2685c-3.9-0.7-44.3-8.5-62-46.4c-14-29.9-8.3-66.3,14.7-92.3c7.2,2.3,36.6,12.4,53.1,42.5
			C689.3,2618.1,686.9,2655.1,667.5,2685z"/>
		<path class="st0" d="M667.5,2685c-48.9-7.9-80.7-50.7-70.3-99.8c3.5-15.7,11.2-30.4,22.1-42.3c0,0,1.8,0.6,1.8,0.6
			C683.1,2563.3,704.4,2632.3,667.5,2685L667.5,2685z M667.5,2685c26.3-44.4,17-101.1-29.3-127.5c-6-3.4-12.4-6.2-18.9-8.3l3.1-0.9
			c-30,33.2-29.5,87.5,5.8,116.8C639.5,2674.6,653.2,2681.5,667.5,2685L667.5,2685z"/>
	</g>
	<g>
		<path class="st0" d="M505.5,2383c-7.4-5-32-22.9-38-53.9c-7.5-38.6,16.7-81.9,61.2-102.9c31.6,26.8,43.8,68.5,31,103.7
			C546.4,2366.8,511.3,2380.8,505.5,2383z"/>
		<path class="st0" d="M505.5,2383c-13.9-8.7-26.1-20.9-33.5-35.7c-11.7-22.6-9.8-50.5,1.7-72.8c11.6-23.2,32.1-41.2,55.5-51.9
			c13.1,11.1,24.1,25.1,30.6,41C580.6,2313.9,556.4,2365.2,505.5,2383L505.5,2383z M505.5,2383c47.3-20.7,69.8-68.9,49-117.2
			c-6.1-14.4-15.9-27.2-27.8-37.4c0,0,3.2,0.4,3.2,0.4c-21.6,10.2-40.4,26.8-51.6,48C457.5,2316.5,470.2,2357.2,505.5,2383
			L505.5,2383z"/>
	</g>
	<g>
		<path class="st0" d="M2201.3,3150.9c-489.2,163.6-1029.2,59.9-1422.6-273.6c-229.1-195.2-398.4-460.8-473.4-752.6
			c-22.9-88-37.4-178.3-43.7-268.9c6.5,90.6,21.4,180.8,44.6,268.7c83,318.1,277.8,605,540.7,802
			c248.6,186.5,557.4,291.5,868.2,293.3c163.9,1.3,328.1-24.9,483.3-77.3C2198.4,3142.4,2201.3,3150.9,2201.3,3150.9L2201.3,3150.9z
			"/>
	</g>
	<g>
		<path class="st0" d="M1712.6,275.9c130.6-7.2,259.2-46.6,371.4-114c-111.3,70-239.8,112.1-370.9,122
			C1713.1,283.9,1712.6,275.9,1712.6,275.9L1712.6,275.9z"/>
	</g>
	<g>
		<path class="st0" d="M1678.8,276.6c60.5,3.6,120.4,15.7,177.5,36c125.4,44.1,235.5,129.7,309.8,239.9
			c-72.1-103.9-176.1-184.8-294.6-228.8c-9.9-3.5-24.2-8.6-34.1-11.5c-28.6-8.9-58-15.7-87.5-20.4c-23.7-3.8-47.5-6.1-71.5-7.3
			L1678.8,276.6L1678.8,276.6z"/>
	</g>
	<g>
		<path class="st0" d="M1647.6,278c31.4-2.8,62.4-10.6,91.4-23.1c33-14.2,63.3-34.7,89-60c-11.6,12.4-24.4,23.8-38,34
			c-20.4,15.4-43.1,28.1-66.9,37.6c-23.9,9.6-49,16.1-74.6,19.4C1648.5,286,1647.6,278,1647.6,278L1647.6,278z"/>
	</g>
	<g>
		<path class="st0" d="M2064.7,315.8c46.1,7.1,93.5,5.5,139.1-4.5c33.4-7.4,65.7-19.4,95.8-35.5c-17.7,10-36.1,18.6-55.2,25.6
			c-19,7-38.8,12.6-58.7,16.5c-40,7.8-81.3,9.1-121.8,3.9C2063.8,321.7,2064.7,315.8,2064.7,315.8L2064.7,315.8z"/>
	</g>
	<g>
		<path class="st0" d="M2167.1,343.3c97.4,24.8,201.5,22.7,297.8-6.3c-72.1,23.2-148.9,31.5-224.3,24.3
			c-25.2-2.3-50.2-6.5-74.9-12.2L2167.1,343.3L2167.1,343.3z"/>
	</g>
	<g>
		<path class="st0" d="M2132.4,332.9c74.6,27.7,143.4,71,200.2,126.7c47.1,46,86,100.2,115.1,159.1
			c-29.8-58.6-69.2-112.1-116.7-157.5c-50.6-48.4-110.4-87.2-175.1-113.9c-8.4-3.4-16.8-6.7-25.3-9.7L2132.4,332.9L2132.4,332.9z"/>
	</g>
	<g>
		<path class="st0" d="M2412.5,444.5c54.7,31.9,115.6,53.4,178.5,61.5c37.8,4.8,76.2,4.9,114,0c-31.4,4.5-63.5,5.8-95.2,3.5
			c-54.1-3.7-107.4-17.3-157-39.3c-14.6-6.4-28.9-13.6-42.8-21.4C2410,448.9,2412.5,444.5,2412.5,444.5L2412.5,444.5z"/>
	</g>
	<g>
		<path class="st0" d="M2487.5,487.3c57,46.2,100.9,108.1,125.6,177.2c8.3,22.9,14.4,46.6,18.4,70.7c-7.5-42-21.7-82.6-41.9-120.1
			c-14.4-26.7-31.9-51.9-51.9-74.6c-16-18.2-33.7-35-52.7-50L2487.5,487.3L2487.5,487.3z"/>
	</g>
	<g>
		<path class="st0" d="M2606.2,566c91.4,84.9,149.3,204.1,160.1,328.4c-12.3-123.5-71.4-241.5-163.5-324.7
			C2602.8,569.6,2606.2,566,2606.2,566L2606.2,566z"/>
	</g>
	<g>
		<path class="st0" d="M2555.8,530.3c102.7,74.2,224.3,122,350.1,137.5c-126.4-13.8-248.9-60.3-353-133.4
			C2552.9,534.3,2555.8,530.3,2555.8,530.3L2555.8,530.3z"/>
	</g>
	<g>
		<path class="st0" d="M2909.3,870.4c34.5,56.1,56.9,119.6,65.2,185c6.3,50.7,4.2,102.6-6.3,152.6c10.1-50.1,11.7-101.8,5-152.4
			c-4.9-36.1-14.1-71.6-27.3-105.6c-10.5-27.2-23.7-53.3-39.1-78L2909.3,870.4L2909.3,870.4z"/>
	</g>
	<g>
		<path class="st0" d="M2930.9,900.7c60.6,71.3,140.1,126.3,228.3,157.5c-89.1-29.8-169.9-83.7-232.1-154.3
			C2927.1,903.9,2930.9,900.7,2930.9,900.7L2930.9,900.7z"/>
	</g>
	<g>
		<path class="st0" d="M2852.8,797.9c24.7,28.9,54.6,53.4,87.9,71.7c37.9,20.8,80.1,33.4,123.2,36.9c-40.6-2.8-80.8-13.6-117.2-32
			c-36.6-18.3-69.3-44-96.2-74.7C2850.5,799.9,2852.8,797.9,2852.8,797.9L2852.8,797.9z"/>
	</g>
	<g>
		<path class="st0" d="M3054.8,1107.6c33.8,62.6,41.2,138.7,19.7,206.6c-3,9.7-6.6,19.2-10.6,28.4c3.9-9.3,7.4-18.8,10.3-28.5
			c14.5-48.4,14.8-100.8,0.9-149.3c-5.6-19.4-13.2-38.1-22.9-55.7L3054.8,1107.6L3054.8,1107.6z"/>
	</g>
	<g>
		<path class="st0" d="M3032.6,1064.5c44.7,97.3,118.9,180.7,210.4,236.3c13.1,8,26.5,15.4,40.2,22.3c-13.7-6.8-27.2-14.1-40.4-21.9
			c-79-47.2-145.5-114.9-191.6-194.6c-7.7-13.3-14.8-26.9-21.4-40.8L3032.6,1064.5L3032.6,1064.5z"/>
	</g>
	<g>
		<path class="st0" d="M3117.3,1256.6c39.9,109.9,36,234.9-12.1,341.6c-5.8,13-12.3,25.9-19.3,38.4c6.9-12.5,13.3-25.4,19.1-38.5
			c33.8-76.7,45.8-162.9,34-245.9c-4.5-32.4-12.5-64.2-23.6-95L3117.3,1256.6L3117.3,1256.6z"/>
	</g>
	<g>
		<path class="st0" d="M3124.7,1277.8c14.1,48.6,38.6,94.5,72.8,131.9c34.1,37.6,78,66.1,126,82.5c-48.2-16.1-92.4-44.3-126.8-81.8
			c-34.6-37.4-59.5-83.3-74-132C3122.8,1278.4,3124.7,1277.8,3124.7,1277.8L3124.7,1277.8z"/>
	</g>
	<g>
		<path class="st0" d="M3182.1,1508.9c16.9,86.7,59,168.4,120.6,231.8c-46.3-47.5-82.1-105.2-104-167.7
			c-7.3-20.9-13.2-42.2-17.6-63.9L3182.1,1508.9L3182.1,1508.9z"/>
	</g>
	<g>
		<path class="st0" d="M1769.2,241.5c-0.3-3.4-3.1-38.7,24.9-62.9c24.8-21.4,54.5-17.5,58.9-16.8c0.6,2.5,7.9,36.2-16.5,61.8
			C1819.5,241.4,1793.4,248.4,1769.2,241.5z"/>
		<path class="st0" d="M1769.2,241.5c-5.2-42.5,24-79.6,67-83.1c6.4-0.5,12.9-0.4,19.3,0.6c0,0,0.5,2,0.5,2
			c4.9,23.6-1.8,50.3-20.2,66.6C1818.2,243.8,1791.5,249.4,1769.2,241.5L1769.2,241.5z M1769.2,241.5c45.7,9.9,86.2-23.7,82.1-70.9
			c-0.2-2.8-0.6-5.6-1.2-8.2l2.5,2.3C1804.9,158.7,1768.5,194,1769.2,241.5L1769.2,241.5z"/>
	</g>
	<g>
		<path class="st0" d="M1946.3,229.3c18.7-62.4,72.3-108.4,137.9-113c21.1-1.6,42.6,1,62.8,7.5c0,0,2.6,0.8,2.6,0.8
			c-1.4,6.2-3.1,12.3-5.3,18.3C2114.2,227.4,2028.2,260.3,1946.3,229.3L1946.3,229.3z M1946.3,229.3c30.1,9.6,63,11.5,93.7,3.9
			c51.6-12.4,91.2-56.1,103.1-107.2c0,0,2,3.5,2,3.5c-7.2-2.4-14.8-4.3-22.3-5.5C2043.8,110.4,1973.6,155.1,1946.3,229.3
			L1946.3,229.3z"/>
	</g>
	<g>
		<path class="st0" d="M2216.6,309.3c2.5-6.8,12.1-30.1,37.6-44.6c32.1-18.3,64.2-8.3,69.4-6.5c-0.1,2.6-2.3,37.6-32.7,55.5
			C2268.2,327.1,2238.9,325.4,2216.6,309.3z"/>
		<path class="st0" d="M2216.6,309.3c9.8-31.3,37.6-54.4,70.3-57.6c13.4-1.5,27,0.1,39.8,4.4c-0.9,25.9-15.7,52.1-40,62.6
			C2264.1,329.1,2235.7,325,2216.6,309.3L2216.6,309.3z M2216.6,309.3c25.2,16.5,60,15.9,82.5-4.8c12.9-11.9,20.2-29.1,21.6-46.4
			c0,0,2,2.9,2,2.9c-10.6-3.5-22.1-4.7-33.3-4.1C2256.9,258.9,2229.6,279.6,2216.6,309.3L2216.6,309.3z"/>
	</g>
	<g>
		<path class="st0" d="M2056.3,430.4c10.8-0.2,80.2-0.6,130.6,54.8c64.4,70.8,36.2,164.9,34.9,169c-17.8-5-86.1-26.6-130.5-96.2
			C2057.2,504.5,2055.7,451.5,2056.3,430.4z"/>
		<path class="st0" d="M2056.3,430.4c76.4-2.4,146.8,42.7,168.4,117.4c9.9,34.8,9.6,72.5-0.1,107.3c0,0-0.8,2.8-0.8,2.8
			c-25.4-7-49.5-18.2-71.2-33.1C2088.7,581.5,2052.4,507.3,2056.3,430.4L2056.3,430.4z M2056.3,430.4c-0.3,104,66.5,192.3,166.3,221
			c0,0-3.6,2-3.6,2c1.8-6.3,3.2-13,4.3-19.5c3.2-19.8,3.8-40.1,1.1-60C2213.7,488,2141,431.5,2056.3,430.4L2056.3,430.4z"/>
	</g>
	<g>
		<path class="st0" d="M2380.5,513.7c100.9-9.4,146.4,91.9,93.4,171.2c0,0-1.2,1.7-1.2,1.7l-1.9-0.5c-18.2-4.4-35.1-12.5-50-23.7
			C2374.5,628.2,2358.8,566.4,2380.5,513.7L2380.5,513.7z M2380.5,513.7c-24.5,73.8,15.9,148.1,91.5,166.6c0,0-3.1,1.2-3.1,1.2
			c2.8-4.1,5.3-8.4,7.7-12.8c21-39.2,19.1-92.5-13.1-125.2C2442.2,521.7,2410.5,512.6,2380.5,513.7L2380.5,513.7z"/>
	</g>
	<g>
		<path class="st0" d="M2361.6,358.6c48.8,33,114.5,34.6,158.8-6.9c13.9-12.9,24.7-29,31.8-46.5c0,0,1.2,3.7,1.2,3.7
			c-35.1-21.3-79.9-26.6-118.4-11.3C2404.9,309.4,2379.4,331.8,2361.6,358.6L2361.6,358.6z M2361.6,358.6
			c37.7-65.5,112.4-94.5,182.3-61.5c5.1,2.4,10,5.1,14.8,8c0,0-1,2.4-1,2.4c-13.8,34.4-42.4,63.4-78.2,74.2
			C2438.9,394.2,2394.9,384.3,2361.6,358.6L2361.6,358.6z"/>
	</g>
	<g>
		<path class="st0" d="M2632.1,510c2.6-3.8,21.9-31.2,58.2-34.6c33.9-3.2,56.9,16.9,60.6,20.2c-2.5,3.7-22,31.7-58.8,34.9
			C2658.5,533.4,2635.8,513.4,2632.1,510z"/>
		<path class="st0" d="M2632.1,510c18.3-29.1,52.8-43.6,86.3-34.9c13.6,3.5,26.2,10.5,36.6,20.1c-10.2,15.5-25.3,27.6-42.7,33.7
			C2684.1,538.4,2653.1,530.8,2632.1,510L2632.1,510z M2632.1,510c27,21.5,63.5,25.4,92.9,6.5c9.1-5.9,17.3-13.6,23.5-22.5
			c0,0,0.5,3.9,0.5,3.9c-9.1-8.1-20.3-14-32-17.4C2684.9,471.5,2652.4,484.3,2632.1,510L2632.1,510z"/>
	</g>
	<g>
		<path class="st0" d="M2781.7,642.5c56.7-31.9,125.9-35.6,185.9-10.5c20.9,8.6,40.4,20.5,57.9,34.8c0,0-2.2,2.3-2.2,2.3
			c-33.1,33.3-81.2,53.6-128.4,48.1C2847.8,712.5,2805.3,682.9,2781.7,642.5L2781.7,642.5z M2781.7,642.5
			c53.3,78.5,150.7,93.8,224.6,34c4.4-3.6,8.7-7.4,12.6-11.4l0.3,4.4c-16.3-13.2-34.5-23.9-53.8-32.3
			C2906.5,611.7,2839.2,614.3,2781.7,642.5L2781.7,642.5z"/>
	</g>
	<g>
		<path class="st0" d="M2738.9,771.2c48.9,24.2,82.5,73.6,84,128.5c0.9,32.5-8.6,65-26,92.5c0,0-1.3,2-1.3,2l-2.2-0.9
			c-28.5-11.9-54.2-32.5-71.1-58.4C2688.7,882.6,2697.9,816.5,2738.9,771.2L2738.9,771.2z M2738.9,771.2
			c-57,72.1-38.8,165.2,42,209.5c4.7,2.6,9.7,5.1,14.6,7c0,0-3.5,1.1-3.5,1.1c18.1-28.5,27.8-63.1,25.4-96.9
			C2814.1,841.2,2782.7,796,2738.9,771.2L2738.9,771.2z"/>
	</g>
	<g>
		<path class="st0" d="M3070.8,1018.5c7-4.8,29.5-19,59.3-15.7c32.4,3.5,60.7,26.3,74.1,58.8c-18.2,25.2-49.8,36.6-79,28.8
			C3093.5,1081.8,3070.9,1052.3,3070.8,1018.5z"/>
		<path class="st0" d="M3070.8,1018.5c49.6-37,113.3-13.4,136.1,41.9c0,0,0.6,1.5,0.6,1.5l-1,1.4c-18.6,26.6-55,39.1-85.7,28.3
			C3090.2,1081.3,3069.4,1050.6,3070.8,1018.5L3070.8,1018.5z M3070.8,1018.5c3,58.9,66.9,92.5,115.3,57.2c6-4.5,11.3-9.8,15.7-15.8
			l-0.3,2.9c-2.5-6-5.6-11.9-9.2-17.4c-6.7-10.2-15.4-19.4-25.5-26.3C3137.5,998.6,3100.6,999.7,3070.8,1018.5L3070.8,1018.5z"/>
	</g>
	<g>
		<path class="st0" d="M2977.4,1100.1c73.4,52.7,52.2,147.9-19.1,191.2c0,0-1.6,1-1.6,1c-17.2-11.3-31.2-27.4-39.9-46.1
			C2889.7,1186.9,2918.2,1124.4,2977.4,1100.1L2977.4,1100.1z M2977.4,1100.1c-34.4,16.4-62.4,49.7-65.5,88.4
			c-2.8,28.3,6.8,57.4,25.4,78.9c6.2,7.2,13.3,13.5,21.1,18.8l-3.2-0.1C3024.6,1243.7,3045,1155.2,2977.4,1100.1L2977.4,1100.1z"/>
	</g>
	<g>
		<path class="st0" d="M3233,1443.3c17.8-15.2,40.2-25.5,63.6-27.4c36.9-2.9,71.9,16.7,93.6,45.9c12.4,16.4,20.8,35.7,25.2,55.7
			c-15,16-34.8,27.3-56.2,32C3292.1,1564.6,3231,1511.2,3233,1443.3L3233,1443.3z M3233,1443.3c1.8,65.1,60.3,115.8,125,100.6
			c19.7-4.4,38-14.9,52.1-29.4c0,0-0.8,2.7-0.8,2.7c-10.8-51.1-54.1-98.6-108.9-98.1C3276,1419.2,3252.4,1428.8,3233,1443.3
			L3233,1443.3z"/>
	</g>
	<g>
		<path class="st0" d="M3134.7,1505.8c28.7,37.5,32.8,88.1,10.4,128.3c-20.2,36.3-59,59.1-101.3,59.6c-4.1-11.9-17-54.2,1.6-102.1
			C3069.4,1530.5,3125.9,1509,3134.7,1505.8z"/>
		<path class="st0" d="M3134.7,1505.8c62.6,78.9,7.4,190.8-93,190.9c-6.7-19.2-9.8-39.8-8.6-60.2
			C3036.3,1576,3077.9,1525.1,3134.7,1505.8L3134.7,1505.8z M3134.7,1505.8c-54.4,22.3-93.6,71.5-96,131.1
			c-0.6,14.2,0.8,28.5,4,42.3c1.1,4.6,2.4,9.1,4,13.6l-2.8-2C3140.2,1688.3,3189.9,1583.8,3134.7,1505.8L3134.7,1505.8z"/>
	</g>
	<g>
		<path class="st0" d="M3244,1666c5.8-0.2,45.5-1.2,74.3,30.2c36,39.3,20.3,91.8,19.6,93.9c-4.4-0.1-52.8-1.7-80.8-43.3
			C3232.6,1710.6,3242.4,1671.9,3244,1666z"/>
		<path class="st0" d="M3244,1666c49.1-3.3,92.6,29,99.6,78.4c2.2,15.5,1.3,31.5-2.9,46.6c0,0-0.7,2.1-0.7,2.1l-2.2-0.1
			c-38-1.6-73.9-22.4-89.6-57.8C3238.5,1713.8,3237.2,1688.6,3244,1666L3244,1666z M3244,1666c-4.2,19.9-2.8,41.1,4.5,60.1
			c0.4,1,2.4,5.4,2.7,6.3c0.4,0.7,1.5,2.9,1.9,3.6c3.7,7.2,8.7,14.1,14.2,20c18.1,19.2,44.4,30,70.6,31.1c0,0-2.9,2.1-2.9,2.1
			c0.5-1.6,1-3.5,1.3-5.3c2.7-12.7,3.3-25.9,1.6-38.7C3331.9,1697.4,3291,1666.6,3244,1666L3244,1666z"/>
	</g>
	<g>
		<path class="st0" d="M3201.5,1751.6c48.4,51.4,79.7,119.4,85.6,189.8c3.7,47.2-3.9,95.5-22.5,139.1
			c-25.6,60.2-71.2,110.9-126,146.1c-6,3.8-12.2,7.4-18.5,10.7c0,0-2-2.8-2-2.8c-26.3-37.3-45.2-79.6-55.8-124
			c-15.8-66.5-10.9-137.8,14.6-201.2C3102.1,1846.3,3146.2,1790.8,3201.5,1751.6L3201.5,1751.6z M3201.5,1751.6
			c-62.2,47.7-109.8,115.5-130.2,191.5c-26.5,97.7-5.1,204.6,53.2,286.8c0,0-5.1-1.2-5.1-1.2c55.5-31,102.2-78.6,131.3-135.2
			c9.2-18,16.5-37.2,21.7-56.7c1.7-5.6,3.1-13.3,4.5-19c0.3-1.3,0.8-5,1.1-6.4C3294.9,1919,3262.9,1821.4,3201.5,1751.6
			L3201.5,1751.6z"/>
	</g>
	<g>
		<path class="st0" d="M1521.5,289.8c206.3-28.2,418.5-12.5,618.6,44.9c245.4,70.6,471.3,206.7,647.9,391.2
			c138,144.6,248.8,316.2,319.8,503.3c3.4,8.9,8.8,24.5,12,33.2c5.6,15.5,11.4,34.6,16.7,50.2c4,13.3,9.3,31.9,13.2,45.2
			c0,0,1.5,5.7,1.5,5.7c35.8,132.4,52.6,270.1,50.2,407.2c-2.8,156.6-29,313.3-80,461.4c50.6-148.3,76.3-304.9,78.6-461.5
			c1.9-136.9-15.3-274.4-51.4-406.5c0,0-1.5-5.7-1.5-5.7c-3.9-13.1-9.4-32.1-13.3-45c-5.2-15.5-11.3-34.9-16.8-50.1
			c-3-8.1-9.3-25.5-12.1-33.1c-71.3-186.4-182.3-357.2-320.4-501c-235-244.1-551-398-887.7-435.1c-22.4-2.6-47.6-4.8-70.1-6.2
			c-38.9-2.5-78.2-3.7-117.1-3.2c-62.5,0.7-125,5.4-186.8,14.1L1521.5,289.8L1521.5,289.8z"/>
	</g>
	<circle class="st1" cx="2299" cy="3094.1" r="39.2"/>
	<circle class="st1" cx="2461.9" cy="3021.8" r="45.3"/>
	<circle class="st1" cx="2618.4" cy="2919.2" r="53"/>
	<circle class="st1" cx="1393.8" cy="316" r="35.6"/>
	<circle class="st1" cx="1229.7" cy="366.3" r="43.8"/>
	<circle class="st1" cx="1075.6" cy="436.8" r="53"/>
</g>
</svg>
