<?xml version="1.0" encoding="UTF-8"?>
<svg id="Layer_2" data-name="Layer 2" xmlns="http://www.w3.org/2000/svg" viewBox="0 0 3271.04 5000">
  <g id="_10_Hand_Drawn_Floral_Wedding_Monogram_Frames_Elegant_Botanical_Logo_Set_Minimal_Wedding_Crest_Design" data-name="10 Hand Drawn Floral Wedding Monogram Frames, Elegant Botanical Logo Set, Minimal Wedding Crest Design">
    <g id="Blush_Botanical_Leaf_Wreath_Monogram_Design" data-name="Blush Botanical Leaf Wreath Monogram Design">
      <path d="M3253.56,3060.69c-42.88-15.42-99.89-20.77-141.98-3.14-13.67,7.81-26.08,6.68-38.52.93-41.66-21.3-87.93-28.88-131.55-42.4,77.31-35.39,326.65-61.78,318.25-166.9,7.25-71.03-54.76-73.37-98.83-36.13-47.52,37.64-42.06,122.15-106.62,142.37-59.43,21.68-121.4,35.83-184.27,43.33-.9.08-3.68-4.85-3.03-5.99,15.61-22.7,24.56-53.23,47.96-68.99,42.81-23.16,76.1-73.19,77.6-122.41,5.34-34.8-37.92-68.71-68.21-45.75-41.92,32.66-50.11,92.63-38.61,141.86,2.46,5.75.71,16-3.14,21.25-34.78,73.38-76.58,104.17-159.26,105.66-98.07,9.01-199.38,23.03-297.06,13.64,56.21-48.87,128.01-86.59,185.31-137.77,59.83-46.15,130.96-86.05,172.11-151.12,46.66-60.24,45.33-198.02,98.12-227.62,23.32-16.52,52.76-18.37,74.62-37.74,4.14-3.83,13.23-4.06,19.74-3.3,66.53,7.72,218.3,27.05,204.03-77.32-52.67-88.91-163.24-4.15-216.94,43.27-44.97,19.28-121.07,94.26-78.24-5.83,23.45-84.73,110.56-128.88,126.68-215.69,4.54-18.35,1.13-35.68-11.79-51.45-41.36-62.84-111.75,30.06-116.24,71.72.91,105.44-27.59,204.89-63.8,302.78-68.62-95.89-4.98-238.04-106.08-314.12-79.66-51.89-79.62,97.11-46.79,136.92,158.91,116.17,173.85,279.68,34.73,420.84-95.13,80.33-201.18,152.84-302.89,224.32-1.28.54-6.21-3.07-6.02-4.19,6.17-43.44,18.74-87.16,19.52-130.91,6.82-62.82,65.29-105.31,95.98-158,50.62-22.49,95.74-53.26,106.93-111.09,11.87-35.81-22.06-67.26-53.21-79.43-24.03-2.15-43.77,28.64-57.8,44.75-47.11,97.12,15.95,114.13-82.77,219.85-23.05,18.08-12.19-59.62-17.27-72.8-26.89-105.24,37.65-221.91-23.03-318.19-40.7-50.66-106.6-37.85-105.51,31.05,8.92,166.02,119.17,76.75,104.61,356.18-26.03-20.85-50.07-50.61-66.99-79.36-8.52-32.82-23.39-61.59-49-84.27-29.93-28.38-66.64-61.23-100.65-18.79-14.12,12.74-24.4,27.69-17.95,48.08,23.49,99.69,115.72,50.5,169.52,97.86,91.62,77.94,82.11,149.75,51.3,256.09-58.12,93.17-175.88,125.55-269.39,172.74-21.97,8.87,3.03-61.46,6.8-72.76,20.95-71.19,34.87-151.77,90.52-206.38,46.91-7.9,68.85-15.57,102.41-53.37,26.5-22.55,13.76-76.66-23.1-77.19-83.05,6.75-101.64,100.78-144.92,155.96-14.35-82.26-50.73-161.02-66.12-243.68-5.64-45.32-15.41-89.14-38.51-129.66-57.44-86.17-130.07,18.08-70.46,76.23,68.5,78.08,133.46,160.35,143.58,267.36-.07,10.21,12.15,87.5-4.9,73.17-47.04-45.83-194.67-285.91-262-204.61-41.27,188.42,151.11,57.84,249.18,227.55,40.21,54.54-7.82,131.94-22.07,190.17-24.38,50.6-102.51,77.11-150.9,101.32.14-78.16,48.68-149.35,25-227.67-1.99-52.66-83.31-75.98-91.08-14.19-12.83,63.86,32.66,109.16,41.5,167.95,6.9,129.22-75.92,134.98-164.53,194.11-63.53,42.89-123.29,91.62-188.33,132.53-27.14,22.66-2.95-111.97-6.43-132.4,9.93-148.83,6.23-301.77,22.58-449.19,102.75-139.36,213.33-275.46,307.9-419.69,65.59-58.53,140.14-107.14,220.39-144.07,20.06-8.37,44.68-5.12,60.6-24.12,17.77-27.92,57.14-49.48,56.7-84.84-2.03-30.97-15.28-78.9-55.8-61.92-80.15,26.99-64.97,128.04-125.49,173.67-18.51,5.87-129.66,100.59-111.31,42.92,15.95-40.99,12.64-90.03,38.48-125.83-1.25-74.8,72.12-129.5,61.76-204.77-6.42-26.68-6.51-56.09-39.76-69.08-21.2-8.28-41.88-2.34-46.63,20.05-37.13,118.57,39.29,217.57-27.32,331.12-48.15-67.77-58.81-162.72-97.71-233.41-20.54-52.84-101.48-98.21-110.35-15.33,11.24,62.87,41.71,110.77,106.54,130.89,60.24,29.41,64.43,116.12,83.11,174.08-34.54,83.77-95.09,164.39-148.28,237.71-19.99-93.67,50.3-230.34-55.03-290.28-47.84-16.44-51.39,51.31-51.84,82.95.54,60.82,68.16,99.03,79.42,160.96,15.42,113.36-86.6,195.22-148.16,277.84-27.83,17.87-20.73-188.6-27.76-216.47-68.4-417.45-39.38-421.02,214.2-754.58,21.12-32.05,52.14-43.81,86.14-55.54,181.82-89.52,170.53,163.59,281.36,156.07,82.19-33.05-48.68-137.87-94.89-147.13-22.84-9.85-40.77-30.09-58.03-47.42,77.44-13.91,157.34-28.72,236.73-23.91,21.63,3.37,43.46,3.89,64.18-4.76,72.56-16.86,79.61-89.12,8.22-112.44-82.31-14.71-126.29,88.16-201.02,98.35-36.24.44-72.2,18.07-108.08,12.98,54.1-32.45,108.53-73.41,124.58-138.3,13.27-48.63-54.18-68.82-82.55-35.69-68.57,65.32-15.22,171.1-141.17,200.74-25.54-.39-38.48,29.49-62.97,28.47,77.09-90.97,123.69-204.04,172.92-311.77,53.68-108.6,39.49-140.64,154.32-207.65,3.86-2.71,10.11-6.72,12.99-5.34,40.78,4.6,82.2-17.4,118.44-35.92,82.24-55.16-5.51-153.58-66.61-71.34-9.61,19.17-137.11,160.44-145.85,126.85,4.48-42.86,6.71-86.49,9.33-129.26,14.22-64.89,93.53-237.77-37.28-211.41-60.54,26.2-30.22,103.35-13.22,149.38,37.5,52.62,14.42,109.33,3.03,166.85-1.33,6.38-4.21,13.45-11.41,6.17-52.94-56.46-48.78-150.1-123.99-190.09-67.07-47.19-110.54,57.74-61.09,100.16,37.29,43.76,98.8,38.18,141.33,72.34,60.99,52.86,29.02,142.12.25,203.08-57.05,140.41-135.26,273.52-231.36,389.74-14.29-117.61,32.9-184.84,71.56-288.2,22.08-33.03,41.05-65.09,41.86-105.98,21.4-117.25-176.65-111.72-84.94,91.02,3.56,38.32-16.7,75.76-27.26,112.01-20.64,32.2-40.39-75.45-44.97-89.74-11.83-230.25-172.65-197.36-109.25-84.24,46.3,57.12,107.68,110.41,114.25,187.28-63.54-23.84-85.55-97.58-154.54-114.7-46.5-17.53-97.27,6.6-65.85,60.51,45.36,91.98,207.58-15.77,231.17,127.68,2.74,72.05,8.52,144.69-42,203.21-68.66,73.38-113.49,163.65-162.6,250.51-2.95,5.15-10.55,22.02-14.04,8.47-33.91-204.99-78.35-409.13-137.51-608.8-30.68-98.55-88.98-189.88-96.28-293.89-17.06-165.36,59.87-368.38,236.67-409.25,41.92-13.89,85.36-13.86,125.24.65,7.35,13.84,22.39,13.92,34.16,19.76,46.67,20.18,86.02,56.48,139.89,51.45,18.35,1,23.06-19.45,36.45-27.26,26.93-17.52,15.81-56.53-12.42-66.78-86.54-23.44-173.35,20.94-259.66-14.49-1.11-.23-2.58-6.05-1.88-6.57,37.4-32.6,86.14-47.38,119.73-84.93,7.26-8.85,16.89-18.56,31.98-15.24,36.12-18.71,76.58-34.99,105.63-66.23,59.34-63.8-6.59-159.65-71.85-84.98-12.05,11.86-27.75,23.51-32.76,38.32-23.21,80.29-73.09,147.66-150.32,180.96,21.08-57.1,27.19-118.33,37.74-178.72,10.1-41.16-35.36-100.82-73.94-71.09-65.58,64.61,20.6,152.03,15.03,224.2-7.09,88.17-116.27,90.51-172.09,138.78-27.89,2.96,54.45-175.98,57.65-203.29,8.65-70.83,29.6-142.23,17.56-213.73-15.87-77.4-9.05-152.88,19.01-226.62,38.77-87.08,138.07-179.55,68.02-277.94-59.9-70.86-105.99,76.42-85.76,122.68,23.32,68.48,2.01,143.27-24.75,206.74-42.02-123.82-85.8-249.99-136.12-372.08-36.9-81.39-123.5-60.85-100.43,26.9,32.74,67.52,107.49,101.29,140.26,167.73,24.29,53.9,52.03,109.68,61.38,167.97-18.79-11.09-36.53-29.07-52.2-43.8-25.86-47.38-70.99-80.3-117.86-105.53-25.75-14.78-85.68-31.85-97.92,5.27-5.66,30.11-2.07,67.79,29.58,83.67,74.62,33.34,174.22.93,223.74,80.58,100.92,167.82,22.78,398.04-44.36,566.08-24.66-73.56-63.05-142.5-94.13-213.9-4.22-68.03-13.02-156.77-89.17-180.56-91.35,9.08-20.65,129.09,23.22,159.87,50.56,43.94,80.73,106.92,107.79,166.38-54.83-24.64-99.13-65.87-141.83-107.03-30.35-32.82-126.17-45.57-102.61,23.94,23.39,42.25,69.05,83.25,119.67,66.95,59.64-7.33,142.94,36.77,148.65,103.01,8.45,55.44-13.88,103.98-32.14,154.84-22.4,55.95-30.4,115.33-43.4,173.66-68.67-155.83-156.09-305.42-254.81-445.9-50.62-77.45-136.96-139.18-148.21-235.91-13.51-68.85,23.38-131.23,84.93-161.01,44.3-9.72,90.07-22.25,122.56-57.08,12.68-14.17,20.67-34.38,30.13-51.25,16.41-35.89-19.22-129.42-66.93-97.8-23.51,23.85-49.76,41.31-58.53,75.43-18.69,65.14-62.52,117.41-113.13,160.31-3.59-76.8,17.04-155.71.25-233.03,6.31-38.5,17.7-76.52,16.67-116.3,1.99-71.21-99.13-104.34-95.9-15.28,26.88,134.09,86.46,118.81,58.3,299-41.72-41.84-59.34-102.88-85.18-155.36-13.77-29.09-39.94-39.73-69.73-44.1-8.87-1.3-15.73,2.28-17.43,10.79-20.72,58.04,18.58,113.07,72.89,130.66,102.61,34.36,107.24,159.73,87.98,249.65-1.43,8.8-5.7,10.04-11.36,2.46-55.04-70.92-126.9-128.56-186.05-195.78-73.77-85.4-196.74-149.22-204.68-273.42-9.25-55.9,17.91-144.02-42.15-177.6-85.2-11.6-74.73,107.44-32.26,149.7,38.69,42.17,60.7,95.22,86.23,144.37-58.84-34.29-120.98-70.05-176.63-109.85C147.45,144.14,90.23,59.51,15.3,97.89c-64.21,93.53,90.62,118.45,151.52,140.83,66.58,20.76,122.97,66.49,177.72,107.73-37.88-2.66-77.03-4.48-114.06-10.62-30.54-17.45-67.56-25.17-101.78-30.45-29.5-4-109.1,17.64-95.28,58,3.78,31.38,49.59,57.51,77.47,47.5,45.84-16.24,89.92-42.7,138.25-50.16,136.61-14.91,243.78,76.64,330.82,169.99,115.29,116.03,226.16,246.1,312.27,383.58-71.15-9.16-140.29-33.15-212.97-31.35-87.49-6.47-187.92-64.7-228.87-142.64-16.54-35.83-41.52-60.59-76.2-77.96-46.72-24.27-103.96,22.42-77.65,69.81,31.49,44.58,92.13,50.43,138.41,73.41,40.94,14.25,72.46,46.87,107.12,71.97-51.14,6.42-103-10.91-154.95-4.85-30.06.91-59.98-.6-85.42-22.57-43.49-37.56-95.09-38.46-147.47-25.67-82.24,29.68-5.35,133.32,53.8,116.74,94.83-39.95,201.08-54.35,301.69-34.18-57.01,50.83-135.91,52.39-193.02,101.04-40.24,28.7-27.04,107.26,27.33,101.54,79.58,1.72,78.34-83.75,112.9-135.11,96.31-114.49,261.5-52.34,387.86-39.54,68.52,8.23,108.39,65.55,146.75,116.21.71-.4,1.42-.79,2.12-1.19,227,393.31,387.97,835.04,429.76,1288.72-53.71-51.98-93.3-119.95-144.61-175.54-40.89-48.47-96.1-88.17-120.28-148.32-38.16-115.3-94.94-238.07-53.52-360.26,3.53-75.79,102.65-120.7,65.65-199.41-10.73-24.06-24.1-47.27-54.39-49.81-76.99,10.71-36.08,113.65-31.03,165.1,6.24,46.79-13.61,202.96-57.95,82.47-15.99-46.82-43.17-92.54-34.16-143.88,2.88-31.24-14.12-61.54-14.79-92.46-2.04-33.87-25.66-51.13-47.05-70.32-30.96-25.66-81.7,9.15-68.12,46.87,8.66,44.48,36.58,80.77,69.05,110.7,18.71,16.9,19.69,45.96,42.44,59.8,16.08,41.06,28.96,84.69,44.4,126.38-36.5-18.94-80.2-32.85-107-65.2-11.31-28.58-31.39-49.48-56.27-65.43-37.08-36.71-144.57-47.34-108.89,31.55,29.58,55.46,102.57,85.87,153.45,78.41,49.04-3.15,87.31,37.76,122.68,66.86,27.6,25.69,43.38,54.53,49.45,91.66,9.1,58.24,35.72,113.86,47.1,171.04-156.67-123.21-321.88-249.13-454.17-400.74-35.68-45.99-103.04-74.94-107.64-138.75-2.18-43.57-24.54-86.9-12.52-130.99,18.17-51.98,22.72-119.05-16.09-162.99-33.87-38.05-93.63,8.49-76.16,52.2,23.76,81.42,81.73,153.27,78.5,240.84-55.76-37.45-113.9-77.85-160.23-126.98-26.57-66.13-106.65-189.7-187.38-127.85-34.73,56.27,29.99,101.95,73.56,124.27,32.38,17.4,72.52,13.25,102.47,36.47,52.76,41.63,117.03,76.72,154.07,133.63-90.37,10.71-167.73-58.9-257.01-41.26-21.06,1.14-27.2,22.34-35.07,38.34-19.04,38.37,21.76,56.53,50.47,68.69,65.18,36.99,130.06-15.56,185.44-43.33,26.93.63,53.8,4.66,80.67,7.62,87.88,70.11,154.84,168.7,244.35,239.78,89.73,80.23,187.74,150.58,276.62,231.85-243.99-12.95-238.4-43.29-372.1-230.4-133.39-102.19-186.82,64.68,34.69,128.06,35.09,10.06,54.07,42.66,77.24,68.2-9.14,18.62-109.15-4.71-135.85-2.04-64.44-.91-102.18-63.74-161.62-79.37-99.96-7.9-146.35,61.27-44.52,112.56,63.77,25.38,129.5.86,194.16-7.26,36.34,9.19,77.41,1.58,112.73,13.01-3.19,7.11-4.76,18.23-13.78,19.91-44.69,21.11-85.56,51.38-130.98,72.73-49.66,27.45-31.06,96.08,18.71,111.23,60.31,30.86,93.85-53.65,112.02-98.74,4.72-36.32,17.33-83.37,59.36-90.89,103-20.94,209.66,11.53,311.3,29.72,88.45,68.09,150.15,170.8,229.66,248.51,36.22,51.98,89.77,98.28,100.52,163.19,14.4,91.48,27.16,183.72,27.33,276.88,17.13,261.75,21.02,525.54-15.53,785.77-47.79-63.59-78.96-142.19-124.44-208.71-11.32-17.61-14.28-35.86-16.49-54.25,1.75-69.75-36.1-161.53,3.16-222.22,22.82-37.28,56.48-62.93,94.45-83.52,43.79-25.64,38.11-95.9-14.07-107.63-85.47,15.93-51.15,126.2-115.22,177.06-56.12-156.67,22.79-115.45,8.49-258.67-40.16-138.99-116.67-89.92-110.25,30.29,1.25,78.86,73.45,137.73,67.15,218.22-7.35-6.95-18.84-11.74-21-22.46-8.39-50.16-35.39-90.13-69.3-126.15-36.85-42.96-100.25,14.62-67.65,56.89,27.61,40.18,66.25,65.06,111.14,83.45,77.11,51.56,92.59,153.38,75.8,238.31-83.93-100.91-161.44-212.8-264.91-298.85-78.67-64.44-88.85-158.62-91.27-254.24,4.1-23.11,5.52-49.39,14.01-71.46,23.31-32.76,32.35-88.22,73.01-102.2,61.03-36.66,144.21-86.43,90.29-165.77-10.35-21.8-12.23-19.87-36.44-16.79-119.47,18.85-72.49,182.34-141.19,250.36-21.86-58.29-39.42-125.93-33.13-189.4,3.07-60.19,32.59-129.85-29.52-170.25-47.44-29.51-77.59,24.71-71.59,66.59-.21,45.26,31.56,81.88,50.37,121.41,17.05,25.47,35.02,49.01,29.07,82.82,8.12,29.88,22.08,58.66,22.5,89.98-60.57-39.23-57.87-117.15-110.67-162.79-62.01-54.93-102.88,36.68-65.6,82.57,32.43,33.98,78.44,38.32,118.32,56.34,23.12,27.75,60.77,48.72,64.25,87.49-.93,68.61,9.64,137.33,18.87,205.34-147.29-67.01-362.34-286.1-381.47-452.82-10.99-67.27,65.5-154.78-4.99-204.64-82.23-61.17-92.41,54.66-68.32,109.91,20.65,70.82,60.02,134.18,72,208.32-46.54-24.37-90.46-66.07-127.11-104.84-21.69-22.84-50.33-36.99-65.18-65.85-35.93-46.04-93.75-139.65-159.84-100.83-111.2,67.82,45.79,153.85,119.65,150.01,68.01,3.27,119.73,63.16,166.68,105.24-75.96,3.32-145.8-20.26-219.94-29.07-49.62-3.46-108.93,48.77-57.78,89.41,78.05,88.73,157.49-42.84,240.51-39.19,82.63.24,139.47,64,190.91,121.23,63.33,74.22,133.65,141.29,211.03,200.78-350.09,74.82-172.95-99.27-346.07-159.47-50.2-6.15-66.48,57.41-38.89,91.09,39.69,78.78,106.36,60.39,166.59,96.97-49.23,14.95-155.87,51.44-201.2,29.34-55.39-31.9-139.5-37.12-183.41,14.56-5.87,21.07-29.94,50.82-8.72,69.16,33.4,26.81,72.42,53.42,116.39,38.51,119.83-14.37,104.51-94.63,233.6-104.06,17.98-2.98,36.79-.5,53.21-11.37,2.35-1.55,6.97.32,10.54.6-41.22,130.51-159.42,121.81-151.85,217.61,2.61,51.41,68.62,73.66,99.25,30.15,70.34-58.79,11.37-137.41,77.53-221.37,8.6-22.8,25.83-31.15,46.65-34.57,57.8-1.22,137.62-40.16,188.65-12.32,72.85,49.68,139.34,106.15,191.72,177.85,57.15,72.01,129.03,137.4,171.52,218.59-51.71-15.93-105.71,3.55-156.69-7.74-72.79-28.52-99.09-124.34-176.93-141.64-17.92-2.56-38.02,3.05-44.96,15.3-38.44,71.83,77.76,116.97,134.68,114.59,17.96-3.04,66.44,17.8,56.72,37.3-40.42,14.36-79.4,27.14-122.56,18.86-257.26-24.76-176.74,263.16,26.19,67.17,27.6-29.21,52.46-55.42,93.95-59.42,3.95-.93,12.03,1.58,12.92,4.24,1.48,45.81-61.65,63.52-70.95,108.48-47.79,75.26,3.74,138.07,68.47,60.96,62.72-40.25,27.87-120.34,54.29-174.52,20.54-27.95,55.22-33.6,89.06-24.66,62.98,6.12,101.71,47.37,128.42,103.3,132.91,193.87,99.22,201.52,59.1,417.21-75.83,307.76-179.48,608.75-307.71,898.31-34.34,70.93-64.2,143.6-98.38,214.32-9.45,22.29-1.57,77.1,28.84,64.74,80.68-115.45,139.63-249.35,181.57-385.04,76.21-196.72,131.76-401.18,190.2-603.97,33.5-115.65,60.13-233.28,91.19-349.44,26.22-73.4,108.31-105.29,164.49-153.04,82.77-51.67,155.04-129.42,250.5-155.92,74.02-8.83,176.73-23.44,220.74,51.72,29.49,44.35,17.36,99.06,40.54,146.31,13.54,39.3,65.37,84.08,105.16,53.59,37.86-53.88-35.54-116.93-64.78-160.35-24.47-27.48-63.7-43.71-75.44-81.2,45.82,2.79,94.68,15.51,138.97,26.99,9,18.73,32.32,15.24,45.41,28.77,46.24,52.03,118.76,126.58,181.02,50.64,12.76-15.47,6.49-45.02-14.05-59.95-56.39-56.54-138.79-43.48-210.31-44.47-111.24-28.57-226.49-40.87-341-41.82,95.42-52.76,191.9-107.75,289.63-156.72,51-23.71,94.5-72.6,151.22-79.17,97.51-11.75,196.37-.92,294.38-13.97,98.15,3.18,193.98-44.33,290.43-18.08,88.45,15.03,138.25,108.55,233.53,100.88,47.99,11.19,97.92-66.27,53.11-93.27Z" fill="FRAME_COLOR"/>
    </g>
  </g>
</svg>