<?xml version="1.0" encoding="UTF-8"?>
<svg id="Layer_2" data-name="Layer 2" xmlns="http://www.w3.org/2000/svg" viewBox="0 0 5000 3519.47">
  <g id="_10_Hand_Drawn_Floral_Wedding_Monogram_Frames_Elegant_Botanical_Logo_Set_Minimal_Wedding_Crest_Design" data-name="10 Hand Drawn Floral Wedding Monogram Frames, Elegant Botanical Logo Set, Minimal Wedding Crest Design">
    <path id="Classic_Laurel_Wedding_Crest_Monogram_Logo" data-name="Classic Laurel Wedding Crest Monogram Logo" d="M4988.34,1854.91c-9.54-3.73-19.19,2.73-26.91,7.89-66.19,45-143.66,68.11-218.06,95.4-69.28,25.68-136.99,62.01-193.33,109.42-2.16-.16-3.77-2.26-4.13-4.4,12.17-64.92,50.86-123.16,49.53-191.2-1.7-40.51,37.16-64.2,68.12-82.7,16.8,20.37,26.24,44.34,55.45,42.8,33.67.24,67.43-1.57,101.01-4.03,55.12-2.73,98.43-48.48,125.81-89.84,9.77-36.19-.62-89.59-33.47-112.06-70.72-28.13-161.36-.02-210.38,57.05-27.49,39.54-57.46,75.45-101.4,97.49-2.55-38.6,21.17-68.54,3.29-103.96-15.29-47.84,57.22-48.68,82.61-72.32,103.69-87.96,157.46-226.34,175.2-358.23,1.8-30.61,24.95-122.25-17.32-127.79-8.26,1.33-15.25,4.32-17.42,13.36-18.57,37.34-56.11,64.69-84.94,94.76-84.57,72.77-122.61,187.09-165.4,284.71-13.46-44.17-10.82-89.07-16.01-134.45-3.1-38.48-26.12-96.13-38.09-129.55,9.54-7.86,21.94-5.92,33.65-6.4,45.22-1.85,83.1-16.21,110.58-47.82,22.24-32.26,62.08-59.93,63.39-102.22,6.19-55.76-59.27-124.81-109.93-77.48-44.88,57.91-104.84,104.23-130.97,174.34-28.88-37.18-38.32-85.2-5.43-123.34,27.74-50.46,55.3-105.28,62.45-162.41,7.17-48.14,3.87-96.43-12.58-142.87-10-26.1-55.97-145.11-79.58-70.77-6.46,36.98-16.59,68.92-41.57,98.09-35.18,41.35-49.65,86.01-66.47,135.18-77.15-104.35-232.59-200.54-27.73-275.38,71.98-28.84,120.65-152.05,37.02-197.34-68.37-42.4-146.75-34.56-190.67,36.48-27.32,38.01-26.55,88.47-37.61,130.07-6.25-1.61-7.7-5.46-9.75-10.32-12.95-35.46-11.57-70.49-1.33-106.56,5.23-36.97-3.01-72.98-10.12-109.2-10.28-52.38-35.92-98.29-75.96-138.64-48.68-41.25-82.95-103.81-144.57-126.32-14.54-6.47-31.17,2.74-20.91,19.01,33.42,67.36,12.86,136.15,5.95,206.32-1.77,35.76,9.21,69.19,10.2,104.26-80.85-39.44-101.98-123.71-127.48-202.38-24.37-78.15-150.29-133.23-219.09-177.89-26.08-14.31-165.23-71.87-183.9-54.45-4.73,7.34,3.29,11.91,8.05,16.96,39.62,44.11,66.4,99.28,97.74,149.18,103.44,197.66,204.1,111.66,312.83,227.97,26.25,28.71,61.83,46.92,82.81,79.83-94.03-29.93-189-38.92-287.18-38.61-16.82-2.28-32.18,15.78-15.51,26.85,32.64,29.17,64.4,60.07,101.67,83.66,91.11,50.34,199.57,64.1,301.06,83.86,21.91,3.37,44.05,8.21,65.73,11.53,52.58,2.44,119.14,53.93,115.86,109.76-39.25-24.38-84.02-34.41-130.08-33.46-96.67,4.07-198.77-60.64-290.68-13.19-64.32,19.51,174.61,105.94,192.64,112.74,51.24,17.59,105.42,23.77,159.27,26.21,55.03-5.34,113.18-10.78,163.75,16.19,18.77,19.51,35.83,41.53,45.69,66.83,12.1,22.55,33.96,40.31,40.08,65.52-99.3-56.61-211.78-71.03-323.33-50.58-11.92,2.15-44.92,6.58-36.37,23.71,39.32,4.35,66.15,30.74,95.37,54.23,18.39,12.69,37.29,24.94,54.75,38.52,61.06,58.98,151.98,61.87,229.27,87.12,84.87,33.69,113.32,33.59,149.23,124.38,37.81,60.73,18.66,128.1,27.07,194.12,12.16,94.07,52.99,190.51,34.49,285.36-78.53-120.97-45.91-288.43-169.2-381.94-22.05-22.38-179.64-115.23-197.84-88.09-10.67,14.7,3.58,30.66,12.89,41.99,43.4,56.59,15.26,146,68.38,198.13,36.21,37.37,91.41,56.27,125.09,95.46,26.73,40.48,66.07,72.6,96.55,110.9,25.63,43.77,56.96,92.53,61.08,144.09-6.31,56.72-43.6,106.84-56.11,163.19-22.18,70.81-27.36,143.79-65.89,209-29.13,59.03-76.37,88.48-142.35,79.03-38.35-2.62-11.89-59.85-10.31-83.61,73.83-106.29,34.49-240.16-27.69-343.42-30.42-45.77-29.43,50.13-38.61,66.42-17.73,44.23-39.93,88.21-38.68,137.32-3.1,139.54,70.16,135.7,49.04,223.27-2.18,12.61-8.71,23.97-22.6,28.7-64.27,32.84-141.02,121.15-70.39,186.01,14.12,13.63,13.25,29.74,6.65,41.91-10.18,26.75-24.39,50.43-47.18,68.54-28.77,30.32-46.29,68-76.38,97.07-63.94,47.47-121.3,98.97-199.26,125.23,63.44-89.55,182.09-139.61,212.06-248.61,22.25-50.14,5.14-94.61-12.18-143.72-18.92-36.04-53.99,48.65-70.05,59.31-39.36,52.72-104.55,103.36-92.11,175.8,1.69,13.22.4,28.08-5.14,40.35-17.95,36.05-34.66,74.72-57.31,108.12-47.77,38.04-99.59,69.48-153.67,97.79-35.76,13.13-149.78,69.97-178.19,48.77,27.06-73.25,203.92-77.04,252.13-176.81,29.54-53.9,54.6-132.28,33.46-190.07-68.57-121.39-54.09-42.4-97.94-.2-34.34,36.42-74.81,69.31-100.42,112.68-44.45,92.89-71.09,200.39-162.35,260.46-72.33,66.36-78.68,37.64-164.15,41.87-87.22,5.51-166.85,37.91-255.86,24.46,64.74-39.79,117.21-85.14,185.19-120.41,32.82-18.23,64.1-39.34,86.88-67.38,27.3-36.18,81.75-98.31,42.21-139.32-7.86-2.23-15.62,3.18-22.14,8.08-27.52,20.67-58.2,35.47-88,52.27-74.77,36.91-146.47,83.3-194.63,151.14-95.21,152.52-293.2,186.64-461.07,168.8-80.77-10.67-163.53-28.72-243.48-29.64-46.23-.53-92.5,2.41-138.75,3.57-36.19,3.89-21.96-47.19-43.01-67.24-63.04-65.34-99.74-127.59-199.41-137.79-40.18-7.15-81.36-10.96-119.58-25.27-30.64-15.4-50.72,5.55-32.75,35.99,27.84,52.09,73.23,87.77,113.64,128.86,5.3,5.38,9.34,12.9,7.79,20.3-4.06,19.42-34.84,7.39-46.44,5.95-55.74-6.25-112.01-8.14-166.73-21.46-69.99-22.45-219.44-39.32-136.04-141.76,69.12-109.72-86.36-220.75-163.07-115.35-27.07,71.22,35.02,128.62,64.84,190.11-252.03-87.44-111.74-94.02-129.68-275.26-14.12-86.58-57.69-167.96-123.32-227.07-13.9-13.27-100.59-110.24-106.34-65.05,5.33,83.71-4.56,166.58-13.18,249.7-2.49,48.82,21.96,89.21,45.2,130.76-45.67-17.9-72.01-56.48-111.32-83.18-30.17-27.22-108.35-75.39-79.66-122.43,63.42-88.41,127.25-162.18,6.8-241.04-78.85-40.39-153,28.28-133.95,110.89,2.89,13.14,4.68,26.67,2.14,43.57-290.46-338.82-80.75-224.07-75.25-479.73-3.72-72.42-42.55-136.35-73.73-199.8-24.26-26.93-37.62,37.23-42.49,51.34-12.26,42.2-40.52,77.9-54.3,118.88-5.02,22.63,8.56,63.69-21.98,69.62-34.35-17.95-31-75.7-41.39-109.37-20.94-79.51-7.58-162.08-17.22-242.49,9.21-51.06,103.99-33.17,143.68-114.66,40.06-79.34-41-159.86-116.03-100.85-18.13,2.14-7.76-43.4-6.67-52.83,1.87-16.21.93-35.03,4.27-50.74,27.95-56.28,84.41-97.16,123-146.88,32.75-52,88.89-17.47,136.13-13.08,70.81,8.98,187.51-47.62,157.31-131.7-17.13-57.04-77.62-64.3-128.97-65.17,31.35-32,62.87-67.82,68.91-114.7,14.25-61.6-48.67-90.68-95.54-62.2-32.92,27.64-58.85,67.95-61.56,111.86,1,62.22,53.75,79.4-7.45,137.3-54.69,33.47-77.47,100.91-125.21,140.6-5.6,1.28-10.79-4.5-11.16-10.24,25.42-72.14,57.27-143.56,75.24-218.89,26.5-99.47,94.69-180.61,154.78-261.87,44.91-61.14,80.69-131.48,142.36-178.08,22.92-16.75,44.57-34.61,63.36-56.04,29.59-47.44,117.32,46.81,236.01,12.65,26.59-12.41,76.13-27.23,69.37-64.11-10.88-4.75-25.97.69-37.47-5.98-40-29.95-88.51-8.01-134.29-13.16-30.64-18.55,83.75-55.38,97.2-61.3,48.92-14,94.91-33.55,135.74-64.8,95.44-57.36,104.26-169.4,159.88-255.58,12.73-18.87,71.58-108.83,12.2-80.05-81.58,66.45-198.28,70.11-282.95,125.08-245.12,169.52-128.39,272.26-379.9,415.27-10.04-34.84,5.87-74.39-11.22-109.45-10.14-20.46-67.5-175.88-90.72-124.59-33.64,113.7-110.09,210.88-137.27,326.26-11.94,220,73.7,139.64-60.86,390.62-10.54,6.25-12.23-14.83-14.32-20.43-6.93-18.51-12.49-38.33-23.36-54.4-26.48-39.15-62.17-69.94-98.89-99.35-39.66-28.17-34.42,44.01-35.13,66.4,1.32,94.79-51.85,225.15,28.73,297.47,54.58,50.58,44.2,130.63,24.82,194.27-6.45,51.09-14.91,96.4-29.51,147.39-10.42-97.94-60.82-186.56-137.13-248.45-18.28-17.33-91.78-43.43-79.89,3.48,42.5,70.58,71.91,150.49,71.24,233.98-2.92,72.13,33.77,138.57,80.39,190.5,14.81,11.36,26.04,25.24,31.65,43.34,64.73,119.85,20.41,232.16,87.02,355.15-14.32.03-14.64-14.13-20.74-23.35-21.2-30.29-21.24-68.03-38.91-99.6-94.14-127.79-213.18-246.59-356.91-316.98-23.66,7.1,21.86,65.12,25.47,80.76,51.16,90.46,85.16,192.86,157.24,269.82,43.68,46.24,100.67,72.89,158.77,96.13,35.23,26.55,72.92,50.83,103.83,82.84,34.1,35.88,74.6,66.24,98.26,110.8,10.07,17.56,23.93,36.21,31.85,53.99-4.77.83-9.53-2.44-13.8-4.19-82.68-38.75-226.22-59.08-135.73,74.67,34.37,48.77,120.26,96.25,179.93,86.91,95.33-68.64,190.44,160.78,262.25,201.94,9.62,5.08,38.32,26.64,12.44,30.85-55.65-14.16-109.47-47.13-167.3-54.49-85.13-8.96-172.5-6.59-256.73,9.24-13.53-.06-12.44,15.69-1.34,19.72,31.97,12.89,62.1,28.71,88.39,51.38,57.97,30.68,109.76,83,177.92,86.37,42.69,1.78,82.51-17.63,121.23-33.16,90.62-39.58,162.58-12.94,240.5,38.1-34.22,16.93-76.03,16.34-105.57,46.51-20.82,15.68-44.07,29.45-66.64,42.64-25.78,18.73-139.02,51.31-132.08,83.41,7.91,16.05,28.65,12.45,43.36,10.63,36.12-3.24,70.75,12.85,105.84,22,87.08,20.91,196.36,5.1,257.63-64.93,43-64.84,74.35-2.97,132.09,7.69,34.43,24.92,197.05,14.14,181.22,69.05-55.64,77.79-282.92,42.29-295.36,155.38,2.29,15.06,44.31,7.39,65.53,27.65,130.83,80.45,326.73,42.38,439.77-51.54,21.99-18.27,48.15-51.25,77.63-54.92,40.76-2.85,85.89.44,126.76,7.55-48.96,22.96-87.89,45.26-130.45,76.03-42.05,22.6-98.32,34.73-104.33,91.1-2.24,6.96-2.04,18.17,6.85,19.63,42.43-34.27,53.8-23.52,104.21-33.28,61.58-21.89,126.62-18.34,190.59-24.76,70.58-4.15,118.79-58.52,179.4-84.88,52.37-8.17,111.95-50.29,163.07-23.66-5.65,9.45-14.83,10.68-23.19,13.36-45.25,7.38-81.69,35.37-122.36,54.92-70.72,33.62-123.96,97.86-166.86,161.57-12.79,17.14-26.37,69.44,7.41,68.37,11.32-1.44,23.3-8.13,34.69-7.62,11.35,1.63,16.57-4.1,20.87-12.99,11.68-27.17,36.14-46.25,50.77-71.39,34.57-55.24,107.09-90.45,165.44-115.66,64.51-16.53,119.21-52.09,180.86-74.48,101.84-20.2,193.8,42.96,289.02,66.69,108.14,25.96,139.73,90.12,201.93,166.83,28.38,17.98,49.05,4.15,70.34-15.98,17.2-34.04-63.39-128.37-84.15-161.36-54.41-53.07-139.11-49.71-206.75-77.06.2-1.48.41-2.96.62-4.44,342.43-54.33,465.68,30.26,778.09,87.51,109.04,15.87,228.63,10.92,321.59-54.39,53.27-31.52,114.02-57.04,145.95-113.58,12.85-17.98,24.63-67.96-11.45-60.75-32.81,6.38-66.25,8.09-99.59,8.85-63.45-8.11-121.48,11.56-183.55,18.66-29.17.76-58.53-.53-87.47,3.95-102.39,16.19-208.13,112.99-312.65,57.85-26.67-18.56,5.53-20.14,21.3-18.44,16.5-1.78,33-3.72,49.39-6.36,112.94-38.73,224.22-84.36,337.72-122.49,51.3-23.6,95.31-54.32,152.71-64.94,75.25,12.21,152.57,21.9,228.68,31.59,63.39,9.83,126.37-11.31,181.97-39.26,21.28-10.23,147.58-99.37,102.06-113.54-89.06-6.89-177.42-49.06-268.46-30.98-19.38-.32-52.55,19.31-67.78,8.19-1.62-23.07,25.25-45.18,40.21-61.42,43.64-35.29,98.8-5.43,145.58,6.97,106.32,31.6,235.48-20.17,275.19-127.23,15.14-24.83,10.79-57.93-13.94-75.62-46.75-38.85-110.29-34.5-165.47-15.51-10.1,2.4-32.91,15.63-35.41-2.96-.91-6.78,3.04-13.43,8.24-17.88,44.69-21.52,73.08-61.75,94.52-106.77,24.02-53.38,62.09-99.27,122.71-108.77,94.35-29.77,195.08-60.32,271.26-125.63,45.83-59.03,94.65-114.33,152.21-162.77,31.37-29.37,94.22-117.08,56.57-151.35Z" fill="FRAME_COLOR"/>
  </g>
</svg>