<?xml version="1.0" encoding="utf-8"?>
<!-- Generator: Adobe Illustrator 24.1.1, SVG Export Plug-In . SVG Version: 6.00 Build 0)  -->
<svg version="1.1" id="Layer_1" xmlns="http://www.w3.org/2000/svg" xmlns:xlink="http://www.w3.org/1999/xlink" x="0px" y="0px"
	 viewBox="59 65 303 302" style="enable-background:new 0 0 432 432;" xml:space="preserve">
<g>
	<g>
		<path d="M150.32,105.36C103.61,135.96,83.13,178.54,91,234.2c11.54,54.84,44.46,88.48,99.42,100.39
			c-0.23,2.51-1.99,2.13-3.77,1.77c-28.17-5.69-51.78-19.19-69.99-41.51C94.62,267.82,84.96,236.69,87.9,202
			c2.49-29.32,14.06-54.72,34.94-75.73c7.74-7.79,16.34-14.38,25.73-20C149.13,105.93,149.74,105.66,150.32,105.36z"/>
		<path d="M279.68,104.51c0.52,0.17,1.08,0.25,1.54,0.52c32.84,19.08,53.68,47.03,60.87,84.41c6.99,36.38-0.75,69.78-22.51,99.83
			c-18.57,25.64-43.73,40.91-74.59,47.11c-2.35,0.47-2.35,0.46-3.58-2.18c0.67-0.17,1.3-0.36,1.94-0.48
			c36.2-6.47,63.4-25.9,82.03-57.39c13.58-22.94,19.25-47.9,17.05-74.42c-2.89-34.83-18.11-63.39-45.28-85.41
			c-4.94-4.01-10.53-7.22-15.81-10.81c-0.56-0.38-1.08-0.82-1.61-1.22L279.68,104.51z"/>
		<path d="M216.03,74.8c1.71,7.85,6.65,11.93,14.32,13.4c-7.65,1.8-12.74,5.91-13.94,13.63c-1.77-2.91-3.06-6.33-5.44-8.62
			c-2.41-2.33-5.88-3.56-9-5.33C209.51,87,214.2,82.55,216.03,74.8z"/>
		<path d="M219.53,334.99c1.01-1.79,2.03-3.57,3.16-5.56c5.05-1.17,13.03,2.21,15.79,6.93c1.15,1.96,1.87,4,0.38,6.11
			c-1.51,2.14-3.77,2.65-6.17,2.33c-4.26-0.56-7.57-2.84-10.26-6.1c-1.02-1.23-1.98-2.51-2.97-3.77
			C219.46,334.93,219.53,334.99,219.53,334.99z"/>
		<path d="M212.51,334.97c-0.63,0.8-1.28,1.6-1.9,2.41c-2.84,3.74-6.27,6.69-11.09,7.31c-1.44,0.19-3.09-0.16-4.46-0.71
			c-2.22-0.88-3.36-3.19-2.37-5.34c0.96-2.09,2.32-4.19,4.03-5.68c3.61-3.14,8.17-3.71,12.6-3.72c1.12,2.06,2.13,3.92,3.15,5.78
			L212.51,334.97z"/>
		<path d="M212.46,335.03c0.23-0.15,0.47-0.43,0.7-0.42c2.12,0.1,4.24,0.25,6.37,0.39c0,0-0.07-0.06-0.06-0.05
			c0.87,2.21,1.92,4.36,2.55,6.63c1.04,3.74,0.61,7.4-1.58,10.7c-2.55,3.84-6.54,3.82-8.99-0.1c-2.32-3.72-2.32-7.72-0.97-11.76
			c0.61-1.84,1.37-3.63,2.06-5.43C212.51,334.97,212.46,335.03,212.46,335.03z"/>
		<path d="M213.31,324.18c-1.15-3-2.53-5.94-3.37-9.02c-0.77-2.81-0.41-5.73,0.96-8.4c1.07-2.09,2.74-3.4,5.16-3.39
			c2.52,0.01,4.2,1.41,5.22,3.62c1.42,3.08,1.39,6.29,0.5,9.47c-0.52,1.88-1.37,3.67-2.05,5.51c-0.47,1.25-1.15,1.79-2.66,1.61
			C215.85,323.43,214.56,323.95,213.31,324.18L213.31,324.18z"/>
		<path d="M222.71,328.54c-1.07-1.62-2.02-3.06-3.12-4.71c2.58-4.89,5.92-9.34,12.05-10.66c3.23-0.7,6.13,0.18,7.23,2.06
			c1.16,1.97,0.59,4.71-1.66,7.31C233.32,327.03,228,328.04,222.71,328.54z"/>
		<path d="M213.31,324.18c-1.35,1.27-2.69,2.54-4.54,4.28c-3.57-0.29-7.97-0.92-11.58-3.75c-1.6-1.25-3.08-2.94-3.98-4.74
			c-1.79-3.56,0.21-6.93,4.18-6.87c2.41,0.04,5.18,0.64,7.12,1.96c2.65,1.8,4.67,4.53,6.93,6.89
			C212.11,322.64,212.69,323.43,213.31,324.18C213.31,324.18,213.31,324.18,213.31,324.18z"/>
		<path d="M140.64,320.31c-5.18,6.77-19.34,7-26.58,0.44C119.26,314.17,134.23,313.92,140.64,320.31z"/>
		<path d="M172.33,76.85c1.16,8.54-6.57,19.32-15.5,21.74C152.57,92.13,162.1,78.65,172.33,76.85z"/>
		<path d="M317.88,320.62c-6.34,6.6-20.62,6.51-26.61-0.18C296.81,313.92,311.79,314.03,317.88,320.62z"/>
		<path d="M130.01,95.31c4.45,8.49,0.82,21.93-6.92,26.04C118.09,114.61,121.83,100.29,130.01,95.31z"/>
		<path d="M299.92,334.46c-6.83,5.16-20.91,2.91-26.33-4.11C281.06,324.47,293.42,326.35,299.92,334.46z"/>
		<path d="M333.07,303.28c-6.35,7.86-17.67,10.05-26.09,5.15C310.05,301.14,325.16,298.1,333.07,303.28z"/>
		<path d="M302.03,95.24c7.98,4.9,11.55,18.54,6.9,26.02C300.49,115.65,297.79,104.14,302.03,95.24z"/>
		<path d="M149.92,83.78c2.62,8.92-2.05,19.83-10.56,24.86C134.58,102.61,141.19,86.84,149.92,83.78z"/>
		<path d="M275.32,98.58c-8.69-1.86-16.56-12.81-15.48-21.54C268.94,78.03,278.49,90.67,275.32,98.58z"/>
		<path d="M331.62,275.75c3.43-9,14.44-15.54,22.85-13.68C352.72,270.99,338.6,279.53,331.62,275.75z"/>
		<path d="M282.22,83.73c8.88,3.62,14.7,17.18,10.79,24.88C283.64,103.43,279.32,91.47,282.22,83.73z"/>
		<path d="M77.66,261.98c11.25-1.3,20.41,6.55,22.79,13.87C93.93,278.86,80.7,272.92,77.66,261.98z"/>
		<path d="M158.46,330.31c-5.63,7.18-18.74,9.32-25.91,4.22C136.78,326.74,151.04,324.42,158.46,330.31z"/>
		<path d="M125.04,308.08c-6.95,5.42-20.19,2.97-26.04-4.69C104.95,299.14,118.13,298.99,125.04,308.08z"/>
		<path d="M111.67,110.52c6.17,5.79,4.85,20.44-2.27,26.38C104.47,131.32,103.66,119.63,111.67,110.52z"/>
		<path d="M344.6,283.77c-3.59,8.02-16.83,13.45-24.47,10.15C322.32,285.64,335.78,279.99,344.6,283.77z"/>
		<path d="M288.42,294.85c4.15,7.71-1.49,20.78-10.47,24.25C274.09,313.24,280.62,298.11,288.42,294.85z"/>
		<path d="M320.36,110.51c6.79,6.75,7.81,20.06,2.1,26.47C315.44,130.96,314.28,117.15,320.36,110.51z"/>
		<path d="M154.2,319.17c-8.98-3.65-14.61-16.34-10.9-24.35C150.84,297.11,157.25,311.29,154.2,319.17z"/>
		<path d="M333.46,154.75c-5.94-6.47-4.97-20.79,1.79-26.23C341.32,135.29,340.12,150.11,333.46,154.75z"/>
		<path d="M96.56,128.42c6.86,5.55,7.77,18.94,1.89,26.4C91.93,150.51,90.79,135.34,96.56,128.42z"/>
		<path d="M91.95,256.73c-8.01,1.56-19.26-8.04-20.19-17.12C79.58,238.12,91.19,247.88,91.95,256.73z"/>
		<path d="M360.24,239.34c-1.8,10.97-12.51,18.51-19.94,17.35C339.5,249.11,350.45,239.5,360.24,239.34z"/>
		<path d="M142.42,114.49c7.15-6.69,20.92-5.07,26.34,2.28C162.45,121.78,147.83,120.52,142.42,114.49z"/>
		<path d="M289.51,114.49c-7.09,6.81-19.45,6.81-26.19,2.38C267.57,109.33,283.34,107.9,289.51,114.49z"/>
		<path d="M339.41,208.61c-8.08-1.1-17.34-12.79-16.53-20.87C332.63,188.77,341.15,199.53,339.41,208.61z"/>
		<path d="M87.47,283.63c8.91-3.23,21.33,2.01,24.27,10.24C104.62,297.61,90.44,291.63,87.47,283.63z"/>
		<path d="M135.41,306.53c-8.06-4.9-11.11-18.09-6-25.52C136.94,286.36,139.78,299.93,135.41,306.53z"/>
		<path d="M302.18,280.9c5.65,6.5,2.73,19.93-5.56,25.52C291.95,301.03,295.29,285.7,302.18,280.9z"/>
		<path d="M240.49,331.79c-2.05-7.46,5.73-18.45,14.48-20.63C258.46,318.45,249.4,331.48,240.49,331.79z"/>
		<path d="M119.69,290.34c-7.12-4.71-7.56-20.54-0.71-26.18C123.91,269.3,125.73,283.16,119.69,290.34z"/>
		<path d="M187.48,108.6c-7.48,4.6-21.62,2.02-26.45-4.72C169.9,98.78,182.47,100.98,187.48,108.6z"/>
		<path d="M153.05,345.18c2.8-8.04,17.29-12.72,24.64-7.95C174.92,344.34,161.23,348.76,153.05,345.18z"/>
		<path d="M272.16,304.46c2.72,9.02-4.19,21.04-12.93,22.73C256.49,320.24,263.65,307.55,272.16,304.46z"/>
		<path d="M347.46,148.3c4.48,8.13,1.34,21.77-5.82,25.75C336.74,166.71,339.83,152.8,347.46,148.3z"/>
		<path d="M361.26,192.35c1.5,9.33-5.17,20.43-13.49,22.62C345.07,205.8,353.23,194,361.26,192.35z"/>
		<path d="M92.21,208.6c-0.98-9.73,8.08-20.78,16.74-20.6C109.26,196.42,100.73,206.99,92.21,208.6z"/>
		<path d="M137.16,138.77c-5.62,7.39-18.7,10.78-24.82,6.53C116.29,136.99,129.87,133.36,137.16,138.77z"/>
		<path d="M270.79,103.8c-4.35,6.89-17.45,9.32-25.83,4.81C248.03,101.23,262.46,98.55,270.79,103.8z"/>
		<path d="M356.23,169.63c3.26,8.42-2.1,21.22-10.12,24.19C341.99,187.17,348.07,172.64,356.23,169.63z"/>
		<path d="M362.53,215.98c-0.26,9.67-8.65,19.6-16.83,20.07C343.63,228.31,353.64,216.26,362.53,215.98z"/>
		<path d="M75.67,169.47c8.17,3.13,13.67,16.27,10.25,24.27C78.31,191.67,72.77,178.69,75.67,169.47z"/>
		<path d="M312.7,264.11c7.08,6.22,6.71,21.16-0.54,26.27C306.98,284.3,307.21,270.56,312.7,264.11z"/>
		<path d="M126.2,128.58c4.61-7.49,19.07-8.68,25.86-2.13C146.52,132.42,132.01,133.61,126.2,128.58z"/>
		<path d="M254.05,337.21c7.85-4.61,21.37-0.3,25.03,7.88C271.26,348.73,258.1,344.64,254.05,337.21z"/>
		<path d="M94.95,185.68c0.18-9.18,11.57-17.98,20.37-15.85C114.49,177.61,103.58,186.17,94.95,185.68z"/>
		<path d="M316.45,169.83c9.3-1.98,19.93,6.26,20.54,15.76C329.76,186.04,319.18,180.02,316.45,169.83z"/>
		<path d="M84.62,148.35c7.68,4.78,10.69,18.07,5.92,25.61C83.43,170.5,80.2,156.68,84.62,148.35z"/>
		<path d="M306.55,153.43c8.09-3.81,21.45,2.32,23.13,10.62C323.48,167.64,309.44,161.19,306.55,153.43z"/>
		<path d="M69.47,216.06c7.77-0.55,17.59,10.98,16.94,19.89C79.01,236.89,69.43,225.64,69.47,216.06z"/>
		<path d="M84.23,215.05c-8.47-2.55-14.89-13.29-13.53-22.46C78.27,192.94,86.8,206.96,84.23,215.05z"/>
		<path d="M324.01,228.05c9.07,3.27,14.05,15.69,9.66,23.83C326.79,248.87,321.83,238.41,324.01,228.05z"/>
		<path d="M306,128.51c-6.38,4.9-19.05,3.97-25.89-1.8C284.06,119.92,299.79,120.95,306,128.51z"/>
		<path d="M319.63,145.3c-6.15,4-20.02,0.36-24.72-6.39C300.73,133.05,314.94,136.67,319.63,145.3z"/>
		<path d="M325.32,208.18c8.48,0.95,16.48,15.02,12.82,22.57C330.78,228.56,323.84,216.35,325.32,208.18z"/>
		<path d="M319.92,247.13c8.1,3.56,10.88,16.74,5.18,24.51C318.18,267.09,316.04,254.36,319.92,247.13z"/>
		<path d="M106.96,271.85c-5.19-6.77-4.47-18.88,4.99-24.97C115.91,254.05,113.21,267.56,106.96,271.85z"/>
		<path d="M98.52,251.81c-4.52-7.58,0.13-19.86,9.11-24.02C110.58,235.29,105.33,249.12,98.52,251.81z"/>
		<path d="M250.2,91.97c0.01,2.83-2.39,5.27-5.2,5.26c-2.85-0.01-5.24-2.39-5.27-5.22c-0.02-2.63,2.42-5.07,5.13-5.13
			C247.74,86.81,250.19,89.15,250.2,91.97z"/>
		<path d="M186.97,97.29c-2.74,0.04-5.14-2.27-5.2-5.01c-0.06-2.83,2.29-5.35,5.07-5.42c2.74-0.07,5.39,2.47,5.36,5.14
			C192.17,94.83,189.77,97.25,186.97,97.29z"/>
		<path d="M256.46,354.6c-1.94,0.91-3.55,1.71-5.19,2.42c-1.45,0.63-1.83-0.59-2.27-1.5c-1.93-3.98-4.44-7.44-8.32-9.74
			c1.83-2.53,1.82-2.51,4.4-1.08C249.41,347.11,253.15,350.18,256.46,354.6z"/>
		<path d="M192.22,345.33c-4.84,2.63-7.36,6.37-9.32,10.55c-0.55,1.18-1.29,1.58-2.49,0.97c-1.41-0.71-2.82-1.42-4.49-2.27
			c3.43-5.06,7.67-8.57,12.93-10.77C189.49,343.55,190.67,344.6,192.22,345.33z"/>
		<path d="M279.71,104.47c-1.58-0.71-3.15-1.43-4.74-2.12c-3.64-1.6-7.29-3.2-10.88-4.92c5.38,1.93,10.83,3.73,15.58,7.09
			C279.68,104.51,279.71,104.47,279.71,104.47z"/>
	</g>
</g>
</svg>
