<?xml version="1.0" encoding="UTF-8"?>
<svg id="Layer_2" xmlns="http://www.w3.org/2000/svg" version="1.1" viewBox="0 0 5000 2923.3">
  <!-- Generator: Adobe Illustrator 30.1.0, SVG Export Plug-In . SVG Version: 2.1.1 Build 136)  -->
  <g id="_10_Hand_Drawn_Floral_Wedding_Monogram_Frames_Elegant_Botanical_Logo_Set_Minimal_Wedding_Crest_Design">
    <g id="Elegant_Hand_Drawn_Floral_Wedding_Emblem">
      <g>
        <path d="M2558.2,2764.6c-5.1-33.8,9.8-69.8-3.4-102.5-4-9.3-7.2-11.9-16.2-10.1-19.3,2.8-5.5,29-12.1,41.8-1.2.2-2.3.4-3.5.6-50.4-120.7-89.3-251.8-181.5-349.1-16.8-14.1-56.6-75.3-78.5-62,28.4,73.1,57.1,143.7,88.4,213.7-46.5-25.8-85.9-59.3-137.3-74.4-47.3-13.6-53-64.6-67.7-104-16.4-47.8-33.8-106.7-89.1-119.7-6.4-2.4-12.6-1.1-16.6,5.2-18.7,40.4,37.6,101.5,55.7,138.2-.7.5-1.3,1-2,1.6-65.7-21.1-104.5-76.6-137-134.5-14.5-23.9-32.1-55.1-61.3-61.2-87.8-.4,39,122.8,63.7,143.1-161-28.2-181.4-201.1-264-223.4-54,8.7-33.8,80.1-3.8,106.3,9.3,13.9,42.9,33.3,39.6,49.4-21.2-7.4-54.1.7-66.7-21.4-16.5-31.3-36.4-61.4-61.9-86.3-12.8-12.2-26.3-20.1-44.9-16.1-31.2,3,10.5,57.5,13.7,78.1-101.5-21.4-86.2-87.3-151.1-131-49.8-21.8-39.5,24-22.3,51.9,32.1,56.3,90.4,74.3,147.7,96.8-22.4,11.4-43.3,18.2-60.3,37.4-6.5,7.1-15.3,8.6-24.6,5.6-75-22.1-152.7-54.6-185.9-130.8-13.4-39.2,20.5-86.6-6.3-125.1-20.6,10.6-22.3,33.7-35.9,50.1-4.7-2.4-9.8-4-13.4-7.2-14.6-14.7-37.5.3-28.7,20.8,8.3,16.5,17.9,41,40.1,38.2,26.5-1.8,27.4,30,40.3,45.9,12.6,20.4,27.4,36,38.7,57.7-50.4-7.9-95.6-27.1-147.2-25.7-22.7-5.6-41.8-27.5-49.3-50.2-10.8-57.5-30.8-114.8-101.1-105.5-16,.4-19.6,5.6-13.5,20.7,16.6,40.1,33.1,79.6,57.9,115.4-50.3,3-97.5-39.2-121.4-82-24.7-24.3-11.7-57.2-15.1-86.7-10.5-46.8-29.9-105.7-78.5-122.8-1.6,29.9,24.3,57.4,18.1,89.1-82.7-130-49.5-175.8-7.3-308.7,10.7-13,5.1-117.5-19.3-77.1-26.7,54.5-86.4,102.9-71.8,170.5,12.6,40.4,14.2,78.1,22.6,119.8-20.9-7.2-29.2-30.6-53-31.5,3.6,29.2,27.5,52.7,34.2,81.5,15.9,48.6,32.5,101.6,76.5,131.6,30.4,27.1,72.7,39.4,91.8,77.8-82.7-41.4-157.5-97.5-227.4-157.9-84.4-67.2-35.3-193.1-12.8-280.2,21.8-64.7,82.5-114,73.6-187.6-1.7-36.5-3.1-101.4-34.3-30.8-26.7,59.7-61.9,116.3-68.9,182.4-1.2.1-2.5.3-3.7.4-6.7-12.1-13.9-24-20.1-36.4-12.7-43.7-107.6-57.3-74.5-9.3,80.9,80.8,74.9,177.1,70,281.9-68.5-50.3-70.4-163.3-92.9-240.9-6.5-36.1,9.9-72.4,15.6-107.9,2.8-34.6,27.8-63.8,32.4-97.5,5.2-33.2,15.5-65.8,34.5-93.2,18.4-19.8,54.7-69.6,83.8-62.1,12.6,6.6,22.1,3.8,29-8.8,39.9-95.1-74.4,9-98.2,25.8,4.4-34.8,69.1-135.1,33.6-164.7-8.1-2.6-25.1,12.6-24.5,24-3.6,15.7,7.1,28.8,8.1,43.8-10.8,53.9-37.6,102.3-69.6,147.3-42-73.8-18.3-63.9-67.1-10.7-40.6,44.4-26.8,107-48.1,159-3.6-32.4-47.8-94.3-15-114.5,34.7-32.9,47.3-107.2,37.3-153-10,0-11.3,6.4-13.9,12.2-14.1,38.8-45.6,67.3-58.1,106.4-23-59.9,11.1-131.1,46.4-180.3,54.7-30.8,111.1-12,161.5-71.3,28.5-24.7,40.1-57.9,46.8-93.5-1-24.4-36,10-46.1,14.8-30.2,21.8-63.5,37.7-101.4,52,11.6-29.2,37.7-99.2,72.1-100.9,43-4.3,119.4-116.7,78-150.2-19.7,43.8-45.5,82.2-92.6,105.5,6.7-83.6,34.9-237.8-2.6-309.4-24.7,68-48.8,142.5-27,214.5-1,21.1,20.3,36.3,9.5,57.6-20.1-14.3-72.8-116.1-94.6-85.7,36.1,57.8,57.8,125.5,71.3,190.5-30.3,78.4-73.4,153.9-124.7,219.6-3.2-45.3,27.9-87.8,13.1-133.5-19.4-66.7-56.6,0-57.1,36.3-.6,18-3.5,36-5.7,56.8-31-30-17.3-75.2-25.6-113.7-7.5-46.2,26.4-75.6,49.7-110.8,13.8-26.8,32-94.1,19-119.8-5-2.3-7.8,2.2-10.5,6.6-17.3,29.6-40.6,53.7-57.6,83.6-5-5.4-4.8-8.6-5.1-14.7-6.1-70.9,19-138.5,75.5-183.7,34.4-33.8,62.7-135.7,32.9-174.8-8.4,35.9-18.7,65-43.2,91.7-32.9,39.8-44.5,90-73.9,131.7-10.7-91.5,24.7-186.4,81.8-257.1,22.6-33,65-36.4,101.3-40.6,50.2-14.8,101.8-33.6,139.6-71.2,18.3-16.5,97.9-137,24-80.4-61.5,27.4-119.2,65.5-183.9,84.6,36.6-96.7,150.6-162.4,146.6-275.8-3.8-34.2,5.4-82.4-16-110.2-21.6,6.6-22.7,51.8-32,71.1-23.2,50-26.5,105.3-43.1,156.7-18.9,28.4-29.7,61.2-53.3,85.9.8-50.2,16.7-97.1,10.8-147.3-3.5-13.1-2.1-59.8-21.8-54.9-13.9,90-58.1,173.8-41.1,266.9,2,21.1-2.9,38.1-18.6,52.1-33.4,26.9-48.3,67.4-74.4,100-17.6-74.4-14.8-144.5-4.9-219.4,3.7-27.3-8.7-57.5,1.4-83.3,12.4-18.8,14-61.7-13.7-63.7-39,10.8-24.8,59.1-11.4,85.4-4.6,49.2,16.1,105.5-9.1,149.9-15.8-40.6-32.9-80.6-41.5-123.2-7.1-31.5,5-70.4-14.8-97.4-32-22.9-41.6,49.5-17,63.3,25.8,38.4,21.4,91.8,39.4,135.1-49.3-26-100.2-73.8-126.5-122.8-4.8-9.6-17.3-54.7-23.9-22.1,9.2,125.5,27.6,147.8,149,181.3,46.7,18.2,40.2,166.3,36.6,211.4-4.1-1-5.1-2.1-6.6-5.3-10.1-27.3-26.2-51.1-43.5-74.2-12.2-11.6-18.2-45.6-40.1-31.2,21.1,79.8,11.6,125.4,69.8,197.2,14.5,43.6,12,91.9,27.8,135.9,1.7,34.2-3.7,69.2-6.3,103.5-1.2.2-2.3.4-3.5.6-13.3-21.2-19.5-110.5-49.3-103.7-17,18.7,21.5,59.7,24.2,83.5,9.1,44.5,36.8,90.1,29.7,135.5-25.9-18.2-46.7-39.9-76.9-51.7-19.1-4.1-69.5-34-80.1-11.3,33.3,20.7,44.9,60,75.2,84.8,37.1,45.3,81,21.5,99.8,90.7,11.2,35.8,20.3,72.4,32.4,107.9,8.6,34.4,32.8,61.7,45.2,94.4,8.5,34,25.2,75.4,22.1,107.7-63.1-94.3-96.8-205.2-162.2-297.9-31.9-41.1-73.6-73-117.7-100C93,1064.3,2.1,1066.4,0,1152.2c9.5,8.6,13.3,8.7,23.6,3.3,37-19.1,77.4,13.8,114.4,21.6,87.4,27.2,200.1,158.6,231.9,242.5-40.8-38.8-168.2-69.2-142.1,26.2,10,15.5,32.4,16.1,49,18.8,72.3,7,153.5,41.6,172.6,118.5-7-5.8-11.5-8.6-14.8-12.4-6.1-15.7-109.8-71.7-86.9-28.1,18.6,23.6,38.1,48.1,65.5,61.7,29.9,14.7,48.2,39.4,63,67.4,12.2,30.1,37.5,60.5,40.7,91.7-25.7-12.4-29.9-43.3-53.4-58.8-31.5-29.4-64.5-56.4-90.9-91.1-45.3,14.9,13.3,77,28.9,96.6-30.5.7-154.2-115.7-170.8-75.2,14.6,13.9,29.6,28.1,44.6,42.3-68-6.8-80.9-87.8-127.1-125.9-17.2,10.2-14.9,21,15.6,73.4-32.8-5.6-70.6-10.5-102.2-1.3-15.7,37.1,46.4,38.9,70,43.7,34.4,5.7,71.9,16.9,101.4,33.2-42,42.1,167.8,22.4,184.7,54.2-11.9,11.6-35.7,16.3-35.6,34.2,1.4,5.2,6.3,4.3,10.5,2.6,18.3-10.6,35.8-3.2,54.6,1.3,50.2,4.3,84,14.8,119.8,51.8,21,21.7,31.7,51.5,55.9,70.7,34,40,82.8,58.5,117.4,97-11.9-1.9-23.5-4.6-34.2-9.2-22.7-12-116-10.4-59.9,23.3,119,66,118.5-29.4,265.3,105.9-64.2-2.2-125.5-12.9-188.3-24.6-50.3-7.7-71.8-52.8-105.3-83.5-37.7-11.8-10.4,60.3-7.9,78.9-21.7,4.1-52.9-15.4-68.5,8.3-12.3,26.5,90.1,26.6,106.6,22.9,38.6-11.6,75.9,11,113.9,17.7,35.6,8.6,71.6,14.9,108.4,14.1,6.4-.1,12.3,0,18.4,7.4-40.9,22.9-83.1,41.9-103.8,87-8.4,16.8-2.8,31.3,15.5,33.9,58.3,6.5,141.3-35.2,136-102.8-3.8-37.2,57.7-6.1,78.8-8.4,66,12.1,136-4.9,199.6,18.4-32.9,11-46.9,42.4-76.5,58.2-15,10.2-27.2,29.7-45.9,33.1-31,3.1-63-12.1-92.8-5.3-50.4,32.3-12.5,22.8,16.2,38.7-32.7,12.1-64.9,17.5-97.9,27.5-23.8,5.4-50,30.4-72.7,9.2-21.2-27.8-186.5-7.7-132.8,17.8,20.7,8.2,63.6,4.6,76.2,21-42.5,17.6-105.8,5-136.6,43.2,126.1,47,194.5-63.7,152.4,50.5-2.7,10.4-8.7,52.2,8,49.4,2.9-35.8,33.3-57.9,56.6-81.8,44.6-52.2,69.3-75.2,137.5-96.9-6.2,33.2-39.3,87.4-14.7,115.8,19.8-11.8,23-42.2,41.5-57.9,33.9-24.8,25-92.4,47-97.6,14-6.7,24-19.4,41.8-21.4-16.7,33-25.6,80.7,1.1,108.9,3.3-1.2,6.4-4.5,8.1-7.8,3.8-25.8,12.7-50.5,24.5-73.8,25.8-73.4,52.7-116.3,136.7-111.4,28.3-12.9,68.5,19.6,98.9,24.3,20.3,8.9,45.5,7.5,62.6,22.1-37.3,13-72.3,2.8-109.7-1.4-19.4-1.2-82.6,6.6-93.1,20.1,11.3,14.9,49.3,6.2,68.2,30.2-47.9,3.4-94.9,8.6-140,32.1,31.4,13.7,65.8,41.5,100.3,19.5,34.6-12.2,60-42.9,97.5-46.4-23.1,41.1-41.9,84.3-47.9,131.6-2.7,21.4,41.7,7.9,49.4-3.7,24-41.3,35.6-90.8,46.5-137.4.8-5.7,4.3-13.1,8.8-15.7,21.3-12.3,42.8-23.3,69.5-17.9,77.8,12.5,157.7,26.2,236.1,28.1,138.9-29.5,262.1,20.3,376.2,98.4-42.4,24.7-95.2,41.7-141.7,33.8-50.8-29.8-109.2-37.2-165.2-51.9,5.9,39.3,52.8,55.9,71.2,89.5-38.8,12.9-102.6,11.8-110-36.1-9.2-39.5-37.6-92.5-79.8-100.1-1.9,1.9-3.6,5.6-3,8,14.2,34.5,25.6,70.2,33,106.9-46.1,0-85-23.1-121.4-49-45.2-23.1-97.4-46.2-146.3-54.3-3,40.1,77.2,98.2,114.3,108.3,30.8,12.6,64.3-1.8,93.6,10.2-31.7,26.5-56.3,59.9-95.4,75,12.5,43.8,107.9,5.8,136.3-8.3,16.2-12.2,30.6-27.1,45.2-41.2,21.4-17.1,67.2,8.1,93.8,11.4-16.7,13.6-30.3,26.4-41.4,43.6-5.2,12.4-43.2,86.1-8.7,75.5,41.6-41,99.8-59.7,137.6-105.3,37.7-34,92-42.7,136.3-66.8,31.4-16.4,67.6-11.2,101.7-13.9,40.4,6.5,72.3,41.9,108.7,60,34.5,24.8,73.9,38.8,101.7,72.9-57.2-7.2-110.7-3.2-161.1,27.1-29.9,13.2-71.6,34.9-81.1,66.5,10.1,8.3,22.8-6.8,33.5-8.6,88.9-38.5,194.1,27.6,278.5-31.6,26.5,22.2,64.1,91.9,61.3,112.6-35.6-7.4-66.9-35.5-103.3-39.5-1.2,18.8,15.7,36.4,26.5,50.3,26.3,32.7,76.9,32.9,102.4,63,16.6,33.3,10.3,76.8,33.2,106.8,31.5-42.9-11.9-105.7-8.1-154.6h0ZM532.3,1723.8c-27.5-54.1-51.6-108.5-11.7-164,4.4,11.6,1.1,23.4.2,35.3-5.7,43.5,8.5,85.2,15.5,127.5l-4,1.3ZM1541.7,2255.5c16.9-14.8,49.6-23.5,68.8-19.5,50.6,12,102.8,18,153,30.5-74.8,8.5-147.8,0-221.9-11h0ZM1174.5,1941.3c-.7,8.4-1.4,17,4.6,23.9,13.3,12,29.9,45.4,49.4,27.4,19.7-21.3,48.8-59.3,21.4-86.2-11.6,14.6-23.1,29-35.7,44.7-10.4-2.5-34.4-28.8-39.8-9.8h0ZM537.8,2043.3c-17-4.8-35.8-21.5-53.5-15.5-7.9,5.8-10.2,31.2-4.3,39.3,5.3,5.4,17.2,6,22,8.1,17.1.6,60.4-16,35.8-31.9h0ZM510.8,1953.8c2.3,20,20.1,78.8,47,65.3,22.4-25.6-20.2-55.3-31.6-77.3-6.7-9.8-14,4.8-15.5,12h0ZM449.1,1941.3c-20.9,19,10.9,54,34.3,55.2,44.4-6.5-7.9-58.2-34.3-55.2ZM1199,1874.4c-44.3,23.8,22.5,76.3,19.3,41.8-1.4-15.5-6-30.3-19.3-41.8ZM1158.7,1664.2c15.4-1.2,8.8-24.1,11.7-34.2-.2-10.1,2.8-31-9.8-31.5-6,0-12.4,6.3-12.3,13.9,3.4,14.8-5.3,45.1,10.4,51.8h0ZM217.8,835.2c6.6,15.4,35.3,13.5,33.3-7.6-6.1-35.7-46.8-28.8-33.3,7.6ZM1187.1,1802.1c-3.2,85.1,43.4,41.9,11.6-11.8-10.2,5.2-11.7,5.9-11.6,11.8ZM182.4,710.3c-11.4-2.3-9.1,13.6-4.6,19.1,2.3,1.3,13-1.8,13.4-7.1,27.2,19.1,36.4-2.3,20.8-24-10.6,1.9-18.7,12.3-29.6,12h0ZM312.4,1809.7c-15.1-1.4-39.1-22.3-47-.2,16.9,6,38.7,27.7,55.1,14.4,1.1-5.5-2-12.7-8.2-14.2h0ZM438.4,1984.7c-9.1,0-18.1,12.1-12.9,20,8.6,8.4,32,27.2,35.3,5.2.2-8.5-13.9-25.5-22.4-25.1h0ZM391,1905.6c3.9,12.2,24.1,33.3,37.8,22.9,2-16.3-37.5-55-37.8-22.9ZM280.4,833.3c22.5-12.5-17.8-65.5-20.7-21.9-.5.2-1,.4-1.5.6,3,10.4,8,26,22.1,21.3h0ZM562.1,1972.2c-4.5,8.6,6.5,19.3,12.4,25.5,7.9,10.6,16.8-1.1,19.4-8.4-2.2-17.4-17.9-29-31.8-17.1h0ZM1164.6,1872.1c21,20.3,11.8-31.1,6.9-41.3-22.6,6.2-14.6,26.8-6.9,41.3ZM194.1,754.3c-16,18.8,16.1,53.2,20.4,17.2-1.3-10.9-7.4-31.8-20.4-17.2ZM239.9,780.6c21.8,1,12.3-30.7,0-32.8-17.9-.4-15.8,34,0,32.8ZM1234.1,1846.3h-14.9c-1.4,55,33.9,40.4,14.9,0ZM176.5,667.9c6.9,4.7,11.5,2.8,14.8-6-3.7-7.8-6.7-16-11.3-23.2-16.3-13-14.9,23.8-3.5,29.2h0ZM356.2,1845c-21.6,2.7,19.5,49.2,22.6,21-.1-7.5-15.3-21.7-22.6-21ZM571.5,2057.3c-27.5,2.4,10,42.3,17.4,19.1,1-7-10.1-19.2-17.4-19.1ZM446.1,1882.3c-9,12.4-2.7,27.6,9.8,30.7,25.5-1.4,0-22.7-9.8-30.7ZM1159.6,1781.7c22.8,0-1.7-49.2-10.7-28.2,3.6,10.2-1.7,26.4,10.7,28.2ZM1188.1,1748.2c16-2.8,9.9-27.7-5.1-33-2.5,12.4-11.5,29.7,5.1,33ZM1169.5,1704.1c.8-18.4-17.1-28-19-6.8-3,16.1,19.3,23.2,19,6.8ZM404.4,1939.1c-18-9.5-13.6,29.7,13.8,21.2-1.7-10-8-15.7-13.8-21.2ZM490.2,1929.8c-.3,1.7,3,4.1,6.4,8.2,3.1-4.6,5.1-7.5,7.2-10.5-5.8-6-11.4-6.9-13.5,2.3h0Z"/>
        <path d="M4920.5,1181.8c28-29.1,55.9-64.5,68.7-101.8-29.1-11.9-70.3,52.4-96.2,67.7-4-24.2,8.3-47.4,8.6-71.8,6.2-20.4-9.6-56.8,9.4-69.1,25.5-10.2,31.3-48,9.4-65.1-17.9-10.6-44.7-27.8-64.6-12.4-33.6,23.2-55.7,54.7-83.5,85.5-9.1-48.7,1.4-96.6-5.5-145.9,15.9-28.5,31.4-58.2,47.9-86.2,36.6-58.5,64.1,20.7,130.8-105.2-26-40.3-33.6,30-78.2,25.9,8.9-17.8,25-25.7,38.6-37.9,9.2-12.8,1.6-29.3-15.1-22.5-59.2,18.7-73.7,91.2-109.4,133.4-3.5-54.2-21.5-112.5-2.8-164.8,22.9-62.5,61.7-125.8,42.3-194.6-.8-5.9-3-11.1-12.1-11.7-26,60.4-45.6,123.5-68,184.8-21.2-45.6-24-113.1,10.3-155.5,17-14.3,1.8-38,18-50.7,29.1-24.3,48.3-58.3,68.1-90.1,8-13.4,12.1-30.9,30.4-36.1,8.8-11.5,9.4-30.2,12.7-44.3,1.1-9.1-4.6-12.6-14.2-11.9-35.5.4-28.9,38.8-36,62.8-16.5,32.5-40.5,58-65.5,85.2-10.1-56.6-24.8-108.6-46.4-160.7-.5-6.1-8.8-9.4-13.5-9.4-5.2.8-5.4,5.7-4,10.1,4.3,13.8,5.2,28.3,1.5,41.8-7.5,27.2,4.5,53.4,0,80.8-12.7,91.5,49.4,110,.5,182.5-35.7-41.3-73.5-88.1-86.9-142-1.7-26.3,28.3-49,16.2-76.5-4.3-11.6-24.2-13.5-29.3-2.4-20.2,28.4-1,62.7,0,94.1,13.8,74.3,68.2,127.7,91.3,199.8-49.6-37.8-85.5-83.7-126.4-129.5-43.9-45.8-43.6-126.8-6.5-177.2,30.4-35.9,69.3-67.8,82.3-114.8,7.1-37.8,27.9-78.4,22.3-116.2-114.8,94.9-92.6,142.2-150.3,261.4-12.6-40.9-.7-82.5-11.6-123.3-8.1-40.7-2.1-93.8-33-124.5-5.3-.7-7.7,3.5-8.6,9-10.8,54.2-24.8,108.6-7.2,163.3,7.5,24.2,30.1,39.2,30,67.1,1.5,71.4,37.7,138.3,75.9,196.4-20.4-2.3-38.4-7.9-59.1-9.1-13-3.7-64.4,13-36.3,26.5,45.6,2,65.1,48.6,110.9,48.8,60.1,2.2,120,44.8,148.8,96.1,12.8,33.8,3.6,72,7.1,108.3-31.2-4.3-75.7-182.1-91.6-121,12,6.7,9,17.8,7.7,28.9-17.8,70.8,19.2,134.2,75,175.7,20.9,5.2,11.1,77.8,7.2,95.4-25.6-20.4-8.7-50-25.8-73.7-8.3-23.6-110.1-141.4-83.4-54.5,8.7,98.3,117.9,125.7,112.3,228.1,0,3.1-1,7,.5,9.1,7.4,10.2,4.6,21.1,3.1,31.8-7,40.7-9,82.7-21,122.2-4-3.7-5.4-7-5.7-10.3-2-50.7-1.3-102.7-18.5-151.4-8.6-25.4-27.8-38.8-48.7-52.7-41.6-39.9-122.2-25.9-127.7,38.1-.6,8.6,4.5,24.2,14.7,15.4,16.3-14.1,31.2-6.2,48.1.3,43.7,10.9,62.4,53.1,84,88.2,16,25,8.3,56.5,14.9,84.1,21.4,117.4-4,238-61.5,341.3-6.6-39.4-4.4-82.3.4-121.6,13.4-27.9,14-57.8,15.1-87.6,1.9-22.2-20.7-90.7-44.7-90.2-2,.5-3.6,5.7-3.8,8.9.9,31.9-7.4,62.6-2.9,94.3-3.2,24.3,23.8,68,12.8,83.7-32.7-11.2-13.9-61.9-33.2-86.1-24.5-46.9-63.8-82.5-104.8-114.7-9.5-8.2-11.1-8.3-21.6,3.1,31,47.7,35.6,111.7,81.7,149,37.2,22.3,38.1,56.6,62.6,86,13,22.6,9.2,51.3,13.1,76.3,6.2,20.6-11.2,37.8-7.4,58.6,2.3,41.5-37.1,75.1-63.9,102.1,6.6-47.3,22.1-95.8,16.5-143.9-20.2-80.5-78.3-120.8-149.1-62.1-13.3,15.2-52.3,71.3-27.2,85,13.8,6,29.1,5.7,41-4.5,8.9-6.7,19.8-12.9,30.5-8.9,69,23,65.8,114.7,47,172-5.9,34.8-33.1,57.4-53.6,84.7-26.6,21.5-38.9,53.7-64,75.5-1.6-52-8.4-107.1-40.6-150.3-5.7-5.9-10.7-22.6-21-17-10.9,8.4-5.2,23-5,34.6-2.4,34.6-1.4,68.8,3.9,103.1,15.3,63.1,27,160.4-45.3,190.9-13.1-12.4-12.4-45.4-32.5-47.1-13.1,9.1-1.6,44-4.7,60,3.8,25.5-30.2,21.4-42.9,35.9-12.1,11.3-26.5,16.5-41.3,21.2-47.4,12.4-90.9,33.7-140.8,35.2,6.5-23.7,25.9-40.4,32.4-63.3,7.4-23.2,26.5-28.5,44.8-36.4,22.3-10.1,51.4-31.5,43.8-59.1-1.5-6.5-6.2-8.7-11.9-5.5-13.1,6.4-19.9,21.6-37.1,19,4.1-38.9,51-69.7,37.7-108.6-18.2-12.8-26.1,14.9-40.9,19.5-33.6,20.8,8.6,70.8-16.9,94.7-9.6-2.4-9.9-9.4-11.4-15.3-1.9-13.6-25.2-58.9-34.9-29.5-3,34.8-18.3,73.4,3.3,105.1,3.8,5.9,4.1,10.3.5,15.6-12,17.5-22,37.6-40.4,49.2-5.7,3.7-9.7,6.9-10.8,14.1-18.1,28.1-51.6,53.9-87,46.8,43.3-31.1,66.5-72.4,77.9-122.6,2.2-5.5-.2-11.6-5.4-14-38,28.6-63.9,78.4-110.5,101.4-80.8,57-51.9,89.9-179.9,83.9,47.9-19.2,87.2-51.1,95.5-105.9,2.3-8.4-.4-12.9-8.7-11.8-47.4,3.5-79.9,40.4-115.5,67-41.1,44.8-78.2,94.5-145.9,88.5,14.6-18.7,28.3-36.8,46.7-47.9,7.9-.8,11.8-6.6,15.3-12.3,41.9-55.6,93.2-104.3,140.8-155.5,42.7-31.5,49.4-82.8,75.6-124.4,10.3-42.4-83.7,43-90.8,53.1-1.4-69.7,14.5-128-28.2-191.3-3.2-4-12.9-8.2-15-.1-25.8,118.5,29,259.5-57.4,359.1-2.6-7.3-1.3-9.5.8-15.7,27.4-47.8-13.3-207.4-28.7-67.8-11.4,63.6-14.1,139-63.9,186.1-43.2,32.4-90.3,67.9-143.9,77.9,17.3-16.9,35.1-31.4,42-55.5,12.3-23.6-12.8-48.2-35.8-36.8-53.9,13.9-93.3,57.2-124.7,101.1-18.7,37.9-39.4,42.7-79.4,44.7-42.6,2.2-84.9,8.9-127.5,7.6,3.3-9.5,10.5-12.8,17.2-16.3,62.5-30.8,118.7-74,159.6-130.8,7.2-9.2,78.1-100.6,42.3-90.8-53,69.6-146.9,88.5-208,150.4-48,31.2-65.3,92.6-116.8,118.7-71.1,37.7-131,91.9-196.8,137.2-1-.7-2-1.4-3-2.1,2.1-26.3,17.4-49.7,28-73.4,7.3-11.1,43.3-107.6,10.2-88.3-58.4,64.5-60.8,79.1-67.9,163.2-4.8,59.1-39.9,109.2-60.2,163.5-8.6,12.4-26.3,203.9,9.7,159.4,5.3-33,3.4-67,13.9-99.2,13.2-52.4,75.7-41.9,111.5-69.9,20.4-15.7,47.9-24.7,60.2-48.8,6.3-18,20.4-34,19.3-53.6-8.9,0-12.8,5.1-15.9,10.3-9.2,15.8-24.2,24-39.9,31.3-37.9,14.9-70.5,35.6-106.3,54.6,24.9-60.9,49.7-125.3,108.8-159.3,61.5-43.2,133.7-80.2,211.3-60.3,47.3,5.7,91.3,22.5,133.8,42.7,32.1,13.7,14.5,26.2,28.9,43.8,45.6,40.2,62.2-42.2,12-42.2-22.5-1.5-37.7-20.8-56.5-32.9,63.1,2.2,124,17.4,186.7,8.7,31.5-3.4,63.4-12.8,93.7,2.3,49.2,13.8,62.9,57.1,120.3,65.4,14.8.9,45.9,17.8,52.9-1.1.5-5.9-4.7-7.6-9.7-8-22.6-4.6-45.1-22.4-50-44.3,6-3.3,8.1-3.5,13.9-4.2,41.3-5.2,69.1-29.8,89.9-63.7,2.8-5.6-.5-16.3-8.8-14.5-54.3,9.7-93.1,59.7-149.5,60.5-23.7,3.1-52.9,5.4-71.8-11.3,59.1-26.7,135-58.3,161.1-120.4-9.8-9.7-54.1,16.1-70,18.5-68.1,22.3-133.7,49-198.6,78.9-.8-1.1-1.6-2.3-2.4-3.4,12.6-17.9,33.6-27.2,47.8-43.3,15.7-30.7-31.7-25.3-45.5-11.5-20.4,11.3-.1,36.4-21.4,46.4-29.6,25.1-240.7,32.2-257.5-8.2,38.5-19.5,82.5-18.8,124-28.7,75-16.1,149.2-34.8,225-46.6,59.1-8.3,89.1-56.7,151.5-49.6,37.6-6.9,69.6,14.4,102.8,26.4,34,5.6,57.4,37.3,92.3,35.7,12.6-1.1,40.4-21.4,37.7-36.3.5-58.1-124.6-40.3-166.9-52.3-.3-1.3-.6-2.5-.9-3.8,30.5-21.6,69.1-20.6,104.5-20.3,13-5.4,25.6-3.3,38.5-.1,59.7,6.4,107.6,42.6,165.5,55.2,38.6,13.3,50.4-11.4,80.3-14.9,37.7.6,76.7-2,113.7-11.2,58,7.2,118.1,25.4,176.5-1.4,34.7-15.4,73.4-34.1,82.5-74.9-39.5-.5-73,29-113.9,25.1,65.3-53.4,58.3-130.4,103.1-151.5,64-30.5,80.6-94.2,162.5-79.9,14.2-.5,25.3,2.9,32,17.2,25.2,50.6,106.3,72.1,158.9,68.2,14.4-4.6,21.5-21,3.4-25.9-38-18.4-64.4-51.7-96-79,7-8.9,57-1,65.5.8,10.4,7.1,20.9,16.3,32.9,20.2,55.4,11.9,138.7,41.1,187.9,4.6-28.8-19.2-90.7-16.3-105.1-36.5,59.5-5.7,123-20.2,156.6-74.8,3.6-4.5,7.8-8.8,3-17.1-58.9,8.9-119.6,27.6-169.5,60.8-29.4,19.1-75.6,30.8-104.5,9.6,38.1-17.2,74.5-44.8,116.6-49.9,10.6-5.7,27.9-11.7,33.7-22.6-17.6-28.1-92.5,9.8-119.6,15.8-46.9,19.8-88,64.5-142,59.4,34.5-27.4,75.8-51.3,100.4-87.2-18.2-9.9-139.7,57.4-156,75.8-19.5,12.8-30.5,48.5-58.5,39.1,6.8-21.4,28.1-42.2,16.2-64.4-4.5-3.1-7.3,1.1-9.9,4.6-21.5,25.9-47,52.2-80.9,60,25.2-36.7,33-87,82.5-96.2,29.4-11.1,52-32.2,75.8-51.8,54.1-32.5,113.5-53.9,175.1-66.8,55-5.8,111,5.1,163.8-17.8,7.8-2.2,14.6-4.3,22.5.3,17.7,4.5,36.8-11,47.9-24,12.8-21.5-29.3-25.9-40.4-9.8-31.8,24.2-81.1,41.6-120.3,29.3.4-5.2,2.3-6,5.7-8.5,39.1-24.4,74.2-54.2,105-88.5,4.7-4.9,8.1-12,13.8-14.8,15.7-6.8,45.6-50.9,27.4-62.5-54.2-24-41.9,60.9-71.5,81.7-45.4,47.2-111.2,55-167.4,82.9-23.1,9.3-45.6,25.4-70.8,27.2-4.6-13.3,11.9-18.4,10.5-31.5-120.1,18.3-61.5,2.8-24.1-67.9,28-44.5,86.3,15.5,123.9-13.4,30.8-16.8,61-45,67.2-80.9-33.9,12.8-68.6,16.2-104.5,22-4.5.8-9.6,4.2-12.7-1.2-3.9-7.5,4.8-11.7,9-16.3,37.6-45.3,89.9-68,140.2-95.3,128.9-80.2,202,50.6,202.6-8.5-4.8-57.4-65.1-95.2-119.9-94.4-52.5,10.3-93.7,46.9-138.8,73.3-26,13.8-44.8,36.1-63.6,58.4,7.4-50.1,35.6-96.8,63.7-138.5,18.8-24.3,54.1-34.7,83.3-42.4,65.9-17.6,116-68.8,143.5-130.2,2.5-4.7,3.8-9.8-2.2-14.9-47.7,30.4-85.7,65-137.8,92.2,9.9-63.9,63.2-108.1,116-138.9h0ZM4189.5,2231.5c-25.9,19.5-41.4,53.4-74.6,62.9-13.9,3-24.4,17.3-39.6,8.3,17.8-16.6,64.8-129,5.9-81.3-35.4,20.8-39.2,71.7-76.9,88.1-27,7.1-54.8,8.7-82.5,8.6-16.3-2.7-28.9-16.6-46.7-15.2-45.5-7.6-89.9-6.1-134.3-21.9,40.2-20.5,83.4-19.3,125.6-31.8,116.6-41.9,233.5-76.5,349.7-120.4,6.4,37.8,7.9,79.4-26.6,102.6h0ZM4809.4,1257.1c-23.1,28.7-40.7,60.4-54.2,94.6-6.6,13.1-20.9,17.1-34.3,28.9-21.8-76.2,25-145.7,38-218.9,13.6-44.1,31.9-86.6,70-114.7,17.8-12.9,28.2-47.9,52.8-44.8,7.9,49.2-56,96-49.9,157.6-6.8,32.5,1.2,71.1-22.4,97.2h0ZM3628.1,2506.9c-18,.1-77.7,38.8-28.5,39.9,16.7,0,63.4-30.7,28.5-39.9ZM4872.2,633.1c18.4-6.3,28-25.2,35.7-41.5,4.3-10.4-10.5-12.1-16.9-7.9-12,5.5-42.7,45.4-18.8,49.5h0ZM3581.7,2588.4c39.8-7.5-10.3-28.3-26-27.2-23.1,6.2,14.3,30.5,26,27.2ZM3684.6,2529.9c-12,2-32.7,4.2-29,20.4,7.4,14.5,26.6,1.8,38.1-.6,14.2-5.8,1.9-20.4-9-19.9h0ZM3641.3,2580c-10.5,11.8-4.6,25.9,12.1,23.6,47,.5,4.7-40.5-12.1-23.6ZM4148.4,1687.6c1.3-10.3-8.5-25-15.8-11.5-2.2,14.8-16.2,32.6-5.4,45.8,12.6-5.6,18.3-21.9,21.2-34.3h0ZM4958,535.5c-25.2,1.9-34.5,18.3-22,37,19.7-3.9,25.9-14,22-37ZM3708,2569.4c15.9-1.1,33.3-8.2,33.4-23.8-7.9-13.8-60.1,15.3-33.4,23.8ZM4103.1,1852.5c3.9-10,6.7-20.5,9.1-31-1.2-19.8-32.9,4.6-23.8,17.3-2.2,11.7,4.6,25.8,14.7,13.7ZM4064.7,1849.4c10.5-8.2,14.7-45.7-6.4-33.2-6.3,5.4-9.4,12.4-8.8,20.9-1.3,8.9,6.8,20.7,15.2,12.3h0ZM4055,1891.1c-1.4,9.9-8.2,24.6,5.2,28.7,9.9.7,12.3-14.3,14.8-20.4,1.1-13.7-14.9-23.5-20.1-8.2h0ZM4151.6,1803.2c-15.4-2.8-15.9,18.3-21.9,28.5,10.4,27.9,34.5-19.3,21.9-28.5ZM4125.1,1884.7c-12.7-3.9-15.5,10.7-20.8,19.9,9.6,27.8,36.4-8.3,20.8-19.9ZM4107.4,1785.6c11.3-2.9,18.1-10.7,18.3-22.3-.5-17.8-29.1-9.1-22.3,6.8-.3,5.3,2.7,10.4,4,15.5h0ZM4945.1,642.9c2,22.8,28-10.3,27.5-19.7-12.4-16.5-24.2,8.3-27.5,19.7ZM4985,457.6c5.6-7.5,4.2-22.2-2.2-31.2-14.6,5.6-11.5,16.2-12,27.9,1.1,8.2,9.3,10,14.2,3.3h0ZM3775.6,2503.2c-7.6,3.1-19.5,17.5-10.6,24.8,13.4,10.6,37.8-26.7,10.6-24.8ZM3595.6,2602.6c-14,0-23.9,11.1-15.3,21.7,6,4.9,12.9,1.2,18.7-2.4,12.8-5.9,4.6-15-3.4-19.2ZM4936.5,621.8c3-3.9,7.4-8.3,2.3-13.7-12.2-10.8-21.1,3.8-27,14.4,13.9,6,19.5,5.9,24.7-.7h0ZM3722.7,2495.7c-10.9,0-18.7,16-7.7,22.5,18.4.5,25-19.6,7.7-22.5ZM4094.6,1768.3c-.5-19-11.4-14.7-17-.5-4.5,22.1,13.5,18.2,17,.5ZM4971.2,485.3c-9.5-13-24.1,0-25,11.6,5,17.4,18-5.1,25-11.6ZM4971.9,580.6c1.3,14.3,22.5,8.7,21.6-4.7-1.6-14.1-21.1-6.2-21.6,4.7ZM4160.8,1743.9c-7-3.6-8-4.6-15.6-4-9.1,25.7,9.9,31.2,15.6,4ZM4993.5,513.1c-12.2-1.5-18.3,11.7-10.3,19.6,12.2.5,24.9-15.2,10.3-19.6ZM3775.1,2474.9c1.8,13.9,13.6,6,23.4.1-10.1-7.2-20.5-14.2-23.4-.1ZM4175,1629.8c-8.3-7.5-10.4-9-17.5-1.6,5.8,8.4,7.9,8,17.5,1.6Z"/>
      </g>
    </g>
  </g>
</svg>