<?xml version="1.0" encoding="utf-8"?>
<!-- Generator: Adobe Illustrator 17.0.0, SVG Export Plug-In . SVG Version: 6.00 Build 0)  -->
<!DOCTYPE svg PUBLIC "-//W3C//DTD SVG 1.1//EN" "http://www.w3.org/Graphics/SVG/1.1/DTD/svg11.dtd" [
	<!ENTITY ns_extend "http://ns.adobe.com/Extensibility/1.0/">
	<!ENTITY ns_ai "http://ns.adobe.com/AdobeIllustrator/10.0/">
	<!ENTITY ns_graphs "http://ns.adobe.com/Graphs/1.0/">
	<!ENTITY ns_vars "http://ns.adobe.com/Variables/1.0/">
	<!ENTITY ns_imrep "http://ns.adobe.com/ImageReplacement/1.0/">
	<!ENTITY ns_sfw "http://ns.adobe.com/SaveForWeb/1.0/">
	<!ENTITY ns_custom "http://ns.adobe.com/GenericCustomNamespace/1.0/">
	<!ENTITY ns_adobe_xpath "http://ns.adobe.com/XPath/1.0/">
]>
<svg version="1.1" id="Layer_1" xmlns:x="&ns_extend;" xmlns:i="&ns_ai;" xmlns:graph="&ns_graphs;"
	 xmlns="http://www.w3.org/2000/svg" xmlns:xlink="http://www.w3.org/1999/xlink" x="0px" y="0px" width="864px" height="864px"
	 viewBox="0 0 864 864" enable-background="new 0 0 864 864" xml:space="preserve">
<metadata>
	<sfw  xmlns="&ns_sfw;">
		<slices></slices>
		<sliceSourceBounds  y="-811.935" x="36" width="792" height="759.869" bottomLeftOrigin="true"></sliceSourceBounds>
	</sfw>
</metadata>
<path fill-rule="evenodd" clip-rule="evenodd" fill="FRAME_COLOR" d="M442.427,54.854c-17.726,7.658-32.664,15.174-40.085,20.042
	c-9.454,6.24-16.497,14.559-19.995,23.73c-1.985,5.105-3.734,12.999-3.734,16.875v3.167l-4.822,3.876
	c-9.312,7.469-19.948,13.661-32.994,19.097c-3.498,1.465-8.934,3.782-12.054,5.058c-3.12,1.324-9.785,4.396-14.843,6.854
	c-5.058,2.411-9.359,4.349-9.596,4.302c-0.851-0.284,6.334-9.029,12.337-15.079c9.927-9.879,17.064-14.796,27.747-19.05
	c3.876-1.513,4.774-1.702,8.745-1.702c13.85,0,20.751-2.789,20.751-8.32c0-4.585-4.916-6.807-11.912-5.342
	c-4.207,0.898-12.007,5.152-17.632,9.643c-1.04,0.851-3.687,2.316-5.909,3.262c-5.2,2.316-10.305,5.342-14.323,8.556
	c-1.749,1.418-3.309,2.6-3.451,2.6c-0.142,0,0.331-0.898,0.993-2.033c2.222-3.593,7.847-15.032,11.439-23.209
	c5.579-12.7,17.543-21.164,23.871-33.609c2.836-5.578,4.254-9.785,4.302-13.047c0.166-5.584-5.436-7.599-10.002-5.98
	c-5.262,1.866-9.607,6.984-12.691,11.428c-7.037,10.138-7.1,22.689-7.465,34.544l-4.16,9.218
	c-8.178,18.293-22.453,41.172-31.907,51.099c-3.829,4.018-5.341,5.2-11.581,8.981c-8.887,5.436-22.548,14.465-29.213,19.428
	c-2.789,2.033-5.247,3.687-5.531,3.687c-0.236,0,0.615-2.553,1.938-5.625l2.458-5.672l8.698-3.923
	c5.2-2.316,10.636-5.152,13.472-7.043c8.367-5.531,15.694-13.803,18.199-20.562c3.97-10.492,0.852-21.787-6.991-25.429
	c-4.771-2.215-9.927-1.539-15.007-1.51c-5.691,0.032-11.334-0.559-16.911-1.688c-14.484-2.932-23.434,10.714-22.825,23.711
	c0.331,8.839,2.883,14.89,12.007,28.693l4.727,7.185l-1.985,4.632c-5.436,12.479-9.785,18.388-26.897,36.398
	c-16.875,17.821-32.522,38.383-43.961,57.953c-1.796,3.025-3.309,5.483-3.403,5.389c-0.095-0.047,0.189-1.938,0.567-4.112
	c0.378-2.222,0.804-8.461,0.993-13.85l0.284-9.832l1.844-0.945c3.214-1.654,10.872-6.76,14.654-9.832
	c6.618-5.294,14.889-14.795,19.806-22.736c4.593-7.42,7.669-17.98,3.918-26.297c-4.905-10.877-17.193-12.82-26.863-17.353
	c-11.579-5.428-21.662-20.153-35.946-11.981c-7.9,4.519-12.696,13.195-14.713,21.823c-3.799,16.249-0.689,34.295,9.735,47.547
	c5.093,6.476,12.167,12.18,19.483,15.993c0,0,3.451,1.796,3.451,1.796l0.142,7.043c0.331,17.112-2.883,32.191-10.447,48.924
	c-13.945,30.725-22.879,63.247-26.613,96.383l-0.331,3.073l-1.371-4.491c-2.08-6.807-5.483-16.166-7.989-22.075l-2.269-5.341
	l2.411-3.876c2.742-4.443,7.752-14.796,9.549-19.664c5.956-16.544,5.011-32.758-2.837-48.358
	c-5.258-10.606-12.028-14.678-23.653-10.515c-8.14,2.915-17.525,3.799-24.713,8.936c-13.252,9.47-11.629,29.334-6.041,42.563
	c2.316,5.483,7.8,12.905,14.276,19.239c5.767,5.672,16.308,11.628,22.028,12.432c3.593,0.473,4.632,1.134,5.861,3.545
	c2.553,5.011,7.8,19.003,10.116,27.038c2.836,9.738,2.931,10.399,3.356,32.474c0.615,29.544,2.694,47.081,8.461,70.669
	c0.756,3.12,1.324,5.72,1.229,5.814c-0.047,0.094-1.134-1.324-2.411-3.073c-5.625-7.941-13.094-16.072-24.391-26.471l-3.687-3.403
	v-2.836c0-3.356-0.804-8.981-3.12-21.791c-3.025-16.78-4.821-23.02-8.792-30.819c-3.38-6.64-8.703-14.029-15.974-16.628
	c-11.06-3.954-21.477,5.692-30.777,10.246c-11.487,5.625-15.977,13.141-15.41,25.857c0.378,8.036,2.694,15.741,7.043,23.068
	c2.127,3.593,8.509,9.974,11.865,11.865c3.876,2.127,10.352,4.207,15.788,5.011c8.13,1.229,25.904,0.804,33.089-0.804l2.458-0.52
	l4.632,4.207c13.661,12.385,22.548,22.642,29.449,33.987c1.702,2.789,3.593,5.814,4.16,6.76c0.615,0.898,2.222,4.68,3.498,8.319
	c1.324,3.687,3.829,10.069,5.578,14.228c1.749,4.159,3.073,7.658,3.025,7.752c-0.095,0.095-1.182-0.756-2.411-1.891
	c-6.003-5.578-14.985-11.77-25.904-17.915c-4.491-2.553-6.76-4.113-8.414-5.956c-4.963-5.531-17.632-15.552-25.289-20.042
	c-3.687-2.174-10.399-4.727-12.527-4.727c-3.545,0-6.476,2.836-6.476,6.24c0,2.553,1.513,6.192,3.829,9.218
	c6.287,8.083,19.806,13.945,36.729,15.93c4.68,0.52,6.429,0.945,8.745,2.08c4.585,2.269,15.363,9.029,20.468,12.905
	c5.578,4.16,16.497,14.654,19.381,18.624c1.134,1.56,2.458,3.356,2.931,4.018c0.52,0.662,2.458,3.923,4.302,7.28
	c1.891,3.403,4.916,8.461,6.712,11.298c1.796,2.836,3.262,5.247,3.262,5.341c0,0.142-1.418-0.993-3.167-2.458
	c-6.098-5.152-14.228-9.785-22.075-12.527c-2.836-0.993-3.451-1.418-5.294-3.782c-3.073-3.971-7.563-7.847-11.298-9.69
	c-3.782-1.844-8.225-2.978-18.672-4.68c-4.018-0.662-9.785-1.654-12.763-2.174c-6.949-1.276-16.166-1.324-27.417-0.189
	c-11.581,1.182-22.926,1.135-29.166-0.189c-5.909-1.229-6.618-1.229-7.232-0.047c-0.851,1.607-1.891,0.567,18.672,18.199
	c16.214,13.85,23.351,16.45,36.54,13.236c6.098-1.465,6.901-1.465,13.188,0.095c11.014,2.694,20.326,1.134,35.878-6.051l4.112-1.891
	l3.356,1.276c11.203,4.254,20.184,10.636,32.569,23.21l4.16,4.207l-4.632-1.513c-5.342-1.796-9.454-2.553-13.992-2.553
	c-2.694,0-3.687-0.236-6.381-1.607c-7.138-3.592-16.403-5.625-25.62-5.625c-9.312,0-17.206,2.08-27.417,7.28
	c-4.207,2.127-21.224,11.581-24.344,13.519c-1.513,0.945-2.08,2.6-1.182,3.687c1.607,1.985,23.588,4.491,38.998,4.491
	c15.315,0,23.399-2.033,32.096-8.036c3.356-2.317,8.556-7.28,9.596-9.218c1.134-2.033,12.007-0.615,20.562,2.647
	c6.523,2.505,7.563,3.403,17.584,15.41c15.363,18.435,37.816,40.51,53.982,53.226c2.694,2.08,4.869,3.876,4.774,3.923
	c-0.142,0.142-11.392-2.411-18.53-4.207c-2.6-0.662-9.501-2.127-10.163-2.458c-2.08-1.087-9.123-8.792-12.527-13.709
	c-3.73-5.379-8.248-10.674-14.512-13.082c-7.773-2.988-16.243-1.723-24.343-2.611c-11.203-1.229-13.992-0.567-24.911,5.767
	c-13.141,7.61-24.391,11.959-37.296,14.465c-2.836,0.52-4.585,1.702-4.585,3.073c0,1.465,2.789,3.403,11.817,8.083
	c31.718,16.544,44.056,20.988,58.567,20.941c6.571-0.047,11.439-0.851,17.49-2.931c5.2-1.796,19.003-8.461,25.573-12.385
	c2.458-1.465,4.916-2.647,5.436-2.647c1.56,0,10.778,2.222,18.672,4.443c4.018,1.134,8.083,2.222,8.981,2.411
	c2.694,0.567,11.345,3.923,14.654,5.767c1.702,0.898,6.098,3.545,9.738,5.861c8.414,5.247,19.428,10.778,29.496,14.748
	c14.086,5.578,23.351,9.17,25.242,9.785c1.702,0.52,1.796,0.662,1.04,1.229c-0.473,0.331-2.553,1.276-4.68,2.127
	c-2.127,0.851-4.963,2.033-6.334,2.647c-1.371,0.615-5.2,1.749-8.509,2.6c-7.232,1.749-12.054,1.985-15.363,0.709
	c-1.985-0.756-2.363-1.229-4.396-4.822c-5.199-9.263-11.814-14.887-17.439-14.89c-3.284-0.002-5.576,2.447-8.424,3.648
	c-3.412,1.438-6.268-0.081-9.448-1.426c-7.326-3.167-10.163-3.829-15.976-3.829c-8.613,0-16.145,4-23.101,8.706
	c-7.336,4.964-14.415,10.03-22.496,13.767c-4.934,2.281-10.064,4.11-15.288,5.605c-2.6,0.756-3.593,1.276-3.971,2.08
	c-0.709,1.654,0.189,3.025,2.363,3.403c5.578,0.945,15.977,3.545,26.329,6.665c23.635,7.043,34.649,9.407,46.088,9.879
	c10.021,0.425,19.239-1.371,27.18-5.341c5.956-2.978,14.606-8.981,19.381-13.425c3.356-3.12,5.436-4.018,13.519-6.051
	c4.254-1.04,11.676-3.214,16.497-4.822c8.461-2.836,8.934-2.931,14.654-3.12c5.247-0.189,6.665-0.095,12.763,1.182
	c13.756,2.836,34.223,5.294,44.812,5.294c2.127,0,3.876,0.189,3.876,0.378c0,0.52-12.432,5.389-20.184,7.941
	c-11.156,3.64-20.421,5.294-35.786,6.382c-7.921,0.546-15.693-1.171-23.445-2.534c-6.618-1.164-15.072-2.982-21.648-0.681
	c-2.836,0.993-5.578,3.356-6.003,5.2c-1.229,4.822,4.585,8.65,13.945,9.17c7.421,0.378,16.828-1.607,24.817-5.247
	c3.12-1.465,3.829-1.56,10.352-1.891c14.701-0.662,28.882-3.025,37.863-6.24c0.52-0.189-0.662,0.804-2.6,2.174
	c-4.065,2.883-7.091,5.294-11.108,8.887c-1.56,1.418-4.207,3.309-5.909,4.207c-17.584,9.643-25.195,15.032-28.693,20.232
	c-4.916,7.469-0.378,13.614,8.414,11.345c7.421-1.891,15.505-8.083,20.893-16.024c2.363-3.498,5.814-10.73,6.429-13.519
	c0.378-1.749,0.993-2.6,3.451-4.869c8.603-7.847,25.715-17.726,38.903-22.453l5.2-1.844l11.25-0.567
	c13.519-0.662,23.257-1.56,34.365-3.167c7.138-0.993,19.948-3.356,23.635-4.302c0.662-0.142-1.134,1.371-4.018,3.403
	c-2.836,1.985-7.658,5.578-10.636,7.941c0,0-5.42,4.336-5.436,4.349c-0.858,0.686-5.301,0.015-6.503,0.068
	c-3.118,0.137-6.221,0.495-9.272,1.161c-10.136,2.213-26.382,10.03-27.728,21.793c-0.403,3.526,1.604,7.991,4.411,10.209
	c7.011,5.538,16.648,10.426,25.616,6.912c7.933-3.108,13.297-11.051,15.272-19.108c1.182-4.822,2.789-16.639,2.458-17.915
	c-0.236-0.851-0.047-1.371,0.615-1.891c9.785-7.894,20.279-15.221,28.693-20.09c2.08-1.182,8.603-4.16,14.512-6.618
	c5.862-2.458,15.457-6.665,21.271-9.312c5.814-2.6,10.825-4.869,11.108-5.011c0.378-0.142,0.236,0.615-0.425,2.033
	c-0.567,1.276-4.515,13.685-7.051,15.049c-2.788,1.499-5.734,2.266-8.459,4.025c-8.496,5.486-16.374,14.756-18.164,24.964
	c-1.402,7.996,3.049,15.407,7.37,21.742c6.143,9.007,16.573,9.189,24.772,2.921c6.159-4.708,8.487-13.251,8.77-20.673
	c0.362-9.527-0.38-18.885-5.717-27.044c-1.463-2.237-2.927-4.574-2.698-7.366c0.195-2.377,1.611-4.679,2.441-6.875
	c1.277-3.378,2.522-6.998,4.407-10.099c0.709-1.087,2.789-2.364,8.65-5.294c15.315-7.61,30.253-17.254,45.616-29.496
	c2.931-2.316,5.389-4.207,5.483-4.207c0.095,0-0.189,2.269-0.662,5.058c-0.425,2.836-1.134,8.603-1.513,12.857
	c-0.378,4.207-0.804,7.799-0.898,7.894c-0.244,0.364-5.879-0.712-6.428-0.729c-7.605-0.238-14.868,3.098-20.705,7.773
	c-11.156,8.934-16.403,19.428-14.843,29.591c0.64,4.068,2.366,8.116,3.897,11.911c3.058,7.583,7.798,16.084,16.949,16.782
	c6.57,0.473,13.661-2.458,21.271-8.792c11.609-9.662,23.155-26.8,15.828-42.272c-1.972-4.165-5.602-8.37-9.399-11.001l-2.694-1.844
	l0.236-2.883c1.56-16.639,2.316-21.744,3.829-26.944c0.567-2.08,1.229-2.836,5.294-6.381c14.37-12.479,26.944-26.235,41.787-45.616
	l3.971-5.2v11.345c0,8.509,0.189,12.432,0.804,15.741l0.804,4.443l-5.011,4.774c-12.668,12.196-20.846,25.904-23.068,38.572
	c-1.796,10.115-0.189,20.751,4.206,28.597c3.624,6.47,9.192,10.664,16.151,13.026c8.525,2.893,18.558,5.586,27.423,2.707
	c20.952-6.804,28.847-37.108,21.517-55.911c-2.174-5.578-6.192-11.203-12.526-17.49c-8.367-8.32-19.003-15.835-23.54-16.544
	c-1.702-0.284-1.702-0.331-2.222-3.309c-1.513-8.461-1.465-20.421,0-29.449c0.52-3.073,0.945-4.065,3.403-7.563
	c13.897-20.09,24.675-37.958,30.725-50.862c8.178-17.537,11.581-27.7,16.119-47.979c1.229-5.578,1.229-5.625,2.174,3.073
	c0.331,2.6,1.182,8.225,1.985,12.527c2.458,13.235,2.505,11.487-0.709,18.341c-9.727,20.742-12.976,43.663-5.19,65.695
	c3.098,8.765,7.679,17.873,15.022,23.834c8.026,6.516,17.017,4.242,24.675-1.524c5.588-4.208,10.885-8.827,16.923-12.398
	c9.229-5.457,17.955-9.461,22.974-19.497c7.546-15.197,4.604-32.619-2.742-47.27c-4.094-8.165-10.457-15.707-19.031-19.331
	c-10.09-4.264-20.815-2.037-30.981,0.706c-8.083,2.174-14.465,3.593-14.654,3.262c-0.331-0.52-3.498-17.395-4.207-22.453
	c-1.654-11.628-2.127-23.824-1.229-32.616c0.911-8.913,1.248-17.877,2.364-26.771c0.813-6.48,1.858-13.009,1.938-19.554v-3.309
	l1.56,5.436c2.174,7.516,6.334,22.169,7.516,26.566c1.507,5.312-1.276,11.862-1.276,17.395c-0.047,6.947,0.898,11.39,3.166,15.171
	c4.057,6.764,10.792,4.045,12.27-2.701c1.708-7.796-2.17-17.464-6.975-23.579c-2.08-2.647-2.6-4.065-5.956-15.835
	c-2.931-10.304-6.854-26.849-6.429-27.274c0.142-0.095,1.749,2.316,3.64,5.341c3.545,5.625,9.076,13.141,21.981,29.733
	c4.971,6.41,9.92,12.837,14.805,19.313c2.89,3.832,6.214,7.688,8.303,12.037c4.697,9.779,5.392,29.418,17.568,33.593
	c5.268,1.806,8.923-2.849,8.863-7.746c-0.095-9.738-9.738-22.17-23.777-30.584c-0.662-0.378-5.625-6.523-11.108-13.661
	c-5.436-7.138-13.897-18.104-18.766-24.391c-8.981-11.533-13.756-18.104-13.425-18.435c0.095-0.095,1.702,0.804,3.592,2.033
	c4.349,2.789,11.912,6.381,21.271,10.116c4.822,1.891,7.563,3.214,8.036,3.923c1.04,1.608,4.585,4.869,8.272,7.658
	c5.153,3.898,11.289,7.517,18.002,6.748c5.851-0.67,9.716-6.192,7.402-11.919c-4.089-10.115-21.742-12.164-30.509-7.78
	c0,0-2.033,0.993-2.033,0.993l-7.989-3.167c-9.218-3.64-18.057-7.847-22.311-10.683c-1.654-1.04-4.822-3.545-7.091-5.578
	c-3.451-2.978-4.491-4.254-6.003-7.232c-1.749-3.403-1.844-3.829-2.222-10.116c-0.567-8.367-1.702-17.726-2.553-20.752
	c-0.331-1.324-1.418-5.767-2.411-9.927c-2.08-9.218-5.578-21.555-8.367-29.78c-3.309-9.738-11.865-33.042-15.457-42.165
	c-1.796-4.632-3.214-8.461-3.12-8.509c0.095-0.095,2.033,2.033,4.349,4.68c2.269,2.694,6.476,7.327,9.265,10.352l5.105,5.531
	c0,0,0.471,3.91,0.473,3.923c1.282,10.641,7.614,16.78,12.88,25.596c5.948,9.958,8.79,21.52,14.81,31.558
	c5.723,9.544,13.031,18.392,22.416,24.528c2.458,1.607,8.556,4.916,13.566,7.421c5.058,2.458,11.487,6.051,14.37,7.989
	c5.152,3.498,6.76,4.112,7.894,2.978c0.945-0.945,0.662-2.553-1.749-9.738c-1.276-3.829-3.545-12.337-5.011-18.908
	c-3.12-14.086-4.585-18.766-8.036-25.999c-7.799-16.261-23.54-33.751-39.045-43.347c-8.839-5.483-20.042-10.163-26.518-11.061
	c-1.938-0.284-4.065-0.709-4.727-0.945c-1.276-0.473-7.469-7.043-15.268-16.119c-8.367-9.785-9.879-11.912-18.435-26.708
	c-6.287-10.778-14.417-22.17-28.929-40.51c-1.371-1.749-2.505-3.262-2.505-3.403s1.134,0.425,2.505,1.324
	c1.324,0.851,3.782,2.222,5.389,3.073c2.742,1.371,2.978,1.607,3.64,3.734c2.883,9.832,11.581,16.97,26.802,22.028
	c14.465,4.822,26.802,4.632,59.749-0.945c13.897-2.316,15.835-2.978,15.835-5.341c0-1.654-0.615-2.174-6.145-5.294
	c-4.869-2.694-12.621-7.705-22.831-14.748c-9.879-6.815-20.774-12.829-32.803-14.574c-12.691-1.84-24.242,2.984-34.368,10.319
	l-4.207,3.073l-2.363-0.993c-7.989-3.356-22.595-13.756-31.765-22.69c-7.752-7.563-18.01-16.355-27.417-23.493
	c-4.065-3.025-7.232-5.625-7.138-5.72s2.08,0.142,4.349,0.567c2.316,0.378,7.705,0.945,12.007,1.229s9.359,0.662,11.25,0.804
	l3.498,0.331c0,0,0.615,1.796,0.615,1.798c1.835,5.288,6.243,10.744,10.814,13.93c4.197,2.925,9.038,2.611,13.899,2.523
	c4.56-0.083,8.054,0.838,12.298,2.502c13.897,5.531,19.712,5.389,35.642-0.945c3.593-1.418,8.13-2.883,10.068-3.214
	c4.018-0.709,4.963-1.276,4.963-3.073c0-1.654-1.087-2.694-9.454-8.745c-13.945-10.116-24.013-14.701-36.635-16.592
	c-7.91-1.201-16.127-0.929-24.026,0.226c-3.509,0.513-7.055,1.192-10.424,2.316c-3.34,1.115-6.342,3.894-9.831,4.348
	c-9.108,1.186-20.207-0.923-29.176-2.684c-7.705-1.513-11.487-3.073-19.57-7.894c-8.461-5.058-13.803-7.989-21.035-11.628
	c-3.12-1.56-5.862-3.12-6.051-3.403c-0.236-0.378,0.425-0.473,2.458-0.236c1.56,0.142,4.585,0.378,6.807,0.52
	c11.203,0.804,23.966,3.356,34.507,6.854c6.665,2.222,6.901,2.364,12.29,6.712c7.469,6.051,13.188,7.941,18.104,5.956
	c2.553-0.993,3.451-4.585,1.796-7.28c-2.647-4.302-9.501-6.76-21.791-7.705c-4.16-0.331-6.901-0.851-11.581-2.316
	c-3.356-1.04-7.421-2.174-8.981-2.505l-2.836-0.567l3.782-0.804c2.08-0.425,5.72-1.324,8.036-2.033
	c3.025-0.898,6.665-1.465,12.527-1.985c14.181-1.276,20.988-3.12,24.013-6.571c1.654-1.938,1.938-3.734,0.851-5.861
	c-1.796-3.451-5.578-5.247-10.967-5.294c-7.61,0-13.566,3.025-21.177,10.825c-4.065,4.16-4.302,4.349-8.036,5.483
	c-8.414,2.553-20.326,3.64-32.616,2.978c-9.974-0.52-12.621-1.04-16.261-3.214c-3.403-2.08-9.123-4.396-12.668-5.2
	c-5.436-1.229-12.668-1.844-16.261-1.371c-7.941,1.04-13.377,2.647-16.781,4.963c-0.945,0.615-1.891,1.134-2.174,1.134
	c-0.236,0-4.443-1.985-9.312-4.443c-8.745-4.349-16.875-7.469-23.73-9.029c-8.934-2.033-10.399-2.647-7.658-3.214
	c0.756-0.142,4.254-1.371,7.752-2.647c7.516-2.789,9.69-2.978,16.308-1.418c5.389,1.324,15.552,1.418,21.177,0.189
	c10.872-2.316,19.664-8.556,25.762-18.388c4.632-7.374,8.036-11.723,13.992-17.537c5.011-4.963,5.862-5.956,5.862-7.232
	c0-2.6-1.465-3.12-7.705-2.742c-12.901,0.803-24.669,3.638-33.319,8.033c-4.439,2.255-8.018,5.92-12.909,7.313
	c-11.534,3.284-20.73,8.827-24.299,21.005c-1.182,4.16-2.316,5.152-8.225,7.327c-2.883,1.087-7.752,2.694-10.825,3.593
	c0,0-5.625,1.607-5.625,1.607c-15.779-2.076-31.659-0.918-47.412,1.04c-10.163,1.324-24.06,3.923-34.932,6.665
	c-5.058,1.276-9.265,2.222-9.359,2.127c-0.095-0.095,1.607-1.418,3.734-3.025c2.174-1.56,5.294-4.018,6.996-5.483
	c3.262-2.742,2.6-2.505,21.271-8.461c15.505-4.916,28.126-15.694,37.486-32.002c5.247-9.17,14.039-26.897,14.039-28.315
	c0-1.465-1.418-2.883-2.836-2.883C449.14,52.065,445.925,53.342,442.427,54.854z M456.986,127.934
	c12.857,1.371,23.919,3.734,33.514,7.09c7.563,2.6,18.623,7.657,19.286,8.792c0.749,1.282-0.023,4.592-0.119,5.976
	c-0.404,5.792-0.741,12.404,1.837,17.783c3.035,6.334,9.133,9.141,15.583,10.937c9.927,2.789,13.236,4.68,22.501,12.669
	c6.795,5.9,13.93,11.364,22.878,13.377c5.861,1.323,32.328,0.804,40.839-0.803c6.08-1.148,4.062-5.069,0.617-8.084
	c-14.134-12.479-18.104-16.308-24.06-23.304c-3.498-4.16-9.879-12.716-9.879-13.283c0-0.756,16.639,8.981,25.575,15.033
	c9.034,6.051,14.409,16.073,18.647,25.801c5.08,11.657,7.746,24.418,6.967,37.157c-0.498,8.153-2.363,16.338-1.501,24.531
	c0.488,4.639,2.096,10.231,5.272,13.753c4.482,4.971,10.227,1.164,12.115-4.434c1.702-4.916,0.898-14.748-1.891-23.446
	c-2.568-8.056-6.51-15.64-9.053-23.721c-2.434-7.734-3.679-15.7-6.659-23.292c-1.491-3.799-3.258-7.493-5.371-10.987
	c-0.898-1.513-1.607-2.836-1.513-2.931c0.236-0.189,8.603,6.476,14.606,11.77c7.185,6.287,15.363,14.086,20.469,19.524
	c8.126,8.662,10.946,21.891,12.904,33.23c1.182,7.043,1.418,20.657,0.425,28.551c-0.425,3.593-0.851,6.76-0.993,7.09
	c-0.095,0.284-1.654,0.756-3.403,1.04c-4.68,0.756-8.225,2.647-12.432,6.665c-11.971,11.433-17.465,28.473-16.828,44.765
	c0.567,14.512,5.389,26.329,16.355,40.132c4.538,5.72,5.956,5.483,8.32-1.324c0.709-2.08,4.112-9.643,7.563-16.781
	c9.265-19.192,12.101-27.275,13.472-38.478c1.361-11.124-0.247-23.684-7.469-32.711l-1.844-2.316l0.662-4.018
	c0.945-6.145,1.324-20.657,0.662-26.944c-0.662-6.381-2.836-17.584-4.491-22.926l-1.182-3.782l2.127,2.363
	c4.68,5.2,14.181,17.348,17.915,22.926c14.228,21.319,20.893,35.547,35.452,75.868c2.553,6.996,4.916,13.803,5.247,15.126
	c1.607,5.861,1.654,21.366,0.189,36.634c-0.567,5.814-0.709,6.618-3.025,13.377c-2.883,8.65-6.429,14.89-14.134,25.148l-3.025,3.971
	c0,0-5.861-3.782-5.862-3.782c-14.204-9.287-34.662-14.596-51.093-8.244c-11.994,4.637-21.199,14.979-25.011,27.2
	c-1.607,5.152-1.513,12.716,0.236,18.672c2.6,8.745,6.381,13.945,15.363,21.035c2.863,2.278,5.832,4.519,8.104,7.417
	c3.891,4.964,6.418,10.972,12.985,12.86c6.674,1.919,14.01,1.074,20.272-1.795c9.312-4.207,17.584-12.81,23.399-24.249
	c4.112-7.989,6.145-15.505,6.901-25.289c0.378-4.727-0.473-14.417-1.56-18.01L713,428.571l4.349-5.767
	c9.501-12.621,14.134-22.548,16.686-35.642c0.851-4.349,1.844-14.748,1.985-20.515c0.047-1.891,0.047-1.891,0.473-0.473
	c1.04,3.356,5.2,20.279,6.051,24.817c1.229,6.429,1.513,12.81,1.607,34.98c0.061,11.217-1.01,22.394-2.099,33.546
	c-0.863,8.832-1.419,17.792-3.289,26.487c-0.945,4.396-3.923,13.141-5.625,16.544c-2.647,5.2-11.723,20.137-15.694,25.668
	c-3.167,4.491-13.236,16.498-15.363,18.435c-0.945,0.804-0.993,0.756-1.749-1.229c-2.751-7.217-11.76-13.194-18.482-16.402
	c-14.559-6.949-34.649-8.367-49.255-3.45c-13.425,4.443-24.013,13.566-35.263,30.3c-10.541,15.694-12.716,26.471-7.469,36.871
	c4.241,8.405,10.097,15.908,14.937,23.966c8.603,14.323,14.134,17.726,27.795,17.112c7.232-0.331,12.763-1.796,19.995-5.247
	c17.312-8.33,32.539-23.499,40.93-40.779c2.778-5.721,5.439-11.687,6.263-18.042c0.724-5.587,1.979-13.709,3.042-16.402
	c0.719-1.822,4.943-7.651,8.087-11.266c6.934-7.97,12.894-16.454,18.259-25.547c2.495-4.229,5.536-8.396,7.7-12.801
	c-3.852,25.312-14.68,50.613-27.353,72.613c-10.971,19.044-23.89,36.916-37.442,54.192c-6.032,7.689-11.934,15.03-20.255,20.351
	c-8.439,5.396-17.926,9.625-27.64,12.094c-5.294,1.324-11.014,2.174-14.323,2.174h-2.222c0,0-0.095-3.923-0.095-3.923
	c-0.348-14.431-11.176-30.323-25.479-34.129c-10.111-2.69-20.186,2.018-26.511,9.755c-9.266,11.336-18.932,31.205-3.222,42.005
	c7.563,5.2,21.319,7.28,31.624,4.774c7.469-1.796,15.41-6.145,21.555-11.77l3.073-2.789l4.207-0.331
	c9.454-0.709,19.806-3.64,29.355-8.272l5.672-2.742l-4.963,4.68c-21.177,20.137-45.615,37.627-67.832,48.546
	c-10.799,5.307-22.342,9.511-34.393,10.626c-7.291,0.675-15.844,1.56-23.087,0.151c-1.702-0.331-1.749-0.425-3.262-5.2
	c-4.774-15.126-15.032-26.566-29.496-32.9c-13.839-6.06-35.911-6.997-46.086,6.295c-8.243,10.768-5.805,32.779,3.496,42.157
	c5.72,5.767,12.81,9.549,21.13,11.25c9.17,1.891,20.184-0.095,33.467-6.098c5.483-2.458,8.083-4.207,12.999-8.934l3.309-3.167
	l6.287,0.567c5.814,0.52,16.828,0.378,22.311-0.284l2.127-0.284l-1.654,0.898c-3.593,1.985-19.57,8.225-27.228,10.683
	c-12.007,3.829-25.289,6.523-42.968,8.792c-9.265,1.229-15.599,1.087-24.108-0.425c-14.937-2.6-25.715-6.854-34.745-13.709
	c-8.953-6.763-12.309-18.81-17.441-28.348c-2.508-4.662-5.022-9.973-9.511-13.068c-6.326-4.362-11.128,0.846-10.768,7.241
	c0.331,6.003,3.214,11.345,9.785,18.199c3.12,3.262,11.77,10.258,15.883,12.81c0.804,0.473,3.64,2.553,6.381,4.538
	c9.029,6.665,16.592,10.399,27.606,13.519l5.72,1.607l-16.072-0.189c-22.359-0.284-26.282-0.898-34.177-5.295
	c-11.918-6.651-26.85-19.814-29.685-33.987c-0.236-1.182,0.047-1.844,1.654-3.876c5.672-7.09,10.21-16.638,11.959-25.194
	c4.589-22.446-6.886-40.026-22.342-55.003c-2.201-2.133-8.355-8.12-10.392-4.925c-2.067,3.242-0.629,11.785-0.87,15.549
	c-0.383,5.976-0.962,11.963-1.601,17.917c-0.811,7.559-2.4,15.155-1.76,22.775c0.877,10.648,6.261,25.581,16.733,30.63
	c1.891,0.898,2.174,1.276,3.593,4.869c2.033,5.105,4.774,10.163,7.941,14.512c3.498,4.774,11.298,12.337,16.544,16.072
	c2.363,1.654,4.254,3.073,4.16,3.167c-0.189,0.236-13.945-2.127-15.646-2.694c-0.756-0.236-2.742-0.662-4.396-0.945
	c-7.8-1.371-25.904-7.61-33.845-11.723c-5.436-2.789-6.76-3.687-10.825-7.61c-13.57-13.097-24.932-30.671-29.402-49.161
	c0,0-0.851-3.45-0.851-3.451c-0.047-0.192,3.805-3.13,3.976-3.286c9.771-8.946,16.537-22.678,15.878-36.09
	c-0.142-2.883-0.615-6.807-1.04-8.745c-3.356-15.693-9.312-25.62-25.146-41.927c-1.788-1.841-3.768-4.786-6.298-5.602
	c-4.641-1.496-4.201,3.827-4.244,7.002c-0.061,4.554-0.294,9.087-0.7,13.623c-1.399,15.647-6.397,34.153-2.469,49.735
	c1.985,7.941,6.949,16.497,12.337,21.461c2.742,2.505,3.12,3.073,3.829,5.814c1.938,7.752,3.403,11.676,7.185,19.144
	c6.381,12.668,11.628,20.704,18.152,27.842l2.553,2.836l-3.782-2.553c-11.818-7.894-21.082-15.599-32.191-26.66
	c-20.799-20.846-31.907-39.234-37.296-61.734c-3.574-14.922-4.022-30.44-4.585-45.616c0,0,2.931-6.854,2.931-6.854
	c3.782-8.934,4.396-11.628,4.113-17.962c-0.313-6.994-7.314-23.684-15.174-12.101c-6.815,10.436-3.541,23.005,1.56,33.372
	c0,0,2.742,5.436,2.742,5.436l0.567,10.636c0.52,10.116,1.513,20.799,2.363,25.384c0.236,1.182,0.236,1.938,0.047,1.702
	c-0.189-0.189-2.411-4.727-4.916-10.069c-5.342-11.297-9.643-19.239-14.701-27.18l-3.64-5.672l-1.134-7.327
	c-1.465-9.785-4.065-18.293-6.996-23.115c-3.78-6.219-11.934-10.432-16.432-2.087c-4.694,8.708,2.366,20.02,8.727,25.816
	c2.127,1.938,8.13,5.956,10.068,6.76c1.749,0.756,5.152,5.578,11.156,16.025c2.978,5.152,14.086,27.18,14.086,27.937
	c0,0.52-11.534-10.778-12.337-12.101c-0.425-0.709-1.134-2.411-1.513-3.829c-0.993-3.403-2.978-6.381-6.618-10.021
	c-8.225-8.225-16.355-10.352-18.955-4.869c-2.883,6.145,3.545,15.883,13.708,20.704c2.363,1.087,3.64,1.371,6.901,1.465l4.065,0.142
	l4.112,3.734c2.269,2.08,7.232,6.995,11.108,10.919c9.461,9.577,12.526,23.248,19.618,34.46
	c10.825,17.064,29.449,36.445,47.743,49.586c6.571,4.727,6.807,4.963,3.214,3.167c-7.563-3.734-23.068-14.086-34.176-22.737
	c-20.515-15.977-41.976-36.918-60.553-59.087c-7.989-9.549-16.828-21.366-23.352-31.198c-7.371-11.169-14.567-22.786-18.735-35.584
	c-4.233-12.999-5.442-27.333-4.401-40.926c0.599-7.823,2.088-15.576,4.512-23.04c1.985-6.098,9.004-20.185,10.061-22.085
	c0.846-1.522,1.595-2.879,1.595-2.879s2.253,1.199,3.908,1.59c21.328,5.034,43.628-11.579,54.821-22.666
	c5.011-4.963,8.225-9.218,11.298-15.127c6.288-12.111,10.348-29.027,2.659-41.367c-5.66-9.085-16.036-12.151-25.017-16.82
	c-6.641-3.453-13.015-7.78-20.354-9.642c-28.305-7.176-44.109,46.143-43.13,65.467c0.567,11.203,4.727,24.392,10.494,33.279
	l1.56,2.411l-5.105,10.258c-7.185,14.417-9.974,23.493-11.298,36.729c-0.756,6.996-0.615,19.617,0.189,26.708
	c0.378,3.356,0.615,6.192,0.473,6.334c-0.142,0.142-2.458-5.058-2.789-5.814c-1.465-3.12-3.64-8.839-5.672-14.748
	c-7.658-22.359-12.243-43.867-14.796-69.156c-1.182-11.581-1.182-41.504,0-53.652c1.607-16.592,5.342-38.478,7.374-43.016
	c2.553-5.72,11.439-19.475,17.726-27.369c7.327-9.265,17.443-19.428,23.73-23.871l1.702-1.182c0,0,2.174,2.553,2.175,2.553
	c8.009,9.43,18.784,14.848,31.293,13.992c16.497-1.182,31.718-8.13,42.59-19.523c7.963-8.355,13.848-19.408,12.591-31.214
	c-1.666-15.651-15.462-32.001-32.397-30.71c-5.578,0.425-10.21,1.749-16.497,4.822c-16.923,8.272-31.34,25.809-41.74,50.865
	c-3.135,7.622-9.757,12.752-15.376,18.552c-6.701,6.918-13.015,14.304-18.421,22.287c-1.749,2.6-3.309,4.822-3.403,4.963
	c-0.993,1.04,5.483-18.104,9.549-28.409c8.65-21.839,19.286-41.787,32.758-61.64c14.276-21.082,20.515-27.558,32.427-33.845
	c5.956-3.12,9.312-4.443,15.788-6.145c6.712-1.749,8.13-1.796,8.13-0.284c0,1.985,2.883,6.948,5.814,10.115
	c11.759,12.708,40.139,22.183,50.261,2.179c2.916-5.763,2.905-14.684,0.892-20.763c-2.26-6.821-4.913-14.486-10.667-19.209
	c-15.305-12.561-34.983,5.928-43.084,18.081c0,0-2.364,3.545-2.364,3.545l-4.822,0.851c-5.672,0.993-12.952,3.356-18.388,5.956
	c-2.127,1.04-3.923,1.796-3.971,1.749c-0.189-0.189,18.672-18.624,24.911-24.391c8.367-7.705,21.697-17.301,38.289-27.511
	c16.97-10.399,22.453-12.716,35.689-15.079c5.294-0.945,7.705-1.134,17.49-1.134c11.108,0,18.199,0.662,18.199,1.702
	c0,0.236,1.087,2.647,2.411,5.389c6.429,13.047,19.097,23.304,37.343,30.253c13.661,5.247,29.071,7.421,44.765,6.429
	c13.33-0.898,35.925-4.632,38.667-6.429c1.371-0.898,1.513-3.073,0.331-4.112c-0.473-0.425-3.593-2.269-6.996-4.16
	c-8.367-4.632-17.537-10.73-28.835-19.192c-15.41-11.581-21.744-15.552-29.827-18.766c-17.371-6.908-37.444-4.353-54.03,3.545
	c0,0-3.971,1.891-3.971,1.891l-3.545-0.52c-7.989-1.182-22.122-1.087-29.402,0.236c-2.033,0.331,7.421-3.971,16.781-7.705
	c17.117-6.815,34.82-12.204,52.856-15.971c5.613-1.173,11.268-2.134,16.915-3.126l5.814,0.993
	c7.658,1.276,15.646,3.309,21.413,5.483c4.349,1.607,12.527,5.578,14.465,7.043c0.52,0.378,1.229,2.174,1.796,4.822
	c2.107,9.833,8.848,17.294,16.445,23.461c7.86,6.381,16.571,13.471,25.984,17.323c6.135,2.511,12.752,3.775,19.306,4.594
	c7.349,0.918-0.22-8.295-1.702-10.494c-2.789-4.16-7.847-12.101-11.156-17.679c-7.094-11.959-16.717-22.938-30.886-25.963
	c-3.917-0.836-7.983-0.897-11.96-0.531c-0.899,0.083-4.831,1.261-5.606,0.874c0,0-5.294-2.789-5.294-2.789
	c-5.909-3.073-12.81-5.625-19.948-7.327c-2.553-0.662-4.774-1.229-4.869-1.371c-0.095-0.095,1.891-0.331,4.443-0.52
	c2.553-0.142,4.963-0.378,5.342-0.473C433.068,126.563,450.51,127.225,456.986,127.934z"/>
</svg>
