<?xml version="1.0" encoding="UTF-8"?>
<svg id="Layer_2" data-name="Layer 2" xmlns="http://www.w3.org/2000/svg" viewBox="0 0 4194.53 5000">
  <g id="_10_Hand_Drawn_Floral_Wedding_Monogram_Frames_Elegant_Botanical_Logo_Set_Minimal_Wedding_Crest_Design" data-name="10 Hand Drawn Floral Wedding Monogram Frames, Elegant Botanical Logo Set, Minimal Wedding Crest Design">
    <g id="Fine_Art_Botanical_Floral_Monogram_Frame" data-name="Fine Art Botanical Floral Monogram Frame">
      <path d="M1118.18,4221.52c-4.07-15.51,1.31-110.61-28.61-84.06,9.67,45.69,10.42,91.5,14.9,137.46,30.38,1.32,8.31-36.7,13.71-53.4ZM826.98,4924.27c-2.3.54-5.47,1.61-6.99.59-7.7-5.18-16.05.99-23.73-1.88-31.9,3.18-64.92.48-97.38,4.39-12.33-1.74-24.28-3.69-31.59,9.03,2.09,10.42,6.48,14.26,15.34,12.12,27.15-5.61,55.14-4.32,82.36-8.24,9.12,2.59,17.38-6.91,26.11-.81.8.53,2.68.54,3.37-.03,15.31-9.32,36.15,4.74,48.07-12.1-5.94-4.49-10.62-4.23-15.56-3.06ZM2265.3,4963.51c-173.46-28.3-354.37-20.3-521.77-81.85-34.17-9.19-81.32-4.56-99.62-39.88,9.72-7.98-3.95-18.74-8.96-25.4-11.83-8.84-7.64-24.67-17.2-34.41-7.21-10.62-16.02-21-18.07-34.28-2.31-5.16-9.83-9.24-7.22-16.04,1.69-7.53-4.95-13.53-3.16-21.25-.4-76.52-7.91-155.66-35.34-227.26-15.52-71.41-57.5-138.19-94.75-199.59-32.91-37.82-66.58-75.03-102.28-110.25-18.15-17.91-36.81-35.29-56.12-51.95-7.67-6.62-35.67-32.25-37.28-5.01-.27,4.52,1.03,8.98,2.31,13.32,28.17,95.58,44.41,194.91,70.8,291.26,8.73,52.47,41.84,96.87,61.49,145.11,20.08,22.87,27.79,54.91,57.31,68.03,52.09,66.56,112.05,128.07,138.06,209.52-113.44-40.92-230.06-81.24-333.15-144.91-85.84-25.16-106.12-96.3-125.54-173.67-4.4-123.1,48.73-241.13,37.88-364.53-1.43-56.13-26.84-106.85-52.82-154.97-18.03-33.38-35.71-66.94-53.66-100.35-8.98-16.72-18.07-33.39-27.42-49.92-6.9-12.19-13.91-32.09-25.21-40.91-4.43-3.45-10.98-4.85-15.68-1.79-4.26,2.77-5.82,8.16-7.06,13.08-6.18,24.53-7.46,45.02-8.73,70.16,2.19,8.86-6.64,14.61-4.59,23.18,2.08,20.37-2.97,39.33-4.44,59.36-6.44,18.72-5.09,39.21-8.27,58.21,5,6.73,2.34,12.99-.51,19.62-1.37,24.67-10.41,48.87-6.4,74.12,2.37,9.73-5.28,17.98-6.18,27.26,1.12,38.46-4.5,81.63,8.37,117.41,1.2,16.96,7.45,34.26,6.26,51.58,9.88,81.64,43.81,160.19,78.5,233.83-117.24-68.32-225.12-162.26-305.78-272.43-28.48-53.98-32.3-117.53-22.33-176.86,5.11-30.4,15.16-58.33,24.99-87.34,6.63-19.56,16.52-37.78,23.66-57.14,7.31-19.82,9.75-38.06,12.29-58.82,5.33-43.5,9.64-89.01,6.01-133.43-1.89-23.22-7.9-44.79-12.26-67.48-13.13-68.26-38.19-129.55-97.33-170.76-2.34-1.63-5.64-3.19-7.8-1.33-1.77,1.53-1.43,4.32-.94,6.61,4.3,20.01,7.4,39.7,10.69,59.73,3.54,21.58,1.01,41.66,1.01,63.17-5.07,41.16-10.94,79.49-8.83,121.03,4.17,82.09,34.52,159.6,38.57,240.69,2.75,32.55-15.69,61.05-19.3,92.32-4.36,36.93-.41,74.52-2,111.04-16.7-29.77-40.17-53.67-55.71-84.86-20.31-43.56-52.11-81.64-71-125.71-8.95-20.89-15.84-42.3-26.18-62.71-10.41-20.56-22.35-40.34-35.7-59.12-1.99-2.8-4.09-5.65-7.03-7.42-2.94-1.77-6.96-2.2-9.69-.12,14.28,46.53,33.49,91.92,55.89,134.98,14.7,28.27,27.96,58.42,45.32,85.04,3.2,2.37,2.18,4.82-1.05,6.5-79.92-56.46-128.11-147.23-203.91-210.26-65.72-49.05-134.58-98.77-210.86-131.32-29.32-6.82-57.29-18.25-84.41-31.15-22.5-10.71-44.55-16.34-69.04-21.41-3.9-.81-8.75-1.16-11.04,2.1-1.72,2.44-1.09,5.77-.31,8.66,5.1,19.07,13.88,31.7,23.79,47.89,4.89,7.99,9.33,16.17,14.72,23.87,3.69,5.27,14.19,13.81,15.8,19.63,7.58,27.37,30.97,50.8,48.58,72.04,4.16,12.65,16.56,19.01,24.65,28.09,9.89.65,14,8.86,20.04,14.79,13.57,15.55,33.7,21.57,49.46,33.79,111.91,74.96,245.54,109.78,361.73,175.59,51.88,27.39,85.68,78.31,120.85,122.43,49.61,55.97,99.5,112.55,150.13,167.61,84.98,69.12,170.55,136.85,260.58,197.43,75.69,53.9,165.58,89.22,242.56,139.04-125.67,37.49-255.63-27.87-383.47-22.22-108.03,1.53-214.88,25.4-320.42,45.07-25.68,4.79-54.27,3.35-80.35,4.23-26.84.9-53.69,1.38-80.54,1.75-51.26.7-102.92-3.07-152.4,12.48-41.52,13.05,20.52,24.85,33.2,28.44,15.19,2.15,26.03,16.18,40.38,20.19,36.97,4.95,29.72,26.15,55.41,33.49,25.61,3.29,40.72,24.75,63.63,34.59,183.95,109.61,335.67,71.56,519.54-16.84,56.25-27.05,104.63-64.53,166.49-79.85,15.1-3.74,30.52-6.21,46.07-7,16.33-.83,27.58-4.35,43.42-8.69,32.56-8.91,66.98-9.96,100.34-5.6,45.04,5.89,90.5,21.51,132.7,37.38,71.97,27.06,143.42,45.89,218.5,61.45,35.97,7.46,71.31,18.46,107.49,25.62,37.8,7.49,75.86,13.61,114.02,19.01,19.58,2.77,40.08,3.79,59.4,7.91,47.53,10.14,97.31,13.8,146.15,16.33,33.76-.32,73.62,8.94,103.12-11.6-.41-2.92-.74-5.27-1.04-7.4ZM1416.37,4266.8c.51.55,1.03,1.1,1.54,1.65-.13.31-.25.62-.37.92-1.32-.71-2.43-.96-1.17-2.58ZM1365.26,4257.05c4.19,2.07,7.35,5.24,7.65,11.09-2.23.93-4.71,1.97-8.56,3.56-4-7.99-7.41-14.79-11.06-22.08,6.87-1.29,7.92,5.42,11.97,7.42ZM1344.8,4266.94c.61,1.17,1.09,2.1,1.57,3.03-2.21,1.6-3.27-1.41-1.57-3.03ZM1480.02,4636.28c-.87-1.47-1.75-2.93-2.62-4.4,1.33,1.03,2.65,2.05,3.98,3.07-.45.44-.9.88-1.36,1.32ZM1488.97,4511.93c14.03,53.64,43.46,104.87,50.32,159.15-42.64-53.57-58.74-124.32-101.84-176.84-.56,4.85-.93,8.09-1.32,11.48-13.64-7.68-8.23-29.56-26.78-34.04,3.02,57.12,40.77,109.87,67.36,159.35-42.24-35.06-75.25-82.84-90.45-135.75-37.28-67.59-48.52-144.54-61.15-219.95,20.02,10.36,11.89,32.32,28.19,44.01,10.39,7.96,6.19,21.27,18.76,29.74,7.84-28.91-18.7-34.34-15.92-59.11,16.35,3.88,12.78,30.77,31.7,28.23,12.97,1.46,14.04,20.83,20.28,30.27,15.55,28.91,30.68,55.6,48.32,83.12,21.21-9.09-10.07-41.01-12.91-56.4-13.52-44.19-50.95-79.45-61.09-123.64,17.87,22.06,28.75,47.84,46.04,70.69,7.68,11.74,8.9,29.07,25.33,32.29,6.19-29.94-26.59-51.11-29.9-79.78,69.31,87.47,88.37,201.53,115.95,307.43-32.49-27.65-19.66-105.72-61.69-120.44-12.35,13.92,8.51,34.63,10.8,50.2ZM1466.6,4556.88q-8.94,2.32-10.08-6.4c3.65,2.32,6.38,4.05,10.08,6.4ZM1544.94,4528.26c-.53-1.78-1.06-3.56-1.58-5.33.68-.2,1.37-.39,2.05-.58.49,1.79.99,3.58,1.48,5.36-.65.18-1.29.37-1.94.55ZM1563.08,4666.65c-2.65-3.43-5-6.97-4.19-11.84,4.97,3.18,5.06,3.37,4.19,11.84ZM1565.67,4672.17c-.71-1.54-1.43-3.09-2.14-4.63,1.32,1.11,2.63,2.21,3.95,3.32-.6.44-1.2.88-1.8,1.31ZM741.39,3922.02c-.22-1.71-.21-3,1.7-3.54-.03,1.47-.64,2.56-1.7,3.54ZM748.17,3798.5c2.07.19,5.79,5.17,5.3,7.04-3.75,23.03,7.49,45.41,1.98,68.47-7.37,13.55-3.17,32.89-12.16,44.07-6.96-38.96-10.74-77.97-12.65-117.55,5.32-4.75,11.77-2.55,17.53-2.03ZM435.96,4046.27c-.96-.3-1.17-.65-.57-1.52,1,.28,1.16.64.57,1.52ZM458.13,4038.22c-30.27-21.07-53.59-49.48-78.68-75.42-7.3,1.04-5.4,7.06-7.3,10.64-11.21,1.78-11.6-2.96-19.28,16.74-10.99-10.43-23.14-15.58-33.03-27.74,5.02-.8,8.8-1.4,12.81-2.04.14-8.58-7.83-9.37-11.24-13.89-3.88-5.13-7.41-9.9-14.86-9.51-1.94-8.77-8.72-11.83-15.25-15.04q-9.3,5.41-7.77,15.01c9.13,8.2,19.7,13.96,32.76,18.91-16.74,14.06-28.31-9.87-40.98-17.29-7.74.76-11.67-7.12-18.7-8.08-6.66-2.85-9.31-11.82-17.76-12.12-16.5-14.46-38.75-23.9-56.96-37.58-26.76,20.11,56.03,36.04,62.52,54.33,14.18,7.38,26.75,15.86,39.4,25.62,11.96,8.4,25.64,13.7,36.95,23.32,28.7,20.82,61.07,39.42,86.56,62.77-55.03-8.07-98.38-41.5-148.14-63.44-27.68-13.73-50.13-35.59-78.63-46.36-9.67-4.26-12.71-15.45-19.01-24.06.35-.77,1.11-2.47,1.81-4.03-12.4-18.62-29.92-28.3-40.99-48.28q10.4,4.77,17.19-.43c-15.14-23.56-43.29-39.09-52.45-67.63,15.47,11.83,36.98,13.14,50.47,27.19-7.02,11.28-8.93,15.48,4.62,22.07,26.38,6.77,46.76,47.33,73.82,40.38,1.05-4.83-2.15-6.19-4.99-7.84-17.6-11.29-33.96-22.77-48.85-37.65,16.51-2.7,33.38,23.69,47.75,13.58,4.54-11-17.84-15.71-25.33-20.19-32.37-18.82-69.2-35.98-97.46-58.79,155.74,49.78,288.79,149.06,390.18,277.43-9.88-.37-14.05-6.52-19.19-10.6ZM395.17,4020.5c-12.94-9.18-23.71-16.8-34.41-24.39,8.85-6.2,8.72-6.09,15.15,1.33,7.18,8.38,16.44,9.09,19.26,23.06ZM147.34,3822.61c1.15,1.79,1.87,2.91,2.58,4.03-1.91,2.01-3.82,1.55-4.69-.93-.16-.6,1-1.55,2.11-3.1ZM155.63,3832.4c1.23-1.5,2.24-1.47,3.69-.26-.39.64-.79,1.27-1.18,1.9-.84-.54-1.67-1.09-2.51-1.64ZM502.86,4092.76c-.43-.49-.89-1.02-1.36-1.55,1.64-.87,2.57-2,3.35.53-.62.31-1.23.63-1.99,1.01ZM1043.57,4025.5c-.75-2.11-1.5-4.26-2.71-7.68,4.84,2.82,3.86,5.26,2.71,7.68ZM1041.26,4000.15c.55.5,1,1.11,1.49,1.67-.35.18-.69.35-1.04.52-.47-.56-.93-1.12-1.39-1.68.32-.18.86-.6.94-.52ZM1019.78,3992.38c-.87-5.6-1.62-10.48-2.64-16.99q7.07,7.9,2.64,16.99ZM1009.2,4098.42c8.15-30.93,4.37-66.85,11.57-96.06,7.47,48.63,5.61,99.82,11.17,149.78,4.19,13.84-9.77,26.67.01,39.99-2.23,3.8-4.41,7.5-6.85,11.65-8.45-22.2-2.54-45.46-6.54-68.81-3.26-2.09-6.29-4.02-9.4-6.01-1.62-9.98.05-20.39.02-30.52ZM1102.56,4474.41c-5.88-6.32-8.44-12.25-4.71-21.34,6.49,6.5,8.98,12.49,4.71,21.34ZM1123.6,4378.06c-.97,8.6-1.31,9.6-10.25,10.9-6.31.92-7.85,7.02-13.25,8.62-3.01,17-1.64,31.46,2.31,47.76-1.94,1.12-3.65,2.11-5.25,3.03-19.91-48.32-11.31-109.35-29.58-157.85-2.44,5.21-4.4,9.38-6.57,14.01-2.19-.43-4.5-.88-6.89-1.34-11.72,8.71,5.32,54.09,1.84,71.57-6.44,12.99,4.59,23.16,5.27,35.44-.71,32.99,12.52,64.82,18.23,95.62-43.66-58.96-42.68-138.04-73.67-203.66-12.12,28.45,11.1,58.39,13.23,87.86,3.49,11.54,6.36,24.04,7.81,35.72,12.3,11.7,3.94,35.49,21.09,42.2-6.2,23.41,35.25,81.77,39.54,112.05-76.36-96.77-98.12-226.75-116.33-343.38-.52-104.22,18.98-208.68,26.42-311.98,12.56,65.41,3.29,138.7,2.5,207.63,5.56,3.68,7.29,9.53,6.06,17.38-1.54,10.93,6.68,25.39-1.99,34.49,10.22,21.64-2.16,53.34,16.49,68.01,14.08-9.03,8.08-21.74,5.17-34.23,29.88,2.59,17.78-29.49,19.4-49-1.33-46.75-1.19-91.16-4.48-138.56.31-.49,1.54-2.46,2.8-4.46,10.79,14.02,6,38.15,7.46,55.21,6.39,30.91,4.2,62.45,10.52,92.98-2.39,4.9,4.47,7.02,3.52,10.94-4.14,5.86,1.24,17.01,6.79,7.46,1.29-64.28-5.71-128.58-13.59-193.37,4.37,1.87,7.05,3.01,8.77,3.75-2.8,10.53,5.21,16.52,6.75,25.32.2,6.26,5.4,9.01,6.53,14.23,3.32,12.67,7.51,29.59,20.06,35.49,5.54-8.5-1.46-23.98-5.77-33.38-4.83-14.48-11.04-29.86-14.54-45.42,1.53-1.06,3.15-2.18,5.1-3.53-.96-2.93-1.94-5.92-2.96-9.01,3.69-1.53,6.7,4.47,7.22,6.74,1.69,11.37,12.17,18.08,13.93,29.46,15.7,14.27,9.35,38.21,21,53.81,8.32,13.63,1.81,32.52,16.75,43.3,15.34,14.69,6.12,32.45,8.67,49.99,10.5,62-9.98,122.36-16.58,183.66-3.91,8.17-9.92,14.76-9.55,24.56ZM1067.44,4357.75c.32,2.22.64,4.45,1.08,7.52-4.98-2.95-2.83-5.25-1.08-7.52ZM1064.8,4352.14c5.04,1.07,3.78,3.13,2.66,5.13-.75-1.45-1.5-2.9-2.66-5.13ZM1072.2,4381.08c.23,4.41-.48,8.87-.94,14.89-6.06-6.38-3.26-12.76-4.83-21.63,3.3,3.73,5.69,5.18,5.77,6.75ZM1049.1,4791.25c-3.41-.43-6.83-.85-10.77-1.34q5.14-5.21,10.77,1.34ZM1033.4,4848.33c1.25.51,3.99-.28,3.7,1.54-1.28-.19-2.55-.38-3.82-.58.04-.32.08-.64.13-.96ZM949.59,4779.65c1.28.69,2.55,1.38,3.82,2.06-.27.51-.53,1.01-.8,1.51-1.29-.66-2.58-1.33-3.87-2,.28-.52.56-1.05.84-1.58ZM562.07,4830.35c-10.22,4.8-17.56,2.83-24.88.17,7.37-1.66,14.71-1.18,24.88-.17ZM495.76,4831.68c9.42-3.71,18.97-3.31,30.27-1.59-11.09,5.42-20.77.46-30.27,1.59ZM513.13,4909.02c-1.8-.17-2.48-1.19-1.41-2.85.97.45,1.94.91,3.14,1.47-.8.67-1.28,1.4-1.73,1.38ZM516.78,4891.63l.08-.66.82.42-.9.23ZM1044.02,4880.54c-83.01,50.8-177.73,77.49-272.35,99.58-9.94-5.56-20.35-2.46-31.5-2.3-21.33-.04-42.97.07-64.08-2.74-28.03-12.93-64.06-8.98-88.61-28.41-16.34-12.2-37.59-11.98-53.92-26.5,8.87-.83,14.29-1.35,19.38-1.82,5.34-16.77-20.24-15.61-30.57-23.65,6.79-13.34,21.99,4.34,34.63-3.86-6.11-13.92-27.37-15.5-41.32-20.94,33.45-1.18,66.9-.63,100.66-1.7,11.22,3.2,13.21-3.18,18.11-12.43,24.9-4.56,58.41-3.64,80.36-13.62,4.3-4.09,15.05-.47,18.55-7.04-5.15-6.73-7.5-7.99-13.92-5.46-10.55,2.66-21.53.63-32.36,3.53-39.66,5.9-79.49,1.82-119.56,2.49-.03-4.73,2.71-5.57,5.57-5.85,42.31-2.08,83.55-10.8,124.99-18.64,79.36-8.2,161.39-33.53,240.3-27.66-16.57,9.29-37.54,2.06-55.17,10.27-14.01,2.85-51.08-2.06-38.17,23.41,14.97,1.86,30.83-6.28,46.81-1.82,2.58.45,5.73-2.41,9.53-4.16,11.91,5.81,24.51,5.7,36.79,1.96,30.27,6.26,61.16-8.49,90.03,1.61-74.13,22.76-154.11,17.59-226.1,41.28,10.24,2.05,17.69,4.09,25.65,5.34,8.46-7.08,20.3,2.31,28.52-5.84,11.08-.59,21.49,4.26,32.36,1.14,7.4-3,15.34-2.33,21.55,4.29,5.15,5.48,11.38,7.19,17.64,2.5,5.43-4.06,11.44.53,16.69-2.24,6.17,3.44,12.03-.37,17.91-1.15,5.83-2.64,13.67.17,19.02-2.45,12.11-9.97,27.14-4.72,42.63-6.7-8.01,13.6-29.2,18.33-43.95,22.18-14.38,1.88-26.22,10.54-40.8,11.3-15.23,7.67-54.88,6.32-61.15,19.64,8.39,10.18,19.74-3.87,29.46,3.39,16.59-10.88,38.34-2.27,57.2-7.78,7.77-2.47,15.03-9.12,24.2-6.19,21.28-3.03,37.22-13.72,60.06-19.54-2.86,3.79-3.65,5.94-5.09,6.56ZM673.71,4903.62c26.05.02,55.75,8.87,82.06,2.82,13.98,4.1,43.91,11.6,42.12-11.71-15.15-3.54-30.04-4.55-45.29-4.55-27.86,2.32-58.13,1.16-86.34-.05-21.23,5.35-42.54-9.9-65.18-3.58-4.05,10.89,7.37,9.88,9.97,14.59,11.8-3.64,19.82,4.15,31.63,2.17,10.51-1.92,20.88,2.17,31.04.31ZM1067.79,4288.44c7.68-5.83,5.92-15.58-.86-21.9-6.83,7.56-.37,13.55.86,21.9ZM1382.66,4362.94c-2.75.97-5.28,1.86-7.81,2.75-4.77,20.95,9.72,35.1,19.12,52.79-1.13,4.04-2.42,8.69-3.76,13.53,10.01,11.14,8.17,24.26,27.62,18.08-.41-14.2-9.52-27.14-13.85-40.63-8.38-15.19-10.18-33.06-21.31-46.52ZM207.5,3331.85c-1.06,36.14,8.74,74.65,13.81,110.53,4.71,33.34,17.44,55.56,31.49,85.21,22.92,48.35,63.28,84.65,100.6,121.74,18.94,18.82,37.53,38.18,53.15,59.9,18.21,25.34,25.86,60.72,36.62,89.92,2.89,7.85,5.79,15.71,8.68,23.56,1.82,4.94,3.74,10.04,7.41,13.81,3.71,3.81,13.31,7.48,16.94,1.39,2.81-4.72-4.02-17.75-5.48-22.42-5.73-18.31-11.55-36.59-16.77-55.06-4.2-14.87-9.72-30.4-9.12-45.71.62-16.13-2.44-32.41-8.2-47.48-5.05-13.22-15.6-24.47-19.26-37.88-7.66-28.02-.8-56.05-4.37-84.24-3.22-42.69-12.13-83.37-24-124.45-15.61-52.91-42.28-101.51-71.26-148.14-14.47-23.28-29.54-46.17-44.23-69.31-13.87-21.86-30.3-40.26-43.69-62.7-4.52-7.57-7.88-21.61-19.75-19.36-2.13,7.25-3.31,14.81-3.86,22.53-1.79,25,2.95,51.78,2.83,76.11,0,37.3-.44,74.83-1.53,112.06ZM360.99,3622.31c.67,1.56,1.34,3.11,2,4.66-3.12-.48-3-2.38-2-4.66ZM366.59,3633.24c-1-1.9-1.99-3.79-2.99-5.69,2.61,1.17,5.23,2.16,2.99,5.69ZM270.66,3237.39c63.94,93.08,119.8,206.22,118.93,319.72-6.8-20.69-17.54-37.11-21.49-57.95-.78-7.17-3.63-12.39-10.96-14.91,4.52-12.1-5.55-20.85-7.92-32.24-15.52-.16-5.73,17.26-3.65,25.59,6.93,17.22,8.19,35.92,18.5,52.14-8.59,31.16-20.34-27.58-28.06-34.84,13.77-27.87-23.6-57.84-16.5-86.69-3.36-27.45-33.13-51.76-24.45-80.24,5.36,8.94,11.42,15.05,22.86,10.02-18.47-36.5-38.56-67.02-53.97-106.8,3.62,3.32,5.33,4.62,6.72,6.2ZM241.27,3344.84c1.77,2.66,3.54,5.32,5.45,8.16,5.1,1.16,10.23,2.31,15.88,3.6,1.84-2.75,3.6-5.37,4.94-7.38.3-6.56-7.48-10.41-3.08-17.67,6.58,15.77,12.75,32.27,20.84,47-2.41,4.2-.1,6.83,2.23,9.82,3.92,9.95-.37,22.11,2.86,32.3,6.39,11.39,7.74,24.81,15.42,35.81,6.96,9.98,6.03,12.04-3.67,19.93,3.28,5.89,9.18,3.91,14.58,4.51.67,1.87,1.32,3.7,2.12,5.97-4.95,2.21-9.38,4.18-14.06,6.26-26.02-13.1-7.39-89.24-42.48-78.2,7.19,42.12,10.24,93.78,48.04,121.89-.59,19.83,21.88,29.2,26.8,47.4,9.26,11.85,18.97,22.95,23.68,37.7-86.2-58.26-128.8-166.6-133.01-267.89,4.04-2.78,8.54-5.86,13.45-9.23ZM313.91,3506.26c-3.6.87-4.54.74-4.8-2.79,3.05-1.33,3.56-.33,4.8,2.79ZM328.87,3911.13c-29.43-3.43-71.15-60.74-92.74-44.74,5.51,12.74,20.62,13.67,30.81,20.77,20.22,17.03,45.71,40.36,73.62,37.53-.83-8.09-6.15-12.09-11.69-13.56ZM140.8,3869.04c-3.95,3.31.85,8.77,6.01,5.03-1.03-3.82-2.23-6.26-6.01-5.03Z" fill="FRAME_COLOR"/>
      <path d="M396.87,3304.34v-1612.56c0-197.27,34.85-386.52,98.52-562.07-.01,0-.03,0-.03,0,.72-1.58,1.19-3.3,1.19-5.14,0-6.8-5.51-12.31-12.31-12.31-5.08,0-9.43,3.08-11.31,7.47-.01,0-.03,0-.05-.01-64.99,178.62-100.55,371.26-100.55,572.07v1612.56c0,233.37,47.57,459.54,141.42,672.33l22.43-9.97c-92.45-209.6-139.32-432.45-139.32-662.37Z" fill="FRAME_COLOR"/>
      <path d="M4193.75,1267.44c-5.1-19.07-13.88-31.7-23.79-47.89-4.89-7.99-9.33-16.17-14.72-23.86-3.69-5.27-14.19-13.82-15.8-19.63-7.58-27.37-30.97-50.8-48.58-72.04-4.16-12.66-16.56-19.01-24.65-28.09-9.89-.65-14-8.86-20.04-14.79-13.57-15.55-33.7-21.57-49.46-33.79-111.91-74.96-245.54-109.78-361.73-175.59-51.88-27.39-85.68-78.31-120.85-122.43-49.61-55.97-99.5-112.55-150.13-167.61-84.98-69.12-170.55-136.85-260.58-197.43-75.69-53.9-165.58-89.22-242.56-139.04,125.67-37.49,255.63,27.87,383.47,22.22,108.02-1.53,214.88-25.4,320.42-45.07,25.68-4.79,54.27-3.35,80.35-4.23,26.84-.9,53.69-1.38,80.54-1.75,51.26-.7,102.92,3.07,152.4-12.48,41.52-13.05-20.52-24.85-33.2-28.44-15.19-2.15-26.02-16.18-40.38-20.19-36.97-4.95-29.72-26.15-55.41-33.49-25.61-3.29-40.72-24.75-63.63-34.59-183.95-109.61-335.67-71.56-519.54,16.84-56.25,27.05-104.63,64.53-166.49,79.85-15.1,3.74-30.52,6.21-46.07,7-16.33.83-27.58,4.35-43.42,8.69-32.56,8.91-66.98,9.96-100.34,5.59-45.04-5.89-90.5-21.51-132.7-37.38-71.97-27.06-143.42-45.89-218.5-61.45-35.97-7.46-71.31-18.46-107.49-25.62-37.8-7.49-75.86-13.61-114.02-19.01-19.58-2.77-40.08-3.79-59.4-7.91-47.53-10.14-97.31-13.8-146.15-16.33-33.76.32-73.62-8.94-103.12,11.6.41,2.92.74,5.27,1.04,7.4,173.46,28.3,354.37,20.3,521.77,81.85,34.17,9.19,81.32,4.56,99.62,39.88-9.72,7.98,3.95,18.74,8.96,25.4,11.83,8.84,7.64,24.67,17.2,34.41,7.21,10.62,16.02,21,18.07,34.28,2.31,5.16,9.83,9.24,7.22,16.04-1.69,7.53,4.95,13.53,3.16,21.25.4,76.52,7.91,155.66,35.34,227.26,15.52,71.41,57.5,138.19,94.75,199.59,32.91,37.82,66.58,75.03,102.28,110.25,18.15,17.9,36.81,35.29,56.12,51.95,7.67,6.62,35.67,32.25,37.28,5.01.27-4.52-1.03-8.98-2.31-13.32-28.17-95.58-44.41-194.91-70.8-291.26-8.73-52.47-41.84-96.87-61.49-145.11-20.08-22.87-27.79-54.91-57.31-68.03-52.09-66.56-112.05-128.07-138.06-209.52,113.44,40.91,230.06,81.24,333.15,144.91,85.84,25.16,106.12,96.3,125.54,173.67,4.4,123.1-48.73,241.13-37.88,364.53,1.43,56.14,26.84,106.85,52.82,154.97,18.03,33.38,35.71,66.94,53.66,100.35,8.98,16.72,18.07,33.39,27.42,49.92,6.9,12.19,13.91,32.09,25.21,40.91,4.43,3.45,10.98,4.85,15.68,1.79,4.26-2.77,5.82-8.16,7.06-13.08,6.18-24.53,7.46-45.02,8.73-70.16-2.19-8.86,6.64-14.61,4.59-23.18-2.08-20.37,2.97-39.33,4.44-59.36,6.44-18.72,5.09-39.21,8.27-58.21-5-6.73-2.34-12.99.51-19.62,1.37-24.67,10.41-48.87,6.4-74.12-2.37-9.73,5.28-17.98,6.17-27.26-1.12-38.46,4.5-81.63-8.37-117.41-1.2-16.96-7.45-34.26-6.26-51.58-9.88-81.64-43.81-160.19-78.5-233.83,117.24,68.32,225.12,162.26,305.78,272.43,28.48,53.98,32.31,117.53,22.33,176.86-5.11,30.39-15.16,58.32-24.99,87.34-6.63,19.56-16.52,37.78-23.66,57.14-7.31,19.82-9.75,38.06-12.29,58.82-5.33,43.5-9.64,89.01-6.01,133.43,1.89,23.22,7.9,44.79,12.26,67.48,13.13,68.26,38.19,129.55,97.33,170.76,2.34,1.63,5.64,3.19,7.8,1.33,1.77-1.53,1.43-4.32.94-6.61-4.3-20.01-7.4-39.7-10.69-59.73-3.54-21.58-1.01-41.66-1.01-63.17,5.07-41.16,10.94-79.49,8.83-121.03-4.17-82.09-34.52-159.6-38.57-240.69-2.75-32.55,15.69-61.06,19.3-92.32,4.36-36.93.41-74.52,2-111.04,16.7,29.77,40.17,53.67,55.71,84.86,20.31,43.57,52.11,81.64,71,125.71,8.95,20.89,15.84,42.3,26.17,62.71,10.41,20.56,22.35,40.34,35.7,59.12,1.99,2.8,4.09,5.65,7.03,7.42,2.94,1.77,6.96,2.2,9.69.12-14.28-46.53-33.49-91.92-55.89-134.98-14.7-28.27-27.96-58.42-45.32-85.04-3.2-2.37-2.18-4.82,1.05-6.5,79.92,56.46,128.11,147.23,203.91,210.26,65.72,49.05,134.58,98.77,210.86,131.32,29.32,6.82,57.29,18.25,84.41,31.15,22.5,10.71,44.55,16.34,69.04,21.41,3.9.81,8.75,1.16,11.04-2.1,1.72-2.44,1.08-5.77.31-8.66ZM3145.43,208.75c3.41.43,6.83.85,10.77,1.34q-5.14,5.21-10.77-1.34ZM3161.13,151.67c-1.25-.51-3.99.28-3.7-1.54,1.28.19,2.55.38,3.82.58-.04.32-.08.64-.13.96ZM3244.94,220.35c-1.28-.69-2.55-1.38-3.82-2.06.27-.51.53-1.01.8-1.51,1.29.66,2.58,1.33,3.87,2-.28.52-.56,1.05-.84,1.58ZM3632.46,169.65c10.22-4.8,17.56-2.83,24.88-.17-7.37,1.66-14.71,1.18-24.88.17ZM3698.77,168.32c-9.42,3.71-18.97,3.31-30.27,1.59,11.09-5.42,20.77-.46,30.27-1.59ZM3681.4,90.98c1.8.17,2.48,1.19,1.41,2.85-.97-.45-1.94-.91-3.14-1.47.8-.67,1.29-1.4,1.73-1.38ZM3677.75,108.37l-.08.66-.82-.42.9-.23ZM3150.51,119.46c83.01-50.8,177.73-77.49,272.35-99.59,9.94,5.56,20.35,2.46,31.5,2.3,21.33.04,42.96-.07,64.08,2.74,28.03,12.93,64.06,8.98,88.61,28.41,16.34,12.2,37.59,11.98,53.92,26.5-8.87.83-14.29,1.35-19.38,1.82-5.34,16.77,20.23,15.61,30.57,23.65-6.79,13.34-21.99-4.34-34.63,3.86,6.11,13.92,27.37,15.5,41.32,20.94-33.45,1.18-66.9.63-100.66,1.7-11.22-3.2-13.21,3.18-18.11,12.43-24.9,4.56-58.41,3.64-80.36,13.62-4.3,4.09-15.05.47-18.55,7.04,5.15,6.73,7.5,7.99,13.92,5.46,10.55-2.66,21.53-.63,32.36-3.53,39.66-5.9,79.49-1.82,119.56-2.49.03,4.73-2.71,5.57-5.57,5.85-42.31,2.08-83.55,10.8-124.99,18.64-79.36,8.2-161.4,33.53-240.3,27.66,16.57-9.29,37.54-2.06,55.17-10.27,14.01-2.85,51.08,2.06,38.17-23.41-14.97-1.86-30.83,6.28-46.81,1.82-2.58-.45-5.73,2.41-9.53,4.16-11.91-5.81-24.51-5.7-36.79-1.96-30.27-6.26-61.16,8.49-90.03-1.61,74.13-22.76,154.11-17.59,226.1-41.28-10.24-2.05-17.69-4.09-25.65-5.34-8.46,7.08-20.3-2.31-28.52,5.84-11.08.59-21.49-4.26-32.36-1.14-7.4,3-15.34,2.33-21.55-4.29-5.15-5.48-11.38-7.19-17.64-2.51-5.43,4.06-11.44-.53-16.69,2.24-6.17-3.44-12.03.37-17.91,1.15-5.83,2.64-13.67-.17-19.02,2.45-12.11,9.97-27.14,4.72-42.63,6.7,8.01-13.6,29.2-18.33,43.94-22.18,14.38-1.88,26.22-10.54,40.8-11.3,15.23-7.67,54.88-6.32,61.15-19.64-8.39-10.18-19.74,3.87-29.46-3.39-16.59,10.88-38.34,2.27-57.2,7.78-7.77,2.47-15.03,9.12-24.2,6.19-21.28,3.03-37.22,13.72-60.06,19.54,2.86-3.79,3.65-5.94,5.09-6.56ZM2778.16,733.2c-.51-.55-1.03-1.1-1.54-1.66.13-.31.25-.62.37-.92,1.32.71,2.43.96,1.17,2.58ZM2829.27,742.95c-4.19-2.07-7.35-5.24-7.65-11.09,2.23-.93,4.71-1.97,8.56-3.56,4,7.99,7.41,14.79,11.06,22.08-6.87,1.29-7.92-5.42-11.97-7.43ZM2849.73,733.06c-.61-1.17-1.09-2.1-1.57-3.03,2.21-1.6,3.27,1.41,1.57,3.03ZM2714.52,363.72c.87,1.47,1.75,2.93,2.62,4.4-1.33-1.03-2.65-2.05-3.98-3.07.45-.44.9-.88,1.36-1.32ZM2705.56,488.07c-14.03-53.64-43.46-104.87-50.32-159.15,42.64,53.57,58.74,124.32,101.84,176.84.56-4.85.93-8.09,1.32-11.48,13.64,7.68,8.23,29.56,26.79,34.04-3.02-57.12-40.77-109.87-67.36-159.35,42.24,35.06,75.25,82.84,90.45,135.75,37.28,67.59,48.52,144.54,61.15,219.95-20.02-10.36-11.89-32.32-28.19-44.01-10.39-7.96-6.19-21.27-18.76-29.74-7.84,28.91,18.7,34.34,15.92,59.11-16.35-3.88-12.78-30.77-31.7-28.23-12.97-1.46-14.04-20.83-20.28-30.27-15.55-28.91-30.68-55.6-48.32-83.12-21.21,9.09,10.07,41.01,12.91,56.4,13.52,44.19,50.95,79.45,61.09,123.64-17.87-22.06-28.75-47.84-46.04-70.69-7.68-11.74-8.9-29.07-25.33-32.29-6.19,29.94,26.59,51.11,29.9,79.78-69.31-87.46-88.37-201.53-115.95-307.43,32.49,27.65,19.66,105.72,61.69,120.44,12.35-13.92-8.51-34.63-10.8-50.2ZM2727.93,443.12q8.94-2.32,10.08,6.4c-3.65-2.32-6.38-4.05-10.08-6.4ZM2649.59,471.74c.53,1.78,1.06,3.56,1.58,5.33-.68.2-1.37.39-2.05.58-.49-1.79-.99-3.58-1.48-5.36.65-.18,1.29-.37,1.94-.55ZM2631.46,333.35c2.65,3.43,5,6.97,4.19,11.84-4.97-3.18-5.06-3.37-4.19-11.84ZM2628.86,327.83c.71,1.54,1.43,3.09,2.14,4.63-1.32-1.11-2.63-2.21-3.95-3.32.6-.43,1.2-.88,1.8-1.31ZM3091.97,525.59c5.88,6.32,8.44,12.25,4.71,21.34-6.49-6.5-8.98-12.49-4.71-21.34ZM3150.96,974.5c.75,2.11,1.5,4.26,2.71,7.68-4.84-2.82-3.86-5.26-2.71-7.68ZM3153.27,999.85c-.55-.5-1-1.11-1.49-1.67.35-.18.69-.35,1.04-.52.47.56.93,1.12,1.39,1.68-.32.18-.86.6-.94.52ZM3174.75,1007.62c.87,5.6,1.62,10.48,2.64,16.99q-7.07-7.9-2.64-16.99ZM3185.34,901.58c-8.15,30.93-4.37,66.85-11.57,96.06-7.47-48.63-5.61-99.82-11.17-149.78-4.19-13.84,9.77-26.67-.01-39.99,2.23-3.8,4.41-7.5,6.85-11.65,8.45,22.2,2.54,45.46,6.54,68.81,3.26,2.09,6.29,4.02,9.4,6.01,1.62,9.98-.05,20.39-.02,30.52ZM3223.39,763.4c.52,104.22-18.98,208.68-26.42,311.98-12.56-65.41-3.29-138.7-2.5-207.63-5.56-3.68-7.29-9.53-6.06-17.38,1.54-10.93-6.68-25.39,1.99-34.49-10.22-21.64,2.16-53.34-16.49-68.01-14.08,9.03-8.08,21.74-5.17,34.23-29.88-2.59-17.78,29.49-19.4,49,1.33,46.75,1.19,91.16,4.48,138.56-.31.49-1.54,2.46-2.8,4.46-10.79-14.02-6-38.15-7.46-55.21-6.39-30.91-4.2-62.45-10.52-92.98,2.39-4.9-4.47-7.02-3.52-10.94,4.14-5.86-1.24-17.01-6.79-7.46-1.29,64.28,5.71,128.58,13.59,193.37-4.37-1.87-7.05-3.01-8.77-3.75,2.8-10.53-5.21-16.52-6.75-25.32-.2-6.26-5.4-9.01-6.53-14.23-3.31-12.67-7.51-29.59-20.06-35.49-5.54,8.5,1.46,23.98,5.77,33.38,4.83,14.48,11.04,29.86,14.54,45.42-1.53,1.06-3.15,2.18-5.1,3.53.96,2.93,1.94,5.92,2.96,9.01-3.69,1.53-6.7-4.47-7.22-6.74-1.69-11.37-12.17-18.08-13.93-29.46-15.7-14.27-9.35-38.21-21-53.81-8.32-13.63-1.81-32.52-16.75-43.3-15.34-14.69-6.12-32.45-8.67-49.99-10.5-62,9.98-122.36,16.58-183.66,3.91-8.17,9.92-14.76,9.55-24.56.97-8.6,1.31-9.6,10.25-10.9,6.32-.92,7.85-7.02,13.25-8.62,3.01-17,1.64-31.46-2.31-47.76,1.94-1.12,3.65-2.11,5.25-3.03,19.91,48.32,11.31,109.35,29.58,157.85,2.44-5.21,4.4-9.38,6.57-14.01,2.19.43,4.5.88,6.89,1.34,11.72-8.71-5.31-54.09-1.84-71.57,6.44-12.99-4.59-23.16-5.27-35.44.71-32.99-12.52-64.82-18.23-95.62,43.65,58.96,42.68,138.04,73.67,203.66,12.12-28.45-11.1-58.39-13.23-87.86-3.5-11.54-6.36-24.04-7.81-35.72-12.3-11.7-3.94-35.49-21.09-42.2,6.2-23.41-35.25-81.77-39.54-112.05,76.36,96.77,98.12,226.75,116.33,343.38ZM3127.09,642.25c-.32-2.22-.64-4.45-1.08-7.52,4.98,2.95,2.83,5.25,1.08,7.52ZM3129.73,647.86c-5.04-1.07-3.78-3.13-2.66-5.13.75,1.45,1.5,2.9,2.66,5.13ZM3122.33,618.92c-.23-4.41.48-8.87.94-14.89,6.06,6.38,3.26,12.76,4.83,21.63-3.3-3.73-5.69-5.18-5.77-6.75ZM3453.14,1077.98c.22,1.71.21,3-1.7,3.54.03-1.47.64-2.56,1.7-3.54ZM3446.36,1201.5c-2.07-.19-5.79-5.17-5.3-7.04,3.75-23.03-7.49-45.41-1.98-68.47,7.37-13.55,3.17-32.89,12.16-44.07,6.96,38.96,10.74,77.97,12.65,117.55-5.32,4.75-11.77,2.55-17.53,2.03ZM3758.57,953.73c.96.3,1.17.65.57,1.52-1-.28-1.16-.64-.57-1.52ZM3689.68,908.25c.62-.31,1.23-.63,1.99-1.01.43.49.89,1.02,1.36,1.55-1.64.87-2.57,2-3.35-.53ZM4052.33,1158.12c-26.38-6.77-46.76-47.33-73.82-40.38-1.05,4.83,2.16,6.19,4.99,7.84,17.6,11.29,33.96,22.77,48.85,37.65-16.51,2.7-33.38-23.69-47.75-13.58-4.54,11,17.84,15.71,25.33,20.18,32.37,18.82,69.2,35.98,97.46,58.79-155.74-49.78-288.79-149.06-390.18-277.43,9.88.37,14.05,6.52,19.19,10.6,30.27,21.07,53.59,49.48,78.68,75.42,7.3-1.04,5.4-7.06,7.3-10.64,11.21-1.78,11.6,2.96,19.28-16.74,10.99,10.43,23.14,15.58,33.03,27.74-5.02.8-8.8,1.4-12.81,2.04-.14,8.58,7.83,9.37,11.24,13.89,3.88,5.13,7.41,9.9,14.86,9.51,1.94,8.77,8.72,11.83,15.25,15.04q9.3-5.41,7.77-15.01c-9.13-8.2-19.7-13.96-32.76-18.91,16.74-14.06,28.31,9.87,40.98,17.29,7.74-.76,11.67,7.12,18.7,8.08,6.66,2.85,9.31,11.82,17.76,12.12,16.5,14.46,38.75,23.9,56.96,37.57,26.76-20.11-56.03-36.04-62.52-54.33-14.18-7.38-26.75-15.86-39.4-25.62-11.96-8.4-25.64-13.7-36.95-23.32-28.7-20.82-61.07-39.42-86.56-62.77,55.03,8.07,98.38,41.5,148.14,63.44,27.68,13.73,50.13,35.59,78.63,46.36,9.67,4.26,12.72,15.45,19.01,24.06-.35.77-1.11,2.47-1.81,4.03,12.4,18.62,29.92,28.3,40.99,48.28q-10.4-4.77-17.19.43c15.14,23.56,43.29,39.09,52.45,67.63-15.47-11.83-36.98-13.14-50.47-27.19,7.02-11.28,8.93-15.48-4.62-22.07ZM4047.19,1177.39c-1.15-1.79-1.87-2.91-2.58-4.03,1.91-2.01,3.82-1.55,4.69.93.16.6-1,1.55-2.11,3.1ZM4038.9,1167.6c-1.23,1.5-2.24,1.47-3.69.26.39-.64.79-1.27,1.18-1.9.84.54,1.67,1.09,2.51,1.64ZM3799.36,979.5c12.94,9.18,23.71,16.8,34.41,24.39-8.85,6.2-8.72,6.09-15.15-1.33-7.18-8.38-16.44-9.09-19.26-23.06ZM3367.56,75.73c2.3-.54,5.47-1.61,6.99-.59,7.7,5.18,16.05-.99,23.73,1.88,31.9-3.18,64.92-.48,97.38-4.39,12.33,1.74,24.28,3.69,31.59-9.03-2.09-10.42-6.48-14.26-15.34-12.12-27.15,5.61-55.14,4.32-82.36,8.24-9.12-2.59-17.38,6.91-26.11.81-.8-.53-2.68-.55-3.37.03-15.31,9.32-36.15-4.74-48.07,12.1,5.94,4.49,10.62,4.23,15.56,3.06ZM3520.82,96.38c-26.05-.02-55.75-8.87-82.06-2.82-13.98-4.1-43.91-11.6-42.12,11.71,15.15,3.54,30.04,4.55,45.29,4.55,27.86-2.32,58.13-1.16,86.34.05,21.23-5.35,42.54,9.9,65.18,3.58,4.05-10.89-7.37-9.88-9.97-14.59-11.8,3.64-19.82-4.15-31.63-2.17-10.51,1.92-20.88-2.17-31.04-.31ZM2811.87,637.06c2.75-.97,5.28-1.86,7.81-2.75,4.77-20.95-9.72-35.1-19.12-52.79,1.13-4.04,2.42-8.69,3.76-13.53-10.01-11.15-8.17-24.26-27.62-18.08.41,14.2,9.52,27.14,13.85,40.64,8.38,15.19,10.18,33.06,21.31,46.52ZM3076.35,778.48c4.07,15.51-1.31,110.61,28.61,84.06-9.67-45.69-10.42-91.5-14.9-137.46-30.38-1.32-8.31,36.7-13.71,53.4ZM3127.6,733.46c6.83-7.56.37-13.55-.86-21.9-7.68,5.83-5.92,15.58.86,21.9ZM3927.59,1112.85c-20.22-17.03-45.71-40.36-73.62-37.53.83,8.09,6.15,12.09,11.69,13.56,29.43,3.43,71.15,60.74,92.74,44.74-5.51-12.74-20.62-13.67-30.81-20.77ZM4047.72,1125.93c1.02,3.82,2.23,6.26,6.01,5.03,3.95-3.31-.85-8.77-6.01-5.03ZM3987.03,1668.15c1.06-36.14-8.74-74.65-13.81-110.53-4.71-33.34-17.44-55.56-31.49-85.21-22.92-48.35-63.28-84.65-100.6-121.74-18.94-18.82-37.53-38.18-53.15-59.9-18.21-25.34-25.86-60.72-36.62-89.92-2.89-7.85-5.79-15.71-8.68-23.56-1.82-4.94-3.74-10.04-7.41-13.81-3.71-3.81-13.31-7.48-16.94-1.39-2.81,4.72,4.02,17.76,5.48,22.42,5.73,18.31,11.55,36.59,16.77,55.06,4.2,14.87,9.71,30.4,9.12,45.71-.62,16.13,2.44,32.41,8.2,47.47,5.05,13.22,15.6,24.47,19.26,37.88,7.66,28.02.8,56.05,4.37,84.24,3.22,42.69,12.13,83.37,24,124.45,15.61,52.91,42.28,101.51,71.26,148.14,14.47,23.28,29.54,46.17,44.23,69.31,13.87,21.86,30.3,40.26,43.69,62.7,4.52,7.57,7.88,21.61,19.75,19.36,2.13-7.25,3.31-14.81,3.86-22.53,1.79-25-2.95-51.78-2.83-76.11,0-37.3.44-74.83,1.53-112.06ZM3833.54,1377.69c-.67-1.56-1.34-3.12-2-4.66,3.12.48,3,2.38,2,4.66ZM3827.94,1366.76c1,1.9,1.99,3.79,2.99,5.69-2.61-1.17-5.23-2.16-2.99-5.69ZM3923.87,1762.61c-63.94-93.08-119.8-206.22-118.93-319.72,6.8,20.69,17.54,37.11,21.49,57.95.78,7.17,3.63,12.39,10.96,14.91-4.52,12.1,5.55,20.85,7.92,32.24,15.52.16,5.73-17.26,3.65-25.59-6.93-17.22-8.19-35.92-18.5-52.14,8.59-31.16,20.34,27.58,28.06,34.84-13.77,27.87,23.6,57.84,16.5,86.69,3.36,27.45,33.13,51.76,24.45,80.24-5.36-8.94-11.42-15.05-22.86-10.01,18.47,36.5,38.56,67.02,53.97,106.8-3.62-3.32-5.33-4.62-6.72-6.2ZM3953.26,1655.16c-1.77-2.66-3.54-5.31-5.45-8.16-5.1-1.16-10.23-2.31-15.88-3.6-1.84,2.75-3.6,5.37-4.94,7.38-.3,6.56,7.48,10.41,3.08,17.67-6.58-15.77-12.75-32.27-20.84-47,2.41-4.2.1-6.83-2.23-9.83-3.92-9.95.37-22.11-2.86-32.3-6.39-11.39-7.74-24.81-15.42-35.81-6.96-9.98-6.03-12.04,3.67-19.93-3.28-5.89-9.18-3.91-14.58-4.51-.67-1.87-1.32-3.7-2.12-5.97,4.95-2.21,9.38-4.18,14.06-6.26,26.02,13.1,7.39,89.24,42.48,78.2-7.19-42.12-10.24-93.78-48.04-121.89.59-19.83-21.88-29.2-26.8-47.4-9.26-11.85-18.97-22.95-23.68-37.7,86.2,58.26,128.8,166.6,133.01,267.89-4.04,2.78-8.54,5.86-13.45,9.23ZM3880.62,1493.74c3.6-.87,4.54-.74,4.8,2.79-3.05,1.33-3.56.33-4.8-2.79Z" fill="FRAME_COLOR"/>
      <path d="M3680.78,1023.33l-22.43,9.97c92.45,209.6,139.32,432.45,139.32,662.37v1612.56c0,197.27-34.85,386.51-98.52,562.07.01,0,.03,0,.03,0-.72,1.58-1.19,3.3-1.19,5.14,0,6.8,5.51,12.31,12.31,12.31,5.08,0,9.43-3.08,11.31-7.47.01,0,.03,0,.04.01,64.99-178.62,100.55-371.26,100.55-572.07v-1612.56c0-233.37-47.57-459.54-141.42-672.33Z" fill="FRAME_COLOR"/>
    </g>
  </g>
</svg>