<?xml version="1.0" encoding="iso-8859-1"?>
<!-- Generator: Adobe Illustrator 23.0.5, SVG Export Plug-In . SVG Version: 6.00 Build 0)  -->
<svg version="1.1" id="Layer_1" xmlns="http://www.w3.org/2000/svg" xmlns:xlink="http://www.w3.org/1999/xlink" x="0px" y="0px"
	 viewBox="0 0 4500 3000" style="enable-background:new 0 0 4500 3000;" xml:space="preserve">
<g id="_x31__x25_20_x28_301_x29__1_">
	<path d="M4127.44,1780.278c5.699-59.109,0.629-115.93-8.959-172.418c-6.347-37.385-14.881-74.343-26.422-110.528
		c-7.6-23.832-21.222-43.021-43.359-55.588c-5.879-3.337-12.01-5.579-18.805-5.597c-4.587-0.012-8.951,1.719-9.65,6.385
		c-0.724,4.828,3.971,5.302,7.497,5.568c8.538,0.644,10.958,5.79,10.94,13.453c-0.087,37.893-0.04,75.787-2.045,114.865
		c-26.228-27.456-67.355-38.768-78.32-81.706c-8.207-32.132-25.074-60.078-55.105-77.435c-8.969-5.184-7.008-13.068-7.003-20.613
		c0.092-156.594,0.25-313.189,0.397-469.783c0.11-115.644-0.098-231.29,0.686-346.93c0.115-17.057-4.207-22.259-21.989-22.284
		c-498.712-0.69-997.423-2.028-1496.135-2.956c-14.521-0.027-22.62-1.549-23.986-19.471c-1.498-19.656-14.07-35.834-29.012-48.577
		c-13.588-11.589-22.628-24.813-22.972-43.012c-0.216-11.435-10.419-18.795-12.415-31.686c38.452,8.388,74.02,22.08,109.469,36.007
		c35.892,14.101,71.768,27.542,110.341,33.28c43.764,6.511,78.544-13.443,112.282-35.85c11.846-7.868,11.909-22.646,6.969-36.755
		c16.403-1.258,28.536,0.45,33.729,17.615c4.299,14.207,15.55,22.349,29.3,27.274c16.411,5.879,32.639,12.272,49.097,18.01
		c14.583,5.085,21.694,0.193,22.966-15.183c0.972-11.756-2.725-22.753-6.772-33.364c-4.844-12.701-0.472-15.23,11.801-15.101
		c87.328,0.921,174.662,1.585,261.995,1.746c327.656,0.602,655.311,1.122,982.967,1.054c17.672-0.004,23.438,3.584,23.375,22.516
		c-0.697,207.792-0.537,415.587-0.037,623.38c0.034,14.238-3.179,19.294-18.191,20.699c-47.949,4.487-47.801,5.201-21.896,44.215
		c10.626,16.005,19.012,33.607,34.157,46.308c2.777,2.328,4.358,5.612,4.223,9.575c-0.819,24.053-1.101,48.136-2.49,72.154
		c-0.704,12.18-6.97,18.843-19.112,10.475c-18.997-13.092-39.57-12.435-60.767-8.767c-12.423,2.15-24.483,5.771-37.202,6.949
		c-17.059,1.581-21.887,10.898-11.935,24.432c12.265,16.678,21.587,34.265,28.511,53.775c5.844,16.466,19.165,26.626,36.994,27.63
		c28.888,1.626,52.355,17.465,69.148,36.637c11.292,12.891,22.537,22.882,39.726,34.577c-5.872-26.819-13.637-48.552-23.67-69.401
		c-4.916-10.218-8.542-0.795-11.127,2.398c-6.78,8.376-12.558,9.596-21.908,2.407c-15.051-11.572-34.15-14.606-51.916-19.906
		c-12.818-3.823-20.405-12.513-26.51-22.927c-5.058-8.629-3.103-11.396,8.909-15.545c-13.114-12.518-28.466-22.456-38.733-40.478
		c22.305,1.154,41.462-7.948,62.108-9.178c12.699-0.757,23.555,3.536,33.955,10.145c6.778,4.307,14.578,8.451,21.714,2.357
		c12.839-10.964,21.386-8.784,27.236,10.924c3.784-11.029,0.768-17.586-1.084-23.823c-7.841-26.41-3.696-50.432,15.244-70.513
		c8.148-8.639,6.03-14.325-1.237-20.719c-3.596-3.163-7.129-7.425-11.408-8.619c-31.306-8.741-42.948-36.701-59.801-59.708
		c-6.409-8.751-2.627-10.95,5.879-12.68c46.374-9.431,75.787,10.096,85.274,56.958c0.359,1.77,0.453,3.658,1.153,5.283
		c2.208,5.121,0.229,14.805,8.003,14.056c8.696-0.838,3.984-9.634,4.217-15.016c1.039-24.035,2.75-48.067-2.921-71.908
		c-3.57-15.005-9.495-28.2-20.911-39.111c-25.638-24.503-35.775-55.047-32.908-90.07c1.493-18.234,3.876-19.073,18.695-9.485
		c34.637,22.41,54.876,51.32,47.557,95.103c-2.362,14.127,4.186,28.022,9.901,42.19c1.228-8.488,2.512-16.969,3.671-25.466
		c4.369-32.025,16.688-61.586,29.457-90.782c9.947-22.745,7.798-43.063-5.793-63.158c-12.771-18.882-21.453-39.391-18.86-62.702
		c2.388-21.476,3.619-44.225,31.222-50.712c6.06-1.424,6.971-7.959,8.599-12.984c8.832-27.266,24.465-50.903,39.61-74.797
		c2.148-3.388,3.704-8.452,8.81-7.901c5.062,0.546,5.511,5.771,6.924,9.534c6.133,16.337,13.348,32.407,17.792,49.203
		c5.822,22.003,27.74,37.826,22.698,64.309c-1.585,8.33,8.34,4.076,12.364,2.755c15.451-5.071,16.367,2.039,12.501,13.809
		c-1.5,4.568-3.342,9.023-5.001,13.539c-1.154,3.141-4.562,7.591,0.776,8.912c17.736,4.386,10.018,15.628,7.01,25.063
		c-10.683,33.518-31.334,60.367-65.308,69.549c-44.414,12.003-64.296,43.282-77.36,82.588c-4.116,12.384-8.324,24.865-9.227,40.554
		c25.872-10.802,48.265-7.903,69.781,12.962c5.036-41.034,33.262-61.048,61.468-81.031c3.264-2.313,5.971-7.058,10.688-5.249
		c4.946,1.896,3.553,7.21,3.679,11.118c0.546,16.843,1.843,33.775,0.727,50.533c-1.955,29.357-14.201,53.627-41.249,67.701
		c-12.76,6.639-18.078,16.807-23.707,29.502c-15.819,35.682-28.568,70.342-24.333,111.397c3.263,31.633-15.907,59.518-31.853,86.967
		c20.146-9.671,34.295-24.68,41.012-46.004c3.97-12.606,7.326-25.484,9.832-38.457c4.967-25.726,17.745-45.509,40.556-59.006
		c10.327-6.11,19.677-13.854,29.602-20.665c7.43-5.099,14.007-11.825,21.048,2.175c4.721,9.387,15.347,4.055,22.886,1.765
		c20.149-6.12,39.938-13.415,59.995-19.857c4.802-1.542,10.641-6.521,14.93-1.358c3.741,4.503-0.152,10.519-2.236,15.204
		c-10.524,23.654-21.475,47.152-35.658,68.886c-4.312,6.607-8.269,11.566,0.816,17.611c7.299,4.857,1.486,9.221-2.14,13.002
		c-17.445,18.189-38.17,29.367-64.004,28.29c-16.219-0.677-32.408-2.207-48.594-3.542c-5.088-0.42-11.625,0.866-12.122-7.254
		c-0.419-6.842,4.566-9.816,9.848-11.157c15.141-3.845,30.458-6.995,45.682-10.516c3.269-0.756,6.441-1.924,9.244-4.369
		c-16.916-1.437-32.232,7.896-52.534,6.506c22.94-19.852,45.184-35.709,67.796-51.232c-26.497,6.682-46.213,24.065-68.086,43.495
		c1.573-14.721,9.222-23.638,11.458-34.768c-22.168,28.8-34.407,63.387-54.53,96.778c62.149-19.837,116.496-9.477,161.965,36.068
		c-28.438,22.768-78.61,25.221-108.733,4.63c-7.45-5.093-14.44-10.853-21.815-16.061c-4.906-3.464-9.967-6.725-16.238-7.433
		c-23.452-2.65-74.404,27.123-83.668,48.972c-21.988,51.854-14.532,103.816-0.621,155.818c1.012,3.782,3.128,6.77,6.633,8.021
		c11.674,4.167,18.479,12.76,23.348,23.677c5.974,13.396,12.668,10.318,18.748,0.046c3.057-5.164,5.414-10.75,7.969-16.202
		c9.696-20.682,25.643-34.562,46.606-43.035c13.363-5.402,27.433-9.209,39.436-17.675c6.117-4.314,9.456-2.885,11.094,4.737
		c7.756,36.101-17.456,89.402-50.631,106.424c-30.375,15.585-60.135,10.235-83.399-14.822c-2.626-2.829-3.737-7.77-11.988-7.405
		c11.845,59.113,15.699,118.391,9.265,178.543c30.432-33.501,67.105-55.272,107.952-70.885
		c16.434-6.281,21.865-21.287,26.873-36.412c11.16-33.709,29.875-60.669,66.306-70.235c11.153-2.928,22.956-7.503,34.053,2.265
		c5.089,4.48,11.639,0.444,17.319-0.877c22.86-5.316,45.614-11.094,68.487-16.35c4.936-1.134,11.123-4.241,14.894,1.431
		c3.083,4.636-0.962,9.198-3.174,13.323c-7.396,13.791-15.667,27.155-22.34,41.28c-5.458,11.553-11.342,22.371-9.733,37.174
		c1.638,15.077-13.846,23.064-24.921,30.734c-21.076,14.596-21.931,14.317-7.311,34.003c9.024,12.151,7.353,18.73-7.548,22.274
		c-39.011,9.278-76.869,10.306-109.307-17.953c-19.563-17.044-39.09-17.261-61.496-6.286
		c-55.226,27.052-90.878,71.873-117.075,125.719c-0.79,1.624-1.779,3.184-2.328,4.887c-2.863,8.877-14.471,18.342-8.561,25.708
		c7.469,9.308,20.412,1.47,30.285-1.382c23.778-6.869,47.695-12.285,72.329-15.128c27.696-3.196,51.024,5.62,71.354,23.587
		c6.314,5.581,12.036,10.04,10.814,22.027c-1.113,10.925,11.344,20.284,19.355,29.15c6.344,7.021,11.141,13.429,0.061,20.031
		c-7.211,4.297-4.833,9.24-2.282,15.189c9.951,23.211,19.495,46.597,29.074,69.965c1.538,3.754,4.746,8.026,1.515,11.789
		c-4.259,4.961-9.028,0.776-13.012-1.184c-19.437-9.563-38.695-19.489-58.039-29.242c-12.137-6.119-24.624-9.963-38.167-4.852
		c-8.27,3.121-15.221,0.118-22.117-4.117c-23.272-14.293-41.581-32.471-49.437-59.707c-2.993-10.376-8.045-20.031-14.541-28.902
		c-16.596-22.664-46.075-24.308-65.122-3.878c-13.127,14.08-27.525,27-40.287,41.385c-10.285,11.593-20.957,14.159-35.122,8.009
		c-8.691-3.773-18.324-5.376-28.917-8.34c2.867-7.128,9.036-9.895,13.744-13.7c17.337-14.009,34.064-28.476,49.156-45.095
		c50.689-55.819,57.124-118.854,30.506-186.597c-28.379-72.227-67.504-137.213-132.677-182.998
		c-35.382-24.856-53.852-22.782-82.945,9.02c-32.34,35.351-77.693,45.032-119.742,27.116c-12.761-5.438-15.043-10.319-5.087-19.943
		c9.849-9.522,11.567-15.915-3.833-22.885c-18.148-8.213-26.238-29.11-19.38-47.142c3.184-8.372,0.875-13.305-3.298-19.488
		c-10.776-15.968-20.734-32.503-31.868-48.209c-7.461-10.526-9.673-15.341,7.104-16.563c24.917-1.814,47.614,5.416,70.62,12.429
		c7.434,2.266,14.61,5.817,11.869-7.955c-2.026-10.172,5.666-8.418,11.629-7.357c12.535,2.229,27.243,12.627,32.596-9.865
		c0.719-3.021,5.268-2.175,7.886-0.36c11.932,8.272,26.327,7.779,39.574,11.371c35.072,9.509,60.68,30.901,71.158,65.593
		c10.458,34.626,30.791,58.669,59.62,80.222c66.29,49.558,96.633,122.658,120.714,198.769c1.45,4.583,2.577,9.267,3.931,13.882
		C4124.242,1777.914,4124.923,1778.191,4127.44,1780.278z M4108.347,1399.003c8.826-34.257,27.48-63.579,45.511-93.318
		c13.066-21.551,20.873-44.757,15.084-70.563c-5.063-22.57-26.936-40.193-47.966-38.775c-22.445,1.514-37.116,18.032-36.93,45.259
		c0.345,50.513,6.986,100.41,18.481,149.628C4103.218,1394.191,4104.028,1397.077,4108.347,1399.003z M3099.519,493.426
		c30.707,0,61.414-0.1,92.121,0.016c246.318,0.937,492.644-0.714,738.959,2.32c15.653,0.193,18.602,5.305,18.705,19.639
		c0.807,113.22,2.73,226.432,3.677,339.652c0.599,71.603,0.112,143.214,0.112,214.822c4.358-10.804,5.147-21.611,5.383-32.43
		c3.737-171.621,2.462-343.275,3.201-514.915c0.16-37.193,0.106-37.314-36.237-37.215
		C3650.213,486.062,3374.976,485.562,3099.519,493.426z M4207.613,1128.862c-0.687-30.181-18.886-49.902-40.375-45.775
		c-16.781,3.223-30.105,20.056-33.503,42.323c-4.191,27.474-1.911,33.208,18.187,44.129c9.016,4.899,17.419,10.502,24.278,18.229
		c2.991,3.37,6.907,6.852,9.582,0.654C4194.427,1168.392,4210.563,1150.933,4207.613,1128.862z M3810.657,1558.118
		c27.184-13.62,53.61-28.373,84.251-32.883c10.595-1.559,8.807-11.245,4.067-16.896c-22.324-26.619-53.704-36.048-85.792-43.958
		c25.816,15.082,55.492,23.755,79.771,50.983c-43.876-4.722-77.95-23.47-116.636-39.271c15.957,18.505,38.09,21.276,54.182,36.313
		c-21.483,2.303-41.591-3.789-61.667,5.963c27.76,6.951,54.848,0.351,84.719,5.225
		C3837.042,1536.312,3821.303,1543.806,3810.657,1558.118z M4189.74,928.816c28.917-20.833,46.553-49.398,62.586-79.473
		c-14.359,15.995-28.717,31.991-45.629,50.831c9.131-35.747,16.863-67.813,15.923-101.235
		c-10.915,28.341-11.783,59.342-25.12,90.025c-8.182-22.74-8.373-44.396-14.584-64.807
		C4178.084,859.247,4194.714,892.966,4189.74,928.816z M4352.173,1659.083c-16.775,14.246-28.195,32.099-39.014,52.473
		c32.196-14.511,56.882,13.437,86.086,13.786c-12.208-7.303-26.031-9.826-37.041-18.525c-2.748-2.171-7.243-3.516-6.718-7.655
		c0.64-5.046,5.485-5.493,9.617-6.309c11.679-2.308,23.12-5.27,32.636-13.586c-9.029,2.219-18.058,4.438-27.087,6.656
		c13.169-15.624,32.509-23.275,42.984-41.73c-25.472,16.69-50.944,33.38-76.417,50.071
		C4341.258,1681.113,4350.381,1672.014,4352.173,1659.083z M4168.537,1920.27c31.325,10.915,37.756,41.741,56.45,62.992
		c-5.659-13.311-11.318-26.622-18.432-43.354c28.653,15.351,46.248,39.81,74.542,48.005c-24.115-18.538-44.249-41.474-73.592-58.769
		c18-6.474,31.517,3.263,44.735-1.782C4224.88,1921.635,4198.751,1905.007,4168.537,1920.27z M3968.648,1297.801
		c6.03,9.762,9.936,15.169,12.889,21.054c6.599,13.148,16.982,21.899,30.71,26.218c6.449,2.029,14.481,5.955,19.653-2.199
		c4.559-7.186,0.682-13.978-3.534-20.033c-8.111-11.648-20.49-16.576-35.956-23.61c5.872,14.258,25.26,14.486,22.093,29.567
		C3995.585,1326.435,3989.185,1306.1,3968.648,1297.801z M4239.59,1606.35c-14.558-5.597-14.558-5.597-2.936-21.018
		c-4.59-1.267-8.642-0.154-11.857,2.73c-7.247,6.499-22.873,12.165-17.69,21.395
		C4212.757,1619.521,4226.004,1610.633,4239.59,1606.35z M4230.963,1115.364c11.213-9.453,16.346-20.859,20.431-32.945
		C4242.134,1091.151,4225.664,1095.211,4230.963,1115.364z M4300.473,1365.902c-10.768-9.214-22.637-14.356-39.077-14.678
		C4274.082,1362.403,4286.494,1366.618,4300.473,1365.902z M4098.57,1021.648c-0.739-12.263-5.031-22.46-19.357-32.062
		C4084.356,1004.527,4089.92,1013.985,4098.57,1021.648z"/>
	<path d="M339.638,1407.966c-11.633-60.174-15.557-121.013-17.005-186.474c-31.715,31.038-65.223,51.637-100.86,69.214
		c-9.871,4.869-10.89,16.928-14.404,26.336c-8.46,22.646-16.218,45.834-35.099,62.236c-24.46,21.249-50.674,36.628-84.222,18.307
		c-5.651-3.086-11.655,0.98-17.252,3.11c-19.091,7.264-37.236,17.176-57.683,20.641c-4.093,0.693-8.929,2.63-11.856-1.211
		c-2.86-3.752-0.204-8.037,1.713-11.794c7.389-14.482,15.074-28.819,22.131-43.46c5.204-10.798,9.97-21.604,7.192-34.522
		c-2.123-9.874,4.614-16.736,11.328-23.217c7.3-7.047,16.567-12.314,21.105-21.949c4.014-8.523,15.886-16.614-2.094-25.049
		c-9.085-4.262,1.426-8.424,4.799-10.51c37.037-22.904,75.64-27.015,111.755-0.714c23.998,17.477,44.557,16.362,67.798,1.495
		c16.754-10.718,33.996-20.717,48.326-34.655c18.209-17.711,34.534-36.371,39.895-62.804c4.799-23.666,15.685-45.46,25.521-67.439
		c4.612-10.306,2.911-14.452-9.321-12.06c-17.564,3.434-32.466,11.888-47.267,21.498c-35.563,23.089-77.016,19.403-108.415-8.51
		c-6.482-5.763-12.025-12.253-13.566-20.792c-1.677-9.295-6.552-16.418-11.816-23.876c-6.188-8.768-15.837-17.412-4.074-29.676
		c4.004-4.174-0.715-10.361-3.05-15.063c-8.026-16.157-16.699-32-24.424-48.295c-1.781-3.757-6.378-8.827-1.682-13.007
		c3.583-3.189,7.91,0.459,11.728,1.904c14.07,5.329,28.133,10.678,42.167,16.102c16.485,6.371,31.854,11.98,51.28,10.951
		c26.316-1.394,47.431,15.186,62.112,37.711c6.239,9.573,11.173,20.081,18.063,29.126c17.251,22.648,51.411,21.668,66.917-1.639
		c14.452-21.723,32.925-39.901,50.653-58.757c2.942-3.129,6.371-6.436,10.791-5.745c16.921,2.643,33.759,5.817,51.132,8.882
		c-3.017,9.883-10.494,12.319-15.925,16.654c-14.115,11.265-28.29,22.334-41.195,35.114
		c-72.391,71.686-66.539,153.775-31.141,238.974c25.872,62.27,68.072,111.714,124.712,148.57
		c23.491,15.286,38.75,14.629,60.701-3.371c13.974-11.459,27.439-23.51,43.287-32.449c26.366-14.871,53.803-15.611,81.97-6.202
		c9.916,3.312,15.537,8.51,4.863,17.296c-9.344,7.692-9.141,13.224,0.557,21.069c14.037,11.355,21.516,27.229,24.701,44.977
		c1.189,6.625,2.541,14.816-3.113,18.741c-11.998,8.329-6.637,17.462-3.025,26.5c7.862,19.67,19.614,37.23,30.841,55.064
		c2.43,3.859,7.331,7.738,4.035,12.818c-3.04,4.686-8.758,2.966-13.349,2.76c-23.105-1.039-44.938-8.071-66.757-14.912
		c-6.544-2.052-11.152-4.642-16.105,4.112c-4.838,8.55-13.863,3.655-20.957,0.78c-6.818-2.763-11.372-3.186-11.935,6.328
		c-0.674,11.368-5.693,11.322-13.723,4.907c-7.309-5.838-16.897-6.213-25.717-7.603c-37.395-5.897-62.353-26.596-75.432-61.934
		c-1.045-2.824-2.323-5.585-3.107-8.48c-21.663-80.03-10.255-56.399-73.784-111.707c-47.341-41.215-71.401-95.896-89.691-153.984
		c-1.968-6.251-3.969-12.492-6.031-18.712c-0.089-0.267-0.956-0.276-3.926-1.035c-0.835,13.807-2.315,27.252-2.351,40.702
		c-0.207,76.339,13.232,150.927,29.279,225.189c5.967,27.614,20.826,48.556,45.484,61.922c12.732,6.901,24.645,14.496,36.91,29.425
		c0-53.656,0-102.981,0-155.321c22.783,13.87,35.935,30.437,41.649,52.942c4.889,19.259,9.921,38.446,18.124,56.69
		c12.387,27.551,32.373,46.881,62.052,53.045c17.341,3.602,20.363,11.348,20.321,28.156c-0.661,261.413-0.391,522.828-0.337,784.242
		c0.004,18.07,1.057,36.22-0.307,54.186c-1.149,15.12,5.111,17.699,18.538,17.657c119.864-0.382,239.729-0.11,359.594-0.105
		c374.053,0.017,748.107,0.103,1122.159-0.318c17.66-0.02,28.966,2.393,32.86,22.584c3.503,18.165,17.91,30.947,30.065,44.311
		c9.73,10.697,19.814,21.111,25.995,34.459c2.244,4.846,6.438,10.552,3.189,15.111c-3.871,5.433-9.975,0.579-14.921-0.599
		c-36.542-8.699-70.145-25.288-104.671-39.378c-48.558-19.817-97.954-34.068-151.162-23.173
		c-21.415,4.385-42.015,11.052-59.193,25.307c-18.35,15.228-19.523,32.251-2.668,48.693c5.679,5.54,6.299,9.949,1.351,15.171
		c-5.159,5.445-10.609,4.636-15.54-0.81c-6.061-6.693-12.467-13.1-18.166-20.087c-13.282-16.281-29.923-27.52-49.25-35.525
		c-11.064-4.583-21.533-10.647-32.118-16.327c-6.946-3.728-13.95-8.761-21.83-4.064c-8.035,4.788-6.444,13.636-6.361,21.33
		c0.222,20.541,4.423,40.307,13.429,58.739c-5.996,3.518-11.505,2.349-16.787,2.353c-410.794,0.32-821.59,0.474-1232.383,1.21
		c-17.954,0.032-23.063-4.287-23.001-22.979c0.699-211.418,0.444-422.839,0.066-634.259c-0.02-10.921,3.314-16.646,13.737-19.602
		c9.229-2.618,18.249-6.251,26.989-10.248c14.685-6.714,17.341-18.598,3.694-25.15c-42.855-20.575-48.956-55.885-43.787-97.173
		c0.445-3.558,0.066-7.221,0.05-10.835c-0.12-27.092-0.056-27.299,24.941-19.364c8.538,2.71,16.954,2.7,24.731-0.652
		c12.851-5.539,26.197-8.585,39.806-11.294c17.699-3.523,21.106-10.92,13.087-26.824c-2.162-4.287-4.72-8.415-7.466-12.359
		c-4.497-6.458-3.996-10.428,4.308-13.055c7.209-2.282,17.455-3.171,18.545-12.102c1.288-10.553-10.827-11.049-16.788-16.291
		c-5.391-4.741-11.77-9.063-15.398-14.987c-19.942-32.564-49.612-50.151-86.223-56.708c-18.629-3.336-31.212-9.832-35.572-31.093
		c-3.486-16.998-22.572-21.151-37.191-29.669c10.783,26.522,14.635,54.121,19.909,81.405c0.633,3.273,1.91,7.43,6.27,7.674
		c3.733,0.209,4.205-3.658,5.586-6.165c11.801-21.432,14.051-22.211,36.189-13.906c31.947,11.985,62.276,25.918,80.758,57.198
		c5.139,8.698,14.375,14.132,22.778,19.841c-1.439,1.824-2.052,3.402-2.86,3.509c-25.441,3.366-26.638,5.835-13.272,27.813
		c12.684,20.856,11.174,17.274-9.872,26.144c-30.503,12.856-56.955,4.742-85.022-4.891c-9.272-3.182-14.52-11.818-23.653-14.946
		c-2.61,6.575,2.524,9.767,3.489,14.076c1.596,7.126,22.034,16.253-1.68,21.906c-1.168,0.279-1.162,7.885-0.754,11.985
		c2.483,24.923-3.576,46.71-23.249,63.318c-7.205,6.083-5.301,10.86,0.555,16.136c5.963,5.373,12.88,10.744,20.593,10.288
		c29.969-1.767,44.98,23.151,66.566,36.138c7.963,4.79,1.886,9.282-3.023,11.725c-40.728,20.269-73.824,17.838-98.169-25.368
		c-4.592-8.151-5.194-18.548-18.162-28.529c4.813,44.546-3.381,87.159,28.69,120.7c25.764,26.945,40.691,57.467,39.755,95.499
		c-0.365,14.823-3.996,17.941-17.878,11.574c-33.297-15.271-52.323-38.958-51.62-77.068c0.316-17.125,0.962-34.703-6.37-52.228
		c-5.298,3.836-4.938,8.754-5.389,12.97c-3.419,32-11.88,62.461-24.843,92.011c-11.101,25.306-8.639,50.353,6.244,74.177
		c18.38,29.42,23.217,60.343,8.253,92.856c-2.263,4.918-4.41,11.891-9.903,12.031c-16.906,0.433-18.713,14.183-23.811,24.935
		c-10.312,21.75-20.012,43.791-30.373,65.516c-2.433,5.102-3.713,13.309-10.951,12.682c-6.43-0.557-8.916-8.033-10.356-13.549
		c-7.598-29.106-30.035-52.354-32.658-83.347c-0.274-3.235-1.619-6.232-5.11-6.377c-20.58-0.858-16.481-14.787-14.564-27.375
		c1.346-8.837,3.202-17.597,5.081-27.745c-8.264-0.619-16.092,9.28-21.947,2.366c-5.084-6.004-2.459-15.074-1.382-22.795
		c5.838-41.879,29.505-71.041,69.45-81.353c34.109-8.806,52.138-29.413,63.019-60.006c8.242-23.174,15.759-46.531,18.142-74.182
		c-20.284,17.919-40.269,20.621-61.497,8.092c-6.608-3.9-10.076-2.234-10.907,5.261c-5.474,49.355-47.852,66.045-80.774,91.014
		c-6.478,4.913-9.725,1.659-10.11-5.744c-2.684-51.665,5.261-99.121,53.08-129.962c11.161-7.198,16.423-15.845,16.634-29.443
		c0.295-19.067,9.486-35.854,17.384-52.765c6.735-14.42,11.452-28.943,6.696-45.225c-10.168-34.81-1.648-66.608,16.468-96.7
		c2.147-3.568,4.102-7.253,6.051-10.934c0.146-0.276-0.477-0.959-1.292-2.474c-15.981,6.017-25.625,18.635-33.269,32.821
		c-5.422,10.062-10.485,21.071-10.414,32.477c0.336,53.937-35.118,79.94-77.204,101.145c-5.352,2.697-11.008,6.731-15.596-0.834
		c-5.336-8.798-12.271-4.928-19.061-2.909c-21.437,6.375-41.272,16.639-61.756,25.336c-5.458,2.317-12.246,5.848-17.171,1.977
		c-6.108-4.802-0.22-11.301,1.829-16.207c9.509-22.759,19.854-45.168,29.823-67.737c2.973-6.729,9.553-13.447-2.279-19.202
		c-7.861-3.824-0.995-8.019,1.801-10.959c21.473-22.573,45.976-38.795,78.948-37.354c11.42,0.499,22.886-0.123,34.32,0.195
		c3.908,0.109,9.308-1.211,10.978,3.881c1.949,5.944-3.274,8.664-7.306,10.897c-15.258,8.45-30.625,16.718-46.159,24.648
		c-9.223,4.708-18.006,9.612-24.873,23.952c25.989-19.834,52.424-29.63,79.216-44.166c-2.491,23.647-20.514,37.489-23.858,57.832
		c26.728-31.286,37.71-72.038,65.001-105.314c-11.729-2.306-19.573,0.836-27.032,3.847c-49.853,20.13-104.013-8.915-131.703-33.319
		c-7.462-6.576-3.629-8.982,3.617-11.919c37.073-15.029,71.946-14.805,106.215,9.195c33.251,23.286,91.089,7.135,109.546-29.573
		c26.764-53.23,30.803-109.591,19.745-167.28c-3.397-17.722-18.067-28.058-32.057-37.387c-7.75-5.167-13.216,0.992-17.318,7.721
		c-22.134,36.316-55.558,53.469-96.95,57.873c-10.908,1.161-14.87,0.33-9.901-11.721c5.722-13.876,9.344-28.602,14.649-42.668
		c20.121-53.344,71.076-68.18,116.434-34.206C328.762,1403.545,331.942,1408.672,339.638,1407.966z M1559.283,2514.407
		c-12.636,0-25.274,0.156-37.908-0.023c-311.306-4.424-622.636-5.476-933.966-6.047c-15.302-0.029-20.495-3.285-20.572-19.726
		c-0.507-107.787-2.448-215.566-3.425-323.353c-0.533-58.823-0.095-117.655-0.095-176.482c-2.98,0.006-5.96,0.013-8.94,0.019
		c0,169.204-0.004,338.408,0.005,507.611c0.001,24.284,0.031,24.382,24.051,24.307c179.449-0.561,358.899-1.188,538.349-1.746
		C1264.306,2518.51,1411.844,2520.098,1559.283,2514.407z M379.764,1619.555c-12.442,31.967-26.842,62.167-44.614,90.823
		c-6.286,10.136-11.57,21.205-15.37,32.501c-6.709,19.944-7.615,40.236,2.85,59.549c11.111,20.507,32.953,28.921,57.357,22.452
		c17.856-4.733,29.821-22.678,28.778-44.777c-0.42-8.912-1.534-18.23-4.64-26.497c-9.882-26.301-13.96-53.297-13.948-81.289
		C390.185,1654.477,388.248,1636.669,379.764,1619.555z M358.173,1895.489c-0.672-16.477-1.411-30.286-16.502-37.732
		c-10.191-5.027-20.372-10.182-30.034-16.131c-5.189-3.194-7.423-1.49-9.84,2.756c-12.067,21.201-21.611,43.002-16.808,68.352
		c3.25,17.153,12.618,28.353,30.572,30.607c16.824,2.112,31.273-6.987,38.236-23.838
		C357.28,1911.077,358.782,1902.217,358.173,1895.489z M697.527,1421.969c-0.308-0.987-0.617-1.974-0.926-2.96
		c-5.176,1.096-10.427,1.92-15.515,3.333c-35.744,9.926-70.453,24.99-109.005,20.448c-8.56-1.009-8.655,4.399-4.99,10.333
		c19.107,30.937,47.271,48.967,82.037,57.644c-23.332-17.656-51.659-28.873-70.327-54.434
		c44.268-3.533,74.145,25.991,112.135,44.307c-13.924-19.187-32.21-27.257-50.829-40.569c25.214,0.979,44.95,10.438,71.176,9.582
		c-27.546-12.833-53.211-11.686-81.801-21.241C655.562,1438.276,676.545,1430.122,697.527,1421.969z M466.435,1668.247
		c6.627-2.232,9.862,0.968,13.174,3.256c11.861,8.199,23.468,16.768,35.399,24.861c3.813,2.587,9.192,6.879,12.905,2.502
		c4.584-5.404-2.81-7.724-5.626-10.928c-2.672-3.039-9.383-6.506-6.994-9.223c11.276-12.822-3.599-10.932-7.466-12.717
		c-9.214-4.254-19.481-6.158-28.971-9.903c-10.62-4.192-21.437-8.619-21.959-23.01c-0.094-2.593-2.555-5.536-6.5-4.103
		c-5.263,41.868,12.46,75.927,44.437,83.455C487.303,1696.258,469.791,1687.197,466.435,1668.247z M289.052,2162.434
		c-0.574,22.008-8.886,43.699-1.148,70.505c7.663-32.359,5.178-62.138,17.302-90.464c6.472,9.755,4.678,20.612,14.694,31.139
		c-5.425-23.614-5.278-43.731-3.298-63.896c0.432-4.395-0.862-10.108-6.773-5.975c-15.175,10.611-33.402,16.892-47.849,31.997
		c14.345-1.065,22.998-10.288,34.96-14.899c-2.966,29.508-25.531,46.981-36.84,70.254
		C271.752,2183.612,279.455,2172.995,289.052,2162.434z M207.573,1025.197c25.422,16.564,50.917,21.115,73.586,34.199
		c-13.047,9.132-28.83,7.576-41.13,15.538c27.01-2.95,54.404-2.24,85.929-10.957c-28.859-15.564-44.264-40-71.071-56.607
		c6.222,17.435,19.988,24.805,27.055,38.948C255.974,1044.368,236.469,1026.574,207.573,1025.197z M89.965,1343.668
		c26.246-8.197,46.183-21.924,71.531-27.964c-9.781,17.855-26.88,27.314-30.945,46.103c20.666-21.874,41.333-43.749,61.999-65.623
		c-32.928,11.512-64.642,2.303-96.549-2.298c14.762,9.816,31.189,13.702,49.816,15.865
		C127.434,1321.287,107.321,1326.245,89.965,1343.668z M254.29,1422.117c20.045,11.42,29.742,7.706,47.803-16.935
		C279.678,1393.947,270.936,1416.327,254.29,1422.117z M249.289,1975.149c8.394-12.296,20.226-23.065,17.394-40.376
		C242.432,1940.487,254.278,1961.65,249.289,1975.149z M395.978,1990.192c-0.703,21.501,5.454,34.278,20.925,45.877
		C413.118,2019.185,407.397,2006.468,395.978,1990.192z M217.643,1676.519c-10.782-6.363-21.116-14.141-38.49-11.092
		C192.752,1674.281,203.934,1679.383,217.643,1676.519z"/>
	<path d="M269.357,718.97c-24.889,13.869-47.329,35.28-79.842,22.837c3.965,13.553,3.965,13.553-36.925,17.095
		c28.93,9.488,54.357,7.629,79.855-6.738c-0.82,10.508-6.745,13.895-12.143,17.201c-61.51,37.68-125.444,42.07-191.588,13.369
		c-3.54-1.536-9.199-1.865-9.165-7.133c0.031-4.781,5.051-6.613,8.608-8.335c23.598-11.426,42.615-29.019,63.005-44.964
		c30.929-24.185,65.759-31.307,103.715-17.756c15.262,5.449,30.365,12.235,47.209,10.074c7.538-0.967,16.761-0.524,18.419-10.819
		c1.379-8.567,11.621-17.931-3.485-25.691c-6.876-3.532-6.506-13.768-5.889-21.651c1.143-14.59,4.583-28.891,12.693-41.048
		c28.671-42.982,54.571-88.33,97.244-119.954c6.549-4.853,10.609-9.55,5.153-17.832c-33.557-50.934-13.953-96.45,14.791-140.814
		c27.196-41.976,67.247-61.926,116.03-61.291c26.222,0.341,43.511-3.353,55.559-30.797c11.936-27.189,38.275-42.535,67.647-49.896
		c50.43-12.64,99.218-8.575,145.432,16.086c10.658,5.687,16.962,6.677,27.696-2.879c19.714-17.551,43.804-27.232,70.95-15.239
		c4.4,1.944,7.089,2.595,11.003-0.997c11.251-10.324,21-5.094,29.568,4.204c5.086,5.519,9.386,11.106,17.856,5.014
		c1.979-1.423,7.264-1.716,8.377-0.357c18.239,22.261,46.181,34.104,61.379,60.123c16.299,27.902,20.353,56.379,11.299,86.647
		c-3.974,13.286-0.076,17.033,12.786,17.444c21.126,0.675,39.794,8.871,56.271,21.908c10.787,8.535,19.134,18.947,17.944,33.584
		c-0.632,7.768,3.858,11.736,7.669,17.175c12.126,17.303,26.187,17.018,42.456,6.781c8.143-5.123,16.791-9.436,25.027-14.419
		c34.669-20.979,35.713-62.864-0.719-81.5c-42.69-21.837-54.722-61.644-68.854-101.302c-2.785-7.815,2.848-7.553,7.939-7.146
		c19.223,1.538,38.612,2.793,56.712,10.008c32.228,12.846,43.339,39.741,45.59,71.732c1.224,17.403,1.37,34.88,2.231,52.312
		c0.168,3.389,0.249,7.225,3.913,9.333c26.531-23.036,44.178-65.552,27.19-94.602c-6.61-11.303-11.17-24.078-14.991-36.689
		c-12.365-40.818,0.56-75.688,26.684-107.164c7.505-9.043,12.422-3.897,16.545,2.926c6.33,10.477,10.47,7.242,17.264-0.368
		c6.87-7.695,9.962-26.852,27.717-13.313c0.604,0.46,3.146-1.057,4.406-2.106c26.335-21.929,57.176-38.892,75.884-69.277
		c2.312-3.754,5.299-9.987,10.553-8.35c5.837,1.819,5.145,8.854,5.713,14.023c3.489,31.72,7.271,63.422,9.832,95.221
		c0.921,11.439,4.885,15.676,16.401,15.612c11.358-0.064,22.711,2.365,34.1,3.269c8.529,0.677,10.586,4.308,6.526,11.712
		c-1.446,2.637-2.323,5.729-4.234,7.947c-16.648,19.335-16.583,48.016-37.099,65.371c-7.924,6.703-4.725,14.107,2.916,19.424
		c10.864,7.56,8.111,12.132-1.291,19.831c-40.339,33.032-84.882,49.397-137.413,39.832c-18.465-3.362-32.959,3.267-43.116,19.397
		c-29.347,46.606-72.798,76.074-121.358,99.187c-7.598,3.617-15.966,5.562-15.613,16.921c0.356,11.472,6.066,17.897,16.55,20.616
		c11.655,3.022,16.786,10.689,17.069,22.309c0.058,2.388-0.232,5.609,1.124,7.022c27.606,28.788,11.845,60.512,4.968,90.686
		c-4.904,21.518-21.865,35.867-40.859,46.06c-11.063,5.937-12.185,12.303-7.619,22.957c5.664,13.218,12.236,26.319,13.777,40.928
		c1.393,13.207,2.761,26.478-6.215,38.153c-1.75,2.276-3.395,5.646-3.122,8.31c3.882,37.971-24.658,51.887-50.804,65.3
		c-20.402,10.467-44.088,11.54-67.12,11.478c-7.747-0.021-14.343-0.45-14.734,10.378c-2.475,68.617-47.35,100.57-105.775,118.641
		c-21.892,6.771-40.782,14.188-54.196,34.352c-9.963,14.977-27.715,20.389-44.53,25.825c-12.326,3.984-15.712-7.536-23.346-11.417
		c-7.92-4.026-10.536,16.285-22.983,10.632c-0.544-0.247-1.463-0.187-1.675-0.567c-11.122-19.865-33.268-14.558-49.61-22.241
		c-15.777-7.416-23.944-23.521-30.516-39.112c-7.702-18.272-17.087-24.858-39.362-21.147c-55.737,9.284-111.692,5.853-165.95-11.853
		c-37.815-12.34-68.907-34.136-90.09-68.465c-12.418-20.125-16.791-42.515-15.257-65.834c0.618-9.403-2.638-13.494-11.06-17.393
		C294.942,782.431,273.882,757.391,269.357,718.97z M728.229,622.657c-2.468-3.354-5.874-3.893-9.431-2.535
		c-2.922,1.115-2.017,3.644-1.291,5.886c4.099,12.656,25.126,24.305,39.518,20.319c-13.746-4.573-19.216-16.771-29.143-24.017
		c6.221,1.709,12.39,3.655,18.685,5.022c2.887,0.627,6.243,0.17,6.915-3.701c0.623-3.586-1.963-5.322-4.832-6.436
		c-6.518-2.529-12.697-8.462-20-5.248C724.333,613.847,725.194,618.903,728.229,622.657z M723.426,546.945
		c-0.59,3.463-2.492,7.502,0.505,10.177c4.299,3.837,7.624-0.464,10.711-2.803c4.256-3.224,7.636-7.993,12.29-10.23
		c14.397-6.919,17.591-15.546,5.774-28.042c-10.678,8.518-16.013,22.255-28.137,29.356c9.232-16.93,18.87-33.73,18.949-55.185
		c-8.524,4.976-30.319,50.336-27.806,57.758C717.844,554.269,720.864,548.075,723.426,546.945z M649.448,551.715
		c3.042,2.635,6.166,6.988,10.429,3.243c3.392-2.981,0.154-6.573-1.641-9.483c-7.805-12.652-15.343-25.501-23.889-37.637
		c-1.989-2.824-0.38-10.491-6.412-8.277c-6.313,2.317-5.056,8.596-2.924,13.88c5.873,14.555,15.886,26.463,25.043,38.915
		c-17.643-9.368-27.863-30.168-51.771-33.178c6.308,20.341,25.686,27.066,37.121,40.778c3.532,4.235,9.13,10.086,14.943,6.39
		C656.026,562.736,649.022,556.782,649.448,551.715z M856.324,798.75c6.867,8.725,4.967,22.718,13.981,22.324
		c10.076-0.441,8.521-14.07,12.164-21.856c2.025-4.329,3.267-9.05,4.616-13.665c5.268-18.033,15.169-30.692,32.605-40.468
		c37.445-20.993,64.887-51.999,85.663-90.393c44.727-82.653-9.033-176.149-72.731-201.694c-9.421-3.778-14.058-9.583-17.153-18.862
		c-34.039-102.04-136.822-120.873-204.405-90.173c-9.535,4.331-16.544,3.625-25.07-1.369
		c-18.761-10.989-38.493-20.256-59.961-24.417c-37.824-7.332-73.307-3.399-102.398,25.111c-2.893,2.835-8.91,7.065-3.783,11.716
		c4.548,4.125,8.707-0.403,11.948-4.195c21.968-25.702,50.426-28.272,80.843-21.762c19.013,4.069,36.021,13.107,52.246,23.89
		c10.155,6.749,10.17,11.224,0.026,18.08c-15.26,10.313-28.853,23.817-32.16,42.024c-3.338,18.376-13.651,25.208-29.476,31.065
		c-47.539,17.591-74.922,64.8-67.781,114.909c0.962,6.75,0.321,15.393,9.212,19.328c3.073-7.42,1.048-14.024,0.891-20.555
		c-0.586-24.323,3.51-48.197,21.954-64.815c40.428-36.424,88.168-56.906,143.414-52.522c55.621,4.413,99.498,65.1,90.068,120.305
		c-2.047,11.984-5.812,24.609,0.017,36.999c1.92,4.082,0.519,8.758-1.818,12.112c-11.795,16.921-23.013,33.78-30.816,53.365
		c-7.782,19.531-27.135,28.691-44.276,39.99c-28.099,18.522-56.76,32.631-91.186,34.047
		c-89.701,3.689-155.107-82.109-127.213-167.507c1.704-5.216,6.523-10.311,1.87-16.66c-8.063,3.057-9.509,10.686-12.044,17.12
		c-34.08,86.494,23.376,176.763,116.614,183.674c21.255,1.575,42.036-3.965,62.868-4.04c17.183-0.062,30.482,0.029,35.658-19.683
		c1.39-5.293,7.498-7.705,12.755-9.242c22.513-6.585,38.755-21.307,52.139-39.764c8.355-11.523,18.881-19.424,32.606-24.268
		c35.868-12.661,66.991-32.558,90.762-62.978c14.842-18.993,21.496-39.826,17.576-64.063c-2.687-16.611-4.351-33.41-5.904-50.178
		c-1.804-19.473,0.909-21.43,19.512-13.432c36.13,15.533,60.983,41.825,74.902,78.799c19.366,51.442-4.713,92.652-31.307,132.845
		c-15.205,22.98-35.74,40.723-62.803,54.655c1.737-16.708,7.704-28.354,13.725-40.024c5.095-9.875,2.435-20.205-4.115-26.907
		c-7.755-7.935-12.266,4.116-16.875,7.45c-12.548,9.078-26.478,16.803-36.392,29.117c-2.294,2.849-6.063,7.046-2.336,11.157
		c2.719,2.999,6.878,1.404,10.241,0.297c12.005-3.952,21.098-10.781,25.35-23.564c1.444-4.342,3.8-11.945,10.643-9.163
		c6.824,2.774,3.338,9.105,1.532,14.144c-0.812,2.266-1.252,4.796-2.56,6.735c-18.226,27.019-27.954,57.663-37,88.501
		c-5.994-0.548-5.645-18.66-14.651-5.118c-12.311,18.51-31.533,22.641-50.942,27.409c-6.576,1.615-14.757,0.04-21.861,8.798
		C812.69,818.622,837.583,819.522,856.324,798.75z M456.935,767.792c-10.05-5.698-18.893-9.566-24.132-17.945
		c-23.75-37.978-40.483-78.62-35.879-124.081c8.451-83.46,47.605-152.698,103.92-213.265c4.494-4.834,15.228-10.037,9.859-16.222
		c-5.121-5.9-11.379,4.955-17.56,7.494c-0.534,0.219-0.97,0.706-1.416,1.108c-84.283,75.896-124.864,169.178-111.087,283.272
		c3.525,29.193,13.754,56.353,39.586,74.139C430.434,769.321,441.475,775.332,456.935,767.792z M793.45,828.82
		c-1.109,0.162-2.523-0.049-3.266,0.559c-1.841,1.507-3.532,3.263-5.007,5.138c-22.176,28.207-51.664,40.053-86.977,39.426
		c-40.271-0.715-78.768-9.977-116.028-24.453c-42.572-16.54-79.542-40.176-99.846-83.585c-2.136-4.566-3.913-11.31-11.538-5.84
		c-5.103,3.661-8.909,6.296-4.377,14.262c10.182,17.897,21.033,34.914,36.052,49.311c35.232,33.773,78.51,50.346,125.145,60.312
		c34.964,7.471,70.005,13.051,105.459,3.797C764.972,879.419,791.154,853.513,793.45,828.82z M1382.614,287.221
		c-29.071,3.668-56.915,15.287-89.485,13.506c9.526-14.396,18.925-25.984,30.902-34.811c12.556-9.255,26.103-17.212,39.498-25.27
		c19.995-12.028,25.356-16.675,32.078-30.441c-23.98,13.699-46.68,26.667-69.38,39.634c10.613-24.933,23.309-47.106,24.182-73.694
		c-18.166,36.088-36.013,72.159-61.371,107.576c0-30.23,0-56.632,0-88.148c-7.814,14.086-8.322,24.598-8.849,35.175
		c-1.015,20.372,1.529,40.823-3.148,61.142c-5.658,24.58-5.123,24.628,20.466,19.109c5.269-1.136,10.733-1.331,16.08-2.144
		C1337.621,305.202,1361.917,302.368,1382.614,287.221z M889.739,728.445c-11.554,0.275-16.628,9.947-25.356,11.599
		c-32.682,6.184-59.597,24.541-87.26,41.247c-6.684,4.036-12.643,4.97-20.277,2.307c-17.266-6.022-34.908-10.966-52.397-16.348
		c8.779,10.508,20.205,15.732,32.084,18.939c15.241,4.115,13.872,10.342,4.261,19.095c-3.406,3.102-10.472,6.068-6.983,10.723
		c4.903,6.54,11.443,0.284,15.394-2.968c14.871-12.241,30.818-22.782,47.731-31.773c6.757-3.592,15.673-13.169,20.009,3.573
		c1.573,6.073,7.526,2.378,10.735,1.035C854.863,774.502,875.724,756.24,889.739,728.445z M584.069,639.389
		c9.626,3.616,17.514,2.775,22.692,8.353c3.666,3.949,6.968,3.77,10.816,0.558c10.603-8.851,21.378-17.503,31.826-26.532
		c3.05-2.636,6.714-6.208,2.981-10.683c-2.786-3.34-6.809-1.981-9.936-0.221C624.285,621.086,606.115,631.285,584.069,639.389z
		 M664.818,623.437c-1.352-1.165-2.704-2.33-4.056-3.495c-14.257,15.524-28.563,31.004-42.727,46.612
		c-2.598,2.863-0.769,5.471,1.486,7.736c2.379,2.389,4.65,3.296,7.745,0.797C644.583,661.102,659.351,645.441,664.818,623.437z
		 M576.466,558.049c24.384,5.012,43.311,22.589,69.833,20.443C622.206,555.453,596.452,547.619,576.466,558.049z M580.621,605.794
		c13.046,13.075,49.845,9.375,68.062-7.27C624.746,597.463,602.721,598.643,580.621,605.794z M574.516,577.893
		c22.881,9.271,45.833,17.854,74.416,13.134C630.48,580.431,588.659,572.765,574.516,577.893z M638.452,494.594
		c11.272,8.032,16.54,19.803,20.801,32.288c2.124,6.222,4.484,12.37,6.97,18.456c0.956,2.34,3.063,3.621,5.733,3.15
		c2.77-0.488,3.558-2.463,3.894-5.094C678.177,525.154,658.65,498.472,638.452,494.594z M781.947,540.545
		c-19.238,2.947-32.985,13.422-47.864,21.207c-2.759,1.443-4.682,3.815-3.706,7.2c1.05,3.638,4.205,4.275,7.111,3.24
		C754.521,566.125,772.437,561.185,781.947,540.545z M710.14,685.458c-7.136-15.643-8.529-32.08-12.008-47.985
		c-0.625-2.855-0.488-6.026-4.003-7.192c-2.889-0.958-5.329,1.045-5.602,2.981c-2.013,14.319,0.529,28.458,3.274,42.39
		C693.732,685.45,704.451,680.717,710.14,685.458z M791.003,575.713c-18.362-5.425-33.821-1.421-49.196,2.481
		c-3.187,0.809-7.92,1.631-7.505,6.257c0.501,5.595,5.845,5.654,9.724,5.588C760.028,589.769,775.797,588.237,791.003,575.713z
		 M696.818,534.605c-3.776-13.273-5.946-27.526-12.839-40.33c-1.633-3.033-2.282-7.732-7.105-5.42
		c-4.179,2.004-2.552,6.045-1.375,9.45c4.305,12.457,7.391,25.172,8.193,38.375c0.289,4.754,2.164,8.288,7.509,7.853
		C697.104,544.053,696.513,539.211,696.818,534.605z M735.911,672.359c-5.692-17.606-15.439-30.241-23.974-43.483
		c-1.802-2.797-4.812-3.313-7.86-1.598c-2.624,1.477-2.731,4.13-1.639,6.207C710.152,648.159,714.144,666.071,735.911,672.359z
		 M782.196,615.325c-16.284-17.233-35.234-21.812-53.53-13.521C746.32,608.216,760.805,616.43,782.196,615.325z M1153.212,303.005
		c7.975,8.881,15.061,17.001,22.419,24.867c3.538,3.782,6.668,9.927,13.026,7.35c4.2-1.703,2.246-6.558,0.625-9.513
		c-3.872-7.058-11.499-20.444-12.019-19.731C1166.246,321.077,1162.498,300.414,1153.212,303.005z M671.312,681.398
		c8.73-19.115,6.475-36.045,3.962-52.996C668.977,644.646,660.646,660.726,671.312,681.398z M715.07,511.945
		c-0.718-5.265,1.668-12.682-3.952-13.138c-7.128-0.579-5.56,7.284-6.303,12.152c-1.357,8.886-2.672,17.782-3.745,26.704
		c-0.415,3.451-1.028,7.952,3.436,8.957c5.087,1.145,5.325-3.867,5.941-7.002C712.296,530.21,713.643,520.704,715.07,511.945z"/>
	<path d="M3277.338,2617.002c-34.444,25.53-46.448,67.929-31.942,101.488c11.127,25.742,18.915,51.783,15.716,80.469
		c-3.551,31.844-20.407,54.367-45.894,72.083c-9.32,6.478-14.505,6.323-16.982-5.755c-0.921-4.488-1.569-9.451-6.738-13.515
		c-4.05,5.089-7.98,10.152-12.043,15.106c-9.012,10.991-17.419,20.234-33.678,23.834c-24.925,5.519-39.957,27.598-57.156,45.258
		c-5.229,5.369-9.441,16.25-17.271,13.731c-8.849-2.848-6.286-14.243-6.854-22.273c-2.21-31.237-4.413-62.52-1.161-93.795
		c1.027-9.878-2.381-12.657-11.975-12.162c-12.596,0.65-25.271-0.22-37.912-0.439c-12.154-0.21-15.291-5.523-8.621-15.812
		c9.811-15.136,19.892-30.096,29.758-45.196c1.949-2.984,5.724-7.84,4.804-9.173c-12.565-18.197,5.583-21.584,13.889-29.443
		c4.256-4.026,11.735-7.084,3.217-13.415c-10.295-7.652-5.312-12.013,2.38-17.17c34.565-23.172,71.204-37.552,113.943-29.659
		c9.391,1.734,19.191,1.309,28.81,1.743c9.396,0.424,16.277-3.719,20.417-12.103c30.096-60.936,82.791-99.055,137.393-134.868
		c11.004-7.218,14.992-14.123,11.201-26.473c-1.928-6.281-4.835-10.007-11.211-12.616c-12.234-5.007-28.26-7.456-24.304-27.39
		c0.717-3.612-2.793-5.461-5.785-5.547c-17.124-0.493-13.578-11.392-10.229-21.097c5.443-15.775,9.156-31.291,10.193-48.424
		c1.631-26.906,19.195-46.51,41.381-60.317c13.777-8.575,15.326-16.078,7.464-30.064c-13.906-24.742-11.922-49.289-4.282-77.699
		c15.028-55.887,56.992-67.126,103.613-73.825c13.867-1.992,19.19-5.22,19.331-20.21c0.488-51.876,23.216-89.851,72.891-109.655
		c14.45-5.762,29.261-11.106,40.17-23.327c3.253-3.644,8.566-5.311,13.335-4.483c19.979,3.471,30.732-7.393,40.213-22.966
		c7.22-11.861,18.883-20.048,30.137-28.25c7.949-5.793,15.37-8.573,24.689-2.394c5.595,3.709,12.833,6.271,16.222-3.148
		c3.707-10.304,8.779-7.215,14.682-2.36c13.141,10.809,26.673,19.735,45.276,14.034c4.903-1.503,12.363-0.3,14.771,4.577
		c9.45,19.143,29.154,30.963,36.505,51.125c4.059,11.13,9.856,11.876,20.437,10.115c76.352-12.702,149.172-1.227,215.779,38.412
		c48.148,28.652,77.618,70.005,70.817,129.677c-1.015,8.904,2.021,13.427,9.977,16.337c14.971,5.477,27.509,14.807,38.643,26.029
		c11.732,11.825,20.603,24.512,17.27,42.917c-1.631,9.006,6.087,20.469,5.544,25.574c-2.346,22.035,20.298,38.261,11.228,60.945
		c-4.693,11.736-8.43,23.826-15.233,34.559c-26.777,42.24-53.595,84.55-92.635,116.975c-8.747,7.264-7.219,14.483-3.128,22.229
		c19.058,36.08,11.536,68.979-5.502,104.548c-31.387,65.526-79.478,99.878-152.859,94.239c-19.115-1.469-28.443,4.727-36.53,22.399
		c-24.911,54.447-82.494,79.78-147.142,67.895c-29.508-5.425-56.714-16.131-80.986-33.701c-8.652-6.262-14.232-7.02-24.892-0.759
		c-22.283,13.088-46.057,28.103-73.584,10.179c-6.156-4.008-11.268,1.496-16.452,4.26c-10.438,5.565-19.737,4.01-23.047-7.773
		c-2.884-10.27-8.293-9.543-16.078-8.052c-9.87,1.89-18.577-1.991-23.203-10.375c-5.397-9.782-13.344-16.824-20.81-24.564
		c-28.68-29.732-39.209-64.374-26.781-104.468c3.703-11.945,2.858-17.999-11.352-21.021c-18.438-3.921-34.141-14.669-48.565-26.803
		c-6.108-5.139-11.673-11.212-12.18-19.418c-1.058-17.12-16.384-21.031-26.525-29.514c-5.256-4.396-10.065,1.254-14.419,4.064
		c-19.827,12.797-37.549,28.214-54.014,45.005c-21.087,21.504-20.116,63.167,6.304,76.389c42.152,21.094,52.74,61.803,71.705,97.938
		c4.646,8.852-2.001,8.965-7.276,9.48c-58.881,5.748-99.353-28.604-102.734-87.695
		C3276.532,2654.825,3277.338,2638.102,3277.338,2617.002z M3795.184,2409.144c-3.408,21.076-16.785,39.693-15.931,61.913
		c17.025-17.035,22.091-38.342,22.362-61.016c0.056-4.668-4.337-1.383-6.771-0.509c-1.855-9.969-2.983-10.754-5.149-7.641
		c-13.54,19.457-39.046,32.219-35.388,65.191C3769.111,2446.102,3782.148,2427.627,3795.184,2409.144z M3787.933,2314.98
		c4.244,0.426,5.112,7.324,10.335,5.571c2.741-0.92,3.209-3.67,2.407-5.999c-6.782-19.693-10.273-41.291-29.2-54.335
		c-7.338,15.779,2.545,26.045,9.195,37.434c3.273,5.605,5.298,11.94,7.864,17.935c-9.403-2.052-10.759-12.153-17.196-17.192
		c-8.891-6.961-17.233-15.783-33.061-8.228c17.183,7.62,24.05,22.368,35.46,32.548c3.741,3.338,6.457,10.373,12.695,7.823
		C3795.253,2326.933,3785.65,2320.086,3787.933,2314.98z M3754.871,2189.547c11.065,7.213,27.729,7.549,27.865,20.107
		c0.154,14.169-12.58,23.795-24.305,31.723c-1.48,1-3.266,1.541-4.81,2.462c-17.345,10.355-31.732,24.166-42.236,41.132
		c-6.135,9.909-13.038,15.835-24.284,19.255c-35.491,10.792-68.419,26.549-94.452,54.14c-23.776,25.199-35.187,53.743-26.691,88.891
		c3.519,14.559,3.894,29.854,6.891,44.571c2.538,12.459-0.946,14.992-12.731,11.404c-44.774-13.635-86.619-71.65-82.474-118.091
		c5.297-59.351,37.711-102.636,85.383-135.8c3.775-2.626,7.93-5.544,14.509-2.694c-6.21,9.739-12.067,19.376-15.194,30.243
		c-2.428,8.439-3.846,17.908,3.662,23.422c6.86,5.039,10.105-5.762,16.061-7.469c3.396-0.974,6.315-3.496,9.633-4.879
		c7.226-3.012,14.64-5.618,20.326-11.355c3.501-3.532,7.203-7.901,5.202-12.656c-2.665-6.336-8.21-1.451-12.522-1.338
		c-12.925,0.342-18.331,13.24-29.586,17.653c16.771-34.262,32.46-68.436,45.063-103.96c1.303-3.673,4.783-7.163,8.136-9.43
		c37.717-25.497,77.816-40.797,124.166-27.621c3.905,1.11,9.859,4.702,11.172-0.023c3.166-11.401,14.118-11.263,22.51-16.156
		c-13.211-12.221-28.25-2.831-43.925-6.136c19.93-29.694,47.082-41.363,78.918-43.271c83.946-5.031,173.398,51.65,212.528,133.926
		c2.064,4.34,3.894,8.804,6.195,13.012c1.454,2.661,3.737,4.95,7.24,3.85c3.646-1.145,3.717-4.345,3.362-7.395
		c-1.267-10.893-4.551-21.249-9.736-30.834c-39.581-73.169-100.639-117.021-182.513-130.423
		c-53.892-8.822-99.529,3.868-126.015,57.121c-2.083,4.187-5.745,5.703-10.135,6.54c-25.575,4.875-49.811,13.76-73.355,24.716
		c-7.912,3.682-15.459,6.1-15.717-7.296c-0.08-4.162-0.252-9.644-6.035-9.078c-5.189,0.508-5.242,5.918-5.334,10.109
		c-0.245,11.24-2.71,22.69-10.972,29.731c-10.061,8.573-14.236,19.358-16.985,30.929c-3.658,15.389-12.208,25.616-26.589,31.795
		c-15.1,6.487-28.165,16.262-40.037,27.462c-95.244,89.854-71.936,209.237,25.16,257.108c8.192,4.039,15.101,9.806,19.073,18.517
		c34.489,75.649,115.807,98.245,183.615,83.962c13.912-2.931,22.765-0.627,33.628,8.352c40.58,33.539,85.815,50.761,138.962,33.126
		c9.299-3.085,17.515-8.049,24.513-14.784c2.909-2.801,6.422-6.847,2.906-10.966c-4.798-5.623-7.047,0.783-9.645,3.216
		c-13.322,12.478-29.014,19.167-47.231,19.701c-37.344,1.095-67.055-16.27-94.367-39.31c-7.276-6.138-7.267-10.751,1.583-16.236
		c19.097-11.837,38.328-24.978,43.345-48.451c3.466-16.218,12.229-22.181,26.916-26.643c50.465-15.329,83.181-56.488,84.806-104.94
		c0.425-12.68,0.212-25.578-10.599-39.219c3.149,50.341-12.243,88.368-53.959,113.341c-35.28,21.12-72.819,29.986-114.11,24.9
		c-66.163-8.151-97.778-49.741-93.728-121.438c1.556-27.56,16.255-50.695,24.853-75.824c4.075-11.908,4.854-24.696,10.878-35.993
		c6.083-11.406,24.819-4.881,27.603-18.324c3.148-15.202,16.753-17.475,25.87-25.26c2.633-2.248,7.42-2.495,9.267-5.063
		c20.57-28.598,49.976-32.058,81.622-29.252c23.568,2.09,43.475,13.573,62.973,25.624c60.153,37.18,83.938,92.879,66.972,154.795
		c-2.141,7.815-8.609,14.532-6.627,24.458c13.286-6.684,16.31-19.557,20.401-30.927c17.661-49.098,4.03-105.593-37.464-139.312
		c-44.189-35.909-92.41-65.329-153.52-47.335c-14.352,4.226-26.21,8.204-39.447-2.511
		C3775.051,2188.085,3765.831,2186.781,3754.871,2189.547z M4125.253,2324.672c0.123-36.137-10.176-71.484-29.187-99.22
		c-3.814-5.564-7.722-11.241-14.51-12.779c-6.769-1.533-14.253,0.031-17.436,6.312c-3.131,6.176,4.875,6.879,8.111,9.623
		c12.584,10.674,18.746,24.903,22.344,40.308c5.917,25.323,7.692,51.003,6.155,77.041c-5.036,85.335-44.592,153.338-105.042,210.996
		c-5.655,5.394-11.794,10.298-17.255,15.874c-3.939,4.022-11.198,8.229-6.207,14.774c5.153,6.756,10.645,0.559,15.559-2.427
		c1.021-0.621,1.89-1.486,2.852-2.209C4076.722,2518.224,4116.614,2429.547,4125.253,2324.672z M3175.4,2736.839
		c-10.384,15.899-22.526,29.925-31.793,46.115c-13.904,24.291-17.77,36.018-14.174,54.12
		c17.918-41.676,38.817-78.135,71.153-111.706c3.403,26.085-0.956,46.53,0.38,67.159c8.368-30.026,11.623-60.661,12.663-91.564
		c0.211-6.251-3.911-8.424-9.726-6.112c-26.147,10.397-54.241,9.108-81.35,13.709c-7.83,1.328-16.338,1.239-25.859,11.71
		c30.703-3.765,56.833-6.971,87.626-10.747c-29.868,31.801-69.094,41.283-96.636,67.49
		C3119.882,2770.032,3146.546,2751.809,3175.4,2736.839z M3605.859,2246.624c34.455-10.845,68.573-21.956,94.23-49.085
		c-18.125-12.333-25.945-11.394-36.556,7.357c-10.102,17.849-26.723,17.231-42.836,19.442c10.333-10.478,25.449-13.685,33.731-26.44
		c3.045-4.69,7.306-9.457,2.406-14.312c-4.335-4.295-8.863,0.104-12.709,2.788
		C3623.344,2200.866,3605.233,2217.182,3605.859,2246.624z M3862.036,2435.584c8.131,0.414,10.935,13.79,17.443,7.316
		c6.66-6.624-3.137-12.289-7.07-17.715c-5.711-7.881-14.837-13.501-17.823-26.066c18.656,3.806,28.027,24.043,47.991,18.189
		c1.943-5.091-2.941-7.242-8.02-9.896c-10.629-5.553-20.991-11.616-31.494-17.413c-2.886-1.592-8.23-5.928-8.762-2.588
		c-1.528,9.584-17.956,7.935-14.344,17.909c5.144,14.2,8.319,29.756,18.533,41.627
		C3865.391,2443.938,3859.532,2438.796,3862.036,2435.584z M3864.116,2265.733c-17.186,11.076-16.987,31.734-25.878,47.057
		c-1.64,2.826,1.541,8.224,5.774,6.732c15.037-5.299,23.641-18.233,31.677-30.7c6.933-10.757-7.635-6.976-10.392-12.125
		C3863.205,2272.787,3867.394,2269.834,3864.116,2265.733z M3708.479,2379.379c17.762,15.967,37.07,9.145,56.217,4.826
		c4.09-0.922,11.485,1.344,10.221-6.009c-0.886-5.147-7.448-5.198-12.238-5.054
		C3744.289,2373.69,3725.809,2373.684,3708.479,2379.379z M3733.473,2445.181c25.28-15.066,46.61-38.033,48.148-51.156
		C3731.863,2428.054,3730.645,2424.207,3733.473,2445.181z M3929.126,2321.539c-6.975-4.031-9.644,0.64-11.398-0.042
		c-21.693-8.425-35.19,10.43-52.751,15.465c-3.642,1.044-6.526,3.384-4.887,7.952c1.918,5.345,5.524,5.263,10.04,3.207
		C3889.043,2339.509,3908.018,2331.034,3929.126,2321.539z M3855.433,2333.342c5.9,0.186,45.77-28.478,47.824-34.026
		c2.38-6.428-1.486-8.781-5.98-6.771c-17.727,7.925-32.883,19.844-46.295,33.728
		C3847.88,2329.484,3850.765,2332.917,3855.433,2333.342z M3925.512,2351.168c-18.858-11.495-35.224-0.825-51.93,1.303
		c-4.803,0.612-9.832,3.263-8.563,9.318c1.202,5.734,6.707,3.341,10.536,3.721
		C3893.452,2367.29,3908.323,2358.274,3925.512,2351.168z M3919.852,2390.821c-17.518-12.685-37.732-13.802-55.835-20.112
		c-1.051-0.366-4.14,2.447-4.842,4.32c-1.323,3.529,1.602,5.573,4.41,6.623C3880.938,2388.14,3897.059,2401.321,3919.852,2390.821z
		 M3716.987,2349.835c15.089,14.189,32.406,13.159,48.47,15.766c3.808,0.618,6.945-1.725,8.191-5.621
		c1.234-3.859-1.096-5.766-4.436-5.901C3752.614,2353.41,3736.876,2344.268,3716.987,2349.835z M3779.566,2340.777
		c0.488-4.097-2.807-4.925-5.008-6.73c-12.544-10.284-29.855-13.986-39.333-28.746c-1.109-1.727-8.459-2.844-7.92,2.025
		c0.661,5.974,3.301,14.708,7.65,16.73c12.426,5.778,24.465,11.891,35.884,19.477
		C3773.746,2345.463,3777.843,2344.955,3779.566,2340.777z M3830.002,2407.188c-1.951,18.429,1.611,35.874,7.76,52.875
		c1.224,3.383,2.568,7.194,7.274,5.938c3.536-0.943,4.138-4.359,3.39-7.311C3843.953,2441.042,3841.409,2422.703,3830.002,2407.188z
		 M3822.744,2432.648c-4.047-8.083,5.084-24.021-5.846-24.175c-11.895-0.168-5.425,15.791-5.852,24.136
		c-0.479,9.361-7.891,26.316,5.573,26.952C3826.54,2460.03,3818.933,2442.01,3822.744,2432.648z M3773.732,2392.147
		c-16.744-2.856-31.162,4.043-45.662,10.394c-3.819,1.673-10.51,3.062-7.212,9.57c2.477,4.887,7.739,5.362,12.56,2.694
		C3746.907,2407.343,3760.301,2399.711,3773.732,2392.147z M3841.559,2260.046c-22.527,11.991-16.974,32.59-18.311,50.739
		c-0.168,2.274,0.734,4.965,3.862,4.98c3.869,0.02,4.761-3.164,5.306-6.035C3835.495,2293.488,3838.417,2277.215,3841.559,2260.046z
		 M3807.145,2259.535c-11.354,19.077-4.908,34.841-0.497,50.506c0.488,1.732,3.434,4.142,4.966,3.957
		c4.73-0.571,4.693-4.894,4.181-8.293C3813.609,2291.184,3814.493,2276.087,3807.145,2259.535z M3323.954,2689.343
		c-3.515-9.347-11.609-15.002-17.31-22.438c-2.698-3.52-5.721-9.923-10.844-7.03c-5.786,3.268-2.349,9.75-0.46,14.438
		c2.877,7.138,6.583,13.955,10.174,20.783c0.654,1.244,2.442,1.892,4.647,3.502c0.247-5.037,0.441-9.029,0.624-12.759
		C3316.367,2683.633,3318.178,2692.438,3323.954,2689.343z"/>
	<path d="M2262.64,388.674c3.51,12.106,8.639,19.973,13.622,27.981c8.292,13.325,15.523,26.938,17.258,43.14
		c1.406,13.128,9.309,23.288,19.178,31.738c28.184,24.132,38.437,54.254,31.027,90.647c-4.563,22.409-8.874,44.881-12.635,67.436
		c-2.322,13.925-7.69,13.227-15.717,4.395c-9.715-10.689-19.28-21.514-28.957-32.239c-12.604-13.968-22.345-29.628-41.692-37.952
		c-20.208-8.695-25.428-49.465-12.904-73.576c2.202-4.239,4.844-8.422,8.043-11.939c13.852-15.227,31.515-30.504,22.488-53.252
		c-11.402-28.731-23.218-58.963-55.325-72.165c-50.175-20.632-100.789-39.991-155.93-42.515c-5.65-0.259-13.705-3.62-15.825,3.387
		c-1.911,6.316,5.61,9.768,10.735,12.746c4.144,2.407,8.604,4.301,13.014,6.213c31.343,13.585,45.003,40.808,34.834,73.378
		c-4.986,15.972-13.05,31.012-20.147,46.276c-1.773,3.815-4.539,10.696-9.945,3.123c-13.193-18.483-31.105-33.539-38.54-56.267
		c-4.644-14.195-6.431-27.994-3.226-42.508c6.805-30.814-8.487-47.598-39.219-40.624c-60.833,13.805-118.068,37.423-172.331,68.039
		c-25.511,14.394-51.948,27.478-76.641,47.68c35.545,16.7,71.301,22.031,107.737,23.877c14.409,0.73,28.904-0.471,43.35-0.205
		c48.4,0.889,95.94,36.264,110.341,82.319c3.047,9.745,10.086,22.747-11.392,19.486c-9.861-1.497-5.98,6.445-5.297,11.113
		c3.66,25.001,7.207,50.027,11.513,74.92c1.662,9.61-0.212,14.039-10.642,11.769c-12.234-2.662-15.71,3.31-16.003,14.622
		c-0.757,29.181-9.118,56.95-17.192,84.717c-1.165,4.006-1.71,9.229-6.362,10.153c-4.832,0.96-6.944-4.068-9.231-7.371
		c-13.371-19.305-26.434-38.837-42.172-56.357c-6.141-6.837-12.618-13.664-23.185-9.204c-6.755,2.851-10.01-2.133-13.81-5.67
		c-10.664-9.927-19.49-21.37-26.275-34.242c-4.248-8.06-7.493-7.146-12.719-0.568c-14.817,18.649-15.887,18.515-33.656,1.817
		c-31.084-29.21-39.326-74.821-20.655-114.647c1.786-3.81,3.871-7.489,5.948-11.154c19.106-33.704,7.617-61.273-30.428-71.582
		c-28.198-7.641-54.81-2.092-80.212,11.426c-34.705,18.47-65.222,43.19-97.45,65.325c-48.191,33.099-98.901,59.575-159.085,64.935
		c17.119,18.225,59.528,24.454,79.88,11.924c18.011-11.088,35.94-22.143,56.938-26.656c40.057-8.608,74.918,6.14,107.923,25.893
		c13.329,7.978-5.617,10.718-4.592,19.786c26.552,11.162,53.474,24.955,76.765,45.096c16.799,14.527,17.532,14.94-1.536,24.367
		c-15.088,7.459-30.479,14.352-45.996,20.878c-7.429,3.125-9.596,6.483-7.16,14.939c7.826,27.165,14.565,54.646,21.491,82.063
		c0.962,3.81,4.827,8.133,1.214,11.732c-4.028,4.013-9.399,1.44-13.628-0.29c-34.407-14.074-70.396-4.734-105.563-7.238
		c-13.678-0.973-15.468,13.701-22.095,21.391c-15.023,17.435-14.113,17.719-28.987,1.248c-14.152-15.671-28.036-31.58-39.181-49.489
		c-6.991-11.234-11.976-9.392-17.566,0.358c-7.414,12.931-11.927,13.114-20.023-0.974c-23.04-40.092-31.823-81.604-18.513-126.576
		c4.024-13.596,0.318-23.069-11.86-30.386c-18.115-10.884-36.749-20.482-56.606-27.815c-11.696-4.32-13.296-0.936-11.044,10.431
		c3.264,16.478,4.915,33.308,6.629,50.052c3.591,35.083-10.504,62.902-38.69,82.339c-18.052,12.448-38.697,21.133-61.065,33.041
		c3.121-29.764,4.493-56.064,9.005-81.815c3.821-21.804,18.894-38.139,36.958-49.392c19.56-12.184,19.367-29.695,18.966-48.478
		c-0.211-9.912-8.363-10.94-14.871-13.025c-35.063-11.234-68.689-25.939-101.94-41.567c-9.21-4.329-19.382-7.961-13.668-22.317
		c2.495-6.271-3.22-9.45-8.636-11.553c-6.304-2.447-14.302-5.626-9.588-13.721c4.107-7.053,11.064-0.574,15.974,1.493
		c39.351,16.561,76.818,37.539,117.974,49.89c20.24,6.074,40.57,10.839,61.879,11.849c20.491,0.971,38.044-2.351,55.533-15.426
		c22.5-16.821,31.923-35.845,26.665-63.485c-3.678-19.335,2.359-36.824,15.459-51.815c8.7-9.955,16.859-20.38,25.448-30.435
		c2.775-3.249,5.116-9.077,10.751-2.484c20.314,23.766,21.861,73.695,2.759,100.765c-2.677,3.794-4.996,8.441-10.749,8.686
		c4.291-14.905,0.951-20.539-12.399-21.657c-4.094-0.343-7.574,0.199-8.234,4.633c-4.001,26.858-21.974,44.324-40.973,61.785
		c18.591-5.243,38.927-4.635,52.052-22.785c3.947-5.458,13.029,0.519,19.577-3.424c48.359-29.119,98.297-56.096,134.501-101.292
		c5.35-6.678,9.222-11.603,14.033,0.609c3.234,8.208,8.741,7.298,13.071,0.267c4.107-6.668,8.8-13.635,5.857-21.905
		c-5.729-16.103-11.321-32.218-13.236-54.234c-9.362,17.651-4.253,31.77-7.081,44.804c-0.825,3.803,0.918,9.462-4.897,10.131
		c-5.163,0.595-6.291-4.52-8.224-8.189c-20.887-39.623-12.721-74.784,23.19-101.892c6.261-4.727,9.233-5.46,13.133,2.552
		c12.307,25.276,23.959,50.376,11.887,79.239c-1.09,2.606-2.414,5.383,0.62,8.06c7.818,6.9,40.301,0.67,45.243-8.813
		c15.948-30.602,11.698-64.209-12.62-89.577c-22.936-23.926-33.1-51.302-25.861-84.113c2.617-11.861,6.46-23.219,18.641-29.386
		c7.797-3.948,9.702-11.254,10.679-19.553c3.043-25.828,11.394-50.422,18.777-75.21c0.971-3.261,2.583-7.84,5.077-8.825
		c5.163-2.039,6.574,3.753,8.966,6.892c13.5,17.713,26.801,35.58,40.422,53.2c4.903,6.342,8.553,12.972,19.039,14.088
		c10.64,1.133,8.339,13.252,9.307,21.012c1.363,10.93,3.389,17.205,16.343,10.71c10.628-5.329,14.019,0.256,12.51,10.789
		c-0.851,5.942-0.479,12.059-1.335,18c-0.98,6.802,0.987,10.724,8.315,10.105c12.882-1.088,13.09,7.35,12.525,16.336
		c-2.558,40.665-17.525,74.583-52.719,97.745c-12.899,8.489-25.358,17.647-40.833,28.468c12.219,4.076,18.445-0.858,24.665-4.37
		c53.107-29.983,107.76-56.272,167.441-70.627c9.162-2.203,14.35-8.277,17.568-16.549c10.437-26.83,11.384-52.773-7.268-76.875
		c-20.078-25.946-18.798-56.238-17.402-86.492c0.623-13.484,7.149-6.716,12.752-3.557c38.81,21.881,61.618,53.224,57.037,101.741
		c24.122-11.047,42.327-22.686,41.689-50.538c-0.624-27.197,11.861-48.733,31.967-65.964c5.785-4.957,9.889-15.074,22.075-5.491
		c5.615,4.415,13.252-7.87,19.905-12.63c7.88-5.638,14.591-13.517,23.383-0.271c4.757,7.167,12.308,1.509,18.124-0.626
		c20.329-7.462,39.983-16.81,61.15-21.897c3.912-0.94,8.861-3.628,11.857,0.217c2.837,3.641-0.411,7.893-2.18,11.627
		c-7.73,16.315-15.488,32.617-23.194,48.943c-4.031,8.54-10.322,16.826-0.251,25.881c3.725,3.349,2.105,8.577-1.495,11.122
		c-8.15,5.762-9.996,14.462-12.871,23.017c-11.683,34.764-39.351,52.35-76.48,49.055c-16.399-1.455-31.854-6.421-46.815-12.917
		c-10.236-4.444-19.737-4.249-29.115,2.015c-22.516,15.041-46.181,28.771-56.628,56.132c-3.878,10.156-3.726,15.838,9.68,14.73
		c68.489-5.664,132.115,13.993,195.189,37.317c42.48,15.709,85.577,29.126,132.062,20.943c17.558-3.091,33.584-9.664,47.918-19.899
		c22.241-15.881,26.839-47.573,7.854-70.39c-21.841-26.249-28.122-54.945-22.562-87.653c2.965-17.447,1.195-34.813-3.886-51.764
		c-1.03-3.435-3.371-6.958-0.692-10.154c3.075-3.668,6.614-0.548,9.702,0.653c35.197,13.686,69.461,28.541,85.101,67.145
		c1.365,3.37,2.927,10.34,8.143,6.979c13.743-8.855,13.471,3.123,15.662,10.03c7.031,22.175,1.418,42.701-9.333,62.378
		c-6.258,11.455-14.974,21.613-20.447,38.653c28.318-17.179,55.802-22.74,85.053-18.441c4.304,0.632,6.741-2.488,7.597-6.214
		c5.216-22.69,13.321-44.825,0.476-68.323c-16.024-29.314-14.828-58.785,4.507-86.949c12.357-17.999,20.908-37.878,27.584-58.622
		c1.241-3.854,1.469-9.416,6.089-10.412c6.282-1.355,6.853,5.531,9.53,8.992c4.779,6.179,8.991,12.808,13.27,19.36
		c23.352,35.761,22.431,70.754-3.617,105.371c-14.833,19.712-31.621,38.11-36.103,63.634c-1.224,6.976-4.219,13.759-1.764,23.135
		c16.659-9.086,32.605-14.789,37.317-37.298c8.935-42.677,40.896-63.994,81.205-78.749c1.753,37.835-1.445,71.062-38.327,92.456
		c23.1,8.998,43.115,19.379,50.631,43.868c2.076,6.765,8.337,5.22,13.851,4.505c20.389-2.643,35.553-13.2,47.658-29.498
		c12.254-16.499,25.725-31.767,45.574-39.957c31.371-12.945,50.395-9.163,72.975,16.795c6.578,7.562,12.006,1.177,17.914,0.939
		c5.704-0.23,12.623-5.577,16.705,0.525c4.182,6.253-3.505,10.44-6.222,15.443c-0.85,1.566-1.546,3.215-2.572,5.37
		c25.038,8.715,49.951,17.087,74.595,26.188c5.682,2.099,14.752,2.953,14.352,11.206c-0.312,6.429-8.312,7.945-13.458,10.618
		c-10.676,5.543-21.73,10.35-32.509,15.702c-13.741,6.823-26.735,12.829-36.9,26.744c-18.594,25.453-61.984,30.301-94.94,14.69
		c-16.095-7.624-28.99-19.25-41.125-31.938c-11.577-12.103-25.214-20.91-42.252-21.956c-16.529-1.014-32.939-1.248-37.847,20.82
		c-1.978,8.895-11.592,13.475-18.009,21.285c6.164,7.076,15.365,8.496,22.902,12.61c30.363,16.577,47.068,41.954,50.092,76.48
		c0.986,11.257-1.997,14.814-12.984,8.957c-7.91-4.217-16.243-8.101-24.846-10.47c-21.834-6.011-36.944-18.774-45.936-39.751
		c-8.474-19.77-23.449-32.953-44.025-40.145c-9.021-3.153-13.687-1.275-15.676,8.005c-1.388,6.472-2.484,13.145-4.968,19.213
		c-4.441,10.855-5.957,17.968,9.362,21.753c12.984,3.208,11.002,14.169,1.83,20.119c-30.952,20.08-62.301,38.554-102.302,32.271
		c-38.526-6.05-74.405-19.692-110.122-34.062C2357.231,415.397,2310.602,404.385,2262.64,388.674z M2386.244,385.2
		c19.56,6.823,38.647,5.599,57.638,5.309c29.427-0.449,58.851-1.196,88.279-1.577c4.557-0.059,10.47-0.703,11.812,5.517
		c1.198,5.548-3.615,8.515-7.241,11.52c-8.4,6.964-18.121,4.882-27.618,3.477c-18.661-2.759-37.308-5.535-60.372-5.053
		c18.312,12.968,36.499,14.372,53.188,19.444c20.995,6.381,40.803,4.361,55.628-14.037c16.256-20.175,21.402-43.239,12.093-67.609
		c-8.597-22.509-28.715-29.844-50.649-31.268c-18.547-1.205-35.726,4.925-50.171,16.765
		C2442.93,348.916,2418.644,372.379,2386.244,385.2z M2642.749,347.006c18.678,0.915,36.456-13.17,40.185-33.712
		c3.54-19.501-6.736-36.181-26.61-43.286c-21.849-7.811-40.999-1.582-59.482,10.536c-20.377,13.359-20.515,12.977-4.325,29.83
		c3.706,3.857,8.951,7.979,9.73,12.612C2606.114,345.986,2624.086,344.914,2642.749,347.006z M1938.952,582.4
		c-26.88-28.541-67.338-35.538-99.486-62.981c20.796-0.028,35.78,10.732,55.547,6.538c-30.16-15.458-62.973-15.84-88.427-35.001
		c-3.103-2.336-10.394-3.85-13.383,0.46c-3.284,4.735-0.321,11.184,3.306,14.707c11.398,11.075,11.046,24.615,9.829,38.568
		c-1.202,13.778-3.169,27.52-3.682,41.319c-0.438,11.771-2.098,24.023,6.596,35.029c2.869-32.959,5.737-65.918,8.788-100.978
		c39.336,36.558,49.979,83.577,61.592,130.429c4.896-23.657-2.667-45.181-6.815-69.221c17.389,13.671,25.331,34.646,45.023,42.519
		c-16.044-26.9-43.146-45.211-57.541-76.351C1889.773,557.006,1912.421,574.001,1938.952,582.4z M1469.961,694.932
		c37.094,22.971,57.788,56.965,80.647,89.27c-7.172-34.642-28.912-60.5-53.394-89.574c39.738,10.71,72.103,29.767,108.875,33.63
		c-35.047-30.146-80.612-33.177-122.004-48.445c33.129-11.573,67.441-17.386,99.471-35.642c-11.825-2.496-20.965,0.318-29.927,2.751
		c-33.407,9.066-65.643,23.697-101.974,16.669c-11.751-2.274-7.013,7.57-4.038,11.439c11.508,14.965,11.664,32.33,12.527,49.781
		c0.463,9.354-1.053,19.3,6.558,28.225C1472.469,734.222,1468.276,715.599,1469.961,694.932z M1815.89,289.332
		c-13.58,13.306-26.98,26.804-40.865,39.785c-3.572,3.34-5.987,11.83-12.001,8.243c-6.202-3.699-1.583-10.939-0.133-16.43
		c1.99-7.541,4.262-15.068,7.17-22.296c9.018-22.419,16.822-45.372,32.892-69.331c-23.945,12.072-27.16,33.466-36.905,50.16
		c-4.069-26.538,1.781-53.107-11.192-82.229c-5.483,43.845,5.84,83.388-3.581,122.31c-5.879-11.77-9.097-23.848-13.436-35.51
		c-7.039-18.924-10.883-24.193-21.851-30.325c18.91,37.1,28.888,76.57,32.73,118.616
		C1767.353,340.696,1800.923,322.637,1815.89,289.332z M2849.01,338.522c-12.613-13.901-29.458-21.378-47.152-31.244
		c32.116-6.04,61.912,6.292,95.524-2.28c-30.793-10.496-58.925-5.56-90.804-10.511c17.42-9.404,30.75-16.6,44.08-23.796
		c-0.673-1.377-1.345-2.755-2.018-4.132c-27.944,8.759-53.746,23.285-82.322,32.606
		C2794.884,311.33,2821.036,326.541,2849.01,338.522z M2110.853,186.438c19.225-27.076,47.836-38.688,68.125-60.004
		c-28.256,10.847-50.999,29.893-74.801,51.696c-0.63-15.356,9.586-24.753,9.657-40.786c-11.306,18.531-22.941,32.344-28.093,49.959
		c-1.511,5.167-3.833,12.55,5.047,11.477c25.377-3.066,50.594-7.467,75.873-11.343
		C2148.292,181.26,2130.726,187.778,2110.853,186.438z M2271.69,544.927c5.386-15.518-3.904-32.298,7.288-48.53
		c9.109,19.736,17.345,37.579,25.58,55.423c1.696-0.605,3.393-1.211,5.089-1.816c-12.044-30.876-20.671-62.604-26.652-95.406
		C2273.028,483.976,2258.61,512.31,2271.69,544.927z M2458.88,238.806c-19.854,7.208-21.365-1.236-21.982-11.516
		c-0.449-7.487-0.18-15.624-8.549-24.285c1.252,18.581,2.271,33.709,3.29,48.836c-1.367,0.534-2.734,1.067-4.1,1.601
		c-6.478-10.261-12.955-20.521-19.433-30.782c6.536,27.137,21.149,50.932,20.8,82.83
		C2444.946,284.612,2436.364,258.943,2458.88,238.806z M1323.174,664.776c-13.522,6.294-18.681,16.586-24.932,25.789
		c-1.241,1.827-1.542,4.291-2.276,6.46c19.991-1.881,2.977,15.601,12.253,20.522
		C1314.863,701.294,1320.478,684.597,1323.174,664.776z M1997.249,241.553c13.608-22.573,9.999-41.052-10.176-55.846
		C1990.52,204.624,1993.652,221.815,1997.249,241.553z M2580.801,194.838c8.989-16.139,18.308-30.722,20.669-52.046
		c-9.484,8.927-10.797,16.789-13.463,23.767c-5.839,15.28-9.667,2.721-16.52-6.43C2575.66,175.683,2578.23,185.26,2580.801,194.838z
		 M2624.311,237.228c13.775-4.005,25.524-6.432,16.928-24.131C2634.179,219.436,2627.346,225.43,2624.311,237.228z M2049.4,398.735
		c4.891-15.269,2.309-25.982-6.987-38.909C2041.175,374.786,2040.302,386.165,2049.4,398.735z"/>
	<path d="M3009.215,2619.126c-8.407-28.037-14.832-49.892-16.093-72.804c-0.792-14.384,3.124-27.739,14.641-37.342
		c20.815-17.358,38.941-36.612,47.048-64.507c-2.715-3.732-6.594,0.688-9.787,1.843c-74.631,27.017-137.068,71.791-189.162,131.24
		c-6.317,7.208-9.344,9.056-12.727-1.563c-3.331-10.455-8.263-5.811-12.36-0.494c-5.022,6.52-8.735,15.758-4.873,21.932
		c11.623,18.579,8.016,39.639,12.256,61.896c9.091-13.905,6.214-27.252,6.98-39.981c0.359-5.966,0.908-11.969,2.095-17.808
		c0.351-1.73,2.97-3.755,4.899-4.232c2.846-0.703,3.476,2.243,4.559,4.364c21.955,42.991,16.358,75.649-17.964,108.301
		c-7.927,7.541-11.93,8.861-18.456-2.292c-14.465-24.718-20.744-49.55-10.905-77.573c2.507-7.14,9.038-17.667-0.652-22.781
		c-10.205-5.387-22.532-4.139-32.445,3.505c-25.14,19.386-30.32,66.722-9.375,91.441c12.997,15.339,25.364,30.651,29.231,51.011
		c4.407,23.196,1.832,44.652-17.764,60.538c-5.571,4.516-5.962,10.083-7.086,15.814c-5.227,26.649-12.651,52.673-22.118,78.104
		c-1.827,4.906-2.49,11.974-8.232,13.067c-6.056,1.153-8.446-5.596-11.822-9.694c-16.305-19.797-25.566-45.143-47.61-60.452
		c-1.366-0.949-2.855-2.925-2.868-4.436c-0.172-19.536-8.677-23.296-25.172-14.146c-6.35,3.521-8.646-0.465-8.504-6.574
		c0.155-6.622-0.109-13.277,0.461-19.861c0.913-10.547,0.221-18.104-14.066-13.985c-10.397,2.997-10.155-5.729-10.285-12.162
		c-1.045-51.954,15.474-94.505,64.274-119.89c19.008-9.887,18.846-10.197,25.841-20.986c-6.533-4.028-11.381,1.083-16.384,3.3
		c-57.804,25.61-115.572,51.198-177.299,66.433c-18.982,4.685-35.002,40.349-28.939,63.226c3.543,13.371,7.333,26.778,12.393,39.625
		c12.243,31.084,5.832,61.665-1.283,92.279c-2.725,11.725-8.186,6.742-13.584,1.663c-36.854-34.675-56.74-73.5-30.767-123.799
		c0.994-1.926,1.132-4.293,2.703-10.617c-29.057,19.81-57.555,33.413-65.023,69.292c-9.138,43.903-42.247,63.518-82.063,74.722
		c-2.792,0.785-7.643,1.636-8.636,0.3c-12.023-16.179-25.81-5.425-38.774-2.747c-18.898,3.905-37.833,7.279-57.103,8.598
		c-11.674,0.799-14.279-3.677-8.131-13.579c9.847-15.859,20.025-31.534,29.264-47.741c5.828-10.224,17.784-19.474,7.725-33.822
		c-1.038-1.48,1.046-5.722,2.451-8.256c27.581-49.771,77.043-66.536,127.711-40.662c21.298,10.877,37.742,9.564,56.32-4.309
		c18.27-13.644,39.076-23.92,50.131-45.559c3.644-7.133,6.313-12.869-5.036-13.039c-76.977-1.156-144.753-33.407-213.144-63.241
		c-32.094-14-64.737-22.456-99.971-17.545c-30.307,4.224-53.054,18.769-64.648,47.936c-5.797,14.584-6.803,29.723,2.091,43.422
		c15.518,23.9,19.49,49.715,17.203,77.691c-1.56,19.085-2.473,38.455,1.854,57.581c2.694,11.907-2.285,13.377-12.636,9.019
		c-38.372-16.158-72.009-36.936-82.8-83.397c-14.33,14.239-17.907,8.066-20.505-6.565c-4.587-25.833,4.678-47.282,17.625-68.125
		c3.37-5.426,7.116-10.618,9.902-17.658c-25.089,11.055-50.36,12.167-76.162,6.739c-4.695-0.987-8.663,0.873-10.217,5.389
		c-7.902,22.966-20.77,45.073-3.459,70.138c15.579,22.557,13.488,47.383,5.022,72.76c-12.021,36.034-42.488,61.06-53.539,98.844
		c-38.989-47.946-42.057-101.304-5.442-143.984c22.402-26.113,29.762-55.304,33.791-88.921
		c-16.858,7.563-28.677,17.89-33.185,35.228c-10.601,40.774-38.5,62.012-78.307,70.741c-13.305,2.917-14.675-1.028-10.961-12.536
		c15.806-48.976,7.91-47.652,54.583-78.901c-27.836-0.323-45.782-12.899-56.73-35.712c-2.353-4.902-6.381-3.609-10.836-3.059
		c-21.068,2.601-34.094,15.427-45.344,32.237c-30.762,45.965-77.449,57.322-125.789,32.335
		c-10.734-5.548-16.434-10.995-7.871-22.285c-9.81-3.951-17.285,4.272-27.405,1.443c9.166-16.881-1.694-20.982-15.092-25.453
		c-18.287-6.102-35.292-15.415-51.28-26.323c-8.583-5.857-9.141-10.08,2.087-13.882c20.511-6.944,40.735-14.751,60.98-22.457
		c10.962-4.173,25.597-3.098,27.097-20.872c0.394-4.671,8.203-6.185,13.561-7.515c28.509-7.077,55.019-3.837,78.405,15.193
		c8.401,6.836,16.486,14.061,24.742,21.077c18.891,16.057,40.943,18.863,64.572,15.695c6.143-0.823,9.672-3.089,11.029-9.573
		c2.408-11.509,8.056-21.328,20.843-29.012c-41.473-12.237-61.473-38.667-63.018-79.223c-0.394-10.344,0.016-17.039,13.167-10.309
		c33,16.887,68.714,29.138,87.689,65.775c6.92,13.361,25.069,12.735,38.516,17.348c4.304,1.477,6.114-3.429,6.089-6.972
		c-0.103-14.713,6.043-27.827,11.576-42.918c-11.756,1.208-23.909,1.905-25.654-11.103c-1.595-11.887,9.41-17.182,18.413-22.084
		c43.941-23.924,90.228-23.434,136.906-11.19c30.879,8.1,59.819,22.01,89.554,33.537c35.16,13.63,70.773,26.093,109.144,40.143
		c-8.933-33.089-16.396-63.347-39.906-85.732c-43.961-41.859-47.846-90.499-26.149-144.005
		c5.656-13.949,11.663-27.758,17.166-41.766c4.648-11.832,9.539-12.456,16.444-1.544c10.939,17.287,21.622,34.816,33.811,51.203
		c7.232,9.723,12.345,19.725,26.136,26.45c22.005,10.732,25.42,57.82,11.091,83.585c-3.505,6.302-7.914,12.093-11.664,18.267
		c-25.594,42.149-13.83,88.531,29.337,112.878c42.305,23.86,87.653,39.622,135.493,48.094c3.343,0.592,6.828,0.388,10.542,0.568
		c0.17-8.462-5.998-10.749-10.707-13.948c-41.44-28.147-51.564-62.925-29.828-107.232c4.817-9.819,6.925-26.458,17.644-26.955
		c10.408-0.482,15.288,15.3,22.011,24.38c21.075,28.46,29.846,59.659,22.646,95.214c-4.576,22.598,5.426,32.785,28.686,30.95
		c55.449-4.375,106.837-23.3,156.764-46.122c35.946-16.431,70.817-35.212,108.799-54.265c-18.126-5.752-30.752-14.784-43.309-24.125
		c-10.916-8.121-23.696-11.633-37.306-11.791c-15.649-0.181-31.301-0.111-46.948-0.381c-41.903-0.722-71.857-21.01-91.947-56.897
		c-5.578-9.964-10.622-20.265-15.29-30.69c-4.122-9.206-8.013-18.694,8.035-20.879c9.681-1.319,5.898-9.003,4.911-14.304
		c-3.416-18.335-7.74-36.505-10.958-54.871c-1.642-9.375-1.969-18.64,13.074-15.241c12.028,2.718,12.076-6.911,12.458-14.681
		c1.342-27.333,6.034-53.854,18.386-78.552c3.373-6.744,5.189-14.824,13.59-18.508c10.667,16.871,20.75,33.897,31.949,50.155
		c7.49,10.872,16.21,19.836,31.127,22.361c14.027,2.374,17.951,16.809,22.862,28.202c4.988,11.574,10.672,14.753,17.903,2.929
		c10.31-16.857,18.66-12.225,30.14-0.582c46.183,46.841,53.247,89.308,22.863,143.042c-8.718,15.417-22.042,31.001-8.356,49.635
		c14.513,19.759,35.76,25.83,59.248,23.586c25.238-2.411,46.998-13.907,67.616-28.041c48.114-32.982,94.02-69.268,146.826-95.167
		c33.426-16.393,69.666-22.408,105.479-32.82c-21.511-11.582-43.05-22.446-68.568-13.048c-10.155,3.74-20.082,8.156-29.926,12.671
		c-47.219,21.661-90.496,7.707-132.907-14.462c-3.845-2.01-5.558-5.099-2.524-8.672c9.755-11.487,2.104-13.874-7.698-17.395
		c-25.824-9.278-47.814-25.025-68.729-42.548c-7.869-6.593-6.021-9.928,1.729-14.152c15.393-8.39,31.293-15.683,48.107-20.435
		c11.492-3.247,14.48-8.023,11.196-20.233c-6.557-24.375-10.855-49.355-16.177-74.066c-2.378-11.044-0.039-16.382,12.603-11.962
		c7.351,2.57,15.087,4.103,22.714,5.813c42.118,9.439,77.482-0.625,102.996-36.954c8.257-11.758,13.584-9.945,20.522,1.081
		c10.244,16.282,22.277,31.467,32.043,48.009c6.076,10.292,10.94,9.673,17.074,1.486c10.602-14.15,16.83-9.065,24.074,3.672
		c23.76,41.779,32.217,85,16.91,131.826c-8.8,26.92-7.507,29.163,17.945,41.968c16.609,8.355,32.893,17.703,52.028,19.711
		c11.822,1.241,18.462,0.213,13.469-14.904c-4.496-13.611-6.608-28.114-8.76-42.375c-8.462-56.076,8.637-87.835,59.689-111.932
		c33.733-15.923,32.064-15.929,31.935,19.875c-0.147,40.66-12.993,72.91-45.427,99.188c-24.387,19.759-14.281,58.68,15.375,67.695
		c25.311,7.695,50.232,16.907,76.576,20.848c4.1,0.613,9.695,0.329,10.648,5.139c2.016,10.166,7.041,16.875,16.561,21.262
		c3.582,1.651,5.263,7.302,3.054,11.228c-2.583,4.59-7.438,2.157-11.451,1.471c-31.514-5.387-62.05-14.721-92.874-22.914
		c-33.819-8.988-67.746-17.038-103.281-12.329c-23.488,3.112-42.01,14.967-56.216,32.919c-9.213,11.642-13.578,25.018-4.677,40.14
		c7.714,13.106,7.692,28.012,2.716,42.052C3050.806,2573.417,3024.663,2589.135,3009.215,2619.126z M2044.749,2569.991
		c-24.332-13.764-50.556-17.574-77.823-15.497c-5.464,0.416-10.321,3.283-13.998,7.504c-14.86,17.059-26.641,35.507-28.225,59.049
		c-1.635,24.292,10.418,42.412,33.983,48.513c24.159,6.254,46.779,0.538,67.276-12.336c26.37-16.563,47.082-41.589,78.432-50.754
		c-46.56-1.223-92.242-1.083-137.92-1.41c-5.348-0.038-13.143,3.963-15.8-3.697c-2.02-5.823,2.738-11.289,5.577-16.569
		c3.58-6.659,9.937-7.848,16.477-9.485C1996.418,2569.379,2020.566,2572.322,2044.749,2569.991z M1858.183,2713.474
		c20.405,0.08,37.689-6.962,52.524-20.47c3.368-3.066,8.629-5.683,3.566-11.429c-16.74-18.995-34.325-37.242-58.928-45.716
		c-19.185-6.607-40.862,4.329-47.061,22.191c-7.949,22.905,1.18,43.287,23.513,50.541
		C1840.231,2711.331,1849.367,2711.91,1858.183,2713.474z M3034.577,2245.168c-10.569,29.861-0.318,59.951-2.969,90.716
		c-31.093-33.864-50.302-76.105-83.308-113.706c6.363,33.62,29.543,54.022,41.795,82.214c-29.104-7.319-53.601-20.059-84.806-18.711
		c9.549,8.206,17.387,9.212,24.818,11.347c27.863,8.004,55.219,17.132,76.896,37.714c2.875,2.729,8.315,4.751,6.858,9.506
		c-1.53,4.993-7.021,3.481-11.019,3.47c-12.626-0.033-25.277-0.917-37.87-0.365c-13.896,0.61-28.398-2.069-41.439,6.253
		c35.195,3.274,70.342,5.568,105.525,6.527c10.03,0.273,22.507-1.558,11.31-17.42c-1.598-2.264-0.323-6.97,0.392-10.386
		C3046.958,2302.707,3039.249,2274.064,3034.577,2245.168z M2668.717,2475.473c-28.528-34.701-41.502-77.593-64.75-114.852
		c4.963,37.683,24.231,70.16,40.132,106.116c-32.458-9.478-49.958-35.561-75.975-48.141c23.459,43.25,74.623,52.375,107.643,90.276
		c-18.133-0.987-33.088-1.802-48.043-2.616c16.535,8.406,33.232,13.912,51.213,14.985c12.118,0.723,16.747-1.843,11.509-15.042
		c-11.05-27.843-14.246-56.922-11.949-86.871c1.578-20.58,0.791-20.641-5.278-34.569
		C2667.886,2416.567,2668.99,2445.7,2668.717,2475.473z M2669.599,2729.142c16.576-15.811,33.152-31.622,51.827-49.435
		c-2.242,40.702-21.695,71.739-41.464,106.031c18.611-9.937,23.401-27.457,37.323-40.07c-0.046,23.926-2.674,45.221,6.447,65.119
		c4.473-35.806-3.346-72.151,5.881-110.979c13.93,16.984,10.168,36.688,21.912,56c-2.965-41.005-21.573-74.247-17.403-112.367
		C2722.992,2681.188,2682.031,2693.996,2669.599,2729.142z M1600.531,2682.562c9.181,9.389,21.341,7.942,32.823,9.258
		c3.936,0.451,11.664-0.917,11.21,2.429c-2.406,17.739,10.057,7.031,13.661,6.435c16.076-2.663,31.858-7.1,47.746-10.896
		c0.708,1.518,1.416,3.036,2.125,4.555c-10.955,8.957-21.91,17.914-32.865,26.87c14.908-3.438,26.417-11.511,36.311-22.048
		c3.583-3.816,10.616-6.566,9.015-12.328c-1.555-5.595-8.872-4.935-13.84-5.378c-20.069-1.789-38.43-8.746-56.511-17.035
		c-4.744-2.175-9.105-7.359-16.527-4.188c10.318,10.535,25.021,12.165,37.842,22.834
		C1645.67,2686.746,1623.398,2682.158,1600.531,2682.562z M2224.396,2496.448c-1.155-0.196-2.309-0.393-3.463-0.589
		c-3.425-24.122-6.851-48.244-10.276-72.366c-5.835,25.914,1.286,51.02-0.752,76.584c-7.605-13.954-15.209-27.908-22.814-41.862
		c-1.292,0.74-2.583,1.481-3.875,2.221c8.247,23.752,20.971,45.38,33.64,66.992c1.665,2.84,5.248,6.281,8.015,6.347
		c4.18,0.098,4.307-4.861,4.671-8.301c1.912-18.056,7.504-35.192,12.727-52.441c1.423-4.7,4.409-10.007-2.853-15.163
		C2234.173,2471.335,2229.285,2483.891,2224.396,2496.448z M2347.447,2818.235c0.224,1.566,0.448,3.132,0.673,4.697
		c-25.004,10.027-50.008,20.054-75.012,30.08c0.91,2.044,1.821,4.089,2.732,6.133c22.669-9.329,45.635-17.662,71.988-23.406
		c-8.655,12.052-16.024,22.312-23.392,32.572c22.208-13.306,38.548-31.482,53.62-54.573c-26.345,1.15-49.334-12.389-74.16-1.843
		C2318.413,2814.009,2332.93,2816.122,2347.447,2818.235z M2053.908,2714.231c8.539,11.934,9.946,23.876,20.113,31.106
		c-6.208-22.845-9.573-45.74-5.524-71.603c-29.828,26.817-36.951,72.978-16.09,98.462
		C2048.533,2752.817,2044.356,2734.89,2053.908,2714.231z M2419.39,2591.84c-7.852,26.631-3.556,41.622,15.954,52.232
		C2437.187,2624.023,2427.021,2607.931,2419.39,2591.84z M3184.478,2291.411c-6.819,15.494-15.75,31.77-2.204,52.565
		c6.025-13.339,11.087-24.545,16.479-36.482C3176.122,2313.625,3193.294,2295.095,3184.478,2291.411z M1906.629,2789.677
		c-12.612,18.588-31.453,35.222-23.378,61.832C1889.01,2830.182,1900.181,2811.015,1906.629,2789.677z M2483.021,2834.913
		c0.801-15.709-0.523-27.976-5.365-39.696c-1.005-2.431-1.258-6.545-5.242-6.115c-4.312,0.465-6.345,4.707-5.683,7.826
		C2469.372,2809.362,2469.421,2823.027,2483.021,2834.913z M1843.113,2765.109c9.786-5.48,19.091-11.32,22.291-25.896
		C1852.135,2745.26,1846.179,2753.972,1843.113,2765.109z"/>
	<path d="M4289.896,2626.572c-11.781-28.176-35.352-47.299-58.881-72.796c42.704,1.373,76.436,22.5,114.368,21.267
		c-21.584-12.683-44.756-21.278-68.562-27.727c-23.903-6.476-49.003-6.925-73.738-11.223
		c33.054-22.779,72.162-28.925,106.139-47.144c-42.438-0.321-77.774,23.08-119.199,37.012c6.88-15.375,21.632-21.203,26.588-40.054
		c-14.518,12.247-25.3,21.349-36.09,30.443c-7.549,6.364-15.358,11.666-26.132,8.738c-8.528-2.318-16.25-6.038-19.1-14.817
		c-2.956-9.107,5.467-12.617,10.809-16.782c35.664-27.813,71.289-56.012,117.666-63.956c50.834-8.707,92.245,8.215,125.514,47.034
		c6.626,7.732,7.521,11.649-3.159,16.925c-25.371,12.533-25.049,13.153-4.674,32.084c6.174,5.737,12.72,11.156,18.305,17.425
		c8.542,9.589,18.639,17.611,16.24,33.945c-1.375,9.365,6.543,18.947,12.398,27.462c14.463,21.03,32.201,38.891,52.165,54.669
		c3.176,2.51,7.884,4.901,6.643,9.721c-1.243,4.828-6.435,4.744-10.534,5.423c-26.557,4.397-52.847-0.611-79.229-2.32
		c-12.614-0.817-25.212-2.038-37.839-2.477c-10.993-0.382-23.152-3.59-23.034,15.433c0.065,10.463-11.037,9.576-18.626,8.357
		c-23.588-3.789-47.921-4.428-69.136-16.586c-1.118,1.641-1.663,2.083-1.731,2.591c-4.189,30.956-4.185,30.956-35.321,20.022
		c-41.91-14.718-62.815-42.667-63.624-86.395c-0.255-13.806,1.632-27.639,2.013-41.474c0.374-13.57,0.081-27.159,0.081-42.528
		c42.418,23.271,47.037,72.227,74.439,105.181c-5.351-28.527-20.646-52.99-31.939-82.091
		C4235.701,2566.126,4256.936,2603.63,4289.896,2626.572z"/>
	<path d="M611.906,1179.978c0,60.83-0.707,121.673,0.361,182.484c0.405,23.048-15.345,32.708-30.095,43.432
		c-13.778,10.017-26.27,1.642-38.141-5.968c-1.014-0.65-2.016-1.318-3.015-1.991c-66.952-45.04-67.953-46.826-68.024-126.915
		c-0.071-80.101-0.045-160.201-0.048-240.301c0-2.943-1.084-7.4,0.401-8.601c19.732-15.961,35.906-38.701,63.481-41.088
		c20.278-1.756,40.95,0.769,61.228-2.883c11.888-2.141,14.016,3.214,13.942,13.925c-0.432,62.634-0.211,125.271-0.211,187.908
		C611.826,1179.978,611.866,1179.978,611.906,1179.978z"/>
	<path d="M300.083,450.155c-17.195,13.601-32.352,21.307-41.012,38.02c12.15-7.265,24.387-14.388,36.424-21.835
		c10.915-6.753,21.736-12.293,35.493-9.898c13.213,2.3,17.672,12.57,20.647,22.56c2.679,8.996-7.697,10.887-13.303,14.356
		c-32.171,19.904-63.503,41.641-100.524,52.066c-53.805,15.152-100.989,5.45-139.705-37.259
		c-9.402-10.371-10.496-16.57,4.203-21.261c7.428-2.37,14.6-5.567,20.524-13.085c-9.199-6.554-18.726-12.443-27.201-19.581
		c-14.573-12.274-29.801-23.726-26.824-47.269c0.946-7.48-6.573-16.39-11.095-24.134c-13.403-22.951-31.065-42.828-46.967-63.979
		c-3.073-4.087-9.233-7.925-5.835-13.854c3.215-5.611,9.934-3.559,14.866-2.643c37.946,7.043,76.375,9.608,114.7,13.262
		c10.486,1,19.196,1.968,19.734-12.562c0.372-10.066,8.294-8.405,14.81-7.484c20.867,2.949,41.909,5.609,60.866,15.665
		c11.178,5.929,16.735,4.472,15.851-9.351c-0.959-14.998,5.952-16.894,18.92-12.501c45.803,15.517,69.058,46.154,69.073,94.23
		c0.007,20.374,1.038,40.599,4.613,62.232c-24.011-4.5-35.569-20.517-45.725-38.575c-9.571-17.015-17.383-35.223-33.776-53.662
		c4.859,28.283,17.639,48.752,27.702,76.242c-44.074-19.25-75.524-48.415-110.875-71.553c16.891,30.355,48.027,44.237,78.224,65.754
		c-43.774-6.997-82.692-13.218-121.61-19.438c43.714,25.449,94.573,22.016,146.897,37.314
		c-36.764,13.646-70.045,22.33-100.225,39.182c16.833,3.874,19.855,3.037,57.736-11.857
		C255.574,461.832,274.051,452.821,300.083,450.155z"/>
	<path d="M3896.884,1771.228c0-62.54-0.076-125.079,0.038-187.618c0.045-24.703,7.142-30.134,30.832-22.687
		c18.24,5.733,32.26,18.434,45.746,31.323c23.611,22.564,42.445,49.039,60.74,75.916c3.548,5.212,4.684,10.638,4.65,16.946
		c-0.412,75.767-0.846,151.537-0.552,227.303c0.052,13.474-3.527,23.408-15.443,29.908c-1.048,0.572-1.979,1.364-2.942,2.083
		c-51.004,38.094-50.981,37.814-113.377,33.016c-11.76-0.904-9.723-8.047-9.729-14.957c-0.054-63.744-0.032-127.488-0.032-191.231
		C3896.838,1771.228,3896.861,1771.228,3896.884,1771.228z"/>
	<path d="M3678.758,1797.697c-14.419,3.351-24.759-0.947-35.371-2.196c-3.424-0.403-7.856-1.269-9.365,2.995
		c-1.818,5.136,2.191,7.926,6.185,9.352c10.828,3.864,21.864,6.251,33.622,5.001c13.711-1.458,26.568-0.206,33.981,14.279
		c4.109,8.03,13.025,6.967,19.208,6.037c9.631-1.449,2.983-9.856,3.126-14.88c0.725-25.435-1.937-50.49-10.741-74.638
		c-3.249-8.911-6.374-17.779-15.591-27.494c2.888,34.847,19.583,63.668,18.349,95.884c-8.795,1.301-12.791-5.08-16.563-9.743
		c-17.699-21.88-41-34.425-66.833-44.221c-33.611-12.747-37.466-20.82-33.468-56.006c2.038-17.936,3.619-35.958,4.416-53.986
		c0.513-11.602,3.338-15.011,14.985-9.428c23.321,11.178,47.411,20.745,70.778,31.831c12.278,5.825,26.95,3.197,38.024,14.109
		c25.412,25.04,33.115,54.987,28.507,89.182c-1.526,11.33-2.865,22.746-5.413,33.866c-6.695,29.237,6.451,52.33,22.298,77.048
		c7.496-17.351,10.672-33.062,7.619-50.121c-8.431-47.092,10.714-84.842,52.72-106.077c7.09-3.584,8.472-0.706,9.013,5.215
		c3.302,36.203,1.229,71.583-22.437,101.42c-16.322,20.577-26.35,42.887-27.357,69.163c-0.24,6.266-0.797,12.684-9.341,12.483
		c-7.246-0.17-15.787,4.323-20.548-5.822c-5.666-12.07-13.801-22.576-22.397-32.683c-9.896-11.634-21.785-14.343-35.545-7.299
		c-13.917,7.125-27.435,15.155-41.745,21.362c-30.872,13.391-58.785,5.276-84.805-13.54c-4.704-3.401-7.355-7.634-8.013-13.448
		c-0.324-2.861-1.121-7.587-2.749-8.09c-21.851-6.748-30.881-29.41-51.754-39.087c-30.447-14.116-29.169-16.996-3.244-36.592
		c7.202-5.443,14.073-11.85,22.14-15.526c25.665-11.697,49.734-35.884,79.833-4.837
		C3635.255,1776.653,3659.475,1780.993,3678.758,1797.697z M3693.298,1830.178c-22.484-0.811-44.15,6.23-66.531,6.404
		C3642.167,1848.677,3661.793,1846.634,3693.298,1830.178z M3804.594,1836.534c6.494-14.146,12.102-24.03,11.247-38.685
		C3805.833,1808.943,3798.246,1818.181,3804.594,1836.534z"/>
	<path d="M882.288,1223.388c2.774,32.787-5.439,64.661-8.113,96.995c-0.649,7.847-5.32,9.287-11.021,4.782
		c-22.035-17.413-50.328-23.177-72.854-39.333c-8.9-6.383-20.064,0.186-28.568-8.309c-12.2-12.186-22.979-24.902-26.768-41.995
		c-5.942-26.803-7.866-53.943,1.441-80.251c5.24-14.812,4.534-27.417-3.439-41.001c-6.267-10.677-10.026-22.826-16.191-37.367
		c-7.599,16.212-7.711,30.272-6.858,44.161c2.703,43.99-15.336,76.652-52.123,100.196c-9.519,6.093-13.341,6.436-14.454-6.094
		c-3.223-36.271,1.531-69.953,29.603-96.425c18.672-17.608,19.232-40.417,19.232-63.56c0-5.168-3.258-11.689,2.382-15.071
		c6.586-3.949,10.735,3.038,15.729,5.76c11.451,6.242,19.421,15.659,25.963,26.892c16.63,28.554,31.006,31.965,58.82,13.084
		c23.366-15.861,47.719-25.418,76.359-18.381c15.808,3.884,29.451,10.565,35.687,27.058c0.625,1.652,1.618,4.728,2.062,4.66
		c24.658-3.757,20.029,23.848,34.17,31.823c14.618,8.244,27.691,19.181,41.97,28.09c9.31,5.808,6.013,9.864-0.37,14.507
		c-23.435,17.046-47.205,33.493-76.016,40.391c-9.401,2.251-18.608,4.933-27.047,9.796c-3.08-22.799-21.893-29.646-38.944-38.05
		c-11.9-5.866-25.819-8.644-33.944-23.313c14.059-0.307,24.426,8.341,36.6,7.354c3.609-0.293,7.836-0.267,8.939-4.465
		c1.055-4.015-2.154-6.812-5.248-8.546c-12.411-6.955-26.042-9.887-40.005-8.543c-11.708,1.127-22.038-2.047-32.88-7.326
		c29.87-10.58,61.866-11.097,95.025-17.638c-8.569-7.676-15.436-5.636-21.505-4.895c-20.892,2.551-41.788,5.326-62.496,9.052
		c-24.743,4.451-24.487,4.899-22.63,29.517c0.95,12.594,1.067,25.249,1.719,37.868c0.679,13.128,3.994,25.428,11.814,36.378
		c1.933-27.019-6.991-53.426-3.93-82.517c12.806,8.588,19.496,19.473,27.931,28.525c8.279,8.885,15.846,18.872,28.902,20.009
		c15.448,1.346,27.15,8.782,37.318,19.674C872.234,1220.831,875.814,1225.225,882.288,1223.388z M692.733,1120.467
		c-8.914,15.904-15.405,26.943-16.583,44.347C689.352,1151.908,695.477,1140.636,692.733,1120.467z"/>
	<path d="M1763,450.594c31.636-19.082,58.233-46.437,100.948-43.012c42.431,3.402,85.355,0.858,128.06,0.502
		c10.004-0.083,17.187,1.377,20.027,12.858c7.109,28.735,29.727,47.557,46.662,69.899c7.609,10.038,14.909,3.283,20.116-4.161
		c13.967-19.969,23.696-41.99,28.034-65.915c1.817-10.018,6.299-12.68,15.608-12.591c31.876,0.304,63.757,0.083,95.636-0.064
		c4.329-0.02,8.226,0.306,11.743,3.313c18.955,16.205,22.648,51.518,5.866,69.611c-16.095,17.351-24.477,37.02-22.879,60.499
		c0.732,10.759-3.793,13.187-13.632,13.119c-58.95-0.409-117.905-0.457-176.857-0.247c-9.581,0.034-15.18-3.026-19.458-12.071
		c-26.646-56.334-71.542-82.105-133.632-78.029C1833.401,466.657,1798.657,459.314,1763,450.594z"/>
	<path d="M2398.201,2457.274c30.088,0.014,60.183,0.389,90.26-0.19c10.563-0.203,15.889,3.321,20.09,13.327
		c23.661,56.347,66.202,83.509,127.635,80.395c22.994-1.166,45.735-0.974,66.382,11.833c10.998,6.823,11.954,11.669-0.317,18.662
		c-28.687,16.35-57.753,26.935-92.203,24.684c-41.945-2.74-84.21-1.04-126.323-0.406c-11.754,0.177-16.032-3.385-18.974-15.194
		c-7.4-29.709-23.868-55.06-44.657-77.283c-10.581-11.311-19.382-9.83-27.107,3.734c-13.74,24.127-27.322,48.517-25.091,77.75
		c0.734,9.624-4.211,10.749-11.943,10.676c-21.058-0.198-42.13-0.245-63.176,0.362c-9.51,0.274-15.626-3.631-21.228-10.848
		c-19.04-24.533-20.97-52.5-3.682-78.776c10.014-15.22,20.089-30.087,20.726-49.113c0.375-11.195,8.797-9.535,15.735-9.566
		C2335.619,2457.182,2366.91,2457.26,2398.201,2457.274z"/>
	<path d="M1473.935,408.653c-6.656,13.077-14.189,22.365-23.077,30.359c-21.976,19.764-29.286,44.113-26.401,73.162
		c3.533,35.562-2.553,41.682-37.711,42.144c-18.655,0.245-37.474-1.446-55.941,0.445c-43.181,4.421-81.544-7.772-118.657-28.57
		c-22.495-12.606-46.637-22.264-69.975-33.382c-4.142-1.974-10.47-2.652-10.48-8.42c-0.008-4.772,5.603-5.661,9.371-7.299
		c34.014-14.785,64.558-34.743,90.948-60.895c4.382-4.343,8.893-7.639,15.631-7.627
		C1322.151,408.703,1396.657,408.653,1473.935,408.653z"/>
	<path d="M3034.951,2605.383c5.005-11.14,11.716-17.266,18.05-23.614c20.965-21.012,27.157-45.518,20.033-74.427
		c-8.594-34.875,0.757-45.548,36.031-48.983c81.052-7.894,159.043,8.682,236.853,27.522c4.885,1.183,11.688,1.524,11.971,8.76
		c0.246,6.283-5.064,8.912-9.695,11.87c-39.172,25.021-75.481,53.47-106.057,88.783c-4.316,4.985-8.749,10.092-16.268,10.092
		C3162.928,2605.38,3099.988,2605.383,3034.951,2605.383z"/>
	<path d="M3481.017,2019.17c0.245,15.315-3.244,28.735-6.052,42.283c-3.103,14.97-4.556,29.907,4.984,43.463
		c4.817,6.845,4.041,10.171-5.127,11.612c-23.717,3.726-47.284,8.397-70.938,12.533c-40.81,7.136-74.442-6.528-102.889-35.488
		c-7.379-7.513-9.382-14.431,1.614-19.593c8.18-3.839,5.738-7.911,3-14.087c-5.099-11.501-9.104-23.51-13.159-35.445
		c-4.213-12.393-8.747-24.922,11.457-27.892c7.691-1.13,5.67-7.239,4.428-12.851c-6.965-31.469-6.198-63.357-4.446-95.255
		c0.22-4.004-1.031-9.29,3.833-11.141c4.664-1.775,7.518,2.571,10.559,5.344c11.109,10.134,21.636,21.003,33.442,30.244
		c10.809,8.46,19.914,19.305,37.278,17.605c9.77-0.957,18.945,9.23,25.613,18.131c6.531,8.718,12.731,10.715,18.773-0.548
		c5.6-10.437,12.371-10.154,19.354-1.434C3470.026,1968.235,3483.552,1991.317,3481.017,2019.17z M3461.787,2100.615
		c-28.614-28.646-26.846-67.016-36.925-101.356c0.892,17.851,1.783,35.701,2.675,53.552c-1.763,0.37-3.525,0.739-5.288,1.109
		c-19.497-25.113-38.993-50.226-58.489-75.339c5.07,29.248,24.129,49.668,45.288,74.367c-24.465-5.555-39.948-21.369-61.465-23.679
		c1.69,7.169,5.91,7.467,8.715,9.477c20.266,14.518,44.724,20.475,66.249,32.422c3.075,1.707,7.399,3.126,6.528,7.473
		c-0.888,4.433-5.458,3.955-8.881,3.988c-14.615,0.141-29.232,0.06-43.848,0.06c-0.109,1.918-0.218,3.835-0.327,5.753
		C3403.983,2092.555,3433.153,2089.886,3461.787,2100.615z"/>
	<path d="M1011.966,947.912c0.581-6.586,0.277-13.401,1.907-19.717c5.153-19.977,3.63-38.106-11.788-53.454
		c-2.002-1.993-4.874-4.69-3.003-7.814c2.379-3.969,6.544-2.88,9.491-0.871c10.35,7.058,20.094,3.412,30.865,0.455
		c26.061-7.155,52.078-14.726,79.288-17.027c30.291-2.561,57.138,5.33,80.941,24.014c9.307,7.305,12.743,13.642-2.864,16.831
		c-6.966,1.423-11.578,3.128-4.695,11.414c12.923,15.558,15.389,36.373,25.318,53.57c4.283,7.417,0.436,12.27-6.927,12.1
		c-14.778-0.34-12.692,7.054-10.339,17.202c6.112,26.36,11.289,52.94,16.551,79.489c1.141,5.754,4.389,13.522-0.45,17.168
		c-6.101,4.597-12.359-2.037-17.747-5.285c-14.42-8.693-28.44-18.048-42.646-27.097c-11.725-7.468-21.395-15.848-38.574-13.789
		c-13.968,1.674-27.166-11.326-37.741-22.232c-7.643-7.882-12.729-8.509-16.017,3.105c-3.388,11.968-9.82,9.516-17.357,3.937
		C1021.943,1001.97,1011.36,977.694,1011.966,947.912z M1031.533,875.643c11.588,15.272,18.484,28.114,19.981,43.385
		c1.403,14.321,3.989,28.526,6.054,42.782c1.349-0.147,2.697-0.295,4.046-0.443c-1.599-19.252-3.197-38.504-4.796-57.756
		c1.27-0.621,2.539-1.243,3.809-1.864c16.624,25.508,33.248,51.017,49.871,76.526c-1.484-24.038-20.377-39.615-28.723-63.789
		c26.035,17.417,45.396,38.786,71.683,48.972c0.964-1.38,1.928-2.76,2.891-4.14c-26.335-20.793-52.67-41.586-79.005-62.379
		c0.553-1.091,1.106-2.183,1.659-3.274c23.377,4.946,46.754,9.892,70.131,14.838
		C1113.084,890.404,1074.406,883.783,1031.533,875.643z"/>
	<path d="M4236.413,2293.104c16.38-11.65,31.652-21.155,50.926-16.707c6.191,1.428,11.948,5.615,14.905-5.865
		c0.891-3.457,14.711-3.583,24.537-5.639c-20.578-7.984-38.6-12.061-57.862-2.494c-10.198,5.065-22.142,5.293-33.633,3.832
		c-2.807-0.357-6.078-1.513-6.042-5.429c0.026-2.968,2.544-3.931,4.788-4.504c18.182-4.644,30.563-18.709,45.904-27.934
		c19.646-11.814,39.483-25.385,61.721-3.504c3.118,3.068,10.316,2.333,15.672,2.729c29.228,2.166,53.052,18.645,78.908,29.684
		c8.225,3.512,5.323,8.287-0.374,11.517c-27.189,15.416-52,35.061-81.312,46.657c-18.447,7.298-37.457,8.754-56.445,1.558
		C4277.702,2309.274,4261.599,2290.932,4236.413,2293.104z"/>
	<path d="M2913.984,2462.124c-36.709,20.659-66.677,50.009-104.622,67.1c-21.066,9.488-43.198,10.596-64.778,1.142
		c-15.692-6.875-19.132-16.623-11.84-31.997c5.396-11.379,12.004-22.182,17.445-33.543c2.499-5.218,6.281-7.105,11.352-7.08
		c49.242,0.245,98.483,0.585,147.724,1.002C2910.197,2458.755,2911.118,2460.021,2913.984,2462.124z"/>
	<path d="M3011.036,2476.064c-0.567,1.525-0.694,3.548-1.77,4.521c-34.108,30.858-37.091,67.753-21.354,108.422
		c4.441,11.476,3,17.4-12.033,16.799c-29.361-1.175-58.801-0.26-88.204-0.555c-6.148-0.062-14.013,3.094-17.652-4.85
		c-3.775-8.243-2.12-15.949,3.357-23.581c8.549-11.913,19.998-20.664,30.661-30.275c29.569-26.654,63.458-47.254,96.921-68.41
		C3003.633,2476.446,3006.646,2473.22,3011.036,2476.064z"/>
	<path d="M279.95,781.288c-15.811,27.492-24.592,58.392-50.259,78.831c-21.881,17.424-46.551,29.592-72.68,39.063
		c-3.85,1.395-7.843,3.792-11.832,0.38c-5.05-4.317-1.295-9.019-0.036-13.245c9.625-32.311,30.707-58.185,49.04-85.522
		c3.073-4.582,9.486-7.214,14.761-9.97c13.408-7.005,25.327-15.992,37.063-25.448c5.588-4.502,10.48-16.741,17.271-11.622
		C271.134,759.676,274.457,771.61,279.95,781.288z"/>
	<path d="M1581.45,547.924c31.902-16.825,56.028-39.966,86.296-53.321c24.852-10.965,50.535-10.956,75.009,0.913
		c11.075,5.371,24.062,13.71,18.47,28.752c-5.34,14.368-10.368,30.487-32.629,29.75c-41.394-1.372-82.865-0.353-124.304-0.475
		C1597.859,553.523,1591.148,554.162,1581.45,547.924z"/>
	<path d="M1513.941,522.551c10.819-36.532,5.079-68.734-11.05-99.934c-5.361-10.369-3.509-15.102,9.357-14.786
		c25.251,0.621,50.534-0.15,75.789,0.391c7.391,0.158,17.429-5.086,20.922,7.614c3.607,13.114,10.986,25.915-2.777,38.069
		c-21.696,19.16-45.041,36.105-68.623,52.766C1529.812,512.143,1521.82,517.268,1513.941,522.551z"/>
	<path d="M3426.197,2605.899c-36.459,0-72.918-0.02-109.378,0.013c-10.242,0.01-9.423-7.032-6.032-12.094
		c15-22.397,35.692-38.718,59.495-50.784c7.817-3.962,15.239,2.236,17.378,8.822c7.039,21.676,22.431,36.208,40.15,49.226
		C3427.271,2602.687,3426.734,2604.293,3426.197,2605.899z"/>
	<path d="M1169.555,413.997c-12.96,7.188-25.957,14.31-38.866,21.588c-7.802,4.398-13.529,0.952-19.233-4.269
		c-5.762-5.274-6.112-12.466-4.007-18.293c2.524-6.987,10.434-4.352,16.034-4.182
		C1138.306,409.291,1153.281,406.593,1169.555,413.997z"/>
	<path d="M799.35,647.111c9.511-20.748,17.817-38.053,25.426-55.66c11.162-25.828,3.149-48.28-14.128-68.091
		c-4.602-5.277-7.3-10.353-8.831-17.025c-11.325-49.362-47.608-79.44-98.784-81.37c-14.372-0.542-28.829,1.075-43.244,1.767
		c-15.748,0.755-18.447-3.02-11.895-17.759c12.501-28.124,38.289-41.082,63.893-52.838c70.153-32.208,150.075-6.093,175.981,62.03
		c19.974,52.524,20.772,109.187-0.775,162.297C872.254,616.795,837.686,632.674,799.35,647.111z"/>
	<path d="M3582.611,2454.152c-2.649-64.721,29.014-110.936,88.841-130.45c4.37-1.425,9.679-5.342,13.462-1.254
		c4.366,4.718-2.21,8.322-3.689,12.51c-2.796,7.922-5.934,15.583-10.338,22.906c-16.492,27.426-15.103,47.442,5.573,71.95
		c4.552,5.396,7.306,10.031,7.509,17.134c1.184,41.415,24.084,66.459,61.522,80.186c23.528,8.626,48.119,10.313,72.856,11.262
		c6.253,0.24,14.491-2.716,17.708,5.128c3.468,8.458-2.324,15.069-8.02,20.43c-39.573,37.252-86.531,52.102-139.606,40.751
		c-71.036-15.191-101.508-55.242-105.781-134.312C3582.357,2464.994,3582.611,2459.566,3582.611,2454.152z"/>
</g>
</svg>
