<?xml version="1.0" encoding="iso-8859-1"?>
<!-- Generator: Adobe Illustrator 23.0.5, SVG Export Plug-In . SVG Version: 6.00 Build 0)  -->
<svg version="1.1" id="Layer_1" xmlns="http://www.w3.org/2000/svg" xmlns:xlink="http://www.w3.org/1999/xlink" x="0px" y="0px"
	 viewBox="0 0 4500 3000" style="enable-background:new 0 0 4500 3000;" xml:space="preserve">
<g id="_x31__x25_20_x28_304_x29__1_">
	<path d="M280.552,1709.041c43.6-24.535,77.548-54.221,82.262-72.963c-2.3,2.151-3.962,3.371-5.206,4.926
		c-5.624,7.036-10.946,16.873-21.017,14.518c-10.978-2.568-10.013-13.666-9.655-22.764c0.316-8.047-5.348-7.456-10.333-7.448
		c-15.791,0.026-17.873-7.986-13.483-21.145c5.265-15.784,15.657-25.911,31.198-31.133c6.359-2.137,12.726-4.247,20.248-6.755
		c-7.087-8.161-16.229-6.899-23.941-8.83c-23.646-5.924-45.458-14.517-59.397-36.185c-3.067-4.768-8.47-12.138-4.855-15.299
		c19.45-17.004-4.183-24.554-7.071-36.406c-1.246-5.116-8.92-9.3-4.663-14.875c3.42-4.48,9.56-0.286,14.469,0.113
		c8.784,0.715,17.792,6.556,24.771-5.688c2.559-4.488,11.837-1.692,17.828-0.159c23.923,6.121,43.318,19.101,58.086,39.018
		c3.956,5.336,6.195,12.166,14.027,16.335c-0.297-11.268-5.888-19.732-9.257-28.756c-8.84-23.679-10.737-47.431-1.628-71.43
		c1.555-4.096,3.468-11.429,7.642-9.963c27.945,9.813,19.671-17.669,28.457-27.225c2.718-2.956,2.762-8.369,4.405-13.922
		c13.589,8.13,18.936,20.78,23.152,34.234c1.6,5.107,1.403,12.024,10.498,7.394c10.568-5.38,14.014,2.273,16.755,10.385
		c8.408,24.883,6.11,49.126-4.221,72.935c-3.356,7.735-6.508,15.56-10.957,26.232c9.419-3.842,12.697-10.431,16.686-15.739
		c15.567-20.718,35.444-34.934,60.744-41.009c7.47-1.794,14.198-3.866,20.906,4.927c6.975,9.142,16.361-1.16,24.795-1.736
		c3.708-0.253,7.666-4.449,10.988-0.696c3.005,3.394,0.174,7.763-1.203,11.093c-3.235,7.823-6.363,16.082-11.493,22.63
		c-6.317,8.063-12.896,13.435,0.85,21.264c6.392,3.641,1.249,11.463-2.089,16.618c-13.892,21.456-35.798,28.526-59.352,32.025
		c-12.157,1.806-24.466,2.589-37.174,6.564c10.345,3.627,20.776,7.027,31.016,10.93c19.548,7.451,31.522,21.572,35.745,42.08
		c2.031,9.866,6.3,20.302-9.151,24.239c-7.833,1.996-1.794,6.826-0.521,10.526c2.707,7.87,9.375,18.39,4.203,23.573
		c-6.58,6.594-17.111-0.433-25.044-4.116c-8.145-3.782-14.497-6.268-24.657-3.371c-13.72,3.912-26.08-5.31-36.571-14.303
		c-12.814-10.985-20.484-25.342-26.091-41.152c-1.918-5.408-1.55-15.029-8.703-14.786c-7.195,0.244-6.34,9.541-7.755,15.296
		c-7.507,30.558-17.192,51.292-36.131,75.689c68.354,44.495,120.653,100.406,128.506,188.048
		c8.677-16.763,22.886-28.161,32.302-43.163c5.015-7.99,10.252-16.485,7.717-27.049c-0.79-3.292-5.237-7.52,0.561-10.163
		c4.021-1.832,7.519,1.12,11.056,2.896c8.616,4.327,10.748,12.527,12.823,22.86c14.764-11.297,32.365-13.487,47.81-21.288
		c35.596-17.977,46.828-37.543,42.047-75.124c31.879,15.507,40.379,60.136,31.791,99.129
		c-11.639,52.837-42.831,76.836-112.949,84.498c18.413,7.294,35.65,13.08,38.155,33.691c1.469,12.091-2.915,22.105-13.311,31.19
		c-6.163-22.324-22.863-28.597-42.62-27.495c-24.493,1.366-44.263,13.242-53.768,35.889c-16.7,39.789-15.74,81.878-10.904,123.9
		c0.488,4.24,2.967,8.742,5.723,12.15c19.865,24.556,44.422,44.741,63.152,70.392c1.57-0.44,3.139-0.88,4.709-1.32
		c0-18.359-0.487-36.735,0.113-55.075c0.926-28.317-1.533-56.73,2.229-84.949c0.788-5.913,0.573-14.642,7.326-15.419
		c6.469-0.745,5.986,8.187,8.14,13.031c3.375,7.593,6.286,15.393,10.823,26.654c13.867-31.018,25.052-60.014,53.151-76.641
		c6.793-4.02,13-9.161,22.123-10.036c2.797,10.688-6.701,17.376-9.355,28.94c53.703-21.54,105.221-29.369,155.379,14.244
		c-59.267-2.246-107.697,16.706-152.196,48.22c6.439-0.553,12.91-1.817,19.311-1.528c19.727,0.891,36.107,15.8,38.667,34.491
		c1.473,10.75-0.051,16.389-13.53,11.933c-30.604-10.12-61.933,1.479-81.928,29.065c-12.685,17.501-18.99,37.372-19.857,58.758
		c-0.55,13.563-0.424,27.266,0.864,40.767c2.033,21.308,5.298,42.499,8.364,66.239c26.795-17.93,53.482-20.977,80.927-6.297
		c3.985,2.132,7.859,4.526,11.562,7.116c3.247,2.272,6.818,5.041,5.539,9.559c-1.181,4.172-5.644,2.724-8.727,3.453
		c-21.974,5.193-38.61,18.447-46.889,38.596c-23.199,56.455-69.015,87.508-122.014,109.226
		c-50.963,20.883-93.334,52.797-132.064,91.1c1.031,0.864,1.896,2.018,2.307,1.874c72.796-25.43,145.18-51.738,212.56-90.084
		c32.292-18.378,52.239-43.061,48.49-82.228c-0.216-2.255,0.241-4.672-0.407-6.77c-2.315-7.503-7.104-16.483,4.094-19.757
		c11.546-3.376,19.404,3.993,24.121,14.024c3.73,7.933,2.752,16.643,2.61,25.151c-0.043,2.599-1.084,5.69,3.925,8.409
		c18.939-31.209,32.311-67.564,69.857-84.077c-11.413-1.706-21.542,2.699-31.384-0.849c-10.092-3.639-21.764-6.732-12.762-22.047
		c4.097-6.97-2.899-10.063-6.635-13.699c-8.838-8.604-11.949-12.761,4.067-18.25c23.706-8.123,44.174-0.811,67.277,9.182
		c-2.4-11.712-10.103-15.167-15.315-20.375c-14.269-14.259-27.011-29.254-28.26-50.711c-0.297-5.105-1.44-12.999,2.655-14.303
		c19.828-6.312,13.276-22.961,14.864-35.868c1.455-11.831,5.842-10.033,12.851-4.975c10.425,7.524,19.723,14.769,34.073,17.549
		c17.407,3.372,26.349,20.773,28.189,38.836c1.307,12.835,0.253,25.91,0.253,40.521c12.198-4.53,12.038-14.372,13.889-22.373
		c4.343-18.765,6.027-38.829,18.707-54.095c8.605-10.361,16.537-29.645,35.842-11.76c3.986,3.693,6.656-2.184,9.379-4.616
		c7.607-6.795,15.144-13.67,22.682-20.542c5.901-5.38,9.995-4.777,11.466,3.581c0.982,5.579,1.86,11.199,2.326,16.839
		c0.639,7.726-3.206,17.237,11.165,17.07c5.825-0.068,5.325,7.946,5.428,12.791c0.407,19.009-9.501,33.618-22.028,46.299
		c-12.672,12.828-26.513,24.504-42.487,39.102c17.088-3.209,28.805-10.93,41.391-16.128c21.76-8.988,43.708-16.206,67.669-11.369
		c6.404,1.293,14.242,1.578,12.503,11.972c-1.256,7.515,5.191,5.908,9.07,6.724c10.429,2.191,20.935,4.021,33.714,6.428
		c-9.524,13.935-22.01,20.13-33.752,27.021c-5.784,3.394-9.316,5.763-3.207,12.43c7.72,8.423,1.055,13.24-5.902,16.872
		c-20.862,10.893-42.837,8.436-64.865,4.946c-16.856-2.67-32.95-9.889-51.141-7.103c16.799,7.523,33.73,14.768,50.36,22.649
		c16.654,7.893,31.615,18.293,40.334,35.116c3.854,7.436,10.79,16.77-3.371,22.101c-4.06,1.529-2.693,3.959-1.106,6.552
		c1.474,2.408,3.092,4.826,4.001,7.462c2.321,6.729,9.163,14.481,3.702,20.363c-4.896,5.273-12.491-1.334-18.658-3.37
		c-5.576-1.841-10.045-6.572-15.811,1.173c-3.46,4.648-10.6,1.804-16.058,0.371c-23.183-6.085-39.982-20.577-52.845-40.242
		c-6.151-9.405-12.366-18.768-20.737-31.464c-0.137,13.961,5.314,22.053,8.175,30.736c5.192,15.76,5.827,31.281-1.074,46.431
		c-3.328,7.307-5.711,16.2-18.24,12.81c-8.195-2.217-7.412,8.187-11.309,12.354c-4.156,4.444-6.614,12.422-13.336,11.756
		c-6.76-0.669-5.032-9.02-7.131-13.936c-2.836-6.641-1.969-13.33-14.881-12.686c-14.113,0.704-13.378-14.873-13.166-26.221
		c0.067-3.616,3.877-8.086-1.163-10.556c-4.301-2.108-7.371,1.584-10.188,4.331c-28.664,27.954-64.011,42.468-102.536,49.756
		c-16.139,3.053-27.295,10.461-36.264,24.5c-16.926,26.493-32.22,54.413-59.871,76.562c42.629,2.807,80.27-4.118,115.759-19.823
		c40.399-17.878,79.393-38.926,119.738-56.935c52.987-23.652,108.837-24.935,165.224-16.56
		c91.732,13.624,176.516,44.635,251.79,100.152c31.885,23.516,64.196,46.683,102.374,59.859
		c21.807,7.526,43.936,10.741,66.862,9.537c6.921-0.364,13.527-1.75,19.47-5.34c5.332-3.221,11.315-6.418,11.069-13.82
		c-0.273-8.23-7.264-9.056-13.24-10.729c-1.092-0.306-2.187-0.604-3.277-0.914c-39.219-11.149-60.726-37.03-57.49-69.179
		c3.731-37.059,35.604-67.785,73.558-70.91c54.306-4.471,92.94,37.16,78.835,84.676c-6.271,21.123-21.699,32.302-46.119,40.913
		c25.916,6.94,47.062,14.664,68.28,1.139c35.94-22.908,73.38-42.693,112.586-59.497c24.013-10.292,33.048-37.912,21.902-61.077
		c-3.273-6.803-5.769-13.517-4.068-21.216c1.226-5.548,1.65-12.275,7.249-14.63c7.553-3.177,8.38,5.42,12.084,8.975
		c4.149,3.98,7.517,11.988,13.346,1.048c15.493-29.076,37.843-40.274,72.486-36.563c6.552,0.702,13.51,0.531,22.292,6.609
		c-8.119,2.225-14.068,3.858-20.019,5.486c-31.824,8.708-41.825,22.552-39.878,55.204c1.814,30.415,1.823,30.688,31.032,29.76
		c22.777-0.723,45.125,2.758,69.554,6.313c-7.154-10.923-13.633-20.366-16.682-31.674c-2.724-10.107,0.118-12.776,9.782-9.758
		c3.232,1.009,6.792,1.037,9.952,2.193c14.791,5.411,26.611,3.061,40.568-6.388c34.202-23.156,69.819-15.79,108.685,3.122
		c-13.649,2.016-24.728,0.99-31.213,11.073c-6.015,9.352-9.124,19.458-10.073,30.325c-2.898,33.156,7.711,55.877,31.433,67.683
		c23.926,11.907,51.171,13.082,85.323,2.488c-13.292-3.764-24.869-4.682-33.845-11.599c-4.903-3.779-10.365-7.474-13.708-12.459
		c-3.402-5.073-5.012-12.304-0.523-17.603c5.799-6.845,10.26,0.576,14.157,3.399c18.508,13.409,40.154,19.54,61.74,22.814
		c75.594,11.464,123.021,53.361,142.682,127.032c7.695-1.255,6.015-7.9,7.519-12.04c20.094-55.307,54.857-94.317,114.881-107.103
		c31.443-6.698,63.54-11.793,90.468-32.246c8.994-6.831,12.421,1.242,11.24,9.04c-2.57,16.973-16.05,23.701-30.19,28.837
		c-5.193,1.886-11.081,1.86-16.951,2.751c22.258,16.901,74.126,11.584,97.178-9.663c19.158-17.658,23.654-60.237,9.785-84.224
		c-6.397-11.065-16.025-15.053-31.929-15.713c42.988-21.811,80.961-24.351,116.701,4.274c10.509,8.416,19.159,1.528,28.725,0.503
		c7.41-0.794,16.66-8.872,21.668-1.099c4.624,7.176-2.28,16.18-6.621,23.352c-3.161,5.222-7.796,9.552-13.053,15.8
		c30.903-5.604,60.429-8.037,90.122-4.174c6.416,0.834,9.715-1.294,10.036-7.903c0.136-2.819,0.742-5.616,1.15-8.42
		c7.35-50.614,0.205-61.143-49.989-73.804c-1.496-0.377-2.827-1.41-4.428-2.237c31.333-18.063,77.817-2.794,91.402,29.625
		c1.429,3.411,0.904,9.031,6.044,9.083c4.355,0.045,5.473-5.146,8.028-8.022c3.21-3.613,4.161-11.535,10.022-9.902
		c6.265,1.746,7.912,8.996,8.918,15.354c1.113,7.029-0.714,13.341-3.797,19.651c-11.708,23.96-3.468,52.205,21.045,62.799
		c40.261,17.401,78.107,38.698,114.811,62.509c20.16,13.078,40.467,1.802,60.602-1.606c0.11-4.878-3.389-4.781-5.51-5.77
		c-28.748-13.401-41.238-32.3-38.985-59.279c2.365-28.324,21.11-51.348,49.406-58.236c31.39-7.64,59.76-0.567,83.331,21.958
		c18.976,18.135,27.625,40.841,21.1,66.479c-6.581,25.857-26.149,40.131-50.967,47.715c-8.111,2.479-21.039,0.475-20.221,13.153
		c0.782,12.112,12.905,15.197,22.9,16.683c47.174,7.015,88.343-9.594,126.418-35.01c48.523-32.39,94.37-69.152,148.963-91.484
		c77.898-31.865,158.07-52.741,243.262-46.438c40.924,3.028,77.858,18.739,114.167,36.687
		c45.141,22.313,89.042,47.83,139.566,57.096c19.566,3.588,39.136,6.674,61.153,4.104c-29.071-22.541-43.355-54.767-63.317-82.797
		c-5.01-7.036-10.051-13.287-19.432-15.153c-44.575-8.866-86.197-24.22-120.001-56.224c-1.435-1.359-3.855-1.677-7.889-3.33
		c0,8.257,0.542,14.938-0.149,21.489c-0.727,6.902-3.659,16.566-10.198,15.941c-16.378-1.564-15.838,10.199-18.671,19.579
		c-3.333,11.035-7.668,10.869-14.247,2.373c-6.978-9.01-8.87-23.794-26.4-21.092c-4.585,0.706-7.344-7.915-9.192-13.246
		c-6.013-17.347-4.863-34.587,1.496-51.614c2.334-6.249,4.802-12.447,5.823-19.521c-10.265,7.025-15.288,18.071-21.882,27.75
		c-12.515,18.367-28.158,32.541-50,38.634c-6.804,1.898-12.903,4.443-20.257-2.078c-6.821-6.049-14.016,3.751-21.49,4.713
		c-3.695,0.475-7.556,4.326-11.001,0.588c-3.174-3.444-0.769-7.6,0.537-11.197c1.735-4.777,4.065-9.336,6.058-14.023
		c1.533-3.605,3.91-7.427-1.266-10.181c-12.264-6.524-6.639-15.537-2.356-23.141c10.506-18.651,27.785-29.434,46.947-37.499
		c14.998-6.313,30.108-12.359,45.169-18.524c-0.355-1.594-0.711-3.187-1.067-4.78c-12.55,2.642-25.148,5.083-37.642,7.97
		c-21.169,4.894-42.487,7.976-63.986,3.104c-18.858-4.273-21.387-8.529-17.08-26.739c1.458-6.166-3.528-6.404-6.39-8.155
		c-11.504-7.039-23.16-13.791-33.569-25.729c11.719-5.677,22.944-6.061,33.699-7.866c5.819-0.977,11.074-0.641,9.569-9.556
		c-1.298-7.688,5.585-8.783,11.2-9.812c19.036-3.487,37.297-0.099,54.865,7.189c18.548,7.695,36.864,15.949,56.937,21.313
		c-12.626-10.822-25.466-21.406-37.822-32.527c-14.224-12.801-24.944-27.903-27.656-47.47c-0.778-5.616-1.654-15.24,2.068-15.934
		c20.537-3.832,12.185-20.127,14.443-31.238c2.372-11.67,4.79-18.012,16.152-6.835c4.835,4.756,11.044,8.228,15.396,13.334
		c6.155,7.221,10.572,14.175,20.745,4.12c5.356-5.296,11.68,0.391,16.544,4.182c16.753,13.059,22.708,31.902,27.253,51.498
		c2.43,10.477,4.963,20.939,7.871,31.29c0.845,3.006,2.474,6.89,6.997,5.297c3.527-1.243,2.356-4.757,2.269-7.344
		c-0.422-12.467-1.252-24.893,2.072-37.194c6.369-23.581,14.657-29.652,39.911-34.559c7.323-1.423,13.326-9.841,19.84-15.167
		c8.241-6.739,14.83-9.99,14.872,5.581c0.017,6.201,1.098,12.4,1.731,18.597c0.378,3.701-1.207,8.382,4.274,9.747
		c16.325,4.066,12.867,16.05,10.858,27.279c-3.984,22.274-20.166,36.095-35.343,50.617c-2.365,2.263-4.206,5.071-6.438,7.81
		c5.958,4.491,10.673,1.154,14.695-0.866c18.204-9.141,36.095-6.353,54.54-0.663c10.122,3.123,12.35,6.518,4.465,14.46
		c-6.305,6.352-15.112,10.972-7.343,23.385c4.134,6.605-3.912,11.461-10.89,14.034c-10.978,4.049-22.077-0.398-34.26,1.643
		c34.139,20.23,49.381,55.11,69.135,88.228c6.282-8.353,2.719-15.187,3.222-21.48c0.726-9.063,0.436-18.304,7.803-25.252
		c4.74-4.471,9.934-7.884,16.764-5.087c6.946,2.843,8.195,8.161,7.101,15.279c-1.024,6.66-0.359,13.563-0.735,20.343
		c-1.604,28.904,11.158,50.204,34.753,65.693c58.322,38.288,122.701,63.339,188.2,85.926c11.773,4.06,23.512,8.217,35.313,12.194
		c0.83,0.279,2.039-0.569,4.938-1.479c-31.981-29.292-62.06-59.174-102.098-76.008c-35.602-14.969-70.539-31.122-100.934-55.57
		c-20.627-16.593-37.283-36.004-47.818-60.779c-11.307-26.59-30.77-44.362-60.219-49.381c11.588-28.595,52.174-34.362,98.668-13.475
		c4.57-34.905,13.002-69.052,10.813-104.301c-2.187-35.208-14.212-65.278-46.748-83.668c-18.042-10.199-36.981-14.948-56.981-6.651
		c-13.774,5.714-14.672-1.463-13.102-11.772c3.159-20.746,22.228-35.707,43.969-34.324c5.907,0.375,11.75,1.783,18.016,1.258
		c-44.707-31.944-93.969-49.652-149.166-48.805c14.413-32.214,71.518-38.43,146.352-15.05c2.542-2.182,0.479-3.972-0.524-5.832
		c-3.583-6.65-12.922-14.511-6.243-20.458c5.572-4.961,13.93,4.067,20.446,8.005c21.254,12.847,34.792,32.004,43.844,54.751
		c2.473,6.214,5.598,12.168,9.137,19.777c7.814-8.81,8.704-18.612,12.36-27.118c1.635-3.804,0.82-10.445,6.861-10.008
		c5.09,0.368,5.804,6.261,7.314,10.431c3.551,9.813,3.301,20.077,3.312,30.279c0.04,38.47,0.016,76.939,3.186,116.647
		c21.411-31.134,60.958-47.233,70.249-85.089c9.253-37.699,6.037-76.772-5.792-114.232c-8.77-27.771-33.975-44.932-61.927-43.815
		c-20.695,0.826-29.351,6.479-39.265,25.639c-22.891-22.6-16.765-40.498,24.667-65.019c-65.321,2.237-101.299-29.97-112.69-89.569
		c-6.904-36.123-2.037-70.023,34.516-96.402c-7.809,22.953-3.632,40.702,9.441,56.064c12.511,14.702,29.167,23.149,47.216,28.977
		c10.208,3.296,20.814,5.536,30.473,15.461c3.877-14.896,10.304-25.322,27.469-26.704c-7.662,17.385-0.378,30.529,8.888,42.94
		c9.114,12.208,20.263,22.897,28.374,37.5c5.654-39.282,18.468-75.223,41.325-107.355c23.125-32.506,53.925-56.309,87.919-79.266
		c-23.026-22.345-31.667-51.402-38.678-81.269c-0.926-3.946-0.5-10.297-6.479-10.333c-5.399-0.032-6.545,5.583-7.836,9.836
		c-6.974,22.952-17.784,43.141-40.399,54.243c-10.035,4.926-20.469,11.156-31.856,3.04c-3.862-2.753-6.101,0.196-9.033,1.609
		c-6.107,2.943-12.205,6.068-18.621,8.152c-4.498,1.46-9.832,5.795-14.073,1.614c-3.49-3.44,0.162-8.541,0.941-12.852
		c1.805-9.989,12.694-21.326-5.55-27.973c-3.723-1.356-2.48-8.242-1.725-12.759c4.074-24.349,16.541-41.85,40.75-49.681
		c9.489-3.07,19.005-6.056,28.438-12.565c-12.445-1.243-24.914-2.283-37.329-3.774c-22.597-2.714-43.276-9.9-57.89-28.497
		c-6.148-7.824-11.509-16.869,2.11-23.533c8.146-3.985,3.2-7.77-0.251-11.462c-8.717-9.328-14.018-20.549-17.908-32.499
		c-1.3-3.993-4.026-10.639,4.262-8.462c14.301,3.755,26.357,3.184,41.767-0.685c20.233-5.08,41.161,9.132,56.823,25.109
		c9.448,9.638,18.008,20.147,28.613,32.124c1.677-11.184-3.752-17.873-7.075-24.866c-11.438-24.073-14.911-48.655-5.787-74.207
		c2.26-6.33,5.227-15.558,13.143-12.55c12.555,4.772,13.507-1.628,16.303-10.677c3.473-11.245,9.163-21.792,20.355-28.891
		c3.783,9.625,6.997,18.501,10.748,27.143c3.633,8.372,4.07,20.876,19.788,12.627c6.013-3.156,9.06,5.286,11.008,10.387
		c8.701,22.785,7.03,45.627-0.705,68.262c-3.411,9.983-7.39,19.773-9.347,30.472c8.794-10.032,17.171-20.471,26.487-29.992
		c11.724-11.985,26.125-20.172,42.436-23.95c8.708-2.017,17.623-6.092,25.61,5.187c5.408,7.636,15.829-0.055,23.958-0.392
		c10.994-0.456,13.917,2.178,7.901,11.883c-3.874,6.25-7.033,13.225-12.023,18.426c-5.755,5.998-11.863,8.678-0.818,16.813
		c8.404,6.19,1.385,15.807-3.653,22.479c-15.982,21.167-39.182,29.927-63.837,35.931c-5.385,1.312-11.477,0.497-16.481,5.722
		c5.417,5.553,13.036,5.82,19.456,8.337c12.669,4.967,22.708,12.116,27.933,25.438c7.316,18.657,5.887,22.401-13.649,25.716
		c-5.846,0.992-7.799,2.996-7.564,8.516c0.396,9.29,0.423,20.483-9.957,22.838c-9.477,2.151-14.958-8.256-21.204-14.55
		c-2.293-2.311-2.603-6.465-8.177-7.526c1.682,14.948,11.773,22.591,22.108,30.164c37.956,27.81,76.104,55.367,110.46,87.726
		c42.457,39.988,79.698,83.781,102.135,138.518c0.776,1.894,1.966,3.617,5.208,9.485c1.342-14.646-2.062-23.932-5.157-33.182
		c-9.022-26.969-22.095-52.145-34.451-77.652c-13.447-27.759-24.739-56.24-22.017-88.006c2.934-34.245,16.374-63.024,48.366-78.768
		c33.529-16.501,67.407-13.516,99.091,5.791c19.582,11.932,29.986,30.422,31.299,53.646c1.978,34.948-29.813,60.233-63.373,50.341
		c-2.169-0.64-4.325-1.405-6.377-2.351c-18.359-8.464-26.663-27.238-19.185-43.261c6.637-14.223,20.075-15.703,43.623-3.755
		c-2.499-11.106-9.621-15.882-18.053-19.1c-40.16-15.327-82.194,18.149-76.191,60.494c3.101,21.873,14.236,40.44,23.893,59.677
		c15.517,30.912,35.73,61.778,35.754,96.528c0.042,61.839,5.351,123.005,11.375,184.327c1.579,16.066-1.354,32.465-10.028,51.106
		c17.396-11.852,32.159-14.649,47.157-4.539c3.724,2.51,7.883,5.825,7.028,10.822c-0.861,5.032-6.391,3.819-9.857,4.525
		c-9.496,1.936-17.01,6.706-21.948,14.766c-27.074,44.191-58.292,85.037-96.088,120.682c-1.896,1.788-3.039,4.375-6.375,9.324
		c26.346-3.051,49.706-5.171,71.187-16.078c3.427-1.74,6.011-5.077,9.177-7.415c3.63-2.68,0.92-12.189,9.068-9.386
		c6.215,2.138,9.455,7.898,10.766,14.343c2.937,14.441-4.516,23.93-15.625,31.224c-15.9,10.44-34.479,13.876-55.039,19.504
		c15.531,6.792,29.124,12.209,41.221,20.646c57.419,40.046,64.464,105.843,16.433,156.458c-17.489,18.43-37.84,34.521-47.68,59.124
		c-2.01,5.027-5.946,9.546-4.576,15.398c4.972,1.993,8.723-0.314,11.776-2.142c13.398-8.021,21.442-5.139,26.606,10.014
		c4.764,13.98,18.319,8.577,28.007,9.292c10.485,0.774,16.581,0.835,7.801,12.485c-1.578,2.093-2.186,5.265-2.378,8
		c-1.788,25.357-17.855,39.393-39.016,49.242c-21.728,10.113-44.966,15.426-68.149,20.88c-6.444,1.516-13.702,1.364-18.293,7.88
		c4.801,6.935,11.538,3.275,17.078,2.72c20.304-2.036,40.497-4.939,61.003-4.626c33.564,0.512,63.883,9.869,88.542,33.279
		c5.728,5.437,18.302,4.737,17.699,13.353c-0.619,8.843-13.327,6.313-19.357,11.173c-34.052,27.444-70.802,25.104-109.292,11.099
		c-16.751-6.095-33.936-11.721-54.842-14.313c7.51,9.548,15.986,11.35,23.465,14.439c22.01,9.089,44.187,17.837,64.926,29.622
		c19.052,10.826,35.173,24.911,44.913,45.074c2.576,5.332,6.907,10.874,0.072,16.749c-5.718,4.915,0.396,8.028,2.81,11.055
		c7.507,9.415,13.018,19.924,17.829,30.832c2.925,6.632,0.781,10.196-6.662,8.1c-7.072-1.992-13.976-4.664-20.813-7.391
		c-10.429-4.159-19.453-16.525-32.552-4.49c-1.478,1.357-7.264-1.751-10.954-3.063c-31.751-11.29-54.906-33.164-74.19-59.966
		c-11.061-15.372-22.612-30.39-35.28-47.36c-4.702,10.275-0.338,16.047,1.952,21.93c5.336,13.712,11.507,27.116,16.426,40.969
		c6.506,18.323,6.407,36.599-2.379,54.52c-2.969,6.056-5.41,12.545-6.922,19.106c-4.349,18.87-5.676,19.534-20.341,7.135
		c-4.315-3.648-8.715-7.439-12.087-11.91c-5.84-7.745-10.691-11.661-20.06-3.494c-9.504,8.285-17.771,2.755-24.198-6.052
		c-14.386-19.711-17.259-41.672-11.519-64.749c4.446-17.875,10.172-35.431,15.769-54.638c-9.387,3.497-10.606,10.904-13.99,16.36
		c-14.119,22.769-28.791,44.94-52.136,59.623c-14.743,9.272-19.758,8.386-25.302-7.144c-3.203-8.97-7.316-12.962-17.11-11.73
		c-9.485,1.194-13.393-1.858-12.685-13.494c1.061-17.438,9.317-30.74,21.062-46.057c-26.467,4.373-49.966,7.476-71.266,18.986
		c-10.134,5.477-20.225,11.554-19.597,25.246c0.624,13.586,12.104,16.841,21.9,20.734c12.181,4.842,24.275,9.131,32.989,19.896
		c17.347,21.43,19.032,57.819,3.498,86.868c-15.8,29.547-43.27,45.688-73.088,42.745c1.755-6.105,7.907-5.557,11.926-7.857
		c29.487-16.883,31.127-51.794,2.919-70.409c-15.938-10.518-34.413-17.321-45.147-35.019c-4.118-6.789-11.424-1.643-17.051,0.226
		c-54.977,18.262-110.737,33.476-168.423,40.002c-61.375,6.944-121.13,1.996-177.041-27.564
		c-15.524-8.208-31.707-15.203-48.791-19.705c-9.916-2.613-19.999-4.026-30.299-2.867c-24.276,2.731-29.25,10.573-20.731,34.051
		c-12.644,0.998-20.629-5.542-25.671-15.495c-5.505-10.867-0.974-20.5,15.951-37.512c-11.494-3.754-22.156,4.612-33.503,1.636
		c-4.049-1.063-5.005,3.516-6.066,6.77c-14.321,43.912-45.306,66.793-90.684,69.629c-50.097,3.131-85.659-20.438-109.631-63.234
		c-3.794-6.773-6.852-13.958-10.479-21.424c-36.947,61.558-92.069,81.269-162.898,59.209c-15.119-4.709-29.123-12.865-45.177-14.624
		c-3.684-0.404-6.979-1.462-6.751-5.811c0.216-4.121,3.87-5.021,7.148-6.128c15.683-5.295,31.866-7.927,48.297-9.374
		c26.125-2.3,51.739-6.875,75.608-18.349c5.186-2.493,13.533-4.304,8.812-13.02c-8.75-16.151-5.05-29.959,7.844-41.189
		c14.463-12.596,31.467-14.635,49.394-7.864c3.631,1.372,7.046,3.316,10.563,4.998c27.138-57.893,68.879-80.525,127.991-69.792
		c66.14,12.01,90.337,38.715,96.618,107.862c23.059-13.724,45.907-3.337,72.327,1.494c-27.844-21.553-46.22-46.808-66.029-70.618
		c-49.098-59.017-53.043-61.551-127.364-67.392c3.74-9.766,12.068-11.694,20.05-13.202c44.003-8.314,84.495-0.713,120.284,27.354
		c2.595,2.036,4.782,5.001,9.155,4.27c2.771-15.263-2.837-27.66-13.794-37.745c-8.325-7.662-16.493-16.228-26.308-21.403
		c-33.7-17.767-39.49-48-36.001-80.982c1.923-18.173-3.548-16.002-16.615-12.204c-37.576,10.923-67.436,31.589-88.55,64.673
		c-9.894,15.504-17.404,31.743-17.814,50.66c-0.108,4.973-1.448,10.113-3.211,14.805c-1.893,5.035-5.953,8.429-11.747,8.173
		c-5.425-0.24-7.763-4.522-9.053-8.9c-2.019-6.855-3.357-13.911-5.429-22.788c-29.029,27.596-55.427,55.369-79.604,85.247
		c-28.562,35.296-56.628,70.888-98.51,92.173c-73.109,37.154-148.985,40.133-226.614,18.72
		c-46.103-12.717-90.421-29.943-128.383-60.347c-1.074-0.861-2.75-0.969-6.404-2.171c7.499,13.306,17.983,23.247,17.128,37.751
		c-0.489,8.3,1.226,18.594-8.173,22.446c-9.512,3.899-13.435-5.761-18.556-11.436c-1.847-2.047-3.557-4.216-7.449-8.855
		c-3.393,22.257-8.378,41.376-28.122,51.419c-18.012,9.163-37.333,11.641-60.169,12.448c9.812-14.143,16.353-26.904,19.878-41.14
		c19.051-76.949-30.778-133.028-75.41-158.302c-13.163-7.454-28.142-8.123-42.792-9.844c-11.182-1.314-12.486,3.297-9.309,12.798
		c5.402,16.158,9.321,32.635,9.056,49.962c-0.316,20.649-7.449,38.834-18.896,55.495c-13.84,20.142-28.195,21.338-46.303,4.378
		c-2.436-2.281-4.93-4.499-8.691-7.925c-5.671,18.74-16.145,31.363-33.87,38.101c-17.412,6.618-34.371,2.665-51.875-0.823
		c5.294,25.818,15.365,31.028,38.683,21.566c3.917-1.589,7.608-7.143,12.07-3.411c4.906,4.104,3.439,10.458,2.058,15.966
		c-3.421,13.639-13.899,20.168-26.021,24.579c-28.891,10.515-56.92,6.23-84.344-5.598c-7.779-3.355-15.326-7.246-27.917-13.244
		c12.149,21.863,19.986,40.998,9.497,63.562c-13.775-16.275-17.644-9.348-21.915,5.793c-6.079,21.546-23.818,36.936-34.351,58.887
		c-12.654-20.328-28.835-36.656-35.84-58.165c-4.855-14.905-8.505-24.961-23.735-7.004c-9.576-22.671,0.273-41.041,8.568-60.979
		c-8.697-0.241-13.702,4.803-19.287,7.696c-29.508,15.288-60.094,19.835-92.132,9.595c-16.749-5.353-26.463-17.826-25.151-32.225
		c0.735-8.062,1.626-15.059,13.191-7.086c21.119,14.561,34.818,7.872,40.271-18.052c-55.093,7.149-66.507,2.282-87.285-37.281
		c-4.685,0.456-5.834,4.905-8.491,7.617c-13.679,13.961-28.139,14.273-41.067-0.243c-21.116-23.709-26.312-52.1-21.957-82.639
		c1.354-9.491,3.929-18.863,6.603-28.099c5.343-18.454,5.531-18.399-14.365-15.694c-80.605,10.959-136.663,104.732-108.442,181.083
		c3.542,9.583,9.062,17.866,15.783,26c-43.645,11.042-79.541-12.946-85.426-55.964c-6.52-0.278-7.194,6.369-10.956,9.307
		c-4.833,3.773-9.059,10.074-15.956,7.765c-7.507-2.514-8.189-10.252-8.991-16.991c-1.374-11.552-0.099-22.578,7.071-32.421
		c2.148-2.949,5.854-5.341,4.936-12.671c-29.006,24.306-61.516,39.484-95.528,51.322c-86.708,30.179-172.747,35.046-257.592-7.436
		c-38.726-19.39-66.938-49.9-92.438-83.617c-26.007-34.387-54.49-66.503-87.702-96.94c-2.196,8.528-3.809,15.897-6.047,23.071
		c-1.334,4.276-3.217,9.187-8.745,9.122c-5.631-0.067-9.535-3.864-11.26-8.958c-1.621-4.786-2.5-9.894-3.131-14.932
		c-6.901-55.075-60.728-109.463-115.492-117.065c-6.567-0.912-8.515,0.882-7.43,6.836c1.854,10.174,1.015,20.331,0.324,30.524
		c-1.51,22.279-9.73,40.156-30.201,51.777c-12.794,7.263-23.923,17.17-34.067,27.993c-9.377,10.005-12.884,21.649-11.233,37.652
		c32.392-29.479,69.3-39.052,109.797-37.056c11.41,0.563,22.496,2.969,32.465,8.948c2.423,1.453,4.735,3.653,3.901,6.804
		c-0.917,3.466-4.091,3.319-6.958,3.064c-50.316-4.476-84.328,20.766-112.915,59.092c-21.152,28.359-42.088,57.284-72.582,81.266
		c54.237-10.069,54.237-10.069,72.129-3.049c0.653-0.79,1.944-1.635,1.893-2.39c-5.701-84.467,76.741-112.789,138.262-104.892
		c38.838,4.985,68.741,22.876,81.384,62.224c3.087,9.608,6.791,7.296,13.34,3.951c15.318-7.826,30.947-6.045,45.716,1.73
		c16.148,8.501,24.385,27.953,16.15,43.319c-6.168,11.509-1.034,14.879,7.329,18.787c26.714,12.481,55.361,16.117,84.306,18.109
		c13.06,0.899,25.937,2.486,38.503,6.257c3.358,1.008,6.995,2.104,7.385,6.02c0.395,3.975-2.722,6.145-6.229,6.935
		c-27.585,6.215-52.516,20.852-81.303,23.837c-31.076,3.222-60.069-2.21-87.048-16.855c-20.048-10.884-35.068-26.905-38.401-51.971
		c-8.961,4.853-9.37,13.618-12.615,20.306c-31.494,64.909-110.284,86.825-166.619,46.203
		c-14.733-10.624-26.419-24.019-30.883-41.486c-3.224-12.614-9.174-16.776-21.54-16.641c-7.08,0.077-14.119-3.978-23.497-1.981
		c12.247,10.031,25.611,19.007,19.603,36.953c-3.986,11.904-14.26,14.883-27.172,18.332c2.001-10.366,11.121-18.861,2.424-27.677
		c-8.425-8.54-19.309-8.534-30.126-8.709c-17.477-0.283-34.278,4.237-48.889,12.783c-83.319,48.728-171.264,49.419-261.876,27.495
		c-36.36-8.797-72.733-17.531-107.954-30.225c-8.941-3.223-14.243-2.797-19.592,5.923c-6.411,10.449-18.108,15.155-28.345,21.125
		c-17.011,9.92-34.047,19.842-32.483,43.339c1.461,21.953,15.423,33.927,34.756,41.925c-20.023,4.018-37.94-1.552-52.445-14.408
		c-23.999-21.272-34.551-49.166-30.895-80.979c2.846-24.766,15.434-43.516,40.666-51.593c5.372-1.72,10.709-3.926,15.591-6.729
		c15.016-8.622,16.224-25.664,2.301-36.17c-22.247-16.786-49.407-18.021-80.224-25.221c14.077,16.3,21.32,30.565,21.025,48.27
		c-0.151,9.108-2.331,12.91-11.112,11.536c-10.091-1.579-14.83,2.414-18.441,12.09c-6.149,16.475-11.801,17.431-26.804,7.327
		c-19.26-12.971-32.708-31.187-45.115-50.291c-5.452-8.394-10.566-17.007-18.041-29.091c-0.817,18.753,6.913,30.493,10.772,43.19
		c7.463,24.551,10.691,48.823-2.2,72.605c-9.879,18.225-16.273,20.544-34.282,10.154c-7.787-4.492-9.941,0.856-13.846,4.391
		c-8.754,7.925-15.205,23.153-26.239,22.574c-13.201-0.693-6.463-18.321-12.294-27.528c-15.24-24.063-12.869-49.579-1.901-74.927
		c6.361-14.701,12.271-29.598,19.058-46.043c-11.177,1.534-13.376,8.826-17.158,13.964c-14.779,20.079-28.943,40.553-46.04,58.893
		c-14.772,15.847-33.164,25.355-52.538,33.656c-2.077,0.89-5.247,3.01-6.148,2.306c-20.391-15.938-32.664,7.594-49.193,9.982
		c-4.398,0.636-8.638,2.362-15.699,4.367c2.565-17.108,10.448-29.554,19.422-41.469c3.315-4.402,8.415-7.43,0.996-13.507
		c-5.157-4.224-0.861-10.658,1.461-15.601c8.999-19.156,23.976-32.752,41.71-43.591c23.332-14.26,48.979-23.56,73.911-34.403
		c5.435-2.364,12.317-2.707,16.119-10.759c-19.669,1.762-36.978,8.333-54.352,14.102c-23.398,7.768-46.497,13.742-71.558,7.492
		c-19.208-4.791-33.636-18.502-51.777-25.21c-7.094-2.623-3.322-6.172,1.426-10.646c46.604-43.914,102.299-46.106,160.836-36.346
		c0.559,0.094,1.122,0.27,1.679,0.255c5.25-0.137,13.53,4.6,14.85-2.306c1.396-7.302-8.032-5.551-12.827-7.064
		c-21.604-6.82-43.705-12.221-64.942-20.004c-23.889-8.755-39.185-23.544-46.369-51.174c-5.577-21.449,2.057-20.03,15.985-20.639
		c9.082-0.397,18.841-1.331,21.557-12.5c3.508-14.424,11.4-14.411,22.306-8.113c3.809,2.199,8.282,3.251,17.629,6.783
		c-9.382-22.344-17.627-40.103-31.724-54.783c-9.031-9.403-18.38-18.501-27.444-27.873c-49.678-51.359-26.609-114.548,14.753-147.04
		c12.092-9.499,26.04-15.872,40.31-23.084c-2.984-6.63-9.55-5.397-14.268-6.971c-13.457-4.491-27.241-8.27-38.724-16.979
		c-12.848-9.744-15.861-24.976-6.9-35.622c4.176-4.961,9.739-14.442,14.471,0.496c2.424,7.65,10.225,10.332,16.99,13.121
		c19.627,8.093,40.366,10.371,62.621,12.096c-2.49-10.153-9.441-15.335-15.392-20.728c-29.695-26.904-53.625-58.36-74.557-92.309
		c-8.982-14.568-17.992-28.401-37.516-31.622c-10.019-1.653-3.494-8.494,0.362-11.583c15.501-12.418,31.419-9.698,50.113,2.344
		c-18.086-40.236-10.265-77.86-2.736-115.596c4.01-20.101,6.306-40.795,3.173-60.942c-8.484-54.57,8.133-103.039,33.109-149.951
		c9.579-17.992,20.367-35.496,25.513-55.48c12.003-46.617-23.738-82.697-70.797-71.661c-13.013,3.052-15.865,5.554-22.662,19.903
		c2.494,2.477,4.13-0.008,5.509-1.288c10.634-9.859,22.023-11.862,33.486-2.144c9.983,8.463,9.972,24.71,0.904,37.28
		c-9.967,13.817-30.894,20.71-48.84,16.087c-18.631-4.799-33.559-22.906-35.633-43.221c-2.662-26.066,12.024-52.385,37.63-65.174
		c35.061-17.512,71.044-18.408,103.521,3.989c33.736,23.266,42.111,59.076,37.211,98.087c-3.883,30.912-18.693,58.046-32.185,85.527
		c-13.219,26.927-26.151,53.963-30.378,84.019c3.515,1.888,4.553-0.618,5.256-2.299c30.228-72.284,83.088-126.275,141.713-175.637
		c2.897-2.439,6.99-3.921,7.662-8.431L280.552,1709.041z M3473.006,2576.295c-1.397-26.649,6.437-49.108,30.591-64.163
		c-24.984,6.69-32.519,15.629-32.847,38.717c-0.119,8.375,1.555,16.776,2.411,25.166c5.276,25.456,30.711,33.606,44.706,51.651
		c4.088,5.272,6.57-1.052,7.636-4.546c10.95-35.894,30.689-65.083,64.188-84.319c-36.951,3.604-72.597,9.081-93.103,45.076
		c-5.536,9.717-10.287,8.625-16.354,0.985C3477.927,2581.958,3478.112,2576.826,3473.006,2576.295z M4179.063,1724.786
		c13.74,9.363,8.643,15.339-1.396,22.253c-21.507,14.814-41.611,31.57-60.258,49.779c-25.793,25.189-42.172,55.931-49.747,91.782
		c12.164-14.271,25.396-24.586,46.814-21.109c-7.357,12.071-14.948,22.56-20.503,34.034c-12.822,26.482-15.756,55.439-18.693,84.209
		c-5.032,49.294-9.641,98.63-14.44,148.08c7.779,0.632,11.271-7.136,18.623-3.395c-7.387,32.542-19.272,64.434-21.898,98.268
		c6.092-15.291,9.019-31.511,16.897-46.159c26.836-49.895,63.337-58.725,108.201-26.029c25.122,18.308,53.253,22.335,82.441,13.453
		c38.375-11.677,53.344-47.389,36.569-83.906c-8.409-18.307-29.437-27.622-51.769-22.935c-19.682,4.131-31.615,17.121-31.514,34.561
		c0.064,10.898,3.404,20.429,14.091,25.084c9.719,4.235,17.553-0.385,24.372-7.185c3.984-3.974,7.725-9.47,14.284-5.733
		c6.177,3.519,6.849,10.03,6.416,16.479c-0.557,8.28-4.118,15.173-10.013,20.985c-17.018,16.776-37.475,18.764-58.357,10.873
		c-37.712-14.251-63.812-40.577-74.913-79.979c-15.431-54.777,10.346-127.057,56.327-161.224
		c27.521-20.449,57.896-27.648,91.489-22.1c6.199,1.024,12.317,2.548,22.377,4.662c-20.667-19.763-41.308-28.543-65.528-29.385
		c-16.516-0.574-32.816,1.482-49.181,3.04c-4.76,0.453-11.262,2.8-13.371-3.622c-1.792-5.457,3.048-9.521,7.032-12.565
		c7.002-5.351,14.475-10.086,22.481-15.58c-31.338-4.484-42.961-21.913-31.718-47.76c6.129,8.935,14.686,12.737,24.776,13.227
		c41.924,2.035,73.511,23.882,101.347,52.881c5.142,5.357,10.069,10.92,15.095,16.388
		C4287.161,1810.525,4234.818,1766.94,4179.063,1724.786z M297.736,1843.673c9.243,5.765,17.132,10.156,24.385,15.424
		c3.885,2.822,8.993,6.589,5.948,12.525c-2.461,4.799-7.929,3.529-12.303,3.313c-19.816-0.978-39.618-3.022-59.471-1.263
		c-20.609,1.826-38.818,8.808-52.446,25.606c17.401-4.624,34.689-6.034,52.258-3.367c59.747,9.069,103.942,56.907,115.165,124.697
		c10.058,60.751-18.352,112.736-74.393,136.123c-28.73,11.99-61.555,0.366-70.464-24.987c-2.585-7.357-3.155-14.754,3.076-20.522
		c6.917-6.403,11.044,0.716,15.77,4.12c8.318,5.992,16.566,13.313,27.605,6.747c11.826-7.034,11.653-18.935,9.675-30.271
		c-2.92-16.734-14.789-24.956-30.674-27.383c-26.092-3.987-45.037,6.871-52.71,29.478c-9.462,27.882-1.115,54.341,21.126,66.967
		c34.787,19.749,77.304,15.264,107.43-11.33c28.217-24.909,52.899-24.235,80.104,2.254c12.835,12.498,21.926,27.359,27.592,44.333
		c2.647,7.929,5.268,15.868,7.901,23.802c-1.684-32.148-12.702-62.225-20.178-93.146c7.675-2.203,11.078,6.477,17.903,2.792
		c-2.065-27.426-2.659-55.267-6.529-82.644c-8.659-61.272-0.952-126.703-45.873-181.553c11.45-0.738,19.451,2.655,27.624,6.105
		c8.36,3.529,12.547,12.07,22.581,19.161c-2.631-9.271-4.132-15.164-5.972-20.95c-17.37-54.614-58.503-89.28-102.912-120.617
		c-12.582-8.878-20.59-15.163-3.868-28.15c-56.013,42.063-106.375,87.723-140.566,153.148c10.899-5.312,15.237-12.112,20.751-17.574
		c22.118-21.91,46.795-39.763,77.908-46.079c16.737-3.398,35.066-1.071,47.155-19.59
		C339.775,1823.781,331.91,1835.417,297.736,1843.673z M3907.791,2646.669c-38.057-0.958-73.523-8.425-109.18-14.408
		c-11.13-1.867-22.091-4.966-32.946-8.129c-3.163-0.921-10.461-3.561-6.712-7.077c15.297-14.347-3.361-12.923-7.593-15.904
		c-15.809-11.138-33.679-18.588-51.938-24.879c-24.74-8.523-49.704-10.965-74.904-1.763c-30.27,11.051-52.669,43.97-48.895,74.428
		c10.503-11.803,22.477-20.65,37.439-18.46c49.273,7.21,94.738,24.054,129.017,61.855c15.961,17.601,22.032,39.722,11.887,63.247
		c-7.201,16.697-24.677,24.164-44.114,19.768c-15.769-3.567-24.587-12.156-19.047-31.587c-12.72,7.451-16.896,16.427-16.506,28.167
		c0.722,21.724,14.723,37.351,41.615,45.268c70.955,20.891,170.856-26.798,181.141-116.797
		C3899.085,2682.623,3897.033,2664.055,3907.791,2646.669z M924.621,2644.524c2.186-51.368-38.258-85.287-90.497-79.463
		c-34.143,3.806-63.285,20.229-92.339,36.829c-2.394,1.368-6.222,3.462-3.853,6.137c12.934,14.606-4.469,11.945-8.506,13.134
		c-34.877,10.281-71.018,13.925-106.933,18.563c-23.531,3.039-23.468,2.71-20.86,24.851c1.059,8.99,1.185,18.095,2.37,27.065
		c10.121,76.605,73.356,130.487,150.505,127.901c20.063-0.673,39.44-4.889,55.343-18.425c20.327-17.302,20.928-41.024,1.735-57.823
		c-1.637,26.541-26.487,39.673-50.459,26.505c-14.551-7.993-19.837-21.532-19.536-37.059c0.481-24.904,12.686-44.238,31.547-59.526
		c24.593-19.935,53.158-32.141,83.177-41.193C879.919,2624.902,903.144,2621.639,924.621,2644.524z M1353.977,2678.428
		c24.723,20.213,53.328,33.444,83.635,43.033c111.416,35.251,220.351,19.894,328.644-15.501
		c53.673-17.543,98.329-54.108,152.549-70.099c4.411-1.301,5.047-3.846,2.036-7.379c-17.652-20.712-34.662-41.683-62.455-50.407
		c-80.181-25.17-152.115-10.7-219.607,39.087C1553.808,2679.841,1460.763,2710.657,1353.977,2678.428z M3146.53,2685.448
		c-2.571-0.864-3.649-1.638-4.521-1.45c-4.419,0.952-8.757,2.271-13.171,3.25c-45.895,10.175-91.809,14.523-137.759,0.29
		c-50.726-15.712-97.878-38.008-140.532-70.394c-56.345-42.782-119.928-56.475-189.579-42.186
		c-38.543,7.907-64.833,31.429-86.813,63.65c28.898,4.928,52.229,19.223,75.961,32.382c112.736,62.51,232.416,87.604,360.477,66.883
		C3059.1,2730.024,3104.533,2713.72,3146.53,2685.448z M4165.681,2420.214c17.404-16.235,37.201-24.005,60.74-17.713
		c9.242,2.47,16.827,7.931,16.179,19.004c-0.642,10.974-9.78,11.712-17.544,11.91c-31.316,0.802-47.121,21.43-59.807,45.991
		c-13.401,25.945-11.741,53.874-9.261,81.622c4.027,45.045,14.226,59.084,56.292,79.462c-1.92-7.886-8.491-11.952-12.867-17.59
		c-15.204-19.591-19.446-41.678-14.693-65.685c1.235-6.241,3.972-14.591,10.493-13.716c14.451,1.939,15.744-8.39,20.279-17.019
		c11.139-21.194,22.405-21.51,35.585-1.289c2.76,4.236,4.615,9.053,7.002,13.542c1.255,2.362,1.786,6.201,5.391,5.576
		c20.962-3.636,17.755,12.994,19.024,23.934c1.913,16.504-2.691,32.591-7.009,48.495c-1.044,3.846-3.901,7.893,0.901,13.692
		c23.657-34.009,42.913-68.912,58.348-105.995c3.366-8.086-1.123-9.601-7.762-10.585c-18.137-2.688-35.518-8.081-50.521-18.835
		c-20.722-14.853-26.747-35.952-22.163-60.111c3.422-18.036,13.927-31.209,32.16-35.992c22.54-5.912,35.238,10.76,52.688,22.033
		c-6.566,3.677-9.455,1.96-12.137-0.104c-4.888-3.763-9.476-4.432-12.463,1.877c-3.023,6.385-2.218,12.301,4.647,15.9
		c4.707,2.467,9.835,2.112,14.97,1.313c23.733-3.69,41.266-23.498,42.526-48.157c1.345-26.323-10.618-42.129-37.143-49.072
		C4280.56,2327.266,4196.004,2364.119,4165.681,2420.214z M288.825,2633.563c37.163-17.02,61.237-42.544,58.558-85.841
		c-0.839-13.556,0.528-27.283-0.781-40.77c-3.953-40.748-34.485-75.344-68.406-78.152c-8.619-0.714-18.527,0.377-18.809-11.681
		c-0.244-10.407,7.294-16.639,16.631-18.981c17.38-4.359,33.642-0.87,48.572,9.219c3.573,2.414,6.068,7.9,12.489,6.181
		c-32.461-53.969-112.705-87.707-172.202-73.063c-23.011,5.664-35.985,19.153-38.441,39.969
		c-2.705,22.928,8.187,42.576,29.449,52.606c8.249,3.891,16.826,7.421,26.183,4.59c8.361-2.53,9.776-8.845,7.081-16.243
		c-2.949-8.097-7.972-8.517-14.318-3.239c-2.522,2.097-5.411,4.534-9.65,0.699c3.209-9.397,12.747-11.58,19.802-16.335
		c34.073-22.964,65.462,10.622,64.618,38.743c-0.797,26.533-11.718,45.647-35.199,57.484c-11.162,5.627-22.944,10.301-35.416,11.525
		c-14.482,1.422-15.106,8.093-9.637,19.228c9.24,18.811,17.197,38.286,28.959,55.769c8.989,13.362,14.707,29.078,27.951,40.599
		c2.828-8.346-1.599-14.299-3.072-20.603c-4.023-17.211-7.789-34.362-3.667-52.064c1.412-6.063,3.542-15.047,10.199-13.644
		c12.109,2.551,12.652-5.748,16.345-12.373c5.011-8.988,11.003-19.347,21.803-19.581c11.457-0.248,15.751,11.323,20.52,20.275
		c2.245,4.213,1.941,10.314,9.421,9.908c15.379-0.835,18.964,10.048,20.325,22.008c2.419,21.239-3.413,40.4-16.217,57.425
		C297.722,2622.796,293.198,2628.122,288.825,2633.563z M644.63,2854.479c-5.419-6.2-7.05-8.44-9.042-10.293
		c-40.918-38.063-67.532-83.354-71.067-140.333c-0.332-5.361-2.198-9.73-6.656-13.109c-47.805-36.229-98.524-66.929-157.892-80.035
		c-18.547-4.094-37.697-4.581-58.221,1.796c6.729,4.101,10.954,1.239,15.179,0.385c14.103-2.854,26.735,2.104,39.681,6.455
		c9.718,3.267,5.57,10.229,6.009,16.404c0.217,3.058,4.251,3.036,6.879,3.925c5.345,1.81,10.887,3.302,15.866,5.862
		c6.05,3.111,12.557,7.156,12.56,14.755c0.003,8.477-8.41,9.531-14.167,12.668c-5.087,2.771-13.927,0.561-14.812,8.766
		c-1.619,15.012-12.574,15.755-23.443,16.469c-14.878,0.978-29.205-3.146-43.683-5.735c-9.589-1.715-19.181-3.236-28.892-0.235
		c11.129,5.854,17.291,18.462,31.698,18.603c14.094,0.137,28.248,2.13,42.229,4.266c38.196,5.835,75.972,13.058,108.77,35.664
		c18.087,12.467,28.796,28.725,27.824,51.216c-0.328,7.599,1.486,12.868,8.794,16.398
		C566.558,2834.944,602.959,2844.742,644.63,2854.479z M3859.094,2855.539c37.526-6.898,72.945-18.203,106.949-33.831
		c5.663-2.603,11.289-5.2,10.93-13.262c-1.529-34.402,20.476-52.368,47.633-65.594c38.868-18.928,81.025-25.337,123.553-27.315
		c16.587-0.772,28.089-7.518,40.278-17.231c-8.17-5.932-16.058-3.509-23.775-2.556c-16.833,2.077-33.399,6.461-50.549,5.799
		c-8.702-0.336-19.481-0.965-21.88-9.653c-2.858-10.349-9.503-12.373-17.368-15.382c-5.569-2.13-12.495-3.889-12.626-11.91
		c-0.12-7.386,5.587-10.938,10.931-13.958c4.855-2.742,10.394-4.288,15.659-6.286c3.444-1.307,8.287-0.732,7.805-6.761
		c-0.938-11.719,8.328-13.135,16.282-16.013c13.328-4.821,27.27-3.18,41.004-4.543c-20.981-7.535-41.853-4.859-62.632,0.905
		c-53.786,14.92-100.955,42.429-144.978,76.043c-7.065,5.394-9.421,11.992-9.834,20.393c-1.336,27.192-10.665,51.828-24.218,75.213
		C3897.95,2814.285,3878.546,2834.692,3859.094,2855.539z M4243.675,2237.773c-5.135-0.814-9.935,4.004-15.594,6.018
		c-27.725,9.871-55.692,16.429-84.477,4.692c-13.958-5.691-24.289-15.036-24.194-31.59c0.084-14.826,9.103-22.371,22.536-25.894
		c3.195-0.839,7.331-1.609,6.431-6.105c-0.739-3.685-4.646-4.594-7.9-5.636c-13.663-4.376-28.911,2.36-37.258,19.68
		c-24.859,51.579-41.991,105.429-39.449,163.545c1.247,28.505,5.858,56.708,16.977,83.644c6.965-34.369,23.558-63.205,46.313-88.325
		c14.419-15.917,31.375-29.506,46.323-44.981C4197.293,2288.066,4220.481,2262.612,4243.675,2237.773z M255.506,2232.983
		c2.94,10.212,7.769,13.574,11.595,17.609c28.844,30.425,60.389,58.012,90.888,86.708c27.872,26.224,52.016,55.347,60.02,94.515
		c0.805,3.939-0.764,9.373,5.643,11.783c1.56-4.948,3.134-9.676,4.545-14.452c18.319-62.028,13.818-123.069-8.142-183.292
		c-6.393-17.531-12.243-35.349-20.022-52.263c-7.768-16.893-26.398-23.69-39.284-16.164c-2.929,1.711-6.396,3.729-6.108,7.46
		c0.238,3.083,3.731,3.965,6.491,4.355c13.672,1.936,21.389,9.636,22.578,23.404c1.286,14.897-6.761,24.691-18.729,31.657
		c-13.686,7.966-28.813,9.265-44.329,8.533C298.374,2251.785,278.011,2243.736,255.506,2232.983z M4039.128,2469.79
		c-23.83-97.057-49.188-192.011-29.607-294.041C3926.982,2230.229,3926.055,2409.643,4039.128,2469.79z M461.414,2466.143
		c69.573-42.918,96.2-100.703,90.636-190.623c-2.647-42.779-24.961-74.094-56.027-101.136c5.613,49.292,7.141,97.573-1.603,146.114
		C485.791,2368.395,478.588,2416.527,461.414,2466.143z M143.559,2032.821c64.54-53.725,159.297-27.94,172.132,52.324
		c21.841-18.038,28.161-55.142,14.51-85.176c-18.602-40.925-63.343-63.193-111.43-55.46
		C176.737,1951.268,149.097,1983.062,143.559,2032.821z M4188.369,2085.111c6.23-40.536,27.777-68.448,67.346-79.197
		c37.559-10.202,71.845-0.436,103.201,24.815c-2.563-46.381-30.83-79.931-71.924-88.199c-47.445-9.546-91.73,10.892-111.355,51.39
		C4159.98,2026.227,4165.087,2065.648,4188.369,2085.111z M1125.523,2740.577c-34.452-0.435-60.519,25.87-60.631,61.185
		c-0.099,31.414,20.897,54.269,50.356,54.814c33.469,0.62,64.661-30.729,65.012-65.339
		C1180.581,2759.583,1160.523,2741.019,1125.523,2740.577z M3434.25,2802.177c-0.141-32.464-27.058-59.514-59.458-59.751
		c-34.203-0.251-56.902,20.538-56.532,51.774c0.394,33.213,33.387,64.93,66.81,64.228
		C3413.374,2857.833,3434.388,2833.797,3434.25,2802.177z M2074.528,2649.447c-28.2-0.266-44.969,11.448-48.626,30.096
		c-4.765,24.294,25.166,54.549,49.59,50.273c4.274-0.748,5.071-3.68,5.961-7.018c4.077-15.274,14.417-23.722,29.592-26.582
		c10.289-1.938,11.133-7.596,6.776-15.74C2107.383,2660.965,2091.123,2650.636,2074.528,2649.447z M2430.499,2653.205
		c-21.247,0.072-39.19,11.581-49.226,30.447c-5.073,9.538-3.443,14.392,7.445,16.406c13.739,2.541,24.127,9.753,27.872,23.901
		c1.934,7.307,5.823,8.92,12.402,6.46c5.284-1.976,10.672-3.684,15.91-5.771c20.996-8.364,30.074-22.49,26.707-41.335
		C2468.235,2664.432,2452.802,2653.13,2430.499,2653.205z M2119.701,2727.448c35.354,11.739,45.466,25.657,42.983,57.553
		c-1.339,17.203-7.3,32.995-15.011,48.276c-3.102,6.146-9.484,10.702-10.14,18.564c27.557-0.72,52.49-17.917,59.709-40.521
		c8.913-27.905-2.887-62.778-27.084-80.04C2150.536,2717.282,2135.689,2715.827,2119.701,2727.448z M2377.984,2730.267
		c-15.496-12.64-26.726-12.035-46.544,1.585c-26.581,18.268-39.375,52.02-30.445,80.323c6.885,21.822,33.396,39.257,59.397,38.06
		c-8.003-14.725-16.905-28.446-21.28-44.26C2327.663,2764.578,2338.002,2743.495,2377.984,2730.267z M2953.746,2823.644
		c19.57-1.066,40.662-4.125,55.722-22.374c4.171-5.054,10.08-10.977,6.438-17.795c-3.337-6.25-11.141-4.302-17.15-3.727
		c-19.078,1.825-38.135,3.922-57.156,6.268c-12.831,1.582-25.957,2.224-37.856,8.068c-10.081,4.951-11.053,10.971-0.806,16.79
		C2917.945,2819.395,2934.26,2823.349,2953.746,2823.644z M1544.834,2819.808c16.037-0.242,30.082-2.129,43.226-7.845
		c5.937-2.582,14.454-4.62,14.001-12.816c-0.45-8.141-8.882-9.562-15.245-11.237c-30.274-7.966-61.563-8.854-92.463-12.242
		c-11.996-1.316-14.957,5.467-8.267,15.918C1500.27,2813.745,1522.798,2818.105,1544.834,2819.808z M978.463,2623.757
		c14.243-12.855,26.587-23.996,38.651-34.885c-17.789-11.96-24.083-33.512-44.294-41.125c-19.39-7.304-38.801-12.453-59.914-12.824
		C947.686,2554.309,966.15,2585.22,978.463,2623.757z M856.287,2660.074c-19.846,3.357-33.344,11.551-42.826,25.799
		c-9.52,14.304-7.877,17.64,8.877,20.094c26.329,3.856,52.062,8.557,57.334,44.196c9.579-35.184,1.786-57.753-25.618-73.455
		C842.942,2670.341,850.145,2666.492,856.287,2660.074z M3622.41,2755.541c1.838-26.315,5.813-31.694,28.498-40.827
		c9.515-3.831,19.177-7.05,29.593-6.952c13.016,0.123,12.538-6.101,7.372-15.01c-10.612-18.303-27.33-26.162-49.528-28.547
		c12.945,5.466,20.128,9.214,3.436,18.384C3617.205,2696.088,3609.49,2726.814,3622.41,2755.541z M3005.427,2555.34
		c-4.166,15.638-0.43,27.288,12.44,34.755c13.826,8.021,28.016,8.41,41.268-1.716c8.475-6.475,11.087-15.415,9.088-25.686
		c-1.822-9.362-6.202-17.106-15.601-20.656c-6.325-2.39-13.141-1.968-16.477,4.359c-4.633,8.787,4.161,8.445,8.753,10.173
		c4.848,1.823,7.846,4.521,7.205,9.898c-0.642,5.384-3.098,9.854-8.549,11.567c-10.89,3.424-19.856,0.336-27.257-8.336
		C3012.755,2565.545,3012.947,2558.876,3005.427,2555.34z M630.879,2499.034c-43.999,28.513-87.04,52.885-134.59,68.297
		C551.072,2566.297,598.474,2550.593,630.879,2499.034z M4006.35,2571.325c-46.463-15.635-89.567-38.514-133.48-65.957
		C3905.085,2558.032,3953.486,2569.491,4006.35,2571.325z M1489.131,2549.092c-8.374,12.189-15.283,26.652-33.771,21.936
		c-5.582-1.423-10.843-4.355-11.408-10.905c-0.429-4.977,2.92-8.689,7.283-10.401c5.524-2.167,13.658-2.235,7.488-11.411
		c-5.515-8.202-12.497-6.119-18.871-1.116c-10.531,8.266-13.12,28.897-5.401,40.296c7.966,11.765,27.418,14.972,43.033,7.094
		C1491.332,2577.599,1495.644,2565.13,1489.131,2549.092z M3702.616,2361.975c18.919,32.164,33.552,68.423,76.805,80.103
		C3758.68,2408.884,3737.08,2379.283,3702.616,2361.975z M1469.016,2802.885c-7.54-8.899-8.189-24.008-23.757-28.021
		c-11.908-3.069-24.669-3.716-35.346-10.936c-3.145-2.127-6.834-5.897-10.222-1.385c-2.876,3.83,0.516,7.396,2.89,10.564
		c15.155,20.231,36.848,29.113,60.4,34.742C1466.192,2808.618,1468.493,2807.757,1469.016,2802.885z M3099.44,2763.855
		c-12.12,3.063-21.214,11.357-33.373,12.04c-16.906,0.949-27.906,10.798-33.636,26.625c-0.876,2.42-4.286,4.958-1.313,7.232
		c1.812,1.385,5.409,1.441,7.872,0.807c19.331-4.977,37.766-11.983,52.012-26.743
		C3095.901,2778.741,3101.045,2773.285,3099.44,2763.855z M799.655,2358.213c-32.196,18.024-56.017,44.021-74.774,78.206
		C765.446,2423.223,781.701,2389.932,799.655,2358.213z M892.786,2787.312c20.319-24.837,28.615-53.799,28.031-85.002
		c-0.519-27.726-22.648-52.636-52.508-43.764c28.507,3.853,41.431,20.486,41.307,53.552
		C909.518,2738.35,902.322,2763.039,892.786,2787.312z M3627.343,2661.185c-32.359,2.843-47.404,18.361-48.008,46.107
		c-0.761,34.992,12.842,65.053,32.495,92.97c-10.766-26.027-21.051-52.237-21.819-80.823
		C3589.326,2693.927,3596.317,2672.27,3627.343,2661.185z M2521.717,2627.605c29.839,4.667,29.839,4.667,32.281-19.476
		C2543.81,2614.277,2534.023,2620.181,2521.717,2627.605z M1001.732,2510.602c17.861,11.7,23.934,29.518,26.891,49.097
		C1032.441,2529.129,1025.429,2516.153,1001.732,2510.602z M1944.344,2603.79c3.592,25.853,5.737,27.166,28.195,17.102
		C1962.979,2615.094,1953.909,2609.592,1944.344,2603.79z"/>
	<path d="M280.817,1708.76c-39.598-28.387-77.746-58.168-107.653-97.484c-36.925-48.542-52.112-102.077-43.357-162.796
		c4.613-31.997,9.908-63.831,16.305-95.487c2.31-11.43,1.425-16.584-13.056-17.618c-95.367-6.806-121.694-99.728-93.25-166.886
		c8.557-20.204,24.894-31.544,51.605-31.137c-9.248,9.039-17.931,15.022-22.077,24.738c-9.985,23.399-3.569,53.292,15.684,70.111
		c4.249,3.712,9.443,6.352,13.643,10.109c9.038,8.084,14.378,13.182,26.547-0.133c13.258-14.508,34.468-11.832,52.927-4.971
		c18.649,6.932,29.387,20.693,32.306,40.298c2.749,18.469-1.118,36.091-7.733,53.26c-4.212,10.933-8.418,21.867-11.127,33.736
		c22.062-27.843,49.093-50.058,74.487-73.976c12.719-11.98,15.734-27.233,7.742-43.597c-7.844-16.058-22.158-24.38-40.071-23.136
		c-5.564,0.386-11.071,1.59-16.803,2.449c5.246-22.848,16.188-28.697,50.581-27.447c-0.837-7.262-7.073-9.749-11.779-13.592
		c-4.721-3.854-9.333-7.842-14.637-12.313c42.272-13.998,85.14,16.388,91.443,66.194c36.263-32.327,74.668-59.707,96.614-107.821
		c-88.014,42.1-159.786,15.007-226.448-42.778c4.878,9.12,10.107,18.073,14.543,27.402c5.155,10.843,8.52,22.286,7.575,34.512
		c-0.513,6.638,0.636,14.634-6.436,18.229c-7.433,3.779-9.986-5.858-16.732-7.797c-7.18,18.645-16.421,35.657-42.055,31.039
		c31.55-44.565,10.015-113.596-15.936-145.795c1.551,32.002-20.209,42.433-43.909,51.06c-8.213,2.989-13.011,3.199-9.875-8.507
		c11.862-44.295,10.272-88.655-1.274-132.79c-8.181-31.272-9.995-62.399,4.548-98.149c-16.649,15.237-30.792,16.349-45.718,8.925
		c-3.622-1.802-7.274-4.358-7.793-8.467c-0.771-6.107,5.043-4.792,8.357-5.947c8.893-3.097,15.889-8.656,21.478-16.05
		c30.268-40.045,57.219-82.979,101.443-112.57c-28.023-6.392-62.535,4.726-83.307,25.639c-4.22,4.248-7.08,1.257-10.15-1.039
		c-10.758-8.046-10.55-22.483,1.078-34.104c12.589-12.582,29.139-16.974,45.897-20.516c6.571-1.389,13.229-2.368,20.098-3.578
		c-1.354-7.15-6.783-5.887-10.564-7.109c-35.312-11.414-62.358-32.394-75.808-67.827c-13.649-35.957-2.157-67.241,35.292-99.933
		c23.523-20.535,35.813-38.274,40.43-58.43c-5.407-2.993-9.849,0.742-14.415,2.362c-12.109,4.296-22.448,5.662-25.054-11.251
		c-0.995-6.455-6.192-6.942-11.617-7.393c-9.518-0.793-18.986-2.196-29.712-3.492c5.285-8.702,7.907-17.554,9.675-26.978
		c3.011-16.049,15.775-24.204,29.246-30.943c24.12-12.065,50.649-16.098,76.413-22.711c5.57-1.43,12.731-0.137,16.864-9.004
		c-11.562-3.417-22.477-0.843-33.143,0.188c-26.05,2.518-51.888,3.058-77.972-0.934c-27.529-4.214-47.65-22.863-71.478-34.197
		c-5.609-2.668-1.257-6.189,2.078-8.779c40.36-31.337,83.142-41.35,131.242-17.492c13.376,6.634,28.766,9.207,46.514,14.65
		c-4.391-9.67-10.662-10.704-15.69-13.027c-19.548-9.033-39.356-17.516-58.766-26.833c-19.715-9.463-36.882-22.48-49.007-40.956
		c-5.041-7.682-14.894-14.471-5.299-26.54c3.89-4.892-5.64-8.504-7.929-13.402c-4.606-9.855-19.535-19.446-12.728-28.564
		c5.111-6.845,19.271,3.498,28.951,7.419c9.582,3.882,18.146,12.269,28.725,1.023c3.018-3.208,8.463,1.306,12.681,2.678
		c36.558,11.889,60.204,38.912,81.656,68.879c7.985,11.154,13.398,24.804,26.784,32.43c3.696-8.224-1.281-13.831-3.566-19.784
		c-4.67-12.162-9.569-24.247-14.781-36.185c-13.582-31.104,7.367-56.863,13.186-84.92c0.937-4.519,5.915-2.07,8.46-0.102
		c4.921,3.805,9.744,7.849,14.02,12.352c9.072,9.553,16.406,21.622,31.671,6.711c6.401-6.253,13.583,0.406,18.463,6.485
		c16.553,20.624,15.489,43.874,10.63,67.968c-3.319,16.455-13.858,30.911-13.974,49.314c8.26-4.311,9.906-12.032,13.433-18.151
		c13.514-23.446,30.225-43.699,53.425-58.339c11.744-7.411,20.579-6.886,24.657,7.45c3.187,11.205,10.25,13.535,20.449,12.265
		c8.439-1.051,11.656,1.058,10.073,11.313c-2.653,17.185-6.373,33.24-18.996,47.524c27.191-1.547,54.583-2.258,78.003-18.837
		c12.404-8.781,11.25-22.597-1.82-30.432c-6.755-4.049-14.361-6.684-21.598-9.923c-23.031-10.311-34.791-28.411-35.73-53.288
		c-1.86-49.279,40.175-91.684,86.548-84.58c-6.564,3.947-11.586,6.703-16.337,9.867c-26.494,17.643-26.701,45.217-0.891,63.752
		c15.016,10.784,33.655,16.449,44.607,33.205c3.417,5.228,10.425,1.427,15.814-0.301c54.751-17.553,110.748-28.963,168.118-33.059
		c68.569-4.895,134.617,3.874,196.161,36.927c17.585,9.444,36.301,16.374,56.542,17.023c24.844,0.798,31.669-8.827,22.619-32.182
		c11.662-1.004,20.963,2.869,24.839,13.462c4.647,12.699-0.615,23.291-11.412,31.972c16.301-6.081,36.452-1.378,44.661-24.986
		c6.615-19.023,24.898-28.939,43.339-35.863c62.111-23.319,124.249,2.763,151.388,63.194c2.744,6.109,5.269,12.317,7.781,18.21
		c2.339-0.435,3.998-0.297,4.285-0.86c25.101-49.213,66.716-67.911,125.991-57.46c28.313,4.992,53.671,17.847,80.107,27.886
		c2.551,0.969,5.835,1.764,6.007,5.169c0.229,4.53-3.74,5.513-6.892,5.883c-12.364,1.45-24.758,3.059-37.181,3.49
		c-27.236,0.945-54.537,1.259-80.467,11.063c-11.458,4.332-22.269,8.242-11.764,25.048c7.474,11.957-0.245,27.275-15.221,35.132
		c-17.127,8.985-34.761,10.698-51.182-1.748c-4.857-3.681-6.637-3.576-10.241,1.478c-35.502,49.788-73.963,64.674-133.312,50.059
		c-26.937-6.633-53.49-14.804-70.591-40.257c-14.46-21.523-17.969-44.747-14.72-70.69c-21.431,18.952-44.803,10.28-72.034,7.395
		c30.482,26.668,48.528,58.774,72.998,85.682c10.234,11.253,17.943,24.602,31.173,33.399c26.306,17.493,54.328,24.702,86.125,16.003
		c-11.857,33.664-81.325,28.249-147.513-10.295c-1.875,11.204,1.565,20.027,8.133,28.122c10.804,13.318,22.597,26.729,37.762,33.822
		c27.144,12.696,30.878,34.97,30.589,60.378c-0.257,22.568-0.444,21.602,22.668,16.526c39.371-8.647,66.101-33.269,87.212-65.649
		c8.2-12.576,12.828-26.435,13.534-41.559c0.418-8.952,2.52-18.627,12.903-19.06c10.293-0.429,9.87,10.536,12.513,17.581
		c3.054,8.138,1.668,16.763,1.757,29.059c26.254-22.953,50.246-43.8,71.93-67.167c15.42-16.617,29.602-34.422,45.488-50.563
		c62.989-64,140.747-81.552,226.631-68.007c68.633,10.825,132.244,35.564,188.281,77.778c1.093,0.823,2.683,0.985,6.76,2.398
		c-9.651-15.054-21.716-26.709-18.399-44.158c1.441-7.584-0.116-17.549,9.123-20.246c9.193-2.684,13.747,5.85,18.567,12.111
		c1.357,1.761,2.716,3.521,6.416,8.316c5.174-55.894,43.703-62.695,87.486-64.463c-34.842,57.101-31.543,111.213,9.007,162.611
		c25.716,32.597,58.576,50.657,102.417,47.226c-2.94-10.612-5.774-20.292-8.297-30.052c-8.166-31.589-4.027-61.893,10.2-90.936
		c15.541-31.724,35.666-33.447,58.499-2.906c16.339-45.249,49.684-51.486,93.038-38.582c-6.397-13.672-10.184-25.672-17.074-35.496
		c-8.54-12.178-18.729-5.455-27.738,1.293c-2.471,1.851-3.528,6.664-7.769,4.725c-3.496-1.597-3.56-5.577-3.691-8.947
		c-0.647-16.59,4.229-30.003,20.664-37.39c37.044-16.65,72.785-12.928,107.691,6.223c5.458,2.994,10.84,6.128,16.343,9.035
		c0.798,0.422,2.077-0.066,5.287-0.27c-3.178-8.181-6.168-15.817-9.114-23.47c-15.415-40.054-10.135-77.973,12.448-113.751
		c9.062-14.357,19.352-27.933,28.801-42.053c3.224-4.818,5.924-7.052,9.787-0.924c11.778,18.682,24.619,36.792,35.071,56.189
		c18.973,35.208,18.9,71.635,3.122,108.213c-3.27,7.581-7.948,14.853-6.46,24.873c11.751-5.655,22.676-11.446,34.012-16.269
		c33.996-14.463,67.393-13.743,99.193,6.1c13.314,8.308,18.609,21.002,14.982,36.603c-1.346,5.791-3.141,9.177-10.02,3.234
		c-17.798-15.375-26.009-13.279-35.315,7.565c-2.754,6.166-5.206,12.467-8.708,20.901c40.775-8.409,75.284-4.819,90.647,39.201
		c1.91-0.436,3.386-0.321,3.816-0.937c20.551-29.423,42.705-20.248,56.611,7.236c16.416,32.445,16.949,65.472,5.48,98.98
		c-4.133,12.074-1.163,14.383,10.718,14.036c52.745-1.54,83.922-33.939,106.399-76.163c23.43-44.014,20.28-88.176-7.526-130.071
		c44.069-8.486,70.341,8.813,86.207,56.766c2.974,0.354,3.498-2.173,4.701-3.942c5.125-7.535,10.875-17.698,20.733-13.843
		c9.015,3.525,8.111,15.156,8.396,24.242c0.257,8.212-2.017,15.76-6.717,22.421c-4.068,5.766-8.575,11.224-12.116,17.664
		c43.511-33.159,92.56-54.352,144.067-70.325c76.926-23.856,151.967-21.174,224.366,16.8c38.806,20.353,64.833,54.35,92.851,86.25
		c23.099,26.301,50.066,48.334,78.353,73.939c-1.052-13.804-3.066-24.019,0.655-33.826c2.142-5.646,2.991-13.47,11.048-13.078
		c8.547,0.415,13.068,6.71,13.389,14.948c1.271,32.59,20.44,55.535,41.127,77.801c20.019,21.547,46.541,29.271,73.929,35.393
		c6.492,1.451,9.912,0.185,9.252-7.194c-0.352-3.946-0.213-7.934-0.417-11.897c-1.376-26.689,5.143-48.868,31.219-62.401
		c13.59-7.053,23.625-19.247,34.32-30.252c8.563-8.812,11.136-19.138,11.376-30.851c-7.088-1.81-9.54,3.754-13.367,6.378
		c-36.032,24.702-74.953,33.962-117.801,22.184c-4.33-1.19-8.558-3.01-12.552-5.081c-3.442-1.784-7.753-4.044-5.725-8.945
		c1.643-3.969,5.792-2.498,8.96-1.96c43.942,7.465,76.472-11.022,103.839-43.779c25.329-30.318,47.475-63.318,78.217-91.193
		c-25.23,0.235-49.848,15.268-71.856-8.114c3.884,25.983,0.755,48.979-14.091,69.9c-15.018,21.163-36.291,31.348-60.042,38.98
		c-28.483,9.153-56.879,10.027-85.342,1.671c-23.518-6.905-43.949-18.872-55.17-41.996c-4.018-8.28-7.394-8.658-15.236-4.035
		c-16.336,9.63-33.683,9.131-50.138-0.316c-15.514-8.906-20.393-23.837-10.977-38.679c6.256-9.86,0.847-13.397-5.484-17.234
		c-14.436-8.748-30.8-11.199-47.214-12.728c-25.386-2.364-50.826-4.154-76.223-6.409c-4.281-0.38-10.455,0.06-11.109-5.525
		c-0.725-6.181,5.944-5.728,9.854-7.147c29.78-10.814,58.79-24.346,91.068-26.569c33.494-2.306,63.951,5.196,90.629,26.699
		c10.977,8.847,15.122,21.794,22.011,33.35c6.701-4.405,6.91-11.126,9.076-16.751c25.812-67.035,105.937-95.468,167.938-59.522
		c11.979,6.944,23.706,15.216,28.236,28.399c4.796,13.959,12.023,21.45,27.113,21.553c5.375,0.037,10.732,2.671,20.375,5.275
		c-12.159-11.273-19.774-20.932-13.779-34.315c4.349-9.709,11.958-14.558,24.372-13.398c-0.875,8.011-9.449,15.644-1.998,23.404
		c7.432,7.741,17.339,7.82,26.979,7.477c17.864-0.635,35.043-5.444,50.371-14.089c78.658-44.361,162.899-47.606,249.448-35.346
		c39.961,5.66,78.819,16.185,117.517,27.231c9.248,2.64,15.51,2.506,21.847-6.125c7.878-10.731,21.24-14.752,32.104-21.862
		c12.834-8.4,27.463-16.073,27.049-34.12c-0.441-19.212-12.703-30.699-29.326-38.223c-1.916-0.867-3.647-2.144-8.272-4.912
		c18.441-4.351,32.391-0.093,45.558,7.458c28.303,16.231,45.892,53.543,40.41,85.81c-3.85,22.663-17.201,37.356-38.622,45.672
		c-12.275,4.766-29.244,7.556-27.957,25.045c1.245,16.931,18.028,20.074,31.063,24.648c18.175,6.378,37.132,9.308,59.553,10.698
		c-13.803-14.854-19.867-30.181-22.8-47.144c-1.695-9.8-0.579-16.119,11.06-14.322c11.373,1.756,17.765-1.713,20.815-13.568
		c3.838-14.917,13.858-11.88,23.746-5.961c24.15,14.457,39.802,36.603,54.346,59.831c3.102,4.954,4.247,11.766,12.279,14.306
		c-0.17-12.32-6.034-22.183-9.522-32.706c-8.394-25.318-13.081-50.792,0.828-75.762c9.558-17.159,15.701-18.742,32.22-7.974
		c5.446,3.551,8.566,4.746,11.721-1.813c0.957-1.989,2.443-3.986,4.201-5.28c8.637-6.363,14.239-20.431,24.312-19.838
		c12.066,0.711,5.859,16.686,11.424,24.871c17.598,25.878,12.776,52.536,0.943,79.309c-5.101,11.542-13.279,22.348-12.365,37.116
		c9.567-1.885,11.575-9.696,15.442-15.355c20.478-29.966,39.504-61.475,73.322-78.678c12.683-6.452,24.947-18.215,41.803-6.605
		c5.211,3.59,12.154-4.304,18.406-6.675c10.407-3.945,25.168-13.955,30.894-7.314c6.828,7.922-6.694,19.108-11.975,28.531
		c-4.033,7.196-13.74,12.018-5.637,22.996c1.603,2.172-3.464,10.225-6.604,14.774c-14.156,20.51-32.931,35.882-55.23,46.725
		c-19.361,9.415-39.091,18.072-58.658,27.063c-4.418,2.03-10.02,2.54-11.839,9.652c15.174,0.206,28.388-5.5,41.045-10.816
		c43.245-18.162,84.256-24.892,123.941,9.742c13.789,12.033,14.56,7.881,1.304,19.46c-40.723,35.572-88.579,36.32-138.102,31.503
		c-10.433-1.015-20.896-3.884-32.344-0.878c2.567,8.517,9.56,7.954,15.064,9.22c23.193,5.339,46.562,9.991,68.737,18.997
		c21.284,8.644,39.604,19.814,43.063,45.626c0.68,5.075,4.773,9.692,7.979,15.839c-8.243,0.799-15.28,1.682-22.345,2.12
		c-10.478,0.649-18.534,3.229-19.936,15.96c-1.052,9.543-7.76,11.422-16.37,8.399c-6.911-2.427-13.973-4.426-23.001-5.302
		c8.475,19.093,15.599,38.797,31.524,53.631c8.707,8.11,18.195,15.428,26.498,23.919c29.874,30.546,33.125,72.291,8.68,107.125
		c-18.668,26.601-44.439,42.965-75.877,53.629c10.529,2.344,21.093,4.54,31.578,7.07c12.203,2.944,23.923,6.981,33.531,15.64
		c9.095,8.197,10.923,18.275,7.539,29.436c-1.53,5.045-5.441,8.984-10.447,10.51c-7.646,2.33-5.25-5.512-7.478-8.566
		c-4.602-6.307-10.922-9.902-17.91-12.351c-19.259-6.752-39.312-7.974-63.688-9.167c28.2,23.415,51.967,45.793,71.182,72.431
		c8.951,12.41,17.686,24.979,26.392,37.564c6.978,10.088,15.383,18.148,27.813,20.96c3.174,0.718,7.952,0.553,7.581,4.866
		c-0.234,2.722-3.39,5.69-5.935,7.629c-11.048,8.42-23.434,8.234-45.518-1.113c14.504,37.774,4.947,73.331-2.69,109.374
		c-7.979,37.654-5.593,75.705,2.668,113.135c2.731,12.374-0.024,14.318-11.106,10.212c-23.498-8.705-44.197-19.589-42.531-50.038
		c-26.43,24.048-45.674,106.566-15.461,143.225c-18.678,5.243-28.927-2.197-40.282-29.477c-7.436-0.25-12.451,12.367-20.829,5.216
		c-7.413-6.327-5.156-15.689-4.502-24.029c1.393-17.767,10.123-33.095,16.864-49.956c-31.958,22.229-62.787,45.617-101.329,55.098
		c-39.467,9.709-77.313,5.143-118.283-13.748c23.97,46.356,59.839,74.679,97.636,108.068c-2.658-23.604,0.547-40.585,16.221-53.107
		c15.738-12.573,46.792-20.619,72.05-17.559c-5.403,11.13-19.595,14.182-23.651,27.491c11.266-1.178,21.688-4.026,31.593,1.129
		c9.696,5.047,15.475,12.661,17.158,23.426c-5.05,3.104-9.23-0.046-13.519-0.639c-19.06-2.635-34.986,5.502-43.619,22.487
		c-8.226,16.183-6.186,30.542,7.872,44.947c17.016,17.436,37.15,31.617,53.141,50.18c6.266,7.274,12.583,14.504,21.236,21.056
		c-2.333-6.686-4.629-13.384-7.004-20.055c-7.046-19.794-13.977-39.518-12.519-61.151c1.396-20.71,10.572-35.657,30.331-42.969
		c21.417-7.926,42.735-9.392,59.91,8.585c6.264,6.557,8.807,5.318,14.502,0.544c11.602-9.726,26.279-15.751,33.634-30.437
		c14.254-28.462,9.593-52.258-17.148-79.807c22.835-1.265,38.125,8.946,47.597,27.275c33.068,63.994,3.052,166.999-94.039,171.42
		c-11.06,0.504-13.337,2.93-11.341,13.754c5.961,32.32,10.647,64.874,16.024,97.304c10.882,65.64-9.26,121.661-51.623,171.457
		c-25.953,30.507-56.18,55.911-88.415,79.251c-4.751,3.44-8.683,6.776-14.83,1.665c-13.5-11.227-27.339-22.07-41.397-32.592
		c-8.622-6.453-7.514-10.378,1.27-15.779c21.304-13.1,41.449-28.153,58.124-46.755c46.981-52.408,54.848-121.149,22.879-186.877
		c-19.312-39.703-49.131-70.545-82.638-98.1c-28.021-23.044-57.13-44.762-85.243-67.699
		c-49.376-40.284-79.355-91.018-81.973-156.009c-0.066-1.638-0.544-3.275-0.978-4.872c-0.12-0.443-0.772-0.743-2.766-2.531
		c-20.214,35.255-25.469,71.762-13.54,112.326c-12.771-4.24-17.076-13.295-21.979-21.954c-2.704-4.775-5.331-12.263-11.582-10.569
		c-6,1.627-5.002,9.469-5.106,14.951c-0.161,8.475-0.687,17.189,0.941,25.405c4.184,21.102,17.774,28.839,37.872,22.708
		c17.704-5.401,38.018,1.395,44.768,15.013c3.089,6.234,4.129,10.89-5.862,9.758c-16.647-1.887-21.065,7.022-18.515,21.843
		c4.715,27.409-3.721,50.369-24.17,68.914c-4.365,3.959-8.612,9.059-15.974,7.832c14.496-26.302,12.243-43.93-9.057-66.642
		c-6.172-6.58-13.398-12.203-20.353-18.011c-47.839-39.949-54.35-95.525-15.458-144.423c24.701-31.057,50.755-60.871,69.482-96.334
		c23.441-44.389,22.199-91.75,19.018-139.49c-0.318-4.767-2.744-10.163-5.867-13.846c-19.666-23.198-44.031-41.739-64.623-68.338
		c-9.506,48.38-14.248,94.083-37.249,134.916c47.187-4.602,64.252,0.646,85.774,26.805c-27.281,6.569-51.068,26.656-82.485,17.912
		c8.396,5.898,17.91,10.714,24.912,17.96c9.394,9.721,24.256,17.132,16.259,36.499c-2.304,5.579,5.641,15.283,8.63,23.193
		c1.938,5.128,2.136,12.95-4.563,11.044c-12.588-3.582-22.687,4.253-33.941,4.067c-23.939-0.396-37.943-15.387-47.672-35.397
		c-2.858-5.876-4.943-12.128-10.184-17.806c0,13.25,0.417,26.516-0.089,39.747c-0.99,25.861-10.613,37.498-34.938,43.365
		c-0.54,0.13-1.269,0.677-1.557,0.489c-20.273-13.203-25.851,8.926-37.814,15.674c-3.815,2.152-7.469,6.53-12.185,3.956
		c-4.037-2.202-2.229-7.138-2.327-10.874c-0.328-12.448,2.002-24.343-7.918-35.967c-6.403-7.503-0.857-19.563,3.488-29.06
		c9.196-20.1,25.613-34.312,41.871-50.635c-7.329-1.504-11.196,2.836-15.584,5.127c-21.797,11.378-44.122,22.088-69.409,18.96
		c-10.768-1.332-30.51,1.606-20.654-21.516c1.516-3.557-1.383-4.917-4.189-5.851c-3.76-1.253-7.794-1.97-11.25-3.791
		c-7.954-4.191-19.826-8.37-19.562-16.845c0.285-9.161,13.369-3.676,19.972-7.307c1.897-1.043,5.335-0.215,6.471-1.577
		c25.641-30.717,58.484-16.675,89.382-14.637c1.115,0.074,2.238,0.009,4.123,0.009c-0.629-3.967-3.808-4.645-6.46-5.856
		c-2.578-1.176-5.526-1.914-7.649-3.653c-11.315-9.265-30.041-13.327-24.844-34.51c0.111-0.455-0.096-1.069-0.332-1.516
		c-2.557-4.842-14.268-6.696-7.978-13.476c4.618-4.978,13.899,0.472,21.101,1.417c21.994,2.886,43.817,6.149,61.707,25.964
		c1.967-12.407,4.556-21.537,13.361-27.214c-4.929-6.085-11.05-3.452-16.198-4c-12.57-1.338-20.894-8.312-26.468-18.892
		c-2.914-5.531-5.489-12.391-0.609-17.531c4.509-4.749,9.245,1.018,13.719,2.626c34.634,12.454,77.738-9.3,87.092-44.429
		c10.341-38.837-0.754-76.544-7.039-114.418c-1.569-9.454-7.662-3.574-11.51-1.742c-22.483,10.699-45.02,9.745-67.618,0.757
		c-7.903-3.143-15.446-7.014-20.21-16.45c12.184-5.498,25.945-6.859,35.74-17.022c8.687-9.015,18.835-17.2,23.319-28.894
		c16.924-44.145,52.929-68.142,92.187-88.536c15.54-8.073,31.967-14.667,48.465-20.619c44.051-15.891,76.729-47.008,109.384-79.01
		c-5.427-4.16-9.107,0.016-12.853,1.357c-66.671,23.864-133.515,46.875-196.472,80.368c-39.743,21.144-59.478,49.179-50.599,94.445
		c1.217,6.203,0.721,11.099-5.941,13.968c-6.327,2.724-10.817-0.251-15.442-3.861c-12.137-9.471-7.534-23.986-13.055-37.924
		c-18.465,28.438-31.062,61.719-64.047,78.883c10.009,3.869,20.461,0.598,29.361,4.987c9.082,4.479,20.823,8.105,10.131,21.823
		c-4.665,5.984-0.089,9.798,3.527,12.866c13.829,11.731,7.856,15.554-6.047,19.446c-15.592,4.365-29.908,4.274-44.439-3.205
		c-6.323-3.254-13.153-6.395-22.171-5.278c4.92,8.919,12.909,13.276,19.637,18.743c12.252,9.957,21.551,21.867,24.951,37.475
		c2.022,9.282,2.325,18.661-10.058,21.436c-9.861,2.21-4.726,9.935-5.588,15.216c-1.436,8.796,1.869,21.767-5.367,25.243
		c-7.391,3.55-15.635-6.712-22.915-11.913c-4.563-3.26-6.923-6.335-15.053-4.849c-12.111,2.214-20.848-9.191-27.322-19.471
		c-10.555-16.762-9.874-35.597-8.617-55.876c-11.307,4.63-10.871,14.361-12.758,22.339c-5.077,21.46-7.609,43.93-24.336,60.596
		c-8.135,8.105-16.581,17.094-28.961,6.394c-5.398-4.666-6.388,0.986-8.849,3.395c-7.682,7.521-15.279,15.133-23.103,22.503
		c-5.682,5.352-10.049,4.997-11.182-3.662c-0.88-6.72-1.312-13.497-1.983-20.245c-0.363-3.643,1.313-8.542-4.823-8.953
		c-15.21-1.018-13.003-12.019-11.259-21.244c3.84-20.327,15.253-36.426,31.107-49.317c11.308-9.195,23.057-17.846,33.948-28.017
		c-15.388,0.916-28.17,8.861-41.489,14.856c-19.971,8.989-40.344,15.08-62.494,13.1c-23.663-2.115-23.659-2.162-17.533-24.435
		c-14.101-3.567-28.97-4.185-44.302-10.589c9.764-11.618,22.63-15.571,34.127-21.634c3.383-1.783,10.298-2.229,5.408-9.044
		c-7.661-10.677,0.802-14.281,8.1-17.279c20.372-8.37,41.256-4.938,62.011-1.441c16.594,2.796,32.67,8.684,50.978,5.779
		c-11.62-4.651-23.217-9.358-34.864-13.938c-20.712-8.145-41.429-16.586-54.116-36.279c-5.494-8.528-13.553-17.697-0.049-27.679
		c6.827-5.046-2.961-9.25-3.917-14.307c-1.215-6.422-8.119-13.255-3.635-18.892c4.466-5.614,11.47,0.709,17.14,2.205
		c6.997,1.846,13.176,6.095,19.605-2.136c2.632-3.369,8.554-0.721,12.974,0.304c22.686,5.261,39.834,18.358,53.089,37.123
		c7.736,10.952,15.653,21.775,26.919,30.82c-3.897-9.612-7.896-19.185-11.667-28.847c-5.11-13.092-6.164-26.416-1.7-39.945
		c1.621-4.914,3.919-12.37,7.895-12.378c17.667-0.037,19.838-15.019,26.373-25.46c5.954-9.513,9.774-7.214,13.581,1.053
		c2.131,4.627,3.858,9.439,5.842,14.137c1.282,3.036,1.693,8.212,5.294,7.969c26.218-1.764,18.915,17.002,19.51,31.014
		c0.069,1.614,0.45,3.214,0.664,4.667c4.419,1.777,6.693-1.388,8.953-3.63c30.372-30.116,67.26-47.942,108.727-56.131
		c16.482-3.255,26.891-12.026,35.674-25.677c16.948-26.338,31.186-55.007,62.945-75.501c-40.607,0.947-75.374,5.736-108.948,18.445
		c-43.585,16.498-83.559,40.638-126.205,59.165c-69.577,30.226-141.714,31.203-215.391,22.18
		c-85.554-10.478-162.559-43.325-236.773-85.185c-35.327-19.926-73.614-32.536-114.672-34.241
		c-17.073-0.709-34.213-0.084-49.004,10.288c-4.546,3.188-9.604,6.783-7.585,13.763c1.791,6.192,7.299,6.326,12.32,7.123
		c1.68,0.267,3.379,0.427,5.047,0.75c26.806,5.189,49.308,17.378,55.73,45.607c6.746,29.657-4.011,54.888-28.451,73.311
		c-19.776,14.908-42.19,21.677-67.107,18.567c-31.784-3.966-52.88-21.449-57.148-47.216c-5.622-33.937,6.196-55.924,38.33-71.311
		c1.907-0.913,3.817-1.82,8.641-4.119c-28.694-5.834-52.484-6.01-74.799,11.435c-29.586,23.13-62.555,40.841-97.087,55.734
		c-30.01,12.942-38.197,35.478-24.545,65.343c3.253,7.117,3.437,14.134,1.239,21.507c-1.294,4.342-1.784,9.491-6.931,10.715
		c-4.899,1.166-6.268-3.944-8.743-6.768c-7.947-9.068-14.266-14.03-17.726,3.475c-1.796,9.087-9.198,15.556-16.799,20.74
		c-23.77,16.211-49.143,16.257-80.427,6.845c14.645-4.016,24.86-6.065,34.521-9.621c21.618-7.958,29.351-19.901,27.989-42.844
		c-0.735-12.379,1.368-27.573-4.984-36.237c-6.51-8.878-22.082-1.109-33.686-1.646c-21.489-0.994-42.786-3.229-66.97-7.556
		c11.843,10.583,18.876,21.045,22.563,33.682c2.278,7.808-0.131,10.81-8.045,9.494c-2.792-0.464-5.581-1.031-8.313-1.768
		c-16.188-4.37-30.25-5.233-45.234,7.432c-17.185,14.525-40.003,14.931-61.803,11.37c-14.418-2.355-28.54-6.528-46.935-10.862
		c15.106-3.826,27.002-5.493,33.367-17.083c5.884-10.713,8.949-22.127,9.036-34.18c0.204-28.116-2.793-54.728-32.363-69.25
		c-26.282-12.907-53.29-13.584-86.109-5.893c10.525,2.585,16.633,3.788,22.552,5.607c9.954,3.06,19.12,7.649,24.154,17.398
		c3.15,6.098,6.181,13.55,0.182,18.837c-5.538,4.88-10.376-1.528-14.791-4.515c-19.941-13.495-43.101-17.898-65.957-20.841
		c-72.544-9.342-116.096-51.266-138.367-118.644c-0.85-2.571-2.344-4.93-4.593-9.559c-11.297,31.476-25.33,58.685-47.945,81.062
		c-20.44,20.224-44.412,32.675-72.174,39.058c-30.814,7.085-62.585,11.65-88.722,31.985c-8.068,6.277-11.278,1.156-11.708-6.514
		c-0.658-11.731,6.845-18.578,15.75-24.356c8.991-5.834,19.67-7.444,31.789-10.86c-46.469-16.747-101.824,4.909-113.019,42.315
		c-12.945,43.254,0.312,77.905,32.954,86.136c-38.71,16.005-79.374,22.912-113.734-6.021c-10.775-9.073-20.423,0.039-30.579,0.363
		c-7.034,0.225-15.775,7.017-20.536,0.235c-4.177-5.949,2.429-13.798,4.903-20.614c2.742-7.555,8.479-13.113,13.836-20.129
		c-30.834,6.706-61.537,7.867-92.401,6.068c-4.773-0.278-7.387,1.616-7.742,6.647c-0.359,5.085-1.231,10.131-1.726,15.208
		c-4.178,42.82,7.071,57.878,49.233,65.951c2.728,0.522,5.475,0.941,8.784,1.504c-28.547,23.895-82.289,4.586-97.575-34.361
		c-6.029-0.402-8.106,5.222-12.036,7.996c-3.52,2.484-4.683,9.301-10.075,7.714c-6.119-1.801-6.963-8.188-8.073-13.803
		c-1.598-8.084-0.67-15.412,3.606-22.835c12.284-21.321,4.581-50.819-17.702-60.361c-42.493-18.197-81.278-42.474-119.863-67.461
		c-17.829-11.546-38.014-8.419-57.831-5.063c-0.603,5.274,3.896,5.068,6.379,6.172c27.292,12.126,40.539,33.191,38.442,61.631
		c-1.886,25.579-18.37,45.197-46.459,51.843c-37.279,8.821-70.263-0.506-95.157-30.113c-32.834-39.049-12.885-92.273,37.553-103.742
		c7.838-1.782,21.012,1.863,21.236-11.474c0.212-12.653-11.719-15.723-21.451-18.309c-30.648-8.146-60.653-2.986-90.515,5.262
		c-41.467,11.452-77.505,34.47-115.606,53.172c-110.673,54.322-226.55,74.544-348.505,50.149
		c-40.514-8.104-76.189-28.747-112.369-47.584c-45.045-23.453-91.073-43.6-142.822-46.235c-7.33-0.373-14.655-0.845-26.663-1.542
		c32.678,19.728,47.18,49.232,64.313,76.537c8.268,13.178,18.466,21.477,34.444,24.555c40.295,7.762,76.587,24.19,105.823,54.116
		c2.931,3,6.065,6.985,11.561,5.797c0.423-7.842,0.331-15.657,1.443-23.298c0.715-4.916,3.3-13.035,7.61-12.006
		c17.18,4.102,16.93-9.498,21.028-18.663c5.884-13.161,11.254-9.035,17.316-0.109c5.993,8.825,6.906,21.452,23.287,21.72
		c8.733,0.143,13.892,29.654,8.738,45.422c-3.984,12.188-9.105,24.004-12.538,36.61c9.947-6.981,14.895-17.601,21.227-27.033
		c12.761-19.008,29.193-33.263,51.235-39.962c7.478-2.272,15.246-6.911,23.258,1.984c5.34,5.928,12.354-2.264,18.831-2.659
		c4.752-0.29,9.91-6.377,13.953-1.036c3.437,4.539-1.032,9.622-2.929,14.157c-1.735,4.15-4.054,8.077-6.353,11.962
		c-1.523,2.573-3.141,4.953,0.604,6.85c15.854,8.034,6.562,18.446,1.422,26.73c-11.963,19.282-31.577,28.633-52.005,36.305
		c-11.483,4.312-23.044,8.413-34.57,12.609c0.341,1.749,0.682,3.498,1.023,5.248c9.758-1.811,19.581-3.333,29.263-5.492
		c23.373-5.212,46.925-9.805,70.681-4.117c9.65,2.31,25.097,2.363,16.436,21.033c-2.491,5.371,4.999,6.476,8.568,8.433
		c10.289,5.643,21.585,9.608,31.422,18.634c-14.486,9.105-30.337,8.47-44.518,13.185c7.381,21.77,7.314,21.198-15.237,23.836
		c-28.527,3.337-53.497-6.781-78.257-18.584c-8.641-4.119-17.421-7.947-29.805-13.576c5.993,10.49,13.432,14.186,19.555,18.967
		c16.587,12.95,33.258,25.689,42.471,45.543c8.632,18.602,6.876,24.662-8.899,38.323c-5.997,5.194-1.916,13.812-3.238,20.758
		c-0.841,4.418-0.258,9.94-4.709,12.156c-4.784,2.381-8.385-2.037-11.774-4.825c-4.37-3.596-8.693-7.339-12.507-11.503
		c-6.592-7.197-11.176-16.163-23.599-6.089c-5.991,4.858-13.664-2.534-18.937-7.754c-14.828-14.678-19.595-33.974-24.454-53.338
		c-2.647-10.551-1.964-22.432-13.758-35.771c0,12.764,0.256,20.769-0.05,28.753c-0.763,19.854-6.659,40.362-25.903,45.903
		c-15.687,4.516-28.533,11.546-41.637,19.819c-6.138,3.875-7.968-0.239-8.632-5.479c-0.855-6.75-1.948-13.495-2.312-20.276
		c-0.378-7.054-0.445-12.818-9.97-14.529c-7.387-1.327-7.514-9.089-6.966-15.483c1.336-15.575,9.389-27.695,20.532-37.942
		c7.795-7.169,15.982-13.911,25.686-22.309c-10.904-3.037-17.802,1.368-24.327,4.676c-18.058,9.156-35.198,4.703-52.605-1.732
		c-7.109-2.628-7.238-5.846-2.674-11.023c7.138-8.099,20.153-13.636,7.798-28.706c-3.518-4.291,7.503-10.046,13.71-11.497
		c8.593-2.01,17.635-2.099,27.722-4.626c-33.39-16.353-44.727-49.68-62.343-79.678c-6.744,6.483-4.223,13.025-5.065,18.584
		c-1.412,9.334-3.798,17.672-13.719,21.721c-11.895,4.855-19.592-0.146-17.143-12.815c8.001-41.381-7.484-69.158-44.434-89.261
		c-55.027-29.937-112.538-53.474-171.45-74.08c-14.777-5.169-29.602-10.204-45.015-14.01
		c31.106,29.176,60.587,59.702,101.578,75.479c34.889,13.428,69.13,28.48,99.599,50.985c19.536,14.43,35.169,31.27,45.862,53.506
		c11.423,23.753,25.783,45.769,55.29,50.366c2.16,0.336,4.92,0.244,5.356,3.057c0.732,4.732-2.747,7.294-6.125,9.249
		c-24.38,14.114-49.783,18.148-76.526,7.128c-2.085-0.859-3.949-2.246-6.017-3.159c-2.005-0.884-4.14-1.473-7.565-2.657
		c-4.462,34.343-14.335,67.218-11.08,101.658c4.843,51.254,46.287,78.666,95.465,62.585c10.975-3.589,12.387,1.526,11.057,9.513
		c-2.413,14.48-12.077,22.697-25.855,26.044c-6.009,1.459-12.323,1.658-19.959,2.612c4.898,8.93,16.371,13.712,13.888,26.929
		c21.526-18.284,46.919-18.76,71.254-22.658c3.672-0.588,8.418-2.551,10.588,2.218c1.816,3.992-4.313,5.575-4.453,8.011
		c-1.519,26.537-22.444,35.574-41.067,48.949c6.847-0.763,13.686-2.082,20.543-2.186c24.361-0.372,49.611-5.306,69.073,16.832
		c3.597,4.091,12.746,3.836,19.442,4.537c9.114,0.953,11.78,3.743,4.382,10.804c-3.679,3.512-7.572,6.858-11.683,9.845
		c-8.158,5.929-26.291,3.417-17.496,23.4c2.104,4.78-7.339,7.284-12.75,8.633c-22.139,5.516-42.713,0.196-62.469-9.66
		c-10.396-5.187-20.565-10.83-31.556-15.196c11.322,13.637,25.072,24.991,33.92,39.969c9.305,15.754,23.661,31.512,3.481,51.05
		c-4.411,4.27-0.522,17.242-0.239,26.2c0.385,12.18-4.169,14.411-13.628,6.946c-4.442-3.505-8.973-6.96-13.002-10.908
		c-6.213-6.088-9.803-12.471-22.134-7.461c-13.534,5.498-35.219-13.833-38.932-30.387c-3.879-17.299-0.442-34.935-2.37-57.186
		c-4.748,10.828-7.485,17.681-10.703,24.3c-13.156,27.061-31.829,35.515-61.7,28.248c-1.571-0.382-3.349,0.192-5.014,0.077
		c-21.169-1.458-23.668-3.569-13.671-21.36c6.451-11.48-0.904-23.712,7.333-34.536c10.285-13.515,23.719-22.142,38.329-32.017
		c-31.645,6.37-55.489-13.536-85.407-20.732c27.888-20.776,53.498-38.351,92.127-20.22c-25.445-45.974-29.35-92.245-38.207-141.957
		c-22.712,27.404-48.921,47.057-68.37,73.375c-2.521,3.411-3.505,8.447-3.919,12.851c-6.44,68.593,5.51,132.184,51.232,186.494
		c12.048,14.311,24.048,28.668,35.792,43.229c40.337,50.011,35.538,105.859-12.869,147.584
		c-11.629,10.023-23.384,19.69-31.082,33.358c-9.715,17.249-11.209,34.066,3.342,50.974c-28.881-7.983-47.097-38.523-43.54-70.611
		c3.032-27.352,1.918-28.675-25.214-29.932c6.851-20.436,23.59-29.146,45.125-23.482c25.282,6.649,37.929-1.879,40.587-28.274
		c0.9-8.943,0.106-18.1-0.498-27.12c-0.162-2.412-2.474-4.682-3.798-7.016c-2.277,1.47-4.897,2.598-6.774,4.471
		c-8.56,8.54-11.282,22.588-25.914,27.021c8.13-39.02,6.799-76.062-14.13-111.239c-5.775,4.179-4.391,8.47-4.582,12.085
		c-3.009,57.1-28.813,102.902-70.087,140.837c-30.511,28.043-64.475,51.888-96.401,78.209
		c-39.416,32.496-72.779,69.838-91.202,118.613c-27.358,72.432-10.369,138.585,48.716,188.176
		c11.283,9.47,22.432,19.421,34.932,27.033c13.433,8.181,9.869,12.83,0.183,21.202c-13.561,11.722-31.601,18.295-40.902,35.045
		C280.552,1709.041,280.817,1708.76,280.817,1708.76z M1349.327,394.127c53.037-11.063,104.796-12.795,156.335,5.878
		c51.557,18.68,99.422,43.333,142.792,77.352c50.095,39.294,107.504,54.331,170.915,45.81c43.494-5.845,78.306-25.27,101.409-63.467
		c2.141-3.541,9.245-9.089-0.822-10.78c-31.037-5.214-56.406-22.924-83.762-36.386c-122.72-60.388-251.061-87.178-387.417-62.477
		C1412.316,356.66,1378.988,371.721,1349.327,394.127z M3151.674,393.965c0.154-1.094,0.308-2.189,0.461-3.284
		c-6.271-3.649-12.468-7.433-18.823-10.928c-60.58-33.308-126.495-43.183-194.066-39.363
		c-101.846,5.757-199.219,29.369-288.1,82.053c-18.467,10.946-37.433,22.311-58.976,25.353c-16.25,2.294-9.985,7.571-4.887,15.397
		c28.37,43.551,72.138,56.3,120.084,59.137c60.732,3.593,112-19.817,160.202-55.313c69.187-50.951,143.977-88.737,233.968-80.131
		C3118.321,388.491,3134.965,391.568,3151.674,393.965z M3907.608,380.103c-8.495-13.389-7.732-26.7-8.921-39.593
		c-9.816-106.389-118.958-139.294-185.37-119.332c-16.26,4.887-29.723,14.226-37.473,29.97
		c-8.411,17.086-1.635,35.969,14.768,40.447c-4.673-10.283-2.847-18.889,6.089-25.429c21.618-15.824,56.089-1.378,59.716,25.299
		c2.384,17.529-1.122,33.841-12.7,47.881c-20.593,24.971-48.47,38.902-77.762,50.049c-29.848,11.358-60.247,20.106-90.263-2.704
		c2,49.489,42.966,80.495,94.127,73.416c28.656-3.965,54.146-16.434,78.631-30.74c3.354-1.959,26.161-0.749,7.647-16.057
		c-2.95-2.439,2.424-5.259,5.257-6.782c9.618-5.169,20.191-7.463,30.73-9.599C3829.272,389.391,3866.749,383.674,3907.608,380.103z
		 M811.136,297.002c18.808-11.199,23.279-25.511,14.944-43.965c-7.226-16-20.099-26.079-36.268-31.352
		c-70.38-22.949-167.773,20.491-181.831,100.782c-2.636,15.053-2.779,30.717-6.956,45.271c-3.185,11.097,0.167,11.96,9.4,12.78
		c35.063,3.112,69.503,10.162,103.793,17.923c10.578,2.394,20.708,6.031,29.639,12.332c3.084,2.176,8.031,6.452,2.199,8.741
		c-10.957,4.301-3.523,6.362,0.395,8.268c18.833,9.161,37.044,19.712,57.074,26.258c17.941,5.863,36.288,9.1,55.228,7.685
		c38.871-2.903,69.669-36.905,66.37-75.5c-15.198,15.138-32.965,18.147-52.226,14.473c-38.574-7.359-73.597-22.506-103.314-48.556
		c-15.123-13.257-24.205-29.936-24.141-50.569c0.077-24.585,17.121-40.28,41.61-38.704
		C807.393,264.177,816.197,275.783,811.136,297.002z M4288.548,1065.425c-47.127-0.465-71.563-7.593-99.496-28.275
		c-43.265-32.033-66.984-93.847-54.877-143.011c10.18-41.336,50.327-76.773,91.38-80.661c25.199-2.386,48.754,11.846,51.779,31.471
		c0.967,6.276,1.348,12.898-5.296,16.59c-6.4,3.555-8.778-3.019-12.45-5.91c-13.179-10.376-26.595-10.424-34.504,0.053
		c-9.104,12.06-5.252,30.275,8.88,37.945c18.098,9.821,36.889,11.552,54.873-0.148c17.888-11.637,20.951-29.788,19.792-49.412
		c-1.222-20.685-16.206-29.294-32.619-34.799c-38-12.744-73.243-8.065-105.471,17.805c-24.579,19.73-45.252,19.377-71.428,1.923
		c-14.066-9.379-24.382-21.935-31.289-37.274c-4.323-9.603-8.3-19.361-12.432-29.05c4.518,31.767,16.658,61.39,25.957,94.624
		c-5.822-2.482-8.347-3.514-10.834-4.631c-2.333-1.047-4.508-3.657-8.842,1.275c12.722,74.137,3.282,153.806,42.685,224.89
		c-7.51,4.255-14.617,1.378-20.73-2.374c-5.702-3.5-10.261-8.862-16.618-14.566c14.875,62.177,98.869,90.211,150.009,50.667
		c-12.483-1.957-24.05-3.993-33.097-12.237c-5.641-5.14-11.812-11.33-8.567-18.836c3.721-8.611,11.866-2.609,17.795-1.49
		C4225.873,1086.172,4257.026,1083.308,4288.548,1065.425z M447.113,762c-5.776,11.405-10.754,23.305-17.472,34.125
		c-24.801,39.94-63.243,47.095-100.142,18.704c-32.852-25.278-67.907-25.533-104.086-9.443
		c-27.749,12.341-36.298,36.154-23.99,63.039c10.344,22.594,39.449,31.255,64.265,19.068c11.011-5.407,17.945-14.091,18.484-26.477
		c0.365-8.397-3.326-15.592-11.313-19.466c-11.489-5.573-21.034-1.013-29.236,6.928c-9.721,9.41-13.597,3.907-15.72-5.773
		c-1.878-8.563,1.84-15.439,7.748-21.395c14.991-15.112,33.386-18.464,53.385-14.722c42.46,7.944,80.972,48.128,84.454,91.358
		c4.704,58.39-18.405,105.083-66.288,138.557c-25.813,18.046-55.599,24.695-87.299,23.462c30.04,15.409,61.245,19.751,94.01,13.451
		c5.184-0.997,12.006-5.808,15.521,0.34c3.817,6.675-1.344,12.948-6.027,18.025c-9.616,10.424-22.617,13.295-38.513,13.804
		c59.541,38.464,143.344,9.385,151.283-51.61c-7.192,7.047-12.291,14.68-20.844,17.74c-4.831,1.729-10.782,3.984-14.381-0.281
		c-4.105-4.863,3.28-7.157,4.858-10.955c2.599-6.255,5.945-12.202,8.504-18.472c10.416-25.524,12.913-52.679,16.215-79.678
		c4.86-39.733,9.44-79.483,11.241-119.543c-6.863-0.717-12.121,7.981-16.614,2.947c-4.62-5.176,1.121-11.508,3.449-16.959
		C437.732,807.402,443.345,785.051,447.113,762z M4166.316,593.129c34.632,45.525,116.979,76.374,167.771,65.297
		c10.605-2.313,20.579-6.406,28.878-13.725c13.775-12.149,17.58-31.479,9.552-48.066c-7.283-15.047-33.575-30.248-47.569-27.92
		c-6.234,1.037-9.096,4.51-8.848,10.318c0.337,7.859,5.587,6.734,11.015,5.616c3.472-0.715,7.447-3.767,11.193,1.698
		c-4.555,5.811-11.71,7.985-17.907,11.275c-23.309,12.375-44.213,8.924-57.395-9.1c-13.611-18.614-11.194-44.906,5.713-62.177
		c15.919-16.262,36.589-22.37,58.025-25.617c11.065-1.676,12.834-5.037,8.901-15.208c-12.823-33.164-33.439-61.611-53.365-90.498
		c-1.827-2.648-2.868-7.666-8.301-5.975c-1.77,6.87,2.202,12.25,4.016,18.057c4.936,15.799,8.771,31.688,5.707,48.411
		c-1.034,5.642-2.862,14.711-7.106,14.367c-18.519-1.5-19.844,14.511-27.334,24.156c-12.621,16.252-17.904,16.031-30.9-0.461
		c-3.942-5.003-4.597-14.418-13.234-13.887c-15.297,0.94-17.565-9.819-19.69-20.528c-4.217-21.258,0.919-40.345,14.216-57.459
		c4.021-5.175,9.766-9.617,11.972-20.687c-11.533,10.165-20.806,16.504-30.754,21.906c-9.927,5.39-17.021,14.168-19.474,24.767
		c-7.069,30.55-10.818,61.615-2.701,92.522c8.79,33.464,36.353,56.861,65.075,57.562c7.195,0.175,17.557-3.988,19.668,7.539
		c2.169,11.841-6.998,17.209-16.154,20.872c-11.506,4.603-23.453,3.865-34.875-0.638
		C4184.746,602.524,4177.477,598.493,4166.316,593.129z M292.577,380.499c-0.56,0.452-1.12,0.903-1.68,1.355
		c6.187,8.589,12.542,17.062,18.524,25.791c10.498,15.319,13.249,32.362,9.779,50.337c-1.525,7.901-4.611,17.156-13.44,17.684
		c-9.724,0.582-13.202,5.753-17.653,12.652c-12.459,19.313-20.273,19.44-34.14,1.273c-3.414-4.473-6.03-9.559-8.97-14.39
		c-1.911-3.141-2.252-8.003-8.142-6.248c-12.579,3.748-14.235-5.936-15.922-14.05c-3.567-17.16,0.041-33.741,5.361-50.107
		c1.738-5.347,5.921-10.471,2.586-20.113c-22.882,30.575-43.101,59.492-57.384,92.329c-4.768,10.961-4.667,16.68,9.821,18.773
		c21.483,3.105,41.949,10.488,57.076,27.434c13.388,14.998,15.825,32.517,8.114,50.712c-6.822,16.097-20.227,24.404-37.545,24.621
		c-16.615,0.208-28.548-10.204-41.67-19.559c4.088-2.844,6.827-2.266,9.479-1.137c4.4,1.874,8.787,3.318,11.903-1.839
		c1.86-3.078,1.943-6.586-0.176-9.631c-2.743-3.941-6.437-5.797-11.547-5.677c-20.027,0.47-42.849,19.053-46.959,38.601
		c-4.035,19.193,6.914,37.041,28.591,46.615c15.491,6.843,31.83,7.762,48.359,6.498c51.078-3.905,93.697-25.125,130.784-63.107
		c-8.539-0.942-11.484,4.113-15.715,6.329c-16.584,8.685-33.313,11.153-50.26,1.694c-7.342-4.098-12.461-10.429-10.016-19.565
		c2.478-9.263,10.385-7.125,16.925-6.619c19.011,1.472,33.896-5.734,46.521-19.772c26.788-29.787,34.351-100.434,13.64-134.857
		c-2.863-4.758-6.565-9.519-11.003-12.721C316.409,395.571,304.367,388.21,292.577,380.499z M4186.693,325.171
		c-11.525-16.606-27.594-16.127-44.143-16.255c-45.109-0.346-89.372-5.846-130.144-27.116
		c-17.857-9.316-32.989-22.296-32.402-44.061c0.471-17.467-8.337-23.967-22.58-28.249c-17.344-5.214-34.335-11.68-51.815-16.337
		c-14.271-3.802-28.555-8.813-45.326-6.142c1.181,3.134,4.257,3.742,6.342,5.514c40.022,34.033,65.359,76.266,71.125,129.138
		c0.834,7.648,5.057,11.795,10.982,15.925c33.205,23.139,69.337,40.696,106.618,55.912c28.611,11.678,58.189,19.065,89.527,14.014
		c7.759-1.25,16.142-1.634,21.659-10.155c-7.498-1.825-12.358,2.117-17.832,2.97c-14.687,2.289-34.063,6.843-42.132-3.749
		c-9.258-12.152-20.122-15.241-31.787-20.403c-5.348-2.367-12.468-4.703-11.983-12.59c0.455-7.397,7.197-9.403,12.54-12.513
		c4.231-2.462,12.073-1.529,12.475-7.21c1.436-20.351,16.908-19.842,30.559-21.463c14.229-1.69,28.166,2.124,42.155,4.212
		C4169.475,327.948,4178.407,329.602,4186.693,325.171z M341.795,398.802c23.424,12.322,47.823,10.751,71.922,3.71
		c50.858-14.859,97.966-38.07,142.963-65.877c6.938-4.287,8.128-9.809,8.914-16.81c3.815-33.962,16.596-64.348,36.551-92.04
		c11.543-16.019,27.421-27.942,43.158-45.828c-42.34,7.647-79.78,16.953-115.075,33.82c-3.802,1.816-6.356,4.544-6.136,9.217
		c1.922,40.824-26.592,55.837-58.234,66.977c-34.481,12.139-70.587,16.543-106.956,16.384c-16.914-0.074-31.516,2.317-43.15,16.674
		c13.296,4.357,26.136,1.192,38.819-0.735c12.94-1.966,25.901-3.95,38.832-1.63c8.711,1.562,19.828,3.132,21.16,13.679
		c1.02,8.078,4.885,10.064,10.744,12.57c6.631,2.836,15.379,5.206,14.938,14.103c-0.418,8.414-9.144,10.792-15.615,13.769
		c-4.521,2.08-9.779,2.586-14.73,3.692c-3.786,0.845-8.985,0.78-8.041,6.393c2.142,12.735-7.645,11.851-14.841,13.347
		C371.831,403.371,356.864,399.762,341.795,398.802z M4241.344,742.055c0.631-1.46,1.261-2.92,1.893-4.38
		c-16.178-13.958-32.189-28.115-48.571-41.83c-25.62-21.448-52.853-40.972-75.712-65.665
		c-17.215-18.596-31.252-38.976-38.726-64.272c-5.898,14.295-9.508,27.832-12.788,41.449
		c-14.622,60.707,0.576,116.889,27.239,170.863c9.553,19.34,30.047,26.601,45.57,18.835c3.066-1.534,6.843-3.356,6.73-6.959
		c-0.128-4.078-4.346-4.542-7.716-5.158c-10.783-1.972-20.117-6.362-21.156-18.591c-1.143-13.448,6.773-22.209,17.891-28.447
		c11.736-6.585,24.583-8.185,37.76-8.447C4196.972,728.993,4219.671,731.961,4241.344,742.055z M265.462,732.895
		c24.861-7.622,49.355-13.948,75.191-12.445c13.265,0.771,26.046,3.521,36.358,12.347c7.592,6.498,12.463,14.933,10.082,25.543
		c-2.065,9.205-8.27,14.434-17.433,16.5c-3.983,0.898-10.141-0.388-9.365,6.776c0.562,5.189,4.782,7.339,9.212,8.9
		c14,4.933,28.293-0.536,37.007-16.295c29.913-54.1,45.256-111.033,30.79-173.094c-3.491-14.974-5.304-30.545-14.41-46.852
		c-10.713,47.628-42.634,76.425-75.771,104.436C319.118,682.381,288.871,703.571,265.462,732.895z M316.965,873.308
		c-26.111,79.553-83.986,96.917-169.606,52.224c-2.089,32.92,25.194,70.209,59.425,81.216
		c44.072,14.172,92.356-4.166,118.498-43.994C342.529,936.479,342.402,895.943,316.965,873.308z M4357.361,931.42
		c-70.923,52.651-155.388,20.41-169.984-48.447c-20.579,18.761-25.357,51.455-11.556,79.067
		c20.795,41.606,65.85,63.326,112.232,54.106C4327.951,1008.215,4353.972,976.405,4357.361,931.42z M4037.524,551.695
		c-76.403,37.052-90.344,104.393-86.633,179.002c1.995,40.117,24.541,69.641,57.196,92.781
		C3986.852,729.299,4012.432,640.94,4037.524,551.695z M497.172,817.379c35.861-26.444,57.772-59.148,57.112-104.353
		c-1.023-70.066-14.871-133.206-86.92-164.852C492.134,635.424,515.997,723.696,497.172,817.379z M1180.472,254.342
		c0.079-33.874-31.345-64.089-66.446-63.889c-27.425,0.156-48.535,21.916-48.859,50.365c-0.349,30.576,27.669,58.285,58.946,58.297
		C1159.119,299.127,1180.407,282.216,1180.472,254.342z M3436.955,244.401c0.254-28.708-19.92-49.93-48.119-50.617
		c-34.87-0.85-67.464,29.328-67.557,62.55c-0.075,27.054,22.719,45.544,56.278,45.65
		C3409.166,302.085,3436.68,275.41,3436.955,244.401z M2136.334,203.708c10.202,18.195,18.793,35.282,23.613,53.889
		c11.72,45.253,3.083,65.666-35.828,85.483c9.647,7.537,14.616,8.347,27.099,4.416c35.257-11.103,54.094-41.494,52.69-85.006
		C2202.723,225.764,2175.854,201.585,2136.334,203.708z M2300.028,279.168c-0.494,19.977,5.607,41.316,22.42,58.43
		c12.54,12.764,27.197,22.063,45.924,22.587c4.644,0.13,10.479-0.327,11.621-5.009c1.66-6.804-5.516-5.62-9.207-6.718
		c-19.917-5.924-29.004-19.036-30.34-39.782c-1.972-30.607,7.848-57.781,20.917-84.417c1.427-2.907,3.626-6.987,2.606-9.213
		c-1.994-4.352-6.892-2.145-10.589-1.675C2317.98,217.873,2299.998,238.897,2300.028,279.168z M2070.333,424.517
		c24.652-0.187,38.984-14.941,49.666-35.061c4.627-8.716,3.647-13.188-7.513-14.011c-11.633-0.857-24.002-4.46-26.173-17.465
		c-2.212-13.247-7.734-12.534-16.948-8.269c-4.599,2.129-9.576,3.429-14.214,5.483c-20.471,9.066-30.426,24.708-26.816,41.843
		C2031.806,413.511,2048.465,424.396,2070.333,424.517z M2435.117,433.46c21.312,0.861,35.789-8.811,39.809-26.594
		c4.215-18.651-5.069-34.2-25.265-42.077c-6.318-2.464-12.773-4.576-19.132-6.94c-4.682-1.74-9.235-2.836-9.992,4.129
		c-1.856,17.084-14.174,22.374-28.353,23.727c-10.799,1.031-10.294,5.835-7.464,13.41
		C2391.933,418.425,2412.54,432.548,2435.117,433.46z M2978.448,301.579c7.073,0.37,9.954,0.955,12.708,0.587
		c9.893-1.321,25.591,6.409,28.085-6.265c2.251-11.44-9.531-21.949-21.034-28.124c-3.46-1.857-7.22-3.315-11.003-4.384
		c-26.25-7.421-51.518-4.203-75.73,7.803c-5.395,2.675-12.518,5.422-11.834,12.82c0.691,7.474,8.389,8.682,14.09,10.279
		C2936.259,300.604,2959.665,299.618,2978.448,301.579z M1523.593,302.906c21.963-2.568,44.224-1.614,65.612-8.085
		c5.807-1.757,13.036-3.642,13.402-11.128c0.357-7.289-6.339-10.215-11.893-12.891c-21.635-10.424-44.233-12.815-67.775-8.001
		c-15.113,3.09-27.545,9.872-35.979,23.168c-2.386,3.762-6.186,7.102-3.963,12.168c2.292,5.221,7.375,4.607,11.763,4.704
		C1504.368,303.052,1513.982,302.906,1523.593,302.906z M3522.822,408.956c-9.691,9.805-17.488,17.828-25.454,25.678
		c-2.751,2.711-4.959,3.794-2.541,9.269c14.135,32.011,60.087,53.514,93.663,42.597
		C3555.61,470.891,3539.251,441.224,3522.822,408.956z M914.561,491.43c9.52-0.882,19.032-1.856,28.56-2.625
		c18.674-1.508,34.453-9.53,49.171-20.668c9.267-7.012,12.375-17.841,15.641-27.376c2.122-6.194-9.288-9.52-13.94-14.814
		c-4.062-4.622-8.16-9.212-13.819-15.594C964.735,443.304,946.547,472.767,914.561,491.43z M882.539,288.316
		c-3.023,30.15-25.174,36.508-48.852,40.86c-4.441,0.816-9.015,1.19-13.533,1.243c-8.708,0.101-11.2,2.939-6.802,11.351
		c8.567,16.385,27.53,27.41,46.618,26.251c-6.85-9.792-7.491-10.819,1.576-16.485C885.637,336.482,889.422,314.783,882.539,288.316z
		 M3639,369.506c24.07-1.726,39.509-11.387,49.795-29.425c4.459-7.82,4.117-11.843-6.827-12.354
		c-28.874-1.348-56.618-5.486-63.625-41.847c-3.241,27.436-2.114,52.184,25.984,66.232
		C3658.526,359.212,3648.269,363.8,3639,369.506z M1489.8,534.01c7.978-20.57,4.171-33.116-9.637-41.385
		c-14.195-8.501-35.155-6.812-44.211,3.563c-11.758,13.469-5.185,39.944,10.953,43.976c6.824,1.705,12.789,0.172,15.477-6.724
		c2.875-7.375-3.294-8.073-8.196-9.584c-5.224-1.611-9.595-4.426-8.157-10.856c1.468-6.564,6.82-9.13,12.758-9.199
		C1476.271,503.595,1485.183,514.197,1489.8,534.01z M3014.243,529.302c10.387-20.854,14.845-26.048,24.39-27.854
		c7.539-1.427,15.3-1.306,19.049,6.791c4.094,8.844-2.284,11.785-9.33,14.195c-10.299,3.522-6.398,9.288-0.934,13.373
		c8.864,6.627,15.917,1.984,21.559-5.506c8.282-10.995,7.742-28.703-0.919-37.669c-9.718-10.06-29.686-10.597-44.022-1.185
		C3010.403,500.397,3007.125,511.59,3014.243,529.302z M3877.309,512.072c42.319-25.292,87.275-44.864,133.379-61.945
		C3957.289,451.391,3909.193,464.152,3877.309,512.072z M633.316,516.603c-29.14-45.322-89.31-73.533-140.251-67.076
		C542.037,466.456,588.657,484.426,633.316,516.603z M3703.57,664.981c37.762-19.003,54.911-52.741,78.728-84.837
		C3738.379,593.919,3722.163,628.624,3703.57,664.981z M725.096,579.453c21.866,31.79,37.687,65.517,74.649,82.39
		C783.41,626.309,767.519,592.78,725.096,579.453z M1398.382,315.571c16.693-7.699,30.971-10.51,45.337-12.986
		c14.412-2.483,19.389-14.328,24.998-25.51c2.459-4.903,0.734-7.51-4.45-8.202C1446.28,266.471,1407.029,292.466,1398.382,315.571z
		 M3043.023,269.682c-7.824-1.614-11.323,0.046-7.649,8.587c5.017,11.665,10.425,21.253,25.367,24.05
		c11.158,2.088,23.684,1.619,33.587,9.408c2.39,1.88,5.783,4.765,8.84,1.16c2.844-3.354-0.273-6.224-1.979-8.963
		C3087.743,282.33,3064.622,277.328,3043.023,269.682z M896.84,255.524c18.962,79.379,18.365,88.213-10.181,114.88
		c17.526-0.047,25.571-10.59,30.608-23.436C930.947,312.074,914.368,283.543,896.84,255.524z M3611.037,248.016
		c-9.634,10.508-15.853,22.84-21.478,35.499c-8.241,18.547-12.771,37.621-6.449,57.758c5.543,17.658,16.972,26.822,31.371,26.78
		C3572.506,329.799,3593.965,289.021,3611.037,248.016z M612.159,889.688c5.986,13.658,11.84,27.376,18.029,40.941
		c2.283,5.004,4.611,11.412,11.331,10.785c6.338-0.592,8.511-6.719,10.156-12.159c1.922-6.353,2.066-13.104-5.07-15.879
		C633.339,908.217,623.295,899.239,612.159,889.688z M3892.556,895.153c-11.753,7.524-21.284,16.652-34.189,21.666
		c-5.958,2.314-7.052,8.588-5.326,14.419c1.602,5.411,4.187,11.084,10.471,12.028c5.902,0.887,9.154-4.168,11.275-8.578
		C3881.045,921.671,3886.678,908.353,3892.556,895.153z M3476.708,456.881c-15.796,35.499-0.72,61.11,33.592,61.437
		C3480.452,502.672,3475.21,493.572,3476.708,456.881z M989.985,518.523c36.265-0.95,50.459-25.778,35.663-60.546
		C1030.709,487.382,1018.505,506.916,989.985,518.523z M1948.171,480.211c8.796-9.894,22.487-12.488,33.222-21.762
		C1950.463,454.228,1950.463,454.228,1948.171,480.211z M2525.31,460.224c12.16,5.513,22.534,13.622,34.566,20.975
		C2554.553,455.542,2554.553,455.542,2525.31,460.224z"/>
	<path d="M1581.816,2714.429c42.226,1.028,74.357-20.59,107.326-39.976c6.114-3.595,9.05-6.581,2.374-14.071
		c-14.468-16.23-11.83-36.554,4.818-50.584c17.642-14.867,49.316-17.305,68.859-5.299c22.923,14.083,26.16,49.813,6.347,71.703
		c-8.928,9.865-20.169,16.689-32.435,21.274c-43.375,16.21-88.198,25.109-134.637,24.826
		C1596.837,2722.256,1588.715,2722.763,1581.816,2714.429z"/>
	<path d="M2915.028,2718.633c-6.587,8.48-15.5,8.328-23.607,8.248c-49.185-0.488-96.779-9.133-141.949-29.273
		c-2.578-1.149-5.039-2.574-7.5-3.967c-19.973-11.313-31.157-27.945-29.184-51.397c1.571-18.677,11.492-32.121,29.806-37.248
		c23.379-6.546,45.114-3.171,62.374,15.471c13.984,15.103,13.517,31.309-0.852,46.22c-3.232,3.354-8.053,6.086-1.39,10.15
		C2837.028,2697.76,2871.324,2718.807,2915.028,2718.633z"/>
	<path d="M1583.25,373.806c4.267-7.432,10.832-7.59,16.823-7.801c53.527-1.884,104.943,7.439,153.107,31.277
		c20.066,9.932,32.358,26.427,32.788,49.844c0.398,21.685-10.925,36.788-31.825,42.489c-20.414,5.568-39.524,2.143-56.325-10.589
		c-17.597-13.336-19.577-33.925-4.378-49.719c5.638-5.858,5.455-9.127-0.406-13.179
		C1660.284,393.483,1626.527,373.367,1583.25,373.806z"/>
	<path d="M2921.286,372.302c-42.846-1.312-75.002,19.811-107.499,39.829c-5.916,3.644-12.672,6.435-2.047,15.302
		c14.049,11.725,12.856,29.784,0.623,43.905c-16.86,19.461-55.674,24.064-76.632,9.089c-19.583-13.992-22.787-43.349-6.996-65.423
		c8.137-11.375,19.155-19.279,31.968-24.476c43.52-17.651,88.952-26.015,135.787-26.964
		C2904.698,363.397,2913.178,363.809,2921.286,372.302z"/>
</g>
</svg>
