<?xml version="1.0" encoding="iso-8859-1"?>
<!-- Generator: Adobe Illustrator 25.0.0, SVG Export Plug-In . SVG Version: 6.00 Build 0)  -->
<svg version="1.1" id="Layer_1" xmlns="http://www.w3.org/2000/svg" xmlns:xlink="http://www.w3.org/1999/xlink" x="0px" y="0px"
	 viewBox="0 0 1405.813 1003.262" style="enable-background:new 0 0 1405.813 1003.262;" xml:space="preserve">
<g id="_x28_26_x29__1_">
	<path fill="FRAME_COLOR" d="M199.191,642.539c-0.011-5.947,0.997-11.598,2.528-17.165c4.195-15.255,8.977-30.329,13.967-45.339
		c1.687-5.073,3.017-10.228,3.046-15.625c0.044-8.27-3.391-14.444-11.022-18.012c-3.016-1.41-6.077-2.722-9.121-4.073
		c-13.799-6.122-20.866-17.099-22.547-31.753c-0.606-5.283-0.878-10.645-0.777-15.961c0.186-9.816-2.36-18.743-7.591-26.992
		c-1.104-1.74-3.12-3.762-0.887-5.7c1.898-1.647,3.81,0.28,5.347,1.342c14.112,9.749,28.406,19.26,42.152,29.505
		c11.974,8.925,16.635,21.486,14.218,36.183c-1.843,11.201-2.927,22.397-2.729,35.082c4.615-10.037,8.845-18.915,12.797-27.915
		c4.59-10.454,7.209-21.392,7.766-32.853c0.413-8.488-1.865-16.198-7.921-21.876c-13.074-12.257-14.876-27.153-11.948-43.616
		c0.843-4.742,1.285-9.565,1.726-14.367c0.681-7.421-1.057-14.21-5.647-20.199c-0.762-0.995-2.319-2.201-1.273-3.421
		c1.267-1.477,2.777,0.086,3.913,0.78c1.836,1.121,3.558,2.486,5.15,3.943c13.59,12.444,25.164,26.409,32.676,44.08
		c3.601-7.666,3.728-15.094,1.624-22.628c-0.982-3.519-2.294-6.953-3.591-10.375c-4.193-11.067-3.499-21.838,1.659-32.435
		c1.978-4.062,4.129-8.044,6.955-11.529c8.017-9.886,11.583-21.172,11.541-33.794c-0.009-2.634,0.605-5.287,1.096-7.9
		c0.262-1.395,1.29-2.444,2.722-2.583c1.787-0.174,2.063,1.349,2.341,2.653c3.04,14.255,9.342,27.381,14.222,40.997
		c2.901,8.095,4.733,16.316,4.133,24.945c-1.007,14.488-9.095,24.91-20.268,32.919c-11.235,8.054-17.055,18.822-18.852,32.135
		c-0.879,6.509-2.413,12.865-5.792,18.467c-7.791,12.92-10.084,27.199-11.237,43.215c6.457-11.838,15.499-20.53,20.455-31.944
		c0.398-0.916,0.883-1.8,1.208-2.741c7.989-23.11,25.113-33.509,48.654-34.514c12.142-0.518,24.315-0.345,36.474-0.444
		c1.27-0.01,3.06-0.281,3.348,1.346c0.257,1.458-1.266,2.266-2.52,2.699c-14.738,5.095-23.871,16.329-32.071,28.77
		c-7.618,11.559-18.307,18.195-32.408,18.721c-3.661,0.136-7.33,0.426-10.984,0.308c-7.18-0.233-13.043,2.478-17.687,7.746
		c-12.201,13.844-20.562,30.052-28.098,46.821c2.49-3.002,4.917-6.058,7.479-8.996c14.367-16.473,28.12-19.711,48.162-11.207
		c7.661,3.25,15.213,6.76,22.774,10.24c1.415,0.651,3.579,1.237,3.141,3.259c-0.423,1.953-2.469,1.903-4.179,1.804
		c-6.616-0.385-12.409,1.955-17.854,5.41c-2.109,1.338-4.235,2.662-6.244,4.14c-12.122,8.917-25.072,10.58-39.174,5.158
		c-9.831-3.78-14.677-2.056-20.041,7.056c-6.622,11.249-11.138,23.433-14.566,36.001c-0.588,2.156-1.395,3.886-2.942,5.566
		c-4.607,5.005-8.079,10.618-7.71,17.835C204.986,639.684,201.062,640.197,199.191,642.539z M276.08,493.628
		c8.751-8.283,19.648-13.005,30.353-18.044C294.05,477.839,283.333,482.86,276.08,493.628z M281.698,395.554
		c-4.768,9.396-6.459,19.7-8.115,30.015C278.279,416.141,279.867,405.864,281.698,395.554z M218.955,536.367
		c-1.141-10.36-6.578-18.182-14.424-24.581C209.233,520.042,215.108,527.606,218.955,536.367z M248.588,478.679
		c0.708-9.293-0.392-18.18-4.608-26.465C245.516,461.035,247.052,469.857,248.588,478.679z M246.772,557.285
		c7.871-2.628,16.002-3.898,23.901-6.086C262.141,551.042,253.739,551.417,246.772,557.285z"/>
	<path fill="FRAME_COLOR" d="M453.773,793.434c5.692-0.781,11.391-1.52,17.076-2.353c12.686-1.858,25.408-3.522,37.778-7.08
		c4.021-1.156,7.922-2.605,11.456-4.859c4.408-2.811,7.678-6.578,8.02-12.005c1.279-20.261,13.593-30.477,31.879-35.285
		c8.693-2.286,17.423-4.434,26.156-6.561c1.316-0.321,3.132-1.358,3.952,0.505c0.68,1.544-1.032,2.248-2.055,2.992
		c-6.558,4.769-10.852,11.105-13.523,18.722c-1.539,4.388-3.184,8.807-5.403,12.874c-6.487,11.89-16.51,18.944-30.061,20.605
		c-9.415,1.154-18.42,3.624-27.041,7.791c11.1,0.875,22.138,0.992,33.202,0.926c16.148-0.096,32.342-0.44,48.436,0.585
		c21.371,1.361,33.839,15.564,42.986,33.131c4.293,8.244,6.437,17.305,5.607,27.109c-1.093-1.533-2.103-3.133-3.292-4.587
		c-5.152-6.297-11.876-10.051-19.68-12.045c-5.804-1.483-11.646-2.847-17.376-4.576c-7.382-2.227-13.342-6.629-18.165-12.652
		c-16.794-20.972-17.894-21.497-44.667-21.683c-6.816-0.047-13.632-0.007-20.642-0.007c12.167,4.445,20.594,12.778,24.649,25.256
		c3.734,11.492,7.171,23.03,5.14,35.741c-3.511-11.105-13.395-14.071-22.176-18.462c-8.365-4.183-12.642-11.519-15.035-20.199
		c-0.575-2.086-1.315-4.157-1.607-6.286c-1.321-9.637-5.698-15.287-19.338-15.008c-12.45,0.255-24.863,2.26-37.295,3.47
		c-4.939,0.481-9.884,0.897-14.826,1.342c0,0.421,0.001,0.842,0.002,1.262c4.631,0,9.276-0.231,13.891,0.043
		c14.71,0.871,25.903,7.731,33.658,20.251c3.082,4.976,5.371,10.335,7.72,15.67c3.055,6.942,6.904,13.307,13.243,17.813
		c0.954,0.678,2.141,1.318,1.563,2.733c-0.4,0.981-1.447,1.371-2.485,1.373c-1.992,0.005-4.087,0.298-5.96-0.202
		c-10.647-2.842-21.548-4.265-32.364-6.198c-19.416-3.469-31.79-14.978-35.801-34.276c-2.456-11.82-8.314-17.297-21.459-17.821
		c-17.373-0.692-34.334-4.333-51.377-7.434c-5.938-1.08-9.564-4.072-11.404-9.655c1.607-1.107,2.89,0.115,4.182,0.578
		c27.103,9.717,55.034,10.898,83.331,8.017c3.274-0.333,6.531-1.34,9.669-2.408c9.959-3.392,13.75-8.358,12.364-18.664
		c-2.149-15.98,2.893-28.706,14.836-39.224c7.299-6.428,13.48-13.836,17.298-22.967c0.56-1.339,1.207-3.089,3.158-2.408
		c1.661,0.579,1.019,2.283,0.971,3.51c-0.387,9.876,0.809,19.609,2.243,29.355c3.352,22.775-4.321,35.972-25.711,44.838
		c-5.353,2.219-10.632,4.618-15.945,6.934C453.623,792.447,453.698,792.941,453.773,793.434z M464.542,828.014
		c-8.548-5.46-15.989-12.589-24.892-17.574C446.857,817.847,454.208,825.038,464.542,828.014z M582.199,799.254
		c9.544,4.322,17.747,11.087,27.374,15.256C601.504,807.503,593.023,801.242,582.199,799.254z M467.606,772.883
		c6.756-5.221,10.101-12.441,11.872-20.584C475.521,759.161,471.563,766.022,467.606,772.883z M534.88,771.568
		c7.126-3.735,11.989-9.857,16.962-15.862C544.874,759.606,540.25,765.98,534.88,771.568z M516.187,806.799
		c3.96,5.193,7.92,10.385,11.88,15.578C525.313,816.277,521.639,810.87,516.187,806.799z"/>
	<path fill="FRAME_COLOR" d="M227.29,734.005c12.075,0.142,24.046,0.013,35.942-1.594c1.319-0.178,2.66-0.185,3.985-0.325
		c1.59-0.168,3.292-0.182,3.367,1.863c0.069,1.875-1.895,1.583-3.006,1.784c-10.818,1.949-21.583,4.105-32.129,7.258
		c-1.399,0.418-2.905,0.521-4.082,1.61c1.06,1.794,2.618,0.947,4.018,0.831c10.211-0.851,19.751-4.614,29.647-6.834
		c1.46-0.328,2.897-0.76,4.346-1.14c2.069-0.542,3.234,0.611,3.779,2.331c0.594,1.875-1.122,2.042-2.281,2.583
		c-6.347,2.967-12.317,6.603-18.19,10.397c-1.5,0.969-2.856,2.161-4.652,3.537c2.363,1.346,3.658-0.063,4.874-0.757
		c6.36-3.629,12.83-7.122,18.868-11.238c2.875-1.96,4.107-0.281,5.939,0.995c2.365,1.647,0.955,3.317-0.148,4.618
		c-16.326,19.252-35.098,35.519-58.014,46.514c-6.483,3.111-13.446,3.689-20.485,1.629c-4.039-1.182-7.242-2.945-5.805-8.057
		c0.683-2.429-0.756-2.731-2.673-2.945c-2.634-0.293-5.317-0.615-7.836-1.39c-6.371-1.959-8.629-5.272-7.837-11.889
		c0.293-2.448-0.769-3.106-2.545-4.031c-12.175-6.343-14.145-12.785-7.444-25.117c1.584-2.914,1.422-4.423-1.334-6.503
		c-10.479-7.907-9.552-17.814,2.156-23.848c2.414-1.244,3.803-1.907,2.012-4.926c-2.186-3.683-0.153-6.788,2.66-9.203
		c9.492-8.151,20.648-10.32,32.741-8.66c9.222,1.266,17.539,5.207,25.716,9.328c12.187,6.142,24.14,12.753,36.72,18.099
		c0.916,0.389,1.841,0.821,2.643,1.399c1.107,0.798,2.106,1.878,1.638,3.349c-0.543,1.708-2.133,1.302-3.41,1.187
		c-7.962-0.712-15.918-1.499-23.882-2.191c-1.588-0.138-3.291-0.657-5.451,1.105c4.338,1.373,8.287,1.968,12.275,2.172
		c5.157,0.265,10.333,0.19,15.486,0.504c1.572,0.096,4.473-0.978,4.419,1.53c-0.044,2.025-2.975,1.549-4.661,1.688
		c-6.973,0.575-13.964,0.933-20.945,1.415C238.125,731.468,232.586,732.146,227.29,734.005z"/>
	<path fill="FRAME_COLOR" d="M279.397,673.055c1.832,9.587,3.664,19.175,5.496,28.762c-0.5,0.136-1.001,0.272-1.501,0.408
		c-3.512-12.958-9.528-24.765-15.935-37.117c-0.975,3.748,0.729,6.197,1.756,8.708c3.526,8.621,7.023,17.266,10.946,25.709
		c1.711,3.682,1.553,6.145-2.394,7.963c-5.586-11.22-10.11-23.268-19.262-32.559c-0.871,3.799,0.844,6.799,2.549,9.601
		c4.322,7.103,8.95,14.019,13.398,21.045c0.814,1.286,2.934,2.84,1.074,4.196c-1.319,0.962-3.146-0.776-4.167-1.976
		c-4.858-5.713-9.894-11.253-15.334-16.412c-1.712-1.623-3.202-3.73-6.726-4.037c2.908,4.854,6.664,8.015,10.098,11.427
		c3.897,3.871,7.69,7.891,11.921,11.369c3.625,2.98,0.502,4.976-0.468,7.257c-1.385,3.258-3.118,0.424-4.29-0.165
		c-19.921-10.021-39.992-19.815-56.974-34.672c-5.084-4.448-9.193-9.58-11.73-15.924c-1.326-3.315-1.997-6.691-1.759-10.237
		c0.493-7.331,3.927-11.246,11.209-12.283c2.437-0.347,3.333-1.055,2.456-3.441c-5.223-14.21,10.094-28.724,23.928-25.526
		c2.509,0.58,3.794,0.187,3.835-2.592c0.012-0.813,0.343-1.624,0.541-2.432c2.721-11.101,12.195-14.983,21.858-8.855
		c1.653,1.048,2.476,2.049,4.271-0.214c4.345-5.479,9.175-5.931,15.27-1.795c9.665,6.56,13.755,16.426,15.518,27.43
		c0.76,4.745,1.033,9.611,1.055,14.424c0.085,18.318-0.305,36.643,0.101,54.952c0.134,6.04-4.138,4.531-6.895,5.247
		c-3.789,0.985-2.609-2.67-2.866-4.313c-1.281-8.194-2.939-16.276-5.491-24.155C280.389,672.916,279.893,672.986,279.397,673.055z"
		/>
	<path fill="FRAME_COLOR" d="M361.275,752.095c-12.119-4.335-23.373-7.376-33.881-12.399c-1.501-0.717-3.056-1.335-4.506-2.142
		c-1.823-1.013-4.432-1.148-2.928-4.82c1.331-3.251,2.896-2.61,5.376-2.117c10.702,2.127,21.472,2.483,32.262,0.532
		c1.601-0.29,3.172-0.613,5.771-2.614c-12.413,0-23.471,0.13-34.521-0.097c-2.549-0.052-7.069,1.365-7.319-1.816
		c-0.297-3.784,4.346-2.213,6.803-2.754c6.982-1.537,14.046-2.7,21.072-4.039c0.78-0.149,1.661-0.285,2.075-1.976
		c-3.049,0.163-5.948,0.075-8.761,0.522c-5.256,0.836-10.452,2.041-15.694,2.972c-1.944,0.345-4.751,2.481-5.709-0.164
		c-1.082-2.988,2.617-3.209,4.452-4.237c6.383-3.575,12.957-6.813,19.291-10.469c11.238-6.487,22.285-13.306,33.542-19.759
		c9.595-5.5,19.733-6.97,30.2-2.588c6.111,2.558,7.084,4.755,5.458,11.253c-0.444,1.776-0.862,2.883,1.665,3.552
		c14.514,3.846,17.985,15.582,7.533,26.315c-3.072,3.154-3.02,4.544-0.101,7.647c8.651,9.197,6.981,19.2-3.982,25.626
		c-2.413,1.414-3.996,2.031-1.741,5.331c3.531,5.168,2.099,10.299-3.451,14.212c-9.48,6.684-20.132,9.511-31.656,8.421
		c-23.448-2.217-42.835-12.623-58.733-29.78c-3.052-3.294-5.723-6.947-8.831-10.183c-2.38-2.478-0.668-3.871,0.681-5.823
		c1.714-2.48,3.271-1.471,5.034-0.35c10.426,6.631,21.76,10.709,34.051,12.081C356.488,752.628,358.251,753.16,361.275,752.095z"/>
	<path fill="FRAME_COLOR" d="M315.429,711.149c-0.513-2.554,1.721-2.915,3.146-3.862c10.647-7.07,17.625-17.225,24.249-27.683
		c-0.313-0.275-0.626-0.55-0.938-0.825c-2.385,2.791-4.707,5.639-7.167,8.363c-5.917,6.551-11.842,13.112-19.273,18.034
		c-0.838,0.555-1.957,2.078-2.963,0.866c-1.368-1.649,0.725-2.135,1.572-2.937c9.792-9.266,15.033-21.176,19.685-33.439
		c-4.423,5.025-7.592,10.863-11.184,16.424c-3.339,5.169-6.918,10.184-10.426,15.243c-1.054,1.52-1.931,2.95-4.285,1.224
		c-2.14-1.569-1.032-2.631-0.235-4.074c5.004-9.06,8.664-18.713,12.372-28.339c0.696-1.806,1.672-3.644,1.065-6.277
		c-2.992,3.555-4.813,7.392-6.592,11.157c-3.553,7.516-6.829,15.166-10.088,22.816c-0.866,2.033-1.642,3.532-4.286,2.937
		c-2.708-0.609-2.053-2.603-2.05-4.338c0.035-23.314,2.026-46.582,1.283-69.932c-0.283-8.884,3.329-16.969,10.058-23.173
		c6.282-5.791,11.672-5.867,17.991-0.198c1.702,1.527,2.571,1.072,4.174,0.091c10.699-6.54,19.304-3.155,22.764,9.027
		c0.675,2.376,1.408,2.905,3.743,2.099c2.334-0.806,4.839-1.341,7.303-1.509c14.512-0.988,22.588,8.782,19.026,22.872
		c-0.204,0.806-0.406,1.613-0.607,2.409c0.283,0.224,0.533,0.593,0.765,0.582c9.488-0.426,12.255,2.175,11.958,11.831
		c-0.343,11.167-5.787,20.035-13.524,27.535c-9.27,8.985-20.105,15.827-31.462,21.882c-8.808,4.696-17.575,9.472-26.329,14.269
		c-3.036,1.664-5.991,3.665-7.395-1.715c-0.094-0.361-1.153-0.47-1.763-0.696C315.84,711.576,315.644,711.354,315.429,711.149z"/>
	<path fill="FRAME_COLOR" d="M300.041,778.254c1.579-6.94,1.163-13.804,0.541-20.665c-0.135-1.492-0.313-2.982-0.532-4.464
		c-0.292-1.983,0.582-3.347,2.417-3.762c1.963-0.444,2.548,1.269,2.984,2.669c1.838,5.899,4.273,11.549,6.996,17.077
		c1.011,2.053,1.83,4.302,3.936,5.654c1.299-1.263,0.077-2.188-0.281-3.108c-2.713-6.976-5.349-13.988-8.341-20.844
		c-0.985-2.258-0.395-3.168,1.339-4.429c2.17-1.577,3.261-0.408,4.493,1.139c9.024,11.328,18.257,22.495,27.044,34.003
		c7.706,10.092,13.319,21.14,12.693,34.406c-0.427,9.05-4.252,13.265-13.347,14.086c-2.249,0.203-2.798,1.039-2.888,3.018
		c-0.105,2.316-0.256,4.672-0.774,6.921c-2.855,12.389-13.46,17.175-24.408,10.599c-3.938-2.365-5.858-2.254-8.796,1.435
		c-4.823,6.054-12.768,6.215-19.058,0.732c-2.668-2.325-4.403-3.389-7.926-1.083c-4.62,3.024-9.793,1.023-14.197-4.606
		c-6.386-8.161-9.184-17.616-9.667-27.847c-0.341-7.228,0.54-14.341,2.813-21.18c5.548-16.692,13.055-32.374,24.021-46.306
		c2.244-2.851,4.14-2.763,7.205-1.838c3.574,1.079,2.407,3.387,2.234,5.552c-1.029,12.9-2.091,25.798-2.555,38.775
		c2.833-8.103,4.201-16.472,5.073-24.919c0.444-4.301,0.31-8.663,0.768-12.961c0.203-1.91-1.542-5.087,2.466-5.305
		c4.389-0.239,3.366,3.168,3.62,5.587C298.672,763.806,299.339,771.032,300.041,778.254z"/>
	<path fill="FRAME_COLOR" d="M678.517,146.812c76.488,0,152.976-0.018,229.464,0.01c27.83,0.01,55.661,0.117,83.491,0.213
		c4.571,0.016,7.159,3.997,5.478,8.221c-0.79,1.986-2.528,1.248-3.87,1.247c-7.165-0.001-14.331-0.17-21.496-0.203
		c-126.817-0.577-253.63-2.324-380.454-0.985c-71.486,0.755-142.974,1.645-214.469,0.919c-5.321-0.054-10.65,0.361-15.968,0.68
		c-2.901,0.174-3.58-0.413-2.78-3.606c1.17-4.667,3.725-5.647,8.145-5.716c69.155-1.075,138.317-0.526,207.475-0.949
		c34.994-0.214,69.99-0.037,104.984-0.037C678.517,146.676,678.517,146.744,678.517,146.812z"/>
	<path fill="FRAME_COLOR" d="M949.484,173.517c-16.439,0-32.878-0.005-49.317,0.001c-105.645,0.04-211.291,0.196-316.936,0.082
		c-67.986-0.074-135.967,0.324-203.949,0.89c-1.274,0.011-3.906,1.349-3.431-1.793c0.368-2.435-0.878-6.047,3.882-5.997
		c8.329,0.086,16.662-0.099,24.993-0.2c42.148-0.514,84.311-1.993,126.442-1.372c110.974,1.634,221.951,1.319,332.911,0.319
		c41.509-0.374,82.942,1.933,124.421,1.038c1.409-0.03,4.284-1.169,3.867,1.807c-0.358,2.555,1.099,6.696-4.406,6.487
		c-7.482-0.284-15.001-0.076-22.486,0.283c-10.624,0.509-18.088,9.208-16.203,18.51c1.065,5.256,5.408,8.537,10.008,7.42
		c2.59-0.628,4.636-2.023,4.755-5.018c0.115-2.896-1.491-4.198-4.287-4.365c-3.055-0.183-3.042-1.85-1.922-4.097
		c2.003-4.018,6.939-4.933,11.145-2.012c3.926,2.725,5.872,8.337,4.631,13.356c-1.374,5.559-6.273,9.592-12.272,10.102
		c-12.838,1.092-21.13-9.508-17.881-22.871c1.047-4.306,3.209-8.003,6.353-11.147C949.696,174.466,949.59,173.992,949.484,173.517z"
		/>
	<path fill="FRAME_COLOR" d="M155.403,802.362c5.702,0.971,10.123-1.64,14.514-4.302c4.564-2.768,9.14-5.48,14.422-6.72
		c2.592-0.609,4.386-0.636,4.69,2.896c0.291,3.376,2.491,5.494,5.774,6.824c13.99,5.668,26.874,3.142,38.694-5.419
		c7.939-5.751,15.396-12.167,23.629-18.733c-5.701,18.566-13.841,36.24-7.209,55.773c-3.731,0.989-5.589-0.181-6.966-3.976
		c-3.311-9.124-7.072-18.051-5.037-28.255c-4.345,3.166-5.235,7.491-4.544,12.417c0.705,5.031,3.375,9.371,4.985,14.087
		c3.179,9.307,3.622,18.38,0.219,27.833c-2.325,6.461-4.595,13.425,1.219,19.613c0.492,0.523,0.778,1.223,0.203,1.733
		c-0.429,0.381-1.237,0.705-1.736,0.562c-1.096-0.312-2.359-0.691-3.107-1.471c-8.75-9.137-17.971-17.992-20.782-31.094
		c-1.943-9.057-0.774-17.838,2.944-26.637c-8.36,4.079-12.493,12.229-10.566,20.931c1.768,7.984,3.85,15.877,2.377,24.174
		c-0.708,3.99-1.858,7.784-4.303,11.062c-2.618,3.51-4.751,3.559-7.318-0.36c-6.928-10.577-7.302-21.838-2.72-33.391
		c0.911-2.297,2.268-4.417,3.527-6.826c-6.019,3.355-11.345,13.465-10.765,19.788c0.349,3.807,0.567,7.64,0.568,11.461
		c0.001,2.856-0.72,5.635-2.613,7.917c-0.728,0.877-1.523,1.985-2.826,1.785c-1.437-0.221-1.4-1.633-1.707-2.727
		c-1.09-3.873-1.104-7.863-0.989-12.687c-3.144,2.922-2.356,5.89-2.114,8.612c0.22,2.47,0.975,4.891,1.233,7.361
		c0.254,2.422-0.836,4.51-3.289,4.881c-2.851,0.431-2.715-2.287-3.275-4.079c-0.293-0.938-0.431-1.926-0.894-4.077
		c-3.721,4.978-7.034,9.173-10.082,13.553c-3.252,4.673-6.628,9.191-11.306,12.551c-1.187,0.853-2.391,2.136-4.008,1.355
		c-1.609-0.778-1.379-2.522-1.488-3.986c-0.613-8.187,1.253-15.543,7.264-21.504c1.064-1.055,2.006-2.233,3.077-3.28
		c2.936-2.87,4.375-5.467-0.764-7.604c-1.467-0.61-3.17-1.601-2.199-3.784c0.839-1.885,2.567-1.791,4.276-1.758
		c4.218,0.082,8.941,2.751,12.682-2.902c-4.157,0.386-7.792,0.773-11.437,1.031c-1.134,0.08-2.576,0.12-3.141-1.061
		c-0.717-1.501,0.636-2.473,1.567-3.304c4.153-3.704,9.291-5.047,14.626-5.819c6.217-0.899,12.12-2.343,16.069-9.252
		c-2.994,1.18-5.233,2.09-7.492,2.949c-8.549,3.251-16.702,2.15-24.445-2.432c-4.169-2.467-4.219-4.64-0.21-7.45
		c7.599-5.328,15.977-6.089,24.834-4.106c14.115,3.16,22.618,0.406,32.683-11.135C190.207,824.663,172.408,815.577,155.403,802.362z
		"/>
	<path fill="FRAME_COLOR" d="M984.654,825.124c-4.407-2.465-5.712-5.478-3.91-9.419c0.501-1.095,1.388-1.998,2.587-2.187
		c1.674-0.264,1.542,1.29,2.013,2.279c2.338,4.913,4.868,5.809,9.473,2.752c6.657-4.42,13.047-9.241,19.625-13.782
		c11.465-7.914,24.177-10.861,37.96-9.123c7.012,0.884,13.904,1.013,20.763-1.209c6.043-1.957,12.325-1.166,18.342-0.07
		c17.693,3.222,35.363,6.685,51.714,14.696c0.838,0.41,1.682,0.808,3.706,1.779c-5.4,0.902-9.315-0.331-13.185-1.177
		c-5.526-1.209-10.989-2.726-16.447-4.223c-7.466-2.048-15.661,0.702-15.877,11.03c-0.286,13.641-7.13,23.26-19.112,29.362
		c-9.1,4.634-17.975,9.489-22.147,19.481c-2.233-1.132-1.875-2.436-1.731-3.5c1.42-10.556,2.671-21.152,5.697-31.411
		c3.62-12.273,12.211-19.482,24.058-23.289c5.169-1.661,10.344-3.304,15.372-5.552c-17.14-3.482-33.927-6.264-48.565,7.536
		c-9.13,8.608-20.472,13.8-32.644,16.514c-9.112,2.032-18.16,4.05-26.994,7.148c-9.809,3.44-19.993,3.217-30.156,1.813
		c-10.266-1.418-20.523-2.303-30.877-0.891c-2.221,0.303-4.581,0.706-7.365-0.664c2.313-1.484,4.344-2.69,6.263-4.052
		c1.303-0.924,4.435-1.183,2.926-3.501c-1.312-2.014-4.116-2.806-6.739-1.618c-0.711,0.322-1.396,1.002-1.78,1.692
		c-1.944,3.489-5.222,4.946-9.533,6.298c1.603-4.054,2.992-7.637,4.435-11.199c3.44-8.495,3.879-17.227,1.423-25.96
		c-1.989-7.072-7.101-10.184-12.996-8.596c-2.645,0.712-4.518,2.285-4.772,5.108c-0.289,3.21,2.36,2.448,4.17,2.848
		c1.814,0.401,2.92,1.622,3.084,3.476c0.192,2.176-0.748,3.856-2.577,5.062c-5.324,3.512-12.253,0.111-13.632-6.701
		c-1.337-6.605,1.491-12.585,7.327-15.489c6.2-3.086,14.789-1.552,19.349,3.513c1.2,1.332,2.249,2.799,3.439,4.293
		c2.03-2.217,2.985-4.872,5.442-6.231c3.334-1.845,6.698-2.273,9.807,0.241c2.952,2.388,3.293,5.684,2.195,9.1
		c-0.657,2.046-2.227,3.437-4.439,3.468c-2.564,0.036-2.082-2.018-2.114-3.638c-0.021-1.071-0.315-2.049-1.537-2.214
		c-1.229-0.166-2.295,0.317-3.084,1.293c-1.604,1.984-1.739,4.364-1.336,6.669c3.528,20.216,10.055,26.238,27.38,29.183
		C967.792,827.444,975.738,827.359,984.654,825.124z M1087.834,816.503c-3.913,2.907-6.76,6.66-8.454,11.244
		C1082.944,824.588,1085.479,820.649,1087.834,816.503z"/>
	<path fill="FRAME_COLOR" d="M1231.529,350.082c0,41.214-0.001,81.136,0.003,121.058c0,3.498,0.001,6.997,0.075,10.494
		c0.049,2.343-0.062,3.445-3.29,2.9c-4.708-0.795-6.007-2.674-6.051-7.46c-0.39-42.649,0.086-85.295,0.943-127.926
		c0.258-12.848-3.788-24.036-8.562-35.701c-0.151,13.077-8.128,21.22-17.197,28.816c-4.284,3.589-7.276,8.192-8.485,13.807
		c-0.258,1.196-0.212,2.939-2.064,2.914c-1.391-0.019-1.939-1.358-2.099-2.461c-2-13.783-5.561-27.516-1.704-41.534
		c2.042-7.42,7.149-12.326,13.676-15.775c6.077-3.211,10.666-7.246,11.401-14.62c0.209-2.097,1.706-3.894,3.906-5.656
		c1.478,9.165,3.683,17.802,5.833,26.454c5.294,21.302,16.742,39.38,29.446,56.829c1.81,2.486,2.945,1.924,4.159-0.494
		c1.289-2.565,3.705-3.842,6.334-4.484c4.768-1.164,9.407,2.328,9.413,7.043c0.004,3.103-1.039,5.975-4.697,5.764
		c-4.573-0.263-0.311-3.706-1.849-5.715c-3.136,0.373-5.044,2.702-6.146,5.373c-1.136,2.752,1.512,4.152,3.244,5.516
		c9.292,7.316,19.91,10.587,31.696,9.721c4.382-0.322,8.212-2.143,9.684-6.647c1.172-3.586,0.045-6.919-2.623-9.61
		c-1.727-1.742-3.859-2.737-6.334-2.237c-2.507,0.506-4.971,1.392-1.987,4.373c1.206,1.205,1.095,2.346,0.507,3.578
		c-0.727,1.523-2.143,1.987-3.745,1.984c-4.749-0.008-8.238-5.163-6.579-10.128c1.496-4.479,4.66-7.187,9.559-7.544
		c10.628-0.775,19.58,9.369,17.514,19.873c-0.747,3.798-1.959,7.335-1.303,11.533c0.701,4.49-1.85,8.301-6.476,10.157
		c-4.189,1.681-7.827,0.939-10.925-2.313c-0.776-0.814-1.885-1.71-1.242-2.994c0.746-1.489,1.95-0.668,3.018-0.272
		c0.465,0.173,0.958,0.329,1.448,0.367c2.303,0.182,4.697,0.708,6.561-1.291c0.605-0.648,0.913-1.531,0.417-2.285
		c-1.636-2.488-4.188-1.524-6.408-1.44c-7.175,0.274-14.357,0.477-21.355-1.42c-11.984-3.247-21.103-10.312-27.38-21.043
		C1238.686,362.145,1235.457,356.728,1231.529,350.082z M1206.255,303.479c-2.501,4.646-5.003,9.291-7.504,13.937
		C1203.179,313.889,1205.29,309.141,1206.255,303.479z"/>
	<path fill="FRAME_COLOR" d="M374.459,825.345c3.054,6.65,6.291,10.9,12.211,12.569c7.684,2.166,14.368,6.11,20.109,11.633
		c1.148,1.104,2.907,2.259,1.943,4.152c-1.041,2.045-3.151,1.564-4.921,1.175c-4.358-0.956-7.996-3.625-12.995-6.4
		c2.328,4.511,4.721,6.718,8.314,7.646c3.08,0.795,6.03,1.992,8.534,3.984c1.315,1.046,2.49,2.651,1.935,4.319
		c-0.712,2.14-2.802,1.127-4.368,1.126c-1.615-0.001-3.033-1.341-5.023-0.749c0.217,3.696,2.521,6.434,4.196,9.357
		c4.671,8.151,5.407,16.669,2.777,25.547c-1.282,4.328-2.508,4.624-5.566,1.327c-4.817-5.194-8.301-11.185-10.483-17.962
		c-1.569-4.874-3.395-9.666-5.195-14.746c-2.423,2.115-1.609,4.614-2.077,6.763c-0.333,1.528-0.93,2.989-2.624,3.293
		c-1.764,0.316-2.679-0.986-3.419-2.361c-1.68-3.122-1.898-6.206-0.375-9.55c1.758-3.86,3.264-7.865,2.478-13.227
		c-2.707,3.43-2.806,6.831-3.731,9.906c-0.477,1.587-0.721,3.26-1.338,4.785c-0.508,1.256-1.524,2.253-3.077,2.11
		c-1.59-0.146-2.235-1.388-2.534-2.712c-1.098-4.853-0.338-9.6,1.041-14.28c4.331-14.695,2.675-22.83-7.692-35.581
		c1.109,5.816,3.273,10.575,3.964,15.712c1.466,10.885-0.611,20.818-6.965,29.855c-4.418,6.283-9.447,12.051-14.537,17.774
		c-0.943,1.06-1.968,2.932-3.559,1.913c-1.357-0.869-0.024-2.357,0.452-3.559c2.246-5.676,1.215-11.502,0.621-17.277
		c-0.615-5.982-1.055-11.935,0.139-17.898c1.027-5.127,2.994-9.242,7.261-13.023c8.315-7.367,7.737-17.417,5.6-27.393
		c-0.34-1.586-1.54-2.976-1.12-4.816c2.03,0.188,3.069,1.857,4.501,2.854c3.421,2.383,7.028,3.691,11.263,2.767
		c15.395-3.358,28.65,0.093,39.39,12.116c1.955,2.189,4.756,3.614,7.137,5.431c4.101,3.131,7.132,6.913,7.492,12.26
		c-0.368,0.306-0.749,0.708-0.813,0.663c-5.28-3.74-11.189-3.562-17.203-2.847C395.411,833.286,385.035,832.204,374.459,825.345z
		 M353.517,849.444c2.355-5.001,3.593-10.21,2.894-15.781C355.446,838.923,354.482,844.183,353.517,849.444z"/>
	<path fill="FRAME_COLOR" d="M375.18,160.033c-3.218,8.167-2.092,17.467-7.621,24.876c-3.139,4.206-7.263,6.771-12.162,8.257
		c-5.866,1.78-11.749,3.505-18.044,6.538c12.026,3.722,23.327,4.893,34.781,0.958c2.104-0.723,3.571-2.403,5.146-3.883
		c6.591-6.192,14.459-9.676,23.436-9.777c11.085-0.125,21.797-1.836,32.451-4.876c13.892-3.964,27.933-3.635,41.992-0.263
		c7.894,1.893,15.905,4.056,23.958,0.337c0.621-0.287,1.628-0.242,2.355,0.753c-1.357,2.267-4.338,3.461-5.012,6.64
		c1.359,0.374,2.577,0.851,3.838,1.03c5.346,0.762,5.346,0.728,2.904,6.102c-1.329,2.923-1.608,6.095-2.192,9.201
		c-1.215,6.459-4.144,11.633-10.951,13.549c-6.72,1.891-13.723-2.809-13.755-9.126c-0.022-4.412,3.709-7.567,7.534-6.198
		c2.539,0.909,3.815,2.672,2.315,5.42c-0.504,0.923-2.959,1.011-1.171,2.881c1.293,1.352,2.795,1.787,4.524,1.002
		c4.052-1.839,5.486-5.352,5.111-9.396c-0.526-5.669-3.298-9.962-8.791-12.341c-9.041-3.916-27.855-5.718-39.491-3.045
		c4.824,0.304,6.631,2.396,8.147,5.118c2.595,4.658,4.903,4.703,8.264,0.627c0.842-1.021,1.042-3.5,2.983-2.555
		c1.532,0.747,0.543,2.74,0.376,4.154c-0.308,2.604-1.322,4.965-3.993,5.853c-3.143,1.044-6.326,0.168-8.147-2.333
		c-2.432-3.34-4.535-4.386-7.531-0.758c-3.119-11.073-2.14-10.078-12.044-5.372c-12.013,5.708-23.685,14.005-37.162,13.641
		c-18.22-0.491-36.709,2.834-54.759-2.663c-4.318-1.315-8.59-3.451-13.844-3.248c4.25,4.714,9.165,7.453,14.777,8.556
		c10.248,2.014,16.396,8.201,19.562,17.851c2.483,7.568,4.786,15.264,12.158,19.683c-1.247,2.012-2.619,1.514-3.854,1.12
		c-9.028-2.884-18.294-5.171-26.757-9.558c-7.433-3.853-12.643-9.622-11.919-18.562c0.69-8.52-3.503-13.833-10.105-18.019
		c-1.546-0.98-3.104-1.942-4.684-2.866c-1.164-0.681-2.444-1.229-1.953-2.986c0.579-2.071,2.11-1.753,3.624-1.463
		c5.754,1.103,11.483,1.904,17.293,0.172c4.521-1.348,7.735-3.835,8.516-8.725c1.641-10.28,7.729-16.604,17.389-19.92
		C367.043,164.921,371.145,162.808,375.18,160.033z"/>
	<path fill="FRAME_COLOR" d="M852.038,842.749c66.479,0,132.959-0.022,199.438,0.116c1.845,0.004,5.47-2.209,5.645,2.327
		c0.191,4.947-1.466,6.716-6.17,6.734c-86.64,0.341-173.284-0.807-259.921,0.349c-46.486,0.62-92.965,1.281-139.445-0.056
		c-1.655-0.048-5.439,2.136-4.882-2.209c0.363-2.831-1.798-7.283,4.899-7.16C718.411,844.079,785.225,842.815,852.038,842.749z"/>
	<path fill="FRAME_COLOR" d="M1181.952,219.683c1.167,2.556,0.957,4.726-0.691,7.26c-2.035,3.128-3.858,6.548-4.614,11.371
		c3.83-3.358,4.98-7.269,6.82-10.755c0.773-1.464,0.866-4.026,3.455-3.486c2.898,0.605,2.528,3.013,2.392,5.221
		c-0.203,3.28-0.319,6.566,0.318,9.91c0.524-3.69,1.047-7.381,1.571-11.071c0.142-1.001,0.24-2.107,1.618-2.058
		c1.484,0.053,1.111,1.315,1.323,2.215c0.679,2.881,1.404,5.751,2.83,8.49c-0.361-2.9-0.717-5.801-1.086-8.7
		c-0.151-1.191-0.323-2.428,1.204-2.84c1.229-0.331,2.303,0.001,3.027,1.148c9.202,14.591,16.391,29.611,9.556,47.401
		c-0.885,2.303-2.246,4.46-3.625,6.525c-1.426,2.134-3.575,3.231-6.041,1.978c-2.045-1.04-3.056-0.625-4.501,1.129
		c-3.994,4.852-7.797,5.393-13.046,1.871c-1.902-1.276-3.231-1.519-5.369-0.519c-6.634,3.105-10.173,1.944-13.439-4.476
		c-1.058-2.08-2.108-2.381-4.223-2.155c-9.247,0.991-12.301-2.151-10.959-11.359c0.251-1.724-0.09-2.188-1.514-2.923
		c-3.476-1.795-4.203-4.783-3.253-8.482c1.473-5.735,4.854-10.219,9.154-14.003c6.125-5.389,12.485-10.509,18.681-15.818
		c2.367-2.028,5.266-3.571,6.546-6.676c0.642-0.354,1.285-0.708,1.928-1.063C1180.663,218.44,1181.307,219.062,1181.952,219.683z"/>
	<path fill="FRAME_COLOR" d="M1092.013,204.252c-13.005,3.583-26.124,1.413-39.217,1.015c-2.954-0.09-6.016,0.37-8.89,1.112
		c-11.704,3.022-21.513-0.331-29.361-9.06c-5.886-6.547-11.153-13.655-16.611-20.58c-1.091-1.384-2.342-2.881-1.541-5.805
		c9.588,8.088,20.98,5.807,31.896,6.217c10.141,0.38,19.17,3.735,23.948,12.861c6.529,12.472,14.938,14.248,31.114,12.509
		c0.813-0.087,1.6-0.409,3.171-1.16c-22.742-4.759-24.892-21.781-25.002-41.211c5.573,7.205,13.473,10.071,19.404,15.591
		c3.128,2.911,5.36,6.247,6.126,10.584c2.055,11.638,7.444,15.082,19.153,12.431c1.097-0.248,2.109-1.087,3.408-0.375
		c-0.617,3.044-3.177,4.067-5.56,5.143c-7.276,3.283-11.723,8.075-11.44,16.829c0.32,9.874-4.951,16.922-13.179,22.031
		c-8.011,4.975-16.621,8.394-25.806,10.374c-1.998,0.431-4.141,1.029-7.222-0.661c11.299-4.872,12.216-15.521,15.859-24.54
		c3.207-7.942,8.336-13.814,16.634-16.846C1083.372,209.075,1088.025,207.668,1092.013,204.252z M1033.242,192.948
		c4.816,1.511,9.631,3.022,14.447,4.533C1043.304,194.549,1038.536,192.85,1033.242,192.948z"/>
	<path fill="FRAME_COLOR" d="M1207.028,218.087c1.772-2.335,3.859-2.565,6.526-1.419c5.194,2.231,10.492,4.219,15.756,6.286
		c1.634,0.642,3.134,1.812,5.542,1.399c-3.519-3.435-7.618-5.134-11.636-6.96c-3.914-1.779-8.199-2.334-12.308-3.8
		c6.22-1.069,12.373,1.422,18.604-0.461c-5.378-0.707-10.754-1.425-16.134-2.112c-1.374-0.175-2.759-0.333-2.849-2.111
		c-0.077-1.512,1.028-1.764,2.26-2.081c20.43-5.245,39.357-3.058,55.617,11.514c5.645,5.059,11.567,10.333,6.024,19.099
		c-0.652,1.031,0.46,1.802,0.909,2.643c0.703,1.317,1.541,2.587,2.053,3.976c2.299,6.237,0.44,9.233-6.089,9.863
		c-1.485,0.143-3.053,0.307-4.481-0.005c-3.39-0.741-4.85,0.135-5.601,3.856c-0.863,4.281-5.057,5.016-8.747,5.204
		c-12.906,0.656-23.601-4.921-33.293-12.666c-7.877-6.295-12.199-15.233-16.8-23.93c-1.033-1.953,0.4-3.023,0.785-4.486
		c0,0-0.17,0.187-0.17,0.187c2.403-0.526,3.431,1.135,4.707,2.717c4.19,5.196,8.74,10.014,15.246,12.545
		c-4.089-5.113-8.551-9.852-13.111-14.493c-1.4-1.425-3.086-2.575-2.675-4.931L1207.028,218.087z"/>
	<path fill="FRAME_COLOR" d="M1197.851,777.869c0.29,1.561-0.759,2.381-1.781,3.214l0.096-0.103c-3.861-0.967-6.104-4.277-9.197-6.357
		c-2.265-1.524-4.348-3.438-7.271-3.494c3.257,2.891,6.717,5.367,10.183,7.834c1.782,1.269,3.505,2.564,3.162,5.137l0.122-0.135
		c-3.327,0.909-5.467-2.64-8.726-2.536c1.065,2.663,4.575,2.328,5.557,5.367c-5.161,0.908-8.786-3.505-13.746-3.672
		c3.508,4.439,9.341,4.288,12.815,7.986l0.145-0.186c-4.783,2.2-9.326-1.473-14.498-0.605c3.366,1.915,6.843,1.604,10.049,2.288
		c2.44,0.52,3.277,1.501,3.421,3.877c0.164,2.712-1.732,2.337-3.268,2.614c-9.804,1.772-19.088,5.84-29.19,6.369
		c-7.027,0.368-13.6-0.842-19.605-4.533c-6.547-4.024-7.706-9.023-3.267-15.129c1.324-1.821,0.501-2.472-0.498-3.661
		c-5.409-6.436-4.833-11.091,2.251-15.498c2.285-1.421,2.712-2.613,2.082-5.162c-2.029-8.206,0.648-12.018,8.839-13.096
		c1.463-0.193,2.69,0.178,2.913-2.216c0.38-4.072,3.532-5.326,7.213-5.274c11.571,0.162,19.523,6.58,26.083,15.293
		c5.464,7.257,10.861,14.564,16.288,21.849L1197.851,777.869z"/>
	<path fill="FRAME_COLOR" d="M1180.018,217.819c-0.643,0.354-1.286,0.709-1.928,1.063c-6.624,4.745-13.245,9.496-19.874,14.235
		c-5.587,3.994-11.534,7.269-18.199,9.118c-3.61,1.001-7.237,1.041-10.871,0.221c-7.484-1.689-8.832-4.269-5.761-11.275
		c-1.135-0.323-2.254-0.611-3.354-0.958c-7.451-2.348-9.654-7.552-5.644-14.172c1.362-2.248,1.529-3.385-0.527-5.319
		c-5.112-4.809-4.611-9.665,1.272-13.546c2.235-1.475,3.778-2.123,2.284-5.591c-1.808-4.197,1.961-6.36,5.29-7.601
		c10.503-3.915,21.102-4.261,31.721-0.215c8.077,3.078,14.482,8.773,21.51,13.498c1.09,0.733,2.257,1.351,3.389,2.022
		c0,0-0.163-0.17-0.163-0.17c1.849,3.719,0.027,4.388-3.206,3.826c-4.754-0.826-9.409-2.421-14.363-1.815
		c4.572,2.008,9.427,2.63,14.312,3.153c1.059,0.113,2.638-0.056,2.292,1.756c-0.248,1.298-1.493,1.028-2.465,1.015
		c-6.145-0.083-12.253-1.284-19.054-0.638c3.661,2.493,7.442,1.705,10.885,2.316c2.279,0.404,4.653,0.246,6.976,0.432
		c1.229,0.098,3.01-0.287,3.117,1.556c0.085,1.458-1.63,1.478-2.622,1.871c-5.694,2.254-11.43,4.403-17.039,6.96
		c5.52,0.483,10.263-1.975,15.068-4.114c2.152-0.958,4.214-2.058,6.648-1.053C1179.814,215.536,1179.916,216.677,1180.018,217.819z"
		/>
	<path fill="FRAME_COLOR" d="M192.846,665.898c-2.579-0.902-3.5-2.727-4.595-4.313c-3.509-5.08-6.787-10.354-9.115-16.05
		c-6.54-16.003-15.458-29.811-29.841-40.324c-11.56-8.449-13.548-21.548-11.819-35.212c0.963-7.611,1.564-15.207,0.95-22.921
		c-0.487-6.117-2.051-11.758-4.928-17.126c-0.649-1.211-2.35-2.642-0.934-3.979c1.535-1.45,3.168,0.129,4.41,1.028
		c4.724,3.418,9.379,6.944,13.284,11.33c5.987,6.725,12.351,13.065,18.917,19.233c13.194,12.393,17.849,27.042,10.664,44.337
		c-5.35,12.877-4.209,25.331,1.596,37.703c3.534,7.532,6.869,15.158,10.259,22.758C192.14,663.362,192.383,664.455,192.846,665.898z
		 M168.851,611.851c0.142-9.197-4.464-25.625-8.109-30.23C163.088,591.404,165.309,601.049,168.851,611.851z"/>
	<path fill="FRAME_COLOR" d="M234.121,193.785c-5.264-6.638-7.382-15.032-13.081-21.329c1.45,6.304,4.627,11.841,7.669,17.433
		c0.476,0.876,1.09,1.675,1.599,2.535c0.686,1.158,1.587,2.608,0.401,3.627c-1.274,1.095-2.547-0.222-3.372-1.141
		c-3.222-3.592-6.301-7.312-9.466-10.957c-1.175-1.353-2.064-3.055-5.049-3.886c1.562,5.242,4.611,8.664,7.882,11.929
		c1.881,1.878,3.965,3.562,5.762,5.512c1.281,1.39,1.239,3.406-1.082,2.791c-14.41-3.823-29.604-6.255-39.526-19.235
		c-1.69-2.211-2.82-4.891-3.96-7.464c-0.512-1.156-0.998-3.399-0.499-3.756c3.838-2.747,2.632-6.593,2.94-10.263
		c0.208-2.473,2.669-3.854,4.971-4.385c2.519-0.581,3.449-1.337,3.131-4.283c-0.719-6.643,2.489-9.459,9.387-8.4
		c2.357,0.362,3.023-0.181,3.848-2.278c2.814-7.154,5.468-8.164,12.51-4.998c1.291,0.58,1.954,0.735,2.864-0.513
		c3.188-4.372,7.088-3.481,10.309-0.473c7.255,6.777,11.315,15.426,11.023,25.313c-0.299,10.12-3.186,20.045-3.333,30.243
		c-0.017,1.162-0.29,2.661-1.422,2.968c-1.646,0.448-2.25-1.169-2.665-2.383c-1.761-5.158-3.415-10.352-5.419-15.437
		C229.487,181.601,232.572,187.472,234.121,193.785z"/>
	<path fill="FRAME_COLOR" d="M256.062,225.99c5.771,6.681,13.25,11.466,19.531,17.591c3.977,3.878,7.783,7.755,8.873,13.523
		c1.122,5.934-0.193,8.714-5.944,10.606c-1.911,0.628-1.599,1.543-1.663,2.875c-0.428,8.864-4.132,11.721-13.027,9.738
		c-2.172-0.484-2.797,0.143-3.729,1.891c-3.155,5.923-6.954,7.019-12.598,3.639c-1.669-0.999-2.811-1.196-4.465-0.072
		c-4.459,3.03-8.573,1.828-12.211-1.571c-6.295-5.882-8.28-13.604-8.344-21.783c-0.099-12.505,3.064-24.381,8.216-35.717
		c0.646-1.421,0.886-4.001,3.529-3.27c2.654,0.734,2.012,2.984,1.947,4.973c-0.182,5.568-0.666,11.152,0.708,16.717
		c1.437-4.724,0.799-9.603,1.057-14.416c0.103-1.908-1.674-5.048,1.356-5.478c3.265-0.463,2.666,3.164,3.349,5.169
		c1.099,3.23,1.934,6.551,3.955,9.57c-0.929-4.054-1.82-8.117-2.808-12.156c-0.319-1.304-1.09-2.711,0.764-3.316
		c1.514-0.494,1.912,1,2.451,1.941c1.777,3.104,3.452,6.271,6.69,8.296c-1.678-2.754-3.389-5.488-5.017-8.271
		c-0.646-1.105-1.592-2.321-0.071-3.506c1.406-1.095,2.482-0.167,3.551,0.636c1.294,0.972,2.177,2.587,4.088,2.582L256.062,225.99z"
		/>
	<path fill="FRAME_COLOR" d="M205.585,213.638c6.714,0.291,13.22-1.451,19.95-1.729c-7.783,4.198-16.381,5.657-24.748,7.988
		c7.446,0.898,14.422-1.011,21.346-3.407c1.407-0.487,3.158-2.6,4.369-0.589c1.34,2.225-1.34,2.999-2.657,3.908
		c-3.915,2.699-8.166,4.944-10.866,9.3c4.349-2.842,8.678-5.717,13.063-8.504c1.077-0.685,2.076-2.39,3.659-0.313
		c1.17,1.536,1.432,2.693,0.432,4.444c-9.67,16.923-23.963,25.808-43.692,25.417c-3.745-0.074-7.201-1.263-10.586-2.65
		c-3.019-1.237-5.02-3.487-4.635-6.926c0.308-2.751-0.752-3.44-3.279-3.437c-1.961,0.002-3.982-0.381-5.873-0.941
		c-6.729-1.995-8.169-5.945-3.788-11.44c2.476-3.105,5.249-5.388,3.287-10.152c-1.011-2.456,1.245-5.081,3.493-6.695
		c13.527-9.707,28.013-15.309,44.901-10.08c3.967,1.228,7.862,2.728,11.881,3.736c3.07,0.77,3.637,2.512,3.611,5.363
		c-0.033,3.571-2.607,2.743-4.523,3.135C215.791,211.118,210.407,211.106,205.585,213.638z"/>
	<path fill="FRAME_COLOR" d="M1198.025,778.042c-0.577-3.946-3.216-6.818-5.319-9.928c-4.381-6.479-9.117-12.724-13.365-19.286
		c-4.356-6.728-5.813-14.162-3.357-21.958c1.814-5.757,5.193-7.677,11.033-6.452c1.867,0.391,2.82,0.349,4.03-1.432
		c3.798-5.588,8.431-6.257,13.294-1.814c1.97,1.799,2.934,1.651,4.883,0.099c4.6-3.665,7.395-3.354,11.735,0.847
		c1.104,1.068,1.879,1.887,3.785,1.491c5.939-1.232,8.697,0.444,10.245,6.264c2.796,10.516,2.123,20.792-2.947,30.575
		c-4.323,8.342-10.192,15.583-16.399,22.559c-0.787,0.885-1.559,2.639-3.142,1.622c-1.369-0.879-0.62-2.423-0.306-3.678
		c1.401-5.602,2.838-11.194,3.838-16.909c-3.729,5.451-3.442,12.373-7.084,17.954c0.49-7.353,0.395-14.633-0.166-21.978
		c-1.144,7.188-0.868,14.571-3.128,21.585c-0.899-7.625-0.416-15.256-2.575-22.751c-1.125,6.043-1.562,12.155-0.331,18.259
		c0.901,4.471-0.665,5.84-4.895,4.761C1197.851,777.869,1198.025,778.042,1198.025,778.042z"/>
	<path fill="FRAME_COLOR" d="M1177.674,822.69c4.468-1.674,7.377-5.131,10.635-8.145c1.711-1.582,3.263-3.341,5.02-4.867
		c1.042-0.905,2.235-2.562,3.794-1.129c1.223,1.123,0.097,2.517-0.504,3.617c-2.769,5.076-5.624,10.105-8.067,15.402
		c3.891-3.665,6.036-8.496,8.583-13.089c0.875-1.577,0.763-5.151,2.916-4.353c2.74,1.015,0.095,3.714-0.207,5.601
		c-2.445,15.273-9.647,28.584-17.581,41.544c-3.48,5.684-8.123,10.153-14.747,12.004c-5.987,1.674-8.526,0.668-11.748-4.788
		c-0.927-1.569-1.966-1.343-3.319-1.25c-7.021,0.483-10.58-3.55-8.843-10.499c0.722-2.887,0.538-4.149-2.415-5.645
		c-5.317-2.693-5.563-11.242-0.456-16.955c2.571-2.876,4.907-5.166,4.682-9.609c-0.16-3.153,2.686-5.617,5.473-7.316
		c11.256-6.861,23.744-10.297,36.497-12.96c0.839-0.175,1.667-0.021,2.395,1.51c-6.349,3.84-12.787,7.82-18.713,14.015
		c4.102-0.636,6.038-3.203,8.507-4.759c3.093-1.95,6.089-4.054,9.107-6.122c1.318-0.904,2.601-1.671,3.894-0.02
		c1.435,1.833-0.148,2.662-1.265,3.588C1186.214,812.686,1181.479,817.255,1177.674,822.69z"/>
	<path fill="FRAME_COLOR" d="M1218.006,182.024c-5.266,2.609-9.236,6.497-12.44,11.212c-0.905,1.331-1.555,3.508-4.189,2.177
		c-2.134-1.079-2.048-2.637-1.902-4.571c0.64-8.456,1.279-16.915,1.711-25.384c0.394-7.719,2.907-14.684,7.347-20.875
		c4.569-6.371,8.084-6.819,14.424-2.218c1.312,0.952,2.066,0.185,3.128-0.178c6.796-2.323,11.138-0.008,12.334,7.017
		c0.508,2.984,1.67,3.029,4.222,2.857c6.738-0.455,9.696,2.508,8.988,9.174c-0.279,2.632,0.835,2.995,2.695,3.661
		c5.708,2.043,6.496,4.789,2.874,9.676c-1.366,1.844-3.054,3.268-1.227,6.051c1.166,1.777-0.489,3.83-1.69,5.406
		c-6.23,8.173-13.794,14.377-24.284,16.206c-5.726,0.999-11.449,2.023-17.146,3.171c-1.66,0.335-2.942,0.504-3.492-1.494
		c-0.515-1.87-0.061-3.245,1.826-4.031c3.209-1.336,6.269-2.922,8.519-5.972c-2.415,1.195-4.831,2.391-8.519,4.215
		c4.545-4.794,8.796-8.082,12.272-13.137c-4.131,1.222-5.805,4.429-8.334,6.463c-1.803,1.45-3.331,3.247-4.958,4.912
		c-1.199,1.228-2.785,2.784-4.226,1.42c-1.89-1.79,0.717-2.721,1.629-3.8C1210.985,189.944,1214.518,186.002,1218.006,182.024z"/>
	<path fill="FRAME_COLOR" d="M256.249,226.181c-0.285-2.615-6.023-3.389-2.953-6.697c2.508-2.701,4.823,1.227,7.263,1.968
		c4.174,1.267,8.013,3.687,12.785,2.995c-4.991-2.099-9.946-4.29-14.992-6.246c-1.796-0.696-3.051-1.309-2.271-3.504
		c0.765-2.154,2.202-1.224,3.677-0.992c5.542,0.873,11.109,1.589,16.802,1.661c-5.528-4.964-12.874-2.336-20.538-4.397
		c3.284-1.062,5.175-1.673,7.204-2.33c-2.029-0.816-4.138,0.732-6.495-1.12c6.345-1.992,12.736-0.982,19.004-3.111
		c-5.113-1.166-9.689,0.557-14.321,0.727c-2.472,0.09-5.097,0.089-5.661-2.501c-0.484-2.225,2.39-2.395,3.906-2.973
		c9.504-3.621,17.76-9.847,27.521-12.945c7.274-2.309,14.407-2.61,21.438,0.574c5.093,2.306,6.177,4.746,3.954,9.802
		c-0.964,2.192-0.136,2.801,1.336,3.915c5.962,4.512,6.456,8.797,1.283,14.081c-2.175,2.222-2.708,3.737-1.172,6.684
		c3.044,5.841,1.013,10.263-5.29,12.492c-2.174,0.769-3.799,0.979-2.776,4.242c1.351,4.313-1.937,6.468-5.471,7.503
		c-7.224,2.115-14.279,1.426-20.548-2.947c-6.687-4.664-13.141-9.664-19.705-14.504c-1.317-0.971-2.4-2.334-4.17-2.571
		C256.062,225.99,256.249,226.181,256.249,226.181z"/>
	<path fill="FRAME_COLOR" d="M227.882,291.128c-0.205,12.384-3.248,24.714,1.789,36.703c2.842,6.764,2.306,14.114,0.558,21.178
		c-3.638,14.702-8.827,28.761-19.943,39.627c-10.187,9.958-22.212,15.09-36.79,12.084c-2.449-0.505-4.918-0.979-7.391-0.055
		c-1.458,0.545-2.883,1.254-2.973,2.988c-0.096,1.869,1.39,2.748,2.911,2.84c5.579,0.34,1.781,4.066,1.611,5.606
		c-0.285,2.588-2.633,0.894-3.912,0.378c-8.449-3.415-10.092-11.005-3.491-17.052c1.887-1.729,0.971-2.655,0.29-4.131
		c-2.72-5.901-3.083-11.948-0.385-17.905c2.567-5.669,7.239-8.679,13.413-8.863c5.128-0.153,9.535,1.615,12.09,6.462
		c2.031,3.852,2.084,7.728-0.616,11.287c-2.379,3.135-6.044,3.446-9.25,0.857c-2.923-2.361-4.61-5.015-1.021-8.239
		c0.617-0.554,1.433-1.061,1.049-2.018c-0.459-1.143-1.628-0.981-2.568-1.012c-3.552-0.117-6.21,1.606-7.622,4.687
		c-2.02,4.407-1.637,8.883,1.441,12.702c3.551,4.406,8.478,5.544,13.936,5.034c16.851-1.575,32.192-19.354,32.03-37.242
		c-0.085-9.303-1.287-18.68,2.124-27.713c0.411-1.09,0.545-2.331,1.139-3.298c7.593-12.362,7.197-26.019,6.618-39.735
		c-0.074-1.755-0.698-3.617,0.575-5.737c2.928,1.657,4.254,4.609,5.721,7.171c5.028,8.779,11.834,13.443,22.484,12.17
		c6.831-0.817,11.566,3.474,15.131,8.898c3.085,4.693,5.132,10.195,10.536,13.007c0.601,0.313,1.212,0.872,0.788,1.554
		c-0.283,0.454-1.076,0.932-1.568,0.865c-10.313-1.405-21.112-0.416-30.57-6.1c-4.324-2.598-6.863-6.679-9.206-10.95
		C233.868,301.808,230.862,296.475,227.882,291.128z"/>
	<path fill="FRAME_COLOR" d="M1219.595,790.045c5.927-1.967,11.853-3.934,17.78-5.901c-0.075-0.281-0.15-0.561-0.225-0.842
		c-3.087,0.688-6.631,0.651-9.153,2.238c-3.572,2.247-6.784-0.301-10.165,0.324c-1.093,0.202-3.972-1.801-1.346-4.525
		c5.927-6.149,10.423-13.402,15.096-20.491c2.993-4.541,6.922-7.465,12.205-8.821c8.705-2.235,17.446-2.689,26.234-0.812
		c6.535,1.396,8.113,3.586,7.431,10.418c-0.188,1.887,0.471,2.307,1.964,2.637c1.295,0.287,2.588,0.68,3.804,1.206
		c6.399,2.766,7.407,8.098,1.85,12.215c-3.515,2.604-6.068,5.423-7.266,9.604c-0.354,1.238-1.23,2.362-2.007,3.437
		c-8.225,11.39-34.345,17.831-46.927,11.629c-2.387-1.177-4.829-2.247-7.28-3.286c-1.751-0.742-2.504-1.595-2.03-3.793
		c0.421-1.954,1.073-2.718,3.007-2.943c6.556-0.762,13.191-1.137,19.438-3.815c-7.45,0.821-14.899,1.643-22.349,2.464
		C1219.634,790.674,1219.615,790.359,1219.595,790.045z"/>
	<path fill="FRAME_COLOR" d="M1216.257,804.006c2.369,3.231,4.707,6.422,7.046,9.612c-0.19-3.973-2.548-6.808-4.556-9.85
		c-0.744-1.127-2.373-2.505-1.029-3.9c0.946-0.982,2.546-0.045,3.724,0.437c8.008,3.273,15.149,7.66,19.431,15.592
		c4.505,8.345,9.244,16.591,10.815,26.151c0.547,3.329,0.673,6.626-0.622,9.836c-0.637,1.579-1.456,3.547-3.126,3.591
		c-3.12,0.082-3.358,1.889-4.183,4.248c-1.486,4.248-5.393,4.172-8.818,2.992c-2.708-0.934-3.662-0.17-4.987,2.075
		c-3.719,6.301-9.754,6.888-14.768,1.372c-1.814-1.996-2.932-2.743-5.713-1.557c-4.241,1.81-7.186-0.05-9.245-4.959
		c-3.554-8.472-3.151-17.288-1.851-26.065c1.022-6.901,2.557-13.729,3.959-20.57c0.245-1.197,0.255-2.997,2.013-3.017
		c2.381-0.028,1.636,2.073,1.784,3.37c0.646,5.687,0.492,11.493,3.103,16.916c-0.474-6.084-0.883-12.175-1.464-18.249
		c-0.157-1.638-0.325-3.209,1.596-3.554c1.822-0.328,1.974,1.562,2.31,2.676c1.209,4.009,2.872,7.707,6.695,10.32
		c-1.383-3.152-2.401-6.539-4.242-9.397C1211.847,808.534,1211.915,806.044,1216.257,804.006z"/>
	<path fill="FRAME_COLOR" d="M208.953,687.408c-4.159,0.085-6.569-1.035-8.923-2.185c-10.271-5.019-20.677-5.552-31.445-1.569
		c-4.032,1.491-8.281,2.605-12.528,3.268c-10.202,1.591-19.095-1.755-26.783-8.32c-7.863-6.714-15.775-13.305-25.078-18.005
		c-1.162-0.587-2.153-1.554-3.135-2.441c-0.919-0.831-1.381-1.907-0.81-3.136c0.526-1.133,1.66-1.062,2.602-0.949
		c12.495,1.502,23.411-3.388,34.547-8.001c17.588-7.287,31.037-3.949,42.296,11.363
		C187.848,668.519,197.228,678.158,208.953,687.408z M151.032,663.638c9.238,2.246,18.719,2.653,27.748,5.466
		C170.209,663.793,160.78,662.661,151.032,663.638z"/>
	<path fill="FRAME_COLOR" d="M245.746,194.718c0.588-4.141,3.493-7.06,5.496-10.458c2.41-4.091,4.753-8.222,6.708-12.585
		c-4.379,3.438-7.087,8.066-9.746,12.722c-1.155,2.022-2.144,4.141-3.328,6.145c-0.836,1.415-1.755,3.144-3.826,2.388
		c-1.907-0.696-1.23-2.589-1.097-3.911c1.729-17.169,4.939-33.927,14.233-48.895c2.214-3.566,4.873-6.746,8.485-9.015
		c2.163-1.358,4.706-2.815,7.013-1.966c3.512,1.292,6.497,0.364,9.873-0.201c4.578-0.767,5.395,3.271,5.518,6.597
		c0.134,3.624-0.227,6.453,5.019,6.537c3.21,0.051,3.815,3.673,3.952,6.635c0.475,10.264-4.318,18.93-8.185,27.962
		c-5.758,13.448-18.11,17.796-30.082,22.84c-1.095,0.461-1.941,0.291-2.544-0.718c-0.621-1.038-0.204-1.969,0.576-2.671
		c0.985-0.886,2.082-1.648,3.139-2.452c3.81-2.899,7.346-6.059,9.388-10.786c-4.798,4.091-9.595,8.182-14.393,12.273
		c3.241-6.512,8.71-11.335,11.706-17.951c-4.76,3.713-8.369,8.463-11.975,13.248c-1.501,1.991-2.525,4.955-6.026,4.178
		L245.746,194.718z"/>
	<path fill="FRAME_COLOR" d="M1179.325,199.299c-3.655-4.596-8.623-7.644-13.196-11.15c-7.875-6.037-14.853-12.833-18.978-22.075
		c-1.668-3.736-3.078-8.035-1.156-11.573c2.396-4.413,7.62-6.946,9.279-12.136c6.927,0.889,10.989-3.245,15.327-7.824
		c1.899-2.004,5.893-0.918,8.382,0.988c1.988,1.522,3.152,1.933,5.35,0.093c3.603-3.016,7.264-2.252,10.259,1.773
		c3.692,4.963,5.759,10.711,5.198,16.828c-1.081,11.781-1.06,23.599-1.876,35.378c-0.097,1.397,1.378,4.377-2.287,4.233
		c-2.544-0.1-4.769-0.014-5.385-3.509c-0.939-5.327-3.213-10.242-5.699-15.037c-0.289,5.025,1.923,9.352,3.326,13.905
		c0.555,1.802,2.861,4.474,0.268,5.537c-2.381,0.976-2.48-2.447-3.314-4.051c-2.427-4.671-4.5-9.546-9.072-14.285
		c1.641,5.918,4.585,9.933,6.749,14.304c0.589,1.19,1.237,2.358,1.733,3.587c0.373,0.923,1.733,2.12-0.194,2.786
		c-1.296,0.448-1.541-0.772-1.971-1.667c-2.679-5.576-6.689-10.25-10.424-15.142c0.595,4.678,3.724,8.041,6.118,11.773
		c1.075,1.676,2.26,3.283,3.402,4.916c0.553,0.791,1.465,1.698,0.33,2.474c-0.484,0.331-1.543-0.177-2.336-0.299
		C1179.162,199.129,1179.325,199.299,1179.325,199.299z"/>
	<path fill="FRAME_COLOR" d="M1272.568,623.106c9.117,3.845,12.41,8.178,11.688,14.765c-0.695,6.337-6.719,10.738-12.407,9.064
		c-3.949-1.162-6.175-5.274-4.645-8.559c0.53-1.138,1.399-1.877,2.608-2.11c1.443-0.279,1.472,0.878,1.78,1.826
		c0.632,1.951,2.067,2.645,3.908,1.852c2.007-0.865,4.003-1.944,3.607-4.71c-0.541-3.779-2.649-6.06-6.518-6.391
		c-4.167-0.356-8.358-0.372-12.373,0.979c-4.099,1.38-8.148,2.922-12.177,4.499c-10.094,3.951-16.724,10.774-19.628,21.593
		c-3.022,11.257-7.383,21.994-14.029,31.852c-3.756,5.572-2.993,12.838-3.923,19.411c-0.376,2.659,0.189,7.043-3.465,6.515
		c-3.054-0.441-1.199-4.566-0.94-6.915c0.968-8.781,1.188-17.235-0.783-26.169c-4.257-19.297,6.092-38.512,24.592-48.736
		c10.816-5.977,22.824-8.175,34.646-10.946c5.02-1.177,10.197-1.718,15.042-3.591c5.305-2.051,8.069-6.729,6.744-11.283
		c-0.749-2.574-2.211-4.495-5.076-4.85c-1.387-0.172-2.67,0.119-3.498,1.414c-0.746,1.167-0.548,2.249,0.461,3.117
		c0.947,0.815,1.848,1.658,0.817,2.885c-0.882,1.05-2.208,0.647-3.294,0.41c-2.699-0.587-4.381-2.33-4.875-5.06
		c-0.65-3.593,0.46-6.61,3.358-8.843c5.785-4.459,14.81-2.321,18.517,4.336c5.227,9.386-0.658,20.752-11.774,22.643
		C1278.377,622.538,1275.782,622.728,1272.568,623.106z"/>
	<path fill="FRAME_COLOR" d="M778.978,824.421c44.152,0,88.303-0.011,132.455,0.047c1.463,0.002,4.692-0.467,4.109,0.889
		c-1.095,2.547,0.237,6.794-4.029,7.582c-1.292,0.238-2.659,0.097-3.991,0.083c-85.969-0.892-171.94-0.726-257.911-0.758
		c-1.835-0.001-4.23,1.011-5.396-1.308c-0.874-1.739-2.123-4.012-1.627-5.533c0.614-1.884,3.238-0.701,4.935-0.703
		c43.819-0.063,87.638-0.05,131.456-0.05C778.978,824.586,778.978,824.503,778.978,824.421z"/>
	<path fill="FRAME_COLOR" d="M1214.184,250.25c3.83,4.123,4.994,8.128,6.126,11.988c3.159,10.773,9.925,17.202,21.045,19.514
		c12.867,2.675,21.248,10.41,24.545,23.396c1.104,4.348,2.636,8.588,4.007,12.867c1.707,5.33,4.627,9.564,10.286,11.333
		c0.917,0.287,2.162,0.546,2.11,1.777c-0.067,1.58-1.54,1.627-2.614,1.591c-18.879-0.628-36.256-5.176-49.393-19.905
		c-5.907-6.623-5.902-15.081-5.576-23.221c0.217-5.409-1.027-10.072-3.358-14.803
		C1217.765,267.487,1214.419,260.038,1214.184,250.25z M1234.873,288.217c2.172,6.7,5.789,12.167,11.44,16.122
		C1242.5,298.965,1238.687,293.591,1234.873,288.217z"/>
	<path fill="FRAME_COLOR" d="M1235.939,717.885c-1.217,0.999-2.253,0.845-3.47-0.19c-0.978-0.831-2.339-1.921-3.416-1.808
		c-6.13,0.644-5.395-3.147-4.976-7.05c0.839-7.81,4.243-14.534,9.771-19.766c8.874-8.401,15.237-17.604,13.047-31.197
		c3.484,1.232,4.962,3.402,6.116,5.665c6.586,12.918,10.816,26.551,10.966,41.13c0.136,13.185-8.626,24.111-21.353,27.459
		c-1.163,0.306-3.176,1.425-3.236-0.584c-0.141-4.735-3.425-8.633-3.15-13.387c3.808-3.57,6.747-7.713,8.538-12.62
		C1241.525,709.449,1237.787,713.007,1235.939,717.885z"/>
	<path fill="FRAME_COLOR" d="M1259.18,840.369c2.859,4.569,6.984,6.665,11.929,7.489c4.777,0.795,9.492,1.806,13.658,4.465
		c1.53,0.976,3.07,1.969,3.877,4.006c-4.658,2.938-9.225-0.245-14.242-0.16c2.586,2.97,4.999,4.445,8.617,3.398
		c2.456-0.71,6.323-2.088,7.212,0.426c1.076,3.044-2.21,5.036-5.268,5.98c-0.263,0.081-0.458,0.387-0.737,0.636
		c2.12,3.664,5.441,6.244,8.334,9.192c5.043,5.139,6.688,11.42,6.009,18.327c-0.445,4.529-2.296,5.218-5.818,2.442
		c-4.091-3.224-7.238-7.297-10.177-11.575c-2.711-3.946-5.668-7.722-8.595-11.679c-1.641,1.481-1.569,3.214-2.12,4.688
		c-0.506,1.354-0.781,3.116-2.809,2.928c-1.747-0.162-2.34-1.631-2.953-3.032c-1.02-2.331-0.464-4.579,0.312-6.798
		c1.208-3.456,1.044-6.742-1.021-10.586c-0.501,4.5-0.914,8.28-1.35,12.057c-0.113,0.976-0.089,2.148-1.23,2.512
		c-1.302,0.415-2.18-0.482-2.938-1.398c-1.21-1.464-1.87-3.2-1.882-5.059c-0.086-13.13-0.496-26.199-6.471-38.85
		c7.093,3.61,13.666,1.579,20.307,0.095c6.352-1.42,12.225,0.167,17.604,3.646c3.961,2.562,3.99,5.09-0.108,7.522
		c-7.708,4.574-15.733,4.64-23.964,1.325C1263.448,841.595,1261.78,839.902,1259.18,840.369z"/>
	<path fill="FRAME_COLOR" d="M226.271,233.879c-1.715,8.329-4.677,14.947-8.26,21.264c-2.649,4.671-3.583,9.459-3.295,14.814
		c1.227,22.843-3.969,30.9-25.3,39.509c-5.388,2.174-10.946,3.928-16.446,5.818c-1.05,0.361-2.399,1.078-3.209-0.153
		c-1.01-1.533,0.738-1.913,1.524-2.525c5.168-4.023,6.97-9.855,7.497-15.823c1.503-17.009,10.175-28.372,25.725-34.953
		c5.976-2.529,9.384-7.779,12.569-13.117C219.855,244.056,222.015,239.01,226.271,233.879z M199.968,282.412
		c3.639-2.638,5.111-6.36,5.314-10.681C203.511,275.291,201.74,278.851,199.968,282.412z"/>
	<path fill="FRAME_COLOR" d="M1148.337,176.46c-1.578,1.041-2.924,0.644-4.177,0.504c-8.55-0.952-16.576,0.764-24.034,4.904
		c-8.777,4.871-17.185,3.262-23.991-2.926c-10.99-9.992-17.094-22.718-16.937-37.939c0.016-1.534-0.418-3.818,1.656-4.115
		c1.733-0.247,1.932,1.97,2.529,3.252c3.348,7.19,9.754,9.552,16.882,10.754c2.456,0.414,4.935,0.723,7.415,0.959
		c8.522,0.81,15.709,4.368,21.148,10.919c4.159,5.011,8.875,8.899,15.25,10.632C1145.664,173.834,1147.119,174.723,1148.337,176.46z
		 M1125.409,171.592c-5.271-1.932-10.639-2.939-16.151-3.168C1114.423,170.714,1119.763,172.101,1125.409,171.592z"/>
	<path fill="FRAME_COLOR" d="M300.953,181.903c5.721-4.75,7.212-11.636,9.569-18.159c2.863-7.923,9.056-12.595,16.669-15.461
		c2.941-1.107,6.077-1.773,9.175-2.369c7.228-1.391,13.747-3.977,18.464-9.984c0.584-0.744,1.14-1.888,2.286-1.601
		c1.281,0.321,1.03,1.62,0.901,2.517c-1.816,12.627-4.647,24.981-12.774,35.229c-6.018,7.588-14.316,10.849-23.921,9.758
		c-5.824-0.661-11.525-1.91-17.125,0.891c-0.541,0.27-1.312,0.14-1.968,0.089C301.971,182.793,301.737,182.479,300.953,181.903z
		 M316.925,172.247c3.818-2.37,7.637-4.74,11.455-7.109C323.725,166.131,319.851,168.452,316.925,172.247z"/>
	<path fill="FRAME_COLOR" d="M1128.496,799.376c-6.122-1.553-11.194-4.955-16.241-8.327c-2.873-1.92-5.722-2.826-9.27-2.767
		c-13.845,0.228-23.101-6.995-29.183-18.89c-1.662-3.25-3.047-6.64-4.608-9.942c-2.315-4.898-5.309-9.196-10.302-11.79
		c-0.894-0.464-2.56-0.747-1.981-2.302c0.358-0.96,1.65-1.181,2.638-0.961c13.73,3.064,28.028,4.22,40.512,11.559
		c7.693,4.523,11.232,11.858,11.633,20.359c0.365,7.742,4.215,12.602,10.34,16.445
		C1124.64,794.394,1127.418,795.974,1128.496,799.376z M1104.403,778.728c-2.869-5.14-6.419-9.439-12.106-11.245
		C1096.333,771.231,1100.368,774.98,1104.403,778.728z"/>
	<path fill="FRAME_COLOR" d="M1242.597,375.954c7.05,4.838,10.342,10.578,10.189,19.742c-0.485,29.113,0.279,58.247,0.541,87.373
		c0.019,2.161,0.084,4.355-0.239,6.477c-0.316,2.077,0.181,5.269-3.56,4.589c-2.835-0.516-6.081-0.681-6.124-5.016
		c-0.371-37.28-0.817-74.56-1.22-111.84C1242.18,376.856,1242.443,376.43,1242.597,375.954z"/>
	<path fill="FRAME_COLOR" d="M1253.13,566.297c0,16.309,0.011,32.617-0.009,48.926c-0.004,3.566-5.951,7.979-9.134,6.728
		c-1.958-0.77-0.922-2.618-0.918-3.928c0.066-21.467,0.263-42.933,0.332-64.4c0.043-13.313-0.021-26.627-0.169-39.939
		c-0.038-3.389-0.001-4.418,4.233-3.089c5.319,1.67,6.025,4.463,5.937,9.274c-0.283,15.472-0.105,30.952-0.105,46.428
		C1253.24,566.297,1253.185,566.297,1253.13,566.297z"/>
	<path fill="FRAME_COLOR" d="M1262.195,131.319c3.057-2.434,2.991-5.704,2.891-8.996c-0.069-2.282-0.752-5.407,1.96-6.045
		c3.13-0.736,3.799,2.398,4.518,4.81c0.132,0.442,0.522,0.806,0.682,1.042c7.089-5.64,11.443-13.806,18.53-19.38
		c1.608-1.265,3.306-3.483,5.607-2.052c2.048,1.274,1.703,3.8,1.548,5.968c-0.475,6.648-3.306,12.086-8.387,16.403
		c-3.139,2.667-6.399,5.22-9.119,8.674c1.19,0.839,2.315,1.527,3.313,2.365c1.229,1.031,3.02,1.987,1.847,4.026
		c-1.09,1.895-2.77,1.897-4.779,1.333c-2.804-0.787-5.397-2.904-8.569-1.737c-0.874,0.322-1.627,0.968-3.428,2.076
		c4.385,0.555,7.739,0.845,11.034,1.456c1.513,0.281,4.008-0.087,4.241,1.731c0.275,2.146-2.31,2.47-3.869,3.194
		c-4.212,1.954-8.737,1.928-13.225,1.569c-4.605-0.368-9.008-0.065-12.812,2.86c-2.892,2.224-4.74-1.455-7.554-1.073
		c6.766-6.386,8.468-14.641,9.659-23.113c0.115-0.814,0.43-1.605,0.7-2.39c0.788-2.293,2.101-4.972,4.554-4.564
		c2.995,0.498,1.249,3.575,1.328,5.486C1262.953,127.069,1262.444,129.199,1262.195,131.319z"/>
	<path fill="FRAME_COLOR" d="M153.071,143.249c5.479-2.94,10.524-2.036,16.041-1.944c-1.978-2.929-4.226-3.561-6.946-2.884
		c-1.612,0.401-3.155,1.118-4.779,1.426c-1.806,0.343-3.837,0.583-4.693-1.657c-0.828-2.165,0.979-3.168,2.425-3.718
		c4.595-1.749,3.226-3.722,0.539-6.051c-7.171-6.215-12.743-13.266-11.76-23.554c0.153-1.605-0.411-3.728,1.237-4.58
		c1.948-1.006,3.38,0.864,4.707,1.981c7.065,5.949,11.571,14.105,17.871,20.785c1.689-1.919,1.572-6.57,4.984-5.748
		c3.939,0.949,1.764,4.975,1.923,7.773c0.147,2.586-0.302,5.342,2.169,8.491c-0.251-3.061-0.512-5.196-0.578-7.337
		c-0.06-1.954-0.438-4.533,2.119-4.927c2.35-0.362,3.311,1.969,3.852,3.891c0.581,2.062,0.897,4.222,1.11,6.36
		c0.568,5.694,1.511,11.23,5.176,15.92c0.875,1.12,2.253,2.368,0.558,3.847c-1.418,1.237-3.386,2.55-4.929,1.129
		c-5.084-4.68-11.233-3.295-17.112-3.526C161.823,148.724,157.34,147.019,153.071,143.249z"/>
	<path fill="FRAME_COLOR" d="M1222.802,631.071c0-6.262,0.01-12.375-0.002-18.488c-0.047-25.783,0.198-51.572-0.344-77.345
		c-0.153-7.284,0.55-12.652,9.295-14.1c0,1.971,0.004,4.197,0,6.424c-0.054,30.108-0.357,60.22,0.018,90.323
		C1231.856,624.933,1229.84,629.162,1222.802,631.071z"/>
	<path fill="FRAME_COLOR" d="M1220.62,485.893c7.857-0.227,14.129,3.201,19.651,8.41c2.918,2.753,5.858,5.484,10.101,6.017
		c5.736,0.721,7.955-1.669,6.361-7.145c-0.86-2.955,1.056-2.283,2.381-1.975c4.636,1.078,6.533,7.187,3.628,11.406
		c-3.017,4.383-9.922,6.034-15.823,3.852c-4.671-1.727-8.115-5.15-11.689-8.374c-4.738-4.274-10.088-6.46-16.486-4.932
		c-5.895,1.408-8.98,5.453-8.723,11.086c0.223,4.864,3.497,8.707,8.059,9.443c1.886,0.305,3.801,0.305,4.882-1.541
		c0.903-1.544,0.716-3.417-0.442-4.696c-1.78-1.968-3.093-3.644-0.075-5.563c2.842-1.807,7.064-0.905,8.785,1.897
		c3.139,5.115,1.111,12.473-4.284,15.547c-5.883,3.351-14.867,2.711-20.276-1.668c-6.021-4.874-7.051-11.428-5.482-18.536
		c1.521-6.894,7.578-11.836,15.452-12.965C1217.951,485.968,1219.292,485.976,1220.62,485.893z"/>
	<path fill="FRAME_COLOR" d="M1150.705,672.646c8.005,5.069,17.321,5.348,26.029,7.853c7.799,2.244,13.546,6.94,16.994,14.288
		c2.183,4.653,4.153,9.405,6.198,14.122c0.316,0.729,0.958,1.557,0.245,2.295c-0.951,0.983-2.153,0.214-2.598-0.413
		c-4.441-6.257-10.947-5.93-17.528-5.964c-5.703-0.03-10.882-2.068-14.521-6.6c-6.079-7.57-7.489-18.104-16.581-23.826
		C1149.53,673.816,1150.117,673.231,1150.705,672.646z"/>
	<path fill="FRAME_COLOR" d="M208.884,395.407c-0.084,29.008,0.447,57.826-0.714,87.138c-5.726-2.77-8.976-5.392-8.705-12.421
		c0.787-20.426,0.747-40.905,0.294-61.347C199.606,401.784,201.327,397.334,208.884,395.407z"/>
	<path fill="FRAME_COLOR" d="M637.184,851.661c-1.15,0.958-2.524,0.511-3.784,0.504c-25.126-0.13-50.252-0.291-75.378-0.457
		c-4.537-0.03-6.679-2.861-5.53-7.268c0.639-2.451,2.695-1.493,4.131-1.504c11.98-0.087,23.961-0.063,35.942-0.049
		c10.982,0.013,21.965-0.01,32.947,0.107C631.945,843.063,634.82,845.308,637.184,851.661z"/>
	<path fill="FRAME_COLOR" d="M179.081,533.733c2.68,2.24,5.416,4.641,8.277,6.882c2.106,1.649,1.56,3.861,1.567,5.964
		c0.097,28.992,0.179,57.984,0.259,86.976c0.012,4.312,0.002,8.623,0.002,13.122c-6.138-11.723-10.254-23.853-7.48-37.409
		c0.631-3.086,1.727-6.09,2.769-9.076c3.882-11.123,3.531-21.974-2.297-32.337c-2.46-4.375-3.34-8.868-3.161-13.837
		C179.269,547.043,179.081,540.052,179.081,533.733z"/>
	<path fill="FRAME_COLOR" d="M206.651,304.082c1.185,0.953,0.93,2.189,0.938,3.296c0.137,17.791,0.277,35.582,0.341,53.373
		c0.017,4.69-0.689,9.288-2.879,13.526c-1.207,2.335-2.594,4.544-5.738,6.638c0-2.551,0.009-4.274-0.001-5.997
		c-0.111-19.455,0.132-38.922-0.533-58.358C198.549,309.846,201.522,306.645,206.651,304.082z"/>
	<path fill="FRAME_COLOR" d="M187.982,469.394c-6.425-3.323-9.677-7.729-9.12-15.688c1.009-14.421,0.675-28.935,0.989-43.409
		c0.032-1.476-0.893-3.695,1.428-4.203c2.404-0.526,4.925-0.565,7.399-0.629c0.199-0.005,0.634,1.453,0.626,2.228
		c-0.199,20.132-0.438,40.265-0.704,60.396C188.595,468.527,188.197,468.959,187.982,469.394z"/>
	<path fill="FRAME_COLOR" d="M1159.892,138.06c-4.762,0.347-8.946,1.84-10.383,6.913c-0.859,3.033-3.694,3.621-5.51,5.408
		c-1.418,1.395-2.211-0.652-2.834-1.653c-2.139-3.433-3.339-7.266-3.891-11.219c-1.122-8.043-1.325-16.214-3.614-24.091
		c-0.454-1.562-0.729-3.714,1.218-4.253c1.563-0.433,1.678,1.73,2.208,2.808c3.378,6.873,9.629,10.323,16.011,13.616
		c3.242,1.672,6.657,3.032,9.399,5.547c1.534,1.407,2.593,2.81,1.778,5.19C1163.412,138.837,1161.765,138.49,1159.892,138.06z"/>
	<path fill="FRAME_COLOR" d="M1023.992,147.321c0.284-4.493-0.357-7.878-4.505-9.522c-4.119-1.633-7.466-0.304-10.235,2.903
		c-2.393,2.771-3.34,6.014-3.362,9.658c-0.024,4.023,0.681,7.937,1.309,11.876c0.629,3.947,2.545,7.45,4.247,11.097
		c-3.82,1.308-6.011-0.025-7.241-3.054c-2.98-7.336-4.578-14.953-3.776-22.892c0.795-7.862,6.292-14.407,13.416-16.357
		c6.111-1.673,12.312,0.489,16.396,5.719c4.904,6.279,2.963,15.55-3.92,18.721c-4.502,2.074-9.266,0.535-10.393-3.391
		c-0.527-1.838-0.6-3.688,1.017-5.055C1019.095,145.205,1021.437,145.876,1023.992,147.321z"/>
	<path fill="FRAME_COLOR" d="M1239.615,809.539c6.689-1.158,12.685-2.273,18.708-3.214c4.32-0.675,8.173,0.974,11.956,2.808
		c4.958,2.403,9.956,4.654,16.099,1.825c-6.82,9.898-22.925,16.362-33.359,13.861c-1.823-0.437-3.535-1.168-4.646-2.72
		C1245.509,818.099,1242.738,814.032,1239.615,809.539z"/>
	<path fill="FRAME_COLOR" d="M315.429,711.149c0.215,0.205,0.411,0.427,0.587,0.666c0.156,2.414-2.207,1.333-3.435,2.167
		c4.909,1.399,7.693,7.738,6.309,14.529c-2.558,12.551-10.679,18.406-21.911,20.802c-1.544,0.329-3.702,0.706-4.651-0.674
		c-0.575-0.835,0.283-2.699,0.597-4.077c0.094-0.412,0.528-0.746,0.806-1.116c2.218,3.828,3.665-0.375,5.5-0.525
		c3.26-0.265,5.753-1.76,7.427-4.58c1.332-2.244,2.676-3.036,4.393,0.312c-2.013-4.521,2.174-7.995,1.01-12.071
		c-0.081-0.285,0.049-0.673,0.181-0.969c0.778-1.745,0.071-3.031-1.953-3.502l0.138,0.126c1.94-3.064,0.591-8.256-2.871-9.556
		c-1.477-0.555-2.024-4.65-4.647-1.493c-0.202-0.365-0.657-0.814-0.568-1.082c1.224-3.69-0.762-2.18-2.295-1.451
		c-1.258,0.598-2.47,0.586-3.799,0.026c-1.223-0.516-0.889-3.311-3.661-1.813c-3.323,1.796-7.666,2.018-9.588,5.832
		c-0.979,1.944-1.718,3.534-4.186,3.294c-1.328,0.727-2.287-0.045-3.25-0.801c-0.119-0.306-0.387-0.641-0.336-0.915
		c0.842-4.497,10.117-11.189,14.649-10.423c1.964,0.332,2.003-1.996,4.284-2.053C302.92,701.578,309.437,705.557,315.429,711.149z"
		/>
	<path fill="FRAME_COLOR" d="M188.584,367.973c-0.994-1.096-1.786-2.756-3.014-3.195c-6.752-2.414-5.779-7.883-5.725-13.19
		c0.107-10.491,0.004-20.984,0.033-31.476c0.006-2.276,7.195-7.076,9.166-6.215c1.01,0.441,0.814,1.371,0.815,2.14
		c0.022,17.266,0.017,34.533,0.017,51.799C189.446,367.881,189.015,367.927,188.584,367.973z"/>
	<path fill="FRAME_COLOR" d="M199.233,617.969c0-23.396,0-46.791,0-70.222c8.369,2.024,8.362,2.024,8.238,10.063
		c-0.156,10.162-0.329,20.323-0.438,30.485C206.922,598.799,203.045,608.335,199.233,617.969z"/>
	<path fill="FRAME_COLOR" d="M1196.07,781.084c1.445-0.331,2.911-0.589,4.331-1.005c9.843-2.882,17.323,6.316,17.147,13.862
		c-0.153,6.53-7.017,14.53-12.891,14.334c-8.471-0.282-14.432-5.414-14.999-13.436c-0.093-1.309-0.296-2.61-0.448-3.915
		c0,0-0.145,0.186-0.145,0.186c1.366-2.381,2.732-4.763,4.099-7.144l-0.122,0.135c1.041-1.04,2.082-2.08,3.123-3.12
		C1196.166,780.981,1196.07,781.084,1196.07,781.084z M1214.937,789.585c-2.076,1.144-7.926-0.26-3.245,5.196
		c0.995,1.16-0.182,2.045-1.424,2.51c-1.181,0.443-2.374,0.582-3.318,1.843c-3.478,4.647-6.359,1.186-9.417-0.852
		c-1.463-0.975-1.601-0.769-1.34-3.971c0.325-3.992,1.417-5.091,6.001-5.744c1.507-0.215,0.933-1.497,1.406-2.231
		c0.535-0.831,0.454-1.567-0.382-2.109c-0.513-0.332-8.195,2.986-8.009,3.403c1.899,4.28-2.83,1.603-3.422,3.253
		c1.669,0.266,2.187,1.088,1.434,2.268c-1.059,1.659,0.082,3.645,0.484,4.665c1.375,3.494,4.691,5.254,8.431,5.859
		c4.781,0.773,11.494-3.775,11.218-7.76C1213.189,793.56,1212.738,791.343,1214.937,789.585z M1211.935,786.522
		c-1.765-0.213-3.327-0.355-4.759-1.377c-0.746-0.532-1.291-0.131-1.707,0.877c-0.991,2.397,1.985,3.071,2.365,3.293
		C1210.784,791.033,1209.805,786.606,1211.935,786.522z"/>
	<path fill="FRAME_COLOR" d="M310.289,722.11c-1.887,0.854-2.15,1.267-1.287,3.078c0.439,0.921-0.126,1.328-0.571,1.524
		c-3.479,1.533-3.172,4.245-2.339,7.146c0.238,0.828,0.459,1.694-0.506,2.133c-0.374,0.17-1.072,0.056-1.412-0.203
		c-1.309-0.999-0.494-1.444,0.515-2.016c0.94-0.533,0.086-1.049-0.276-1.515c-1.501,1.36-4.115-0.639-5.13,1.438
		c-0.657,1.344,0.566,0.911,1.331,0.66c0.776-0.255,1.521,0.163,1.209,0.92c-1.073,2.6-4.365,2.498-5.955,4.784
		c-1.048,1.506-1.229-0.632-1.7-1.164c-1.325-1.496-3.147-2.212-4.551-3.964c-2.423-3.024-3.266,1.326-5.268,2.792
		c0.597-2.773,1.112-5.569,1.853-8.304c0.166-0.614,2.39-1.488,1.037-1.657c-2.639-0.33-1.437-4.143-4.504-3.779
		c-2.105,0.25-1.086,2.084-2.446,2.9c-1.09-3.726,1.707-4.923,3.87-5.654c1.402-0.474,2.704-0.977,2.873-2.147
		c0.419-2.905,0.165-6.424,3.379-1.228c2.433-2.389,6.35-0.27,8.603-2.652c1.659-1.753,2.534-2.422,4.091,0.052
		c1.029,1.635,2.22-0.872,3.483-0.415c-1.873,3.068-2.037,3.371-4.57,1.999c-1.318-0.714-1.771-0.374-2.316,0.409
		c-0.892,1.283-0.022,1.565,1.119,1.876c2.271,0.618,4.473,3.531,7.209-0.847c-2.067,4.252,0.418,3.858,2.391,3.953
		C310.427,722.236,310.289,722.11,310.289,722.11z"/>
	<path fill="FRAME_COLOR" d="M1117.614,833.123c-4.48,0-8.961-0.066-13.439,0.026c-2.542,0.052-2.671-0.776-1.75-2.937
		c1.604-3.762,3.885-5.438,8.209-6.481c8.911-2.148,17.697-4.28,26.92-3.798c1.372,0.072,3.268-0.725,3.945,1.081
		c0.619,1.65-0.214,3.161-1.459,4.461c-1.829,1.91-3.85,3.73-4.844,6.256c-0.823,2.095-2.509,1.822-4.146,1.825
		c-4.479,0.008-8.958,0.003-13.437,0.003C1117.615,833.414,1117.615,833.268,1117.614,833.123z"/>
	<path fill="FRAME_COLOR" d="M1137.932,850.883c-19.372,0-38.329,0-57.991,0c5.039-2.61,9.736-4.622,13.679-7.889c1.43-1.184,3.178-0.724,4.809-0.7
		c9.8,0.145,19.599,0.357,29.399,0.468c3.27,0.037,6.8-0.759,7.534,4.061C1135.551,848.058,1137.621,848.161,1137.932,850.883z"/>
	<path fill="FRAME_COLOR" d="M1078.11,157.053c-15.656-0.902-30.727-1.109-46.348-0.041c1.496-3.049,2.77-5.622,4.023-8.205
		c0.953-1.966,2.788-1.52,4.368-1.521c9.626-0.005,19.258,0.264,28.876,0.011c4.625-0.122,7.735,0.761,7.991,6.037
		C1077.066,154.279,1077.551,155.202,1078.11,157.053z"/>
	<path fill="FRAME_COLOR" d="M1180.018,217.819c-0.102-1.142-0.204-2.283-0.306-3.425c-0.548-4.637-0.392-9.194,2.608-13.058
		c5.516-7.106,12.326-7.635,19.785-4.138c6.201,2.907,8.139,10.222,5.442,17.999c-0.317,0.914-0.352,1.925-0.518,2.891
		c0,0,0.136-0.166,0.136-0.166c-1.369,1.408-3.653,1.899-4.167,4.163c0,0,0.17-0.187,0.17-0.187
		c-7.546,3.807-14.563,2.541-21.215-2.213C1181.307,219.062,1180.663,218.44,1180.018,217.819z M1186.029,215.043
		c0.092,4.816,4.561,4.355,7.11,4.852c2.529,0.494,6.041-0.551,6.462-4.232c2.675,0.014-0.669,2.441,1.131,2.374
		c1.422-0.053,1.442-1.512,0.921-2.72c-0.196-0.454-0.409-0.9-0.614-1.35c0.735-0.769,2.251,1.437,2.981-1.935
		c0.837-3.864-2.842-7.011-0.317-10.455c0.491-0.67-0.436-1.243-0.985-0.597c-1.428,1.679-2.089,0.032-3.181-0.426
		c-3.259-1.368-6.593-1.798-9.962-0.09c-2.648,1.342-2.703,3.781-3.577,6.207c-1.191,3.307-0.07,7.185-3.256,9.89
		C1184.758,217.031,1184.623,214.763,1186.029,215.043z"/>
	<path fill="FRAME_COLOR" d="M171.469,153.048c0.995,0.064,1.993,0.101,2.985,0.198c8.134,0.798,9.67,3.323,6.454,10.77
		c-0.284,0.658-1.085,1.288-1.787,1.541c-7.303,2.634-14.592,3.129-21.754-0.502c-1.808-0.917-3.681-2.018-3.645-4.325
		c0.033-2.114,1.954-2.928,3.53-3.824C161.656,154.403,166.28,152.676,171.469,153.048z"/>
	<path fill="FRAME_COLOR" d="M1250.786,130.421c-0.269,5.464-1.757,10.436-5.403,14.666c-2.233,2.59-4.099,3.644-5.282-0.716
		c-0.364-1.34-0.927-2.649-2.172-3.199c-4.769-2.108-4.086-5.706-2.815-9.536c1.371-4.13,3.144-8.058,6.165-11.262
		c3.061-3.247,5.061-2.949,7.32,0.945C1250.235,124.136,1250.551,127.272,1250.786,130.421z"/>
	<path fill="FRAME_COLOR" d="M1268.706,166.136c-4.554,0.951-8.522-2.457-12.923-4.211c-3.051-1.216,0.143-4.432-1.273-6.695
		c-0.904-1.443,1.261-1.996,2.471-2.293c8.498-2.089,16.578-1.116,23.888,3.869c3.522,2.402,3.293,4.518-0.424,6.772
		C1277.06,165.631,1273.299,166.218,1268.706,166.136z"/>
	<path fill="FRAME_COLOR" d="M245.649,194.631c5.264,3.211,8.406,7.27,9.349,13.952c1.44,10.198-10.246,16.981-17.881,14.05
		c-5.312-2.039-9.731-5.422-9.765-11.421c-0.024-4.21-0.249-8.895,3.509-12.474c4.355-4.148,9.472-4.415,14.895-4.01
		C245.746,194.718,245.649,194.631,245.649,194.631z M242.644,219.037c1.915-0.301,5.612-0.054,5.797-5.061
		c0.044-1.199,0.654-2.848,1.563-3.459c3.308-2.228,0.623-4.127,0.264-6.377c-0.398-2.497-2.389,0.191-3.222-1.788
		c-1.476-3.509-6.29-4.2-10.064-2.228c-2.654,1.387-7.595,10.421-6.794,12.423C231.191,215.054,238.255,219.259,242.644,219.037z"/>
	<path fill="FRAME_COLOR" d="M1058.703,171.267c0.451,2.55,0.105,3.686-2.717,3.39c-11.115-1.166-22.295-0.555-33.443-0.91
		c-1.331-0.042-2.742,0.195-3.978-0.167c-2.719-0.797-4.032-3.451-4.115-5.662c-0.076-2.028,2.681-1.149,4.154-1.164
		c11.658-0.121,23.319-0.023,34.975-0.201C1057.303,166.496,1059.521,167.373,1058.703,171.267z"/>
	<path fill="FRAME_COLOR" d="M594.074,832.837c-13.586,0-27.173,0.07-40.758-0.041c-4.241-0.035-3.406-4.079-3.877-6.39
		c-0.553-2.713,2.299-1.592,3.606-1.608c9.631-0.116,19.265,0.049,28.894-0.097c5.458-0.083,8.085,4.629,12.45,6.326
		C594.285,831.63,594.179,832.234,594.074,832.837z"/>
	<path fill="FRAME_COLOR" d="M406.497,843.042c10.441,0,20.731-0.474,30.942,0.224c4.312,0.295,6.696,5.332,11.347,7.785
		c-4.65,1.436-8.463,0.795-12.2,0.905c-3.153,0.092-6.345-0.328-9.462,0.008C418.694,852.872,411.476,851.119,406.497,843.042z"/>
	<path fill="FRAME_COLOR" d="M500.821,843.118c9.451,0,18.338-0.149,27.214,0.079c3.175,0.081,5.937,1.985,8.629,3.643
		c1.678,1.033,4.237,2.145,3.714,4.126c-0.522,1.977-3.197,0.784-4.879,0.816c-7.133,0.138-14.292-0.276-21.397,0.193
		C507.29,852.427,504.057,848.495,500.821,843.118z"/>
	<path fill="FRAME_COLOR" d="M156.207,185.379c6.673-3.431,11.381-9.493,18.518-11.753c5.744-1.819,4.955,3.774,6.433,6.082
		c2.108,3.294-2.314,1.731-3.64,3.517c5.773-1.368,7.029,3.312,10.33,6.519c-7.545,1.297-14.111,1.195-20.542-1.838
		C163.918,186.31,160.486,184.272,156.207,185.379z"/>
	<path fill="FRAME_COLOR" d="M1016.81,832.246c13.279-4.457,26.305-9.698,40.569-7.722c1.564,0.217,4.664-0.981,4.305,1.3
		c-0.368,2.337-0.287,6.4-4.713,6.376c-4.818-0.027-9.636,0.039-14.454,0.044C1033.948,832.253,1025.379,832.246,1016.81,832.246z"
		/>
	<path fill="FRAME_COLOR" d="M1242.17,327.21c3.285,1.441,5.651,2.626,8.124,3.512c1.744,0.625,2.227,1.721,2.199,3.393
		c-0.11,6.484-0.153,12.969-0.269,19.452c-0.026,1.458,0.17,3.294-1.623,3.784c-1.572,0.429-2.093-1.325-2.958-2.248
		c-4.29-4.572-6.456-9.765-5.561-16.239C1242.575,335.298,1242.17,331.607,1242.17,327.21z"/>
	<path fill="FRAME_COLOR" d="M275.563,715.191c0.963,0.756,1.921,1.528,3.25,0.801c0.809,1.114,1.149,2.088,0.379,3.564
		c-2.825,5.42-3.04,10.111,1.2,15.707c2.926,3.862,5.804,6.408,10.13,7.804c1.277,0.412,2.009,1.099,1.395,2.579
		c-0.546,1.318-0.466,3.536-2.37,3.279c-2.405-0.325-5.156-0.938-6.893-2.431c-1.309-1.126,1.48-2.454,1.956-4
		c-2.346-1.035-2.675,4.509-5.386,1.717c-1.485-1.529-2.71-3.326-3.945-5.078c-4.17-5.916-4.241-12.578-3.114-19.311
		C272.473,717.975,273.511,716.057,275.563,715.191z"/>
	<path fill="FRAME_COLOR" d="M194.692,131.072c1.161,5.231,2.231,10.047-4.264,11.674c-2.591-7.03-3.578-13.997,0.92-20.823
		c2.028-3.078,3.97-3.023,6.234-0.22c3.152,3.902,4.821,8.354,5.087,13.302c0.087,1.629,0.768,3.822-2.305,3.94
		c-2.409,0.092-3.115-0.987-3.29-3.146C196.957,134.365,196.724,132.826,194.692,131.072z"/>
	<path fill="FRAME_COLOR" d="M1253.195,656.475c-6.833-3.692-9.343-2.255-9.621,4.875c-0.147,3.774,0.114,7.589-1.593,11.049
		c0-9.805-0.021-19.603,0.016-29.401c0.008-2.139,1.975-2.446,3.385-3.18c2.457-1.278,4.96-2.468,7.813-3.878
		C1253.195,643.054,1253.195,649.491,1253.195,656.475z"/>
	<path fill="FRAME_COLOR" d="M1223.415,698.857c-4.687-14.541,3.455-25.544,7.988-37.549c0,6.446-0.283,12.908,0.074,19.334
		C1231.897,688.212,1224.8,691.828,1223.415,698.857z"/>
	<path fill="FRAME_COLOR" d="M179.806,276.804c0-7.198-0.003-14.395,0.002-21.593c0.001-1.35,0.431-2.198,2.051-1.97
		c1.96,0.276,3.945,0.378,5.909,0.631c0.613,0.079,1.341,0.249,1.76,0.648c1.013,0.964,0.655,11.919-0.554,12.862
		C185.58,270.03,183.031,273.392,179.806,276.804z"/>
	<path fill="FRAME_COLOR" d="M1109.111,148.27c8.887,0,16.366,0.061,23.844-0.02c5.582-0.061,5.795,5.502,9.041,8.033
		c-6.864,0.529-13.518,2.193-19.41-3.019C1119.336,150.391,1114.773,149.757,1109.111,148.27z"/>
	<path fill="FRAME_COLOR" d="M975.956,824.549c-0.176,1.979-1.562,1.628-2.62,1.479c-3.084-0.432-4.215-2.866-5.362-5.348
		c-3.083-6.67-5.05-6.943-9.708-1.419c-0.737,0.874-1.289,2.298-2.659,1.683c-1.437-0.645-1.34-2.137-1.034-3.509
		c0.792-3.551,2.143-6.952,5.849-8.117c3.736-1.174,6.724,0.848,9.284,3.506C972.944,816.185,973.754,820.795,975.956,824.549z"/>
	<path fill="FRAME_COLOR" d="M1252.879,855.782c1.09,10.344-3.072,17.598-9.306,24.456c-1.624-4.001-3.105-7.482-4.447-11.016
		c-0.79-2.08-0.863-3.944,2.265-2.649c1.614,0.668,2.54,0.236,3.135-1.22C1246.101,861.498,1249.735,859.499,1252.879,855.782z"/>
	<path fill="FRAME_COLOR" d="M1279.075,181.492c-9.404,1.401-15.739,6.376-24.02,8.725c1.646-2.569,2.885-4.386,3.997-6.278
		c0.888-1.511,2.109-2.872,0.563-4.91c-1.73-2.28,0.918-3.509,1.867-5.04c1.134-1.83,2.708-0.756,3.906,0.008
		C1269.387,176.545,1273,179.695,1279.075,181.492z"/>
	<path fill="FRAME_COLOR" d="M317.801,149.09c-5.004,5.26-9.427,10.454-17.287,8.761c-1.291-0.278-3.756,0.451-3.06-1.848
		c0.704-2.327-1.424-6.462,2.82-6.801C305.945,148.749,311.68,149.09,317.801,149.09z"/>
	<path fill="FRAME_COLOR" d="M1252.666,272.794c-0.288,8.73-2.676,10.15-8.837,5.741c-3.541-2.534-1.472-7.087-1.369-10.659
		c0.1-3.487,3.013-1.055,4.642-1.327C1254.051,265.385,1252.861,270.149,1252.666,272.794z"/>
	<path fill="FRAME_COLOR" d="M512.866,832.562c-5.124,0-10.264,0.245-15.368-0.081c-3.778-0.241-3.815-4.158-5.032-6.655
		c-0.509-1.045,1.317-1.061,2.22-1.069c4.163-0.038,8.33-0.108,12.49,0.028c4.201,0.137,3.722,4.528,6.066,6.389
		C513.117,831.636,512.992,832.099,512.866,832.562z"/>
	<path fill="FRAME_COLOR" d="M1252.241,738.761c0,1.799,0.113,2.812-0.026,3.789c-0.215,1.515,0.9,3.755-1.287,4.317
		c-2.54,0.653-5.25,0.648-7.888,0.907c-0.115,0.011-0.26-0.177-0.374-0.289c-0.51-0.501,0.415-10.607,1.039-11.039
		c0.545-0.377,1.11-0.767,1.724-0.996c2.146-0.8,4.297-3.45,6.244-2.364C1253.796,734.27,1251.914,737.352,1252.241,738.761z"/>
	<path fill="FRAME_COLOR" d="M290.198,176.856c4.073-9.752,4.272-9.793,12.515-8.973c2.52,0.251,2.7,1.142,1.873,3.152
		c-1.494,3.629-3.387,6.486-8.041,5.864C294.587,176.638,292.564,176.856,290.198,176.856z"/>
	<path fill="FRAME_COLOR" d="M1215.174,136.133c2.964-5.682,7.336-8.969,9.575-13.869c0.766,4.3,1.693,8.385,2.936,12.399
		c0.38,1.227,0.981,2.54-0.56,3.545c-1.37,0.894-2.529,0.583-3.546-0.498C1221.526,135.531,1218.914,135.441,1215.174,136.133z"/>
	<path fill="FRAME_COLOR" d="M170.682,694.817c-1.875-4.555-0.687-6.818,3.457-7.833c4.473-1.096,8.88-1.5,13.467,0.077
		C181.663,688.993,175.881,691.087,170.682,694.817z"/>
	<path fill="FRAME_COLOR" d="M1224.744,259.009c7.062,2.787,7.062,2.787,6.08,13.206C1224.028,270.105,1225.135,264.486,1224.744,259.009z"/>
	<path fill="FRAME_COLOR" d="M1230.904,331.102c-3.991-5.726-5.417-10.758-4.721-16.747C1232.583,318.405,1231.494,324.182,1230.904,331.102z"/>
	<path fill="FRAME_COLOR" d="M199.289,259.864c-0.789-4.134-1.261-7.756,4.242-8.166c1.01-0.075,2.189-1.286,2.55,0.833
		C206.966,257.721,203.575,258.999,199.289,259.864z"/>
	<path fill="FRAME_COLOR" d="M1252.693,195.219c-0.027,3.634,1.205,6.859-0.779,8.13c-1.798,1.152-4.62-0.65-7.043-1.817
		C1246.384,198.456,1249.741,198.124,1252.693,195.219z"/>
	<path fill="FRAME_COLOR" d="M1085.662,174.21c-3.161-2.29-5.886-4.265-8.701-6.304C1082.845,165.886,1083.051,166.027,1085.662,174.21z"/>
	<path fill="FRAME_COLOR" d="M430.945,830.494c0.634,2.047-0.202,2.703-1.287,2.337c-3.217-1.086-2.094-4.742-3.746-6.835
		c-0.446-0.565,0.07-1.343,0.88-1.259C430.741,825.146,429.152,829.373,430.945,830.494z"/>
	<path fill="FRAME_COLOR" d="M1201.161,214.052c-2.863-0.144-4.468,3.797-7.838,2.345c-0.71-0.306-2.099,0.646-2.37-0.755
		c-0.246-1.271,1.05-1.883,1.803-2.708c0.743-0.813,3.723,1.767,2.532-1.3c-0.727-1.873-2.712-0.469-3.977,0.569
		c-0.367,0.301-0.803,0.519-1.208,0.774c0.268-1.561-1.374-2.245-1.648-3.436c-0.441-1.917-0.869-4.138,2.148-4.558
		c2.197-0.306,3.857-1.722,5.548-2.923c1.154-0.82,2.129-1.044,3.019-0.106c0.752,0.793,1.81,2.603,1.605,2.802
		C1197.351,208.078,1202.331,210.948,1201.161,214.052z"/>
	<path fill="FRAME_COLOR" d="M244.936,213.174c-2.746,0.77-6.134-3.349-8.154,1.763c-2.776-7.578-2.776-7.578,5.605-13.601
		c0.395,3.705,8.878,4.288,3.887,10.072C245.366,211.646,244.582,211.978,244.936,213.174z"/>
</g>
</svg>
