<?xml version="1.0" encoding="iso-8859-1"?>
<!-- Generator: Adobe Illustrator 23.0.5, SVG Export Plug-In . SVG Version: 6.00 Build 0)  -->
<svg version="1.1" id="Layer_1" xmlns="http://www.w3.org/2000/svg" xmlns:xlink="http://www.w3.org/1999/xlink" x="0px" y="0px"
	 viewBox="0 0 4500 3000" style="enable-background:new 0 0 4500 3000;" xml:space="preserve">
<g id="_x31__x25_20_x28_297_x29__1_">
	<path d="M270.46,1615.456c-27.062,30.448-50.868,58.484-58.544,96.604c-1.745,8.666,0.341,15.706,7.952,20.665
		c35.18,22.918,35.184,72.695,20.22,100.903c-6.62,12.479-14.303,24.402-21.687,36.466c-3.696,6.038-7.81,7.813-12.991,1.004
		c-11.973-15.735-26.558-29.471-35.522-47.506c-15.378-30.939-13.607-60.016,8.674-87.172c8.904-10.852,17.499-21.913,18.917-37.156
		c-8.119,0.479-8.496,9.872-18.045,10.934c2.192-18.595,17.499-27.83,28.291-42.838c-19.902,5.905-37.484,7.695-53.42,19.327
		c-23.764,17.347-50.255,14.4-75.583,1.094c-17.219-9.047-30.908-22.865-45.76-35.083c-3.632-2.988-7.459-6.902-1.267-10.674
		c22.108-13.466,42.665-30.255,70.168-32.232c26.608-1.913,47.492,7.052,62.139,30.005c10.564,16.555,18.32,19.008,35.245,9.898
		c27.397-14.747,48.614-36.79,67.877-60.794c1.687-2.102,3.277-5.036,3.302-7.6c0.244-25.205,0.148-50.414,0.148-74.931
		c-4.739-1.446-6.162,0.426-7.598,2.086c-23.538,27.221-53.917,37.678-89.176,37.726c-31.792,0.043-61.625-7.522-90.49-20.068
		c-6.055-2.631-11.439-4.542-5.821-13.275c15.959-24.808,31.952-49.564,52.967-70.481c31.513-31.367,68.183-40.346,110.643-25.339
		c32.616,11.528,38.954,8.058,49.317-24.535c3.905-12.281,7.709-24.615,7.597-37.785c-9.481,18.467-11.024,40.111-23.633,57.914
		c-5.77-2.939-4.859-7.731-4.866-11.807c-0.047-32.297,0.168-64.594,0.015-96.89c-0.028-5.961,0.826-11.381,4.949-15.699
		c12.876-13.486,23.971-28.359,34.904-46.252c5.689,15.711,0.183,29.967,4.71,43.386c21.698-84.832,25.122-170.449,10.949-257.033
		c-9.756,16.708-10.984,35.206-12.663,53.484c-3.12,33.957-0.941,68.048,0.685,101.894c3.096,64.449-53.207,129.605-125.988,136.561
		c-22.114,2.113-44.085,1.335-65.759-4.628c-6.713-1.847-9.713-4.002-7.678-11.56c17.219-63.949,49.235-115.588,115.379-138.579
		c9.519-3.309,19.835-4.482,29.87-6.094c6.984-1.123,12.03-3.144,10.604-11.649c-0.722-4.305,1.921-9.951-2.272-12.683
		c-4.479-2.919-8.522,1.615-12.143,3.931c-30.337,19.407-63.407,26.735-99.011,22.436c-27.868-3.365-53.591-13.816-79.125-24.814
		c-7.132-3.072-9.12-6.78-5.232-14.274c12.355-23.817,27.315-45.685,46.382-64.602c29.268-29.038,64.705-35.118,103.694-27.278
		c8.878,1.786,17.636,4.162,26.479,6.132c30.696,6.84,48.806-2.147,60.589-31.395c5.393-13.385,8.841-27.554,13.153-41.307
		c5.94-0.371,5.203,4.055,5.598,6.871c8.472,60.476,41.075,111.007,68.204,163.631c9.206,17.857,22.503,21.401,41.913,13.812
		c61.095-23.888,109.646,2.965,138.948,46.362c12.012,17.79,22.172,36.826,33.338,55.196c3.488,5.738,4.741,10.591-3.449,12.76
		c-42.933,11.372-85.994,21.266-130.548,8.927c-47.765-13.229-75.442-46.059-88.275-92.343
		c-7.441-26.838-18.072-52.061-33.095-77.894c-4.034,13.395,0.677,24.61,1.579,35.771c5.475,67.756,11.37,135.479,17.302,203.197
		c1.837,20.97,6.792,41.354,13.585,61.226c7.747,22.662,18.27,27.092,39.64,17.426c49.159-22.235,90.131-11.36,122.134,32.131
		c22.479,30.549,36.285,65.083,47.298,100.972c1.947,6.345,3.97,12.959-5.443,14.352c-63.343,9.371-124.783,9.019-175.8-38.054
		c-18.889-17.428-30.208-39.392-34.448-64.809c-3.258-19.531-8.407-38.524-15.062-57.325c-6.097,3.142-4.808,8.902-5.688,13.639
		c-7.799,41.968-22.139,81.856-38.262,121.189c-6.307,15.386-8.742,31.35-9.213,48.023c-0.389,13.769,4.492,24.081,16.671,28.618
		c74.394,27.716,80.522,86.963,71.824,153.323c-0.587,4.481-2.261,8.88-2.398,13.348c-0.389,12.697-5.674,13.689-16.127,8.612
		c-23.75-11.535-48.593-20.9-71.48-39.961c0,14.55,0.001,25.57,0,36.591c-0.021,256.682-0.049,513.364-0.038,770.047
		c0,9.629,0.138,19.27,0.634,28.883c2.516,48.77,33.044,78.848,81.761,79.044c106.525,0.43,213.052,0.241,319.578,0.243
		c621.592,0.01,1243.184-0.26,1864.774,0.67c36.198,0.054,70.136,0.02,101.299-21.119c10.048-6.816,22.454-10.157,37.242-16.594
		c-29.329-5.523-55.503-10.464-81.681-15.38c-56.494-10.611-78.413-32.521-89.207-89.202c-6.554-34.417-6.59-34.17,27.606-29.219
		c22.19,3.212,43.373,8.597,60.92,23.507c15.773,13.402,26.57,29.809,26.377,51.12c-0.155,17.105,9.316,25.64,23.569,31.309
		c13.832,5.501,28.383,8.317,43.009,9.342c40.784,2.859,81.525,0.629,122.185-3.065c1.465-0.133,2.822-1.454,4.251-2.233
		c-0.542-5.666-5.317-5.903-8.59-6.721c-68.939-17.235-97.822-68.255-110.786-132.092c-3.018-14.862-2.676-30.401-3.965-45.622
		c-0.693-8.181,2.738-11.219,10.969-10.187c46.544,5.83,90.141,19.056,123.39,54.189c23.413,24.738,31.909,53.993,20.19,87.705
		c-8.776,25.243-0.795,37.333,25.989,36.977c40.274-0.536,79.844-8.89,119.762-13.503c20.394-2.357,40.772-4.842,62.882-7.474
		c-5.643-6.286-11.131-6.333-15.749-7.042c-59.9-9.2-90.004-50.235-108.758-102.516c-9.683-26.995-9.815-55.568-9.189-84.016
		c0.229-10.422,4.088-13.982,14.644-11.84c39.741,8.063,78.176,19.459,110.866,44.599c32.488,24.984,46.691,56.93,36.856,98.448
		c-7.428,31.36,4.511,49.749,34.925,50.184c71.313,1.022,142.648,0.129,214.351,5.328c-18.751-5.248-37.62-10.116-56.23-15.823
		c-38.958-11.947-76.187-26.764-98.485-64.325c-27.493-46.314-31.184-96.019-21.587-147.817c1.655-8.937,5.148-9.167,12.693-6.651
		c32.904,10.973,64.749,24.164,93.499,43.811c43.096,29.451,58.977,69.646,48.064,120.187c-5.423,25.113,2.655,40.05,32.194,48.468
		c60.255,17.171,118.216,43.323,181.8,47.903c2.567,0.185,5.083,1.069,11.355,2.448c-16.806,7.04-31.297,8.105-45.178,11.384
		c-28.136,6.644-53.614,16.94-70.505,42.835c-15.009,23.009-15.642,45.316-1.408,68.363c5.95,9.634,12.722,18.79,18.25,28.65
		c14.717,26.252,14.823,54.258,7.757,82.502c-3.422,13.676-8.031,27.174-13.393,40.221c-13.727,33.397-13.947,33.165-44.44,14.573
		c-78.136-47.641-85.264-103.416-63.895-184.25c6.808-25.751,26.96-42.667,50.114-55.212c9.884-5.355,20.182-10.034,30.226-21
		c-22.619,3.294-40.062,12.616-58.306,19.795c-27.625,10.87-37.582,27.931-36.745,59.677
		c2.093,79.402-50.689,136.883-114.238,163.702c-5.396,2.277-8.022,0.868-10.345-4.446c-20.78-47.534-31.701-95.645-10.294-146.162
		c15.718-37.091,45.224-59.25,81.666-71.823c48.133-16.606,97.801-28.22,147.092-40.973c6.297-1.629,13.46-1.782,19.484-8.115
		c-48.886,0.303-96.094,4.522-143.136,12.662c-49.735,8.605-98.558,20.623-146.958,34.66c-18.675,5.417-35.709,13.993-51.48,25.427
		c-9.38,6.801-12.845,14.947-10.465,26.352c10.204,48.891-8.806,85.335-49.504,111.309c-22.876,14.6-46.905,27.392-70.398,41.028
		c-4.734,2.748-8.581,4.733-12.126-2.268c-23.495-46.404-11.553-126.305,25.217-162.958c8.206-8.181,18.074-14.695,31.003-25.036
		c-51.943-0.24-99.821-4.824-144.116,19.837c35.052-6.771,70.414-4.451,105.941-4.941c-8.749,27.375-26.953,41.162-53.851,41.32
		c-14.732,0.086-29.511-0.603-44.182,0.37c-13.469,0.894-23.378-1.213-24.735-17.187c-0.185-2.178-1.097-5.58-4.947-5.997
		c-5.401,4.058-2.659,8.967-1.207,13.619c12.824,41.092-1.661,73.388-33.186,99.301c-23.304,19.156-50.417,32.334-77.239,45.845
		c-6.556,3.302-9.319,1.54-10.483-4.9c-7.018-38.833-10.94-77.563,5.063-115.363c19.15-45.232,58.986-68.446,113.931-71.296
		c4.505-0.234,8.827,0.253,13.189-1.687c44.614-19.845,92.083-23.938,139.727-21.132c57.264,3.373,112.394-3.271,167.287-20.003
		c37.168-11.329,75.974-17.288,114.11-26.367c-39.348-2.27-78.75-1.691-118.221-0.025c-109.068,4.607-215.059,30.873-322.72,45.343
		c-33.663,4.524-67.969,3.585-101.167,11.657c-39.624,9.634-79.515,18.789-111.708,46.463c-4.298,3.694-9.408,6.498-9.66,13.056
		c-3.189,82.79-60.589,105.864-120.044,113.104c-30.894,3.762-30.43,3.731-22.471-25.912c7.531-28.048,19.304-53.834,40.418-78.784
		c-11.699,0-19.92,0-28.141,0c-415.905,0.006-831.81,0.018-1247.716,0.014c-287.258-0.003-574.515,0.048-861.772-0.112
		c-57.607-0.032-101.336-31.212-117.713-82.548c-5.964-18.694-6.071-37.927-6.072-57.187
		c-0.013-266.881,0.016-533.762,0.033-800.643C270.463,1718.591,270.46,1668.988,270.46,1615.456z M341.376,1271.796
		c-17.66,76.284-40.981,151.804-30.397,234.659C344.502,1429.557,352.404,1351.955,341.376,1271.796z M3429.934,2651.501
		c-4.607-0.665-6.35,1.719-8.256,3.633c-22.224,22.314-26.024,72.187-7.505,98.252c1.973,2.777,4.37,6.412,8,4.163
		c3.03-1.877,2.267-6.172,1.402-9.405c-4.694-17.551-8.076-35.181-6.678-53.546
		C3418.058,2679.354,3425.648,2665.982,3429.934,2651.501z M3332.251,2655.737c-1.163-0.969-2.326-1.938-3.489-2.906
		c-21.246,17.896-35.845,40.878-47.592,65.874c-2.338,4.973-8.843,12.093-1.112,16.007c6.513,3.297,11.004-4.545,13.919-9.665
		C3307.034,2702.114,3319.544,2678.869,3332.251,2655.737z M286.675,1058.241c-24.481,9.217-49.001,18.335-73.374,27.828
		c-2.134,0.831-4.65,4.148-4.613,6.269c0.054,3.076,3.581,4.021,6.524,3.698C243.034,1092.979,269.773,1087.534,286.675,1058.241z
		 M406.624,1450.816c24.087,19.041,54.129,23.188,81.965,33.014c3.116,1.1,7.002,0.949,8.306-3.367
		c1.173-3.886-1.127-6.958-4.136-8.365c-8.642-4.04-17.27-8.843-26.449-10.849C446.596,1456.941,426.54,1454.199,406.624,1450.816z
		 M300.654,1146.285c-12.951,27.194-36.195,45.83-55.298,67.849c-3.695,4.259-11.24,9.679-5.544,15.58
		c6.751,6.994,12.214-1.404,16.784-5.429C280.155,1203.535,291.598,1175.625,300.654,1146.285z M402.791,1163.097
		c12.889,20.282,29.827,36.406,50.91,47.87c4.499,2.446,10.533,7.695,14.823,1.164c3.854-5.867-1.572-10.425-6.077-13.907
		C444.196,1184.114,424.534,1172.298,402.791,1163.097z M3331.345,2520.886c-11.015-23.379-30.864-39.719-45.871-59.855
		c-1.937-2.598-5.691-4.296-9.045-1.73c-4.46,3.411-1.58,7.154,0.355,10.444C3289.874,2492.011,3307.125,2509.974,3331.345,2520.886
		z M3103.412,2541.959c-13.831-23.63-25.882-48.818-53.341-60.331C3059.527,2508.89,3078.015,2528.424,3103.412,2541.959z
		 M2850.538,2669.384c-25.1,7.749-50.382,43.363-48.703,63.711c0.165,1.995,0.887,4.713,2.309,5.668
		c2.696,1.812,5.767,0.129,7.322-2.157c3.444-5.067,7.332-10.189,9.222-15.891
		C2826.58,2702.943,2833.824,2686.053,2850.538,2669.384z M2866.829,2585.987c-9.977-21.016-19.706-41.854-35.407-58.911
		c-2.605-2.831-4.924-6.823-9.627-3.381c-2.472,1.81-3.587,4.397-2.018,7.343
		C2831.373,2552.808,2844.566,2573.233,2866.829,2585.987z M266.559,1443.243c-19.426,7.025-36.469,17.563-51.614,31.124
		c-2.476,2.217-5.331,5.513-3.391,8.864c2.019,3.487,6.312,2.514,9.235,0.95C239.213,1474.319,257.405,1464.084,266.559,1443.243z
		 M323.56,1695.766c0.13-21.235-9.053-63.216-14.605-68.622C300.783,1656.05,305.522,1680.582,323.56,1695.766z M3098.115,2656.128
		c-24.279,8.653-38.338,22.389-48.397,40.692c-1.769,3.218-5.466,7.149-0.855,10.359c4.258,2.964,7.335-0.981,9.815-3.912
		C3071.025,2688.679,3083.222,2673.964,3098.115,2656.128z M2653.4,2599.924c-9.036-14.533-16.308-29.892-29.015-41.231
		c-2.408-2.149-5.37-4.534-8.849-1.959c-2.117,1.567-1.937,4.301-0.564,6.041C2626.107,2576.895,2634.435,2593.912,2653.4,2599.924z
		 M212.176,1768.975c0-2.364,0.494-6.922-0.134-11.32c-0.681-4.772-0.44-11.995-6.921-11.82c-7.623,0.207-3.814,7.658-4.477,11.906
		c-0.686,4.392-0.334,9.019,0.083,13.495c0.649,6.966,0.08,18.137,8.005,17.447C216.354,1788.018,211.763,1777.431,212.176,1768.975
		z M2617.799,2689.045c-20.15,1.874-36.702,16.628-40.552,36.285C2593.803,2715.487,2603.743,2701.583,2617.799,2689.045z
		 M159.088,1663.312c-10.236-7.702-20.735-9.321-31.486-9.886c-2.635-0.138-6.041-0.281-6.783,3.282
		c-0.718,3.448,2.309,5.031,4.741,6.035C136.009,1667.053,146.586,1671.076,159.088,1663.312z"/>
	<path d="M1074.086,342.148c8.965-5.549,6.048-13.572,4.25-21.206c-3.868-16.417-13.903-29.569-23.227-43.066
		c-31.981-46.292-30.082-111.375,4.256-155.733c5.028-6.495,9.889-7.999,17.363-4.481
		c117.693,55.399,113.615,197.374,42.003,250.043c-16.714,12.293-32.667,25.449-51.807,34.541
		c33.508-5.629,67.18-10.519,96.479-28.255c15.704-9.506,17.323-27.143,16.158-44.042c-2.741-39.748,1.635-77.656,22.08-113.156
		c18.725-32.513,49.371-50.723,78.953-70.53c5.71-3.824,10.587-2.57,13.892,3.935c33.888,66.701,40.889,148.571-29.844,204.351
		c-7.593,5.988-15.836,11.195-25.266,13.641c-8.449,2.192-17.162,3.37-25.373,6.397c25.455,0.493,48.519-6.542,68.475-22.658
		c2.126-1.717,3.505-5.191,6.66-4.169c22.129,7.17,39.926-9.942,60.724-11.969c-17.746,0-35.492,0-55.702,0
		c7.899-11.799,15.371-21.039,19.322-32.237c1.701-4.823,5.513-6.893,10.618-6.662c1.694,0.076,3.398-0.111,5.097-0.097
		c16.995,0.139,35.089-3.322,50.688,1.421c17.036,5.18,6.114,29.014,18.514,40.599c5.167-4.285,2.188-9.274,0.73-13.486
		c-13.032-37.673-0.361-69.105,24.403-96.855c26.224-29.386,61.314-45.964,95.684-63.407c10.568-5.363,9.922,3.828,11.21,8.774
		c9.235,35.439,14.065,71.285,4.228,107.345c-3.19,11.693-0.437,15.061,11.297,14.67c19.244-0.64,38.532,0.152,57.786-0.309
		c9.345-0.224,15.548,1.546,14.683,12.664c-0.165,2.124,0.903,4.404,1.643,6.528c7.326,21.031,7.34,21.072-15.916,21.071
		c-28.897-0.001-57.808,0.375-86.683-0.443c-7.788-0.221-12.421,2.243-17.419,7.482c-18.506,19.396-41.153,31.817-67.449,36.861
		c-13.537,2.596-23.596,9.916-36.462,22.682c25.483-2.391,46.776-4.457,68.083-6.373c48.541-4.365,96.774-10.914,144.601-20.322
		c30.567-6.013,37.256-18.618,24.98-46.671c-15.098-34.501-7.234-74.076,20.785-103.167c22.604-23.468,50.332-40.244,76.975-58.44
		c5.767-3.939,9.265-2.815,11.549,3.483c19.733,54.389,24.269,132.926-42.26,174.621c-16.486,10.332-33.032,20.568-53.276,33.166
		c25.854,2.713,46.169-1.818,66.476-5.588c45.846-8.511,89.463-24.271,132.412-41.931c10.61-4.363,19.069-11.633,19.724-26.228
		c-17.63,33.17-48.298,30.386-77.815,30.58c-19.548,0.129-39.098,0.024-62.044,0.024c11.039-13.548,20.959-23.517,26.688-36.456
		c2.566-5.797,8.786-4.246,13.68-4.185c28.886,0.36,57.787,0.512,86.645,1.685c8.923,0.362,11.215-1.217,11.401-10.714
		c0.837-42.759,21.043-69.402,61.95-83.133c16.086-5.399,32.62-9.489,48.618-15.119c11.815-4.157,15.476-1.34,13.45,11.084
		c-5.13,31.447-10.58,62.67-30.957,88.781c-1.252,1.604-1.697,3.837-3.076,7.1c14.715,0,28.056,0.002,41.397,0
		c616.489-0.092,1232.978-0.178,1849.467-0.285c77.627-0.014,155.255-0.155,232.883-0.203
		c87.468-0.054,144.129,55.744,144.139,142.971c0.032,295.779-0.245,591.558-0.401,887.337c-0.006,11.215-0.001,22.43-0.001,36.868
		c22.806-26.901,52.599-45.013,67.582-76.252c8.947-18.655,9.124-36.949-4.528-55.688c-20.462-28.086-14.24-59.24-4.266-89.633
		c11.738-35.769,12.123-35.768,38.822-9.562c21.504,21.108,35.888,45.105,32.426,76.826c-1.585,14.531-4.952,29.424-16.528,38.02
		c-20.499,15.221-25.582,38.945-39.89,61.657c23.011-9.305,44.418-11.565,60.54-29.804c18.185-20.573,43.382-22.55,69.148-15.009
		c19.313,5.652,35.591,17.209,52.546,27.43c7.497,4.519,7.544,8.731,0.146,13.694c-12.217,8.196-23.741,17.485-36.276,25.134
		c-32.908,20.079-61.018,19.001-91.175-4.623c-10.129-7.935-19.296-9.576-31.159-6.388c-42.542,11.433-70.514,42.245-96.378,74.473
		c-8.439,10.516,0.195,26.791-1.695,43.212c60.537-48.668,119.897-32.701,179.614-6.56c10.121,4.431,12.434,8.718,5.182,18.568
		c-15.48,21.027-30.783,41.97-51.082,58.841c-35.938,29.867-74.899,34.699-117.343,15.741c-28.86-12.89-56.969-4.732-75.024,21.974
		c-40.419,59.784-57.534,126.14-54.266,197.875c1.237,27.146,3.37,54.277,8.866,80.992c0.642,3.12-0.09,7.046,5.246,8.983
		c3.721-24.593,7.246-48.923,11.119-73.198c4.151-26.028,13.827-50.05,26.781-72.918c21.066-37.187,54.84-54.712,95.37-60.358
		c31.133-4.338,62.043-1.515,92.503,7.344c11.656,3.391,12.215,7.953,7.766,17.928c-26.101,58.522-61.346,107.407-127.954,123.818
		c-7.62,1.877-9.085,7.231-8.008,12.61c1.789,8.928,7.687,3.042,11.693,1.682c56.203-19.071,106.978-3.066,156.258,23.661
		c7.319,3.97,8.007,8.288,3.842,14.877c-12.401,19.619-24.415,39.405-40.443,56.528c-39.498,42.194-86.68,43.844-137.675,27.298
		c-9.134-2.964-18.238-6.532-27.642-8.055c-24.978-4.047-38.1,2.876-49.278,25.632c-3.047,6.203-6.957,9.603-13.516,11.333
		c-10.329,2.724-20.447,6.249-32.051,9.87c-5.854-21.062-12.811-42.25-21.963-62.575c-4.863-10.801-9.614-21.921-16.356-31.536
		c-7.602-10.842-17.439-19.505-32.967-14.588c-46.102,14.601-81.891-4.101-112.561-36.467
		c-24.626-25.989-37.123-59.208-51.518-91.202c-2.426-5.393-1.24-7.708,3.981-10.307c62.386-31.058,160.301,1.146,190.663,62.898
		c7.074,14.387,10.598,29.909,13.75,45.411c7.756,38.144,28.611,70.984,41.999,111.23c5.963-14.253,3.611-24.564,2.018-34.553
		c-6.862-43.026-19.423-84.997-23.51-128.565c-2.49-26.536-4.005-53.088-3.659-79.724c0.412-31.83-7.668-61.699-21.428-89.99
		c-9.133-18.776-15.991-21.15-35.344-13.561c-36.717,14.396-69.554,6.922-97.521-19.091
		c-39.971-37.178-54.385-87.698-68.174-138.172c-1.976-7.235,2.826-8.381,8.538-9.123c42.91-5.574,85.202-3.022,125.107,14.319
		c50.778,22.066,74.073,64.65,80.21,117.396c2.79,23.983,11.03,45.616,20.441,68.612c5.826-5.533,6.486-11.607,7.888-17.364
		c13.067-53.651,33.737-104.328,58.903-153.386c8.835-17.223,21.06-34.373,10.899-55.818c-3.787-7.992-8.135-15.272-16.692-18.233
		c-50.529-17.482-62.716-58.017-63.007-105.236c-0.147-23.958,5.897-47.077,12.105-70.125c2.727-10.121,7.006-9.218,14.437-5.182
		c22.508,12.228,42.756,27.361,60.303,45.847c5.433-2.882,3.127-7.348,3.128-10.849c0.023-259.515-0.085-519.03-0.142-778.544
		c-0.015-68.77-36.187-105.109-104.46-105.097c-719.615,0.124-1439.23,0.326-2158.845-0.124
		c-28.062-0.017-54.01-0.549-78.526,17.112c-18.589,13.392-42.735,16.783-64.215,28.435c13.651,1.585,27.266,4.08,40.957,4.597
		c57.568,2.175,89.904,29.099,101.831,85.651c6.876,32.603,6.895,32.469-26.362,27.731c-13.523-1.926-26.974-4.319-39.407-9.914
		c-25.135-11.311-42.115-29.721-41.305-58.586c0.544-19.385-8.737-27.929-25.561-31.93c-21.146-5.029-42.842-6.989-64.159-4.433
		c-38.275,4.59-76.489,9.027-115.068,9.722c-3.256,0.059-6.843-0.087-10.278,4.877c15.459,1.125,29.934,2.188,44.41,3.23
		c42.728,3.076,70.736,27.188,90.067,63.385c19.17,35.895,22.454,74.321,17.491,113.983c-0.786,6.284-1.805,10.891-10.394,8.754
		c-36.431-9.065-72.52-18.955-102.094-43.709c-29.967-25.083-42.543-56.263-32.147-95.277c5.175-19.42,1.289-26.883-17.027-34.435
		c-5.721-2.359-11.772-4.468-17.862-5.297c-54.62-7.439-108.984,0.828-166.031,1.099c6.177,7.868,12.86,8.172,18.335,9.374
		c51.732,11.362,79.539,47.327,95.747,94.118c10.908,31.489,12.318,64.303,7.485,97.363c-1.107,7.57-3.531,11.784-11.957,9.069
		c-35.548-11.457-71.756-21.514-102.002-44.886c-34.179-26.41-44.736-61.141-35.185-102.642c0.76-3.305,1.833-6.537,2.634-9.833
		c6.027-24.796,2.988-29.682-20.899-36.905c-24.759-7.486-49.716-9.627-75.54-7.231c-47.278,4.387-94.529,9.665-146.126,8.6
		c17.001,6.838,31.222,7.103,44.924,9.662c78.976,14.748,125.922,69.343,128.516,149.878c0.642,19.95-1.761,39.592-6.712,58.909
		c-1.483,5.786-3.1,10.549-11.483,7.502c-39.613-14.399-77.905-31.06-109.206-60.377c-31.731-29.72-44.453-64.539-29.617-107.397
		c6.407-18.507-0.639-28.869-22.737-35.824c-41.67-13.114-84.857-19.761-127.335-29.429c-15.914-3.622-32.02-6.403-50.801-10.113
		c14.589-6.283,27.861-8.782,41.192-10.411c32.609-3.987,55.857-23.006,76.189-46.699c5.088-5.928,9.279-12.767,6.963-21.4
		L1074.086,342.148z M1099.74,415.746c64.646,2.654,128.22-4.357,191.834-10.911c25.974-2.676,51.752-6.313,76.304-15.6
		c13.229-5.004,26.49-10.427,34.533-23.28c2.151-3.438,3.608-7.336,1.946-11.272c-2.123-5.027-6.784-3.132-10.371-2.608
		c-8.951,1.307-17.892,2.855-26.713,4.854c-58.949,13.359-116.462,32.579-177.131,39.072
		C1159.652,399.263,1129.852,408.959,1099.74,415.746z M4140.072,1871.768c13.728-22.006,21.825-41.384,37.461-55.847
		c5.374-4.971,6.241-31.924,1.677-33.238c-11.185-3.221-18.826,4.166-26.277,11.143c-3.44,3.222-5.19,7.136-6.287,11.625
		C4141.723,1825.593,4139.905,1846,4140.072,1871.768z M1097.777,249.698c2.309,14.159,5.203,27.182,6.366,40.358
		c1.187,13.452,1.014,27.059,0.805,40.589c-0.198,12.778-8.009,23.458-14.871,38.984
		C1125.582,339.665,1128.946,266.441,1097.777,249.698z M4049.544,1549.694c-0.347-2.807-0.088-4.194-0.648-4.744
		c-22.368-21.905-51.848-30.706-79.602-42.506c-6.441-2.739-7.432,3.108-5.614,8.028c2.523,6.829,8.68,10.73,14.751,13.093
		C4001.7,1532.621,4025.286,1540.862,4049.544,1549.694z M4165.26,1881.495c24.381-7.989,49.509-11.324,73.866-17.812
		c3.135-0.836,6.042-3.082,8.637-5.189c1.602-1.301,3.648-3.845,3.319-5.356c-0.653-2.994-3.733-3.903-6.791-3.588
		C4214.952,1852.569,4186.196,1857.109,4165.26,1881.495z M1425.573,357.967c21.52-17.384,33.57-40.594,40.889-66.675
		c0.95-3.385-0.393-6.776-3.737-8.646c-2.396-1.34-4.598,0.009-5.647,1.957C1444.444,308.052,1429.093,330.33,1425.573,357.967z
		 M1197.705,356.411c24.44-19.875,42.164-43.898,47.837-75.354c0.688-3.814,2.622-8.237-2.58-10.116
		c-5.217-1.885-7.105,2.751-8.39,6.188C1224.351,304.446,1211.472,330.501,1197.705,356.411z M4160.012,1765.71
		c20.423-13.634,40.932-26.965,56.649-46.119c2.685-3.272,6.67-7.292,2.516-11.819c-4.241-4.622-8.566-0.738-11.892,1.719
		C4187.24,1724.299,4169.695,1741.412,4160.012,1765.71z M1622.85,425.963c-1.116,0.955-2.231,1.91-3.346,2.866
		c8.647,13.829,17.215,27.707,25.969,41.467c5.135,8.072,10.367,16.1,15.994,23.828c1.442,1.979,4.208,4.242,7.339,2.625
		c3.059-1.58,3.06-4.542,2.038-7.321C1661.176,463.14,1646.131,441.195,1622.85,425.963z M4145.232,1530.171
		c14.651-24.099,43.477-42.051,34.318-81.256C4165.781,1478.383,4152.146,1502.85,4145.232,1530.171z M4046.891,1824.006
		c-10.082-17.698-21.78-33.48-38.058-45.175c-3.712-2.668-8.503-5.249-12.229-1.22c-3.3,3.569,0.301,7.837,2.715,10.334
		C4013.265,1802.372,4029.16,1814.372,4046.891,1824.006z M1169.055,469.074c9.75,13.966,19.424,27.985,29.292,41.866
		c3.227,4.54,6.142,9.633,11.651,11.838c1.838,0.735,4.814,1.088,6.08,0.097c1.267-0.993,2.112-4.518,1.32-5.848
		C1205.531,497.112,1192.814,477.911,1169.055,469.074z M4202.143,1493.124c14.562-3.403,29.169-6.627,43.663-10.296
		c5.93-1.501,12.217-2.861,16.388-8.019c1.716-2.122,3.462-4.518,1.996-7.614c-1.445-3.052-4.422-4.173-7.035-3.265
		C4237.497,1470.763,4217.159,1476.359,4202.143,1493.124z M1438.9,502.58c-3.385-22.174-14.74-38.984-33.679-50.687
		C1412.369,471.533,1417.702,492.397,1438.9,502.58z M4165.786,1350.256c2.586-19.535-1.43-37.443-10.013-54.323
		c-1.512-2.974-3.671-5.951-7.851-4.872c-2.691,0.694-3.392,3.271-2.961,5.37
		C4148.871,1315.468,4154.046,1334.054,4165.786,1350.256z M1658.463,347.977c13.858-15.119,17.515-34.58,24.251-52.635
		c0.981-2.63,0.57-5.873-2.423-7.304c-3.05-1.457-5.573,0.278-6.984,2.916C1663.78,308.765,1659.486,327.909,1658.463,347.977z
		 M1817.138,396.128c6.747,9.321,10.92,15.234,15.25,21.03c5.396,7.223,10.821,14.43,16.448,21.473
		c1.821,2.279,4.614,3.528,7.492,1.897c2.692-1.526,1.385-3.993,0.388-5.834C1848.214,418.99,1840.104,402.845,1817.138,396.128z
		 M4400.869,1297.103c-13.497-5.359-25.221-2.994-36.91-0.278c-2.81,0.653-5.331,2.357-5.391,5.535
		c-0.063,3.398,2.656,4.689,5.559,4.936C4376.887,1308.382,4389.196,1307.66,4400.869,1297.103z M1875.851,308.542
		c16.169-7.938,22.6-20.508,29.755-32.356c1.616-2.676,3.88-6.553-0.116-8.639c-3.22-1.681-6.466,0.741-8.589,3.573
		C1888.969,281.7,1880.276,291.869,1875.851,308.542z M4309.252,1253.365c12.349-15.532,16.455-28.777,14.712-43.817
		c-0.386-3.327-1.618-6.958-5.987-6.345c-3.527,0.494-3.749,4.033-3.54,6.678
		C4315.481,1223.119,4311.577,1235.916,4309.252,1253.365z"/>
	<path d="M151.809,856.537c-15.39-0.141-30.62-0.739-45.525-4.784c-17.777-4.825-22.501-11.372-19.635-29.346
		c7.814-48.992,37.198-85.135,71.179-118.476c40.859-40.089,93.704-57.953,145.299-77.904
		c29.553-11.427,60.152-19.551,91.413-25.134c20.585-3.676,36.944,6.96,41.83,27.886c1.024,4.384,0.937,10.312,3.763,12.781
		c16.624,14.528,5.23,23.222-4.862,34.403c-30.725,34.04-61.704,67.821-94.968,99.383
		C287.484,825.465,225.608,855.018,151.809,856.537z M378.166,659.635c-27.943,9.012-49.727,23.689-72.021,37.245
		c-3.815,2.32-4.43,6.362-1.322,10.256c3.865,4.843,8.641,5.278,13.441,2.013c11.664-7.934,23.329-15.896,34.587-24.388
		C361.454,678.273,372.551,674.181,378.166,659.635z"/>
	<path d="M4265.651,2511.757c-67.693-0.288-124.957-10.75-181.692-24.832c-8.221-2.041-17.209-3.989-5.204-14.064
		c9.861-8.276,10.022-20.213,8.873-31.416c-0.891-8.676,2.375-12.098,9.699-14.784c21.761-7.981,43.312-16.532,65.016-24.671
		c35.532-13.324,69.408-29.786,102.817-48c73.397-40.013,146.774-35.822,217.472,8.049c20.997,13.029,22.565,27.986,6.819,48.594
		c-38.951,50.977-92.438,78.742-153.478,93.513C4310.005,2510.43,4283.436,2512.471,4265.651,2511.757z M4151.784,2440.639
		c0.412,2.028,0.824,4.056,1.236,6.083c30.258,1.992,60.055-3.414,89.866-7.941c4.764-0.723,7.813-4.716,6.704-10.126
		c-1.27-6.194-6.079-8.166-11.503-7.378c-9.478,1.378-18.901,3.286-28.238,5.442
		C4190.456,2431.196,4171.134,2435.981,4151.784,2440.639z"/>
	<path d="M4336.941,2722.276c-88.548-0.78-161.214-39.653-225.708-96.25c-25.443-22.328-47.915-48.021-72.109-71.805
		c-7.099-6.978-8.391-11.739,0.377-18.583c6.559-5.119,13.019-11.712,16.558-19.074c7.386-15.368,16.432-17.514,32.865-12.931
		c59.44,16.577,121.33,21.254,181.433,34.635c77.805,17.322,129.746,65.633,158.312,139.444c8.212,21.22,7.05,23.218-13.716,31.469
		c-9.412,3.739-19.121,7.113-29.002,9.197C4369.872,2721.768,4353.46,2722.876,4336.941,2722.276z M4108.653,2538.178
		c1.211,3.438,1.306,6.167,2.695,7.278c21.389,17.117,47.133,25.969,71.644,37.114c4.175,1.898,9.503,0.981,10.998-4.63
		c1.567-5.882-2.103-9.817-7.094-11.914c-11.418-4.799-22.846-9.689-34.591-13.571
		C4138.27,2547.817,4125.516,2538.89,4108.653,2538.178z"/>
	<path d="M142.087,652.76c-39.996-2.44-83.252-18.893-120.399-50.029c-28.549-23.929-28.829-36.719-1.331-61.541
		c49.324-44.524,108.814-64.343,174.084-64.932c73.787-0.665,144.327,18.629,213.995,41.097c9.491,3.061,12.545,7.247,7.593,17.255
		c-4.788,9.676-6.888,21.071-3.862,31.489c3.425,11.792-1.706,14.827-11.477,16.648c-58.565,10.916-114.824,29.3-169.492,52.78
		C205.46,646.584,178.763,653.32,142.087,652.76z M355.283,561.641c-34.023-8.385-63.67-8.583-93.335-8.131
		c-5.537,0.084-10.054,3.531-9.766,9.599c0.327,6.879,6.192,7.296,11.35,7.223c16.993-0.242,34.039-0.044,50.953-1.399
		C326.441,567.975,338.878,568.159,355.283,561.641z"/>
	<path d="M89.742,284.147c-0.767-12.911,8.242-16.966,17.862-19.572c31.76-8.601,63.788-7.42,96.005-2.379
		c70.294,11,125.76,48.138,174.953,97.221c26.499,26.44,51.256,54.386,76.015,82.393c7.572,8.565,8.418,14.322-1.929,21.441
		c-11.495,7.909-19.116,19.492-21.465,33.458c-1.359,8.078-4.418,8.632-11.399,6.282c-54.775-18.437-111.799-28.375-167.351-43.643
		c-80.606-22.153-134.39-74.347-158.65-155.307C91.849,297.586,91.062,290.787,89.742,284.147z M389.095,458.731
		c-22.969-22.479-45.533-39.778-68.75-56.265c-4.08-2.898-8.773-2.376-12.06,1.977c-3.832,5.076-0.153,9.096,3.252,11.54
		c13.767,9.882,27.88,19.291,42.011,28.654C363.174,451.014,372.385,458.605,389.095,458.731z"/>
	<path d="M4342.501,2122.777c9.013,0.445,15.822,0.49,22.569,1.166c30.2,3.02,37.223,12.042,29.305,42.417
		c-12.129,46.53-37.295,85.936-71.212,119.587c-31.21,30.967-68.075,54.351-107.094,73.943
		c-37.886,19.024-77.509,34.156-117.917,47.154c-7.663,2.465-10.641,2.588-14.147-6.832c-5.587-15.011-14.452-29.004-23.374-42.471
		c-3.517-5.308-4.14-8.17-0.452-12.947c38.691-50.105,72.123-104.27,115.767-150.544
		C4221.686,2145.753,4279.295,2125.06,4342.501,2122.777z M4118.846,2344.049c26.219-10.048,47.437-27.243,69.212-43.478
		c3.831-2.855,4.746-7.74,0.779-11.871c-3.856-4.016-8.74-3.25-12.242-0.369C4155.927,2305.333,4134.138,2321.193,4118.846,2344.049
		z"/>
	<path d="M295.969,166.079c0.388-18.445,2.498-41.493,11.372-63.356c9.318-22.957,15.573-25.884,38.698-17.382
		c63.159,23.219,107.411,67.648,139.401,125.482c21.138,38.215,28.971,80.65,37.746,122.7c5.083,24.356,9.158,48.92,14.13,73.301
		c1.578,7.737,2.559,12.792-8.467,12.554c-14.862-0.321-27.236,7.206-38.037,16.659c-8.934,7.82-14.25,8.264-22.843-2.182
		c-30.922-37.589-62.061-75.548-100.692-105.415C315.037,288.051,296.075,234.145,295.969,166.079z M480.338,379.84
		c-8.096-26.414-19.391-49.443-29.65-72.849c-2.485-5.67-6.224-12.227-13.844-8.325c-8.33,4.265-5.197,11.365-1.691,17.42
		c10.127,17.486,20.404,34.887,30.8,52.215C468.689,372.862,470.018,379.096,480.338,379.84z"/>
	<path d="M4229.353,2842.161c0.155,17.701-3.689,34.776-6.976,52.018c-2.02,10.597-7.167,12.827-16.513,10.768
		c-96.949-21.36-167.502-74.583-201.32-170.015c-17.592-49.642-26.028-101.738-35.329-153.484
		c-1.769-9.844-0.831-16.665,11.101-17.683c3.834-0.327,8.304-1.389,11.152-3.732c16.871-13.879,27.682-6.235,40.211,7.809
		c39.219,43.963,81.323,84.883,130.43,118.199c29.252,19.846,46.649,48.726,55.856,82.571
		C4224.514,2792.688,4228.797,2817.152,4229.353,2842.161z M4006.85,2610.573c8.839,27.083,22.28,50.688,37.003,73.646
		c3.068,4.785,7.347,10.086,13.677,5.664c6.907-4.826,3.302-10.741-0.313-16.151c-11.575-17.326-22.956-34.783-34.689-52.001
		C4019.247,2616.917,4016.785,2610.563,4006.85,2610.573z"/>
	<path d="M869.588,208.391c0.133,82.266-31.353,147.135-88.015,200.377c-29.313,27.544-61.575,51.486-95.363,73.368
		c-8.705,5.638-13.82,7.249-18.005-5.341c-4.741-14.264-14.466-27.574-29.487-30.464c-15.025-2.89-11.338-8.79-7.917-17.953
		c15.799-42.314,31.589-84.639,46.65-127.219c13.629-38.534,28.954-75.979,55.658-107.76c26.124-31.091,57.794-53.528,96.774-65.819
		c15.154-4.779,23.394,0.319,28.851,14.256C867.583,164.434,868.927,188.063,869.588,208.391z M667.792,436.765
		c1.485,1.257,2.971,2.514,4.456,3.771c21.182-19.43,39.902-41.217,58.203-63.373c3.037-3.677,4.203-8.271-0.18-12.125
		c-4.968-4.368-9.977-2.744-13.225,1.784C700.426,389.992,684.173,413.425,667.792,436.765z"/>
	<path d="M688.177,948.851c-1.808,45.665-13.489,88.295-39.089,126.494c-14.357,21.422-22.461,23.543-42.653,7.881
		c-64.2-49.794-95.136-115.451-87.58-196.836c5.438-58.575,16.578-116.541,19.767-175.443c1.142-21.099,2.282-20.928,21.937-15.062
		c4.825,1.44,10.647,3.954,14.79,2.499c18.474-6.485,22.051,6.035,27.819,18.713c22.244,48.893,45.24,97.445,68.139,146.037
		C684.133,890.353,689.169,919.004,688.177,948.851z M564.515,800.339c0.71,15.855-0.667,29.44,2.506,42.747
		c1.516,6.357,3.983,12.666,11.953,11.275c7.626-1.331,6.739-8.316,5.983-13.689c-3.288-23.378-6.995-46.698-10.622-70.028
		c-0.51-3.284-1.058-7.407-5.688-6.523c-4.118,0.786-4.063,4.886-4.096,8.219C564.45,782.469,564.515,792.598,564.515,800.339z"/>
	<path d="M3693.574,2400.508c-41.756,1.353-83.665,5.737-124.837-5.609c-43.929-12.106-83.032-32.853-114.238-66.542
		c-21.783-23.517-21.419-31.644,4.775-49.56c64.648-44.218,134.77-54.172,208.04-25.804
		c56.875,22.021,111.277,49.839,165.233,78.355c10.247,5.416,11.772,9.64,3.099,18.269c-7.287,7.25-10.356,16.501-8.986,27.814
		c1.924,15.887-8.837,26.022-24.594,24.393C3765.925,2398.088,3729.758,2399.455,3693.574,2400.508z M3765.905,2362.361
		c-25.252-14.157-52.866-20.517-80.778-25.744c-4.203-0.787-7.637,2.296-7.886,7.052c-0.247,4.698,2.846,7.27,6.974,8.365
		C3710.806,2359.087,3737.289,2366.983,3765.905,2362.361z"/>
	<path d="M3966.35,2305.071c-18.327-12.889-33.285-14.136-48.24-4.751c-5.398,3.388-7.556,1.175-10.207-3.554
		c-31.509-56.202-68.292-109.771-93.923-168.859c-30.73-70.841-16.561-138.681,27.165-200.451
		c16.989-23.999,30.476-24.563,51.428-3.994c47.5,46.632,75.604,102.977,77.707,170.081
		C3972.441,2162.513,3958.87,2231.116,3966.35,2305.071z M3916.726,2235.553c1.813-0.187,3.626-0.375,5.439-0.562
		c4.678-29.514-0.869-58.583-6.286-87.591c-0.786-4.211-4.881-6.244-9.395-4.651c-4.797,1.692-7.749,5.503-6.762,10.466
		C3905.19,2180.702,3911.02,2208.115,3916.726,2235.553z"/>
	<path d="M3882.223,2552.033c-5.952,18.657-11.21,35.962-16.984,53.094c-19.28,57.204-33.328,116.528-65.189,168.761
		c-21.037,34.488-45.639,66.164-80.671,87.988c-6.701,4.175-13.627,8.116-20.81,11.369c-28.889,13.087-35.214,11.196-41.99-19.793
		c-20.572-94.068-3.451-178.37,68.049-247.51c33.537-32.43,70.847-59.701,111.291-82.773c6.247-3.564,12.502-7.873,19.721-0.499
		C3865.065,2532.297,3880.767,2536.492,3882.223,2552.033z M3844.536,2576.438c-0.81-1.177-1.426-3.158-2.583-3.553
		c-3.921-1.34-6.407,1.487-8.399,4.16c-13.491,18.091-27.029,36.152-40.139,54.516c-3.655,5.12-6.382,11.958,0.899,16.156
		c7.343,4.234,11.534-1.956,14.67-7.325c11.094-18.997,21.875-38.179,32.713-57.325
		C3842.795,2581.123,3843.477,2578.943,3844.536,2576.438z"/>
	<path d="M343.077,933.799c0.921-88.067,25.96-153.949,73.275-211.532c12.937-15.744,26.469-31.002,39.861-46.366
		c4.234-4.858,7.275-8.147,14.371-1.071c11.75,11.715,27.974,16.847,43.748,21.279c7.647,2.148,9.767,5.548,9.039,13.032
		c-6.348,65.331-8.978,131.35-25.382,195.11c-15.206,59.105-43.493,111.726-92.338,150.889
		c-18.754,15.037-19.287,14.482-30.571-5.907C352.897,1009.149,342.319,966.293,343.077,933.799z M481.145,710.405
		c-14.123,23.277-24.831,47.785-33.021,73.352c-1.529,4.772-1.276,10.91,5.3,12.37c6.1,1.354,9.801-3.446,11.233-8.286
		C472.134,762.558,480.479,737.434,481.145,710.405z"/>
	<path d="M3830.356,2822.795c-1.74-31.757,3.706-59.489,11.656-86.677c16.328-55.829,33.689-111.347,53.402-166.094
		c6.82-18.94,9.676-15.899,28.254-13.193c27.993,4.076,29.32,21.981,32.643,42.711c7.155,44.631,19.375,88.222,29.17,132.315
		c18.355,82.638-8.093,153.21-63.534,213.345c-30.273,32.836-44.781,28.912-64.518-11.091
		C3839.658,2898.093,3830.132,2859.984,3830.356,2822.795z M3920.587,2632.455c-8.642,4.694-6.803,12.186-7.568,18.426
		c-2.269,18.54-4.376,37.108-6.063,55.708c-0.601,6.629-1.351,14.968,8.132,15.893c10.754,1.049,8.975-8.006,9.148-14.345
		c0.339-12.448,0.506-24.936-0.099-37.366C3923.528,2658.245,3926.148,2645.238,3920.587,2632.455z"/>
	<path d="M3608.867,2571c-55.242-1.949-106.002-8.781-152.88-33.03c-22.617-11.699-23.141-14.312-6.5-34.379
		c40.555-48.905,94.896-72.852,156.001-80.36c65.156-8.005,130.834-9.94,196.508-4.024c11.571,1.042,14.776,3.461,14.394,17.111
		c-0.524,18.724,5.501,37.887,18.236,53.24c7.183,8.66,7.627,12.974-4.047,19.193C3760.067,2546.315,3685.484,2568.23,3608.867,2571
		z M3769.774,2456.415c-24.604,2.561-47.406,9.651-70.486,15.094c-5.218,1.23-11.984,3.719-10.102,11.043
		c1.951,7.594,8.674,8.174,15.059,5.994c17.488-5.973,34.985-11.975,52.169-18.751
		C3761.619,2467.743,3768.266,2465.771,3769.774,2456.415z"/>
	<path d="M3981.963,2241.007c-1.114-52.857,2.198-105.522,16.477-156.552c14.842-53.042,42.465-97.436,94.381-122.487
		c3.05-1.472,6.062-3.146,9.272-4.146c21.552-6.717,25.567-5.333,31.959,16.35c23.148,78.525,22.499,156.447-8.847,232.89
		c-17.729,43.237-42.821,82.239-71.099,119.307c-4.9,6.423-7.753,7.979-15.96,3.095c-15.375-9.15-30.28-20.218-48.683-23.114
		c-8.177-1.286-7.518-6.932-7.51-12.659C3981.979,2276.129,3981.963,2258.568,3981.963,2241.007z M4013.268,2266.485
		c16.345-25.311,24.278-53.417,29.107-82.569c0.708-4.273-2.091-7.728-6.3-8.817c-4.695-1.215-8.086,2.058-9.097,5.81
		C4019.452,2208.846,4013.954,2237.154,4013.268,2266.485z"/>
	<path d="M683.6,169.83c3.415,59.818-19.873,118.509-40.354,177.759c-7.744,22.401-16.73,44.37-24.961,66.605
		c-3.42,9.238-7.429,13.907-18.401,8.209c-10.171-5.282-21.954-5.038-33.25-2.83c-6.891,1.347-10.818-0.547-11.899-7.795
		c-8.335-55.919-26.193-110.447-29.261-166.923c-4.282-78.826,21.533-146.981,84.15-198.162c26.73-21.848,39.56-18.333,54.749,12.6
		C680.807,92.765,684.19,128.567,683.6,169.83z M586.115,381.755c1.61,0.276,3.22,0.551,4.831,0.827
		c6.849-30.887,11.282-62.191,12.541-93.963c0.187-4.728-2.563-8.771-8.489-8.259c-6.625,0.572-8.591,6.172-8.66,10.884
		C585.901,321.408,586.115,351.583,586.115,381.755z"/>
	<path d="M653.473,659.853c10.604-11.03,24.627-19.353,23.758-37.278c-0.227-4.699,5.181-5.386,9.231-5.349
		c63.042,0.578,125.118-13.465,188.032-13.149c62.82,0.315,115.13,25.889,156.815,72.718c14.56,16.357,13.978,24.041-3.366,37.93
		c-61.311,49.1-130.616,61.639-204.545,37.806C761.634,732.619,706.507,698.701,653.473,659.853z M703.747,645.032
		c-0.27,1.657-0.54,3.315-0.81,4.972c27.804,13.553,58.588,17.108,88.282,24.245c4.642,1.115,9.175-1.266,10.173-6.578
		c1.404-7.473-4.094-10.304-9.806-11.104C762.342,652.472,733.033,648.832,703.747,645.032z"/>
	<path d="M3589.979,2075.78c-0.152-31.183,3.953-36.222,35.302-33.705c71.168,5.715,125.223,42.689,168.217,97.148
		c30.938,39.188,52.674,84.299,77.856,127.169c6.296,10.719,12.485,21.506,19.015,32.081c3.608,5.843,2.001,8.266-2.899,13.589
		c-15.978,17.361-30.574,14.797-49.816,4.613c-47.417-25.097-95.611-48.875-144.419-71.154
		C3628.325,2215.891,3589.59,2134.887,3589.979,2075.78z M3823.793,2269.976c-0.669-1.075-1.48-3.253-2.997-4.685
		c-17.683-16.685-35.402-33.333-53.293-49.794c-3.345-3.078-7.718-5.824-11.94-1.412c-4.13,4.314-4.191,10.244,0.025,13.72
		c19.601,16.163,39.582,31.876,59.748,47.332C3818.725,2277.737,3823.115,2277.117,3823.793,2269.976z"/>
	<path d="M726.055,600.995c-5.337,0-9.866,0.046-14.393-0.01c-9.893-0.122-15.453,3.545-16.071-14.955
		c-0.798-23.906,12.768-51.644-8.583-73.77c-3.958-4.102-3.575-9.146,2.426-12.573c98.842-56.451,201.57-86.758,314.717-46.85
		c6.901,2.434,13.663,5.46,20.131,8.887c23.394,12.393,24.921,17.356,7.068,37.821c-43.071,49.374-98.238,76.894-162.516,87.193
		C821.253,594.362,773.182,596.747,726.055,600.995z M762.8,561.422c19.098-3.535,41.912-7.731,64.714-11.998
		c5.818-1.089,9.384-4.392,8.118-10.646c-1.296-6.403-6.637-8.019-11.812-6.599c-22.327,6.124-45.134,10.707-66.566,19.808
		c-2.891,1.228-7.037,2.429-5.584,6.787C752.664,561.76,756.096,561.751,762.8,561.422z"/>
	<path d="M884.831,914.821c0.881,46.277-3.293,51.041-45.057,45.709c-59.954-7.654-105.218-40.882-138.606-89.137
		c-36.81-53.201-61.422-113.183-88.249-171.797c-3.558-7.773-0.349-10.366,6.167-15.586c20.407-16.35,34.348-9.508,52.524,5.481
		c35.499,29.273,76.943,49.964,119.587,66.717c45.484,17.869,69.457,52.156,83.287,96.268
		C881.307,874.241,884.855,896.534,884.831,914.821z M667.742,718.566c0.614,14.065,36.398,67.24,46.59,70.966
		c3.463,1.265,6.583,1.362,9.265-1.476c4.034-4.268,2.243-8.668-0.695-12.185c-7.584-9.08-15.375-18.016-23.537-26.578
		C689.495,738.938,681.348,726.64,667.742,718.566z"/>
	<path d="M592.655,655.51c-0.473,1.809-1.165,3.368-1.249,4.959c-0.447,8.479,3.888,19.02-9.762,21.549
		c-12.89,2.388-14.934-6.992-17.351-15.925c-0.823-3.04-5.003-5.92-5.363-5.143c-6.054,13.044-21.27,4.741-28.456,12.039
		c-10.439,10.602-14.072,5.188-16.695-5.045c-2.385-9.307-5.242-14.551-13.722-4.461c-3.008,3.579-4.821,10.361-11.502,7.089
		c-5.872-2.875-9.344-8.133-9.358-15.046c-0.005-2.257,0.238-4.522,0.481-6.771c2.097-19.343,2.194-19.129-14.095-12.319
		c-9.394,3.928-12.727-2.644-13.058-9.977c-0.216-4.779,2.058-9.935,4.153-14.491c2.992-6.507,1.452-10.424-5.643-9.674
		c-7.187,0.76-14.189,2.066-16.582-6.713c-2.311-8.478,3.304-13.641,9.653-18.03c0.82-0.567,1.154-1.836,1.703-2.79
		c-1.929-3.359-5.466-3.488-8.631-4.654c-12.812-4.721-15.386-14.137-7.006-24.846c1.037-1.326,2.201-2.772,3.639-3.531
		c17.216-9.082,29.69-17.534,15.545-41.068c-6.624-11.02,7.898-16.736,19.096-14.929c10.394,1.677,11.788-0.8,9.066-10.51
		c-3.79-13.513,2.902-19.219,17.77-15.717c11.207,2.64,22.445,7.059,18.629-12.578c-1.295-6.667,4.061-10.369,9.379-12.575
		c7.34-3.044,14.877-2.201,20.516,3.554c5.219,5.327,10.554,8.896,17.948,11.349c9.439,3.131,13.963,3.944,16.416-7.778
		c2.502-11.954,12.031-8.525,18.737-4.263c9.582,6.088,14.952,15.492,13.703,27.34c-0.879,8.33,1.931,11.697,8.982,6.236
		c8.47-6.56,16.643-10.403,25.747-2.535c9.88,8.54,8.498,19.03,3.067,29.355c-4.572,8.693-3.215,11.568,7.403,11.552
		c15.872-0.024,18.136,5.534,8.518,19.578c-4.324,6.314-5.847,10.1,3.82,10.414c5.348,0.174,10.589,0.509,11.764,7.047
		c1.215,6.758-1.139,13.258-7.013,16.045c-11.742,5.573-14.487,10.468-1.218,17.229c5.013,2.555,8.186,7.115,7.207,12.299
		c-1.241,6.567-6.798,10.418-13.112,11.908c-10.644,2.513-20.423,3.162-10.515,18.891c6.004,9.532-4.39,12.104-12.091,11.881
		c-4.912-0.143-9.927-1.939-14.607-3.743c-8.511-3.282-11.364,0.494-8.303,7.647c3.128,7.307,9.172,13.754,0.453,20.834
		c-8.498,6.901-15.76,2.264-22.991-2.794C596.512,655.551,594.532,655.805,592.655,655.51z M498.49,600.603
		c-2.654,12.478,3.213,12.414,11.964,8.23c4.377-2.093,9.296-3.875,10.078,3.281c1.048,9.591,3.68,12.77,14.902,15.776
		c8.613,2.307,11.585,6.617,16.742-2.96c2.483-4.612,5.487-0.538,8.128,1.216c5.337,3.547,11.288,10.637,15.539-0.801
		c3.423-9.21,15.585,3.751,17.426-7.168c1.268-7.518,4.507-11.003,12.382-9.802c5.065,0.772,7.168-2.167,7.041-7.002
		c-0.167-6.308,2.079-10.501,8.652-12.708c4.785-1.607,4.939-6.211,1.88-9.7c-6.858-7.82-4.15-12.55,3.947-17.036
		c8.891-4.926,9.318-9.819-1.596-12.477c-5.639-1.374-8.326-4.066-4.849-9.446c4.695-7.265,4.397-11.78-4.951-14.603
		c-5.184-1.565-5.228-6.644-3.576-11.452c0.972-2.829,3.36-9.09-0.434-7.944c-21.335,6.442-24.794-35.59-49.52-17.708
		c-0.446,0.323-2.167-0.563-2.907-1.282c-11.039-10.741-23.58,7.42-35.208-1.648c-1.163-0.907-3.692,6.033-4.462,9.928
		c-0.838,4.242-0.757,10.177-7.553,8.493c-8.566-2.123-16.16-4.148-15.703,9.063c0.282,8.157-12.697,11.272-8.848,20.307
		c3.511,8.24,1.617,12.419-6.43,15.431c-7.91,2.96-5.671,6.458-1.635,12.557c6.668,10.077,1.999,26.981,18.923,31.403
		C499.112,592.733,498.512,597.838,498.49,600.603z"/>
	<path d="M3993.9,2520.715c-7.009,8.341-0.671,21.528-11.178,23.602c-14.033,2.771-15.976-13.407-23.713-20.264
		c-6.256,2.948-7.261,8.104-7.903,13.06c-0.658,5.081-2.27,8.913-7.939,9.034c-5.815,0.123-10.363-2.962-10.92-8.61
		c-1.636-16.547-8.112-15.539-20.071-7.889c-8.171,5.226-18.857,7.245-19.776-8.553c-0.398-6.826-3.62-9.332-9.998-6.406
		c-4.718,2.165-10.234,2.672-11.375-2.644c-3.322-15.479,13.447-18.58,19.587-28.527c4.187-6.782,11.239-2.851,14.93,3.163
		c6.025,9.816,22.722,7.597,24.431,22.021c2.073-0.53,4.662-0.451,6.132-1.694c7.555-6.384,13.789-7.975,23.666-1.877
		c12.893,7.96,7.165-10.376,13.902-12.513c6.664-2.113,17.358,10.609,18.466,0.966c1.639-14.263,7.597-15.407,18.718-16.575
		c7.178-0.754,3.519-6.987,1.017-10.445c-6.104-8.437-3.636-12.918,5.663-16.174c12.155-4.256,13.143-9.893,0.925-16.053
		c-1.936-0.976-3.443-2.802-5.149-4.235c17.058-19.178-21.699-26.348-9.751-45.711c3.239-5.249-5.72-7.101-10.635-5.76
		c-8.313,2.267-12.633-0.598-15.217-8.463c-2.914-8.869-7.958-8.773-15.623-4.181c-9.689,5.804-19.597,10.918-29.194-2.606
		c-4.043-5.698-11.572-3.394-13.102,5.337c-1.632,9.31-5.861,11.369-13.86,5.871c-7.153-4.917-10.478-2.475-9.367,5.887
		c0.884,6.659-0.907,10.762-8.158,12.135c-3.731,0.706-5.852,4.019-3.24,7.67c6.292,8.794,6.291,14.859-5.705,18.075
		c-3.537,0.948-2.285,4.901-0.235,6.98c4.168,4.228,2.964,7.505-0.337,11.702c-5.6,7.121-8.47,13.332,4.302,17.183
		c10.399,3.135,7.605,12.65,2.832,17.808c-7.768,8.397-14.249,22.435-29.992,14.977c-8.285-3.925-12.593-9.672-4.097-18.183
		c4.606-4.614,3.17-7.902-3.274-9.099c-7.634-1.417-14.65-4.209-15.303-13.187c-0.592-8.141,6.661-9.217,12.207-11.889
		c7.044-3.396,6.556-7.136-0.587-9.865c-7.087-2.707-14.449-5.178-12.529-15.047c1.825-9.382,6.771-13.974,17.4-14.74
		c12.248-0.882,5.091-8.149,1.686-12.392c-4.357-5.429-13.155-8.903-6.953-18.05c5.44-8.022,12.393-13.142,22.937-9.976
		c5.824,1.749,7.897,0.538,9.905-6.613c3.572-12.723,10.854-23.746,27.811-17.59c5.094,1.849,10.076,2.484,11.016-5.442
		c1.368-11.524,9.93-14.168,19.601-14.485c10.07-0.33,13.082,6.994,15.486,15.017c1.262,4.21,2.177,8.999,7.387,10.641
		c7.361-2.96,4.065-13.777,12.95-16.428c14.202-4.237,24.329,3.594,26.185,21.66c0.326,3.177-1.389,7.321,2.579,8.909
		c4.536,1.815,7.665-1.533,9.721-4.915c3.66-6.022,7.03-12.833,15.394-7.179c7.349,4.967,12.767,12.105,9.42,21.499
		c-2.57,7.213-3.301,10.798,6.094,12.609c8.145,1.57,9.705,8.185,6.247,15.963c-4.491,10.099-2.488,15.752,9.974,12.541
		c5.319-1.37,10.588-2.347,12.143,4.647c1.448,6.517,0.42,12.285-7.217,15.066c-3.333,1.214-8.726,0.766-8.85,6.224
		c-0.126,5.53,4.398,7.525,8.704,9.087c6.532,2.368,13.845,4.558,12.716,13.277c-1.013,7.818-6.634,12.963-14.02,15.614
		c-3.691,1.324-7.696,1.745-11.482,2.841c-3.645,1.055-8.571,0.95-9.508,5.631c-0.902,4.509,3.838,4.992,6.627,6.298
		c5.959,2.791,6.188,7.585,5.071,12.866c-1.463,6.919-3.972,13.401-12.127,14.504c-5.921,0.802-9.921,1.419-11.277,9.274
		c-2.89,16.74-10.141,19.503-24.427,11.069C4000.347,2525.216,3997.247,2522.942,3993.9,2520.715z"/>
	<path d="M753.979,452.072c29.208-25.744,57.576-52.411,84.734-80.528c27.044-28,43.235-61.995,58.524-96.758
		c5.789-13.162,14.085-24.334,23.433-35.124c8.296-9.576,13.498-7.653,18.623,2.506c4.543,9.006,9.515,17.795,15.978,29.801
		c4.138-32.158,14.221-57.504,46.373-68.082c5.663,31.23,17.624,60.465,17.49,91.859c-0.281,65.642-39.739,108.018-105.325,114.596
		c-29.251,2.934-58.575,5.083-87.316,12.326C800.984,429.097,777.833,440.524,753.979,452.072z M979.874,301.108
		c-8.109,55.615-51.043,75.029-95.358,93.028C955.274,389.039,995.014,350.962,979.874,301.108z"/>
	<path d="M3556.483,2757.23c-2.558,21.595-10.916,37.625-24.124,51.303c-5.874,6.083-9.938,8.952-14.422-1.385
		c-15.532-35.809-21.424-73.522-13.828-111.279c8.174-40.631,34.548-67.879,74.839-80.334
		c42.075-13.006,86.228-18.816,126.871-36.833c15.759-6.986,30.674-16.222,52.259-20.258
		c-38.353,28.495-68.085,59.953-94.858,94.314c-14.03,18.005-25.477,37.447-32.354,59.292
		c-8.251,26.208-21.165,49.764-37.429,71.897c-8.033,10.932-13.061,9.543-19.433-0.496
		C3568.913,2775.43,3563.462,2767.64,3556.483,2757.23z M3540.563,2707.54c12.941-39.431,46.084-57.764,84.143-77.452
		C3564.053,2636.206,3535.879,2662.992,3540.563,2707.54z"/>
	<path d="M4142.166,2213.444c11.184-28.553,24.826-55.635,28.074-86.648c2.396-22.873-0.121-45.28-2.182-67.737
		c-7.177-78.175,54.98-114.151,119.545-105.137c25.069,3.5,46.827,16.559,69.964,25.61c8.951,3.501,2.859,7.99,0.384,11.63
		c-14.55,21.398-33.572,36.479-59.468,42.056c-3.892,0.838-10.444-0.073-10.613,6.018c-0.114,4.102,5.398,5.17,8.385,7.622
		c6.373,5.232,18.908,7.837,17.928,15.83c-1.015,8.282-12.832,11.46-20.949,15.178c-18.172,8.323-37.968,11.108-57.196,15.648
		c-9.542,2.253-15.748,5.423-14.013,16.435c3.484,22.112-2.928,37.331-24.542,48.727
		C4174.346,2170.878,4158.808,2193.05,4142.166,2213.444z M4177.757,2075.51c6.043-4.885,7.589-11.57,9.729-17.533
		c7.482-20.85,20.076-36.263,42.226-42.438c4.684-1.306,11.662-2.218,9.416-9.058c-2.163-6.584-8.724-3.028-13.338-2.308
		C4195.893,2008.841,4175.41,2038.872,4177.757,2075.51z"/>
	<path d="M364.446,772.153c-9.259,20.776-17.889,37.731-24.451,55.452c-9.028,24.38-14.89,49.669-19.745,75.313
		c-9.717,51.324-51.984,89.076-104.046,94.854c-27.408,3.042-54.151-1.592-80.865-6.827c-10.793-2.115-8.654-5.992-3.58-13.363
		c16.727-24.297,38.378-41.121,67.637-47.59c-2.761-6.662-8.397-4.9-12.662-5.945c-4.366-1.069-8.953-1.201-13.414-1.918
		c-10.103-1.624-11.54-6.336-6.026-14.848c5.149-7.947,11.289-14.686,20.525-16.68c70.171-15.152,118.46-63.463,167.855-110.157
		C357.645,778.582,359.615,776.719,364.446,772.153z M304.95,883.917c-13.709,20.573-28.762,33.628-47.116,42.886
		c-3.6,1.816-7.352,4.899-5.169,9.168c1.669,3.263,6.051,1.687,9.329,1.079C285.6,932.675,304.083,911.473,304.95,883.917z"/>
	<path d="M3252.922,2646.849c-20.517,16.808-37.742,34.294-49.564,56.734c-3.11,5.902-8.427,4.688-13.302,4.73
		c-18.625,0.162-37.254,0.297-55.877,0.103c-5.775-0.06-13.706,2.224-14.93-6.737c-1.277-9.344-9.549-19.467,1.184-28.177
		c19.036-15.447,38.454-28.941,65.312-26.985C3208.027,2648.139,3230.521,2646.849,3252.922,2646.849z"/>
	<path d="M4181.255,1646.18c0-36.707-0.244-69.857,0.141-103c0.123-10.616,27.266-25.733,36.948-21.486
		c4.933,2.163,4.015,6.314,4.025,10.023c0.072,27.065-0.064,54.13-0.005,81.195c0.013,6.029-0.931,11.341-7.358,13.705
		C4203.894,1630.704,4194.214,1637.44,4181.255,1646.18z"/>
	<path d="M2779.699,2667.881c-11.742,15.238-24.937,24.316-33.343,37.585c-2.712,4.281-8.254,2.885-12.652,2.911
		c-27.119,0.166-54.24,0.251-81.36,0.183c-4.231-0.011-9.939,1.779-11.633-4.022c-1.264-4.329,3.027-6.894,5.85-9.567
		c18.108-17.149,37.5-29.825,64.598-27.47C2732.809,2669.383,2754.754,2667.881,2779.699,2667.881z"/>
	<path d="M1074.411,341.849c-7.006-0.137-10.97-10.979-20.678-5.006c17.005,12.416,6.952,21.94-2.794,32.096
		c-15.885,16.552-36.74,17.812-60.937,20.592c24.615-25.165,35.263-53.583,36.313-85.696c0.125-3.827,1.261-6.883,5.542-6.782
		c8.626,0.204,18.628-4.152,24.877,5.432c7.956,12.203,16.616,24.241,17.351,39.662
		C1074.086,342.148,1074.411,341.849,1074.411,341.849z"/>
	<path d="M3546.544,2620.396c-2.572,1.293-5.352,2.289-7.683,3.925c-25.796,18.088-39.024,44.374-46.593,73.807
		c-1.894,7.369-4.115,10.913-11.885,10.3c-7.306-0.576-14.172-0.088-18.024-8.968c-10.266-23.668-3.305-51.579,17.447-66.359
		c0.916-0.652,1.881-1.762,2.826-1.765c21.441-0.056,41.271-7.352,60.791-16.094
		C3544.463,2616.96,3545.504,2618.678,3546.544,2620.396z"/>
	<path d="M313.035,945.919c-0.951,31.251-9.469,55.611-25.394,77.473c-3.907,5.364-10.634,8.291-16.451,6.643
		c-7.223-2.047-2.79-9.619-3.66-14.727c-2.94-17.27,2.743-29.753,17.878-39.91C295.227,968.809,302.126,957.87,313.035,945.919z"/>
	<path d="M4159.854,1994.462c-3.999-20.198-5.916-35.449-12.477-49.231c-4.841-10.168-0.344-17.458,5.589-24.384
		c6.961-8.126,15.931-12.476,26.98-10.583c3.23,0.553,6.792,1.305,5.154,6.321
		C4177.142,1940.961,4169.274,1965.369,4159.854,1994.462z"/>
	<path d="M4178.412,1982.008c2.082-20.016,5.63-36.548,10.463-52.77c1.66-5.573,0.692-14.198,8.405-15.068
		c7.853-0.886,15.743,2.793,21.935,7.706c6.452,5.12,4.419,28.089-2.822,31.629
		C4203.014,1960.046,4192.145,1969.792,4178.412,1982.008z"/>
	<path d="M3945.716,2415.53c16.532-0.418,22.607,5.234,22.372,17.119c-0.268,13.575-9.617,19.08-20.937,19.329
		c-11.511,0.253-18.092-6.165-17.833-19.305C3929.615,2417.564,3938.306,2414.954,3945.716,2415.53z"/>
	<path d="M1169.536,302.371c7.93,37.15-4.641,59.235-31.833,58.694C1151.973,344.279,1160.959,325.919,1169.536,302.371z"/>
	<path d="M3980.571,2447.532c5.902,2.537,14.275,1.752,13.922,10.109c-0.221,5.238-3.348,11.728-9.717,12.142
		c-8.056,0.523-11.821-6.454-13.428-12.821C3969.613,2450.092,3976.834,2450.009,3980.571,2447.532z"/>
	<path d="M3970.565,2474.846c-0.194,7.344-6.17,10.724-11.113,10.709c-6.662-0.02-7.98-7.229-8.211-12.747
		c-0.28-6.673,4.822-11.413,10.483-10.986C3968.022,2462.299,3968.47,2469.836,3970.565,2474.846z"/>
	<path d="M3904.554,2424.261c5.026,1.917,12.728,2.604,11.263,9.851c-1.273,6.3-7.682,9.104-14.566,9.063
		c-6.236-0.038-7.285-4.51-7.695-9.089C3892.855,2426.257,3898.561,2425.065,3904.554,2424.261z"/>
	<path d="M3943.545,2479.27c-0.422,3.41-1.9,9.798-9.373,8.31c-7.16-1.426-8.711-8.188-8.213-14.757
		c0.416-5.479,2.812-10.4,9.222-9.806C3943.35,2463.774,3944.47,2469.929,3943.545,2479.27z"/>
	<path d="M3909.322,2470.661c-7.036-0.744-6.17-6.028-6.112-10.189c0.101-7.298,5.314-11.855,11.51-12.023
		c5.265-0.143,8.932,5.813,7.335,10.934C3920.269,2465.11,3916.037,2470.073,3909.322,2470.661z"/>
	<path d="M4002.422,2430.519c-1.02,6.908-4.282,10.22-10.486,9.162c-5.126-0.875-10.666-2.931-10.623-8.923
		c0.044-6.192,4.583-10.757,10.816-10.814C3998.917,2419.883,4000.905,2425.78,4002.422,2430.519z"/>
	<path d="M3923.432,2408.063c-1.653,4.415-2.383,11.017-8.74,10.032c-7.68-1.19-9.815-8.72-10.848-15.227
		c-0.705-4.444,3.18-7.384,7.69-6.484C3917.622,2397.599,3923.668,2399.667,3923.432,2408.063z"/>
	<path d="M3977.518,2415.093c-5.206-1.755-7.246-5.776-7.208-10.256c0.059-6.732,4.447-9.869,10.927-9.735
		c4.5,0.093,9.899,0.337,8.19,7.101C3987.861,2408.398,3983.496,2412.663,3977.518,2415.093z"/>
	<path d="M3960.273,2402.063c-6.496-0.866-8.751-5.468-9.468-10.565c-0.948-6.736,4.693-8.693,9.496-9.64
		c6.306-1.244,7.144,3.845,7.442,8.568C3968.109,2396.209,3965.385,2400.004,3960.273,2402.063z"/>
	<path d="M3933.014,2403.383c-7.526-0.798-7.601-6.943-7.877-12.315c-0.287-5.581,2.823-7.829,8.562-6.814
		c6.958,1.23,8.973,5.967,8.813,11.982C3942.358,2402.029,3937.996,2403.184,3933.014,2403.383z"/>
	<path d="M535.87,558.407c0.453-14.912,8.525-20.678,19.692-20.625c11.223,0.053,19.169,6.236,19.318,18.691
		c0.162,13.623-9.129,19.382-20.561,19.409C542.845,575.909,536.335,568.123,535.87,558.407z"/>
	<path d="M516.646,520.081c6.586,1.555,12.24,5.235,12.429,12.856c0.124,5.008-2.485,10.055-9.112,9.513
		c-6.875-0.562-13.497-1.711-13.643-11.006C506.211,524.576,509.892,521.364,516.646,520.081z"/>
	<path d="M509.762,569.458c-6.532-1.205-11.566-4.187-11.442-10.844c0.133-7.112,5.719-9.558,11.879-8.731
		c5.293,0.711,12.608,1.259,12.294,8.723C522.188,565.823,515.907,568.367,509.762,569.458z"/>
	<path d="M601.578,536.401c-0.328,4.368-5.677,7.661-11.006,7.665c-6.491,0.005-11.608-5.124-11.392-11.801
		c0.17-5.275,2.502-11.225,9.863-11.379C597.772,520.703,599.868,527.15,601.578,536.401z"/>
	<path d="M550.032,515.384c0.5,5.837-2.208,10.069-8.066,10.401c-8.701,0.493-8.716-7.254-10.035-12.888
		c-1.306-5.576,0.497-10.431,7.236-10.369C547.178,502.602,548.453,509.206,550.032,515.384z"/>
	<path d="M608.064,564.48c-0.131,5.723-2.788,9.193-8.284,8.167c-5.933-1.107-12.715-2.543-12.407-10.838
		c0.268-7.218,5.578-9.337,11.649-9.042C606.381,553.125,607.173,559.156,608.064,564.48z"/>
	<path d="M531.451,582.389c-0.993,6.929-5.614,10.755-12.228,11.553c-5.486,0.661-8.465-3.586-8.476-8.334
		c-0.016-7.306,5.229-11.104,11.863-11.685C527.634,573.484,530.727,576.996,531.451,582.389z"/>
	<path d="M564.277,525.224c-6.298-1.304-6.943-6.121-6.989-11.342c-0.054-6.059,1.117-11.253,8.483-12.056
		c5.465-0.596,8.533,1.468,8.281,7.402C573.75,516.322,571.938,522.417,564.277,525.224z"/>
	<path d="M576.918,603.139c-0.753,5.103-3.692,10.318-7.905,9.613c-6.231-1.042-10.227-7.128-10.976-13.365
		c-0.556-4.63,3.017-9.159,8.02-8.96C573.615,590.728,575.373,597.245,576.918,603.139z"/>
	<path d="M550.711,597.436c-0.434,6.682-3.758,11.566-9.56,12.484c-4.806,0.761-8.502-3.598-8.034-8.499
		c0.512-5.353,1.719-12.154,8.106-13.136C546.894,587.415,549.73,592.376,550.711,597.436z"/>
	<path d="M592.16,597.737c-5.538-2.558-13.393-4.322-13.143-12.539c0.141-4.643,5.714-7.014,10.528-6.168
		c6.718,1.18,11.453,5.559,11.562,12.543C601.175,595.977,597.422,598.197,592.16,597.737z"/>
</g>
</svg>
