<?xml version="1.0" encoding="iso-8859-1"?>
<!-- Generator: Adobe Illustrator 25.0.0, SVG Export Plug-In . SVG Version: 6.00 Build 0)  -->
<svg version="1.1" id="Layer_1" xmlns="http://www.w3.org/2000/svg" xmlns:xlink="http://www.w3.org/1999/xlink" x="0px" y="0px"
	 viewBox="0 0 1409.574 1032" style="enable-background:new 0 0 1409.574 1032;" xml:space="preserve">
<g id="_x28_32_x29__1_">
	<path fill="FRAME_COLOR" d="M999.895,100c4.516,2.622,9.665,3.437,14.555,4.925c14.836,4.513,26.136,12.915,32.033,27.717
		c1.416,3.554,3.314,6.914,4.747,10.462c6.058,15.006,18.02,21.125,33.297,22.077c8.974,0.559,8.87,0.364,7.343,8.971
		c-0.383,2.156-1.139,3.279-3.22,3.662c-15.694,2.887-22.828,12.28-24.237,28.252c-1.794,20.348-12.243,35.879-30.543,45.81
		c-9.096,4.936-17.974,10.256-23.557,19.538c-2.005,3.333-3.643,6.758-4.036,10.646c-0.479,4.744,2.776,8.556,7.183,8.206
		c3.367-0.268,6.393-1.261,5.545-5.807c-0.241-1.291-0.484-2.974,1.335-3.179c1.48-0.166,2.151,1.185,2.645,2.533
		c2.005,5.474-3.337,12.224-10.031,12.608c-6.278,0.36-11.711-3.54-13.903-10.038c-1.298-3.847-1.873-7.919-1.318-11.846
		c2.144-15.164,1.671-30.599,5.113-45.636c4.157-18.16,13.856-31.708,30.854-40.016c12.263-5.994,25.151-9.586,38.494-11.932
		c2.707-0.476,5.569-0.635,9.087-2.794c-28.015,1.036-54.268,4.341-78.524,16.984c-5.638,2.939-10.174,6.791-12.467,12.998
		c-1.671,4.524-4.005,8.807-5.603,13.352c-4.702,13.375-13.983,21.787-27.099,26.756c-11.18,4.235-22.96,7.189-33.055,13.947
		c-6.223,4.166-12.403,8.449-18.218,13.154c-5.523,4.469-7.296,10.923-7.677,17.822c-0.117,2.124,0.96,3.45,2.538,4.535
		c1.509,1.037,3.078,1.989,4.58,3.036c1.091,0.76,2.383,1.561,1.416,3.186c-0.94,1.581-2.223,1.06-3.442,0.323
		c-5.031-3.042-8.946-6.932-9.875-13.075c-1.167-7.718-0.323-15.238,4.637-21.376c9.093-11.25,15.431-24.034,22.023-36.748
		c13.475-25.989,35.463-38.982,64.274-40.765c11.771-0.729,21.876-6.41,32.666-10.329c-19.387,3.103-38.769,6.23-58.161,9.297
		c-8.06,1.275-16.124,2.554-24.216,3.598c-11.034,1.424-21.316,5.003-31.262,9.893c-8.427,4.143-12.913,11.234-15.798,19.687
		c-0.806,2.361-1.53,4.772-2.018,7.215c-2.713,13.591-10.91,21.946-24.003,26.1c-11.285,3.58-22.223,8.076-32.268,14.477
		c-1.226,0.781-2.333,1.453-3.445,0.001c-1.016-1.328-0.571-2.494,0.615-3.459c0.774-0.63,1.514-1.379,2.402-1.779
		c10.937-4.928,16.216-14.425,20.063-24.983c4.169-11.439,11.098-19.866,22.374-25.5c9.735-4.864,18.786-11.184,28.71-16.05
		c-6.841-0.322-13.337,1.474-19.836,2.904c-9.097,2.001-18.218,3.982-26.979,7.293c-2.488,0.94-5.122,1.472-7.827,1.444
		c-5.106-0.053-9.786,1.439-14.379,3.599c-16.593,7.804-32.811,4.436-44.649-9.492c-5.061-5.954-9.654-12.316-14.284-18.622
		c-2.076-2.827-3.549-6.025-3.551-9.698c-0.001-2.164,0.714-4.011,2.634-5.047c2.172-1.173,4.354-1.185,6.356,0.728
		c-4.405,3.234-4.573,7.319-0.502,10.933c2.867,2.546,6.424,3.876,10.16,3.399c16.623-2.122,31.058,2.393,44.216,12.752
		c8.478,6.675,18.769,4.76,28.438,3.121c9.326-1.581,18.497-4.079,28.879-6.434c-5.955-1.906-11.031-2.173-16.231-1.67
		c-12.752,1.235-25.319,1.341-36.844-5.646c-4.747-2.878-9.014-6.37-12.834-10.296c-16.659-17.122-38.459-24.228-60.483-30.189
		c-11.357-3.074-22.613,0.821-31.978,8.03c-10.228,7.874-8.609,24.466,2.669,30.889c2.332,1.328,4.879,2.335,7.042-0.83
		c-2.18-1.365-4.819-1.871-5.676-4.608c-0.659-2.105-1.648-4.286,0.491-5.958c1.889-1.477,3.817-0.419,5.53,0.699
		c4.35,2.84,5.931,8.554,3.715,13.253c-1.98,4.197-7.415,6.161-12.49,4.438c-4.124-1.4-7.059-4.292-9.494-7.784
		c-4.433-6.36-7.217-13.43-9.132-22.125c-1.097,4.426-1.784,7.777-2.767,11.039c-1.774,5.89-4.872,10.968-10.024,14.52
		c-4.028,2.777-8.247,2.256-12.279,0.013c-3.366-1.873-4.805-4.897-4.522-8.782c0.246-3.387,1.948-5.577,5.111-6.669
		c1.911-0.66,4.075-1.523,5.323,0.795c1.271,2.36,0.391,4.5-1.704,6.115c-1.115,0.859-4.014,0.598-2.516,3.148
		c1.423,2.421,3.734,1.635,5.736,0.583c5.938-3.119,9.617-15.188,6.569-22.899c-3.694-9.344-11.269-14.148-20.799-16.025
		c-2.192-0.432-4.548,0.09-3.631,3.516c0.535,1.996-0.21,3.413-2.402,3.332c-2.092-0.078-2.83-1.694-2.655-3.523
		c0.432-4.504,3.785-5.945,7.557-6.692c5.526-1.094,10.815,0.477,16.655,2.152c-6.551-6.047-18.151-7.773-25.06-4.107
		c-9.035,4.794-15.606,12.344-22.251,19.838c-6.832,7.705-14.516,14.313-24.799,16.916c-11.799,2.987-22.791,0.965-32.883-5.882
		c-7.228-4.904-14.987-8.589-23.537-10.633c-12.158-2.907-23.134-0.218-33.166,6.804c-4.134,2.894-6.833,6.843-6.54,12.225
		c0.249,4.568,3.873,8.265,8.611,8.987c4.343,0.662,6.394-1.968,7.913-5.377c0.478-1.072,0.927-2.34-0.055-3.274
		c-0.915-0.871-1.82,0.191-2.699,0.496c-1.251,0.434-2.442,1.109-3.723,1.377c-1.835,0.384-2.719-0.884-2.019-2.318
		c1.518-3.112,3.144-6.359,6.983-7.276c4.974-1.188,6.954,0.185,8.247,5.209c2.93,11.388-6.114,20.321-16.084,19.178
		c-12.069-1.384-18.444-16.832-12.149-27.525c2.343-3.98,5.865-6.764,9.569-9.361c9.304-6.526,19.755-9.491,31-9.754
		c11.01-0.257,21.985,0.282,32.874,2.088c1.287,0.214,2.613,0.191,4.595,0.322c-18.358-7.322-43.568-10.584-59.238-4.001
		c-10.131,4.256-18.604,11.04-26.007,19.016c-13.09,14.104-27.625,25.732-47.469,28.21c-16.377,2.045-31.68-0.088-43.355-13.48
		c-1.187-1.362-1.767-1.928-3.183,0.13c-10.773,15.664-26.444,20.255-44.247,17.783c-17.012-2.362-26.782-22.416-16.294-39.286
		c3.707-5.962,12.95-8.123,20.785-5.594c7.278,2.35,10.798,7.054,10.772,14.398c-0.023,6.434-4.754,10.786-10.514,9.672
		c-4.202-0.813-6.552-4.294-5.701-8.47c0.419-2.058,1.227-3.972,3.499-4.401c2.46-0.465,3.422,1.446,4.41,3.257
		c0.488,0.894,0.091,2.925,1.747,2.437c1.692-0.498,1.587-2.232,1.174-3.815c-1.164-4.458-6.347-7.526-12.886-7.559
		c-5.533-0.027-8.531,2.204-9.828,7.314c-3.527,13.897,7.362,26.35,21.676,24.873c13.796-1.424,23.958-8.263,30.874-20.214
		c3.184-5.503,5.221-5.495,8.911-0.286c11.632,16.422,36.321,16.211,47.649-0.412c2.641-3.875,4.483-8.16,6.375-12.427
		c10.204-23.008,33.833-35.798,58.718-31.666c3.12,0.518,5.969-0.327,8.884-0.792c16.287-2.597,30.974,2.234,45.139,9.521
		c1.39,0.715,2.993,1.583,3.059,4.543c-12.513-5.203-24.622-10.861-38.306-9.822c-13.618,1.034-26.458,5.16-39.016,10.131
		c-13.096,5.184-20.45,16.435-27.503,27.844c4.914-5.463,9.849-10.909,14.736-16.396c3.072-3.45,6.925-5.73,11.149-7.368
		c1.278-0.496,3.227-1.112,4.069,0.449c0.818,1.518-0.987,2.304-2.006,2.985c-7.221,4.82-12.08,11.901-17.495,18.4
		c-4.81,5.772-9.857,11.249-15.462,16.291c7.632-3.524,14.024-8.725,19.675-14.897c5.509-6.018,10.823-12.186,17.307-17.269
		c17.01-13.334,36.003-17.264,56.928-12.501c10.448,2.378,20.297,6.526,30.008,10.883c9.819,4.406,18.852,4.453,27.667-2.326
		c3.486-2.681,7.48-4.701,10.861-7.802c-4.8,2.082-9.593,4.178-14.402,6.239c-1.682,0.721-3.382,1.414-5.112,2.009
		c-1.13,0.389-2.466,0.602-2.934-0.886c-0.391-1.243,0.808-1.633,1.679-2.068c6.842-3.416,13.217-7.787,20.619-10.058
		c0.946-0.29,1.849-0.725,3.119-1.231c-1.917-1.632-3.879-0.906-5.7-0.86c-11.581,0.292-22.534,4.359-33.961,5.674
		c-5.207,0.6-9.716,0.039-14.147-3.071c-3.719-2.611-8.03-4.379-12.557-6.773c0.988-0.386,1.395-0.697,1.786-0.677
		c19.025,0.981,37.999-2.214,56.909-1.599c53.339,1.734,106.62-2.458,159.919-0.773c27.827,0.88,55.625,1.673,83.45,0.449
		c2.213-0.097,8.161,6.275,7.701,8.28c-0.439,1.912-2.174,1.168-3.329,1.176c-10.154,0.072-20.309,0.042-30.568,0.042
		c0.126,1.089,0.081,1.578,0.203,1.624c10.308,3.885,18.162,10.982,25.112,19.227c12.275,14.561,27.531,23.925,46.473,27.033
		c8.147,1.337,16.281,0.972,24.39-0.062c16.308-2.08,32.595-4.326,48.908-7.148c-10.035-1.084-19.821-5.209-30.097-2.277
		c-12.496,3.566-24.938,3.892-37.447,0.261c-9.548-2.771-18.21-7.549-23.915-15.551c-12.563-17.619-23.57-36.234-31.659-56.423
		c2.667,0,5.333,0,8,0c9.776,12.077,23.677,17.058,37.831,20.865c17.886,4.811,33.029,13.291,45.572,27.133
		c8.565,9.453,19.365,16.588,31.948,19.522c17.916,4.178,36.198,3.355,54.428,1.94c-6.131-1.548-12.392-2.024-18.657-2.535
		c-10.5-0.856-20.893-2.396-30.351-7.374c-12.89-6.784-20.81-17.771-25.742-31.222c-3.488-9.514-6.428-19.246-11.028-28.329
		C983.895,100,991.895,100,999.895,100z M724.254,147.365c5.11-0.931,8.237-2.87,11.432-4.552
		c12.711-6.694,25.763-7.512,39.036-2.074c8.928,3.658,17.815,7.465,26.484,11.692c7.949,3.876,16.071,6.371,24.967,5.904
		c15.488-0.812,28.753,4.074,39.865,15.036c5.127,5.058,11.222,8.829,17.901,11.659c13.208,5.596,31.915,5.75,41.918,0.094
		c-2.707-0.77-5.272-1.433-7.795-2.229c-16.119-5.081-28.474-15.407-39.429-27.882c-12.267-13.97-28.04-20.486-46.508-20.393
		c-18.165,0.091-36.315-0.03-54.416-1.755c-8.462-0.806-16.931-1.587-25.435-0.966C741.094,132.716,731.937,137.38,724.254,147.365z
		 M581.718,154.389c7.577,4.239,13.231,9.097,20.229,11.125c10.153,2.942,20.463,3.357,29.746-2.843
		c8.142-5.438,13.651-13.714,20.734-20.428c-4.007,1.954-8.083,3.922-11.252,6.866c-12.215,11.348-26.325,12.039-41.479,8.298
		C594.287,156.073,588.849,154.729,581.718,154.389z M741.608,126.728c-3.902-1.009-6.567-0.592-8.611,0.62
		c-7.141,4.235-14.923,3.932-22.716,3.911c-0.831-0.002-1.662,0.027-2.492,0.038c-2.023,0.028-2.834,0.767-1.583,2.706
		c3.006,4.662,5.235,9.72,7.472,16.113C719.407,137.639,729.179,131.472,741.608,126.728z M1036.452,210.636
		c4.117-7.175,9.182-13.659,15.622-19.055C1044.061,195.609,1039.174,202.203,1036.452,210.636z"/>
	<path fill="FRAME_COLOR" d="M371.895,932c-7.992-6.756-13.78-15.252-19.179-24.086c-7.064-11.557-19.058-14.258-31.004-16.952
		c-1.437-0.324-2.938-0.361-4.594-1.091c10.685-1.338,17.43-11.401,28.585-12.021c4.144-0.231,8.276-2.433,12.221-4.172
		c12.455-5.491,18.953-15.336,19.954-28.755c0.358-4.8,0.534-9.734-0.152-14.471c-2.219-15.342,4.334-27.183,14.241-37.85
		c4.906-5.283,10.646-9.537,16.543-13.642c9.711-6.759,18.385-14.445,21.62-26.521c1.107-4.13,1.431-8.234-0.784-12.117
		c-1.356-2.377-3.455-3.579-6.264-3.152c-2.849,0.433-4.25,2.38-4.98,4.965c-0.557,1.973-0.022,3.575,1.571,4.891
		c1.17,0.966,2.579,2.164,1.071,3.69c-1.605,1.623-3.103,0.211-4.331-0.863c-2.995-2.619-3.447-8.128-1.137-12.518
		c2.623-4.983,7.074-7.308,11.901-6.02c7.498,2.001,12.055,7.443,12.507,14.645c1.438,22.893,3.492,45.838-2.175,68.593
		c-4.101,16.468-14.78,27.193-28.897,35.204c-7.673,4.354-15.519,8.404-23.239,12.677c-1.856,1.027-3.522,2.395-5.399,3.692
		c0.566,0.454,0.83,0.803,0.971,0.759c25.458-7.988,48.826-19.516,67.147-39.618c4.885-5.36,8.993-11.209,11.093-18.195
		c4.75-15.799,14.476-26.805,29.698-33.6c15.404-6.876,28.41-17.007,38.64-30.795c10.041-13.532,24.515-20.05,40.761-23.005
		c1.132-0.206,2.323-0.321,3.46-0.21c1.22,0.12,2.265,0.785,2.303,2.193c0.038,1.408-0.875,1.995-2.182,2.235
		c-20.018,3.665-30.986,16.749-36.616,35.316c-1.304,4.299-2.654,8.614-3.512,13.014c-5.92,30.34-25.602,45.582-54.99,49.629
		c-12.382,1.705-22.889,6.428-31.999,14.88c-3.76,3.488-8.128,6.319-11.958,10.132c3.056-1.204,6.111-2.409,9.167-3.61
		c28.079-11.04,57.227-18.82,85.857-28.18c10.583-3.46,21.366-6.263,31.383-11.447c7.723-3.997,14.062-9.347,17.577-17.081
		c8.367-18.406,23.255-24.875,42.17-23.633c10.545,0.692,20.874-2.288,31.366-0.906c0.987,0.13,1.99,0.215,2.951,0.458
		c1.286,0.326,2.033,1.148,1.714,2.568c-0.266,1.183-1.17,1.611-2.251,1.442c-12.262-1.922-20.56,4.764-28.105,12.981
		c-11.75,12.799-26.955,18.572-43.558,21.391c-5.024,0.853-9.305,3.214-15.102,5.72c9.886,0.914,18.376,1.747,26.875,2.467
		c4.801,0.406,9.593,0.467,14.352,1.658c3.623,0.906,7.263-0.627,10.668-1.962c5.207-2.042,10.527-3.042,16.118-2.739
		c10.592,0.574,17.751,6.495,20.193,16.835c0.727,3.079,1.19,6.247,2.862,9.004c1.666,2.747,3.955,4.213,7.069,2.317
		c3.252-1.979,3.419-5.233,2.527-8.414c-0.536-1.911-2.039-1.01-3.194-0.222c-1.236,0.842-2.297,0.315-3.048-0.671
		c-0.948-1.244-0.56-2.465,0.398-3.62c2.621-3.161,7.678-2.237,9.924,1.998c2.568,4.841,1.173,9.356-1.514,13.681
		c-2.433,3.915-6.297,5.506-10.342,4.25c-14.134-4.387-29.752-5.102-41.156-16.52c-2.364-2.367-5.174-4.688-8.87-5.405
		c-1.069,2.247,1.975,3.363,1.254,5.608c-1.92-0.391-3.574-1.68-4.125-3.152c-1.5-4.012-4.961-4.562-8.279-5.465
		c-21.63-5.882-43.039-5.889-65.519,2.947c4.251,0.525,7.191,1.016,10.151,1.231c9.961,0.726,19.941,2.052,29.891,1.872
		c19.26-0.348,35.212,6.537,48.02,20.523c7.246,7.912,14.626,15.485,23.917,20.997c15.277,9.063,31.119,11.562,47.576,3.601
		c6.812-3.295,10.553-9.241,10.682-16.85c0.116-6.863-3.263-12.129-9.156-15.612c-4.357-2.576-8.649-1.476-10.095,2.413
		c-0.603,1.623-0.753,3.235,0.811,4.554c1.336,1.127,2.246,0.605,3.419-0.396c1.43-1.22,3.12-1.119,4.502,0.257
		c1.547,1.54,1.334,3.315,0.351,5.048c-1.149,2.025-2.877,3.328-5.265,3.182c-3.373-0.206-6.276-1.688-7.682-4.791
		c-2.185-4.822-2.292-9.803,1.044-14.218c3.238-4.285,7.846-4.71,12.668-3.488c9.779,2.477,13.771,10.305,16.923,18.774
		c0.78,2.094,1.095,4.362,1.914,7.752c2.55-5.41,3.48-9.993,6.025-13.892c5.436-8.327,13.607-11.775,20.651-8.569
		c3.366,1.532,5.097,4.103,5.322,7.781c0.208,3.407-1.545,5.61-4.178,7.434c-1.979,1.371-3.696,1.049-5.458-0.332
		c-2.005-1.572-1.232-3.019-0.065-4.701c0.772-1.113,2.266-2.485,0.688-3.923c-1.383-1.26-3.113-0.788-4.708-0.151
		c-5.679,2.268-10.145,11.845-7.054,17.382c4.088,7.324,9.497,13.811,18.932,14.566c2.854,0.228,5.64-0.023,8.26-1.394
		c1.061-0.555,2.38-1.912,3.392-0.096c0.863,1.55-0.6,2.475-1.561,3.263c-2.694,2.209-5.89,3.114-9.334,2.824
		c-2.968-0.25-5.915-0.749-9.027-1.158c6.848,6.33,16.401,6.964,23.443,1.538c6.775-5.22,12.824-11.255,17.61-18.314
		c16.908-24.937,45.904-22.897,62.973-10.779c9.858,6.998,20.624,11.525,32.831,12.052c10.606,0.458,19.627-3.084,26.676-11.139
		c3.235-3.697,2.856-7.515,0.033-11.374c-2.763-3.778-6.263-3.87-10.227-2.473c-3.597,1.267-3.728,4.184-2.826,6.966
		c1.018,3.139,3.433,1.61,5.387,0.826c1.428-0.573,2.829-1.303,3.941,0.453c1.152,1.818-0.268,3.12-1.397,3.719
		c-3.357,1.78-5.945,6.809-10.766,3.391c-4.46-3.162-5.829-11.011-3.043-15.924c3.161-5.573,8.266-7.582,14.33-7.166
		c6.395,0.44,11.075,3.729,13.132,9.885c2.237,6.695,0.903,12.779-4.052,18.011c-11.095,11.712-25.398,14.445-40.623,14.639
		c-12.483,0.159-24.323-3.696-36.423-5.91c-11.797-2.158-23.456-3.412-34.601,2.726c-5.113,2.816-9.334,6.756-13.768,10.496
		c6.122-1.234,10.255-6.419,16.355-8.302c0.892,3.626-1.754,4.976-3.756,6.45c-7.387,5.438-15.483,9.616-24.9,13.038
		c3.223,1.571,5.882,1.174,8.369,1.019c15.459-0.965,30.984-1.452,46.338-3.324c14.113-1.72,26.123,2.604,37.701,9.798
		c0.064,0.745-0.636,0.548-1.028,0.541c-54.162-0.965-108.299,2.352-162.456,1.044c-29.166-0.704-58.275-0.117-87.362,1.937
		c-2.833,0.2-4.748-0.46-6.169-3.001c-1.605-2.869-4.193-4.97-6.368-7.968c3.538,0.221,7.076,0.443,10.838,0.678
		c-1.001-2.069-2.757-1.574-4.075-1.88c-17.739-4.115-31.604-13.583-41.227-29.204c-4.365-7.085-8.963-14.016-14.859-20.019
		c-7.252-7.384-15.731-10.873-26.138-9.454c-12.932,1.764-25.412,5.204-37.713,9.497c-9.532,3.327-19.41,5.698-28.585,10.504
		c4.293,0.747,8.357,0.566,12.56-0.704c5.736-1.733,11.507-3.38,17.149-5.386c20.153-7.164,38.325-3.256,54.968,9.551
		c1.978,1.522,3.892,3.14,5.737,4.822c13.431,12.247,27.186,23.864,43.68,32.155c10.669,5.363,17.733,14.919,22.265,26.086
		c0.375,0.924,0.826,1.88,0.903,2.848c0.161,2.023,1.675,4.822-0.948,5.8c-3.264,1.217-3.057-2.349-3.675-4.036
		c-2.945-8.035-9.646-12.239-16.502-15.971c-19.683-10.713-40.159-18.838-63.251-16.954c-15.09,1.231-27.658-4.596-38.979-13.865
		c-10.232-8.378-21.493-14.52-34.729-16.603c-13.326-2.097-25.333,2.858-37.601,6.758c7.491,0.239,14.866,0.693,22.238,1.509
		c29.072,3.22,48.845,28.258,45.011,57.18c-0.129,0.976-0.28,2.029-0.749,2.86c-0.657,1.165-0.754,3.371-2.87,2.682
		c-1.415-0.461-1.617-1.967-1.31-3.405c1.074-5.026-1.608-8.142-5.332-10.888c-5.334-3.933-11.562-5.881-17.638-8.115
		c-10.398-3.823-19.279-9.577-26.178-18.427c-9.296-11.924-21.468-15.896-36.354-13.159c-16.283,2.994-31.584,9.397-47.663,13.026
		c-0.551,0.124-1.038,0.533-2.561,1.347c7.859,1.731,14.738,1.993,21.683,1.42c7.962-0.656,15.879-1.705,23.927-1.232
		c18.179,1.07,32.592,9.668,45.218,22.028c2.143,2.098,4.261,4.222,6.4,6.326c8.022,7.891,17.514,12.578,28.856,13.228
		c2.547,0.146,5.031,0.417,6.336,3.1C438.562,932,405.229,932,371.895,932z M703.096,871.569c-1.26,0.112-1.76,0.051-2.174,0.212
		c-1.548,0.602-3.131,1.159-4.589,1.941c-20.719,11.107-40.405,8.095-59.332-4.407c-8.058-5.323-16.789-8.918-26.334-10.08
		c-12.376-1.507-22.979-6.357-31.76-15.225c-11.512-11.626-26.872-13.634-41.845-16.7c3.307,2.794,7.328,4.461,10.447,7.49
		c5.667,5.503,10.095,11.941,14.396,18.479c10.554,16.044,24.937,26.722,43.857,30.545c22.464,4.539,45.297,5.136,68.105,4.774
		C686.073,888.402,695.673,882.396,703.096,871.569z M845.644,861.132c-6.85-4.528-13.2-9.515-20.78-12.106
		c-11.549-3.947-23.146-4.34-33.433,3.018c-8.007,5.727-12.939,14.654-20.05,21.437c2.933-0.789,4.953-2.779,7.012-4.637
		c13.208-11.927,28.192-16.177,45.693-11.523C831.113,859.188,838.449,859.896,845.644,861.132z M726.317,887.931
		c-6.479-5.358-9.998-11.813-13.483-19.756c-3.343,8.899-8.337,15.091-14.954,20.613
		C707.51,887.167,716.434,888.895,726.317,887.931z M367.823,899.521c9.91,4.005,19.189,9.592,29.738,11.998
		C387.962,906.734,378.274,902.174,367.823,899.521z M406.514,822.075c-4.306,8.419-9.158,16.5-13.644,24.777
		C399.178,839.538,404.025,831.425,406.514,822.075z M505.834,864.246c-6.064-4.54-12.633-7.781-20.399-7.936
		C492.618,857.967,499.143,861.318,505.834,864.246z"/>
	<path fill="FRAME_COLOR" d="M275.895,100c2.925,2.92,6.828,4.642,9.241,8.266c6.597,9.905,1.708,22.544-9.922,24.816
		c-10.831,2.115-21.819,0.244-32.717,0.946c-2.21,0.142-2.542-0.967-1.525-2.792c1.482-2.656,3.283-5.048,5.799-6.775
		c3.055-2.096,5.617-2.558,8.582,0.898c4.265,4.97,10.164,6.99,16.665,5.493c5.773-1.33,9.549-5.207,11.282-10.923
		c0.792-2.612,1.015-5.205-1.144-7.821c-0.404,1.689-0.775,3.109-1.08,4.543c-1.146,5.39-4.217,9.047-9.693,10.203
		c-6.454,1.363-12.624-1.165-15.791-6.064c-1.96-3.032-2.205-6.144,0.392-8.658c2.557-2.476,5.851-1.981,8.882-0.599
		c1.664,0.758,2.678,2.129,1.833,4.048c-0.856,1.944-2.492,1.882-4.239,1.339c-1.085-0.337-2.368-2.269-3.246-0.259
		c-0.628,1.437,0.696,2.799,1.888,3.771c3.499,2.853,9.508,2.305,12.238-1.083c2.938-3.646,1.761-9.084-2.631-12.166
		c-7.005-4.913-20.855-2.809-27.697,4.191c-5.653,5.784-7.129,13.401-9.07,20.792c-0.529,2.015,1.315,2.867,2.604,3.852
		c8.837,6.751,10.091,14.122,3.706,23.237c-4.962,7.083-10.129,14.023-15.19,21.037c-0.041,0.057,0.127,0.265,0.535,1.061
		c2.153-2.456,4.118-4.766,6.158-7.008c3.135-3.445,6.034-7.179,9.545-10.195c8.075-6.935,19.219-4.841,24.281,4.352
		c0.673,1.223,1.151,2.11,2.602,2.631c7.531,2.701,9.676,8.11,5.822,15.54c-1.52,2.931-2.215,5.541-1.911,8.902
		c0.596,6.607-6.012,12.173-14.137,12.381c-6.431,0.164-12.398-2.283-18.587-3.489c-2.577-0.502-5.089-1.519-9.216-0.94
		c6.306,1.803,11.346,3.222,16.372,4.686c5.677,1.653,10.93,4.12,15.002,8.546c5.141,5.587,5.471,11.357,1.255,17.649
		c-0.824,1.229-1.815,2.555-2.033,3.945c-0.831,5.289-2.703,9.277-9.019,9.061c-0.506-0.017-1.127,0.644-1.544,1.121
		c-6.797,7.776-14.797,7.419-20.856-1.049c-2.827-3.95-4.758-8.386-6.391-12.945c-2.344-6.547-4.661-13.103-7.957-19.338
		c1.898,6.316,3.883,12.608,5.66,18.958c1.03,3.681,1.878,7.428,2.542,11.193c1.972,11.182-2.11,18.153-12.787,22.299
		c-2.599,1.009-4.934,0.727-6.981-1.08c-1.647-1.454-3.047-1.232-4.923-0.275c-7.113,3.625-11.188,2.146-14.641-5.141
		c-0.842-1.776-1.508-3.373-3.353-4.647c-4.999-3.452-6.372-9.207-3.791-15.633c3.291-8.194,9.789-14.181,15.085-20.988
		c1.36-1.748,2.833-3.409,3.835-5.389c-4.27,4.04-8.624,7.996-12.788,12.144c-4.609,4.59-9.002,9.439-15.106,12.109
		c-5.656,2.474-11.46,3.217-16.383-1.309c-4.926-4.529-7.932-9.926-4.515-16.902c0.849-1.733,0.463-3.352-0.516-5.159
		c-5.187-9.578-1.086-18.796,9.505-21.616c6.097-1.623,12.262-0.508,18.4-0.247c5.245,0.224,10.488,0.471,15.778-0.199
		c-6.049-0.784-12.11-1.489-18.144-2.376c-4.795-0.705-9.498-1.876-13.737-4.335c-9.374-5.438-11.016-15.222-3.881-23.285
		c1.129-1.276,1.184-2.547,1.232-4.095c0.172-5.538,2.427-7.89,7.938-8.027c1.869-0.047,2.916-0.586,4.145-1.977
		c8.226-9.314,19.475-7.702,24.843,3.765c3.168,6.766,5.582,13.885,8.333,20.846c0.351,0.889,0.517,1.908,2.087,2.37
		c-2.078-6.531-4.059-12.817-6.08-19.09c-1.508-4.682-1.662-9.434-1.264-14.312c0.513-6.288,3.421-10.598,9.311-12.956
		c6.082-2.435,10.539-6.985,14.373-12.029c4.3-5.658,3.553-9.991-2.265-17.818c2,0,4,0,6,0c8.338,11.7,4.541,21.58-5.122,30.727
		c3.73-2.552,7.215-1.987,10.64-0.721c1.198-11.698,5.801-21.545,13.481-30.006C253.229,100,264.562,100,275.895,100z
		 M213.096,196.429c-0.68-2.17-1.829-4.592-4.336-4.59c-3.116,0.002-4.502,2.748-4.521,5.477c-0.016,2.39,1.864,3.872,4.351,3.65
		C211.127,200.739,212.835,199.317,213.096,196.429z M223.994,193.018c-0.15-0.095-0.529-0.447-0.976-0.601
		c-2.388-0.821-8.597,3.989-8.5,6.529c0.026,0.681-0.006,1.474,0.869,1.384c0.529-0.055,1.486-0.832,1.429-0.995
		c-1.88-5.324,3.353-3.265,5.082-4.76C222.338,194.194,223.816,195.041,223.994,193.018z"/>
	<path fill="FRAME_COLOR" d="M384.895,100c-1.077,1.669-1.84,3.702-3.282,4.95c-11.496,9.95-20.198,22.585-31.696,32.554
		c-13.025,11.293-27.107,15.594-43.138,7.231c-7.633-3.982-14.284-1.789-22.472,1.843c6.566,1.115,11.818,2.386,17.139,2.845
		c21.907,1.889,36.365,14.343,46.441,32.735c4.793,8.748,8.763,17.949,13.061,26.967c2.091,4.389,4.31,8.664,8.304,11.689
		c2.037,1.542,4.256,2.748,6.883,2.479c2.665-0.273,4.949-0.99,2.37-4.296c-0.747-0.958-2.292-1.85-0.615-3.267
		c1.337-1.129,2.555-0.291,3.636,0.432c2.321,1.553,4.037,3.802,4.175,6.521c0.15,2.957-2.604,4.14-4.829,5.111
		c-8.292,3.621-16.62,3.177-24.672-0.711c-7.68-3.708-15.622-6.687-23.784-9.047c-24.456-7.074-39.76-23.266-47.457-47.165
		c-0.561-1.741-1.277-3.431-1.856-5.166c-3.229-9.685-9.758-15.23-20.065-16.089c-3.983-0.332-7.982-1.137-11.936-0.947
		c-4.322,0.207-4.427-2.308-4.508-5.281c-0.112-4.076,3.059-2.306,4.636-2.245c5.65,0.216,11.299,0.745,16.918,1.414
		c14.303,1.704,26.838-0.918,35.826-13.478c2.407-3.363,5.463-6.28,8.351-9.276c6.339-6.577,14.228-9.554,23.268-9.976
		c11.945-0.558,24.044-0.056,35.433-4.818c2.928-1.224,5.864-2.367,7.868-5.009C380.895,100,382.895,100,384.895,100z
		 M290.59,157.281c7.249,7.731,14.926,14.979,23.622,21.069C306.953,170.628,299.135,163.542,290.59,157.281z"/>
	<path fill="FRAME_COLOR" d="M203.895,100c-1.44,3.645-1.97,7.001,3.12,9.001c-0.592-3.216-0.676-6.122,3.304-6.319
		c3.097-0.153,4.414,1.987,4.798,4.656c0.464,3.226-0.319,6.319-3.878,6.994c-4.489,0.852-8.657-0.678-11.405-4.387
		c-2.497-3.37-1.636-6.875,1.061-9.945C201.895,100,202.895,100,203.895,100z"/>
	<path fill="FRAME_COLOR" d="M258.618,813.883c0.455,6.794,2.408,11.552,4.599,16.187c4.763,10.081,10.036,19.937,14.421,30.177
		c3.929,9.176,5.538,18.956,2.62,28.804c-4.823,16.279-21.548,25.65-39.583,22.475c-7.319-1.289-14.102-3.978-20.187-8.254
		c-2.455-1.725-4.845-2.325-7.915-1.867c-12.745,1.904-24.129-1.948-34.283-9.371c-9.748-7.126-11.46-21.076-4.605-32.957
		c5.841-10.124,14.548-17.772,22.67-25.841c7.102-7.055,13.828-14.429,20.601-21.774c1.19-1.291,2.522-2.603,2.849-4.783
		c-3.192,0.324-4.941,2.516-6.871,4.428c-10.763,10.662-20.682,22.241-33.085,31.133c-7.72,5.534-15.583,10.879-25.408,12.15
		c-12.172,1.574-23.893-5.339-28.211-16.831c-3.946-10.5-4.804-21.125-0.544-31.709c1.724-4.284,1.194-7.842-1.151-11.73
		c-9.035-14.978-7.406-29.592,2.385-43.521c5.559-7.908,13.593-11.092,23.089-9.994c8.872,1.026,17.095,4.394,24.945,8.464
		c12.137,6.294,24.649,11.739,37.186,17.146c1.745,0.752,3.501,1.569,5.8,1.373c-0.663-2.872-2.749-3.396-4.389-4.299
		c-9.771-5.379-19.837-10.235-29.151-16.425c-8.016-5.327-14.807-11.948-19.931-20.069c-7.031-11.143-8.064-23.123-1.814-34.703
		c6.43-11.911,16.908-19.008,30.751-18.967c7.135,0.021,12.488-1.445,18.172-6.299c9.736-8.314,21.786-11.657,34.616-8.81
		c15.952,3.539,23.188,13.819,22.105,30.115c-0.459,6.901-2.785,13.328-4.905,19.816c-4.19,12.825-8.206,25.702-10.03,39.128
		c-0.179,1.315-1.687,3.315,0.217,3.971c2.241,0.772,2.502-1.795,2.972-3.173c4.888-14.332,9.69-28.694,14.445-43.071
		c2.317-7.007,5.255-13.661,9.87-19.506c8.394-10.632,22.498-13.248,34.064-6.32c10.656,6.383,17.347,15.464,18.765,27.953
		c0.409,3.601,1.918,5.397,5.282,6.824c16.868,7.156,25.679,27.406,19.354,43.524c-3.549,9.043-10.083,14.209-19.55,15.876
		c-6.616,1.165-13.298,0.714-19.954,0.817c-11.698,0.181-23.256,1.559-34.706,3.888c-1.257,0.256-3.381-0.228-3.025,2.256
		c0.398,2.776,2.322,1.613,3.838,1.386c15.372-2.307,30.85-2.927,46.356-2.523c9.099,0.237,17.373,3.174,23.999,9.683
		c10.952,10.759,12.087,22.494,3.987,38.41c-2.778,5.458-6.502,10.151-11.582,13.515c-3.52,2.331-4.996,4.89-4.949,9.355
		c0.104,9.818-3.366,18.614-10.071,25.927c-13.771,15.018-36.445,12.222-45.57-5.944c-7.769-15.466-14.828-31.289-22.275-46.919
		C263.457,820.123,262.365,816.964,258.618,813.883z M233.419,751.478c-0.321-1.545,4.083-3.146,1.027-3.76
		c-3.624-0.727-0.079-3.924-2.417-4.194c-0.564-0.065-1.209,0.184-1.751,0.432c-0.658,0.3-1.132,1.216-0.657,1.572
		c2.043,1.532,0.944,5.02,3.818,5.942c-1.407,2.097,1.721,3.721,0.625,5.981c-0.242,0.5,1.636,0.417,2.549,0.396
		c0.835-0.019,1.86-1.136,1.74-1.178C235.788,755.765,238.073,750.23,233.419,751.478z M263.068,771.186
		c2.968,1.489,4.64-1.193,5.779-2.663c1.01-1.304,4.869-1.95,2.644-4.725c-2.44-3.043-0.864,3.946-3.398,1.59
		c0.446,3.667-6.426,1.36-4.867,5.934c-3.612-1.625-4.426,2.458-6.77,3.483c-1.03,0.45,0.756,2.096,1.116,1.771
		C259.473,774.867,263.212,774.935,263.068,771.186z M254.403,784.326c0.062-5.508-4.317-10.695-9.203-10.9
		c-5.923-0.25-11.269,4.978-11.244,11.18c0.02,5.098,4.994,9.362,11.03,9.499C250.26,794.225,254.34,789.932,254.403,784.326z
		 M254.196,798.09c1.353,2.041-0.05,3.67,2.307,4.715c2.693,1.195,5.689,2.581,7.446,4.772c1.85,2.306,3.726,1.477,5.741,1.889
		c1.277,0.261,1.399-0.303,1.724-0.86c0.421-0.72-0.052-1.369-0.751-1.51C264.753,805.902,261.137,800.671,254.196,798.09z
		 M251.494,808.368c-1.047,0-2.223,0.321-2.525-0.057c-1.2-1.499,0.531-1.229,1.176-1.71c0.854-0.636,0.691-1.215-0.051-1.064
		c-2.323,0.471-2.196-0.279-1.329-1.904c1.163-2.178-1.196-2.041-1.987-2.379c-1.232-0.527-1.919,1.334-1.481,1.677
		c2.336,1.829,0.201,4.35,1.199,6.582c0.654,1.461,1.842,3.114,1.958,4.951c2.22-0.162,3.866-1.198,5.089-3.078
		c-1.733-1.038-2.867,1.239-4.402,0.379C249.115,810.167,251.109,810.137,251.494,808.368z M268.781,786.758
		c-2.241,0.085-3.686,1.071-3.284,2.293c0.841,2.561,2.633,0.101,3.737,0.197c3.209,0.281,6.756,2.562,9.972-0.149
		c0.535-0.451,1.848-0.413,1.098-1.568c-0.417-0.643-1.748-1.511-1.807-1.45C275.432,789.259,271.85,784.634,268.781,786.758z
		 M241.116,799.193c-3.728,2.196-4.463,7.615-1.603,10.318c-1.272,1.407-2.934-0.946-4.688,0.393
		c0.885,0.577,1.398,0.94,1.937,1.258c2.545,1.505,4.883,2.894,4.41-2.159C240.872,805.801,241.116,802.547,241.116,799.193z
		 M235.138,824.039c1.982,0.381,5.11,1.693,5.711,0.953c1.346-1.657-2.532-4.309,0.188-6.586c-1.281-1.177-2.809-1.396-4.945-1.222
		C238.141,819.771,238.137,821.905,235.138,824.039z M229.152,802.839c-0.443,1.644-0.698,2.862,1.072,2.959
		c1.397,0.076,2.859-0.15,2.265-2.127c-0.291-0.968-0.267-1.337,0.725-1.777c0.867-0.385,1.715-1.239,0.659-2.274
		c-0.746-0.732-1.701-0.797-2.726-0.374C229.268,800.021,228.584,801.348,229.152,802.839z M231.554,764.136
		c-3.101,2.374-3.09,2.362,0.23,5.48c0.527,0.495-0.992,3.693,1.627,1.276c0.845-0.78,1.227-3.338,1.006-3.255
		C229.793,769.365,233.077,764.727,231.554,764.136z M272.76,776.953c-0.05-1.786-0.071-3.671-1.394-3.273
		c-1.944,0.585-3.973,1.842-5.23,3.405c-0.789,0.982,1.323,1.432,2.157,2.097C269.081,777.102,271.928,778.25,272.76,776.953z
		 M202.712,785.804c1.969-0.24,3.441-2.583,5.82-1.439c0.467,0.225,1.385-0.762,1.465-1.678c0.025-0.288-0.194-0.598-0.301-0.898
		c-2.338,0.987-4.449-0.014-6.59-0.753C202.745,782.548,201.586,783.987,202.712,785.804z M230.502,787.902
		c-3.852,0.484-6.786,1.145-9.689,0.492c-1.192-0.268-1.983-0.141-2.105,1.152c-0.142,1.511,1.257,2.407,2.123,1.953
		C223.624,790.036,227.186,790.826,230.502,787.902z M245.741,748.363c0.67-1.704-0.34-2.707-1.715-3.446
		c-0.503-0.271-1.487-0.531-1.712-0.29c-1.328,1.419,0.413,1.788,0.984,2.604c0.206,0.293,0.127,1.205,0.035,1.226
		c-2.104,0.495-1.589,1.758-0.763,2.888c0.285,0.39,1.178,0.563,1.743,0.482C246.631,751.493,244.529,749.307,245.741,748.363z
		 M215.732,788.747c-1.547,0.957-4.998,0.493-4.761,2.765c0.357,3.42,3.317-0.966,5.118,0.869c1.496,1.524,1.755-0.591,1.906-1.524
		C218.232,789.404,217.231,788.859,215.732,788.747z M261.915,764.101c-0.437-1.942-1.838-2.157-3.096-2.337
		c-2.408-0.343-1.669,2.75-3.37,3.252c0.803,0.92,1.605,1.84,2.408,2.76C258.199,765.464,260.7,765.308,261.915,764.101z
		 M245.799,764.549c-0.421,1.045-2.061,2.559,0.578,2.689c3.656,0.18,0.159-3.208,2.026-4.499c1.115-0.771-0.859-1.734-1.741-2.18
		C245.922,760.185,245.814,760.398,245.799,764.549z"/>
	<path fill="FRAME_COLOR" d="M1159.044,261.669c-8.905,5.72-16.532,12.867-23.808,20.397c-7.89,8.165-15.769,16.252-26.455,20.931
		c-9.952,4.358-19.632,2.52-26.637-5.755c-8.824-10.423-10.859-22.295-6.296-35.07c1.471-4.118,1.373-7.293-0.928-11.156
		c-5.401-9.068-6.118-18.914-2.733-28.903c4.475-13.202,16.007-19.763,29.229-15.403c15.79,5.206,31.185,11.612,46.743,17.52
		c3.215,1.221,6.394,2.538,10.276,4.084c-0.765-3.49-3.112-4.176-5-5.212c-10.976-6.026-22.67-10.439-34.232-15.148
		c-5.407-2.202-10.785-4.453-14.846-8.931c-15.702-17.314-8.357-42.879,14.869-48.582c9.125-2.241,16.959-4.663,23.171-12.043
		c3.185-3.784,8.222-5.618,12.999-7.192c20.671-6.812,37.656,6.802,35.902,29.131c-1.229,15.643-1.448,31.283-1.38,46.947
		c0.002,0.5-0.054,1.008,0.016,1.498c0.238,1.681-0.59,4.425,1.923,4.37c2.234-0.049,1.884-2.755,1.93-4.469
		c0.391-14.32,0.714-28.625,2.881-42.845c1.745-11.451,6.569-20.318,18.33-23.742c12.789-3.724,24.468-1.486,34.313,7.778
		c5.059,4.76,8.753,10.554,9.987,17.517c0.572,3.226,2.159,4.573,5.204,5.654c13.019,4.62,21.832,13.055,23.712,27.463
		c1.464,11.216-6.088,23.183-16.929,26.381c-5.611,1.655-11.401,2.535-17.206,2.922c-11.733,0.782-22.957,3.861-34.187,6.993
		c-0.48,0.134-0.996,0.232-1.415,0.481c-1.32,0.786-3.924,0.795-3.238,2.986c0.497,1.586,2.61,0.637,3.958,0.423
		c12.499-1.987,24.998-3.973,37.474-6.1c16.914-2.884,31.354,5.351,37.245,21.379c5.43,14.774-0.641,31.418-15.097,39.418
		c-4.798,2.655-7.125,5.666-8.292,11.057c-2.354,10.874-7.607,20.35-17.888,25.856c-12.575,6.734-26.865,2.865-34.549-9.137
		c-5.523-8.627-8.74-18.288-12.162-27.849c-2.521-7.043-4.641-14.261-8.619-20.691c-0.558-0.902-1.078-2.499-2.493-1.89
		c-1.534,0.66-0.51,2.026-0.167,3.034c4.826,14.182,9.635,28.37,14.554,42.519c2.316,6.662,2.65,13.455,1.008,20.186
		c-4.565,18.711-25.546,28.323-44.762,20.659c-4.353-1.736-8.58-3.848-11.75-7.389c-2.692-3.007-5.626-3.691-9.663-3.408
		c-11.864,0.832-22.283-3.087-29.267-12.873c-7.253-10.163-4.205-24.02,6.913-35.136c11.192-11.189,22.567-22.195,33.867-33.275
		C1157.075,265.554,1158.699,264.134,1159.044,261.669z M1186.728,262.231c-0.789-1.531-1.787-2.998-2.286-4.618
		c-0.292-0.946-0.507-1.578-1.476-1.361c-1.1,0.247-0.991,1.047-0.608,1.931c0.828,1.91,0.918,3.965,0.469,6.557
		c1.745-1.12,2.835-1.819,3.925-2.518c-2.876,4.864-2.927,4.884-0.421,11.034c0.372,0.914,1.476,1.53,2.241,2.284
		c0.044-1.194,1.622-1.81,0.754-3.527c-1.477-2.922-3.679-5.924-1.639-9.529C1187.371,262.398,1187.055,262.312,1186.728,262.231z
		 M1172.999,242.333c-0.016,5.501,3.808,9.699,8.85,9.718c5.345,0.02,9.783-4.482,9.668-9.808c-0.088-4.067-4.797-9.088-8.529-9.093
		C1177.13,233.144,1173.015,236.926,1172.999,242.333z M1215.612,227.632c0.038-0.572-0.659-1.015-1.55-0.754
		c-0.747,0.219-2.276-0.055-1.748,1.617c0.272,0.86,1.236,2.333-0.136,2.355c-3.485,0.056-4.665,3.963-7.922,4.212
		c-1.527,0.117-1.417,3.675-3.958,2.043c0.042,0.455,0.005,0.934,0.139,1.36c0.59,1.878,1.915,0.559,2.832,0.511
		c2.925-0.153,4.047-4.162,7.389-3.586C1210.611,231.838,1214.99,231.299,1215.612,227.632z M1205.245,223.357
		c-1.047,1.96-2.535,2.902-4.077,3.904c-2.88,1.871-5.574,4.028-8.342,6.071c-0.92,0.679-1.349,1.582-0.469,2.47
		c0.308,0.311,1.467,0.322,1.764,0.014c2.83-2.938,6.592-4.545,9.719-7.004C1205.229,227.718,1208.507,226.451,1205.245,223.357z
		 M1199.547,221.346c-6.609-0.366-7.818,5.891-11.422,9.211C1193.861,229.853,1195.554,224.189,1199.547,221.346z M1184.08,217.841
		c1.457-2.655-0.874-3.183-1.67-3.197c-1.965-0.035-0.526,1.682-0.836,2.345c-0.981,2.097,1.847,4.153-0.26,6.187
		c-0.598,0.577,0.409,1.695,1.223,1.634c0.884-0.067,2.234-0.461,2.064-1.673C1184.329,221.199,1185.991,219.094,1184.08,217.841z
		 M1179.622,272.694c-7.216-2.966-1.945,5.359-5.656,5.205c0.782,2.498,3.34,1.298,4.533,2.701
		C1180.055,277.885,1176.001,275.316,1179.622,272.694z M1192.054,260.182c0.176,0.283,0.328,0.773,0.508,0.783
		c2.275,0.135,3.8,0.936,4.515,3.4c0.242,0.834,1.762-0.071,2.526-0.603c0.485-0.337,1.077-0.981,1.068-1.478
		c-0.024-1.338-1.054-0.796-1.81-0.725c-1.766,0.166-1.628-0.884-1.596-2.19c0.057-2.382-1.844-1.231-2.76-1.089
		C1193.553,258.428,1192.177,258.672,1192.054,260.182z M1166.145,274.637c1.239-0.26,2.4-0.918,1.588-2.262
		c-0.978-1.617-2.653-2.701,0.036-4.464c0.793-0.52-1.04-1.22-1.817-1.674c-0.659-0.385-1.728,0.151-1.584,0.318
		c1.848,2.147-0.771,2.978-1.075,4.403C1162.918,272.72,1164.499,273.867,1166.145,274.637z M1206.37,249.744
		c0.929,0.331,1.394,0.016,1.584-0.736c0.206-0.816,0.03-2.271-0.454-2.101c-1.706,0.602-3.323-1.341-4.492-0.366
		c-0.881,0.735-2.238-1.85-2.278,0.559c-0.019,1.158,0.514,1.942,1.729,1.826C1203.936,248.786,1205.359,248.624,1206.37,249.744z"
		/>
	<path fill="FRAME_COLOR" d="M1260.966,342.668c-4.192,12.733-9.752,24.743-13.157,37.389c-3.205,11.904-0.339,23.197,7.39,32.914
		c4.661,5.859,9.882,11.27,14.626,17.066c9.194,11.233,13.681,24.327,14.197,38.71c0.46,12.817,0.327,25.655,0.694,38.477
		c0.219,7.634,3.841,13.654,9.882,18.253c3.277,2.495,6.875,4.041,11.09,3.789c1.443-0.086,3.205-0.692,3.387,1.657
		c0.153,1.989-1.332,2.493-2.881,2.756c-10.574,1.794-22.589-3.577-27.639-13.109c-7.407-13.983-16.917-26.212-28.084-37.39
		c-14.24-14.254-19.27-31.848-17.234-51.715c0.813-7.935,1.254-15.908,1.384-24.005c-4.117,6.822-7.273,14.07-9.397,21.625
		c-6.055,21.535-3.233,41.837,9.51,60.486c1.988,2.91,4.491,5.379,7.292,7.501c8.669,6.569,13.323,15.546,15.805,25.894
		c1.762,7.347,3.235,14.749,4.305,22.271c2.278-14.184-2.592-28.071-0.824-43.017c5.788,7.284,12.017,13.718,11.81,23.437
		c-0.266,12.492-0.293,25.021-1.35,37.456c-0.911,10.723,2.375,19.605,8.824,27.748c1.171,1.479,3.265,3.083,0.964,5.062
		c-2.303,1.981-3.072-0.729-4.226-1.839c-7.301-7.02-16.26-12.271-22.161-20.786c-1.043-1.505-2.282-2.877-3.279-4.409
		c-9.194-14.118-15.472-29.795-23.657-44.467c-3.765-6.749-4.155-14.774-3.934-22.447c0.371-12.889-4.292-24.899-5.89-37.426
		c-0.05-0.394-0.59-0.725-1.287-1.531c-3.497,17.74-2.728,35.139-1.701,52.563c0.647,10.99,3.655,21.066,9.022,30.817
		c22.185,40.303,22.805,43.278,24.191,88.614c1.302-9.938,2.525-19.888,3.929-29.812c1.43-10.107,1.162-20.159-1.472-31.484
		c4.401,4.318,5.108,8.5,5.843,12.712c2.558,14.657-0.557,28.858-3.465,43.057c-2.576,12.575-4.72,25.215-6.015,37.981
		c-1.758,17.321,3.077,33.664,7.768,50.006c0.168,0.586,0.699,1.067,1.664,2.481c2.594-21.641,17.741-30.468,34.959-37.308
		c4.014-1.595,8.16-2.934,11.734-5.484c1.379-0.983,2.729-1.387,3.78,0.416c0.904,1.551,0.032,2.77-1.219,3.282
		c-12.826,5.248-16.859,17.173-21.912,28.413c-4.781,10.635-10.474,20.812-16.112,31.013c-2.12,3.837-3.2,7.893-0.978,12.766
		c1.715-4.328,3.214-8.109,4.712-11.89c0.425,12.346-0.757,24.532,1.273,37.384c-4.309-2.621-7.347-6.07-11.879-6.861
		c-1.415-0.247-1.168-1.798-1.443-2.901c-6.673-26.734-21.284-47.392-46.04-60.373c-10.654-5.586-20.321-4.16-27.498,4.212
		c-1.97,2.298-2.884,4.832-2.754,7.774c0.105,2.387,0.358,5.201,3.331,5.289c2.833,0.084,5.397-1.827,5.337-4.829
		c-0.093-4.678,2.837-4.193,5.629-3.851c1.767,0.217,3.459,1.091,5.171,1.708c0.979,0.352,1.841,0.896,1.742,2.113
		c-0.099,1.218-1.176,0.931-1.911,1.076c-2.757,0.544-3.89,2.977-5.547,4.766c-5.846,6.312-13.504,5.401-17.565-2.144
		c-5.274-9.797-2.924-18.15,7.154-22.71c10.079-4.561,14.711-5.171,29.325,0.61c-3.515-5.136-6.836-9.77-9.929-14.552
		c-7.631-11.795-9.968-24.493-6.411-38.221c1.478-5.705,4.225-10.458,9.025-13.951c0.404-0.294,0.761-0.658,1.183-0.92
		c18.76-11.659,21.949-29.216,18.812-49.264c-0.205-1.314-2.379-3.46,0.269-4.171c2.143-0.576,2.976,1.836,3.614,3.468
		c2.833,7.246,5.523,14.548,8.701,21.658c-1.302-20.953-13.386-37.665-21.584-56.547c-1.394,1.671-0.865,2.712-0.617,3.715
		c0.12,0.484,0.272,0.964,0.458,1.427c6.628,16.469,4.418,31.108-8.413,43.995c-5.633,5.657-9.217,12.614-9.12,20.981
		c0.016,1.404-0.399,2.774-2.186,2.719c-1.678-0.052-2.17-1.373-2.301-2.765c-0.331-3.534,0.021-7.09,1.254-10.349
		c2.126-5.62,2.531-11.368,2.025-17.212c-0.86-9.931,0.863-19.5,5.765-27.988c5.525-9.567,5.992-19.568,4.912-29.964
		c-1.258-12.106-2.266-24.214-1.988-36.4c0.01-0.423-0.28-0.853-0.514-1.52c-0.528,0.394-1.053,0.577-1.185,0.913
		c-5.025,12.837-13.743,23.086-22.89,33.087c-6.142,6.716-11.247,14.148-12.268,23.523c-0.76,6.976,4.967,11.682,11.768,10.124
		c3.317-0.76,4.743-2.839,4.822-6.045c0.074-2.999-0.66-4.729-4.041-2.621c-1.305,0.814-2.993,2.765-4.328,1.109
		c-1.289-1.6,0.529-3.328,1.644-4.706c3.252-4.018,7.363-3.945,10.317,0.26c2.815,4.007,3.318,8.451,1.014,12.746
		c-2.452,4.572-6.537,7.047-11.843,6.999c-13.1-0.118-20.228-12.102-15.062-25.454c3.312-8.562,9.368-15.342,15.334-22.044
		c9.272-10.417,17.329-21.458,22.057-34.772c5.308-14.946,7.968-30.505,11.289-46.022c-4.697,6.596-10.328,12.735-12.23,20.662
		c-4.912,20.47-15.88,36.778-32.257,49.731c-9.624,7.612-13.523,17.84-13.066,29.905c0.045,1.196,0.264,2.471-1.191,2.894
		c-1.435,0.416-2.661-0.391-3.531-1.39c-0.477-0.548-0.66-1.569-0.592-2.343c1.192-13.555-2.891-26.799-2.242-40.341
		c0.957-19.949,10.135-32.229,29.556-36.972c12.845-3.137,21.313-11.186,28.24-21.524c13.97-20.849,22.831-44.209,32.684-67.084
		c-5.175,7.311-9.26,15.225-13.189,23.226c-8.431,17.168-20.228,30.707-39.782,35.014c-11.215,2.47-22.476,4.729-33.604,7.582
		c-6.791,1.741-13.651,3.01-20.655,3.523c-6.984,0.511-13.615-0.857-19.948-3.662c-4.363-1.933-6.498-6.076-5.118-9.63
		c0.931-2.399,2.696-4.177,5.384-3.002c2.726,1.191,1.585,3.14,0.22,4.859c-2.167,2.729,0.331,3.171,1.979,3.49
		c5.673,1.099,10.921-0.455,15.807-3.241c7.588-4.327,12.84-11.033,17.707-18.033c3.897-5.605,7.432-11.462,11.315-17.078
		c8.447-12.217,20.424-18.855,34.84-21.209c7.892-1.289,15.906-2.008,23.898-1.781c8.83,0.252,15.306-3.832,20.793-10.063
		c4.441-5.043,7.948-10.777,10.225-17.069c3.562-9.845,8.534-18.666,16.854-25.394c0.012,0.016,0.501,0.366,0.501,0.716
		c-0.01,11.19,5.875,18.201,15.598,22.865c14.282,6.851,19.894,19.431,21.712,34.242c1.183,9.637,1.132,19.303-0.471,28.896
		c-1.368,8.184,0.059,15.903,3.32,23.389c0.567,1.302,2.032,2.667,0.032,3.81c-1.379,0.787-3.059,0.825-3.937-0.832
		c-6.478-12.235-18.594-19.412-26.846-30.099c-13.539-17.534-20.773-36.683-17.097-59.113
		C1260.993,346.66,1260.879,344.648,1260.966,342.668z M1257.677,751.025c-2.934-14.965-9.047-29.148-11.624-44.285
		c0,2.339,0,4.677,0,7.849c-1.975-3.226-2.46-6.031-2.815-8.744c-1.971-15.037-3.602-30.11-2.854-45.319
		c0.45-9.148,1.253-18.285,1.452-27.437c0.183-8.46-2.391-16.362-5.928-23.978c-0.7,2.544-1.081,4.998-1.017,7.44
		c0.299,11.589-4.016,20.259-14.908,25.392c-4.724,2.226-7.556,6.496-8.755,11.606c-3.228,13.764,1.487,25.045,11.727,33.99
		c13.248,11.572,21.841,25.778,26.316,42.682C1251.182,737.442,1253.564,744.523,1257.677,751.025z M1237.648,716.172
		c-2.853-9.341-14.571-23.063-23.993-28.514C1219.618,698.999,1228.951,707.303,1237.648,716.172z M1189.797,409.461
		c9.067-1.877,17.074-6.08,24.512-11.536C1206.138,401.771,1197.968,405.616,1189.797,409.461z M1242.527,414.471
		c-0.077-0.045-0.155-0.09-0.232-0.135c0,7.494,0,14.988,0,22.481c0.077,0,0.155-0.001,0.232-0.001
		C1242.527,429.368,1242.527,421.92,1242.527,414.471z"/>
	<path fill="FRAME_COLOR" d="M177.629,414.11c1.386,21.619,10.658,40.585,20.239,59.529c-0.556-2.844-0.925-5.741-1.7-8.524
		c-3.385-12.146,0.183-22.734,7.399-32.347c5.887-7.842,11.158-15.804,11.005-26.147c-0.02-1.363,0.483-2.819,2.14-2.907
		c2.107-0.111,2.297,1.619,2.312,3.126c0.028,2.656,0.495,5.52-0.313,7.931c-2.295,6.848-2.109,13.744-1.579,20.752
		c0.749,9.905-1.919,19.216-5.755,28.139c-4.915,11.435-5.584,23.152-3.822,35.266c0.97,6.669,1.516,13.399,2.81,20.271
		c5.925-18.801,21.099-31.012,31.81-46.307c1.727-2.466,3.336-4.957,4.498-7.753c3.512-8.455-0.963-12.528-8.447-14.584
		c-3.601-0.989-6.601,0.451-7.467,4.593c-0.367,1.753-1.341,3.768,0.273,5.17c1.379,1.198,2.737-0.389,4.062-0.928
		c1.26-0.512,2.622-1.076,3.541,0.422c0.665,1.085,0.258,2.231-0.391,3.287c-2.797,4.554-8.285,4.723-11.293,0.331
		c-4.129-6.028-3.796-12.751,0.831-16.771c5.765-5.008,16.258-4.853,21.632,0.32c6.468,6.226,7.023,15.128,1.435,24.24
		c-4.29,6.996-9.648,13.23-15.239,19.123c-17.007,17.926-24.018,39.874-26.877,63.696c-1.189,9.902-2.668,19.769-3.583,29.782
		c3.02-3.786,4.209-8.38,5.524-12.79c2.089-7.01,4.094-14.113,5.259-21.318c3.035-18.778,12.324-33.734,27.386-44.882
		c11.114-8.226,18.413-18.114,18.56-32.372c0.017-1.617,0.898-2.487,2.422-2.62c1.62-0.141,2.707,0.822,2.586,2.341
		c-1.382,17.368,4.007,34.747-0.638,52.174c-3.54,13.283-10.518,24.124-23.343,28.656c-17.716,6.26-26.757,19.475-33.235,35.546
		c-6.906,17.134-12.432,34.812-20.238,51.597c-0.183,0.394-0.078,0.923-0.152,2.119c4.842-5.718,8.217-11.599,11.56-17.49
		c3.536-6.23,6.991-12.52,11.409-18.179c9.74-12.476,23.288-17.032,38.418-18.562c14.258-1.441,28.479-3.173,42.847-3.066
		c4.867,0.036,9.606-1.026,14.222-2.485c3.858-1.22,7.386-3.047,9.786-6.539c2.349-3.419,4.322-6.761,1.168-10.858
		c-0.903-1.174-2.117-3.144,0.201-4.175c1.886-0.839,3.111,0.659,3.934,2.19c3.44,6.389,1.443,12.384-1.844,17.975
		c-3.109,5.288-7.95,8.926-13.373,11.704c-2.961,1.517-5.989,2.924-9.059,4.206c-8.904,3.718-15.629,9.851-21.01,17.813
		c-6.904,10.217-14.068,20.17-24.925,26.901c-10.688,6.626-22.355,9.468-34.418,7.686c-15.622-2.308-26.713,2.981-34.242,16.391
		c-1.915,3.411-4.443,5.655-8.021,6.926c-3.482,1.237-5.936,4.163-10.107,6.396c1.684-4.911,3.101-8.915,4.427-12.949
		c1.142-3.476,2.424-6.932,3.222-10.492c3.047-13.599,2.086-26.067-9.504-36.007c-5.162-4.427-9.617-9.695-14.265-14.7
		c-11.533-12.418-16.295-27.596-17.791-44.091c-0.992-10.941-1.728-21.918-4.946-32.532c-2.089-6.889-5.719-12.725-11.271-17.322
		c-3.33-2.757-7.116-4.231-11.519-3.922c-1.376,0.097-2.89-0.077-3.052-1.801c-0.189-2.019,1.397-2.331,2.983-2.527
		c12.235-1.516,22.529,2.008,29.595,12.39c6.699,9.843,15.432,17.474,25.024,24.152c26.303,18.314,34.873,43.352,28.84,74.175
		c-0.703,3.59-1.208,7.232-1.559,10.874c-0.238,2.462-0.045,4.966-0.045,8.023c2.36-2.47,2.699-5.452,3.848-7.997
		c10.298-22.809,9.147-46.437,4.152-70.043c-2.855-13.493-12.302-22.695-23.779-29.57c-12.214-7.316-19.058-18.289-22.88-31.523
		c-1.904-6.593-2.521-13.414-2.822-20.246c-0.703-15.987-3.972-31.738-4.348-47.753c-0.027-1.166-0.065-2.333-0.029-3.498
		c0.038-1.213,0.269-2.435,1.769-2.564c1.44-0.124,2.067,0.956,2.328,2.146c0.391,1.786,0.68,3.598,0.934,5.41
		c1.56,11.149,7.903,19.998,13.95,28.975c8.002,11.88,16.085,23.689,25.276,34.723c6.547,7.86,8.803,17.513,9.443,27.438
		c0.987,15.296,4.182,30.156,8.011,46.095c1.977-6.242,2.19-11.667,2.582-17.013c1.501-20.423,0.643-40.658-6.622-60.079
		c-3.218-8.602-9.334-15.76-13.132-24.095c-10.75-23.596-16.266-48.171-13.231-74.243c2.618-22.498,5.351-44.99,1.622-67.686
		c0,4.276,0,8.552,0,12.829c-0.472,0.094-0.944,0.187-1.416,0.281c-3.283-4.714-2.23-10.664-3.37-15.972
		c-1.17-5.447-2.03-10.96-4.106-16.776c-1.735,2.049-1.658,4.129-2.182,5.932c-3.833,13.188-11.725,22.698-24.937,27.152
		c-8.507,2.868-16.777,6.506-25.668,8.185c-1.801,0.34-3.992,1.142-4.423-1.49c-0.412-2.514,1.797-2.755,3.677-2.963
		c6.927-0.769,12.056-4.387,16.016-9.967c4.251-5.991,8.246-12.143,11.16-18.899c3.628-8.41,7.19-16.819,11.921-24.717
		c3.129-5.223,5.692-11.52,3.823-17.155c-2.254-6.798-0.785-13.397-1.528-20.028c-0.157-1.398-1.25-4.581,1.466-4.151
		c2.536,0.401,6.672-1.316,7.505,3.635c1.299,7.725,3.453,15.234,6.361,22.543c7.436,18.689,21.302,31.211,38.899,39.724
		c11.166,5.402,24.876-1.892,26.893-13.444c0.382-2.188,0.896-4.51-1.765-5.555c-2.935-1.152-4.215,1.125-5.398,3.161
		c-4.173,7.181-8.452,7.41-13.914,0.158c4.531,0.67,6.425-2.058,8.584-5.107c3.821-5.396,10.758-5.368,15.02-0.403
		c5.549,6.465,4.993,17.661-1.712,22.909c-10.041,7.859-20.945,9.592-33.349,2.081c2.677,5.368,6.185,8.618,9.19,12.206
		c9.978,11.917,13.851,25.555,11.996,40.938c-1.097,9.095-5.01,16.405-12.65,21.719c-10.413,7.243-17.694,16.606-19.011,29.7
		c-0.784,7.798-1.378,15.6-0.217,23.432c0.153,1.032,1.622,2.702-0.599,3.272c-1.943,0.498-2.601-0.984-3.045-2.491
		c-2.35-7.972-4.12-16.123-7.418-23.802C178.331,416.608,178.027,415.339,177.629,414.11z M162.23,266.729
		c3.296,12.638,6.309,25.193,10.411,37.529c5.752,17.298,8.401,35.28,7.188,53.663c-0.757,11.469-1.564,22.945-0.902,34.454
		c0.361,6.279,1.841,12.339,3.25,18.99c0.535-0.799,0.672-0.918,0.697-1.057c0.086-0.485,0.197-0.978,0.186-1.466
		c-0.281-13.256,4.077-24.047,15.856-31.309c4.267-2.63,7.716-6.265,9.014-11.516c3.68-14.877-1.072-27.114-12.378-36.617
		c-13.132-11.038-21.646-24.621-25.642-41.201C168.116,280.753,165.382,273.616,162.23,266.729z M180.266,300.579
		c4.186,11.457,12.426,19.544,22.077,26.458C196.734,316.764,188.539,308.639,180.266,300.579z M208.428,633.556
		c9.583-5.565,20.34-8.812,29.46-15.291C227.696,622.628,217.21,626.411,208.428,633.556z M171.623,604.04
		c-1.266-5.531-2.997-10.905-6.207-15.666C167.311,593.66,168.379,599.264,171.623,604.04z"/>
	<path fill="FRAME_COLOR" d="M1206.947,792.055c-1.502-5.56-3.061-11.106-4.494-16.684c-3.606-14.038,0.361-21.971,13.638-27.434
		c4.272-1.757,13.476,0.72,16.374,4.592c1.042,1.393,1.945,2.28,3.851,2.619c9.09,1.618,13.057,8.717,9.921,17.437
		c-2.122,5.902-6.129,10.636-9.835,15.553c-3.24,4.299-6.424,8.641-8.691,13.672c4.811-6.033,9.542-12.131,14.456-18.078
		c4.379-5.3,9.97-8.277,17.027-7.717c7.318,0.58,10.031,5.943,13.172,11.613c2.726,4.919,2.025,8.973,2.524,13.55
		c0.198,1.816,1.321,3.683,1.596,5.676c1.338,9.706-4.391,16.541-14.287,16.884c-5.546,0.192-10.876-1.406-16.307-2.175
		c-3.392-0.48-6.799-0.86-10.313-0.691c6.999,1.794,13.911,3.675,20.607,6.231c9.232,3.523,13.503,10.433,12.708,20.291
		c-0.273,3.381-1.499,6.212-4.781,7.59c-2.311,0.97-3.327,2.465-3.284,4.969c0.064,3.681-1.353,6.169-5.563,5.942
		c-1.031-0.055-1.815,0.316-2.697,0.946c-6.727,4.805-12.954,3.993-18.41-2.222c-3.984-4.537-5.398-10.245-7.257-15.747
		c-1.427-4.225-2.756-8.483-4.541-14.001c-0.656,3.878,0.458,6.106,1.057,8.388c1.946,7.402,4.275,14.715,4.734,22.437
		c0.211,3.555-0.193,7.014-1.456,10.314c-1.735,4.532-5.078,7.769-9.841,8.241c-3.912,0.388-7.962-0.993-11.902,0.601
		c-0.463,0.187-1.527-0.175-1.802-0.607c-2.971-4.66-8.081-4.738-12.587-6.423c-5.83-2.18-8.881-10.622-7.343-17.574
		c1.381-6.242,5.318-11.021,8.995-15.955c2.632-3.532,5.279-7.053,7.919-10.579c-0.326-0.27-0.652-0.54-0.979-0.81
		c-4.436,4.769-8.859,9.549-13.313,14.301c-3.082,3.288-6.283,6.485-10.265,8.666c-5.161,2.827-9.276,1.64-12.023-3.61
		c-0.974-1.861-2.167-2.621-4.088-3.074c-8.986-2.119-12.289-8.932-7.95-16.895c1.199-2.2,1.52-4.196,1.544-6.557
		c0.077-7.63,5.338-13.166,12.979-13.81c7.682-0.648,15.291,0.603,22.935,0.965c2.143,0.102,4.295,0.016,6.59-0.794
		c-2.746-0.377-5.485-0.815-8.239-1.118c-6.692-0.737-13.036-2.573-18.988-5.75c-4.56-2.435-7.379-6.162-8.282-11.238
		c-0.821-4.61,0.641-9.182,0.314-13.863c-0.229-3.279,2.945-5.096,6-5.827c3.067-0.733,4.986-1.875,6.206-5.26
		c1.727-4.79,6.323-5.929,11.124-5.949c5.772-0.025,10.602,1.801,13.136,7.31c2.848,6.194,5.349,12.547,8.018,18.823
		c0.439,1.033,0.963,2.029,1.447,3.043C1206.516,792.197,1206.731,792.126,1206.947,792.055z M1217.024,812.836
		c-4.473-0.467-6.592,0.954-6.863,3.741c-0.306,3.145,2.123,4.062,4.302,4.364c2.392,0.331,3.496-1.843,3.605-3.857
		C1218.156,815.472,1218.249,813.343,1217.024,812.836z"/>
	<path fill="FRAME_COLOR" d="M1150.988,883.559c-8.195,1.547-15.067,4.208-17.543,12.436c-0.922,3.066,0.468,5.643,3.219,9.082
		c-0.159-5.254-0.313-9.159,2.144-12.561c2.519-3.489,6.089-5.046,10.069-5.952c6.352-1.446,12.375,1.643,15.224,7.592
		c1.559,3.255,1.032,5.944-2.061,7.709c-3.115,1.777-6.474,3.034-9.583-0.156c-0.799-0.82-1.745-1.866-1.081-3.074
		c0.655-1.191,1.944-0.961,3.129-0.717c1.453,0.298,3.415,2.074,4.158-0.49c0.688-2.374-1.048-4.096-3.024-5.188
		c-3.628-2.005-10.16-0.149-12.017,3.291c-1.93,3.574,0.096,9.144,4.207,11.567c8.303,4.895,23.569,2.054,29.794-5.659
		c4.971-6.158,6.247-13.455,6.139-21.13c-0.029-2.089-0.904-2.976-3.08-2.824c-11.069,0.772-21.88-1.71-32.813-2.675
		c-11.872-1.048-22.238,1.884-29.203,12.308c-11.454,17.142-27.619,22.382-47.314,19.492c-8.888-1.304-17.676-0.67-25.841,3.482
		c-4.405,2.24-9.003,4.473-10.369,9.981c-0.318,1.282-1.189,2.086-2.556,1.719c-1.164-0.313-1.252-1.437-1.229-2.451
		c0.083-3.703,1.466-7.109,4.251-9.287c13.52-10.575,24.76-23.788,38.778-33.724c11.625-8.24,24.194-10.373,37.785-4.551
		c9.204,3.943,9.32,3.671,22.573,0.553c-4.403-1.933-8.309-2.816-12.266-3.477c-8.372-1.399-16.766-2.538-24.372-6.832
		c-12.324-6.957-19.719-18.163-26.171-30.111c-3.632-6.727-6.41-13.911-9.948-20.693c-5.473-10.495-13.609-17.9-25.446-20.732
		c-1.352-0.323-3.947,0.269-3.518-2.397c0.4-2.488,2.723-2.069,4.472-2.001c7.393,0.288,14.606,1.818,21.32,4.798
		c8.714,3.867,17.687,6.777,26.872,9.224c18.868,5.025,34.508,14.643,44.788,31.856c3.389,5.675,5.37,11.907,6.823,18.164
		c3.184,13.705,12.892,18.591,25.384,19.932c4.942,0.53,9.979,0.169,14.971,0.256c1.411,0.024,3.021-0.627,3.981,1.165
		c2.053,3.833,4.438,7.369,8.309,9.689c1.129,0.677,0.919,1.996,0.655,3.197c-0.678,3.086-1.126,6.231-1.957,9.273
		c-2.939,10.766-7.834,19.684-19.865,22.778c-13.675,3.517-25.327,0.498-35.257-9.457c-2.176-2.182-3.612-4.776-4.291-7.765
		c-2.031-8.936,1.517-13.755,11.994-16.351C1145.054,881.897,1146.926,881.983,1150.988,883.559z"/>
	<path fill="FRAME_COLOR" d="M1037.329,850.686c-1.109,5.317,2.517,7.205,5.815,8.882c3.103,1.577,6.164,0.945,8.475-1.978
		c4.771-6.037,3.895-12.468,1.107-18.874c-2.501-5.748-7.073-8.771-13.394-8.637c-13.06,0.277-22.222,6.901-28.603,17.913
		c-2.909,5.019-3.668,5.08-7.102,0.627c-13.22-17.139-35.107-18.882-48.34-3.862c-2.572,2.92-4.296,6.338-5.788,9.866
		c-9.677,22.883-27.574,35.08-51.369,39.662c-0.477,0.092-0.934,0.316-1.377,0.527c-0.104,0.05-0.111,0.301-0.288,0.839
		c7.649,0.05,15.156-1.067,21.423-4.951c10.12-6.272,20.912-5.644,31.884-5.15c0.972,0.044,1.942,0.121,4.45,0.281
		c-4.421-3.037-7.699-5.24-10.916-7.529c-1.012-0.72-2.921-1.385-2.122-2.857c0.639-1.176,2.517-1.879,4.009-1.484
		c1.898,0.503,3.703,1.42,5.482,2.293c17.175,8.426,34.66,5.44,48.113-8.212c1.781-1.807,3.938-3.369-0.705-4.23
		c-2.479-0.46-2.705-1.851-0.858-3.836c4.849-5.211,9.886-6.084,16.146-2.621c2.242,1.24,4.087,3.419,7.15,2.833
		c-0.239,0.62-0.266,1.041-0.485,1.205c-5.223,3.891-5.015,3.735-1.171,9.126c7.402,10.382,17.496,15.556,30.03,16.414
		c1.794,0.123,3.582,0.318,5.441,0.486c-3.015,5.917-5.727,7.349-11.789,6.238c-12.531-2.296-22.643-8.438-30.016-18.934
		c-1.602-2.281-3.305-4.49-5.323-7.222c-3.822,9.407-9.08,16.861-18.443,20.786c0.846,1.12,1.863,0.622,2.691,0.598
		c0.991-0.029,1.981-0.246,2.961-0.438c5.237-1.025,10.512-1.63,15.846-1.987c5.013-0.335,9.521,0.331,13.604,3.524
		c3.727,2.915,8.667,3.204,13.396,5.5c-34.883-1.816-69.088-0.393-103.296,0.959c-9.32,0.369-18.66,0.738-27.98,0.546
		c-22.057-0.454-43.761-2.489-63.753-13.384c-7.693-4.192-15.836-7.826-24.712-9.165c-1.813-0.274-3.605-0.789-5.425-0.181
		c-2.953,0.988-4.612-0.591-6.406-3.142c7.614-1.916,14.242,0.47,20.762,2.773c5.482,1.936,10.779,4.411,16.117,6.74
		c18.202,7.944,37.049,8.83,56.33,5.299c2.096-0.384,3.395-0.767,2.32-3.459c-1.106-2.769-0.118-5.102,2.482-6.843
		c9.667-6.473,17.555-14.738,24.257-24.213c3.917-5.538,8.616-10.408,13.557-15.091c-6.24,2.569-10.84,7.23-15.435,11.919
		c-6.975,7.118-12.7,15.571-21.386,20.875c-20.498,12.515-42.065,17.374-65.214,7.983c-12.932-5.246-25.836-10.378-41.575-10.175
		c8.538-2.838,15.601-1.969,22.601-0.399c10.556,2.367,20.976,5.461,31.617,7.298c23.2,4.006,43.079-2.959,59.59-19.641
		c4.101-4.143,7.975-8.512,12.113-12.616c17.039-16.9,44.362-23.05,64.636-14.62c5.919,2.461,11.351,5.672,15.259,10.9
		c1.518,2.031,2.39,1.596,3.628-0.178c7.377-10.567,17.847-14.926,30.422-15.172c17.651-0.346,29.796,17.632,22.783,33.829
		c-2.464,5.689-9.589,10.116-15.647,9.72c-5.296-0.346-11.028-5.106-12.682-10.619c-0.839-2.795-1.009-5.594,0.721-8.171
		c1.75-2.606,3.844-4.903,7.356-3.813c3.849,1.195,5.256,4.361,5.503,8.115c0.115,1.743-0.966,2.809-2.516,3.304
		c-1.402,0.448-2.548,0.002-3.475-1.242C1039.161,852.743,1039.31,851.306,1037.329,850.686z"/>
	<path fill="FRAME_COLOR" d="M152.636,726.469c1.383-12.473-3.976-21.393-15.14-26.447c-19.085-8.64-27.663-24.159-29.483-44.07
		c-1.12-12.254-2.421-24.51-2.433-36.856c-0.006-6.712-1.13-13.268-4.845-19.1c-0.535-0.84-1.241-1.701-0.199-2.607
		c0.864-0.751,1.883-0.569,2.801-0.094c1.704,0.881,2.791,2.425,3.578,4.058c4.639,9.628,12.221,16.355,20.919,22.229
		c14.841,10.023,26.688,22.481,31.486,40.44c1.476,5.524,1.958,11.12,2.278,16.768c0.118,2.073-0.538,3.947-1.645,5.655
		c-8.027,12.384-8.322,25.187-2.135,38.358c0.92,1.958,1.886,3.897,2.713,5.893c0.9,2.174,0.697,4.585-0.861,6.102
		c-1.537,1.496-3.884,0.319-5.707-0.154c-2.598-0.673-1.185-3.034-1.298-4.685C152.54,730.136,152.636,728.299,152.636,726.469z"/>
	<path fill="FRAME_COLOR" d="M1046.203,123.441c14.219,0,28.03,0.023,41.84-0.004c52.295-0.101,104.59,2.174,156.887-0.043
		c6.483-0.275,12.991-0.01,19.486,0.098c5.782,0.096,6.844,1.029,6.43,6.808c-0.891,12.457-2.297,24.88-2.009,37.4
		c0.021,0.901,0.339,2.282-1.213,2.161c-1.473-0.115-3.418-0.461-3.65-2.096c-1.249-8.785-8.682-15.755-6.773-25.624
		c1.066-5.512-0.708-6.715-6.42-6.814c-18.982-0.331-37.963-1.075-56.948-0.313c-2.975,0.119-5.233-0.658-7.654-2.607
		c-10.837-8.724-23.255-9.995-35.05-3.487c-9.351,5.16-18.617,5.832-28.676,5.488c-22.971-0.786-45.956-1.21-68.937-1.652
		c-2.705-0.052-4.393-0.579-5.027-3.486C1048.074,127.367,1047.072,125.593,1046.203,123.441z"/>
	<path fill="FRAME_COLOR" d="M408.23,158.01c6.116-5.409,5.872-5.265,2.283-11.36c-5.943-10.093-15.253-13.882-26.234-14.756
		c-7.594-0.605-15.201-0.002-23.087,0.514c3.888-6.59,8.723-9.141,16.347-8.758c17.348,0.87,31.818,6.352,41.73,21.339
		c0.881,1.332,2.197,3.828,3.639,0.393c5.622-13.389,16.636-19.532,30.098-21.78c13.749-2.296,26.871-0.214,38.643,7.837
		c0.792,0.542,1.962,1.228,2.051,1.956c0.181,1.491-1.563,1.321-2.451,1.919c-1.732,1.168-3.435,0.674-5.243,0.106
		c-2.149-0.674-4.242-1.916-6.882-1.171c1.603,2.976,4.946,4.684,5.443,8.263c-3.009,1.486-5.254,0.027-7.67-1.59
		c-13.904-9.308-34.364-7.034-44.288,4.821c-4.721,5.64-4.721,5.64,2.543,9.137c-4.198,2.852-7.714,6.407-12.643,6.384
		C417.947,161.242,414.195,157.242,408.23,158.01z"/>
	<path fill="FRAME_COLOR" d="M1260.943,586.109c7.553,4.114,11.128,9.034,11.172,17.945c0.127,25.787,3.402,51.489,2.883,77.34
		c-0.074,3.7-0.656,6.223-4.33,7.868c-3.358,1.504-5.493,4.709-8.937,8.75C1261.84,659.919,1263.043,623.251,1260.943,586.109z"/>
	<path fill="FRAME_COLOR" d="M162.477,453.551c-5.76-7.566-10.445-14.6-9.239-25.22c2.257-19.874-0.053-39.858-2.808-59.679
		c-1.492-10.731-1.746-21.546-1.831-32.365c-0.019-2.46,0.613-4.387,2.566-6.14c2.81-2.522,5.254-5.451,8.252-8.628
		C161.426,365.791,160.491,409.663,162.477,453.551z"/>
	<path fill="FRAME_COLOR" d="M188.419,903.548c-10.328,1.038-20.429,1.622-30.589,0.913c-4.151-0.29-6.1-1.9-6.059-6.072
		c0.115-11.807,0.192-23.615,0.2-35.423c0.002-2.255,0.827-3.269,3.113-3.51c4.662-0.492,9.109-1.835,14.87-4.942
		c-5.784,10.401-8.05,20.081-3.754,30.05C170.44,894.404,179.55,898.827,188.419,903.548z"/>
	<path fill="FRAME_COLOR" d="M1272.116,855.222c2.254,10.669,3.398,20.826,2.467,31.176c-0.316,3.509-2.178,5.212-5.642,5.782
		c-6.599,1.085-13.232,1.329-19.881,1.133c-11.087-0.325-22.169-0.808-33.333-1.703c7.401-3.134,13.602-9.12,22.723-7.555
		c5.76,0.988,11.549-0.558,17.205-2.1c4.245-1.158,6.669-3.464,6.267-8.103c-0.057-0.659,0.011-1.329,0.008-1.994
		C1261.874,861.243,1262.124,860.816,1272.116,855.222z"/>
	<path fill="FRAME_COLOR" d="M202.32,126.211c-4.243,2.154-7.544,3.765-9.437,7.143c-1.026,1.831-2.836,1.5-4.44,1.509
		c-7.316,0.038-14.647,0.272-21.944-0.112c-4.065-0.214-5.591,1.514-5.503,5.05c0.122,4.906-0.761,8.989-5.409,11.874
		c-2.417,1.5-2.616,4.83-3.321,7.478c-0.661,0.074-1.073-0.066-1.105-0.673c-0.441-8.465-1.041-16.926-1.26-25.397
		c-0.173-6.689,1.135-7.885,7.685-8.116c13.974-0.494,27.931,0.174,41.889,0.681C200.118,125.67,200.753,125.893,202.32,126.211z"/>
	<path fill="FRAME_COLOR" d="M1300.811,833.255c-0.104,4.61-0.696,8.05-2.186,11.265c-3.093,6.674-11.789,10.094-18.15,7.208
		c-5.755-2.611-8.057-10.444-4.888-17.356c1.39-3.031,3.251-5.811,2.187-9.418c-0.276-0.933,0.279-2.473,1.474-1.713
		c2.621,1.668,5.265,3.53,7.251,5.865c0.962,1.131,0.683,3.521,0.57,5.316c-0.217,3.434-2.638,1.239-4.116,1.409
		c-1.694,0.194-2.87,0.939-2.974,2.747c-0.105,1.838-0.1,3.587,1.86,4.766c4.01,2.413,8.193,1.351,9.778-3.09
		c2.907-8.147,0.082-15.383-4.488-22.037c-1.471-2.142-3.576-3.975-5.71-5.503c-2.374-1.7-3.812-4.223-2.447-6.302
		c1.284-1.956,3.967-0.023,5.762,0.874C1295.85,812.836,1299.166,823.096,1300.811,833.255z"/>
	<path fill="FRAME_COLOR" d="M567.282,898.183c-16.306,0-32.612-0.105-48.916,0.041c-9.316,0.083-18.631,0.509-27.941,0.902
		c-7.576,0.32-7.573,0.4-10.337-8.002C509.576,891.412,539.139,885.679,567.282,898.183z"/>
	<path fill="FRAME_COLOR" d="M126.824,179.089c0.086,9.127,3.728,16.384,11.372,21.527c0.689,0.464,1.388,0.92,2.116,1.318
		c2.623,1.433,1.292,3.683,0.653,5.249c-0.847,2.073-2.558,0.488-3.732-0.056c-11.782-5.461-20.271-21.749-18.031-34.553
		c1.118-6.386,4.742-10.928,10.641-13.506c4.88-2.132,10.102-0.281,12.948,4.314c2.759,4.454,2.166,10.414-1.263,13.851
		c-1.716,1.72-3.748,2.204-5.945,1.64c-1.998-0.513-2.902-2.058-2.849-4.153c0.062-2.45,1.836-1.825,3.237-1.827
		c1.142-0.001,2.471,0.361,2.775-1.273c0.236-1.269-0.483-2.205-1.387-3.027c-2.994-2.726-7.703-1.464-9.357,2.628
		C126.995,173.718,126.852,176.403,126.824,179.089z"/>
	<path fill="FRAME_COLOR" d="M1209.335,886.218c-2.368,2.602-4.559,4.997-6.737,7.404c-3.109,3.435-5.347,7.173-4.829,12.107
		c0.76,7.244,7.772,12.227,14.807,10.395c2.623-0.683,4.018-2.398,3.76-5.09c-0.285-2.977-1.681-5.01-5.081-4.771
		c-0.871,2.269,1.639,5.998-2.445,6.595c-3.008,0.44-4.375-2.116-4.767-4.731c-0.55-3.671,1.114-6.147,4.806-6.977
		c5.379-1.21,11.057,2.18,12.068,7.113c1.2,5.855-2.496,11.609-8.272,12.877c-10.372,2.278-19.922-5.198-20.924-16.099
		c-0.696-7.57,3.638-13.712,5.326-20.594c0.225-0.917,1.06-1.41,1.917-0.835C1202.091,885.71,1205.792,885.684,1209.335,886.218z"/>
	<path fill="FRAME_COLOR" d="M139.194,222.065c-9.68-0.018-16.387,6.384-16.763,15.734c-0.3,7.45,3.735,11.153,11.103,10.279
		c1.946-0.231,4.665-1.87,5.305,1.482c0.609,3.186-2.326,3.707-4.494,4.268c-7.165,1.853-15.386-3.268-17.728-11.107
		c-5.623-18.821,6.531-27.274,22.357-28.883c3.555-0.361,5.719,2.633,5.873,4.905C145.063,221.945,141.848,222.555,139.194,222.065z
		"/>
	<path fill="FRAME_COLOR" d="M341.754,902.823c-21.31,0.639-41.134-1.727-61.119-1.758c1.56-6.853,5.217-9.469,12.072-8.988
		c12.595,0.885,25.326,0.316,37.449,4.814C333.838,898.258,337.581,899.481,341.754,902.823z"/>
	<path fill="FRAME_COLOR" d="M1281.891,790.75c6.977,0.218,12.528-1.765,15.417-7.86c2.516-5.31,0.816-10.46-2.53-14.951
		c-2.816-3.78-5.688-3.928-9.037-0.744c-1.276,1.213-2.56,2.607-4.104,0.738c-1.507-1.823-0.956-3.597,0.81-5.181
		c6.676-5.992,18.309-1.751,21.461,7.868c4.666,14.24-4.534,27.333-19.896,28.311c-0.497,0.032-1.11,0.21-1.475-0.007
		c-1.57-0.933-5.324,2.293-4.837-2.193C1277.982,794.117,1275.603,788.549,1281.891,790.75z"/>
	<path fill="FRAME_COLOR" d="M149.944,610.895c7.551,7.246,13.206,13.543,12.153,23.629c-0.659,6.308-0.123,12.741-0.123,20.28
		c-2.817-2.475-3.308-4.789-4.408-6.692c-0.663-1.147-0.88-2.748-1.815-3.511c-8.182-6.676-5.841-15.772-5.808-24.348
		C149.952,617.615,149.944,614.976,149.944,610.895z"/>
	<path fill="FRAME_COLOR" d="M1258.675,384.932c7.98,11.671,14.62,23.418,10.526,38.565c-4.503-6.301-11.984-10.15-10.68-19.856
		C1259.345,397.509,1258.675,391.176,1258.675,384.932z"/>
	<path fill="FRAME_COLOR" d="M435.553,124.649c-1.914,2.102-4.019,3.61-5.83,5.563c-5.611,6.053-12.364,6.578-18.792,1.573
		c-3.401-2.648-6.94-5.054-10.928-7.137C411.853,124.649,423.703,124.649,435.553,124.649z"/>
	<path fill="FRAME_COLOR" d="M717.591,826.341c0.014,4.145-1.638,7.709-3.926,11.021c-1.039,1.504-2.151,1.81-3.526,0.157
		c-3.948-4.748-4.645-15.604-1.23-20.76c2.312-3.49,4.635-3.365,6.505,0.503C716.786,820.101,717.621,823.133,717.591,826.341z"/>
	<path fill="FRAME_COLOR" d="M719.165,192.347c-0.196,1.159-0.535,3.279-0.92,5.392c-0.358,1.966-1.271,3.366-3.518,3.506
		c-2.204,0.137-3.385-1.152-4.128-2.925c-2.168-5.175-2.206-10.291,0.694-15.248c1.75-2.99,3.664-3.15,5.608-0.209
		C718.599,185.429,719.257,188.308,719.165,192.347z"/>
	<path fill="FRAME_COLOR" d="M161.066,536.21c-3.541-2.871-6.961-5.631-10.365-8.413c-1.073-0.877-0.811-2.082-0.694-3.239
		c0.379-3.751,0.752-7.503,1.229-12.268C157.439,519.627,164.97,525.212,161.066,536.21z"/>
	<path fill="FRAME_COLOR" d="M167.153,387.186c0,9.445-0.465,18.92,0.131,28.328c0.597,9.431,2.676,18.712,5.25,27.812
		C161.923,425.651,162.458,406.696,167.153,387.186z"/>
	<path fill="FRAME_COLOR" d="M301.74,125.421c-4.938,7.787-9.965,9.803-18.445,7.7C289.945,124.186,290.318,124.025,301.74,125.421z"/>
	<path fill="FRAME_COLOR" d="M1278.797,777.983c1.993,0.815,3.43,1.672,4.971,1.946c1.208,0.214,3.496,0.672,2.487-2.016
		c-0.475-1.266-1.546-2.588,0.082-3.42c1.932-0.988,3.964,0.023,5.709,0.88c1.412,0.694,1.97,2.269,1.559,3.86
		c-0.641,2.483-1.703,4.789-4.439,5.553c-2.927,0.817-5.626,0.245-7.77-2.023C1280.266,781.569,1279.136,780.322,1278.797,777.983z"
		/>
	<path fill="FRAME_COLOR" d="M434.51,900.698c-8.672,0.388-13.809-5.221-20.059-9.007C422.992,888.272,426.488,889.822,434.51,900.698z"/>
	<path fill="FRAME_COLOR" d="M134.549,237.153c0.24,1.681,0.361,3.523-1.915,3.05c-2.514-0.523-4.842-1.998-4.807-4.925
		c0.043-3.487,2.608-5.274,5.645-6.081c3.267-0.868,5.787,0.665,7.675,3.297c0.688,0.959,0.202,2.083-0.256,2.809
		c-0.78,1.238-1.706-0.05-2.517-0.313C136.171,234.276,133.484,232.546,134.549,237.153z"/>
	<path fill="FRAME_COLOR" d="M137.84,184.044c0.523,0,1.093-0.107,1.148,0.016c1.708,3.817,3.367,7.656,5.013,11.5c0.023,0.054-0.2,0.267-0.342,0.331
		c-1.706,0.775-3.297,0.312-4.629-0.756c-2.698-2.163-5.785-4.263-5.272-8.339C134.043,184.537,136.334,184.579,137.84,184.044z"/>
	<path fill="FRAME_COLOR" d="M1173.418,885.992c0.591,1.56-0.231,2.529-0.693,3.542c-2.902,6.377-3.42,6.405-7.699,0.915
		c-1.184-1.519-2.651-2.818-4.304-4.548C1165.28,884.589,1169.4,885.98,1173.418,885.992z"/>
	<path fill="FRAME_COLOR" d="M505.917,125.781c-8.666,6.016-8.666,6.016-15.281,0C496.012,125.781,500.965,125.781,505.917,125.781z"/>
	<path fill="FRAME_COLOR" d="M1118.831,893.816c1.346-2.075,2.267-3.249,2.918-4.558c0.939-1.888,2.15-2.897,4.329-2.076
		c1.002,0.378,1.939,0.93,1.455,2.134c-0.723,1.802-1.186,4.009-3.503,4.449C1122.604,894.037,1121.085,893.816,1118.831,893.816z"
		/>
	<path fill="FRAME_COLOR" d="M950.531,124.185c9.917,0,19.345-0.144,28.765,0.063c4.422,0.097,4.228,4.603,4.703,7.141
		c0.556,2.976-2.908,1.097-4.489,1.694c-0.583,0.22-1.329-0.043-1.982,0.047C967.386,134.528,958.573,131.64,950.531,124.185z"/>
	<path fill="FRAME_COLOR" d="M1221.08,656.745c-0.043-4.667,2.683-7.532,7.254-7.623c5.097-0.102,8.45,3.459,8.433,8.956
		c-0.016,5.195-3.04,8.649-7.606,8.689C1224.379,666.808,1221.136,662.786,1221.08,656.745z M1230.366,662.075
		c1.675-0.298,2.735-1.311,2.459-3.016c-0.375-2.309-2.2-3.102-4.326-3.203c-1.333-0.063-3.116,0.04-2.439,1.929
		C1226.742,659.687,1227.844,661.68,1230.366,662.075z"/>
	<path fill="FRAME_COLOR" d="M182.357,359.66c0.021-4.688,3.254-8.2,7.536-8.185c4.85,0.016,8.178,3.776,8.209,9.274
		c0.029,5.007-2.897,8.274-7.29,8.142C186.018,368.747,182.335,364.725,182.357,359.66z M192.852,359.202
		c-0.687-1.951-2.001-3.333-4.231-3.223c-1.616,0.08-2.845,1.041-2.527,2.879c0.347,1.998,1.618,3.207,3.749,3.047
		C191.4,361.787,192.666,361.129,192.852,359.202z"/>
</g>
</svg>
