<?xml version="1.0" encoding="iso-8859-1"?>
<!-- Generator: Adobe Illustrator 23.0.5, SVG Export Plug-In . SVG Version: 6.00 Build 0)  -->
<svg version="1.1" id="Layer_1" xmlns="http://www.w3.org/2000/svg" xmlns:xlink="http://www.w3.org/1999/xlink" x="0px" y="0px"
	 viewBox="0 0 4500 3000" style="enable-background:new 0 0 4500 3000;" xml:space="preserve">
<g id="_x31__x25_20_x28_299_x29__1_">
	<path d="M4500,1538.37c-14.263,8.954-26.771,20.168-38.792,31.756c-25.143,24.238-55.213,35.718-89.615,34.353
		c-19.48-0.773-32.659,7.048-44.051,21.843c-17.275,22.433-28.276,47.951-38.817,73.795
		c-34.572,84.753-59.563,172.963-93.111,258.092c-19.842,50.349-40.195,100.452-64.103,149.06
		c-5.253,10.68-10.417,17.671-21.631,6.911c-7.001-6.719-22.642-1.623-23.604-13.155c-0.692-8.298,6.462-17.425,10.635-25.928
		c37.68-76.789,29.24-156.19,13.369-235.965c-2.39-12.014-5.831-23.829-9.028-35.671c-12.139-44.97-37.515-78.769-80.629-98.985
		c-21.658-10.156-42.189-22.8-62.87-34.931c-17.208-10.094-36.885-24.982-36.736-42.439c0.118-13.788,24.875-20.913,40.829-27.693
		c4.004-1.702,7.836-3.812,15.423-7.541c-19.535-5.685-35.854-10.556-50.788-18.877c-14.866-8.283-28.005-18.256-37.332-32.733
		c-13.596-21.104-12.129-29.266,8.588-43.762c-9.885-9.173-18.242-19.512-22.911-32.111c-2.905-7.839-9.146-15.991,1.485-23.845
		c4.736-3.499,0.583-9.605-0.526-14.096c-10.167-41.166-28.18-78.596-54.375-112.038c-3.003-3.834-7.537-6.78-8.174-13.929
		c64.046,10.697,123.197,29.839,169.788,79.861c8.182-22.563,16.506-9.301,25.237-0.166c9.99,10.453,21.447,19.859,23.278,35.624
		c0.384,3.309,2.499,4.678,5.68,4.756c28.959,0.71,36.427,22.251,41.125,44.546c4.413,20.932,0.663,42.247-1.844,63.304
		c-0.838,7.042-3.159,14.019-0.039,23.026c6.228-6.524,11.389-12.746,17.367-18.045c19.216-17.034,37.176-11.525,43.434,13.29
		c5.419,21.493,5.843,43.646,0.771,64.804c-19.32,80.596-14.68,160.306,4.011,240.275c5.808,24.854,6.93,50.798,10.308,76.229
		c0.625,4.705-0.746,10.088,4.828,14.405c16.495-32.091,27.64-65.872,38.637-99.688c15.55-47.817,28.953-96.157,33.552-146.483
		c3.17-34.688-0.25-66.91-31.108-90.239c-8.899-6.727-14.159-17.231-17.951-27.865c-10.941-30.691-2.805-64.172-14.745-95.011
		c49.424,34.141,73.26,81.078,72.404,141.008c1.375-0.363,2.749-0.727,4.124-1.09c0-15.006,0.427-30.027-0.121-45.013
		c-0.55-15.039-1.857-30.062-3.205-45.058c-4.767-53.091-16.067-104.721-36.039-154.22c-5.194-12.873-11.473-25.476-18.69-37.327
		c-12.674-20.809-31.287-33.242-56.207-34.065c-47.587-1.571-89.427-16.608-124.239-50.122
		c-7.918-7.623-18.143-12.868-27.397-19.072c-3.121-2.092-8.416-2.615-8.31-7.119c0.115-4.899,5.549-5.25,9.014-5.835
		c58.705-9.905,114.877-8.546,160.646,37.354c6.299,6.317,12.673,12.561,19.108,18.74c0.607,0.583,1.897,0.452,4.737,1.038
		c-8.248-19.164-21.223-33.587-34.254-47.549c-36.15-38.737-78.301-69.326-126.323-92.137
		c-37.859-17.983-77.365-24.427-118.79-21.503c-7.236,0.511-14.553,1.819-21.705,1.224c-26.205-2.18-43.014,6.253-57.223,31.335
		c-21.634,38.189-62.96,46.926-103.458,52.923c-7.024,1.04-14.266,2.855-23.574,0.017c10.067-20.915,26.402-36.495,43.536-55.604
		c-39.142,5.491-73.987,4.718-110.074-11.998c36.294-19.846,72.722-29.055,110.1-36.168c-24.336-0.217-47.794-3.382-70.188-12.154
		c-8.774-3.437-17.509-7.439-25.406-12.514c-7.226-4.643-18.563-9.913-16.342-18.754c1.727-6.873,13.795-2.186,21.175-3.421
		c28.1-4.703,56.322-8.323,89.353,0.627c-18.437-16.572-33.215-30.015-41.492-48.576c-2.426-5.44-7.347-11.816-2.966-16.996
		c3.964-4.687,10.411,0.295,15.624,1.249c16.454,3.011,32.991,5.885,49.149,10.131c34.593,9.089,60.398,29.738,71.971,63.875
		c7.774,22.93,21.638,31.57,44.774,30.959c31.032-0.82,62.112-1.003,93.869,0.838c-18.747-18.431-34.923-40.151-58.979-50.313
		c-68.844-29.081-89.467-86.072-91.51-153.712c-1.137-37.66,7.038-74.018,23.655-109.048c7.191,3.583,5.66,10.051,6.915,14.759
		c7.953,29.861,22.586,55.616,45.162,76.866c11.771,11.08,23.698,22.001,33.436,35.094c12.246,16.465,19.674,35.164,14.73,54.925
		c-14.99,59.918,16.844,96.699,60.797,127.62c19.13,13.457,39.693,24.873,59.552,37.301c36.528,22.861,68.999,50.779,99.792,82.136
		c4.076-6.496,0.392-10.883-1.216-14.801c-26.246-63.962-50.899-128.652-87.267-187.96c-7.894-12.872-17.215-23.018-31.574-28.385
		c-31.088-11.619-47.661-35.614-55.163-66.672c-7.533-31.186-9.329-62.952-6.09-94.775c1.114-10.944-1.563-18.922-8.107-27.48
		c-30.511-39.897-61.669-79.252-93.99-117.701c-3.241-3.855-13.174-9.674-5.766-13.478c7.838-4.025,16.972-18.905,28.518-4.944
		c20.974,25.361,41.689,50.937,62.461,76.465c8.056,9.899,15.974,19.909,23.78,29.65c7.328-3.492,3.654-12.726,12.587-15.932
		c22.271,46.836,58.606,84.497,86.602,127.873c16.906,26.193,18.134,55.896,7.03,85.329c-4.32,11.452-6.434,22.909-1.402,34.166
		c10.143,22.689,21.106,45.011,34.304,67.459c-16.486-78.235-8.123-148.878,57.75-207.461c-6.989,34.875-1.159,66.158,0.417,97.507
		c1.654,32.877-2.351,64.538-15.292,94.943c-8.536,20.057-11.234,40.735-6.168,62.199c14.784,62.639,42.033,120.728,66.92,180.039
		c-1.827-17.214-3.962-34.403-5.428-51.649c-6.969-81.946-3.335-163.952-0.812-245.929c2.077-67.45-7.177-133.531-22.453-198.975
		c-4.483-19.206-12.107-37.062-23.095-53.472c-9.508-14.2-22.247-21.543-39.747-19.067c-2.76,0.39-5.687,0.09-8.312,0.869
		c-49.171,14.585-90.702-2.047-130.017-30.466c-22.166-16.024-45.951-29.574-72.653-37.204c-4.412-1.261-11.747-1.099-11.671-7.266
		c0.063-5.065,6.182-7.453,10.912-9.162c38.916-14.064,79.034-18.905,120.206-15.293c45.599,4,81.334,25.169,108.199,61.974
		c3.494,4.787,6.032,10.716,12.331,13.24c3.959-4.201-0.208-7.321-1.495-10.191c-14.598-32.568-29.523-64.988-44.322-97.466
		c-15.22-33.401-41.816-54.318-74.805-68.2c-7.708-3.243-15.436-6.471-23.294-9.319c-53.074-19.237-93.766-52.481-118.12-106.027
		c21.82,0.358,42.144,6.85,61.965,15.134c33.434,13.974,57.992,39.108,81.081,65.857c11.375,13.178,24.031,24.608,40.483,32.055
		c-27.019-56.249-44.386-120.58-113.301-143.267c-55.289-18.201-89.005-58.73-119.128-108.894
		c71.694,3.027,118.209,44.873,161.43,93.079c-12.36-30.826-26.028-60.933-51.565-81.261
		c-54.792-43.615-81.915-99.876-85.872-168.852c-1.561-27.21-4.698-54.329-7.217-82.598c7.827,1.916,9.415,8.274,11.688,13.231
		c15.723,34.301,36.888,64.76,62.168,92.747c28.968,32.068,44.571,70.466,49.203,113.26c4.139,38.241,24.396,69.647,42.809,102.73
		c-7.856-67.892-10.115-133.578,51.908-181.617c3.481,53.573-10.134,102.331-20.605,151.809
		c-8.925,42.171,0.552,83.068,18.802,121.998c37.171,79.29,73.906,158.781,107.766,239.563c0.773,1.845,2.135,3.442,5.769,9.17
		c1.554-46.205,7.573-87.576,0.487-129.861c-7.282-43.45-21.25-85.626-23.987-129.908c-0.799-12.933-0.956-25.739,2.354-38.222
		c4.418-16.66,13.181-20.243,28.825-13.092c9.701,4.435,16.351,12.984,27.207,20.559c-1.602-16.535-3.201-30.549-4.263-44.604
		c-1.515-20.054,2.424-38.779,14.08-55.639c5.314-7.685,10.729-12.79,20.526-6.79c3.565,2.184,8.618,5.369,10.387-1.986
		c8.757-36.422,43.388-46.929,68.311-66.246c26.935-20.878,61.08-28.681,95.997-42.644c-9.702,14.793-17.804,26.251-24.963,38.271
		c-11.014,18.493-17.675,38.756-18.581,60.196c-0.61,14.476-3.933,27.408-11.864,39.374c-2.278,3.436-7.169,8.143-1.143,11.176
		c20.329,10.232,7.407,19.959,0.15,29.832c-1.954,2.659-4.473,4.904-7.852,8.544c22.794,4.348,14.755,17.02,8.218,28.443
		c-9.195,16.068-23.065,26.982-40.422,33.442c-5.694,2.12-11.373,4.28-19.035,7.166c13.679,7.583,26.822,12.284,36.76,22.314
		c5.671,5.724,6.705,10.355,1.954,17.319c-8.615,12.627-19.02,23.304-31.212,32.356c-18.811,13.967-37.64,27.91-56.481,41.836
		c-23.696,17.514-37.335,41.385-41.945,69.988c-12.779,79.307-5.678,157.741,11.271,236.35
		c8.524-10.725,18.233-45.174,19.731-69.169c0.382-6.12,0.903-12.331,0.308-18.396c-5.339-54.455,15.764-97.446,55.301-133.694
		c35.84-32.858,71.333-65.895,114.678-88.95c2.763-1.469,5.709-2.592,12.711-5.735c-24.526,53.597-21.66,110.314-43.395,160.86
		c-1.813,4.217-3.031,8.682-1.678,13.038c6.672,21.487-5.113,35.206-19.966,47.346c-13.882,11.347-29.348,20.333-45.62,27.82
		c-29.48,13.564-48.616,35.829-59.981,66.271c-21.21,56.815-25.261,116.16-27.053,176.855c15.204-47.162,29.047-94.308,74.18-123.38
		c42.875-27.618,89.054-38.926,140.375-36.947c-0.846,2.973-0.803,5.185-1.719,5.704c-35.063,19.86-54.871,53.512-75.72,85.638
		c-23.184,35.721-52.008,62.133-94.918,71.071c-16.106,3.355-25.341,15.199-31.166,30.064
		c-10.958,27.969-14.104,57.427-15.316,86.958c-2.687,65.499,6.82,130.27,13.427,195.188c0.432,4.239,2.225,8.34,4.313,12.455
		c1.756-33.853,12.803-65.335,22.503-97.063c7.064-23.106,8.121-45.113-0.809-68.557c-13.643-35.823-3.198-67.137,27.064-90.396
		c14.144-10.87,29.103-20.708,41.359-33.896c12.127-13.05,18.452-30.087,32.151-47.785c1.837,17.983,3.297,31.979,4.691,45.981
		c2.936,29.493,3.578,59.091,1.621,88.613c-2.365,35.673-20.236,60.99-54.347,73.107c-13.149,4.671-21.657,12.653-27.138,25.17
		c-16.271,37.16-27.267,75.535-27.675,116.408c-0.362,36.266-0.569,72.519,1.954,108.757c4.458,64.028,4.848,128.095-1.367,192.84
		c6.906-0.698,6.502-5.36,7.45-8.307c22.205-69.045,46.43-137.378,72.607-205.005c7.97-20.589,9.886-40.898,3.029-62.072
		c-12.544-38.732-2.58-72.009,23.64-102.27c36.426-42.042,69.756-70.738,101.649-83.935
		c-17.827,43.747-14.051,88.736-18.429,132.733c-3.594,36.125-18.327,65.075-51.361,83.02c-15.646,8.499-27.34,21.048-34.75,37.348
		c-17.321,38.1-32.5,77.075-47.127,116.267c-1.115,2.987-1.234,6.346-2.245,11.887c12.636-7.441,19.22-17.616,26.254-26.865
		c38.916-51.161,89.725-69.181,152.172-55.908C4500,1520.513,4500,1529.442,4500,1538.37z M4095.488,1715.791
		c-24.448-117.123-82.224-216.326-163.419-302.935C4006.155,1503.288,4057.765,1605.806,4095.488,1715.791z M4311,324.133
		c-51.794,67.944-95.134,139.661-101.936,227.686C4229.167,469.73,4266.034,395.124,4311,324.133z M4347.354,668.252
		c-26.527,34.475-54.091,68.235-70.299,109.156C4310.531,747.458,4328.149,707.298,4347.354,668.252z M4109.462,692.484
		c-28.668-24.262-63.865-27.194-99.26-29.484C4042.719,674.689,4074.173,689.848,4109.462,692.484z M3887.462,1014.144
		c-13.232-30.406-31.166-58.37-45.946-87.973C3849.081,959.522,3859.197,991.548,3887.462,1014.144z M4278.991,991.701
		c21.201-14.498,37.422-33.592,52.927-53.407C4309.651,951.507,4290.692,968.067,4278.991,991.701z M4379.251,1398.609
		c12.083-22.114,23.246-44.572,28.48-69.376C4394.154,1350.694,4382.126,1372.777,4379.251,1398.609z M4005.527,881.953
		c3.473,28.094,19.299,58.655,35.562,70.215C4029.428,929.145,4018.232,907.038,4005.527,881.953z M3789.339,1120.168
		c-15.194,4.821-29.004,11.782-43.854,22.933C3766.363,1142.944,3781.446,1138.157,3789.339,1120.168z M4069.626,1262.381
		c18.118,8.404,35.427,19.078,56.388,19.503C4109.224,1269.754,4090.471,1263.134,4069.626,1262.381z M3764.466,1055.374
		c6.48,13.369,15.132,24.486,30.061,29.125C3789.696,1069.704,3778.874,1060.755,3764.466,1055.374z M4319.862,1156.06
		c-12.347,18.055-21.418,32.267-24.396,49.35C4306.349,1192.051,4315.028,1177.654,4319.862,1156.06z M4137.961,977.926
		c-5.224,14.908-11.249,29.603-9.377,49.396C4135.247,1009.089,4139.873,994.136,4137.961,977.926z M4419.591,1547.19
		c-14.082,3.094-27.816,6.231-38.065,16.552C4395.791,1561.415,4408.491,1555.7,4419.591,1547.19z"/>
	<path d="M0,1260.469c26.048,11.326,52.344,21.997,75.125,39.719c22.428,17.448,35.193,43.656,58.607,65.908
		c-4.432-59.273-12.326-112.862-41.1-161.065c-7.225-12.104-18.355-20.929-28.581-30.385c-10.44-9.653-18.689-20.766-23.18-34.276
		c-1.689-5.08-4.498-11.35,0.408-15.734c4.111-3.674,9.566-0.929,14.21,0.724c7.19,2.559,14.267,5.432,22.881,8.745
		c-0.383-9.452-7.087-12.123-11.663-16.135c-16.904-14.823-32.822-30.58-41.26-51.882c-3.129-7.898-9.979-18.037,3.753-23.86
		c5.692-2.414,1.648-5.034,0.512-7.687c-3.5-8.177-6.901-16.397-10.498-24.531c-1.69-3.821-2.857-8.443,0.23-11.027
		c18.214-15.248,11.843-36.524,12.753-55.188c1.698-34.84,0.488-69.821,0.488-107.558c10.145,5.195,11.16,12.26,14.503,17.436
		c19.236,29.782,32.964,63.302,59.948,87.853c2.245,2.042,3.423,5.665,4.251,8.778c2.155,8.108-1.726,21.536,15.224,15.436
		c2.696-0.97,3.506,3.544,5.075,5.722c18.937,26.289,17.748,54.983,10.451,84.483c-1.068,4.32-1.931,8.698-2.68,13.085
		c-0.161,0.941,0.58,2.036,0.919,3.103c1.029-0.079,2.37,0.237,2.994-0.293c7.54-6.403,15.048-17.119,25.33-12.707
		c10.347,4.44,7.62,17.468,7.934,27.173c0.977,30.203-9.917,58.115-18.205,86.385c-11.5,39.232-13.774,78.936-9.321,119.292
		c3.976,36.036,7.896,72.078,11.903,108.11c0.663,5.958,1.316,11.976,5.431,18.369c5.568-12.881,5.35-25.92,6.898-38.34
		c15.865-127.341,61.016-243.98,127.41-353.062c6.542-10.748,15.56-20.382,15.952-34.381c0.845-30.259-12.233-49.937-41.066-59.519
		c-7.906-2.627-16.16-4.325-24.354-5.951c-55.748-11.07-94.587-32.035-135.641-73.44c0.475-0.859,0.913-2.438,1.439-2.468
		c41.1-2.344,82.128-8.956,123.396-2.988c39.642,5.733,66.229,27.304,78.537,65.816c6.252,19.563,12.598,39.097,19.681,61.062
		c8.889-12.937,11.111-25.364,12.313-37.628c2.79-28.469,1.585-56.879-5.174-84.807c-11.738-48.507-44.324-69.293-93.081-59.656
		c-39.741,7.855-73.745,0.879-106.463-22.961c30.981-8.957,59.653-19.477,91.109-19.98c32.495-0.52,58.308,16.765,85.875,30.544
		c0.748-20.623-13.526-44.215-31.164-52.754c-12.276-5.943-25.345-9.901-38.799-8.73c-37.455,3.261-71.861-5.463-103.946-24.137
		c26.046-29.962,76.684-28.333,138.581,4.776c-10.531-38.523-40.623-59.737-82.237-55.532
		c-43.609,4.408-82.588-8.041-119.883-28.681c-2.305-1.275-4.259-3.184-8.871-6.699c58.382-7.311,115.389-37.249,167.049,14.258
		c-25.953-44.905-49.308-90.439-104.121-106.212c-48.6-13.985-86.275-43.337-113.015-86.424c-3.505-5.647-7.59-11.083-8.247-18.286
		c63.97,10.759,119.643,36.021,158.658,93.191c3.686-10.268-1.063-14.487-3.582-18.936c-20.047-35.403-39.651-70.504-74.855-94.818
		c-24.389-16.845-37.452-44.152-46.511-72.089C34.7,265.258,41.44,211.016,53.679,155.77c6.949,4.605,5.744,10.159,6.257,14.875
		c3.594,33.033,15.57,62.517,36.152,88.66c19.641,24.949,32.772,52.785,38.511,84.357c7.348,40.424,23.166,77.925,42.614,113.942
		c1.477,2.734,2.069,6.458,7.205,7.042c-1.972-19.779-9.202-37.882-14.65-56.423c-16.546-56.308,3.516-106.61,55.105-137.385
		c-3.21,57.573,5.365,115.654-16.329,171.537c-8.988,23.152-2.217,47.41,4.927,70.616c7.231,23.491,18.873,44.72,33.165,65.5
		c-19.421-77.082-8.51-143.112,65.784-190.696c-7.564,45.298-4.6,89.154-24.721,129.413
		c-27.757,55.537-8.135,105.616,21.556,154.769c-0.614-56.105,18.01-102.533,64.399-135.946
		c-7.993,21.267-5.101,43.072-5.966,64.498c-0.769,19.046-8.853,35.384-17.632,51.739c-21.422,39.906-20.277,79.089,3.009,117.424
		c3.217-5.973,1.217-11.969,0.934-17.709c-1.87-37.903,14.17-66.707,44.474-88.332c3.052-2.178,6.274-5.901,10.355-3.595
		c4.988,2.818,2.581,8.019,2.127,12.174c-2.021,18.469-7.705,36.14-14.76,53.063c-20.211,48.48-20.797,98.825-16.378,149.846
		c0.901,10.403,1.789,20.808,2.698,31.388c7.085,0.175,8.836-5.345,11.707-8.919c27.952-34.792,55.882-69.605,83.409-104.732
		c5.334-6.807,10.589-10.067,19.63-9.206c14.582,1.389,28.331-3.912,42.936-7.672c-30.988,40.316-67.918,75.46-98.354,121.175
		c31.351-16.052,60.994-24.926,91.533-31.042c8.515-1.705,14.394-1.437,17.373,9.219c3.044,10.891,0.922,14.134-10.411,15.898
		c-58.768,9.147-106.818,37.099-143.488,84.258c-88.954,114.398-147.355,242.604-174.245,385.07
		c-1.034,5.476-1.737,11.022-2.374,16.561c-0.167,1.448,0.495,2.992,1.242,6.982c10.763-13.464,20.092-25.629,29.94-37.358
		c26.24-31.255,53.855-61.205,87.491-84.753c8.99-6.293,11.829-13.176,10.151-23.936c-8.632-55.383-2.661-108.952,21.234-160.123
		c7.627-16.333,18.088-30.754,29.296-44.665c15.523-19.267,28.792-39.883,36.584-63.448c4.185-12.656,8.514-10.202,14.953-2.028
		c11.888,15.093,21.691,31.707,26.289,50.068c4.583,18.302,11.053,14.966,22.845,6.708c26.315-18.427,56.424-31.07,81.024-53.419
		c-3.032,33.385-1.727,66.29-10.057,98.065c-2.87,10.95-0.772,13.744,10.567,12.583c37.368-3.827,74.576,4.751,111.99,2.171
		c6.338-0.437,10.26,1.483,5.7,8.596c-25.626,39.968-33.867,88.944-65.111,125.947c-7.764,9.196-1.034,10.532,5.681,13.052
		c33.71,12.65,61.914,34.652,95.129,55.191c-43.09,7.165-76.794,30.437-119.533,41.501c21.814,18.708,37.176,38.574,50.959,62.227
		c-39.092-6.197-76.381-2.331-113.604-2.675c-48.638-0.449-90.305-17.933-126.205-49.954
		c-14.564-12.991-28.634-26.558-42.561-40.236c-20.133-19.773-33.614-20.947-54.139-0.989
		c-37.778,36.734-71.495,76.76-93.437,125.409c-4.709,10.44-9.237,20.961-14.263,32.386c9.548,0.894,12.769-5.227,17.187-8.744
		c16.151-12.858,32.071-25.926,50.01-36.39c24.999-14.583,51.473-18.131,79.09-10.648c42.136,11.417,78.194,34.489,112.948,59.387
		c-1.966,6.052-5.852,4.12-8.747,3.827c-23.816-2.412-46.652,1.737-69.056,9.565c-30.081,10.511-60.917,12.188-89.996-0.915
		c-55.269-24.905-88.297-6.289-110.415,62.936c-15.455,48.372-15.353,100.179-14.413,151.078
		c2.255,122.223,34.833,236.665,89.651,345.282c0.89,1.765,2.318,3.258,4.924,4.313c-7.713-66.039-0.4-134.203-33.59-195.756
		c-11.687-21.675-17.124-45.942-24.256-69.406c-3.395-11.169-6.2-22.466-12.228-33.454c23.284,6.097,39.622,21.355,54.369,39.344
		c15.744,19.207,18.29,41.819,18.949,65.461c7.335-54.593,24.394-109.357-7.658-161.96c-11.791-19.351-14.991-40.494-12.586-62.814
		c1.728-16.04,2.914-32.139,4.792-53.285c18.681,24.422,33.546,45.974,46.506,69.044c14.597,25.983,0.141,51.975,1.252,78.367
		c37.209-60.297,63.96-124.137,73.257-194.739c14.553,14.532,17.102,41.522,7.391,83.686c11.936-12.092,19.152-25.028,25.086-38.43
		c10.857-24.518,29.482-39.638,53.771-49.69c46.545-19.264,95.281-29.819,145.39-37.773
		c-37.554,44.234-68.968,95.302-131.456,109.527c-21.17,4.82-41.511,11.649-62.055,27.691c17.554,0.008,32.415-6.443,45.213-1.1
		c29.21,12.196,55.7,7.864,84.289-3.508c21.172-8.421,45.115-4.61,68.801,0.801c-6.092,14.68-21.567,14.179-33.189,21.658
		c25.377,3.932,46.896,13.662,70.238,27.316c-20.051,10.02-38.946,11.359-58.675,12.589c23.854,11.831,45.914,25.208,64.639,50.147
		c-29.022-1.871-54.393-5.095-78.643-18.554c13.45,17.014,21.19,35.413,27.844,57.975c-21.462-10.42-37.164-22.715-50.663-40.549
		c-3.766,12.762,1.515,24.589-6.225,34.504c-23.333-25.12-41.344-51.425-42.111-86.926c-0.398-18.39-22.815-35.789-47.995-35.932
		c-43.9-0.25-82.293,13.794-108.685,51.381c-15.423,21.965-26.569,46.045-31.753,73.947c20.859-61.724,70.907-82.401,128.344-92.612
		c0.009,0.042,1.127,1.957,0.577,2.944c-18.128,32.544-37.849,64.698-75.793,76.267c-31.084,9.478-47.603,31.935-60.574,58.25
		c-11.194,22.71-15.551,47.467-12.064,74.233c5.435-11.132,11.461-22.02,16.181-33.447c9.854-23.855,27.756-38.399,51.381-47.108
		c30.056-11.079,61.867-13.385,92.818-19.715c3.97,5.543-0.165,8.921-2.34,12.292c-14.02,21.728-33.508,37.129-56.772,47.905
		c-6.059,2.806-12.283,5.727-18.749,7.111c-52.956,11.329-75.112,48.665-80.882,98.01c-7.3,62.429-1.065,123.616,22.752,182.38
		c0.836,2.064,1.773,4.106,2.883,6.031c0.514,0.89,1.558,1.473,4.456,4.078c0.539-30.412,14.696-53.333,32.946-74.262
		c4.357-4.997,2.996-10.465,1.219-15.816c-11.739-35.353-0.768-66.669,17.351-98.441c7.112,13.484,4.318,26.895,6.305,39.918
		c2.067-24.856,18.24-44.825,22.837-69.721c9.202,7.19,5.378,18.432,11.542,28.08c14.805-12.414,29.451-24.695,44.096-36.975
		c-0.663,24.368-11.58,44.366-22.017,65.822c20.006-12.264,41.066-20.454,67.279-22.868c-10.065,18.894-23.894,31.474-37.282,46.307
		c14.754,3.481,28.714,4.188,41.081,13.124c-20.927,12.764-43.233,19.078-65.271,26.459c13.667,2.068,27.095,2.555,39.331,12.705
		c-24.188,16.697-49.291,26.066-78.072,24.236c-28.682-1.824-55.332,19.67-58.974,48.281c-3.944,30.985-0.336,59.879,23.053,83.845
		c12.04,12.337,22.294,26.426,33.221,39.833c3.716,4.559,8.229,8.882,8.402,18.235c-22.236-8.058-42.937-15.946-65.594-15.098
		c-6.262,0.234-9.449-7.178-13.248-11.9c-93.344-116.029-158.172-246.48-196.541-390.154c-7.593-28.432-20.434-54.115-35.784-78.888
		c-7.487-12.082-17.549-22.087-31.624-22.21c-45.997-0.404-75.259-22.419-90.07-65.167c0-35.714,0-71.428,0-107.143
		c11.927,4.467,24.04,8.497,35.75,13.475c50.79,21.59,83.085,56.884,84.537,114.934c0.166,6.627,1.385,13.33,2.946,19.797
		c2.84,11.767,9.886,20.929,20.03,31.65c-4.061-90.171-3.811-176.941,4.275-263.631c2.942-31.539-10.751-58.535-28.181-83.759
		c-11.88-17.193-28.15-26.276-49.151-27.332c-24.795-1.247-48.433-7.062-70.207-19.419C0,1322.969,0,1291.719,0,1260.469z
		 M425.54,1213.983c-10.344,1.296-10.435,15.78-21.473,16.562c-3.345,0.237-8.68-0.292-8.447,5.606
		c0.153,3.87,3.818,5.135,6.706,6.736c46.921,26.014,96.403,33.009,148.564,19.942c1.602-0.401,3.17-1.098,4.617-1.904
		c1.051-0.586,3.308-0.823,1.084-3.889c-46.027,9.588-91.581,9.672-134.529-14.511c42.941-6.92,82.491-20.84,117.04-47.229
		c-15.786,6.222-30.931,13.949-46.506,20.681c-23.321,10.08-35.408,12.283-50.6,10.452c28.684-22.929,52.67-49.83,76.339-77.091
		c-34.248,25.054-56.887,64.64-100.93,81.615c3.398-7.497,5.611-12.378,7.815-17.269c5.94-2.615,9.258-8.094,12.266-13.096
		c17.999-29.931,35.589-60.11,53.029-90.372c1.938-3.362,5.907-6.847,2.5-12.876C468.772,1135.793,447.062,1174.833,425.54,1213.983
		z M123.844,1209.428c-2.744-77.744-30.328-149.531-55.303-221.979C86.703,1061.415,110.583,1133.973,123.844,1209.428z
		 M416.289,1056.604c-1.849,53.644-16.282,105.445-22.749,158.342C405.505,1162.747,420.493,1110.993,416.289,1056.604z
		 M535.986,1311.878c-44.942,1.707-85.307-14.645-124.997-33.625C448.087,1306.536,489.519,1318.505,535.986,1311.878z
		 M511.139,1542.334c-26.323,2.518-59.863,23.425-74.419,45.286C461.419,1572.297,486.782,1561.454,511.139,1542.334z
		 M585.647,1349.22c-44.558,1.75-89.285,5.132-131.723-13.587C495.675,1360.984,540.627,1355.424,585.647,1349.22z M96.133,1702.895
		c-6.402-25.693-36.196-64.006-54.156-73.113C60.029,1654.153,78.081,1678.524,96.133,1702.895z M87.15,1351.569
		c-17.075-16.185-39.088-22.476-61.185-28.619C44.247,1336.631,65.156,1344.826,87.15,1351.569z"/>
	<path d="M0,2017.165c10.181,2.901,20.471,5.47,30.523,8.763c39.177,12.833,67.961,37.293,84.422,75.652
		c5.437,12.671,11.758,24.962,18.338,38.823c5.12-22.183-2.04-56.488-20.378-80.332c-33.034-42.953-39.387-91.137-32.92-142.645
		c2.573-20.493,9.004-39.893,17.483-58.874c5.316,2.532,5.168,6.821,5.667,10.312c3.861,27.049,13.537,51.899,29.545,73.872
		c18.721,25.699,20.94,53.467,17.376,84.256c-6.015,51.962,7.261,102.356,18.18,153.292c-9.749-57.636-3.22-110.061,44.292-155.479
		c2.028,33.267,3.959,61.987,5.457,90.73c0.754,14.475-4.912,27.41-11.947,39.547c-41.007,70.739-11.293,132.705,23.704,194.523
		c-17.968-63.591-24.576-123.294,48.994-158.845c-20.06,35.596-6.705,78.689-27.756,114.672
		c-9.367,16.012-2.931,35.462,3.871,51.968c12.021,29.174,21.104,60.494,48.541,80.492c3.877,2.826,5.906,6.385,0.457,8.636
		c-8.038,3.322-13.323,18.052-25.3,6.645c-12.513-11.917-24.796-24.108-37.789-35.483c-23.112-20.234-48.872-29.626-80.209-21.028
		c-57.757,15.849-102.529-4.514-137.216-51.455c-6.534-8.843-12.923-18.212-23.334-23.355c0-2.232,0-4.464,0-6.697
		c11.075,1.084,22.197,1.82,33.217,3.312c60.484,8.187,123.202,9.54,171.685,55.151c0.268,0.252,0.979,0.031,1.855,0.031
		c0.183-1.54,1.066-3.483,0.458-4.644c-20.913-39.918-38.472-82.788-82.499-104.092c-42.836-20.729-63.12-58.312-77.931-99.687
		c50.404,11.092,87.289,39.688,108.968,87.855c-6.29-25.875-13.523-50.427-22.713-74.224c-7.259-18.795-20.039-33.044-40.555-39.3
		c-35.98-10.971-59.503-35.824-75.086-69.229c-4.859-10.416-7.871-22.008-17.4-29.727C0,2032.79,0,2024.977,0,2017.165z"/>
	<path d="M4500,1853.102c-5.305,9.542-4.54,20.431-6.594,30.674c-2.869,14.302-5.843,28.531-13.937,40.884
		c-4.777,7.292-6.561,12.635,3.772,16.318c6.166,2.196,6.396,6.955,3.172,12.146c-4.105,6.611-8.181,13.239-12.274,19.857
		c-1.712,2.768-7.69,5.661-0.776,8.593c12.281,5.207,5.284,10.635,0.636,16.112c-23.756,27.985-54.739,43.216-91.21,50.05
		c3.21,8.673,10.087,9.004,16.164,10.425c17.009,3.978,32.716,10.548,47.104,20.768c10.306,7.321,12.703,12.701,2.376,22.914
		c-20.479,20.252-46.113,28.833-72.807,35.072c-15.678,3.664-31.914,4.975-47.921,7.175c-11.041,1.518-23.017,0.498-33.033,4.484
		c-49.01,19.502-102.233,31.023-140.765,71.291c-1.475,1.541-3.333,2.715-7.533,6.078c3.689-17.248,12.635-28.121,21.758-38.558
		c6.572-7.519,14.566-13.783,21.815-20.723c28.176-26.973,44.802-59.316,46.077-98.875c0.827-25.64,1.618-51.288,2.977-76.903
		c1.238-23.363,8.015-44.812,23.307-63.21c8.333-10.025,16.065-10.139,25.172-1.134c14.831,14.665,25.248,32.118,32.769,55.38
		c8.469-14.52,7.092-26.729,8.327-38.193c2.54-23.571,5.808-46.918,23.453-64.667c7.042-7.084,13.796-20.006,27.017-7.315
		c2.54,2.438,5.085-0.239,6.8-2.507c18.34-24.268,45.464-35.138,71.842-47.147c14.097-6.418,28.208-12.807,42.312-19.208
		C4500,1819.62,4500,1836.361,4500,1853.102z M4421.118,1914.367c-50.689,76.055-108.59,146.113-170.407,213.061
		C4325.857,2071.046,4376.52,1995.008,4421.118,1914.367z"/>
	<path d="M3072.967,2924.499c0.727-52.779,11.193-98.773,38.789-140.022c1.51-2.257,4.592-5.111,4.075-6.82
		c-4.705-15.56,7.663-19.423,17.059-23.852c8.106-3.82,12.544-6.413,9.389-16.871c-2.999-9.938,6.387-13.064,13.758-15.59
		c12.287-4.211,25.307-3.668,38.023-5.176c6.866-0.813,14.394-1.143,21.654-7.896c-9.492-2.828-18.635-0.204-26.351-4.388
		c-3.871-2.099-9.709-2.935-9.717-7.959c-0.008-5.604,6.15-5.171,10.145-6.503c27.708-9.235,56.185-14.203,85.345-15.456
		c2.692-0.115,5.357-0.848,8.62-1.391c-4.199-4.179-8.958-3.599-13.225-3.853c-71.473-4.254-142.896-4.418-213.519,8.926
		c-40.096,7.576-77.293,21.611-102.399,57.351c-9.457,13.462-23.638,22.136-39.294,27.381
		c-23.435,7.852-45.376,18.447-65.828,32.371c-4.61,3.138-10.634,9.801-16.038,4.348c-4.975-5.02,1.032-11.415,3.462-16.716
		c24.189-52.789,59.671-91.233,121.748-96.66c10.712-0.936,21.539-3.894,34.012-11.769c-24.344-3.274-44.906,1.591-65.488,3.296
		c-32.813,2.718-65.589,5.735-98.53,6.092c-29.321,0.317-52.112,12.509-65.954,38.311c-19.683,36.689-46.331,64.925-85.885,80.501
		c-18.107,7.131-30.446,22.163-41.722,37.698c-3.507,4.83-5.794,10.877-15.07,14.792c-2.223-42.758,3.073-80.856,31.241-114.238
		c28.233-33.46,68.074-42.562,107.695-54.485c-3.059-5.488-7.768-4.705-11.587-4.799c-15.056-0.371-30.136,0.049-45.182-0.519
		c-35.136-1.326-63.539,10.897-87.315,37.51c-30.783,34.455-73.651,40.616-120.419,46.703
		c24.135-24.257,37.963-52.168,64.416-69.573c26.097-17.171,57.103-16.804,85.359-25.976c-0.132-1.633-0.265-3.266-0.397-4.899
		c-19.994,1.283-40.186,1.229-59.938,4.149c-33.706,4.983-66.638,12.128-93.475,36.444c-11.498,10.418-27.222,14.686-43.121,16.775
		c-36.911,4.851-73.263,1.227-108.925-4.285c-1.258-4.077-0.678-6.287,1.564-7.264c27.377-11.918,50.332-30.818,74.759-47.364
		c27.26-18.466,56.919-22.592,87.938-13.584c31.003,9.004,61.434,7.013,92.625-1.816c-56.523-8.283-101.807-47.479-158.928-54.766
		c-35.857-4.574-64.403-23.977-84.825-54.375c-17.617-26.223-31.26-55.251-55.223-77.851c43.939,2.163,83.324,16.247,120.465,38.056
		c37.322,21.914,59.484,60.014,93.723,86.019c-29.98-34.164-34.672-72.681-23.108-118.938
		c22.555,35.177,47.571,63.266,62.134,97.997c15.267,36.411,42.195,56.817,80.765,65.377
		c49.673,11.025,99.538,19.054,153.921,21.096c-14.835-10.656-31.123-16.025-38.181-29.569
		c-13.068-25.077-32.914-36.145-59.884-42.994c-29.291-7.438-57.842-53.603-58.349-83.822c-0.16-9.541,3.491-11.256,10.818-6.322
		c9.677,6.517,19.012,13.541,28.444,20.311c-11.107-56.993-11.377-62.261-3.644-82.278c19.74,19.83,25.542,46.466,37.681,72.26
		c1.198-67.513,4.511-89.209,17.121-110.712c20.636,38.118,30.719,77.511,26.476,120.751c11.348-29.41,12.386-62.301,35.602-89.186
		c8.814,29.908,11.304,57.439,3.217,86.218c12.435-13.372,19.343-31.461,39.203-39.237c5.838,36.326-0.646,68.236-26.626,94.984
		c-7.845,8.078-16.707,15.214-26.994,19.494c-19.167,7.974-14.299,16.223-6.242,28.424c12.129,18.368,31.757,25.994,51.788,31.493
		c40.958,11.245,82.59,8.071,124.894,3.928c-40.837-14.017-69.282-40.094-86.454-84.018c37.276,10.818,72.861,17.036,99.007,43.391
		c25.887,26.094,56.919,36.179,92.365,35.549c22.174-0.394,44.329-1.889,67.008-5.274c-13.531-4.168-26.852-9.28-40.628-12.344
		c-63.999-14.238-99.542-55.366-113.229-117.811c-2.145-9.784-5.098-19.39-7.614-29.094c-0.102-0.394,0.449-0.957,0.82-1.686
		c5.755-0.63,8.696,4.001,11.859,7.323c13.158,13.823,27.88,25.859,43.517,36.546c26.146,17.87,48.666,39.04,65.57,65.959
		c16.085,25.614,42.203,35.579,69.299,43.232c17.042,4.813,34.803,6.303,53.948,4.085c-18.023-10.431-35.932-21.065-54.111-31.218
		c-10.702-5.977-22.287-10.454-32.685-16.884c-32.575-20.143-51.164-49.566-53.293-87.89c-1.386-24.954-0.26-50.047-0.26-74.938
		c3.776,0,5.534-0.345,5.72,0.05c16.084,34.2,39.701,63.01,64.401,91.148c10.724,12.216,18.077,26.819,25.429,41.229
		c25.585,50.148,66.247,78.402,122.154,84.7c11.351,1.279,22.734,2.262,34.703,1.94c-36.712-14.596-64.376-41.726-94.803-64.884
		c-26.784-20.385-40.09-47.604-39.7-80.849c0.226-19.278,3.096-38.524,6.58-58.384c11.751,17.089,20.984,35.384,34.268,50.727
		c20.003,23.102,35.37,48.364,43.458,78.217c3.953,14.591,12.22,27.465,28.505,35.5c-22.959-27.234-14.97-55.778-6.227-86.406
		c20.155,19.96,34.829,41.067,35.086,68.955c0.218,23.62,12.307,36.992,33.229,44.772c35.685,13.27,72.411,11.744,109.138,7.398
		c57.296-6.781,112.842-21.193,167.126-40.57c2.489-0.888,4.682-2.603,10.348-5.836c-29.912-3.815-55.752-9.908-80.959-18.776
		c-37.036-13.03-71.486-31.305-105.38-50.733c-18.775-10.761-38.207-18.464-60.333-16.244c-47.06,4.722-89.372-8.187-128.251-34.147
		c-11.452-7.647-23.01-15.133-36.615-24.07c40.633-17.766,79.977-20.331,123.127-6.784c-7.591-14.486-18.894-16.426-28.991-19.667
		c-33.417-10.725-67.812-18.416-99.792-33.535c-34.561-16.339-59.281-42.853-79.213-74.62c-6.232-9.933-4.274-13.766,7.888-12.891
		c27.407,1.973,53.958,8.481,80.695,14.106c5.86,1.233,11.694,4.169,17.928,1.327c0.716-6.07-4.517-5.682-7.675-6.654
		c-40.135-12.349-66.585-41.568-90.362-73.748c-5.152-6.973-15.752-17.321,4.265-20.791c6.661-1.155,2.436-5.776,0.77-8.958
		c-3.611-6.892-7.623-13.599-10.821-20.676c-3.345-7.402-3.721-14.552,6.333-16.979c6.321-1.527,8.838-4.259,5.197-10.358
		c-9.277-15.536-7.223-31.927-4.604-48.739c5.553-35.65,13.526-70.645,26.141-109.359c9.162,28.823,18.001,53.321,32.691,75.081
		c8.73,12.932,17.227,26.022,25.925,38.976c1.982,2.953,4.543,8.781,8.307,3.127c9.169-13.772,14.526-3.439,20.312,2.591
		c21.328,22.23,26.606,50.818,30.99,79.69c2.402,15.82,2.232,32.279,13.572,50.111c3.188-46.02,25.528-83.101,32.925-126.805
		c27.296,24.669,41.781,52.721,42.632,87.602c0.505,20.728-1.875,41.214-4.306,61.715c-5.597,47.198,4.388,105.84,23.962,134.275
		c-14.351-59.974-24.811-119.799,5.478-179.529c26.398,36.479,34.43,76.097,31.017,118.979c-2.031,25.512-6.257,51.027-2.044,76.747
		c3.702,22.598,13.234,42.026,32.71,60.697c-6.682-40.451,2.094-73.469,27.699-101.365c3.537-3.853,2.797-8.085,1.241-12.516
		c-19.533-55.624-14.537-111.033,2.427-166.018c4.037-13.084,1.198-19.472-11.121-26.11c-28.347-15.274-40.032-42.325-45.047-72.643
		c-3.297-19.936-0.318-39.587,3.877-60.901c22.716,16.374,26.305,41.821,37.707,63.502c-13.665-40.233,1.848-74.669,18.845-112.202
		c14.366,32.228,8.189,63.303,12.437,93.686c5.141-42.77,23.67-78.844,51.297-111.854c9.788,30.627,8.659,56.968-3.948,122.623
		c16.141-26.365,24.689-58.333,55.696-76.602c-3.404,33.578-1.995,66.249-24.628,93.481c23.287-8.886,37.688-31.482,63.975-39.207
		c-7.727,22.991-9.143,46.317-21.387,65.912c-20.772,33.243-51.151,50.723-90.692,50.146c-10.22-0.149-16.886,2.103-20.872,12.065
		c-18.578,46.441-24.584,93.647-9.575,142.279c1.224,3.966,0.924,10.134,6.634,10.232c6.496,0.112,7.07-6.067,8.034-10.92
		c0.758-3.818,1.515-7.751,1.409-11.609c-1.171-42.854,27.009-67.29,59.463-95.18c-0.732,31.661-0.902,58.731-13.617,89.274
		c29.782-23.406,62.022-19.384,94.286-27.162c-12.862,25.457-31.384,39.843-55.597,47.476
		c-18.602,5.864-37.707,10.398-54.732,20.385c-4.672,2.741-11.601,4.842-11.887,10.709c-0.334,6.85,7.516,7.327,12.199,9.287
		c25.532,10.686,44.257,29.686,62.126,49.793c2.025,2.278,6.115,4.94,3.656,8.154c-1.587,2.075-5.9,2.765-9.026,2.852
		c-36.196,1.004-66.392-9.958-82.534-45.003c-6.63-14.393-15.007-12.564-25.02-5.666c-4.019,2.769-7.546,6.682-10.339,10.734
		c-28.486,41.323-14.46,98.989,30.026,121.267c37.482,18.771,77.248,29.066,119.476,27.014c9.384-0.456,14.977,1.895,20.484,9.99
		c15.696,23.073,40.166,34.333,66.039,44.03c-8.308,14.637-20.844,23.148-32.689,32.195c-11.218,8.567-21.427,18.005-28.345,30.37
		c-10.389,18.566-13.76,37.978-2.497,57.279c13.412,22.983,18.525,47.513,17.017,73.846c-1.443,25.201,3.83,49.581,11.637,74.368
		c-52.623-17.946-86.119-78.018-73.924-129.772c4.183-17.753,12.315-34.699,11.826-58.533
		c-20.802,20.223-40.248,36.219-50.733,60.211c-5.029,11.508,1.782,20.566,7.516,29.365c15.457,23.719,23.673,49.133,19.559,77.697
		c-0.676,4.698,0.367,10.106-5.447,13.811c-8.783-8.634-12.047-20.783-21.198-34.619c-0.228,26.525,1.137,49.09-5.895,74.413
		c-17.163-19.031-19.84-41.518-26.955-67.354c-5.89,30.797-17.048,54.283-36.177,74.982c-8.864-25.544-6.1-60.555,7.948-102.591
		c-12.228,10.953-21.69,21.505-34.381,27.802c-12.832,6.366-25.124,14.316-41.746,13.399c14.56-27.764,31.608-51.837,57.732-69.69
		c-26.044,1.812-50.758-1.597-78.42-8.147c31.452-24.299,64.705-32.716,101.263-34.074c-7.037-6.591-16.358-3.565-23.643-7.182
		c-7.778-3.862-12.54-10.066-17.986-18.214c21.329-3.461,39.367,0.344,56.385,9.458c10.793,5.78,20.162,5.24,28.279-4.518
		c30.495-36.658,64.665-69.311,104.452-95.848c1.829-1.22,3.314-2.79,2.517-5.792c-8.031-1.135-14.994,3.096-22.078,5.608
		c-59.458,21.082-121.207,34.417-181.124,53.927c-32.367,10.541-58.302,29.157-78.37,56.982
		c-17.926,24.856-36.556,49.404-59.593,69.945c-8.996,8.021-19.281,19.702-31.507,15.147c-13.438-5.006-6.573-20.546-7.988-31.608
		c-0.937-7.328,1.769-15.087-2.185-24.592c-8.188,8.813-9.572,18.228-11.747,26.879c-7.188,28.602-26.79,46.968-50.262,62.117
		c-7.957,5.135-16.346,8.7-20.414-5.144c-2.74-9.323-7.348-5.522-11.643-0.791c-6.812,7.502-14.313,14.118-24.011,17.699
		c-3.134,1.157-6.818,3.686-9.453,2.903c-32.351-9.616-49.782,16.148-71.795,30.352
		C3091.371,2905.491,3084.101,2914.262,3072.967,2924.499z M3443.063,2485.103c-97.824-93.987-165.189-209.609-231.431-326.041
		C3269.739,2281.284,3331.361,2401.01,3443.063,2485.103z M3404.354,2677.28c-92.257,9.982-168.173,52.059-232.37,117.149
		C3239,2734.875,3319.041,2700.899,3404.354,2677.28z M3585.219,2135.081c-14.207,2.659-27.078,7.458-35.195,19.983
		C3566.201,2156.069,3577.873,2149.29,3585.219,2135.081z M2712.264,2555.767c-9.439-13.815-20.074-19.435-33.904-26.057
		C2684.442,2546.296,2693.769,2553.677,2712.264,2555.767z M2415.965,2540.688c11.84,15.479,28.367,24.336,47.167,29.516
		C2447.409,2560.365,2431.687,2550.527,2415.965,2540.688z M2756.833,2558.162c11.73-5.869,22.198-12.924,25.775-29.661
		C2769.822,2537.113,2762.286,2546.66,2756.833,2558.162z M3512.901,2144.472c-7.202-10.742-14.404-21.484-21.607-32.226
		C3495.178,2125.234,3496.354,2139.793,3512.901,2144.472z M3322.955,2460.084c13.196,9.363,28.075,11.426,43.765,9.964
		C3352.132,2466.727,3337.543,2463.406,3322.955,2460.084z"/>
	<path d="M1856.69,433.835c26.448,16.661,42.112,36.975,45.663,65.871c1.599,13.015-3.141,14.474-13.609,10.252
		c-22.431-9.047-37.376-25.63-47.874-46.849c-13.485-27.254-36.359-40.944-67.569-44.544
		c41.399,28.179,53.123,69.418,51.873,117.116c-17.22-25.777-47.253-40.975-57.115-72.822c-0.825-2.662-1.524-5.365-2.244-8.058
		c-10.627-39.764-18.058-46.038-62.225-50.502c10.183,19.118,19.625,37.155,33.802,51.527
		c34.59,35.067,37.508,80.817,13.131,129.167c-16.634-34.487-36.756-65.264-37.548-103.565c-0.291-14.053-2.972-27.479-8.5-40.623
		c-12.854-30.563-33.326-49.524-67.741-54.538c-31.972-4.658-63.719-11.158-95.879-14.781
		c-37.599-4.236-74.152-0.399-114.113,16.121c37.255,10.9,67.029,27.892,98.987,39.839c10.133,3.788,17.69,1.175,25.102-6.991
		c13.631-15.017,29.59-25.877,51.614-19.801c8.726,2.408,12.675,5.607,4.694,14.472c-7.736,8.594-16.377,14.825-28.635,19.154
		c35.962-2.088,57.65,22.43,83.146,40.157c-10.755,6.738-10.755,6.738-62.146-0.559c21.211,19.326,29.346,42.985,37.87,68.689
		c-32.07-9.531-54.904-28.143-70.535-54.741c-13.886-23.629-34.98-36.487-62.301-47.555c48.139,65.53,83.819,137.84,159.446,174.171
		c12.31,5.913,21.475,8.375,34.673-0.634c32.22-21.993,67.459-17.63,104.335-6.329c-11.263,15.535-28.445,15.877-45.759,23.058
		c36.719,2.228,66.029,15.304,95.095,36.382c-38.356,11.419-71.627,0.599-105.078-11.611c42.097,17.589,76.448,43.111,98.717,87.439
		c-37.31-7.996-69.885-19.716-99.339-40.311c16.265,23.465,26.548,48.572,30.787,80.033c-27.865-18.331-50.33-36.746-61.07-67.145
		c-2.419,12.394-2.016,24.018-7.479,34.643c-5.08,9.879-9.117,11.271-15.861,1.071c-18.195-27.52-28.687-56.893-22.185-90.151
		c2.301-11.771-0.667-18.063-11.607-23.657c-41.563-21.253-77.603-49.741-108.416-90.386c-2.118,18.55,1.193,33.8-6.816,51.753
		c-6.041-34.426-28.759-57.682-35.203-88.715c-15.19-73.152-65.568-100.897-130.854-103.254
		c-35.561-1.284-69.816,6.443-104.275,13.348c-59.155,11.853-117.018,28.436-174.367,46.952c-4.667,1.507-9.628,2.587-15.144,9.434
		c10.822,1.244,19.639,2.703,28.51,3.2c38.231,2.145,75.355,9.79,110.523,24.751c33.233,14.137,65.274,14.436,98.877,0.666
		c48.457-19.856,96.647-21.139,144.055,10.736c-18.278,13.65-37.533,24.838-58.251,33.489c-20.79,8.681-42.798,9.936-65.279,9.065
		c13.601,7.777,28.363,8.55,43.062,9.15c28.94,1.181,56.191,8.533,81.668,22.148c35.971,19.225,54.715,50.589,63.816,91.739
		c-33.16-9.51-64.314-18.444-97.598-27.989c3.247,10.68,10.742,12.933,16.4,16.32c33.435,20.015,52.226,51.061,65.715,86.1
		c2.107,5.473,6.08,12.387,2.041,17.498c-5.195,6.573-9.827-5.132-17.395-1.942c6.893,10.933,7.307,23.104,5.404,35.179
		c-1.104,7.004,8.526,20.859-10.805,18.453c-4.209-0.524-3.568,7.287-4.319,11.495c-5.623,31.507-17.394,61.676-20.336,94.482
		c-14.423-38.993-38.391-73.045-48.002-112.665c-9.35-2.078-8.124,12.735-16.402,8.659c-6.751-3.324-8.808-11.172-12.467-17.388
		c-12.34-20.964-16.084-43.622-14.496-67.635c0.744-11.242,0.127-22.574-2.253-34.284c-10.449,38.564-27.23,73.902-45.401,111.109
		c-25.18-34.537-35.017-71.008-30.038-111.286c3.353-27.123,8.482-54.064,1.245-81.353c-3.143-11.852-6.87-23.364-14.725-36.421
		c-1.098,9.138,2.022,14.699,3.625,20.552c7.81,28.528,8.048,57.266,1.708,86.065c-1.157,5.255-1.411,12.893-7.452,13.727
		c-7.334,1.013-9.122-7.225-11.583-12.36c-10.35-21.594-13.503-44.668-12.726-68.425c2.357-72.129-9.823-89.764-78.331-111.584
		c-13.758-4.382-28.094-7.122-42.318-9.796c-6.32-1.188-12.986-2.951-22.066,0.074c29.931,19.577,43.892,49.127,58.326,78.489
		c6.401,13.021,14.343,25.389,24.399,35.9c37.453,39.146,39.077,84.466,22.333,132.297c-4.052,11.573-4.564,20.918,1.13,31.622
		c17.275,32.474,17.182,65.779,3.57,100.808c-15.74-12.806-16.397-31.213-22.53-52.828c-4.451,33.449-13.817,59.68-33.653,86.377
		c-2.01-29.633-2.675-55.123,4.56-80.894c-17.052,31.926-39.471,57.617-75.08,72.814c2.771-17.946,9.433-32.456,15.67-47.124
		c6.087-14.315,16.945-25.456,25.417-38.94c-18.624,12.943-37.895,22.771-63.452,23.726c11.408-22.284,27.811-36.68,47.446-50.579
		c-10.472-2.78-19.015-4.569-27.216-7.363c-7.761-2.644-9.748-5.661-1.354-11.892c28.112-20.87,58.322-32.527,93.748-24.779
		c6.585,1.44,10.09-0.409,13.149-6.508c17.289-34.478,11.403-81.044-17.003-112.332c1.367,22.736-4.317,41.377-11.603,62.63
		c-16.37-19.876-24.775-40.803-27.464-64.061c-1.016-8.791-1.705-18.188,0.252-26.663c12.282-53.196-49.68-102.43-92.023-101.987
		c-23.427,0.245-46.381,3.885-70.566,4.207c6.851-4.287,13.666-8.633,20.56-12.849c16.861-10.313,32.766-22.215,42.043-39.851
		c7.918-15.053,19.708-22.172,35.176-27.083c18.551-5.891,36.537-13.692,54.475-21.35c28.063-11.982,50.876-28.695,60.836-60.122
		c6.239-19.685,23.561-32.097,39.228-44.737c8.78-7.083,10.78,0.127,11.108,6.632c0.786,15.619-2.869,30.558-12.082,48.215
		c27.372-13.541,50.124-25.901,66.864-46.75c10.758-13.399,13.577-29.475,11.355-45.943c-4.873-36.118,4.747-68.164,23.67-98.676
		c14.619-23.572,29.22-47.351,37.504-74.661c55.482,56.154,46.049,158.476-18.075,201.33
		c-15.376,10.276-30.035,21.214-43.163,34.239c-25.856,25.653-57.993,41.195-90.585,55.977c-3.036,1.377-6.158,2.58-9.11,4.114
		c-0.781,0.406-1.08,1.742-2.541,4.296c25.454-2.655,48.631-10.446,72.337-15.397c12.536-2.619,24.655-7.244,37.196-9.827
		c41.231-8.491,69.412-33.17,89.76-69.042c14.541-25.635,27.365-52.671,49.569-73.117c8.813-8.115,17.946-21.67,30.623-15.787
		c11.784,5.468,6.39,20.965,7.016,32.244c0.62,11.169-3.694,21.617-8.61,34.639c13.869-5.859,18.972-15.632,23.584-25.208
		c5.313-11.029,9.901-22.486,13.838-34.084c10.553-31.093,35.172-48.045,62.255-62.241c17.943-9.405,13.17,9.801,18.82,17.277
		c7.108-6.225,13.047-12.971,20.377-17.432c7.994-4.866,15.854-16.633,27.161-4.511c0.655,0.702,3.267,0.238,4.584-0.435
		c32.092-16.395,69.017-22.909,98.208-48.91c3.338,11.216-1.34,20.408-3.531,29.43c-8.868,36.518-21.009,71.673-47.044,100.167
		c-3.14,3.437-5.523,6.325,0.768,8.309c9.61,3.029,6.696,7.929,2.637,13.634c-5.267,7.402-11.86,13.275-19.308,18.32
		c-5.322,3.605-18.133,1.204-10.638,15.153c1.852,3.447-6.622,6.428-10.961,8.465c-22.058,10.356-46.449,11.386-69.7,17.016
		c-7.351,1.78-14.726,3.463-22.043,6.862c13.175,2.927,26.546,3.123,38.855,8.157c3.576,1.462,8.352,2.904,8.05,7.401
		c-0.322,4.804-5.405,4.835-9.16,5.453c-17.55,2.888-35.116,5.677-52.973,10.804c18.359,1.485,36.711,3.068,55.079,4.433
		c40.144,2.983,80.148,5.315,119.299-8.21c16.994-5.871,30.108-15.564,41.518-29.423c35.439-43.044,77.832-79.808,112.57-123.563
		c4.821-6.072,11.677-10.165,22.359-14.884c-15.211,32.938-11.802,66.546-21.027,97.87c-13.205,44.838-54.444,77.535-100.81,79.738
		c-11.085,0.526-22.236,2.056-33.091,4.369c-10.795,2.301-21.257,6.168-31.696,9.298c0.865,6.94,5.796,5.633,9.139,6.484
		c52.458,13.356,105.189,24.778,159.243,30.369c54.801,5.669,93.68-15.109,120.434-62.773
		c23.681-42.189,61.411-65.085,108.677-72.829c5.459-0.895,11.123-1.207,16.644-0.904c8.165,0.449,12.093,3.335,4.531,10.825
		c-14.424,14.286-25.988,30.899-34.73,48.951c-17.833,36.824-47.913,57.497-85.533,69.818c-14.616,4.787-30.18,7.48-43.376,16.28
		c0.805,1.417,1.306,3.017,1.765,3.005c39.077-1.029,80.237,0.625,113.965-20.343c73.545-45.722,147.47-38.276,223.211-10.149
		c11.982,4.449,23.428,10.356,35.04,15.766c1.187,0.553,1.805,2.328,4.628,6.196c-61.839-5.031-116.387,20.608-174.215,27.334
		c-28.614,3.328-56.763-1.975-85.134-3.14c-19.421-0.797-38.902-0.152-59.738-0.152c7.562,6.839,17.128,8.362,25.671,9.921
		c61.761,11.271,94.723,52.142,113.248,108.339c0.812,2.464,3.428,4.972,0.367,7.434c-2.687,2.161-5.328,0.388-7.665-0.966
		c-36.474-21.129-74.823-38.464-101.924-73.956c-29.146-38.172-73.133-45.27-119.5-42.956c7.854,3.289,15.653,6.714,23.569,9.845
		c93.667,37.057,123.654,122.967,72.557,212.974c-1.504-5.081-3.184-8.786-3.651-12.639c-4.825-39.748-24.052-72.627-49.208-102.49
		c-12.296-14.597-25.036-29.188-31.032-47.318c-13.896-42.016-42.74-63.783-86.026-68.033
		C1873.709,434.764,1866.954,431.61,1856.69,433.835z M1403,372.266c105.063-27.911,179.153-104.073,261.314-167.737
		C1576.855,259.809,1502.036,334.847,1403,372.266z M1436.055,749.513c-14.945-52.713-111.631-189.159-156.431-193.504
		C1343.779,609.495,1391.152,676.4,1436.055,749.513z M1348.107,270.177c16.793-17.335,23.086-38.607,24.633-61.641
		C1364.529,229.082,1356.318,249.63,1348.107,270.177z M1417.938,610.995c-18.381-9.345-37.377-14.542-57.664-13.872
		C1379.495,601.747,1398.717,606.371,1417.938,610.995z M1318.766,534.485c15.562-1.702,31.125-3.403,46.687-5.105
		C1349.321,526.109,1333.656,526.89,1318.766,534.485z M1149.651,793.372c14.117-0.461,21.28-3.203,28.595-10.948
		C1163.678,781.741,1161.434,782.601,1149.651,793.372z"/>
	<path d="M3468.912,154.105c7.128,1.752,9.276,6.012,11.124,9.809c22.765,46.784,39.21,95.181,30.093,148.161
		c-6.799,39.51,10.713,68.19,40.612,88.826c17.728,12.236,12.52,26.437,11.711,40.925c-0.501,8.986-7.925,3.587-11.557,2.206
		c-40.343-15.342-73.239,0.784-103.298,25.301c-27.598,22.509-34.283,49.106-20.747,82.204c12.832,31.376,20.426,62.69,8.554,95.876
		c-4.27,11.937-9.673,23.468-17.03,35.133c-14.226-53.299-55.314-102.316-18.925-160.912c-8.633-3.61-9.947,1.282-11.802,3.938
		c-13.78,19.724-25.862,40.46-34.055,63.153c-7.17,19.859-5.614,37.937,10.783,53.771c6.616,6.389,11.036,15.325,15.441,23.639
		c3.066,5.787,9.266,13.922-5.87,13.468c-7.283-0.218-2.531,5.828-1.462,8.523c4.98,12.556,6.864,25.386,5.782,40.359
		c-14.167-6.497-20.292-18.406-29.236-32.387c-0.251,28.665,0.935,54.648-12.603,81.258c-15.457-27.733-19.547-55.82-22.138-85.379
		c-23.157,54.652-23.157,54.652-40.619,66.057c0.109-30.497,0.578-59.481,18.977-88.217c-21.851,5.126-40.591,8.515-59.969,4.381
		c20.86-27.494,45.431-47.373,78.008-57.317c15.095-4.608,20.097-15.513,28.911-49.667c-17.044,13.793-35.077,24.301-57.635,23.934
		c-22.077-0.359-42.45-6.628-67.482-14.616c37.717-11.415,66.659-31.845,103.094-33.988c30.014-1.765,47.955-25.787,66.434-47.589
		c-24.791,5.896-47.319,21.842-74.571,15.336c-26.772-6.392-42.299-29.516-65.844-41.164c32.961-8.679,65.093-17.475,97.327-3.484
		c28.448,12.348,54.071,7.456,79.289-8.729c16.313-10.47,33.568-19.471,51.328-29.662c-9.343-6.159-19.711-4.538-29.19-5.547
		c-84.009-8.942-167.185-7.129-247.869,21.78c-12.051,4.318-23.726,9.727-35.432,14.952c-28.924,12.909-48.36,33.02-58.035,64.678
		c-20.911,68.427-67.678,113.942-133.311,140.817c-1.51,0.618-3.183,0.87-4.803,1.16c-0.416,0.074-0.923-0.356-3.396-1.413
		c14.12-39.073,16.725-81.142,28.742-120.991c9.296-30.824,30.616-53.517,61.656-60.965c41.513-9.961,77.542-30.388,115.639-51.583
		c-9.287-3.962-17.879-0.89-25.888-0.458c-37.794,2.037-75.946,1.085-112.816,12.028c-36.777,10.916-62.69,32.892-73.637,70.774
		c-6.349,21.973-17.872,40.767-36.115,55.066c-15.386,12.06-15.362,12.09-25.253-6.158c-7.594,7.408-14.046,16.025-23.842,20.036
		c-5.205,2.131-10.958,7.448-16.034-0.411c-1.935-2.995-3.94-2.75-6.9-1.229c-38.14,19.596-82.512,23.307-118.172,47.879
		c-5.269-5.016-2.53-9.548-1.681-13.453c14.502-66.784,48.282-120.61,107.131-157.079c14.945-9.262,31.902-12.87,49.373-14.316
		c38.834-3.213,77.626-6.824,119.26-14.906c-14.007-7.362-26.678-7.142-38.551-8.416c-51.344-5.509-102.422-5.609-152.35,10.686
		c-19.303,6.3-36.323,16.835-53.862,26.631c-20.895,11.671-41.658,20.865-67.932,17.15c-11.254-1.591-24.472-7.276-37.002-1.782
		c-1.71,0.75-6.002-0.025-6.088-0.572c-2.577-16.221-15.06-8.363-23.279-9.256c-28.478-3.091-55.099-12.212-86.139-23.509
		c34.224-11.704,61.612-27.313,88.936-43.057c6.298-3.629,15.995-3.678,14.247-15.181c-0.45-2.966,3.051-4.327,5.649-5.385
		c40.088-16.324,79.006-25.226,119.803,1.379c34.516,22.509,74.138,24.981,114.295,16.574c-13.484-2.832-27.404-2.091-40.892-5.561
		c-14.216-3.657-27.363-9.355-40.141-16.354c-13.827-7.574-26.538-16.748-37.156-28.248c-22.68-24.565-45.913-48.548-70.481-70.763
		c0.812-3.282,2.905-3.986,5.187-3.747c35.099,3.666,70.242,0.557,105.356,0.914c48.37,0.491,87.801,22.376,122.458,54.347
		c17.627,16.261,35.427,32.354,52.579,49.107c22.817,22.287,50.833,31.177,81.672,33.943c51.433,4.612,102.081-4.632,153.365-8.742
		c-24.774-9.446-49.747-17.781-75.974-21.177c-23.774-3.078-47.656-5.604-71.566-7.296c-28.214-1.997-53.516-11.023-75.187-29.084
		c-55.676-46.404-89.633-104.509-94.398-177.979c-0.198-3.049-1.776-6.547,2.413-10.011c30.584,24.831,66.951,40.798,99.854,62.433
		c6.742,4.433,12.808,7.908,21.191,1.961c7.932-5.627,14.979,0.088,20.718,5.508c4.766,4.5,8.645,9.941,13.121,15.205
		c10.062-19.31,13.985-19.95,30.877-5.642c9.077,7.689,15.896,17.069,20.916,27.839c1.645,3.53,4.334,6.645,5.573,10.281
		c29.988,88.031,102.76,108.841,183.534,116.288c52.142,4.807,104.872,0.067,156.606,9.976c2.14-6.41-2.899-7.32-5.621-9.164
		c-31.046-21.035-62.53-40.502-101.125-45.603c-39.813-5.262-66.525-29.713-84.09-64.49c-14.267-28.248-25.971-57.649-36.618-87.018
		c3.844-3.432,6.438-1.343,8.528-0.116c28.994,17.022,59.875,29.952,91.398,41.233c34.992,12.523,59.478,34.122,68.083,71.633
		c5.132,22.367,19.047,38.487,38.167,50.824c18.273,11.79,35.922,24.542,54.009,36.626c10.221,6.829,21.406,11.497,37.824,14.175
		c-15.394-22.386-24.711-45.188-42.405-61.811c-36.131-33.945-43.676-73.059-26.586-118.796
		C3458.22,201.547,3468.821,179.664,3468.912,154.105z M2974.759,262.238c42.948,38.327,86.363,75.734,145.664,86.004
		C3068.55,325.072,3021.271,294.225,2974.759,262.238z M2967.076,449.636c-47.847,12.454-84.522,43.414-121.157,74.433
		C2886.304,499.258,2926.69,474.447,2967.076,449.636z M2822.905,330.682c43.197,25.534,93.208,33.571,137.801,55.52
		C2919.414,355.78,2869.27,348.083,2822.905,330.682z M3019.76,560.332c16.828-21.998,36.379-41.31,58.055-58.527
		C3048.845,512.077,3031.203,529.963,3019.76,560.332z M3362.052,319.023c-7.853-13.428-36.542-32.731-54.82-37.511
		C3325.791,295.036,3338.458,312.403,3362.052,319.023z M2755.227,411.839c-21.863-2.809-43.13-2.024-63.834,5.29
		C2712.671,415.366,2733.949,413.602,2755.227,411.839z"/>
	<path d="M1433.891,2725.979c-52.606,15.046-87.957,3.896-119.391-39.552c-32.743-45.257-76.654-72.031-129.813-85.517
		c-3.725-0.945-7.436-2.648-13.292,0.437c7.392,5.135,13.445,11.062,20.707,14.102c46.141,19.323,65.96,55.801,69.129,103.597
		c1.362,20.542,2.787,41.079,4.449,65.518c-29.139-18.152-49.502-39.598-60.057-69.398c-5.39-15.217-9.874-30.847-13.446-46.591
		c-4.478-19.737-16.277-33.568-31.689-45.613c-40.781-31.871-89.508-41.274-138.568-49.871c-8.235-1.443-16.551-2.656-24.882-3.286
		c-29.436-2.228-59.415-1.233-80.022-29.44c-5.719-7.829-17.624-11.139-26.903-16.648c0.318-5.858,6.011-5.544,9.581-7.258
		c28.381-13.627,45.41-35.481,48.717-67.099c4.567-43.666,11.989-86.251,44.261-122.447c6.857,34.685,21.449,67.097,12.063,102.769
		c-9.302,35.349-39.928,54.872-63.316,82.259c18.878,0.998,34.351-3.225,48.678-10.493c37.054-18.798,62.647-79.193,50.156-118.617
		c-7.623-24.06-5.545-46.125,9.282-66.761c15.829-22.031,30.492-44.778,42.088-70c15.051,30.493,8.8,60.517,0.831,92.661
		c7.651-4.1,10.68-10.511,14.9-15.586c4.526-5.442,8.803-11.091,14.262-18.008c4.243,51.794-4.873,81.765-35.855,102.351
		c-10.107,6.715-16.609,16.233-21.66,27.061c-8.217,17.615-16.728,35.093-25.734,53.924c17.464,0.412,33.227-1.865,44.822-14.511
		c21.463-23.409,48.836-34.463,79.025-40.296c32.949-6.367,65.164-15.158,96.134-28.264c2.866-1.213,5.91-3.603,10.487-0.444
		c-21.756,28.709-36.59,62.367-63.382,87.305c-29.633,27.582-64.722,38.768-103.293,24.118c-42-15.953-79.524-2.896-117.882,11.879
		c63.696,10.882,125.918,31.043,191.011,30.258c36.388-0.439,70.818-8.639,91.25-45.063c8.193-14.605,22.045-25.267,37.596-32.359
		c28.816-13.142,58.911-24.042,81.021-49.797c0.466,18.696-5.273,35.126-12.236,50.989c-11.233,25.59-29.564,45.808-51.326,62.872
		c-12.663,9.929-27.608,14.898-43.67,14.605c-23.677-0.432-45.548,8.352-68.419,12.834c47.844,11.964,95.773,26.406,142.185-4.753
		c15.629-10.493,32.42-17.066,51.125-19.216c21.951-2.522,43.562-7.057,66.008-14.052c-21.274,50.923-65.921,77.262-116.338,69.613
		c-9.399-1.426-17.517,2.086-29.932,3.283c19.397,9.588,36.869,14.413,54.43,17.723c24.626,4.642,49.581,7.717,74.496,10.575
		c16.235,1.862,32.34-0.315,47.704-6.304c22.954-8.949,31.373-22.112,28.661-46.65c-2.326-21.047-6.167-41.926-8.458-62.975
		c-2.272-20.879,1.302-41.132,9.259-60.597c10.889-26.639,29.499-49.513,36.654-82.451c23.226,47.254,47.075,88.827,48.474,138.506
		c0.789,28.003-8.75,51.39-29.702,69.888c-18.641,16.458-34.781,35.687-59.247,51.137c30.801,3.325,56.959,1.324,79.292-15.704
		c19.959-15.218,38.141-32.756,53.241-52.972c13.399-17.939,13.433-24.122-1.213-41.039c-21.654-25.011-29.274-54.042-28.934-86.391
		c8.553-1.226,10.864,6.467,17.784,8.922c-1.727-16.947-1.117-33.306,1.501-54.361c15.503,24.034,20.512,47.364,29.938,69.791
		c-3.725-34.78,0.563-67.966,16.922-100.215c13.978,18.723,9.535,41.35,14.521,65.275c12.15-28.858,26.367-51.724,50.174-71.703
		c1.641,38.584-1.784,73.369-21.616,105.387c18.558-13.775,34.804-30.186,57.235-43.278c-7.703,32.336-23.83,55.643-45.054,76.51
		c16.255-7.381,32.334-14.659,53.885-19.187c-13.136,16.583-22.953,30.585-34.422,43.069c-16.147,17.576-36.466,27.17-60.909,26.703
		c-8.324-0.159-16.868-1.046-21.61,8.629c-11.972,24.426-30.008,44.157-49.346,62.852c-1.852,1.79-3.014,4.293-4.668,6.718
		c6.553,3.012,11.712,0.898,16.984-0.753c35.146-11,70.561-21.181,106.825-27.619c23.101-4.101,38.182-16.415,47.48-37.479
		c30.899-69.994,89.857-98.58,161.251-108.513c2.123-0.295,4.357,0.202,10.341,0.552c-27.169,28.695-45.733,60.768-71.287,87.574
		c-26.528,27.828-65.742,33.396-95.848,55.128c22.24-0.303,43.115-5.403,63.417-12.705c79.164-28.473,153.748-12.603,226.359,22.959
		c0.855,0.419,1.296,1.686,2.696,3.609c-7.927,4.523-16.776,4.28-25.008,6.137c-26.234,5.917-51.157,15.661-75.817,26.132
		c-45.375,19.267-90.125,19.345-133.624-5.18c-34.099-19.227-70.625-18.813-107.519-13.98c-23.683,3.103-47.095,8.264-70.615,13.763
		c29.533,1.442,58.995,2.636,88.427,4.304c57.635,3.269,102.583,26.928,133.158,76.843c10.06,16.423,22.124,31.594,35.223,47.676
		c-51.147-14.577-102.783-1.838-153.43-8.459c-33.707-4.406-62.123-19.784-79.885-49.354
		c-20.321-33.829-49.894-47.212-87.948-47.325c-19.85-0.059-39.65-1.121-59.978,4.292c21.583,6.742,43.293,13.103,64.718,20.314
		c33.411,11.245,47.548,31.344,47.335,66.482c-26.647-13.528-53.52-25.548-77.248-44.398
		c-33.132-26.322-73.307-33.394-115.816-32.338c7.677,3.467,15.387,6.864,23.025,10.415c28.398,13.201,56.354,26.907,77.432,51.351
		c23.847,27.654,34.604,59.419,31.829,95.741c-0.932,12.19-2.416,24.339-3.641,36.448c-1.632,0.098-3.233,0.595-3.555,0.156
		c-24.786-33.848-52.555-64.873-84.756-91.941c-11.7-9.835-20.595-22.823-24.893-37.201c-10.822-36.207-37.741-53.965-70.821-64.899
		c-40.176-13.279-81.326-22.945-123.405-29.723c21.723,15.087,49.81,15.323,71.732,30.041
		C1396.547,2688.059,1410.015,2711.436,1433.891,2725.979z M1831.95,2715.301c-38.202-25.827-79.924-42.818-125.321-50.587
		C1748.911,2680.3,1790.909,2696.6,1831.95,2715.301z M1958.106,2608.199c-28.277-5.189-56.289-5.594-84.263-0.201
		C1902.007,2609.369,1930.156,2611.666,1958.106,2608.199z M1574.266,2509.029c-5.78,18.245-11.56,36.49-17.34,54.735
		C1569.635,2547.492,1574.456,2528.914,1574.266,2509.029z M1149.744,2470.617c-15.951,3.527-33.062,2.595-49.931,15.241
		C1120.233,2484.414,1135.672,2479.44,1149.744,2470.617z M1525.392,2717.807c8.27,7.735,19.229,17.986,30.188,28.236
		C1543.8,2736.526,1536.115,2722.895,1525.392,2717.807z"/>
	<path d="M809.687,595.816c-3.462-7.482-15.314-3.574-18.206-14.779c41.311,4.778,81.604,1.823,122.007-2.666
		c-4.819-5.779-10.873-4.355-16.448-4.369c-28.438-0.07-56.878-0.008-85.315,0.159c-9.051,0.053-17.529-1.146-25.026-8.533
		c14.966-15.607,35.438-23.489,50.636-38.209c6.801-6.587,14.124-12.634,21.201-18.937c2.784-2.479,7.827-4.959,4.41-9.127
		c-3.83-4.671-6.656,0.829-9.2,3.042c-18.951,16.486-38.779,31.816-59.691,45.725c-3.087,2.053-6.538,3.557-13.772,7.432
		c7.541-15.887,17.394-24.537,26.044-34.045c9.743-10.709,19.899-21.071,29.148-32.189c3.333-4.007,12.503-8.976,5.52-14.501
		c-5.694-4.505-8.165,4.955-11.604,8.673c-14.257,15.414-28.361,30.968-44.471,45.166c12.704-22.25,22.904-45.394,34.014-68.09
		c17.889-36.544,35.6-73.19,54.322-109.307c10.87-20.968,24.896-39.766,46.94-50.736c19.395-9.651,38.946-11.268,56.771,2.574
		c16.796,13.044,20.118,31.853,15.699,51.426c-2.826,12.514-1.547,15.051,12.029,12.513c24.101-4.506,41.156,9.403,44.336,34.021
		c3.175,24.583-5.546,45.417-23.667,61.432c-36.79,32.514-80.292,53.951-125.413,72.06c-20.011,8.031-40.869,13.953-61.127,21.811
		c36.402-4.868,72.108-13.761,108.668-17.261c36.743-3.517,73.481-5.055,110.03,1.444c21.941,3.902,41.908,12.107,55.132,31.42
		c19.25,28.113,8.824,57.321-23.99,65.849c-8.956,2.327-9.011,4.894-5.337,12.297c22.358,45.049-2.02,82.575-52.819,81.559
		c-24.811-0.496-47.561-8.598-66.589-23.942c-46.096-37.174-94.145-71.369-145.304-101.207c-4.194-2.446-8.91-5.085-8.938-11.151
		c32.88,9.411,66.669,11.034,100.491,12.322C877.158,599.5,843.965,592.854,809.687,595.816z"/>
	<path d="M638.039,2515.778c23.701,16.697,44.714,31.501,67.084,47.261c0.608-9.997-5.983-11.087-10.047-14.03
		c-15.788-11.433-31.772-22.595-47.692-33.844c-0.907-0.641-2.041-1.016-2.82-1.772c-3.9-3.786-6.644-11.813-3.6-13.078
		c16.77-6.971-7.144-33.493,19.235-36.29c23.818-2.525,47.725-7.432,73.317-19.464c-13.993-3.997-22.643,2.136-31.776,3.927
		c-15.859,3.11-31.524,7.204-47.336,10.575c-3.473,0.74-8.526,2.719-10.058-2.318c-1.515-4.981,3.673-6.208,7.013-7.722
		c17.265-7.827,34.671-15.346,51.903-23.245c4.01-1.837,7.593-4.65,11.262-7.174c2.725-1.875,6.705-4.299,4.667-7.735
		c-2.742-4.622-6.876-1.503-10.074,0.517c-21.326,13.463-44.822,22.479-67.56,33.044c-1.809,0.84-4.007,0.843-8.214-1.53
		c10.971-11.365,21.222-23.549,33.048-33.94c36.021-31.654,72.454-62.849,109.128-93.746c17.307-14.58,36.86-24.819,60.022-27.312
		c28.014-3.015,48.854,8.292,64.102,30.939c13.885,20.624,17.676,42.166,2.564,63.921c-4.315,6.211-1.161,8.139,3.312,11.62
		c27.687,21.547,27.786,50.796,0.085,72.51c-25.225,19.773-55.985,24.229-86.251,28.911c-46.819,7.244-93.446,2.86-139.867-4.77
		c-3.777-0.621-7.569-1.152-11.94,0.815c11.159,2.687,22.265,5.63,33.493,7.99c11.455,2.407,23.015,4.333,34.556,6.311
		c41.756,7.156,83.998,11.851,124.816,23.79c24.226,7.086,47.683,15.705,64.8,35.995c12.989,15.397,17.56,32.505,10.18,51.293
		c-7.641,19.452-22.417,30.506-43.903,29.835c-11.595-0.362-14.126,4.156-12.69,14.927c2.571,19.292,2.914,39.271-16.445,50.752
		c-20.319,12.05-38.681,2.072-55.958-9.232c-14.211-9.297-25.307-21.965-35.447-35.262
		c-35.946-47.137-77.428-89.268-118.335-131.926C647.575,2531.068,642.761,2525.797,638.039,2515.778z M667.434,2514.193
		c-0.305,0.623-0.609,1.247-0.914,1.87c17.787,10.736,35.616,21.404,53.321,32.275c3.134,1.925,6.354,3.498,8.534-0.053
		c2.69-4.383-0.423-7.103-4.339-8.851C705.172,2531.012,686.302,2522.605,667.434,2514.193z"/>
	<path d="M545.81,2394.777c-21.777-39.831-51.31-74.261-77.361-111.116c-19.596-27.724-34.353-57.423-37.221-91.919
		c-1.536-18.48-0.784-36.903,17.5-47.186c17.673-9.938,34.533-3.653,50.045,7.119c1.809,1.257,3.661,2.454,5.324,3.565
		c5.475-1.857,3.849-6.499,4.591-9.979c4.149-19.438,13.949-34.438,34.153-39.282c19.921-4.776,36.256,3.252,49.126,18.156
		c18.563,21.496,23.479,47.823,23.702,75.027c0.464,56.439-5.738,112.486-11.466,168.536c-1.403,13.733-2.505,27.426,0.117,41.202
		c6.895-58.619,19.161-116.486,21.275-175.717c1.247-34.96,8.493-68.817,31.247-97.131c18.847-23.454,49.387-24.675,70.235-3.143
		c7.661,7.912,11.701,17.766,12.913,28.456c0.958,8.451,3.96,10.362,11.843,7.1c46.839-19.385,73.265,22.931,61.535,62.583
		c-4.161,14.064-10.486,26.939-19.186,38.772c-14.941,20.322-32.433,38.358-50.383,55.897
		c-33.443,32.677-72.164,59.706-102.963,95.79c4.26-20.419,14.613-38.133,22.557-56.807c1.681-3.953,8.053-9.617,1.605-12.461
		c-6.579-2.902-6.771,5.711-8.435,9.695c-8.38,20.057-16.031,40.417-24.39,60.483c-2.143,5.144-2.774,15.104-10.172,12.613
		c-8.23-2.771-3.185-11.555-1.392-17.378c6.727-21.84,12.865-43.895,22.309-64.824c2.144-4.751,5.72-9.838,1.271-15.517
		c-7.999,1.503-7.918,8.768-9.865,14.102c-7.835,21.469-15.143,43.129-22.899,64.627c-1.582,4.385-2.084,11.317-8.886,10.079
		c-5.636-1.025-6.468-7.066-6.942-12.077c-2.944-31.137-8.034-61.912-15.592-92.256c-0.946-3.799,0.98-9.557-8.175-10.997
		c3.916,37.747,17.997,73.358,16.29,111.215c-10.774-33.72-19.806-68-35.545-101.426c-6.912,7.683-2.933,12.835-1.434,17.704
		c7.873,25.586,16.33,50.997,23.835,76.688c1.105,3.784,7.218,16.045-7.365,9.46C556.797,2417.205,550.601,2406.508,545.81,2394.777
		z"/>
	<path d="M781.22,2076.271c37.168-6.44,70.735,0.669,101.837,19.982c8.582,5.329,12.484,2.548,15.96-6.086
		c13.795-34.266,40.389-52.094,76.087-57.653c16.462-2.563,32.943-5.003,52.21-7.922c-3.984,25.138-21.802,37.335-42.198,52.466
		c37.327-7.649,69.421-1.718,104.207,7.885c-30.201,22.196-62.715,27.733-96.555,32.292c35.053,7.657,67.007,21.168,98.677,44.581
		c-38.647,12.926-72.875,10.59-107.318-3.05c22.185,18.306,45.399,35.117,59.196,65.473c-28.769-7.22-54.425-13.494-78.395-34.503
		c4.1,15.398,7.117,25.978,9.693,36.664c1.847,7.66,0.356,12.971-9.031,8.379c-40.49-19.809-72.528-46.743-75.976-95.66
		c-0.779-11.055-5.825-16.015-14.623-21.553c-32.656-20.559-66.442-28.013-103.439-13.548c-8.375,3.274-16.146,7.502-23.289,12.977
		c-4.942,3.788-8.872,10.347-16.748,3.132c-6.385-5.85-12.677-9.795-7.565-20.302c5.135-10.555,6.548-22.438,6.779-34.247
		c0.693-35.35-5.256-43.044-32.003-52.285c-27.272-9.422-43.524-30.794-55.484-57.472c15.967-1.424,28.04,6.105,41.225,10.218
		c-20.441-17.031-35.47-37.463-49.143-63.961c18.999,7.247,34.376,12.844,49.413,27.462c-9.288-27.243-12.337-51.817-12.576-79.97
		c21.446,16.057,31.857,36.194,40.72,61.704c6.976-19.817,11.641-36.805,25.408-52.771c1.071,28.592,8.188,53.761,2.62,80.09
		c9.438-11.756,10.361-29.031,28.25-36.01c-2.234,13.351-4.274,25.545-6.357,37.994c7.464,0.736,6.329-7.622,11.875-8.717
		c0.655,0.913,2.302,2.141,2.269,3.323c-0.728,26.599-4.113,52.469-23.403,73.049c-5.775,6.161-8.102,12.831-7.258,21.222
		c1.335,13.264,2.039,26.592,3.006,39.83c1.237,0.382,2.732,1.252,3.112,0.904c28.451-26.114,54.247-54.42,73.438-88.284
		c4.295-7.579,5.338-14.603-0.126-21.7c-24.792-32.202-23.339-67.103-9.367-106.118c17.449,27.437,21.995,56.585,26.112,86.146
		c3.828-41.765-17.625-84.096,3.454-127.032c13.223,22.731,19.906,46.403,22.975,71.675c4.301-30.634,17.206-58.28,26.711-87.958
		c11.277,15.315,14.125,37.269,8.974,72.04c20.254-26.018,42.656-44.584,70.955-61.707c-6.617,33.104-18.329,60.279-36.799,88.108
		c20.264-3.043,37.063-5.565,55.658-8.358c-16.058,25.934-41.893,35.034-68.815,47.257c15.473,5.352,30.888,5.353,42.631,15.489
		c-31.311,22.559-63.073,39.867-102.241,35.978c-7.003-0.695-13.471,0.645-17.995,6.586
		C826.457,2020.568,805.139,2048.982,781.22,2076.271z M953.037,2073.284c-16.17,4.359-24.733,11.511-31.66,20.92
		c-1.416,1.923-4.371,4.289-1.364,6.996c2.439,2.196,5.525,1.303,7.481-0.702C935.078,2092.723,942.391,2084.686,953.037,2073.284z
		 M939.799,2168.806c-6.636-12.753-8.89-28.132-24.401-39.408C916.255,2149.453,925.751,2160.493,939.799,2168.806z"/>
	<path d="M335.919,2572.86c-14.093,5.425-17.764,15.292-21.634,23.795c-8.069,17.729-15.501,35.861-21.59,54.356
		c-13.355,40.56-41.734,66.389-79.385,83.379c-28.038,12.652-58.372,17.671-88.678,25.305
		c25.548-28.527,37.087-65.678,62.357-93.869c17.539-19.566,40.837-30.713,62.781-43.87c3.683-2.209,7.571-4.075,11.509-7.876
		c-51.178,10.84-91.646-3.629-122.537-51.184c28.947,2.26,55.692,0.662,81.673,8.929c8.997,2.863,18.165,6.022,26.254,10.755
		c25.892,15.15,47.727,6.18,70.794-10.313c-5.49-2.256-9.355-3.778-13.168-5.423c-38.108-16.437-45.479-57.62-15.904-87.226
		c16.161-16.178,36.192-24.558,58.07-27.143c62.369-7.368,124.616-6.546,186.294,6.862c4.884,1.062,9.663,2.722,14.376,4.423
		c3.092,1.116,6.949,2.443,6.772,6.401c-0.229,5.131-4.886,5.157-8.655,5.809c-20.319,3.511-40.683,6.785-60.926,10.691
		c-4.385,0.846-12.233,1.293-10.845,7.586c1.572,7.13,8.526,2.933,12.714,1.686c19.32-5.752,38.91-9.846,59.024-11.254
		c3.648-0.256,7.724-2.072,11.81,3.168c-25.94,9.502-54.606,12.573-78.563,36.495c17.286-2.178,26.626-10.717,37.688-14.916
		c8.849-3.359,17.416-7.468,26.307-10.7c4.503-1.637,10.815-4.51,13.667,0.686c2.772,5.051-3.128,9.176-6.571,12.166
		c-12.618,10.958-25.329,21.915-38.847,31.711c-29.418,21.318-57.376,44.222-83.199,69.841
		c-12.624,12.524-25.853,24.748-43.386,30.587c-18.839,6.276-37.657,8.572-53.199-6.723c-12.503-12.304-11.711-33.023,0.074-54.557
		C332.04,2580.526,332.991,2578.565,335.919,2572.86z M245.986,2665.921c10.68-11.923,23.459-22.484,30.32-37.681
		C261.87,2637.127,251.495,2649.375,245.986,2665.921z"/>
	<path d="M753.314,266.809c3.84-6.118,6.016-9.956,8.544-13.548c12.116-17.215,27.903-27.909,49.705-23.493
		c21.497,4.354,32.69,19.786,37.923,40.164c7.524,29.298,1.438,57.831-6.625,85.684c-17.224,59.496-38.656,117.485-67.521,172.465
		c-4.241,8.077-8.313,21.963-17.495,19.337c-8.671-2.479-5.463-16.607-5.087-25.847c0.862-21.15,2.342-42.275,3.38-63.419
		c0.257-5.228,2.103-10.767-3.48-15.886c-9.938,28.198-4.738,58.232-8.923,87.259c-11.358-24.97-6.966-54.509-26.207-76.894
		c1.248,26.984,13.135,52.174,15.107,79.383c-1.998-0.51-3.649-0.449-3.993-1.089c-33.893-63.133-80.926-119.076-102.948-188.73
		c-7.283-23.035-12.866-46.191-10.848-70.54c2.978-35.927,21.405-58.364,51.478-63.045c33.992-5.292,69.478,14.018,81.935,44.623
		C749.689,256.747,750.914,260.343,753.314,266.809z"/>
	<path d="M703.699,604.235c-18.185,32.362-43.03,59.101-69.976,83.921c-23.805,21.927-49.872,41.124-76.358,59.661
		c-11.432,8.001-24.083,13.988-37.71,17.6c-23.993,6.36-45.998,2.743-62.643-16.391c-15.971-18.359-14.963-40.209-6.39-61.461
		c3.546-8.789,4.859-13.215-5.921-17.229c-55.72-20.744-54.882-91.596-10.254-122.682c23.23-16.181,49.32-19.649,76.562-18.218
		c51.379,2.698,101.728,12.264,151.821,23.382c14.974,3.323,30.291,5.617,45.305,13.32c-7.401,7.433-15.904,7.125-23.974,7.962
		c-18.842,1.956-37.742,3.464-56.507,5.978c-4.951,0.663-15.045-2.682-13.571,6.663c1.244,7.887,9.214,2.248,14.143,1.744
		c21.622-2.208,43.194-4.93,64.839-6.854c4.211-0.374,11.168-3.647,12.603,3.447c1.155,5.713-4.719,7.987-9.217,10.406
		c-19.612,10.549-39.267,21.034-58.603,32.073c-4.267,2.435-13.432,4.976-9.567,10.933c4.469,6.888,10.802-0.629,15.69-3.414
		C663.254,624.091,681.527,611.251,703.699,604.235z"/>
	<path d="M3778.525,2025.878c7.74-14.309,20.455-19.202,32.185-24.855c11.887-5.729,24.415-10.127,36.882-16.423
		c-39.417,2.923-74.033-7.602-106.591-34.889c36.35-8.159,69.671-11.354,103.958-8.125c-31.466-13.43-61.973-27.801-82.315-60.365
		c35.169,3.681,68.367,4.619,99.353,21.225c-18.527-19.805-32.578-41.401-40.772-70.28c22.324,10.38,41.655,20.313,60.014,32.655
		c5.244-4.791-0.175-12.515,6.86-17.536c31.342,25.026,57.883,52.798,57.055,97.258c-0.142,7.602-1.51,15.101,8.026,19.747
		c42.688,20.8,69.859,54.334,80.057,104.932c7.003-13.656,7.153-25.027,9.178-35.891c12.784-68.598-5.481-129.111-47.701-183.4
		c-7.68-9.876-16.354-18.203-29.334-20.721c-44.262-8.588-70.831-37.389-87.608-77.195c-12.368-29.346-20.31-59.613-19.968-97.332
		c29.234,37.675,70.659,50.46,102.942,76.341c20.194,16.189,34.98,36.14,39.269,62.234c3.531,21.485,12.894,40.175,24.979,57.828
		c52.148,76.172,57.268,158.492,32.243,244.871c-3.351,11.567-10.199,23.142-21.221,22.253
		c-10.613-0.856-17.968-12.987-20.158-24.433c-2.836-14.831-5.835-29.495-11.53-43.536c-10.197-25.139-26.478-44.574-50.348-58.27
		c-13.017-7.469-20.263-6.651-26.336,7.932c-16.011,38.45-50.191,50.413-89.277,59.793c7.004-19.311,18.889-32.017,30.685-46.02
		C3840.486,2026.085,3811.154,2030.031,3778.525,2025.878z M3902.945,1907.591c2.583,18.358,11.829,28.554,22.285,38.028
		C3924.711,1930.211,3916.818,1919.206,3902.945,1907.591z M3918.857,1977.535c-16.292,7.676-23.743,16.475-25.104,33.179
		C3906.055,2002.438,3913.745,1993.965,3918.857,1977.535z"/>
	<path d="M4053.617,2463.02c33.839-23.781,65.559-43.884,92.337-70.569c-19.31,5.806-34.438,18.862-50.118,30.679
		c-16.446,12.393-33.296,23.756-54.149,29.152c25.032-32.441,60.709-54.148,86.509-85.938
		c-33.936,21.472-63.708,48.242-95.104,73.421c10.405-28.39,23.602-55.091,40.136-79.824
		c34.009-50.873,64.444-104.556,109.559-147.092c30.527-28.783,70.604-26.814,97.346,3.927c2.539,2.919,6.303,6.2,6.491,9.486
		c0.771,13.461,8.075,18.863,20.214,23.439c9.898,3.73,9.873,15.2,7.078,24.981c-1.744,6.099-2.944,10.621,3.641,15.823
		c27.444,21.68,28.891,57.312,4.109,82.406c-11.165,11.306-24.586,19.733-39.32,24.795c-64.76,22.248-128.832,46.725-195.59,62.74
		C4077.347,2462.704,4067.825,2465.102,4053.617,2463.02z"/>
	<path d="M716.582,536.138c-27.167-27.828-54.464-51.863-84.094-73.598c16.126,29.528,45.492,46.833,67.181,71.517
		c-31.533-11.319-58.384-31.387-88.685-45.203c26.864,28.73,65.914,39.746,97.951,66.105c-10.325,2.981-17.015-0.151-23.309-2.094
		c-68.412-21.123-137.507-37.773-209.709-39.383c-24.647-0.55-48.484-7.64-68.799-23.094c-20.49-15.589-29.697-38.648-23.258-60.095
		c7.03-23.414,24.182-33.752,47.713-34.609c8.175-0.298,10.68-1.564,6.463-10.566c-19.077-40.72,1.061-74.606,46.092-79.184
		c26.738-2.719,49.315,7.168,69.836,22.742c45.757,34.726,82.906,77.724,116.408,123.932c14.702,20.278,29.888,40.381,41.016,63.032
		C714.021,521.007,717.804,526.096,716.582,536.138z"/>
	<path d="M745.78,626.068c4.735,48.354,21.138,94.551,26.145,142.905c3.053,29.481,5.508,58.839,1.067,88.318
		c-7.62,50.585-44.329,77.566-89.124,65.746c-10.553-2.785-20.23-7.373-25.975-16.88c-4.534-7.503-7.663-8.431-15.219-2.897
		c-27.527,20.162-58.139,12.578-73.87-17.76c-11.684-22.533-12.035-45.991-4.142-69.772c5.831-17.566,13.621-34.268,25.023-48.891
		c40.085-51.41,80.451-102.6,120.7-153.882c1.405-1.79,2.926-3.2,7.001-2.23c-7.339,25.12-18.752,49.259-19.187,76.266
		c14.538-22.335,17.11-49.278,28.625-77.97c3.641,17.158-0.587,29.182-1.411,41.217c-0.799,11.654-2.55,23.24-3.825,34.863
		c-0.353,3.213-1.466,7.692,2.719,8.36c5.88,0.939,4.987-4.495,5.316-8.049c2.194-23.729,4.271-47.469,6.389-71.245
		c10.083,0.391,5.766,9.436,10.148,12.421L745.78,626.068z"/>
	<path d="M1161.216,2728.695c-32.444,25.477-56.626,55.795-103.534,49.53c12.662,12.677,24.849,14.395,36.233,14.544
		c50.796,0.665,94.002,20.556,134.413,49.417c16.544,11.816,34.692,21.387,55.882,34.273
		c-43.908,6.767-82.332,20.911-123.573,17.237c-40.502-3.607-73.327-21.137-93.277-56.792
		c-20.438-36.525-54.541-53.761-91.349-72.299c7.261,36.749,30.005,67,30.268,103.599c0.263,36.507-16.219,69.194-23.94,104.349
		c-23.338-52.655-51.907-104.49-30.007-164.734c12.526-34.455-1.894-60.074-23.822-84.865c1.526,8.801,3.295,17.566,4.534,26.407
		c4.741,33.808-5.21,55.208-33.698,71.817c-9.622,5.61-19.935,10.032-29.583,15.6c-9.501,5.482-18.56,11.729-31.025,19.692
		c7.09-37.341,14.538-72.017,41.221-95.566c27.501-24.27,30.463-47.691,11.842-77.436c-5.288-8.447-14.038-20.615-9.123-28.134
		c4.119-6.3,17.094,2.61,26.086,4.586c25.514,5.608,49.859,3.76,73.492-7.356c15.304-7.198,31.444-11.376,48.213-13.156
		c15.013-1.594,28.919-7.024,44.198-11.326c-13.069,29.792-32.453,54.153-61.608,69.449c-33.627,17.642-59.795-9.177-89.69-16.935
		c26.03,24.235,49.909,50.035,80.613,67.601c14.188,8.117,28.127,5.565,41.085-2.982
		C1079.735,2722.348,1117.979,2726.371,1161.216,2728.695z M1151.116,2845.768c-17.134-10.655-33.51-22.864-53.974-26.691
		C1113.665,2830.984,1130.629,2841.988,1151.116,2845.768z"/>
	<path d="M3963.26,2423.915c-21.723-11.636-40.302-28.606-63.904-36.375c-0.979,1.506-1.958,3.013-2.937,4.52
		c24.927,16.013,49.854,32.027,74.782,48.041c-69.005-14.831-137.674-29.366-199.974-63.822
		c-22.382-12.378-42.358-26.707-54.543-50.068c-15.603-29.913-10.469-73.285,34.005-77.434c4.089-0.382,8.267-1.022,7.453-6.581
		c-2.061-14.09-0.039-27.551,11.277-36.685c15.725-12.696,33.482-22.365,54.071-24.773c37.432-4.381,64.901,11.652,84.229,42.796
		c10.926,17.605,19.058,36.72,25.209,56.419c15.642,50.09,33.496,99.318,54.528,147.395c1.036,2.37,1.63,4.933,0.875,8.482
		c-27.804-24.043-51.311-52.333-82.55-71.935C3922.67,2386.025,3946.411,2401.425,3963.26,2423.915z"/>
	<path d="M746.16,626.589c0.209-1.091,0.391-2.188,0.632-3.271c1.671-7.489-5.858-19.307,4.422-21.761
		c8.404-2.007,9.447,10.624,12.886,17.003c12.967,24.055,25.425,48.373,41.664,70.477c2.259,3.075,5.155,8.1,8.918,5.78
		c5.599-3.451,0.438-7.739-1.696-11.129c-15.731-24.999-31.697-49.851-47.373-74.884c-2.473-3.95-7.546-9.264-1.959-13.139
		c5.722-3.968,8.561,3.059,11.47,6.556c17.819,21.421,35.272,43.146,53.165,64.504c2.816,3.362,6.449,10.672,11.501,5.865
		c5.306-5.048-2.522-8.31-5.331-11.741c-19.283-23.557-38.772-46.946-58.444-70.691c8.214-4.08,13.501,1.469,18.198,5.342
		c49.898,41.147,104.695,76.008,152.896,119.324c12.109,10.882,22.671,23.107,31.92,36.385
		c13.433,19.284,20.664,40.605,19.242,64.464c-1.876,31.473-22.437,48.208-52.986,41.159c-10.361-2.391-11.753,0.174-12.989,9.341
		c-5.181,38.431-36.723,54.085-70.937,35.466c-16.689-9.082-27.961-23.644-37.284-39.777
		c-15.765-27.283-24.865-57.211-33.595-87.177c-11.689-40.123-22.459-80.512-34.023-120.673
		c-2.742-9.522-4.664-19.518-10.659-27.909C745.78,626.068,746.16,626.589,746.16,626.589z"/>
	<path d="M4018.644,2435.927c6.691-38.473,13.383-76.946,20.074-115.42c-17.968,37.431-19.125,78.826-30.914,117.871
		c2.868-39.509,5.736-79.018,8.749-120.526c-9.368,8.763-11.06,17.565-11.641,55.884c-0.291,19.204-0.051,38.415-2.147,57.969
		c-14.183-21.869-23.016-45.716-30.254-69.731c-16.058-53.281-32.988-106.449-40.201-161.98
		c-1.949-15.005-2.383-30.035-1.108-45.044c2.259-26.585,17.714-46.262,40.095-51.939c20.976-5.321,36.953,2.67,52.628,28.699
		c5.516,9.16,7.516,11.63,17.299,3.65c35.408-28.879,79.85-13.382,90.609,30.84c6.418,26.378,2.313,52.118-7.029,77.083
		c-9.792,26.168-22.295,51.087-37.686,74.417c-21.529,32.635-40.783,66.455-55.91,102.566c-2.446,5.84-5.532,11.411-8.322,17.107
		C4021.473,2436.89,4020.059,2436.408,4018.644,2435.927z"/>
	<path d="M4045.047,2496.639c45.191,14.835,89.74,25.993,135.792,30.462c-43.088-17.063-89.857-21.022-132.657-39.918
		c47.465,2.273,94.297,13.163,142.123,7.344c-43.457-6.949-87.608-8.199-130.976-17.016c51.486-14.915,103.31-27.456,156.205-35.122
		c17.642-2.557,35.39-4.772,53.167-5.909c24.439-1.563,47.965,2.473,68.471,16.968c34.496,24.383,35.918,71.625,2.403,96.078
		c-7.615,5.556-6.564,9-3.188,16.029c10.891,22.675,1.959,44.87-21.578,54.58c-22.827,9.417-46.091,6.542-68.983,0.485
		c-30.473-8.062-57.882-23.26-84.75-39.171c-37.393-22.143-74.973-44.115-108.092-72.637
		C4049.817,2506.083,4045.116,2504.213,4045.047,2496.639z"/>
	<path d="M555.859,2522.152c-2.556,14.966-14.194,22.009-23.106,35.913c18.478-10.304,26.736-28.879,48.404-34.399
		c-13.933,22.828-29.069,41.957-39.426,67.499c16.755-4.403,16.124-19.357,23.123-27.693c7.422-8.841,10.079-21.07,20.467-30.489
		c-3.369,26.061-19.022,47.373-17.42,72.815c10.751-21.827,14.583-46.362,28.93-67.415c0,14.039-0.201,28.081,0.037,42.115
		c0.739,43.521,1.983,87.062-4.138,130.349c-3.815,26.978-13.065,51.909-29.87,73.598c-18.326,23.652-43.263,31.046-71.484,21.693
		c-25.709-8.521-39.008-27.156-39.128-57.499c-0.043-10.693-2.558-11.33-12.186-8.835c-25.393,6.58-39.655-3.519-43.012-29.815
		c-3.444-26.972,5.355-50.954,21.788-71.715c15.943-20.143,34.509-37.946,54.995-53.621c20.817-15.928,41.542-31.977,62.354-47.913
		C542.667,2531.776,549.297,2527.009,555.859,2522.152z"/>
	<path d="M4026.66,2537.347c-4.11-5.578-5.93-11.656-3.921-20.674c24.552,23.173,36.182,55.45,65.646,78.879
		c-8.056-19.532-22.138-30.391-27.142-49.815c17.623,14.134,26.539,33.319,45.103,42.161
		c-14.215-20.612-33.385-37.334-44.302-60.785c13.435,9.487,27.201,18.541,40.24,28.542c35.994,27.604,75,50.212,115.266,70.82
		c14.902,7.627,29.605,15.625,42.91,25.886c12.717,9.808,21.928,21.908,25.591,38.017c6.571,28.897-5.877,45.769-35.556,45.75
		c-8.293-0.005-10.836,2.403-11.32,9.886c-1.815,28.048-14.022,49.57-41.498,58.947c-28.776,9.822-53.756,0.238-75.49-19.164
		c-23.277-20.779-35.978-47.627-44.08-77.304c-12.911-47.29-23.157-95.344-40.114-141.49c-3.067-8.347-5.056-17.142-10.479-24.475
		C4027.229,2540.802,4026.945,2539.074,4026.66,2537.347z"/>
	<path d="M3891.322,2471.16c23.103,3.616,45.37-3.152,70.315,2.334c-26.039,9.237-51.529,10.059-73.734,22.268
		c25.366-1.879,49.543-11.08,76.063-8.965c-8.664,3.552-17.173,7.557-26.018,10.578c-41.465,14.162-79.322,35.232-115.592,59.473
		c-15.765,10.537-31.941,20.461-49.608,27.55c-40.005,16.053-94.21-7.755-100.495-50.057c-3.426-23.061-3.237-42.712-22.169-59.919
		c-9.148-8.315-3.694-23.409,3.864-34.072c16.995-23.978,41.759-34.292,69.707-38.173c23.08-3.206,45.626,1.236,67.752,7.179
		c46.878,12.591,94.441,21.802,142.193,30.233c10.946,1.933,21.978,4.131,31.614,10.235c3.119,1.976,7.998,3.477,6.4,8.419
		c-1.47,4.549-6.068,4.094-10.007,3.916c-19.512-0.884-39.007-1.06-58.418,1.61
		C3899.021,2464.338,3894.043,2463.309,3891.322,2471.16z"/>
	<path d="M3925.984,2568.816c18.527-17.71,31.474-40.578,54.414-54.089c-18.129,26.974-32.043,55.85-44.501,85.579
		c-12.774,30.481-21.756,62.029-29.264,94.093c-3.83,16.356-9.311,32.114-17.278,46.959c-14.712,27.415-35.695,37.99-66.453,32.337
		c-10.897-2.003-21.483-5.847-32.097-9.213c-14.838-4.705-23.961-14.154-23.034-30.626c0.393-6.981-1.409-9.309-9.059-9.841
		c-31.848-2.213-46.435-24.949-36.702-55.891c9.333-29.669,29.326-51.576,54.309-68.048
		c55.864-36.834,113.577-70.698,173.901-99.833c7.018-3.389,17.078-11.073,22.814-3.434c7.075,9.421-5.09,15.279-10.571,21.448
		C3948.619,2533.842,3933.76,2548.586,3925.984,2568.816z"/>
	<path d="M4026.66,2537.347c0.285,1.728,0.57,3.455,0.855,5.182c10.278,50.226,22.871,99.898,35.97,149.442
		c8.242,31.173,20.789,61.472,18.019,94.747c-1.31,15.738-3.945,31.01-13.481,44.212c-15.889,21.996-41.107,24.866-60.313,5.82
		c-7.256-7.196-12.072-9.714-22.466-4.409c-17.293,8.826-36.829,0.561-50.184-18.803c-18.023-26.132-23.938-56.254-19.246-86.372
		c11.139-71.508,31.639-140.283,71.151-202.046c2.558-3.998,4.737-11.38,9.928-9.588c6.897,2.382,2.85,9.596,2.16,14.773
		c-3.315,24.869-7.023,49.689-10.099,74.587c-0.892,7.222-3.159,14.81,1.745,22.204c12.247-32.026,9.162-66.925,18.686-99.476
		c7.801,29.003,2.295,59.091,8.923,88.099c4.099-21.119,2.147-42.373,2.415-63.555
		C4020.792,2546.747,4017.205,2539.246,4026.66,2537.347z"/>
	<path d="M545.81,2394.777c4.792,11.731,10.987,22.428,21.801,29.652c2.95,1.936,5.577,5.041,3.275,8.065
		c-3.053,4.008-5.931-0.308-7.952-2.182c-16.744-15.524-33.196-31.364-49.954-46.874c-3.851-3.564-7.017-8.907-17.194-7.86
		c19.91,24.783,46.795,39.66,65.194,62.535c-0.935,1.294-1.87,2.588-2.805,3.882c-14.889-8.939-29.809-17.829-44.646-26.853
		c-3.8-2.311-7.328-5.065-11.004-7.583c-2.832-1.94-6.488-4.149-8.62-0.368c-2.146,3.807,2.053,5.646,4.778,7.362
		c16.008,10.082,32.086,20.053,48.058,30.19c3.023,1.919,7.521,2.551,7.881,7.514c-4.301,3.564-8.748,1.094-12.636,0.078
		c-45.771-11.953-92.422-13.475-139.349-12.593c-25.092,0.471-50.138-0.124-74.613-6.976c-13.811-3.866-25.555-10.966-35.252-21.378
		c-25.275-27.139-15.017-66.511,20.615-76.712c10.622-3.041,12.897-5.583,7.932-16.205c-11.546-24.696-4.832-41.283,19.742-52.903
		c24.751-11.705,49.31-9.033,72.155,4.102c42.148,24.235,74.677,59.43,105.526,96.288
		C527.206,2376.075,532.741,2388.976,545.81,2394.777z"/>
	<path d="M607.382,2531.798c8.82,30.998,12.792,61.153,26.438,88.603c1.618-16.983-5.597-32.273-9.449-48.147
		c-3.822-15.749-10.818-30.959-9.026-51.304c13.219,16.425,16.822,33.441,23.631,48.844c6.081,13.756,11.381,27.856,17.197,41.732
		c1.194,2.85,2.187,7.603,6.154,6.422c5.753-1.713,2.541-6.275,1.327-9.688c-7.285-20.479-19.229-39.039-24.838-60.212
		c-0.836-3.154-1.559-6.338-2.378-9.686c1.593-0.276,2.915-0.873,3.267-0.515c47.24,48.057,96.738,94.247,129.204,154.638
		c8.267,15.379,13.974,31.521,14.865,49.208c0.892,17.731-2.542,33.797-18.624,43.774c-16.575,10.283-34.601,10.236-50.792,0.118
		c-10.878-6.798-15.192-6.369-22.21,5.165c-9.994,16.425-26.807,23.57-46.25,19.864c-22.389-4.268-36.071-18.976-42.833-40.188
		c-4.134-12.97-4.578-26.667-2.216-39.808c10.876-60.499,6.588-121.143,3.047-181.827
		C603.618,2544.019,602.081,2538.921,607.382,2531.798z"/>
	<path d="M1149.811,123.719c9.16,12.173,9.517,26.45,15.391,44.192c2.823-28.125,11.536-49.864,21.481-73.322
		c10.075,16.666,8.463,33.321,8.511,55.023c15.32-26.574,31.147-46.594,56.845-59.782c-4.229,31.17-16.02,56.764-34.508,80.668
		c16.539-12.641,33.453-23.186,55.743-24.155c-7.263,16.061-22.201,24.03-33.474,37.953c12.125,0.286,22.378-3.213,35.364,1.008
		c-20.713,17.502-41.778,32.154-65.432,37.584c-42.426,9.739-56.129,43.289-75.192,80.025c36.714-23.03,71.956-31.012,112.28-19.763
		c-34.679,27.282-66.125,54.938-111.217,56.759c-16.873,0.681-30.782,8.854-41.164,22.657c-4.683,6.226-9.698,12.308-15.269,17.73
		c-4.851,4.721-10.265,16.587-15.132,11.842c-5.823-5.676-12.431-16.945-7.143-27.223c12.975-25.224,11.721-47.751-5.014-71.812
		c-13.491-19.397-14.085-43.012-7.847-66.167c5.188-19.257,12.741-37.939,13.254-62.217c21.08,25.167,26.684,53.164,36.771,79.012
		c11.33,29.034-9.019,55.347-5.992,84.557c19.939-27.937,45.752-52.005,55.313-86.385c2.991-10.755-1.487-22.069-3.852-32.915
		C1133.151,179.729,1135.747,151.643,1149.811,123.719z"/>
	<path d="M3764.415,578.926c-15.8,1.3-31.599,2.6-47.399,3.9c14.849-11.209,32.876-14.479,48.948-22.471
		c-17.275-0.949-31.669,11.285-48.599,10.558c-2.054-3.75,0.398-5.72,2.179-7.53c29.118-29.591,62.134-54.034,99.005-73.009
		c17.107-8.804,34.484-9.177,49.654,4.845c13.246,12.243,17.782,34.541,9.626,52.548c-4.107,9.069-4.886,13.236,5.747,18.339
		c15.701,7.535,20.513,29.97,11.042,46.861c-9.15,16.319-22.726,27.695-42.485,28.214c-50.145,1.318-91.74-23.92-134.926-44.12
		c-2.278-1.066-3.991-3.407-2.603-5.076c1.54-1.85,4.565-2.969,7.111-3.39c14.103-2.331,28.258-4.352,42.396-6.48
		C3764.213,581.052,3764.314,579.989,3764.415,578.926z"/>
	<path d="M3681.468,617.402c1.757,22.382-8.038,43.377-2.639,66.292c3.738-20.868,7.476-41.736,11.214-62.604
		c5.613,17.696,1.281,35.71,6.275,57.484c4.137-15.977-1.491-27.801,2.492-39.624c14.001,47.859,41.463,92.712,31.891,145.637
		c-6.011,33.238-20.951,40.711-50.836,26.184c-5.854-2.845-7.694,0.146-11.051,3.127c-24.163,21.451-56.268,10.065-63.095-22.263
		c-3.458-16.376-1.336-32.639,4.572-47.7C3628.02,698.742,3652.52,657.144,3681.468,617.402z"/>
	<path d="M3631.785,656.24c13.232-14.435,26.465-28.871,39.697-43.306c1.156,0.826,2.313,1.652,3.468,2.478
		c-17.638,22.722-32.569,47.067-46.972,71.755c-10.688,18.321-24.327,34.592-40.059,48.995c-7.906,7.239-16.51,13.173-26.93,16.202
		c-14.433,4.196-26.558-0.487-36.555-10.564c-9.479-9.553-15.778-20.641-8.133-34.406c2.409-4.336,1.833-6.822-2.304-9.521
		c-15.33-10.002-13.609-24.17-8.476-38.592c6.639-18.653,20.93-30.499,38.619-37.024c40.05-14.775,82.83-13.982,126.344-22.7
		c-8.093,25.178-30.546,35.203-41.872,53.666C3629.669,654.23,3630.727,655.235,3631.785,656.24z"/>
	<path d="M3689.475,554.445c-4.758-21.682-9.516-43.363-14.273-65.045c-1.31,0.249-2.619,0.499-3.929,0.748
		c3.724,23.536,7.448,47.072,11.404,72.07c-15.266,0.243-26.051-7.447-35.317-16.375c-27.912-26.892-49.229-58.784-66.852-93.114
		c-6.063-11.811-6.382-24.707-2.361-37.436c5.13-16.238,15.111-22.563,31.833-18.858c6.715,1.488,9.841,2.383,13.678-5.438
		c10.529-21.457,36.037-23.809,52.356-5.809c8.904,9.821,13.052,22.115,15.692,34.627
		C3701.124,464.426,3694.844,509.147,3689.475,554.445z"/>
	<path d="M3627.427,562.566c6.425,10.001,19.137,9.14,30.054,17.491c-17.059,1.789-31.386-4.507-46.161-0.4
		c15.931,5.781,33.761,4.283,49.538,14.123c-7.241,0.649-14.493,1.2-21.722,1.964c-32.658,3.45-65.313,6.929-97.962,10.461
		c-14.484,1.567-28.901,2.251-42.977-2.585c-11.157-3.833-20.008-10.283-22.223-22.621c-2.108-11.741,3.298-21.416,12.612-27.2
		c9.23-5.732,9.93-10.129,4.708-19.484c-7.25-12.987-3.128-25.092,9.074-33.485c18.604-12.794,38.954-15.716,60.458-8.608
		c11.724,3.875,22.037,10.401,32.096,17.547c24.526,17.424,44.646,40.388,70.677,55.892c3.417,2.035,7.088,4.781,4.385,9.265
		c-3.481,5.774-6.697,0.249-9.514-1.255C3650.211,568.197,3639.486,564.177,3627.427,562.566z"/>
	<path d="M3768.961,649.566c-17.09-12.588-36.444-22.454-50.871-39.708c6.607-1.794,10.786,1.52,14.96,3.706
		c34.546,18.097,69.122,36.214,101.42,58.17c14.627,9.944,27.186,21.888,24.171,42.361c-2.442,16.583-17.248,18.443-27.469,26.598
		c-8.105,6.467-5.656,26.518-22.414,30.581c-16.692,4.047-30.716-1.896-42.884-13.036c-12.133-11.108-20.148-25.139-27.422-39.648
		c-14.527-28.976-23.96-59.968-35.42-90.151c-1.735-4.569-5.892-11.18,1.016-14.897c5.403-2.907,8.778,2.724,12.715,5.611
		c16.243,11.913,32.633,23.624,48.969,35.41C3766.81,652.899,3767.886,651.233,3768.961,649.566z"/>
	<path d="M3704.598,569.697c2.213-27.102,20.293-42.421,21.56-64.378c-8.67,17.363-17.341,34.726-26.832,53.732
		c-5.946-10.305-0.943-18.106,0.071-25.713c4.989-37.44,6.144-75.572,19.912-111.489c5.47-14.269,11.69-27.638,25.367-36.134
		c18.859-11.714,36.296-5.884,43.013,15.241c1.924,6.052,3.395,8.787,10.967,8.565c26.543-0.78,39.333,18.44,29.094,43.02
		c-2.518,6.043-6.127,12.157-10.739,16.718C3782.349,503.547,3741.57,530.77,3704.598,569.697z"/>
	<path d="M571.246,2473.143c0.02-18.623,10.693-30.557,27.593-30.856c15.595-0.276,31.766,20.334,31.756,40.474
		c-0.008,15.66-12.782,29.662-27.33,29.954C586.224,2513.058,571.222,2494.518,571.246,2473.143z M613.183,2483.024
		c-0.911-4.952-2.985-10.123-9.876-9.841c-5.298,0.217-9.714,3.324-9.763,9.093c-0.051,6.06,3.07,10.603,9.879,10.596
		C609.128,2492.866,612.49,2489.734,613.183,2483.024z"/>
	<path d="M4015.957,2505.842c-15.066,0.198-32.532-17.201-32.468-32.614c0.052-12.418,7.055-18.067,18.961-18.416
		c16.587-0.486,33.736,14.954,34.009,30.558C4036.632,2495.281,4026.19,2505.708,4015.957,2505.842z"/>
	<path d="M757.139,569.528c-0.669,11.923-4.009,19.296-15.956,18.854c-13.41-0.495-18.655-9.131-19.436-20.759
		c-0.664-9.88,6.563-14.494,15.11-13.752C746.958,554.748,756.898,557.972,757.139,569.528z"/>
	<path d="M3702.484,589.418c-2.189,7.568-5.981,12.687-14.05,11.99c-7.363-0.636-10.992-6.072-10.562-12.556
		c0.492-7.434,5.712-12.128,13.49-11.593C3698.672,577.762,3700.917,583.68,3702.484,589.418z"/>
</g>
</svg>
