<?xml version="1.0" encoding="iso-8859-1"?>
<!-- Generator: Adobe Illustrator 25.0.0, SVG Export Plug-In . SVG Version: 6.00 Build 0)  -->
<svg version="1.1" id="Layer_1" xmlns="http://www.w3.org/2000/svg" xmlns:xlink="http://www.w3.org/1999/xlink" x="0px" y="0px"
	 viewBox="0 0 1394.048 931.551" style="enable-background:new 0 0 1394.048 931.551;" xml:space="preserve">
<g id="_x28_30_x29__1_">
	<path fill="FRAME_COLOR" d="M1206.518,538.142c0.608-7.904-0.3-14.794-0.799-21.686c-0.844-11.65-2.277-23.207-5.948-34.375
		c-1.674-5.091-3.544-10.074-7.39-14.011c-3.273-3.351-8.201-4.161-12.393-2.117c-3.681,1.794-4.994,4.813-4.246,8.662
		c0.543,2.794,2.111,4.914,5.239,5.229c1.982,0.2,3.702-0.428,4.546-2.351c1.332-3.032-1.947-3.644-3.527-5.568
		c3.227-1.328,5.279-0.206,6.519,2.131c1.386,2.614,0.255,4.839-2.019,6.482c-5.874,4.246-12.757,1.338-13.864-5.837
		c-1.281-8.3,5.563-14.898,14.098-13.546c1.439,0.228,2.839,0.697,4.416,1.095c-3.053-9.128-10.251-14.753-19.358-15.346
		c-13.194-0.858-21.321-6.868-24.659-19.492c-2.606-9.855-4.223-19.957-12.223-27.337c-0.561-0.517-1.211-1.372-0.602-2.19
		c0.792-1.065,1.896-0.557,2.656,0.029c9.732,7.509,21.796,8.616,32.961,12.264c11.917,3.893,18.492,12.737,18.365,25.194
		c-0.106,10.362,3.853,18.659,9.785,26.503c0.188-0.106,0.667-0.255,0.663-0.392c-0.316-13.147,0.305-26.317-0.907-39.441
		c-0.464-5.029-1.964-9.804-4.232-14.29c-0.804-1.59-1.982-3.143-3.361-4.249c-1.493-1.198-3.174-0.404-4.534,0.748
		c-1.183,1.002-1.496,2.29-0.584,3.543c1.132,1.556,2.612,1.577,4.67-0.306c-1.085,2.928-2.752,2.715-4.283,2.323
		c-1.585-0.405-2.52-1.595-2.64-3.269c-0.28-3.893,2.522-5.456,5.664-6.837c-4.183-4.862-8.644-8.724-14.838-9.983
		c-3.145-0.639-6.142-0.402-7.675,2.928c-0.85,1.847-0.916,3.947,0.694,5.597c1.051,1.077,2.454,1.167,3.698,0.465
		c2.548-1.437,0.839-3.397,0.251-5.574c2.471,0.824,2.834,2.405,2.442,4.273c-0.365,1.738-1.382,3.066-3.213,3.45
		c-2.153,0.452-3.939-0.257-5.276-2.021c-2.705-3.568-0.96-9.204,3.449-11.316c2.829-1.355,5.774-1.238,9.013-0.379
		c-0.787-2.247-2.473-2.766-3.747-3.666c-9.539-6.738-11.647-13.619-7.351-24.667c2.223-5.718,5.048-11.297,2.752-17.704
		c0.608-0.044,0.886-0.124,0.925-0.059c4.938,8.223,12.054,14.878,16.944,23.063c2.859,4.786,1.936,10.442-0.076,15.519
		c-1.304,3.29-0.974,5.901,0.836,8.882c4.018,6.619,7.704,13.44,12.061,21.123c0.407-10.445-0.266-19.809-1.569-29.111
		c-1.269-9.057-2.092-18.206-5.022-26.972c-1.982-5.931-5.123-11.142-8.902-16.084c-4.288-5.607-9.698-7.212-16.355-5.416
		c-2.567,0.692-5.131,1.548-7.752,1.854c-6.235,0.728-9.917-1.344-12.08-7.241c-1.749-4.768-4.175-8.909-8.284-12.359
		c5.104,2.82,10.17,1.767,15.242,1.216c4.382-0.476,8.311,0.863,11.376,4.047c3.729,3.875,7.931,6.89,12.719,9.445
		c6.182,3.3,10.015,9.139,13.442,15.13c0.881,1.541,1.797,3.062,3.429,5.836c0.755-5.993,1.357-10.534,1.896-15.082
		c3.423-28.917,24.524-40.32,47.894-41.861c3.361-0.221,6.503-0.595,9.695-1.765c13.731-5.03,21.538-1.691,27.027,11.69
		c2.32,5.654,5.593,10.456,11.413,14.543c-1.785,0.178-2.556,0.509-2.947,0.255c-6.492-4.203-13.864-4.178-21.17-4.585
		c-6.076-0.339-10.398-3.539-14.245-8.151c-7.029-8.427-16.154-9.931-26.651-4.454c4.063,0.138,7.438,0.249,10.471,1.906
		c3.251,1.777,4.991,4.468,4.639,8.151c-0.317,3.31-2.064,5.097-6.244,4.134c1.798-2.327,4.841-3.806,3.283-7.083
		c-1.697-3.568-5.109-4.152-8.405-4.425c-9.191-0.761-16.342,2.841-20.725,11.017c-5.907,11.018-8.133,23.11-9.4,35.563
		c3.144-5.684,8.256-10.055,9.731-16.757c2.909-13.212,12.52-18.14,25.212-13.014c4.166,1.682,8.17,3.761,12.302,5.534
		c3.802,1.631,7.513,3.621,12.047,3.278c-0.854,1.912-2.354,1.712-3.509,1.792c-5.713,0.397-10.62,2.659-15.005,6.191
		c-6.204,4.997-12.921,6.904-20.969,5.016c-7.568-1.775-11.303,0.366-15.486,6.874c-4.014,6.245-5.952,12.811-4.937,20.371
		c1.096,8.161,1.543,16.408,2.366,25.665c2.199-3.884,3.533-6.934,3.775-10.485c0.225-3.32,0.481-6.674,1.171-9.917
		c1.589-7.466,7.932-12.271,16.707-12.215c6.65,0.042,13.293,0.952,19.56-2.239c0.794-0.405,1.938-0.543,3.316,1.031
		c-7.104,2.438-9.54,8.715-12.495,14.599c-3.331,6.634-9.149,9.379-16.162,10.138c-3.921,0.424-7.492,1.34-9.642,5.88
		c4.469,0.19,9.454-0.566,9.817,5.623c0.109,1.847-0.213,3.972-2.45,4.355c-2.042,0.35-3.279-0.861-3.471-2.999
		c1.972-0.975,1.726,2.855,3.653,1.236c0.736-0.619,0.775-1.402,0.426-2.249c-0.65-1.578-1.386-3.239-3.323-3.341
		c-3.634-0.191-6.182,1.535-6.916,5.14c-0.862,4.238-1.499,8.532-2.01,12.828c-0.825,6.934-1.467,13.889-2.282,21.752
		c2.596-2.918,4.036-5.133,4.055-8.529c0.062-11.105,2.743-14.535,13.575-17.896c4.345-1.348,8.127-3.675,12.546-5.932
		c-5.521,4.39-3.746,10.952-5.736,16.342c-1.7,4.603-5.039,7.31-9.676,8.588c-2.199,0.606-4.596,0.787-6.79,3.198
		c3.744,0.358,6.674,1.43,6.727,5.333c0.034,2.458-1.029,4.251-3.88,4.007c-0.885-0.076-1.511-0.747-1.359-1.744
		c0.071-0.464,0.282-1.148,0.618-1.29c1.564-0.664,0.469,1.068,1.089,1.302c0.407,0.153,1.11,0.481,1.193,0.369
		c0.356-0.48,0.753-1.103,0.732-1.658c-0.078-2.002-0.961-3.565-3.056-4.024c-1.848-0.405-3.49-0.442-4.61,1.726
		c-1.713,3.317-2.785,6.812-3.214,10.451c-1.913,16.217,0.163,32.082,4.412,48.837c2.015-5.732,3.613-10.552,2.597-15.539
		c-3.201-15.719,3.168-27.161,15.404-36.278c8.608-6.413,16.332-13.694,21.819-23.102c0.734-1.258,1.586-3.574,3.645-2.396
		c1.651,0.944,0.416,2.814-0.083,4.087c-3.343,8.514-3.725,17.11-1.544,25.989c0.866,3.526,1.117,7.259,1.21,10.909
		c0.256,10.005-4.33,17.165-13.234,21.671c-1.576,0.797-3.534,0.912-5.165,2.998c3.708,0.911,7.35,1.299,10.152,3.778
		c3.676,3.253,4.868,7.572,2.976,11.665c-1.796,3.885-6.076,6.036-10.378,5.149c-2.234-0.46-4.204-1.514-4.789-3.857
		c-0.587-2.346-0.478-4.678,2.938-6.134c-1.406,3.253-2.208,6.398,1.567,7.71c3.213,1.117,5.913-0.134,7.484-3.271
		c1.857-3.708,0.261-6.445-2.704-8.616c-7.377-5.402-21.924-0.527-25.857,8.659c-1.386,3.239-2.121,6.659-2.411,10.168
		c-1.237,14.965,0.448,29.924-0.347,46.031c3.153-3.537,4.939-6.192,5.581-10.043c2.84-17.036,11.194-24.12,28.379-23.518
		c8.311,0.291,15.875-0.846,22.368-6.159c1.754,2.06,0.431,3.291-0.416,4.337c-4.117,5.084-7.188,10.813-10.387,16.462
		c-4.912,8.674-12.306,13.424-22.241,12.064c-10.796-1.478-16.512,3.914-20.616,13.106c2.059,0.143,3.249-1.392,4.735-2.044
		c7.14-3.133,14.878,1.303,14.918,8.597c0.016,2.904-0.899,5.29-3.743,6.458c-3.157,1.296-6.232,1.077-8.926-1.163
		c-1.579-1.313-2.034-3.062-1.006-4.932c1.225-2.228,3.032-3.198,6.482-2.42c-2.492,1.453-5.8,1.336-4.589,4.688
		c0.77,2.132,2.613,3.04,4.822,2.691c2.983-0.471,4.157-2.544,4.073-5.377c-0.134-4.482-4.429-7.375-8.892-5.802
		c-6.667,2.349-9.707,7.889-11.371,14.197c-3.879,14.7-8.605,29.061-15.877,42.477c-1.572,2.9-3.301,5.714-5.331,9.21
		c5.349-1.471,8.958-4.169,10.833-8.849c1.546-3.857,2.662-7.885,4.157-11.765c3.364-8.729,9.987-13.443,19.024-15.023
		c1.638-0.286,3.321-0.655,4.958-0.558c10.698,0.637,20.402-2.06,29.329-8.016c2.246-1.499,4.881-2.878,7.949-2.148
		c0,0.433,0.132,0.915-0.019,1.031c-8.82,6.793-13.985,15.776-16.536,26.541c-1.031,4.352-3.031,8.447-5.64,12.183
		c-6.101,8.738-14.597,12.363-25.025,11.549c-3.971-0.31-7.881-1.327-11.843-1.828c-17.193-2.174-21.107,2.529-28.332,15.524
		c3.931-0.49,7.269-1.661,10.018-4.271c1.571-1.491,3.044-3.088,4.654-4.533c5.898-5.293,9.011-4.383,10.469,3.34
		c1.333,7.063,2.611,13.956,7.62,19.682c2.515,2.875,2.429,7.032,2.909,11.561c3.497-4.41,5.935-8.177,5.379-13.525
		c-0.792-7.626,1.356-11.215,8.402-13.991c4.65-1.832,9.348-3.32,12.831-7.872c-3.114,5.569-1.179,11.291-1.901,16.767
		c-0.835,6.331-5.217,9.897-10.917,10.841c-7.492,1.241-9.551,7.238-12.861,12.603c8.777-7.172,20.378-5.454,29.917-10.123
		c4.064-1.99,8.572-1.186,12.479,1.185c5.17,3.138,9.944,6.979,16.137,8.673c-5.672-0.443-9.84,2.66-14.324,4.999
		c-7,3.651-11.667,3.088-17.282-2.14c-1.367-1.273-1.957-1.811-3.031,0.177c-0.799,1.479-2.583,1.418-3.423,0.336
		c-2.079-2.68,1.259-0.602,1.704-1.676c1.367-3.299-0.333-4.421-2.977-4.758c-3.923-0.5-7.569,0.82-11.096,2.384
		c-4.902,2.174-9.339,4.933-12.268,9.961c0.797,0.12,1.311,0.36,1.706,0.232c12.715-4.133,22.77,0.325,31.46,9.545
		c4.956,5.259,11.118,8.996,17.049,13.014c2.065,1.399,4.085,2.881,5.999,4.478c1.12,0.934,2.571,2.207,2.044,3.692
		c-0.593,1.671-2.358,0.47-3.557,0.443c-8.319-0.186-15.206,3.028-21.192,8.579c-5.267,4.884-10.34,10.169-19.003,10.479
		c2.182,2.087,4.471,4.076,6.513,6.293c1.703,1.849,2.779,4.151,3.497,6.573c1.519,5.124,0.89,5.925-4.468,5.765
		c-4.496-0.134-8.951,0.473-11.712,4.327c-5.506,7.687-12.885,10.061-21.869,8.787c-0.794-0.113-1.617-0.015-3.468-0.015
		c3.985,3.095,7.625,4.23,11.652,4.182c4.665-0.056,9.33-0.407,13.991-0.347c9.78,0.125,16.867,5.106,20.154,14.297
		c1.34,3.746,2.407,7.65,3.057,11.571c1.787,10.77,3.439,21.511,15.547,27.758c-5.815,1.554-9.653-0.242-12.948-2.487
		c-6.369-4.341-13.391-6.529-20.818-7.958c-4.255-0.818-8.396-2.177-12.253-4.201c-7.563-3.97-12.284-10.022-11.511-18.819
		c1.014-11.536-4.077-19.446-13.517-25.314c-1.13,1.662,0.236,3.054,0.746,4.427c3.75,10.092,2.497,19.303-4.598,27.558
		c-8.267,9.618-13.24,21.622-22.242,30.71c-0.584,0.589-0.984,1.383-1.622,1.89c-1.395,1.108-2.746,2.945-4.707,2.209
		c-2.176-0.816-1.615-3.045-1.445-4.822c0.789-8.235-1.969-14.605-9.29-18.938c-7.473-4.423-12.793-10.596-14.403-20.193
		c-6.463,7.981-14.84,10.313-24.071,10.748c-4.603,0.217-8.618,2.343-12.622,4.445c-4.497,2.362-9.248,3.884-14.412,3.071
		c-2.794-0.44-4.029-1.651-1.541-4.224c6.692-6.92,7.298-15.279,4.491-23.766c-3.421-10.341-3.334-19.947,3.012-29.399
		c-7.238,5.614-17.715,7.221-20,18.452c-4.416,21.703-16.226,25.347-32.564,22.047c-8.421-1.701-16.186-0.757-23.589,3.552
		c-0.664,0.386-1.533,0.459-2.322,0.566c-0.253,0.034-0.554-0.293-1.01-0.556c0.246-0.571,0.338-1.346,0.774-1.715
		c8.486-7.186,14.568-16.353,21.145-25.152c4.283-5.729,10.25-8.401,17.597-6.836c8.14,1.734,15.471-0.052,22.268-4.758
		c3.227-2.235,6.695-4.122,11.293-6.92c-13.856,0.991-26.121,2.742-38.343,4.85c-14.286,2.464-28.48,5.368-42.377,9.532
		c-6.126,1.836-9.672,6.22-9.696,11.317c-0.02,4.141,2.873,6.909,6.601,6.236c2.658-0.48,4.101-2.14,4.069-4.853
		c-0.019-1.62-0.8-3.061-2.462-3.364c-2.323-0.423-1.171,2-1.731,3.295c-1.682-1.813-2.079-3.369-0.372-4.587
		c1.305-0.931,2.824-0.55,4.172,0.437c2.584,1.892,2.984,4.514,1.831,7.114c-1.481,3.341-4.368,5.045-8.086,4.519
		c-3.657-0.517-5.862-2.906-6.982-6.357c-0.504-1.551-0.141-3.35-1.419-4.848c-2.674,4.622-2.708,9.658-2.558,14.601
		c0.455,15.087-3.501,21.774-20.115,27.261c-7.293,2.409-14.58,4.406-20.842,9.197c-2.784,2.13-6.24,3.508-10.995,2.693
		c8.73-5.868,11.244-13.933,11.586-23.12c0.18-4.817,0.72-9.628,2.133-14.298c3.178-10.506,10.143-16.105,21.069-16.659
		c7.442-0.378,14.155-2.625,20.05-7.354c-15.777,2.92-32.212,1.94-47.25,8.772c-3.511,1.595-6.235,3.679-7.844,7.236
		c-1.234,2.728-2.539,5.445-4.067,8.015c-4.34,7.3-10.716,10.772-19.27,9.567c-3.285-0.463-6.584-1.083-9.755-2.036
		c-6.775-2.038-13.511-3.552-20.634-1.838c-1.762,0.424-3.882,0.755-5.77-1.534c9.319-2.741,15.734-8.974,21.738-15.596
		c6.705-7.394,14.757-9.311,24.04-6.617c7.51,2.179,14.692,1.946,23.066-2.437c-150.288,0-299.152,0-448.829,0
		c11.608,6.582,17.892,18.828,30.988,22.845c-1.751,2.26-3.592,1.951-5.23,1.53c-6.713-1.726-13.199-0.7-19.703,1.16
		c-3.99,1.141-7.993,2.326-12.229,2.331c-7.842,0.009-14.728-2.907-17.602-10.1c-5.447-13.632-16.494-17.742-29.34-19.62
		c-10.04-1.467-20.106-2.754-30.366-3.709c3.838,3.182,8.392,5.023,13.212,6.166c2.903,0.688,5.918,0.958,8.899,1.256
		c10.876,1.089,17.3,6.536,20.059,17.136c1.268,4.873,1.658,9.894,1.744,14.868c0.145,8.375,2.243,15.741,9.605,21.462
		c-3.291,1.211-5.873,0.363-7.824-1.144c-8.367-6.461-18.284-9.286-28.002-12.742c-9.702-3.451-14.521-10.697-14.511-21.065
		c0.002-2.666-0.009-5.334-0.103-7.998c-0.117-3.322-1.008-6.427-2.933-10.402c-0.982,3.163-1.071,5.506-2.42,7.393
		c-2.599,3.634-7.37,4.65-11.032,2.137c-3.206-2.2-4.145-5.083-2.211-8.644c0.88-1.62,2.152-2.579,4.074-2.057
		c1.997,0.543,2.168,2.069,2.236,3.899c-2.123-0.047-1.79-3.387-3.982-2.368c-1.131,0.526-1.38,1.773-1.508,2.988
		c-0.22,2.094,0.667,3.568,2.474,4.476c1.917,0.964,3.853,1.063,5.631-0.365c1.982-1.592,2.903-3.686,2.406-6.186
		c-1.038-5.22-4.325-8.569-9.262-10.202c-11.092-3.668-22.507-6.118-33.975-8.17c-12.455-2.23-25.006-3.931-37.527-5.787
		c-1.718-0.255-3.52-0.827-6.017,0.352c9.488,6.254,17.865,13.455,30.128,10.907c9.017-1.873,16,1.636,21.034,9.145
		c5.392,8.043,10.84,16.016,18.491,22.174c0.84,0.676,2.146,1.511,1.182,2.82c-0.712,0.966-1.912,0.456-2.723-0.092
		c-8.949-6.055-18.502-4.704-28.384-2.988c-12.534,2.177-22.414-2.833-24.863-14.493c-2.891-13.766-12.102-20.652-23.094-26.702
		c-0.111-0.061,0.593,1.833,1.133,2.643c3.892,5.853,5.119,12.244,3.764,19.085c-0.776,3.917-2.004,7.746-2.769,11.665
		c-1.405,7.201-0.614,13.936,4.738,19.558c0.874,0.918,2.179,1.926,1.454,3.414c-0.682,1.399-2.244,1.194-3.56,1.292
		c-4.831,0.362-9.296-0.972-13.385-3.348c-5.277-3.067-10.781-5.021-16.936-5.416c-7.446-0.479-13.837-3.391-19.069-10.182
		c-1.715,11.161-9.429,16.792-17.518,22.23c-5.677,3.816-7.147,9.751-7.124,16.202c0.006,1.762,0.946,3.921-1.294,4.859
		c-2.085,0.873-3.443-0.989-4.639-2.211c-2.673-2.731-5.333-5.534-7.574-8.616c-6.163-8.478-11.573-17.47-18.018-25.779
		c-4.54-5.853-5.125-12.811-3.261-20.008c0.819-3.161,2.479-6.151,2.384-10.001c-7.841,4.754-13.036,10.646-12.929,20.01
		c0.028,2.498,0,5.004-0.165,7.496c-0.489,7.419-4.06,12.974-10.614,16.402c-2.929,1.532-6.062,2.885-9.263,3.648
		c-9.569,2.283-19.076,4.548-27.55,9.926c-2.645,1.679-5.777,2.46-9.293,1.673c0.676-2.332,2.987-2.612,4.34-3.893
		c4.957-4.693,7.425-10.54,8.522-17.122c1.096-6.578,2.407-13.112,4.979-19.302c4.223-10.162,10.098-13.95,21.322-13.871
		c5.803,0.041,11.645,1.387,17.393-0.407c2.162-0.675,4.544-0.947,6.316-2.912c-1.939-0.933-3.638,0.053-5.35,0.175
		c-7.369,0.527-13.978-0.962-18.71-7.174c-3.694-4.85-8.537-6.864-14.455-5.849c-3.677,0.63-4.069-1.126-3.466-3.914
		c1.369-6.32,5.13-11.029,11.896-15.585c-10.182,0.24-15.585-5.576-21.402-10.631c-6.893-5.991-14.977-8.225-24.381-7.37
		c0.798-3.174,2.81-4.667,4.784-6.078c9.476-6.774,19-13.423,27.498-21.513c6.09-5.797,13.947-5.586,21.732-4.029
		c1.301,0.26,2.563,0.714,3.86,1.005c0.238,0.053,0.555-0.244,1.291-0.6c-4.852-6.735-11.386-10.491-19.22-12.165
		c-1.774-0.379-3.652-0.041-5.33,0.891c-1.048,0.582-2.186,1.218-2.041,2.557c0.186,1.722,1.639,1.625,3.918,0.85
		c-4.141,3.126-4.141,3.126-6.195-0.789c-7.473,7.126-12.861,7.971-21.982,3.316c-3.698-1.888-7.186-4.341-11.613-3.296
		c-0.481-1.492,0.546-1.805,1.152-1.866c4.723-0.471,8.353-3.107,11.972-5.812c5.717-4.273,11.693-5.35,18.163-1.608
		c1.266,0.732,2.783,1.239,4.236,1.405c7.869,0.899,15.283,3.085,22.165,7.854c-1.934-7.384-5.445-11.003-11.758-12.505
		c-9.431-2.244-11.791-5.009-11.91-14.903c-0.053-4.427-1.371-8.667-1.371-13.471c2.37,5.569,7.425,6.37,12.057,8.101
		c6.813,2.546,8.796,5.598,8.378,12.94c-0.284,4.985,0.83,9.109,5.406,12.834c0.158-6.649,3.742-11.178,6.862-16.113
		c2.842-4.494,2.457-10.273,3.692-15.443c1.323-5.537,3.425-6.313,7.825-2.669c4.925,4.078,8.653,9.925,15.81,10.706
		c0.643,0.07,1.288,0.118,3.008,0.273c-6.568-6.024-8.552-15.308-18.354-16.783c-5.593-0.842-10.935-0.221-16.335,0.941
		c-18.794,4.047-32.509-3.347-38.194-21.483c-3.4-10.845-7.139-21.129-18.059-27.967c3.521-1.566,5.843-0.468,7.744,0.757
		c9.837,6.339,20.468,8.76,32.2,8.914c13.043,0.171,20.797,7.418,25.177,21.801c2.058,6.758,6.007,11.299,13.369,14.212
		c-2.242-3.833-4.128-6.949-5.91-10.123c-7.14-12.723-12.245-26.24-15.448-40.457c-1.197-5.312-4.172-9.402-8.095-12.883
		c-3.653-3.242-8.506-3.264-11.263-0.311c-1.182,1.265-1.941,2.755-1.975,4.476c-0.053,2.678,1.256,4.508,3.934,4.968
		c2.087,0.358,4.311-0.06,4.992-2.297c0.939-3.089-2.337-2.863-4.519-4.415c2.936-1.392,4.885-0.51,6.295,1.319
		c1.619,2.1,0.806,4.23-1.111,5.683c-3.153,2.39-6.565,2.391-9.697-0.005c-3.366-2.576-3.132-6.082-1.584-9.478
		c2.328-5.107,8.354-6.944,14.169-4.441c1.511,0.65,2.868,1.659,4.291,2.509c-1.42-7.92-8.948-14.672-16.767-13.788
		c-13.325,1.508-21.927-4.279-27.873-15.669c-2.976-5.7-6.629-11.045-9.864-16.367c0.813-1.113,1.473-1.037,2.009-0.593
		c6.485,5.37,13.976,5.949,22.09,5.656c16.029-0.578,24.915,7.079,27.373,22.877c0.702,4.512,2.773,8.017,6.199,11.719
		c0.943-2.548,0.184-4.62,0.044-6.592c-0.865-12.155,0.844-24.32-0.232-36.476c-0.339-3.829-0.704-7.638-1.903-11.299
		c-2.949-9.004-13.037-14.946-22.189-13.096c-1.992,0.403-3.755,1.291-5.232,2.75c-2.723,2.69-2.558,5.613-0.712,8.622
		c1.493,2.433,3.732,3.285,6.451,2.4c3.466-1.128,3.448-3.903,2.694-7.294c2.514,1.085,2.611,2.771,2.304,4.567
		c-0.406,2.37-1.927,3.798-4.153,4.536c-3.985,1.321-8.6-0.462-10.805-4.166c-2.364-3.971-1.617-8.454,1.759-11.859
		c2.731-2.754,6.472-3.008,10.002-4.088c-1.123-2.06-3.083-2.341-4.658-3.124c-9.214-4.583-13.477-12.08-13.052-22.24
		c0.145-3.482,0.523-6.993,1.216-10.404c1.758-8.654,2.225-17.171-1.397-25.513c-0.389-0.895-0.524-1.922-0.635-2.904
		c-0.047-0.413,0.276-0.867,0.429-1.297c1.986-0.096,2.695,1.405,3.387,2.635c5.792,10.3,14.626,17.738,23.884,24.542
		c11.221,8.248,15.985,18.798,13.799,32.508c-0.935,5.864,0.05,11.459,2.105,16.952c3.59-15.647,6.974-31.257,4.606-47.411
		c-0.484-3.305-1.058-6.615-2.696-9.564c-1.191-2.145-2.904-3.837-5.673-2.815c-1.47,0.542-3.132,1.421-0.586,2.915
		c1.11,0.651,1.847,1.456,1.21,2.784c-0.519,1.084-1.593,1.151-2.596,0.999c-1.485-0.226-2.303-1.244-2.628-2.655
		c-0.805-3.497,2.052-5.928,7.585-6.376c-1.236-2.231-3.582-2.17-5.507-2.804c-8.473-2.79-11.801-6.632-12.096-15.588
		c-0.132-3.997-2.41-6.314-4.791-8.842c1.351-1.475,2.254-0.36,3.041,0.241c3.11,2.374,6.69,3.654,10.373,4.78
		c8.985,2.748,12.355,6.963,12.379,16.28c0.009,3.552,1.068,6.427,3.095,9.298c1.003-5.801-1.932-30.544-4.056-35.119
		c-1.52-3.272-4.158-4.589-7.308-3.156c-3.065,1.394-2.801,4.01,0.115,6.899c-4.029-0.941-4.579-3.123-3.942-5.538
		c1.313-4.978,5.408-4.607,9.459-4.041c-0.352-3.282-2.205-4.777-4.714-5.552c-2.543-0.785-5.114-1.568-7.73-2.012
		c-6.35-1.079-10.321-4.884-13.043-10.487c-4.133-8.508-4.203-8.474-11.692-13.765c0.857-1.783,2.274-1.102,3.394-0.58
		c5.317,2.479,10.889,2.426,16.606,2.337c12.84-0.201,17.693,4.283,19.208,17.126c0.583,4.94,0.775,9.965,4.396,15.057
		c0.84-12.066,1.783-23.346,2.32-34.646c0.174-3.665-1.451-7.159-3.191-10.421c-4.573-8.574-8.879-10.581-18.381-8.432
		c-4.143,0.937-8.215,1.497-12.188-0.536c-8.577-4.389-15.769-11.971-26.818-11.068c9.18-1.597,16.533-6.518,24.472-9.961
		c12.131-5.261,22.434-0.318,25.716,12.558c1.622,6.364,6.291,10.746,9.787,15.998c-2.381-14.62-3.631-29.636-14.979-40.906
		c-5.443-5.406-12.173-5.783-19.11-3.698c-4.854,1.458-5.785,4.308-3.198,8.75c0.361,0.62,0.819,1.104,0.152,1.628
		c-0.913,0.718-1.856,0.438-2.738-0.198c-3.041-2.192-2.192-8.036,1.58-10.805c1.643-1.206,3.503-1.965,5.487-2.297
		c1.882-0.315,3.802-0.404,6.071-0.628c-10.853-5.966-19.492-4.656-26.887,4.354c-4.463,5.438-9.817,8.259-16.822,8.19
		c-5.545-0.055-10.955,0.542-15.907,3.469c-1.101,0.651-2.602,1.611-4.727-0.182c7.134-3.554,9.513-10.265,12.376-16.788
		c3.916-8.92,11.705-12.678,21.362-9.891c6.243,1.801,12.547,2.46,18.873,3.522c23.327,3.916,37.676,14.278,42.26,36.935
		c1.253,6.191,1.955,12.444,2.907,19.866c2.24-3.635,3.96-6.366,5.619-9.134c2.606-4.349,5.827-8.142,10.118-10.889
		c5.591-3.58,11.444-6.711,16.032-11.75c2.198-2.414,5.576-2.837,8.846-2.672c5.033,0.253,10.173,1.929,15.289-1.385
		c-5.644,3.228-6.528,8.95-8.787,13.843c-2.152,4.662-5.875,6.607-10.965,5.91c-0.824-0.113-1.669-0.177-2.461-0.412
		c-14.605-4.338-19.759-2.398-28.082,13.465c-6.671,12.714-6.897,26.99-8.882,40.783c-1.034,7.183-1.209,14.495-0.163,21.935
		c3.788-8.104,8.387-15.665,13.211-23.106c1.283-1.978,0.069-4.24-0.632-6.25c-3.101-8.891-2.056-16.63,5.63-22.946
		c5.085-4.178,7.732-10.264,11.635-15.874c-1.578,8.725,3.382,15.705,5.078,23.442c1.677,7.655-2.054,13.166-7.58,17.828
		c-1.354,1.142-2.774,2.206-4.725,3.75c2.566,0.159,4.357,0.077,6.065,0.412c5.22,1.025,8.321,6.473,6.341,11.019
		c-0.939,2.156-2.632,3.465-5.022,3.515c-1.758,0.037-3.271-0.646-4.068-2.371c-0.969-2.096-0.464-3.781,1.907-5.688
		c-0.025,2.639-1.99,5.787,1.899,6.064c2.331,0.166,3.746-1.306,3.682-3.742c-0.084-3.232-1.625-5.378-4.964-5.877
		c-1.846-0.276-3.614,0.111-5.378,0.763c-5.305,1.962-9.574,5.248-13.187,9.898c3.734,1.137,6.597,3.031,6.341,7.243
		c-0.158,2.606-1.853,3.693-5.222,3.237c1.766-1.31,4.044-1.832,3.259-4.237c-0.45-1.378-1.219-2.477-2.651-2.69
		c-2.262-0.337-3.773,1.02-4.983,2.719c-2.369,3.328-3.66,7.137-4.355,11.085c-2.575,14.626-0.991,29.437-1.97,44.198
		c5.533-7.564,10.556-14.867,10.867-24.926c0.488-15.768,8.292-24.704,23.559-27.917c9.407-1.98,18.441-4.365,26.242-10.252
		c0.987-0.745,2.429-1.96,3.566-0.77c1.192,1.247-0.323,2.543-1.101,3.329c-6.928,6.993-9.148,15.957-11.23,25.149
		c-2.77,12.235-10.538,19.503-23.002,19.971c-11.203,0.421-17.148,6.576-22.013,15.965c3.124-0.611,5.801-1.363,8.574-1.13
		c8.407,0.708,13.682,8.858,10.4,16.094c-2.552,5.625-10.073,6.841-14.201,2.297c-1.777-1.956-2.118-4.129-0.807-6.431
		c1.234-2.167,2.992-2.923,5.7-1.625c-1.38,1.801-4.302,2.776-2.808,5.581c0.98,1.84,2.836,2.359,4.696,2.239
		c2.903-0.188,4.381-2.218,5.035-4.818c1.448-5.752-4.745-11.043-11.217-9.408c-6.477,1.636-9.847,6.666-11.965,12.447
		c-2.577,7.032-4.846,14.215-5.703,21.702c-0.947,8.274-1.751,16.57-2.367,24.875c-0.307,4.135-0.053,8.312,0.35,12.796
		c3.331-6.089,9.102-10.533,11.276-17.465c1.544-4.925,3.117-9.841,4.699-14.755c4.662-14.479,14.822-21.219,29.735-18.853
		c9.407,1.492,18.738,2.799,28.294,2.529c3.27-0.093,6.925-0.127,9.802,3.462c-10.692,0.085-17.569,5.535-22.76,13.674
		c-0.627,0.983-1.321,1.923-1.937,2.913c-6.758,10.861-16.55,14.332-28.795,11.847c-5.512-1.119-10.047,0.605-14.503,5.03
		c2.642,0.453,4.702,0.624,6.654,1.177c5.123,1.452,8.241,6.438,6.645,10.596c-1.005,2.619-3.007,4.294-5.848,3.239
		c-2.64-0.981-2.844-3.455-2.151-5.914c0.294-1.045,1.117-1.821,2.242-1.369c1.495,0.601,0.828,1.375-0.022,2.15
		c-1.275,1.161-1.311,2.455,0.378,3.097c1.875,0.712,2.758-0.684,3.179-2.233c0.867-3.192-1.898-6.769-5.89-7.305
		c-4.665-0.626-8.571,1.018-11.322,4.886c-8.046,11.315-10.442,23.866-8.033,38.803c1.342-5.712,1.822-10.279,3.683-14.474
		c2.498-5.63,7.352-8.928,12.815-8.626c7.534,0.416,12.489,8.193,9.646,15.18c-1.283,3.153-3.571,4.871-7.05,4.139
		c-3.696-0.778-3.994-3.455-3.198-6.886c1.011,1.781-0.166,4.799,3.005,4.701c2.817-0.087,4.072-2.065,4.737-4.421
		c0.96-3.4-0.709-5.85-3.364-7.656c-2.694-1.832-5.538-2.179-8.358-0.1c-4.32,3.185-6.29,7.752-7.032,12.801
		c-1.705,11.604-0.72,22.873,4.342,33.69c6.724,14.368,16.117,27.155,23.738,41.165c2.113-4.428,2.589-11.403,0.961-15.859
		c-1.313-3.592-2.881-7.091-4.328-10.634c-4.596-11.255-2.572-21.125,6.005-29.775c4.572-4.611,8.853-9.507,13.365-14.179
		c4.884-5.057,9.252-10.461,12.612-16.681c1.148-2.125,2.448-4.419,6.082-4.656c-5.064,10.576-1.945,20.564,1.145,30.57
		c0.785,2.543,1.485,5.124,2.029,7.729c3.297,15.789-1.981,27.266-16.112,35.154c-1.599,0.893-3.149,2.096-4.875,2.5
		c-8.079,1.894-11.393,7.479-13.294,15.052c-1.087,4.33-0.542,7.357,2.791,10.253c4.386-13.516,15.322-17.947,27.802-18.812
		c9.799-0.679,19.248-1.261,27.269-7.714c0.749-0.603,1.781-0.96,2.739-1.176c2.662-0.599,5.771-2.722,7.935-0.117
		c1.936,2.329-0.942,4.535-1.922,6.682c-2.29,5.022-3.794,10.368-1.478,15.471c5.383,11.859,5.277,22.883-4.919,34.337
		c14.607-4.482,23.825,2.323,32.824,10.053c6.509,5.591,14.291,7.601,22.786,7.151c1.253-0.066,2.928-0.826,3.63,0.707
		c0.832,1.817-0.914,2.836-2.093,3.443c-8.977,4.623-14.013,12.334-17.85,21.338c-4.116,9.658-12.614,13.951-22.301,16.707
		c10.161,0.634,20.247,0.826,30.298-0.273c6.956-0.76,13.844-2.078,20.521-4.254c5.529-1.802,6.404-3.478,4.902-8.844
		c-2.441-8.727-1.822-11.119,5.476-15.984c3.359-2.24,5.011-5.587,7.517-8.659c-1.415,7.829,4.87,14.713,1.719,22.923
		c5.538-3.189,7.519-8.094,5.949-13.619c-3.496-12.3-2.893-14.48,7.324-22.481c2.641-2.068,3.998-5.559,8.607-7.351
		c-4.106,5.957-2.246,10.867-0.561,15.959c2.719,8.22,0.648,13.464-6.639,18.459c-1.5,1.028-3.283,1.961-4.25,3.399
		c-8.966,13.346-22.341,19.408-37.295,22.972c-1.073,0.256-2.325,0.296-3.231,1.977c7.526,1.234,14.869,2.44,22.212,3.639
		c0.987,0.161,1.982,0.27,2.967,0.443c11.74,2.064,14.821-0.38,15.278-12.128c0.296-7.609,3.619-12.063,10.917-14.306
		c2.537-0.78,5.175-1.266,7.794-1.729c3.456-0.61,6.938-1.176,10.002-2.965c2.93-1.711,5.714-3.672,8.653-5.582
		c0.923,1.927-0.353,2.826-1.141,3.722c-2.791,3.174-4.137,6.875-3.902,11.022c0.697,12.279-11.602,21.338-21.3,21.674
		c-4.185,0.145-8.126,1.211-12.106,2.959c12.229,6.509,33.355,7.695,42.229,2.562c4.245-2.455,6.73-5.946,6.607-10.93
		c-0.113-4.568-3.474-7.927-7.504-7.659c-2.984,0.198-5.193,1.204-4.548,4.978c-2.561-2.161-1.985-4.207,0.401-6.088
		c3.234-2.548,8.089-2.044,11.439,1.084c4.98,4.65,5.211,12.403,0.485,17.997c-1.267,1.5-2.673,2.882-3.921,4.217
		c8.9,0.847,14.57-3.211,16.136-11.83c1.311-7.215,5.167-12.203,12.374-14.172c4.007-1.094,8.094-1.895,12.146-2.82
		c4.034-0.921,6.12-4.986,9.884-6.36c1.232,1.676-0.066,2.672-0.733,3.68c-2.049,3.1-3.342,6.448-4.215,10.069
		c-3.607,14.961-7.662,18.615-22.776,20.885c-1.955,0.294-3.923,0.492-6.205,0.773c3.893,1.383,479.879,2.542,496.972,1.326
		c-2.751-0.569-5.515-1.083-8.253-1.708c-6.529-1.49-11.111-5.158-12.858-11.834c-1.83-6.991-2.282-14.466-8.008-19.937
		c1.033-0.546,1.476-0.862,1.537-0.8c5.31,5.389,12.222,6.961,19.289,8.347c8.283,1.624,13.055,6.83,14.585,15.103
		c1.412,7.636,7.734,12.065,16.511,11.357c-1.976-2.206-4.119-4.066-5.592-6.357c-2.806-4.365-3.191-9.102-0.5-13.714
		c2.337-4.006,5.993-5.656,10.588-5.032c2.452,0.333,4.483,1.41,5.22,3.99c0.869,3.041-0.806,4.466-4.321,3.625
		c0.495-1.461,3.394-0.098,2.947-2.366c-0.377-1.915-1.983-2.536-3.722-2.786c-2.909-0.418-5.234,0.708-7.065,2.881
		c-2.286,2.712-2.439,5.813-1.09,8.921c2.993,6.893,9.396,10.121,15.865,10.636c11.096,0.884,21.945-2.291,33.465-4.998
		c-4.477-2.552-8.349-3.698-12.613-4.009c-13.129-0.957-20.977-8.66-21.574-21.599c-0.273-5.931-2.687-10.732-7.079-16.024
		c2.931,0.335,3.864,1.478,4.865,2.401c4.57,4.212,9.988,6.684,16.109,7.301c10.881,1.098,18.742,7.404,18.533,19.344
		c-0.14,8.015,4.609,11.136,12.517,9.854c7.4-1.2,14.833-2.193,22.227-3.424c2.209-0.368,4.656-0.13,7.188-2.251
		c-3.563-0.964-6.632-1.778-9.692-2.626c-11.821-3.276-22.345-8.601-29.806-18.806c-2.085-2.852-4.824-4.998-7.664-7.083
		c-7.095-5.207-8.62-10.493-5.667-18.756c2.824-7.902,2.824-7.902,1.306-15.052c4.056,6.534,11.897,9.5,15.174,16.753
		c1.865,4.128,0.735,8.09-0.611,12.13c-2.166,6.5-0.504,11.125,5.797,15.568c-4.197-8.286,3.513-15.549,1.754-24.182
		c2.075,6.83,8.786,8.847,12.672,13.642c2.073,2.559,1.762,5.574,1.031,8.596c-2.047,8.464-1.374,9.828,6.918,12.185
		c15.677,4.457,31.649,5.49,48.172,3.394c-14.543-2.395-21.289-12.507-26.143-24.869c-2.385-6.075-8.317-8.858-13.466-12.233
		c-1.281-0.839-3.637-1.236-2.894-3.404c0.618-1.802,2.616-0.949,3.978-0.844c8.795,0.68,16.379-2.189,23.137-7.63
		c1.687-1.358,3.414-2.668,5.092-4.037c7.701-6.282,16.26-8.851,26.893-5.482c-1.554-2.397-2.565-4.026-3.645-5.609
		c-4.96-7.274-6.145-15.121-2.857-23.281c3.441-8.54,4.057-16.64-1.157-24.799c-2.104-3.292-0.731-4.88,3.254-4.428
		c4.264,0.484,7.964,2.475,11.391,4.846c5.135,3.554,10.664,5.13,16.924,4.882c6.197-0.245,12.263,0.818,18.151,2.924
		c8.002,2.863,14.119,7.469,15.749,16.511c6.178-6.012,3.075-19.623-5.182-23.367c-3.941-1.786-8.035-3.219-11.75-5.502
		c-12.812-7.874-17.592-18.236-14.797-33.024c0.987-5.221,2.593-10.331,4.037-15.458c2.944-10.454,2.869-14.772-0.774-24.635
		c3.379-0.249,4.938,2.036,6.136,4.246c6.054,11.167,15.004,19.916,23.845,28.726c11.88,11.837,14.137,23.347,6.509,38.445
		c-3.449,6.827-3.893,13.561-1.815,21.629c8.771-13.93,17.558-26.979,24.294-41.284c5.382-11.43,6.41-23.339,4.238-35.625
		c-0.872-4.934-3.022-9.158-7.51-11.861c-2.725-1.641-5.431-1.444-8.017,0.199c-2.24,1.424-3.63,3.479-3.416,6.249
		c0.236,3.051,1.395,5.894,4.769,6.084c3.923,0.22,3.527-3.048,3.404-7.039c2.266,4.317,1.456,6.907-1.448,8.496
		c-3.533,1.933-6.636,0.543-8.455-2.773c-2.301-4.195-1.7-8.485,1.27-12.154c3.13-3.868,7.325-5.096,12.113-3.548
		c4.842,1.565,7.521,5.285,9.265,9.824c1.404,3.653,2.044,7.513,3.024,11.338c1.794-7.252,1.258-14.405-0.688-21.447
		c-1.565-5.661-4.215-10.864-7.76-15.564c-2.71-3.593-6.345-5.437-10.872-4.806c-3.43,0.478-5.999,2.226-5.922,6.127
		c0.033,1.676,0.636,3.35,2.669,3.742c1.123,0.217,1.98-0.362,2.42-1.344c1.029-2.295-1.221-2.509-2.733-3.352
		c1.47-1.351,2.729-1.412,3.656-0.23c1.291,1.646,0.79,3.513-0.179,5.135c-0.943,1.578-2.399,2.17-4.287,1.681
		c-4.586-1.188-5.503-7.462-1.652-11.493c2.021-2.116,4.335-2.933,10.915-3.746c-4.209-4.228-8.984-6.222-14.507-5.098
		c-12.757,2.595-22.088-1.809-28.726-12.846c-2.569-4.272-5.614-8.238-9.885-11.127c-4.366-2.953-9.021-4.657-14.715-4.105
		c1.366-3.015,3.92-3.016,6.06-3.116c11.643-0.543,23.195-1.906,34.78-3.112c14.612-1.521,24.474,6.468,28.369,22.406
		C1194.142,519.234,1198.868,528.74,1206.518,538.142z M264.616,688.961c0,0,0.139-0.2,0.139-0.2
		c-0.666,0.693-1.568,1.274-1.961,2.098c-3.981,8.337-12.017,12.498-18.573,18.18c3-5.719,7.581-10.362,10.883-15.876
		c-6.556,3.309-10.989,8.079-11.02,15.882c-1.734-0.105-1.289,2.663-3.495,2.37c1.913-7.389,6.377-13.97,6.994-22.921
		c-6.471,6.06-5.983,13.724-8.738,21.114c-1.47-10.238-3.803-19.494-0.438-28.982c-4.602,8.397-1.511,17.322-2.076,25.98
		c-2.398-8.087-3.273-16.027-1.3-24.485c2.068-8.867,10.664-12.596,14.847-20.144c-19.034,11.648-20.585,29.091-17.033,48.542
		c-9.296-11.467-9.117-26.286-16.363-38.135c4.151,11.151,6.151,22.898,10.417,34.257c-1.654-0.609-1.736-2.454-3.272-2.609
		c-0.258-4.996-2.998-9.143-4.76-13.621c0.632,4.859,1.503,9.636,4.852,13.543c-1.712,4-2.393-2.261-3.888-0.394
		c0.981,3.347,4.787,4.238,7.445,7.612c-5.397-1.172-7.867-4.914-11.626-6.401l0.166,0.172c-4.347-6.437-9.36-12.432-12.801-19.474
		c-0.665-1.361-1.844-2.793-3.486-2.222c-1.792,0.623-1.231,2.451-1.043,3.923c0.566,4.437,2.72,8.133,5.238,11.722
		c5.088,7.249,12.161,11.645,20.247,14.809c1.764,0.69,4.967,1.409,4.103,3.891c-0.682,1.962-3.533,0.872-5.48,0.511
		c-6.125-1.136-11.628-3.963-17.336-6.254c-2.894-1.161-5.866-2.974-9.84-0.856c4.855,3.171,10.589,2.395,14.648,5.777
		c-10.659-0.71-21.36,1.33-31.844-1.527c4.444,2.426,9.178,3.481,14.18,3.514c9.834,0.065,19.652,0.421,29.465,1.176
		c1.797,0.138,2.513,1.165,3.282,2.011c1.076,1.185-0.561,1.999-1.257,2.726c-7.298,7.622-15.459,13.7-26.493,14.588
		c-1.013,0.082-2.437-0.232-2.86,1.436c3.176,0.773,6.304,0.409,9.428-0.097c8.093-1.311,14.365-5.861,20.184-11.269
		c1.152-1.07,2.401-3.209,4.042-2.146c1.516,0.982,0.277,3.07-0.131,4.618c-0.932,3.541-2.014,7.043-2.932,10.588
		c-0.387,1.495-1.203,3.25,1.529,4.297c1.371-5.087,2.718-10.085,4.065-15.082c0.46,0.044,0.921,0.088,1.381,0.132
		c-2.732,14.713,5.871,28.41,3.292,43.14c3.044-7.896,4.155-15.919,1.06-24.097c-2.699-7.133-3.377-12.594-2.156-20.216
		c1.592,6.184,1.91,12.699,6.446,19.25c-0.45-8.285-4.105-14.587-3.578-21.797c6.059,7.591,12.546,14.563,19.884,20.759
		c7.414,6.26,15.568,10.863,25.124,12.828c-10.558-5.824-20.127-12.933-29.011-20.98c8.355,2.775,12.366,3.206,18.235,1.669
		c-6.032-10.83-6.032-10.83-18.113-12.66l0.163,0.153c-1.243-2.075-3.653-2.036-5.486-3.044c-1.848-1.016-4.235-1.23-5.817-3.6
		c16.673,3.61,16.673,3.61,19.057,1.316c-2.792-0.271-5.7-0.553-8.609-0.835c19.336-4.775,28.096-8.771,33.639-16.32
		c-12.729,3.799-24.6,8.849-37.562,9.802c10.178,0.208,19.861-1.872,29.214-5.628c-7.675,8.05-24.695,11.005-32.547,5.947
		c5.046-5.392,12.821-8.1,15.486-15.769c0.604-0.773,1.209-1.546,1.813-2.318c3.844-4.311,4.643-9.52,4.409-15.041
		C266.238,685.848,265.427,687.404,264.616,688.961z M1134.451,696.123l0.174,0.182c-2.119-3.435-4.238-6.87-6.358-10.306
		c-0.64,6.693,1.946,12.059,6.089,16.744c3.377,3.819,6.93,7.483,10.405,11.216c-3.851-0.6-6.124-4.939-11.19-4.664
		c3.38,3.649,6.92,5.306,11.148,5.633c0.789,1.228,3.126,0.452,3.298,2.684c-13.887-0.097-26.837-4.452-39.919-8.509
		c2.528,3.494,5.57,6.207,9.238,8.08c9.761,4.987,19.983,8.073,31.187,6.868c-5.386,2.067-10.855,2.933-16.545,2.323
		c6.657,4.062,13.172,0.192,20.913-0.444c-5.947,4.461-11.539,7.457-17.641,7.573c-7.926,0.151-9.385,5.619-11.758,11.028
		c8.189,2.006,15.082,0.129,21.255-5.021c-4.043,5.897-10.346,9.058-15.634,13.385c-5.367,4.391-11.043,8.375-17.346,11.399
		c20.281-5.064,33.625-19.4,46.41-35.554c1.417,8.2-3.306,14.456-2.989,21.458c3.272-5.424,4.769-11.412,6.148-17.464
		c0.754,6.596-0.077,12.914-2.69,19.008c-2.949,6.877-2.07,18.324,1.732,24.347c-2.471-14.29,4.208-27.813,3.078-43.079
		c2.499,3.247,2.25,6.058,3.138,8.489c0.773,2.116-0.039,6.443,2.612,5.833c2.611-0.601,0.395-4.327-0.12-6.54
		c-0.94-4.037-2.344-7.967-3.554-11.941c0.33-0.272,0.659-0.544,0.989-0.816c10.306,7.488,19.931,16.77,34.257,13.798
		c-13.397-0.732-22.98-8.183-31.703-17.264c1.301-1.757,3.265,0.726,2.959-0.149c-1.53-4.385,2.14-2.299,3.155-2.506
		c8.876-1.813,17.902-1.255,26.889-1.374c4.279-0.057,8.612-0.024,12.596-2.233c-9.228,1.086-18.363-0.274-27.601-0.555
		c3.91-2.059,8.46-2.331,12.842-5.222c-2.54-0.912-4.212-0.664-5.9-0.03c-5.448,2.048-10.876,4.153-16.357,6.108
		c-2.653,0.947-5.394,1.658-8.121,2.379c-1.266,0.335-2.289-0.216-2.894-1.399c-0.849-1.659,0.626-2.026,1.554-2.522
		c3.522-1.88,7.137-3.588,10.635-5.51c9.06-4.978,15.135-12.355,17.604-22.492c0.294-1.207,0.815-2.835-0.72-3.59
		c-1.567-0.77-2.433,0.641-3.178,1.689c-1.735,2.44-3.374,4.948-5.03,7.444c-3.805,5.736-8.077,10.996-14.37,14.215
		c0.57-5.01,2.006-9.816,3.29-14.671c0.798-3.02,1.574-6.134,1.204-9.346c1.689-3.836-0.164-7.783,0.725-11.659
		c-4.199,9.92-6.986,20.16-9.811,30.395c-0.944,3.421-2.268,6.795-6.615,9.015c4.04-19.874,3.135-37.631-17.116-49.544
		c3.406,5.069,7.64,7.997,11.036,11.666c3.552,3.838,5.172,8.476,5.58,13.578c0.396,4.953,1.297,9.94-0.436,15.526
		c-1.344-3.536,0.209-6.91-2.13-10.465c-0.196,5.911,0.834,11.271-2.882,15.609c-0.264,0.309-0.481,0.658-0.812,1.114
		c-3.49-14.717-3.611-14.946-8.659-15.882c1.573,6.454,6.566,11.567,7.423,19.313
		C1146.815,707.131,1140.633,701.627,1134.451,696.123z M1165.713,623.79c-0.853-5.386-1.706-10.771-2.559-16.157
		c-0.19,0.008-0.381,0.017-0.571,0.025c-0.183,1.544-0.366,3.088-0.601,5.065c-3.513-2.526-4.368-6.41-7.401-9.752
		c0.507,3.833,2.14,6.167,3.325,8.682c0.345,0.732,1.589,2.046-0.054,2.26c-2.466,0.322-1.416,1.03-0.454,1.826
		C1160.339,618.172,1162.492,621.333,1165.713,623.79z M230.752,608.425c-0.374,4.477-1.827,8.695-0.507,13.138
		c1.786-4.469,8.071-6.148,6.825-12.568c-0.465-2.397,1.581-5.28,2.482-7.942c-1.938,2.273-3.234,4.774-4.593,7.241
		C233.212,611.466,233.19,611.454,230.752,608.425z M1218.57,617.899c1.963-1.411,3.085-2.218,4.283-3.079
		c-1.909-1.371-6.145,4.072-5.729-3.437c-2.601,5.014-6.973,6.929-9.997,10.479c5.622-1.231,11.237-1.936,16.831-3.292
		C1222.546,618.394,1221.135,618.218,1218.57,617.899z M428.711,784.477c0.111-1.68-4.713-3.284,0.129-4.905
		c-4.454-2.89-8.7-5.645-13.423-8.709C417.802,777.982,422.513,781.94,428.711,784.477z M172.599,612.626
		c0.265,1.709,6.722,2.607,0.066,4.911c5.302,0.812,10.143,1.554,15.823,2.425C183.646,614.698,179.158,611.151,172.599,612.626z
		 M190.655,772.18c-5.822,1.81-10.768,4.754-15.746,8.312c3.312-1.421,2.751,0.689,2.433,2.203c1.943,0.538,3.234-4.626,5.312-0.103
		C185.35,779.084,188.003,775.632,190.655,772.18z M965.02,781.902c0.36,2.406,2.44,0.189,3.208,1.527
		c-0.685,1.215-1.409,2.498-2.819,4.999c10.101-9.264,10.101-9.264,11.763-14.584C973.392,777.42,969.032,779.445,965.02,781.902z
		 M1221.651,480.156c4.199-3.929,9.215-7.411,9.583-13.914c-1.612,0.589-1.538,2.932-3.393,3.202
		c-1.027-1.047,0.376-2.653-0.986-3.72c-0.882,2.421-1.731,4.737-2.568,7.058C1223.401,475.237,1222.529,477.698,1221.651,480.156z
		 M1205.67,774.546c2.626,3.613,4.225,6.968,6.836,9.057c2.271,1.817,5.48-0.27,9.545,0.077
		C1216.172,780.234,1211.836,776.897,1205.67,774.546z M173.658,479.532c-2.269-2.474-0.945-10.642-8.872-13.041
		C164.224,474.312,172.903,476.086,173.658,479.532z M1168.637,511.093c6.279,2.603,11.866,1.156,16.868,3.485
		c-2.517-2.936-4.28-6.42-7.913-8.432c-0.745,2.451,1.91,3.013,0.901,4.947C1175.682,511.093,1172.753,511.093,1168.637,511.093z
		 M221.221,429.417c-3.321,3.925-6.27,7.083-7.959,11.305c3.274-1.382,6.223-3.125,9.137-4.926c1.022-0.632,1.669-2.666,0.69-2.44
		C218.916,434.32,221.332,431.428,221.221,429.417z M1175.341,432.481c-0.931,5.565-3.166,0.039-4.843,0.961
		c1.446,6.27,7.492,6.426,11.92,8.738C1180.094,438.995,1177.772,435.812,1175.341,432.481z M335.956,761.981
		c6.696,6.793,7.311,7.055,13.798,6.308C346.19,764.747,341.481,762.971,335.956,761.981z M216.093,505.487
		c-3.585,1.919-5.534,5.274-7.955,8.253c4.317-2.495,9.626-1.635,14.287-4.569c-2.865,0-5.007,0-7.151-0.001
		C214.691,507.776,217.371,507.393,216.093,505.487z M1150.145,707.71c-2.431-5.573-4.672-11.308-11.376-13.209
		C1142.56,698.903,1146.353,703.306,1150.145,707.71z M1057.712,764.849c-4.324,0.918-8.714,1.643-13.117,4.469
		C1051.038,771.68,1054.469,768.472,1057.712,764.849z M474.563,765.797c-4.739,0-9.478,0-14.216,0
		C465.069,768.643,469.809,768.563,474.563,765.797z M479.695,776.559c-4.341-3.227-4.341-3.227-10.683-2.829
		C472.525,774.739,474.708,780.342,479.695,776.559z M155.748,536.663c4.364,0.829,8.143,1.547,12.2,2.318
		C164.795,533.319,160.494,535.427,155.748,536.663z M913.542,777.378c3.727,3.613,5.65,3.225,9.923-1.803
		C920.117,775.861,916.798,775.531,913.542,777.378z M1237.451,538.905c-8.377-2.386-8.377-2.386-11.12,1.997
		C1229.859,539.998,1233.118,538.635,1237.451,538.905z M1156.314,700.1c1.278-4.242-0.858-7.113-3.516-9.654
		c-0.684-0.655-0.592-3.311-2.401-1.662c-1.377,1.255,0.248,2.386,1.259,3.083C1154.566,693.876,1155.932,696.683,1156.314,700.1z
		 M208.482,730.991c4.068-2.08,8.137-4.159,12.205-6.239C215.473,724.637,212.005,727.866,208.482,730.991z M168.233,333.236
		c3.527-0.811,5.867,0.488,8.391,0.073C174.245,332.01,172.438,327.096,168.233,333.236z"/>
	<path fill="FRAME_COLOR" d="M1017.001,218.606c7.426-3.866,10.08-10.844,14.096-16.847c4.312-6.447,10.823-7.981,18.102-6.452
		c6.683,1.404,13.363,1.938,20.776,0.929c-2.35-1.968-4.852-2.153-7.111-2.805c-11.52-3.327-22.985-6.887-35.035-7.901
		c-6.879-0.579-13.677-0.106-20.336,1.595c-7.836,2.002-10.225,6.384-7.758,14.091c1.834,5.73,1.141,10.865-2.982,15.335
		c-2.926,3.172-4.758,6.76-5.12,11.115c-0.119,1.439-0.356,2.997-2.721,4.539c0.969-6.744-2.525-11.666-4.573-17.08
		c-2.222-5.874-0.938-11.126,3.175-15.76c2.375-2.676,4.769-5.336,7.939-8.879c-6.997,1.588-12.839,2.721-18.56,4.298
		c-2.664,0.735-3.983,3.393-5.506,5.585c-7.109,10.23-15.04,13.111-26.781,9.381c-6.997-2.223-14.068-4.092-21.238-5.625
		c-2.085-0.446-4.141-0.9-6.101-3.75c11.002,2.872,18.134-3.004,25.2-8.707c6.644-5.362,13.858-6.117,21.618-3.391
		c7.038,2.472,14.023,1.911,21.078,0.188c-11.544-1.112-22.345-4.654-32.804-9.436c-3.534-1.616-7.312-2.35-11.2-2.078
		c-21.642,1.51-42.819-2.793-64.151-5.12c-1.943-0.212-4.159-0.681-5.643-1.819c-4.634-3.553-9.87-3.204-15.184-3.215
		c-108.166-0.232-216.331-0.497-324.496-0.802c-2.898-0.008-5.453,0.507-8.073,1.875c-8.39,4.382-17.868,3.452-26.836,5.028
		c-15.312,2.69-30.812,3.123-46.327,3.123c-1.977,0-4.079,0.049-5.911,0.685c-10.958,3.806-21.602,8.669-33.497,9.326
		c6.061,2.182,12.199,2.034,18.013,0.321c10.007-2.948,18.348-1.526,26.172,5.918c5.376,5.115,11.937,9.178,20.816,6.903
		c-1.554,3.039-3.946,3.357-6.099,3.763c-7.701,1.453-15.248,3.449-22.787,5.587c-9.876,2.801-18.5-0.904-23.654-10.012
		c-2.313-4.087-5.09-6.666-10.033-7.025c-4.788-0.348-9.418-1.858-14.742-2.537c1.968,1.777,4.047,3.447,5.884,5.351
		c7.012,7.264,8.039,13.085,3.975,22.234c-1.76,3.962-3.649,7.865-3.198,12.436c-2.441,0.211-2.517-1.652-2.587-2.92
		c-0.272-4.937-2.59-8.878-5.603-12.55c-3.446-4.2-4.374-8.77-2.486-14.003c2.814-7.799,0.457-12.106-7.647-14.352
		c-7.519-2.084-15.196-1.966-22.843-1.181c-13.26,1.361-25.93,5.168-38.443,9.626c5.785,0.549,11.324,1.39,17.231-0.094
		c11.821-2.97,17.194-0.106,22.484,10.9c2.294,4.773,5.732,8.355,10.306,11.189c-1.933,1.552-3.192,0.53-4.188,0.008
		c-4.938-2.587-10.191-2.913-15.573-2.542c-5.242,0.362-9.821-1.431-12.685-5.64c-6.392-9.395-15.664-10.661-25.653-9.589
		c-6.784,0.728-13.265,2.964-19.427,6.412c2.12,2.356,4.885,3.197,7.303,4.575c3.502,1.996,6.768,4.296,9.313,7.443
		c3.912,4.837,3.195,6.803-2.711,7.837c-5.241,0.917-9.3,3.744-12.032,8.182c-5.091,8.269-12.069,11.649-22.054,9.131
		c4.731,5.229,9.03,10.748,8.957,17.852c-0.122,11.961-0.492,23.968-2.655,35.771c-0.967,5.274-4.371,9.076-9.785,11.483
		c4.923-8.847-0.97-17.419-12.255-18.55c-3.309-0.332-6.668-0.276-9.945-0.784c-2.266-0.351-4.519-1.168-6.613-2.136
		c-1.924-0.889-3.626-2.259-6.144-3.878c0.839,12.723-7.32,19.104-16.338,24.907c-5.889,3.789-10.247,8.943-13.453,15.143
		c-0.892,1.726-1.731,3.911-4.26,3.534c-2.144-0.32-2.745-2.319-3.226-4.066c-2.233-8.123-6.802-14.589-12.98-20.299
		c-7.495-6.929-9.435-15.786-6.703-26.263c-2.327,1.683-4.038,3.163-5.962,4.269c-7.541,4.337-15.475,4.722-23.636,2.002
		c-7.395-2.464-14.834-3.645-22.592-1.617c-1.917,0.501-4.522,1.419-5.879-1.043c-1.208-2.192,0.681-3.836,1.987-5.204
		c3.698-3.873,4.807-8.409,4.943-13.669c0.292-11.352,5.405-20.371,14.753-27.528c-8.05-3.235-12.859-9.872-17.37-16.751
		c-5.951-9.075-13.813-14.277-25.098-12.917c-0.813,0.098-1.764,0.315-2.222-0.583c-0.573-1.125,0.34-1.836,1.003-2.555
		c2.058-2.232,4.581-3.863,7.16-5.395c10.596-6.295,21.22-12.543,31.816-18.837c9.427-5.6,19.197-7.352,29.572-2.787
		c0.766,0.337,1.54,0.652,2.643-0.043c-4.557-6.661-9.797-12.065-18.505-12.728c-5.308-0.404-10.623-0.902-15.883-1.702
		c-8.124-1.237-13.524-5.995-16.474-13.614c-1.629-4.208-2.827-8.539-3.581-12.98c-2.05-12.07-6.328-22.53-19.371-26.479
		c1.006-2.04,2.396-1.859,3.681-1.558c16.039,3.749,32.396,6.382,47.723,12.711c12.034,4.969,15.552,10.752,15.407,23.936
		c-0.053,4.829-0.337,9.675-0.041,14.484c0.411,6.7,2.897,10.586,9.547,15.457c-5.253-15.393,2.29-25.567,12.082-34.99
		c3.152-3.033,5.318-6.849,6.525-11.093c2.106-7.405,1.933-14.243-6.204-19.631c7.547-1.03,13.474,0.572,17.849,5.454
		c5.547,6.191,12.041,10.875,19.147,15.019c6.893,4.02,11.467,10.038,13.244,19.213c4.698-5.459,10.651-6.115,16.504-7.111
		c3.211-0.546,5.342-2.675,6.791-5.418c3.289-6.224,9.442-7.465,15.411-9.02c1.843-0.48,2.539,0.28,1.761,2.138
		c-1.96,4.683-0.415,9.165,0.905,13.614c2.696,9.085,5.967,17.979,5.831,27.729c-0.134,9.577-3.219,17.564-10.701,23.708
		c7.385,4.843,7.53,4.773,11.85-2.489c4.019-6.755,7.296-13.837,9.916-21.242c2.069-5.847,2.105-11.566-1.657-16.689
		c-11.275-15.35-4.269-29.372,3.02-43.337c1.336-2.56,2.047-2.614,6.156-3.896c-2.428,2.611-4.004,5.029-3.929,8.093
		c0.08,3.248,2.203,5.483,3.996,7.867c1.6,2.129,3.409,4.12,4.836,6.356c4.709,7.377,3.966,13.73-2.401,19.675
		c-2.457,2.294-4.203,4.913-4.215,8.198c-0.055,15.206-6.933,27.892-14.509,40.369c-0.803,1.322-3.271,2.667-0.638,4.486
		c1.904,1.316,3.296,3.637,6.457,1.766c5.734-3.394,11.745-6.359,16.839-10.706c5.221-4.455,9.342-9.648,8.581-17.12
		c-0.52-5.109-5.188-8.125-9.66-6.43c-1.836,0.695-3.166,1.811-3.426,3.885c-0.172,1.374,0.556,2.105,1.706,2.711
		c1.808,0.952,3.405,1.244,4.857-2.666c-0.606,5.424-1.292,6.065-4.099,5.21c-2.857-0.871-4.513-2.843-4.478-5.889
		c0.043-3.712,2.251-5.835,5.661-6.634c6.356-1.49,12.923,3.445,13.501,10.072c0.144,1.647,0.021,3.318,0.021,6.028
		c4.354-5.079,4.53-10.141,3.511-15.385c-0.506-2.604-1.568-5.096-2.199-7.682c-2.373-9.729,0.21-17.756,8.337-23.842
		c4.425-3.314,9.309-5.846,14.238-8.272c8.64-4.254,13.544-10.952,13.877-21.035c3.035,1.482,2.936,4.241,2.868,6.495
		c-0.369,12.302-0.483,24.645-1.671,36.878c-0.989,10.189-6.297,18.185-15.96,22.6c-8.022,3.665-14.692,8.946-20.395,15.663
		c-2.654,3.126-5.95,5.708-8.817,8.833c13.761-5.476,28.322-8.287,42.136-13.463c6.703-2.511,12.335-6.101,13.428-13.951
		c0.54-3.88-0.36-7.322-4.025-9.453c-1.538-0.894-3.355-1.174-4.641,0.181c-1.407,1.482-0.614,2.282,1.271,2.198
		c0.583-0.026,1.321-0.392,1.763,1.05c-2.192,0.861-4.273,0.855-5.185-1.514c-1.025-2.662,1.122-3.931,3.283-4.56
		c4.774-1.39,10.011,2.343,10.969,7.669c0.866,4.813-0.414,9.189-3.384,13.771c5.334-1.213,6.489-5.054,7.689-8.735
		c1.61-4.941,3.252-9.774,7.432-13.319c5.6-4.749,11.868-6.551,19.054-4.852c1.943,0.459,3.904,0.923,5.766,1.625
		c8.623,3.251,17.244,6.226,26.539,1.421c0.044,3.362-1.844,4.517-3.738,5.486c-5.585,2.855-10.241,6.885-14.352,11.504
		c-7.057,7.928-15.796,10.78-26.106,9.113c-7.107-1.149-13.868-0.117-20.539,2.688c23.585,6.573,43.679,5.78,60.747-2.373
		c4.732-2.26,8.823-5.327,12.006-9.55c3.427-4.548,5.598-9.229,3.941-15.265c-1.723-6.28,0.246-11.592,6.072-14.955
		c5.978-3.451,13.244-4.004,19.173-8.519c-5.464,3.619-5.297,8.965-5.75,14.227c-0.541,6.282-4.154,10.909-9.409,13.985
		c-5.136,3.006-8.224,7.593-11.827,13.309c5.768-1.887,10.703-3.453,15.6-5.129c1.826-0.625,2.039-2.326,2.442-4.005
		c1.505-6.258,5.271-10.327,11.849-11.224c3.93-0.536,6.879-2.82,10.012-5.283c-1.805,3.832-2.153,7.673-2.583,11.573
		c-0.787,7.132-8.586,12.756-17.022,11.94c-6.259-0.605-11.178,2.151-16.306,5.065c11.51,0.1,23.051,1.072,34.283-2.379
		c3.815-1.172,5.248-4.186,5.613-8.03c1.993-20.972,5.032-24.662,25.569-29.508c9.996-2.359,17.541-7.598,22.366-17.237
		c1.372,3.717-3.695,30.724-7.431,41.818c3.179,1.382,6.547,0.763,9.789,0.772c101.332,0.278,202.664,0.507,303.997,0.696
		c3.298,0.006,7.615,1.548,9.621-0.596c1.799-1.923-1.204-5.679-1.529-8.765c-0.923-8.774-2.026-17.506-5.222-25.857
		c-0.693-1.812-1.381-4.12-0.015-6.146c0.43,0.05,0.951-0.015,1.025,0.138c4.904,10.08,13.781,14.367,24.065,16.771
		c3.388,0.792,6.747,1.889,9.957,3.234c8.324,3.488,12.603,10.013,13.453,18.883c0.175,1.822,0.103,3.666,0.233,5.494
		c0.486,6.836,2.766,9.691,9.323,11.086c3.244,0.69,6.592,1.119,9.905,1.203c7.076,0.178,14.159,0.055,22.589,0.055
		c-6.714-3.042-12.101-5.291-18.512-5.309c-9.159-0.026-16.532-3.726-16.959-14.233c-0.13-3.2-1.602-5.97-2.485-10.147
		c4.062,4.103,8.185,5.651,12.575,6.8c4.939,1.293,8.072,4.755,9.236,9.606c0.896,3.736,3,5.602,6.563,6.574
		c4.117,1.124,8.127,2.637,13.313,4.355c-4.179-5.395-7.012-10.279-12.282-12.972c-7.096-3.626-10.54-9.688-10.347-17.467
		c0.119-4.803-2.842-7.539-5.372-11.033c6.764,4.498,15.315,4.871,21.606,10.071c4.003,3.309,4.973,8.108,3.765,12.786
		c-2.319,8.976,2.217,14.922,8.425,19.771c14.074,10.994,30.316,13.879,47.704,11.388c6.576-0.942,13.121-2.099,20.257-3.251
		c-5.149-2.778-10.134-3.822-15.47-3.454c-3.821,0.264-7.647,0.468-11.472,0.674c-6.742,0.364-12.479-2.029-17.124-6.777
		c-5.734-5.862-11.691-11.385-18.923-15.399c-1.247-0.692-2.69-1.499-2.54-4.198c10.859,5.341,20.619,0.086,30.772-2.538
		c14.276-3.691,23.875,2.032,28.269,16.29c1.322,4.288,2.219,8.865,8.176,10.364c-1.068-3.272-3.005-5.813-3.481-8.903
		c-1.075-6.98,3.571-13.261,9.758-12.796c1.955,0.147,4.579,0.379,4.676,2.778c0.11,2.746-2.302,3.12-4.721,3.149
		c0.198-1.837,3.549-0.821,2.464-2.806c-1.01-1.846-2.953-0.885-4.415-0.065c-6.305,3.536-5.274,14.351,1.858,18.932
		c4.517,2.901,9.508,4.831,14.612,6.389c11.579,3.535,23.31,6.583,34.714,10.957c-9.643-7.718-15.789-19.17-28.073-24.018
		c-11.143-4.398-16.551-13.722-17.109-25.477c-0.474-9.975-0.523-19.948-1.795-29.893c-0.455-3.56-0.524-7.614,3.057-11.878
		c-0.807,14.038,8.31,19.343,17.885,24.389c3.38,1.781,6.628,3.861,9.755,6.063c9.128,6.429,11.785,14.003,8.687,24.817
		c-1.767,6.167-3.306,12.28-0.531,18.535c0.457,1.03,1.117,1.969,2.294,4.012c0.152-3.116,0.116-5.141,0.373-7.129
		c0.828-6.404,7.641-10.969,13.559-9.217c2.886,0.854,4.439,2.831,4.948,5.684c0.415,2.33-0.268,4.37-2.277,5.675
		c-2.283,1.483-4.55,1.976-6.262-1.11c0.402-0.335,0.672-0.731,0.869-0.697c1.797,0.308,3.619,2.047,5.297-0.35
		c1.054-1.505,0.685-2.908-0.201-4.172c-1.371-1.956-3.354-2.721-5.697-2.1c-4.078,1.08-6.048,3.936-6.266,8.008
		c-0.333,6.231,2.891,10.772,7.3,14.655c5.435,4.786,11.944,7.838,18.219,11.289c2.694,1.481,3.986-0.38,5.624-1.652
		c2.058-1.598,0.364-2.998-0.399-4.29c-7.163-12.127-13.517-24.503-14.058-39.047c-0.134-3.598-2.155-6.564-4.625-9.193
		c-5.953-6.336-6.625-12.639-2.033-19.92c1.505-2.386,3.365-4.549,5.085-6.796c4.981-6.51,5.03-8.637-0.036-15.151
		c3.377,0.175,5.22,2.112,6.435,4.362c4.221,7.81,7.33,16.092,8.331,24.938c0.617,5.459-1.245,10.616-4.344,15.097
		c-4.345,6.282-4.794,12.836-2.692,19.994c2.517,8.573,6.553,16.352,11.322,23.83c1.287,2.018,2.585,2.794,4.863,1.462
		c1.543-0.902,3.298-1.442,5.224-2.256c-12.294-11.104-11.962-24.741-8.593-38.922c1.036-4.361,2.734-8.562,4.063-12.857
		c1.615-5.221,2.26-10.437-1.042-16.217c7.141,1.082,13.497,2.168,17.426,8.202c2.823,4.336,6.402,7.034,11.643,7.581
		c4.737,0.494,8.763,2.779,12.996,6.517c1.528-12.271,9.708-18.258,19.058-23.266c4.17-2.233,7.446-5.526,10.538-9.08
		c5.355-6.155,11.301-8.276,18.946-7.084c-6.886,7.919-7.553,15.313-1.964,24.794c1.509,2.56,3.282,5.125,5.467,7.097
		c10.101,9.113,13.793,20.121,9.877,34.73c7.224-5.915,10.048-12.358,10.207-20.156c0.115-5.655-0.764-11.282-0.054-16.973
		c0.949-7.612,4.722-12.935,11.573-16.308c4.506-2.218,9.134-4.099,13.98-5.324c10.815-2.733,21.674-5.291,32.52-7.903
		c2.725-0.656,5.468-1.03,8.508-0.34c-0.307,0.747-0.381,1.428-0.654,1.52c-9.823,3.298-15.001,10.427-17.213,20.258
		c-1.423,6.324-2.497,12.743-4.955,18.819c-3.015,7.452-8.4,11.904-16.272,13.151c-5.258,0.833-10.565,1.501-15.875,1.822
		c-8.782,0.53-13.747,6.208-18.758,12.662c0.892,0.19,1.275,0.409,1.516,0.304c13.597-5.945,25.4-2.308,36.941,5.925
		c8.517,6.075,17.865,10.984,26.838,16.42c0.854,0.517,1.748,1.003,2.497,1.65c1.718,1.486,4.586,2.929,3.694,5.331
		c-0.748,2.014-3.552,0.34-5.419,0.395c-7.673,0.225-13.827,3.36-18.546,9.315c-1.651,2.083-3.03,4.382-4.528,6.586
		c-3.981,5.855-8.45,11.176-15.551,13.935c10.706,7.024,14.561,17.308,14.602,29.217c0.018,5.374,2.914,9.03,5.788,12.894
		c0.998,1.342,2.283,2.677,1.287,4.467c-1.033,1.856-2.982,1.455-4.492,1.03c-8.406-2.367-16.398-0.728-24.537,1.658
		c-10.223,2.997-19.746,0.954-28.38-6.081c2.271,10.383-0.271,18.922-7.719,25.883c-5.718,5.344-10.151,11.394-11.915,19.223
		c-0.395,1.752-0.744,4.198-3.343,4.441c-2.399,0.224-3.56-1.537-4.491-3.357c-4.01-7.833-10.406-13.259-17.638-17.96
		c-7.67-4.986-12.948-11.511-12.206-22.862c-7.006,7.663-15.285,8.204-23.831,8.183c-3.199-0.008-6.039,1.774-8.651,3.621
		c-6.127,4.333-6.741,8.628-1.675,14.764c-4.66-1.196-7.202-4.085-9.18-7.547c-1.934-3.387-2.722-7.137-2.906-11.014
		c-0.387-8.152-0.604-16.304-1.331-24.45c-0.596-6.683,1.73-12.781,5.883-18.136c0.989-1.275,2.509-2.224,2.79-3.996
		c-0.941-0.831-1.928-0.339-2.845-0.172c-6.938,1.26-12.598-0.859-16.534-6.699c-3.933-5.835-8.773-9.781-16.119-10.451
		c-3.567-0.325-4.166-3.299-1.442-6.72c3.472-4.359,7.914-7.58,12.863-10.131c1.552-0.8,3.525-1.029,4.538-3.171
		c-10.749-5.56-21.95-7.541-33.828-5.316c-4.147,0.777-7.346,3.132-9.705,6.535c-4.246,6.126-9.844,9.237-17.438,8.476
		c-4.403-0.441-8.595,0.514-12.642,2.294C1021.247,218.594,1019.876,219.818,1017.001,218.606z M231.615,199.154
		c0.456-3.048,3.623-5.358,2.679-9.095c-4.841,4.284-6.397,8.456-4.596,11.846c6.167-0.885,8-5.939,10.262-10.595
		C236.173,192.876,234.95,197.129,231.615,199.154z M224.753,172.99c-2.603,0.264-3.393,2.455-4.332,4.309
		c-2.352,4.645-3.781,9.574-3.827,14.825c-0.041,4.746-0.009,9.494-0.009,14.24c-0.621,0.173-1.243,0.346-1.864,0.519
		c-9.13-12.681-10.723-28.048-13.694-43.297c-0.526,0.654-0.986,1.084-1.278,1.609c-5.836,10.476-3.392,20.518,1.537,30.474
		c0.898,1.813,3.025,3.308,1.887,5.809c-0.494-0.613-0.987-1.226-1.481-1.839c-2.455-3.347-4.872-6.722-7.385-10.024
		c-0.805-1.058-1.895-2.123-3.387-1.485c-1.767,0.755-1.469,2.511-1.291,3.935c0.311,2.487,2.369,3.918,3.868,5.668
		c3.829,4.47,9.07,7.183,13.445,11.153c-4.432-1.64-8.864-3.281-14.412-5.335c3.236,4.908,7.688,5.298,11.562,7.75
		c-16.234-1.614-24.524-4.645-30.619-11.008c3.563-0.493,6.145,3.079,11.195,2.405c-7.609-3.858-14.487-5.738-21.123-7.783
		c11.778,12.064,26.867,17.343,43.05,20.377c-6.32,0.382-12.215,2.764-18.418,2.137c-0.835-0.084-1.827,0.239-2.019,1.133
		c-0.272,1.265,0.869,1.693,1.79,1.963c3.081,0.903,5.917-0.142,8.703-1.308c3.159-1.323,6.361-2.304,10.01-1.468
		c-12.18,6.952-25.719,11.565-35.865,21.768c9.647-5.855,18.901-12.446,30.241-14.899c-5.776,3.219-11.553,6.438-17.329,9.657
		c8.091-1.682,16.005-3.68,22.616-9.022c0.411,0.501,0.821,1.002,1.232,1.503c-2.557,2.069-5.113,4.139-7.67,6.208
		c3.246-1.036,6.14-2.311,8.063-5.032c1.21-1.713,3.509-2.103,4.876-1.496c1.73,0.769,0.063,2.675-0.271,3.974
		c-1.133,4.41-2.152,8.796-1.103,13.508c0.56-2.53,1.119-5.061,1.679-7.591c0.577,0.073,1.155,0.147,1.732,0.22
		c-3.42,12.392-0.111,24.869-1.491,36.748c7.584-11.748,2.485-24.989,2.364-39.006c2.709,4.409,2.422,8.877,5.731,13.265
		c-0.394-8.967-5.345-16-3.177-24.835c6.023,8.556,9.85,17.543,17.255,24.032c7.317,6.412,14.59,12.69,24.307,15.064
		c-16.529-10.737-25.403-18.516-28.251-25.074c2.9,1.806,4.428,5.435,8.157,6.141c1.031,2.98,3.881,3.275,6.28,4.154
		c1.405,0.515,3.061,0.884,4.243-0.365c1.358-1.434,0.672-3.121,0.002-4.668c-1.88-4.341-5.256-7.167-9.354-9.316
		c-4.698-2.464-9.275-5.134-13.217-8.751c6.324,1.915,11.766,6.749,18.993,5.741c-5.793-2.362-11.825-4.102-17.321-7.112
		c-1.222-0.67-3.124-0.934-3.19-2.747c-0.09-2.458,2.611-1.182,3.599-2.311c-0.843-0.927-2.562,0.143-3.051-1.443
		c21.886-7.584,28.904-12.252,31.38-20.938c-1.792,0.22-2.867,1.566-4.123,2.529c-6.228,4.773-12.942,8.645-20.314,11.376
		c-2.764,1.024-5.424,1.892-7.641-0.895c1.106,1.208,2.414,0.911,3.638,0.349c4.771-2.188,9.524-4.417,14.254-6.691
		c0.642-0.309,1.406-0.842,0.63-2.244c-6.318,2.608-11.984,6.613-18.525,8.625c-0.029,0.283-0.02,0.579-0.105,0.844
		c-0.036,0.112-0.269,0.16-0.413,0.238c1.417-3.076-2.485-1.233-3.067-3.5c-1.998-7.785-2.651-15.233,0.85-22.737
		c0.782-1.676,2.072-3.431,1.122-5.597c-5.686,7.11-4.68,15.633-5.16,23.828c-2.017-10.209-0.603-19.736,5.389-28.363
		c6.598-3.38,14.359-4.544,19.933-9.858c-3.564,0.964-6.999,2.137-10.288,3.631C230.804,168.252,226.693,169.017,224.753,172.99z
		 M1181.876,227.859c0.002-0.629-0.224-1.664,0.046-1.816c1.21-0.68,1.706,0.589,2.293,1.233c2.91,3.197,5.213,7.112,10.509,8.645
		c-3.02-3.398-6.626-5.138-8.659-9.416c7.777,4.79,15.62,7.645,23.643,10.07c-3.945-4.029-9.591-5.308-13.925-9.317
		c10.959,1.159,17.465,10.611,27.198,13.415c-10.513-9.932-23.757-15.117-36.633-21.004c3.941-1.104,7.464-0.634,10.849,0.909
		c2.295,1.046,4.66,1.765,7.22,1.645c1.502-0.071,3.731-0.039,3.751-1.621c0.029-2.289-2.349-1.709-3.852-1.635
		c-5.812,0.284-11.369-0.892-16.877-2.474c10.787,0.242,19.828-5.194,29.324-8.923c2.449-0.962,4.925-2.746,6.003-5.596
		c1.554-2.996,5.749-1.96,7.975-5.326c-7.822,1.424-14.395,4.152-20.672,7.723c2.86,0.603,4.958-1.34,7.421-2.015
		c1.731-0.475,3.474-2.531,5.391-0.316c-1.622-0.492-2.352,0.953-3.408,1.623c-8.948,5.677-18.708,8.943-29.242,10.072
		c3.996-1.589,7.886-3.255,11.636-6.745c-6.141,0.257-10.852,3.537-17.698,4.009c7.653-4.381,14.742-7.385,17.588-15.121
		c-3.808,4.236-7.848,8.147-14.397,11.127c5.313-5.161,10.1-8.86,13.189-14.119c0.426-0.725,0.896-1.38,1.951-1.119
		c0.699,0.174,1.947,1.671,1.897-0.515c-0.028-1.21-1.108-1.561-2.181-1.557c-1.774,0.006-2.46,1.466-3.408,2.605
		c-2.446,2.94-4.294,6.461-8.129,8.289c2.514-5.604,5.616-10.876,6.12-17.135c0.703-8.735-0.456-14.139-4.101-17.224
		c-7.49,33.819-9.171,38.428-14.959,41.007c1.231-33.859-8.564-36.392-28.847-43.036c4.129,4.306,9.4,5.508,14.214,7.498
		c3.626,1.499,6.831,3.279,8.756,6.95c3.341,6.371,5.266,16.916,4.2,24.281c-1.147-8.307-1.323-16.841-7.123-23.754
		c3.4,8.083,5.56,16.352,4.194,25.514c-1.465-8.375-8.135-12.672-13.53-18.06c-0.947,2.832-0.322,5.964-0.656,9.217
		c-2.335-1.054-3.248-3.721-5.964-3.887c3.274,7.412,10.106,10.462,15.654,14.89l-0.174-0.174c-0.75,0.5,2.348,3.532-1.501,2.1
		c-5.68-2.112-10.948-5.12-16.688-7.207c3.892,4.669,10.344,5.298,14.599,9.419c-10.975-2.247-20.05-8.39-29.35-14.176
		c6.619,12.509,18.227,17.253,32.313,19.65c-3.081,1.126-5.044,1.843-7.007,2.561c-11.369,0.596-22.731,1.437-34.13,1.149
		c-1.849-0.609-3.646-1.523-6.331-0.921c12.753,10.442,26.718,8.562,41.737,5.379c-4.912,3.956-10.297,3.89-14.739,6.178
		c5.671,1.14,10.399-1.797,15.49-3.353c-4.861,3.779-9.84,7.262-14.853,10.695c-1.97,1.349-3.596,2.958-4.497,5.201
		c-0.559,1.392-1.269,2.87-0.079,4.224c1.244,1.417,2.941,1.502,4.605,0.932c4.357-1.492,7.862-4.242,10.996-7.552
		c0.988-1.043,1.728-2.565,4.27-3.056c-8.082,11.771-19.031,18.758-29.944,25.793c15.411-5.192,26.861-15.22,35.164-29.03
		c1.538-2.559,2.714-5.333,4.12-7.974c0.437-0.82,0.861-1.982,2.147-1.508c0.948,0.349,0.79,1.377,0.823,2.172
		c0.183,4.366-0.689,8.583-1.693,12.808c-0.56,2.355-1.702,4.797-0.388,8.136c2.209-4.094,1.646-8.248,4.157-12.332
		c0.596,14.141-4.118,27.843,3.567,40.005c-2.281-12.439,0.878-25.354-2.295-39.177c3.55,3.163,1.853,6.947,4.641,9.297
		c0.364-6.064-1.996-11.424-2.266-17.04c1.969,1.422,2.845,3.608,3.96,5.634c2.397,4.352,4.765,8.721,7.27,13.01
		c0.684,1.172,1.916,2.051,3.349,1.063c0.967-0.667,0.178-1.592-0.275-2.109C1190.496,240.784,1187.388,233.439,1181.876,227.859z
		 M266.39,220.246c-12.771,6.023-25.481,4.669-38.186-0.107c11.791,7.426,35.486,8.963,45.346-3.019
		c-12.876,2.915-25.314,1.921-37.747,1.08C245.947,220.293,256.075,222.194,266.39,220.246z M1254.628,135.968
		c-0.17-0.067-0.341-0.133-0.511-0.2c-1.487,1.327-2.992,2.636-4.457,3.987c-1.345,1.241-2.775,2.422-3.938,3.821
		c-1.436,1.726-2.305,0.797-3.256-0.399c-4.203,3.779-8.78,7.274-9.912,13.514c3.066-3.112,8.052-2.588,10.452-7.967
		C1245.23,143.737,1250.627,140.164,1254.628,135.968z M146.291,148.158c5.825,2.297,10.833,3.599,15.725,6.85
		c-1.482-6.387-6.327-9.142-9.66-13.181c-1.565,2.386,0.884,4.113,0.748,6.332C151.039,148.158,149.243,148.158,146.291,148.158z
		 M894.856,166.83c-6.128-8.35-6.128-8.35-14.04-8.132C882.785,162.488,884.819,163.694,894.856,166.83z M209.939,231.819
		c-0.362-0.312-0.724-0.624-1.086-0.936c-3.284,4.288-6.633,8.529-9.806,12.897c-0.748,1.03-2.505,2.608-0.67,3.754
		c1.778,1.111,3.027-0.647,3.806-2.117C204.625,240.808,206.848,236.084,209.939,231.819z M234.846,186.737
		c-5.767,1.324-11.109,8.951-10.709,14.68C229.794,197.919,228.997,190.001,234.846,186.737z M500.419,165.147
		c2.915-1.41,5.89-2.713,8.709-4.295c0.891-0.5,2.657-0.862,1.934-2.714c-1.531,0.761-1.693-2.571-4.242-0.9
		C503.804,159.214,501.953,161.792,500.419,165.147z M338.148,150.696c-2.054,4.516-2.462,9.152-3.601,14.46
		c3.625-4.214,6.405-7.854,6.723-13.053C337.447,157.055,339.242,151.345,338.148,150.696z M1060.167,167.028
		c-1.368-4.933-2.607-9.403-3.891-14.035C1053.054,158.54,1053.709,160.987,1060.167,167.028z M1008.395,169.905
		c-3.143-2.603-4.361-6.339-8.554-4.229c-0.623,0.314-1.733-1.632-2.054,0.259c-0.218,1.282,0.073,2.454,1.895,2.624
		C1002.14,168.79,1004.572,169.298,1008.395,169.905z M396.979,163.693c-4.243-0.641-7.898-0.59-9.906,4.479
		C390.381,166.231,395.098,168.738,396.979,163.693z M150.507,142.946c-3.787-3.478-7.575-6.955-11.362-10.433
		C142.433,136.585,145.654,140.709,150.507,142.946z M427.643,192.364c0.569,1.597,1.944,2.265,3.207,2.907
		c1.603,0.816,3.831,1.723,4.569-0.551c0.503-1.549-1.855-1.784-3.126-2.218C430.817,191.999,429.261,191.442,427.643,192.364z"/>
	<path fill="FRAME_COLOR" d="M1071.012,202.981c-0.717,5.228,0.608,9.675,2.788,14.112c1.952,3.973,2.902,8.327-0.116,12.268
		c-3.831,5.003-5.975,10.273-3.952,16.919c-3.896-6.555-9.917-11.48-11.881-18.932c-0.591-2.242-0.359-4.621,0.486-6.863
		C1060.966,213.502,1066.63,208.788,1071.012,202.981z"/>
	<path fill="FRAME_COLOR" d="M323.954,200.799c3.396,4.661,7.014,9.179,10.132,14.018c4.079,6.33,3.618,11.367-0.82,17.498
		c-2.952,4.078-5.772,8.253-9.382,12.338c3.455-6.865,0.871-12.34-2.853-17.805c-2.055-3.015-2.176-6.827-0.947-10.12
		c1.911-5.123,3.697-10.166,2.64-15.863C323.134,200.843,323.544,200.821,323.954,200.799z"/>
	<path fill="FRAME_COLOR" d="M260.827,701.651c-5.243,4.945-10.699,9.567-17.964,11.529c4.81-4.207,9.569-8.476,14.447-12.601
		c3.756-3.176,6.49-6.916,7.446-11.817c0,0-0.14,0.199-0.14,0.199c2.401,4.04-1.903,6.803-1.977,10.372
		C262.035,700.105,261.431,700.878,260.827,701.651z"/>
	<path fill="FRAME_COLOR" d="M1134.451,696.123c2.636,6.471,9.132,9.344,13.394,14.309c1.491,1.737,3.452,3.071,4.95,4.861
		c-9.046-4.178-16.456-10.138-21.413-19.883c1.514,0.418,2.378,0.656,3.243,0.895
		C1134.625,696.306,1134.451,696.123,1134.451,696.123z"/>
	<path fill="FRAME_COLOR" d="M203.171,201.478c1.518-0.432,1.578,0.617,1.748,2.192c-6.634-2.803-11.008-7.369-14.137-13.266
		c4.993,1.561,5.932,7.652,10.903,9.228C202.184,200.252,202.678,200.865,203.171,201.478z"/>
	<path fill="FRAME_COLOR" d="M1150.044,729.938c-1.814,2.085-4.298,5.173-7.037,8.017c-2.453,2.546-5.543,4.214-9.076,4.725
		c-2.283,0.33-5.12,0.596-5.786-2.279c-0.657-2.836,1.782-4.004,4.151-4.563c3.202-0.755,6.557-1.002,9.643-2.061
		C1145.167,732.669,1148.153,730.857,1150.044,729.938z"/>
	<path fill="FRAME_COLOR" d="M1146.302,720.171c-11.761,2.707-22.293,0.082-31.513-7.745C1124.699,717.353,1135.708,717.655,1146.302,720.171z"/>
	<path fill="FRAME_COLOR" d="M1171.977,712.328c9.408-6.04,16.788-13.899,22.074-24.686C1194.805,697.261,1183.557,709.537,1171.977,712.328z"/>
	<path fill="FRAME_COLOR" d="M1164.29,721.513c-0.44,2.435-1.908,4.294-4.706,4.522c-2.818,0.23-5.038-1.028-4.957-4.113
		c0.078-2.99,2.018-4.855,5.066-4.971C1162.463,716.845,1163.773,718.668,1164.29,721.513z"/>
	<path fill="FRAME_COLOR" d="M1177.766,684.961c-1.906,6.263-3.804,12.529-5.723,18.788c-0.526,1.715-0.911,3.512-2.375,4.764
		c1.956-9.282,3.909-18.565,7.292-27.923C1178.199,682.352,1177.69,683.69,1177.766,684.961z"/>
	<path fill="FRAME_COLOR" d="M253.288,729.629c2.125,2.578,5.388,2.244,8.164,3.11c1.785,0.557,3.415,0.949,4.329,2.884
		c1.739,3.681,0.821,5.397-3.217,5.289c-4.839-0.129-8.823-2.393-12.658-5.263c1.712-1.618,3.236,0.766,5.175-0.457
		c-3.962-2.648-8.54-4.03-12.094-7.727c4.054-0.614,6.974,2.323,10.475,2.325C253.451,729.782,253.288,729.629,253.288,729.629z"/>
	<path fill="FRAME_COLOR" d="M235.265,724.489c-3.299-0.46-5.152-2.302-5.117-5.292c0.03-2.557,1.691-4.541,4.447-4.183
		c2.647,0.343,5.229,1.461,5.234,4.875C239.833,723.026,237.669,724.024,235.265,724.489z"/>
	<path fill="FRAME_COLOR" d="M215.65,704.768c0.039,2.389,2.62,2.788,3.481,4.494c-7.968-1.529-18.476-14.454-18.345-23.045
		c5.065,6.481,7.603,14.612,15.028,18.725C215.816,704.941,215.65,704.768,215.65,704.768z"/>
	<path fill="FRAME_COLOR" d="M1126.658,220.799c11.502,2.217,22.807,0.949,34.021-1.925c2.616,0,5.232,0,8.24,0
		C1158.18,226.209,1136.084,228.29,1126.658,220.799z"/>
	<path fill="FRAME_COLOR" d="M1170.103,223.882c-4.087,7.889-10.172,13.974-16.442,19.89c-0.699,0.66-1.669,1.086-2.58,1.457
		c-1.367,0.557-3.016,1.336-4.076-0.167c-0.884-1.253,0.305-2.559,1.009-3.609c0.724-1.08,1.659-2.134,2.737-2.842
		C1157.531,234.161,1164.61,230.115,1170.103,223.882z"/>
	<path fill="FRAME_COLOR" d="M1185.863,201.599c2.282-11.023,6.943-20.752,6.917-31.782C1197.815,176.388,1194.426,192.257,1185.863,201.599z"/>
	<path fill="FRAME_COLOR" d="M1178.166,211.343c3.207,0.356,5.307,1.726,5.266,4.623c-0.043,3.055-2.143,4.746-5.156,4.825
		c-3.065,0.081-4.575-1.849-4.362-4.709C1174.112,213.402,1175.671,211.575,1178.166,211.343z"/>
	<path fill="FRAME_COLOR" d="M1168.639,206.846c-2.204-5.232-5.93-9.709-7.639-15.259c0.333-0.068,0.758-0.243,0.821-0.156
		c3.132,4.34,6.264,8.68,9.316,13.076c0.815,1.175,2.023,2.804,0.45,3.886c-1.241,0.855-1.788-1.572-3.118-1.719
		C1168.464,206.672,1168.639,206.846,1168.639,206.846z"/>
	<path fill="FRAME_COLOR" d="M1142.304,203.219c5.948,4.074,12.3,7.083,19.008,9.386C1154.059,211.335,1147.366,208.872,1142.304,203.219z"/>
	<path fill="FRAME_COLOR" d="M225.528,223.997c3.281,4.363,7.67,7.239,12.545,9.527c3.162,1.484,6.42,3.005,8.337,6.102
		c0.808,1.305,1.968,3.078,0.66,4.599c-1.148,1.334-2.772,0.517-4.176-0.022c-1.073-0.412-2.149-0.816-3.224-1.223
		c-4.029-4.319-8.078-8.62-12.08-12.964c-1.876-2.036-3.822-4.048-4.693-6.823C224.145,222.55,224.545,224.161,225.528,223.997z"/>
	<path fill="FRAME_COLOR" d="M208.112,201.199c-8.781-9.247-11.268-20.068-8.312-32.251C201.504,179.979,205.455,190.42,208.112,201.199z"/>
	<path fill="FRAME_COLOR" d="M215.492,218.968c-3.384-0.02-5.082-1.579-5.164-4.806c-0.072-2.862,1.404-4.305,4.193-4.228
		c3.069,0.084,4.98,1.677,5.098,4.846C219.726,217.644,218.046,218.912,215.492,218.968z"/>
</g>
</svg>
