<?xml version="1.0" encoding="iso-8859-1"?>
<!-- Generator: Adobe Illustrator 25.0.0, SVG Export Plug-In . SVG Version: 6.00 Build 0)  -->
<svg version="1.1" id="Layer_1" xmlns="http://www.w3.org/2000/svg" xmlns:xlink="http://www.w3.org/1999/xlink" x="0px" y="0px"
	 viewBox="0 0 1415.327 1022.243" style="enable-background:new 0 0 1415.327 1022.243;" xml:space="preserve">
<g id="_x28_23_x29__1_">
	<path fill="FRAME_COLOR" d="M163.337,100c2.479,4.195,2.033,9.03,2.844,13.569c1.836,10.273,6.535,18.732,14.658,25.328
		c5.687,4.618,11.924,8.479,17.492,13.287c11.367,9.815,16.889,22.473,18.692,36.994c1.251,10.076,2.056,20.206,3.267,30.287
		c0.411,3.421-0.356,5.4-4.066,5.802c-1.08,0.117-2.295,0.776-3.075,1.559c-3.759,3.769-5.845,2.402-8.478-1.666
		c-8.595-13.278-17.445-26.379-23.756-40.974c-0.223-0.515-0.657-0.939-1.27-1.242c4.35,13.353,10.86,25.594,18.854,37.076
		c1.902,2.732,3.797,5.492,5.961,8.01c2.104,2.448,2.354,4.154-0.319,6.574c-5.105,4.622-4.985,4.852-10.021,0.124
		c-4.54-4.262-9.727-7.548-15.215-10.385c-21.588-11.163-30.779-29.393-30.401-53.118c0.13-8.185,1.086-16.266,2.765-24.279
		c2.764-13.194,5.455-26.404,8.139-39.614c0.536-2.636,1.336-5.134,2.929-7.331C162.671,100,163.004,100,163.337,100z"/>
	<path fill="FRAME_COLOR" d="M305.06,253.619c2.641-2.995,5.229-6.037,7.932-8.974c7.741-8.413,16.49-10.18,27.055-5.778
		c11.784,4.91,18.938,13.064,19.789,26.29c0.374,5.809-1.802,10.594-3.953,15.714c-2.364,5.627-5.863,8.646-11.916,9.34
		c-2.89,0.332-5.656,1.746-8.252,3.469c3.903-0.907,7.785-1.914,11.712-2.702c14.145-2.836,23.951,1.928,30.492,14.721
		c7.514,14.695,3.56,34.378-8.966,44.626c-7.753,6.343-13.047,6.591-21.393,1.156c-4.462-2.906-9.089-5.505-14.717-5.853
		c3.78,2.005,7.501,4.133,11.354,5.987c6.684,3.216,9.464,8.45,10.097,15.819c0.922,10.741-1.52,19.808-10.023,26.818
		c-6.721,5.541-14.662,6.388-23.023,6.543c-7.828,0.145-12.894-2.661-15.609-10.217c-1.557-4.333-3.848-8.461-6.922-12.091
		c0.771,4.506,3.185,8.368,5.087,12.407c7.749,16.457,0.828,30.014-17.041,33.237c-1.147,0.207-2.355,0.322-3.404,0.78
		c-12.35,5.394-24.524,2.216-36.698-0.7c-5.955-1.426-10.339-4.804-13.64-10.09c-7.202-11.533-9.678-23.595-5.398-36.748
		c0.504-1.55,0.763-3.179,1.113-4.674c-1.464-1.04-2.12,0.029-2.685,0.68c-7.953,9.153-18.018,9.869-28.82,7.065
		c-15.521-4.03-25.069-15.962-26.859-33.522c-0.777-7.618-1.329-15.267-1.731-22.915c-0.585-11.126,7.161-20.576,18.732-23.253
		c5.211-1.206,10.532-0.867,16.254-1.084c-0.674-2.031-2.189-2.782-3.448-3.689c-14.818-10.676-17.914-24.419-8.304-40.037
		c5.142-8.355,11.236-16.128,18.71-22.665c11.573-10.121,24.415-8.142,32.35,5.014c3.687,6.114,5.643,12.994,8.568,19.564
		c-1.373-9.143-1.136-18.01,3.588-26.118c6.604-11.335,15.955-19.022,29.355-20.876c1.999-0.277,4.147-0.282,5.825,0.91
		c8.298,5.899,16.5,11.935,20.083,22.121c1.653,4.7,1.538,9.078-2.039,13.059c-1.61,1.791-2.751,4.003-4.106,6.024
		C304.494,253.193,304.777,253.406,305.06,253.619z M276.423,308.252c-0.848-3.782-4.846-3.919-7.07-6.11
		c-0.73,1.101-3.799-1.599-3.063,1.885l0.141-0.001c-1.843-3.467,0.398-7.497-1.219-11.518c-1.361,1.418-0.523,2.858-1.037,3.625
		c-1.353,2.016,0.642,5.979-2.995,6.341c-4.743,0.473-7.083,4.179-10.42,6.555c-0.469,0.794-0.938,1.587-1.408,2.381
		c-2.221,3.538-2.138,7.702-2.094,11.491c0.031,2.669-1.217,2.807-3.846,3.268c2.93,1.42,6.562,2.516,6.491,3.25
		c-0.603,6.167,7.221,4.475,8.051,9.026c0.022,0.118,1.226,0.165,1.818,0.013c4.805-1.24,9.478-0.944,13.395,0.776
		c2.536-0.419-0.542-5.57,4.191-3.707c0.928,0.365,1.547,2.114,2.833,0.637c1.047-1.202-0.129-2.498-0.183-3.713
		c-0.039-0.885-1.713-1.697-2.659-2.542l-0.102,0.144c5.131-0.333,6.146-1.568,5.786-6.487c-0.182-2.486,0.734-5.297-0.139-7.432
		c-1.302-3.186-3.658-5.978-6.403-8.255c0.243,0.159,0.486,0.318,0.729,0.477c-0.035-0.217-0.07-0.434-0.105-0.651
		C276.884,307.888,276.654,308.07,276.423,308.252z"/>
	<path fill="FRAME_COLOR" d="M1036.139,200.102c-6.97-2.198-12.261-4.123-18.507-1.467c-15.596,6.634-29.186,3.613-40.501-9.406
		c-3.356-3.861-7.566-6.978-11.38-10.44c-2.974-2.699-6.845-3.005-10.595-3.952c3.816-2.44,7.804-2.332,11.477-0.411
		c6.439,3.368,12.551,3.035,19.182,0.348c14.976-6.067,28.259-2.564,39.237,8.846c9.699,10.081,21.984,12.25,36.093,13.493
		c-3.052-4.145-5.845-7.096-9.132-9.41c-8.62-6.069-16.412-13.041-23.73-20.601c-3.788-3.914-8.481-6.36-13.78-7.711
		c-3.953-1.008-7.752-2.446-11.205-5.07c8.04,0.425,15.331-2.873,23.026-3.589c15.43-1.436,33.917,10.224,39.387,24.717
		c1.258,3.334,1.586,6.764,1.444,10.31c-0.238,5.946,2.237,10.438,7.894,12.593c6.285,2.395,12.507,5.136,19.399,6.105
		c0.089-2.402-1.212-3.368-2.482-3.99c-7.613-3.732-10.93-10.361-12.583-18.182c-0.991-4.691-2.538-9.014-7.402-11.156
		c-0.753-0.331-1.642-0.885-1.425-1.811c0.255-1.088,1.32-1.37,2.359-1.45c0.332-0.025,0.726-0.15,0.989-0.021
		c5.12,2.526,11.384,0.324,16.252,3.98c1.241,0.932,2.431,2.003,4.412,0.721c1.749-1.131,3.133,0.675,4.091,1.94
		c1.799,2.375,3.342,4.944,5.184,7.724c2.765-4.61,6.365-8.009,11.642-9.378c1.172-0.304,2.27-1.397,3.111-2.377
		c2.61-3.04,6.349-4.003,9.656-5.845c12.749-7.1,26.181-4.254,39.417-3.309c9.142,0.653,16.702,5.336,23.172,11.71
		c1.668,1.643,3.162,3.014,5.905,3.015c3.412,0.001,4.629,3.472,6.491,5.682c1.386,1.645,2.316,3.624,5.158,3.435
		c-1.609,2.27-3.137,4.018-3.47,6.475c-0.337,2.492-0.873,5.098-4.772,1.667c1.818,8.582,2.88,16.132,1.771,23.958
		c2.015-0.547,1.994-2.271,2.581-3.524c2.343-5.011,3.406-10.433,4.978-15.693c4.299-14.392,13.026-24.485,27.777-28.902
		c10.837-3.245,21.476-7.075,31.767-11.806c1.021-0.47,1.885-0.678,2.68,0.21c0.685,0.764,0.3,1.563-0.163,2.268
		c-0.73,1.11-1.344,2.37-2.302,3.242c-6.568,5.98-10.239,13.634-11.861,22.097c-3.669,19.14-15.48,28.641-34.387,30.269
		c-6.298,0.542-11.801,2.949-16.976,6.989c1.499,1.164,2.695,0.366,3.865,0.172c11.483-1.909,22.61-2.545,33.367,3.849
		c7.5,4.458,15.38,2.867,22.518-1.994c0.78,8.028-4.81,11.364-10.893,14.746c3.649,6.069,7.06,12.262,8.84,19.215
		c0.843,3.29,1.403,6.569,0.7,9.87c-1.052,4.94-0.131,10.15-1.24,14.862c-2.615,11.104-5.209,22.386-12.432,31.769
		c-1.966,2.553-4.381,4.548-7.083,6.239c-3.464,2.168-2.092,3.881,0.546,5.4c1.979,1.14,4.171,1.16,6.328,0.788
		c10.554-1.821,18.914,1.973,25.747,9.862c1.416,1.635,2.939,3.187,4.503,4.683c5.874,5.623,12.402,9.995,21.351,10.355
		c-2.042,2.711-4.638,2.526-6.974,2.715c-4.999,0.404-9.896,1.246-14.751,2.509c-17.549,4.566-33.379-2.359-42.147-18.351
		c-0.305-0.557-0.501-1.259-1.418-1.187c-0.984,0.893-0.51,2.127-0.63,3.203c-2.629,23.619-22.712,43.823-44.959,45.19
		c-4.884,0.3-9.618-0.319-14.212-2.113c-11.401-4.453-16.413-17.724-10.746-28.612c2.634-5.062,8.203-7.827,13.792-6.796
		c0.634,0.117,1.215,0.523,1.82,0.794c1.578-3.987,3.473-7.886,4.619-11.994c0.721-2.584-2.206-3.129-3.873-4.21
		c-8.441-5.472-17.611-10.1-21.151-20.715c-0.735-2.204,0.498-4.385-0.392-6.074c-2.231-4.231-5.598-4.618-9.313-1.403
		c-2.655,2.297-5.4,4.432-8.489,6.125c-11.38,6.236-24.695,4.214-32.825-5.017c-7.986-9.067-8.93-25.397-1.918-34.929
		c1.871-2.544,4.084-4.833,6.076-7.291c3.813-4.704,2.427-8.609-3.517-10.045c-4.866-1.176-8.221-4.209-10.375-8.625
		c-0.486-0.996-1.204-2.352-0.008-3.146c0.626-0.416,1.923-0.124,2.793,0.19c2.435,0.879,4.779,2.563,7.636,0.055
		c-4.095,0.447-7.264-1.429-10.601-2.712c-7.715-2.966-13.682-0.555-19.655,4.965c-3.232,2.987-3.549,6.941-6.163,9.767
		c-5.97,6.453-17.534,6.281-23.137-0.886c-8.214-10.508-7.48-23.028,6.737-30.256c8.932-4.541,18.574-6.196,28.654-4.621
		c1.669,0.261,4.157,1.861,4.935-1.326c0.617-2.528-0.779-4.027-2.997-5.063c-13.877-6.482-28.213-10.006-43.633-7.184
		c-4.749,0.869-7.883,3.3-9.018,8.108c-0.957,4.053-2.063,8.041-3.775,11.88c-3.972,8.905-10.19,15.125-19.909,17.357
		c-8.6,1.975-16.772,4.582-21.498,13.001c-0.655,1.167-2.021,1.698-3.366,1.991c-0.828,0.18-1.679,0.312-2.208-0.552
		c-0.442-0.722,0.108-1.275,0.532-1.75c5.732-6.432,6.058-14.587,7.098-22.478c1.632-12.376,7.884-20.872,19.936-25.001
		C1020.311,205.262,1027.994,204.203,1036.139,200.102z M1118.312,266.958c4.852-2.163,10.019-2.373,15.257-2.335
		c-2.133-0.602-4.241-0.911-6.357-1.158c-3.586-0.419-7.001-0.372-8.808,3.592c-5.502,2.357-7.731,6.903-8.323,12.54
		C1111.18,274.306,1115.317,271.007,1118.312,266.958z M1217.998,242.237c4.247,6.797,4.061,7.424-2.434,10.297
		c-1.933,0.855-3.402,0.888-2.991-1.824c0.509-3.359-1.683-4.054-4.148-4.258c-2.137-0.177-4.345-0.2-6.456,0.129
		c-13.484,2.098-22.49,12.429-24.661,28.3c-0.909,6.648-0.498,13.178,2.741,19.322c-0.638-5.46-1.048-10.885,0.103-16.309
		c1.861-8.764,8.801-16.015,16.629-17.383c2.214-0.387,4.387-0.263,6.336,0.732c1.798,0.919,2.59,2.823,2.038,4.686
		c-0.765,2.584-2.19,0.565-3.458,0.238c-4.374-1.129-5.493,2.886-7.645,5.138c-1.528,1.599-2.888,3.618-0.492,5.574
		c2.297,1.875,0.945,2.703-0.586,4.12c-6.078,5.624-6.759,13.047-1.589,19.96c0.694-5.83,4.374-2.515,6.991-2.784
		c3.275-0.337,2.509,2.442,3.118,4.081c1.561,4.207,4.018,7.457,8.892,7.476c4.89,0.02,9.453-1.389,13.872-3.622
		c3.453-1.744,1.617-4.729,2.145-7.064c0.512-2.266-2.099-1.362-3.242-1.796c-4.701-1.784-9.316-3.63-12.885-7.369
		c-7.637-8.004-5.834-21.733,3.498-26.05c4.612-2.134,9.223-1.602,13.267,1.285c3.333,2.379,4.748,5.952,4.052,10.105
		c-0.481,2.871-2.057,4.927-5.062,5.476c-2.812,0.513-4.661-0.964-6.346-3.065c-1.498-1.868-1.256-4.218-1.81-6.451
		c-3.985,1.476-5.145,4.102-4.557,7.653c0.696,4.207,3.688,6.245,7.443,7.133c8.106,1.919,16.389-3.152,18.602-11.177
		C1243.23,260.758,1234.43,247.019,1217.998,242.237z M1171.762,188.536c-0.805,1.256-1.475,2.623-2.437,3.739
		c-2.177,2.523-5.027,3.275-8.14,2.203c-2.688-0.925-5.151-2.28-5.781-5.496c-0.911-4.66-3.556-6.587-8.39-6.17
		c-10.88,0.937-18.25,12.436-14.529,22.713c0.871,2.406,2.284,4.446,4.566,5.744c1.018,0.579,2.588,1.36,3.16,0.237
		c2.146-4.216,6.114-4.074,9.849-4.657c2.236-0.349,3.796-1.712,3.914-3.912c0.131-2.444-1.902-2.784-3.826-2.866
		c-2.118-0.09-3.759-0.893-3.369-3.255c0.348-2.107,2.115-2.731,4.14-2.834c6.326-0.323,12.272,5.942,11.542,12.23
		c-1.106,9.524-8.143,16.633-18.312,18.5c-8.35,1.533-16.012-2.597-20.589-10.845c-0.957-1.725-0.989-5.391-4.484-3.81
		c-2.948,1.334-2.799,4.141-2.11,6.946c0.91,3.704,3.033,6.657,5.625,9.275c5.177,5.228,11.501,8.406,18.64,10.056
		c1.335,0.309,3.39,0,3.13,2.275c-0.203,1.777-1.827,2.25-3.345,2.468c-14.575,2.096-26.931-2.564-34.691-17.318
		c-1.289-2.451-2.272-5.063-3.397-7.6c1.076,16.472,13.143,27.305,29.067,26.919c3.991-0.097,8.255-0.855,11.912,0.263
		c4.559,1.394,4.709-6.771,9.798-3.668c0.655,0.399,4.032-3.666,6.149-5.663c-3-3.127,0.941-4.313,1.835-6.296
		c1.733-3.844,4.264-1.856,4.815,0.276c0.894,3.459,2.951,7.521-1.312,10.629c-1.39,1.013-2.414,2.528-3.746,3.965
		c12.213-3.438,21.35-21.598,16.776-32.958c-0.248-0.615-0.486-1.279-0.902-1.775c-1.967-2.347-3.67-5.816-7.318-1.896
		c-0.523,0.562-1.456,1.143-2.203,0.501c-0.983-0.845-0.313-1.854,0.213-2.678c1.698-2.66,3.173-5.696,6.358-6.792
		c3.568-1.228,2.711-2.933,1.027-5.044C1174.362,190.646,1173.468,189.222,1171.762,188.536z M1203.508,370.51
		c-0.142-1.087-0.292-1.716-0.297-2.346c-0.071-8.988-0.104-17.975-0.194-26.963c-0.018-1.768,0.271-3.948-2.686-3.519
		c-2.844,0.412-0.985,2.359-0.922,3.452c0.544,9.483,0.889,18.958-0.061,28.433c-0.14,1.393,0.375,3.592-1.688,3.547
		c-2.208-0.048-1.568-2.342-1.344-3.585c1.791-9.963-0.219-19.933,0.202-29.889c0.038-0.895,0.797-2.043-0.689-2.456
		c-1.298-0.36-1.806,0.678-2.156,1.578c-1.831,4.712-4.631,9.137-0.831,14.495c2.237,3.154,2.788,7.255-0.678,10.503
		c-1.629,1.526-3.653,1.956-5.395,0.386c-1.555-1.402-1.759-2.987,0.26-4.572c2.047-1.608,0.362-2.869-0.841-4.006
		c-3.077-2.907-6.24-1.293-9.263,0.011c-3.511,1.515-4.672,4.576-4.522,8.17c0.241,5.74,3.771,10.531,9.391,12.279
		c8.572,2.665,17.084,2.14,24.318-3.326c13-9.822,18.325-23.643,18.823-39.569c0.038-1.223,0.157-2.746-1.534-3.312
		c-5.205-1.743-13.75,3.871-14.308,9.45c-0.715,7.146-0.6,14.301-0.08,21.452C1209.316,364.915,1207.998,368.212,1203.508,370.51z
		 M1114.254,287.275c-0.044,10.483,5.875,17.098,15.296,17.093c10.044-0.006,19.239-9.378,19.345-19.72
		c0.076-7.411-8.315-14.432-17.344-14.511C1121.347,270.047,1114.297,277.032,1114.254,287.275z M1091.435,227.989
		c-6.508-1.237-12.428,0.118-17.511,4.244c-4.627,3.756-9.045,7.774-13.481,11.76c-1.511,1.358-4.105,2.486-2.871,5.131
		c1.194,2.558,3.829,3.098,6.402,2.824c4.006-0.426,7.482-1.777,8.238-6.44c0.223-1.375,0.833-2.505,1.831-3.437
		C1079.462,237.016,1084.194,231.086,1091.435,227.989z M1189.699,317.391c-13.353-9.353-20.489-21.745-20.915-37.889
		c-0.228,2.771-0.558,5.575-0.15,8.268c0.596,3.93,1.598,7.814,2.674,11.649c0.607,2.164,0.939,4.099-0.119,6.25
		c-3.448,7.012,2.137,17.116,9.805,17.982c0.871,0.098,1.787,0.383,2.087-0.615C1184.049,319.813,1187.16,319.01,1189.699,317.391z
		 M1172.925,250.03c-11.015,7.354-18.286,34.079-12.514,44.786C1159.551,278.517,1162.734,263.737,1172.925,250.03z
		 M1188.398,220.888c5.781-15.348,0.275-31.748-13.138-39.904C1185.945,192.225,1191.041,205.286,1188.398,220.888z
		 M1246.588,286.257c-4.113,3.596-6.265,8.739-12.259,10.136c2.762,1.752,4.617-0.209,6.98-1.117c-0.89,3-2.186,4.528-4.655,5.478
		c-3.351,1.288-3.564-2.428-5.783-3.049c1.557,1.97,0.135,6.163,3.313,6.091c2.59-0.059,6.079-1.111,7.396-4.186
		C1243.448,295.245,1244.937,290.716,1246.588,286.257z M1228.588,236.883c-11.074-6.965-30.277-6.06-38.556,2.474
		C1203.343,233.383,1215.818,232.018,1228.588,236.883z M1150.432,259.596c-10.9,1.225-21.3-0.926-31.448-4.823
		C1128.907,260.061,1139.363,261.856,1150.432,259.596z M1141.619,305.994c7.478-2.749,12.822-9.946,11.305-15.319
		C1151.613,297.933,1146.764,302.056,1141.619,305.994z M1229.629,321.444c-5.928,1.735-11.969,2.773-18.141,3.018
		C1218.081,326.803,1223.916,324.498,1229.629,321.444z M1199.066,313.907c5.031,2.938,9.38,3.328,13.808,3.403
		C1208.993,315.055,1204.648,314.651,1199.066,313.907z"/>
	<path fill="FRAME_COLOR" d="M210.742,849.455c2.029,0.966,3.981,2.237,5.705,4.077c-2.873-8.56-3.897-17.245-3.137-26.435
		c-2.198,0.341-2.505,2.146-3.24,3.404c-3.396,5.817-5.405,12.176-6.788,18.709c-2.685,12.681-10.82,20.326-22.568,24.516
		c-10.491,3.742-21.452,5.968-31.828,10.227c-5.849,2.401-12.125,1.865-17.608-2.503c15.372,0.41,19.925-10.576,24.082-21.952
		c0.741-2.029,1.275-4.139,1.835-6.23c3.442-12.878,11.376-20.619,24.862-22.679c8.668-1.324,17.21-3.427,24.643-8.896
		c-8.67,0.585-16.924-1.431-25.318-2.627c-4.799-0.684-9.448-1.203-14.16-2.65c-5.562-1.708-11.21-0.854-16.455,2.767
		c-0.475-5.748,1.344-9.687,6.639-11.582c1.963-0.703,3.298-1.337,1.468-3.729c-10.383-13.57-10.511-29.854-7.805-44.932
		c1.986-11.067,2.854-24.157,13.351-32.45c1.983-1.566,3.934-3.071,6.287-3.976c2.82-1.085,2.42-2.66,0.823-4.537
		c-1.837-2.158-4.013-3.173-6.969-3.141c-12.368,0.136-21.31-5.52-26.924-16.49c-1.061-2.074-2.055-4.185-2.997-6.316
		c-2.615-5.913-5.138-11.879-11.56-15.03c1.98-1.98,4.2-2.037,5.761-0.945c7.511,5.255,16.511,6.027,24.914,8.46
		c10.866,3.146,19.357,8.727,23.692,19.569c0.185,0.462,0.404,0.91,1.169,2.619c1.644-8.207,2.98-14.79,5.949-20.912
		c9.294-19.163,35.798-30.794,54.982-24.012c12.137,4.291,17.341,19.817,10.278,30.629c-2.627,4.021-6.426,5.815-11.079,5.31
		c-2.282-0.248-3.451,0.141-3.718,2.498c-0.073,0.643-0.436,1.254-0.669,1.878c-3.729,9.974-3.077,11.479,6.749,16.276
		c8.926,4.357,13.865,11.634,15.225,21.371c0.507,3.633,3.335,5.041,6.418,2.946c1.927-1.31,3.849-2.641,5.668-4.094
		c9.728-7.766,23.37-8.613,33.561-2.033c9.221,5.953,13.869,19.522,10.482,31.108c-1.728,5.911-5.893,10.365-9.673,14.998
		c-4.368,5.354-3.628,8.509,2.925,11.143c4.121,1.656,7.78,3.877,10.141,7.727c0.905,1.476,2.475,3.314,0.998,4.971
		c-1.524,1.711-3.453,0.342-4.979-0.574c-2.266-1.36-4.468-2.65-7.305-1.422c6.594,2.413,13.011,5.475,20.252,5.528
		c8.668,0.063,13.919-5.057,17.299-12.261c3.683-7.849,15.116-10.52,22.24-4.3c12.562,10.968,8.647,24.739-2.184,30.764
		c-9.717,5.406-19.96,7.055-30.9,5.214c-1.941-0.327-4.805-2.063-5.839,1.405c-0.909,3.047,0.715,5.011,3.377,6.419
		c12.94,6.849,26.522,8.336,40.701,5.009c4.087-0.959,6.688-3.516,7.936-7.509c0.496-1.588,1.129-3.135,1.609-4.727
		c4.442-14.753,14.196-22.817,29.694-23.893c7.052-0.49,13.344-2.779,17.827-8.708c0.688-0.909,1.65-1.662,2.608-2.304
		c1.227-0.823,2.896-2.057,4.059-0.819c1.749,1.862-0.957,2.302-1.727,3.216c-3.777,4.485-5.381,9.898-6.916,15.36
		c-0.989,3.521-1.712,7.136-2.961,10.56c-3.827,10.497-11.74,16.339-22.396,18.544c-7.787,1.611-15.58,3.049-23.172,7.208
		c2.719,1.795,5.357,2.283,8.127,1.976c3.307-0.367,6.615-0.815,9.879-1.455c10.615-2.081,19.338,1.449,26.778,8.855
		c4.141,4.122,7.864,8.61,11.169,13.426c2.933,4.275,6.386,7.611,12.48,7.183c-1.566,2.691-3.677,2.851-5.826,2.537
		c-1.463-0.214-3.018-0.568-4.274-1.3c-7.552-4.405-15.242-4.052-23.593-2.257c-12.218,2.626-22.617-1.513-30.648-11.238
		c-2.226-2.695-4.461-5.383-6.746-8.027c-6.249-7.232-14.994-7.033-23.397-7.688c-2.627-0.205-2.001,1.57-1.229,2.981
		c1.315,2.404,3.428,4.086,5.645,5.565c5.894,3.933,10.959,8.709,14.939,14.566c6.518,9.591,15.257,15.622,26.866,17.297
		c1.919,0.277,4.015,0.589,4.754,3.41c-9.05,0.648-17.836,3.203-26.826,2.421c-20.339-1.769-33.312-15.495-34.528-35.988
		c-0.637-10.737-7.042-17.356-17.635-18.388c-2.978-0.29-2.317,1.756-2.207,3.246c0.133,1.806,1.7,2.745,2.917,3.881
		c4.646,4.333,8.104,9.368,8.359,15.949c0.182,4.686,1.708,8.765,4.503,12.464c0.661,0.876,1.761,1.926,0.756,3.057
		c-0.891,1.003-2.524,0.67-3.246,0.012c-3.498-3.186-9.616,0.284-12.215-4.921c-6.86,2.458-8.396-3.588-11.436-7.195
		c-0.67-0.795-1.406-1.008-2.095-0.327c-2.919,2.887-7.046,3.686-10.256,6.106c-11.011,8.302-23.407,11.898-37.184,10.569
		c-3.475-0.335-6.95-0.775-10.434-0.883c-5.277-0.164-10.218-1.397-14.754-4.079c-6.966-4.118-14.084-8.025-20.734-12.609
		c-2.745-1.892-4.437-4.746-8.488-5.071c-2.017-0.162-0.336-3.404,0.801-3.565c5.144-0.728,3.985-4.231,3.724-7.416
		C209.94,851.342,209.423,850.335,210.742,849.455z M171.245,752.152c0.018,0.19,0.023,0.38,0.014,0.57
		c-1.33,2.675-2.568,5.369-1.673,8.984c0.596-0.808,1.053-1.25,1.3-1.789c4.146-9.065,11.622-11.915,20.9-10.841
		c8.686,1.005,14.758,5.853,17.991,13.935c2.334,5.835,0.41,13.117-4.052,16.959c-4.078,3.51-10.967,4.32-15.456,1.817
		c-3.579-1.996-5.957-7.672-4.755-11.729c0.968-3.266,3.347-4.983,6.714-4.93c4.874,0.077,5.799,3.644,6.227,7.516
		c0.295,2.667,1.542,2.017,2.94,0.853c3.461-2.882,2.297-9.054-2.23-11.824c-9.547-5.843-23.117,1.082-23.995,12.349
		c-0.913,11.709,4.395,20.19,14.192,26.087c2.571,1.547,5.244,3.243,8.688,2.691c-0.232-0.639-0.308-0.961-0.458-1.243
		c-1.185-2.219-5.076-4.348-1.197-6.926c2.269-1.508,6.373-5.461,7.282,1.777c0.11,0.878,2.337,1.738,3.719,2.154
		c2.599,0.783,5.246,0.478,7.882-0.225c15.647-4.17,24.591-17.922,23.379-36.156c-0.245-3.68-0.465-7.426-3.596-11.509
		c0.391,2.09,0.55,3.044,0.748,3.989c3.283,15.651-3.884,27.155-18.94,30.755c-2.458,0.588-3.216-1.175-4.563-2.178
		c-1.272-0.947-1.146-2.259-0.519-3.598c0.995-2.123,2.415-0.994,3.778-0.564c2.552,0.806,4.229-0.47,5.312-2.552
		c0.993-1.91,4.375-3.722,2.381-5.815c-2.784-2.922-1.056-4.171,0.829-5.897c4.979-4.557,5.311-10.042,3.213-16.025
		c-0.28-0.798-1.061-2.077-1.374-1.734c-2.328,2.553-5.124-0.351-7.539,0.866c-2.431,1.224-2.951,0.018-3.272-2.391
		c-0.938-7.034-2.551-8.29-9.526-8.987c-3.937-0.394-7.661,0.267-11.217,1.803c-3.015,1.303-5.153,3.38-3.636,7.018
		c0.875,2.1,0.301,2.685-1.797,2.605c-2.132-0.081-4.87,1.149-4.72-2.848c0.05-1.348-1.157-2.112-2.418-2.003
		c-3.412,0.295-3.932-1.936-3.665-5.817C174.184,742.53,171.296,746.674,171.245,752.152z M278.144,804.605
		c-0.146-0.478-0.293-0.956-0.439-1.433c-3.573,1.124-8.722-3.184-10.591,3.897c-0.228,0.862-1.282,1.488-1.976,1.051
		c-3.258-2.05-4.074,1.926-6.031,2.292c-4.206,0.786-2.597,3.619-3.072,5.973c-0.325,1.612-0.36,3.809-2.358,4.656
		c-1.155,0.49-2.295,0.043-3.238-0.762c-2.559-2.184-2.421-10.049,0.259-12.087c1.303-0.991,3.612-2.135,2.427-3.6
		c-0.925-1.144-3.496-1.224-5.399,0.428c-9.538,8.282-12.848,18.81-11.149,31.004c0.715,5.129,4.586,6.907,9.357,4.813
		c0.798-0.35,1.547-0.93,2.106-0.022c0.248,0.404,0.031,1.36-0.31,1.817c-2.14,2.876-4.215,5.831-6.667,8.425
		c-0.793,0.839-2.06,1.061-1.35,2.533c0.738,1.531,1.771,2.941,3.357,3.558c1.89,0.735,1.399-1.345,1.983-2.097
		c2.105-2.714,4.818-4.325,8.188-3.782c3.23,0.521,5.637,2.194,6.689,5.818c2.003,6.898,5.724,8.623,12.569,6.351
		c4.646-1.542,8.078-4.538,10.357-8.869c2.959-5.621,2.505-12.536-1.241-16.351c-2.547-2.594-5.245-3.786-8.67-1.01
		c-1.595,1.292-3.354,3.107-5.693,2.745c-2.498-0.387-4.592-0.004-4.969,2.635c-0.426,2.985,2.118,3.738,4.418,4.409
		c1.36,0.397,3.45,0.232,3.493,2.072c0.049,2.135-1.934,2.838-3.756,3.382c-2.604,0.777-4.874,0.231-7.033-1.39
		c-7.596-5.704-8.096-16.352-1.04-23.129c11.317-10.869,29.036-7.445,35.961,6.903c0.564,1.169,0.326,3.448,2.58,2.932
		c1.968-0.451,3.063-2.032,3.083-4.071c0.039-3.981-1.409-7.46-3.821-10.591c-5.166-6.705-11.621-11.368-20.092-12.978
		c-1.359-0.258-3.39-0.275-3.198-2.341c0.163-1.759,1.389-2.979,3.418-2.974C276.912,804.816,277.528,804.679,278.144,804.605z
		 M212.149,692.147c0.073,0,0.146,0,0.22,0c0,4.825-0.024,9.65,0.016,14.474c0.011,1.324,0.041,2.958,1.874,2.94
		c2.234-0.022,1.276-1.756,1.284-2.961c0.062-9.816,0.106-19.633,0.259-29.448c0.023-1.497-0.665-3.981,1.629-4.048
		c2.457-0.072,1.763,2.504,1.652,3.902c-0.76,9.652,0.243,19.279,0.267,28.916c0.004,1.45-1.04,3.537,1.563,4.032
		c2.347,0.446,3.571-1.222,4.003-2.942c1.237-4.936,4.085-10.08-1.356-14.546c-1.549-1.271-1.948-3.468-2.039-5.5
		c-0.184-4.142,3.231-7.563,6.826-6.635c2.167,0.559,4.698,1.87,1.779,4.319c-2.005,1.682-2.456,3.01-0.862,4.896
		c1.746,2.067,3.326,4.508,6.79,3.386c4.47-1.448,8.479-3.163,8.628-8.849c0.151-5.783-3.4-11.797-8.257-13.688
		c-10.979-4.274-25.139-0.671-32.879,8.116c-6.981,7.926-10.52,17.209-11.664,27.563c-0.985,8.914,0.18,9.898,8.647,7.206
		c6.813-2.166,6.844-2.364,6.485-9.455c-0.329-6.477-0.419-12.967-0.553-19.452c-0.053-2.56,0.55-4.961,2.336-6.924
		c0.663-0.729,1.365-1.704,2.45-1.355c1.196,0.385,0.886,1.633,0.892,2.578C212.164,683.163,212.149,687.655,212.149,692.147z
		 M302.376,759.968c0.014-10.47-5.773-17.251-14.656-17.171c-11.357,0.102-20.343,8.53-20.314,19.053
		c0.023,8.61,8.896,15.777,19.696,15.91C295.105,777.857,302.363,769.403,302.376,759.968z M325.855,820.732
		c2.898,1.22,5.484,1.091,8.101,0.476c11.127-2.612,18.533-10.663,26.331-18.109c1.139-1.088,1.656-2.741,0.143-3.948
		c-2.331-1.86-5.102-2.467-7.993-1.645c-2.572,0.732-5.303,1.495-5.025,5.113c0.138,1.792-0.902,3.137-2.413,3.29
		c-2.511,0.255-4.381,0.492-4.174,3.784c0.046,0.74-1.517,1.629-2.405,2.37C334.602,815.25,330.489,818.024,325.855,820.732z
		 M226.751,729.296c8.932,6.152,13.385,14.159,17.476,22.623c-0.204-3.227,0.433-6.27,2.148-8.684
		c3.66-5.151,1.516-9.337-1.645-13.451c-1.204-1.566-2.731-2.884-4.112-4.312c-1.684-1.741-2.845-2.43-5.763-0.998
		C232.095,725.828,230.917,729.04,226.751,729.296z M314.434,831.159c-1.381-17.79-20.392-33.652-31.397-26.402
		C300.782,805.04,308.468,817.031,314.434,831.159z M252.91,746.551c3.755,16.768-1.345,31.795-9.423,46.829
		C254.309,784.629,259.554,757.95,252.91,746.551z M227.252,821.395c-5.871,18.46-0.095,37.055,13.718,42.613
		C228.239,851.772,224.183,837.69,227.252,821.395z M181.505,806.527c10.972,8.711,35.575,8.286,43.164-0.857
		C210.031,812.396,195.833,813.983,181.505,806.527z M302.999,775.706c-10.252,7.146-11.941,7.51-24.493,5.605
		c-4.109-0.623-8.251-0.57-12.991,0.249c7.265,0.635,13.878,1.099,20.463,1.82C293.212,784.173,298.988,781.945,302.999,775.706z
		 M293.763,792.467c-9.842-4.783-20.167-5.457-30.76-3.73C273.485,788.071,283.575,790.593,293.763,792.467z M207.079,724.06
		c-6.8-3.067-16.7-0.266-21.144,5.953C192.259,725.467,199.31,723.495,207.079,724.06z M262.844,758.489
		c0.75-3.08,0.427-6.473,2.434-9.386c1.86-2.699,4.155-5.04,6.179-7.578C265.327,745.562,260.026,750.082,262.844,758.489z
		 M193.362,719.74c4.907-1.603,10.749,0.81,15.474-4.073C202.935,715.847,198.09,717.672,193.362,719.74z"/>
	<path fill="FRAME_COLOR" d="M1112.442,802.448c-5.31,5.663-8.236,12.445-8.805,20.106c-0.204,2.752-1.342,4.1-3.699,5.205
		c-16.65,7.802-35.983-3.659-37.582-22.395c-0.183-2.149-0.091-4.328-0.025-6.49c0.221-7.246,2.747-12.915,10.23-15.451
		c2.735-0.927,5.283-2.404,7.798-3.908c-4.255,0.261-8.082,2.044-11.636,3.944c-5.118,2.737-9.055,0.913-12.774-2.175
		c-10.987-9.123-11.662-30.837-1.395-40.743c5.076-4.897,7.971-4.742,12.238,0.662c6.004,7.606,13.615,12.412,23.463,13.312
		c-4.118-2.034-8.386-3.816-12.33-6.145c-19.26-11.375-19.056-35.385,0.323-46.73c1.579-0.925,3.204-1.783,4.857-2.569
		c11.594-5.516,19.24-3.564,26.85,6.881c1.641,2.252,3.132,4.612,5.112,6.613c-2.835-7.324-7.098-13.714-13.862-17.912
		c-2.968-1.842-3.231-3.716-2.418-6.578c4.521-15.919,27.701-22.33,39.48-11.019c2.87,2.756,3.69,5.716,3.03,9.422
		c-1.085,6.093-1.428,12.218-0.411,19.829c0.883-7.241,0.971-13.139,2.274-18.89c3.117-13.76,14.864-20.778,27.947-15.838
		c8.065,3.045,15.933,6.877,23.386,11.22c10.398,6.059,11.674,21.635,3.215,31.598c-2.618,3.083-5.981,5.261-8.843,8.134
		c3.102-0.799,5.483-2.917,7.746-4.973c2.874-2.612,5.987-3.248,9.664-2.553c21.955,4.145,27.263,22.031,22.345,38.77
		c-2.357,8.023-13.156,13.181-21.126,11.001c-2.272-0.621-4.531-0.999-8.121-0.385c5.824,1.214,10.515,2.195,14.952,4.031
		c14.243,5.894,19.483,17.52,14.193,32.01c-3.305,9.052-8.99,16.773-15.271,23.846c-7.194,8.102-18.895,8.461-27.592,1.933
		c-6.169-4.631-10.174-11.328-16.198-16.8c-0.42,5.162-0.569,9.901-1.232,14.567c-1.603,11.301-7.533,19.358-18.361,23.55
		c-4.302,1.665-8.606,2.235-13.177,1.01c-4.498-1.206-9.169-1.79-13.631-3.1c-13.648-4.008-19.658-14.852-16.197-28.598
		C1108.129,811.796,1110.551,807.26,1112.442,802.448z M1140.929,769.578c2.065,1.035,2.507-2.469,4.125-1.04
		c5.375,4.748,4.259-0.468,4.656-4.024c2.889,4.276,5.009,4.701,6.314-0.572c-2.037,0.385-3.65-0.066-5.081-1.447
		c-3.301-3.188-3.193-0.253-3.259,2.147c-4.122-2.083-3.878-5.107-1.671-8.718c-4.084,0.326-6.801,1.882-7.611,5.282
		c-0.838,3.516,3.371,2.305,4.585,4.051C1142.368,766.757,1140.394,767.549,1140.929,769.578z M1144.284,738.931
		c-0.168,2.421-0.854,2.717-3.183,1.839c-0.724-0.273-1.394,0.004-1.484,0.738c-0.107,0.877-0.587,2.086,0.7,2.496
		c0.912,0.291,1.969,0.42,2.903,0.265c0.876-0.145,1.705-0.391,2.1,0.541c0.391,0.923-0.193,1.533-1.096,1.837
		c-0.796,0.267-1.724,0.59-1.466,1.628c0.27,1.086,1.307,1.528,2.317,1.461c3.086-0.206,5.856,0.58,8.519,2.115
		c0.839,0.483,1.749,2.602,3.041,0.312c1.197-2.122-0.372-2.837-1.774-3.07c-3.777-0.627-4.726-3.259-5.507-6.445
		c-0.286-1.166,1.966-2.376-0.132-3.287c-3.769,1.721,2.47,6.663-2.509,8.078C1145.527,744.722,1147.037,741.407,1144.284,738.931z
		 M1131.794,766.113c-0.899,3.763,3.177,5.06,3.141,8.798c-0.037,3.916,6.171,0.185,8.43,3.681c1.386,2.146,4.786-2.011,6.63,1.075
		c2.459-1.865,4.918-3.73,7.377-5.595c-0.147-0.389-0.295-0.777-0.442-1.166c-4.715,1.306-8.854,3.805-14.387,2.825
		C1136.316,774.629,1136.522,768.059,1131.794,766.113z M1131.511,755.76c0.701-1.219,1.312-2.503,2.137-3.631
		c0.459-0.627,1.233-1.188,2.166-0.775c2.288,1.011,2.351,1.059,3.303-0.75c0.488-0.927,1.447-1.9,0.364-3.263
		c-1.704,0.984-2.628,3.056-5.393,2.834C1132.78,750.07,1130.575,752.729,1131.511,755.76z M1162.756,766.163
		c0.199-2.063,4.205-0.535,3.201-3.177c-0.228-0.6-2.966,0.157-4.706-0.196c-1.453-0.295-0.609,2.522-0.771,3.77
		c-0.232,1.786,1.677,1.846,3.221,1.349c0.785-0.253,1.982,0.79,2.389-0.746C1165.163,766.134,1163.39,768.066,1162.756,766.163z"/>
	<path fill="FRAME_COLOR" d="M995.292,214.36c-1.954,4.743-4.787,6.556-9.446,6.283c-20.104-1.179-40.225-1.194-60.326,0.068
		c-7.661,0.481-15.138-1.173-22.864-0.978c-14.609,0.369-29.259,2.589-43.896,0.486c-5.202-0.747-10.361,0.998-15.43,0.511
		c-16.959-1.627-33.936-0.082-50.896-0.41c-16.09-0.311-32.285-0.195-48.428,0.209c-6.485,0.162-13.262,1.502-19.398,0.094
		c-12.15-2.787-23.999,1.027-36.062,0.009c-11.897-1.005-23.974,0.012-35.969,0.288c-10.51,0.242-20.997-0.004-31.462-0.98
		c-6.699-0.625-13.311,0.549-19.945,0.973c-14.15,0.905-28.278-2.115-42.414,0c-3.198,0.478-6.563,0.172-10.513,2.674
		c74.547-1.218,147.944-0.263,221.342-0.493c73.502-0.231,147.004-0.051,221.3-0.051c-1.914,3.342-3.961,2.567-5.6,2.604
		c-42.309,0.962-84.624,0.505-126.937,0.52c-45.985,0.016-91.967,0.025-137.952,0.378c-37.816,0.291-75.638-0.393-113.457-0.352
		c-19.295,0.021-38.593-0.743-57.895,0.18c-2.971,0.142-2.385,1.643-2.4,3.091c-0.048,4.509-0.163,8.993-1.318,13.391
		c-3.534,13.458-15.818,22.066-28.784,20.149c-7.402-1.095-10.529-4.986-9.776-12.484c2.888,0.555,4.175,3.503,6.968,4.29
		c9.501,2.676,20.236-2.982,23.387-12.922c2.358-7.437,1.969-14.743-1.751-21.802c-3.614-6.858-8.396-12.657-14.634-17.846
		c-0.537,2.508,1.016,3.615,1.717,5.002c3.486,6.891,4.273,14.024,1.719,21.306c-1.726,4.924-5.69,7.359-10.424,6.826
		c-4.27-0.481-7.625-2.222-8.772-6.859c-0.529-2.138-0.168-3.995,1.186-5.615c1.167-1.396,2.761-0.975,4.133-0.412
		c1.151,0.473,1.314,1.549,0.316,2.353c-1.996,1.607-1.606,3.348,0.032,4.593c1.992,1.513,4.26,0.974,5.848-0.811
		c2.901-3.26,3.078-7.269,2.331-11.307c-3.372-18.24-20.062-30.873-39.298-29.91c-6.962,0.348-13.549,1.77-19.253,6.024
		c-8.596,6.411-19.597,7.403-28.66,12.775c-3.56,2.111-7.252,4-10.762,6.322c6.593-2.171,12.932-4.983,19.907-5.92
		c20.093-2.698,39.959,10.953,44.062,30.773c1.589,7.677,0.698,14.966-5.38,20.79c-1.345,1.289-2.808,2.402-4.658,2.775
		c-1.293,0.261-2.892,0.559-3.717-0.635c-0.927-1.341,0.912-1.841,1.413-2.778c0.939-1.753,2.128-3.43,2.729-5.295
		c3.113-9.655-2.162-15.901-11.727-12.879c-12.788,4.04-22.736,0.537-31.653-8.654c-5.307-5.47-11.539-9.602-19.44-10.341
		c-1.64-0.153-3.416-0.333-4.951,0.113c-11.944,3.476-24.262,4.287-36.55,5.093c-8.316,0.546-15.508,3.202-21.839,8.653
		c-3.984,3.43-4.162,3.224-9.623,0.099c13.599-10.126,15.599-25.269,17.798-40.309c0.568-3.886,2.046-7.456,4.151-10.634
		c7.483-11.3,4.946-22.163-1.047-32.952c-2.607-4.693-6.27-8.606-9.62-12.749c-0.774-0.957-1.369-2.058-2.505-3.794
		c25.526,16.527,46.278,51.249,13.992,85.898c2.828-0.4,4.636-1.816,6.458-3.102c2.721-1.921,5.263-4.11,8.057-5.911
		c7.64-4.926,13.435-11.272,16.763-19.88c3.306-8.55,8.725-15.564,15.82-21.478c7.413-6.179,11.129-13.998,8.607-23.956
		c-0.714-2.819-0.319-5.533,2.669-8.455c-0.621,7.132,3.774,12.866,2.063,19.132c-2.797,10.242-4.123,20.875-7.403,30.912
		c-4.598,14.067-16.493,21.188-28.991,27.304c-1.449,0.709-3.266,0.729-4.991,3.087c17.186-3.23,33.642-5.934,45.881-18.759
		c4.294-4.499,6.299-10.608,8.181-16.452c4.204-13.058,12.919-21.014,26.039-24.475c6.808-1.796,13.173-4.577,19.09-8.478
		c5.28-3.48,11.116-5.375,17.551-4.323c3.459,0.565,6.671,1.682,8.39,5.732c-5.299,0.549-10.263,0.762-14.443,4.009
		c-2.757,2.142-4.884,4.651-5.626,7.994c-1.386,6.239-3.287,12.202-7.516,16.898c0.723,1.657,1.865,1.176,2.77,1.221
		c23.961,1.178,43.821,10.299,58.198,30.031c1.981,2.719,4.343,4.265,7.94,4.26c31.313-0.046,62.627,0.13,93.94,0.06
		c60.494-0.134,120.987-0.446,181.481-0.564c31.324-0.061,62.652,0.454,93.971,0.084c16.485-0.195,32.967-0.293,49.451-0.309
		C975.979,214.352,985.423,214.36,995.292,214.36z M446.643,221.635c-6.367-4.063-13.443-5.628-20.167-5.07
		C432.835,218.163,439.739,219.899,446.643,221.635z M440.419,191.475c4.403-3.252,8.204-7.106,11.298-11.622
		C447.234,183.019,443.598,187.009,440.419,191.475z"/>
	<path fill="FRAME_COLOR" d="M155.375,533.9c1.409-4.754,0.594-8.292-3.308-10.8c-21.411-13.759-22.043-40.366-8.417-60.463
		c4.461-6.58,10.288-11.723,16.627-16.417c13.561-10.042,24.346-22.551,32.278-37.663c-2.525,2.166-5.271,4.123-7.536,6.533
		c-10.019,10.666-22.63,15.438-36.874,16.801c-9.131,0.874-16.312,5.25-21.931,12.469c-3.463,4.449-6.952,8.973-13.272,11.401
		c10.168-12.891,16.763-27.62,30.121-37.106c10.229-7.264,21.236-11.737,33.879-11.69c12.232,0.046,21.095-5.914,28.133-15.392
		c2.175-2.93,3.48-6.67,8.216-7.204c2.918-0.329,3.295,0.36,2.695,2.675c-0.374,1.443-1.127,2.786-1.512,4.226
		c-0.901,3.371-0.515,6.23,3.118,7.944c3.447,1.627,5.623,4.527,7.467,7.808c3.342,5.948,6.472,12.03,10.731,17.426
		c2.262,2.866,4.096,6.128,8.08,7.03c0.737,0.167,1.673,0.56,1.557,1.64c-0.134,1.246-1.188,1.808-2.136,1.572
		c-8.341-2.072-17.526-0.638-25.189-5.185c-9.387-5.571-12.907-14.385-11.542-26.454c-3.014,4.068-3.654,7.654-4.364,11.074
		c-2.054,9.901-1.259,19.642,3.326,28.722c3.441,6.814,9.499,10.515,16.891,12.087c3.583,0.762,7.227,1.315,10.734,2.337
		c14.293,4.164,23.432,13.509,27.274,27.894c1.116,4.177,1.984,8.437,2.686,12.705c1.187,7.223,4.64,13.072,10.002,17.957
		c4.183,3.811,8.406,7.595,11.028,12.796c1.578,3.13,1.831,6.34,1.373,9.719c-0.176,1.297-0.637,2.291-2.045,2.389
		c-1.554,0.108-1.115-1.264-1.421-2.097c-1.896-5.163-5.548-8.536-10.588-10.622c-6.217-2.573-12.869-3.369-19.319-4.99
		c-9.052-2.275-18.017-4.83-26.347-9.198c-10.616-5.567-17.82-13.893-20.383-25.751c-2.181-10.088-4.048-20.243-6.055-30.368
		c-0.287-1.446-0.256-2.994-1.549-4.471c-2.601,10.311-5.025,20.274-1.89,30.807c3.011,10.118,2.066,19.885-2.842,29.541
		c-5.748,11.306-3.82,18.603,5.815,26.902c1.256,1.082,2.676,2.036,2.771,4.283c-3.316,0.36-5.403-2.174-7.836-3.41
		c-21.665-11.003-30.327-40.195-17.779-59.418c0.998-1.529,2.025-3.115,3.345-4.345c8.735-8.135,11.893-18.572,12.765-30.041
		c0.642-8.448-0.117-16.931,0.323-25.727c-6.102,7.579-12.455,14.974-18.206,22.811c-3.115,4.246-2.532,9.626-1.657,14.561
		c2.11,11.896-2.524,21.26-10.798,29.106c-10.209,9.681-11.949,18.538-5.54,31.222C159.82,526.552,159.74,529.684,155.375,533.9z
		 M232.055,488.604c-5.848-11.583-13.559-21.774-23.148-30.562C216.548,468.286,224.491,478.303,232.055,488.604z"/>
	<path fill="FRAME_COLOR" d="M1206.588,697.431c-0.71-11.286-6.575-17.828-15.675-21.05c-7.984-2.826-11.884-7.64-12.241-16.09
		c-0.193-4.551-2.315-8.625-6.465-11.283c-1.375-0.881-3.161-2.207-2.26-3.963c1.195-2.329,2.932-0.374,4.181,0.335
		c2.56,1.452,5.4,1.62,8.149,2.205c17.633,3.75,23.941,11.5,23.949,29.471c0.001,1.641,0,3.282,0,4.979
		c0.576-0.107,1.104-0.092,1.146-0.228c6.035-19.431,5.197-36.83-12.413-46.434c-4.529-2.47-8.97-5.129-13.622-7.341
		c-16.057-7.634-23.809-20.784-23.566-38.005c0.233-16.465-3.16-31.687-10.946-46.062c-0.473-0.874-0.887-1.811-1.133-2.768
		c-0.259-1.011-1.259-2.328,0.271-3.013c1.073-0.481,1.771,0.643,2.41,1.376c9.423,10.811,21.378,17.827,34.484,23.177
		c21.264,8.68,33.25,24.065,32.958,47.504c-0.22,17.681,1.3,35.26,2.339,53.01c2.597-5.031,3.954-10.506,5.051-16.034
		c2.305-11.622,5.188-22.966,10.705-33.643c4.956-9.591,12.21-15.975,22.179-19.699c6.703-2.503,13.392-5.086,19.915-8.015
		c9.579-4.302,17.253-10.663,20.839-21.012c0.432-1.248,1.109-2.42,1.747-3.586c0.514-0.939,1.315-1.559,2.451-1.219
		c0.901,0.269,1.321,1.08,1.273,1.938c-1.387,24.521-0.22,49.589-14.416,71.495c-8.94,13.796-21.959,21.431-37.917,24.479
		c-3.753,0.717-7.535,1.476-11.15,2.678c-10.414,3.463-17.515,10.552-21.792,20.599
		C1214.634,686.88,1211.843,692.301,1206.588,697.431z M1231.678,654.971c12.201-9.164,23.059-19.578,31.009-32.689
		C1252.351,633.178,1242.015,644.074,1231.678,654.971z M1184.997,593.002c3.795,13.432,10.621,25.266,19.286,36.132
		C1197.854,617.09,1191.426,605.046,1184.997,593.002z"/>
	<path fill="FRAME_COLOR" d="M425.339,854.704c5.112,0,10.247-0.312,15.333,0.057c17.165,1.244,34.341-1.098,51.419-0.213
		c23.824,1.234,47.599-0.115,71.396,0.302c23.958,0.42,47.935-0.007,71.901-0.27c15.325-0.168,30.646-0.405,45.962,0.219
		c8.674,0.354,17.351-0.828,25.952-0.469c27.636,1.153,55.264-0.502,82.892,0.337c13.647,0.414,27.317,0.055,40.97,0.346
		c25.277,0.539,50.606-1.193,75.798,0.149c18.704,0.997,37.179-2.871,55.787-0.695c3.776,0.442,7.597,0.494,11.507,0.732
		c-3.41,7.958-5.859,9.48-13.859,9.544c-26.475,0.212-52.941-0.027-79.427,0.788c-25.605,0.788-51.27-0.456-76.91-0.706
		c-37.98-0.371-75.944,1.841-113.925,0.901c-52.292-1.293-104.591-0.893-156.888-0.932c-31.814-0.024-63.63,0.034-95.442,0.296
		c-6.864,0.056-8.594-5.939-12.869-8.898C425.071,855.696,425.205,855.2,425.339,854.704z"/>
	<path fill="FRAME_COLOR" d="M1100.993,913.154c-3.779-3.11-8.241-4.929-12.483-7.144c-19.789-10.337-27.808-34.643-18.219-54.833
		c2.408-5.07,5.34-9.842,7.909-14.983c-3.594,1.74-6.438,4.252-8.44,7.62c-1.272,2.139-2.504,4.369-3.302,6.712
		c-3.487,10.242-9.357,18.59-18.263,24.921c-5.958,4.235-8.172,10.176-6.677,17.554c0.791,3.901,0.846,7.94-3.623,10.818
		c2.134-5.495-0.757-10.24-1.482-15.289c-0.728-5.066,0.027-9.972,2.608-14.492c2.822-4.943,4.875-10.192,6.487-15.645
		c1.9-6.425,6.77-10.533,11.723-14.529c1.393-1.124,2.859-2.16,4.056-3.571c-12.509,2.948-24.256,7.098-31.051,19.23
		c-3.253,5.809-6.283,11.749-9.684,17.469c-6.83,11.489-17.353,16.533-30.422,16.849c-1.829,0.044-3.702,0.149-5.488-0.159
		c-10.111-1.74-19.868-0.653-29.402,3.123c-2.94,1.165-6.096,1.869-9.285,0.861c-1.274-0.402-2.622-1.107-2.665-2.632
		c-0.048-1.705,1.653-1.281,2.625-1.629c9.609-3.438,15.825-10.776,21.455-18.728c3.076-4.344,5.767-8.963,8.87-13.286
		c2.225-3.1,4.846-5.915,6.954-8.453c-3.587-0.365-8.488-0.693-13.336-1.39c-12.849-1.847-24.734-6.518-36.12-12.617
		c-4.258-2.281-8.586-4.513-13.527-4.87c-3.642-0.263-7.041,0.601-7.333,4.888c-0.285,4.197,2.92,5.569,6.513,6.072
		c2.209,0.309,4.324,0.048,6.231-1.217c1.287-0.854,2.615-1.413,4.224-0.998c1.491,0.384,3.161,0.855,3.663,2.296
		c0.672,1.928-1.444,2.333-2.542,3.098c-7.383,5.145-15.142,4.706-22.03-1.137c-5.526-4.687-4.755-12.774,1.766-16.913
		c6.553-4.159,13.308-3.269,20.084-0.417c10.429,4.39,20.561,9.638,31.529,12.54c12.891,3.411,25.909,6.12,39.434,3.162
		c3.835-0.839,7.967-0.306,11.961-0.432c7.414-0.234,14.537-1.634,21.129-5.227c7.067-3.852,15.266-3.194,22.694-5.624
		c0.313-0.102,0.693-0.044,0.977-0.188c9.656-4.892,19.205-5.317,28.692,1.543c-5.665,9.871-6.663,21.618-7.425,33.427
		c-0.355,5.502-0.442,10.977,0.448,16.443c1.323,8.129,4.919,14.725,12.16,19.147
		C1095.874,906.654,1099.523,908.771,1100.993,913.154z M1023.701,853.544c-9.384,4.151-17.724,9.866-25.774,16.05
		C1007.048,865.071,1015.78,859.916,1023.701,853.544z"/>
	<path fill="FRAME_COLOR" d="M979.308,199.201c-8.513,0-16.953,0.193-25.38-0.054c-8.501-0.249-16.975-0.462-25.451,0.492
		c-12.146,1.366-24.282-1.467-36.434-0.187c-14.156,1.491-28.288-0.619-42.443-0.231c-13.134,0.36-26.276,0.482-39.416,0.514
		c-28.123,0.067-56.247-0.012-84.37,0.008c-19.987,0.014-39.975,0.094-59.962,0.139c-21.972,0.049-43.967-0.682-65.903-0.241
		c-19.829,0.398-39.608-1.471-59.399-0.255c-2.952,0.181-4.978-0.45-6.939-2.725c-2.21-2.564-4.941-4.68-7.445-6.989
		c0.805-0.932,1.663-0.575,2.437-0.558c25.291,0.562,50.576,0.578,75.877,0.214c17.8-0.256,35.677,1.923,53.416,1.002
		c18.823-0.978,37.643-1.314,56.411-0.882c19.615,0.451,39.21-0.957,58.872,0.702c14.186,1.197,28.6-0.303,42.912-0.627
		c2.496-0.057,5.003-0.493,7.48-0.339c28.448,1.777,56.918-0.647,85.383,0.597c16.61,0.726,33.262-0.494,49.914-0.222
		C967.196,189.696,974.907,189.434,979.308,199.201z"/>
	<path fill="FRAME_COLOR" d="M193.591,295.358c-15.081,7.845-28.836,0.229-43.004-3.003c8.149,4.356,16.761,7.315,26.465,9.204
		c-4.257,3.881-8.515,6.941-10.143,12.065c-0.453,1.425-0.911,2.862-1.193,4.327c-1.476,7.679-1.464,7.708-9.285,5.291
		c-10.979-3.393-20.167-9.494-27.196-18.603c-11.82-15.318-19.097-33.106-27.091-50.492c-0.549-1.194-0.831-2.533-1.091-3.834
		c-0.467-2.34-2.212-5.826,0.18-6.746c2.697-1.037,2.461,3.132,3.78,4.823c8.451,10.827,18.484,18.29,33.201,16.035
		c14.308-2.192,27.912-0.66,40.325,7.392c1.796,1.165,4.091,2.047,4.508,4.411C184.397,283.88,188.212,290.153,193.591,295.358z"/>
	<path fill="FRAME_COLOR" d="M248.176,240.387c-0.748-0.681-0.881-0.781-0.988-0.903c-6.159-7.024-7.519-13.708-2.313-22.716
		c4.819-8.341,6.54-18.375,7.17-28.274c-3.245,10.357-6.221,20.794-10.578,30.754c-0.734,1.677-1.498,3.34-2.209,5.026
		c-0.823,1.951-1.873,3.178-4.063,1.549c-0.394-0.293-0.867-0.522-1.338-0.662c-2.346-0.693-6.088-0.707-6.755-2.153
		c-1.224-2.651-0.738-6.137-0.784-9.278c-0.131-8.99-0.133-17.94,1.903-26.822c2.954-12.886,9.575-23.295,20.059-31.234
		c8.626-6.532,17.369-12.911,26.068-19.345c0.532-0.394,1.108-0.786,1.726-0.996c1.629-0.554,3.334-2.753,4.854-1.25
		c1.341,1.327-0.712,2.958-1.392,4.366c-1.883,3.895-3.851,7.728-5.276,11.844c-2.931,8.463-3.43,16.706-0.018,25.301
		c3.901,9.827,3.972,20.159,2.207,30.518c-0.286,1.675-0.557,3.173-2.429,3.992C260.657,215.947,252.223,226.135,248.176,240.387z"
		/>
	<path fill="FRAME_COLOR" d="M415.772,838.704c2.325-4.194,5.599-5.166,9.763-5.262c27.97-0.647,55.925,0.456,83.886,0.509
		c21.949,0.042,43.928-1.337,65.842-0.585c25.141,0.863,50.239-0.806,75.385,0.228c20.238,0.832,40.57-0.867,60.836-0.396
		c12.139,0.282,24.298,0.242,36.426,0.382c13.439,0.156,26.922,1.425,40.395-0.173c7.104-0.843,14.296-0.643,21.436,0.238
		c5.159,0.637,10.327-0.57,15.405-0.38c24.28,0.911,48.568-0.923,72.832,0.462c1.577,0.09,3.958-0.73,3.968,2.355
		c0.008,2.887-1.776,2.989-3.991,2.997c-40.458,0.142-80.916,0.564-121.373,0.402c-17.113-0.069-34.327,0.749-51.309-0.636
		c-11.966-0.976-23.625,1.578-35.552,0.199c-10.343-1.196-20.95-0.359-31.43-0.063c-28.968,0.818-57.946-0.761-86.889,0.15
		c-19.312,0.608-38.596-0.35-57.922,0.453c-20.922,0.869-41.93-0.167-62.895-0.607C439.121,838.737,427.655,839.93,415.772,838.704z
		"/>
	<path fill="FRAME_COLOR" d="M1239.177,356.492c0,9.74-0.188,19.485,0.033,29.22c0.927,40.784-0.628,81.567,0.359,122.363
		c0.681,28.129-0.291,56.297-0.513,84.447c-0.027,3.459-1.089,6.387-3.399,9.102c-5.921,6.959-8.805,15.569-13.026,23.834
		c0-4.267-0.307-8.561,0.071-12.794c0.586-6.552,2.62-12.798,6.326-18.244c7.249-10.652,8.496-22.406,4.174-33.898
		c-4.54-12.071-6.664-24.181-6.507-36.912c0.057-4.655-0.72-9.341-0.415-13.967c1.801-27.286,0.414-54.614,0.9-81.917
		c0.295-16.57,0.562-33.267-0.279-49.887c-0.16-3.163,0.589-5.601,2.569-8.206c3.18-4.185,5.658-8.905,8.432-13.399
		C1238.328,356.319,1238.753,356.405,1239.177,356.492z"/>
	<path fill="FRAME_COLOR" d="M1266.004,852.224c-20.276-0.054-35.358-10.382-48.626-24.347c-0.685-0.721-1.336-1.481-1.243-2.602
		c0.254-3.04,7.687-11.082,10.752-11.375c7.037-0.673,13.45-3.768,20.332-5.06c10.945-2.054,20.393,0.849,28.759,8.009
		c5.568,4.766,11.222,9.434,16.924,14.039c5.771,4.66,12.124,6.892,19.507,4.109c0.913-0.344,2.009-0.801,2.659,0.323
		c0.566,0.979,0.141,2.071-0.647,2.708c-1.279,1.034-2.618,2.262-4.134,2.692c-12.163,3.445-23.817,8.608-36.322,10.865
		C1271.358,852.055,1268.66,852.024,1266.004,852.224z M1251.635,833.48c-7.2-2.203-14.4-4.406-21.6-6.609
		C1236.686,830.799,1243.84,833.028,1251.635,833.48z"/>
	<path fill="FRAME_COLOR" d="M1307.307,677.244c-7.495,7.507-10.118,16.96-17.63,22.804c-1.181,0.919-2.154,2.247-3.47,2.828
		c-7.472,3.296-12.815,9.13-18.801,14.416c-8.151,7.197-18.655,6.948-28.974,5.441c-6.72-0.981-13.117-2.206-18.505-7.155
		c-3.099-2.846-7.547-4.123-11.652-5.566c-3.925-1.379-4.951-4.826-1.723-7.011c9.904-6.705,18.397-15.432,29.547-20.363
		c9.392-4.154,18.409-3.926,27.193,1.492c4.008,2.472,8.28,4.116,12.9,5.165c9.121,2.072,16.776-0.065,23.117-6.983
		C1301.149,680.304,1302.977,678.159,1307.307,677.244z M1253.863,703.388c-10.858,0.758-21.557-2.232-32.444-1.898
		C1232.15,703.132,1242.75,706.743,1253.863,703.388z"/>
	<path fill="FRAME_COLOR" d="M1067.247,826.765c-8.625,3.377-17.594,5.102-26.385,7.438c-5.475,1.455-10.916,3.066-16.693,2.355
		c-16.639-2.049-26.512-12.866-33.76-26.64c-5.958-11.321-5.79-23.391-2.729-35.525c0.922-3.656,3.007-6.661,5.989-8.983
		c1.195-0.93,2.517-1.83,4.024-0.545c1.225,1.044,1.024,2.367,0.482,3.656c-0.974,2.314-1.746,4.671-1.927,7.198
		c-0.572,7.98,3.406,13.5,11.196,15.312c2.914,0.678,5.895,1.059,8.832,1.644c9.334,1.859,17.03,6.313,22.852,14.011
		c2.803,3.706,5.903,7.227,9.173,10.53c3.696,3.734,8.13,6.3,13.546,6.815C1063.821,824.22,1065.847,824.487,1067.247,826.765z
		 M1023.068,819.644c7.684,3.999,15.888,5.387,24.343,5.682C1039.244,823.545,1031.014,822.033,1023.068,819.644z"/>
	<path fill="FRAME_COLOR" d="M1227.384,773.442c7.923-0.966,14.92-1.297,22.086-3.855c-10.591-0.57-21.015,5.086-30.885-2.011
		c1.682-2.561,4.475-3.483,6.675-5.007c4.29-2.97,6.951-6.796,7.201-11.929c0.193-3.945,2.251-4.976,5.695-5.139
		c6.93-0.329,13.598,1.051,20.184,2.887c11.589,3.232,22.748,2.515,33.368-3.361c2.166-1.198,4.083-2.844,6.122-4.273
		c0.972-0.681,2.038-1.421,3.099-0.323c0.828,0.857,0.371,1.886-0.188,2.734c-10.562,16.007-21.336,31.881-36.714,43.801
		c-7.903,6.126-17.332,8.239-27.152,8.789c-1.884,0.106-3.703,0.3-3.383-2.706C1234.242,786.023,1232.847,779.5,1227.384,773.442z"
		/>
	<path fill="FRAME_COLOR" d="M439.941,286.643c-4.899-7.236-9.932-12.62-16.796-16.055c-3.541-1.773-7.152-2.564-11.094-1.882
		c-16.243,2.811-30.142-1.181-41.727-13.424c-6.157-6.507-14.308-10.671-22.333-15.943c13.447-5.257,26.078-11.06,40.221-10.97
		c13.651,0.087,25.02,5.787,33.193,16.559c8.062,10.626,14.014,22.565,18.326,35.247c0.371,1.092,0.584,2.254,0.721,3.401
		C440.523,284.17,440.266,284.803,439.941,286.643z M382.828,244.708c-7.67-2.453-15.465-1.603-23.246-1.162
		C367.331,243.944,375.085,244.211,382.828,244.708z"/>
	<path fill="FRAME_COLOR" d="M314.83,231.56c-0.982-0.299-1.993-0.735-2.289-1.745c-1.638-5.599-5.862-9.195-9.956-12.841
		c-2.789-2.484-3.56-5.185-2.745-8.884c3.604-16.361,9.996-30.896,24.06-41.257c5.301-3.906,10.749-7.922,14.431-13.67
		c0.508-0.793,1.049-1.889,2.288-1.324c1.035,0.471,1.188,1.557,1.156,2.571c-0.087,2.758-1.327,5.171-2.637,7.467
		c-4.24,7.43-4.219,14.889-0.455,22.432c7.328,14.685,4.135,27.829-5.083,40.626c-4.763,6.612-11.264,9.958-18.727,12.998
		c-0.504-2.122-2.374-4.114-0.154-6.495c4.601-8.712,7.644-17.813,7.179-27.834c-2.1,8.797-3.981,17.651-7.415,26.066
		C314.278,230.169,314.7,230.924,314.83,231.56z"/>
	<path fill="FRAME_COLOR" d="M1172.576,817.932c4.943,2.539,5.326,6.068,4.526,10.417c-1.705,9.27-3.678,18.574-1.127,28.085
		c0.146-10.454,0.441-20.881,3.344-31.416c9.634,6.046,13.752,15.226,16.102,25.374c1.661,7.171,1.749,14.492,0.92,21.841
		c-0.566,5.022-0.282,9.848,3.163,14.182c2.9,3.648,5.795,6.859,10.798,7.168c0.977,0.06,2.155,0.161,2.272,1.44
		c0.108,1.191-0.953,1.638-1.86,2.027c-3.36,1.44-6.889,1.072-10.34,0.676c-16.817-1.928-42.281-19.487-44.172-45.915
		c-0.12-1.685-0.382-3.296,1.392-4.413c9.645-6.072,12.585-15.843,14.391-26.228
		C1172.152,820.209,1172.334,819.254,1172.576,817.932z"/>
	<path fill="FRAME_COLOR" d="M1256.631,897.987c-0.812,7.041-1.637,14.313-2.5,21.581c-0.136,1.142-0.267,2.441-1.763,2.646
		c-1.851,0.253-2.104-1.19-2.438-2.496c-0.082-0.322-0.258-0.631-0.286-0.955c-1.142-13.354-8.984-20.818-20.904-25.929
		c-13.742-5.892-18.419-18.499-20.243-32.245c-1.154-8.701-0.444-17.698-4.489-25.886c-0.954-1.932,0.478-2.295,1.717-2.745
		c1.652-0.6,3.419-1.836,4.741,0.57c0.961,1.749,1.858,3.546,2.96,5.203c3.652,5.489,8.025,10.223,14.298,12.776
		C1248.977,859.157,1255.281,876.865,1256.631,897.987z"/>
	<path fill="FRAME_COLOR" d="M174.846,691.335c0-53.413,0-106.826,0-160.432c6.306,6.127,12.944,11.442,12.106,22.412
		c-1.432,18.756,0.694,37.632,0.169,56.418c-0.586,20.977,0.237,41.962-0.873,62.921c-0.053,0.991,0.1,2.16-0.363,2.936
		c-3.199,5.372-6.537,10.663-9.83,15.979C175.652,691.491,175.249,691.413,174.846,691.335z"/>
	<path fill="FRAME_COLOR" d="M1112.784,860.592c0.413-3.957,0.92-7.907,1.207-11.872c0.19-2.626,1.107-3.084,3.426-1.883
		c3.745,1.94,7.871,2.759,12.021,3.088c3.864,0.307,4.829,2.149,4.748,5.838c-0.276,12.549-5.052,23.315-12.632,32.954
		c-4.783,6.083-10.144,11.773-7.216,20.512c0.274,0.817-0.087,1.678-0.954,2.087c-1.189,0.562-1.862-0.353-2.49-1.07
		c-3.116-3.557-5.958-7.327-5.645-12.377c0.456-7.342-1.984-13.61-6.185-19.514c-10.561-14.842-7.466-29.5,1.043-43.94
		c1.634-2.773,3.296-4.535,5.11,0.097c1.303,3.327,6.02,19.754,6.267,23.371c0.064,0.931,0.239,1.854,0.364,2.781
		C1112.159,860.639,1112.472,860.615,1112.784,860.592z"/>
	<path fill="FRAME_COLOR" d="M122.485,397.087c0.302-7.752,2.419-13.497,7.18-17.102c8.673-6.568,17.498-12.832,24.33-21.457
		c0.685-0.865,1.878-1.354,2.882-1.937c9.295-5.394,10.168-5.119,13.512,4.74c1.787,5.269,5.106,9.567,8.788,13.941
		c-4.252,2.003-8.84,1.132-12.77,3.78c13.201-5.306,23.616,3.985,36.563,6.002c-7.052,3.687-12.964,7.264-19.256,9.952
		c-9.085,3.881-18.731,4.565-27.523-0.275C144.748,388.431,133.965,385.744,122.485,397.087z"/>
	<path fill="FRAME_COLOR" d="M423.647,829.633c1.392-3.155,4.226-2.152,6.468-2.154c33.66-0.033,67.32,0.057,100.981,0.044
		c57.657-0.023,115.314-0.13,172.971-0.143c65.308-0.015,130.616,0.026,195.924,0.098c1.671,0.002,3.669-0.874,5.063,0.989
		C902.078,830.69,430.979,831.839,423.647,829.633z"/>
	<path fill="FRAME_COLOR" d="M1209.177,384.154c0.885,2.076,0.35,4.094,0.332,6.062c-0.105,11.822,0.153,23.649,0.205,35.454
		c0.052,11.801,0.795,23.671,0.047,35.419c-1.252,19.669,0.925,39.314-0.44,58.949c-0.179,2.57,0.545,5.082-3.377,6.052
		c-3.135,0.776-2.215,3.875-0.758,5.749c2.666,3.428,2.635,7.077,1.665,10.902c-2.254,8.89-3.012,17.94-2.655,27.362
		c-2.382-1.069-1.659-2.8-1.672-4.109c-0.191-18.829,0.26-37.646,0.725-56.471c0.423-17.135-0.128-34.292-0.142-51.44
		c-0.01-13.153,0.185-26.305,0.22-39.458c0.024-9.161,0.233-18.337-0.23-27.477C1202.852,386.274,1204.984,384.634,1209.177,384.154
		z"/>
	<path fill="FRAME_COLOR" d="M205.581,503.56c7.221,4.881,6.516,11.906,6.509,18.992c-0.025,27.139,0.288,54.279,0.376,81.418
		c0.053,16.481-0.079,32.962-0.123,49.443c-0.003,1.166,0.03,2.332,0.044,3.498c0.044,3.694-3.257,4.486-5.448,4.616
		c-2.583,0.154-1.268-2.772-1.277-4.274c-0.087-13.965,1.151-27.91-0.425-41.908c-0.66-5.86,0.675-11.931,0.94-17.913
		c0.693-15.656-1.294-31.275-0.638-46.945C206.193,534.86,206.389,519.219,205.581,503.56z"/>
	<path fill="FRAME_COLOR" d="M1209.798,529.494c10.978,10.159,17.458,22.694,20.666,37.076c2.675,11.992-0.973,22.162-9.037,31.855
		c-0.909-9.805-4.366-17.961-9.807-25.532c-4.053-5.639-3.182-12.403-1.819-18.831
		C1211.522,545.944,1213.995,537.881,1209.798,529.494z"/>
	<path fill="FRAME_COLOR" d="M1198.04,566.496c-1.976-1.35-1.185-3.342-1.212-5.039c-0.556-34.782-0.773-69.563-0.81-104.352
		c-0.023-21.809,1.027-43.613,0.304-65.42c-0.051-1.54-0.183-3.48,1.803-3.452c2.65,0.037,1.62,2.486,1.614,3.861
		c-0.117,26.304-0.405,52.608-0.499,78.912c-0.108,30.136-0.043,60.273-0.125,90.409
		C1199.11,563.091,1199.895,565.094,1198.04,566.496z"/>
	<path fill="FRAME_COLOR" d="M215.509,586.572c-0.744-20.955,0.429-41.914,0.369-62.87c-0.003-1.165-0.161-2.354,0.023-3.488
		c0.234-1.448-0.881-3.998,1.553-3.956c2.138,0.037,1.712,2.544,1.716,4.081c0.081,30.278,0.107,60.556,0.133,90.833
		c0.012,13.644,0.002,27.288,0.001,40.931c0,1.165,0.002,2.329-0.02,3.494c-0.02,1.099-0.438,2.021-1.615,2.157
		c-1.826,0.211-1.645-1.271-1.689-2.353c-0.195-4.82-0.436-9.643-0.45-14.466C215.479,622.815,215.509,604.693,215.509,586.572z"/>
	<path fill="FRAME_COLOR" d="M923.952,823.785c-3.872-0.114-7.512-0.158-10.592,1.52c-4.66,2.54-5.378-0.117-6.079-3.754
		c-3.289-17.056,10.383-29.209,26.909-23.895c2.649,0.852,3.97,1.728,1.261,4.193c-1.07,0.974-1.712,2.417-2.549,3.646
		c-0.943,1.385-1.788,2.198-3.54,0.726c-3.321-2.79-6.552-1.742-9.24,1.055c-2.762,2.875-2.618,8.345-0.039,11.497
		C921.299,820.26,923.463,820.953,923.952,823.785z"/>
	<path fill="FRAME_COLOR" d="M185.83,245.892c1.651,7.252-0.532,13.601-1.981,20.062c-0.541,2.414-1.097,2.758-3.532,1.654
		c-4.451-2.017-6.423-4.674-6.131-9.868c0.494-8.786,0.231-17.625,0.038-26.435c-0.076-3.472,0.96-3.267,3.696-2.236
		C186.357,232.249,187.553,238.634,185.83,245.892z"/>
	<path fill="FRAME_COLOR" d="M960.631,838.026c-13.657-3.207-22.897-19.862-18.403-32.502c1.479-4.159,4.56-6.53,8.973-6.817
		c3.981-0.259,7.2,1.328,9.106,4.926c1.312,2.476,1.635,5.085-0.327,7.481c-0.681,0.831-1.647,1.295-2.661,0.812
		c-1.092-0.52-0.174-1.417-0.148-2.142c0.102-2.847-0.242-5.65-3.703-6.022c-3.688-0.396-4.946,2.404-5.228,5.386
		c-0.919,9.691,3.995,17.227,9.451,24.505C958.665,834.953,960.237,835.822,960.631,838.026z"/>
	<path fill="FRAME_COLOR" d="M1007.051,836.572c-2.237,2.186-3.833,1.973-5.211,2.007c-9.771,0.247-19.547,0.509-29.318,0.437
		c-3.448-0.025-6.78-1.187-9.983-5.249C977.891,833.494,992.247,830.951,1007.051,836.572z"/>
	<path fill="FRAME_COLOR" d="M178.848,470.961c0.607-11.842-5.889-25.007,7.117-35.241C185.711,448.339,188.776,460.796,178.848,470.961z"/>
	<path fill="FRAME_COLOR" d="M463.846,200.205c11.627-7.861,31.783-8.029,40.065,0C490.346,200.205,477.393,200.205,463.846,200.205z"/>
	<path fill="FRAME_COLOR" d="M478.709,215.766c12.022-1.942,25.843-0.953,28.142,1.384C497.235,220.757,487.67,223.389,478.709,215.766z"/>
	<path fill="FRAME_COLOR" d="M1239.189,670.521c0.028,4.091-7.62,10.692-11.202,10.162c-1.708-0.253-1.336-1.696-1.434-2.723
		c-0.412-4.305,6.746-12.202,11.04-11.773C1240.719,666.498,1238.051,669.566,1239.189,670.521z"/>
	<path fill="FRAME_COLOR" d="M1050.155,808.923c-5.361,0.034-8.941-3.396-8.859-8.491c0.077-4.852,4.049-8.755,8.935-8.779
		c4.561-0.022,8.32,3.578,8.298,7.945C1058.497,805.829,1055.75,808.888,1050.155,808.923z M1049.986,806.326
		c3.996-0.102,6.469-2.44,6.468-5.782c-0.001-3.356-3.333-6.48-6.836-6.41c-2.901,0.058-6.019,3.656-5.8,6.94
		C1044.085,805.089,1046.941,806.098,1049.986,806.326z"/>
	<path fill="FRAME_COLOR" d="M996.402,830.351c-8.28,0-16.56-0.024-24.84,0.012c-3.33,0.015-6.66,0.22-9.99,0.218c-1.198-0.001-2.664-0.555-2.632-1.821
		c0.045-1.787,1.726-1.025,2.752-1.036c9.995-0.104,19.991-0.191,29.987-0.213C993.378,827.507,995.318,827.13,996.402,830.351z"/>
	<path fill="FRAME_COLOR" d="M1229.889,726.072c3.51,0.116,7.454-1.35,8.741,1.624c1.441,3.329,0.869,7.51,0.088,11.263
		c-0.283,1.359-1.84,1.132-2.972,1.244c-1.425,0.141-2.103-0.547-2.36-1.92C1232.63,734.249,1231.727,730.245,1229.889,726.072z"/>
	<path fill="FRAME_COLOR" d="M1062.839,216.27c-6.489,3.141-13.41,3.983-20.572,3.577c-1.139-0.065-1.969-0.32-1.705-1.716
		c0.342-1.811,1.196-3.109,3.253-3.112c6.279-0.009,12.557-0.003,18.836-0.003C1062.713,215.434,1062.776,215.852,1062.839,216.27z"
		/>
	<path fill="FRAME_COLOR" d="M414.196,199.341c4.662-9.891,4.662-9.891,11.993-9.078C423.102,198.077,419.988,200.434,414.196,199.341z"/>
	<path fill="FRAME_COLOR" d="M212.021,445c-4.67-5.69-2.542-12.183-2.229-18.474C214.736,432.093,211.928,438.76,212.021,445z"/>
	<path fill="FRAME_COLOR" d="M1146.016,863.892c-0.722,0-1.067,0.057-1.386-0.009c-2.29-0.47-6.611,1.035-6.521-1.234
		c0.146-3.685,4.493-1.696,6.985-2.357c0.155-0.041,0.349-0.046,0.495,0.009c2.522,0.946,7.386-1.593,7.312,2.277
		C1152.845,865.624,1148.101,862.923,1146.016,863.892z"/>
	<path fill="FRAME_COLOR" d="M217.679,431.456c2.382,5.317,1.273,10.902,1.478,16.361c0.029,0.771-0.558,1.21-1.313,1.002
		c-0.852-0.235-1.505-0.908-1.517-1.778C216.255,441.828,216.094,436.599,217.679,431.456z"/>
	<path fill="FRAME_COLOR" d="M484.81,224.543c5.391-1.473,10.816-2.174,16.195,0.102C495.618,225.783,490.235,226.126,484.81,224.543z"/>
	<path fill="FRAME_COLOR" d="M352.237,833.842c6.473-1.418,12.898-0.848,19.556,0.194C369.252,836.418,361.781,836.454,352.237,833.842z"/>
	<path fill="FRAME_COLOR" d="M1048.215,223.701c-2.929,2.706-6.07,2.566-10.318,1.029C1041.812,222.452,1045.044,223.42,1048.215,223.701z"/>
	<path fill="FRAME_COLOR" d="M221.494,382.481c-0.278,3.985-0.556,7.97-0.834,11.955c-0.469-0.033-0.937-0.065-1.406-0.098
		C219.436,390.347,218.914,386.306,221.494,382.481z"/>
	<path fill="FRAME_COLOR" d="M363.22,829.585c3.717-2.324,7.713-1.575,11.711-0.97C371.301,831.217,367.151,829.556,363.22,829.585z"/>
	<path fill="FRAME_COLOR" d="M1196.849,641.902c3.334,2.032,1.948,5.021,2.422,8.607C1194.966,647.699,1197.257,644.527,1196.849,641.902z"/>
	<path fill="FRAME_COLOR" d="M1032.288,864.362c1.75-3.893,4.362-4.06,7.043-3.766c0.652,0.071,0.609,1.088,0.315,1.707
		C1038.039,865.682,1035.127,863.632,1032.288,864.362z"/>
	<path fill="FRAME_COLOR" d="M181.124,824.712c-2.122,1.776-4.226,3.317-6.843,2.058c-0.365-0.176-0.546-1.876-0.186-2.227
		C176.384,822.316,178.716,824.521,181.124,824.712z"/>
	<path fill="FRAME_COLOR" d="M1088.078,861.292c0.198,1.563-0.015,2.722-1.668,2.543c-2.064-0.223-1.492-1.913-1.335-3.099
		c0.158-1.193-0.303-3.362,1.36-3.244C1088.721,857.655,1087.626,860.119,1088.078,861.292z"/>
	<path fill="FRAME_COLOR" d="M371.279,863.607c-3.495,1.418-4.966-1.38-8.274-3.391C367.226,860.125,370.03,859.857,371.279,863.607z"/>
	<path fill="FRAME_COLOR" d="M249.352,311.411c0.469-0.794,0.938-1.587,1.408-2.381c5.409-1.087,10.104-4.412,15.671-5.004c0,0-0.141,0.001-0.141,0.001
		c3.189,1.897,6.469,3.556,10.245,3.919c-0.122,1.151-0.259,2.349,0.496,3.319c4.839,6.219,3.722,12.485,0.217,18.788
		c0,0,0.102-0.144,0.102-0.144c-0.527,0.396-1.086,0.757-1.577,1.194c-5.763,5.131-12.249,5.719-18.702,1.988
		c-6.124-3.542-8.981-9.067-7.012-16.354C250.57,314.845,249.65,313.178,249.352,311.411z M265.791,317.517
		c1.813-0.883,2.586,3.147,4.481,1.066c1.452-1.594,2.254-3.66,2.056-5.899c-0.175-1.971-1.557-3.221-3.075-4.253
		c-0.664-0.451-2.258-0.233-1.94,0.247c2.357,3.555-3.3,5.625-1.485,8.906c-3.911-3.168-7.382-3.303-9.899-0.216
		c-0.734,0.901-2.321,2.061-0.961,3.349c1.13,1.07,1.898-0.361,2.799-1.065c0.939-0.734,2.395-1.859,3.433-0.936
		C264.186,321.369,264.363,321.417,265.791,317.517z"/>
	<path fill="FRAME_COLOR" d="M171.245,752.152c2.301-4.295,6.7-5.768,10.963-9.198c-1.029,7.701-6.582,7.992-10.949,9.768
		C171.268,752.532,171.263,752.342,171.245,752.152z"/>
	<path fill="FRAME_COLOR" d="M1129.519,295.876c-4.629,0.011-7.233-2.73-7.221-7.602c0.012-5.11,3.724-9.188,8.458-9.293
		c4.988-0.111,8.504,3.374,8.472,8.396C1139.196,292.351,1135.185,295.863,1129.519,295.876z M1126.557,289.018
		c0.049,1.638,0.051,3.835,2.724,3.378c2.597-0.444,5.513-1.412,5.605-4.629c0.064-2.236-1.602-4.339-4.057-4.181
		C1127.99,283.769,1126.673,285.953,1126.557,289.018z"/>
	<path fill="FRAME_COLOR" d="M285.732,750.767c5.392,0.041,8.555,3.169,8.398,8.307c-0.154,5.048-4.056,8.844-8.996,8.752
		c-4.897-0.091-8.315-3.606-8.397-8.635C276.654,754.081,280.238,750.725,285.732,750.767z M289.725,758.333
		c-0.126-2.655-2.147-3.689-4.651-3.814c-2.603-0.13-4.137,1.48-4.091,3.994c0.052,2.851,1.783,4.846,4.654,4.856
		C288.406,763.379,289.607,761.322,289.725,758.333z"/>
	<path fill="FRAME_COLOR" d="M1054.287,799.847c-0.684,2.403-1.829,4.064-4.126,4.066c-2.006,0.002-3.607-1.179-3.561-3.33
		c0.045-2.071,1.445-3.441,3.585-3.265C1051.927,797.462,1053.757,797.946,1054.287,799.847z"/>
</g>
</svg>
