<?xml version="1.0" encoding="iso-8859-1"?>
<!-- Generator: Adobe Illustrator 25.0.0, SVG Export Plug-In . SVG Version: 6.00 Build 0)  -->
<svg version="1.1" id="Layer_1" xmlns="http://www.w3.org/2000/svg" xmlns:xlink="http://www.w3.org/1999/xlink" x="0px" y="0px"
	 viewBox="0 0 1397.971 1012.488" style="enable-background:new 0 0 1397.971 1012.488;" xml:space="preserve">
<g id="_x28_21_x29__1_">
	<path fill="FRAME_COLOR" d="M444.191,176.997c4.349-0.269,8.11-2.23,11.266-4.909c2.659-2.256,5.404-2.888,8.675-2.885
		c117.493,0.112,234.987,0.169,352.48,0.389c3.028,0.006,6.888-2.035,9.288,1.922c0.08,0.132,0.966-0.032,1.311-0.284
		c3.425-2.505,7.407-2.598,11.618-2.474c-1.072-3.14-4.353-3.077-6.175-4.891c4.334-2.638,8.842-2.329,13.612,1.475
		c4.623,3.686,9.688,4.827,16.614,3.916c-6.059-1.857-10.176-4.666-13.101-9.103c-1.134-1.719-3.092-0.819-4.647-0.82
		c-75.329-0.029-150.658,0.036-225.987-0.009c-47.831-0.028-95.661-0.212-143.492-0.325c-1.629-0.004-3.258,0-5.005,0
		c0.314-5.059,3.317-5.338,6.972-5.327c59.33,0.186,118.66,0.348,177.991,0.401c63.163,0.057,126.327-0.027,189.49,0.055
		c2.606,0.003,3.249-0.593,3.424-3.168c0.545-7.998,4.383-13.06,11.083-14.934c7.1-1.986,12.728,0.567,17.263,6.052
		c0.955,1.156,1.833,2.376,2.802,3.519c6.006,7.086,8.6,7.804,17.42,4.787c18.997-6.498,35.744-3.464,49.761,11.564
		c3.832,4.109,7.47,8.491,12.531,11.209c1.048-1.055-0.735-2.371,0.672-3.197c1.808-1.06,14.741,0.039,16.576,1.453
		c0.756,0.583,1.961,1.063,1.536,2.224c-0.39,1.064-1.648,0.995-2.623,1.037c-12.112,0.523-23.956,1.784-35.375-5.3
		c-10.753-6.671-22.827-11.042-37.33-7.926c5.261,0.362,9.363,0.555,13.445,0.95c4.185,0.405,8.065,2.008,11.978,3.426
		c10.37,3.756,20.431,8.362,29.636,14.318c22.354,14.464,46.562,19.036,72.638,15.353c7.192-1.016,14.395-1.953,22.754-3.084
		c-11.742-4.655-22.496-8.188-34.303-5.537c-1.615,0.363-3.262,0.748-4.902,0.79c-2.085,0.053-4.4-0.716-5.11-2.545
		c-1.049-2.701,2.686-1.725,3.453-3.744c-2.557-0.19-5.096-0.516-7.638-0.545c-19.451-0.227-31.555-10.995-39.072-27.758
		c-6.273-13.989-6.28-28.796-4.244-43.697c0.133-0.972,0.318-2.026,1.738-2.102c1.995,17.418,13.804,27.068,27.707,35.09
		c5.444,3.141,11.478,3.559,17.442,3.413c16.929-0.414,29.072,6.834,36.843,21.792c3.304,6.361,6.85,12.601,12.095,17.867
		c-23.238-8.372-46.137-17.537-68.663-27.779c5.91,4.494,12.713,7.503,19.294,10.863c6.833,3.489,14.029,6.142,21.174,8.913
		c7.143,2.77,14.226,5.696,21.309,8.617c7.077,2.919,14.122,5.916,22.305,9.351c-3.025-3.701-5.36-6.622-7.762-9.486
		c-12.577-14.992-18.546-31.529-11.66-50.927c4.241-11.947,12.631-20.56,22.852-27.626c2.624-1.814,5.832-3.005,6.998-7.365
		c1.998,3.873,0.873,6.817,0.154,9.536c-2.182,8.25-2.234,16.426-0.345,24.726c1.619,7.111,1.384,14.214-0.821,21.228
		c-2.449,7.791-3.159,15.835-3.25,23.982c3.192-8.101,1.22-17.594,7.083-25.338c2.315,5.646,1.725,11.123,0.34,16.552
		c-1.11,4.354-2.603,8.608-3.822,12.936c-1.859,6.602-0.285,12.413,4.584,18.392c-0.662-4.582-1.292-8.214-1.696-11.872
		c-1.116-10.097,4.679-16.144,12.48-20.959c5.1-3.147,10.38-6.034,15.284-9.46c6.685-4.671,8.757-19.216,3.993-25.859
		c-3.235-4.511-9.795-5.988-14.779-3.327c-4.822,2.574-6.896,8.168-4.915,13.253c2.005,5.145,7.674,7.147,12.311,4.415
		c2.693-1.586,3.959-3.768,2.366-6.635c-1.456-2.623-3.874-2.869-6.466-1.522c-0.559,0.29-1.102,0.612-2.306,1.284
		c0.635-3.305,2.457-4.36,4.857-4.565c2.403-0.205,4.109,0.965,5.17,3.161c2.775,5.741-2.095,13.051-8.691,13.004
		c-7.512-0.053-13.295-7.654-11.694-15.371c1.433-6.906,7.323-11.911,14.518-12.338c7.624-0.452,14.45,3.933,16.616,11.042
		c2.603,8.545,2.08,19.539-9.438,26.989c-1.122,0.726-4.781,1.72-0.703,3.74c-0.451,0.322-0.865,0.728-1.36,0.954
		c-4.386,2.004-8.881,3.792-13.161,6c-6.719,3.465-10.2,9.064-9.374,16.718c0.62,5.75-1.308,12.119,4.007,16.878
		c2.136,1.913-0.872,2.656-1.474,3.922c-1.114,2.341-2.377,0.707-3.519-0.088c-9.264-6.452-19.131-11.545-30.503-12.963
		c-14.844-1.851-17.848,1.747-12.363,15.475c4.822,12.068,3.035,22.808-5.018,32.711c-2.835,3.487-5.714,6.955-8.798,10.218
		c-3.797,4.016-7.387,8.033-9.061,13.526c-1,3.282-3.508,5.626-6.641,7.139c-1.249,0.604-2.673,0.924-3.704-0.228
		c-1.008-1.126,0.008-2.199,0.648-3.113c2.206-3.151,2.736-6.794,1.065-9.98c-5.776-11.011-7.35-22.303-2.417-35.336
		c-5.944,3.949-7.409,9.025-9.438,13.737c-3.751-20.948,10.626-30.63,24.959-40.396c-0.944-1.546-2.373-0.721-3.574-0.624
		c-13.22,1.067-26.336,0.756-39.106-3.27c-4.73-1.491-7.325,0.377-8.785,4.669c-0.536,1.576-1.023,3.171-1.471,4.775
		c-2.767,9.901-9.861,14.77-19.514,16.112c-4.583,0.637-9.31,0.275-13.972,0.283c-5.071,0.009-9.07,1.802-11.529,6.462
		c-0.54,1.023-1.252,1.97-1.983,2.872c-1.013,1.25-2.342,2.088-3.914,1.22c-1.371-0.758-1.467-2.23-0.893-3.528
		c3.018-6.826,3.053-14.285,4.682-21.396c2.788-12.168,13.062-19.451,27.288-19.726c3.295-0.063,6.599,0.314,11.196,0.558
		c-19.293-9.131-37.082-18.981-57.833-19.437c-10.637-0.234-21.168-2.525-31.845-1.385c-3.998,0.427-7.838,1.492-11.634,2.782
		c-4.431,1.506-9.036,3.09-13.652,2.666c-9.977-0.916-17.581,3.889-25.323,9.233c2.369,0.801,4.012-0.615,5.583-1.586
		c6.277-3.88,13.153-5.412,20.407-5.965c2.956-0.226,5.879-1.081,8.779-1.801c4.411-1.096,8.911-2.105,13.305-0.597
		c7.367,2.528,14.422,0.848,21.589-0.759c7.33-1.644,14.658-1.104,23.331,0.212c-7.798,3.925-14.554,5.749-22.255,4.978
		c8.703,4.334,15.05,11.83,24.429,16.209c-3.489,1.682-6.024,0.356-8.189-1.518c-2.253-1.949-4.054-4.415-6.272-6.411
		c-1.313-1.182-3.02-1.998-5.333-1.5c4.551,8.275,2.075,15.245-4.197,22.375c-0.964-3.945-0.476-7.108,1.692-9.349
		c3.781-3.908,2.395-7.243-0.461-10.506c-1.678-1.917-3.079-4.32-6.319-5.371c0,3.671,0.118,6.934-0.023,10.185
		c-0.341,7.84-2.689,14.768-9.61,19.325c-4.995,3.289-12.051,3.137-16.304-0.412c2.725-1.188,5.688-0.767,8.208-2.156
		c8.279-4.565,12.09-16.362,7.865-24.806c-2.618-5.234-9.304-8.17-15.808-6.942c-5.906,1.115-9.742,5.097-10.265,10.989
		c-0.262,2.948-2.062,4.404-4.428,5.485c-1.156,0.528-2.289,0.377-3.177-0.639c-1.785-2.041-0.658-4.111,0.056-6.106
		c0.485-1.354,1.257-2.606,2.189-4.483c-2.513,0.965-2.926,2.897-3.834,4.285c-3.189,4.876-7.169,8.757-12.709,10.817
		c-5.528,2.055-10.834,4.347-12.558,11.832c-1.79-6.746,0.844-11.723,6.827-14.452c3.632-1.657,7.391-3.04,11.006-4.731
		c2.526-1.181,4.59-2.984,5.741-5.756c-8.702,6.836-18.149,10.071-29.227,7.689c-7.207-1.549-12.591-5.999-17.821-10.605
		c-3.613-3.183-7.381-4.395-12.183-4.392c-111.994,0.085-223.989,0.042-335.983-0.008c-1.923-0.001-4.04,0.594-5.667-1.1
		L444.191,176.997z M871.362,165.49c3.155-0.31,6.955-0.644,10.745-1.068c3.155-0.353,5.527-2.114,7.492-4.483
		c1.382-1.667,1.462-2.901-1.105-3.363c-5.68-1.023-9.808-4.593-13.758-8.468c-1.417-1.39-2.866-2.814-4.519-3.885
		c-3.741-2.423-7.796-3.141-11.681-0.492c-3.778,2.577-4.155,6.648-3.492,10.712C856.128,161.092,862.566,165.508,871.362,165.49z
		 M1026.108,242.342c-0.591-14.489,5.322-26.999,12.106-39.248C1028.311,212.038,1023.113,228.917,1026.108,242.342z
		 M1067.142,144.47c-2.397,17.574-1.067,34.292,11.106,48.52C1069.026,178.084,1066.677,161.6,1067.142,144.47z M941.049,209.294
		c9.239-1.603,15.94-8.397,24.211-12.036C956.263,199.327,949.026,205.048,941.049,209.294z M803.791,178.369
		c4.949,3.527,8.467,3.402,13.051-0.523C812.214,179.408,808.028,179.221,803.791,178.369z"/>
	<path fill="FRAME_COLOR" d="M950.579,849.632c-3.658,3.099-7.955,3.31-12.539,3.305c-115.998-0.131-231.996,0.009-347.991-0.607
		c-8.019-0.043-16.248,3.418-24.367-0.37c2.947,2.612,6.338,4.481,8.676,8.143c-4.375,0.655-8.177-0.694-11.844-2.378
		c-3.715-1.706-6.944-4.541-12.368-5.081c3.541,2.656,6.051,4.916,7.997,7.713c1.78,2.559,4.533,1.727,6.897,1.738
		c27.499,0.137,54.998,0.199,82.497,0.24c94.665,0.143,189.329,0.26,283.994,0.485c1.668,0.004,4.822-1.469,4.963,1.16
		c0.17,3.177-2.75,3.888-5.783,3.87c-15.999-0.096-31.999-0.027-47.999-0.046c-105.498-0.121-210.995-0.228-316.492-0.459
		c-4.277-0.009-6.065,0.8-6.137,5.578c-0.093,6.179-3.73,10.608-9.586,12.794c-6.067,2.264-11.543,0.942-16.056-3.64
		c-2.681-2.723-4.931-5.867-7.567-8.64c-3.525-3.708-7.57-4.746-12.684-2.947c-20.296,7.141-32.957,3.595-46.414-13.039
		c-3.141-3.882-5.81-5.976-11.54-5.18c-5.8,0.806-13.207,2.904-17.594-5.71c6.661,1.256,12.451-0.585,19.087,1.534
		c16.29,5.201,32.286,12.232,50.532,12.589c-3.154-2.469-6.463-2.275-9.438-2.721c-17.279-2.587-33.228-8.426-47.278-18.95
		c-22.626-16.948-48.246-19.555-75.186-15.848c-5.205,0.716-10.461,0.459-15.729,1.199c12.167,5.792,24.706,9.641,38.319,8.664
		c4.532-0.325,8.623,0.538,11.97,3.81c1.515,1.481,2.703,3.023-0.238,4.784c3.896,0.299,7.206,0.612,10.523,0.796
		c10.322,0.571,18.049,5.592,23.406,14.153c11.088,17.718,12.078,36.445,4.506,55.919c-0.285-2.792-0.275-5.653-0.906-8.365
		c-2.644-11.36-19.374-26.584-30.878-27.946c-4.611-0.546-9.338-0.067-13.967-0.517c-14.089-1.37-23.274-9.734-29.95-21.523
		c-3.489-6.161-5.669-13.004-10.902-19.718c21.893,9.521,42.545,18.502,63.198,27.483c-24.918-15.416-53.25-23.628-78.756-38.052
		c3.049,4.271,6.038,8.344,9.09,12.361c13.9,18.298,8.512,43.325-2.668,55.544c-3.711,4.056-7.469,8.07-11.205,12.103
		c-1.252,1.351-2.38,2.744-2.842,4.622c-0.265,1.079,1.088,3.058-1.181,3.087c-1.431,0.018-2.032-1.575-2.636-2.751
		c-0.376-0.731-0.867-1.579-0.804-2.333c0.738-8.867-2.44-17.103-4.168-25.545c-2.458-12.006-1.47-23.438,3.677-34.637
		c4.735-10.303,1.531-19.678-4.236-28.575c0.125,2.908,0.7,5.722,0.058,8.679c-0.96,4.418-2.954,7.637-7.502,9.011
		c-1.39,0.42-3.052,1.086-3.838,2.179c-5.304,7.382-13.164,11.028-21.572,14.954c2.321-3.967,2.619-7.96,8.128-9.887
		c9.052-3.168,13.126-15.627,9.232-24.051c-2.013-4.355-2.013-4.355,2.481-7.638c3.747,6.327,2.695,13.401,3.339,20.707
		c4.816-2.667,5.463-6.67,5.092-11.094c-0.316-3.763-2.241-6.916-3.961-10.159c-0.61-1.151-2.437-2.247-0.805-3.881
		c1.575-1.578,3.031-0.482,4.523,0.268c4.909,2.469,9.781,5.022,14.771,7.317c7.237,3.329,14.885,4.589,22.859,4.38
		c4.258-0.112,5.992-2.083,6.047-6.137c0.044-3.269-0.897-6.193-2.391-9.061c-7.064-13.562-5.238-26.145,5.486-37.013
		c6.315-6.401,13.042-12.422,16.928-20.802c0.547-1.18,1.459-2.259,2.407-3.17c1.467-1.41,3.293-2.813,5.327-1.579
		c2.429,1.474,0.416,3.234-0.325,4.698c-1.546,3.055-1.755,6.404-0.413,9.224c5.813,12.21,8.225,24.554,1.608,38.703
		c6.361-4.342,8.087-9.662,9.961-14.979c2.547,8.388,0.339,15.575-4.654,22.248c-4.756,6.355-11.892,9.975-17.622,15.359
		c1.077,1.294,2.294,0.775,3.332,0.682c13.968-1.255,27.63,0.101,40.853,4.894c3.281,1.19,5.154,0.115,6.133-2.944
		c0.555-1.734,0.875-3.549,1.227-5.342c2.517-12.827,9.733-19.3,22.823-20.395c1.824-0.153,3.666-0.244,5.494-0.183
		c6.178,0.207,10.961-2.047,14.294-7.425c1.142-1.843,2.424-4.723,5.331-3.086c2.657,1.497,0.542,3.688,0.119,5.705
		c-1.23,5.856-2.211,11.768-3.174,17.677c-2.026,12.433-8.477,19.217-20.958,21.467c-4.898,0.883-9.896,1.216-15.447,1.87
		c2.716,2.638,5.915,3.432,8.67,4.873c17.254,9.021,35.05,16.349,54.967,16.58c4.153,0.048,8.9-1.216,12.329,0.375
		c6.285,2.917,12.11,2.123,17.794-0.066c7.009-2.699,14.12-3.361,21.474-3.584c7.55-0.229,12.992-5.447,20.287-9.257
		c-1.779,0.114-2.523-0.057-3.004,0.224c-9.89,5.767-21.002,7.095-31.969,9.106c-4.053,0.743-7.921,1.028-11.81-0.237
		c-4.09-1.33-8.068-1.335-12.26-0.215c-9.871,2.637-19.799,1.881-29.758-0.457c6.585-3.024,13.451-4.491,21.041-3.858
		c-9.653-4.109-12.416-16.998-25.504-17.691c4.088-1.791,7.775-0.904,10.934,1.448c2.748,2.046,3.606,6.132,8.125,7.129
		c-2.659-8.233,0.104-14.734,5.86-21.011c1.228,4.136,0.191,7.109-2.308,9.739c-2.849,2.998-2.868,6.63-0.852,9.642
		c2.164,3.234,4.404,7.533,9.821,5.502c-3.16-12.65-0.824-21.911,6.787-27.043c5.379-3.627,12.181-3.967,17.261-0.391
		c-9.625,0.278-13.753,6.442-16.348,14.005c-2.442,7.119,0.748,15.414,6.814,18.7c6.082,3.295,13.122,1.68,17.944-4.004
		c1.497-1.765,2.497-3.555,1.637-5.894c-0.967-2.629,0.386-4.157,2.519-5.206c2.287-1.125,4.115,0.043,4.992,1.94
		c1.346,2.912,2.526,2.062,4.304,0.504c3.415-2.991,7.301-5.144,11.719-6.445c6.319-1.862,6.293-1.987,12.35-8.307
		c0.478,5.267-3.151,10.089-9.308,12.08c-3.955,1.279-8.081,2.007-11.844,3.898c-5.107,2.567-5.952,3.316-9.821,9.714
		c1.975-1.4,3.141-2.095,4.157-2.966c13.775-11.814,30.572-12.548,43.95-0.567c6.204,5.556,12.196,7.268,20.336,7.254
		c108.163-0.195,216.327,0.006,324.491,0.116c1.284,0.001,2.567,0.117,4.142,0.194c-0.802,2.753-4.026,2.743-4.686,5.07
		L950.579,849.632z M518.038,865.02c8.138,0.054,13.166,5.131,18.029,10.489c1.591,1.753,3.569,3.013,5.745,3.87
		c4.527,1.783,9.127,0.182,11.176-3.772c3.901-7.528-1.129-18.205-9.499-19.548c-6.656-1.068-13.276-0.566-19.44,2.619
		C521.53,859.982,519.208,861.501,518.038,865.02z M347.134,872.693c4.317-15.618,2.284-39.043-9.575-49.252
		C348.494,838.577,347,856.002,347.134,872.693z M383.953,774.47c1.131,14.769-2.702,28.214-10.749,40.597
		C384.563,803.53,387.083,789.696,383.953,774.47z M466.797,808.754c-8.573,2.288-15.573,7.062-22.312,12.266
		c0.243,0.407,0.486,0.815,0.729,1.222C452.408,817.746,459.603,813.25,466.797,808.754z M602.947,843.744
		c-5.022-2.706-8.618-1.647-13.329,3.792C593.495,844.852,597.847,843.781,602.947,843.744z"/>
	<path fill="FRAME_COLOR" d="M1225.391,400.722c0.245,1.638,0.134,3.44,0.794,4.888c3.727,8.173,3.396,16.81,3.375,25.468
		c-0.103,42.826-0.125,85.651-0.165,128.477c-0.003,3.304,0.378,6.688-2.697,9.262c4.048-2.742,7.269-6.252,11.419-8.508
		c1.546-0.84,1.125-2.054,1.127-3.399c0.037-42.662,0.13-85.325,0.223-127.987c0.001-0.326,0.114-0.651,0.236-1.309
		c3.573,0.993,5.37,2.797,5.346,6.854c-0.232,39.162-0.303,78.325-0.449,117.488c-0.006,1.628-0.302,3.255-0.539,5.655
		c11.075-4.996,22.429-4.224,33.975-2.314c-5.562,2.41-10.816,5.139-15.016,9.509c-10.235,10.65-16.282,22.446-12.142,37.909
		c2.556,9.546-0.087,18.425-5.89,26.421c-5.884,8.107-14.051,14.09-20.365,23.024c3.057-23.575,6.477-45.995,12.617-67.928
		c-5.606,12.43-8.492,25.597-10.571,38.899c-2.885,18.458-5.552,36.917-13.71,54.016c-0.189,0.396-0.113,0.918-0.261,2.369
		c4.207-7.432,7.843-14.092,12.594-20.076c15.368-19.359,42.138-26.799,63.753-17.559c1.377,0.589,2.789,1.16,4.036,1.968
		c1.883,1.22,4.986,1.801,4.887,4.433c-0.127,3.374-3.586,2.068-5.583,2.763c-3.836,1.334-7.277,3.334-10.333,5.951
		c-5.968,5.111-12.033,10.092-17.693,15.58c-10.092,9.784-23.081,13.674-36.387,16.372c-8.747,1.774-15.787,5.809-21.446,12.656
		c-1.032,1.248-1.875,4.074-4.539,2.694c-2.745-1.421-2.551-3.681-1.716-6.367c3.461-11.13,3.449-22.324-0.155-33.427
		c-1.789-5.512-2.313-5.614-7.253-2.833c-2.031,1.143-4.062,2.296-6.156,3.316c-8.75,4.264-17.181,3.561-24.97-2.195
		c-6.158-4.551-11.974-9.562-18.078-14.19c-4.661-3.534-9.659-6.077-15.629-2.834c-0.979,0.531-1.923,0.431-2.729-0.374
		c-0.995-0.993-0.863-2.092-0.208-3.189c1.544-2.591,4.069-3.923,6.747-4.881c4.276-1.529,8.184-3.636,11.847-6.326
		c6.621-4.862,13.931-4.896,21.466-2.644c2.165,0.647,4.296,1.406,7.597,2.494c-4.331-6.324-9.732-8.507-15.61-10.306
		c4.721-2.085,9.274-1.295,13.753,0.232c4.464,1.522,8.504,3.839,11.803,7.276c3.313,3.452,6.456,7.058,9.459,10.931
		c-2.013-11.323-2.921-22.533-0.727-33.781c0.699-3.586,1.551-7.185,2.797-10.61c1.275-3.507-0.151-5.25-3.087-6.626
		c-2.484-1.164-5.175-1.239-7.785-1.692c-10.842-1.884-16.584-7.883-17.883-18.885c-0.43-3.64-0.746-7.293-1.199-10.93
		c-0.571-4.584-2.242-8.667-5.583-11.994c-0.82-0.816-2.904-1.178-1.791-2.932c0.778-1.227,2.524-1.218,3.685-0.785
		c7.583,2.823,15.899,3.793,22.501,9.135c4.28,3.463,8.372,7.079,11.98,11.367c-0.927-5.477-3.99-9.961-6.484-14.675
		c-1.89-3.572-3.56-7.175-3.594-11.307c-0.022-2.655,0.329-5.181,4.064-8.034c-2.316,8.276,2.234,12.312,6.376,16.669
		c4.44,4.669,5.18,11.059,7.314,16.797c0.55,1.48,0.262,3.281,1.933,4.86c1.707-4.588,3.412-8.234,1.808-13.589
		c-3.304-11.026-1.498-22.076,3.368-32.591c2.755-5.953,7.46-11.239,6.65-18.498c-0.045-0.402,0.385-1.238,0.535-1.224
		c5.884,0.542,3.219-4.033,3.245-6.137c0.434-34.325-0.126-68.654,0.419-102.984c0.135-8.477,0.394-16.964,0.386-25.445
		c-0.011-10.894-5.701-19.874-10.22-29.28c-2.214,8.779-0.362,17.026,2.861,25.109c2.763,6.929,6.419,13.64,5.865,21.429
		c-0.137,1.923,0.833,5.164-1.782,5.401c-1.974,0.179-2.032-3.008-2.48-4.89c-1.032-4.339-1.984-8.698-3.24-13.036
		c-0.899,9.046-3.708,17.112-10.181,23.695c-1.23,1.25-1.826,3.129-2.692,4.73c-3.325,6.148-8.94,9.311-15.264,11.304
		c-4.43,1.397-9.159,1.711-13.526,3.474c-1.637,0.661-3.46,0.594-4.398-1.178c-1.001-1.89,0.34-3.374,1.774-4.13
		c5.213-2.748,6.224-7.38,6.274-12.646c0.029-2.994,0.169-6.013,0.595-8.973c1.054-7.318,3.519-13.709,10.456-17.799
		c18.039-10.636,24.247-25.691,19.566-46.291c-1.333-5.866-3.967-11.215-7.022-18.028c3.578,2.137,5.297,4.077,6.244,6.709
		c6.132,17.03,14.893,32.977,20.645,50.162c0,0-0.131-0.13-0.131-0.13c0.19,6.931,0.505,13.808-0.661,20.762
		c-1.09,6.501-0.828,13.156,1.736,19.466C1225.5,400.952,1225.391,400.722,1225.391,400.722z M1208.801,673.368
		c6.115-16.714,12.219-33.378,3.946-51.148c-1.659-3.563-1.698-7.59,0.984-10.259c1.241-1.234,1.466-1.874,1.358-3.224
		c-0.765-9.631-1.549-19.261-2.262-28.896c-0.391-5.285-0.635-10.578,1.227-16.149c0.791,9.426,1.543,18.382,2.356,28.06
		c7.923-17.608,1.002-35.529,4.669-52.648c-6.918,17.708-13.581,35.446-20.271,53.175c-5.197,13.771-6.112,27.847-3.429,42.283
		C1199.847,647.837,1205.34,660.219,1208.801,673.368z M1256.321,655.403c-20.715,6.175-36.056,19.419-48.587,36.359
		C1221.573,676.543,1237.759,664.41,1256.321,655.403z M1206.708,353.6c-0.388,1.213-0.815,1.979-0.856,2.766
		c-0.446,8.436-3.921,15.158-10.607,20.466c-3.352,2.66-5.262,6.578-6.408,10.739C1196.782,377.41,1208.721,369.399,1206.708,353.6z
		 M1161.299,644.193c11.387,2.878,22.739,6.08,33.838,10.162C1184.977,647.273,1173.422,644.881,1161.299,644.193z
		 M1197.173,582.351c-3.63-5.755-7.924-10.841-13.285-14.937C1187.469,573.177,1191.994,578.088,1197.173,582.351z
		 M1210.947,545.292c2.238-7.072,5.492-13.79,6.06-21.246C1214.136,530.912,1211.744,537.914,1210.947,545.292z"/>
	<path fill="FRAME_COLOR" d="M159.6,470.788c-12.144,5.592-33.704,4.739-39.304,3.507c9.888-1.362,15.996-7.442,21.685-13.9
		c5.827-6.615,9.426-14.48,11.253-23.106c0.533-2.518-0.376-4.962-0.993-7.371c-4.323-16.893,0.539-31.236,12.244-43.565
		c4.559-4.802,9.616-9.135,13.764-14.634c-6.77,24.209-6.17,49.612-13.07,73.742c2.244-3.526,3.347-7.508,4.333-11.543
		c3.804-15.56,4.583-31.622,7.901-47.271c3.223-15.195,7.92-29.913,13.547-44.361c0.586-1.505,1.063-3.053,1.273-4.714
		c-2.845,3.01-4.248,6.805-5.903,10.423c-10.829,23.684-28.767,37.372-55.081,39.307c-9.182,0.675-17.879-1.273-26.17-5.187
		c-2.139-1.01-4.105-2.193-5.08-5.278c15.834-0.462,23.461-12.877,33.116-22.409c8.212-8.107,16.72-16.014,28.446-18.439
		c14.17-2.93,25.515-11.024,37.029-18.945c1.599-1.1,2.93-3.091,5.213-1.648c2.835,1.792,0.733,3.974,0.021,5.702
		c-3.975,9.643-5.509,19.505-3.396,29.819c0.503,2.455,0.93,4.956,2.286,7.093c1.603,2.526,3.727,3.766,6.732,2.057
		c1.446-0.822,2.975-1.496,4.461-2.248c12.536-6.348,21.092-5.256,31.462,4.211c3.688,3.367,6.923,7.258,10.77,10.418
		c4.716,3.875,9.549,8.094,16.562,5.607c1.147-0.407,2.313-0.07,3.02,1.128c0.856,1.452,0.231,2.664-0.852,3.515
		c-1.294,1.016-2.705,2.201-4.236,2.538c-5.521,1.216-10.03,4.171-14.59,7.315c-7.392,5.097-15.429,4.281-23.512,1.716
		c-1.528-0.485-2.892-1.733-5.014-1.118c2.873,4.485,7.124,7.147,11.447,9.902c-7.264,1.358-12.934-1.876-18.221-5.829
		c-5.378-4.021-8.653-9.944-12.754-15.235c0.505,7.032,1.56,13.863,1.525,20.804c-0.038,7.395-0.833,14.672-3.204,21.654
		c-1.51,4.447,0.363,6.301,4.284,7.002c2.117,0.379,4.31,0.338,6.469,0.479c11.299,0.738,16.855,5.217,19.806,16.3
		c1.37,5.144,2.405,10.379,3.547,15.582c0.924,4.209,2.727,7.827,6.389,10.361c0.884,0.612,2.281,1.242,1.647,2.695
		c-0.675,1.544-2.273,1.305-3.52,1.101c-13.568-2.21-26.366-6.008-35.259-17.604c-0.499-0.651-1.047-1.265-2.473-2.979
		c1.684,6.287,4.063,10.7,7.184,14.744c2.274,2.946,4.203,6.024,4.307,9.895c0.07,2.628-0.45,4.919-3.91,5.845
		c0.874-4.371-1.49-6.928-4.311-9.438c-5.757-5.121-7.722-12.281-9.88-19.294c-0.535-1.738-0.971-3.506-1.479-5.36
		c-2.734,3.312-3.898,9.507-2.725,13.177c4.577,14.325,4.286,28.053-4.105,41.237c-2.724,4.28-6.805,8.207-6.548,14.001
		c0.012,0.274-0.273,0.812-0.396,0.805c-6.781-0.384-3.489,4.853-3.516,7.253c-0.327,29.32-0.315,58.644-0.39,87.968
		c-0.004,1.658-0.001,3.316-0.001,6.535c-2.201-3.82-3.673-6.375-5.145-8.93c-0.295-2.417-3.13-3.437-3.266-5.941
		c-0.142-1.484-0.41-2.968-0.409-4.451c0.012-44.767,0.044-89.534,0.097-134.301c0.005-3.931-0.311-7.908,1.115-11.902
		c-3.755,4.726-9.348,7.016-13.43,11.158C160.134,470.53,159.87,470.665,159.6,470.788z M182.299,500.84
		c0.193-3.974,0.72-7.965,0.505-11.917c-0.354-6.482,1.336-12.341,3.453-18.417c5.358-15.386,10.334-30.925,14.853-46.579
		c7.483-25.923-0.708-50.503-7.473-76.591c-4.942,16.397-9.837,31.405-4.403,47.424c1.02,3.006,1.881,6.491-1.127,8.138
		c-2.947,1.613-2.452,3.015-1.689,5.335c4.001,12.154,3.281,23.891-3.286,35.088c-1.089,1.857-3.138,4.318-2.629,5.744
		c2.185,6.12,0.962,12.299,1.06,18.4C181.74,478.582,180.706,489.711,182.299,500.84z M191.737,329.48
		c-7.22,7.741-15.158,14.677-23.159,21.522c-7.986,6.833-17.258,11.814-25.981,17.549
		C163.374,361.07,178.734,346.694,191.737,329.48z M205.92,366.883c9.62,8.697,21.38,10.517,33.702,10.531
		C228.058,374.965,216.524,372.417,205.92,366.883z M223.795,454.624c-3.032-7.465-8.448-12.272-15.858-14.891
		C213.223,444.697,218.509,449.66,223.795,454.624z M192.907,479.482c-1.456,5.358-2.912,10.715-4.368,16.073
		C191.455,490.542,193.027,485.203,192.907,479.482z"/>
	<path fill="FRAME_COLOR" d="M950.403,849.815c8.265-4.487,16.642-8.698,26.117-10.504c-9.39-1.291-17.905-6.303-27.849-4.466
		c-6.957,1.285-13.339-2.068-19.5-5.127c-5.29-2.626-10.144-6.674-16.729-5.12c-0.657,0.155-1.396-0.119-1.545-0.9
		c-0.258-1.354,0.685-2.236,1.603-2.877c7.236-5.06,14.973-7.969,23.94-5.304c4.555,1.354,8.625,3.708,12.172,6.733
		c11.321,9.656,25.693,10.32,39.171,13.632c0.614,0.151,1.642,0.243,1.918-0.094c4.61-5.638,9.242-2.283,14.176-0.439
		c9.461,3.538,19.098,1.355,28.666,0.115c1.937-0.251,3.834-1.104,6.115-0.436c-24.711,12.613-52.121,16.027-77.854,24.632
		c20.152-3.671,40.285-7.399,59.371-14.982c19.137-7.603,38.427-14.757,58.885-20.526c-1.838-1.397-2.747-0.672-3.565-0.43
		c-16.616,4.913-33.068,2.29-49.417-1.281c-14.369-3.139-28.264-2.158-41.401,4.423c-16.196,8.114-28.824-1.532-35.089-12.249
		c-1.505-2.574-2.672-5.366-3.793-8.139c-1.478-3.657-3.352-6.819-7.217-8.489c-1.318-0.569-2.408-1.757-3.472-2.796
		c-1.05-1.026-1.303-2.369-0.514-3.657c0.774-1.263,1.967-0.96,3.102-0.505c4.971,1.993,10.089,1.661,15.272,1.152
		c15.899-1.56,26.297,6.737,28.374,22.499c0.195,1.484,0.369,2.975,0.645,4.445c0.447,2.377,1.695,3.074,3.888,1.776
		c14.451-8.552,29.558-6.329,44.568-2.272c15.134,4.091,30.199,4.494,45.483,0.585c-3.265-0.451-6.564-0.719-9.699-1.784
		c-3.153-1.071-6.312-2.136-9.51-3.062c-3.516-1.019-6.928-0.014-10.337,0.793c-5.016,1.188-9.99,2.752-15.232,2.321
		c-1.014-0.083-2.632,0.142-2.85-1.392c-0.227-1.595,1.941-0.837,2.382-1.953c-16.335-9.871-19.619-17.111-16.495-36.331
		c0.267-1.643,0.411-3.318,0.824-4.924c1.14-4.432,1.132-8.559-2.4-12.073c-0.76-0.756-1.884-1.723-0.848-2.986
		c0.822-1.002,2.068-1.03,3.234-0.677c3.468,1.048,6.29,3.117,8.4,5.996c3.441,4.693,7.851,7.937,13.119,10.425
		c8.741,4.128,13.649,10.963,13.146,21.029c-0.05,0.997-0.016,2,0.004,2.999c0.175,8.509,1.166,9.775,9.359,12.305
		c4.614,1.425,9.161,3.079,13.807,4.386c8.792,2.473,17.494,1.085,26.182-0.852c2.55-0.568,5.035-1.734,8.302-1.299
		c-3.08,2.3-6.402,2.781-9.429,3.923c-7.183,2.711-14.345,4.912-20.874,9.659c-9.533,6.93-19.348,13.558-29.002,20.362
		c-7.782,5.485-11.739,13.705-14.914,23.843c2.87-2.373,3.441-4.634,4.205-6.633c5.035-13.171,16.744-19.382,27.507-26.583
		c0.647-0.433,1.568-0.9,2.303-0.255c0.993,0.872,0.3,1.847-0.186,2.676c-1.172,2.001-2.004,4.263-3.914,5.739
		c-2.478,1.915-4.381,4.522-4.937,7.357c-2.335,11.894-10.591,20.09-17.497,29.149c-3.028,3.972-6.144,7.876-9.144,11.868
		c-2.655,3.534-4.64,7.333-3.632,12.509c-2.458-1.315-2.741-3.362-3.193-5.116c-3.792-14.715-5.891-29.379,0.49-44.068
		c0.853-1.964,1.79-3.215,3.37-4.421c5.847-4.462,12.361-7.823,18.449-12.131c-3.465,1.454-6.967,2.826-10.385,4.383
		c-4.542,2.069-9.045,4.232-13.487,6.507c-0.493,0.253-4.172,0.351-0.727,2.402c0.872,0.519-0.153,1.942-1.703,1.217
		c-3.386-1.582-5.011,0.376-6.426,2.675c-7.559,12.288-18.636,16.146-32.715,15.655c-15.88-0.553-30.232,5.166-43.129,14.444
		c-3.403,2.448-5.656,5.813-7.806,9.895c-1.656-12.118,3.458-27.609,10.185-35.836c3.231-3.951,6.568-7.816,9.858-11.722
		C950.579,849.632,950.403,849.815,950.403,849.815z M960.008,804.468c3.135,8.175,8.543,14.373,16.174,18.638
		C969.865,817.698,965.132,810.913,960.008,804.468z M1027.719,790.917c1.619,7.01,5.594,12.377,11.561,16.355
		C1035.508,801.763,1031.55,796.384,1027.719,790.917z"/>
	<path fill="FRAME_COLOR" d="M173.018,609.88c0.136,2.504,2.971,3.524,3.266,5.941c6.199,15.169,5.841,31.197,6.116,47.13
		c0.079,4.547-0.062,4.549-3.025,10.217c-8.613-14.535-7.443-31.768-14.623-46.339c4.406,13.248,3.568,27.67,9.503,40.582
		c4.209,9.157,10.212,17.217,15.219,25.878c3.799,6.572,7.244,13.349,10.534,20.821c-15.291-11.338-31.699-17.982-50.889-13.762
		c13.933-1.18,27.226,0.422,39.637,8.81c-3.82,1.731-7.445,2.055-10.063,4.551l0.163-0.149c-6.952,1.416-13.796,4.179-21.063,1.576
		c-1.527-0.547-3.237-0.619-4.491-1.836c0.319-1.874,2.092-1.256,3.182-1.916c-0.259-0.13-0.483-0.347-0.681-0.325
		c-6.381,0.708-13.019,0.021-18.688,4.21c-7.396,5.464-7.63,14.833-0.392,20.241c1.698,1.268,2.961,1.832,4.566-0.216
		c1.104-1.409,2.745-2.397,4.139-3.58c3.26-2.767,4.791-5.792,0.962-9.577c6.665,0.58,7.606,5.383,2.493,10.742
		c-1.48,1.552-3.103,2.967-5.389,5.136c5.231,0.791,9.582,2.128,13.634,4.249c1.617,0.846,1.96-0.398,2.539-1.405
		c1.733-3.016,4.156-5.294,7.649-5.9c2.243-0.389,2.341-1.818,2.653-3.532c1.338-7.349,3.811-9.437,11.348-9.402
		c1.558,0.007,2.364-0.439,3.248-1.634c3.989-5.393,9.399-6.032,15.159-3.717c7.342,2.952,12.816,7.704,13.248,16.375
		c0.499,10.012,2.316,19.83,4.428,29.596c0.524,2.424,0.537,3.846-2.426,4.635c-4.301,1.145-4.082,4.555-2.289,8.902
		c-4.299-2.918-6.033-6.468-8.19-9.69c-0.825-1.233-1.74-3.674-3.611-2.053c-1.572,1.361,0.755,2.49,1.529,3.571
		c1.94,2.71,4.142,5.259,4.311,8.821c0.125,2.643-0.49,3.974-3.376,2.195c-2.611-1.609-5.249-3.534-9.151-1.921
		c2.506,2.389,6.35,2.024,8.083,5.443c-2.495,0.525-6.445-1.193-5.903,3.923c0.236,2.229-1.979,0.847-2.994,0.619
		c-7.624-1.714-15.141-3.86-22.963-4.712c-5.374-0.585-10.643-0.317-15.896,0.667c-9.061,1.696-17.222-6.966-13.528-15.375
		c2.421-5.511,4.901-9.524-1.197-14.163c-2.346-1.784-1.841-5.66-1.014-8.565c0.706-2.481-0.222-3.472-2.154-4.723
		c-9.775-6.328-13.336-15.208-10.231-26.217c3.521-12.485,10.641-22.004,23.115-27.034c6.055-2.442,12.059-1.724,18.166-0.867
		c0.253,0.242,0.507,0.484,0.762,0.726c6.811,4.768,13.538,9.639,19.473,16.036c-1.787-7.67-16.404-23.976-40.928-45.815
		c4.432-0.523,7.627,1.746,11.994,2.8c-8.868-8.723-10.465-18.657-8.472-29.5c0.579-3.152-0.478-5.877-1.771-8.622
		c-3.699-7.852-8.282-15.2-12.73-22.63c-3.119-5.21-6.979-9.576-12.919-11.977c6.054-0.503,11.706,0.842,17.328,2.513
		c6.72,1.997,12.644,5.817,19.168,8.254c0.273,0.271,0.546,0.542,0.819,0.814C165.155,601.808,168.06,607.003,173.018,609.88z
		 M157.797,751.41c-0.057-3.276-10.193-9.074-13.072-7.421c-0.486,0.279-0.79,1.001-1.017,1.581
		c-1.444,3.692,1.856,10.436,5.575,11.461C152.275,757.855,157.845,754.177,157.797,751.41z"/>
	<path fill="FRAME_COLOR" d="M1218.716,324.173c0.279-2.404,1.448-1.402,2.642-0.743c3.494,1.927,6.917,4.03,10.556,5.64
		c8.646,3.825,18.296,3.789,26.102-0.143c-20.082,4.318-34.75-3.798-48.317-18.242c3.403,0,5.654,0.018,7.905-0.008
		c1.139-0.013,2.837,0.184,2.873-1.246c0.099-4.003,2.786-3.966,5.478-3.795c1.865,0.118,4.595-3.013,5.492,0.99
		c0.755,3.372,0.693,6.76-3.992,7.43c-0.319,0.046-0.622,0.201-0.948,0.523c9.425-2.269,18.481-0.191,27.548,2.032
		c6.626,1.625,12.505-0.272,17.814-4.268c3.528-2.656,4.887-6.342,4.21-10.58c-0.734-4.598-3.405-8.264-7.789-9.632
		c-4.737-1.479-6.811,3.108-9.403,5.767c-2.76,2.831-2.771,6.007,2.306,8.877c-3.854-0.083-6.166-0.606-6.709-3.133
		c-1.306-6.081,1.152-10.663,8.115-13.973c-6.221-1.239-10.723-2.678-14.82-5.085c-1.808-1.063-2.316,0.195-2.987,1.368
		c-1.918,3.355-4.513,5.819-8.595,5.999c-2.425,0.107-2.819,1.771-3.382,3.592c-2.099,6.794-4.088,8.107-11.208,7.317
		c-1.331-0.148-2.249-0.153-2.797,1.224c-2.252,5.654-6.808,4.555-10.916,3.256c-7.384-2.334-13.305-10.541-13.733-18.353
		c-0.593-10.829-2.177-21.515-4.673-32.583c9.066,1.895,6.397-4.338,5.989-9.222c4.207,1.063,5.28,4.705,7.465,7.166
		c1.144,1.288,1.926,4.306,3.757,3.097c2.409-1.591-0.935-2.808-1.466-4.304c-0.107-0.301-0.428-0.519-0.57-0.814
		c-1.093-2.264-4.652-4.143-2.747-6.821c1.653-2.324,4.155,0.613,6.336,0.9c2.192,0.289,4.389,1.209,7.1-0.571
		c-2.935-1.986-6.569-0.519-8.717-3.555c1.83-0.493,3.712-0.432,3.787-3.509c0.077-3.155,1.932-5.538,6.277-3.412
		c7.021,3.436,14.403,6.083,22.072,7.834c4.286,0.979,8.701,1.403,12.893,0.47c4.843-1.078,8.496-0.14,12.37,2.989
		c5.787,4.673,16.843,0.776,18.492-6.127c0.697-2.917,0.621-5.926-2.313-7.501c-2.537-1.362-5.183-1.014-6.992,1.742
		c-0.545,0.83-1.313,1.857-2.298,0.628c-1.042-1.3-0.846-2.856,0.036-4.194c2.071-3.14,4.968-4.927,8.807-4.704
		c4.103,0.238,6.785,2.629,8.294,6.265c2.92,7.039-0.474,15.754-7.314,19.193c-3.566,1.792-7.281,2.371-11.144,1.296
		c-2.099-0.584-2.836-0.164-3.068,2.215c-0.974,9.997-4.765,14.151-14.436,16.259c-1.73,0.377-3.808,0.027-3.761,2.842
		c0.04,2.455-0.71,5.066,2.594,6.202c2.828,0.972,5.533,2.312,8.379,3.215c1.352,0.429,3.21,2.226,4.276-0.086
		c0.799-1.733-0.054-3.513-1.361-5.019c-1.843-2.124-5.103-2.397-6.656-5.019c6.835-2.345,14.173,3.202,12.769,9.922
		c-0.725,3.473,0.507,4.562,3.115,5.969c6.681,3.604,10.211,9.288,10.378,16.999c0.344,15.908-14.915,35.309-30.45,38.45
		c-8.202,1.659-15.364-0.216-21.526-6.256c-4.548-4.459-7.513-9.991-11.316-14.943L1218.716,324.173z"/>
	<path fill="FRAME_COLOR" d="M227.257,249.763c3.56,1.859,6.208,3.53,6.331-2.151c0.043-1.992,4.91-3.161,0.53-6.723
		c6.493,0.128,10.08,3.326,13.649,6.564c1,0.907,1.93,3.043,3.418,1.505c1.321-1.366-0.396-2.816-1.487-3.686
		c-2.991-2.383-6.02-4.76-9.265-6.766c-2.29-1.415-2.06-2.988-1.447-5.067c0.701-2.376,2.334-1.953,3.977-1.567
		c3.954,0.927,7.951,0.742,11.941,0.479c1.425-0.094,3.653-0.002,3.52-1.893c-0.178-2.537-2.31-0.886-3.553-0.843
		c-4.811,0.166-9.647,0.695-14.834-2.157c3.238-0.918,4.382-2.738,5.203-5.557c0.907-3.116-0.203-5.004-2.538-7.551
		c18.845-4.641,37.899-9.117,54.889-0.593c14.122,7.086,30.053,10.792,42.53,21.105c2.219,1.834,4.747,0.676,7.846,1.462
		c-5.329,3.126-9.905,6.364-14.924,8.609c-5.791,2.59-11.161,0.93-15.291-3.9c-3.189-3.73-6.142-7.662-10.186-12.742
		c0.363,8.915-2.503,14.913-8.709,19.177c-1.236,0.849-0.701,2.05-0.248,3.158c0.818,2.002,1.803,3.961,2.383,6.032
		c2.588,9.24-1.212,14.512-10.731,15.142c-5.03,0.333-10.023,0.845-15.034,4.807c5.31,0.959,9.293-0.859,13.374-0.658
		c2.475,0.122,5.385-0.318,6.827,2.119c1.487,2.514-0.425,4.84-1.757,6.866c-6.031,9.17-14.476,15.192-25.085,17.772
		c-8.523,2.073-15.781-0.473-21.294-7.519c-3.329-4.255-5.492-9.121-7.491-14.067C235.688,270.956,231.652,260.764,227.257,249.763z
		"/>
	<path fill="FRAME_COLOR" d="M1161.824,793.889c-6.649,3.714-7.176,5.82-2.876,11.088c-12.822,4.695-25.767,7.079-39.234,5.464
		c-8.087-0.97-16.26-1.95-22.406-8.409c-0.912-0.959-2.718-1.124-4.147-1.523c-10.475-2.926-20.694-6.426-29.457-13.165
		c-2.039-1.568-4.562-1.871-6.98-3.005c7.565-1.474,12.502-9.636,21.283-7.691c8.522,1.887,11.167,10.338,17.405,15.743
		c0.098-7.597,2.254-13.631,8.022-17.985c1.77-1.336,0.322-2.739-0.313-3.958c-1.882-3.61-3.046-7.387-2.977-11.48
		c0.089-5.235,2.111-7.509,7.384-8.258c4.944-0.701,9.958-1,14.769-2.46c2.164-0.656,4.574-0.973,6.267-4.102
		c-4.34,0.646-8.083,1.29-11.85,1.73c-1.975,0.23-4.006,0.271-5.986,0.102c-4.445-0.379-5.995-2.681-4.335-6.758
		c0.927-2.275,2.296-4.449,3.821-6.389c6.782-8.626,15.926-13.572,26.447-15.873c8.516-1.863,16.287,1.655,20.24,10.164
		c6.118,13.169,9.729,27.211,11.697,41.626c0.192,1.409,0.738,3.265-0.949,4.051c-1.635,0.762-2.084-1.221-2.974-2.029
		c-0.938-0.851-1.886-1.692-3.015-0.862c-1.366,1.005-0.191,2.026,0.382,2.985c1.511,2.53,5.704,5.215,2.361,7.955
		c-2.572,2.108-5.563-1.673-8.086-3.314c-2.068-1.345-3.817-3.189-5.671-4.852c-0.625-0.561-1.246-1.365-2.095-0.795
		c-1.16,0.78-0.483,1.888,0.109,2.576c3.078,3.576,6.985,6.126,10.946,8.604c1.718,1.075,4.081,1.529,3.21,4.706
		c-0.965,3.518-3.442,1.728-5.267,1.834c-3.821,0.221-7.66,0.115-11.491,0.179c-1,0.017-2.236,0.099-2.32,1.346
		c-0.112,1.676,1.31,1.667,2.466,1.615C1151.28,792.522,1156.379,792.003,1161.824,793.889z"/>
	<path fill="FRAME_COLOR" d="M444.343,176.866c-5.505,0.372-10.214,3.809-15.92,4.043c9.771,1.759,18.567,6.789,28.706,6.439
		c7.979-0.276,15.371,2.292,22.401,6.05c5.259,2.811,10.484,5.916,16.834,5.543c0.573-0.034,1.408,0.155,1.705,0.553
		c0.601,0.801-0.051,1.491-0.61,2.148c-5.725,6.736-18.828,9.609-27.256,5.951c-3.854-1.673-7.552-3.788-10.402-6.789
		c-7.006-7.376-15.936-10.588-25.478-12.705c-3.539-0.785-7.091-1.51-10.985-2.337c1.168,2.214,4.059,1.275,4.635,3.528l0.1-0.09
		c-6.237-1.377-12.386-4.367-18.875-0.93c-1.173,0.621-2.341,0.02-3.317-0.557c-13.324-7.877-27.197-5.93-41.198-2.451
		c-7.538,1.873-14.946,4.345-23.658,5.559c3.522-2.703,6.91-2.974,9.979-4.039c23.139-8.032,46.729-14.299,70.827-18.784
		c8.508-1.584,16.466-5.202,24.02-9.646c-2.767,0.863-5.61,1.538-8.288,2.621c-15.722,6.36-32.742,7.364-48.887,11.954
		c-4.323,1.229-8.633,2.505-12.968,3.689c-4.568,1.247-8.929,2.617-13.978,2.374c-6.221-0.299-11.431,4.144-17.135,6.385
		c-6.758,2.655-13.228,6.102-20.712,7.013c5.141-3.858,9.783-8.328,15.611-11.127c11.048-5.306,20.605-12.247,26.33-23.5
		c0.528-1.037,1.117-2.051,1.549-3.127c0.424-1.055,0.685-2.176,0.558-3.514c-2.4,3.75-4.771,7.519-7.207,11.245
		c-2.687,4.11-6.422,7.22-10.31,10.063c-3.732,2.729-7.77,5.039-12.199,7.87c-0.235-3.091,1.423-4.455,2.915-5.828
		c2.415-2.223,4.366-4.884,4.53-8.112c0.698-13.746,9.43-23.008,17.74-32.532c3.283-3.762,6.804-7.324,9.953-11.191
		c2.199-2.701,4.275-5.654,3.007-9.729c4.568,2.168,6.069,11.383,6.442,31.865c0.234,12.866-7.4,20.788-16.167,28.309
		c5.129-0.313,20.698-8.521,24.705-13.183c7.166-8.335,16.015-12.987,27.166-12.222c17.687,1.213,33.07-4.559,47.011-14.976
		c3.727-2.785,7.7-5.326,9.394-10.039c0.328-0.912,0.892-1.925,2.126-1.727c1.198,0.192,0.792,1.172,0.765,1.966
		c-0.559,16.262-4.036,31.347-16.674,42.967c-5.063,4.655-10.904,8.002-16.936,11.129
		C444.191,176.997,444.343,176.866,444.343,176.866z"/>
	<path fill="FRAME_COLOR" d="M256.709,789.552c1.483-2.986,0.24-4.907-1.785-6.996c-2.158-2.225-3.75-2.19-5.916-0.341
		c-0.878,0.75-1.828,2.614-3.228,1.213c-1.279-1.28-0.97-3.014,0.117-4.557c2.9-4.116,6.292-7.75,10.279-10.829
		c1.103-0.852,3.404-1.57,2.118-3.219c-1.479-1.896-2.997,0.207-4.041,1.229c-3.207,3.141-6.181,6.52-9.361,9.691
		c-1.283,1.279-2.399,3.535-4.893,1.508c-2.009-1.633-3.223-3.211-1.673-5.902c2.072-3.597,2.258-7.631,1.998-11.654
		c-0.083-1.282,0.778-3.638-1.511-3.458c-2.058,0.162-1.103,2.422-1.169,3.753c-0.164,3.328-0.009,6.689-1.677,9.741
		c-0.47,0.86-0.877,2.014-2.002,2.038c-1.445,0.031-1.176-1.219-1.263-2.179c-0.294-3.259-3.147-3.543-5.367-4.244
		c-2.428-0.766-4.16,0.367-4.809,3.217c-3.229-16.981-8.022-33.703-1.179-50.634c5.987-14.813,23.902-18.697,32.668-6.35
		c3.917,5.516,6.306,4.816,11.332,3.11c9.753-3.309,16.405,1.987,16.502,12.203c0.05,5.235-0.405,10.574,1.984,15.811
		c2.485-1.289,1.875-3.312,1.922-4.935c0.112-3.827-0.119-7.665,0.014-11.49c0.214-6.15,2.962-7.554,8.397-4.437
		c11.396,6.536,16.807,22.591,11.623,34.979c-2.945,7.036-7.545,12.95-13.5,17.699C284.569,780.677,267.666,787.776,256.709,789.552
		z"/>
	<path fill="FRAME_COLOR" d="M1174.276,249.654c0.452,3.556,1.179,6.288,4.496,7.075c2.463,0.585,4.106-0.565,5.391-3.091
		c3.691,6.643,4.021,13.626,4.825,20.439c1.177,9.97,1.439,19.898-1.987,29.622c-2.639,7.493-7.179,12.822-15.328,13.984
		c-8.373,1.194-15.173-1.809-19.545-9.12c-1.511-2.527-2.794-1.966-4.793-1.207c-4.054,1.54-8.164,2.924-12.629,1.709
		c-5.023-1.367-8.085-4.25-8.416-9.757c-0.319-5.311-0.921-10.606-1.499-15.898c-0.115-1.049-0.094-2.753-1.667-2.57
		c-1.31,0.153-1.448,1.699-1.402,2.859c0.174,4.324,0.697,8.65,0.596,12.964c-0.155,6.615-3.079,8.055-8.542,4.519
		c-10.911-7.063-15.828-21.404-11.028-33.415c4.009-10.033,10.548-18.033,20.397-23.051c7.89-4.02,16.157-7.062,24.55-9.791
		c1.541-0.501,3.102-1.291,4.842-0.839c-1.524,6.528,0.826,8.756,7.401,6.868c2.783-0.799,2.637,0.383,2.2,2.455
		c-1.019,4.842-4.86,7.368-8.138,10.391c-1.363,1.257-4.423,2.554-2.951,4.314c1.832,2.191,3.251-0.962,4.584-2.114
		c3.28-2.834,6.308-5.929,8.641-9.633c0.733-1.163,2.546-2.626,2.982-1.436c0.74,2.017,4.69,1.33,3.387,4.738
		c-1.553,4.061-2.078,8.405-2.246,12.741c-0.057,1.473-0.905,3.978,1.488,3.997c2.023,0.016,1.253-2.369,1.236-3.698
		C1171.067,258.345,1171.738,254.2,1174.276,249.654z"/>
	<path fill="FRAME_COLOR" d="M198.221,242.191c-1.532,2.792-3.564,3.967-5.481,5.279c-0.711,0.486-1.354,1.176-0.78,2.062
		c0.501,0.774,1.442,0.894,2.225,0.474c1.752-0.941,3.388-2.113,5.176-2.972c1.484-0.712,2.668-2.973,4.765-1.3
		c2.269,1.81,0.363,3.655-0.176,5.382c-0.74,2.373-1.868,4.623-2.653,6.984c-0.412,1.239-0.7,3.074,0.758,3.514
		c2.168,0.653,1.555-1.527,1.845-2.623c0.816-3.079,2.012-5.992,3.639-8.723c0.545-0.915,1.34-1.513,2.486-1.189
		c1.104,0.312,1.48,1.124,1.576,2.24c0.176,2.035-0.644,4.285,0.946,6.114c1.255-0.447,0.956-1.365,1.088-2.088
		c0.338-1.845-0.559-4.604,2.05-5.006c2.909-0.448,1.278,2.734,2.312,3.993c0.847,1.031,1.55,2.727,2.831,2.572
		c4.88-0.59,4.763,3.209,5.913,6.098c2.277,5.718,4.409,11.526,7.172,17.009c3.756,7.453,3.805,15.058,1.988,22.855
		c-1.631,7.002-4.774,12.888-12.64,14.467c-8.024,1.611-14.973-0.639-20.17-6.879c-2.225-2.671-3.092-3.468-6.226-0.841
		c-6.92,5.802-20.285,3.23-26.417-4.689c-2.427-3.134-4.787-6.446-5.128-10.646c-0.136-1.671-0.577-2.918-2.671-2.706
		c-10.532,1.062-16.884-12.881-12.447-22.45c2.139-4.612,5.295-8.426,9.022-11.824c8.316-7.581,17.956-13.163,27.77-18.494
		c2.095-1.138,3.743-1.714,5.27,1.015C193.351,241.759,195.643,242.22,198.221,242.191z"/>
	<path fill="FRAME_COLOR" d="M222.364,201.3c0.297-4.769,2.286-8.638,3.573-12.691c0.339-1.068,1.262-2.432-0.15-3.041
		c-1.377-0.594-1.931,0.899-2.35,1.968c-1.395,3.561-2.773,7.129-4.09,10.719c-0.72,1.962-1.859,2.886-4.106,2.699
		c-2.41-0.201-2.409-1.872-2.651-3.498c-0.738-4.956-1.712-9.838-4.337-14.216c-0.52-0.866-1.154-1.97-2.263-1.448
		c-1.22,0.575-0.486,1.72-0.093,2.566c1.829,3.939,3.509,7.927,3.754,12.33c0.069,1.246,0.528,2.815-1.028,3.532
		c-1.481,0.682-2.428-0.473-3.476-1.312c-4.233-3.391-4.666-3.268-7.118,2.119c-10.69-12.089-21.275-23.942-26.245-39.609
		c-1.915-6.038-1.647-11.89,1.574-17.341c6.086-10.299,16.589-11.165,26.836-2.381c5.873-12.812,19.416-16.758,31.78-9.25
		c3.286,1.996,5.633,4.725,6.068,8.664c0.265,2.403,1.082,2.484,3.225,1.711c9.254-3.334,17.151,1.94,17.9,11.774
		c0.428,5.62-1.048,10.88-3.152,16.005c-3.191,7.771-7.862,14.606-13.114,21.116c-3.825,4.741-7.917,8.639-14.662,7.091
		C225.798,198.247,225.029,200.97,222.364,201.3z"/>
	<path fill="FRAME_COLOR" d="M1176.127,766.984c-4.82-9.785-6.862-20.376-9.504-30.773c-1.454-5.724-1.718-11.512-0.177-17.296
		c2.23-8.37,5.538-16.132,15.099-18.019c9.967-1.967,16.439,3.398,21.207,12.129c6.312-7.77,14.224-8.032,22.478-4.627
		c7.418,3.06,11.045,9.293,12.13,17.032c0.327,2.332,0.238,4.316,3.125,5.483c9.772,3.95,12.842,14.722,6.478,23.339
		c-8.21,11.119-19.307,18.682-31.848,24.203c-2.835,1.248-5.793,2.216-9.25,3.523c0.328-2.785,3.899-3.923,1.74-6.623
		c-2.429-3.036-5.166-0.749-8.297-0.418c0.866-5.111,4.111-8.005,7.365-10.917c1.086-0.971,3.825-1.624,2.104-3.53
		c-1.486-1.647-2.957,0.626-4.016,1.649c-2.508,2.422-4.79,5.079-7.162,7.642c-1.137,1.229-2.119,2.579-4.171,1.302
		c-1.759-1.095-1.87-2.348-1.456-4.216c0.981-4.421,0.845-8.928,0.467-13.422c-0.074-0.883-0.381-1.835-1.301-1.861
		c-1.315-0.038-1.498,1.043-1.397,2.129c0.357,3.824,0.575,7.644-0.361,11.425c-0.273,1.101-0.308,2.325-1.858,2.581
		c-1.69,0.28-1.81-1.045-2.312-2.034c-0.225-0.443-0.535-0.843-0.791-1.272c-1.35-2.263-2.995-4.258-5.96-3.438
		C1175.094,761.906,1177.202,764.872,1176.127,766.984z"/>
	<path fill="FRAME_COLOR" d="M1140.157,218.662c6.596,1.769,13.096,0.848,19.932,4.475c-4.266,0.384-7.691,0.288-7.853,4.62
		c-0.011,0.293-1.408,0.652-2.194,0.78c-11.949,1.937-22.53,7.027-32.125,14.206c-5.283,3.952-10.689,4.798-16.87,2.399
		c-13.827-5.366-15.921-20.437-4.216-31.371c1.548-1.446,3.294-2.679,4.976-4.033c-10.621-9.503-7.965-25.793,4.967-30.671
		c1.994-0.752,2.018-1.809,2.179-3.229c0.452-4.003,2.833-5.817,6.689-5.992c1.611-0.073,3.029,0.216,3.953-1.986
		c3.083-7.344,11.181-10.12,18.997-6.775c8.019,3.432,13.414,9.821,17.963,16.851c4.93,7.621,10.163,15.16,12.871,23.885
		c-1.628,1.528-2.404-0.006-3.348-0.322c-1.806-0.604-2.843,0.441-3.881,1.538c-1.091,1.153-1.191,2.255,0.155,3.395
		c0.871,0.738,1.9,1.763,0.748,2.913c-1.045,1.043-2.171,0.04-3.18-0.43c-5.046-2.351-8.636-6.395-12.078-11.001
		c-1.816,2.576-0.228,4.094,0.937,5.545c2.632,3.278,5.91,5.901,9.442,8.095c1.981,1.231,2.179,2.568,1.782,4.563
		c-0.493,2.482-2.242,2.01-3.865,1.879c-3.486-0.281-6.966-0.655-10.454-0.903C1144.116,216.979,1142.4,216.333,1140.157,218.662z"
		/>
	<path fill="FRAME_COLOR" d="M1201.008,812.914c11.886,9.792,22.255,20.418,28.222,34.663c1.858,4.436,2.255,8.976,1.186,13.688
		c-2.767,12.194-15.63,16.864-25.572,9.252c-0.503-0.385-1.06-0.699-1.62-1.065c-5.569,11.935-15.139,16.658-26.633,13.199
		c-3.778-1.137-7.062-3.027-8.435-7.079c-0.627-1.85-1.257-2.494-3.541-1.61c-8.817,3.412-18.503-3.213-19.155-12.842
		c-0.418-6.162,1.46-11.885,3.763-17.417c3.941-9.466,9.885-17.69,16.664-25.316c1.196-1.345,2.57-2.597,4.401-3.123
		c2.418,5.476,3.691,5.764,10.246,1.937c-0.616,4.351-1.187,8.358-1.75,12.366c-0.133,0.948-0.579,2.149,0.903,2.331
		c1.284,0.157,1.644-0.949,1.725-1.957c0.294-3.665,0.939-7.256,2.049-10.763c0.454-1.436,0.8-3.033,2.733-3.061
		c2.005-0.029,2.845,1.197,3.237,3.071c0.648,3.095,1.48,6.162,3.226,8.862c0.669,1.034,1.173,2.955,2.778,2.096
		c1.844-0.987,0.222-2.243-0.428-3.267c-1.642-2.583-2.475-5.438-2.899-8.427c-0.149-1.052-1.039-2.371,0.544-3.038
		c1.18-0.497,2.116,0.075,3.117,0.886c1.213,0.983,2.385,2.829,4.236,1.985C1202.462,817.163,1199.539,814.946,1201.008,812.914z"/>
	<path fill="FRAME_COLOR" d="M244.417,813.476c5.484,2.031,10.042,4.435,13.728,8.397c0.93,1,1.717,3.32,3.316,2.02c1.837-1.494-0.305-2.962-1.25-4.085
		c-2.729-3.241-6.536-5.103-10.01-7.384c-1.291-0.847-3.472-1.099-2.51-3.509c0.854-2.142,2.461-2.969,4.771-2.687
		c3.471,0.424,6.954,0.764,10.437,1.066c1.32,0.115,2.716,0.146,3.394-2.071c-5.763-0.914-11.716-0.941-18.395-4.184
		c4.542-0.367,8.302,0.239,9.345-4.193c0.131-0.558,1.697-0.862,2.641-1.134c11.959-3.439,22.969-8.752,33.108-16.022
		c5.556-3.984,14.815-2.546,21.713,2.786c4.882,3.773,6.388,9.758,4.236,16.762c-1.622,5.282-5.19,9.245-8.909,13.086
		c-1.488,1.536-2.297,2.438-0.568,4.849c5.902,8.229,0.06,21.85-9.998,23.528c-2.803,0.468-3.449,1.125-3.044,3.95
		c0.646,4.502-1.414,6.741-6.136,6.954c-1.931,0.087-2.826,0.759-3.893,2.307c-4.907,7.12-13.297,9.092-20.597,4.452
		c-13.915-8.843-19.811-23.515-27.507-37.442c3.224-0.812,5.328,2.632,7.73-0.215C248.524,817.737,244.894,816.408,244.417,813.476z
		"/>
	<path fill="FRAME_COLOR" d="M1200.169,193.108c-2.87,0.663-4.143,2.723-5.49,4.529c-1.329,1.782-2.7,2.858-5.014,2.175
		c-2.769-0.818-1.49-2.917-1.44-4.564c0.086-2.838,0.282-5.675-0.713-8.407c-0.409-1.123-1.023-2.361-2.461-1.833
		c-1.188,0.436-0.763,1.687-0.513,2.604c0.754,2.765,1.188,5.548,0.632,8.394c-0.258,1.322-0.614,2.684-2.33,2.802
		c-1.408,0.097-2.114-0.721-2.409-2.016c-0.236-1.033-0.709-1.993-1.921-1.911c-1.528,0.104-1.046,1.347-1.052,2.269
		c-0.006,0.965,0.283,2.163-1.071,2.399c-1.55,0.271-1.89-1.083-2.307-2.135c-2.276-5.75-5.228-11.142-8.401-16.439
		c-4.803-8.019-11.249-14.415-18.964-19.581c-5.264-3.525-10.878-5.954-17.391-4.259c-2.99,0.778-3.055-0.573-2.583-2.822
		c1.018-4.851,4.432-7.463,9.461-6.558c2.353,0.424,3.918,0.132,5.728-1.491c3.061-2.744,7.003-3.381,10.808-2.225
		c2.804,0.852,4.277,0.698,6.115-1.914c3.459-4.917,8.826-6.044,14.118-2.898c2.725,1.62,4.128,1.106,6.406-0.589
		c6.709-4.99,14.993-3.825,20.501,2.586c1.133,1.318,1.726,2.5,3.875,0.981c6.178-4.367,12.687-3.74,18.707,0.245
		c6.332,4.191,8.187,10.683,7.513,17.924c-0.537,5.774-3.307,10.815-6.104,15.731c-4.953,8.704-10.969,16.692-17.227,24.493
		c-1.195,1.489-8.212,2.235-9.515,1.075c-1.207-1.074-0.415-2.073,0.154-3.085C1198.209,196.935,1200.447,196.044,1200.169,193.108z
		"/>
	<path fill="FRAME_COLOR" d="M233.127,822.053c2.644,7.001,6.037,13.775,10.066,20.245c4.797,7.704,11.326,13.524,18.987,18.068
		c6.575,3.9,13.626,5.06,21.223,0.774c-2.549,9.057-8.484,13.679-16.196,13.873c-2.751,0.069-4.779,3.277-7.766,2.706
		c-4.078-0.78-6.957,0.468-10.056,3.308c-3.927,3.598-9.362,2.92-14.632-1.15c-2.396-1.85-3.69-2.425-6.315,0.108
		c-5.748,5.544-15.788,4.859-21.156-1.112c-1.703-1.895-2.762-2.467-5.292-1.3c-6.427,2.965-12.822,2.27-18.244-2.335
		c-5.357-4.549-6.262-10.729-4.899-17.348c1.236-6.001,4.504-11.081,7.623-16.187c3.998-6.547,8.683-12.62,13.689-18.421
		c1.612-1.868,3.682-3.344,5.576-4.962c1.601-1.368,3.318-1.229,4.995-0.159c2.036,1.3,0.714,2.941,0.335,4.443
		c-0.159,0.631-0.577,1.195-0.856,1.799c-0.433,0.938-2.135,1.928-0.636,2.883c1.76,1.122,2.025-0.967,2.737-1.922
		c0.596-0.8,1.271-1.576,1.686-2.468c0.867-1.862,2.11-2.235,4.047-1.678c2.247,0.647,2.091,2.031,1.847,3.855
		c-0.396,2.959-0.545,5.955-0.696,8.94c-0.042,0.832,0.355,1.728,1.359,1.78c1.322,0.068,1.547-0.873,1.587-1.989
		c0.101-2.819-0.122-5.732,0.529-8.427c0.658-2.72,2.034-5.554,5.225-1.606C230.691,827.236,230.822,822.313,233.127,822.053z"/>
	<path fill="FRAME_COLOR" d="M1102.081,839.623c-1.924,2.812-3.29,5.927-2.841,9.319c0.685,5.175-0.565,9.827-2.5,14.541
		c-3.061,7.462-0.225,16.473,6.217,20.824c5.242,3.541,12.218,3.021,16.587-1.236c4.479-4.364,4.202-7.897-1.037-13.263
		c-3.097-3.172-6.665-2.775-10.69,1.192c-0.354-3.314,0.764-5.616,3.728-6.656c5.07-1.78,8.621,0.624,11.296,4.854
		c0.334-0.444,0.563-0.651,0.673-0.908c2.317-5.415,0.834-8.453-3.413-13.373c-5.15-5.967-9.693-13.065-14.311-19.794
		c-4.275-6.23-1.076-15.702,5.082-19.979c1.2-0.834,2.356-1.057,3.747-0.721c15.682,3.791,30.74,1.072,45.548-4.363
		c2.306-0.847,4.699-1.456,7.707-2.375c-1.093,4.019-3.674,6.372-5.88,8.882c-4.95,5.629-9.901,11.231-13.853,17.651
		c-3.738,6.072-6.116,12.56-6.58,19.691c-0.447,6.88-1.847,8.176-8.786,7.836c-1.126-0.055-2.245-0.248-3.547-0.398
		c0.602,2.626-0.269,4.998-0.609,7.431c-0.175,1.251-0.89,2.871,0.601,3.625c1.638,0.829,3.314,0.192,4.505-1.171
		c1.64-1.876,3.156-3.861,4.721-5.803c1.66-2.059,3.021-2.589,4.026,0.569c0.397,1.246,1.107,2.433,1.859,3.518
		c4.134,5.959,3.818,7.13-2.738,10.541c-1.741,0.906-3.54,0.502-3.405-1.181c0.337-4.189-1.948-2.554-3.883-2.234
		c-1.629,0.269-3.32,0.624-4.927,0.44c-1.882-0.215-2.443,0.44-3.157,2.121c-3.861,9.093-10.144,13.348-19.892,12.526
		c-14.688-1.238-26.76-7.942-35.531-19.79c-8.724-11.786-7.977-30.867,5.209-41.32c8.753-6.939,18.443-11.491,29.934-15.078
		c-2.372,4.071-4.066,6.775-7.928,8.262c-15.009,5.781-22.25,23.402-17.206,41.087c0.714,2.503,1.286,5.149,3.247,7.407
		c0.465-2.178-0.752-3.703-1.29-5.37c-4.486-13.888-0.814-29.146,9.127-37.576c1.136-0.963,2.364-1.863,3.667-2.576
		c4.688-2.565,5.458-2.21,5.738,2.924c0.186,3.412,2.525,6.702,0.621,10.232C1101.919,839.932,1102.081,839.623,1102.081,839.623z
		 M1094.457,857.981c0.039-4.664,0.393-9.396-2.814-14.548C1092.725,849.025,1093.591,853.503,1094.457,857.981z"/>
	<path fill="FRAME_COLOR" d="M191.837,222.534c-3.062,1.13-6.337,0.588-6.652,4.365c-0.225,2.692-0.858,5.488,3.944,5.978
		c-13.323,8.31-26.142,15.094-41.055,16.786c-1.155,0.131-2.325,0.158-3.489,0.163c-11.43,0.051-15.826-7.11-10.136-17.061
		c1.591-2.782,0.804-3.784-1.137-5.622c-6.146-5.819-7.466-14.271-4.183-20.99c1.833-3.751,7.438-4.149,7.898-7.424
		c0.466-3.308-2.946-6.8-2.531-10.875c1.162-11.412,15.095-19.72,26.445-15.581c7.347,2.679,13.361,7.454,18.724,12.958
		c4.288,4.401,8.244,9.146,12.103,13.935c2.166,2.687,0.383,6.954,4.908,10.054c-5.48-0.733-8.683-2.907-12.202-4.164
		c-1.165-0.416-2.774-1.438-3.37,0.433c-0.487,1.528,1.304,1.671,2.29,2.025c2.665,0.957,5.409,1.752,7.662,3.538
		c1.236,0.98,3.179,1.79,2.539,3.843c-0.714,2.292-2.721,2.027-4.592,1.75c-3.626-0.538-7.267-0.993-10.931-0.56
		c-1.372,0.162-3.545,0.038-3.319,2.01c0.205,1.79,2.161,0.772,3.348,0.816C182.729,219.086,187.713,217.814,191.837,222.534z"/>
	<path fill="FRAME_COLOR" d="M427.975,189.289c14.443,0.541,25.865,7.429,31.747,23.522c1.924,5.263,2.353,11.209,9.147,13.125
		c1.508,0.425,2.5,2.321,1.793,4.18c-0.632,1.66-2.235,1.202-3.487,1.067c-7.285-0.783-14.596-1.011-21.906-1.399
		c-11.771-0.626-20.276-9.818-20.942-21.547c-0.534-9.405-0.503-9.319-9.351-6.078c-11.358,4.16-22.855,3.72-34.448,0.899
		c-2.943-0.716-6.822-3.413-8.126,2.459c-0.187,0.84-2.155,1.285-3.234,1.877c12.851-0.255,23.977,14.136,22.607,28.746
		c-0.388,4.142-1.018,8.262-1.405,12.404c-0.383,4.098-0.085,8.025,3.525,10.887c0.762,0.604,1.56,1.437,1.032,2.555
		c-0.612,1.296-1.926,1.28-3.047,1.077c-3.999-0.721-6.965-3.329-9.412-6.22c-3.883-4.589-8.465-7.811-14.086-9.939
		c-9.767-3.698-14.918-10.977-14.854-21.459c0.037-6.028-2.002-9.679-7.954-12.096c-6.448-2.618-12.473-6.195-19.382-7.814
		c-8.056-1.888-15.847-1.455-23.556,1.47c-2.746,1.042-5.516,2.251-8.697,1.066c0.109-1.655,1.309-1.961,2.283-2.405
		c23.54-10.741,47.718-17.338,73.602-9.798c20.298,5.913,39.833,3.588,59.088-4.122c0.717-0.287,2.029-0.282,1.659-1.247
		c-0.254-0.662-1.6-0.905-2.475-1.319C428.075,189.199,427.975,189.289,427.975,189.289z M323.501,201.537
		c6.415,0.234,11.376,1.567,16.263,3.198c4.83,1.612,9.712,2.104,14.715,0.953c4.845-1.115,9.122-4.02,15.134-4.176
		C354.691,196.763,333.347,196.61,323.501,201.537z M377.116,229.356c-3.069-7.945-7.907-13.947-16.375-16.162
		C367.801,217.014,371.593,224.099,377.116,229.356z M433.854,198.271c4.262,4.578,7.079,10.114,10.005,15.577
		C442.741,206.578,439.398,201.328,433.854,198.271z"/>
	<path fill="FRAME_COLOR" d="M1205.578,808.875c5.852,0.044,6.473-1.498,2.52-4.531c-0.758-0.582-1.64-1.256-0.93-2.463
		c0.76-1.293,1.935-1.128,3.081-0.809c3.044,0.848,6.037,1.916,9.12,2.569c1.567,0.332,4.214,1.576,4.607-0.833
		c0.341-2.091-2.405-1.506-3.898-1.874c-2.898-0.714-5.814-1.367-8.678-2.201c-0.998-0.29-2.56-0.415-2.406-1.97
		c0.126-1.27,1.385-1.691,2.444-2.229c1.909-0.969,4.326-0.145,6.575-2.149c-1.94-0.294-3.43-0.52-4.915-0.745
		c-1.838-6.9,2.446-9.337,7.821-11.764c8.185-3.696,16.062-8.088,25.072-9.552c2.123-0.345,4.304-0.6,6.445-0.522
		c11.692,0.428,17.826,10.605,12.599,21.128c-1.047,2.108-1.001,2.667,0.983,4.11c8.05,5.855,6.567,19.837-2.382,24.219
		c-1.507,0.738-3.526,0.535-1.95,3.541c3.467,6.615,2.089,12.147-3.672,17.962c-5.155,5.203-12.55,6.802-18.769,3.862
		c-2.086-0.986-4.21-2.159-5.878-3.717C1223.264,831.469,1214.35,820.985,1205.578,808.875z"/>
	<path fill="FRAME_COLOR" d="M1211.876,225.716c2.552-1.74,5.436-1.077,7.61-3.447c-2.362-1.329-4.66-0.179-6.765-0.514
		c-1.613-0.256-4.032,1.081-4.498-1.698c-0.476-2.844,2.196-2.394,3.718-2.936c2.969-1.057,6.061-1.777,8.997-2.908
		c1.285-0.495,3.198-1.59,2.089-3.248c-0.996-1.488-2.317,0.213-3.356,0.852c-3.81,2.341-7.887,3.307-12.737,2.66
		c1.11-2.357,4.167-4.453,0.461-7.01c-1.126-0.777,0.308-2.433,1.03-3.497c4.956-7.305,10.159-14.44,16.053-21.013
		c4.424-4.934,9.921-8.372,16.453-9.871c11.717-2.689,24.855,5.97,23.288,16.439c-0.976,6.52,0.106,9.977,4.92,14.387
		c5.915,5.418,4.007,16.174-2.478,21.548c-0.762,0.631-1.435,0.922-1.248,2.28c0.753,5.466-2.203,9.984-7.787,10.968
		c-14.533,2.561-28.059-1.324-41.019-7.497C1214.724,230.314,1213.611,227.801,1211.876,225.716z"/>
	<path fill="FRAME_COLOR" d="M188.224,801.13c2.795,0,5.601-0.138,8.381,0.066c1.151,0.084,3.114-0.429,3.274,1.402c0.137,1.572-1.665,1.88-2.833,2.361
		c-3.074,1.266-6.241,2.315-9.285,3.648c-1.22,0.534-3.401,1.156-2.214,3.058c0.967,1.551,2.286-0.032,3.395-0.631
		c3.605-1.944,7.205-3.954,11.81-3.298c-0.537,2.502-4.045,4.941,0.741,6.527c1.355,0.449,0.118,2.6-0.641,3.418
		c-6.688,7.201-11.59,15.939-19.008,22.469c-6.998,6.16-14.906,10.043-24.65,7.916c-9.477-2.069-17.52-11.357-11.512-22.208
		c1.037-1.873,0.324-2.357-1.225-3.341c-8.567-5.44-9.82-14.326-3.137-21.719c0.768-0.85,1.092-1.557,0.914-2.612
		c-0.892-5.298,2.432-7.991,6.666-9.044c14.711-3.661,29.376-3.051,43.821,1.652c3.035,0.988,2.702,4.594,4.721,6.53
		c0.643,0.617-1.37,1.371-2.501,1.485C192.708,799.037,190.33,798.465,188.224,801.13z"/>
	<path fill="FRAME_COLOR" d="M1218.541,323.999c2.262,7.855,6.294,14.495,12.642,19.833c8.596,7.227,17.639,13.934,25.875,22.238
		c-6.204-0.338-11.619-2.368-17.208-4.637c1.015,0.865,1.949,1.852,3.056,2.575c11.131,7.268,14.612,18.111,13.973,30.635
		c-0.182,3.561-0.176,7.065,0.797,10.367c3.253,11.033,7.458,21.698,13.398,31.616c0.946,1.58,2.171,2.833,3.683,3.917
		c-4.025,1.779-18.353-4.101-30.737-12.455c-9.86-6.652-15.391-16.222-18.63-27.366c0,0,0.109,0.23,0.109,0.23
		c-0.052-8.803,0.018-17.609-0.205-26.408c-0.117-4.607,0.918-9.312-0.87-13.819c0,0,0.131,0.13,0.131,0.13
		c-0.164-2.293-0.328-4.586-0.492-6.878c4.82,4.312,7.297,9.945,9.12,15.713c1.898,6.005,2.762,12.329,4.324,18.451
		c1.554,6.093,2.572,12.407,6.41,18.064c0.705-1.754-0.379-2.959-0.784-4.147c-2.263-6.638-3.908-13.411-4.845-20.355
		c-1.935-14.343-7.588-27.227-15.991-38.823c-7.1-9.797-11.705-20.679-15.207-32.332c3.872,4.539,7.744,9.077,11.62,13.621
		C1218.716,324.173,1218.541,323.999,1218.541,323.999z"/>
	<path fill="FRAME_COLOR" d="M302.059,192.81c-1.032-2.91-0.572-5.29,0.558-7.853c2.363-5.361,3.841-11.06,3.73-16.931
		c-0.137-7.242,1.085-14.26,2.57-21.266c1.067-5.034-3.004-11.951-8.546-14.276c-6.61-2.773-13.541-1.37-16.724,3.373
		c-2.493,3.715-2.413,7.023,1.154,10.147c4.108,3.598,8.231,4.253,11.668,1.451c0.886-0.722,1.593-1.664,2.9-3.057
		c-0.197,3.641-1.007,6.107-3.987,7.607c-3.714,1.869-7.184,1.3-13.009-2.383c-1.516,1.325-0.635,3.46-1.638,4.988
		c-0.703,1.07-1.494,1.975-2.738,1.702c-1.561-0.343-1.339-1.591-0.952-2.806c0.199-0.624,0.392-1.342,0.276-1.959
		c-0.496-2.634,0.481-6.48-2.776-7.274c-3.04-0.741-6.196,0.934-8.125,3.822c-1.073,1.606-1.671,3.582-3.899,4.523
		c-1.686-3.591-2.55-7.504-6.001-10.137c-1.864-1.422,0.153-4.896,2.843-4.566c2.165,0.266,3.85-0.034,5.589-1.161
		c1.096-0.711,2.1-0.746,2.905,0.65c0.618,1.07-1.292,4.485,1.814,3.023c3.064-1.442,7.479,2.347,9.517-3.432
		c3.21-9.103,10.757-12.942,21.178-12.079c15.945,1.32,33.302,15.895,37.417,31.333c1.324,4.967,1.056,9.887-0.206,15.249
		c1.928-0.202,2.756-2.633,4.639-1.884c-2.175,7.563-21.676,21.948-42.59,31.417c1.217-4.54,1.217-4.54,8.093-9.492
		c-1.085-1.131-1.886,0.215-2.813,0.369C303.959,192.067,303.056,192.482,302.059,192.81z M314.741,185.987
		c10.365-7.188,13.719-23.357,7.486-36.595C325.275,163.332,324.16,175.489,314.741,185.987z"/>
	<path fill="FRAME_COLOR" d="M299.105,191.233c-0.147,5.922-3.004,10.405-7.51,14.025c-1.119,0.898-2.27,1.304-3.693,0.926
		c-14.898-3.96-29.402-1.245-43.853,2.561c-2.085,0.549-4.237,0.893-6.38,1.158c-1.276,0.158-2.854,0.462-3.633-0.931
		c-0.908-1.624,0.766-2.338,1.609-3.205c4.061-4.177,8.383-8.114,12.257-12.453c8.728-9.779,15.317-20.614,15.208-34.329
		c-0.025-3.114,1.255-3.949,4.284-3.682c12.076,1.066,17.87,6.103,20.86,18.783c0.409,1.736,1.778,1.728,2.759,2.485
		C295.822,180.278,299.296,184.745,299.105,191.233z"/>
	<path fill="FRAME_COLOR" d="M205.035,715.412c-15.973-24.921-24.78-51.637-21.157-81.642c2.116-0.345,2.234,1.241,2.469,2.442
		c1.145,5.876,2.588,11.712,2.165,17.792c-1.005,14.439,2.626,27.958,8.415,41.527c2.026-12.013-0.667-23.029-3.75-34.012
		c-0.942-3.357-1.82-6.737-2.554-10.144c-0.398-1.848-0.297-3.701,1.946-4.552c2.275-0.864,3.487,0.2,4.135,2.621
		c1.661-7.502,4.274-14.051,8.673-20.055c7.218-9.852,18.022-11.806,28.743-14.222c1.252-0.282,2.37-0.013,3.055,1.103
		c0.935,1.523,0.515,3.231-0.746,4.047c-6.61,4.277-5.965,10.982-6.161,17.45c-0.303,10.015-4.54,17.588-13.795,21.968
		c-6.66,3.152-9.563,8.432-11.785,15.535C200.415,688.93,200.951,702.013,205.035,715.412z M200.757,660.555
		c3.646-7.28,9.297-13.288,13.3-20.341C207.441,645.609,202.577,652.117,200.757,660.555z"/>
	<path fill="FRAME_COLOR" d="M147.852,159.314c-13.843-0.737-16.082-3.936-18.007-18.026c-1.132-8.287-2.313-17.333-9.524-23.541
		c-1.249-1.075-1.716-2.7-0.484-3.976c1.219-1.263,2.692-0.176,3.486,0.712c7.108,7.947,16.468,12.194,26.008,16.226
		c2.832,1.197,4.622,3.663,6.381,7.605c0-2.612,0-3.976,0-5.465c0.612,0,1.145-0.16,1.503,0.023
		c9.145,4.678,11.351,8.694,9.878,18.677c-0.649,4.4,0.281,8.549,1.772,13.531c-5.076-3.39-8.096-7.94-13.422-10.569
		c2.355,5.026-1.734,3.046-3.595,3.991c9.801,1.321,14.899,8.437,21.799,15.449c-3.768-0.41-5.259-2.114-7.036-3.161
		c-5.292-3.118-10.72-4.182-16.756-2.451c-9.461,2.713-14.292-0.052-17.851-10.514C137.269,159.222,142.223,160.454,147.852,159.314
		z"/>
	<path fill="FRAME_COLOR" d="M1181.063,243.235c-3.39,0.223-7.306-0.678-9.94-3.537c-4.478-4.861-8.106-10.21-7.361-17.561
		c1.061-10.473,11.039-20.065,20.736-19.081c12.211,1.238,19.978,10.628,19.411,22.069
		C1203.485,233.661,1193.589,245.104,1181.063,243.235z"/>
	<path fill="FRAME_COLOR" d="M224.611,817.171c-10.805-0.009-19.547-7.873-19.207-17.859c0.492-14.472,6.762-21.648,20.413-22.133
		c11.035-0.391,18.895,9.474,19.109,23.099C245.066,809.146,234.734,817.871,224.611,817.171z"/>
	<path fill="FRAME_COLOR" d="M215.259,245.094c-10.204-0.132-19.455-10.42-19.161-21.309c0.253-9.342,9.645-18.172,18.882-18.478
		c13.605-0.45,20.483,10.685,21.201,19.929C237,235.786,225.446,245.325,215.259,245.094z"/>
	<path fill="FRAME_COLOR" d="M1244.53,152.164c-0.435-9.217,4.294-15.215,13.768-16.121c10.726-1.025,21.108-2.6,29.918-9.468
		c0.779-0.607,1.782-1.15,2.703-0.29c1.161,1.084,0.505,2.289-0.328,3.059c-7.713,7.135-10.822,17.009-15.602,25.898
		c-4.25,7.903-6.142,8.812-17.698,9.144c4.84,0,9.053,0,13.698,0c-1.971,4.583-5.232,7.447-9.147,9.714
		c-1.382,0.799-2.56,0.053-3.76-0.504c-10.19-4.726-10.189-4.727-20.883-3.426c4.153-4.019,8.405-6.814,14.207-6.849
		c-4.695,0.5-6.566-1.386-6.079-5.978c0.185-1.744,0.17-3.683-0.891-5.328L1244.53,152.164z"/>
	<path fill="FRAME_COLOR" d="M1203.336,791.548c-0.08,2.631,1.346,5.032-2.149,4.638c-0.532-0.06-0.655,0.517-0.564,1.073
		c0.998,6.117-1.87,9.675-8.738,12.737c-7.428,3.312-13.934,1.52-19.422-3.291c-5.268-4.619-6.938-10.95-5.199-18.072
		c1.34-5.491,3.214-10.188,8.527-13.329C1187.389,768.451,1203.988,778.592,1203.336,791.548z"/>
	<path fill="FRAME_COLOR" d="M1242.711,870.657c-0.127,1.64-0.38,3.282-0.344,4.919c0.036,1.632,0.363,3.258,0.575,4.987
		c-9.127-3.324-12.018-8.865-9.125-17.465c1.504-4.471,0.33-8.869-0.434-14.475c5.365,5.518,11.763,8.94,10.036,17.876
		c2.201-3.011,1.567-5.648,1.189-9.031c3.29,3.084,5.971,5.598,8.653,8.111c0.189-0.202,0.377-0.403,0.566-0.605
		c-2.212-2.338-4.425-4.676-6.706-7.087c12.258-4.638,22.196,0.775,23.701,13.038c1.256,10.236,3.382,19.951,10.875,27.701
		c1.516,1.568-0.014,2.392-1.378,2.534c-2.429,0.254-4.075-1.26-5.347-3.09c-5.277-7.592-12.909-11.453-21.51-13.954
		C1246.823,882.186,1243.187,877.688,1242.711,870.657z"/>
	<path fill="FRAME_COLOR" d="M162.316,871.547c0.056,10.393-3.678,14.63-13.827,14.51c-10.049-0.119-19.255,2.795-28.363,6.456
		c-1.079,0.434-2.115,1.01-3.227,1.318c-0.966,0.268-2.025,0.234-2.631-0.831c-0.728-1.279-0.22-2.5,0.875-2.987
		c9.481-4.209,12.345-13.586,16.833-21.608c3.629-6.486,8.373-10.231,16.149-8.787c0.646,0.12,1.332,0.01,1.997,0.05
		c3.457,0.207,7.485-0.603,10.218,0.916c3.099,1.722,0.504,6.155,1.46,9.26c0.193,0.628,0.43,1.243,0.646,1.864L162.316,871.547z"/>
	<path fill="FRAME_COLOR" d="M1193.276,300.97c1.088,5.491-0.307,10.478-1.279,15.48c-1.584,8.159-3.99,16.143-4.945,24.444
		c-0.479,4.161-2.198,8.004-4.234,11.667c-1.934,3.48-4.24,6.83-3.409,11.174c0.193,1.012-0.031,2.091-1.218,2.414
		c-1.331,0.361-1.466-0.793-1.993-1.642c-2.279-3.67-4.706-7.248-7.062-10.871c-5.074-7.805-4.664-14.926,1.366-21.957
		c1.511-1.761,3.183-3.413,4.945-4.925c7.359-6.314,12.993-13.765,15.749-23.197C1191.457,302.661,1191.495,301.547,1193.276,300.97
		z"/>
	<path fill="FRAME_COLOR" d="M160.401,598.699c-0.273-0.271-0.546-0.542-0.819-0.814c-1.869-1.513-2.099-3.521-2.089-5.798
		c0.174-38.264,0.284-76.529,0.412-114.793c0.008-2.309-0.316-4.715,1.694-6.507c0.27-0.123,0.534-0.258,0.792-0.405
		c4.867-1.146,2.782,2.744,2.787,4.341c0.111,39.425,0.078,78.85,0.066,118.275c0,1.33-0.028,2.661-0.074,3.99
		C163.102,598.923,161.886,599.039,160.401,598.699z"/>
	<path fill="FRAME_COLOR" d="M214.389,725.668c-1.229-9.97,1.008-18.746,2.513-27.512c1.766-10.291,3.086-20.791,9.069-29.868
		c1.658-2.516,0.782-5.514,0.736-8.322c-0.013-0.819-0.036-1.816,0.945-2.061c0.924-0.231,1.504,0.46,1.856,1.286
		c2.057,4.822,5.76,8.534,8.622,12.812c4.337,6.482,4.063,13.341-0.918,19.387c-2.215,2.688-4.714,5.18-7.313,7.505
		c-7.075,6.326-11.509,14.134-13.645,23.321c-0.15,0.646-0.369,1.282-0.621,1.895C215.517,724.395,215.244,724.615,214.389,725.668z
		"/>
	<path fill="FRAME_COLOR" d="M1287.852,679.772c-8.674-5.427-14.72-1.53-20.693,2.579c-2.056,1.414-4.061,2.919-5.98,4.514
		c-6.007,4.992-12.824,7.544-20.69,7.431c-3.596-0.051-7.259-0.384-11.056,0.673c1.591,2.133,3.872,2.352,5.761,3.244
		c7.332,3.463,12.674,8.328,13.612,17.051c0.441,4.102,1.893,8.092,2.83,12.147c0.286,1.238,0.964,2.841-0.92,3.333
		c-1.906,0.498-2.023-1.275-2.4-2.47c-1.001-3.172-2.048-6.337-2.865-9.558c-4.005-15.789-18.16-22.981-33.213-16.83
		c-0.426,0.174-0.923,0.178-1.432,0.269c0.924-3.842,4.793-6.632,10.029-8.967c6.804-3.033,13.865-4.285,21.161-4.752
		c6.835-0.438,12.281-3.789,17.406-7.97c5.203-4.244,10.529-8.252,17.846-7.757C1281.5,672.996,1284.686,674.841,1287.852,679.772z"
		/>
	<path fill="FRAME_COLOR" d="M306.467,879.854c-7.817-0.242-10.882-2.828-11.104-8.435c-0.206-5.215,4.16-10.152,9.669-10.933
		c6.296-0.893,12.181,2.617,14.671,8.75c2.789,6.869,1.107,14.441-4.383,18.479c-5.814,4.277-12.26,5.135-18.857,2.142
		c-7.268-3.298-10.219-9.708-11.038-17.187c-0.589-5.371,1.159-10.531,2.133-15.75c0.303-1.626,1.231-2.286,2.805-2.066
		c1.965,0.275,1.534,1.635,1.451,3.013c-0.24,3.981-0.412,7.971-0.447,11.959c-0.043,4.83,1.522,9.185,4.586,12.9
		c3.994,4.843,11.046,6.022,15.714,2.778c5.153-3.58,6.784-11.612,3.447-16.976c-3.541-5.693-11.247-6.416-15.226-1.428
		C296.01,871.96,298.12,876.623,306.467,879.854z"/>
	<path fill="FRAME_COLOR" d="M128.713,306.248c-1.275-3.527-0.565-6.294,2.407-8.31c2.859-1.939,5.729-1.56,8.417,0.222
		c3.68,2.44,5.212,6.069,4.565,10.354c-1.332,8.824-13.328,12.784-21.187,7.094c-9.435-6.832-7.962-23.156,2.7-29.283
		c4.834-2.778,10.154-4.186,15.669-4.69c1.88-0.172,4.548-1.935,5.478,1.339c1.063,3.741-3.141,1.821-4.11,3.654
		c1.549,2.305,4.787,0.688,6.815,2.924c-2.292,1.45-4.427,0.171-6.448-0.222c-7.203-1.402-13.632,0.119-18.928,5.204
		c-4.282,4.112-4.614,10.701-1.189,15.568c2.847,4.046,7.818,5.553,12.363,3.704c2.413-0.981,4.528-2.482,4.954-5.177
		c0.57-3.606-0.405-6.76-4.342-7.892C131.272,299.412,129.683,302.326,128.713,306.248z"/>
	<path fill="FRAME_COLOR" d="M1251.063,734.063c4.555,0.228,8.522,0.756,12.453,0.561c11.451-0.568,18.893-8.018,18.016-17.685
		c-0.632-6.968-8.839-11.948-15.164-9.105c-3.629,1.631-5.222,4.558-4.458,8.514c0.711,3.682,3.281,5.124,6.826,5.373
		c3.781,0.266,4.811-2.19,5.15-5.554c2.707,4.08,1.054,7.587-3.7,8.763c-5.283,1.306-9.57-0.688-11.534-5.366
		c-2.227-5.304-0.266-11.374,4.645-14.379c7.327-4.483,18.057-0.619,21.173,7.623c4.055,10.729-3.016,24.821-14.138,27.424
		c-3.872,0.906-8.027-0.354-11.6-1.933C1256.355,737.251,1252.902,738.05,1251.063,734.063z"/>
	<path fill="FRAME_COLOR" d="M149.716,291.164c5.811,2.037,7.872,5.102,8.141,9.526c0.08,1.324,0.343,2.639,0.551,3.953
		c2.029,12.817,10.552,18.216,24.313,14.607c-2.89-0.675-5.031-1.083-7.119-1.679c-8.165-2.33-12.835-7.873-14.628-16.044
		c-0.251-1.144-0.856-2.382,0.801-2.848c1.544-0.434,1.965,0.878,2.411,1.933c0.451,1.068,0.699,2.227,1.2,3.268
		c4.13,8.586,11.935,13.03,21.521,12.276c1.629-0.128,3.25-0.349,6.07-0.658c-3.936,6.55-9.721,8.223-15.393,9.243
		c-12.089,2.174-20.776-4.357-23.031-16.453C153.533,302.819,154.043,296.991,149.716,291.164z"/>
	<path fill="FRAME_COLOR" d="M160.118,250.568c-7.801,8.233-15.198,15.482-14.294,28.201c-5.514-4.867-11.887-6.969-11.52-15.245
		c0.134-3.03-2.085-6.193-1.799-9.61c0.132-1.581,0.212-3.407,2.457-2.504C143.02,254.651,150.961,252.716,160.118,250.568z"/>
	<path fill="FRAME_COLOR" d="M162.444,871.709c-0.535-7.495,1.468-13.644,8.395-17.771c2.637-1.572,4.638-4.212,6.998-6.43
		c0.77,1.51-0.364,2.503-0.901,3.542c-3.485,6.748-3.923,13.498-0.95,20.636c2.816,6.761-4.362,15.754-11.541,14.76
		c-2.521-0.349-1.451-2.219-1.126-3.485c1.012-3.946,1.54-7.793-1.001-11.409C162.316,871.547,162.444,871.709,162.444,871.709z"/>
	<path fill="FRAME_COLOR" d="M1240.36,767.321c8.213-8.68,15.656-16.255,11.993-28.546c4.393,2.257,8.789,3.03,11.051,8.247
		c3.391,7.822,0.98,13.699-4.093,19.369c-0.626,0.7-1.394,0.921-2.24,0.685C1252.048,765.68,1246.969,766.002,1240.36,767.321z"/>
	<path fill="FRAME_COLOR" d="M1244.434,152.015c0.845,5.599-1.008,10.076-5.415,13.641c-3.035,2.455-5.892,5.13-9.473,7.272
		c0.952-2.057,1.93-4.103,2.853-6.173c2.626-5.889,1.235-11.686-0.215-17.57c-1.511-6.133,5.444-13.726,11.677-12.979
		c2.892,0.347,1.614,2.511,1.338,3.848c-0.83,4.019-2.837,7.925-0.669,12.105C1244.53,152.164,1244.434,152.015,1244.434,152.015z"
		/>
	<path fill="FRAME_COLOR" d="M177.025,327.713c-3.216,4.006-6.915,4.84-10.393,5.033c-9.866,0.547-18.082,4.258-25.778,10.433
		c-8.624,6.92-16.375,7.298-22.896,2.59c-0.655-0.473-1.444-0.76-1.919-1.91c10.253,4.19,16.717-2.107,23.242-7.421
		c6.605-5.379,13.773-8.356,22.386-8.072C166.436,328.523,171.226,327.985,177.025,327.713z"/>
	<path fill="FRAME_COLOR" d="M255.65,130.305c-0.069,2.517-0.441,4.966-1.298,7.334c-0.941,2.598-2.828,2.19-4.911,1.689
		c-2.886-0.695-1.404-2.363-0.95-3.764c1.156-3.574,1.651-7.123-0.148-10.641c-2.033-3.974-5.197-5.917-9.729-5.316
		c-4.031,0.535-6.427,2.494-5.99,6.922c0.089,0.901-0.27,1.646-1.213,1.898c-1.148,0.307-1.84-0.447-2.512-1.2
		c-2.416-2.705-1.963-7.13,1.24-10.32c4.011-3.995,8.886-5.088,14.222-3.428c6.068,1.889,9.68,6.178,10.969,12.367
		C255.63,127.292,255.553,128.817,255.65,130.305z"/>
	<path fill="FRAME_COLOR" d="M146.395,785.609c-3.053,0.682-5.225-0.926-7.615-1.417c-4.223-0.869-8.287-0.949-11.816,2.011
		c-3.447,2.891-4.535,7.796-2.37,11.225c2.934,4.646,6.635,2.034,10.147,0.865c0.698,5.751-4.452,9.297-10.268,7.089
		c-5.205-1.975-8.132-8.612-6.748-15.11c2.181-10.243,15.259-17.498,24.292-9.151C143.434,782.43,145.397,783.205,146.395,785.609z"
		/>
	<path fill="FRAME_COLOR" d="M1147.292,885.7c-0.028-1.452,0.365-3.942,1.423-6.22c0.641-1.381,0.566-4.4,3.323-2.888
		c1.715,0.94,4.972,1.288,2.718,5.298c-2.789,4.964-0.682,10.602,3.777,12.927c4.621,2.409,9.604,0.302,10.949-4.728
		c0.389-1.453,0.323-3.34,2.362-3.159c1.944,0.172,2.574,1.963,2.758,3.675c0.396,3.687-1.266,6.479-4.215,8.49
		c-5.003,3.412-10.265,3.609-15.587,0.8C1149.56,897.13,1147.272,892.599,1147.292,885.7z"/>
	<path fill="FRAME_COLOR" d="M1261.526,768.247c6.922,0.666,13.804,1.965,19.605,6.018c7.6,5.309,8.272,16.324,1.755,22.145
		c-2.406,2.148-5.161,2.935-8.3,2.415c-1.662-0.275-2.82-1.407-2.953-2.963c-0.169-1.966,1.767-1.657,2.894-1.817
		c3.855-0.55,5.862-3.109,6.775-6.455c0.903-3.309-0.264-6.275-2.988-8.428c-1.554-1.229-3.191-2.992-4.949-3.204
		C1268.15,775.33,1265.304,771.298,1261.526,768.247z"/>
	<path fill="FRAME_COLOR" d="M130.759,247.953c-5.609-0.925-10.909-2.049-15.408-5.446c-6.78-5.12-7.773-14.961-2.198-21.181
		c2.676-2.985,5.956-4.139,9.888-3.13c2.531,0.649,2.699,2.558,2.468,4.716c-0.247,2.305-1.774,1.829-3.303,1.737
		c-5.079-0.305-7.896,3.157-6.595,8.163c1.252,4.819,4.834,7.352,9.222,9.043C127.584,242.914,130.469,243.888,130.759,247.953z"/>
	<path fill="FRAME_COLOR" d="M1177.778,130.011c-0.189,0.921,1.55,3.002-1,3.206c-1.601,0.128-3.02-0.918-3.614-2.85
		c-0.888-2.888-0.755-5.566,0.787-8.152c3.243-5.438,10.778-7.668,17.188-5.107c5.376,2.148,9.841,10.141,8.737,15.526
		c-0.232,1.13-0.681,2.047-1.879,1.725c-1.592-0.428-3.927,0.519-4.495-2.096c-0.387-1.778-0.439-3.685-1.129-5.33
		c-1.626-3.88-4.812-5.546-8.867-4.668C1179.735,123.08,1177.298,125.365,1177.778,130.011z"/>
	<path fill="FRAME_COLOR" d="M229.46,904.103c-8.278,0.064-14.569-6.228-14.519-14.507c0.008-1.339-0.207-2.871,1.737-2.935
		c1.756-0.058,3.824-0.534,4.565,1.893c0.388,1.269,0.54,2.617,0.994,3.857c1.474,4.024,4.71,5.652,8.653,5.212
		c3.979-0.444,6.875-2.494,6.581-7.191c-0.067-1.066-0.565-2.541,1.19-2.732c1.367-0.148,1.949,0.952,2.483,2.054
		C244.304,896.287,238.006,904.036,229.46,904.103z"/>
	<path fill="FRAME_COLOR" d="M136.115,858.685c4.791-9.018,10.149-11.561,18.689-8.585c5.037,1.755,9.954,2.261,15.558,0.183
		C165.058,857.815,157.959,859.463,136.115,858.685z"/>
	<path fill="FRAME_COLOR" d="M1235.824,847.221c6.283,3.182,12.32,1.834,18.496,0c5.659-1.681,11.976,2.121,13.792,7.701
		c0.712,2.187-0.017,2.891-2.052,2.346c-6.031-1.616-12.183-1.076-18.307-1.294C1241.997,855.769,1239.919,850.151,1235.824,847.221
		z"/>
	<path fill="FRAME_COLOR" d="M300.969,183.38c-1.101-2.247,0.086-4.129,0.189-6.071c-3.003,1.813-3.003,1.813-10.955-3.621
		c3.894-1.04,6.43-4.238,10.423-4.392c0.481-0.019,1.058-0.052,1.415-0.315c1.048-0.773,0.177-3.828,2.401-2.817
		c2.132,0.97,0.542,3.306,0.25,4.935C303.949,175.251,303.812,179.642,300.969,183.38z"/>
	<path fill="FRAME_COLOR" d="M400.181,147.023c-7.64,4.098-8.276,15.124-18.726,13.457C380.941,154,388.289,148.265,400.181,147.023z"/>
	<path fill="FRAME_COLOR" d="M326.889,853.469c0.045-8.253,2.461-15.827,6.427-23.762C336.728,839.66,332.998,846.885,326.889,853.469z"/>
	<path fill="FRAME_COLOR" d="M1006.643,869.008c4.725-4.62,5.908-10.691,12.082-11.809c1.274-0.231,2.825-1.09,3.757,0.07
		c0.891,1.11-0.082,2.508-0.622,3.698C1019.12,866.998,1013.757,868.269,1006.643,869.008z"/>
	<path fill="FRAME_COLOR" d="M1226.242,704.465c6.638-0.038,10.244,4.074,13.214,9.039c2.35,3.928,3.236,8.331,4.109,12.736
		c0.158,0.797,0.489,1.839-0.416,2.203c-1.084,0.436-1.889-0.429-2.335-1.345c-0.277-0.568-0.287-1.289-0.328-1.947
		c-0.556-8.915-5.23-15.14-12.712-19.552C1227.229,705.279,1226.751,704.846,1226.242,704.465z"/>
	<path fill="FRAME_COLOR" d="M178.694,713.71c3.308-0.972,6.619-1.935,9.923-2.919c1.646-0.49,3.3-0.227,3.61,1.513c0.376,2.112-1.85,1.114-2.816,1.688
		c-0.278,0.165-0.727,0.11-0.933,0.318c-4.77,4.847-11.108,2.071-17.351,3.961c2.218-3.354,5.918-2.438,7.721-4.703
		C178.856,713.562,178.693,713.71,178.694,713.71z"/>
	<path fill="FRAME_COLOR" d="M168.439,686.827c-0.254-0.242-0.508-0.484-0.762-0.726c-1.501-1.89-6.499-2.22-4.641-5.028
		c1.713-2.589,5.342,0.226,7.703,1.748c2.866,1.848,5.38,4.19,7.115,8.293C174.229,689.464,171.334,688.145,168.439,686.827z"/>
	<path fill="FRAME_COLOR" d="M1102.081,839.623c0,0-0.162,0.309-0.163,0.309c4.78-1.701,4.978,3.444,8.138,4.894c-3.01,2.305-9.337-1.544-8.427,6
		C1100.701,846.632,1101.26,843.119,1102.081,839.623z"/>
	<path fill="FRAME_COLOR" d="M305.272,874.633c-1.451,0.188-2.639-0.155-2.542-1.63c0.133-2.019,1.349-3.333,3.507-3.314
		c1.757,0.015,3.772,0.757,3.637,2.53C309.674,874.873,306.63,873.589,305.272,874.633z"/>
	<path fill="FRAME_COLOR" d="M188.328,436.518c1.861,4.498,2.728,8.977,1.344,15.11C187.132,445.788,186.219,441.264,188.328,436.518z"/>
</g>
</svg>
