<?xml version="1.0" encoding="iso-8859-1"?>
<!-- Generator: Adobe Illustrator 25.0.0, SVG Export Plug-In . SVG Version: 6.00 Build 0)  -->
<svg version="1.1" id="Layer_1" xmlns="http://www.w3.org/2000/svg" xmlns:xlink="http://www.w3.org/1999/xlink" x="0px" y="0px"
	 viewBox="0 0 1448 1032" style="enable-background:new 0 0 1448 1032;" xml:space="preserve">
<g id="_x28_28_x29__1_">
	<path fill="FRAME_COLOR" d="M1348,902c-12.662-3.696-25.49-6.414-38.759-6.405c-2.015,0.001-4.315-0.645-5.001,2.589
		c-0.316,1.488-2.325,0.808-3.564,0.814c-12.49,0.064-24.065-2.923-35.194-11.599c1.979,6.437,5.819,10.453,8.186,16.545
		c-10.111-3.221-17.943-7.881-23.617-15.723c-1.57,0.497-1.149,1.709-1.318,2.533c-0.522,2.54-1.495,3.191-3.491,1.16
		c-0.932-0.949-2.093-1.703-2.902-2.739c-7.556-9.678-19.269-15.764-24.041-27.845c-1.527-3.866-3.294-7.647-4.637-11.574
		c-2.708-7.92-6.524-15.236-12.229-22.428c6.064-0.437,10.902,1.149,15.572,2.874c8.736,3.226,17.385,6.688,25.755,10.842
		c4.839,2.402,8.431,5.651,10.745,10.584c2.241,4.779,4.938,9.345,7.908,13.785c-0.515-7.034-5.534-12.235-8.273-19.837
		c17.607,9.535,34.155,18.496,50.703,27.457c-16.795-12.059-35.022-21.708-53.224-32.585c6.191-3.371,12.654-3.738,18.434-7.004
		c-2.697,0.429-5.407,0.788-8.087,1.301c-7.103,1.36-14.1,4.38-21.392,0.428c-2.274-1.232-4.175-2.124-4.841-5.051
		c-1.059-4.654-4.623-8.015-7.186-11.882c-1.536-2.317-2.434-3.686,1.63-4.411c14.268-2.544,28.406-5.733,43.059-2.745
		c6.8,1.386,13.54,2.613,20.13,7.049c-2.393,0.969-3.873,1.569-6.633,2.686c12.522,2.894,23.299,6.939,32.63,15.95
		c-5.851,0.909-11.017-0.106-16.479,1.603c3.565,2.288,6.743,4.264,9.856,6.338c5.051,3.367,9.288,7.603,12.621,12.656
		c1.301,1.972,4.003,3.815,0.924,6.82c-1.27,1.24,0.685,3.033,1.536,4.333c5.961,9.102,13.128,17.179,21.181,24.48
		C1348,896,1348,899,1348,902z"/>
	<path fill="FRAME_COLOR" d="M100,132c4.462-2.651,9.308-2.214,14.099-1.561c7.28,0.993,14.287,3.108,21.203,5.561c1.829,0.649,3.593,2.289,5.716-0.201
		c1.06-1.244,3.051,0.38,4.556,0.943c4.298,1.607,7.171,5.264,10.764,7.828c1.591-1.567-0.309-2.871,0.025-4.24
		c0.833-0.751,1.59-0.317,2.219,0.217c10.429,8.849,18.667,19.215,19.937,33.33c1.097,12.193,0.72,24.569,7.577,35.645
		c-2.145,0.465-3.148-0.612-4.011-1.431c-6.557-6.226-14.814-7.897-23.333-8.943c-10.161-1.248-19.325-4.849-27.056-11.689
		c-1.282-1.134-3.887-1.679-2.085-4.589c0.758-1.224-1.24-1.593-2.119-2.141c-2.702-1.684-5.163-3.619-7.311-6.261
		c2.154-2.248,5.292,0.409,7.495-1.734c-1.687-1.417-3.483-2.596-4.858-4.148c-3.124-3.525-4.712-7.057-5.209-12.433
		c-0.825-8.922-4.613-17.85-14.41-21.789c-1.075-0.432-2.134-0.908-3.2-1.363C100,132.667,100,132.333,100,132z M175.847,199.812
		c-4.503-11.388-15.816-18.909-16.458-32.276c-1.529,3.342,1.007,6.366-0.011,10.463c-7.398-7.973-15.025-14.61-22.459-21.465
		c-0.475,0.486-0.949,0.971-1.424,1.457c6.225,6.368,12.45,12.735,18.426,18.849c-2.608-0.276-5.602-2.322-9.15-1.122
		c6.448,2.081,13.162,3.435,17.777,9.108C166.76,190.001,171.398,194.83,175.847,199.812z"/>
	<path fill="FRAME_COLOR" d="M298,100c5.555,7.747,12.426,13.519,22.116,15.447c2.676,0.533,4.208,3.127,6.057,5.005
		c2.462,2.501,3.977,5.681,5.748,8.71c2.225-0.575,1.055-3.14,3.389-4.176c1.756,7.416,8.764,11.935,10.185,19.661
		c0.917,4.985,0.696,9.917,0.109,14.913c-0.354,3.014-1.786,3.727-4.606,3.729c-9.107,0.008-10.535-1.229-11.249-10.406
		c-0.164-2.103-0.552-4.188-1.37-6.219c-0.113,2.395-0.226,4.79-0.411,8.691c-3.522-5.764-6.257-10.24-8.993-14.715
		c-0.324,0.177-0.648,0.353-0.972,0.53c2.327,3.97,4.763,7.882,6.905,11.948c0.553,1.049,3.947,2.5,0.088,3.954
		c-1.185,0.446-0.021,0.83,0.39,1.112c0.548,0.376,1.173,0.662,1.655,1.106c0.839,0.773,2.023,1.531,1.825,2.79
		c-0.253,1.613-1.85,1.003-2.871,1.232c-2.759,0.621-5.534,1.197-8.326,1.642c-2.724,0.434-5.62,3.33-7.99,1.416
		c-3.564-2.878-6.971-6.219-9.069-10.504c-0.273-0.557-0.491-1.737-0.308-1.835c5.701-3.06-0.482-4.137-1.097-6.021
		c-0.494-1.513-1.926-2.693-2.737-4.137c-1.516-2.699-3.668-5.887,3.167-4.276c-3.526-6.328-3.735-12.182-3.068-18.77
		c0.705-6.956-2.557-13.959-4.568-20.827C294,100,296,100,298,100z"/>
	<path fill="FRAME_COLOR" d="M1162,932c-1.033-26.35-4.461-52.314-12.431-77.553c-0.745-2.36-1.122-4.751,0.192-7.457
		c5.359,3.822,8.629,8.684,10.295,14.533c6.574,23.072,11.263,46.501,12.944,70.477C1169.333,932,1165.667,932,1162,932z"/>
	<path fill="FRAME_COLOR" d="M1139.272,803.867c-0.697,2.292,0.316,4.326,1.233,6.23c11.86,24.643,5.336,46.267-10.839,66.285
		c-1.85,2.289-3.612,4.754-6.561,6.598c-1.583-5.459-0.695-11.43-4.823-16.773c-0.584,4.942-0.657,9.24-2.774,13.042
		c-2.09,3.753-4.462,7.245-8.473,10.339c-0.137-2.566-0.231-4.338-0.416-7.8c-3.719,7.587-10.112,10.856-14.157,16.403
		c-4.007,5.495-4.828,11.816-4.681,19.006c-4.943-2.807-6.848-7.203-8.256-11.378c-3.609-10.7-6.532-21.63-9.859-32.428
		c-0.432-1.402,0.741-4.416-2.993-3.546c-1.072,0.25-0.574-1.611-0.454-2.447c0.569-3.954,1.108-7.923,1.959-11.821
		c0.979-4.485,2.733-8.403,7.415-10.555c2.781-1.278,4.923-3.69,6.27-6.752c-12.644,8.823-27.986,6.069-41.663,10.184
		c-3.611,1.086-2.554-1.452-2.057-3.035c2.209-7.034,6.108-12.881,13.619-17.308c-7.12-1.476-13.155-2.898-19.257-3.93
		c-3.854-0.651-4.545-1.775-1.911-4.92c12.435-14.846,28.482-23.917,46.893-28.854c3.205-0.859,6.881-1.212,10.447-1.798
		c0.046,2.221-2.206,2.323-2.559,4.614c3.638-3.878,9.667-1.596,12.683-6.773c-3.218,0.383-5.673,2.812-8.96,2.46
		c1.249-3.261,4.99-3.769,6.978-7.055c-5.292,0.94-8.546,4.721-13.039,5.711c-2.997,0.661-5.172,1.084-3.44-3.593
		c-1.445,2.486-3.419,3.37-5.694,3.947c-13.842,3.51-25.864,10.543-36.736,19.573c-3.113,2.585-5.929,3.288-9.93,2.386
		c-9.125-2.058-17.972-4.98-26.897-7.679c-0.946-0.286-2.241-0.365-2.477-1.418c-0.34-1.517,1.232-1.766,2.171-2.245
		c7.799-3.974,12.886-11.428,20.705-15.972c-8.026-0.435-12.963-5.211-17.978-10.508c-6.054-6.393-13.78-10.396-22.526-12.173
		c-1.088-0.221-2.684-0.03-2.846-1.433c-0.153-1.324,1.275-1.873,2.374-2.201c10.146-3.035,19.364-7.943,28.299-13.543
		c4.368-2.738,9.518-2.718,15.53-2.707c-4.442-4.195-9.691-5.497-14.182-8.614c4.16-3.575,8.968-2.101,13.736-2.56
		c-6.423-10.144-6.526-24.183-20.411-29.276c16.323-2.847,31.548-0.33,45.91,6.918c14.332,7.232,22.702,21.236,34.27,31.682
		c-4.505-9.918-11.438-17.826-19.124-25.053c-4.217-3.965-6.843-8.521-7.637-14.18c-0.231-1.647-0.373-3.32-0.378-4.982
		c-0.028-9.161-0.112-18.308-4.297-27.975c6.507,2.227,11.33,5.246,16.082,8.341c4.74,3.088,8.823,7.001,13.613,12.257
		c-4.095-14.537-0.39-25.751,8.933-36.476c1.277,5.128-0.703,9.664,1.58,14.686c2.006-12.663,12.355-19.896,16.561-30.657
		c0.897-2.296,2.38-4.398,3.8-6.445c1.687-2.432,3.434-6.38,6.231-5.746c2.412,0.547,0.514,4.638,0.781,7.139
		c0.852,7.973,4.017,14.883,9.851,20.226c7.35,6.732,11.37,14.282,8.2,24.709c8.809-8.601,18.94-14.306,30.979-17.208
		c-8.098,10.303-7.075,22.748-9.109,34.366c-2.41,13.773-8.365,25.907-16.314,37.206c-3.178,4.517-3.184,4.512,3.626,6.612
		c-2.09-1.952-1.985-3.038-0.632-5.001c7.973-11.565,15.151-23.607,16.92-37.939c0.524-4.248,2.526-7.343,5.451-10.302
		c12.372-12.519,28.147-15.248,45.297-15.825c-12.274,7.531-14.433,20.125-17.315,32.385c0.068,0.045,0.329,0.37,0.571,0.357
		c2.263-0.122,5.608-1.907,6.519,0.01c1.2,2.525-2.335,3.865-4.097,5.435c-2.223,1.981-4.822,3.552-6.376,6.654
		c10.463-7.653,21.867-5.098,33.172-3.592c7.222,0.962,14.47,0.901,21.741-0.056c0.36,0.56,0.72,1.12,1.08,1.679
		c-3.404,3.013-6.937,5.894-10.184,9.067c-6.381,6.236-11.458,13.297-14.398,21.914c-2.121,6.216-6.383,10.844-13.02,13.304
		c10.935,2.438,20.558,8.767,31.913,9.665c1.008-0.672-0.195-1.548,0.11-2.153c6.153-12.191,2.599-25.631,4.972-38.299
		c2.328-12.428,8.078-23.065,16.651-32.298c2.138,1.073,0.999,3.347,3.085,4.979c5.467-8.152,11.943-15.415,22.187-19.279
		c-1.168,5.422-4.704,9.144-5.327,15.496c7.051-8.046,15.441-10.977,23.99-13.906c3.565-1.222,6.51,1.195,9.941-0.075
		c12.399-4.591,21.662-11.731,23.009-26.013c0.04-0.419,0.473-0.802,0.911-1.5c3.736,3.245,4.265,7.537,4.553,11.81
		c0.486,7.203-0.605,14.283-1.984,21.338c-1.292,6.61-2.818,13.149-3.802,19.859c-1.231,8.394-6.563,15.538-12.304,21.966
		c-1.067,1.194-2.507,2.151-2.874,4.005c3.604,1.205,6.522-1.179,10.479-1.432c-4.166,9.893-12.436,15.073-20.369,20.545
		c0.516,1.867,2.591,0.794,3.237,2.294c-0.185,0.276-0.35,0.784-0.698,1.003c-11.059,6.986-23.095,11-36.18,11.729
		c-2.66,0.148-5.362,0.387-7.992,0.1c-18.48-2.021-34.246,4.995-49.238,14.614c-5.07,3.253-10.241,6.133-16.203,7.561
		c-6.175,1.479-12.067,1.625-18.079-0.894c-6.189-2.594-12.84-3.752-19.504-3.955c-5.513-0.168-10.366-1.681-14.92-4.661
		c0.934-1.169,3.094-0.159,3.599-2.034c1.945-0.441,5.019,1.953,5.624-1.754c0.569-3.48-2.577-3.74-4.894-4.404
		c-1.258-0.36-2.618-0.362-3.93-0.541c-0.597-0.081-1.801-0.287-1.128-0.933c2.529-2.427-0.12-1.64-1.059-1.868
		c-1.03-0.25-2.3,0.755-3.342-0.91c3.299-2.465,6.709-3.052,10.731-0.83c-2.677-4.113-10.261-3.437-17.482,1.161
		c1.736,1.177,3.624-1.93,5.332,0.073c-0.506,2.737-3.205,3.157-5.45,4.89c5.71,0,10.635-0.1,15.552,0.049
		c1.993,0.06,4.593,0.639,4.65,2.901c0.075,2.983-2.906,1.675-4.597,2.16c-5.43-0.339-10.859-0.677-16.288-1.016
		c3.864,0.747,5.764,4.55,9.173,5.619c-2.843-0.609-5.686-1.219-9.035-1.937c3.799,3.282,7.986,4.439,12.021,5.809
		c2.234,0.758,4.498,0.712,2.173-2.659c1.481,2.826,4.206,2.894,6.879,3.146c12.049,1.137,23.704,3.523,34.162,10.137
		c4.842,3.062,9.179,6.662,12.904,10.956c6.866,7.913,11.518,17.324,17.4,26.311c-12.457-7.389-27.347-5.429-40.342-11.627
		c6.536,8.166,13.242,16.013,13.161,27.108c-0.073,10.058-0.016,20.116-0.016,30.11c-2.831-3.559-5.194-8.007-9.164-11.058
		c-4.149-3.188-8.729-5.375-13.867-6.601c-12.041-2.873-12.02-2.962-18.862-11.891c-1.062,1.458,0.824,3.236-0.74,4.992
		c-4.952-4.004-9.375-7.706-9.468-15.217c-0.145-11.693-3.283-22.707-11.177-31.856c6.591,1.211,6.591,1.211,7.405-1.279
		c-8.272,1.733-9.623-7.328-15.338-10.736C1133.095,797.034,1136.997,799.891,1139.272,803.867z M1145.581,748.124
		c2.688-1.556,6.047-1.896,8.158-4.499c0.675-0.856,1.993-1.681,0.745-2.867c-1.025-0.975-2.66-1.115-3.722-0.41
		c-4.638,3.078-11.279,3.714-13.068,10.674C1140.406,750.002,1142.707,748.216,1145.581,748.124z M1118.484,802.575
		c-0.005-0.295,0.107-0.731-0.041-0.855c-0.283-0.236-0.714-0.294-1.084-0.426c0.512,3.573,0.699,7.281,3.296,10.136
		c0.802,0.882,2.011,1.035,3.218,0.529c1.155-0.484,1.302-1.491,1.18-2.467c-0.284-2.284-0.73-4.548-1.08-6.824
		c-0.254-1.651,0.017-3.905-2.35-3.896c-2.182,0.008-3.348,1.598-3.2,3.903L1118.484,802.575z M1123.341,740.365l-0.096-0.102
		c0.399,0.092-1.285,2.587,0.821,0.711c0.595-0.53,1.211-1.385,2.041-0.602c0.395,0.373,0.54,1.197,0.504,1.8
		c-0.065,1.084-1.22,2.047-0.312,3.357c3.762-4.679,3.801-10.092,3.415-15.608c-0.073-1.036-0.285-2.112-1.293-2.452
		c-1.085-0.367-1.811,0.629-2.469,1.332c-3.878,4.147-5.192,9.108-4.414,15.644c0.298-1.41,0.479-1.945,0.511-2.489
		C1122.1,741.083,1122.146,740.278,1123.341,740.365z M1279.141,732.868c13.127-11.741,28.47-20.474,40.451-33.296
		c-0.687-0.137-1.157,0-1.526,0.273c-13.911,10.32-27.812,20.654-41.717,30.982c-1.043,0.775-2.041,2.236-3.404,1.666
		c-1.79-0.749-0.899-2.618-0.823-3.974c0.306-5.433,2.106-10.729,1.705-16.671c-0.588,0.712-1.069,1.035-1.159,1.444
		c-0.603,2.758-1.628,5.542-1.583,8.303c0.181,11.114-4.488,19.471-13.198,26.162c-3.962,3.044-7.403,6.893-9.443,11.766
		c7.429-5.554,14.828-11.13,21.557-17.422c5.254-4.912,11.297-6.77,18.09-7.197c4.488-0.282,8.988-0.373,13.481-0.591
		c1.134-0.055,2.26-0.271,3.39-0.413C1296.364,731.515,1287.818,733.208,1279.141,732.868z M1107.153,767.337
		c1.502,0.748,4.244-1.54,4.612,0.987c0.385,2.65-2.347,1.223-3.701,1.628c-1.467,0.44-1.096,1.56-0.576,2.352
		c0.998,1.518,2.002,3.146,3.372,4.285c3.504,2.912,7.442,3.122,11.699,1.541c4.861-1.805,6.093-5.829,6.458-10.235
		c0.292-3.526-1.113-6.53-4.406-8.311C1117.773,755.886,1109.417,759.576,1107.153,767.337z M1071.227,776.259
		c1.827-0.757,3.735-1.4,5.752-1.659c1.058-0.136,2.085-0.052,2.454,1.119c0.406,1.29-0.577,1.712-1.562,2.005
		c-2.034,0.605-4.076,1.184-6.115,1.773c7.184,0.352,13.634-2.056,20.063-4.546C1084.573,771.708,1077.605,770.817,1071.227,776.259
		z M1110.688,796.416c-2.668,4.226-2.932,8.946-3.463,13.618c-0.225,1.977-0.386,3.808,2.2,4.12
		c2.177,0.262,3.382-0.914,3.909-2.982c1.273-4.997,2.437-9.995,1.248-15.468c-1.614,4.29-1.527,8.612-2.201,12.799
		c-0.284,1.765-0.435,4.572-2.477,4.097c-2.248-0.523-1.47-3.322-0.788-5.076C1110.507,803.944,1111.615,800.395,1110.688,796.416z
		 M1091.99,732.255c3.074,6.086,8.42,9.52,12.989,14.985c-2.779-14.275-5.076-18.486-9.968-18.715
		c1.623,0.772,3.141,1.47,3.947,3.054c0.972,1.909,2.065,4.425,0.316,5.753c-2.003,1.52-2.651-1.589-3.991-2.525
		C1094.277,734.105,1094.005,732.547,1091.99,732.255z M1090.16,748.012c1.725,0.347,3.123,2.361,5.369,1.327
		c-2.021-3.776-5.391-5.16-9.196-6.445c-0.023,1.983,2.261,2.873,1.466,4.529c-3.844-0.822-7.76-1.4-10.349-4.753
		c3.633,5.116,9.292,7.248,14.886,10.778C1091.766,750.955,1089.648,750.225,1090.16,748.012z M1110.341,727.403
		c0.272,4.054,0.373,7.151,0.733,10.217c0.178,1.513,0.208,3.215,2.945,2.646c1.917-0.399,2.698-0.902,2.689-2.783
		c-0.016-3.28,0.041-6.561,0.072-9.842c0.021-2.242-0.764-3.639-3.603-3.555c2.358,3.037,1.946,6.053,1.776,9.118
		C1111.262,733.094,1112.703,729.536,1110.341,727.403z M1137.372,784.142c3.118,4.527,5.759,8.444,10.92,10.614
		c-0.594-2.563-3.671-2.788-3.173-5.382c2.464,0.425,3.908,3.034,6.829,2.128C1147.56,788.405,1143.844,784.64,1137.372,784.142z
		 M1093.089,802.889c3.31-4.226,6.619-8.451,10.5-13.406c-4.549,1.026-7.353,3.219-10.061,5.27
		C1090.975,796.687,1094.448,800.123,1093.089,802.889z M1089.383,761.836c-4.894-2.162-8.594-4.371-12.717-3.586
		c-3.022,0.575-4.573,0.134-4.882-4.285c-1.409,3.429-0.724,5.275,1.159,5.751C1077.872,760.961,1082.777,762.913,1089.383,761.836z
		 M1137.215,737.019c-2.158,2.3-3.273,5.002-4.622,7.618c-0.87,1.688,0.081,2.744,0.852,3.392c0.958,0.805,1.316-0.852,2.018-1.32
		C1139.236,744.192,1138.397,740.771,1137.215,737.019z M1078.402,754.482c2.734,1.497,5.17,2.759,8.021,3.061
		c0.847,0.09,1.846,1.322,2.49-0.154c0.594-1.361-0.395-2.057-1.393-2.791C1084.684,752.511,1081.815,752.902,1078.402,754.482z
		 M1102.079,751.096c2.594,2.242,3.01,6.066,7.125,4.64c3.522-1.221,0.698-3.32,0.521-4.844c-0.234-2.014-0.586-1.973-3.448-1.182
		c0.391,1.775,2.996,2.654,2.122,5.233C1106.413,753.805,1105.9,751.018,1102.079,751.096z M1084.285,767.091
		c0.455-1.83,2.473-0.256,2.664-2.14c-1.205-0.355-2.428-0.814-3.693-1.058c-0.991-0.191-1.131,0.358-1.872,1.971
		c-1.002,2.181-3.718,0.142-5.266,1.856c4.79,0,9.375,0,13.961,0c-0.005-0.21-0.009-0.419-0.014-0.629
		C1088.279,767.091,1086.492,767.091,1084.285,767.091z M1135.026,788.709c0.737,6.941,6.241,7.728,9.594,10.746
		C1142.984,794.758,1139.098,792.263,1135.026,788.709z M1143.612,780.69c2.443,4.354,7.525,4.762,11.463,9.086
		C1152.909,782.982,1147.658,782.638,1143.612,780.69z M1154.129,754.499c-4.991-0.567-8.887,1.025-12.405,3.927
		C1145.494,756.534,1150.458,759.246,1154.129,754.499z M1133.923,808.245c1.566-5.261-2.15-8.975-3.884-14.117
		C1127.536,800.426,1135.569,802.966,1133.923,808.245z M1110.784,747.92c3.436,1.08,4.188,2.223,2.874,4.265
		c-0.518,0.806,0.298,1.618,1.117,1.741c0.491,0.074,1.524-0.462,1.55-0.786c0.145-1.77,0.546-3.768-0.095-5.283
		C1115.589,746.342,1113.758,747.201,1110.784,747.92z M1120.769,746.229c-1.153,2.841-1.686,5.011-0.633,7.152
		c0.234,0.477,2.035,0.745,2.665,0.364c2.216-1.339,3.045-3.517,3.051-6.132c-3.423,0.302-1.673,4.591-4.344,5.235
		C1120.007,750.831,1122.777,748.957,1120.769,746.229z M1103.519,761.214c-2.345-1.37-4.048-3.609-6.882-4.041
		c-0.132-0.02-0.804,1.327-0.603,1.644c1.528,2.417,4.158,2.809,6.688,3.302C1102.862,762.147,1103.093,761.712,1103.519,761.214z
		 M1146.935,753.531c3.716-0.84,7.045-2.791,10.775-3.592C1153.613,749.684,1149.918,750.583,1146.935,753.531z"/>
	<path fill="FRAME_COLOR" d="M723.053,205.989c-3.036-3.873-5.987-5.21-9.22-4.525c-6.543,1.386-12.931,0.777-19.297-0.674
		c-2.966-0.676-5.119-0.222-6.794,2.544c-1.065,1.758-2.657,2.901-5.065,1.926c-2.255-0.913-2.64-2.574-2.825-4.736
		c-1.169-13.654-1.207-13.837-14.942-13.954c-17.164-0.146-34.331,0.068-51.497,0.097c-5.283,0.009-5.342-0.516-3.085-5.213
		c2.76-5.744,6.505-8.117,13.217-7.652c9.948,0.69,19.988-0.026,29.985,0.113c3.23,0.045,4.738-0.858,4.258-4.201
		c-0.415-2.891,0.918-3.698,3.713-3.682c13.166,0.071,26.333,0.04,39.498-0.154c3.103-0.046,4.536,1.069,5.113,4.036
		c0.523,2.682,0.743,5.623,3.283,7.387c2.266-0.664,1.709-5.245,5.069-3.673c2.57,1.202,3.65,3.82,3.867,6.613
		c0.239,3.077-1.942,4.462-4.331,5.419c-5.799,2.322-11.442,1.246-17.003-1.02c-1.474-0.601-2.676-2.079-5.047-1.402
		c6.015,5.497,12.912,6.322,20.241,5.647c0.662-0.061,1.327-0.156,1.975-0.302c14.696-3.314,12.941-1.514,8.968-15.44
		c-0.732-2.567-2.376-3.767-4.737-4.599c-4.317-1.522-7.267-4.161-6.401-9.295c0.736-4.364,4.018-6.813,9.636-6.592
		c2.859,0.112,3.586-0.704,3.077-3.353c-0.309-1.611-0.472-3.301-0.358-4.931c0.228-3.282,2.102-5.28,5.417-5.413
		c3.277-0.132,5.325,1.712,6.014,4.863c0.277,1.267,0.276,2.658,0.091,3.948c-0.421,2.939-0.745,5.026,3.695,4.755
		c4.38-0.268,7.765,2.317,8.369,6.97c0.56,4.31-1.559,7.25-5.733,8.827c-3.897,1.472-8.427,11.813-7.105,15.626
		c0.329,0.948,0.997,1.286,1.807,1.468c7.14,1.602,14.206,3.605,21.694,2.065c4.039-0.831,6.985-3.312,10.741-5.632
		c-2.618-0.989-3.917,0.626-5.39,1.358c-5.973,2.969-12.007,3.881-18.248,0.878c-1.87-0.9-3.617-2.008-3.471-4.394
		c0.148-2.417,1.221-4.537,3.095-6.061c1.495-1.217,2.726-0.577,3.649,1.013c2.037,3.51,2.841,1.34,3.647-0.824
		c3.232-8.675,3.236-8.691,12.681-8.734c10.833-0.049,21.666-0.031,32.499-0.12c2.398-0.02,4.559,0.068,4.066,3.303
		c-0.674,4.424,1.496,5.108,5.396,5.129c50.836,0.265,101.656-1.106,152.486-1.413c20.332-0.123,40.665-0.346,60.997-0.346
		c3.9,0,7.153-0.844,9.94-3.627c1.882-1.88,4.058-3.464,5.959-5.326c6.378-6.246,13.925-8.864,22.805-7.725
		c1.974,0.253,4.03,0.449,5.984,0.188c15.728-2.1,29.663,3.123,42.758,10.894c5.864,3.48,11.701,4.805,18.425,4.594
		c14.818-0.467,29.658-0.634,44.478-0.363c3.889,0.071,6.192-1.725,8.68-3.78c0.495-0.409,0.714-1.288,1.502-1.724
		c1.204-0.666,3.777-0.31,3.337-2.206c-0.52-2.241-3.051-1.398-4.749-1.404c-6.07-0.019-11.863,1.555-17.603,3.343
		c-9.76,3.041-19.724,4.691-30.097,4.257c9.599-1.648,16.353-8.598,24.569-12.791c15.408-7.865,30.128-7.461,44.036,3.264
		c3.925,3.026,3.038-0.829,3.608-2.291c1.984-5.094,5.833-7.687,10.276-6.712c3.879,0.851,6.669,4.865,6.25,9.067
		c-0.401,4.013-3.341,5.526-6.646,5.258c-3.399-0.275-5.129-2.575-2.953-6.91c-3.791,2.227-3.545,4.836-2.763,7.653
		c0.724,2.604,2.291,3.884,5.086,3.741c2.326-0.119,4.677-0.142,6.995,0.055c3.708,0.314,4.778-1.116,6.765-4.649
		c2.921-5.195,6.108-10.869,10.917-14.931c2.65-2.238,5.974-2.763,9.425-2.558c2.054,0.122,3.941,0.555,5.571,1.879
		c1.257,1.021,2.345,2.108,0.861,3.687c-1.058,1.125-2.516,2.279-3.839,0.774c-2.044-2.326-4.008-2.729-6.462-0.82
		c-2.695,2.097-1.873,4.6-1.053,7.245c2.282,7.361,8.523,10.612,14.465,7.43c5.142-2.753,6.232-8.038,2.593-12.566
		c-6.436-8.009-5.829-11.579,3.059-15.978c2.608-1.291,2.593-2.684,1.183-4.654c-2.052-2.866-3.16-5.697,0.47-8.139
		c3.337-2.246,10.992-1.667,12.879,0.904c1.33,1.812,1.364,3.891-0.007,5.563c-2.529,3.086-1.891,4.896,1.756,6.205
		c3.759,1.349,6.304,3.7,5.748,8.189c-0.416,3.36,2.339,1.948,3.768,2.334c3.164,0.855,4.198,3.066,4.096,6.007
		c-0.088,2.551-1.579,4.044-4.088,4.167c-1.783,0.087-3.896-0.38-2.048-2.74c0.959-1.224,1.084-1.976,0.219-2.914
		c-0.927-1.006-2.123-1.643-3.588-1.056c-3.611,1.446-5.23,4.285-4.533,7.937c0.722,3.781,3.545,5.089,7.194,4.185
		c3.42-0.847,6.676-2.084,8.992-5.019c1.255-1.591,2.724-3.255,5.024-2.368c2.349,0.905,1.486,2.988,1.262,4.753
		c-0.042,0.33-0.123,0.655-0.166,0.985c-0.132,1,0.56,2.002,1.268,1.677c4.791-2.199,5.475,6.672,10.08,3.789
		c2.657-1.663,4.85-1.564,6.646,0.515c2.794,3.235,2.568,7.02,0.653,10.649c-1.413,2.678-3.791,3.221-6.381,1.899
		c-2.496-1.274-4.338-1.28-5.643,1.565c-0.318,0.694-1.124,1.549-1.793,1.634c-3.7,0.466-6.815,1.121-5.064,6.149
		c0.311,0.892-0.875,1.761-1.955,1.872c-1.997,0.206-3.125-1.088-3.747-2.705c-1.833-4.767-5.416-7.061-10.323-7.353
		c-3.285-0.195-5.961,1.004-6.894,4.479c-0.976,3.637,0.832,6.077,3.786,7.888c1.595,0.979,3.132,0.825,4.673-0.22
		c1.822-1.234,1.017-2.371,0.136-3.751c-0.821-1.285-0.777-2.785,1.113-2.978c2.28-0.232,4.492,0.445,5.197,2.916
		c0.891,3.125-0.806,5.081-3.587,6.227c-3.309,1.364-2.928,2.623,0.004,4.012c2.257,1.069,4.52,2.186,6.271,4.039
		c2.789,2.951,3.538,6.43,2.005,10.156c-1.529,3.718-4.448,5.764-8.552,5.785c-3.975,0.02-6.535-3.147-5.743-6.977
		c0.284-1.372,0.876-2.774,2.338-2.891c2.129-0.17,0.88,1.497,1.096,2.428c0.108,0.465,0.927,1.099,1.399,1.078
		c1.055-0.045,1.174-1.005,1.068-1.861c-0.274-2.2-1.619-3.214-3.771-3.101c-2.521,0.132-5.407,0.186-5.807,3.422
		c-0.342,2.773,0.053,5.641,0.168,8.465c0.027,0.654,0.225,1.298,1.031,1.49c12.445,2.972,14.99,13.411,17.061,23.629
		c1.495,7.378-0.616,14.54-4.608,21.032c-3.275,5.325-7.322,10.152-10.16,15.855c-0.098-9.552,2.035-18.744,3.444-28.025
		c0.4-2.634,0.766-5.274,1.189-7.904c0.23-1.432-0.266-2.346-1.754-2.33c-0.548,0.006-1.575,0.591-1.561,0.869
		c0.194,3.69-5.658,1.419-5.317,6.111c0.76,10.454,0.719,20.981,0.64,31.476c-0.051,6.81,2.12,12.635,5.861,18.183
		c4.929,7.311,10.072,14.573,12.149,23.369c3.038,12.861,0.228,24.776-6.054,36.088c-0.728,1.31-1.369,2.725-2.346,3.831
		c-8.372,9.479-9.838,20.571-9.563,32.871c0.522,23.314-0.312,46.657-0.434,69.989c-0.019,3.631-0.656,6.191-4.382,7.859
		c-3.636,1.628-6.414,4.704-9.374,7.856c-1.628-2.3-1.044-4.673-1.025-6.861c0.725-85.498-0.095-170.993-0.522-256.488
		c-0.038-7.665-0.267-15.331-0.554-22.991c-0.048-1.286,0.75-3.665-1.259-3.665c-1.987,0-1.367,2.326-1.337,3.693
		c0.582,26.339-0.848,52.657-0.782,78.989c0.139,55.497,1.755,110.984,1.009,166.487c-0.179,13.331-0.252,26.664-0.238,39.996
		c0.003,3.031-0.784,5.155-4.53,6.017c-0.118-1.801-0.325-3.524-0.332-5.248c-0.269-70.164-0.623-140.328-0.719-210.492
		c-0.033-24.155,2.905-48.241,1.991-72.439c-0.424-11.228-0.24-11.255-11.189-11.362c-5.287-0.052-10.574-0.009-17.176-0.009
		c3.148,2.335,5.282,4.07,6.578,6.579c1.376,2.663,0.928,5.493,1.027,8.932c2.198-1.851,3.988-4.162,6.863-2.715
		c1.391,0.7,1.723,1.988,1.41,3.407c-0.896,4.064-4.744,3.391-7.781,4.47c1.554,1.182,3.034,0.663,4.379,0.694
		c6.815,0.158,11.237,3.182,12.868,8.931c2.052,7.233-0.089,14.381-5.587,17.734c-6.269,3.824-12.874,4.341-19.552,1.073
		c-6.442-3.153-12.455-6.911-17.035-12.631c-0.664-0.829-1.912-1.19-3.289-2.004c1.665-2.643,5.286-3.519,5.83-7.088
		c0.499-3.272-0.59-6.276-0.64-9.421c-0.041-2.533,0.687-4.613,3.036-5.833c1.828-0.949,3.614-0.526,5.182,0.598
		c2.763,1.98,2.439,4.663-0.736,5.913c-1.178,0.464-2.419,0.814-1.77,2.32c0.729,1.695,1.897,0.593,2.888,0.121
		c3.622-1.724,3.621-1.726,5.525,1.941c3.308-3.329,4.353-10.015,2.055-13.998c-2.601-4.508-6.804-4.875-11.341-4.066
		c-4.942,0.881-8.738,4.777-13.926,5.234c-1.473,0.13-1.844,2.236-2.148,3.693c-2.151,10.334-0.688,19.836,6.442,28.073
		c11.348,13.11,25.346,16.93,41.867,12.12c0.776-0.226,1.591-0.318,2.59-0.511c0.12,1.165,0.298,2.135,0.308,3.107
		c0.068,6.817,0.036,7.015-6.728,6.308c-5.858-0.612-11.072,2.112-16.686,2.622c-1.371,0.124-1.846,1.27-2.301,2.365
		c-4.417,10.633-7.234,21.39-4.161,33.053c1.863,7.071,3.739,14.272,3.567,21.643c-0.351,15.003-3.92,28.51-19.998,36.032
		c2.813,0.863,4.629,1.39,6.425,1.977c9.371,3.06,13.158,10.974,9.669,20.174c-2.863,7.549-14.139,13.455-21.895,11.332
		c-3.873-1.06-6.344-3.717-6.92-7.716c-0.603-4.188-0.718-8.454,2.87-11.581c2.172-1.893,4.909-2.393,7.456-0.93
		c2.815,1.617,3.974,4.389,3.884,7.618c-0.073,2.593-1.875,3.806-4.02,4.523c-1.497,0.501-3.124,0.415-3.906-1.23
		c-0.637-1.341,0.396-2.153,1.5-2.704c1.398-0.698,2.808-1.385,2.009-3.345c-0.409-1.005-1.24-1.55-2.349-1.546
		c-1.85,0.007-3.175,0.873-3.951,2.545c-2.01,4.331,1.303,10.188,6.23,10.369c5.811,0.213,10.867-1.907,14.165-6.924
		c3.23-4.913,1.606-10.74-3.669-14.259c-6.81-4.543-16.572-4.394-22.554,0.342c-5.583,4.422-7.123,13.653-3.696,22.159
		c6.316,15.675,28.014,19.915,40.608,7.898c13.472-12.855,15.11-28.612,10.883-45.661c-0.916-3.695-2.322-7.317-3.898-10.793
		c-6.999-15.44-9.602-31.812-10.558-48.544c-0.386-6.761,0.574-13.321,3.76-19.392c2.739-5.218,5-6.028,10.171-3.452
		c1.386,0.69,2.142,0.408,3.027-0.464c2.325-2.289,4.781-2.317,7.041-0.092c2.173,2.14,1.939,4.466-0.255,6.533
		c-1.326,1.25-1.409,2.624-0.467,4.028c2.56,3.816,2.579,8.122,2.766,12.483c0.422,9.824,1.09,19.634,0.424,29.476
		c-0.154,2.283-0.062,4.395-3.297,4.3c-3.51-0.103-2.423-2.69-2.235-4.36c1.357-12.102-1.699-23.8-3.163-35.634
		c-0.278-2.251-1.395-4.432-2.328-6.556c-0.689-1.568-0.925-4.029-3.393-3.626c-2.022,0.331-2.596,2.395-3.129,4.158
		c-3.228,10.678-2.68,21.43-0.214,32.108c2.146,9.29,5.978,18.02,9.917,26.661c7.194,15.781,8.17,32.142,4.731,48.893
		c-1.014,4.941-1.45,9.86-1.437,14.878c0.144,52.831,0.251,105.662,0.368,158.493c0.005,2.28,0.001,4.56,0.001,7.686
		c-4.682-3.178-5.353-6.893-5.364-11.17c-0.128-51.829-1.352-103.658,0.101-155.486c0.047-1.657,0.006-3.317,0.006-5.294
		c-2.323,0.418-2.841,2.4-3.884,3.657c-12.021,14.482-34.366,17.78-48.623,7.106c-11.93-8.932-15.574-27.863-7.829-40.559
		c2.148-3.521,5.321-5.885,9.582-8.373c-7.901-3.132-11.825-8.56-11.257-16.734c0.478-6.873,5.72-11.651,12.625-11.487
		c5.807,0.138,9.842,5.371,8.466,10.969c-0.472,1.921-1.519,3.316-3.494,3.853c-2.068,0.562-3.948,0.352-5.482-1.351
		c-1.025-1.137-0.898-2.31-0.551-3.706c0.733-2.944,3.118-0.099,4.503-1.179c-0.775-2.735-2.61-3.196-4.689-2.535
		c-2.442,0.777-3.697,2.676-3.89,5.273c-0.495,6.648,6.486,12.413,13.531,10.994c5.011-1.009,8.693-3.973,11.316-8.341
		c6.428-10.704,6.152-22.246,4.15-33.945c-1.376-8.036-3.582-15.957-3.106-24.219c0.105-1.823,0.62-3.623,0.721-5.445
		c0.13-2.35,2.658-6.413,0.537-6.624c-4.052-0.403-8.605-3.669-12.677,0.262c-0.612,0.591-1.03,1.087-1.275,1.964
		c-1.987,7.116-14.033,12.587-20.861,9.55c-2.27-1.01-2.908-5.368-0.836-7.171c3.642-3.169,7.44-6.16,11.223-9.163
		c1.374-1.091,3.448-1.872,4.621-0.726c2.594,2.532,3.603,1.627,5.604-0.857c2.847-3.536,7.106-2.951,11.098-1.889
		c0.958,0.255,1.839,0.995,2.785,1.057c2.538,0.166,4.787-1.191,5.835-3.152c0.891-1.667-1.42-2.73-2.66-3.687
		c-8.103-6.246-15.497-13.204-20.927-21.934c-2.022-3.251-4.115-0.286-6.13-0.731c-2.258-0.499-2.259,1.21-2.167,2.824
		c0.072,1.256-0.428,2.4-1.514,2.969c-2.5,1.309-3.052,3.381-2.52,5.884c0.571,2.682-2.357,3.401-2.984,5.401
		c6.71,2.499,10.565,11.822,3.238,16.602c-2.219,1.447-4.157,3.327-6.208,5.029c-1.78,1.477-3.501,1.436-5.481,0.233
		c-2.103-1.278-1.83-2.988-1.226-4.783c0.955-2.839,1.893-5.698,3.107-8.43c1.204-2.709,1.935-4.931,1.076-8.304
		c-0.878-3.448,0.349-7.734,2.841-11.012c0.594-0.781,1.57-1.406,1.194-2.539c-0.413-1.246-1.62-0.997-2.543-0.958
		c-13.249,0.567-26.191-2.429-39.308-3.331c-9.351-0.643-18.678-0.417-27.584,3.123c-12.537,4.982-19.228,16.634-17.209,29.912
		c0.856,5.631,4.319,9.974,8.981,10.82c3.765,0.683,7.163-0.338,8.73-4.089c1.257-3.009,0.557-5.766-3.08-7.398
		c-0.242,1.963,1.691,3.977-0.607,5.162c-1.622,0.836-3.292,0.291-4.691-0.727c-1.935-1.409-1.933-3.46-1.233-5.428
		c0.997-2.805,3.13-4.183,6.142-4.211c4.12-0.038,7.108,1.819,8.647,5.575c2.07,5.053,1.231,9.974-2.091,14.137
		c-3.347,4.195-8.039,5.939-13.388,4.968c-6.356-1.154-10.802-4.908-13.486-10.772c-1.258-2.749-1.846-5.679-2.464-9.552
		c-8.057,7.289-17.032,10.329-27.308,7.49c-6.672-1.843-11.915-5.81-15.746-11.611c-9.232-13.981-5.06-29.368,12.36-45.456
		c-0.788-0.95-1.855-0.457-2.754-0.449c-80.328,0.76-160.663-0.803-240.988,0.691c-5.66,0.105-11.324-0.002-16.93,1.148
		c-4.349,0.893-7.777,2.938-9.796,6.97c-5.907,11.801-15.098,19.276-28.257,21.533c-2.06,0.353-2.597,1.029-1.994,3.322
		c2.277,8.655-2.087,13.958-11.389,14.248c-6.789,0.211-6.803,0.227-5.727,6.544c0.582,3.417-1.802,6.678-5.296,7.245
		c-3.641,0.59-7.304-1.873-7.702-5.422c-0.182-1.621,0.207-3.305,0.333-4.961c0.188-2.485-0.575-3.388-3.42-3.258
		c-11.706,0.533-15.034-2.968-14.247-14.695c0.132-1.971-0.805-2.303-2.207-2.496c-13.081-1.797-22.28-8.917-28.456-20.409
		c-3.218-5.988-8.643-8.368-15.266-8.8c-25.8-1.682-51.652-0.84-77.468-1.711c-11.325-0.382-22.652-0.717-33.969-1.263
		c-2.695-0.13-7.15,0.001-7.091-2.859c0.049-2.38,4.505-1.161,6.949-1.146c34.831,0.226,69.662,0.567,104.492,0.913
		c3.164,0.031,6.328,0.242,9.487,0.446c8.088,0.523,14.232,4.189,18.284,11.299c2.066,3.625,4.301,7.165,7.466,9.958
		c6.758,5.963,14.598,7.211,22.856,4.218c7.979-2.892,10.592-12.111,5.623-18.426c-1.874-2.382-4.347-3.698-7.44-3.056
		c-2.097,0.436-3.596,1.827-4.066,3.963c-0.453,2.058-0.44,4.115,2.216,4.725c0.532,0.122,1.357-0.169,1.761-0.563
		c0.554-0.54,0.278-1.188-0.442-1.556c-1.472-0.752-2.169-1.708-0.535-2.96c1.3-0.995,2.616-0.488,3.621,0.483
		c2.092,2.021,2.742,4.572,1.934,7.337c-0.772,2.645-2.702,4.097-5.434,4.494c-5.072,0.737-9.664-2.567-10.607-7.648
		c-0.962-5.183,3.075-11.114,8.482-12.477C712.077,202.678,717.013,204.356,723.053,205.989z M735.755,206.315
		c3.152-1.096,5.175-1.714,7.13-2.5c2.91-1.17,5.912-1.112,8.865-0.575c6.834,1.244,11.214,8.278,9.191,14.674
		c-1.03,3.256-3.215,5.5-6.716,5.934c-2.879,0.357-5.745,0.148-7.6-2.605c-1.648-2.447-1.487-5.061-0.33-7.621
		c0.833-1.842,2.289-3.186,4.345-2.086c1.876,1.004,1.408,2.373-0.272,3.392c-0.502,0.305-0.619,0.835-0.118,1.104
		c0.531,0.284,1.345,0.573,1.807,0.362c2.058-0.94,2.314-2.684,1.599-4.615c-1.619-4.371-7.385-5.187-10.742-1.549
		c-4.816,5.22-3.484,14.265,2.736,17.78c4.172,2.358,8.652,3.153,13.492,2.478c9.651-1.346,15.286-7.705,19.439-15.621
		c3.928-7.487,10.027-10.788,18.18-11c2.831-0.073,5.661-0.24,8.493-0.256c65.483-0.366,130.963-1.143,196.451-0.573
		c22.981,0.2,46.022,0.664,68.9-2.182c19.43-2.417,37.759,1.012,55.568,8.718c10.235,4.428,20.631,8.52,31.551,11.042
		c8.498,1.963,17.05,3.163,25.75,1.452c4.085-0.803,8.127-2.286,9.094-6.727c1.267-5.823,2.959-11.75,2.17-17.765
		c-0.499-3.806,0.861-4.82,3.956-3.619c5.036,1.953,8.332-1.066,13.329-3.829c-17.814-0.172-34.137,1.25-51.881,1.816
		c3.272,1.65,5.145,2.7,7.103,3.558c3.089,1.355,6.322,6.733,9.303-0.185c0.122-0.282,0.905-0.319,1.392-0.397
		c6.686-1.075,11.632,4.969,9.2,11.28c-0.449,1.165-1.147,2.235-1.701,3.293c1.682,1.285,4.725,0.36,4.919,3.01
		c0.188,2.572-1.906,4.159-3.945,5.365c-2.635,1.559-5.593,2.043-8.63,2.189c-16.116,0.777-30.905-3.976-45.193-10.812
		c-0.697-0.333-1.61-0.614-1.465-2.111c5.624,0.014,11.118,0.949,16.474,2.593c9.028,2.77,18.267,3.471,27.648,3.562
		c3.414,0.033,4.153-1.47,4.49-4.306c0.4-3.369-2.104-3.613-4.084-3.704c-4.284-0.198-8.195-1.463-11.935-3.335
		c-8.491-4.251-17.526-4.943-26.794-4.414c-4.99,0.285-9.986,0.458-14.979,0.678c-2.84,0.125-5.757,0.706-5.914-3.785
		c-0.077-2.19-2.372-1.297-3.671-1.287c-5.997,0.047-11.992,0.342-17.989,0.406c-87.975,0.95-175.954,1.28-263.934,1.463
		c-11.993,0.025-23.985,0.521-35.979,0.715c-1.295,0.021-3.428,1.167-3.714-1.081c-0.26-2.049,0.786-3.996,3.141-4.462
		c1.454-0.288,2.983-0.246,4.48-0.271c76.972-1.322,153.956-0.443,230.937-1.475c72.965-0.978,145.953-0.242,218.914-2.149
		c1.633-0.043,3.624,0.626,4.908-1.734c-3.426-1.372-6.75-0.815-9.956-0.802c-60.816,0.237-121.634,0.303-182.447,0.888
		c-88.308,0.851-176.613,1.955-264.928,1.385c-13.645-0.088-13.677-0.155-15.652,13.595c-0.345,2.4-1.288,4.039-3.703,4.74
		c-2.212,0.642-3.631-0.543-4.542-2.179c-1.748-3.14-4.238-3.159-7.265-2.415c-5.836,1.434-11.687,2.323-17.785,1.369
		C742.912,200.515,739.284,201.827,735.755,206.315z M1090.622,235.7c8.628-12.662,21.224-17.605,36.183-17.755
		c-14.942-7.115-30.131-10.796-46.325-8.951c-13.822,1.575-25.462,6.922-32.083,19.866c-4.995,9.764-1.87,21.059,6.848,27.037
		c7.678,5.266,18.108,3.761,25.349-3.656c5.741-5.881,5.71-17.999-0.06-23.798c-3.651-3.668-8.825-2.981-11.294,1.502
		c-1.044,1.896-2.044,3.515,1.521,3.911c3.096,0.344,4.907,2.633,5.675,5.617c1.074,4.173-1.371,9.317-5.807,12.355
		c-5.081,3.479-10.393,3.893-14.287,1.075c-0.168-0.122-0.091-0.582-0.143-1.008c1.748-1.278,3.82-0.54,5.717-0.796
		c5.125-0.691,9.734-4.63,10.324-8.818c0.392-2.782-1.144-3.966-3.449-4.619c-2.906-0.823-2.09,1.75-2.606,3.002
		c-0.438,1.064-0.516,2.27-0.866,3.377c-0.443,1.398-0.778,3.26-2.805,2.741c-1.678-0.429-1.369-2.117-1.132-3.401
		c0.844-4.579,1.517-9.206,3.324-13.55c2.035-4.893,5.407-7.924,10.984-7.865c5.694,0.06,10.318,3.245,12.452,8.411
		C1088.825,232.026,1088.754,234.013,1090.622,235.7z M1232.079,218.141c0.89,1.043,2.155,0.693,3.225,0.738
		c6.724,0.286-1.968,6.682,3.032,7.796c0.16,0.036-1.283,1.652-2.381,1.986c-1.269,0.386-2.633,0.48-3.877,0.922
		c-1.399,0.497-3.808-0.474-3.911,2.029c-0.077,1.864,1.666,2.771,3.095,3.6c2.311,1.34,4.781,1.296,7.239,0.445
		c4.132-1.431,10.339-9.955,10.482-14.293c0.047-1.43-0.524-2.558-1.478-3.576C1243.698,213.723,1236.332,213.873,1232.079,218.141z
		 M1099.747,171.232c0.107-0.579,0.213-1.158,0.319-1.737c-5.93-1.94-11.843-3.938-17.797-5.801
		c-4.686-1.466-9.515-1.47-14.341-0.926c-4.223,0.475-3.106,4.284-3.597,6.664c-0.569,2.76,2.198,1.733,3.524,1.746
		C1078.486,171.275,1089.117,171.232,1099.747,171.232z M1290.805,340.933c1.734-13.367-6.684-22.913-10.317-33.964
		c-0.466,8.659-0.47,17.233-0.459,25.807c0.001,0.858,0.262,1.622,1.059,2.115C1284.152,336.789,1287.211,338.697,1290.805,340.933z
		 M1038.029,171.199c5.325,1.037,10.041,0.625,14.703,0.292c2.178-0.155,5.841-6.637,4.796-8.383
		c-1.649-2.757-4.372-1.544-6.675-1.027C1045.761,163.226,1042.323,166.859,1038.029,171.199z M1279.915,366.887
		c3.337-3.984,5.42-7.121,7.111-10.519c2.74-5.504,1.522-9.231-3.875-12.248c-1.966-1.099-3.315-1.603-3.267,1.589
		C1279.984,352.326,1279.915,358.945,1279.915,366.887z M734.562,231.874c0.267,4.018,1.252,7.794,2.974,11.344
		c0.903,1.862,2.44,3.138,4.488,3.601c2.088,0.471,4.117,0.127,5.17-1.881c1.005-1.916-0.698-3.093-1.943-4.036
		C741.592,238.132,737.885,235.436,734.562,231.874z M726.2,230.972c-4.202,4.515-7.753,7.655-11.435,10.659
		c-1.446,1.18-3.388,3.205-0.422,4.668c2.773,1.368,6.002,1.657,7.797-1.719C724.145,240.81,725.766,236.836,726.2,230.972z
		 M1298.33,172.271c-5.293-1.287-10.311-0.274-15.168,1.952C1288.379,174.69,1293.904,177.463,1298.33,172.271z M730.084,173.339
		c1.658-5.566,1.976-9.724-0.17-14.494C727.279,163.677,727.921,167.824,730.084,173.339z M729.934,241.636
		c-1.209,3.547-1.685,6.614-0.223,9.752c0.085,0.183,1.074,0.247,1.196,0.066c1.972-2.931,0.994-5.914,0.039-8.882
		C730.904,242.44,730.719,242.353,729.934,241.636z M1270.685,158.685c1.041-3.781,1.592-7.481-0.201-12.58
		C1269.219,151.301,1269.745,155.031,1270.685,158.685z"/>
	<path fill="FRAME_COLOR" d="M204.614,283.532c-0.084-1.642,1.341-2.585,2.128-4.321c-7.72,3.885-15.792,3.893-23.718,4.561
		c-8.295,0.699-16.618,1.052-24.916,1.715c-6.595,0.527-12.586-1.372-18.122-4.574c-9.817-5.678-16.957-14.229-24.042-23.598
		c10.889,1.808,20.197-2.615,31.327-6.415c-10.784-2.337-13.769-9.413-15.126-17.824c-1.482-9.19-5.918-16.507-14.053-21.395
		c-1.03-0.619-2.811-1.125-2.282-2.798c0.458-1.447,2.285-1.692,3.419-1.531c14.645,2.072,29.162-1.841,43.678-1.039
		c12.855,0.71,23.772,6.993,33.227,15.745c2.341,2.167,4.257,5.063,8.416,6.124c-1.127-3.31-3.05-5.365-5.072-7.078
		c-13.103-11.101-15.076-26.046-13.007-41.464c1.431-10.664,5.063-21.004,0.508-33.086c11.286,7.293,19.289,15.571,26.891,26.474
		c-1.024-14.581,3.182-25.656,14.557-34.398c0.716,4.817-2.1,8.292-0.917,12.982c1.69-3.258,2.875-6.038,4.488-8.541
		c2.563-3.978,6.34-6.819,10.048-9.642c7.346-5.591,12.047-12.759,13.688-21.908c0.209-1.165-0.314-3.143,1.496-3.231
		c1.437-0.069,1.937,1.696,2.433,2.863c1.039,2.446,2.051,4.934,2.739,7.495c2.51,9.356,5.387,18.386,11.63,26.235
		c4.658,5.856,3.873,12.785,0.698,19.56c7.07-4.013,11.436-10.372,15.984-18.364c2.654,14.774,3.692,27.843-4.209,40.128
		c-7.373,11.464-14.591,23.03-21.723,34.646c-1.329,2.165-2.987,4.456-2.309,7.352c-3.465,1.393-2.775,4.652-3.455,7.297
		c1.542-2.665,1.551-2.608,5.162-3.208c1.11-0.184,2.257-0.583,2.744-1.872c1.045-2.765,2.132-5.515,3.202-8.271
		c-2.158,2.812-5.075,4.33-7.814,6.058c1.705-3.993,3.972-7.399,7.387-10.358c4.93-4.271,7.732-10.35,11.295-15.756
		c1.921-2.915,3.602-5.986,5.46-8.944c10.903-17.363,26.839-25.708,47.123-26.08c7.943-0.146,15.89-0.024,24.424-0.024
		c-1.177,2.726-3.291,3.778-5.134,4.9c-8.262,5.032-12.828,12.299-13.882,21.897c-0.719,6.544-3.351,12.371-8.217,18.195
		c8.16-1.717,14.924,0.27,21.757,1.556l-0.015-0.017c1.662,2.646,5.357,2.371,7.399,5.18c-4.419,1.807-8.661,3.542-12.902,5.276
		c6.383,1.364,12.718,2.087,18.614,4.649c3.678,1.598,3.686,1.716,0.983,4.069c12.013,9.588,28.589,10.878,40.663,21.572
		c-17.122-1.451-28.602,8.586-40.527,17.866c1.444,1.426,3.374,0.129,5.221,1.509c-6.744,5.211-14.306,5.675-23.136,4.66
		c3.596,3.457,8.01,3.193,11.928,6.182c-10.358,2.034-19.481,4.988-28.793-0.622c-7.39-4.451-15.777-6.36-24.281-7.104
		c-8.763-0.766-17.285-2.167-25.558-5.29c-2.6-0.981-5.628-1.236-9.576-0.555c7.442,4.669,14.411,7.512,22.256,8.217
		c13.142,1.181,26.208,2.625,37.86,9.769c7.089,4.346,12.542,10.049,16.875,17.929c-4.541-0.549-7.977-2.544-12.496-2.5
		c4.862,3.618,9.293,6.901,12.018,11.765c0.959,1.713,3.68,3.442,0.497,5.82c-0.506,0.378,0.184,2.495,0.471,3.774
		c1.676,7.447,5.694,13.803,9.441,20.3c2.452,4.252,4.784,8.604,4.45,14.634c-2.903-2.028-5.14-3.657-7.441-5.188
		c-7.722-5.139-16.112-7.012-25.233-4.916c-6.904,1.587-13.182-0.036-19.193-3.408c-1.232-0.691-2.133-2.081-4.197-1.954
		c0.877,4.107,4.554,6.491,6.06,10.62c-9.179-1.726-16.535-5.879-22.829-12.096c-1.152-1.138-1.458-2.535-1.623-4.065
		c-1.39-12.897-7.669-23.589-15.284-33.663c-0.597-0.79-1.345-1.481-2.089-2.143c-0.922-0.819-2.056-1.394-3.12-0.441
		c-1.311,1.174-0.012,2.102,0.616,2.961c5.226,7.147,9.712,14.67,13.341,22.801c5.193,11.636,1.931,23.175,0.784,36.068
		c-3.283-4.62-4.52-9.231-8.544-13.04c0.992,7.264,1.844,13.746-0.006,20.147c-0.397,1.373-0.157,3.436-1.866,3.728
		c-1.916,0.328-1.219-2.524-2.673-3.035c-7.758,10.124-10.946,21.388-8.432,34.066c0.215,1.084,1.032,2.503-0.116,3.244
		c-1.368,0.884-2.66-0.376-3.437-1.288c-9.052-10.636-18.611-20.694-29.552-29.494c-3.536-2.844-4.234-8.052-4.904-12.811
		c-3.283,4.504-2.958,9.562-2.625,14.743c-7.208-5.248-8.715-15.839-5.348-36.129c-6.903,2.506-12.449,7.222-23.372,19.878
		c-11.17-20.326,6.141-67.904,28.1-76.764c0.436,3.07-2.439,5.52-1.414,9.607c2.252-6.403,5.476-11.195,10.07-16.465
		c-5.156,1.828-9.391,3.001-12.98,5.672c-13.808,10.273-29.459,17.511-43.915,26.713c-2.663,1.695-5.663,1.783-8.685,1.769
		c-3.954-0.018-7.907-0.004-11.893,0.296c4.639,2.158,9.855,0.18,15.491,1.962c-11.373,8.76-21.912,17.488-31.209,27.674
		c11.467-8.565,22.07-18.279,34.908-26.699c-2.384,6.387-4.394,11.909-6.62,17.44c3.014-2.531,4.882-5.912,5.355-9.65
		c0.892-7.042,5.017-10.954,11.024-13.984c7.109-3.586,13.274-8.883,21.776-12.476c-1.287,1.899-1.968,3.022-2.762,4.057
		c-10.094,13.156-15.45,27.994-14.741,44.592c0.241,5.645-2.944,8.732-6.333,11.696c-2.918,2.553-0.873-2.151-2.381-2.18
		c-2.31,2.581-4.484,5.316-6.984,7.709c-2.392,2.291-5.226,4.034-8.907,4.993c-0.276-2.767,1.127-4.716,1.853-6.803
		c0.744-2.139,1.679-4.212,2.136-6.621c-6.625,7.38-14.691,11.513-24.366,12.401c-2.039,0.187-4.217,0.91-5.808-1.532
		c-0.93-1.427-2.829-0.735-4.218-0.47c-9.851,1.88-18.513,5.615-23.122,15.403c-0.42,0.891-0.834,1.852-2.611,1.953
		c-1.577-5.472-1.193-11.01,0.044-16.536c2.314-10.339,6.805-19.808,11.743-29.1c0.869-1.636,3.083-3.49-0.798-4.814
		c-2.237-0.763-0.33-2.59,0.324-3.656c4.051-6.605,8.994-12.39,15.725-16.461c0.92-0.557,2.279-0.702,2.472-2.548
		c-3.614-1.01-7.394,0.252-11.914-0.24c6.035-6.393,12.928-9.876,19.77-13.409c-0.165-1.511-2.012-1.011-2.577-2.656
		c6.985-3.731,14.532-6.065,22.363-7.135c7.081-0.968,14.265-1.3,21.417-1.605c7.393-0.315,14.505-1.911,21.542-3.905
		c-1.361,1.749-1.374,2.99,1.215,2.161c2.962-0.948,5.75-2.429,8.681-3.489c1.099-0.397,2.224-0.363,2.313-1.951
		c0.062-1.106-0.683-1.523-1.389-1.748c-1.406-0.448-1.834,0.724-2.585,1.648C210.303,283.364,207.541,284.39,204.614,283.532z
		 M215.932,231.717c-2.472,1.486-3.032-1.495-5.982-2.623c3.227,4.082,4.594,8.06,9.413,9.148c-0.173-3.113-3.237-4.137-3.553-6.664
		c2.457,2.06,4.913,4.12,7.37,6.179c-1.868-3.604-3.621-7.259-8.189-8.863C215.427,230.203,215.68,230.96,215.932,231.717z
		 M288.102,237.911l-0.152,0.191c1.531-0.385,2.419-1.285,1.718-2.866c-0.568-1.282-1.881-1.291-3.049-0.989
		c-1.282,0.332-2.536,0.806-3.764,1.309c-2.094,0.858-4.436,3.117-6.381,0.985c-1.845-2.023,1.16-3.69,1.857-5.572
		c0.345-0.932,1.062-1.919,0.013-2.668c-0.744-0.531-1.561,0.044-2.186,0.652c-3.249,3.159-6.653,6.186-9.88,11.185
		c3.422-2.066,5.388-3.947,7.885-4.516c2.241,2.383,0.999,4.529-0.297,6.672c-0.406,0.972-1.957,1.245-1.636,2.577
		c0.042,0.176,1.07,0.114,1.642,0.162C279.508,244.442,284.16,241.886,288.102,237.911z M271.091,298.428
		c-1.161-4.989-4.266-8.719-7.818-12.233c0.944,3.432-3.37,7.57,1.513,10.309c0.572,1.819,0.728,4.109,2.89,4.683
		C269.628,301.706,270.359,299.874,271.091,298.428z M211.156,243.622c3.036-0.493,5.922,2.788,9.159,0.519
		c-4.486-4.776-9.902-7.698-15.755-9.924c-3.384,2.07-2.28,3.847,0.37,5.503C207.007,241.019,209.639,241.43,211.156,243.622z
		 M256.744,224.482c-0.679-2.84,2.951-7.683-3.619-7.782c-3.704,3.998-4.936,8.88-5.152,14.19c1.338-1.131,1.041-3.495,3.294-3.919
		c1.725,1.779-2.115,5.003,1.914,6.369C253.309,229.91,256.572,227.892,256.744,224.482z M237.325,212.394
		c-1.248,3.678-0.367,7.499-0.785,11.218c-0.172,1.533-2.57,3.352,0.61,4.043c1.218,0.265,2.726,2.105,3.897,0.37
		c1.214-1.798,2.32-4.817,0.301-5.861c-4.482-2.318-3.058-6.407-4.026-9.78c6.844,1.773,5.029,7.842,5.986,13.033
		c1.281-3.198,0.379-5.854,0.222-8.451C243.307,213.241,241.502,211.053,237.325,212.394z M222.973,223.926
		c1.179,2.704-0.656,8.653,6.021,5.484c0.78-0.37,1.666,0.697,1.972,1.825c0.309,1.139-0.051,2.693,1.812,3.313
		c-0.461-5.433-2.029-10.396-4.604-14.971c-1.502-2.668-3.514-5.213-6.908-1.943C221.836,219.731,222.404,221.828,222.973,223.926z
		 M294.944,263.137c3.043-2.83,1.213-4.555-1.626-4.993c-5.523-0.854-11.125-0.828-16.656,0.349
		c-0.657,0.14-1.455,0.262-1.381,1.047c0.051,0.546,0.555,1.413,0.99,1.505c6.208,1.306,12.233,4.598,18.844,1.92L294.944,263.137z
		 M207.441,269.675c4.423,0.871,7.259-2.156,10.549-4.262c-2.7-0.267-5.317-0.042-7.935-0.041c-3.548,0-6.873,1.115-10.252,1.906
		c-2.269,0.531-3.408,2.483-2.75,4.585c0.688,2.2,2.898,1.267,4.291,0.785c2.165-0.75,4.152-2.012,6.214-3.058L207.441,269.675z
		 M198.986,247.027c-0.619,3.073-0.552,2.919,2.404,4.203c8.086,3.514,17.071-0.542,25.13,3.066c0.016,0.007,0.27-0.519,0.434-0.836
		c-6.5-2.334-12.928-4.882-19.519-6.892c-2.716-0.828-5.971-2.748-8.588,0.606L198.986,247.027z M244.857,246.345
		c-8.884,0.176-14.998,6.356-14.974,15.137c0.016,5.902,8.432,12.081,16.149,11.858c8.633-0.25,14.403-6.471,14.186-15.292
		C260.054,251.402,253.2,246.18,244.857,246.345z M286.898,286.595c-0.125-1.724,0.028-2.382-0.219-2.613
		c-3.793-3.549-8.769-5.116-13.132-7.72c-0.592-0.353-1.481-0.155-1.592,0.582c-0.112,0.742,0.078,1.639,0.424,2.322
		c1.309,2.589,4.33,3.703,5.271,6.95c0.494,1.703,0.188-1.289,1.135-1.136c-0.138-0.731,2.516,1.138,0.909-0.984
		c-0.819-1.081-2.165-1.872-2.16-3.809C280.935,281.526,284.139,282.684,286.898,286.595z M244.887,303.766
		c0.377-1.205,0.954-2.053,0.778-2.691c-0.378-1.365-1.731-2.663-1.643-3.916c0.234-3.326,2.044,1.824,2.722-0.352
		c0.143-0.458,0.206-0.963,0.196-1.443c-0.053-2.446-1.763-3.337-3.763-3.944c-0.831-0.252-1.691-1.167-2.141,0.587
		c-0.524,2.047-1.518,5.841-0.736,5.873C244.521,298.051,242.704,301.954,244.887,303.766z M274.936,294.321
		c-0.36-3.628-3.513-5.074-3.781-7.807c1.448-1.231,3.152,1.145,4.622-0.561c-2.439-3.328-7.17-2.315-10.192-6.756
		C267.295,286.034,270.122,290.333,274.936,294.321z M237.649,288.28c-7.491,2.983-1.203,11.987-6.442,16.507
		C236.364,300.236,237.28,294.034,237.649,288.28z M255.581,286.168c0.33,1.658,0.358,3.098-0.917,4.512
		c-0.782,0.868-1.452,2.367,0.158,3.384c3.936,2.487,3.492,6.018,2.158,9.913C260.734,300.651,260.576,298.265,255.581,286.168z
		 M263.96,264.529c1.125,2.214,2.529,3.826,4.708,4.872c2.03,0.975,2.655,0.505,3.472-1.658c0.854-2.261,0.49-3.017-1.68-3.241
		C268.4,264.29,266.326,263.425,263.96,264.529z M272.652,252.01c1.344-0.491,2.672-1.037,4.037-1.463
		c3.559-1.112,7.123-2.216,10.722-3.186c0.377-0.101,0.962,0.788,1.519,1.095c1.323,0.73,1.495-0.493,1.234-1.081
		c-0.633-1.427-2.11-1.487-3.426-1.325C281.516,246.695,276.523,248.009,272.652,252.01z M265.24,276.941
		c1.378-0.771,3.866-0.519,3.491-2.297c-0.488-2.313-2.914-3.472-5.065-4.337c-1.379-0.555-1.763,0.63-1.587,1.659
		C262.432,274.039,263.124,275.985,265.24,276.941z M242.301,235.877c-0.128-0.003-0.256-0.006-0.384-0.008
		c0-1.305,0.02-2.61-0.007-3.914c-0.017-0.823-0.044-1.709-1.245-1.618c-0.313,0.024-0.705,0.112-0.906,0.32
		c-1.027,1.063,0.42,1.172,0.67,1.756c0.512,1.196,1.79,3.572-0.449,3.279c-3.336-0.437-1.881,1.492-1.585,2.383
		c0.433,1.307,0.672,3.359,2.424,3.352c1.954-0.008,1.144-1.941,1.314-3.11C242.25,237.514,242.249,236.692,242.301,235.877z
		 M235.741,244.729c-0.109-6.506-0.716-7.192-5.138-5.792C231.996,241.134,233.14,243.451,235.741,244.729z M279.317,268.164
		c2.508,0.182,4.493,2.405,7.121,2.603C285.13,266.427,282.478,266.511,279.317,268.164z M203.371,256.782
		c4.889-1.292,9.222,2.479,13.997,1.344C212.738,256.998,208.24,254.743,203.371,256.782z"/>
	<path fill="FRAME_COLOR" d="M239.39,871.174c-0.823,1.296-0.184,2.617-0.168,3.889c0.05,3.74-2.042,5.963-5.276,7.034
		c-3.011,0.996-5.637-0.198-7.476-2.691c-2.136-2.896-2.784-6.186-0.763-9.326c1.008-1.566,2.514-3.749,4.659-0.504
		c1.337,2.022,2.805-0.549,4.312-0.668c1.855-0.146,1.454-1.887,1.334-3.182c-0.155-1.684-1.329-2.164-2.803-2.178
		c-3.333-0.032-6.792-0.621-9.968,0.076c-4.38,0.96-4.499,5.605-5.729,8.927c-1.975,5.333-13.716,13.22-19.225,12.273
		c-1.44-0.248-2.915-0.766-4.167-1.508c-1.366-0.81-2.23-2.239-1.239-3.821c0.925-1.476,2.311-1.04,3.475-0.179
		c2.041,1.51,4.095,2.382,6.278,0.346c2.235-2.085,2.349-4.606,1.444-7.357c-1.836-5.579-6.805-8.889-12.237-8.085
		c-6.24,0.923-8.549,6.169-4.998,11.383c0.468,0.687,1.012,1.323,1.525,1.979c4.7,5.999,4.1,10.431-2.252,14.393
		c-2.595,1.618-3.607,2.759-1.306,5.659c2.494,3.143,0.754,5.269-2.577,6.876c-3.029,1.461-5.928,0.723-8.503-0.281
		c-2.841-1.109-4.474-3.685-2.227-6.801c1.578-2.188,1.429-3.464-1.207-4.464c-3.544-1.344-5.973-3.745-5.785-7.82
		c0.108-2.339-1.543-2.074-2.913-2.503c-3.205-1.004-5.088-3.19-5.072-6.611c0.01-2.207,0.498-4.406,2.897-5.344
		c1.611-0.63,3.144,0.126,3.99,1.346c1.731,2.495-1.673,3.101-2.229,5.121c2.471,1.509,5.11,1.875,7.254-0.077
		c2.665-2.427,3.235-5.937,2.246-9.245c-0.857-2.868-3.812-2.912-6.317-2.946c-4.696-0.062-8.324,1.821-10.728,6.029
		c-1.027,1.799-2.12,4.29-4.87,3.155c-2.301-0.949-1.187-3.099-0.934-4.849c0.093-0.644,0.273-1.797,0.061-1.886
		c-3.847-1.626-7.885-4.631-11.604-4.293c-5.35,0.487-8.635-1.098-8.311-6.804c0.336-5.901,2.441-7.416,8.071-5.573
		c1.159,0.38,1.864,0.258,2.616-0.547c0.454-0.485,0.905-1.309,1.413-1.355c5.596-0.498,8.29-2.841,7.138-9.006
		c-0.404-2.163,2.156-1.635,3.256-0.708c1.234,1.039,2.125,2.533,3.013,3.926c2.015,3.16,4.946,4.963,8.522,5.592
		c3.362,0.592,5.943-0.943,7.274-3.995c1.394-3.195,0.146-5.92-2.519-7.871c-1.895-1.387-4.067-1.253-6.165-0.214
		c-2.217,1.097-0.126,2.586-0.352,3.869c-0.208,1.178,0.812,2.892-1.147,3.285c-1.517,0.304-2.36-0.866-3.052-2.096
		c-1.725-3.065-1.363-5.963,1.323-8.072c2.979-2.339,1.571-3.684-0.628-5.143c-1.664-1.104-3.476-2.031-4.984-3.317
		c-3.862-3.292-4.191-9.106-0.712-12.407c2.804-2.661,6.143-2.735,9.167-0.665c3.294,2.254,2.186,5.054,0.005,7.623
		c4.684,0.924,6.442-0.301,6.378-4.439c-0.028-1.83-0.22-3.659-0.385-5.484c-0.087-0.96-0.145-2.395-1.535-1.903
		c-3.887,1.373-5.086-1.842-6.875-3.86c-10.999-12.406-12.628-25.455-5.025-40.174c2.566-4.968,5.322-9.837,8.617-15.903
		c1.175,7.6,0.257,13.761-0.811,19.884c-0.977,5.603-1.596,11.22-1.458,16.903c0.024,0.972,0.552,3.303,1.136,2.432
		c1.85-2.763,6.286-3.474,6.178-7.659c-0.303-11.661-0.812-23.322-0.856-34.984c-0.02-5.249-1.407-9.621-4.601-13.798
		c-4.345-5.683-8.349-11.646-11.063-18.354c-4.485-11.085-4.22-22.118,0.428-33.054c1.3-3.058,2.527-6.308,4.548-8.87
		c7.753-9.833,9.622-20.823,8.928-33.12c-0.901-15.955-0.456-31.987-0.483-47.987c-0.004-2.263-0.833-5.341,1.155-6.626
		c3.452-2.231,7.44-3.665,11.284-5.237c1.312-0.537,1.659,0.782,1.716,1.776c0.124,2.161,0.129,4.328,0.162,6.493
		c1.176,76.987,2.341,153.975,3.543,230.962c0.088,5.663,0.367,11.327,0.718,16.981c0.09,1.446-1.006,4.096,1.297,4.077
		c2.634-0.021,1.661-2.855,1.629-4.439c-0.18-8.829-0.699-17.652-0.852-26.481c-0.729-41.99-1.356-83.983-2.06-125.974
		c-0.562-33.492-2.108-66.968-1.612-100.476c0.042-2.835-0.975-7.319,2.889-7.279c3.62,0.038,1.577,4.369,1.529,6.579
		c-1.066,48.852,2.217,97.624,2.586,146.447c0.211,27.994,0.359,55.989,0.659,83.982c0.091,8.494,0.634,16.983,0.895,25.477
		c0.229,7.471,1.975,9.219,9.746,9.343c14.669,0.234,29.322-0.148,43.97-1.005c25.142-1.47,50.317-0.92,75.475-0.88
		c112.496,0.178,224.988,1.603,337.486,1.27c4.606-0.014,9.212-0.002,14.16-0.002c-1.193,3.246-3.788,2.66-5.914,2.687
		c-30.996,0.389-61.993,1.046-92.989,1.007c-106.831-0.134-213.661-0.568-320.492-0.75c-16.994-0.029-33.99,0.634-50.984,1.039
		c-1.528,0.036-3.357-0.533-4.681,1.487c1.846,1.271,3.854,0.768,5.685,0.766c155.33-0.197,310.66-0.428,465.99-0.661
		c11.391-0.017,12.504-1.16,12.534-12.745c0.003-1,0-2-0.02-3c-0.036-1.757,0.248-3.332,2.12-4.113
		c1.967-0.82,3.756-0.383,4.894,1.281c2.1,3.07,4.7,3.042,7.889,2.091c5-1.492,10.173-1.641,15.365-1.287
		c4.609,0.315,8.423-1.14,11.656-5.496c-2.739-0.203-4.084,1.423-5.718,2.158c-8.563,3.853-17.175-0.578-17.976-9.306
		c-0.614-6.688,5.239-11.625,11.177-9.283c3.57,1.408,5.068,4.203,4.128,8.016c-0.477,1.937-1.853,3.392-3.834,3.445
		c-2.731,0.073-0.974-2.655-1.975-3.85c-2.68,0.692-2.878,2.546-1.966,4.591c1.072,2.403,3.12,3.344,5.741,2.973
		c4.346-0.615,7.837-5.847,7.366-11.038c-0.607-6.681-5.733-11.184-12.906-11.455c-9.52-0.359-16.18,4.204-20.921,12.062
		c-1.634,2.708-3.168,5.482-4.64,8.283c-3.9,7.422-10.13,11.309-18.351,12.08c-17.791,1.67-35.636,1.11-53.455,0.97
		c-75.999-0.6-151.996,1.045-227.995,0.12c-10.32-0.126-20.628,1.099-30.973,0.239c-14.173-1.178-26.955-7.294-40.35-11.199
		c-12.999-3.79-26.048-5.502-39.492-3.5c-1.71,0.255-4.142-0.224-4.315,2.263c-0.147,2.107,1.875,2.837,3.629,3.568
		c14.548,6.067,29.52,9.247,45.352,6.952c2.532-0.367,5.099-0.718,5.249,3.216c0.079,2.069-0.287,3.101-2.586,3.145
		c-10.491,0.2-20.982,1.13-31.471,0.025c-3.903-0.411-7.264-2.075-10.501-4.3c-2.5-1.718-5.145-3.566-8.067,0.162
		c-2.063,2.632-7.645,0.891-7.715-2.429c-0.069-3.299-0.936-6.509-0.803-9.72c0.187-4.508,2.426-7.772,7.139-9.114
		c7.209-2.052,14.537-2.03,21.828-1.225c12.437,1.373,24.678,3.78,36.583,7.81c9.642,3.264,19.442,6.01,29.755,6.009
		c9.462-0.001,18.157-2.531,25.516-8.632c12.751-10.571,11.254-30.223-2.796-38.088c-5.731-3.208-12.707-2.607-17.263,1.487
		c-5.198,4.671-6.958,13.114-4.127,19.799c2.504,5.912,7.285,8.662,13.985,8.23c3.762-0.243,6.255-2.156,7.646-5.492
		c1.587-3.805,1.545-7.798,0.89-11.807c-0.373-2.284-1.794-3.515-4.006-3.831c-1.812-0.26-4.134-0.672-4.503,1.719
		c-0.373,2.411,1.931,2.107,3.547,2.258c0.466,0.044,0.912,0.302,1.677,0.57c-1.972,3.121-4.4,4.418-7.481,2.186
		c-2.864-2.074-3.178-4.905-1.092-7.885c2.578-3.684,6.331-3.975,10.282-3.489c3.967,0.488,4.851,3.605,5.426,6.827
		c0.292,1.635,0.429,3.307,0.51,4.969c0.462,9.546-2.823,15.155-10.129,17.383c-7.846,2.393-16.42-0.798-20.933-7.831
		c-0.879-1.371-1.627-2.826-2.759-4.808c-3.205,4.088-6.382,7.635-10.68,9.938c-9.596,5.141-19.815,5.458-30.183,3.72
		c-12.15-2.036-24.164-4.951-36.665-3.532c-11.292,1.282-15.055,4.699-16.883,16.011c-0.186,1.151-0.415,2.296-0.591,3.449
		c-1.52,9.933-1.516,9.954-11.733,10.506c-2.151,0.116-4.314,0.017-7.576,0.017c8.272-3.886,12.779-9.314,12.749-17.971
		c-0.026-7.537-3.427-13.391-8.216-18.716c-0.884-0.983-1.926-1.916-3.477-1.121c-1.312,0.673-2.299,1.747-1.901,3.172
		c1.717,6.143-1.737,12.145-0.248,18.375c0.649,2.713,0.419,4.997,4.16,3.995c0.943-0.252,2.187-0.47,2.472,0.836
		c0.148,0.677-0.208,1.799-0.736,2.235c-3.815,3.151-7.289,7.059-12.607,7.556c-9.643,0.899-14.087-2.901-15.247-13.048
		c-2.474,1.244-5.401,5.547-7.513,0.885c-3.453-7.621,5.558-4.442,8.082-8.159c-2.356,0-4.068,0.078-5.771-0.013
		c-7.952-0.424-12.247-4.86-11.565-11.883c0.736-7.583,6.733-12.836,14.044-11.565c5.216,0.907,10.262,2.805,15.374,4.298
		c3.465,1.013,6.561,0.503,9.261-1.999c-12.722-14.784-26.525-15.474-41.785-1.423c0-5.534,0.077-10.428-0.03-15.317
		c-0.06-2.735,1.693-2.295,3.348-2.223c6.294,0.274,12.547,0.198,19.335-2.234c-5.636-2.963-3.942-6.429-2.293-10.627
		c3.935-10.014,1.049-20.073-1.286-29.913c-1.969-8.297-6.134-15.822-9.728-23.51c-4.677-10.002-6.648-20.586-7.018-31.492
		c-1.25-36.815-1.331-73.649-1.603-110.48c-0.033-4.461,0.199-8.606,5.545-11.327c1.053,34.266,0.09,68.125,0.534,102.159
		c2.335-0.546,2.402-2.509,3.194-3.777c10.075-16.136,30.351-22.366,46.123-14.427c18.413,9.268,21.4,33.388,7.435,46.354
		c1.008,1.732,3.073,1.708,4.54,2.679c5.58,3.693,7.977,11.053,5.601,17.722c-1.759,4.938-6.253,7.601-11.913,7.058
		c-4.897-0.47-8.239-4.615-7.132-8.904c0.433-1.675,1.202-3.33,3.109-3.506c2.023-0.186,4.018,0.322,5.283,2.176
		c1.617,2.371-0.088,3.348-2.735,3.964c4.808,1.578,6.712-0.286,7.099-4.006c0.501-4.822-3.134-8.732-8.797-9.709
		c-9.518-1.643-18.63,4.524-21.391,14.666c-2.248,8.259-1.488,16.569,0.413,24.746c2.202,9.469,4.073,18.927,2.39,28.681
		c-0.89,5.159,5.478,6.099,6.062,5.847c3.682-1.588,8.47,0.18,11.329-3.68c4.011-5.416,9.992-6.126,16.077-6.517
		c1.787-0.115,2.736,0.807,3.303,2.41c0.547,1.547,0.549,2.881-0.74,4.102c-2.898,2.745-5.583,5.741-8.655,8.27
		c-4.588,3.776-9.313,2.545-11.399-3.036c-4.238,4.52-8.568,7.831-14.859,3.236c-2.115-1.545-3.458,1.289-4.302,2.952
		c-0.947,1.865-2.617,3.607,0.276,5.909c7.823,6.224,15.325,12.861,21.112,21.16c1.033,1.481,2.117,2.926,3.525,4.868
		c1.687-4.518,6.2-5.48,8.738-9.059c1.818-2.563,0.744-5.188,2.258-7.083c2.208-2.763,0.808-4.321-0.841-6.672
		c-5.108-7.285-2.304-15.757,5.877-19.333c2.405-1.051,4.281,0.231,6.159,0.995c1.972,0.802,0.645,2.655,0.332,3.964
		c-1.067,4.467-1.301,9.091-4.516,13.023c-1.628,1.991,0.568,5.137,0.39,7.919c-0.155,2.428-0.009,4.55-1.959,6.295
		c-0.736,0.658-1.539,1.477-1.167,2.563c0.445,1.296,1.688,0.813,2.576,0.732c13.249-1.201,26.229,0.893,39.283,2.745
		c9.191,1.304,18.339,0.659,26.273-5.278c7.626-5.706,12.135-16.842,9.993-25.122c-1.025-3.96-3.071-7.117-7.529-7.639
		c-3.025-0.354-5.303,0.817-5.671,4.151c-0.146,1.325-0.08,2.871,2.167,1.786c1.84-0.888,3.864-1.482,5.21,0.849
		c0.961,1.664,0.38,3.278-0.661,4.662c-1.504,1.999-3.619,2.241-5.857,1.578c-6.198-1.834-8.144-11.209-3.389-16.208
		c6.015-6.323,16.457-4.375,21.082,3.805c1.221,2.159,1.034,5.862,3.269,6.341c1.949,0.418,4.386-1.951,6.724-2.744
		c10.307-3.497,19.152-0.31,26.567,6.837c13.726,13.229,11.131,34.939-5.281,46.849c-1.166,0.846-2.731,1.231-3.627,3.193
		c3.289,0,6.35-0.026,9.411,0.004c52.831,0.514,105.661,0.642,158.486-0.521c27.671-0.609,55.328,0.572,82.993,0.493
		c10.826-0.031,21.672,0.07,32.416-1.646c5.999-0.958,10.794-3.845,13.059-9.619c5.521-14.07,15.416-22.618,30.56-24.673
		c-4.003-12.011-0.737-16.903,11.674-18.153c4.081-0.411,5.027-3.607,4.895-6.8c-0.173-4.173,1.206-6.929,5.375-7.534
		c3.491-0.506,5.997,2.71,6.006,7.432c0.008,4.289,1.415,6.626,6.267,7.023c9.962,0.815,13.622,6.038,11.183,15.507
		c-0.593,2.303,0.199,2.458,1.923,2.801c12.994,2.585,22.45,9.824,27.917,21.917c3.633,8.037,9.85,11.661,18.408,12.346
		c14.521,1.162,28.972-0.155,43.45-0.75c4.227-0.174,8.467-0.027,13.272-0.027c-2.141,3.366-5.301,3.988-8.274,4.253
		c-16.769,1.495-33.568,2.61-50.42,2.043c-9.269-0.312-16.105-4.68-20.557-12.859c-2.389-4.389-4.934-8.679-8.384-12.381
		c-5.482-5.883-12.28-7.762-19.997-6.638c-4.596,0.669-8.027,3.2-9.738,7.632c-1.726,4.471-0.575,8.644,2.216,12.208
		c2.224,2.841,5.492,3.595,8.306,1.021c2.247-2.056,2.739-4.763-0.644-7.061c-1.07,1.564,1.702,4.66-1.874,4.581
		c-2.812-0.062-3.418-2.344-3.603-4.589c-0.331-4.037,2.453-7.235,6.335-7.471c4.416-0.268,8.447,3.204,8.949,7.708
		c1.008,9.04-7.763,15.575-16.147,11.973c-2.068-0.888-4.008-2.072-6.493-3.374c2.193,4.384,5.414,6.466,10.581,6.326
		c6.362-0.173,12.668-0.142,18.857,1.453c2.4,0.619,3.757-0.576,5.075-2.213c1.219-1.514,2.661-2.597,4.745-1.682
		c1.895,0.832,2.529,2.438,2.785,4.39c2.009,15.319,2.024,15.294,17.306,15.354c12.5,0.049,24.999,0.144,37.498,0.267
		c1.622,0.016,3.331-0.396,5.529,0.954c-3.129,3.7-6.163,7.309-9.222,10.897c-1.274,1.494-3.056,1.09-4.679,1.091
		c-6.833,0.003-13.667-0.007-20.499-0.114c-2.368-0.037-4.41-0.078-3.978,3.268c0.359,2.785-1.427,3.336-3.727,3.323
		c-12.666-0.07-25.332-0.131-37.998-0.144c-3.207-0.003-4.844-1.645-5.578-4.616c-0.476-1.927-1.036-3.863-1.839-5.67
		c-0.622-1.4-1.779-2.153-2.948-0.373c-0.91,1.386-1.584,3.286-3.744,1.996c-2.554-1.524-3.113-4.135-3.359-6.886
		c-0.172-1.92,0.48-3.112,2.313-3.875c5.163-2.152,10.388-2.076,15.679-0.678c1.561,0.413,3.093,0.937,5.335,1.623
		c-1.678-2.803-3.7-3.717-5.952-4.254c-7.164-1.709-14.21-1.029-21.232,0.941c-2.627,0.737-3.561,2.234-2.91,4.782
		c0.865,3.387,1.841,6.746,2.677,10.14c0.576,2.342,2.32,2.987,4.364,3.5c4.398,1.103,7.274,3.656,6.472,8.538
		c-0.779,4.741-4.304,6.768-8.705,6.467c-2.691-0.184-3.042,0.613-3.069,2.86c-0.023,1.955-0.802,3.909-0.768,5.856
		c0.073,4.141-2.946,5.288-5.855,5.357c-3.094,0.073-5.845-1.489-5.616-5.497c0.056-0.973-0.25-1.969-0.178-2.938
		c0.278-3.759,0.001-6.119-5.193-5.42c-3.502,0.471-5.774-2.676-6.431-6.431c-0.686-3.92,0.929-6.36,4.41-7.955
		c1.897-0.869,4.671-0.532,5.489-2.96c1.43-4.243,3.106-8.451,3.458-12.984c0.084-1.075-0.576-1.806-1.476-2.417
		c-6.357-4.313-22.508-2.951-28.478,2.454c-0.226,0.205-0.307,0.57-0.678,1.294c3.067-1.041,5.776-2.104,8.566-2.872
		c3.415-0.94,6.886-1.111,10.353-0.042c4.844,1.493,6.163,4.51,3.923,9.117c-1.601,3.292-3.685,3.645-5.913,0.776
		c-1.679-2.162-2.825-1.988-3.953,0.336c-0.145,0.299-0.346,0.614-0.357,0.927c-0.316,9.227-6.538,9.406-13.507,9.267
		c-10.326-0.206-20.663,0.148-30.996,0.199c-1.737,0.009-4.395,0.436-4.261-2.148c0.273-5.258-3.205-4.349-6.233-4.342
		c-48,0.118-95.999,0.309-143.999,0.36c-29.833,0.032-59.666-0.108-89.499-0.269c-3.166-0.017-5.778,0.512-8.087,2.909
		c-2.301,2.388-5.021,4.369-7.525,6.565c-2.831,2.482-6.083,4.422-9.797,4.601c-10.133,0.489-20.304,1.1-30.424,0.714
		c-9.645-0.368-18.751-3.874-26.652-9.236c-12.75-8.654-24.48-5.869-36.276,1.537c-6.633,4.164-13.207,8.423-20.94,10.407
		c-12.576,3.226-24.093,1.469-34.326-6.925C242.337,872.486,241.388,870.823,239.39,871.174z M239.037,668.98
		c0.139,0.954,0.492,1.937,0.367,2.854c-0.181,1.331-0.83,2.693,1.108,3.18c1.03,0.258,2.036,0.061,2.507-1.032
		c0.57-1.321,0.382-2.69-0.532-3.739c-0.882-1.013-2.063-1.695-3.544-1.161c-4.396-1.397-9.589,0.267-12.718,4.075
		c-3.559,4.332-2.78,10.037,2.091,12.887c5.374,3.145,11.263,3.362,16.801,0.773c5.669-2.651,8.795-7.477,9.082-13.901
		c0.627-13.987-11.877-24.89-25.969-22.646c-13.642,2.172-24.049,12.935-26.347,27.14c-1.91,11.807,0.861,22.831,5.486,33.546
		c3.358,7.78,7.276,15.281,8.976,23.758c2.84,14.16,5.63,28.205-1.102,42.058c-0.676,1.391-0.276,2.294,1.08,2.703
		c1.962,0.592,2.19-1.092,2.525-2.279c2.87-10.175,4.983-20.344,1.965-30.976c-1.585-5.586-2.753-11.355-3.423-17.122
		c-1.596-13.734,0.185-26.399,12.998-34.859c0.155-0.102,0.072-0.564,0.1-0.853c-8.575-3.775-11.497-8.381-10.492-16.517
		c0.781-6.327,6.586-11.421,14.462-12.427c4.8-0.613,9.012,0.807,11.752,4.974c1.84,2.798,1.45,5.748-0.83,8.276
		c-2.113,2.343-4.749,3.059-7.707,1.923c-2.865-1.101-4.011-3.384-3.738-6.363C234.216,670.185,236.129,668.961,239.037,668.98z
		 M340.418,862.909c6.074,3.329,12.441,5.484,19.056,6.821c5.087,1.028,10.251,0.84,15.409,0.447
		c3.187-0.243,2.735-2.795,3.194-4.779c0.384-1.66-0.248-2.499-2.022-2.497C364.176,862.916,352.297,862.909,340.418,862.909z
		 M164.72,721.829c0-6.088-0.369-12.205,0.114-18.254c0.402-5.031-1.215-7.526-6.188-8.677c-4.996-1.156-5.387-1.112-4.658,4.094
		C155.196,707.61,160.175,714.553,164.72,721.829z M304.571,862.978c-11.282,0-22.563-0.007-33.845,0.013
		c-0.93,0.002-1.918-0.17-2.141,1.343c-0.347,2.361-2.436,2.889-4.321,3.441c-1.725,0.505-3.202,1.205-4.254,3.483
		C276.118,873.76,289.52,863.548,304.571,862.978z M221.026,818.517c-6.372,6.086-7.622,10.571-3.861,14.225
		c3.233,3.14,10.233,2.147,13.369-1.694C225.827,827.986,224.791,822.19,221.026,818.517z M213.436,802.544
		c-2.904-1.984-5.618-1.929-8.346-0.753c-3.578,1.543-5.07,4.596-5.491,8.239c-0.275,2.377,1.303,3.659,3.261,4.426
		c3.406,1.335,6.829,1.527,9.868-0.863c0.947-0.745,3.013-2.197,0.248-3.115c-1.901-0.631-3.988-0.406-4.054-3.248
		C208.855,804.364,211.533,804.194,213.436,802.544z M164.412,669.319c-0.452-0.03-0.905-0.061-1.357-0.091
		c-2.556,4.465-5.302,8.855-6.85,13.805c-1.499,4.789,2.778,4.839,5.402,6.051c1.765,0.815,2.83,0.101,2.818-2.003
		C164.389,681.161,164.412,675.24,164.412,669.319z M731.426,802.126c3.953-3.719,6.958-6.485,9.888-9.329
		c1.311-1.272,2.64-2.668,1.914-4.761c-0.657-1.897-2.317-2.128-4.036-2.293c-2.197-0.211-4.143,0.306-4.913,2.481
		C732.855,792.248,731.525,796.332,731.426,802.126z M723.232,802.687c0.299-6.685-1.297-11.515-3.796-15.825
		c-1.705-2.94-4.909-1.564-7.012-0.015c-2.395,1.764-1.101,3.84,0.655,5.401C716.365,795.169,719.61,798.133,723.232,802.687z
		 M401.887,862.81c-5.121,0-8.906,0.057-12.688-0.015c-4.149-0.079-3.857,3.263-3.872,5.614c-0.017,2.72,2.538,2.801,4.526,2.379
		C394.35,869.835,397.884,867.243,401.887,862.81z M149.594,857.827c6.749,1.29,9.985,0.903,14.217-1.706
		C158.845,854.656,153.805,852.415,149.594,857.827z M728.376,860.474c-1.501,5.277-3.002,9.485,0.474,14.659
		C730.807,869.837,730.147,865.677,728.376,860.474z M727.282,789.375c1.814-6.649,1.637-9.645-0.639-12.381
		C725.086,781.128,725.604,785.037,727.282,789.375z"/>
	<path fill="FRAME_COLOR" d="M1310.473,518.484c3.18,0.496,4.709-1.669,6.978-1.729c0.901,1.783-0.397,3.194-1.185,4.428
		c-7.917,12.386-15.995,24.616-30.98,29.676c-10.209,3.447-15.571,10.624-16.816,21.384c-0.84,7.254-3.929,14.014-5.959,21.173
		c3.996-3.14,6.923-7.389,11.262-9.939c1.922-1.13,4.538-5.063,5.77,0.875c0.316,1.522,2.305,0.822,3.537,0.401
		c5.038-1.724,10.083-3.435,15.076-5.281c10.711-3.961,17.469-11.775,21.198-22.844c3.086,2.514,2.86,5.527,2.767,8.36
		c-0.286,8.734-2.648,17.068-4.977,25.425c-1.612,5.784-3.37,11.424-4.04,17.597c-1.032,9.509-7.046,17.073-14.669,23.58
		c4.394,2.03,7.977-0.675,12.43-1.177c-4.471,7.957-10.751,13.006-17.445,17.678c-1.09,0.761-4.258,0.75-1.155,3.496
		c1.504,1.331-1.094,2.355-2.146,3.018c-8.793,5.536-18.22,9.679-28.25,12.418c-5.469,1.494-10.872,3.19-16.046,5.519
		c-11.204,5.043-18.319,14.088-23.891,24.615c-0.623,1.177-1.147,2.42-1.888,3.517c-1.329,1.968-3.435,1.286-5.03,0.824
		c-1.949-0.565-0.593-2.198-0.334-3.354c4.682-20.908,4.696-41.941,1.685-63.049c-0.85-5.957-3.383-11.294-7.653-15.419
		c-7.961-7.69-12.686-16.968-15.111-27.623c-0.575-2.527-1.589-4.955-2.384-7.374c2.406-1.436,3.949,2.791,5.383,0.74
		c0.92-1.315,0.224-3.857,0.041-5.83c-0.53-5.703-0.077-11.311,1.336-16.85c0.677-2.656,1.646-4.473,4.121-1.083
		c6.659-18.726,6.659-18.726,5.519-37.39c2.199-0.465,3.436,1.097,4.542,2.438c5.823,7.059,11.646,14.124,17.221,21.378
		c1.581,2.058,2.335,4.754,3.452,7.165c0.346,0.748,0.639,2.186,0.954,2.186c7.55-0.019,3.857,6.152,5.213,9.471
		c0.48,1.174,0.366,2.591,0.514,3.823c1.805,0.985,1.855-1.921,3.731-1.124c1.008,7.116,1.257,14.431-1.056,21.507
		c-3.529,10.796-7.815,21.296-15.266,30.11c-3.977,4.705-5.729,9.867-5.248,16.101c0.961,12.473,0.24,24.979,0.179,37.472
		c-0.008,1.621-0.001,3.243,0.455,4.931c3.096-7.1,6.494-14.082,5.106-22.205c-3.583-20.96,4.599-38.138,17.495-53.701
		c0.934-1.128,1.95-5.099,4.911-1.463c0.639,0.785,1.226-0.686,1.595-1.303c9.927-16.628,15.247-33.937,8.547-53.307
		c-3.503-10.127-5.811-20.517-4.299-31.392c1.673-12.033,7.241-21.627,17.506-28.337c0.138-0.09,0.291-0.331,0.377-0.305
		c7.187,2.217,6.626-5.873,10.576-7.93c1.499-0.781,2.42-4.447,4.9-0.991c0.524,0.73,1.496-0.083,2.257-0.363
		c13.044-4.808,25.631-10.389,35.572-20.576c0.916-0.939,2.097-1.637,3.216-2.35c0.349-0.222,0.9-0.127,1.405-0.182
		c0.822,2.088-0.5,3.608-1.14,5.237c-2.677,6.818-5.535,13.567-8.086,20.431c-1.665,4.48-2.539,8.89-1.909,14.023
		c0.798,6.507-2.222,12.652-6.085,18.081C1313.062,514.764,1311.893,516.457,1310.473,518.484z M1230.101,677.233
		c5.191-7.202,10.657-14.224,15.503-21.652c6.134-9.402,14.841-15.01,25.085-18.782c2.549-0.939,5.398-1.269,8.631-3.713
		c-7.377,0.075-12.678,3.532-19.76,5.345c10.007-10.944,19.826-20.304,27.996-31.116c-10.513,9.741-20.604,19.868-30.74,29.95
		c-1.464,1.456-2.769,4.37-4.815,3.578c-1.958-0.758-1.097-3.858-1.362-5.923c-0.512-3.995,0.617-8.15-1.154-12.078
		c-0.612,2.403-1.394,4.94-0.89,7.188c2.535,11.305-2.986,19.676-9.309,28.025C1235.005,663.708,1231.397,669.85,1230.101,677.233z
		 M1267.303,556.885c0.542,0.082,1.084,0.164,1.626,0.246c1.501-4.322,3.249-8.577,4.449-12.981
		c1.971-7.231,5.946-12.415,13.158-15.067c2.705-0.995,5.149-2.702,7.711-4.084c-0.185-0.331-0.37-0.661-0.555-0.992
		c-4.704,2.047-9.408,4.094-14.922,6.493c4.436-11.279,8.418-21.403,12.4-31.528c-2.512,2.688-4.061,5.777-5.476,8.926
		c-3.539,7.881-7,15.797-10.544,23.676c-0.433,0.964-0.648,2.514-2.217,2.175c-1.148-0.248-1.058-1.574-1.276-2.482
		c-0.759-3.169-1.42-6.361-2.118-9.544C1270.566,533.525,1270.981,545.262,1267.303,556.885z M1221.018,600.786
		c1.434-12.281,1.647-24.105,0.139-35.96c-0.579,13.406-0.517,26.855-3.097,40.034c-0.491,0.075-0.982,0.15-1.473,0.225
		c-2.281-4.827-4.562-9.654-6.844-14.48c-0.44,0.181-0.88,0.363-1.32,0.544c6.772,10.625,8.135,22.75,9.98,34.814
		c1.458-10.04,0.199-20.482,8.593-29.495C1223.558,597.399,1223.459,599.772,1221.018,600.786z"/>
	<path fill="FRAME_COLOR" d="M211.888,478.896c-10.654,8.005-22.488,25.333-17.01,43.184c3.596,11.718,2.48,23.367-3.659,34.313
		c-1.639,2.921-2.938,3.275-4.528-0.449c-1.022,2.583-1.541,4.714-2.644,6.48c-1.515,2.425-2.076,6.448-6.643,5.004
		c-0.278-0.088-0.819,0.497-1.175,0.834c-4.584,4.355-10.377,6.533-16.027,8.997c-5.503,2.4-10.172,5.696-12.114,11.819
		c-0.365,1.151-0.563,3.072-2.31,2.681c-1.371-0.307-1.404-2.118-1.652-3.354c-1.643-8.203,0.387-16.244,1.183-24.34
		c0.352-3.575,2.133-6.89-0.129-10.816c-1.243-2.158,0.712-5.453,1.931-8.01c1.202-2.522,2.641-4.93,3.963-7.364
		c-1.827-1.733-3.614,0.542-5.406-0.342c-0.605-1.486,0.727-2.324,1.36-3.325c2.711-4.286,5.844-8.326,8.859-12.35
		c4.427-5.908,11.298-8.672,18.629-9.664c8.73-1.181,14.658-5.672,17.918-13.926c2.347-5.943,5.645-11.425,10.58-15.577
		c6.563-5.521,10.418-12.856,14.505-20.118c3.967-7.049,5.061-14.289,2.807-22.13c-1.512-5.257-2.854-10.541-6.087-15.192
		c0.796,4.202,1.443,8.439,2.417,12.6c2.154,9.195,0.902,17.847-3.668,26.074c-1.939,3.492-3.768,7.045-5.727,10.526
		c-0.544,0.966-1.435,2.84-2.293,2.236c-4.801-3.378-4.672,1.936-5.514,3.501c-3.295,6.126-7.732,10.794-14.072,13.638
		c-1.459,0.654-2.854,1.727-4.729,0.975c3.288-4.548,10.949-4.051,12.064-10.885c-6.647,6.239-15.489,7.521-23.373,10.772
		c-8.555,3.528-14.599,9.66-19.613,17.847c-2.037-3.588-0.884-6.503-0.174-9.147c2.591-9.645,5.22-19.299,8.415-28.754
		c1.216-3.597-0.229-7.735,2.596-10.852c-3.725-6.121,1.442-9.805,4.096-13.959c2.957-4.629,6.57-8.933,11-12.21
		c8.042-5.949,14.316-14.35,25.004-16.716c5.144-1.139,5.897-6.593,5.795-11.129c-0.134-5.97-2.046-11.692-3.724-18.308
		c-2.759,9.957-5.608,18.82-9.886,27.209c0.808-2.868,2.251-5.517,0.111-8.437c-0.312-0.426,0.13-1.625,0.51-2.305
		c5.521-9.868,6.374-20.664,5.638-31.545c-0.637-9.416,1.504-17.087,10.495-22.328c-0.716,4.553-1.647,8.79-2.01,13.075
		c-1.464,17.274,1.74,33.349,11.568,48.063c5.898,8.83,13.259,12.634,23.723,10.458c8.906-1.852,17.594-0.551,26.017,2.556
		c1.563,0.577,4.813,0.191,3.415,3.885c-0.364,0.961,1.371,1.173,2.184,1.604c4.274,2.264,7.851,5.358,11.459,8.795
		c-2.711,1.711-5.712-0.374-7.94,1.683c0.737,1.747,2.717,1.821,3.823,2.976c3.499,3.655,7.894,6.116,7.155,12.952
		c-0.841,7.778,10.422,17.902,18.334,18.268c1.187,0.055,3.06-0.967,3.425,0.818c0.339,1.659-1.427,2.509-2.764,3.129
		c-3.517,1.631-7.302,2.33-11.13,2.609c-10.721,0.782-21.32,0.197-31.606-3.277c-1.843-0.623-3.317-1.769-3.016,1.917
		c0.244,2.991-2.406,1.36-3.288,0.577c-5.716-5.076-13.558-6.274-19.277-11.953c-6.932-6.885-11.385-14.114-11.853-23.825
		c-0.356-7.387-1.71-14.551-5.19-21.187c-1.388-2.647-2.888-5.205-6.107-8.024c2.472,7.457,4.899,13.76,6.812,20.225
		c2.648,8.954,1.216,16.99-2.983,25.037c-6.731,12.9-4.289,22.77,7.359,31.228c2.022,1.468,4.014,2.987,6.103,4.354
		c10.762,7.04,14.66,18.462,19.393,29.609c-2.879,0.929-4.481-1.841-7.478-1.444c1.857,5.49,3.937,10.903,3.567,16.757
		c-0.204,3.218-0.474,6.127-4.607,2.792c-2.243,11.183-3.323,21.85,3.875,31.457c0.47,0.628,1.225,1.419,0.264,2.131
		c-0.432,0.32-1.237,0.296-1.832,0.192c-0.637-0.111-1.312-0.386-1.824-0.781c-9.854-7.603-20.597-14.304-28.021-24.51
		c-1.776-2.441-5.909-0.882-6.105-5.032c-0.138-2.928-0.489-7.366-2.295-8.386c-3.968-2.241-5.053-5.527-5.916-9.175
		c-2.491-10.524-1.38-20.67,4.807-29.688c4.839-7.053,6.081-14.615,5.08-22.819c-0.06-0.494-0.09-1.002-0.242-1.469
		C212.397,479.351,212.098,479.137,211.888,478.896z M228.159,429.382c2.846,2.958,5.073,5.379,7.418,7.68
		c2.37,2.325,4.83,4.56,7.299,6.78c2.556,2.299,4.04,5.169,5.057,8.418c0.914,2.918,1.249,6.142,3.85,8.363
		c-0.831-3.397-1.662-6.795-2.493-10.192c7.047,5.798,13.554,11.707,21.458,15.799c-5.182-4.879-10.643-9.408-16.131-13.904
		c-2.092-1.714-4.417-3.337,0.248-5.319C243.614,444.303,239.196,432.846,228.159,429.382z M195.959,444.435
		c-6.788,8.794-12.676,16.423-18.565,24.053c8.474-7.596,14.927-16.865,22.048-25.791c2.567,3.45,0.366,6.459,1.341,9.425
		c-0.502-11.696,8.765-20.894,7.907-33.851c-1.45,4.275-2.451,7.533-3.656,10.714c-2.873,7.582-6.681,14.156-15.964,15.092
		c-1.881,0.19-3.942,0.692-5.837,2.735C187.262,446.059,190.768,445.404,195.959,444.435z M188.552,512.375
		c-7.679,10.012-16.315,19.013-23.978,28.817c2.395-1.647,4.247-3.78,6.32-5.671c1.148-1.048,2.465-3.08,4.056-2.172
		c1.773,1.011,0.349,3.075-0.092,4.514c-1.623,5.288-3.476,10.505-5.242,15.749c0.405,0.158,0.81,0.317,1.216,0.475
		C175.516,539.648,180.354,525.276,188.552,512.375z M217.783,493.001c-0.469,0.084-0.938,0.169-1.407,0.253
		c5.169,17.866,2.029,37.3,11.08,54.438c-2.479-10.825-6.587-21.394-5.353-33.527c3.633,2.98,5.745,6.799,9.528,8.628
		c-3.181-4.517-7.109-8.495-8.947-13.746C220.837,503.775,219.4,498.357,217.783,493.001z"/>
	<path fill="FRAME_COLOR" d="M361.837,222.471c4.056-2.967,8.465-4.019,12.661-5.472c14.949-5.178,29.998-10.075,44.68-15.999
		c9.534-3.847,13.678-10.074,13.647-20.407c-0.014-4.66-0.204-9.331,0.044-13.978c0.36-6.764,3.32-12.563,7.889-17.389
		c1.501-1.585,2.919-5.232,6.472-2.425c0.26,0.206,1.623-0.851,2.386-1.435c4.295-3.289,9.107-5.433,14.306-6.883
		c2.956-0.824,5.408-1.585,3.146,3.78c5.562-2.889,10.427-3.659,15.945-3.149c6.56,0.606,12.608-2.562,18.343-5.746
		c1.453-0.807,2.87-1.729,4.411-2.317c1.774-0.677,2.539,0.118,2.006,1.972c-0.136,0.473-0.366,0.946-0.657,1.342
		c-7.595,10.364-11.871,22.832-20.118,32.703c-10.658,12.756-22.732,23.463-40.789,24.173c-5.316,0.209-10.316,2.298-14.803,6.385
		c1.71,0.918,3.121,0.378,4.44,0.18c4.938-0.741,9.855-2.127,14.799-2.213c8.823-0.154,16.469-3.237,22.716-8.962
		c12.628-11.574,28.81-16.412,43.614-23.812c7.309-3.653,14.192-7.307,18.272-14.768c0.577-1.055,1.345-2.965,2.778-2.294
		c1.884,0.881,0.59,2.699,0.024,3.909c-4.041,8.634-12.056,12.534-19.99,16.473c-2.35,1.166-4.82,2.091-7.961,3.438
		c6.062,2.271,11.07,1.992,15.918-0.932c4.42-2.666,8.67-5.699,13.32-7.876c7.942-3.718,16.117-5.957,24.847-1.847
		c2.124,1,4.905,0.553,7.362,0.921c0.94,0.141,2.223,0.44,2.658,1.113c2.81,4.353,12.129,12.678,16.731,14.618
		c2.488,1.049,5.102,1.668,7.8,1.347c2.591-0.308,5.152-0.871,8.18-1.402c-1.734,3.907-4.901,5.596-7.978,7.028
		c-9.014,4.196-17.808,8.758-27.448,11.773c-3.422,1.07-8.057-0.148-10.787,3.417c-0.177,0.232-0.976,0.124-1.43-0.012
		c-12.3-3.673-25.721-5.185-33.136-18.015c-1.809-3.131-5.048-4.465-8.795-4.994c-16.92-2.389-30.585,3.85-42.41,16.046
		c18.835-14.155,36.233-12.515,52.443,3.929c-1.082,1.697-3.145,0.187-4.293,2.029c4.548,2.948,7.316,7.249,9.252,12.407
		c1.385,3.691,3.907,6.969,6.949,9.67c4.455,3.956,9.583,5.002,16.121,2.526c-2.628,4.55-6.106,5.662-9.574,6.704
		c-9.929,2.984-20.08,2.798-30.239,1.811c-3.716-0.361-4.931,0.369-1.852,4.044c-6.903,0.058-11.996-2.997-17.384-6.676
		c-0.095,3.848-1.39,4.598-4.421,2.516c-9.31-6.396-18.046-13.069-21.16-24.863c-1.556-5.895-7.103-6.146-11.895-6.069
		c-10.529,0.17-20.956,1.642-30.963,5.011c-11.299,3.803-22.459,8.019-33.579,12.493c4.316,0.911,8.426,0.016,12.509-0.997
		c9.691-2.404,19.271-5.347,29.377-5.595c8.008-0.197,16.734,0.208,22.156,5.848c5.335,5.55,12.614,9.064,16.653,16.267
		c-2.499,1.459-5.076-1.023-7.931,0.178c3.459,3.857,7.992,7.147,9.257,12.036c1.758,6.795,2.969,13.691,5.523,20.312
		c2.22,5.756,3.396,11.854,3.162,18.11c-0.054,1.443,0.499,3.488-1.127,4.037c-1.852,0.626-2.222-1.62-2.934-2.753
		c-3.838-6.104-8.726-10.807-15.684-13.302c-3.378-1.211-6.516-0.437-9.832-0.398c-5.454,0.064-10.632-2.451-14.951-6.156
		c-1.242-1.065-2.123-2.603-4.158-3.117c-0.575,3.021,2.021,5.518,1.463,8.756c-1.134-0.468-1.983-1.034-2.892-1.159
		c-5.163-0.707-5.09-7.474-11.067-8.544c-4.378-0.784-7.188-6.95-9.891-11.352c-2.736-4.456-3.902-9.516-5.242-14.508
		c-2.999-11.171-11.159-15.456-24.214-12.662c-3.085,0.66-6.117,1.633-9.107,2.656C368.927,226.164,368.944,226.215,361.837,222.471
		z M460.376,252.883c-7.311-8.441-16.148-15.261-25.226-21.954c1.648-1.174,3.253,1.083,4.597-0.691
		c-11.288-3.037-21.24-10.274-34.394-10.285c12.108,7.06,28.627,6.44,31.965,23.885c0.953-3.838-2.68-6.203-2.102-10.161
		C444.469,239.366,451.902,246.727,460.376,252.883z M473.015,156.778c-8.419,4.478-16.197,9.929-23.4,17.342
		c-0.727-4.412,2.263-7.037,1.656-10.524c-2.771,9.252-7.68,17.244-13.792,24.753c7.257-7.619,15.301-13.509,26.089-14.691
		c-3.672-1.273-6.967,1.208-11.147,0.018C458.659,166.819,466.46,162.593,473.015,156.778z M494.648,195.357
		c-8.839,3.29-16.831-1.444-24.876,1.404c16.325,1.958,28.836,11.924,42.325,19.858c-5.72-5.407-12.247-9.579-18.821-13.692
		c-1.659-1.038-4.497-1.635-4.456-3.575C488.869,196.995,492.352,198.39,494.648,195.357z M557.102,171.981
		c-10.237,3.067-19.955,3.305-29.793,1.346c6.07,3.173,13.282,2.549,18.302,6.113C547.15,173.612,553.791,175.987,557.102,171.981z"
		/>
	<path fill="FRAME_COLOR" d="M881.473,806.941c2.969,5.915,0.077,11.677-6.169,12.732c-2.993,0.506-4.554-0.619-4.052-3.783
		c0.422-2.659,1.276-5.065,3.393-7.035c1.32-1.229,5.114-0.685,3.492-4.454c-0.253-0.588,1.329-0.496,2.086-0.656
		c8.597-1.811,16.498-0.062,22.667,6.113c9.233,9.244,21.018,14.586,31.548,21.831c5.102,3.511,10.537,4.57,16.604,3.051
		c12.777-3.199,25.671-5.751,38.828-6.9c3.96-0.346,7.756-1.744,11.452-3.727c-8.126-1.41-16.132-4.269-24.547-1.583
		c-3.489,1.114-7.009,2.192-10.375,3.615c-14.068,5.949-26.71,1.623-39.049-5.186c-3.303-7.171-13.037-4.858-16.828-11.515
		c1.832-1.793,4.949,0.499,6.599-1.911c-11.741-8.532-30.099-40.585-28.814-50.285c0.164-0.027,0.418-0.137,0.481-0.069
		c9.747,10.478,21.692,14.266,35.744,11.952c1.576-0.26,3.289,0.303,4.937,0.496c0.953,0.111,2.511,0.435,2.137-1.001
		c-1.666-6.385,2.8-2.848,4.39-2.523c5.72,1.17,10.521,4.517,15.622,8.017c0.271-3.48-2.512-5.292-2.313-9.09
		c12.507,6.796,24.882,12.734,30.626,26.567c1.402,3.377,2.501,6.887,3.623,10.374c4.14,12.867,11.583,18.048,25.002,17.07
		c6.126-0.446,12.194-1.451,18.814-3.214c-2.006,5.017-3.911,8.445-9.489,9.77c-8.844,2.102-17.946,3.54-26.13,8.146
		c-7.346,4.133-10.911,9.917-10.405,18.316c0.3,4.986,0.626,9.986,0.563,14.974c-0.075,5.94-1.021,12.776-5.012,16.379
		c-5.602,5.058-7.125,12.653-13.491,17.835c-0.253-3.084-0.46-5.591-0.666-8.102c-1.99-0.407-2.108,1.415-2.923,2.266
		c-5.391,5.626-10.475,10.707-19.32,11.786c-6.718,0.819-12.489,6.073-16.031,12.562c-1.659,3.038-3.11,6.19-5.374,9.205
		c-4.445-15.772-3.167-31.336,1.736-46.873c-2.446-0.857-3.094,2.451-5.511,2.023c-0.827-2.104,0.145-4.233,1.092-5.901
		c4.028-7.086,5.262-15.329,10.466-22.056c6.775-8.759,15.323-13.466,25.908-15.347c9.482-1.685,19.284-1.829,28.307-5.771
		c1.063-0.464,2.129-0.924,3.203-1.39c-0.486-1.903-1.873-1.22-2.833-1.066c-7.563,1.209-15.129,2.409-22.658,3.809
		c-7.037,1.308-14.04,2.487-21.222,3.044c-9.258,0.718-17.141,4.009-21.26,13.788c-4.064,9.647-10.712,17.149-21.799,19.385
		c-1.507,0.304-2.735,1.848-4.17,2.684c-3.571,2.08-7.267,3.851-11.768,4.424c0.056-3.047,2.885-4.351,3.108-7.344
		c-2.148,0.884-4.013,1.885-6.003,2.429c-6.636,1.815-13.194,3.273-19.751-0.794c-3.24-2.01-7.14-1.196-10.774-0.618
		c-5.614,0.894-11.231,1.596-16.896,0.56c-1.725-0.316-3.677-0.218-5.372-2.705c12.141-3.567,17.973-13.706,24.808-22.837
		c1.695-2.264,3.646-4.33,6.135-5.806c1.015-0.601,2.76-0.835,0.931-2.737c-1.391-1.446,0.627-1.938,1.426-2.377
		c16.182-8.891,32.763-13.807,50.871-5.476c5.254,2.417,10.459,5.287,16.53,5.282c2.667-0.002,6.226,0.223,7.141-2.171
		c0.803-2.101-2.662-3.337-4.501-4.496c-8.998-5.67-18.192-10.896-25.886-18.556C895.442,807.196,888.894,804.759,881.473,806.941z
		 M961.308,807.63c-6.898,0.678-11.922,2.741-16.836,5.203c7.493,0.07,14.216-5.346,21.905-2.815
		c7.022,2.312,13.935,4.957,20.896,7.455c-4.085-4.674-9.517-6.844-14.769-9.221c-4.442-2.01-8.082-4.379-9.169-9.603
		c-0.396-1.904-1.296-3.903-3.485-5.673c0.135,4.27,3.683,7.026,2.757,11.337c-13.582-6.605-27.346-11.913-41.396-16.513
		C934.034,794.613,948.38,798.301,961.308,807.63z M978.171,841.214c-19.693,11.776-32.138,29.91-43.713,48.806
		c1.115-0.668,1.959-1.579,2.706-2.564c6.138-8.091,12.237-16.212,18.41-24.276c0.856-1.118,1.785-2.909,3.502-2.142
		c1.503,0.671,0.428,2.381,0.509,3.628c0.188,2.915-1.11,5.985,0.787,9.372c1.096-3.028,0.859-5.555,0.587-7.927
		c-0.584-5.092,1.063-8.769,5.007-12.164C970.401,850.129,974.133,845.494,978.171,841.214z M918.775,841.112
		c-19.583,4.521-39.578,7.973-57.766,17.451c12.057-2.192,22.866-8.883,35.71-9.321c-3.641,3.252-7.282,6.504-10.922,9.756
		C896.375,852.167,906.236,844.464,918.775,841.112z"/>
	<path fill="FRAME_COLOR" d="M352.526,213.596c-0.973-1.889-0.281-3.551,0.741-5.139c3.742-5.817,5.008-12.194,4.781-19.056
		c-0.266-8.037,1.831-15.596,6.373-22.206c1.511-2.199,1.25-6.66,6.638-5.629c1.657,0.317,4.204-4.241,6.409-6.504
		c2.274-2.334,4.519-4.078,4.934,1.518c0.947-0.602,1.509-0.928,2.037-1.3c4.016-2.828,7.794-4.583,13.389-4.551
		c8.996,0.051,17.209-3.828,21.52-12.9c0.415-0.873,0.894-1.717,1.668-3.195c1.888,2.501,1.936,4.94,1.952,7.295
		c0.061,9.306-3.36,17.896-5.303,26.806c-1.741,7.984-4.755,14.426-10.866,19.81c-0.914,0.805,0.03,3.724-2.164,5.705
		c-8.787,7.937-19.176,11.007-30.629,11.658c-7.897,0.449-15.135,2.861-21.499,7.665
		C352.51,213.579,352.526,213.596,352.526,213.596z M372.985,182.863c-0.139,9.048-6.826,14.199-11.727,20.541
		c9.414-6.445,16.425-17.277,30.475-13.996c-0.146-0.468-0.293-0.937-0.439-1.405c-3.953,0-7.906,0-12.561,0
		c3.038-3.236,5.473-5.831,7.908-8.425c-5.147,1.922-7.51,7.484-12.497,9.617C372.769,187.025,374.446,184.985,372.985,182.863z"/>
	<path fill="FRAME_COLOR" d="M143.706,405.252c-2.918,0-4.68,0-6.366,0c-0.115-0.39-0.253-0.604-0.195-0.702c7.199-12.13,16.303-21.778,31.208-23.802
		c7.617-1.034,14.939-2.508,18.174-10.895c0.317-0.821,1.109-2.104,2.191-1.083c1.006,0.949,2.443,2.314,1.353,3.885
		c-4.937,7.11-3.228,14.862-1.678,22.244c3.261,15.534-3.752,26.713-14.224,36.724c-3.579,3.422-2.528-1.219-3.577-2.174
		c-4,4.728-7.716,9.097-13.947,11.647c-9.98,4.085-19.782,9.372-21.942,22.133c-3.698-5.723-3.928-11.638-3.212-17.579
		c0.635-5.28,1.571-10.551,2.8-15.725c1.078-4.541-1.39-9.307,1.728-13.817C138.347,412.742,140.427,409.149,143.706,405.252z
		 M149.508,427.289c0.299,0.284,0.599,0.567,0.898,0.851c6.954-9.3,13.908-18.601,21.304-28.492
		c1.157,5.229-1.076,9.273,0.234,13.555c-2.16-12.052,5.948-20.429,10.403-30.279c-7.022,8.144-12.249,18.207-24.741,19.4
		c3.646,0.305,6.647-1.534,10.576-1.189C161.795,410.08,155.651,418.685,149.508,427.289z"/>
	<path fill="FRAME_COLOR" d="M1035.395,888.681c-5.04,3.584-9.093,7.711-15.858,8.562c-8.232,1.035-15.587,5.56-22.654,10.048
		c-0.931,0.591-2.045,1.659-3.127,0.635c-1.112-1.052-0.058-2.318,0.559-3.101c7.37-9.354,7.701-21.442,12.452-31.801
		c0.256-0.558,0.831-1.509,0.032-1.716c-5.568-1.443-1.348-4.62-0.344-5.327c4.532-3.19,5.234-8.713,7.66-12.899
		c4.979-8.588,13.299-10.425,21.791-15.53c-1.329,4.527-1.91,7.57-2.068,10.702c-0.213,4.221,1.768,5.321,5.505,4.607
		c1.715-0.328,3.343-1.536,5.413-0.512c-1.983,3.355-5.032,5.353-8.397,6.705c-3.202,1.286-6.622,2.03-9.839,3.432
		c5.751-0.667,11.762-0.2,17.332-4.741c-1.243,5.063-2.319,9.444-3.597,14.649c2.099-1.53,1.929-3.27,2.377-4.627
		c0.832-2.518,1.321-5.151,2.198-7.651c3.118-8.883,9.675-12.926,18.977-11.962c1.536,0.159,2.081,0.579,1.625,2.142
		c-2.858,9.79-3.337,20.774-12.583,27.494c-5.203,3.782-8.981,8.979-13.99,12.894c-0.763,0.596-1.443,1.671-2.538,1.261
		C1034.783,891.371,1036.414,889.81,1035.395,888.681z M1037.227,863.179c-4.771,5.234-9.541,10.469-14.311,15.703
		C1028.679,874.571,1033.826,869.714,1037.227,863.179z"/>
	<path fill="FRAME_COLOR" d="M1259.241,798.256c1.222,0.813,1.988,1.151,2.521,1.712c1.278,1.344,3.992,2.84,2.484,4.596
		c-1.527,1.778-2.93-1.122-4.374-1.959c-4.621-2.679-9.471-3.84-14.02-0.429c-4.516,3.387-9.263,4.105-14.574,3.094
		c-4.063-0.773-8.423,0.813-12.938-1.125c16.73-7.835,32.749-15.469,50.692-18.815c-2.283,4.619-7.278,5.895-11.338,9.418
		c6.065,0,11.424-0.077,16.78,0.025c4.157,0.079,9.087,5.143,9.327,9.316c0.168,2.925-0.951,4.191-3.856,2.964
		c-2.349-0.992-4.935-2.419-5.175-4.987c-0.469-5.021-3.607-4.978-7.221-4.769C1265.082,797.44,1262.574,797.112,1259.241,798.256z"
		/>
	<path fill="FRAME_COLOR" d="M986.861,859.623c0.064-11.043,6.924-17.898,15.015-22.377c8.945-4.952,19.232-7.323,29.629-8.109
		c1.486-0.112,3.789-0.82,4.163,1.416c0.281,1.678-1.795,2.158-3.106,2.762c-3.807,1.753-7.88,2.802-11.976,3.364
		c-6.534,0.897-10.844,4.529-14.117,9.926c-1.983,3.27-4.121,6.451-6.291,9.602c-2.12,3.078-4.85,5.453-8.447,6.714
		C988.278,864.132,985.654,864.268,986.861,859.623z"/>
	<path fill="FRAME_COLOR" d="M1208.411,793.161c3.863-0.938,7.585-1.633,11.174-2.752c9.658-3.011,17.765-8.985,26.273-14.16
		c11.307-6.878,22.128-8.413,34.769-4.427c-5.65,6.609-13,9.939-20.823,8.395c-10.413-2.055-17.97,1.727-25.382,7.928
		c-4.618,3.864-10.058,6.34-15.707,8.516C1214.148,798.42,1211.142,797.256,1208.411,793.161z"/>
	<path fill="FRAME_COLOR" d="M192.872,769.546c-0.004-0.168-0.091-0.402-0.013-0.49c5.288-5.961-0.723-10.617-1.849-15.817
		c-2.21-10.199-1.056-20.534-1.402-30.807c-0.074-2.189,1.42-2.236,3.025-2.246c2.193-0.015,2.849,1.236,2.9,3.169
		c0.134,5.149,0.021,10.326,0.53,15.44c0.856,8.599,4.332,16.577,6.461,24.88c0.04,0.157,0.191,0.288,0.219,0.445
		c0.49,2.742,5.586,3.214,3.801,6.743c-1.203,2.378-4.58,2.73-6.356,5.147c-1.619,2.205-3.937,1.057-5.434-0.859
		C193.498,773.544,193.154,771.532,192.872,769.546z"/>
	<path fill="FRAME_COLOR" d="M633.848,196.367c-16.838,0-29.814,0.023-42.79-0.034c-1.366-0.006-3.593,0.638-3.813-1.234
		c-0.276-2.353,2.162-1.941,3.652-2.187c7.062-1.162,14.152-1.959,21.336-1.948c17.799,0.026,35.597-0.083,53.396-0.085
		c1.976,0,4.02-0.014,5.857,0.953c1.368,0.72,1.718,2.059,1.591,3.406c-0.163,1.714-1.536,1.327-2.682,1.243
		C656.929,195.488,643.454,196.656,633.848,196.367z"/>
	<path fill="FRAME_COLOR" d="M1165.797,288.367c-2.259,7.653-4.546,15.337-9.667,21.686c-3.015,3.736-4.286,3.375-5.993-0.998
		c-0.715-1.832-1.348-4.175-2.787-5.156c-4.404-3.001-2.895-6.215-0.837-9.426c2.922-4.559,7.205-7.741,11.569-10.836
		c2.501-1.773,3.972,0.463,5.84,1.141C1165.564,285.375,1166.201,286.615,1165.797,288.367z"/>
	<path fill="FRAME_COLOR" d="M1137.515,288.795c-1.731-0.393-3.535-0.681-5.259-1.224c-2.262-0.713-3.578-1.842-1.248-4.1
		c0.566-0.548,0.883-1.397,1.196-2.156c3.609-8.769,4.782-9.526,14.514-9.501c2.85,0.007,5.619,0.43,8.339,1.25
		c1.792,0.54,3.392,1.055,3.407,3.537c0.014,2.202,0.344,4.08-2.217,5.364C1150.287,284.951,1144.243,287.585,1137.515,288.795z"/>
	<path fill="FRAME_COLOR" d="M1167.242,296.71c0.224-2.756,0.482-4.902,0.549-7.055c0.069-2.206,0.651-3.805,3.133-4.318
		c2.432-0.502,4.439-0.627,5.998,1.911c4.422,7.199,8.135,14.509,5.96,23.38c-0.313,1.275-0.37,3.303-2.15,1.788
		c-2.146-1.827-4.417-1.824-6.898-2.052c-3.127-0.287-5.225-2.203-5.745-5.339C1167.603,302.091,1167.473,299.097,1167.242,296.71z"
		/>
	<path fill="FRAME_COLOR" d="M296.832,735.685c-0.123,4.812-8.251,15.094-12.855,16.265c-2.799,0.712-6.628-2.252-6.234-5.037
		c0.938-6.626,2.773-13.035,6.07-18.875c2.576-4.563,4.449-4.475,6.786-0.016c0.843,1.609,2.317,2.3,3.729,3.16
		C296,732.2,297.075,733.584,296.832,735.685z"/>
	<path fill="FRAME_COLOR" d="M1162.214,266.157c-2.134,1.433-2.079,5.8-5.905,4.768c-7.074-1.906-13.846-4.703-19.551-9.473
		c-2.334-1.952-3.651-4.16,0.765-5.389c0.611-0.17,1.145-0.659,1.683-1.044c7.475-5.351,10.249-5.086,16.503,2.059
		C1158.074,259.781,1160.858,262.26,1162.214,266.157z"/>
	<path fill="FRAME_COLOR" d="M296.78,761.987c-0.829-0.038-1.683,0.04-2.483-0.135c-3.244-0.708-7.214-0.07-8.151-4.873
		c-0.955-4.894,3.262-5.229,5.868-6.668c3.168-1.75,6.629-3.063,10.092-4.156c3.42-1.08,8.487-1.452,9.455,1.611
		c0.946,2.994-0.458,7.749-3.695,10.514C304.711,760.975,300.93,762.104,296.78,761.987z"/>
	<path fill="FRAME_COLOR" d="M1277.866,670.783c-0.47,0.497-1.118,1.213-1.797,1.899c-4.769,4.811-10.704,7.784-17.266,8.182
		c-10.869,0.661-16.422,7.542-21.076,15.98c-1.042,1.888-1.991,3.833-3.133,5.658c-0.458,0.733-1.455,0.864-2.268,0.511
		c-1.093-0.475-0.629-1.427-0.325-2.11c1.147-2.584,2.031-5.384,3.657-7.638c9.619-13.334,20.663-24.526,38.858-24.091
		C1277.354,669.24,1277.762,669.383,1277.866,670.783z"/>
	<path fill="FRAME_COLOR" d="M301.134,781.794c-3.413-0.502-6.295-2.147-8.755-4.427c-2.549-2.363-4.834-5.009-7.318-7.446
		c-1.722-1.689-0.926-3.265-0.102-4.961c0.889-1.831,2.284-2.184,4.128-1.741c6.464,1.552,12.913,3.193,18.804,6.365
		c2.684,1.445,5.255,3.245,0.549,5.701c-1.309,0.683-2.039,2.121-2.546,3.581C305.117,781.107,303.209,781.588,301.134,781.794z"/>
	<path fill="FRAME_COLOR" d="M1194.027,295.964c-6.285-2.054-11.613-6.717-16.146-12.252c-1.54-1.881,1.332-5.95,3.878-5.627
		c6.067,0.77,12.178,1.56,17.723,4.41c4.754,2.444,5.031,4.191,1.521,8.068C1196.032,296.056,1196.032,296.056,1194.027,295.964z"/>
	<path fill="FRAME_COLOR" d="M275.061,745.749c0.365,2.298,0.157,4.003-2.412,5.25c-2.557,1.241-4.111,0.376-5.652-1.291
		c-4.966-5.373-10.562-10.486-8.99-18.95c0.358-1.931,0.431-4.011,3.668-2.789c2.914,1.099,6.63-1.303,9.219,2.136
		C274.431,734.803,274.454,740.342,275.061,745.749z"/>
	<path fill="FRAME_COLOR" d="M1170.985,252.651c0.154,3.22-0.651,6.616-1.571,9.978c-0.697,2.547-3.098,3.435-4.433,1.64
		c-4.597-6.176-10.028-12.098-9.976-20.584c0.018-2.896,0.774-4.651,4.107-2.971c0.408,0.206,0.979,0.091,1.474,0.122
		C1169.591,241.402,1171.023,242.986,1170.985,252.651z"/>
	<path fill="FRAME_COLOR" d="M292.988,788.664c0.217,2.68-1.233,3.84-4.402,4.105c-8.784,0.735-11.343-1.244-11.806-10.137
		c-0.164-3.148,0.01-6.327,0.215-9.479c0.205-3.135,2.578-3.342,4.726-2.627C285.097,771.649,293.082,784.554,292.988,788.664z"/>
	<path fill="FRAME_COLOR" d="M260.398,759.689c-5.224-0.023-8.965-0.749-12.636-1.754c-2.789-0.764-6.556-2.657-5.564-5.174
		c1.125-2.854,2.261-7.12,6.782-7.71c3.473-0.453,16.439,5.288,18.135,8.21c1.032,1.777-0.899,5.803-3.157,6.227
		C262.351,759.789,260.665,759.677,260.398,759.689z"/>
	<path fill="FRAME_COLOR" d="M1243.523,731.676c-1.369,8.86-2.914,17.064-10.389,22.749c-2.616,1.99-4.553,1.303-6.663-0.188
		c-2.639-1.865,0.255-3.057,0.783-4.424c1.188-3.077,2.87-5.965,4.023-9.053c1.703-4.559,4.707-7.92,8.768-10.41
		c0.898-0.551,1.803-1.97,2.959-1.003C1243.568,729.818,1243.422,731.138,1243.523,731.676z"/>
	<path fill="FRAME_COLOR" d="M1176.862,275.351c-0.066,4.143-3.993,7.901-8.188,7.835c-4.367-0.069-7.663-3.693-7.499-8.246
		c0.166-4.627,3.235-7.676,7.576-7.526C1173.087,267.563,1176.926,271.32,1176.862,275.351z"/>
	<path fill="FRAME_COLOR" d="M841.288,844.256c-1.187,2.726-2.898,2.835-4.559,2.815c-14.626-0.171-29.252-0.369-43.877-0.608
		c-1.313-0.022-2.652-0.281-3.918-0.642c-0.967-0.276-1.846-1.03-1.703-2.143c0.128-1.004,1.145-1.062,1.978-1.037
		C806.425,843.167,823.642,843.706,841.288,844.256z"/>
	<path fill="FRAME_COLOR" d="M276.135,752.869c4.52-0.038,7.676,3.229,7.659,7.928c-0.016,4.285-3.092,7.254-7.65,7.381
		c-4.187,0.117-7.391-3.222-7.332-7.642C268.873,755.905,271.738,752.906,276.135,752.869z"/>
	<path fill="FRAME_COLOR" d="M1279.507,793.007c-3.285,0.029-4.637-2.409-3.014-5.436c1.84-3.434,8.347-6.644,12.404-6.302
		c2.572,0.217,2.399,1.743,2.004,3.511C1289.939,789.08,1284.558,792.962,1279.507,793.007z"/>
	<path fill="FRAME_COLOR" d="M1291.995,802.062c-4.58,0.479-7.431-2.105-9.829-5.48c-0.762-1.073-0.338-1.829,0.748-2.314
		c3.813-1.704,7.624-2.195,11.26,0.377c1.975,1.397,4.929,2.897,4.011,5.528C1297.421,802.368,1294.235,801.891,1291.995,802.062z"
		/>
	<path fill="FRAME_COLOR" d="M866.427,798.051c3.681,0.077,10.128,4.066,9.201,5.196c-2.29,2.791-5.877,3.291-9.329,2.797
		c-2.989-0.428-5.867-2.439-5.619-5.326C860.923,797.893,864.475,798.385,866.427,798.051z"/>
	<path fill="FRAME_COLOR" d="M874.698,793.451c0.42-1.55-0.464-4.158,2.399-4.485c2.478-0.283,7.454,5.551,7.172,8.565
		c-0.169,1.8,0.717,4.743-2.891,4.615C877.729,802.017,874.641,798.133,874.698,793.451z"/>
	<path fill="FRAME_COLOR" d="M539.285,140.863c-4.515,0.4-4.508-3.354-4.898-5.989c-0.487-3.285,1.11-6.16,4.04-7.961
		c1.484-0.912,2.01,0.41,2.471,1.482c1.532,3.563,0.98,7.126-0.046,10.684C540.329,139.674,539.807,140.269,539.285,140.863z"/>
	<path fill="FRAME_COLOR" d="M539.285,140.863c0.522-0.595,1.044-1.19,1.566-1.784c0.854-0.498,1.657-1.145,2.574-1.462
		c1.951-0.674,3.99-2.412,6.001-0.821c1.166,0.922,0.046,2.507-0.494,3.653c-1.41,2.992-3.881,4.535-7.167,4.398
		C539.24,144.742,539.115,142.818,539.285,140.863z"/>
	<path fill="FRAME_COLOR" d="M534.399,142.927c-0.358,1.625,0.416,4.416-2.374,3.894c-3.587-0.672-4.801-3.757-4.728-7.147
		c0.036-1.649-0.315-4.663,1.972-4.249C532.878,136.077,534.121,139.419,534.399,142.927z"/>
	<path fill="FRAME_COLOR" d="M1256.393,159.802c-0.186,1.865-0.892,3.388-2.938,3.307c-2.326-0.091-3.49-1.703-3.666-3.901
		c-0.143-1.792,1.137-2.946,2.656-2.973C1254.624,156.197,1256.052,157.563,1256.393,159.802z"/>
	<path fill="FRAME_COLOR" d="M197.472,872.52c0.08,1.833-1.242,2.922-2.981,2.918c-2.08-0.005-3.115-1.694-3.374-3.597
		c-0.256-1.878,1.029-2.624,2.693-2.713C195.985,869.012,197.131,870.189,197.472,872.52z"/>
	<path fill="FRAME_COLOR" d="M1145.581,748.124c0.296-3.31,2.859-4.924,5.187-6.55c2.329-1.626,3.173-0.372,2.971,2.05
		C1151.628,746.228,1148.269,746.569,1145.581,748.124z"/>
	<path fill="FRAME_COLOR" d="M256.744,224.482c-1.313,2.583-3.601,1.353-5.014,0.7c-2.023-0.934-0.548-2.859-0.123-4.325
		c0.411-1.413,1.004-2.774,1.517-4.157C259.695,216.799,256.066,221.642,256.744,224.482z"/>
	<path fill="FRAME_COLOR" d="M273.867,242.295c4.222-0.922,6.662-4.791,10.532-6.344c2.366-0.95,3.904-1.115,3.551,2.152c0,0,0.152-0.191,0.152-0.191
		c-4.644,2.572-10.383,2.956-14.229,7.123c-0.571-0.048-1.599,0.014-1.642-0.162C271.91,243.54,273.461,243.267,273.867,242.295z"/>
	<path fill="FRAME_COLOR" d="M204.56,234.217c0.598,2.21,2.686,2.641,4.331,3.553c2.429,1.347,3.816,3.007,2.269,5.853
		c-1.521-2.193-4.153-2.604-6.23-3.903C202.28,238.064,201.176,236.287,204.56,234.217z"/>
	<path fill="FRAME_COLOR" d="M221.267,217.634c3.812-0.811,7.187,2.101,6.7,5.786c-0.085,0.64-0.121,0.942-1.112,1.022
		c-1.712,0.138-3.151,0.264-3.882-0.516C222.404,221.828,221.836,219.731,221.267,217.634z"/>
	<path fill="FRAME_COLOR" d="M264.786,296.504c-0.562-1.224-1.98-2.712-0.204-3.662c1.206-0.645,1.776,1.138,2.173,2.064
		c0.855,1.996,2.494,2.84,4.336,3.521c-0.732,1.446-1.464,3.278-3.415,2.759C265.515,300.613,265.358,298.323,264.786,296.504z"/>
	<path fill="FRAME_COLOR" d="M1118.286,771.302c-0.615,1.503,0.884,4.073-2.073,4.243c-1.06,0.061-1.986-0.715-1.983-1.817
		c0.006-1.915,0.474-3.574,2.968-3.69c1.978-0.092,1.84-1.88,2.324-3.227c0.623-1.73,2.133-2.655,3.886-2.544
		c1.913,0.121,1.509,1.803,1.497,3.077c-0.016,1.653,1.919,3.101-0.601,5.02C1121.437,774.548,1120.602,771.211,1118.286,771.302z"
		/>
	<path fill="FRAME_COLOR" d="M1115.469,767.229c-1.515-0.497-2.512-1.521-2.395-3.238c0.089-1.309,0.867-2.277,2.284-1.936
		c1.73,0.417,2.159,2.027,2.231,3.502C1117.642,766.655,1116.709,767.255,1115.469,767.229z"/>
	<path fill="FRAME_COLOR" d="M1123.341,740.365c-0.76-4.055,0.687-7.438,3.313-10.384c1.153-1.293,2.454-1.438,2.561,0.721
		c0.106,2.127-0.142,4.285-0.392,6.411c-0.105,0.896-1.332,1.667-1.784,1.232c-3.256-3.136-2.789,0.825-3.803,1.907
		C1123.245,740.263,1123.341,740.365,1123.341,740.365z"/>
	<path fill="FRAME_COLOR" d="M1118.422,802.673c1.718-1.01,3.617-2.867,3.781,1.245c0.05,1.245,0.925,2.438,1.278,3.696
		c0.307,1.093,0.793,2.548-0.538,3.118c-1.861,0.797-2.182-1.046-2.604-2.179c-0.73-1.958-1.229-4.002-1.84-5.994
		C1118.484,802.575,1118.422,802.673,1118.422,802.673z"/>
	<path fill="FRAME_COLOR" d="M243.52,250.848c2.28,0.709,4.339,1.943,4.536,4.865c0.133,1.963-0.96,3.32-2.924,3.189c-3.3-0.221-3.16-3.429-4.048-5.527
		C240.483,251.956,241.634,250.941,243.52,250.848z"/>
	<path fill="FRAME_COLOR" d="M244.435,268.566c-1.62-0.368-3.639-0.951-3.501-2.808c0.162-2.182,2.047-3.812,4.158-4.23
		c1.828-0.362,3.201,0.871,2.981,2.949C247.848,266.596,246.856,268.235,244.435,268.566z"/>
	<path fill="FRAME_COLOR" d="M256.187,258.12c-0.181,2.174-1.229,3.718-3.317,3.81c-1.894,0.083-2.968-1.409-3.259-3.189
		c-0.364-2.228,1.016-2.925,2.969-2.937C254.325,255.793,255.988,255.896,256.187,258.12z"/>
	<path fill="FRAME_COLOR" d="M239.282,258.319c-0.406,1.923-0.3,4.399-3.097,4.823c-1.84,0.279-2.791-1.121-2.823-2.705
		c-0.049-2.444,1.586-3.978,3.746-4.632C239,255.232,239.185,256.797,239.282,258.319z"/>
	<path fill="FRAME_COLOR" d="M198.847,247.174c3.278-1.065,5.956,0.04,8.247,2.515c-2.947-0.063-6.485,1.831-8.105-2.665
		C198.986,247.027,198.847,247.174,198.847,247.174z"/>
	<path fill="FRAME_COLOR" d="M207.559,269.59c-2.333,0.735-4.649,1.53-7.006,2.177c-0.956,0.262-2.087,0.173-2.364-1.065
		c-0.218-0.974,0.659-1.587,1.415-1.625c2.614-0.13,5.498-3.098,7.817,0.612C207.441,269.675,207.559,269.59,207.559,269.59z"/>
	<path fill="FRAME_COLOR" d="M295.116,262.964c-3.467,0.088-6.974,0.539-10.608-1.243c2.319-2.992,5.477-2.546,8.397-2.353
		c2.273,0.15,2.241,2.024,2.04,3.768C294.944,263.137,295.116,262.964,295.116,262.964z"/>
</g>
</svg>
