<?xml version="1.0" encoding="iso-8859-1"?>
<!-- Generator: Adobe Illustrator 25.0.0, SVG Export Plug-In . SVG Version: 6.00 Build 0)  -->
<svg version="1.1" id="Layer_1" xmlns="http://www.w3.org/2000/svg" xmlns:xlink="http://www.w3.org/1999/xlink" x="0px" y="0px"
	 viewBox="0 0 1413.433 1032" style="enable-background:new 0 0 1413.433 1032;" xml:space="preserve">
<g id="_x28_25_x29__1_">
	<path fill="FRAME_COLOR" d="M1106.922,100c2.909,5.007,7.916,7.938,11.832,11.948c1.866,1.911,1.614,7.403-0.748,9.278
		c-2.264,1.798-4.239-0.191-5.582-1.558c-7.662-7.802-17.494-9.305-27.603-9.414c-15.418-0.166-29.885,4.371-44.043,10.009
		c-2.758,1.098-5.47,2.315-8.876,3.763c3.59,1.695,6.956,0.143,10.337,1.228c-2.156,3.914-5.007,6.24-9.403,6.374
		c-1.499,0.046-3.057,0.354-4.488,0.059c-10.239-2.11-16.775,3.785-22.318,10.816c-14.451,18.331-19.682,39.348-16.888,62.399
		c0.61,5.036,2.411,9.721,6.329,13.262c3.138,2.836,6.656,4.384,10.974,2.964c2.797-0.92,4.454-2.748,3.24-5.638
		c-1.471-3.503-2.859-0.925-4.253,0.361c-0.663,0.612-1.583,0.521-2.185-0.25c-0.952-1.218-0.692-2.497,0.024-3.721
		c2.381-4.07,9.22-3.892,12.43,0.315c4.16,5.452,2.303,14.107-3.917,17.822c-7.467,4.46-14.814,3.193-21.686-1.204
		c-8.712-5.574-11.944-14.413-13.183-24.158c-2.449-19.264,3.169-36.544,13.187-52.705c1.048-1.691,2.142-3.354,3.316-5.19
		c-6.381,2.672-18.001,14.653-21.292,22.824c-3.253,8.075-8.784,13.699-16.444,17.287c-10.487,4.911-17.406,12.599-19.876,24.058
		c-0.24,1.112-0.413,2.593-1.994,2.292c-1.549-0.295-1.169-1.847-1.15-2.922c0.121-6.662,0.056-13.342,0.551-19.98
		c0.934-12.52,9.905-19.899,18.366-27.45c3.575-3.191,7.552-5.933,11.088-9.422c-3.588,1.533-7.192,3.03-10.76,4.607
		c-17.798,7.863-36.384,13.033-55.654,15.405c-17.437,2.147-29.588,10.92-36.821,26.861c-1.01,2.225-1.475,6.19-4.636,5.634
		c-3.466-0.61-5.267-4.279-5.47-7.633c-0.463-7.662,1.169-14.893,6.483-20.848c0.873-0.979,1.931-1.794,2.718-3.085
		c-8.546,2.617-17.065,4.951-25.857,6.111c-5.146,0.679-10.287,1.119-15.364-0.384c-4.962-1.468-5.275-2.627-1.632-6.05
		c3.494-3.284,7.261-6.219,12.306-8.519c-3.439-0.835-6.016-0.208-8.594-0.013c-18.923,1.436-37.202-1.264-54.8-8.446
		c-8.319-3.395-15.434-8.526-21.587-14.996c-2.098-2.207-4.398-3.085-7.466-3.165c-19.329-0.508-38.651-0.57-57.975,0.137
		c-2.208,0.081-4.179,0.261-5.912,1.997c-21.425,21.469-48.339,25.752-77.008,24.438c-2.981-0.137-5.956-0.41-9.202-0.141
		c4.56,2.324,8.348,5.549,12.063,8.852c1.162,1.033,3.236,1.855,2.606,3.781c-0.56,1.712-2.609,1.806-4.2,2.27
		c-4.601,1.344-9.253,0.933-13.888,0.383c-9.09-1.079-17.99-3.003-26.821-6.388c4.971,5.128,7.827,11.084,9.171,17.864
		c0.539,2.717,0.564,5.295-0.452,7.842c-1.071,2.685-2.494,5.71-5.454,5.971c-2.642,0.232-3.172-3.119-4.058-5.091
		c-7.864-17.517-21.598-25.966-40.431-28.082c-21.875-2.457-42.365-10.067-62.574-18.833c5.602,4.448,10.954,9.134,16.309,13.815
		c8.937,7.813,14.001,17.137,13.083,29.346c-0.323,4.301,0.12,8.657,0.138,12.989c0.005,1.089,0.476,2.75-0.957,3.023
		c-1.896,0.361-1.714-1.585-2.076-2.737c-1.202-3.823-2.601-7.55-4.733-10.973c-3.081-4.948-7.195-8.72-12.572-11.028
		c-9.105-3.908-15.568-10.015-19.583-19.468c-3.9-9.182-11.665-15.624-19.803-22.015c-0.099,2.624,1.498,4.002,2.52,5.563
		c11.254,17.19,15.679,35.862,12.156,56.215c-2.212,12.778-10.321,21.859-21.097,23.935c-10.77,2.075-20.57-6.102-19.037-15.882
		c0.955-6.092,7-9.706,12.229-7.225c2.47,1.172,4.483,3.131,2.742,5.891c-1.889,2.994-3.118,0.41-4.339-1.116
		c-0.605-0.756-1.535-0.718-2.215-0.095c-0.928,0.85-1.25,2.001-0.78,3.199c1.471,3.751,4.647,4.566,8.156,4.312
		c2.96-0.214,5.238-1.932,7.178-4.135c2.596-2.948,4.514-6.327,5.075-10.162c3.54-24.209-1.3-46.375-16.686-65.779
		c-5.746-7.246-12.642-11.573-22.707-10.39c-8.325,0.978-9.162-0.07-13.38-5.926c3.218-1.207,6.526-0.074,11.06-0.949
		c-3.592-1.694-5.974-3.058-8.517-3.977c-12.071-4.36-24.221-8.492-37.109-9.722c-12.994-1.24-25.279,0.215-35.606,9.359
		c-1.388,1.229-3.808,3.812-5.297,0.846c-1.254-2.498-4.313-5.542-0.53-8.866c4.227-3.713,8.872-7.059,11.906-11.975c5,0,10,0,15,0
		c0.477,2.362,2.22,1.992,3.887,1.809c2.477-0.273,4.951-0.577,7.433-0.793c20.167-1.759,39.704,2.214,59.25,6.364
		c12.128,2.575,24.35,5.476,37.341-1.001c-4.79,12.643-14.47,16.706-25.477,19.512c2.333,0.771,4.665,1.541,6.998,2.312
		c0.812,0.581,1.623,1.163,2.435,1.744c5.12,3.9,10.633,7.269,17.302,5.455c6.236-1.696,12.262-4.206,18.312-6.536
		c4.214-1.622,8.109-3.879,11.436-6.999c2.863-2.685,5.001-5.594,1.953-10.326c4.619,1.251,6.31,3.944,7.16,7.289
		c2.187,8.604-3.457,13.481-8.818,17.713c36.522,0.539,73.129,2.092,110.369,0.471c-3.413,3.932-3.439,4.074-8.604,4.278
		c-34.966,1.384-69.942,1.463-104.91,0.255c-5.449-0.188-10.711,0.357-16.121,1.08c3.103,1.757,6.221,3.287,9.46,4.489
		c16.29,6.047,33.004,10.522,50.286,12.494c34.593,3.947,63.535-7.335,87.079-32.834c2.109-2.284,3.496-4.818,3.618-7.99
		c0.221-5.74-3.334-8.257-8.672-6.189c-1.097,0.425-2.082,1.885-3.655,0.622c2.048-6.635,6.154-11.219,12.938-13.221
		c2.667,0,5.333,0,8,0c1.35,0.583,2.715,1.134,4.049,1.753c6.99,3.244,12.284,8.268,11.822,16.318
		c-0.33,5.753,1.937,5.93,6.391,5.87c16.226-0.22,32.457-0.087,48.901-0.087c-6.448,6.613-7.041,6.844-15.091,6.956
		c-12.824,0.178-25.648,0.518-38.472,0.555c-3.893,0.011-6.342,1.143-6.982,5.535c14.989,0.088,29.795-1.23,45.664-0.545
		c-2.399,2.463-4.411,2.397-6.298,2.49c-9.147,0.454-18.295,0.944-27.448,1.237c-8.945,0.286-17.622,0.249-24.993,7.174
		c-4.607,4.329-11.545,5.378-17.318,8.485c7.494-0.034,14.872,0.927,22.266,0.893c23.767-0.108,45.299-5.195,63.611-22.482
		c22.385-21.131,57.278-20.763,79.466,0.139c13.021,12.266,27.892,18.763,45.203,21.252c13.659,1.964,27.204,0.279,40.919-0.159
		c-9.234-3.355-18.041-7.147-25.28-13.867c-1.423-1.321-3.458-0.972-5.282-1.043c-12.815-0.494-25.63-0.977-38.442-1.516
		c-2.294-0.097-4.791,0.092-6.998-2.82c2.473,0,4.094-0.027,5.715,0.004c11.99,0.229,23.98,0.506,35.971,0.649
		c1.237,0.015,3.442,1.085,3.61-1.083c0.115-1.486-1.084-3.267-2.746-3.846c-1.369-0.478-2.945-0.466-4.432-0.49
		c-13.157-0.211-26.322-0.707-39.469-0.417c-6.05,0.133-9.641-2.912-14.111-7.187c2.266,0,3.568-0.004,4.87,0.001
		c15.491,0.059,30.983,0.038,46.471,0.244c3.37,0.045,4.667-0.56,4.276-4.371c-0.66-6.44,2.015-11.754,7.373-15.437
		c2.416-1.661,5.177-2.82,7.782-4.206c3,0,6,0,9,0c6.134,2.651,10.76,6.54,11.881,14.174c-3.869-1.966-7.237-4.182-10.503-0.483
		c-2.429,2.751-1.894,8.433,1.282,11.927c18.709,20.58,41.455,33.085,69.667,34.542c21.683,1.12,42.352-3.748,62.644-10.697
		c5.386-1.844,10.968-3.354,16.588-7.168c-4.923-0.299-8.868-0.846-12.794-0.728c-32.32,0.97-64.64,0.92-96.961,0.244
		c-4.827-0.101-9.651-0.436-14.472-0.74c-2.534-0.16-4.701-1.01-6.145-4.13c37.293,1.494,73.963,0.186,110.287-0.345
		c-5.032-4.659-10.748-9.627-8.55-18.22c0.843-3.297,2.766-5.853,7.314-6.362c-2.798,2.965-1.877,5.241-0.094,7.545
		c3.044,3.932,7.034,6.542,11.466,8.617c5.606,2.625,11.736,3.806,17.394,6.176c8.223,3.444,14.389,0.011,20.368-4.947
		c0.352,0.049,0.703,0.098,1.055,0.147c2.468-1.269,4.936-2.539,8.298-4.267c-11.989-2.298-21.482-6.703-26.212-19.307
		c11.191,5.87,21.818,4.54,32.478,2.424c5.863-1.164,11.743-2.259,17.57-3.583c11.677-2.653,23.59-3.485,35.44-4.821
		c1.667,0,3.333,0,5,0c5.101,1.72,10.518,0.805,15.704,1.884c1.512,0.315,1.5-0.812,1.296-1.884
		C1096.255,100,1101.589,100,1106.922,100z M679.421,135.056c18.157-0.005,36.295-0.126,55.827,0.375
		C719.743,123.934,693.881,123.982,679.421,135.056z M606.547,118.724c-1.423,5.24-3.931,9.833-8.046,13.448
		c-3.99,3.505-8.089,6.887-12.14,10.323C596.349,137.26,605.21,131.037,606.547,118.724z M829.778,143.87
		c-9.047-7.013-19.19-12.088-22.713-25.048C807.93,129.467,818.007,140.195,829.778,143.87z M951.862,171.789
		c6.695-5.364,13.391-10.728,20.086-16.091C963.96,159.449,957.523,165.16,951.862,171.789z M552.702,167.547
		c6.899-0.219,13.674,1.781,20.589,1.291C566.496,167.205,559.663,166.231,552.702,167.547z M860.951,167.41
		c-7.475-0.934-14.8-0.275-21.985,1.851C846.349,169.288,853.588,167.574,860.951,167.41z M455.231,166.211
		c0.27-0.306,0.54-0.613,0.81-0.919c-5.033-4.004-9.924-8.208-16.162-10.511C444.996,158.591,450.114,162.401,455.231,166.211z"/>
	<path fill="FRAME_COLOR" d="M819.922,932c-2.217-1.138-4.519-2.139-6.637-3.438c-10.017-6.143-14.517-15.16-14.008-26.867
		c0.241-5.535-1.38-6.486-6.412-4.129c-4.993,2.338-8.758,6.177-12.254,10.322c9.93-30.167,35.706-40.273,62.941-49.063
		c-17.697-7.937-21.871-14.87-13.916-23.545c-0.738,6.197,3.307,8.062,7.697,9.442c6.484,2.037,13.429,3.132,17.452,9.644
		c0.734,1.188,2.062,0.89,3.203,0.609c12.313-3.023,24.823-4.365,38.742-4.114c-6.809-4.077-12.657-7.385-18.301-11.011
		c-5.686-3.653-11.644-6.995-16.283-12.496c12.153,4.816,23.841-0.236,35.694-0.916c12.161-0.698,23.394,2.648,33.782,8.926
		c1.41,0.852,2.803,1.732,5.048,3.121c-6.57-14.139-12.799-27.379-20.825-39.973c12.253,0.544,26.06,11.38,35.724,28.409
		c-1.598-9.154,1.076-15.676,6.822-21.73c-0.623,31.597,6.917,58.107,38.901,71.151c-4.572-6.468-13.273-10.382-13.676-20.91
		c5.478,3.119,9.18,7.756,14.288,9.883c1.114-1.551,0.293-2.428-0.061-3.268c-15.776-37.55,16.11-77.253,57.717-73.583
		c9.172,0.809,17.665,3.597,24.682,9.75c7.017,6.152,8.313,14.263,6.417,22.867c-1.682,7.631-6.855,12.447-14.303,14.609
		c-11.06,3.211-21.356-5.173-19.395-15.664c0.877-4.691,4.799-8.56,8.601-8.389c2.138,0.096,4.213,0.871,4.492,3.165
		c0.283,2.332-1.896,2.3-3.532,2.47c-1.956,0.204-3.883,0.669-3.713,3.083c0.164,2.317,1.906,3.368,4.128,3.595
		c6.746,0.689,11.62-5.279,9.457-11.701c-1.604-4.761-5.181-7.594-9.718-9.401c-15.717-6.26-35.283-0.784-46.4,13.004
		c-13.504,16.748-14.752,40.358-3.183,58.428c1.391,2.173,3.084,2.74,5.441,2.252c-9.737-29.812-8.514-49.858,3.683-57.422
		c-10.009,19.967,0.393,35.462,10.445,51.217c4.36,6.834,9.684,9.393,17.952,9.083c14.631-0.549,29.314,0.326,43.976,0.538
		c1.572,0.023,3.256,0.597,4.96-0.503c-2.362-4.856-5.014-8.616-11.305-8.875c-4.554-0.188-9.018-1.991-12.459-6.418
		c11.52-1.044,16.745-7.8,18.63-18.074c1.521-8.293,7.929-10.888,15.192-12.232c10.154-1.879,19.824,1.579,29.703,2.724
		c11.418,1.324,22.397,5.227,33.957,5.772c4.015,0.189,7.98,0.163,11.897-0.875c0.972-0.258,2.66-1.365,2.735,0.523
		c0.188,4.727,3.46,7.369,6.597,9.753c3.046,2.315,2.568,4.106,0.625,6.548c-1.606,2.018-3.809,3.207-5.884,4.578
		c-7.99,5.281-15.184,11.429-20.562,19.433c-1.096,1.632-4.398,3.412-1.51,5.713c2.903,2.313,3.914-1.211,5.191-2.754
		c3.632-4.388,7.522-8.47,12.205-11.738c0.895-0.624,1.924-1.055,3.412-1.855c-0.7,4.734-2.116,8.542-4.239,12.154
		c-3.396,5.779-5.968,11.901-7.256,18.515c-0.939,4.821-0.018,9.295,2.733,13.334c1.721,2.527,4.174,3.935,7.285,3.278
		c2.113-0.446,3.817-1.718,2.906-4.247c-0.801-2.224-2.495-2.42-4.438-1.271c-0.507,0.3-1.062,0.517-1.669,0.808
		c-1.081-2.934-0.09-5.01,2.302-6.013c2.978-1.249,5.92-0.619,8.336,1.636c4.602,4.295,3.198,12.667-2.701,16.3
		c-11.767,7.248-27.967-1.471-29.309-15.774c-0.496-5.286,0.543-10.256,2.885-15.016c0.606-1.232,2.418-2.584-0.212-4.003
		c-2.305-1.244-2.931,0.216-3.838,1.631c-4.431,6.917-9.193,13.528-16.56,17.691c-0.836,0.472-1.744,0.816-2.958,1.376
		c-0.462-4.201,0.984-8.234-1.611-11.842c-3.841-5.339-8.879-8.463-15.36-9.189c-6.155-0.689-12.191-1.609-17.733-4.706
		c-2.857-1.597-6.159-1.223-9.323-1.163c-11.662,0.221-23.324,0.506-34.987,0.668c-5.088,0.071-10.216,0.447-16.332-1.798
		c5.123,5.09,9.222,8.338,15.965,7.928c12.961-0.789,25.981-0.562,38.974-0.858c3.571-0.081,6.691,0.954,11.022,3.364
		c-16.367,1.32-31.357,1.537-46.408,1.451c7.109,2.931,14.602,3.651,22.132,4.099c12.043,0.716,23.954-0.92,35.872-2.228
		c5.033-0.552,8.708,1.078,11.328,5.469c3.426,5.742,3.28,7.438-1.266,12.416c-4.226,4.627-7.673,9.668-7.594,16.322
		c-2.333,0-4.667,0-7,0c-2.771-5.35-5.165-10.767-4.097-17.068c0.468-2.762-1.501-1.99-2.845-1.592
		c-14.432,4.276-29.392,5.757-44.156,8.209c-9.656,1.603-19.301,0.574-28.519-2.961c-3.67-1.407-7.218-3.188-9.278-7.703
		c10.387,1.968,20.279,2.817,31.72,1.553c-1.921-0.907-2.44-1.285-3.013-1.402c-13.617-2.793-26.563-7.542-39.122-13.409
		c-2.479-1.158-5.067-1.603-7.762-1.564c-11.981,0.171-23.962,0.407-35.944,0.478c-1.584,0.009-2.543,0.731-3.42,1.663
		c-2.224,2.363-4.992,3.789-7.853,5.197c-4.232,2.082-8.012,4.789-10.313,9.113c-1.56,2.932-1.484,6.314-2.759,9.492
		c-4.573-7.676-4.013-15.793-1.955-24.443c-33.029,1.531-65.661,0.68-98.286,0.944c-10.159,0.082-20.321-0.128-30.48-0.299
		c-1.432-0.024-3.78,0.678-3.431-2.176c0.244-1.994,0.658-4.076,3.401-4.125c1.498-0.027,2.997-0.121,4.495-0.119
		c38.646,0.068,77.292,0.086,115.937,0.323c3.268,0.02,7.104-2.083,9.966,1.569c0.461,0.588,1.085-0.342,1.465-0.812
		c1.966-2.43,3.912-4.876,5.873-7.326c-45.224,0-90.23,0-135.774,0c2.603-4.02,5.706-5.531,9.887-5.524
		c16.658,0.029,33.317-0.125,49.975-0.104c2.72,0.003,4.459-0.462,5.752-3.346c3.296-7.354,9.742-11.175,17.126-13.458
		c3.73-1.154,7.618-1.799,11.43-2.673c-0.198-0.969-0.906-1.072-1.542-1.17c-27.92-4.307-54.426,0.114-79.396,13.254
		c-5.728,3.015-11.132,6.694-15.577,11.572c-5.265,5.778-7.65,12.432-6.18,20.213c1.273,6.737,6.91,11.699,13.043,11.752
		c3.891,0.034,6.701-1.693,8.483-5.1c1.639-3.134-0.345-5.158-2.954-7.071c6.723-1.017,12.122,3.556,13.171,10.254
		c1.358,8.669-3.665,13.625-10.067,17.86C830.588,932,825.255,932,819.922,932z M976.578,879.053
		c-17.502-10.803-67.632-9.779-82.662,1.12C921.286,879.915,948.203,878.405,976.578,879.053z M963.26,862.878
		c-17.191-10.536-36-16.99-55.226-22.397c18.01,7.254,36.136,14.215,53.818,22.258C962.258,862.923,962.788,862.837,963.26,862.878z
		 M1182.313,849.521c-12.913,5.697-25.777,11.033-40.142,10.996C1157.804,865.021,1170.177,857.425,1182.313,849.521z
		 M1003.761,891.899c-11.08-6.091-16.305-5.878-24.889,1.014C987.212,891.336,995.295,892.207,1003.761,891.899z M1033.236,893.613
		c-3.303-3.901-6.671-7.75-9.887-11.722c-2.026-2.502-4.154-3.433-7.272-1.265C1020.65,886.653,1026.181,891.114,1033.236,893.613z
		 M1172.043,850.389c-7.074,0.089-14.055,1.961-21.104,0.25C1158.013,854.612,1165.064,852.993,1172.043,850.389z M948.084,834.082
		c-3.451-5.243-6.903-10.485-10.354-15.728C939.692,824.635,943.418,829.78,948.084,834.082z"/>
	<path fill="FRAME_COLOR" d="M287.922,932c0.117-6.834-3.352-12.236-7.79-16.737c-2.672-2.71-4.209-4.773-2.54-8.492
		c2.059-4.585,4.348-9.012,10.199-8.808c6.483,0.226,12.947,1.006,19.419,1.555c13.35,1.132,26.619,1.042,39.658-2.586
		c0.618-0.172,1.346-0.125,1.721-1.508c-15.345,0.804-30.508,0.171-46.542-0.863c3.467-2.922,6.788-3.576,10.383-3.508
		c13.16,0.25,26.349,0.043,39.47,0.891c7.576,0.49,11.748-4.001,16.507-8.303c-9.546,3.822-19.458,1.804-29.187,2.044
		c-6.988,0.173-13.997-0.131-20.986-0.45c-5.068-0.231-9.837,0.122-14.457,2.694c-3.798,2.115-8.218,2.626-12.549,3.063
		c-3.68,0.371-7.304,1.05-10.393,3.21c-5.94,4.154-10.029,9.271-7.675,18.024c-6.174-2.716-10.691-6.089-14.208-10.761
		c-1.901-2.525-3.466-5.306-5.413-7.792c-0.955-1.22-1.44-3.866-3.997-2.441c-2.677,1.491-0.49,3.051,0.124,4.544
		c3.796,9.231,4.224,18.162-2.61,26.29c-6.179,7.349-17.28,8.95-24.852,3.731c-5.639-3.887-6.593-11.663-1.964-15.999
		c3.133-2.935,8.136-2.893,10.193,0.1c0.677,0.985,1.228,2.087,0.58,3.248c-0.68,1.22-1.656,0.55-2.585,0.217
		c-1.93-0.692-3.95-0.701-4.295,1.723c-0.289,2.028,1.363,3.394,3.282,3.791c3.701,0.766,6.583-0.537,8.214-4.046
		c2.582-5.556,2.528-11.262,0.902-17.073c-1.541-5.504-4.011-10.556-6.979-15.416c-1.892-3.098-3.128-6.465-3.363-10.806
		c5.802,3.237,10.271,7.062,13.878,11.924c0.893,1.204,1.822,2.381,2.725,3.578c1.155,1.532,2.429,2.147,4.197,0.827
		c1.961-1.465,0.419-2.678-0.273-3.816c-5.874-9.65-14.423-16.448-23.889-22.262c-1.403-0.862-2.981-1.654-4.004-2.876
		c-1.965-2.347-2.705-4.777,0.396-7.144c1.909-1.457,4.018-2.777,4.69-5.575c0.67-2.794,2.839,0.457,4.162-0.614
		c-0.44-1.528-2.697-2.028-2.295-4.386c3.967,0.374,7.972,0.961,11.992,1.089c10.955,0.35,21.387-3.016,32.046-4.775
		c7.721-1.274,15.43-2.619,23.158-3.85c4.142-0.66,8.292-0.519,12.443,0.15c7.678,1.237,12.891,5.186,14.494,13.072
		c1.997,9.827,7.173,16.34,18.124,17.267c-2.938,4.752-7.55,6.031-12.091,6.295c-6.213,0.361-8.957,4.05-11.194,9.165
		c8.717,0,17.16,0.18,25.593-0.046c10.491-0.281,20.978-0.746,31.47-0.26c1.302,0.06,2.229-0.058,3.055-1.06
		c8.968-10.876,16.854-22.32,20.105-36.385c1.92-8.305,1.433-16.11-5.301-23.947c14.644,6.468,16.496,33.432,5.367,58.474
		c2.374,0.331,4.282,0.741,6.005-1.69c14.329-20.216,8.174-53.742-12.766-67.271c-11.006-7.111-23.086-9.257-35.862-5.213
		c-4.93,1.56-9.023,4.292-11.338,9.131c-1.508,3.153-1.242,6.231,1.046,8.876c2.433,2.812,5.632,4.124,9.374,3.643
		c1.793-0.23,3.275-1.236,3.065-3.258c-0.209-2.011-1.524-3.252-3.637-3.512c-1.511-0.186-3.784,0.478-3.403-2.269
		c0.34-2.45,2.272-3.112,4.463-3.014c4.142,0.186,6.874,2.526,8.282,6.199c1.772,4.624,1.603,9.164-1.902,13.095
		c-7.818,8.769-23.526,5.89-29.557-5.404c-5.27-9.869-2.394-22.98,7.085-29.396c15.56-10.533,32.356-10.325,49.234-3.917
		c26.825,10.184,41.999,39.198,31.916,67.614c-0.519,1.463-1.725,2.935-0.826,4.835c2.764-0.502,4.611-2.483,6.69-4.036
		c2.106-1.573,4.143-3.238,6.807-5.332c0.531,5.417-1.729,8.934-4.743,11.937c-3.012,3.002-6.384,5.644-9.298,8.832
		c32.967-12.622,40.57-39.334,39.783-70.614c5.227,4.141,7.147,8.751,7.928,18.801c5.834-15.705,19.415-21.163,34.784-26.823
		c-8.486,13.504-14.078,26.959-20.791,40.04c1.346,0.756,2.03-0.518,2.803-1.032c13.23-8.804,27.665-11.993,43.338-9.312
		c9.48,1.621,18.941,4.251,28.644-0.192c-2.647,4.031-6.544,6.292-10.274,8.722c-3.768,2.455-7.563,4.872-11.413,7.193
		c-3.975,2.397-8.032,4.659-12.909,7.475c5.164,0.23,9.491,0.271,13.789,0.647c7.968,0.698,15.89,1.759,23.708,3.523
		c1.529,0.345,3.429,1.404,4.568-0.478c3.775-6.237,10.318-7.437,16.493-9.348c4.347-1.345,8.222-3.154,8.2-8.821
		c4.175,3.683,4.578,10.599,1.112,14.764c-3.726,4.476-9.571,5.076-15.274,8c27.7,8.45,52.603,19.482,63.056,48.754
		c-3.136-1.731-4.822-5.076-7.86-6.987c-2.112-1.328-4.056-2.902-6.497-3.647c-3.063-0.934-4.906-0.37-4.564,3.366
		c1.449,15.857-6.16,25.922-20.374,31.735c-5.333,0-10.667,0-16,0c-1.694-1.3-3.457-2.522-5.071-3.915
		c-7.705-6.648-6.591-18.847,2.123-23.78c1.71-0.968,3.404-1.654,5.55-0.731c-4.576,5.061-3.666,8.891,2.392,11.553
		c4.961,2.18,10.77,0.114,14.247-5.066c4.399-6.554,3.871-16.234-1.388-23.473c-4.619-6.357-10.965-10.647-17.769-14.273
		c-24.839-13.238-51.279-16.975-78.968-13.097c-0.719,0.101-1.704,0.011-1.548,1.421c1.453,0.201,2.934,0.347,4.392,0.616
		c10.043,1.85,18.939,5.764,23.981,15.222c1.565,2.935,3.267,3.471,6.195,3.461c16.325-0.056,32.65,0.091,48.976,0.131
		c4.209,0.01,7.685,1.101,9.617,5.704c-45.205,0-89.968,0-134.508,0c2.004,5.929,6.317,6.304,11.675,6.229
		c21.818-0.307,43.642-0.089,65.465-0.085c19.323,0.004,38.646,0.06,57.968-0.104c3.516-0.03,5.161,1.523,4.997,4.584
		c-0.177,3.302-3.15,1.626-4.706,1.671c-10.322,0.295-20.652,0.354-30.979,0.394c-32.112,0.125-64.226,0.362-96.68-0.859
		c2.786,8.548,2.574,16.598-1.72,24.391c-0.717-5.861-2.236-11.109-7.161-14.769c-5.299-3.937-11.88-6.079-16.132-11.506
		c-0.155-0.197-0.92,0.084-1.403,0.141c0.095-1.843-0.684-3.08-2.306-4.044c-8.257-4.91-16.474-6.438-25.181,0.298
		c7.244,0,14.048-0.197,20.83,0.102c2.527,0.111,5.993-0.378,6.65,3.638c-1.534,1.016-3.229,0.518-4.867,0.504
		c-9.827-0.087-19.654-0.207-29.481-0.276c-3.014-0.021-5.935,0.359-8.732,1.715c-7.051,3.418-14.416,6.032-21.817,8.604
		c-6.317,2.195-12.959,3.211-19.257,5.684c10.017,1.216,19.918,0.93,30.871-1.442c-2.63,3.894-5.219,5.861-8.243,7.247
		c-9.55,4.378-19.661,5.278-29.836,3.594c-14.603-2.418-29.382-3.981-43.664-8.17c-1.369-0.402-3.891-1.465-3.389,1.57
		c1.053,6.374-1.675,11.675-4.121,17.117C292.588,932,290.255,932,287.922,932z M519.804,879.851
		c-22.323-11.327-68.939-11.846-81.162-0.966C465.956,878.334,492.865,879.906,519.804,879.851z M450.372,862.783
		c18.366-7.679,36.941-14.837,55.329-22.461C486.595,846.166,467.569,852.208,450.372,862.783z M271.806,860.448
		c-14.672,0.462-27.446-6.078-40.67-10.895C243.581,857.437,256.098,865.045,271.806,860.448z M398.253,880.024
		c-2.683-0.375-4.57-1.967-6.284,0.06c-3.738,4.421-7.407,8.9-12.036,14.479C387.773,890.639,393.752,886.807,398.253,880.024z
		 M237.019,848.3c9.005,5.426,21.407,6.221,26.038,1.625C254.055,852.089,245.506,850.687,237.019,848.3z"/>
	<path fill="FRAME_COLOR" d="M1224.922,100c8.818,2.301,15.041,7.41,18.086,16.23c0.688,1.993,2.185,3.72,3.387,5.519
		c4.653,6.965,4.799,13.172,0.071,19.924c-4.55,6.498-10.822,11.257-17.018,16.051c-1.386,1.072-3.116,1.033-4.758,1.301
		c-3.726,0.609-7.316,1.589-10.143,4.453c4.586-2.149,9.206-3.598,14.341-2.415c1.566,0.361,2.714-1.088,3.877-1.994
		c3.681-2.866,7.295-5.816,10.985-8.669c10.642-8.229,22.133-7.886,32.221,0.984c1.649,1.45,3.418,2.641,5.416,3.519
		c9.546,4.194,14.292,15.206,10.799,25.055c-4.787,13.497-12.516,18.522-26.638,20.276c-14.162,1.759-28.154,2.36-42.269,0.385
		c-0.763-0.107-1.578,0.152-2.415,0.687c6.908,2.382,14.098,3.063,21.293,3.617c8.792,0.676,17.634-0.474,26.43,1.096
		c13.234,2.361,18.349,7.742,18.218,21.174c-0.058,5.955,2.14,10.532,5.462,15.092c2.904,3.986,2.359,4.829-2.513,5.305
		c-1.16,0.113-2.332,0.166-3.478,0.362c-3.327,0.568-5.134,2.641-6.096,5.829c-0.93,3.082,0.338,4.854,2.599,6.802
		c8.437,7.271,11.254,20.169,6.963,30.627c-4.374,10.658-15.123,17.508-26.49,16.904c-3.752-0.199-6.899-1.544-8.524-5.09
		c-1.625-3.547-1.436-7.171,0.742-10.488c1.943-2.959,4.342-3.724,7.63-1.692c6.451,3.987,11.447,2.804,15.687-3.416
		c6.92-10.151,2.266-25.78-9.031-30.504c-3.154-1.319-4.914-1.087-5.221,2.968c-0.393,5.193-2.853,9.121-8.208,10.767
		c-7.58,2.33-13.094-1.467-13.172-9.175c-0.135-13.235-12.398-32.524-26.115-39.776c5.602,5.986,9.827,11.408,13.463,17.264
		c2.461,3.963,4.979,7.905,6.496,12.353c3.274,9.594,0.401,17.491-8.23,22.634c-2.144,1.277-4.348,2.466-6.585,3.571
		c-6.472,3.195-11.872,7.377-14.204,14.611c-0.391,1.212-0.841,2.847-2.445,2.798c-1.696-0.052-1.544-1.906-2.115-3.024
		c-0.225-0.441-0.436-0.929-0.484-1.413c-0.752-7.496-4.416-12.765-11.325-16.08c-3.407-1.635-4.856-5.075-4.329-8.875
		c0.504-3.637-1.123-5.803-3.806-7.968c-3.471-2.8-6.901-5.844-7.822-11.03c-2.167,2.754-4.025,5.406-6.175,7.796
		c-7.049,7.833-16.171,11.391-26.42,12.691c-8.876,1.126-17.417,3.153-23.569,11.498c-1.4-2.975-0.507-5.154,0.039-7.229
		c2.432-9.236,1.435-17.637-4.711-25.424c-5.547-7.028-7.076-14.657-0.893-22.376c0.306-0.382,0.566-0.861,0.669-1.334
		c4.356-20.021,20.517-24.521,37.212-28.025c8.115-1.704,16.249-0.651,24.23,1.529c1.36,0.372,2.822,0.907,4.339-0.015
		c-2.123-1.767-4.726-1.625-7.118-2.056c-9.172-1.653-18.362-3.201-27.546-4.787c-5.647-0.975-11.324-1.023-16.888,0.266
		c-4.088,0.947-7.492,0.011-11.012-2.695c5.432-1.566,10.638-3.066,15.844-4.567c-0.058-0.245-0.117-0.491-0.175-0.736
		c-5.263,0-10.543,0.268-15.786-0.059c-9.119-0.57-15.602-5.284-19.418-13.556c-3.528-7.646-5.93-15.564-5.204-24.14
		c1.106-13.059,8.812-18.885,22.459-16.618c-2.002,2.996-4.836,3.869-7.974,4.489c-1.523,0.301-4.201-0.634-4.257,2.034
		c-0.067,3.173,2.689,2.734,4.798,2.903c0.492,0.04,0.978,0.148,1.556,0.24c-0.029,0.51,0.104,1.074-0.107,1.443
		c-5.96,10.457-2.547,20.816,8.711,25.759c6.368,2.796,13.209,3.353,20.076,3.296c7.545-0.063,14.856,0.899,22.134,3.11
		c11.39,3.46,18.761,12.257,27.568,19.347c-1.593,1.762-3.967,2.918-3.739,5.316c0.421,4.432-1.78,4.52-5.398,4.586
		c-8.486,0.153-16.977,0.946-25.045,3.975c-1.676,0.629-3.489,1.136-5.193,3.466c10.617-3.949,20.928-5.52,31.424-6.308
		c2.445-0.184,4.731-0.412,5.26,2.063c0.596,2.792,4.258,5.93-0.157,8.743c-1.391,0.886-2.649,1.979-4.933,3.708
		c5.166-1.095,8.85-6.21,13.446-1.351c3.283,3.47-1.623,5.461-1.025,8.579c2.464-1.509,2.608-4.989,6.062-6.453
		c0.732,8.477-2.523,16.166-2.462,24.159c2.261-5.721,2.944-11.779,3.816-17.806c0.281-1.938-0.81-5.124,1.902-5.35
		c2.537-0.211,1.676,3.109,2.447,4.803c0.4,0.879,0.568,1.863,0.866,2.883c1.148-0.889,0.675-1.936,0.423-2.741
		c-0.725-2.326-1.493-4.995,1.253-6.056c2.809-1.085,5.251-4.572,9.222-1.193c3.7,3.148,8.366,5.102,13.31,6.084
		c-3.652-2.53-7.049-5.618-11.028-7.429c-3.822-1.739-3.461-4.364-3.531-7.478c-0.097-4.322,0.466-9.506-3.344-12.132
		c-3.262-2.249-5.821-7.279-11.414-5.012c-1.318,0.534-2.785-0.555-3.291-2.324c-3.931-13.745-8.248-27.391-11.795-41.234
		c-5.128-20.014,4.295-35.254,25.805-42.867c1.681-0.595,3.65-0.521,5.005-1.96C1218.922,100,1221.922,100,1224.922,100z
		 M1208.317,130.775c-9.725,14.15-12.632,29.813-10.49,46.583C1198.93,161.293,1201.138,145.481,1208.317,130.775z
		 M1232.872,192.179c4.993-4.953,9.851-8.427,11.391-15.827c-6.459,10.639-14.342,17.792-25.703,20.617
		c0.237,0.462,0.474,0.925,0.712,1.387c10.678-2.992,21.356-5.984,33.284-9.327C1245.425,189.09,1239.924,191.272,1232.872,192.179z
		 M1149.296,216.468c9.051-7.683,20.117-11.025,31.133-14.483C1167.909,202.136,1157.519,206.963,1149.296,216.468z
		 M1219.276,146.05c-9.673,6.15-14.154,15.604-16.123,26.559c1.999-4.649,3.966-9.343,6.697-13.678
		C1212.684,154.429,1216.018,150.321,1219.276,146.05z M1248.216,215.206c-8.187,0.451-16.436,0.958-24.587-1.187
		C1229.282,217.751,1237.179,218.16,1248.216,215.206z M1219.684,240.531c-0.327-7.095-3.914-14.307-8.955-18.282
		C1214.483,228.033,1217.054,233.832,1219.684,240.531z"/>
	<path fill="FRAME_COLOR" d="M248.792,171.084c12.355-4.988,25.518-3.835,38.369-5.074c8.593-0.828,15.082-4.781,18.835-12.818
		c2.249-4.817,3.3-9.429-0.868-13.848c-0.733-0.777-1.535-1.789-1.219-3.308c0.607-0.036,1.251-0.152,1.881-0.097
		c1.766,0.155,3.39,0.129,3.876-2.076c0.594-2.694-1.731-2.435-3.1-2.854c-3.127-0.957-6.575-1.206-8.447-4.536
		c12.112-2.909,20.532,2.243,22.513,14.156c1.967,11.827-1.608,22.531-8.334,32.042c-5.31,7.508-13.588,9.106-22.249,8.94
		c-3.482-0.066-6.959-0.429-10.552-0.21c5.399,1.889,10.711,3.991,17.178,4.442c-3.595,3.213-7.095,3.756-10.974,3.176
		c-18.328-2.738-35.581,3.339-53.179,6.568c-0.239,0.044-0.404,0.486-0.671,0.829c2.087,1.066,3.869-0.275,5.649-0.741
		c17.005-4.456,33.022-2.115,48.084,6.84c6.578,3.911,11.271,9.282,12.601,17.118c0.307,1.809,0.939,3.523,2.127,5.006
		c4.606,5.751,4.616,12.43,0.477,17.629c-8.192,10.29-9.843,21.098-5.832,33.229c0.19,0.575-0.029,1.285-0.053,1.809
		c-1.079,0.721-1.798,0.219-2.299-0.422c-4.646-5.942-11.137-8.288-18.258-9.152c-15.057-1.825-28.224-6.75-35.795-22.282
		c-1.488,6.508-5.209,10.052-9.217,13.264c-2.152,1.725-3.325,3.578-3.006,6.36c0.544,4.755-1.694,8.199-5.766,10.127
		c-5.282,2.5-8.198,6.304-9.044,12.113c-0.386,2.652-1.841,5.149-2.758,7.576c-0.749-0.118-1.035-0.1-1.062-0.175
		c-3.998-11.226-13.502-16.206-23.321-21.123c-8.349-4.18-11.261-13.611-7.666-23.355c3.336-9.043,9.25-16.507,15.315-23.833
		c1.365-1.649,2.849-3.198,3.843-5.082c-13.206,11.127-26.458,22.281-25.509,42.085c0.183,3.818-1.33,5.783-4.919,6.899
		c-7.8,2.425-14.254-1.481-16.154-10.047c-0.941-4.241-2.854-5.182-6.465-3.18c-7.849,4.352-12.752,15.278-10.73,24.036
		c0.931,4.03,2.997,7.374,6.343,9.878c3.733,2.794,7.455,3.105,11.559,0.543c4.38-2.735,6.877-1.748,8.78,2.999
		c2.662,6.64-0.899,12.749-7.892,13.538c-10.846,1.224-22.193-5.719-26.728-16.354c-4.619-10.83-1.837-24.35,6.654-31.071
		c2.113-1.672,3.868-2.955,2.921-6.021c-0.931-3.017-2.133-5.635-5.575-6.371c-0.813-0.174-1.637-0.302-2.461-0.418
		c-7.519-1.06-7.581-1.102-2.934-7.456c2.755-3.767,4.111-7.81,4.175-12.529c0.195-14.392,4.831-19.519,19.128-22.013
		c5.134-0.896,10.265-0.972,15.433-0.786c10.642,0.382,21.09-0.893,31.386-3.595c-3.581-1.133-7.136-0.541-10.658-0.028
		c-14.596,2.126-29.003-0.153-43.113-3.065c-13.378-2.761-25.178-21.601-14.29-38.669c0.441-0.691,0.978-1.594,1.661-1.816
		c6.955-2.264,11.851-7.907,18.156-11.074c7.527-3.781,15.327-2.754,22.412,1.646c3.941,2.448,7.55,5.468,11.135,8.439
		c3.263,2.704,6.395,5.175,11.1,4.015c1.708-0.421,3.586,0.209,5.521,0.569c-9.299-1.664-15.66-7.833-22.146-13.78
		c-2.584-2.369-5.016-4.903-6.65-8.054c-2.885-5.564-3.272-11.246,0.169-16.641c2.69-4.218,5.298-8.454,7.494-12.952
		c2.899-5.938,8.684-7.856,14.251-10.05c3,0,6,0,9,0c5.291,2.323,10.72,4.379,15.846,7.023c12.157,6.27,19.15,19.475,16.372,32.904
		c-3.129,15.127-7.445,30.007-11.149,45.017c-0.735,2.981-4.172,3.897-5.24,3.49c-5.814-2.217-7.842,3.287-10.653,5.511
		c-4.371,3.458-4.394,9.589-3.391,14.972c0.379,2.036,0.248,2.667-1.53,3.611c-4.856,2.579-9.835,5.021-13.902,8.886
		c4.88-2.077,9.996-3.905,14.17-7.003c4.375-3.248,7.267,0.085,10.259,1.433c3.148,1.418,0.303,4.359,0.051,6.637
		c-0.072,0.651-0.983,1.446,0.246,1.955c2.334-2.008,0.645-6.286,4.495-7.895c1.905,9.102,2.279,18.159,5.886,26.473
		c-0.972-7.217-2.323-14.364-3.412-21.55c-0.265-1.752-1.919-4.499,0.639-5.252c1.942-0.571,1.955,2.633,3.166,3.893
		c0.543,0.564,1.025,1.187,2.203,2.567c-0.378-1.591-0.479-2.203-0.669-2.787c-0.728-2.237-2.861-4.358-0.224-6.776
		c2.69-2.466,5.202-1.708,8.087-0.24c3.293,1.676,5.867,4.076,8.434,6.632c-1.108-3.033-3.411-4.9-6.107-6.485
		c-3.687-2.168-5.131-4.699-3.002-9.271c1.934-4.154,4.79-8.952-0.648-13.274c-1.919-1.526,0.684-2.451,1.579-3.296
		c6.384-6.023,12.899-11.895,20.604-16.251L248.792,171.084z M265.497,218c-7.223-10.048-17.559-14.862-29.583-16.801
		c10.098-0.68,19.494,2.305,28.953,5c-9.046-5.736-19.276-6.515-29.534-7.03c-1.229-0.062-3.496-1.288-3.717,1.364
		c-0.175,2.101,1.435,2.45,3.224,2.771C246.391,205.376,256.666,210.103,265.497,218z M215.696,180.512
		c1.071-18.022,0.293-35.646-11.227-50.958C212.699,145.574,213.865,163.115,215.696,180.512z M181.752,192.94
		c-7.31-1.017-13.516-4.465-21.45-3.762c11.981,3.268,22.744,6.791,34.134,8.354c-9.553-3.36-16.949-9.48-23.227-17.167
		C172.55,186.134,177.745,188.527,181.752,192.94z M209.706,170.777c-1.706-10.498-7.104-18.635-15.806-24.601
		C200.084,153.774,205.8,161.667,209.706,170.777z M165.593,215.441c8.178,1.219,16.415,3.308,24.305-0.975
		C181.855,216.251,173.691,214.992,165.593,215.441z M203.487,221.374c-4.952,5.218-8.49,11.211-9.293,18.531
		C197.158,233.684,199.808,227.308,203.487,221.374z"/>
	<path fill="FRAME_COLOR" d="M284.922,100c2.131,13.845,7.192,26.633,14.077,38.742c4.401,7.74,3.842,12.086-2.845,17.996
		c-4.87,4.304-10.598,6.899-17.125,7.406c-8.806,0.685-17.619,1.249-25.912,4.729c-1.5,0.629-3.248,0.758-4.325,2.211
		c0,0,0.237-0.159,0.237-0.159c-6.33,1.888-12.267,4.681-18.204,7.71c6.508-7.599,13.016-15.198,19.523-22.797
		c-0.329-0.274-0.658-0.548-0.987-0.821c-8.375,8.915-15.975,18.518-24.512,28.799c0.359-3.785,3.048-5.647,2.835-8.617
		c-2.007,1.05-2.285,3.623-4.664,3.893c-0.372-4.748,0.379-9.166,1.449-13.545c3.205-13.122,8.884-25.437,12.459-38.462
		c2.012-7.33,7.689-11.429,15.224-12.809c3.929-0.72,7.936-1.249,11.728-2.438c6.85-2.148,13.58-4.706,17.04-11.837
		C282.255,100,283.588,100,284.922,100z M237.513,174.15c6.237-4.63,12.474-9.26,18.711-13.89c-0.255-0.333-0.51-0.667-0.764-1
		C249.241,163.915,241.969,167.191,237.513,174.15z"/>
	<path fill="FRAME_COLOR" d="M1132.922,100c1.663,5.793,6.732,7.834,11.43,10.145c4.99,2.455,10.53,3.036,15.932,3.935
		c8.748,1.456,14.981,6.258,17.151,14.708c3.563,13.875,9.586,26.954,12.67,40.956c0.743,3.375,1.09,6.696,0.602,10.352
		c-2.605-1.044-2.364-3.65-4.09-4.799c-1,1.887,1.543,3.247,0.721,5.385c-2.043-2.303-3.962-4.466-5.873-6.62
		c-2.541,2.043,0.051,2.923,1.145,4.652c-4.137-0.939-7.054-3.38-10.303-5.025c-11.926-6.042-24.612-8.665-37.865-9.686
		c-8.599-0.663-15.903-4.577-20.929-11.989c-2.261-3.335-2.555-6.682-0.55-10.299c7.289-13.145,13.344-26.775,15.959-41.714
		C1130.255,100,1131.588,100,1132.922,100z M1178.191,175.164c-5.429-7.115-13.09-11.11-20.986-14.773
		C1164.2,165.315,1171.196,170.24,1178.191,175.164z M1162.818,153.457c4.018,7.112,9.183,13.005,15.945,17.37
		C1173.448,165.037,1168.133,159.247,1162.818,153.457z"/>
	<path fill="FRAME_COLOR" d="M1220.35,844.593c-2.245-2.05-2.628-4.306-2.675-7.52c-0.065-4.453,0.298-9.389-2.455-13.543
		c-0.833-1.258,0.211-2.183,0.895-3.076c3.548-4.625,6.979-9.35,10.72-13.814c5.815-6.939,13.78-10.279,22.264-12.589
		c5.795-1.578,11.519-3.294,16.784-6.315c3.946-2.264,6.609-5.456,8.14-9.725c2.845-7.93,6.557-15.582,5.157-24.506
		c-0.583-3.715,1.456-7.098,3.737-10.077c1.316-1.719,2.702-3.383,4.005-5.111c2.172-2.88,3.093-6.025,0.964-9.25
		c-2.334-3.537-5.372-1.431-8.072-0.525c-8.556,2.87-8.677,2.958-10.977-5.714c-4.737-17.854-13.505-33.925-22.31-51.715
		c0,3.286-0.028,5.087,0.008,6.887c0.036,1.832,0.319,3.681,0.145,5.49c-0.137,1.42,1.089,4.138-1.287,3.949
		c-2.168-0.173-5.574-0.192-5.477-4.298c0.155-6.494-0.2-13.004,0.067-19.491c0.092-2.239-0.658-3.581-1.854-5.278
		c-7.967-11.308-19.377-18.098-31.353-24.098c-6.734-3.374-13.631-4.766-20.231,1.212c0.33-4.453,4.285-9.525,9.227-11.49
		c6.656-2.646,13.485-1.462,20.158,0.1c6.9,1.616,11.649,6.668,17.213,12.182c-2.193-8.771-3.484-16.632-6.037-24.2
		c-1.068-3.167-2.761-6.105-6.028-6.798c-3.389-0.719-5.875,1.74-7.926,4.276c-3.037,3.757-5.911,7.852-11.233,2.854
		c-1.646-1.546-3.343,0.635-5.644,0.414c3.598-7.069,7.541-13.08,16.447-14.697c-17.73-0.185-30.63-7.669-38.853-24.417
		c4.946,3.05,9.601,2.889,14.189,2.178c8.063-1.25,15.302-0.089,21.026,6.576c0.232-0.661,0.461-1.045,0.381-1.125
		c-8.202-8.315-11.895-18.224-11.046-29.933c0.211-2.909-0.963-5.779-1.914-8.785c10.536,7.534,22.424,13.702,24.314,28.638
		c1.125,8.894,1.687,18.002,7.212,25.681c0.156,0.217,0.485,0.309,1.775,1.089c-5.882-25.087,0.399-49.558-1.481-74.898
		c3.873,3.557,5.864,6.711,5.782,11.553c-0.369,21.972-2.042,43.98,1.081,65.899c0.224,1.573-0.103,3.266,1.164,5.107
		c2.967-21.321,4.544-42.183,3.299-64.525c3.442,4.58,3.774,8.802,4.285,12.861c2.138,16.983,0.185,33.947-0.398,50.918
		c-0.134,3.885-0.02,7.779,0.48,11.791c1.937-9.032,3.751-18.093,5.835-27.091c7.12-30.751-6.632-54.3-26.105-75.851
		c-2.568-2.842-5.703-5.27-7.209-8.861c-3.902-9.308-9.876-16.527-19.463-20.705c13.666,1.592,27.02,4.118,38.65,11.859
		c11.897,7.919,18.705,19.523,22.262,33.41c0.059-11.904,3.595-22.518,9.244-33.605c2.848,37.433,1.576,73.34-12.396,107.829
		c17.033-17.574,30.592-63.459,26.545-88.483c-4.326-26.749-15.015-50.307-34.689-69.418c0.155,18.093-0.028,35.989-0.385,54.197
		c-5.177-2.203-6.792-5.591-6.702-10.707c0.27-15.327,0.076-30.662,0.067-45.994c0-1,0.269-2.068,0.003-2.985
		c-0.663-2.291-2.719-3.948-4.666-3.941c-2.36,0.008-1.214,2.631-1.222,4.032c-0.094,16.324-0.06,32.648-0.06,49.254
		c-4.202-0.536-6.014-2.356-5.863-6.801c0.521-15.32,0.514-30.659,1.107-45.975c0.158-4.072-1.262-5.52-4.924-6.336
		c-5.277-1.176-10.462-2.076-15.745-0.267c-8.842,3.027-12.382,12.866-6.763,19.022c1.752,1.919,4.08,4.642,6.613,1.812
		c2.281-2.547-0.773-3.906-2.555-5.284c-0.321-0.248-0.406-0.801-0.801-1.643c3.743-0.661,6.899-0.167,9.101,2.696
		c2.25,2.926,1.87,6.379,0.396,9.484c-2.115,4.453-5.914,6.705-10.838,6.734c-7.821,0.046-13.987-3.33-17.767-10.095
		c-4.377-7.833-3.443-15.836,1.172-23.271c6.764-10.899,20.791-15.349,33.963-11.017c2.794,0.919,5.494,2.123,8.472,3.287
		c0.585-6.429,0.708-12.157-2.965-17.755c-3.539-5.395-5.961-11.522-8.893-17.317c-3.25-6.425-17.62-12.788-24.595-10.909
		c-4.479,1.207-6.704,5.765-4.41,10.328c1.276,2.538,1.09,3.145-1.608,3.25c-7.348,0.286-15.823-6.196-16.964-13.033
		c-1.273-7.633,3.446-14.214,11.878-16.565c6.311-1.76,9.764-1.375,21.96,2.505c-5.3-8.997-11.443-16.693-20.697-21.831
		c-9.745-5.411-19.048-11.615-28.56-17.446c-3.89-2.384-7.194-5.411-9.915-9.042c-4.765-6.356-10.141-11.878-18.638-13.785
		c10.019-4.981,37.564-3.816,54.243,16.112c-3.494-8.344-7.958-16.493-7.806-25.798c0.147-8.945,1.219-17.82,6.667-25.744
		c0.025,13.05,4.733,24.615,10.134,36.331c3.328-3.645,5.285-7.735,7.092-13.026c1.883,4.497,1.549,7.972,1.043,11.342
		c-0.946,6.303,0.075,12.219,2.472,18.063c3.719,9.064,6.945,18.315,10.4,27.762c0.526-3.684,0.946-7.387,1.609-11.047
		c0.623-3.436,0.832-7.172,2.388-10.172c5.758-11.104,6.14-24.386,14.287-34.523c1.966-2.446,0.463-5.849,0.801-8.794
		c0.186-1.616-0.328-3.448,1.36-4.555c1.096-0.718,2.289-1.745,3.644-1.261c1.47,0.526,0.613,1.99,0.691,3.051
		c0.082,1.127-0.516,2.649,0.518,3.263c1.517,0.901,2.305-0.831,3.208-1.653c3.614-3.287,7.698-4.915,12.694-4.808
		c8.627,0.185,15.696-2.797,19.531-11.136c1.356-2.948,2.494-1.129,3.515,0.085c3.552,4.224,2.561,12.177-1.937,15.772
		c-3.179,2.54-7.004,3.801-10.729,5.245c-2.172,0.842-4.462,1.457-6.503,2.543c-5.946,3.163-9.872,6.981-9.758,14.959
		c0.243,16.96-0.723,33.939-0.071,51.489c4.7-2.151,9.231-4.556,14.334-0.22c-9.864,1.745-11.729,9.082-12.187,16.747
		c-0.865,14.477-0.655,28.984,0.601,43.45c0.156,1.797,0.555,3.682,1.322,5.298c4.926,10.378,11.676,19.659,18.309,29.231
		c-0.481-2.964-1.052-5.917-1.425-8.894c-0.878-7.008-0.894-13.984,1.559-20.733c3.008-8.277,10.011-13.07,18.305-12.618
		c0,0.294,0.1,0.804-0.014,0.858c-8.753,4.115-10.552,11.728-10.337,20.387c0.241,9.757,2.669,19.104,5.279,28.416
		c1.883,6.716,3.832,13.413,5.927,20.733c2.19-3.259,2.448-7.11,6.132-9.071c-1.422,12.855,2.11,25.161,1.117,37.731
		c2.185,0.633,2.268-2.072,3.914-1.707c1.028,0.218,0.747,1.126,0.738,1.91c-0.351,28.831-8.958,55.312-22.448,80.528
		c-8.099,15.138-16.909,29.851-25.554,44.665c-2.466,4.226-3.413,8.262-2.312,13.255c2.628,11.917,6.263,23.384,12.86,35.425
		c0.346-8.405-0.415-15.575,1.402-22.35c4.379-16.329,5.504-33.564,13.196-48.961c3.33-6.666,7.961-12.326,15.155-15.297
		c10.489-4.332,20.537,1.343,21.934,12.417c0.162,1.282,0.997,3.806-1.795,2.455c-7.937-3.841-13.915,0.312-18.672,5.348
		c-14.484,15.335-23.652,33.296-24.58,54.854c-0.292,6.779,0.186,13.472,1.621,20.518c4.129-13.732,12.641-22.206,27.094-23.591
		c4.508-0.432,5.386,0.021,8.042,3.066c-6.443-0.928-9.144,3.021-11.269,7.824c-2.943,6.654-6.964,12.486-12.935,16.845
		c-4.099,2.993-4.552,7.316-3.388,11.706c1.62,6.108,3.836,12.055,5.581,18.134c0.789,2.749,2.778,2.071,4.397,1.798
		c3.742-0.632,4.752,0.808,5.086,4.483c1.517,16.69-0.613,33.252-1.424,49.853c-0.159,3.26-1.225,6.562-2.35,9.672
		c-3.602,9.957-8.012,12.707-18.501,12.005c-4.248-0.284-8.506-0.692-13.276,0.078c1.429,2.361,3.442,2.033,5.037,2.358
		c6.571,1.338,12.988,3.106,18.685,6.766c6.05,3.886,9.967,9.222,10.685,16.601c0.661,6.798-2.256,11.383-8.991,12.816
		c-11.145,2.372-20.59-1.971-29.29-8.38c-1.648-1.214-2.599-3.22-1.5-5.334c1.261-2.426,3.429-1.526,5.303-0.983
		c3.82,1.106,7.094,3.783,11.232,3.986c1.112,0.055,2.488,0.502,3.156-0.792c0.65-1.26-0.415-2.159-1.097-3.073
		c-4.55-6.096-14.628-8.289-24.366-5.488c-5.865,1.687-10.248,5.82-15.498,8.707c8.158,1.118,15.757,3.347,22.882,7.028
		c14.053,7.261,21.953,18.748,22.456,34.637c0.322,10.193,1.521,19.642,11.51,25.117c-1.064,1.508-2.116,1.427-3.083,1.29
		c-10.385-1.479-20.588,0.018-30.823,1.619c-18.501,2.895-26.097-1.107-34.577-17.808c-0.277-0.545-0.655-1.039-1.787-2.809
		c0.025,8.146-2.599,14.222-4.919,20.401c-1.788,4.761-0.19,9.566,0.173,14.348c0.098,1.289,0.943,3.011-0.299,3.751
		c-1.631,0.972-2.59-0.957-3.679-1.827c-6.613-5.282-11.892-11.474-14.797-19.677c-2.921-8.248-2.977-16.295-0.012-24.429
		c1.254-3.441,2.554-6.87,4.011-10.228c0.74-1.707,0.935-4.646,3.319-4.275c2.071,0.323,0.784,3.242,1.816,5.248
		c0.616-2.319,0.301-5.333,3.573-4.901c3.848,0.508,0.346,4.176,2.497,5.605c0.768-1.45,0.455-3.163,0.302-4.761
		c-0.367-3.858,1.299-3.234,4.079-1.061c-0.955-2.242-1.582-3.712-2.246-5.271c1.863-1.116,4.146-1.058,4.635-4.312
		c0.512-3.405,3.479,0.142,5.246-0.522c0.489,5.353,5.903,7.284,7.695,11.73C1227.344,851.095,1223.455,848.12,1220.35,844.593z
		 M1225.066,319.608c-15.406,25.567-8.694,54.171,7.364,76.362C1226.632,370.716,1224.726,345.949,1225.066,319.608z
		 M1238.254,390.976c3.985-30.36,4.007-60.92,4.038-91.88c-2.904,2.822-4.769,5.561-4.852,9.612
		c-0.281,13.653-0.954,27.297-1.28,40.949C1235.829,363.469,1235.929,377.275,1238.254,390.976z M1251.368,533.905
		c-2.078-11.584-12.494-27.131-21.11-30.748C1240.605,511.959,1246.274,522.74,1251.368,533.905z M1206.114,355.683
		c-2.92-7.91-6.119-15.6-10.847-22.526C1198.355,340.95,1201.255,348.829,1206.114,355.683z M1188.638,366.051
		c-10.696,2.499-13.829,7.749-9.129,13.339C1179.839,371.129,1180.016,370.85,1188.638,366.051z M1240.463,427.809
		c-2.103-3.062-3.063-6.848-6.32-9.326C1233.656,424.604,1233.656,424.604,1240.463,427.809z M1213.005,592.753
		c-4.546-3.56-9.02-7.365-16.616-7.731C1202.808,588.009,1207.907,590.381,1213.005,592.753z M1156.267,308.823
		c4.726,3.13,9.451,6.261,14.177,9.391C1166.748,313.46,1161.853,310.595,1156.267,308.823z M1182.311,302.017
		c0.79,5.284,2.566,10.172,5.233,14.728C1186.943,311.417,1184.665,306.688,1182.311,302.017z M1221.142,837.69
		c3.223,3.875,7.32,6.484,11.771,8.58C1229.691,842.394,1225.335,840.161,1221.142,837.69z"/>
	<path fill="FRAME_COLOR" d="M194.548,838.552c0.636,0.461,1.748,0.85,1.831,1.395c0.524,3.434,1.173,6.726,4.879,8.199
		c1.856,0.738,1.324,1.821,0.8,3.174c-0.697,1.799-1.99,3.447-1.763,5.877c1.324-1.829,2.466-3.408,4.176-5.772
		c0.148,5.144,7.52,1.043,6.527,7.337c1.443-1.456,0.768-3.93,2.872-3.867c1.654,0.049,1.704,1.793,2.179,2.982
		c1.358,3.403,2.579,6.866,4.077,10.205c8.09,18.034-2.114,36.334-15.766,46.914c-1.625,1.26-2.512,0.663-2.567-1.144
		c-0.045-1.481,0.206-2.999,0.524-4.457c1.244-5.709,0.984-11.207-1.653-16.556c-2.398-4.863-3.429-10.069-3.744-15.832
		c-0.993,1.951-1.976,3.908-2.982,5.853c-6.076,11.741-14.691,16.689-27.735,14.93c-12.552-1.692-25.007-4.068-37.757-2.4
		c-0.404,0.053-0.865-0.328-2.029-0.808c10.395-6.441,11.344-16.36,12.017-26.941c1.236-19.435,12.738-31.609,34.376-37.722
		c3.614-1.021,7.365-1.562,11.463-2.409c-9.082-6.417-18.116-11.578-29.627-9.508c-4.303,0.774-7.872,2.526-10.728,5.806
		c-0.798,0.917-1.513,1.917-1.086,3.131c0.579,1.644,2.156,1.326,3.422,1.298c3.823-0.083,6.816-2.525,10.248-3.729
		c1.96-0.687,4.31-2.173,5.756,0.483c1.303,2.392,0.124,4.743-1.922,6.109c-7.724,5.156-15.869,9.37-25.593,8.157
		c-10.581-1.32-14.624-8.086-11.037-18.176c2.721-7.656,8.685-11.934,15.783-15.047c5.416-2.376,11.293-3.208,16.926-5.212
		c-3.996-1.583-8.05-0.965-12.049-0.745c-11.164,0.614-15.372-2.071-19.262-12.491c-1.466-3.926-2.658-8.023-2.71-12.152
		c-0.2-15.969-2.397-31.882-1.224-47.897c0.249-3.396,1.875-3.888,4.496-3.484c3.152,0.487,4.767-0.551,5.621-3.842
		c1.336-5.145,3.354-10.109,4.961-15.188c1.671-5.282,0.673-9.829-3.927-13.343c-5.845-4.465-9.781-10.321-12.626-17.07
		c-1.878-4.453-4.558-8.243-10.576-6.942c2.201-3.175,3.228-3.487,8.975-2.925c12.456,1.22,17.591,5.983,25.809,24.303
		c2.765-15.04,2.13-29.244-2.466-43.298c-3.966-12.127-10.92-22.402-19.288-31.812c-3.147-3.539-7.07-6.044-11.716-7.321
		c-1.979-0.544-3.871-0.649-5.884-0.039c-1.33,0.403-2.485,2.55-3.911,1.16c-1.337-1.303-0.225-3.19,0.226-4.726
		c3.047-10.379,12.693-14.668,22.57-9.788c9.919,4.901,16.206,13.427,18.299,23.81c3.995,19.815,11.535,39.092,10.139,59.831
		c-0.017,0.249,0.264,0.517,0.752,1.411c5.299-9.9,8.39-20.113,11.331-30.448c2.073-7.286,0.673-13.311-3.259-19.742
		c-9.989-16.336-19.236-33.119-27.789-50.27c-11.694-23.449-18.504-48.074-18.001-74.558c2.229-0.713,2.283,2.519,4.727,2.584
		c-1.285-12.745,2.759-25.295,0.916-37.943c2.727,1.734,2.727,1.734,6.065,9.373c4.154-16.504,10.617-31.93,11.407-48.754
		c0.439-9.337-0.982-17.654-11.332-21.92c7.997-1.717,16.697,3.957,19.575,12.321c2.506,7.282,2.5,14.717,0.948,22.198
		c-0.47,2.263-0.894,4.536-1.317,6.689c0.682,0.596,1.042,0.269,1.284-0.127c5.373-8.809,11.275-17.293,15.847-26.592
		c1.662-3.381,2.582-6.853,2.765-10.536c0.643-12.987,0.905-25.979,0.223-38.976c-0.15-2.859-0.652-5.628-1.726-8.274
		c-1.913-4.715-4.157-9.123-10.732-9.628c4.92-4.023,9.236-2.065,14.363-0.065c0-2.823-0.034-5.226,0.006-7.628
		c0.269-16.165,0.238-32.324-0.512-48.482c-0.113-2.427-0.909-3.99-2.744-5.458c-3.942-3.152-8.056-5.842-13.029-7.146
		c-3.215-0.843-6.376-1.981-9.156-3.904c-5.482-3.791-7.044-10.677-3.755-16.366c1.253-2.168,2.241-3.272,3.934-0.122
		c3.61,6.716,9.55,10.415,17.057,10.326c6.785-0.08,12.457,1.533,16.638,6.861c1.737-0.88,1.029-2.193,1.247-3.25
		c0.302-1.464-0.887-3.976,1.418-4.084c2.019-0.094,5.074,1.243,4.625,3.601c-1.747,9.166,5.847,14.923,7.623,22.469
		c3.507,14.903,12.683,28.272,11.947,44.27c-0.018,0.386,0.408,0.792,1.049,1.953c2.701-10.092,5.437-19.5,9.724-28.202
		c4.63-9.399,1.62-19.277,3.082-29.005c2.318,4.037,4.349,8.017,7.417,12.187c5.228-11.923,9.618-23.412,9.925-36.232
		c5.043,7.829,6.615,16.463,6.512,25.439c-0.104,9.075-4.727,16.84-7.739,25.468c14.678-16.046,32.775-20.756,53.558-17.396
		c-0.199,2.369-1.951,2.042-3.05,2.487c-3.269,1.326-6.72,2.561-8.771,5.522c-10.762,15.535-26.915,24.149-42.786,32.858
		c-9.807,5.382-16.505,13.138-22.175,22.461c1.967,0.775,3.192-0.684,4.616-1.214c7.043-2.618,13.99-2.778,20.838,0.607
		c4.753,2.349,8.236,5.722,8.525,11.374c0.311,6.088-2.652,10.507-7.515,13.786c-2.387,1.61-5.134,2.344-7.979,2.702
		c-3.294,0.414-6.144,1.012-3.315-4.103c2.32-4.195-1.181-8.916-6.369-9.495c-8.612-0.961-19.16,4.876-23.038,12.55
		c-2.628,5.201-5.051,10.596-8.385,15.326c-3.952,5.608-4.503,11.41-3.204,17.998c4.87-1.617,9.578-3.68,14.707-4.351
		c18.553-2.425,33.324,11.307,31.116,29.002c-1.275,10.22-10.757,17.809-20.788,16.639c-5.409-0.631-9.238-3.694-10.607-8.486
		c-2.035-7.124,2.169-11.53,9.655-10.078c0.247,1.573-1.242,1.749-2.018,2.488c-1.207,1.148-2.778,2.369-1.326,4.13
		c1.203,1.458,2.955,1.142,4.595,0.389c6.326-2.905,6.767-13.117,0.778-18.376c-5.435-4.773-18.915-5.36-24.729-1.199
		c-1.84,1.317-1.031,3.009-1.011,4.541c0.208,15.329,0.366,30.66,0.832,45.982c0.13,4.271-1.224,6.932-5.937,8.261
		c0.37-18.272,0.572-36.432-0.216-54.879c-3.989,1.396-5.525,3.319-5.453,7.215c0.28,14.994-0.089,30.002,0.331,44.989
		c0.157,5.603-1.065,9.714-6.847,12.22c0-18.122,0-36.222,0-55.798c-20.594,20.218-30.745,44.018-34.995,70.477
		c-5.332,33.189,9.277,60.969,25.18,88.257c-4.706-17.086-9.468-34.123-11.624-51.786c-2.17-17.777,0.797-35.465,0.482-53.297
		c5.536,9.594,9.849,19.456,9.253,31.146c3.784-13.373,9.885-24.999,21.796-32.925c11.657-7.757,24.93-9.861,38.79-12.942
		c-1.168,2.699-2.929,3.012-4.301,3.786c-5.367,3.03-9.637,7.055-12.22,12.767c-2.431,5.376-5.95,9.984-10.163,14.11
		c-11.155,10.925-18.744,24.149-24.45,38.523c-3.389,8.537-4.098,17.421-3.048,26.531c1.486,12.883,4.444,25.443,7.968,37.969
		c0.881-25.028-5.259-50.273,2.624-74.99c0.618,21.06,1.272,42.071,4.624,64.157c3.379-19.497,3.017-37.856,2.393-56.226
		c-0.147-4.33,0.016-8.692-0.461-12.984c-0.584-5.262,0.925-9.467,5.936-13.521c-1.541,25.214,4.908,49.687-0.866,74.297
		c4.368-4.526,5.616-10.131,6.72-15.786c0.287-1.469,0.571-2.965,0.602-4.453c0.35-16.686,12.054-25.472,23.781-34.238
		c0.331-0.248,0.898-0.182,1.954-0.367c-2.563,5.257-2.155,10.567-2.234,15.811c-0.104,6.899-3.524,12.366-7.398,17.66
		c-1.067,1.458-2.182,2.881-3.097,4.941c7.388-7.598,16.357-6.212,25.285-5.186c3.002,0.345,5.899-0.461,9.117-1.099
		c-4.895,6.155-8.466,13.224-15.472,17.471c-6.937,4.205-14.997,3.651-22.696,5.768c7.142,1.199,11.723,5.472,15.26,11.171
		c0.624,1.006,1.544,2.039,0.847,3.175c-1.017,1.658-1.946,0.136-2.839-0.376c-1.085-0.622-1.856-0.12-2.671,0.563
		c-3.413,2.86-6.078,1.363-8.566-1.459c-2.628-2.98-5.197-6.982-9.608-6.132c-4.871,0.939-5.875,5.86-7.232,9.975
		c-2.188,6.633-2.784,13.703-5.336,20.619c6.426-7.082,13.847-12.12,23.59-12.901c13.154-1.054,17.832,1.19,22.845,11.339
		c-1.112,1.065-1.843-0.14-2.502-0.582c-4.581-3.074-9.365-3.234-14.257-1.03c-13.977,6.296-26.676,14.317-36.091,26.799
		c-0.896,1.188-1.117,2.194-1.084,3.594c0.152,6.329,0.176,12.662,0.198,18.993c0.005,1.281,0.554,2.919-0.766,3.7
		c-1.523,0.901-3.252,2.415-4.965,1.805c-1.552-0.552-0.765-2.639-0.809-4.039c-0.105-3.313-0.034-6.631-0.034-10.258
		c-2.111,0.789-2.1,2.712-2.836,4.03c-8.893,15.931-15.857,32.645-19.946,50.464c-0.743,3.239-1.88,4.207-5.013,2.629
		c-2.215-1.116-4.631-1.886-7.024-2.584c-4.672-1.363-7.48,0.942-7.137,5.821c0.22,3.134,1.786,5.71,3.904,7.911
		c4.569,4.748,5.634,10.367,5.915,16.876c0.661,15.336,7.134,31.095,24.428,34.043c15.868,2.705,27.66,11.684,36.1,25.269
		c0.86,1.384,2.162,2.504,3.314,3.692c0.586,0.604,1.506,1.329,0.855,2.05c-3.903,4.326-1.128,10.679-4.687,15.065
		c-6.661-1.072-9.132,5.125-13.643,7.782C186.144,844.933,189.241,839.827,194.548,838.552z M189.084,320.967
		c-0.146,24.667-2.611,49.069-7.748,74.267C197.03,375.36,203.371,345.322,189.084,320.967z M170.935,298.85
		c0.119,30.177,0.079,59.846,4.536,89.316c0.731-5.291,1.237-10.579,1.481-15.879c0.925-20.142-0.409-40.247-0.932-60.369
		C175.893,307.04,175.327,302.747,170.935,298.85z M163.166,530.195c5.305-9.57,10.883-18.949,18.866-26.639
		C172.962,510.483,166.301,519.102,163.166,530.195z M225.225,366.551c6,2.263,9.791,5.951,7.53,14.213
		C238.532,373.292,235.011,367.577,225.225,366.551z M255.733,309.644c-7.855,3.087-14.349,7.726-19.697,13.902
		C242.601,318.912,249.167,314.278,255.733,309.644z M208.3,354.049c4.178-6.138,6.744-13.005,9.264-19.893
		C213.704,340.438,210.148,346.857,208.3,354.049z M216.888,585.193c-6.63,0.423-11.279,2.465-16.183,7.262
		C206.374,589.424,211.755,588.573,216.888,585.193z M190.061,834.669c-4.468,1.888-8.937,3.775-13.405,5.663
		C182.087,840.646,186.362,838.091,190.061,834.669z M172.885,427.177c2.696-1.98,8.673-2.347,5.556-8.781
		C176.303,421.776,174.594,424.477,172.885,427.177z"/>
	<path fill="FRAME_COLOR" d="M191.123,803.306c-1.79-1.871-2.732-2.856-4.104-4.291c0.788,4.116,3.693,6.377,4.543,9.969
		c-0.854-0.747-1.776-1.431-2.553-2.252c-7.367-7.788-16.096-13.417-26.411-16.406c-14.812-4.292-20.692-15.8-22.317-29.504
		c-1.081-9.116-3.119-17.235-9.194-24.201c-0.952-1.091-2.976-2.471-1.421-4.179c1.269-1.394,2.769,0.299,4.047,0.824
		c11.699,4.81,23.103,3.914,34.273-1.649c3.426-1.706,6.695-3.741,10.171-5.332c9.105-4.169,22.503-0.835,23.056,13.359
		c0.192,4.936,2.184,9.864-1.961,14.422c-1.729,1.901-1.631,5.111-0.607,7.699c4.027,10.177,2.795,20.602,1.85,31.076
		c-0.653,7.238-0.36,14.475,1.92,21.528c0.293-10.083-0.247-20.188,1.713-30.129c1.302-6.605,1.337-13.016-0.114-19.717
		c-2.415-11.151,5.319-19.301,16.834-17.842c4.629,0.586,8.04,0.314,10.472-4.021c0.516-0.92,1.838-2.042,2.73-1.993
		c6.268,0.342,11.196-3.511,16.837-5.046c2.973-0.809,5.988-0.156,8.866,0.717c1.88,0.57,4.552,1.122,4.784,3.102
		c0.269,2.297-2.715,1.721-4.178,2.527c-5.499,3.033-6.59,8.124-6.493,13.641c0.146,8.265-0.292,16.491-4.464,23.777
		c-7.881,13.766-16.59,26.96-29.389,36.856c-0.967,0.748-2.366,1.155-2.827,3.161c4.981-2.157,8.569-5.541,12.197-8.851
		c9.32-8.502,16.405-18.852,23.256-29.266c6.797-10.332,15.479-16.147,27.851-18.999c8.896-2.051,16.404-2.095,24.469,1.416
		c4.015,1.748,8.455,1.462,12.595,1.064c0.725,0.981,0.223,1.403-0.297,1.819c-8.889,7.108-10.04,18.136-2.49,26.677
		c3.744,4.235,6.927,8.533,6.866,14.479c-0.053,5.213-1.135,6.129-6.318,5.602c-3.862-0.393-7.625,0.646-10.085,3.447
		c-12.609,14.354-29.99,17.679-47.399,21.043c-8.358,1.615-16.758,2.6-25.314,2.111c-3.933-0.225-5.957-1.87-6.652-5.807
		c-2.034-11.519-9.703-16.641-21.428-14.336c-2.522,0.496-3.635-0.213-4.342-2.587c-1.81-6.085-3.042-12.256-3.555-18.587
		c-0.211-2.607,0.302-5.32-1.128-8.378c-0.988,5.583-0.584,10.595,0.383,17.044c-4.832-11.407-7.485-22.05-11.34-32.29
		C184.176,784.706,189.878,793.023,191.123,803.306z M262.96,815.497c-12.044,2.887-23.403,7.372-34.724,11.97
		C240.544,825.465,252.029,821.117,262.96,815.497z M238.013,817.985c8.044-2.032,18.056-10.087,21.344-16.645
		C252.568,806.993,246.41,812.909,238.013,817.985z M207.086,810.64c3.115-6.461,4.882-13.394,6.419-20.398
		C210.111,796.623,207.925,803.386,207.086,810.64z M231.573,833.475c3.614,1.248,7.21,1.525,10.631,0
		C238.66,833.475,235.116,833.475,231.573,833.475z"/>
	<path fill="FRAME_COLOR" d="M1148.478,740.134c6.049-5.315,14.297-6.042,19.981-2.271c0.415,0.275,0.759,0.751,1.207,0.871
		c6.288,1.684,13.177,1.975,17.351,8.334c0.408,0.622,3.132-0.265,4.779-0.469c12.39-1.535,20.184,6.94,17.345,19.027
		c-1.161,4.944-1.449,9.768-0.452,14.813c2.2,11.133,3.056,22.405,2.457,33.803c2.29-4.747,2.129-9.849,2.151-14.839
		c0.02-4.48-0.538-8.969-0.959-13.443c-0.722-7.669-1.146-15.254,2.017-22.618c1.425-3.318,1.416-6.911-0.462-10.139
		c-4.485-7.708-1.71-15.214,1.377-22.139c2.918-6.548,11.992-8.288,19.858-4.815c3.344,1.477,6.538,3.3,9.77,5.022
		c11.436,6.092,23.163,6.556,35.214,1.996c1.237-0.468,2.74-2.164,3.974-0.395c1.141,1.636-0.613,2.768-1.569,3.737
		c-6.079,6.165-8.355,13.6-8.736,22.16c-0.738,16.578-8.422,26.455-24.171,31.8c-8.334,2.829-15.807,6.955-22.205,13.028
		c-1.262,1.198-2.334,2.729-4.834,3.389c2.232-4.647,4.257-8.863,6.891-14.346c-3.513,2.794-3.859,6.028-6.79,7.82
		c1.202-4.116,2.273-8.277,3.641-12.336c1.425-4.225,2.72-8.452,2.958-12.962c-4.662,9.449-5.768,20.098-10.092,30.309
		c-0.807-5.087,0.456-9.745-1.677-14.117c-0.281,8.589-0.728,17.097-3.677,25.24c-0.741,2.045-1.136,2.581-4.055,2.937
		c-15.623,1.906-22.624-9.664-31.054-18.802c-4.137-4.485-7.126-10.024-10.672-15.061c-5.547-7.88-8.412-16.565-8.005-26.256
		c0.035-0.831-0.011-1.666,0.008-2.498C1160.238,748.891,1158.094,742.353,1148.478,740.134z M1200.351,790.925
		c1.585,7.506,3.487,14.914,7.028,21.812C1206.248,805.088,1203.54,797.932,1200.351,790.925z"/>
	<path fill="FRAME_COLOR" d="M1095.539,765.121c8.525,1.146,15.949-2.439,23.651-4.802c1.544-0.474,3.39-0.713,4.925-0.346
		c15.153,3.63,29.696,7.606,38.493,22.85c7.304,12.657,16.34,24.367,28.52,33.082c2.385,1.706,4.808,3.358,7.883,5.502
		c-8.313,1.607-10.897,7.104-11.587,13.987c-0.301,3.003-1.931,4.453-4.879,4.569c-2.162,0.085-4.335,0.37-6.485,0.248
		c-16.898-0.962-33.27-4.598-49.187-10.218c-5.738-2.026-10.236-6.112-14.65-10.223c-4.591-4.276-9.339-8.182-16.39-5.484
		c-1.83,0.7-2.566-1.041-2.996-2.498c-1.295-4.392-0.766-8.602,1.694-12.458c1.158-1.815,2.581-3.47,3.971-5.124
		C1106.982,784.106,1105.932,773.817,1095.539,765.121z M1149.731,814.496c11.079,6.456,22.798,10.757,35.195,13.132
		c-7.549-3.357-15.246-6.312-22.994-9.129C1157.911,817.038,1153.801,815.823,1149.731,814.496z M1176.849,818.919
		c-8.722-5.511-15.44-11.604-22.476-17.292C1158.95,808.8,1169.176,816.816,1176.849,818.919z"/>
	<path fill="FRAME_COLOR" d="M1078.336,130.706c-4.686,1.559-8.885,3.941-12.457,7.381c-0.805,1.693-2.433,2.28-3.984,2.971
		c-11.352,6.884-20.206,16.786-30.121,25.372c-5.553,4.808-5.662,12.114-3.834,19.117c4.351,16.671,23.524,31.23,40.72,30.614
		c9.232-0.331,16.913-3.923,21.026-12.743c3.589-7.696,0.302-15.374-7.26-17.829c-5.202-1.689-8.017,0.406-8.282,6.564
		c2.128-0.438,5.085-3.459,5.908,1.117c0.646,3.591-0.648,6.217-4.327,7.328c-6.154,1.858-13.412-3.841-13.675-11.015
		c-0.26-7.086,2.663-12.609,9.084-15.968c14.93-7.811,33.049,3.568,33.773,21.182c0.693,16.86-13.225,32.019-31.402,34.202
		c-35.11,4.217-65.95-32.369-55.763-66.152c0.096-0.319,0.118-0.669,0.261-0.963c9.453-19.457,21.636-36.496,42.989-44.083
		c14.809-5.262,29.99-5.843,44.922,0.293c1.679,0.69,4.049,1.252,3.768,3.371c-0.273,2.057-2.714,1.345-4.228,1.527
		c-7.763,0.934-15.625,1.376-22.815,4.916c-1.596,0.786-3.506,1.156-4.457,2.943L1078.336,130.706z M1065.353,126.399
		c-10.702,3.62-17.426,11.841-23.755,20.517C1049.466,140.025,1055.592,131.09,1065.353,126.399z"/>
	<path fill="FRAME_COLOR" d="M1203.131,742.635c-8.059,0.581-12.74-3.018-16.857-8.947c-9.119-13.134-22.882-17.653-38.131-18.545
		c-7.455-0.436-14.427-2.295-21.029-5.754c-4.39-2.3-8.877-4.371-14.266-3.509c13.297-8.041,26.772-14.942,43.365-10.288
		c-5.871-5.092-12.252-9.658-16.929-15.98c-4.923-6.654-8.315-14.045-10.249-22.055c-1.886-7.809-1.575-15.716-0.359-23.886
		c6.84,9.715,17.331,14.914,25.804,22.461c7.869,7.008,12.144,16.127,15.298,25.928c1.304,4.051,2.788,8.045,5.018,11.8
		c-0.613-3.913-1.249-7.822-1.836-11.738c-1.656-11.054-1.082-21.904,2.725-32.524c1.303-3.635,1.538-7.487,1.269-11.355
		c-0.052-0.749-0.404-1.745,0.653-2.15c0.916-0.351,1.595,0.289,2.184,0.835c3.457,3.206,6.155,6.984,8.297,11.171
		c6.472,12.658,8.343,26.059,5.19,39.826c-3.298,14.398-3.415,28.33,2.71,42.051C1197.95,734.369,1200.193,738.568,1203.131,742.635
		z M1183.584,715.232c-11.443-17.411-25.574-32.82-37.307-50.019C1156.095,683.814,1171.035,698.645,1183.584,715.232z
		 M1184.962,671.545c-3.894,5.829-2.965,12.43-3.149,18.854C1182.863,684.114,1183.913,677.829,1184.962,671.545z"/>
	<path fill="FRAME_COLOR" d="M209.896,743.112c5.712-6.92,8.629-14.275,10.961-21.953c2.842-9.356,2.486-18.66,0.502-28.115
		c-3.254-15.504-3.244-30.761,4.432-45.24c1.964-3.704,4.255-7.151,7.296-10.057c0.813-0.777,1.558-2.117,2.825-1.677
		c1.524,0.529,0.63,2.017,0.593,3.056c-0.118,3.367,0.092,6.726,1.329,9.839c5.407,13.615,3.822,27.464,1.626,41.355
		c-0.179,1.13-0.339,2.263-0.684,4.57c2.234-2.997,2.82-5.437,3.391-7.85c3.766-15.904,11.958-28.604,25.872-37.692
		c6.341-4.141,12.26-9.101,16.94-17.025c2.322,13.494,0.751,25.113-4.219,36.436c-4.986,11.36-13.733,19.389-23.403,26.924
		c16.891-5.279,30.377,2.064,43.693,10.425c-5.418-1.203-10.029,0.626-14.381,3.171c-7.887,4.613-16.692,5.493-25.451,6.415
		c-14.72,1.549-26.548,7.891-35.38,19.932C221.522,741.512,221.281,741.335,209.896,743.112z M270.496,660.444
		c-13.374,18.87-27.946,36.963-41.225,55.993C243.687,698.294,258.933,680.765,270.496,660.444z M229.128,671.932
		c0.961,6.107,1.922,12.214,2.883,18.321C232.273,683.928,232.519,677.611,229.128,671.932z M266.207,702.702
		c-4.94-0.799-9.504,0.54-13.714,3.311C257.064,704.91,261.636,703.806,266.207,702.702z"/>
	<path fill="FRAME_COLOR" d="M347.982,138.026c-6.115-5.278-13.083-9.147-20.628-11.868c-7.477-2.696-15.625-2.255-23.978-4.109
		c4.268-4.691,9.328-5.983,14.316-6.799c27.498-4.496,49.795,4.391,66.596,26.663c2.841,3.766,5.306,7.845,7.663,11.942
		c10.069,17.5,6.619,34.343-3.069,50.579c-12.56,21.049-36.569,29.834-58.578,21.784c-13.755-5.031-22.404-17.831-21.635-32.019
		c0.826-15.235,15.354-26.056,29.689-22.114c8.663,2.382,13.819,9.713,12.879,18.31c-0.671,6.138-6.033,10.939-11.888,10.486
		c-3.742-0.289-6.399-2.012-6.427-6.17c-0.025-3.801,2.158-4.854,5.541-2.808c0.574-4.959-1.364-7.116-6.141-6.839
		c-6.856,0.398-11.598,7.492-10.039,15.019c1.728,8.343,9.957,14.846,20.192,15.958c20.229,2.197,42.24-15.596,44.082-35.818
		c0.483-5.302-0.696-10.584-4.678-14.267c-8.548-7.906-17.464-15.417-26.286-23.023c-1.112-0.959-2.565-1.522-3.861-2.268
		C350.483,139.785,349.232,138.906,347.982,138.026z M370.572,145.323c-6.945-9.565-14.578-18.25-26.949-20.863
		C355.146,128.159,362.265,137.501,370.572,145.323z"/>
	<path fill="FRAME_COLOR" d="M782.905,892.208c-1.483,4.556-3.356,6.931-8.775,6.651c-43.937-2.267-87.895-2.078-131.848-0.242
		c-2.163,0.09-4.341,0.384-6.485,0.224c-3.418-0.255-4.221-3.548-4.49-5.764c-0.245-2.021,2.643-1.025,4.076-1.081
		c48.285-1.886,96.572-1.862,144.857,0.022C781.023,892.049,781.804,892.128,782.905,892.208z"/>
	<path fill="FRAME_COLOR" d="M195.924,709.536c-1.418-1.323-2.308-2.299-3.342-3.087c-1.96-1.495-4.102-1.072-6.17-0.256
		c-2.052,0.81-1.575,2.686-1.598,4.295c-0.033,2.329-0.107,4.665,0.029,6.987c0.179,3.059-2.274,3.154-4.027,3.217
		c-2.648,0.095-1.186-2.094-1.194-3.291c-0.017-2.473,0.189-4.948,0.32-7.778c-4.745,1.098-7.419,3.125-7.01,8.176
		c0.233,2.88,0.594,6.176-3.018,7.718c-1.03,0.44-1.915,1.685-3.138,1.081c-1.301-0.642-0.655-2.051-0.719-3.136
		c-0.076-1.306-0.018-2.619-0.018-4.354c-4.256,2.17-5.914,6.036-8.026,9.481c-0.842,1.374-0.96,3.352-2.956,3.706
		c-1.646,0.292-4.298,1.348-3.36-2.057c2.464-8.944,2.195-18.541,6.711-27.002c3.784-7.091,8.787-12.528,17.108-13.914
		C187.547,687.316,198.229,697.459,195.924,709.536z M183.719,696.54c-8.606-1.658-15.04,2.254-18.256,11.236
		C170.752,702.296,175.27,696.273,183.719,696.54z"/>
	<path fill="FRAME_COLOR" d="M1217.212,709.516c-1.192-8.66,1.91-14.278,8.498-18.015c6.939-3.937,13.848-3.291,20.24,1.155
		c8.357,5.813,11.907,14.497,13.404,24.189c0.609,3.943,0.891,7.925,2.256,11.739c0.448,1.253,1.48,3.125-0.451,3.945
		c-1.996,0.847-3.602-0.482-4.569-2.133c-2.018-3.449-3.844-7.01-6.743-9.847c-0.583-0.571-1.196-1.11-2.12-1.964
		c-1.467,2.805,0.353,5.784-1.207,8.292c-5.002-0.962-6.847-4.175-6.316-8.962c0.484-4.359-1.527-6.863-5.972-8.354
		c-0.879,2.729,0.038,5.316-0.127,7.828c-0.085,1.289,0.884,3.431-1.509,3.368c-1.901-0.05-4.099-0.472-3.91-3.394
		c0.128-1.991,0.093-3.997,0.027-5.993c-0.068-2.082,0.545-4.531-2.288-5.432c-2.373-0.755-4.59-0.56-6.48,1.295
		C1219.284,707.88,1218.523,708.427,1217.212,709.516z M1229.273,696.651c8.731-0.096,13.916,5.613,19.652,12.605
		C1244.742,698.825,1237.351,694.31,1229.273,696.651z"/>
	<path fill="FRAME_COLOR" d="M621.183,880.318c57.171,0,113.893,0,171.125,0c-2.174,3.873-4.612,5.686-9.094,5.642
		c-39.652-0.388-79.289-2.869-118.962-0.752c-10.977,0.586-22.002,0.266-32.981,0.823
		C626.697,886.263,623.533,885.02,621.183,880.318z"/>
	<path fill="FRAME_COLOR" d="M222.852,835.872c-0.856,5.344-0.366,10.965-6.652,12.609c-3.111,0.814-6.438,1.513-8.897-1.652
		c-1.765-2.271-4.082-3.614-5.3-6.94c-2.064-5.634,0.534-10.065,1.357-14.89c0.645-3.781,4.029-1.733,6.275-1.535
		C216.67,824.085,222.567,831.193,222.852,835.872z"/>
	<path fill="FRAME_COLOR" d="M1212.792,832.948c1.405,7.46-4.188,11.411-8.133,15.891c-1.521,1.726-5.04,0.463-6.726-0.034
		c-5.037-1.486-9.439-11.069-6.553-15.087c1.802-2.508,2.884-6.05,6.166-7.752c3.615-1.875,7.325-3.062,11.337-3.33
		c1.127-0.075,1.748,0.915,1.993,1.904C1211.566,827.33,1212.16,830.144,1212.792,832.948z"/>
	<path fill="FRAME_COLOR" d="M1202.766,210.684c-9.659-1.063-14.077-6.771-14.001-15.216c0.047-5.235,3.127-5.904,6.672-5.355
		c3.569,0.552,7.169,1.844,10.389,3.517c5.571,2.896,7.191,13.004,2.926,16.082C1206.861,211.077,1204.848,210.984,1202.766,210.684
		z"/>
	<path fill="FRAME_COLOR" d="M1228.665,650.514c2.877,2.339,4.265,4.957,4.329,8.371c0.14,7.481,0.4,14.959,0.627,22.438
		c0.063,2.077,0.176,4.101-2.775,4.236c-3.366,0.153-2.107-2.416-2.123-3.869C1228.613,671.451,1228.665,661.211,1228.665,650.514z"
		/>
	<path fill="FRAME_COLOR" d="M184.772,650.686c0,11.092-0.009,21.694,0.009,32.295c0.003,1.792-0.564,2.862-2.601,2.713
		c-1.981-0.145-2.407-1.279-2.367-3.034c0.178-7.659,0.273-15.32,0.419-22.98C180.3,656.113,182.135,653.423,184.772,650.686z"/>
	<path fill="FRAME_COLOR" d="M156.865,323.477c-0.465,3.175-2.442,5.474-6.402,5.524c-3.885,0.049-6.731-2.777-6.694-6.438
		c0.038-3.764,2.955-6.575,6.68-6.437C154.203,316.264,157.018,319.215,156.865,323.477z"/>
	<path fill="FRAME_COLOR" d="M1269.735,322.871c-0.097,3.49-3.508,6.634-7.054,6.244c-3.824-0.42-6.055-2.646-6.174-6.572
		c-0.111-3.663,3.015-6.588,6.735-6.51C1266.908,316.111,1269.837,319.196,1269.735,322.871z"/>
	<path fill="FRAME_COLOR" d="M1061.894,141.058c1.552-0.691,3.18-1.278,3.984-2.971c6.957,0.062,13.914,0.116,20.871,0.193
		c1.378,0.015,2.797,0.144,2.698,2.052c-0.079,1.524-0.849,2.433-2.525,2.4c-8.111-0.161-16.222-0.286-24.331-0.492
		C1062.349,142.233,1062.126,141.469,1061.894,141.058z"/>
	<path fill="FRAME_COLOR" d="M347.982,138.026c1.25,0.88,2.501,1.759,3.751,2.639c0.126,2.15-1.495,1.833-2.746,1.859
		c-6.976,0.146-13.952,0.233-20.928,0.364c-1.729,0.032-3.543,0.101-3.63-2.25c-0.101-2.735,2.243-2.017,3.631-2.077
		C334.695,138.274,341.34,138.185,347.982,138.026z"/>
	<path fill="FRAME_COLOR" d="M1010.77,141.388c1.807-5.584,3.373-4.752,19.363-3.958C1028.31,142.736,1024.757,143.462,1010.77,141.388z"/>
	<path fill="FRAME_COLOR" d="M403.425,141.863c-5.3,0-10.067-0.097-14.827,0.047c-1.919,0.058-3.108-0.728-4.08-2.177
		c-0.893-1.331-1.182-2.565,0.976-2.652c4.278-0.173,8.568-0.383,12.841-0.229C400.797,136.941,402.467,138.558,403.425,141.863z"/>
	<path fill="FRAME_COLOR" d="M1078.181,130.851c4.544-0.843,9.12-1.034,13.959-0.896c-0.318,2.938-1.613,4.238-4.456,4.053
		c-2.636-0.172-5.288-0.074-7.929-0.188c-2.356-0.102-2.996-1.121-1.428-3.106C1078.336,130.706,1078.181,130.851,1078.181,130.851z
		"/>
	<path fill="FRAME_COLOR" d="M321.883,130.288c3.982,0,7.74-0.109,11.485,0.065c1.16,0.054,3.013,0.277,2.895,1.983
		c-0.106,1.534-1.773,1.049-2.832,1.148c-2.125,0.199-4.278,0.175-6.385,0.48C324.32,134.358,322.613,133.448,321.883,130.288z"/>
	<path fill="FRAME_COLOR" d="M227.635,888.077c0.597,2.952,3.398,4.535,3.925,7.671c-2.456,0.36-5.806,0.681-6.699-0.858
		C223.662,892.826,227.017,890.762,227.635,888.077z"/>
	<path fill="FRAME_COLOR" d="M1186.582,888.266c-0.076,2.727,3.872,4.443,1.907,7.047c-0.822,1.089-4.397,1.429-4.952,0.362
		C1181.919,892.563,1185.505,890.878,1186.582,888.266z"/>
	<path fill="FRAME_COLOR" d="M411.354,128.203c-0.273-1.27,0.413-1.981,1.536-1.985c12.966-0.042,25.933-0.027,38.196-0.027
		c-11.212,6.832-24.098,6.587-37.297,3.756C412.978,129.366,412.166,128.784,411.354,128.203z"/>
	<path fill="FRAME_COLOR" d="M1000.293,129.407c-13.488,4.21-26.385,3.086-38.573-4.828c12.796,0.623,25.592,1.225,38.386,1.889
		c2.33,0.121,2.91,1.204,1.256,3.084C1000.996,129.506,1000.645,129.457,1000.293,129.407z"/>
	<path fill="FRAME_COLOR" d="M469.492,131.513c1.081-6.359,4.77-7.801,10.844-7.564c33.579,1.308,67.175,2.102,100.784,1.016
		c0.802-0.026,1.609,0.096,2.955,0.186c-1.924,3.587-3.787,6.444-8.042,6.559c-35.094,0.948-70.19,1.264-105.288,0.226
		C470.316,131.922,469.894,131.654,469.492,131.513z"/>
	<path fill="FRAME_COLOR" d="M944.689,132.681c-17.922,0-35.653,0.125-53.382-0.036c-17.136-0.156-34.27-0.734-51.406-0.846
		c-4.868-0.032-8.342-1.573-10.479-6.018c0.857-1.533,2.356-0.855,3.537-0.825c33.781,0.866,67.556,0.479,101.307-0.958
		C940.438,123.735,943.502,125.689,944.689,132.681z"/>
	<path fill="FRAME_COLOR" d="M224.714,197.115c-0.117,8.855-9.257,16.236-17.632,14.069c-4.749-1.229-6.438-10.015-2.767-14.4
		c4.312-5.15,10.627-6.244,16.561-6.866C223.995,189.592,225.782,193.257,224.714,197.115z"/>
</g>
</svg>
