<?xml version="1.0" encoding="iso-8859-1"?>
<!-- Generator: Adobe Illustrator 25.0.0, SVG Export Plug-In . SVG Version: 6.00 Build 0)  -->
<svg version="1.1" id="Layer_1" xmlns="http://www.w3.org/2000/svg" xmlns:xlink="http://www.w3.org/1999/xlink" x="0px" y="0px"
	 viewBox="0 0 1394.417 992.966" style="enable-background:new 0 0 1394.417 992.966;" xml:space="preserve">
<g id="_x28_31_x29__1_">
	<path fill="FRAME_COLOR" d="M680.176,135.477c-2.946-13.217,3.596-21.946,10.992-30.464c5.725-6.593,5.581-6.727,10.987-0.14
		c2.745,3.344,5.742,6.474,8.002,10.218c3.731,6.181,4.12,12.88,3.069,20.397c3.052-1.61,5.339-3.521,8.232-4.208
		c6.635-1.576,11.264,1.911,11.457,8.695c0.135,4.77-1.608,8.858-4.794,12.235c-2.621,2.778-5.443,5.414-8.439,7.78
		c-11.214,8.86-15.31,20.873-15.984,35.244c2.037-1.657,1.713-3.53,2.113-5.109c4.205-16.623,13.178-29.196,30.481-33.693
		c14.017-3.643,26.881,2.179,33.839,14.836c1.868,3.399,3.1,2.983,5.864,1.293c7.038-4.302,14.548-4.541,21.973-1.03
		c6.301,2.979,8.24,11.157,4.171,16.574c-1.592,2.119-3.689,3.483-6.42,3.058c-2.706-0.422-4.589-1.919-4.815-4.901
		c-0.265-3.504-2.236-3.094-4.515-1.973c-7.141,3.512-10.126,14.335-6.746,24.451c2.853,8.539,11.39,14.493,18.899,13.182
		c3.996-0.697,4.944-1.398,6.834-5.291c-4.545,1.141-8.989,1.901-10.9-3.631c-1.523-4.411-0.38-8.256,3.342-11.109
		c3.616-2.771,9.569-2.413,13.564,0.569c5.605,4.184,6.284,10.128,5.055,16.208c-0.76,3.762,0.267,4.694,3.659,4.653
		c19.023-0.23,34.95-6.389,45.015-23.605c6.336-10.838,5.166-24.881-2.693-32.448c-4.837-4.657-10.542-7.117-17.311-4.915
		c-6.562,2.134-9.688,7.199-10.857,13.727c-1.286,7.178,3.502,13.793,10.698,14.729c6.509,0.846,10.877-3.344,11.694-11.237
		c0.134-1.292,0.194-2.591,0.314-4.237c3.618,7.561-2.388,19.038-9.032,21.051c-9.336,2.828-18.703-2.255-21.196-12.007
		c-2.523-9.868,1.859-21.054,10.642-27.165c7.901-5.497,17.61-5.162,26.588,0.906c0.383,0.259,0.82,0.436,1.974,1.041
		c-0.214-6.535-0.061-12.569,1.604-18.492c6.269-22.307,20.15-31.865,43.075-29.499c8.125,0.839,15.978,2.889,24.337,5.62
		c0-4.475,0-8.37,0-13.737c6.4,8.819,14.791,12.61,22.609,17.197c7.87,4.617,13.626,11.028,17.324,19.416
		c2.844,6.451,5.93,12.812,10.631,18.391c-6.325-13.474-6.367-27.42-3.674-41.547c0.602-3.159,1.429-6.39,3.971-9.714
		c2.595,7.924,7.147,14.073,10.397,20.896c3.896,8.179,4.67,16.94,4.168,25.866c-0.122,2.162-0.343,4.319-0.434,6.482
		c-0.41,9.693,2.697,17.277,11.455,22.711c9.351,5.802,19.087,10.833,28.701,16.118c2.188,1.203,4.471,2.294,5.756,4.612
		c0.403,0.727,0.771,1.524,0.134,2.306c-0.648,0.797-1.441,0.567-2.251,0.242c-2.163-0.867-4.502-1.431-6.476-2.608
		c-7.028-4.191-15.03-2.127-22.457-3.69c-1.348-0.284-2.985-0.014-5.233,1.639c7.442,0.142,13.945,0.823,20.139,3.647
		c-12.661,1.194-21.89,8.507-31.073,16.048c-3.88,3.186-8.689,4.83-13.841,6.593c1.385,1.262,2.711,0.868,3.86,0.873
		c10.832,0.044,21.665,0.117,32.496-0.002c3.476-0.038,5.858-0.071,3.884,4.623c-1.294,3.075-0.833,6.611-0.288,9.9
		c0.551,3.326-0.507,4.321-3.904,4.322c-26.829,0.001-53.66,0.359-80.489,0.273c-100.322-0.322-200.639,0.307-300.959,0.749
		c-85.154,0.375-170.311,0.42-255.464,1.153c-18.828,0.162-37.656,0.573-56.478,1.077c-3.333,0.089-5.144-0.919-6.49-3.947
		c-2.595-5.84-6.981-10.492-11.311-15.681c21.643-3.762,40.332-14.2,59.4-23.752c17.841-8.938,32.24-21.662,43.185-38.336
		c2.583-3.936,5.867-7.243,9.664-10.028c4.025-2.953,8.181-5.744,12.063-8.874c3.903-3.147,6.469-7.465,9.046-12.171
		c5.105,21.82,0.773,34.131-17.746,39.714c-9.799,2.954-11.398,3.948-16.6,9.239c7.301-3.103,13.386-5.791,19.716-7.847
		c25.404-8.249,50.629-9.36,75.58,1.631c2.604,1.147,3.748,0.733,4.587-2.066c1.946-6.495,5.202-12.229,10.675-16.506
		c8.252-6.448,18.334-6.785,27.976-0.878c8.363,5.124,12.35,14.096,10.414,23.979c-0.669,3.415-1.553,6.853-2.871,10.062
		c-3.581,8.719-15.618,12.669-23.734,7.953c-0.927-0.539-2.195-1.007-1.921-2.543c13.651,1.539,21.851-4.678,23.337-18.476
		c0.664-6.164-3.343-10.65-8.017-14.143c-5.506-4.116-11.455-4.065-17.382-0.838c-15.912,8.664-16.079,33.472-0.298,43.474
		c4.87,3.087,10.162,4.888,15.984,5.114c8.887,0.346,17.609-0.571,26.249-2.722c2.538-0.632,3.713-1.315,4.174-4.297
		c1.226-7.925,7.923-12.564,15.479-11.435c6.074,0.908,9.37,5.91,7.98,12.112c-1.064,4.749-4.912,6.347-11.224,4.472
		c0.036,3.423,2.444,4.676,4.953,5.39c3.399,0.968,6.866,0.986,10.271-0.457c11.427-4.843,16.582-21.485,9.782-31.857
		c-1.478-2.254-3.28-4.29-5.848-5.277c-1.857-0.713-4.047-1.572-4.037,2.025c0.007,2.698-1.707,4.243-4.207,4.858
		c-2.749,0.677-4.847-0.429-6.533-2.596c-4.623-5.941-2.245-14.489,5.153-17.277c7.437-2.802,14.763-1.85,21.651,2.037
		c1.707,0.963,2.759,1.977,4.235-0.581c11.19-19.401,38.885-22.566,55.999-1.185c5.06,6.321,8.567,13.461,9.817,21.579
		c0.201,1.303,0.552,2.587,0.91,3.858c0.063,0.223,0.508,0.339,1.132,0.722c-0.586-13.669-4.031-25.781-14.761-34.844
		c-3.435-2.902-7.086-5.585-9.706-9.314c-1.14-1.623-2.3-3.306-3.031-5.13c-2.326-5.805-1.192-11.509,2.591-14.115
		c3.936-2.712,8.895-1.852,14.044,2.414C678.134,134.377,678.582,134.558,680.176,135.477z M980.461,164.136
		c-4.571-3.358-9.961-5.162-15.269-6.969c-13.756-4.683-23.133-13.475-27.088-27.648c-0.724-2.595-2.163-4.256-4.723-5.334
		c-9.552-4.025-19.385-5.953-29.743-4.59c-24.317,3.199-37.434,24.678-28.109,46.707c7.866,18.585,20.295,33.474,37.82,43.887
		c12.959,7.7,27.489,10.605,41.757,14.614c7.9,2.219,11.437-1.642,16.208-6.786c-8.611-0.687-16.758-0.116-24.794-4.385
		c7.02-2.811,11.983-7.244,16.88-11.693c14.008-12.726,29.999-14.749,47.455-9.038c3.92,1.282,7.73,2.902,11.591,4.366
		c-3.012-2.252-6.453-3.677-9.381-5.807c-12.328-8.973-24.851-11.578-40.188-6.694c-16.755,5.335-37.721-4.745-45.64-19.399
		c8.583,0.937,16.795-0.308,24.931-1.99C961.632,161.418,970.969,161.433,980.461,164.136z M339.301,230.873
		c80.298-1.641,160.596-0.443,241.187-1.074c-3.412-6.521-7.452-7.456-13.83-6.135c-12.17,2.522-24.518,1.981-36.368-2.74
		c-12.055-4.803-20.667-12.464-22.876-26.01c-0.838-5.137-5.458-8.255-11.793-8.689c1.298,2.247,2.658,4.333,3.75,6.551
		c2.218,4.506,2.791,9.289,1.29,14.088c-1.186,3.793-3.64,6.452-8.069,5.965c-2.117-0.233-3.946-1.237-1.617-3.459
		c3.658-3.489,3.082-7.541,1.786-11.591c-2.739-8.563-9.328-13.456-17.42-15.81c-21.099-6.138-40.32,0.233-58.881,9.899
		c-0.095,0.049-0.089,0.292-0.224,0.796c2.562-0.56,4.955-1.142,7.371-1.601c7.646-1.451,14.93-0.923,21.416,3.974
		c5.123,3.868,8.32,9.728,14.154,13.063c-8.159,1.69-15.844,4.216-24.097,1.826c0.385,2.625,2.009,4.11,3.099,5.883
		c0.764,1.241,2.437,2.495,1.644,3.92c-0.961,1.727-3.025,0.795-4.535,0.548c-3.517-0.576-6.686-2.084-9.253-4.606
		c-2.137-2.099-4.335-4.18-6.171-6.531c-4.527-5.795-10.227-8.058-17.553-7.085c-4.039,0.536-7.781,1.61-11.422,3.334
		C373.605,213.58,357.313,223.799,339.301,230.873z M876.742,186.913c-1.385,10.927-4.996,19.853-12.006,27.233
		c-6.798,7.157-15.116,11.827-25.433,14.987c33.628,0,66.088,0,98.549,0c-12.076-3.738-23.247-9.059-33.85-15.677
		C893.278,206.763,884.852,197.669,876.742,186.913z M627.706,198.179c7.734-7.71,15.711-9.891,22.435-6.537
		c4.15,2.07,6.224,5.513,5.949,10.096c-0.273,4.564-2.639,7.743-7.078,9.296c-4.47,1.564-6.543-1.356-8.331-4.927
		c-2.07,4.188-2.123,5.896,0.005,9.163c3.764,5.779,9.236,8.549,16.076,8.194c6.8-0.352,12.227-3.24,14.997-9.785
		c4.248-10.038,2.37-19.301-4.441-27.479c-6.504-7.809-18.89-11.127-28.195-7.986c-4.317,1.458-8.335,3.616-11.262,7.107
		c-2.298,2.741,0.439,6.048-0.127,9.112C627.556,195.393,627.706,196.413,627.706,198.179z M763.384,200.047
		c0.187-3.347-0.153-6.086,0.593-8.489c1.038-3.344-0.255-5.227-2.578-7.241c-11.69-10.133-31.697-6.761-39.549,6.937
		c-4.427,7.724-6.136,15.893-1.566,24.241c5.927,10.826,23.876,11.8,29.946,1.638c1.757-2.941,3.054-6.13-0.264-9.936
		c-0.58,3.756-2.197,5.731-5.654,5.732c-3.66,0.001-5.917-2.032-7.436-4.99c-2.061-4.014-2.041-8.077,0.758-11.771
		c3.146-4.15,7.551-5.202,12.487-4.488C755.463,192.455,759.409,195.69,763.384,200.047z M624.03,213.672
		c-3.346,5.848-7.274,10.949-12.989,15.541c6.699,0,12.248,0,18.535,0C625.589,224.446,624.456,219.282,624.03,213.672z
		 M778.949,229.589c-5.551-4.496-8.567-9.578-11.589-14.778c-0.516,5.3-1.843,10.056-4.55,14.778
		C768.151,229.589,772.791,229.589,778.949,229.589z M688.734,217.731c-2.986,3.875-5.963,7.685-10.102,11.091
		C690.576,229.431,689.423,232.153,688.734,217.731z M702.532,217.348c-1.865,11.708,0.427,14.278,9.395,11.18
		C707.884,225.799,706.034,221.366,702.532,217.348z"/>
	<path fill="FRAME_COLOR" d="M1069.235,846.246c9.306-5.84,19.127,1.116,29.708-2.044c-6.774,8.13-14.197,12.87-22.507,16.514
		c-10.908,4.784-22.595,5.412-34.155,6.763c-7.869,0.92-15.415,2.835-22.015,7.41c-4.844,3.358-9.023,7.338-10.377,13.535
		c-2.279-2.802-2.301-2.808-1.548-5.96c2.157-9.031,8.409-15.016,15.553-20.093c6.614-4.701,12.201-10.194,16.505-17.879
		c-7.897,3.043-15.429,5.398-23.373,6.304c-16.204,1.847-31.55-0.202-45.505-9.262c-5.062-3.286-10.758-4.672-16.646-4.526
		c-11.916,0.297-19.784-5.641-25.381-15.49c-2.123-3.735-4.234-7.477-6.831-12.067c11.835,0.657,22.491,2.365,31.408,10.05
		c-3.763-6.925-12.057-12.048-22.719-14.398c-23.33-5.143-45.279,6.78-52.161,28.441c-1.629,5.128-2.846,10.324,1.121,15.163
		c1.101,1.343,0.58,2.839-0.739,3.966c-1.291,1.102-2.653,1.276-4.109,0.325c-3.187-2.083-4.471-5.163-4.927-8.827
		c-0.917-7.376,1.463-14.094,3.822-21.025c-4.912,3.367-8.798,7.675-12.417,12.231c-4.35,5.477-8.414,11.192-12.932,16.525
		c-22.474,26.525-55.585,15.632-70.018-1.398c-4.631-5.464-8.752-11.343-11.142-18.23c-0.403-1.161-0.383-2.359-2.394-2.5
		c-5.823-0.406-8.364-4.67-5.481-9.878c1.615-2.917,0.788-3.794-1.411-5.356c-5.968-4.238-11.549-9.094-19.032-10.598
		c-3.431-0.69-6.708-0.764-8.968,2.509c-0.7,1.013-1.668,2.157,0.711,2.845c5.508,1.591,7.326,4.291,6.27,8.613
		c-1.052,4.305-5.774,7.039-10.594,6.134c-5.302-0.996-8.797-4.925-9.134-10.359c-0.097-1.565-0.015-3.14-0.015-5.129
		c-7.143,8.077-4.677,21.439,3.827,25.789c3.68,1.882,7.053,2.073,9.595-1.824c2.552-3.913,6.019-5.1,10.351-3.489
		c4.669,1.736,6.6,5.411,6.554,10.172c-0.101,10.545-9.727,17.587-20.701,14.794c-11.428-2.909-19.127-10.339-23.681-21.113
		c-0.494-1.169-0.403-2.623-1.968-3.497c0.031,5.417,1.339,10.288,3.589,15.018c6.733,14.156,4.428,27.135-5.385,39.041
		c-0.53,0.643-1.051,1.306-1.666,1.861c-2.674,2.412-3.782,7.714-6.888,7.656c-2.245-0.042-4.33-4.946-6.606-7.579
		c-11.068-12.805-14.439-26.668-6.255-42.359c2.08-3.987,3.159-8.369,3.225-13.16c-1.895,0.683-1.679,2.324-2.158,3.483
		c-5.203,12.61-17.667,21.557-29.502,21.109c-9.133-0.346-15.694-7.661-14.777-16.55c0.472-4.573,2.841-7.858,7.267-9.214
		c4.166-1.277,7.327,0.319,9.895,3.852c2.786,3.832,6.137,4.105,10.35,1.384c8.901-5.749,8.717-20.203,2.068-26.248
		c0.71,3.584,0.873,6.811-0.352,9.957c-2.191,5.624-9.246,8.343-14.553,5.455c-3.224-1.755-4.944-4.585-4.286-8.28
		c0.557-3.123,1.988-5.672,5.901-5.473c3.309,0.169,2.229-1.77,1.167-3.102c-1.663-2.086-4.025-2.852-6.7-2.563
		c-9.355,1.011-15.748,7.526-22.962,12.468c-1.725,1.181,0.342,2.313,0.767,3.366c2.47,6.124,0.655,9.62-5.805,10.182
		c-2.319,0.202-2.005,1.77-2.494,2.984c-7.463,18.5-20.574,30.479-39.919,36.084c-17.245,4.997-37.827-4.056-47.256-16.59
		c-4.001-5.319-7.651-10.903-11.438-16.382c-1.945-2.814-3.856-5.65-7.115-8.388c-0.346,6.433-0.805,11.999-2.76,17.34
		c-6.857,18.735-22.786,28.733-42.577,26.474c-8.928-1.019-17.821-2.347-26.751-3.351c-12.349-1.389-22.02-7.009-28.866-17.478
		c-2.366-3.618-4.944-7.111-7.621-10.507c-2.455-3.114-5.464-5.659-9.332-7.689c13.004,20.402,16.569,43.502,8.561,59.283
		c-1.84-8.661-8.262-13.24-12.801-19.196c-6.381-8.373-7.938-18.148-8.885-28.166c-0.188-1.99-0.306-3.99-0.358-5.988
		c-0.193-7.465-3.444-12.672-10.16-16.433c-8.717-4.882-17.612-9.387-26.505-13.909c-2.683-1.365-5.227-2.837-7.511-5.078
		c1.519-2.043,3.156-1.01,4.849-0.508c11.214,3.322,21.912,7.966,32.185,13.438c8.119,4.325,16.412,6.553,25.451,4.702
		c15.786-3.232,28.758,2.515,40.607,12.19c1.934,1.579,4.625,3.396,3.647,5.928c-0.999,2.588-3.877-0.374-6.15,0.617
		c6.243,5.789,10.833,12.633,14.167,20.337c0.622,1.436,1.833,2.401,3.292,2.904c14.001,4.827,26.772,1.703,38.112-6.961
		c9.838-7.517,13.094-18.112,11.448-30.247c-0.869-6.405-5.418-10.88-8.429-16.198c-4.756-8.401-11.172-10.862-20.728-10.412
		c-17.456,0.821-34.984,0.103-52.483,0.035c-1.978-0.008-3.862-0.149-5.409,1.733c-11.179,13.601-25.691,16.507-41.922,12.099
		c-8.588-2.332-17.026-5.429-25.624-10.046c4.94-2.372,10.092-0.561,15.384-3.818c-7.659,0-14.048,0-21.123,0
		c4.469-5.567,8.704-10.457,10.608-16.771c0.584-1.937,2.368-1.591,3.784-1.628c4.497-0.118,8.997-0.152,13.496-0.147
		c108.988,0.123,217.975,0.673,326.963,1.032c95.316,0.313,190.636,1.99,285.955,0.383c25.502-0.43,50.992,0.054,76.487,0.274
		c2.77,0.024,5.384-0.516,3.751,4.026c-1.019,2.835,2.142,3.847,4.086,4.84c2.787,1.424,3.857,3.208,3.216,6.387
		c-0.452,2.241-0.856,4.92-0.052,6.905c2.336,5.769-1.004,6.56-5.34,7.43c-5.033,1.01-9.96,2.552-16.223,4.204
		c5.085-5.87,9.472-10.936,14.474-16.711c-3.254,0-5.68,0.005-8.106-0.001c-26.998-0.071-53.996-0.07-80.992-0.301
		c-3.774-0.032-5.129,0.984-5.51,4.839c-1.72,17.406,8.017,39.967,36.603,40.199c15.253,0.124,29.264-4.081,42.252-11.834
		c7.86-4.692,15.519-9.721,23.319-14.515c1.708-1.05,3.492-3.083,5.665-0.63c1.921,2.168,4.564,3.78,3.141,7.63
		c-1.872,5.064-4.527,10.093-2.859,15.873c0.398,1.38-0.94,2.018-1.849,2.68C1072.757,843.903,1070.982,845.055,1069.235,846.246z
		 M552.641,828.007c2.2,0.976,2.522,2.729,3.322,4.082c1.818,3.078,4.097,5.691,7.436,7.152c5.933,2.597,11.251-0.777,11.465-7.224
		c0.261-7.88-4.071-14.157-11.289-16.358c-7.702-2.349-15.249,0.575-19.35,7.497c-8.441,14.248-1.206,32.163,14.809,36.13
		c20.756,5.142,35.871-6.885,45.182-21.734c1.339-2.135,3.026-6.374-1.793-7.763c-7.639-2.203-9.29-6.75-4.655-13.723
		c0.544-0.819,1.665-1.509,0.667-2.497c-4.506-4.46-5.079-9.35-0.989-14.488c-32.861,0-64.854,0-97.82,0
		c14.481,15.024,22.398,33.633,36.083,49.825c-0.676-3.334-1.053-5.26-1.458-7.18c-1.78-8.418-0.109-16.258,4.344-23.456
		c5.226-8.449,15.344-12.589,24.591-10.387c10.681,2.542,18.658,10.978,19.739,20.703c0.661,5.945-0.752,11.028-6.071,14.252
		c-5.384,3.262-11.08,3.596-16.571,0.225C554.895,839.752,552.689,834.686,552.641,828.007z M903.227,798.616
		c-10.187,0-19.32-0.004-28.453,0.001c-27.646,0.015-55.291,0.041-82.937,0.038c-3.084,0-6.49-0.747-3.442,4.386
		c1.487,2.503,1.052,5.83-0.962,8.007c-2.248,2.43-1.767,3.899-0.085,6.454c3.463,5.259,1.027,11.822-4.072,12.29
		c-1.746,0.16-4.2-1.676-4.94,1.479c-0.465,1.981-0.255,4.137,0.78,5.837c6.903,11.339,15.59,20.27,29.663,22.161
		c15.978,2.147,29.997-7.785,31.598-22.638c1.064-9.87-4.767-18.546-14.007-20.843c-9.089-2.259-16.769,1.714-20.391,10.817
		c-2.069,5.2-1.357,10.406,2.361,14.494c3.644,4.006,8.505,2.984,13.043,1.368c1.949-0.694,3.76-1.779,6.049-2.887
		c-3.911,8.265-14.009,11.249-20.668,6.59c-10.488-7.338-11.884-22.262-2.945-31.476c9.647-9.943,23.372-10.894,35.22-1.673
		c5.583,4.346,11.271,5.093,17.773,3.94c5.766-1.022,11.27-2.76,16.608-5.165C882.951,807.504,892.537,803.335,903.227,798.616z
		 M937.238,798.518c9.524,4.113,17.702,9.417,23.967,17.649c-1.243-5.085-1.889-9.998-1.98-14.968
		c-0.041-2.233-1.07-2.746-3.097-2.716C949.833,798.578,943.535,798.518,937.238,798.518z M847.822,842.384
		c5.698-6.884,10.843-13.099,16.441-19.863c-5.62,1.477-10.569,1.145-15.505,1.034c-1.797-0.04-3.389-0.179-2.331,2.573
		C848.338,831.098,848.682,836.305,847.822,842.384z M623.764,798.962c-4.332,0-7.3-0.181-10.232,0.071
		c-1.621,0.139-4.271-1.217-4.685,1.078c-0.323,1.788,1.897,3.247,3.485,4.444c1.321,0.997,2.664,1.224,4.057,0.141
		C618.538,803.024,620.688,801.353,623.764,798.962z M759.919,798.852c2.477,2.042,4.198,3.283,5.708,4.743
		c3.24,3.132,5.65,1.28,7.95-1.203c0.659-0.712,1.297-1.646,0.918-2.688c-0.446-1.225-1.626-0.838-2.559-0.844
		C768.313,798.839,764.691,798.852,759.919,798.852z M400.45,828.127c5.144,0.793,10.289,1.586,15.433,2.379
		C411.054,827.769,405.898,827.103,400.45,828.127z"/>
	<path fill="FRAME_COLOR" d="M1161.772,267.564c-1.262-1.515-2.033-2.75,0.071-4.496c6.583-5.465,12.137-11.843,16.173-19.466
		c2.452-4.631,7.704-6.744,10.127-11.514c-6.66,1.761-11.224,6.157-14.741,11.904c-2.689,4.394-5.156,8.968-8.923,12.573
		c-1.272,1.217-2.578,2.63-5.872,2.888c8.393-12.765,11.258-26.466,11.848-41.519c-8.205,12.142-3.296,28.261-14.507,39.494
		c1.655-23.568-4.074-45.99-3.028-69.502c-3.463,4.252-4.35,19.394-2.79,35.503c1.12,11.565,4.089,23.039,1.742,34.825
		c-1.384-7.743,0.954-15.856-2.734-23.396c-3.489-7.134-6.424-14.539-10.215-21.677c3.38,12.526,9.008,24.557,8.495,38.396
		c-2.739-7.247-8.374-11.91-12.383-17.735c-7.849-11.403-16.532-22.137-25.185-32.925c-11.118-13.861-12.93-34.979-3.947-53.992
		c0.871-1.842,2.232-1.693,3.763-1.25c7.057,2.045,12.995,1.318,18.453-4.656c4.958-5.427,11.784-4.981,18.061-1.864
		c4.304,2.137,8.242,5.005,12.373,7.498c11.582,6.989,18.695,5.325,25.903-6.025c6.656-10.481,8.299-10.553,14.675,0.051
		c10.135,16.856,9.971,34.443,3.147,52.353c-3.191,8.374-7.222,16.374-11.057,24.647c6.285-6.119,12.873-11.75,20.277-16.352
		c7.482-4.651,15.386-7.96,24.413-7.618c4.055,0.154,7.887,1.086,11.321,3.42c3.426,2.328,4.881,5.643,4.031,9.509
		c-1.006,4.57,0.251,8.017,3.443,11.251c3.308,3.352,4.337,7.858,4.88,12.338c0.822,6.78,4.078,11.785,9.796,15.442
		c3.643,2.331,6.951,5.194,10.63,7.459c2.639,1.624,2.627,3.135,1.303,5.656c-10.875,20.71-37.423,34.413-60.903,31.259
		c-4.093-0.55-8.163-1.275-12.443-1.562c8.042,5.37,15.961,10.823,22.26,18.149c10.672,12.412,17.42,26.282,15.715,43.281
		c-0.393,3.914-1.548,5.739-5.495,3.764c-6.158-3.08-10.972-0.723-17.025,1.806c-11.759,4.914-16.453,13.613-18.868,24.907
		c-0.831,3.884-2.87,7.544-3.436,11.44c-0.564,3.884-2.395,3.88-5.414,3.433c-10.415-1.543-18.336-7.61-25.928-14.173
		c-12.587-10.88-21.172-24.262-24.644-40.702c-0.2-0.947-0.478-1.877-1.061-2.831c-1.779,8.635-2.883,17.35-5.965,25.635
		c-3.13,8.414-7.594,15.901-14.103,22.119c-3.075,2.937-6.669,4.992-10.82,5.934c-6.547,1.485-10.067-2.105-8.355-8.642
		c1.063-4.059,3.314-7.613,5.495-11.164c3.996-6.506,7.822-13.095,9.868-20.596c-3.277,5.254-6.942,10.198-10.968,14.879
		c-7.273,8.457-16.509,11.319-27.37,9.905c-5.75-0.749-13.05-5.722-12.775-13.085c0.199-5.32-4.138-5.056-7.495-4.68
		c-4.105,0.46-8.175,1.57-12.144,2.78c-2.741,0.835-3.962,0.181-4.435-2.589c-3.198-18.718,0.301-35.853,12.459-50.705
		c7.962-9.725,17.817-16.774,30.081-20.507c11.431-3.48,22.903-6.679,35.47-9.301c-7.215,7.423-15.48,12.772-19.736,21.902
		c4.028-3.698,8.012-7.447,12.098-11.081c4.36-3.879,8.94-7.452,14.109-10.263c4.93-2.681,9.422-6.256,15.39-7.184
		c0.299,4.49-1.876,7.668-5.017,10.264c-7.056,5.833-14.193,11.568-21.303,17.335c-8.73,7.08-15.888,15.649-22.976,24.281
		c-0.476,0.58-0.75,1.326-0.683,2.37c16.368-16.441,36.284-28.907,51.299-45.965c1.81,7.049-2.275,14.309-19.275,32.712
		c8.884-2.225,20.271-11.736,23.436-32.603c2.375,13.892,0.943,27.63,10.637,38.013c-4.363-11.349-6.84-23.086-7.38-35.223
		c-0.065-1.472-1.154-3.782,1.122-4.25c1.781-0.366,2.633,1.626,3.453,3.105c4.653,8.393,6.089,17.928,9.521,26.762
		c3.383,8.708,7.1,17.229,11.873,25.266c0.914,1.538,1.583,3.317,4.801,4.98c-9.801-20.619-13.591-42.161-23.925-61.47
		c11.739,8.895,23.424,17.875,33.558,28.75c-6.969-14.988-19.461-24.503-33.154-32.934c12.001,0.734,20.962,8.332,31.313,12.592
		c-8.324-6.516-14.936-15.914-27.096-15.674c-1.331,0.026-2.624-0.495-3.41-1.761c3.384,0.325,6.146-1.511,8.795-3.031
		c7.765-4.456,16.063-6.999,24.863-8.312c4.255-0.635,8.505-1.556,12.625-2.79c5.542-1.661,11.287-2.861,16.341-6.002
		c-9.289,1.754-18.615,2.901-27.918,4.215c-7.575,1.07-15.093,2.328-21.682,6.675c-3.727,2.459-7.24,5.318-11.611,6.659
		C1161.658,265.316,1161.318,266.236,1161.772,267.564z M1197.881,271.515c-7.36,0.202-13.966-2.693-21.772-5.154
		C1182.795,273.495,1190.44,275.228,1197.881,271.515z"/>
	<path fill="FRAME_COLOR" d="M245.819,673.519c0.744-8.998-0.065-17.991,2.89-26.664c3.647-10.706,9.228-19.919,19.313-25.752
		c2.99-1.729,6.436-3.107,9.25-0.381c2.904,2.814,1.874,6.575,0.317,9.798c-3.33,6.89-6.932,13.648-10.334,20.504
		c-0.778,1.569-1.878,3.144-1.394,5.628c2.686-3.719,5.008-7.121,7.52-10.376c7.464-9.673,17.381-12.32,28.951-9.718
		c6.77,1.523,9.54,4.561,10.306,11.482c0.336,3.028,2.089,3.551,4.432,3.383c3.727-0.266,7.187-1.492,10.126-3.82
		c2.794-2.213,3.785-1.333,4.534,1.858c5.722,24.349-3.813,50.491-24.458,64.776c-17.536,12.133-37.727,17.797-58.291,22.244
		c-0.622,0.135-1.298,0.017-2.121-0.332c10.725-5.135,20.977-10.874,29.525-19.389c-1.268-0.964-1.964-0.272-2.589,0.159
		c-10.179,7.012-21.208,12.455-32.385,17.632c-1.016,0.47-2.076,1.695-3.04,0.393c-0.794-1.072,0.264-2.139,0.85-3.124
		c3.521-5.922,9.145-9.073,15.28-11.476c15.156-5.935,24.952-17.666,34.434-31.788c-3.811,1.617-5.47,3.889-7.163,5.891
		c-8.777,10.376-19.154,18.446-32.11,22.945c-4.33,1.504-7.221,4.573-9.428,8.478c-1.343,2.377-2.914,4.625-4.803,6.642
		c1.176-16.635,11.39-27.339,23.904-36.584c-15.075,4.789-24.016,15.023-26.899,30.875c-0.373-13.579,2.694-26.992-4.5-39.323
		c1.676,14.087,2.989,28.144,1.024,43.582c-5.851-9.195-7.667-18.253-9.252-27.39c-1.706-9.836-3.286-19.703-6.837-29.105
		c-0.63-1.669-0.963-3.515-2.524-4.669c-0.983,0.311-0.713,1.097-0.596,1.589c2.902,12.162,4.557,24.54,6.391,36.885
		c1.053,7.088,4.127,13.285,8.036,19.174c0.739,1.113,2.36,2.622,0.807,3.88c-1.531,1.24-2.74-0.57-3.7-1.552
		c-6.991-7.146-13.48-14.74-19.838-22.451c-1.727-2.095-3.165-4.571-6.39-5.173c10.115,10.359,13.637,26.179,28.205,32.888
		c-6.529,0.392-11.445-2.43-15.603-6.966c-2.964-3.234-6.362-5.513-11.838-4.975c8.33,5.403,13.199,14.579,23.874,15.138
		c-5.22,1.081-9.907,2.253-14.226-2.334c-4.536-4.817-10.55-5.382-16.849-2.988c6.678-0.577,11.797,2.743,16.699,6.424
		c3.551,2.667,7.67,0.707,12.978,1.571c-16.763,10.318-35.624,8.627-51.738,16.018c0,0.91,0.88,0.577,1.374,0.642
		c0.647,0.085,1.332-0.001,1.987-0.101c9.711-1.474,19.403-3.084,29.135-4.404c6.729-0.913,11.991-4.708,17.466-8.162
		c0.984-0.621,1.895-1.364,2.906-1.934c0.694-0.391,1.496-0.808,2.249,0.007c0.798,0.864,0.27,1.636-0.34,2.136
		c-10.201,8.359-17.574,21.093-33.039,21.352c-1.593,0.027-3.327,0.237-5.148,2.533c8.492,1.005,15.934,0.054,22.738-4.18
		c6.656-4.142,10.367-11.405,16.974-15.953c-2.433,6.188-4.865,12.375-7.298,18.563c4.803-5.359,5.454-13.042,11.325-18.661
		c0.349,22.64,3.549,44.142,4.165,65.829c5.494-20.638,0.321-41.262-0.194-62.007c0.465,15.197,13.02,25.607,15.499,39.883
		c1.683-13.734-10.043-23.302-11.338-36.116c11.789,15.205,22.506,31.183,36.682,44.557c13.769,12.989,17.419,32.08,10.761,47.135
		c-2.036,4.604-4.126,8.574-10.721,6.685c-3.657-1.047-7.322,1.3-9.525,4.378c-6.319,8.828-15.607,8.751-24.098,4.693
		c-3.883-1.855-7.459-4.366-11.135-6.643c-11.414-7.069-21.253-3.958-26.771,8.34c-1.174,2.616-1.27,6.86-4.556,7.141
		c-3.93,0.336-6.293-3.359-8.319-6.394c-10.644-15.944-12.766-33.244-8.029-51.623c2.542-9.86,6.63-19.03,11.664-28.014
		c-3.816,3.038-7.547,6.189-11.463,9.092c-10.877,8.063-22.906,12.09-36.549,9.768c-2.261-0.385-4.479-1.281-6.589-2.225
		c-3.415-1.527-5.279-3.716-3.402-7.837c1.629-3.575,1.104-7.091-1.526-10.26c-2.317-2.791-3.119-6.279-3.466-9.767
		c-0.617-6.212-3.53-10.974-8.394-14.723c-4.353-3.354-8.504-7.112-13.611-9.201c-3.329-1.362-3.344-3.02-1.963-5.649
		c6.279-11.951,15.85-20.595,27.83-26.333c15.883-7.607,32.369-9.942,49.36-3.466c0.402,0.153,0.914,0.019,1.788,0.019
		c-3.818-2.458-7.346-4.644-10.786-6.96c-15.202-10.235-27.094-23.014-31.797-41.352c-1.184-4.616-0.788-9.258-0.775-13.914
		c0.008-2.908,1.097-3.578,3.631-2.136c3.111,1.77,6.519,2.527,10.071,2.522c3.791-0.005,7.248-0.899,9.805-4.024
		c2.189-2.676,5.137-4.485,8.382-5.16c6.823-1.417,9.721-6.455,10.961-12.24c1.334-6.22,2.98-12.263,5.282-18.166
		c0.413-1.059,0.855-2.328,0.645-3.372c-1.075-5.35,1-4.825,4.782-3.087c22.692,10.428,40.475,25.565,48.554,50.077
		C243.381,663.291,244.474,668.447,245.819,673.519z"/>
	<path fill="FRAME_COLOR" d="M188.442,241.858c-9.768,4.096-19.382,7.67-30.069,6.638c-7.607-0.734-14.778-2.41-20.523-7.949
		c-1.993-1.921-2.995-3.024,0.443-4.863c6.011-3.215,6.782-8.353,2.571-13.737c-3.374-4.314-7.367-8.161-9.157-13.574
		c-3.18-9.617-0.609-14.827,9.007-17.909c7.424-2.379,9.597-5.189,9.942-13.021c0.11-2.496,0.067-4.999,0.079-7.498
		c0.011-2.31,0.002-4.62,0.002-7.905c17.082,12.379,39.302,13.528,53.671,29.744c0.255-0.348,0.511-0.697,0.766-1.045
		c-2.396-2.556-4.931-4.996-7.163-7.688c-11.379-13.715-14.135-28.971-7.978-45.775c0.988-2.696,2.203-4.191,5.471-2.795
		c3.106,1.327,5.423,0.054,6.691-3.192c0.846-2.165,1.886-4.266,2.988-6.316c5.456-10.148,17.987-11.833,26.006-3.49
		c1.497,1.558,2.763,3.337,4.21,4.946c4.385,4.875,10.109,4.581,13.831-0.809c1.121-1.623,1.712-3.602,2.727-5.311
		c0.701-1.181,0.439-3.389,2.437-3.281c1.56,0.084,2.44,1.633,3.232,2.909c6.942,11.18,6.341,23.164,3.499,35.28
		c-1.826,7.783-4.727,15.238-7.739,22.638c-0.67,1.647-1.869,3.152-1.437,6.61c4.721-9.193,11.386-15.233,17.899-21.399
		c5.789-5.48,12.515-9.431,20.282-11.303c7.46-1.798,10.688,1.387,9.347,8.921c-0.888,4.987,0.353,9.286,4.192,12.622
		c4.817,4.186,9.852,8.058,16.712,7.989c3.759-0.038,4.644,1.97,4.65,5.407c0.02,11.174-6.216,18.235-15.075,23.627
		c-8.061,4.907-17.137,7.128-26.832,9.609c4.953,2.498,9.473,4.506,13.728,6.973c14.543,8.433,23.801,20.571,25.696,37.668
		c0.594,5.363,0.26,5.601-4.821,4.379c-3.966-0.953-7.205,0.139-8.143,4.369c-1.744,7.861-6.506,11.984-14.153,14.316
		c-8.408,2.564-12.765,10.92-11.02,19.313c0.563,2.709-0.142,3.342-2.649,2.991c-2.681-0.375-5.153-1.212-7.488-2.596
		c-13.162-7.8-23.412-18.506-31.922-32.322c-0.647,4.418-0.963,8.068-1.742,11.616c-2.605,11.872-6.663,23.038-16.347,31.216
		c-1.139,0.962-2.409,1.774-3.652,2.606c-2.534,1.698-3.834,1.413-4.642-1.971c-2.185-9.145-7.447-12.089-16.785-9.399
		c-5.818,1.676-11.59,3.05-17.683,2.357c-7.127-0.811-9.572-3.462-9.84-10.68c-0.043-1.165,0.014-2.335-0.051-3.499
		c-0.274-4.865-3.457-6.834-7.815-4.804c-1.161,0.541-2.23,1.281-4.255,2.464C156.976,269.87,168.393,253.607,188.442,241.858z
		 M271.391,238.32c-5.147-7.326-14.255-8.427-21.285-13.31c2.091-0.852,4.24,0.082,6.927-2.235c-5.626,0-10.021-0.091-14.409,0.054
		c-1.358,0.045-2.851,0.642-3.308-1.1c-0.589-2.247,1.482-2.33,2.786-2.566c3.597-0.652,7.264-0.926,10.856-1.597
		c10.152-1.898,19.469-5.658,27.323-12.546c-12.49,3.98-24.665,8.842-38.539,12.267c7.62-9.123,14.264-17.407,23.389-23.294
		c-10.845,3.358-19.133,9.752-24.863,19.491c-0.856,1.455-1.39,4.757-3.8,3.61c-1.625-0.774-0.61-3.597-0.057-5.5
		c0.14-0.48,0.18-1.003,0.394-1.443c4.169-8.591,2.827-17.498,1.583-27.025c-3.398,9.54,0.777,19.639-4.333,29.098
		c-6.156-17.269,0.317-35.46-6.99-51.759c1.068,17.869-1.817,35.951,3.677,53.989c-10.033-8.573-9.486-21.043-13.67-31.479
		c-0.89,12.097,0.176,23.483,10.588,31.699c0.835,0.659,2.098,1.533,1.414,2.833c-0.807,1.533-2.317,1.02-3.554,0.554
		c-3.477-1.312-6.361-3.564-9.178-5.929c-4.121-3.461-12.787-6.433-18.214-6.046c9.198,4.605,17.699,9.29,25.538,15.205
		c-13.814-0.675-27.046-6.908-41.012-2.646c14.415,1.369,28.323,5.942,42.893,6.04c-9.839,3.39-19.78,4.729-30.037,3.263
		c8.246,3.077,16.519,3.676,25.11,0.997c-10.011,6.646-14.387,16.802-18.715,26.996c5.227-4.117,7.778-10.205,11.621-15.333
		c3.806-5.077,7.566-10.383,14.96-11.168c-6.735,11.667-17.537,20.754-20.966,34.359c7.522-10.031,15.045-20.061,22.567-30.092
		c-0.552,11.248-6.462,20.983-7.834,33.288c6.469-11.515,10.455-22.461,12.538-34.268c1.255,7.254,2.442,14.175,9.383,18.054
		c-3.628-5.162-5.674-10.853-6.155-17.143c-0.143-1.866-0.073-4.108,1.62-4.774c1.629-0.641,1.987,1.79,2.956,2.817
		c1.137,1.205,2.099,2.662,3.433,3.581c7.016,4.833,13.233,10.641,19.844,15.965c2.491,2.006,4.877,4.291,8.309,5.035
		c-8.529-12.04-21.026-19.99-31.337-30.357C252.858,229.038,261.842,234.17,271.391,238.32z"/>
	<path fill="FRAME_COLOR" d="M1160.821,726.626c1.72-14.506,6.616-27.1,17.526-36.885c0.62-0.556,1.205-1.153,1.849-1.679
		c3.954-3.231,4.38-3.051,5.496,1.776c0.56,2.42,1.1,4.929,2.201,7.12c1.827,3.636,4.696,5.498,9.025,3.926
		c2.986-1.085,6.1-1.637,9.315-1.55c6.976,0.19,12.32,3.037,14.842,9.754c2.181,5.807,6.18,8.522,12.214,8.009
		c2.948-0.251,2.331,0.949,1.969,2.887c-4.106,22.033-16.251,37.505-37.149,45.936c-0.595,0.24-1.11,0.677-1.449,1.633
		c5.923-1.825,11.808-3.785,17.777-5.444c9.642-2.68,19.134-2.33,28.176,2.31c1.887,0.968,3.555,2.443,5.147,3.881
		c1.209,1.092,1.827,2.079-0.383,3.333c-6.301,3.575-6.801,7.783-1.529,13.019c4.415,4.385,7.355,9.451,8.397,15.55
		c1.143,6.691-1.388,11.851-7.658,13.149c-10.652,2.205-11.646,8.127-12.014,16.691c-0.38,8.843-0.374,8.899-8.733,5.833
		c-6.561-2.406-13.111-4.854-19.582-7.49c-11.876-4.838-20.559-13.356-27.095-24.191c-2.085-3.456-4.608-6.486-7.673-9.35
		c-0.871,1.469,0.288,2.185,0.856,2.934c6.233,8.215,12.001,16.76,18.866,24.526c8.332,9.424,9.109,20.719,6.269,32.459
		c-0.891,3.681-2.853,6.231-7.388,5.724c-3.749-0.419-6.268,1.806-7.913,5.007c-5.372,10.452-13.5,10.657-22.409,4.49
		c-2.463-1.705-4.779-3.619-7.216-5.363c-4.655-3.33-8.647-2.706-12.027,1.881c-0.886,1.203-1.636,2.512-2.388,3.807
		c-3.447,5.941-5.106,6.028-8.443-0.19c-5.916-11.02-7.541-22.676-3.954-34.794c2.362-7.98,5.233-15.786,8.727-23.588
		c-2.935,3.342-5.757,6.79-8.826,10.003c-7.283,7.625-14.926,14.765-25.297,18.151c-5.348,1.746-10.686,2.321-16.216,1.068
		c-4.093-0.927-6.111-3.726-4.453-7.302c4.214-9.085,3.641-16.677-3.977-23.925c-3.081-2.932-3.506-7.741-2.319-12.282
		c1.132-4.331,0.157-7.99-4.359-9.894c-4.251-1.793-2.686-3.716-0.137-5.533c7.128-5.08,14.865-8.838,23.526-10.505
		c8.689-1.672,17.449-2.559,27.748-2.168c-5.544-3.17-10.051-5.493-14.296-8.223c-11.262-7.243-19.503-16.581-20.476-30.738
		c-0.18-2.621-0.567-4.167,3.453-3.184c7.286,1.781,11.502-1.023,13.657-8.229c2.094-7.002,6.622-11.775,13.714-11.958
		c10.602-0.273,14.712-5.83,15.489-15.392c0.079-0.977,0.473-1.934,0.774-2.883c0.095-0.299,0.361-0.544,0.597-0.883
		c3.11,0.748,5.153,3.433,8.03,4.81c1.243-1.864,0.636-3.717,0.644-5.445c0.25-55.664-1.644-111.314-1.022-166.98
		c0.121-10.829,0.282-21.675,0.981-32.477c1.878-29.017-0.972-57.959-1.033-86.94c-0.029-13.657-0.395-27.331,2.004-40.875
		c0.293-1.653,0.451-3.29,1.911-5.283c2.311,4.244,3.388,8.483,3.462,12.9c0.207,12.495,0.485,24.997,0.269,37.488
		c-1.481,85.488,0.056,170.969,0.362,256.453c0.043,11.999-0.015,23.998-0.002,35.996c0.001,1.149-0.221,2.543,0.321,3.409
		C1154.02,708.933,1158.282,717.274,1160.821,726.626z M1149.677,775.545c-7.601-4.614-13.345-11.993-21.962-15.245
		c-0.624,1.359,0.087,1.95,0.656,2.438c4.786,4.102,9.583,8.193,14.435,12.217c2.127,1.764,4.518,1.625,6.923,0.523
		c-1.484,3.081-3.914,2.493-6.368,1.59c-4.828-1.777-9.637-3.603-14.454-5.409c2.543,3.107,6.095,4.154,9.174,6
		c3.434,2.058,7.318,0.453,11.783,1.883c-11.379,3.88-21.694-0.885-32.004-0.539c12.29,5.666,15.106,5.967,27.404,3.689
		c0.971-0.18,1.988-0.129,2.984-0.15c0.693-0.015,1.473,0.127,0.919,1.032c-0.297,0.486-1.065,0.684-1.621,1.011
		c-0.841-1.72-2.01-0.491-2.941-0.225c-6.543,1.867-13.095,3.714-19.575,5.782c-3.922,1.252-8.074,2.109-12.504,5.457
		c12.39-1.567,22.802-5.386,33.221-9.184c-2.698,4.222-7.993,6.057-9.993,10.999c4.797-2.031,8.465-5.537,12.135-9.034
		c1.042-0.993,3.012-2.941,3.321-2.138c0.787,2.044,3.731,1.556,3.76,4.456c0.131,12.999,3.429,25.738,3.498,38.768
		c0.005,0.932-0.43,2.187,1.046,2.766c1.468-3.304,1.179-6.83,1.333-10.28c0.464-10.406-2.158-20.492-3.243-30.737
		c-0.108-1.025-1.174-2.488,0.56-2.967c1.856-0.513,1.546,1.394,1.844,2.295c1.937,5.846,4.151,11.576,6.911,17.082
		c0.567,1.13,1.675,3.376,2.478,2.584c3.485-3.439,3.071,2.171,5.797,1.791c-2.521-8.983-6.145-17.328-10.765-25.473
		c9.864,4.93,19.056,11.237,30.599,10.592c-10.105-5.346-21.447-7.925-31.052-14.552c13.935,0.279,27.474,4.448,41.467,3.068
		c-8.697-2.142-17.466-3.737-26.275-5.074c-3.771-0.572-7.62-0.765-11.438-0.824c-1.973-0.03-3.456-0.642-3.621-2.485
		c-0.208-2.32,2.073-1.54,3.309-1.942c4.112-1.336,8.274-2.517,12.385-3.857c1.901-0.619,3.831-1.348,4.865-4.154
		c-6.907,2.213-13.152,4.213-19.397,6.214c7.759-9.573,16.709-17.97,21.886-29.29c-7.865,9.05-17.51,16.429-24.518,28.025
		c0.547-10.879,6.356-18.563,8.233-27.451c-7.2,7.168-8.885,16.821-11.789,26.012c-3.091-7.649,1.414-16.73-5.446-23.857
		c0.813,7.975,1.592,15.395,2.3,22.822c0.101,1.06,0.917,2.545-0.551,3.122c-1.765,0.694-2.165-1.192-2.794-2.16
		c-3.037-4.669-4.496-9.953-5.79-15.312c-1.682-6.969-3.377-13.95-6.62-20.429c-0.501,0.751-0.689,1.407-0.59,2.015
		c2.074,12.758,2.659,26.001,11.799,36.481c0.609,0.698,1.61,1.591,0.44,2.46C1151.431,776.249,1150.412,775.705,1149.677,775.545z
		 M1139.796,804.348c5.338-2.892,6.591-8.468,9.423-14.566C1143.891,794.185,1142.528,799.725,1139.796,804.348z"/>
	<path fill="FRAME_COLOR" d="M1198.59,653.663c-0.669,0.024-1.308,1.354-1.979,0.103c-0.219-0.408-0.261-0.998-0.178-1.468
		c2.521-14.264-4.139-25.076-12.956-35.213c-3.704-4.259-5.751-9.561-8.41-14.831c0,1.554-0.001,3.107,0,4.661
		c0.024,26.159,0.022,52.318,0.123,78.477c0.009,2.199-0.608,3.859-2.137,5.326c-6.014,5.772-10.057,12.767-12.75,21.061
		c-3.245-3.555-4.191-7.52-4.246-11.86c-0.377-29.325-0.373-58.647,0.042-87.974c0.742-52.487-0.8-104.966-0.75-157.452
		c0.026-26.98,0.004-53.959,0.004-82.369c6.076,7.266,12.449,12.357,18.696,17.601c1.528,1.283,0.725,3.482,0.724,5.256
		c-0.03,41.156-0.101,82.313-0.164,123.469c-0.003,1.81,0,3.62,0,6.178c3.501-2.287,5.217-5.23,6.896-8.111
		c7.208-12.363,10.437-25.877,11.049-40.044c0.965-22.363-3.628-44.048-8.33-65.707c-1.123-5.171-2.182-10.356-3.3-15.672
		c6.342,1.662,9.966,4.599,11.338,11.691c2.388,12.345,5.364,24.842,14.843,34.333c4.295,4.3,8.924,7.984,14.864,9.749
		c4.001,1.189,7.898,1.069,11.643-0.83c1.146-0.581,2.114-1.911,3.503-0.647c1.39,1.265,1.486,2.886,0.951,4.595
		c-1.119,3.569-3.734,5.381-7.239,6.106c-6.356,1.316-12.215-0.102-17.748-3.28c-5.235-3.007-9.859-6.729-13.712-11.637
		c1.453,12.361,1.899,24.651,1.363,36.968c-1.107,25.44-6.243,50.155-13.428,74.506c-2.682,9.09-5.01,18.317-9.075,26.903
		c-1.553,3.28-1.403,5.059,2.123,6.295c1.029,0.361,1.866,1.269,3.191,2.211c1.129-5.932-1.145-11.421-0.224-16.986
		c0.553-3.341,1.175-4.273,4.081-2.006c1.835,1.432,3.882,2.59,5.736,4c18.938,14.4,22.503,29.889,13.25,54.014
		c-2.887,7.528-5.634,15.047-7.964,22.749L1198.59,653.663z M1174.674,574.076c5.427-17.379,10.061-34.899,12.765-52.93
		c-3.901,5.688-7.371,11.512-11.658,16.782c-0.752,0.924-1.117,2.008-1.116,3.233
		C1174.68,552.132,1174.674,563.104,1174.674,574.076z"/>
	<path fill="FRAME_COLOR" d="M1103.612,230.975c13.974,11.629,30.349,18.343,41.356,32.105c-21.745-2.763-42.638-9.499-64.519-10.557
		c20.649,6.988,41.69,12.317,63.526,15.441c-7.074,2.254-13.711,5.578-20.777,7.071c-18.124,3.829-35.722,9.209-52.839,16.197
		c-10.725,4.378-21.572,5.325-32.722,2.046c-9.776-2.876-17.01-8.811-21.734-17.888c-1.415-2.72-1.252-4.569,1.616-6.106
		c3.076-1.65,6.067-3.479,8.994-5.384c5.647-3.676,7.31-7.609,4.325-13.603c-6.01-12.068-1.268-23.567,8.637-31.151
		c12.131-9.289,12.946-13.483,7.252-29.479c-1.468-4.123-0.382-5.193,3.153-6.143c8.482-2.281,16.868-1.873,25.115,0.821
		c15.563,5.083,28.729,13.91,39.397,26.304c11.846,13.763,21.967,28.806,31.977,43.917c0.355,0.535,0.374,1.311,0.768,1.798
		c0.676,0.835,1.368,1.752,0.373,2.559c-0.999,0.812-1.926-0.158-2.482-0.894c-7.523-9.952-17.904-16.28-28.442-22.363
		C1112.949,233.566,1109.293,231.225,1103.612,230.975z"/>
	<path fill="FRAME_COLOR" d="M202.816,562.384c1.681-10.781,2.458-21.674,4.942-32.316c4.124-17.669,1.623-34.726-4.944-51.376
		c-2.838-7.196-6.866-13.663-11.993-19.454c-9.179-10.367-20.415-19.052-26.227-32.547c-0.402,7.437-4.656,12.574-8.452,17.975
		c-2.995,4.262-3.718,9.211-3.548,14.299c0.101,3.018-0.748,4.81-4.078,5.729c-5.442,1.502-7.522,5.644-6.537,11.704
		c-4.71-6.525-1.323-12.212,8.527-15.133c-4.799-8.278-3.618-16.509,0.224-24.713c4.457-9.519,6.224-19.571,5.754-30.063
		c-1.242,6.318-2.6,12.584-4.611,18.719c-4.004,12.217-11.677,21.599-22.02,28.864c-2.521,1.771-3.656,3.541-3.26,6.549
		c1.582,12.018,6.675,22.205,15.711,30.33c2.132,1.918,4.796,2.967,7.51,3.832c8.945,2.85,14.44-1.605,13.659-11.011
		c-0.378-4.554-2.923-8.062-5.712-12.014c3.779,0.273,6.078,2.02,7.569,4.929c3.344,6.521,3.159,12.904-1.346,18.79
		c-4.198,5.485-10.239,6.085-16.322,4.751c-10.948-2.4-18.977-8.728-23.146-19.338c-5.457-13.884-6.267-28.188-3.14-42.7
		c2.022-9.382,7.444-16.65,15.066-22.259c7.394-5.44,13.027-12.243,16.807-20.911c-13.411,13.229-28.989,18.284-47.389,13.29
		c7.363-4.342,12.657-10.815,18.745-16.364c6.336-5.775,14.208-7.99,22.289-9.251c8.447-1.318,14.33-5.454,18.258-13.012
		c3.947-7.596,8.345-14.958,12.092-23.087c-12.921,24.657-34.068,25.623-57.757,20.861c4.64-5.946,10.804-9.106,18.03-12.525
		c-5.866-1.439-11.18-2.136-14.924-7.365c10.456-1.476,20.19-4.83,30.695-4.276c-3.312-2.052-7.155-3.033-10.038-5.646
		c-0.692-0.627-1.767-1.21-1.35-2.414c0.335-0.966,1.379-0.694,2.13-0.892c6.108-1.608,12.194-1.663,18.215,0.398
		c2.519,0.862,4.985,1.881,7.497,2.765c9.677,3.406,11.621,2.784,17.356-5.397c4.205-5.998,8.089-12.23,13.011-17.706
		c1.496-1.664,2.988-3.29,5.512-2.494c1.546,0.488,3.72,0.428,4.254,2.161c0.444,1.438-1.079,2.656-2.051,3.799
		c-15.166,17.846-28.01,37.166-38.085,58.377c-4.343,9.142-5.745,18.133-3.455,28.049c3.709,16.057,11.292,29.703,23.124,41.181
		c24.154,23.431,32.051,52.087,26.894,84.886c-1.681,10.691-3.007,21.438-4.517,32.156c-2.171,15.407,0.217,30.573,2.358,45.757
		c0.361,2.562,0.544,5.15,0.856,8.183c-3.115-1.801-5.604-3.399-8.234-4.712c-2.296-1.147-2.14-3.186-2.259-5.132
		c-1.086-17.733-7.651-33.26-18.806-46.958c-5.821-7.148-13.269-12.611-19.746-19.079c-0.352-0.352-0.814-0.598-1.144-0.966
		c-2.136-2.379-6.795-4.793-4.846-7.668c1.74-2.567,6.226,0.2,9.003,1.703c8.767,4.745,15.585,11.845,22.192,19.195
		c-2.254-5.754-6.434-10.034-10.967-14.042c-14.539-12.858-15.999-35.064-3.264-49.909c0.303-0.353,0.748-0.585,1.882-1.448
		c-0.531,11.311,5.843,18.93,11.846,26.859c3.768,4.977,5.519,10.925,6.187,17.191C197.951,541.89,198.877,552.333,202.816,562.384z
		"/>
	<path fill="FRAME_COLOR" d="M237.026,750.953c12.242,12.692,26.472,20.686,43.57,25.022c-0.969-2.79-2.916-3.065-4.419-3.77
		c-12.254-5.746-23.996-12.307-34.31-21.186c-0.88-0.757-1.773-1.514-2.555-2.367c-0.703-0.768-1.137-1.867-0.319-2.647
		c0.459-0.438,1.604-0.491,2.306-0.277c2.224,0.677,4.381,1.572,6.571,2.363c14.546,5.254,29.684,7.37,45.014,8.399
		c1.565,0.105,3.32,0.552,5.371-1.315c-20.211-4.515-40.73-6.007-59.243-15.115c4.51-2.225,9.235-1.127,13.742-2.014
		c20.291-3.994,38.91-12.317,57.084-21.799c21.617-11.278,48.029-2.807,58.699,18.898c3.036,6.176,2.862,6.585-3.537,8.3
		c-17.668,4.736-20.181,8.797-16.543,26.738c2.269,11.192-2.6,21.005-14.101,28.419c-7.616,4.91-8.69,7.193-5.762,15.768
		c1.304,3.82,0.143,5.082-3.264,5.697c-7.973,1.44-15.584,0.174-22.922-3.044c-22.184-9.728-38.981-25.79-52.96-45.146
		c-3.605-4.992-7.219-9.98-10.721-15.044C237.746,755.416,236.184,754.109,237.026,750.953z"/>
	<path fill="FRAME_COLOR" d="M243.499,292.632c0.478,118.705,1.743,237.322,0.04,356.054c-2.151-0.235-2.232-1.85-2.839-2.873
		c-2.803-4.727-5.058-10-9.183-13.612c-5.891-5.16-6.829-11.307-6.803-18.688c0.32-94.148,0.417-188.296,0.418-282.445
		c0-5.972,1.198-10.621,5.768-14.99C237.466,309.799,240.394,301.136,243.499,292.632z"/>
	<path fill="FRAME_COLOR" d="M1198.419,653.832c6.306-9.297,9.093-20.166,13.607-30.264c6.659-14.895,5.935-29.676,0.919-44.75
		c-3.075-9.242-3.145-18.655-0.205-28.01c0.325-1.035,0.33-2.598,1.741-2.619c1.337-0.02,1.645,1.459,2.114,2.502
		c0.744,1.653,1.452,3.323,2.331,5.345c4.687-10.348,9.987-20.02,9.352-31.628c5.272,8.276,6.146,17.174,3.403,26.107
		c-3.45,11.24-5.055,22.666-5.32,34.383c1.472-6.053,2.885-12.122,4.43-18.156c2.999-11.709,8.796-21.819,19.224-28.176
		c9.144-5.574,11.556-13.361,10.811-23.255c-1.091-14.487-4.066-28.027-16.019-37.909c-9.721-8.036-21.303-8.327-29.995-0.574
		c-10.488,9.357-8.237,25.985,4.366,32.155c1.642,0.804,3.323,1.535,5.007,2.25c10.295,4.368,14.327,3.47,22.03-4.879
		c0.884-0.959,1.563-2.173,3.014-2.517c-0.124,7.019-6.394,14.12-13.673,15.568c-9.466,1.883-23.362-4.413-29.351-13.297
		c-6.27-9.3-6.346-20.723-0.2-30.023c6.437-9.742,21.425-14.73,33.389-11.112c16.343,4.942,26.825,18.537,28.292,37.313
		c1.188,15.207-0.435,30.329-3.152,45.244c-2.114,11.606-8.781,20.702-18.414,27.571c-6.23,4.442-12.069,9.254-15.603,17.852
		c12.924-12.763,26.077-22.191,45.686-20.34c-8.407,7.095-12.624,15.947-19.373,22.772c-3.703,3.745-7.899,6.609-12.913,8.237
		c-3.006,0.976-6.04,1.866-9.038,2.865c-4.18,1.393-8.654,3.173-10.555,7.095c-4.732,9.766-8.691,19.907-12.493,30.161
		c7.059-10.657,14.656-20.439,27.639-24.107c10.985-3.103,21.979-2.69,33.864-0.245c-7.408,5.272-14.147,10.067-21.251,15.122
		c5.283,1.161,10.601,1.355,15.083,5.831c-11.017,2.756-21.149,6.855-32.512,5.765c5.143,2.72,10.592,4.547,14.336,9.873
		c-7.031,2.396-13.656,1.934-20.296,0.289c-6.436-1.594-12.79-3.832-19.82-1.837c0.203-1.442,0.357-2.539,0.538-3.827
		c-0.335,0.203-0.612,0.27-0.668,0.419c-4.604,12.158-10.883,23.536-16.419,35.258c-0.539,1.142-0.911,2.885-2.37,2.927
		c-1.568,0.045-1.516-1.942-2.347-2.891c-2.732-3.124-2.175-5.78-0.267-9.458c3.953-7.621,8.928-14.798,11.253-23.208
		C1198.59,653.663,1198.419,653.832,1198.419,653.832z"/>
	<path fill="FRAME_COLOR" d="M1104.146,765.956c-9.215,0.753-18.089,2.763-26.685,6.112c-1.339,0.522-2.948,0.493-4.431,0.48
		c-82.807-0.719-165.619,0.981-248.417,0.131c-78.471-0.806-156.937-0.136-235.398-0.616c-64.487-0.395-128.949,1.086-193.424,0.686
		c-13.492-0.084-26.979-0.83-40.472-0.946c-4.368-0.038-3.602-2.988-3.954-5.392c-0.451-3.084,2.018-2.025,3.359-1.975
		c66.975,2.515,133.943-1.366,200.914-0.182c75.969,1.343,151.954-0.856,227.909,0.666c63.494,1.272,126.963-1.508,190.427-0.224
		c39.671,0.803,79.294-1.444,118.943-0.538C1096.667,764.244,1100.528,763.906,1104.146,765.956z"/>
	<path fill="FRAME_COLOR" d="M1026.67,257.811c-3.343,2.666-6.783,4.811-11.439,4.953c-80.131,2.44-160.297,2.056-240.426,1.298
		c-92.986-0.88-185.955,0.645-278.929,0.083c-55.486-0.336-110.962-2.346-166.459-0.897c-1.757,0.046-3.781,0.525-4.407-2.059
		c-0.685-2.824-0.791-4.595,3.249-4.589c56.821,0.09,113.626-1.967,170.461-0.849c67.476,1.328,134.951,1.697,202.451,0.649
		c46.639-0.725,93.307,1.578,139.966,0.689c55.481-1.056,110.984,1.233,166.453-1.239c6.249-0.279,12.522-0.038,18.783-0.038
		C1026.474,256.479,1026.572,257.145,1026.67,257.811z"/>
	<path fill="FRAME_COLOR" d="M100,571.497c5.364-3.155,9.737-2.161,13.762-0.224c9.737,4.683,19.48,9.403,28.911,14.661
		c11.532,6.43,17.419,17.059,20.038,29.641c1.724,8.281,1.838,16.93,5.661,24.717c0.912,1.858-0.259,2.413-1.528,2.863
		c-2.222,0.789-4.488,1.62-5.965,3.474c-3.129,3.929-6.179,3.886-9.567,0.391c-2.608-2.69-5.967-4.281-9.399-5.539
		c-17.522-6.421-24.6-19.801-25.14-37.524c-0.236-7.757-1.535-15.217-5.151-22.167C109.262,577.25,106.37,573.263,100,571.497z"/>
	<path fill="FRAME_COLOR" d="M1294.417,413.149c-2.399,4.099-6.422,5.473-10.218,5.133c-16.935-1.517-33.673-4.396-48.37-13.633
		c-7.363-4.628-10.814-12.409-13.257-20.542c-1.673-5.569-3.104-11.275-6.923-15.872c-1.49-1.793-0.404-2.725,0.798-3.602
		c4.41-3.216,9.454-5.377,14.047-8.338c2.911-1.876,6.354,0.895,9.628,1.21c16.926,1.628,24.683,8.56,28.72,25.323
		c1.401,5.815,2.635,11.681,5.074,17.194C1278.489,410.358,1283.222,413.456,1294.417,413.149z"/>
	<path fill="FRAME_COLOR" d="M252.198,295.026c5.742,3.349,7.391,7.539,7.334,13.58c-0.768,81.293,0.114,162.593-1.238,243.887
		c-0.329,19.813,0.5,39.644,0.778,59.467c0.148,10.569,0.13,10.57-6.873,20.139C252.198,519.402,252.198,407.537,252.198,295.026z"
		/>
	<path fill="FRAME_COLOR" d="M403.381,140.648c1.06,4.112-0.258,6.64-2.228,8.961c-3.926,4.627-9.133,7.452-14.822,8.797
		c-15.336,3.627-28.951,10.663-41.8,19.547c-3.257,2.252-6.977,3.864-10.577,5.576c-2.638,1.255-5.505,3.562-6.376-2.162
		c-0.419-2.756-4.099-3.766-6.569-3.63c-6.824,0.373-10.81-4.299-15.844-7.688c7.427-7.653,16.489-11.908,26.823-14.847
		c-4.584-0.742-10.339,0.568-16.677,3.896c-3.231,1.696-6.283,3.74-9.368,5.701c-0.858,0.545-1.698,1.376-2.664,0.753
		c-0.938-0.604-0.741-1.819-0.551-2.771c0.681-3.424,1.462-6.739,0.463-10.34c-0.562-2.026,1.903-2.421,3.283-3.132
		c15.682-8.075,32.138-9.206,49.079-5.159c5.502,1.315,10.889,3.103,16.362,4.546c2.568,0.677,5.195,1.301,7.831,1.516
		C388.879,150.956,397.36,149.699,403.381,140.648z"/>
	<path fill="FRAME_COLOR" d="M352.857,885.568c-2.987-13.385-9.11-24.512-7.627-37.395c-2.722,5.475-3.629,11.631-7.927,17.014
		c-4.35-9.805-6.062-19.133-3.168-28.984c0.702-2.389,1.398-4.795,2.323-7.102c2.539-6.334,4.547-12.586-0.432-18.758
		c-0.566-0.702-1.076-1.818-0.029-2.658c0.917-0.735,1.88-0.207,2.819,0.099c25.996,8.483,36.926,37.025,23.3,61.01
		C359.175,873.973,355.441,878.692,352.857,885.568z"/>
	<path fill="FRAME_COLOR" d="M1035.596,195.393c-14.237-9.54-23.916-20.053-24.921-36.815c-0.995-16.583,9.869-27.241,18.95-39.888
		c0.676,3.915,1.365,7.319,1.831,10.753c0.514,3.791,0.972,7.602,1.179,11.419c0.198,3.648,0.043,7.314,0.043,11.599
		c1.972-1.462,1.741-3.15,2.049-4.592c0.745-3.487,2.345-6.567,4.548-9.33c0.697-0.874,1.388-2.162,2.7-1.908
		c1.47,0.285,1.118,1.857,1.333,2.885c2.673,12.762,1.741,25.176-3.89,37.061C1036.767,182.168,1034.254,187.76,1035.596,195.393z"
		/>
	<path fill="FRAME_COLOR" d="M204.361,407.094c-2.627-1.269-4.952-2.393-8.041-3.885c1.369,5.667,2.56,10.609,3.758,15.549
		c0.267,1.1,1.09,2.382,0,3.248c-1.049,0.833-2.229-0.168-3.218-0.632c-3.457-1.62-6.945-3.208-10.256-5.098
		c-11.854-6.764-15.473-17.631-14.684-30.474c0.941-15.3,8.61-27.487,18.548-38.769c-2.088,7.807-1.986,15.33,1.651,22.621
		c2.316,4.644,5.402,8.758,8.355,12.974C205.669,390.043,206.599,398.122,204.361,407.094z"/>
	<path fill="FRAME_COLOR" d="M1279.431,318.877c-1.014,2.726-2.767,3.085-4.238,3.73c-5.527,2.424-10.618,5.526-15.296,9.342
		c-1.279,1.043-2.707,1.952-4.18,2.697c-5.6,2.831-5.967,2.562-7.849-3.205c-1.723-5.281-3.746-10.463-5.866-16.323
		c4.957,2.232,9.125,4.688,14.188,4.857c-10.023-7.063-21.76-11.979-28.72-23.402c11.915,1.411,23.242,3.459,32.057,12.182
		C1264.977,314.148,1271.253,317.946,1279.431,318.877z"/>
	<path fill="FRAME_COLOR" d="M140.2,680.53c-3.956-0.611-7.127-2.389-11.079-1.386c15.081,2.93,20.319,16.968,31.273,26.295
		c-19.594-4.121-33.475-18.966-52.39-21.489c-0.04-0.377-0.193-0.913-0.09-0.968c8.519-4.544,14.875-12.153,23.499-16.555
		c3.277-1.672,4.99-1.411,5.587,2.792C137.523,672.895,139,676.436,140.2,680.53z"/>
	<path fill="FRAME_COLOR" d="M294.535,220.851c9.437-3.008,17.838-6.871,24.835-13.322c2.213-2.04,4.896-3.998,5.716-6.804
		c1.658-5.677,5.988-6.607,10.707-6.914c3.362-0.219,6.772-1.717,10.878,0.015c-8.544,5.773-13.701,14.041-20.267,21
		c-2.857,3.028-6.026,5.691-9.654,7.813C307.774,227.887,303.703,227.658,294.535,220.851z"/>
	<path fill="FRAME_COLOR" d="M173.024,599.461c5.252,2.997,8.16,7.528,10.478,12.537c0.941,2.033,0.307,3.861-0.58,5.706
		c-2.172,4.517-3.549,9.265-4.086,14.257c-0.087,0.814-0.245,1.669-0.595,2.396c-1.095,2.276-2.508,5.131-5.143,4.699
		c-2.282-0.374-1.882-3.594-2.045-5.606c-0.364-4.481,0.277-8.939,1.199-13.335C173.677,613.321,175.59,606.553,173.024,599.461z"/>
	<path fill="FRAME_COLOR" d="M263.419,162.991c6.38-14.081,13.895-27.115,29.277-33.284c-3.247,5.364-5.88,10.776-5.357,17.182
		c0.116,1.414-0.81,2.165-1.969,2.52C276.867,152.011,270.478,157.944,263.419,162.991z"/>
	<path fill="FRAME_COLOR" d="M460.492,850.67c-7.08,1.848-13.647-0.864-16.207-6.163c-2.777-5.745-0.433-14.751,4.934-18.328
		c4.421-2.946,9.451-3.979,14.698-4.022c2.167-0.018,4.065,0.471,4.003,3.24c-0.071,3.145-2.461,2.129-4.035,2.007
		c-5.382-0.418-10.256,0.515-14.251,4.456c-6.097,6.014-5.151,12.171,2.575,15.796C454.663,848.811,457.321,849.534,460.492,850.67z
		"/>
	<path fill="FRAME_COLOR" d="M1212.099,371.222c2.808,4.665,1.967,9.163,0.974,13.638c-0.994,4.48-3.113,8.772-1.998,13.579
		c0.414,1.785-0.589,2.906-2.104,1.795c-2.432-1.784-5.59-3.545-4.42-7.481c1.973-6.638,4.075-13.238,6.176-19.837
		C1210.898,372.379,1211.475,371.972,1212.099,371.222z"/>
	<path fill="FRAME_COLOR" d="M1122.419,831.564c-3.135,6.528-6.281,13.051-9.392,19.591c-0.457,0.96-0.995,1.836-2.139,1.733
		c-1.395-0.125-1.198-1.318-1.237-2.289c-0.007-0.166,0.043-0.351-0.013-0.496c-2.683-6.862-0.373-11.483,6.148-14.591
		c2.185-1.041,3.945-2.974,5.899-4.5C1121.928,831.197,1122.174,831.38,1122.419,831.564z"/>
	<path fill="FRAME_COLOR" d="M1035.176,206.956c2.753,0.42,7.359-0.128,8.403,2.248c1.341,3.055-3.231,4.281-5.37,6.11
		c-4.482,3.831-4.566,3.734-6.202-2.141c-0.178-0.639-0.324-1.287-0.509-1.923C1030.318,207.202,1030.595,206.842,1035.176,206.956z
		"/>
	<path fill="FRAME_COLOR" d="M917.019,124.846c5.835-0.202,10.518,2.317,13.383,7.419c3.122,5.56,2.856,11.264-1.312,16.316
		c-5.089,6.17-11.858,8.25-19.645,7.348c-1.846-0.214-4.031-0.617-3.566-3.127c0.42-2.269,2.641-1.641,4.154-1.488
		c4.895,0.497,9.185-1.084,13.247-3.528c7.278-4.38,7.995-11.937,1.785-17.795C922.72,127.781,919.776,126.65,917.019,124.846z"/>
	<path fill="FRAME_COLOR" d="M1169.27,804.473c-2.603-4.056-5.689-7.89-6.412-13.922C1166.377,795.301,1168.029,799.793,1169.27,804.473z"/>
</g>
</svg>
