<?xml version="1.0" encoding="iso-8859-1"?>
<!-- Generator: Adobe Illustrator 25.0.0, SVG Export Plug-In . SVG Version: 6.00 Build 0)  -->
<svg version="1.1" id="Layer_1" xmlns="http://www.w3.org/2000/svg" xmlns:xlink="http://www.w3.org/1999/xlink" x="0px" y="0px"
	 viewBox="0 0 1369.136 917.178" style="enable-background:new 0 0 1369.136 917.178;" xml:space="preserve">
<g id="_x28_29_x29__1_">
	<path fill="FRAME_COLOR" d="M237.018,560.013c2.623,3.228,4.863,7.144,10.983,5.235c-2.969,2.426-6.433,3.906-3.792,7.863
		c0.502,0.753-0.574,0.921-0.891,1.378c-3.623,5.229-3.221,6.639,2.537,8.903c8.689,3.416,17.987,4.342,26.97,6.64
		c-9.212-4.642-20.195-4.693-28.643-11.251c7.866,1.639,15.796,1.908,23.807,1.719c-5.333-0.823-10.667-1.647-16-2.47
		c12.746-1.044,24.366-5.408,36.243-11.531c-9.864,1.363-17.638,7.549-27.212,7.341c10.075-3.782,18.941-9.34,26.778-16.71
		c13.616-12.805,22.613-27.752,23.722-46.904c0.562-9.698,6.371-14.872,15.981-14.692c4.118,0.077,7.817-0.628,11.5-2.556
		c6.29-3.292,11.72-2.512,16.066,1.804c4.224,4.195,5.332,10.193,2.422,16.067c-2.16,4.359-2.505,7.985,1.237,11.761
		c3.578,3.61,2.456,7.826-0.189,11.388c-2.722,3.666-2.641,7.26-1.32,11.305c4.301,13.169,1.318,23.252-9.501,31.925
		c-2.716,2.177-5.662,4.145-8.724,5.797c-10.433,5.631-20.396,12.031-29.887,19.071c-18.317,13.588-38.176,13.846-59.039,7.946
		c-4.025-1.138-3.479-4.69-4.804-7.955c-1.78,5.072-4.624,8.901-7.064,12.955c-3.049,5.066-7.095,8.573-13.434,9.206
		c-4.948,0.494-8.714,3.95-12.753,6.576c-12.771,8.305-26.309,10.903-40.892,5.392c-1.549-0.585-3.19-1.217-4.443-2.247
		c-12.254-10.077-26.118-17.812-39.015-26.948c-12.498-8.854-18.475-21.504-20.975-36.158c-0.592-3.468-1.287-6.945-3.149-9.949
		c-6.594-10.641-2.862-20.646,2.212-30.227c3.24-6.117,8.997-6.489,14.136-1.674c1.81,1.695,3.471,3.614,4.899,5.642
		c18.185,25.832,43.687,38.103,74.603,40.354c3.486,0.254,6.992,0.248,10.487,0.397c0.232,0.01,0.451,0.315,1.481,1.083
		c-15.867,3.669-31.015,2.573-46.192,0.141c15.685,4.228,31.434,5.627,47.331,1.397c-15.101,7.199-31.284,8.542-47.716,8.523
		c14.99,2.179,29.602,0.382,44.039-3.825c-11.286,5.839-21.334,13.637-33.088,18.383c14.493-3.142,25.991-12.609,39.308-18.36
		c-6.533,9.23-15.55,15.75-23.838,23.024c11.65-5.595,20.354-14.977,30.214-22.975c-1.126,3.708-3.009,6.803-5.386,9.142
		c6.229,1.545,7.855-3.882,11.204-8.205c0.941,5.594-2.032,9.711-1.418,14.867c2.179-4.977,2.532-9.858,6.262-14.657
		c0.83,5.197,1.484,9.294,2.138,13.391c1.963-4.125,0.95-8.32,0.856-12.918c9.091,5.698,16.9,12.607,27.103,14.966
		c-3.909-2.529-7.948-4.808-12.004-7.055c-4.396-2.435-6.687-6.822-9.787-10.462c-0.749-0.88-1.365-1.711-2.89-1.039
		c-8.68,3.828-16.035,0.587-22.989-4.533c0.193-2.635-1.113-3.429-3.631-3.411c-15.586,0.108-30.408-3.314-44.396-10.156
		c-11.155-5.456-21.559-12.11-29.701-21.626c-9.599-11.218-12.669-24.332-9.727-38.762c1.153-5.656,3.982-10.17,9.821-12.276
		c5.496-1.982,7.78-5.95,8.025-11.882c0.588-14.245,10.51-19.363,22.527-11.69c4.369,2.79,8.832,4.37,13.991,4.537
		c8.327,0.269,14.232,5.021,19.279,11.086c3.391,4.075,1.882,8.496,0.663,12.842c-4.102,14.63-4.474,29.185,0.362,43.779
		c1.8,5.431,5.701,9.667,8.098,15.224c-12.662-10.767-18.227-14.963-24.627-40.087c-0.576,4.215,0.239,9.02,3.197,16.378
		c2.173,5.405,4.786,10.561,8.592,15.119c3.637,4.356,9.069,7.049,11.902,12.475c-7.272,0.67-33.962-19.107-47.932-34.829
		c3.645,7.779,9.701,13.5,16.488,18.495c6.734,4.955,13.704,9.582,20.839,14.145c-5.706-0.47-10.458-3.785-16.77-5.697
		c4.788,4.479,10.669,4.419,14.555,8.461c-5.461-1.671-10.922-3.343-16.384-5.014c4.343,3.28,9.397,4.975,14.256,7.406
		c-2.04-0.176-4.079-0.351-6.119-0.527c-0.066,0.283-0.131,0.566-0.197,0.849c7.333,2.068,14.66,4.16,22.009,6.169
		c0.848,0.232,1.76,0.438,2.399-0.922c2.281-4.854,6.98-7.204,11.609-7.912c1.802-0.276,2.234-4.93,4.684-1.514
		c2.551-2.155,1.308-5.053,1.142-7.512c-0.734-10.897,1.979-21.134,5.327-31.303c0.653-1.982,1.879-3.864,1.443-6.735
		c-6.366,13.145-9.812,26.301-8.386,40.859c-3.296-3.806-5.323-12.449-5.426-21.292c-0.085-7.334,0.766-14.574,1.882-21.792
		c-5.413,15.131-4.35,30.325-0.513,45.661c-4.529-10.336-5.91-21.351-7.851-32.2c-0.756,6.639,1.02,13.148,1.491,19.796
		c-1.737-0.427-1.273-2.521-2.589-3.248c-0.952,1.764,0.566,3.207,0.652,5.421c-1.036-1.209-1.707-1.992-2.619-3.056
		c-0.228,5.273,4.133,8.694,4.747,13.404c-0.632,0-1.071,0.132-1.216-0.019c-7.532-7.833-13.431-16.355-13.861-27.868
		c-0.333-8.918,0.363-17.636,2.56-26.253c1.898-7.445,3.233-14.959,3.525-22.665c0.367-9.698,5.021-17.021,12.865-22.531
		c4.973-3.493,10.46-4.276,16.207-3.051c3.837,0.817,6.876,0.041,9.393-2.948c8.093-9.612,17.72-5.824,21.189,4.876
		c2.627,8.103,6.974,13.053,15.449,15.021c7.911,1.837,12.331,7.653,13.558,15.614c0.95,6.166,2.847,11.879,5.794,17.415
		c3.153,5.922,2.497,12.503,0.604,18.562c-8.267,26.458-24.859,44.758-52.337,51.976c-0.478,0.126-0.988,0.167-1.484,0.174
		c-0.319,0.004-0.639-0.128-2.029-0.436c5.717-4.5,10.914-8.591,16.932-13.327c-4.284,0.606-6.318,3.392-9.559,3.962
		c6.845-6.921,14.963-12.533,21.141-20.171c-6.698,4.618-12.072,10.918-19.703,15.633c2.729-7.652,7.45-13.234,11.233-19.47
		c-7.273,8.021-15.314,15.085-24.9,21.87c4.738-13.687,14.44-23.526,20.315-35.574c-5.767,5.971-10.036,13.096-15.975,19.323
		c3.116-9.006,6.231-18.012,9.347-27.018c-4.989,7.257-6.862,15.783-10.488,23.541c-2.767,5.922-4.073,12.711-9.329,17.311
		c2.78-8.58,4.382-17.593,9.591-25.286c-6.679,5.853-7.773,14.603-11.545,21.96c-0.708-9.847,5.751-17.337,8.65-26.911
		c-4.795,4.115-5.756,9.902-10.211,14.18c0-2.42,0-4.004,0-6.758c-2.456,5.718-1.054,10.759-2.235,15.349
		C229.658,557.01,231.415,559.656,237.018,560.013z M191.357,565.255c5.913,2.706,11.926,4.974,18.269,6.123
		c1.059,0.192,2.57,1.893,3.136-0.234c0.422-1.585-1.316-2.241-2.551-2.481C203.942,567.447,197.644,566.376,191.357,565.255z"/>
	<path fill="FRAME_COLOR" d="M1099.108,539.282c6.853-5.032,11.601-11.453,15.345-18.555c7.813-14.822,20.392-21.047,36.586-20.295
		c10.712,0.498,21.261-1.736,31.933-1.18c3.111,0.162,6.334-0.329,9.751,1.479c-5.068,1.758-9.722,3.398-14.392,4.988
		c-8.962,3.051-16.758,7.812-20.982,16.583c-4.892,10.157-13.661,13.525-23.818,14.817c-7.791,0.991-15.462,2.496-22.92,4.933
		c-10.424,3.406-18.563,9.277-22.648,20.091c-5.419,14.346-8.304,29.141-8.708,44.4c-0.362,13.658-0.174,27.323,1.128,40.945
		c0.152,1.594,0.047,3.294,1.946,5.618c0.719-16.452,8.836-29.083,15.823-42.187c3.857-7.232,9.245-11.676,17.878-11.063
		c5.69,0.404,10.673-1.898,15.698-4.519c0.004,2.156-1.773,2.296-2.705,3.191c-2.287,2.195-5.341,3.449-5.788,7.477
		c-0.255,2.296-3.218,3.665-5.424,4.845c-3.092,1.654-5.906,3.745-8.895,5.522c-15.16,9.016-20.124,23.446-20.852,39.77
		c-0.617,13.846,2.085,27.087,9.178,39.36c6.016,10.412,11.852,20.872,20.735,29.201c3.785,3.549,7.768,6.414,13.338,7.079
		c3.531,0.421,3.624-0.667,3.281-3.286c-1.381-10.559-1.845-21.226-4.229-31.67c-2.853-12.503-2.818-25.132-0.507-37.717
		c0.965-5.26,2.602-10.463,5.637-14.87c6.713-9.745,12.608-19.997,19.048-29.898c9.066-13.936,22.061-23.874,35.537-33.244
		c8.391-5.834,17.515-10.265,26.649-14.704c1.382-0.672,3.207-2.294,4.478-0.517c1.285,1.795-0.706,2.962-1.969,3.955
		c-19.694,15.495-27.426,36.628-28.59,60.804c-0.802,16.65-6.212,31.554-16.309,44.81c-3.611,4.74-8.287,8.201-13.24,11.284
		c-14.28,8.89-20.706,21.592-19.134,38.364c0.513,5.472,0.867,10.959,1.26,16.441c0.104,1.454,0.558,3.345-1.434,3.723
		c-2.065,0.392-2.839-1.273-3.221-3.029c-0.071-0.325-0.005-0.717-0.164-0.979c-0.733-1.204,0.804-3.826-1.85-3.679
		c-2.035,0.113-2.35,1.941-2.194,3.8c0.295,3.494-1.557,3.946-4.373,2.952c-6.61-2.334-11.556-7.145-16.871-11.381
		c-7.684-6.123-15.24-12.378-24.159-16.75c-11.491-5.633-22.242-4.724-32.181,3.357c-3.87,3.146-7.475,6.634-11.064,10.108
		c-5.105,4.941-11.194,7.735-18.163,8.665c-9.751,1.302-19.347,3.36-28.962,5.417c-16.672,3.567-29.654,12.271-38.899,26.584
		c-2.619,4.055-5.313,8.061-7.929,12.118c-0.547,0.849-0.983,1.983-2.125,1.772c-1.624-0.299-1.173-1.809-1.12-2.865
		c0.074-1.487,0.249-3.008,0.665-4.432c5.101-17.429,10.445-34.79,18.903-50.956c15.198-29.049,42.956-41.778,74.899-34.275
		c16.945,3.98,32.861,10.782,48.357,18.609c1.551,0.783,2.907,2.279,5.3,1.598c-11.917-18.181-20.541-38.188-34.374-54.951
		c-2.425-2.938-5.065-5.873-8.132-8.078c-19.442-13.978-24.552-33.564-22.016-56.016c2.172-19.228,3.694-38.453,2.725-57.821
		c-0.089-1.78-1.203-4.662,1.473-5.103c2.4-0.395,2.618,2.597,3.397,4.28c3.846,8.309,7.466,16.72,11.899,24.752
		c5.099,9.238,12.051,17.039,19.16,25.716c1.486-5.414,2.716-10.141,4.082-14.828c4.702-16.138,13.513-30.384,21.001-45.23
		c3.684-7.303,6.816-14.814,9.805-22.407c1.241-3.154,0.653-6.202,0.053-9.328c-2.345-12.224-7.441-22.019-19.95-27.176
		c-12.637-5.21-18.839-15.6-18.874-29.203c-0.041-15.514-6.066-28.417-15.988-39.885c-0.952-1.101-3.36-2.229-1.82-3.923
		c1.217-1.338,3.202,0.107,4.514,0.97c13.355,8.781,26.873,17.338,39.882,26.61c7.662,5.461,11.272,13.677,12.235,23.14
		c1.5,14.735,3.328,29.436,5.009,44.075c1.721,0.486,1.773-0.787,2.072-1.622c4.284-11.94,7.487-24.179,9.735-36.65
		c4.192-23.253-3.031-44.524-12.009-65.324c-4.745-10.993-10.509-21.542-15.6-32.392c-2.329-4.964-4.231-10.138-6.16-15.279
		c-1.45-3.866,2.573-8.381,6.726-7.809c1.363,0.188,1.471,1.276,1.716,2.127c4.328,15.022,12.018,28.482,19.364,42.12
		c7.977,14.808,12.764,30.691,15.334,47.275c0.168,1.084,0.007,2.338,1.482,3.289c4.952-6.264,7.93-13.726,12.254-20.357
		c5.753-8.822,11.87-17.362,19.208-24.884c12.741-13.059,28.731-16.26,46.049-13.399c14.647,2.419,28.194,7.86,39.787,17.501
		c8.742,7.269,14.267,16.609,17.523,27.358c0.472,1.558,1.934,3.859-0.211,4.927c-1.952,0.973-3.168-1.308-4.398-2.549
		c-4.567-4.608-8.737-9.59-13.998-13.52c-5.742-4.288-11.651-5.379-18.225-2.208c-2.547,1.229-5.188,2.261-7.781,3.394
		c-7.696,3.359-15.26,2.746-22.686-0.832c-5.543-2.671-10.88-5.756-17.042-6.99c-11.586-2.32-21.051,1.181-28.478,10.19
		c-12.107,14.685-19.69,31.548-23.728,50.075c-6.464,29.661-17.355,57.646-31.863,84.267
		C1099.36,537.003,1098.411,537.72,1099.108,539.282z M1062.821,706.956c-18.5-8.009-55.486,2.216-69.406,19.131
		C1014.51,712.33,1036.803,702.904,1062.821,706.956z M1055.86,606.301c5.148,21.277,10.784,42.385,21.165,61.862
		C1071.946,646.863,1062.878,626.935,1055.86,606.301z M1161.835,638.896c-6.224,21.358-21.939,39.345-22.698,62.802
		C1146.015,680.539,1156.113,660.579,1161.835,638.896z M1209.116,381.875c-15.3-1.178-30.585-2.614-44.301,6.487
		C1179.158,383.135,1194.067,381.83,1209.116,381.875z M1087.053,437.002c5.896,11.715,12.323,23.211,16.679,35.702
		C1101.967,459.028,1094.377,448.093,1087.053,437.002z M1114.451,534.273c6.24-4.4,12.48-8.799,18.72-13.199
		C1125.806,523.908,1119.493,528.28,1114.451,534.273z"/>
	<path fill="FRAME_COLOR" d="M1096.169,254.006c18.43,4.855,37.706,6.308,55.563,13.617c-15.923-9.729-35.617-9.116-52.146-19.647
		c7.163,0.797,13.701,1.524,20.239,2.251c0.034-0.184,0.068-0.368,0.101-0.551c-5.104-1.133-10.209-2.266-15.313-3.399
		c14.158-0.517,28.179,0.993,42.172-0.449c0.008-0.499,0.016-0.999,0.024-1.498c-7.163,0-14.33,0.142-21.489-0.04
		c-6.991-0.179-13.97-0.785-20.961-1.001c-2.428-0.075-3.981-1.025-5.289-3.45c7.264-2.538,14.692-4.322,21.397-7.979
		c18.697-10.196,35.796-22.469,50.149-38.34c1.117-1.235,2.231-2.475,3.387-3.674c6.621-6.862,15.023-6.76,21.606,0.259
		c4.131,4.406,6.362,9.653,7.134,15.627c1.21,9.364-0.095,18.63-0.97,27.904c-0.594,6.294,1.209,11.313,6.16,15.464
		c6.998,5.868,7.248,13.079,1.042,19.923c-3.868,4.266-8.776,7.17-13.762,9.832c-6.276,3.351-11.53,7.644-15.911,13.338
		c-7.072,9.191-16.958,13.662-28.274,15.178c-6.136,0.822-11.298-1.115-14.825-6.256c-6.03-8.788-13.915-14.85-23.853-18.892
		c-10.017-4.074-17.213-11.764-22.63-21.086c-0.86-1.48-1.629-4.121-3.818-2.437c-1.634,1.257,0.414,2.817,1.298,4.139
		c7.03,10.5,15.118,19.909,26.599,25.795c1.685,0.864,1.707,2.157,1.707,3.721c0.008,16.194-9.383,29.241-24.683,34.464
		c-8.945,3.054-18.212,3.963-27.54,4.277c-4.721,0.159-8.724,1.505-12.397,4.452c-3.89,3.121-7.847,6.197-12.51,8.174
		c-10.47,4.437-20.587,0.613-23.432-10.325c-2.31-8.879-7.005-13.563-15.564-15.996c-7.113-2.022-13.434-6.185-14.257-14.38
		c-0.86-8.571,3.746-14.899,10.503-19.749c3.32-2.383,7.11-3.585,11.11-4.176c7.497-1.109,14.335-3.839,21.08-7.337
		c8.843-4.585,18.202-8.063,28.188-9.515c3.493-0.508,5.276-4.14,8.778-5.03c1.389-0.353-0.219-2.087-0.819-2.82
		c-3.376-4.123-3.612-7.949-0.732-12.586c1.615-2.6,2.297-4.669-0.887-7.362c-3.738-3.163-8.667-5.658-9.843-11.204
		c1.406,1.309,2.796,2.642,4.815,2.949c0.105,0.206,0.209,0.412,0.312,0.619c0.103,0.131,0.229,0.249,0.304,0.394
		c1.811,3.457,4.598,6.314,7.543,8.5c3.86,2.866,5.491-2.66,8.297-3.933c3.807-1.727,8.567,0.88,11.453-3.108
		c0.273,3.7,6.072,0.695,6.144,5.203c0.025,1.585,2.129,3.128,3.258,4.708c2.156,3.017,2.248,8.836,0.005,11.852
		c-1.865,2.508,1.646,2.277,1.736,3.745c-1.579,0.593-3.811-1.902-4.905,1.036c-2.38,0.144-3.296,1.308-1.377,3.033
		c4.777,4.293,9.91,8.145,15.575,11.241c-4.747-4.905-10.289-8.913-14.363-14.419c9.932,3.16,18.67,9.635,30.541,10.958
		C1112.628,261.537,1103.526,259.612,1096.169,254.006z M1102.939,240.574c18.133-1,35.238-5.624,50.612-15.788
		C1137.545,232.755,1120.451,237.181,1102.939,240.574z M1044.716,291.406c10.327-8.048,16.103-19.643,23.311-30.15
		c0.66-0.962,1.513-2.144-0.013-2.917c-1.638-0.83-3.204-0.008-3.493,1.63c-0.511,2.893-2.076,5.205-3.361,7.704
		C1056.731,276.282,1050.98,283.965,1044.716,291.406z M1081.606,263.407c0.33-0.01,0.66-0.02,0.99-0.031
		c1.403,3.08,2.806,6.161,4.208,9.241c0.327-4.836-3.557-8.439-2.996-13.55c-1.935,1.309-6.111-1.378-5.188,3.818
		c1.014,5.709,1.732,11.47,2.579,17.208c0.136,0.003,0.272,0.006,0.407,0.009C1081.606,274.537,1081.606,268.972,1081.606,263.407z
		 M1063.432,287.307c2.732-3.328,3.264-6.418,4.198-9.36c1.597-5.028,2.222-10.394,5.137-14.97c0.678-1.064,2.034-2.367,0.006-3.152
		c-1.59-0.615-2.252,0.791-2.621,2.191C1068.013,270.119,1065.851,278.216,1063.432,287.307z M1074.584,281.963
		c0.634-4.158,1.765-11.648,2.926-19.133c0.186-1.197,0.412-2.522-1.095-2.809c-1.452-0.277-1.863,0.741-1.854,2.137
		C1074.61,269.896,1074.584,277.634,1074.584,281.963z"/>
	<path fill="FRAME_COLOR" d="M249.887,726.271c10.269-0.495,20.178-3.206,30.377-2.697c15.624,0.779,31.359,1.242,46.464,5.826
		c17.426,5.288,27.958,17.048,32.015,34.957c3.699,16.327,4.244,33.019,6.587,49.495c0.184,1.294,0.518,2.917-1.272,3.28
		c-1.616,0.327-2.218-1.149-2.819-2.344c-2.845-5.651-5.605-11.346-8.541-16.949c-4.874-9.301-12.084-15.887-22.509-18.323
		c-11.051-2.582-18.543-9.205-23.294-19.366c-2.111-4.515-4.514-8.92-7.106-13.179c-7.576-12.444-19.369-17.049-33.561-17.721
		c0.996,1.639,2.528,1.478,3.719,1.972c1.38,0.573,2.848,0.95,4.194,1.588c9.443,4.476,13.081,15.067,8.391,24.307
		c-2.315,4.561-4.234,4.915-7.917,1.372c-4.481-4.309-7.513-9.754-11.317-14.596c-4.905-6.244-10.904-10.165-19.12-10.06
		c-2.006,0.026-3.973-0.07-5.867,0.813c-4.542,2.117-6.405-0.645-9.178-3.842c-1.628-1.876-7.647,2.668-8.865-3.503
		c-0.333-1.687-1.43-1.919-2.845-2.164c-8.716-1.51-17.43-2.953-26.306-1.497c-2.126,0.349-4.263,0.386-5.047-1.964
		c-0.953-2.855,1.938-3.213,3.453-3.806c6.398-2.505,13.144-1.358,19.775-1.406c1.596-0.012,3.229,0.995,5.704-0.722
		c-8.048-4.461-15.821-8.088-24.449-9.629c-9.01-1.609-18.032-2.804-27.25-3.051c-12.922-0.346-23.081-6.375-29.252-17.892
		c-9.77-18.236-15.315-37.898-18.557-58.252c-0.099-0.621,0.098-1.288,0.165-2.031c2.586,0.197,2.618,2.496,3.374,3.906
		c5.704,10.636,13.79,19.276,24.725,23.92c17.901,7.602,30.41,20.502,40.416,36.543c4.642,7.442,11.381,12.267,19.843,14.751
		c-5.546-6.348-13.931-9.973-18.042-19.251c15.905,6.872,23.955,22.056,38.371,30.345c0-11.228-0.068-21.641,0.068-32.052
		c0.022-1.703-1.606-4.645,2.452-4.581c3.251,0.052,5.326,0.497,5.041,4.647c-0.364,5.306-0.122,10.66,0.007,15.99
		c0.044,1.802,0.001,3.979,0.95,5.302c1.548,2.157,1.169,3.267-0.548,4.987c-1.389,1.392-1.557,3.451,0.017,6.456
		c5.193-8.172,10.019-15.644,14.708-23.201c2.016-3.25,3.853-6.624,5.566-10.045c0.942-1.882,2.015-2.687,4.24-2.471
		c3.204,0.312,4.57,1.077,2.978,4.616c-4.316,9.595-9.371,18.741-15.32,27.421c-1.284,1.874-4.243,3.658-2.32,6.424
		c1.878,2.701,4.751,1.534,7.346,0.842c10.77-2.871,21.675-5.376,31.39-11.182c5.508-3.292,9.563-7.708,10.697-14.319
		c0.28-1.635,0.783-3.238,1.273-4.828c4.727-15.344,11.668-20.846,27.74-21.817c12.521-0.757,25.081-1.308,35.469-9.741
		c2.841-2.306,5.592-4.725,8.324-7.159c1.339-1.193,2.579-3.335,4.532-1.894c1.847,1.363,0.354,3.352-0.248,5.019
		c-3.81,10.542-9.221,20.309-14.743,30.002c-4.101,7.199-7.525,14.849-14.193,20.351c-10.224,8.437-21.4,10.996-34.044,6.507
		c-3.752-1.332-7.499-2.838-11.644-2.384c-1.391,0.152-2.927,0.408-3.247,1.826c-0.445,1.971,1.557,1.892,2.668,2.144
		c19.887,4.501,40.063,6.969,60.423,6.94c14.723-0.021,27.923-4.98,37.815-16.405c7.951-9.184,17.78-13.999,29.708-15.689
		c9.342-1.324,16.571-6.643,21.817-14.516c2.585-3.88,5.077-7.822,7.663-11.702c0.629-0.944,1.374-2.107,2.792-1.368
		c1.175,0.612,0.701,1.71,0.427,2.645c-4.351,14.839-7.602,30.044-14.746,43.951c-9.362,18.226-22.827,25.059-42.779,20.393
		c-11.905-2.784-23.5-3.019-35.595-1.547c-14.611,1.778-29.241-0.277-43.73-2.851c-7.702-1.368-15.496-2.218-23.215-3.498
		c-11.627-1.928-22.436,1.622-33.328,4.704C257.117,724.049,253.509,725.185,249.887,726.271z M334.717,759.084
		c-11.752-15.526-26.081-27.088-45.782-30.385C306.022,736.016,322.366,744.478,334.717,759.084z M296.059,702.849
		c9.812-4.447,19.273-9.597,27.924-16.17C314.1,691.014,304.154,695.233,296.059,702.849z M155.124,683.591
		c7.12,9.537,16.838,14.589,28.466,16.217C173.131,696.134,163.786,690.535,155.124,683.591z M415.41,706.787
		c-9.417,3.296-19.06,5.955-28.594,8.95C397.232,715.558,406.552,711.924,415.41,706.787z"/>
	<path fill="FRAME_COLOR" d="M1096.751,236.349c7.6-4.311,15.633-7.823,21.651-14.458c-6.9,3.483-12.854,8.949-21.174,9.541
		c3.76-2.483,7.521-4.965,11.657-7.697c-2.445-0.844-3.541,1.036-6.154,1.178c7.704-8.409,16.332-15.021,22.197-24.183
		c-9.101,8.523-18.203,17.045-27.304,25.568c8.309-9.176,16.654-18.26,22.112-29.639c-3.478,4.441-7.049,8.813-10.409,13.342
		c-3.49,4.702-7.222,9.124-12.439,12.303c11.547-18.635,23.286-37.164,28.095-58.988c-5.899,18.626-16.306,34.866-26.663,51.153
		c6.016-16.963,8.119-34.465,8.001-52.317c-3.685,21.863-2.694,45.086-19.085,63.24c8.178-18.836,7.514-38.037,2.63-57.442
		c1.692,18.383,4.461,36.845-4.069,55.057c0-1.676-0.133-2.775,0.02-3.833c2.635-18.188-2.52-34.379-13.245-48.811
		c-7.562-10.175-14.995-20.194-19.606-32.262c-6.022-15.764-1.87-26.587,13.801-32.753c6.714-2.641,13.728-4.104,20.838-4.997
		c6.729-0.846,13.31-0.357,19.191,3.652c3.514,2.396,7.074,2.258,10.838,0.305c2.791-1.448,5.743-2.739,8.771-3.546
		c8.659-2.309,15.869,2.144,16.55,10.947c0.556,7.184,3.991,10.846,10.534,12.619c29.224,7.92,34.071,42.206,18.413,60.715
		c-4.956,5.858-9.837,11.778-15.571,16.868c-13.723,12.183-27.817,23.889-45.135,30.802
		C1106.618,234.542,1101.958,236.228,1096.751,236.349z"/>
	<path fill="FRAME_COLOR" d="M262.313,290.479c0.732-0.656,1.426-1.362,2.205-1.956c1.008-0.769,1.462-3.224,3.385-1.476
		c1.551,1.41,0.959,3.087-0.269,4.428c-2.024,2.209-4.136,4.341-6.253,6.463c-8.982,9.002-17.42,18.402-22.277,30.417
		c-0.621,1.537-1.091,3.14-1.536,4.739c-0.108,0.387,0.161,0.879,0.366,1.827c6.921-7.112,14.367-12.657,23.78-15.455
		c20.641-6.136,34.646-0.387,43.874,19.093c6.468,13.653,9.418,28.386,11.828,43.208c0.185,1.141,0.112,2.328,0.112,3.493
		c0,1.176,0.026,2.582-1.336,2.924c-1.835,0.46-2.039-1.273-2.551-2.426c-3.102-6.984-5.757-14.161-11.288-19.834
		c-3.122-3.202-6.537-5.702-10.782-6.92c-11.866-3.405-19.602-11.623-25.391-21.931c-6.781-12.074-9.35-12.439-19.536-3.103
		c-9.545,8.748-13.891,19.691-14.87,32.274c-0.801,10.293-1.07,20.66-2.542,30.854c-0.788,5.453-3.619,10.611-5.533,15.9
		c-2.073,5.729-4.152,11.457-6.572,18.133c6.545-5.858,9.154-12.694,11.525-19.609c3.905-11.389,11.465-18.356,23.466-20.625
		c9.643-1.823,18.445-6.822,28.342-7.819c1.251-0.126,2.971-1.206,3.576,0.391c0.745,1.965-1.412,2.354-2.643,2.819
		c-7.413,2.798-11.797,8.299-14.555,15.496c-5.27,13.751-14.57,21.93-30.065,21.793c-6.21-0.055-10.346,4.056-14.118,8.44
		c-10.494,12.195-17.526,25.86-18.064,42.315c-0.041,1.267,0.109,2.72-1.256,3.701c-3.493-1.427-4.651-3.814-4.426-7.752
		c0.548-9.561,3.028-19.094-0.054-28.755c-2.384-7.474-5.647-10.025-13.531-9.041c-4.576,0.571-9.123,2.23-13.742,0.113
		c-1.192-0.546-1.955,0.14-1.935,1.38c0.038,2.414-1.109,4.479-2.355,7.35c2.88-1.027,6.49,1.119,6.474-3.749
		c-0.004-1.184,0.914-1.255,1.747-1.143c4.54,0.609,8.933-0.725,13.406-0.976c3.401-0.19,5.37,1.257,5.793,4.722
		c1.176,9.63,0.821,19.284,0.505,28.938c-0.059,1.793-0.666,2.404-2.473,1.378c-2.002-1.137-4.156-2.006-6.27-3.004
		c0.075-1.768,1.692-1.992,2.51-2.905c1.499-1.673,5.44-2.302,4.663-4.429c-0.932-2.551-4.363-4.115-7.142-4.837
		c-4.569-1.186-5.894,3.722-8.238,5.991c-2.395,2.318,2.601,2.328,3.209,5.18c-4.8-1.778-9.486-2.33-13.812-4.421
		c-9.727-4.7-18.128-2.955-24.755,5.275c-1.2,1.49-2.025,1.853-3.641,0.921c-4.687-2.701-9.42-5.32-15.016-8.467
		c6.249-1.311,10.072-5.395,14.751-8.084c6.034-3.469,8.354-2.934,12.6,2.73c0.956,1.276,1.409,3.05,3.41,3.741
		c2.499-7.004,7.626-3.718,11.972-2.844c2.654,0.534,4.719,0.226,6.01-2.114c1.189-2.154-0.269-3.783-1.709-5.249
		c-1.437-1.463-2.751-2.063-3.366,0.655c-1.096,4.841-4.591,3.444-7.556,2.727c-4.028-0.975-7.276-3.246-6.922-7.85
		c0.279-3.632,2.092-6.73,6.243-7.376c1.125-0.175,2.321,0.038,3.477,0.148c2.644,0.251,2.581-2.236,3.503-3.593
		c1.129-1.661-0.56-2.435-1.649-2.959c-5.471-2.631-9.399-7.448-14.731-10.257c-2.338-1.232-2.141-2.493,0.244-3.195
		c9.919-2.924,19.91-6.049,30.396-3.859c9.887,2.065,15.373,9.352,19.465,17.906c1.219,2.548,2.025,5.299,3.316,7.805
		c1.231,2.39,2.924,2.789,4.21-0.025c6.584-14.411,13.198-28.856,12.675-45.222c-0.335-10.464-3.418-14.602-13.38-17.604
		c-8.864-2.67-14.845-8.123-17.546-16.877c-1.927-6.245-5.273-9.657-12.278-10.162c-7.727-0.558-10.91-4.043-12.398-12.091
		c-0.832-4.502-2.223-8.294-6.295-10.777c-0.898-0.548-2.305-1.345-1.419-2.696c0.559-0.853,1.915-0.628,2.811-0.245
		c2.134,0.911,4.408,1.711,6.238,3.076c5.843,4.358,12.528,6.112,19.583,6.731c7.694,0.675,15.089,2.43,22.295,5.2
		c7.465,2.87,11.492,8.277,12.313,16.097c0.869,8.267,1.569,16.553,2.418,25.641c1.705-2.855,1.627-5.317,1.631-7.664
		c0.041-23.157,0.111-46.315-0.051-69.472c-0.057-8.139-3.391-14.533-10.552-19.206c-12.488-8.15-15.021-14.863-10.634-29.32
		c3.321-10.946,3.052-21.119-2.285-31.353c-2.14-4.103-3.389-8.773-3.494-14.149c1.063,0.618,1.667,0.752,1.815,1.088
		c3.46,7.832,9.738,12.989,16.697,17.416c6.516,4.146,12.092,9.338,17.629,14.661c10.669,10.258,13.518,22.588,10.11,36.594
		c-1.296,5.324-2.961,10.588-4.873,15.724c-4.301,11.557-5.326,23.629-6.405,35.84c0.501-0.077,0.912-0.056,0.945-0.158
		c6.169-19.084,20.88-33.16,29.751-50.664c0.735-1.451,1.957-3.955,3.996-2.713c2.13,1.297,0.733,3.717-0.188,5.368
		c-1.676,3.003-3.687,5.82-5.559,8.714C261.744,290.085,262.028,290.282,262.313,290.479z M227.992,262.769
		c2.225,13.186,3.487,26.458,3.347,39.853C234.089,288.997,232.332,275.769,227.992,262.769z M273.027,328.552
		c6.453,4.609,12.631,9.6,18.376,15.138C286.259,337.454,280.76,331.655,273.027,328.552z"/>
	<path fill="FRAME_COLOR" d="M1057.629,226.806c-0.103-0.207-0.207-0.413-0.31-0.617c-0.056-0.628-0.113-1.257-0.171-1.886
		c-4.992-9.282-12.754-16.568-18.318-25.46c-2.356-3.765-5.479-7.049-8.254-10.552c0.144,2.164,1.171,3.602,2.207,5.034
		c5.318,7.354,10.666,14.689,14.859,22.777c-0.03,0.42-0.059,0.84-0.088,1.26c-4.097-1.014-5.053-5.665-8.671-7.317
		c6.213,8.86,11.904,18.082,21.168,26.281c-6.58-1.158-10.15-4.342-13.642-7.61c-7.776-7.277-14.735-15.425-23.319-21.84
		c-1.421-1.062-2.823-2.148-4.574-2.83c13.782,11.297,24.051,26.425,40.557,35.977c-4.064,0.447-6.569-1.192-9.113-2.441
		c-6.733-3.307-13.3-6.979-19.308-11.453c-12.991-9.674-27.126-16.939-42.938-20.519c-19.011-4.305-30.574-24.642-24.693-44.909
		c1.919-6.613,5.52-11.764,12.139-14.252c5.181-1.947,8.031-5.677,9.192-10.919c0.396-1.787,0.97-3.554,1.169-5.362
		c1.93-17.579,16.929-21.541,28.858-18.42c18.627,4.875,31.785,16.264,38.027,34.874c2.847,8.488,6.966,16.146,13.355,22.554
		c11.844,11.879,18.062,26.155,17.853,43.058c-0.041,3.298-0.114,6.605-2.332,9.55c1.176-4.682-1.804-8.149-3.239-12.085
		c-0.399,3.895,2.145,7.452,0.907,12.493c-1.928-8.271-3.634-15.585-5.339-22.899c-0.099,8.471,2.478,16.458,3.56,24.737
		c-6.15-11.793-6.298-25.977-15.068-36.697c5.714,10.832,8.108,22.56,9.171,34.72c-0.726-2.158-1.453-4.315-2.176-6.463
		c-1.191,0.642-0.156,2.201-0.968,3.002c-4.726-15.593-14.131-28.087-25.238-39.504c4.614,6.571,9.229,13.143,13.843,19.714
		c4.834,6.883,9.391,13.828,5.999,22.893c-0.185,0.493,0.355,1.237,0.491,1.879c0.096,0.453,0.077,0.931,0.184,2.468
		c-2.562-4.712-4.343-8.752-8.308-12.945c2.353,7.666,6.236,13.09,9.875,18.932C1061.732,231.224,1061.073,226.97,1057.629,226.806z
		"/>
	<path fill="FRAME_COLOR" d="M305.021,210.022c7.228,1.901,11.582,6.522,13.462,13.752c1.108,4.261,0.318,7.951-3.8,9.476
		c-5.219,1.933-4.626,4.7-2.339,8.336c0.265,0.422,0.405,0.939,0.723,1.309c1.141,1.328,1.559,4.706,3.531,3.533
		c2.215-1.318-1.382-2.484-1.585-4.13c-0.196-1.589-0.8-3.127-0.911-5.032c2.533,6.478,8.964,4.805,13.497,6.46
		c11.575,4.228,23.421,6.821,36.194,4.717c12.234-2.016,20.815,6.163,27.945,14.473c5.32,6.2,1.791,17.095-6.115,19.426
		c-9.231,2.722-12.931,9.055-15.211,17.308c-0.826,2.991-1.371,6.512-5.508,6.78c-3.861,0.25-5.669-2.629-6.951-5.525
		c-3.562-8.043-9.68-12.934-17.941-15.437c-4.535-1.374-7.9-3.94-9.689-8.59c-1.789-4.65-5.303-7.923-9.45-10.665
		c-8.794-5.814-13.801-18.608-11.446-29.076c0.379-1.683-0.322-2.845-1.465-3.23c-1.738-0.587-2.109,1.091-2.448,2.369
		c-3.071,11.573,2.859,27.475,12.848,34.494c6.099,4.286,9.271,12.542,7.614,19.817c-1.207,5.299-4.644,8.31-10.046,8.935
		c-4.48,0.518-8.733-0.466-12.542-2.584c-5.498-3.056-10.955-3.698-16.752-1.221c-0.305,0.13-0.628,0.228-0.952,0.303
		c-8.27,1.915-14.332-2-14.283-10.433c0.047-8.047-3.242-13.305-9.373-18.043c-12.732-9.84-10.596-31.094,5.618-36.224
		c7.105-2.248,13.336-6.953,21.043-7.579c1.632-0.133,3.258-0.697,4.746-0.059c0.238,4.329-0.863,7.902-4.963,10.126
		c2.175-1.167,4.35-2.335,7.133-3.828c-0.131,4.784-4.493,7.34-4.454,12.175c2.649-4.375,4.77-8.439,8.423-11.383
		c1.92-1.547,0.257-3.482-0.426-4.918c-4.376-9.208-3.26-12.391,5.874-15.851L305.021,210.022z M300.05,248.902
		c0.469-5.328,3.259-10.076,3.918-15.357C302.095,238.523,299.286,243.265,300.05,248.902z"/>
	<path fill="FRAME_COLOR" d="M352.543,741.404c24.43,0,47.889-0.008,71.349,0.002c65.79,0.028,131.581,0.075,197.371,0.076
		c6.517,0,12.988,0.362,19.369,1.697c6.167,1.29,11.726,3.819,15.917,8.711c2.498,2.916,5.525,6.073,3.804,10.18
		c-1.938,4.627-6.14,7.01-11.918,8.997c2.004-4.838,3.411-8.69,0.392-12.495c-3.663-4.617-8.518-6.773-14.203-7.397
		c-2.151-0.236-4.312-0.402-6.471-0.549c-6.488-0.441-12.344-0.729-17.085,5.862c-3.966,5.514-10.832,7.128-17.916,7.123
		c-75.451-0.049-150.901,0.009-226.352,0.124c-2.885,0.004-4.632-0.434-5.312-3.629
		C360.092,753.536,356.705,747.794,352.543,741.404z"/>
	<path fill="FRAME_COLOR" d="M1054.463,242.972c-11.092-2.312-22.48-1.907-33.464-4.619c10.296,4.058,21.603,3.407,33.188,7.724
		c-15.201,0.702-29-0.002-42.741-2.219c14.822,5.238,30.46,3.93,45.793,5.395c-10.148,2.6-20.501,0.024-30.685,1.669
		c9.059-0.622,17.852,2.37,26.924,1.693c2.171-0.162,5.354-0.64,6.01,1.771c0.653,2.4-2.826,2.758-4.343,4.167
		c-0.685,0.637-1.765,0.975-2.723,1.174c-14.184,2.96-27.756,8.259-42.006,10.966c-3.686,0.7-7.3,0.394-10.901-0.417
		c-16.393-3.692-30.581,0.759-43.131,11.518c-2.136,1.831-4.523,3.382-6.877,4.936c-0.966,0.638-2.317,1.093-3.229,0.077
		c-1.044-1.162,0.011-2.287,0.823-2.98c10.182-8.687,13.236-20.819,16.053-33.058c0.373-1.619,1.732-3.65-0.881-4.672
		c-2.124-0.831-3.297,0.439-4.438,2.132c-2.884,4.278-5.987,8.408-8.939,12.641c-4.046,5.8-9.754,8.358-16.635,8.599
		c-4.167,0.146-8.304-0.111-12.434-0.869c-7.67-1.408-14.423,0.421-20.37,5.69c-4.479,3.968-8.082,8.91-13.324,12.02
		c-1.104,0.655-2.262,1.881-3.544,0.65c-1.067-1.025-0.142-2.17,0.445-3.143c7.211-11.962,13.591-24.47,23.291-34.784
		c3.32-3.53,6.684-6.972,10.605-9.83c12.587-9.174,25.632-10.131,39.291-2.374c2.957,1.679,6.194,5.365,9.001,4.085
		c2.015-0.919,2.155-5.855,3.226-8.966c0.865-2.514,1.74-5.039,2.838-7.456c4.73-10.415,7.955-12.233,19.465-11.226
		c10.843,0.949,20.668,4.662,29.869,10.438C1031.587,230.591,1042.404,237.781,1054.463,242.972z M954.133,242.924
		c-9.977,0.209-18.688,4.437-27.317,8.919C935.951,249.032,944.924,245.723,954.133,242.924z"/>
	<path fill="FRAME_COLOR" d="M515.966,174.815c-39.157,0-78.313-0.009-117.47,0.026c-2.083,0.002-3.892-0.31-5.538-1.724
		c-9.139-7.851-18.773-7.225-28.689-1.588c-1.664,0.946-3.633,3.059-5.315,1.424c-1.924-1.869-0.572-4.73,0.755-6.408
		c3.19-4.034,6.694-7.662,7.574-13.136c0.357-2.22,3.104-1.387,4.808-1.39c22.828-0.05,45.657-0.025,68.485-0.027
		c50.489-0.003,100.978,0.043,151.467-0.065c9.41-0.02,16.862,3.452,22.279,11.034c1.739,2.435,3.585,3.507,6.603,3.366
		c5.814-0.272,11.669,0.221,17.401-1.24c3.434-0.875,6.686-2.108,9.248-4.672c3.299-3.301,4.172-7.064,2.065-11.372
		c-0.459-0.939-1.929-1.827-0.6-2.991c1.083-0.949,2.215,0.007,3.237,0.439c10.177,4.298,11.556,12.18,3.599,19.859
		c-5.597,5.401-12.485,7.528-19.963,8.029c-20.311,1.36-40.639-0.001-60.961,0.218c-19.66,0.212-39.324,0.046-58.986,0.046
		C515.966,174.7,515.966,174.758,515.966,174.815z"/>
	<path fill="FRAME_COLOR" d="M839.574,174.98c-33.662,0-67.324,0.048-100.986-0.037c-7.485-0.019-15.019-0.127-22.216-2.704
		c-5.305-1.899-9.936-4.779-12.954-9.68c-4.258-6.915,0.294-16.071,8.377-17.021c2.179-0.256,2.264,0.718,1.372,2.319
		c-3.859,6.924,1.229,13.713,7.739,16.157c7.398,2.777,15.096,2.155,22.741,2.276c1.822,0.029,2.558-1.315,3.468-2.485
		c6.467-8.312,14.66-12.08,25.488-12.021c60.826,0.33,121.653,0.221,182.48,0.275c5.862,0.005,5.729,0.019,4.589,5.828
		c-0.8,4.076-1.613,8.235-1.615,12.358c-0.002,3.906-1.444,4.537-5.001,4.523c-37.327-0.151-74.655-0.116-111.983-0.132
		c-0.5,0-1,0-1.5,0C839.574,174.751,839.574,174.866,839.574,174.98z"/>
	<path fill="FRAME_COLOR" d="M316.784,626.93c-0.067,7.962-1.933,10.793-9.555,13.024c-4.661,1.364-6.778,4.544-7.852,8.782
		c-1.884,7.436-5.85,13.352-12.4,17.423c-3.546,2.204-7.107,3.45-11.16,0.81c-2.816-1.834-4.967-0.779-6.286,2.333
		c-2.892,6.823-7.235,9.123-14.209,6.511c-5.971-2.237-11.741-2.7-18.025-1.938c-10.623,1.289-20.886,0.001-30.085-6.298
		c-6.935-4.749-11.27-11.14-13.313-19.214c-0.738-2.917-0.272-4.653,3.254-5.115c4.513-0.591,8.48-2.903,12.335-5.207
		c6.29-3.759,12.601-7.374,19.734-9.423c5.84-1.677,10.159-5.738,13.543-10.544c1.886-2.679,3.62-2.899,6.611-2.34
		c19.075,3.565,38.188,5.619,57.387,0.528c6.337-1.68,9.339,0.646,10.005,7.177C316.885,624.591,316.784,625.766,316.784,626.93z"/>
	<path fill="FRAME_COLOR" d="M1167.357,738.634c9.172,4.926,17.582,5.645,26.26,4.21c5.628-0.93,10.874-3.083,15.866-5.846
		c1.005-0.556,2.191-1.319,3.232-0.426c1.107,0.95,0.148,2.208-0.136,3.235c-1.749,6.323-8.572,10.853-17.204,11.465
		c-4.15,0.294-8.277-0.064-12.467-0.674c3.295,3.29,7.316,4.648,11.824,4.72c4.329,0.069,8.69-0.273,12.981,0.143
		c5.807,0.563,8.838,4.877,7.252,9.547c-0.385,1.133-0.869,2.09-1.945,2.777c-1.27,0.81-3.851,0.367-3.505,2.771
		c0.335,2.331,1.466,4.73,3.761,5.583c3.26,1.211,4.236,2.635,2.055,5.689c-1.379,1.931-1.448,4.081,0.301,5.942
		c1.749,1.861,4.112,2.391,6.438,1.957c2.851-0.532,3.128-2.985,1.231-4.338c-3.952-2.818-3.523-5.262-0.205-7.868
		c3.1-2.435,7.2-1.448,9.466,2.071c3.884,6.032,1.131,18.777-4.867,22.504c-0.697,0.433-1.891,0.683-2.061,1.254
		c-1.414,4.747-5.167,5.084-9.135,5.069c-5.279-0.02-10.352-0.992-14.474-4.489c-2.598-2.203-2.908-5.277-1.201-8.179
		c1.619-2.751,3.944-3.883,6.233-0.706c1.11,1.541,2.03,2.72,3.962,1.677c1.791-0.967,1.857-2.62,1.315-4.352
		c-0.896-2.862-8.307-8.461-11.172-8.69c-1.46-0.117-1.663,0.715-1.905,1.703c-1.057,4.312-4.271,5.172-8.068,4.959
		c-4.368-0.245-7.032-2.809-8.377-6.75c-1.09-3.194-0.917-6.567-0.914-9.906c0.004-4.499-0.379-8.922-4.074-13.572
		c0.146,2.837,0.266,4.669,0.33,6.503c0.256,7.451-2.798,13.255-8.947,17.361c-1.786,1.192-4.262,2.437-5.954,0.654
		c-1.347-1.419,0.309-3.454,1.334-4.89c8.018-11.23,5.802-22.278-0.475-33.273c-0.391-0.685-1.002-1.244-2.896-1.774
		c0,7.853,0.021,15.705-0.008,23.558c-0.016,4.334-0.06,8.688-1.434,12.858c-2.068,6.279-4.914,8.338-11.141,7.787
		c-1.724-0.152-2.204,0.507-2.992,1.769c-4.138,6.625-12.933,6.249-16.24-0.855c-1.106-2.376-2.856-2.928-4.801-3.766
		c-8.938-3.853-13.407-13.44-10.57-22.718c1.172-3.833,3.452-6.883,7.178-8.522c3.666-1.612,6.798-0.913,9.07,2.668
		c1.094,1.724,1.199,2.585-1.008,3.738c-4.967,2.595-4.926,8.168-0.194,11.612c6.495,4.728,15.723,2.684,20.374-4.734
		c4.569-7.287,5.981-15.438,5.936-23.92c-0.021-3.966-1.416-8.964,0.462-11.62c2.053-2.904,7.457-1.09,11.378-1.563
		c6.3-0.76,12.605-1.484,18.547-3.807c6.9-2.697,12.594-6.819,15.119-14.229c1.187-3.483,1.135-6.899-0.84-10.093
		c-3.415-5.521-9.344-5.558-12.918-0.151c-0.683,1.033-0.708,2.805-2.509,2.696c-1.907-0.116-2.85-1.549-3.612-3.083
		c-2.061-4.152-0.552-9.001,3.899-12.194c11.459-8.222,29.41-1.075,30.793,10.315c0.216,1.779,1.284,2.324,2.662,3.137
		c6.76,3.985,6.627,11.532-0.234,15.393c-1.55,0.872-2.639,1.126-1.8,3.553c2.205,6.38-0.499,10.133-7.464,10.752
		c-12.777,1.136-25.37,3.844-38.212,4.417C1170.038,737.72,1169.432,738.029,1167.357,738.634z M1185.845,760.676
		c2.491,4.629,4.929,9.269,9.664,11.991c1.155,0.664,2.747,2.058,3.98,0.612c0.984-1.154-0.298-2.491-1.075-3.513
		C1195.173,765.498,1190.806,762.739,1185.845,760.676z"/>
	<path fill="FRAME_COLOR" d="M305.022,210.004c0-9.286,0-18.571,0-29.253c-1.194,8.495-2.943,15.58-1.893,23.09c-2.879-2.184-4.143-5.805-5.111-14.55
		c-0.81,5.274-0.029,10.037,1.218,14.807c-3.517-7.046-6.488-14.195-6.592-22.254c-0.098-7.657-0.371-15.31-2.11-22.826
		c-1.312-5.669-4.068-10.501-8.132-14.645c-5.103-5.203-5.276-11.632-0.502-17.294c4.782-5.671,11.241-7.587,18.295-7.636
		c6.32-0.044,12.424,0.082,18.369-3.106c4.797-2.572,9.19,0.017,12.252,3.957c3.307,4.256,7.115,5.945,12.674,6.308
		c16.732,1.093,25.579,20.766,15.859,34.455c-2.547,3.587-4.838,7.176-4.815,11.788c0.01,1.941-0.991,3.442-2.316,4.816
		c-2.908,3.014-6.141,5.631-9.637,7.904c-8.872,5.768-16.545,12.773-22.632,21.471c-1.033,1.476-2.225,2.84-3.664,4.045
		c0.503-4.592,5.253-6.825,6.398-11.179c-2.195-0.269-2.009,2.363-3.826,2.502c1.728-5.952,3.692-11.818,6.321-17.478
		c-5.324,6.555-6.991,15.154-13.114,21.439c1.992-8.582,2.525-17.427,5.068-25.953c-3.935,8.282-6.537,16.938-8.165,25.954
		c-1.483-9.802,0.993-19.191,3.415-28.592c-3.57,7.271-4.984,15.033-5.605,22.947c-0.25,3.185-0.74,6.272-1.756,9.293
		C305.021,210.022,305.022,210.004,305.022,210.004z"/>
	<path fill="FRAME_COLOR" d="M842.818,741.461c36.475,0,72.951,0.086,109.425-0.101c4.921-0.025,5.146,1.269,3.315,5.208
		c-1.885,4.054-3.372,8.331-4.621,12.631c-0.925,3.182-2.316,4.421-5.878,4.416c-58.294-0.094-116.587-0.036-174.881,0.04
		c-8.922,0.012-16.261-3.399-21.886-10.132c-2.068-2.476-4.149-3.384-7.227-3.217c-6.137,0.334-12.287,0.044-18.296,1.963
		c-8.284,2.645-11.371,7.437-9.568,15.888c0.463,2.17-0.43,2.303-2.07,1.95c-8.445-1.818-11.541-9.866-6.409-16.825
		c3.389-4.595,8.076-7.348,13.439-9.062c7.238-2.313,14.715-2.704,22.227-2.708c34.143-0.018,68.287-0.008,102.43-0.008
		C842.818,741.489,842.818,741.475,842.818,741.461z"/>
	<path fill="FRAME_COLOR" d="M194.938,181.891c-6.596-4.294-13.854-6.192-21.873-5.134c-6.538,0.863-12.475,3.493-18.28,6.462
		c-0.877,0.449-1.818,1.283-2.749,0.615c-1.154-0.828-0.609-2.116-0.311-3.23c1.706-6.381,9.424-11.697,17.894-12.291
		c3.483-0.244,6.955,0.011,10.476,0.395c-4.164-3.823-9.157-4.695-14.523-4.192c-3.657,0.343-7.308,0.81-10.9-0.38
		c-3.055-1.012-5.331-2.845-5.769-6.22c-0.423-3.259,1.114-5.186,4.172-6.502c2.717-1.169,1.926-5.952-1.849-7.711
		c-3.649-1.7-4.651-2.774-1.652-6.106c1.518-1.687,0.754-4.179-0.753-5.992c-1.537-1.849-3.72-2.361-5.901-1.834
		c-2.695,0.651-3.181,3.017-1.284,4.442c4.066,3.056,2.818,5.483-0.245,7.92c-3.063,2.436-6.878,1.778-9.227-1.364
		c-4.108-5.497-1.762-19.913,3.957-23.696c1.666-1.102,3.4-1.896,4.127-4.029c0.602-1.768,2.429-2.276,4.048-2.554
		c5.952-1.024,11.631-0.211,16.787,3.102c3.176,2.041,4.423,5.008,3.247,8.624c-1.143,3.514-4.359,4.208-6.712,1.452
		c-1.464-1.715-2.983-3.067-4.991-1.461c-2.091,1.672-1.46,3.891-0.007,5.758c1.855,2.385,4.149,4.331,6.715,5.922
		c2.699,1.674,5.086,3.24,6.824-1.48c1.117-3.034,4.461-3.061,7.402-2.721c3.842,0.444,6.452,2.504,7.797,6.119
		c1.203,3.235,0.813,6.582,0.538,9.899c-0.454,5.477,0.751,10.518,3.719,15.456c0-3.46-0.142-6.591,0.029-9.705
		c0.376-6.848,2.802-12.654,8.998-16.312c1.743-1.029,3.861-2.178,5.548-0.624c2.005,1.848-0.004,3.716-0.994,5.294
		c-7.374,11.75-6.339,23.361,0.428,34.908c0.474,0.809,0.843,1.835,3.005,2.055c0-9.153,0.05-18.213-0.023-27.273
		c-0.033-4.062,0.459-7.98,2.267-11.654c0.984-1.998,2.706-4.664,4.418-4.403c7.568,1.155,9.822-8.387,16.806-7.848
		c3.142,0.242,6.079,1.348,7.532,4.217c1.533,3.026,3.714,4.549,6.845,5.731c5.001,1.887,8.818,6.015,8.669,11.225
		c-0.158,5.5-3.882,10.092-8.085,13.806c-1.546,1.366-3.178,0.448-4.585-0.487c-1.325-0.881-0.579-1.838-0.113-2.989
		c2.147-5.298-0.976-10.053-7.002-10.883c-6.353-0.875-12.581,2.578-15.764,9.115c-3.483,7.154-4.877,14.828-4.917,22.76
		c-0.006,1.166,0.032,2.333,0.006,3.499c-0.188,8.382,1.937,7.937-7.797,8.399c-8.35,0.397-16.651,1.191-24.463,4.43
		c-6.511,2.7-12.073,6.559-13.981,13.885c-1.312,5.038-0.35,9.723,3.609,13.275c3.967,3.56,8.358,2.277,12.645,0.398
		c1.28-0.561,2.41-2.095,4.024-0.725c1.517,1.287,1.165,3.031,0.967,4.654c-0.743,6.086-9.058,11.453-16.259,9.912
		c-9.38-2.008-17.401-6.098-19.541-16.703c-0.374-1.853-1.816-2.199-2.944-3.077c-5.182-4.035-4.819-11.18,0.785-14.619
		c1.339-0.822,2.966-0.838,2.374-3.451c-1.796-7.917,1.425-12.264,9.688-12.162c11.55,0.143,22.926-1.482,34.38-2.292
		c0.816-0.058,1.626-0.206,2.439-0.312C194.719,182.766,194.828,182.328,194.938,181.891z M177.361,158.988
		c-1.571-4.621-3.594-8.901-7.799-11.625c-1.339-0.867-3.13-2.279-4.474-0.825c-1.196,1.294,0.562,2.726,1.375,3.818
		C169.278,154.133,172.994,156.895,177.361,158.988z"/>
	<path fill="FRAME_COLOR" d="M323.646,208.614c2.661,0.092,3.752-1.996,4.836-3.778c5.958-9.802,13.897-17.151,24.535-21.849
		c5.118-2.26,9.511-6.109,14.396-8.956c13.932-8.12,33.27,3.224,33.324,19.479c0.009,2.664-0.069,5.331-0.202,7.992
		c-0.141,2.809,0.773,5.131,2.542,7.333c9.962,12.403,5.082,28.422-10.181,33.623c-3.492,1.19-7.094,1.949-10.773,1.96
		c-17.419,0.052-34.982,2.47-52.074-3.115c-2.048-0.669-4.193-1.023-6.229-2.645c1.332-0.192,2.397-0.345,4.161-0.599
		c-2.954-1.635-5.331-2.951-7.709-4.267c0.075-0.208,0.149-0.416,0.224-0.624c4.152,1.24,8.304,2.481,12.559,3.752
		c-0.012-2-2.347-0.836-2.654-2.46c3.827-0.975,7.443,1.298,12.542,0.511c-5.667-1.309-10.115-2.262-14.511-3.412
		c-0.939-0.246-2.666-0.234-2.4-1.934c0.238-1.524,1.684-1.367,2.82-1.391c5.834-0.121,11.416-1.382,16.818-3.796
		c-6.44,1.106-12.773-0.373-19.35-0.276c1.371-2.338,3.964-1.061,5.8-2.615c-1.785-0.259-3.313-0.481-6.307-0.916
		c3.78-0.221,6.059-0.355,8.703-0.509c-1.969-1.826-4.166-0.383-6.378-1.62c8.018-3.822,16.99-2.906,24.52-7.135
		c-8.701,1.588-17.403,3.176-26.127,4.768c-0.295-2.25,1.929-2.649,1.981-4.357c-1.178-1.094-1.287,0.998-2.554,0.411
		c-0.391-1.185,2.002-1.928,1.556-3.589c-1.151-1.016-2.623,1.999-3.718-0.18C323.794,208.418,323.646,208.614,323.646,208.614z
		 M358.622,231.51c-6.6,0-13.199,0-19.799,0C345.345,232.534,351.881,232.441,358.622,231.51z"/>
	<path fill="FRAME_COLOR" d="M202.805,743.387c-10.056,9.669-11.479,23.291-4.723,33.896c1.457,2.286,5.332,5.042,2.231,7.575
		c-3.072,2.509-6.219-0.835-8.543-3.11c-5.867-5.745-6.991-12.952-5.507-21.03c-2.857,3.161-3.532,5.166-3.863,10.861
		c-0.222,3.818,0.175,7.685-0.818,11.441c-1.399,5.29-6.126,8.192-11.497,7.14c-1.741-0.341-3.501-1.093-3.852-2.784
		c-1.241-5.972-4.394-3.329-7.165-1.677c-2.73,1.627-5.15,3.692-6.705,6.571c-0.919,1.701-0.712,3.324,0.839,4.448
		c1.703,1.233,3.304,0.626,4.093-1.173c0.892-2.034,2.263-2.145,4.058-1.649c2.055,0.568,2.962,1.977,3.133,4.012
		c0.249,2.962-0.965,5.22-3.42,6.745c-4.959,3.081-10.317,4.6-16.199,3.735c-2.378-0.35-4.604-0.955-5.488-3.615
		c-0.327-0.984-1.056-1.597-1.922-2.189c-6.037-4.124-9.264-14.515-6.579-21.196c1.034-2.573,2.632-4.749,5.634-5.091
		c2.521-0.287,4.568,0.892,6.004,2.907c1.102,1.546,1.806,3.284,0.141,4.967c-1.295,1.309-3.053,2.635-1.249,4.569
		c1.638,1.756,3.782,0.926,5.602,0.164c1.932-0.81,3.427-2.217,2.967-4.61c-0.182-0.949-0.684-1.875-1.198-2.715
		c-1.442-2.354-1.946-4.207,1.605-5.102c2.279-0.574,3.353-2.609,4.223-4.641c0.763-1.784,0.801-3.106-1.648-3.649
		c-2.97-0.658-4.526-2.768-4.364-5.824c0.168-3.162,2.037-5.207,4.91-6.319c4.036-1.562,8.231-0.828,12.373-0.708
		c7.523,0.219,11.017-0.836,15.293-4.884c-4.163,0.299-8.079,0.992-11.943,0.772c-7.54-0.43-14.029-2.993-17.114-10.731
		c-0.487-1.221-1.3-2.626-0.287-3.748c1.16-1.285,2.454-0.093,3.591,0.446c7.27,3.445,14.665,6.469,22.908,6.305
		c6.009-0.119,11.828-1.015,16.778-4.429c-0.248-1.747-1.192-1.619-1.967-1.633c-12.701-0.22-25.128-2.98-37.738-4.083
		c-7.175-0.627-9.395-3.929-7.417-10.758c0.668-2.308-0.175-2.739-1.777-3.694c-4.697-2.801-6.04-6.63-4.13-10.88
		c1.986-4.418,5.017-4.991,10.791-3.718c6.006,1.323,9.947,3.209,11.525,10.208c1.55,6.876,8.336,10.025,14.506,12.775
		c7.605,3.39,15.778,4.441,23.938,4.267c5.451-0.116,6.279,1.99,5.927,6.678c-0.589,7.85,0.054,15.65,2.886,23.127
		c2.269,5.99,5.687,10.901,12.023,13.211c4.262,1.554,8.226,1.046,11.806-1.674c4.543-3.452,4.223-8.844-0.851-11.596
		c-2.589-1.404-1.918-2.562-0.545-4.203c2.947-3.524,7.247-3.574,11.478-0.083c7.536,6.218,6.81,19.768-1.608,26.386
		c-3.903,3.068-8.397,5.009-11.667,9.333c-3.347,4.426-10.58,3.162-13.817-1.414c-1.05-1.485-1.765-2.591-3.864-2.113
		c-4.139,0.943-6.581-1.454-8.415-4.736c-2.415-4.323-3.395-9.001-3.386-13.924C202.816,761.897,202.805,753.252,202.805,743.387z
		 M177.836,760.689c-4.272,2.478-8.653,4.647-11.613,8.584c-0.802,1.067-2.369,2.541-1.044,3.865c1.171,1.171,2.88,0.142,4.104-0.65
		C173.609,769.688,175.752,765.21,177.836,760.689z"/>
	<path fill="FRAME_COLOR" d="M976.198,706.461c-1.857,5.037-4.905,6.321-9.447,6.317c-84.329-0.086-168.659-0.039-252.988-0.019
		c-4.833,0.001-9.682,0.254-14.496-0.049c-6.74-0.425-12.065,1.77-15.949,7.341c-0.855,1.227-1.789,2.965-3.224,0.653
		c-4.661-7.512-12.016-7.986-19.749-7.969c-34.332,0.073-68.664,0.042-102.995,0.043c-36.165,0.001-72.33-0.005-108.495-0.007
		c-2.802,0-5.604,0-8.678,0c0.961-5.005,3.254-6.561,7.98-6.547c69.83,0.2,139.661-0.003,209.489,0.438
		c9.723,0.061,16.408-2.779,20.824-11.161c2.078-3.944,3.843-3.859,5.759,0.082c0.501,1.031,1.428,1.846,2.042,2.834
		c3.775,6.08,8.989,8.197,16.318,8.179c89.829-0.226,179.658-0.139,269.487-0.133C973.235,706.461,974.393,706.461,976.198,706.461z
		"/>
	<path fill="FRAME_COLOR" d="M296.353,205.592c-3.312-2.912-6.118-6.268-11.128-9.172c4.215,5.001,7.589,9.004,11.499,13.643
		c-8.209-1.715-14.777-5.868-22.299-7.166c5.957,2.8,11.91,5.609,17.878,8.387c0.849,0.395,2.213,0.282,1.903,1.753
		c-0.422,1.998-1.832,0.852-2.758,0.62c-5.342-1.339-10.706-1.933-16.947-0.827c7.152,0.96,13.856,0.594,20.893,4.665
		c-7.036,1.279-13.03,1.139-18.628,3.356c5.087,0.349,10.167-1.197,16.105-0.214c-5.026,1.062-9.319,1.724-13.445,3.188
		c-16.918,6.003-30.184,1.773-40.545-12.821c-6.267-8.828-9.002-18.827-9.264-29.531c-0.157-6.416,3.009-11.034,9.034-12.898
		c5.842-1.808,9.236-5.396,11.157-11.014c1.338-3.913,2.839-7.817,5.58-11.085c6.065-7.23,15.071-7.602,21.801-0.939
		c6.946,6.878,10.249,15.32,11.405,24.889c1.054,8.725,0.803,17.674,4.047,26.058C293.823,199.539,295.113,202.556,296.353,205.592z
		"/>
	<path fill="FRAME_COLOR" d="M1238.919,460.393c-5.967,3.276-11.328,6.737-16.15,11.174c-3.531,3.249-8.235,1.595-10.868-3.641
		c-1.316-2.617-1.772-3.364-4.86-1.452c-3.643,2.257-8.462,1.492-12.634,0.947c-3.055-0.399-4.056,0.731-4.581,3.009
		c-0.598,2.589,1.336,4.026,3.198,5.103c1.58,0.914,1.975-0.893,2.354-1.778c2.097-4.885,6.012-4.18,9.679-2.903
		c4.083,1.422,5.896,5.683,4.424,9.854c-1.353,3.835-4.111,6.342-8.385,5.192c-2.451-0.66-2.78,0.375-3.333,2.096
		c-0.66,2.053-1.672,4-2.242,6.072c-0.492,1.79-1.367,2.52-3.198,2.213c-7.146-1.197-14.292-0.52-21.408,0.224
		c-3.17,0.331-4.013-0.781-4-3.819c0.133-30.638,0.213-61.276,0.125-91.913c-0.01-3.624,1.342-5.159,4.69-5.519
		c1.977-0.213,3.955-0.865,5.907-0.774c10.413,0.485,12.453,2.695,12.481,13.077c0.011,4.163-0.002,8.326,0.054,12.488
		c0.043,3.158-0.962,6.681,4.311,7.106c2.4,0.193,2.219,3.424,2.805,5.417c0.71,2.415,1.238,4.067,4.624,3.385
		c3.693-0.744,6.274,1.603,7.668,5.043c1.438,3.55,0.617,6.567-2.417,8.863c-3.156,2.388-6.7,2.774-10.395,1.49
		c-0.52-0.181-0.886-0.912-1.241-1.443c-0.79-1.182-0.169-4.091-2.732-3.063c-2.294,0.92-3.423,3.333-2.701,5.835
		c0.641,2.222,2.193,3.896,4.883,2.805c2.559-1.037,5.191-1.065,7.858-0.981c1.339,0.042,2.939,0.02,3.64,1.241
		c2.228,3.877,3.365,2.035,4.971-0.552c4.276-6.892,7.534-7.458,14.192-2.638C1229.763,455.537,1233.791,458.661,1238.919,460.393z
		 M1178.336,454.992c-2.307,0.018-8.975,4.392-8.842,5.8c0.142,1.513,6.714,6.459,8.726,6.186c3.257-0.441,4.838-3.199,6.392-5.661
		C1185.169,460.437,1179.584,454.982,1178.336,454.992z M1189.633,436.66c0.078,1.374-0.712,3.16,1.475,3.601
		c1.251,0.252,2.78,1.052,3.783,0.006c1.23-1.282-0.562-2.287-0.871-3.459c-0.168-0.634-0.286-1.281-0.419-1.924
		c-0.36-1.75,1.213-4.842-1.611-4.879c-2.876-0.038-1.633,3.327-2.253,5.171C1189.585,435.627,1189.669,436.159,1189.633,436.66z
		 M1189.455,485.269c0.269,2.308,0.42,3.948,0.661,5.576c0.191,1.284,0.265,2.854,2.197,2.542c1.752-0.283,1.28-1.76,0.999-2.749
		c-0.646-2.27-0.448-4.194,1.41-5.826c0.635-0.558,1.146-1.482,0.504-2.151c-0.461-0.48-1.455-0.621-2.209-0.615
		C1190.499,482.067,1188.786,482.927,1189.455,485.269z"/>
	<path fill="FRAME_COLOR" d="M969.782,763.527c6.726-7.819,14.204-12.012,22.585-14.35c16.861-4.705,33.945-8.042,51.615-7.855
		c23.305,0.247,46.614,0.144,69.921,0.078c3.114-0.009,5.657,0.597,8.261,2.523c3.808,2.817,7.71,5.688,13.211,3.226
		c2.806-1.256,7.23,3.058,8.596,7.559c1.499,4.936-0.777,10.6-4.887,12.35c-1.927,0.821-3.5,0.406-5.07-0.863
		c-1.312-1.061-1.321-2.028-0.433-3.392c2.224-3.417,0.767-6.449-1.457-9.103c-2.456-2.931-5.828-3.717-9.513-3.033
		c-7.276,1.35-12.542,8.279-12.89,16.867c-0.125,3.101-5.064,9.599-7.833,10.358c-0.958,0.263-1.564-0.303-2.219-0.785
		c-15.586-11.491-33.629-13.597-52.197-13.614c-24.306-0.022-48.612,0.019-72.918,0.032
		C973.417,763.527,972.281,763.527,969.782,763.527z"/>
	<path fill="FRAME_COLOR" d="M680.103,763.128c-1.378,3.012-2.676,6.064-4.149,9.029c-4.381,8.82-9.733,11.385-19.238,9.203
		c-3.191-0.732-5.424,1.275-7.82,2.6c-7.281,4.027-14.207,3.09-20.647-1.564c-5.573-4.028-8.059-9.683-6.73-16.611
		c1.114-5.807,5.369-9.908,10.942-10.998c2.034-0.398,4.019-0.374,5.845,0.596c1.685,0.895,3.015,2.409,3.103,4.279
		c0.089,1.9-1.989,1.23-3.076,1.756c-3.759,1.82-4.207,6.381-0.935,9.592c4.72,4.632,16.276,5.028,22.03,0.754
		c6.63-4.925,8.123-12.541,3.735-20.008c-5.875-9.997-15.104-14.38-26.294-14.528c-21.827-0.288-43.66-0.269-65.49-0.279
		c-72.992-0.035-145.983-0.071-218.975,0.07c-4.628,0.009-7.058-2.711-10.213-4.98c1.03-1.24,2.085-0.767,3.002-0.767
		c105.987,0.045,211.975,0.117,317.962,0.158c7.802,0.003,11.44,5.248,14.364,11.25c3.018,6.193,2.231,13.049,2.898,19.646
		C680.392,762.625,680.287,762.892,680.103,763.128z"/>
	<path fill="FRAME_COLOR" d="M879.691,204.259c-2.92,5.393-6.872,6.395-11.726,6.382c-55.314-0.148-110.631,0.053-165.94-0.468
		c-8.417-0.079-13.647,2.854-17.507,9.468c-2.307,3.954-3.974,4.116-6.278,0.055c-3.932-6.932-9.466-9.611-17.976-9.563
		c-82.136,0.469-164.275,0.416-246.414,0.499c-1.157,0.001-2.427,0.123-3.447-0.294c-2.204-0.902-4.736-2.646-4.501-4.795
		c0.277-2.538,3.291-1.198,5.017-1.2c81.305-0.085,162.611-0.084,243.916-0.098c2.499,0,4.998-0.021,7.497-0.064
		c7.049-0.12,13.124-2.282,17.101-8.508c1.316-2.06,2.171-2.524,3.793-0.166c4.413,6.415,10.512,8.795,18.418,8.769
		c56.98-0.185,113.96-0.05,170.94-0.017C874.714,204.26,876.843,204.259,879.691,204.259z"/>
	<path fill="FRAME_COLOR" d="M682.9,763.75c-0.566-9.048-0.819-18.045,4.685-25.991c2.919-4.214,6.559-6.375,12.101-6.369
		c84.48,0.083,168.96-0.06,253.441,0.02c2.442,0.002,7.09-2.178,7.288,1.611c0.269,5.153-4.884,3.724-8.085,3.733
		c-45.156,0.121-90.312,0.152-135.468,0.194c-29.493,0.027-58.986,0.03-88.479,0.057c-11.858,0.011-22.068,3.497-28.5,14.237
		c-5.15,8.599-2.726,17.749,6.098,21.924c6.271,2.966,12.806,2.117,18.551-1.68c4.56-3.014,3.85-8.212-1.305-10.274
		c-2.408-0.963-2.231-2.029-1.178-3.686c1.776-2.797,4.438-3.297,7.44-2.69c5.734,1.159,9.662,4.504,11.249,10.131
		c1.749,6.2-0.288,11.586-4.692,15.969c-6.504,6.473-14.872,7.368-22.857,2.66c-3.198-1.886-5.953-3.356-10.088-1.411
		c-4.608,2.168-8.613-0.796-12.078-3.91c-4.396-3.952-5.958-9.495-8.229-14.658C682.786,763.604,682.9,763.75,682.9,763.75z"/>
	<path fill="FRAME_COLOR" d="M679.258,152.566c1.462,10.101,1.696,19.981-5.468,28.402c-2.333,2.742-5.052,4.526-8.998,4.523
		c-85.495-0.068-170.99-0.078-256.485,0.04c-4.193,0.006-6.491-1.373-7.462-5.345c1.158-1.177,2.557-0.627,3.794-0.627
		c75.662,0.012,151.325,0.017,226.987,0.134c11.191,0.017,21.615-1.421,29.4-10.669c6.375-7.572,6.825-16.476,0.921-22.596
		c-5.699-5.908-17.719-6.235-24.429-0.744c-1.894,1.55-2.519,3.424-2.172,5.742c0.376,2.513,1.955,3.888,4.367,4.045
		c3.7,0.24,2.543,1.88,1.311,3.774c-1.527,2.348-3.653,3.204-6.385,3.075c-5.543-0.261-9.498-3.018-11.893-7.838
		c-2.636-5.306-2.498-10.66,0.944-15.644c5.752-8.327,16.683-10.854,25.598-5.895c3.356,1.866,6.528,2.692,10.426,1.264
		c4.879-1.788,11.173,1.41,14.48,7.211c2.041,3.581,3.445,7.526,5.135,11.308L679.258,152.566z"/>
	<path fill="FRAME_COLOR" d="M195.598,272.769c0,17.659-0.099,35.318,0.079,52.975c0.038,3.778-0.903,5.168-4.781,4.342
		c-4.065-0.866-8.202-1.414-12.323-1.994c-3.913-0.551-5.501-2.39-5.526-6.637c-0.083-13.646,0.579-27.332-1.304-40.923
		c-1.598-11.536-4.299-22.654-12.986-31.2c-2.252-2.215-0.005-3.437,0.497-5.163c1.372-4.721,3.745-6.12,8.99-5.178
		c6.302,1.132,12.246-1.161,16.205-6.731c3.905-5.493,2.987-13.292-1.858-17.859c-1.293-1.219-2.353-1.373-2.893,0.548
		c-0.592,2.108-1.77,3.274-3.973,2.567c-2.404-0.772-4.615-1.829-5.361-4.685c-1.395-5.344,2.842-10.72,8.649-10.823
		c8.973-0.159,15.592,5.914,16.399,15.297c0.313,3.641,0.214,7.322,0.219,10.985c0.021,14.826,0.009,29.653,0.009,44.479
		C195.626,272.769,195.612,272.769,195.598,272.769z"/>
	<path fill="FRAME_COLOR" d="M914.413,179.655c-8.886,5.308-17.957,5.88-27.409,5.851c-63.135-0.191-126.271-0.088-189.407-0.087
		c-5.479,0-10.927-4.342-13.069-11.256c-3.447-11.127-3.1-22.015,3.485-32.139c4.462-6.861,9.485-9.027,17.197-7.111
		c3.369,0.837,5.721-1.002,8.333-2.424c7.275-3.96,14.18-2.685,20.651,1.843c5.778,4.043,7.843,9.753,6.513,16.623
		c-1.25,6.46-7.425,11.629-13.302,11.456c-2.389-0.071-4.136-1.037-5.429-2.98c-1.261-1.895-1.996-3.177,1.228-4.225
		c5.229-1.699,5.702-6.239,1.362-9.748c-6.416-5.187-17.327-5.001-23.046,0.393c-6.107,5.759-6.557,14.127-0.958,21.765
		c5.105,6.964,12.09,10.917,20.686,11.583c5.635,0.437,11.312,0.427,16.971,0.43c57.471,0.03,114.943,0.022,172.414,0.024
		C911.781,179.655,912.929,179.655,914.413,179.655z"/>
	<path fill="FRAME_COLOR" d="M969.897,218.698c-4.188,2.534-0.617,7.854-4.559,10.293c-1.541-2.671-2.956-5.434-4.656-8.01
		c-5.065-7.674-11.532-9.926-20.314-6.999c-2.664,0.888-5.343,2.004-7.687,3.521c-6.289,4.072-13.06,5.047-20.117,3.201
		c-13.766-3.6-26.338-1.79-37.769,7.064c-2.46,1.905-5.485,3.103-8.313,4.496c-1.036,0.511-2.385,0.759-3.27-0.258
		c-1.004-1.154,0.007-2.206,0.661-3.092c10.625-14.402,22.199-28.044,36.713-38.602c16.762-12.193,35.907-9.277,50.016,6.717
		c4.969,5.633,9.337,11.733,13.202,18.164C965.205,217.53,966.528,219.452,969.897,218.698z M911.892,203.003
		c14.392-2.666,28.158-0.814,41.252,5.881C940.395,199.708,926.612,197.974,911.892,203.003z"/>
	<path fill="FRAME_COLOR" d="M1167.305,594.205c0-25.9,0.015-51.138-0.028-76.377c-0.004-2.095,0.923-3.366,2.566-4.467
		c5.625-3.77,12.453-4.571,18.405-7.534c1.638-0.815,1.995,0.414,1.998,1.738c0.005,2.494-0.031,4.989-0.028,7.483
		c0.026,18.956-0.024,37.914,0.167,56.869c0.032,3.182-0.876,5.151-3.451,7.037C1180.391,583.749,1174.1,588.888,1167.305,594.205z"
		/>
	<path fill="FRAME_COLOR" d="M1191.118,285.91c-1.674,24.426-0.8,48.024-0.965,71.611c-0.012,1.702,0.105,3.303-2.199,3.783
		c-7.454,1.552-13.798,5.561-20.065,9.464c-1.639-0.835-0.882-2.156-0.882-3.17c-0.002-18.791,0.12-37.583,0.038-56.374
		c-0.015-3.372,0.99-5.361,4.06-7.094c5.396-3.046,9.526-7.713,13.501-12.433C1186.297,289.69,1187.917,287.609,1191.118,285.91z"/>
	<path fill="FRAME_COLOR" d="M1199.981,164.659c-4.512-0.394-9.024-0.51-13.258,1.44c-1.943,0.895-2.626,0.578-2.538-1.732
		c0.243-6.368-1.286-12.572-2.083-18.842c-0.43-3.388-0.187-6.688,1.002-9.835c1.429-3.784,4.378-5.805,8.396-6.088
		c3.459-0.243,6.311,0.681,7.295,4.523c0.448,1.748,1.468,1.893,2.994,1.227c3.886-1.698,7.303-4.071,9.97-7.333
		c1.428-1.746,2.146-4.094-0.074-5.753c-1.877-1.403-3.269-0.145-4.486,1.564c-2.445,3.435-4.822,1.54-6.333-0.762
		c-2.352-3.585-0.815-6.788,2.271-9.146c5.418-4.138,11.705-4.345,18.14-3.545c0.163,0.02,0.401,0.042,0.467,0.148
		c2.882,4.598,9.016,6.325,10.935,11.505c1.972,5.324,2.684,11.088,0.488,16.626c-1.991,5.021-7.409,6.264-10.873,2.638
		c-2.055-2.151-3.175-4.574,0.276-6.468c1.482-0.813,1.844-1.777,1.444-3.231c-0.46-1.67-1.834-1.732-3.201-1.705
		c-2.284,0.045-4.348,0.696-5.512,2.813c-1.192,2.167-1.472,4.322,0.382,6.451c1.733,1.989,2.547,3.683-1.432,4.049
		c-2.977,0.274-3.593,3.203-4.424,5.491c-0.959,2.64,1.652,2.335,2.91,3.023c2.59,1.416,3.155,3.633,2.92,6.338
		c-0.31,3.576-2.69,5.231-5.73,6.092c-1.573,0.445-3.295,0.417-4.954,0.494C1203.314,164.719,1201.646,164.659,1199.981,164.659z
		 M1186.525,158.933c4.309-1.988,8.149-4.535,11.08-8.164c1.04-1.288,3.036-3.148,1.407-4.677c-1.354-1.271-3.514,0.249-4.885,1.296
		C1190.337,150.284,1188.401,154.557,1186.525,158.933z"/>
	<path fill="FRAME_COLOR" d="M244.091,741.354c10.969-2.519,17.192,3.261,21.874,12.18c1.694,3.227,4.161,6.018,6.917,8.468
		c3.889,3.457,7.346,3.297,10.769-0.6c3.96-4.509,4.51-9.77,3.328-15.456c-0.352-1.693-1.656-4.162,0.022-5.102
		c2.049-1.148,4.074,0.808,5.612,2.296c5.293,5.12,7.498,12.104,10.658,18.464c1.556,3.132-1.695,2.395-3.18,2.518
		c-10.083,0.838-19.602,3.576-28.583,8.21c-1.181,0.61-2.319,1.303-3.491,1.93c-2.793,1.493-4.862,5.836-8.95,1.267
		c-2.308-2.58-4.817-4.164-4.863-8.415c-0.094-8.79-6.889-15.81-14.605-16.255c-7.263-0.419-11.516,5.095-9.066,11.893
		c0.489,1.358,0.953,2.536-0.284,3.603c-1.74,1.503-3.67,1.321-5.587,0.365c-5.411-2.698-7.409-10.611-3.602-16.051
		c3.938-5.627,8.983-9.817,16.546-9.336C239.76,741.47,241.929,741.354,244.091,741.354z"/>
	<path fill="FRAME_COLOR" d="M195.591,417.051c-6.235-5.141-12.137-8.007-19.083-8.007c-3.469,0-3.466-2.087-3.462-4.619
		c0.024-15.631-0.114-31.263,0.034-46.892c0.02-2.102-1.842-5.721,1.714-6.204c3.45-0.468,7.535-0.317,9.628,3.646
		c1.317,2.495,2.367,5.129,3.604,7.668c1.017,2.088,1.647,4.716,3.295,6.08c4.847,4.009,4.349,9.208,4.3,14.52
		C195.521,394.165,195.591,405.088,195.591,417.051z"/>
	<path fill="FRAME_COLOR" d="M679.331,152.727c1.621-11.029-4.25-22.402-12.944-24.85c-3.052-0.859-6.288-1.904-7.563,2.751
		c-0.516,1.885-2.367,2.21-4.128,1.978c-2.221-0.293-3.511-1.725-4.183-3.788c-1.365-4.192,0.955-8.789,5.565-11.027
		c4.025-1.955,5.875-1.838,15.908,1.149c-1.477-7.065,2.296-11.855,6.562-16.526c1.864-2.041,3.025-2.402,5.03-0.052
		c4.052,4.747,8.001,9.411,6.815,16.783c5.716-2.508,10.732-4.202,16.04-1.402c3.508,1.851,5.776,4.539,5.888,8.601
		c0.081,2.923-1.243,5.122-4.097,6.213c-2.905,1.111-4.405-0.528-5.428-2.876c-1.123-2.577-3.269-2.612-5.472-2.229
		c-6.074,1.056-9.32,5.348-11.762,10.52c-2.509,5.315-3.039,11.152-4.275,16.818c-1.441-0.22-1.325-1.55-2.022-2.207
		C679.258,152.566,679.331,152.727,679.331,152.727z"/>
	<path fill="FRAME_COLOR" d="M680.103,763.128c0.184-0.237,0.289-0.504,0.314-0.801c1.528-0.775,1.555,1.092,2.475,1.412
		c0.008,0.011-0.107-0.136-0.098-0.124c-0.339,8.317,1.564,15.917,7.569,21.961c4.798,4.829,8.853,4.691,13.365-0.016
		c2.46-2.567,5.546-2.251,7.513,0.769c2.4,3.684,0.886,8.71-3.492,11.617c-5.6,3.718-11.128,2.069-17.293-0.733
		c1.071,7.343-3.096,11.939-7.1,16.648c-1.562,1.837-2.778,1.832-4.426,0.034c-4.257-4.645-7.907-9.514-7.176-16.826
		c-5.922,3.347-11.426,4.464-17.033,1.032c-4.281-2.62-6-7.893-3.832-11.593c1.822-3.109,5.177-3.682,7.465-1.274
		c4.933,5.193,9.437,5.116,14.246-0.331c4.232-4.794,6.121-10.605,7.019-16.803C679.857,766.454,679.946,764.786,680.103,763.128z"
		/>
	<path fill="FRAME_COLOR" d="M1192.695,644.862c3.447,10.463,6.535,19.987,13.491,27.54c1.201,1.305,0.611,2.337-0.136,3.539
		c-0.964,1.552-2.053,3.109-2.596,4.82c-0.875,2.762-2.28,3.216-5.157,2.912c-10.61-1.119-19.103,4.111-21.213,12.555
		c-1.232,4.932,1.398,10.988,5.45,12.071c2.01,0.537,4.283,1.246,5.857-1.16c0.661-1.011,1.578-1.821,2.912-1.298
		c1.474,0.578,1.68,1.986,1.787,3.318c0.352,4.385-3.825,8.709-8.795,9.168c-8.379,0.774-15.903-5.43-16.755-14.297
		c-0.477-4.956-0.164-9.987-0.247-14.984c-0.024-1.464,0.58-2.489,1.706-3.393c12.393-9.953,18.884-23.392,22.641-38.44
		C1191.751,646.764,1192.018,646.354,1192.695,644.862z"/>
	<path fill="FRAME_COLOR" d="M195.697,673.606c0,0.665,0.01,1.331-0.002,1.996c-0.055,2.99,1.062,7.048-0.453,8.717
		c-2.238,2.466-4.675-2.53-7.458-2.127c-4.899,0.71-6.466-3.03-8.8-5.897c-3.458-4.248-6.586-8.816-10.947-12.231
		c-1.684-1.319-1.564-2.606-0.893-4.341c1.919-4.964,3.592-10.023,4.501-15.277c0.429-2.483,1.633-3.018,3.801-2.217
		c0.154,0.057,0.326,0.094,0.489,0.093c8.745-0.027,14.269,2.501,16.481,12.65C193.765,661.162,196.304,667.047,195.697,673.606z"/>
	<path fill="FRAME_COLOR" d="M990.002,695.633c-3.965,3.104-7.333,2.599-10.49,2.603c-53.788,0.075-107.577,0.051-161.365,0.157
		c-37.967,0.075-75.934,0.312-113.901,0.479c-0.833,0.004-1.665,0.062-2.497,0.045c-1.025-0.021-2.127-0.131-1.964-1.534
		c0.126-1.091,1.152-1.021,1.954-1.028c5.828-0.055,11.656-0.065,17.484-0.124c85.427-0.877,170.856-0.6,256.284-0.598
		C979.829,695.633,984.152,695.633,990.002,695.633z"/>
	<path fill="FRAME_COLOR" d="M1130.733,300.7c4.609,4.032,6.704,8.116,6.623,14.081c-0.412,30.464-0.301,60.934-0.406,91.402
		c-0.012,3.479-0.013,6.996-2.276,11.299c-1.44-7.238-3.698-13.512-3.771-19.811C1130.535,365.56,1130.733,333.443,1130.733,300.7z"
		/>
	<path fill="FRAME_COLOR" d="M538.038,217.908c40.648,0,81.295-0.002,121.943,0.011c1.178,0,3.1-1.022,3.172,1.056c0.069,2.023-1.941,1.287-3.105,1.306
		c-81.124,1.322-162.256,0.812-243.385,0.966c-1.372,0.003-4.051,1.046-3.838-1.497c0.175-2.095,2.756-1.206,4.266-1.208
		c40.316-0.049,80.631-0.039,120.947-0.039C538.038,218.306,538.038,218.107,538.038,217.908z"/>
	<path fill="FRAME_COLOR" d="M1130.523,643.503c0-13.396-0.082-26.792,0.059-40.186c0.034-3.254,3.635-4.529,4.928-7.265
		c2.019-4.273,1.854-4.983-2.781-4.644c-1.965,0.144-2.279-0.36-2.278-1.977c0.009-15.491,0.029-30.982-0.034-46.473
		c-0.016-3.841,2.996-2.988,4.988-3.214c2.952-0.334,1.833,2.204,1.836,3.556c0.05,29.479-0.031,58.959,0.066,88.438
		c0.017,5.23-4.415,7.732-5.623,12.114C1131.297,643.737,1130.91,643.62,1130.523,643.503z"/>
	<path fill="FRAME_COLOR" d="M1197.593,186.657c5.408-1.143,10.122-1.645,14.708,0.431c4.683,2.12,6.244,5.263,4.594,10.09
		c-0.77,2.255-0.509,2.997,1.646,4.074c6.365,3.179,6.704,10.997,0.636,14.744c-1.88,1.161-2.711,2.235-3.156,4.448
		c-1.086,5.407-4.971,8.783-10.404,12.081C1206.409,216.308,1209.693,200.23,1197.593,186.657z"/>
	<path fill="FRAME_COLOR" d="M555.077,698.365c-34.307,0-68.614,0.013-102.92-0.043c-1.476-0.002-4.087,0.875-4.159-1.232
		c-0.075-2.183,2.535-1.507,4.049-1.502c69.279,0.21,138.558,0.456,207.836,0.733c1.162,0.005,3.152-0.831,3.201,1.164
		c0.046,1.907-1.796,1.335-3.091,1.335c-34.972-0.018-69.944-0.014-104.916-0.014C555.077,698.658,555.077,698.512,555.077,698.365z
		"/>
	<path fill="FRAME_COLOR" d="M1162.588,400.803c0.072,1.614,0.181,2.923,0.181,4.232c0.003,28.828-0.005,57.656-0.015,86.483
		c0,1.166-0.002,2.333-0.047,3.498c-0.08,2.1-1.589,2.159-3.163,2.27c-1.972,0.14-2.143-1.125-2.148-2.544
		c-0.021-5.999-0.038-11.997-0.027-17.996c0.042-22.828,0.122-45.657,0.115-68.485
		C1157.484,404.832,1158.013,401.958,1162.588,400.803z"/>
	<path fill="FRAME_COLOR" d="M866.633,219.361c-0.841,2.397-2.91,1.768-4.584,1.778c-53.138,0.315-106.273-0.091-159.404-0.911
		c-1.109-0.017-3.078,0.811-2.952-1.347c0.098-1.678,1.795-0.983,2.849-0.979c53.637,0.189,107.273,0.392,160.909,0.628
		C864.502,218.534,865.797,218.015,866.633,219.361z"/>
	<path fill="FRAME_COLOR" d="M1157.842,603.623c-0.988-2.195-0.459-4.192-0.463-6.118c-0.045-21.272,0.051-42.545-0.082-63.816
		c-0.031-4.918,1.159-9.145,4.574-12.725c1.482,0.29,0.969,1.491,0.968,2.363c-0.019,23.266-0.162,46.533-0.014,69.797
		C1162.853,597.477,1161.957,600.923,1157.842,603.623z"/>
	<path fill="FRAME_COLOR" d="M1112.157,736.903c-23.179,0-45.85,0-69.368,0c3.331-3.647,6.268-5.742,10.881-5.681c15.948,0.21,31.902,0.239,47.849-0.01
		C1106.146,731.139,1109.517,732.422,1112.157,736.903z"/>
	<path fill="FRAME_COLOR" d="M1157.295,380.065c0-22.96,0.039-45.072-0.048-67.184c-0.011-2.801,1.356-4.207,3.738-4.239
		c3.1-0.042,1.672,2.632,1.681,4.045c0.113,19.299,0.023,38.6,0.173,57.898C1162.87,374.637,1161.614,377.568,1157.295,380.065z"/>
	<path fill="FRAME_COLOR" d="M199.623,273.7c3.966,4.819,6.061,8.932,5.869,14.547c-0.458,13.458-0.18,26.939-0.299,40.411
		c-0.012,1.368,1.265,3.837-1.426,3.854c-2.398,0.016-4.242-1.089-4.179-4.315c0.185-9.476,0.043-18.959,0.036-28.44
		C199.619,291.448,199.623,283.139,199.623,273.7z"/>
	<path fill="FRAME_COLOR" d="M1137.095,445.981c0,16.583-0.031,33.167,0.024,49.75c0.012,3.654-3.037,3.967-5.144,4.166
		c-2.679,0.253-1.329-2.444-1.42-3.778C1129.39,479.049,1131.511,462.344,1137.095,445.981z"/>
	<path fill="FRAME_COLOR" d="M205.303,430.557c-4.694-5.173-6.034-11.012-5.783-17.605c0.418-10.97,0.08-21.969,0.155-32.955
		c0.008-1.106-0.986-3.118,1.04-3.187c1.676-0.057,3.738,0.316,4.457,2.485c0.102,0.309,0.125,0.656,0.125,0.985
		C205.304,397.039,205.303,413.798,205.303,430.557z"/>
	<path fill="FRAME_COLOR" d="M695.008,716.464c90.796,0,181.593,0,272.389,0c0,0.138,0,0.275,0,0.413c-90.752,0-181.504,0-272.256,0
		C695.097,716.739,695.052,716.601,695.008,716.464z"/>
	<ellipse cx="536.474" cy="200.478" rx="183.147" ry="0.412"/>
	<path fill="FRAME_COLOR" d="M1213.198,182.038c0.032,2.079-0.987,2.369-2.814,1.434c-8.52-4.359-17.34-7.621-27.124-7.307
		c-0.799,0.026-1.913,0.052-1.702-1.133c0.319-1.785,0.557-4.116,2.118-4.902c6.2-3.124,12.592-2.228,18.813,0.116
		C1207.939,172.298,1211.708,176.063,1213.198,182.038z"/>
	<ellipse cx="553.122" cy="716.732" rx="162.38" ry="0.311"/>
	<path fill="FRAME_COLOR" d="M335.44,712.339c4.012-4.408,8.594-6.383,14.525-6.109c9.912,0.458,19.861,0.125,29.853,0.91
		C365.957,716.688,350.281,710.83,335.44,712.339z"/>
	<path fill="FRAME_COLOR" d="M1118.717,371.627c-0.498-26.475-0.474-52.953,0.159-79.433c0.535-0.005,1.069-0.01,1.604-0.015c0,26.45,0,52.9,0,79.35
		C1119.892,371.561,1119.304,371.594,1118.717,371.627z"/>
	<path fill="FRAME_COLOR" d="M1101.506,695.091c3.923-0.336,7.84-0.83,11.769-0.961c3.663-0.123,5.083-1.432,5.063-5.389
		c-0.115-22.824,0.032-45.651,0.189-68.476c0.011-1.654-0.987-4.747,1.051-4.733c2.65,0.018,1.325,3.141,1.324,4.793
		c-0.009,23.657-0.237,47.315-0.211,70.972c0.004,3.605-0.999,5.137-4.713,5.143c-4.811,0.009-9.641,1.393-14.43,0.553
		C1101.535,696.359,1101.52,695.725,1101.506,695.091z"/>
	<path fill="FRAME_COLOR" d="M231.013,233.87c-3.825-2.727-7.318-5.171-6.688-10.903c0.524-4.77,0.009-9.65,0.042-14.481
		c0.027-3.882,2.37-5.675,5.581-3.939c2.869,1.551,3.771,4.916,5.436,7.555c0.076,0.12,0.086,0.422,0.009,0.478
		c-7.585,5.572-1.837,13.564-3.68,20.169C231.636,233.032,231.397,233.269,231.013,233.87z"/>
	<ellipse cx="788.54" cy="200.47" rx="131.835" ry="0.402"/>
	<path fill="FRAME_COLOR" d="M219.047,163.771c0.056-3.553,1.672-6.568,4.582-8.78c3.391-2.577,5.388-1.63,5.963,2.631
		c0.066,0.49-0.033,1.208,0.251,1.433c8.384,6.629-1.825,9.726-2.823,14.547c-0.42,2.028-2.047,1.116-3.101,0.302
		C220.678,171.404,219.344,167.925,219.047,163.771z"/>
	<path fill="FRAME_COLOR" d="M194.582,711.701c-4.626,2.363-9.089,5.169-13.929,6.952c-4.091,1.507-9.86-3.765-9.946-8.326
		c-0.026-1.376,0.373-2.371,1.893-2.242c7.322,0.624,14.436,2.658,21.923,2.193C194.543,710.752,194.562,711.227,194.582,711.701z"
		/>
	<path fill="FRAME_COLOR" d="M1120.989,570.159c0,7.633,0.031,15.266-0.034,22.899c-0.01,1.139,0.784,3.081-1.328,3.065
		c-1.676-0.013-1.147-1.757-1.149-2.782c-0.03-15.598-0.015-31.197,0.021-46.795c0.002-1.079-0.395-2.787,1.165-2.826
		c2.048-0.051,1.37,1.916,1.381,3.043c0.076,7.798,0.04,15.598,0.04,23.397C1121.054,570.159,1121.022,570.159,1120.989,570.159z"/>
	<path fill="FRAME_COLOR" d="M931.813,179.642c8.771,0,16.829,0.036,24.886-0.019c2.89-0.02,3.159,2.196,3.323,4.055
		c0.258,2.932-2.241,1.702-3.497,1.692C948.198,185.305,939.511,186.877,931.813,179.642z"/>
	<path fill="FRAME_COLOR" d="M231.779,437.521c0,2.643,0.002,5.285-0.001,7.928c-0.002,1.413-0.335,2.327-1.997,2.86
		c-4.816,1.545-5.255,1.344-5.31-3.764c-0.032-2.973,0.032-5.947-0.007-8.919c-0.027-2.066,0.49-3.954,1.837-5.504
		c1.208-1.39,2.906-2.861,4.607-2.378c1.964,0.558,0.874,2.815,0.987,4.329c0.134,1.807,0.032,3.631,0.032,5.448
		C231.877,437.521,231.828,437.521,231.779,437.521z"/>
	<path fill="FRAME_COLOR" d="M199.63,666.892c3.991,1.923,6.062,4.053,5.803,8.261c-0.337,5.468-0.114,10.971-0.152,16.459
		c-0.002,0.298-0.195,0.595-0.419,1.237c-3.606-1.415-5.434-3.672-5.286-7.746C199.79,679.203,199.63,673.29,199.63,666.892z"/>
	<path fill="FRAME_COLOR" d="M248.838,711.817c1.319-3.873,3.46-5.886,7.963-5.575c5.844,0.404,11.738,0.099,17.599,0.569
		C267.463,712.14,258.156,713.785,248.838,711.817z"/>
	<path fill="FRAME_COLOR" d="M1118.395,706.37c2.484,0.004,4.972,0.095,7.45-0.019c3.049-0.14,3.544,1.871,3.671,4.165
		c0.16,2.89-2.137,1.94-3.529,1.994c-3.969,0.152-7.948,0.039-11.92,0.146c-2.014,0.054-3.518-0.566-4.509-2.375
		c-0.541-0.988-1.696-1.856-1.2-3.075c0.568-1.394,2.017-0.767,3.082-0.81C1113.755,706.301,1116.076,706.366,1118.395,706.37z"/>
	<path fill="FRAME_COLOR" d="M391.371,696.689c-2.849,1.929-33.449,2.512-39.773,0.758C354.023,695.263,386.274,694.648,391.371,696.689z"/>
	<path fill="FRAME_COLOR" d="M243.718,341.587c0,15.728,0.008,31.133-0.019,46.537c-0.002,0.961-0.105,2.16-1.523,2.026
		c-1.129-0.106-0.962-1.15-0.954-1.927c0.141-14.599,0.288-29.198,0.479-43.797C241.713,343.5,241.705,342.389,243.718,341.587z"/>
	<path fill="FRAME_COLOR" d="M1141.498,312.096c0,30.287,0,60.575,0,90.862c-0.194,0-0.388-0.001-0.582-0.001c0-30.363,0-60.726,0-91.089
		C1141.11,311.944,1141.304,312.02,1141.498,312.096z"/>
	<path fill="FRAME_COLOR" d="M980.288,209.508c-11.291,2.904-15.943,1.731-18.99-4.519C970.475,202.889,974.813,203.867,980.288,209.508z"/>
	<path fill="FRAME_COLOR" d="M1141.49,540.864c0,29.221,0,58.442,0,87.663c-0.197,0-0.394,0-0.59-0.001c0-29.19,0-58.381,0-87.571
		C1141.096,540.925,1141.293,540.895,1141.49,540.864z"/>
	<path fill="FRAME_COLOR" d="M287.129,696.879c-0.268,0.928-0.91,1.295-1.839,1.305c-8.311,0.092-16.552-0.785-24.783-1.783
		c-0.941-0.114-2.158-0.051-1.901-1.566c0.162-0.956,0.949-1.432,1.832-1.246c8.632,1.814,17.482,1.301,26.166,2.515
		C286.813,696.134,286.959,696.613,287.129,696.879z"/>
	<path fill="FRAME_COLOR" d="M1157.232,699.84c0.516-3.295-1.126-7.022,3.049-8.876c1.668-0.741,2.49-0.546,2.482,1.381
		c-0.014,3.467-0.028,6.935-0.096,10.402c-0.055,2.77-1.823,4.754-4.246,4.455c-2.436-0.301-0.886-3.005-1.16-4.626
		C1157.099,701.614,1157.232,700.601,1157.232,699.84z"/>
	<path fill="FRAME_COLOR" d="M1140.931,434.317c1.079,5.907,1.059,57.007,0,62.929C1140.931,475.434,1140.931,454.876,1140.931,434.317z"/>
	<path fill="FRAME_COLOR" d="M247.887,227.464c-8.359,4.464-1.828,12.863-5.781,19.871c-1.544-6.985-1.467-12.869-0.637-18.506
		C241.842,226.291,245.463,226.992,247.887,227.464z"/>
	<path fill="FRAME_COLOR" d="M199.831,230.213c3.453,6.347,3.105,12.745,0,19.118C199.831,242.959,199.831,236.586,199.831,230.213z"/>
	<path fill="FRAME_COLOR" d="M220.465,297.312c0,14.253,0,28.505,0,42.758c-0.135,0.002-0.27,0.004-0.405,0.006c0-14.247,0-28.493,0-42.74
		C220.196,297.328,220.33,297.32,220.465,297.312z"/>
	<path fill="FRAME_COLOR" d="M228.237,199.591c-7.623,2.215-7.61,2.215-7.55,10.802c0.031,4.407,0.005,8.815-0.878,13.222
		c0-7.251,0.027-14.502-0.019-21.752c-0.012-1.829,1.014-2.264,2.522-2.27C224.287,199.585,226.262,199.591,228.237,199.591z"/>
	<path fill="FRAME_COLOR" d="M241.756,448.065c0-6.893,0-13.786,0-20.68c0.457,0.002,0.914,0.003,1.371,0.005c1.066,6.872,1.051,13.756,0.094,20.648
		C242.732,448.046,242.244,448.056,241.756,448.065z"/>
	<path fill="FRAME_COLOR" d="M323.646,208.614c0,0,0.148-0.196,0.148-0.197c-1.858,1.942-2.732,4.809-6.189,6.619
		c2.062-7.009,6.92-10.676,12.051-16.016C328.17,203.714,325.21,205.732,323.646,208.614z"/>
	<path fill="FRAME_COLOR" d="M1118.805,448.522c0-7.755,0-15.51,0-23.265C1120.981,433.004,1120.091,440.762,1118.805,448.522z"/>
	<path fill="FRAME_COLOR" d="M244.766,563.939c4.083-4.2,7.713-7.86,12.277-10.876C255.63,557.64,251.824,561.049,244.766,563.939z"/>
	<path fill="FRAME_COLOR" d="M1057.148,224.303c0.058,0.629,0.115,1.258,0.171,1.886c-2.021-0.308-3.411-1.642-4.817-2.95
		c-1.555-2.039-2.808-4.331-4.948-5.876c0.029-0.42,0.059-0.84,0.088-1.26c2.684-0.382,3.499,2.046,5.056,3.359
		C1054.388,220.886,1054.345,223.902,1057.148,224.303z"/>
	<path fill="FRAME_COLOR" d="M244.791,690.747c-1.944,0.736-3.489,0.686-3.567-1.763c-0.095-2.975-0.012-5.958,0.067-8.936
		c0.02-0.766,0.028-1.781,1.208-1.764c1.188,0.018,1.083,1.038,1.137,1.798C243.892,683.649,242.991,687.326,244.791,690.747z"/>
	<ellipse cx="220.305" cy="692.307" rx="0.315" ry="17.008"/>
	<path fill="FRAME_COLOR" d="M959.25,200.72c2.75-0.992,5.564-1.376,9.415,0C964.807,200.72,962.028,200.72,959.25,200.72z"/>
</g>
</svg>
