<?xml version="1.0" encoding="iso-8859-1"?>
<!-- Generator: Adobe Illustrator 23.0.5, SVG Export Plug-In . SVG Version: 6.00 Build 0)  -->
<svg version="1.1" id="Layer_1" xmlns="http://www.w3.org/2000/svg" xmlns:xlink="http://www.w3.org/1999/xlink" x="0px" y="0px"
	 viewBox="0 0 4500 3000" style="enable-background:new 0 0 4500 3000;" xml:space="preserve">
<g id="_x31__x25_20_x28_300_x29__1_">
	<path d="M269.689,2045.977c13.966-30.447,28.781-57.184,25.878-90.093c-6.067-68.75,22.358-122.013,75.438-163.908
		c16.371-12.921,33.379-24.808,51.42-35.167c32.585-18.711,66.703-34.332,101.315-48.849c5.851-2.454,13.279-8.277,18.42,0.141
		c4.551,7.452-3.467,11.55-7.541,15.572c-29.585,29.209-37.531,66.587-40.919,105.82c-1.84,21.299-4.206,42.511-9.445,63.317
		c-12.183,48.379-41.713,81.529-87.967,99.649c-13.411,5.254-27.134,10.17-41.143,13.345c-27.71,6.281-43.889,24.461-53.406,49.518
		c-12.893,33.944-18.376,69.117-14.017,105.409c0.897,7.466,2.448,13.291-8.725,13.551c-9.543,0.221-13.016,8.501-15.125,16.649
		c-2.446,9.455-4.563,18.995-7.283,30.433c-8.191-9.266-9.65-19.448-12.447-28.839c-6.6-22.162-13.631-44.078-24.297-64.748
		c-8.913-17.272-22.182-27.846-41.729-29.589c-66.119-5.892-101.556-43.329-112.776-111.166
		c-2.637-15.943-5.261-31.892-8.179-47.785c-4.979-27.128-13.971-52.435-34.062-72.488c-3.339-3.333-7.169-6.782-3.043-11.703
		c3.342-3.987,7.557-1.765,11.084,0.031c6.68,3.402,13.53,6.674,19.639,10.957c34.506,24.188,69.414,47.864,102.998,73.284
		c27.076,20.495,44.552,48.104,51.185,81.958c3.553,18.135,8.643,35.633,21.349,50.012c7.249-3.814,3.937-9.682,3.479-14.11
		c-6.685-64.599-5.684-129.179-0.264-193.781c0.386-4.599,0.456-9.232,0.492-13.851c0.263-34.357-9.54-48.001-41.891-58.913
		c-15.302-5.162-31.077-9.412-45.628-16.231c-56.116-26.296-83.209-72.733-88.575-132.894c-1.74-19.508-1.967-39.257-1.353-58.848
		c1.455-46.413-2.376-92.307-11.009-137.87c-0.967-5.102-1.862-10.242-2.322-15.407c-0.433-4.853-3.43-11.656,3.212-13.527
		c7.728-2.177,8.948,5.687,10.832,10.716c7.356,19.628,18.262,37.15,29.809,54.544c16.228,24.445,36.466,44.623,60.035,61.738
		c5.14,3.732,10.141,7.721,15.58,10.964c63.097,37.632,91.652,93.588,89.07,166.427c-0.315,8.886-0.183,18.13,4.702,26.418
		c3.728-35.355,4.442-70.632,2.455-105.997c-3.248-57.811-11.037-114.934-25.784-170.982
		c-11.678-44.384-34.91-79.797-77.106-101.506c-22.748-11.704-42.021-28.193-57.146-49.404
		c-30.616-42.936-30.505-90.559-22.667-139.625c6.463-40.46,14.501-80.837,5.841-122.077c-3.354-15.969-8.717-31.058-16.504-45.393
		c-2.083-3.835-5.403-8.823-0.844-12.64c5.71-4.78,9.365,0.744,12.939,4.245c21.472,21.035,41.999,42.959,60.312,66.819
		c26.01,33.889,51.902,67.873,77.455,102.107c24.942,33.414,34.225,71.402,31.235,112.66c-1.42,19.585-3.146,39.15-4.417,58.744
		c-1.082,16.678-1.9,33.399,3.163,49.798c6.469,0.135,5.166-5.053,6.266-8.36c38.716-116.398,36.723-233.841,9.391-352.05
		c-13.804-59.699-21.227-120.484-29.905-181.06c-5.884-41.074-19.907-54.239-61.192-58.432
		c-47.445-4.82-76.839-30.797-91.394-75.337c-9.667-29.584-12.554-61.208-26.94-89.355c-4.464-8.735-9.043-17.411-13.605-26.096
		c-1.973-3.757-3.571-7.762,0.248-11.015c3.22-2.743,6.681-0.32,9.546,1.338c5.984,3.463,11.996,6.982,17.525,11.111
		c22.786,17.014,47.021,31.393,73.492,41.948c39.654,15.812,65.637,43.554,76.406,85.567c4.131,16.115,9.486,32.18,18.924,46.319
		c1.891,2.833,4.055,6.059,8.098,5.513c3.484-0.471,4.029-3.889,4.507-6.567c9.589-53.788,28.539-106.322,22.082-162.266
		c-1.123-9.726-2.448-19.494-4.642-29.02c-6.075-26.385-21.119-43.958-48.58-50.465c-53.491-12.674-89.042-44.835-108.527-96.984
		c-13.505-36.146-30.176-71.444-60.628-97.593c-2.784-2.391-4.729-5.302-2.903-9.026c1.722-3.512,5.036-4.535,8.739-4.123
		c1.707,0.19,3.454,0.576,5.037,1.228c46.337,19.081,96.26,23.502,144.285,35.606c50.257,12.666,82.293,52.446,88.694,103.615
		c3.26,26.063-0.413,51.92,0.141,77.863c0.285,13.309,1.567,26.524,4.835,39.472c0.966,3.826,1.218,8.797,6.056,9.494
		c3.619,0.522,6.126-2.826,7.982-5.823c37.721-60.917,48.203-125.393,24.181-193.861c-6.077-17.32-19.295-30.281-32.985-41.791
		c-51.389-43.201-74.116-98.382-72.767-164.976c0.749-37.001-2.491-73.922-11.544-109.986
		c-4.371-17.412-11.317-33.916-21.836-48.739c-2.818-3.97-8.338-8.537-3.306-13.494c5.497-5.417,10.589-0.335,15.062,3.231
		c16.294,12.988,31.351,27.326,45.318,42.76c25.658,28.351,53.725,54.012,84.317,76.953c8.31,6.232,16.619,12.552,24.297,19.527
		c67.409,61.242,80.108,131.423,37.575,212.17c-13.633,25.881-19.623,52.808-17.999,81.727c0.301,5.357,1.189,10.582,6.993,12.764
		c4.543,1.708,7.887-1.138,10.51-4.227c36.346-42.802,81.992-76.386,118.216-119.261c9.664-11.439,18.739-23.521,26.826-36.116
		c16.409-25.554,22.722-53.63,12.216-82.704c-14.082-38.97-9.898-75.637,7.487-112.354c11.932-25.2,19.708-51.786,18.969-80.242
		c-0.124-4.793-1.236-11.505,6.319-12.061c5.808-0.428,7.468,5.097,8.607,9.348c9.217,34.4,27.675,64.527,43.135,96.133
		c21.185,43.31,11.399,87.224-24.955,121.132c-12.355,11.523-24.531,22.95-29.85,39.595c-1.33,4.162-5.443,8.908-1.593,12.843
		c4.613,4.715,9.751,0.575,14.159-1.753c43.228-22.822,88.778-38.942,137.026-46.945c23.345-3.873,46.821-7.061,70.317-9.894
		c18.337-2.211,34.556-8.717,48.757-20.475c13.611-11.269,18.962-26.378,17.811-43.205c-3.874-56.659,23.624-88.716,76.381-107.043
		c23.922-8.31,48.663-15.642,64.868-37.603c1.98-2.684,5.213-4.997,9.005-3.068c4.694,2.389,4.483,7.174,2.663,10.584
		c-18.983,35.563-20.875,76.83-37.954,112.987c-11.114,23.53-31.322,36.36-54.349,45.591c-15.187,6.088-29.401,13.633-40.722,25.61
		c-7.823,8.276-10.703,16.116,4.823,18.631c68.905,11.159,136.466,30.144,206.486,34.894c31.416,2.131,58.163-6.812,79.498-30.245
		c11.255-12.362,9.137-20.641-7.432-21.223c-36.865-1.294-63.946-16.695-82.195-48.584c-3.857-6.74-10.456-10.571-18.378-11.791
		c-3.563-0.549-7.015-2.094-6.774-6.34c0.239-4.225,4.248-5.437,7.476-6.048c20.965-3.965,41.877-9.824,63.016-10.892
		c34.194-1.728,59.71,22.148,65.119,56.563c1.125,7.16-0.265,18.455,7.166,19.907c8.62,1.684,11.18-9.718,15.559-16.123
		c4.867-7.12,5.573-14.967,3.256-23.208c-2.658-9.449-5.245-18.919-7.776-28.403c-7.866-29.474-3.281-55.995,18.249-78.756
		c6.73-7.115,13.3-14.517,18.928-22.504c6.606-9.375,11.294-8.871,15.264,1.487c6.816,17.784,14.423,35.349,19.873,53.553
		c8.669,28.96,2.95,55.569-20.108,75.834c-15.136,13.303-26.497,28.631-35.435,46.314c-5.795,11.464-13.942,21.114-23.783,29.464
		c-3.671,3.115-10.248,6.434-7.313,12.091c2.815,5.426,9.411,2.322,14.317,1.652c42.976-5.87,85.03-16.147,126.923-27.083
		c57.486-15.006,113.81-34.513,172.798-43.675c55.298-8.589,110.416-9.09,165.365,2.341c18.347,3.817,35.164,2.626,50.861-9.365
		c11.415-8.721,17.556-19.304,18.953-33.385c3.917-39.49,26.599-63.819,62.859-77.059c17.85-6.518,36.59-10.804,52.961-21.077
		c2.949-1.85,6.286-3.474,9.522-0.608c3.828,3.39,2.634,7.372,0.471,10.99c-5.268,8.811-5.475,18.725-6.48,28.446
		c-5.8,56.14-39.565,94.19-95.145,106.874c-12.872,2.938-25.118,6.926-37.351,17.935c33.981,12.134,65.406,16.536,96.892,0.006
		c10.979-5.764,16.237-16.622,19.466-27.711c11.101-38.124,37.337-61.305,72.656-76.09c28.7-12.014,58.671-21.944,78.753-48.147
		c2.547-3.324,6.769-5.84,10.633-3.333c3.965,2.572,2.002,7.223,1.156,11.134c-5.976,27.642-11.755,55.327-17.908,82.929
		c-15.384,69.011-70.892,101.139-123.283,88.771c-12.932-3.053-26.454-2.048-39.395,2.161c-3.303,1.074-7.519,1.972-7.978,5.732
		c-0.47,3.852,3.592,5.564,6.55,7.257c17.587,10.069,36.041,18.312,55.172,24.901c33.847,11.656,67.661,23.983,103.825,25.999
		c42.078,2.346,69.99-21.56,72.234-63.633c2.944-55.179,26.268-95.093,77.575-119.067c29.22-13.654,57.083-30.781,74.657-59.85
		c2.109-3.488,4.963-7.175,9.599-5.36c3.522,1.379,4.261,5.427,3.869,8.962c-5.785,52.066-1.707,105.811-21.273,155.569
		c-16.493,41.942-49.765,65.382-94.185,72.661c-15.374,2.519-31.095,3.73-44.677,12.424c-4.302,2.754-9.657,5.88-8.9,11.708
		c0.75,5.775,7.021,5.087,11.211,5.984c21.431,4.589,42.715,10.479,64.769,11.026c30.961,0.767,58.738-7.425,77.82-33.591
		c22.758-31.206,53.768-41.743,90.806-39.436c27.724,1.727,55.446,3.316,81.79-8.742c4.658-2.132,10.564-3.39,14.225,1.882
		c4.297,6.187-1.849,9.245-5.138,12.789c-13.88,14.959-23.936,32.467-33.997,50.021c-31.008,54.103-76.512,70.638-135.23,49.211
		c-14.629-5.338-28.957-12.138-45.222-8.522c-4.778,1.062-12.131,0.118-12.26,6.669c-0.107,5.441,6.335,7.747,11.318,9.214
		c8.275,2.436,16.761,4.15,25.06,6.512c36.312,10.337,61.159,33.473,75.987,67.964c9.823,22.848,19.781,45.689,40.247,61.653
		c2.758,2.151,5.227,4.731,2.921,8.749c-2.068,3.604-5.603,4.529-8.965,3.371c-31.928-10.996-66.689-7.705-98.388-19.135
		c-39.984-14.417-63.901-41.971-67.053-85.724c-2.483-34.469-10.833-45.982-44.306-55.463
		c-58.389-16.536-118.793-23.94-177.893-37.383c-4.118-0.936-9.687-2.784-12.404,2.543c-2.385,4.677,0.589,8.989,3.254,12.768
		c5.133,7.28,12.687,11.684,20.169,16.046c40.707,23.727,59.781,59.173,58.98,106.186c-0.471,27.65-6.123,55.281-0.888,82.961
		c2.033,10.75,4.749,21.369,6.934,32.092c0.91,4.465,2.282,9.492-2.383,12.723c-5.123,3.548-8.341-0.698-11.907-3.602
		c-22.384-18.234-44.841-36.379-67.269-54.56c-55.485-44.975-66.619-80.324-46.987-149.214c1.582-5.553,3.382-11.045,4.863-16.624
		c6.74-25.403-0.358-44.83-21.745-60.473c-17.372-12.706-37.241-20.857-56.01-31.01c-9.393-5.081-12.48-2.017-10.995,8.345
		c2.653,18.519,12.769,33.614,23.187,47.911c34.641,47.537,32.945,93.839-1.23,140.609c-12.261,16.78-23.552,34.372-26.215,55.854
		c-0.515,4.156-2.026,8.242-6.854,8.774c-5.097,0.563-7.227-3.567-7.994-7.512c-5.445-28.001-23.187-49.999-35.634-74.616
		c-20.533-40.61-19.197-80.145,10.105-116.773c14.785-18.482,24.353-37.973,14.568-62.211
		c-4.456-11.037-10.491-20.634-21.602-25.972c-59.311-28.493-122.082-37.132-187.145-32.352c-0.805,0.059-1.512,1.465-3.136,3.142
		c10.008,10.705,23.857,15.471,36.493,20.932c41.921,18.118,59.955,49.886,58.814,94.538c-0.454,17.781-1.643,35.882,6.785,52.722
		c1.766,3.529,2.577,8.292-0.951,11.347c-3.655,3.164-7.668,1.305-10.929-1.459c-17.19-14.572-37.37-24.992-54.232-40.163
		c-24.557-22.094-37.929-48.78-38.779-81.946c-0.635-24.806-8.472-33.395-33.414-37.801c-31.258-5.522-60.757,3.853-90.255,11.659
		c-68.057,18.011-135.405,38.861-205.435,48.615c-41.929,5.84-83.976,6.791-126.188,5.296c-5.276-0.187-12.408-3.019-15.444,3.835
		c-2.674,6.038,2.058,10.825,5.394,15.521c18.754,26.403,38.973,51.646,61.318,75.077c28.971,30.379,43.365,33.577,80.562,16.083
		c31.951-15.027,58.91-8.06,84.418,14.221c19.921,17.401,34.053,41.104,58.511,53.532c2.611,1.327,4.735,3.661,3.511,7.014
		c-1.3,3.563-4.146,5.325-7.936,5.516c-51.178,2.578-103.167,10.163-146.175-29.382c-8.569-7.879-20.68-18.205-32.259-9.679
		c-11.451,8.432-3.506,22.62-1.064,34.048c2.86,13.382,12.327,23.343,20.334,33.88c28.476,37.471,24.891,80.212,20.145,123.016
		c-0.887,8.001-5.464,10.335-10.829,2.329c-7.93-11.831-19.789-19.186-30.792-27.545c-36.144-27.46-45.351-56.581-29.009-98.516
		c10.161-26.073,6.379-50.024-7.101-72.924c-16.184-27.493-38.657-50.322-58.254-75.289c-7.094-9.037-11.491-4.785-14.002,3.696
		c-2.374,8.02-1.145,16.08,1.375,23.875c14.73,45.571,0.902,82.572-33.46,113.806c-11.483,10.437-23.845,20.237-31.146,34.553
		c-1.617,3.17-4.186,6.032-8.166,4.873c-3.719-1.082-4.832-4.53-5.153-8.193c-2.678-30.48-10.166-60.316-11.203-91.075
		c-1.112-33.004,12.171-58.037,38.491-76.912c4.692-3.365,9.66-6.365,14.208-9.908c17.766-13.844,18.651-31.373,2.236-46.682
		c-22.95-21.404-52.217-29.348-81.487-35.868c-117.245-26.112-231.714-19.517-341.675,32.189
		c-10.938,5.143-23.396,9.145-30.212,20.468c3.233,4.517,7,3.342,10.197,3.275c37.325-0.783,73.571,5.499,109.286,15.893
		c12.751,3.711,25.771,6.179,39.274,5.552c14.614-0.679,26.229-5.824,36.126-17.291c31.58-36.593,69.852-40.224,108.738-11.121
		c12.975,9.71,25.714,19.742,41.993,23.44c3.515,0.798,7.232,1.686,7.894,5.596c0.696,4.11-2.798,6.04-6.038,7.382
		c-19.707,8.167-39.25,16.793-59.246,24.188c-23.565,8.715-46.315,2.47-66.478-9.46c-21.715-12.848-38.635,3.759-57.704,6.108
		c-6.004,0.74-1.958,7.876,0.74,11.285c6.272,7.924,14.856,12.99,24.298,15.948c43.985,13.781,66.342,52.304,62.459,99.914
		c-0.985,12.075-2.442,24.114-3.805,36.155c-0.383,3.38-0.615,7.169-4.767,8.349c-4.165,1.184-6.75-1.489-8.176-4.699
		c-7.885-17.748-23.655-26.078-39.796-34.232c-29.832-15.069-45.427-38.741-47.377-72.857
		c-2.588-45.252-16.852-62.142-60.445-74.508c-74.515-21.136-141.097-4.83-197.911,46.873
		c-171.276,155.868-231.88,347.28-181.682,573.54c0.624,2.814,1.355,5.647,2.443,8.304c1.495,3.651,2.278,8.455,6.886,9.243
		c4.766,0.816,6.808-3.633,8.948-6.864c3.182-4.805,6.017-9.853,8.805-14.905c22.209-40.249,50.004-76.219,82.816-108.363
		c3.713-3.637,7.408-7.302,10.945-11.107c28.959-31.154,28.326-53.959-2.797-83.021c-18.908-17.655-33.963-37.663-41.663-62.691
		c-17.395-56.544-0.808-106.97,28.195-154.991c7.708-12.763,13.753-2.607,18.093,3.13c39.966,52.822,61.624,110.688,47.6,178.029
		c-3.737,17.944-7.309,35.923-11.94,58.726c11.024-12.428,13.217-23.626,15.924-34.1c5.196-20.102,8.818-40.606,13.65-60.81
		c8.002-33.459,28.395-54.541,62.588-61.777c22.232-4.704,44.778-4.304,67.267-5.147c8.852-0.332,13.305,1.42,8.885,11.872
		c-5.385,12.732-8.922,26.232-13.925,39.141c-11.865,30.609-26.3,57.933-59.805,72.146c-28.211,11.967-47.827,36.245-65.43,61.689
		c9.43-7.823,18.84-15.669,28.293-23.463c21.99-18.13,45.875-32.935,72.798-42.789c27.088-9.914,52.284-2.865,77.294,7.409
		c6.145,2.524,7.347,6.281,3.814,12.203c-6.799,11.4-12.569,23.442-19.77,34.568c-26.614,41.119-62.618,53.839-119.858,42.484
		c-12.121-2.404-23.991-6.075-36.336-7.771c17.227,17.203,39.329,20.771,61.701,20.605c51.08-0.38,94.27,19.41,134,49.234
		c11.603,8.71,21.98,18.702,31.078,30.008c4.955,6.157,5.629,11.292-3.292,14.382c-35.206,12.192-70.759,21.48-108.58,14.939
		c-46.586-8.057-81.288-34.086-102.864-74.711c-23.965-45.125-50.63-32.354-75.397-8.617
		c-50.129,48.045-85.176,106.061-104.1,173.138c-7.325,25.963-3.404,52.835-3.29,79.339c0.008,1.974,0.987,4.914,2.444,5.715
		c3.221,1.771,5.489-1.109,6.76-3.536c5.342-10.205,11.035-20.302,15.4-30.931c23.481-57.182,60.938-82.118,122.232-78.944
		c32.276,1.671,64.298,6.648,96.063,12.796c5.913,1.145,14.489,0.8,14.509,9.133c0.018,7.385-7.818,6.67-13.328,8.063
		c-22.458,5.677-41.191,18.274-57.628,33.891c-33.362,31.699-70.213,51.372-118.521,44.011
		c-21.486-3.274-34.833,8.501-43.885,33.905c-20.745,58.215-37.989,117.428-52.227,177.643
		c-14.399,60.897-9.124,121.667-3.53,182.675c0.136,1.484,1.259,2.877,2.538,5.649c9.837-7.739,11.803-18.786,14.82-28.629
		c8.282-27.027,15.025-54.527,23.348-81.54c18.85-61.172,59.433-101.407,119.333-123.284
		c59.859-21.862,122.173-34.331,183.826-49.359c4.713-1.149,11.09-3.438,13.36,3.401c1.734,5.223-2.903,8.53-6.97,10.688
		c-45.018,23.886-63.714,66.625-79.543,111.255c-6.966,19.64-14.824,38.806-25.026,56.979
		c-31.804,56.657-81.256,84.457-145.055,89.873c-51.138,4.341-72.257,18.205-79.9,69.314
		c-19.005,127.08-51.685,252.694-46.28,382.736C263.656,2021.949,261.911,2033.092,269.689,2045.977z M501.153,1382.232
		c-38.913,41.891-82.351,77.347-133.234,103.564c-13.613,7.014-19.095,16.316-23.462,28.03
		C404.023,1479.349,465.208,1445.778,501.153,1382.232z M134.811,1167.325c27.463,56.203,28.835,123.839,76.787,171.064
		C183.852,1282.309,171.747,1219.377,134.811,1167.325z M359.546,366.739c8.848-24.025,5.138-49.972-10.817-76.13
		c-20.277-33.246-51.273-59.456-63.443-98.181c2.952,24.32,13.544,44.967,27.108,64.412
		C335.633,290.155,358.135,323.852,359.546,366.739z M223.359,1769.644c-4.958-31.14-21.237-50.715-40.818-68.122
		c-25.495-22.666-44.408-49.725-56.061-81.829c-1.31-3.609-1.58-8.021-6.335-9.62
		C130.911,1658.481,157.771,1700.39,223.359,1769.644z M332.595,1953.361c21.449-14.762,78.102-101.083,89.01-133.353
		C381.082,1859.222,364.506,1911.365,332.595,1953.361z M158.323,415.06c36.241,29.476,81.146,49.983,100.718,97.36
		C256.916,472.307,230.541,446.831,158.323,415.06z M2107.09,268.472c28.133-21.113,46.45-49.388,58.816-82.006
		C2146.981,214.298,2119.347,235.775,2107.09,268.472z M1909.118,389.057c-0.985,14.203,20.902,86.306,28.642,98.256
		C1937.02,452.996,1929.896,421.193,1909.118,389.057z M2238.961,348.861c30.288,2.105,52.722-15.254,75.994-30.678
		C2286.967,321.585,2265.323,340.44,2238.961,348.861z M1785.85,355.672c-13.901,23.766-17.605,57.318-8.508,83.198
		C1778.124,409.252,1787.511,384.333,1785.85,355.672z M194.315,760.939c-11.881-29.111-46.053-31.846-62.838-55.29
		C143.387,734.452,173.16,742.686,194.315,760.939z M2193.185,429.071c9.341,21.727,26.405,39.811,40.5,43.836
		C2220.689,458.375,2214.219,439.494,2193.185,429.071z M1896.056,215.027c21.052-7.396,33.936-22.375,40.688-47.909
		C1922.15,184.302,1909.847,198.789,1896.056,215.027z M582.452,220.792c7.322-20.508,5.571-38.214,8.644-57.807
		C578.116,180.842,575.897,194.866,582.452,220.792z M450.57,1100.445c-19.574-0.183-34.367,10.527-49.899,19.547
		C419.076,1117.728,434.94,1109.205,450.57,1100.445z M1045.426,415.635c-14.698,22.722-17.992,38.955-11.736,55.302
		C1036.862,452.623,1044.238,436.46,1045.426,415.635z M147.033,2000.369c9.803,10.82,22.395,24.719,34.988,38.619
		C173.877,2020.458,159.059,2008.828,147.033,2000.369z M931.585,138.454c-9.51,13.856-26.892,20.749-33.274,37.373
		C912.401,166.023,926.13,155.899,931.585,138.454z M812.493,365.747c19.344,6.019,33.83,6.65,53.485,3.023
		C846.893,361.4,832.266,363.506,812.493,365.747z M1783.553,174.591c17.698-8.206,22.689-15.348,24.419-30.294
		C1799.692,154.569,1791.623,164.58,1783.553,174.591z"/>
	<path d="M1104.038,2813.876c16.241-0.458,28.224-4.161,39.88-9.094c74.451-31.509,144.199-24.53,208.943,25.104
		c8.23,6.31,17.227,11.619,25.873,17.385c38.293,25.539,79.71,41.553,126.413,41.396c4.578-0.015,10.355-1.104,11.605,4.626
		c1.489,6.823-4.961,8.608-9.69,10.023c-16.028,4.797-32.244,8.958-48.345,13.516c-43.359,12.276-85.619,27.819-128.043,42.904
		c-30.727,10.926-62.144,17.445-95.159,13.142c-49.682-6.474-84.018-35.469-111.547-74.764c-3.973-5.671-7.911-11.4-11.385-17.382
		c-17.384-29.932-43.312-41.44-77.311-37.26c-43.758,5.38-87.599,6.03-131.274-0.889c-48.843-7.738-95.147-22.562-138.606-50.86
		c13.429-7.545,25.304-14.229,37.191-20.889c3.843-2.153,7.73-1.829,11.648-0.134c3.709,1.605,7.423,3.206,11.182,4.688
		c46.593,18.375,74.191,2.928,83.48-46.858c2.434-13.047,4.321-26.195,6.61-39.27c8.774-50.115,35.703-86.921,81.316-109.587
		c24.285-12.068,49.022-23.223,73.416-35.074c41.986-20.397,75.881-50.152,101.951-88.872c4.188-6.22,8.742-12.195,13.191-18.235
		c1.826-2.479,4.414-4.037,7.455-3.255c4.147,1.066,5.118,4.746,4.455,8.245c-13.477,71.195-7.418,145.729-37.242,214.155
		c-35.602,81.682-102.472,118.32-186.483,130.3c-15.397,2.196-31.133,1.93-46.609,3.704c-6.61,0.757-15.905,2.97-15.601,10.536
		c0.27,6.702,9.486,6.655,15.626,7.33c52.156,5.733,102.487-3.881,151.88-19.265c73.495-22.892,144.784-51.585,211.984-89.154
		c50.266-28.101,83.16-68.687,81.968-130.456c-1.503-77.887,34.62-133.266,103.427-168.207
		c50.02-25.4,89.167-63.246,123.053-107.161c2.464-3.193,5.001-6.377,7.865-9.198c2.556-2.517,5.767-4.072,9.27-1.544
		c3.451,2.49,2.943,5.747,1.609,9.249c-23.172,60.852-25.907,125.076-31.685,188.893c-7.765,85.768-56.925,140.921-140.874,159.799
		c-11.261,2.532-22.616,4.745-33.723,7.839c-8.226,2.292-16.064,5.846-21.755,18.031c20.008-3.339,37.37-5.412,54.346-9.208
		c89.797-20.076,180.475-33.447,272.455-37.806c10.275-0.487,20.778-2.397,30.565-5.544c16.221-5.215,27.274-16.345,26.193-34.388
		c-2.936-48.972,19.279-82.656,61.032-105.771c10.005-5.539,18.805-13.289,28.01-20.219c3.214-2.42,5.949-6.067,10.509-3.533
		c4.434,2.464,3.091,6.931,3.069,10.874c-0.057,9.812-1.077,19.74,0.051,29.417c6.43,55.178-19.071,91.575-66.401,115.984
		c-9.948,5.131-20.459,9.951-28.701,18.167c4.721,6.397,10.875,5.377,16.367,5.615c34.945,1.509,72.864-24.017,83.03-57.351
		c8.761-28.727,26.39-47.857,54.453-58.235c30.009-11.097,63.795-13.339,88.405-37.334c2.234-2.178,5.348-2.114,7.825,0.165
		c3.251,2.99,4.691,6.995,3.13,11.009c-11.52,29.627-13.661,62.173-28.022,90.857c-18.653,37.257-61.414,59.448-103.984,53.419
		c-14.788-2.095-28.678-1.898-42.094,5.145c-7.197,3.778-10.67,7.313-0.834,12.392c33.58,17.34,67.804,32.127,106.688,32.125
		c21.835-0.001,41.065-6.487,57.006-21.226c31.666-29.28,68.199-37.116,109.225-25.76c28.738,7.955,56.504,21.474,87.76,13.751
		c4.005-0.99,8.214,0.865,9.313,5.717c0.923,4.071-1.958,6.549-4.973,8.242c-22.395,12.581-39.675,31.628-59.81,47.045
		c-33.904,25.96-71.049,31.543-111.045,16.267c-13.48-5.148-26.674-11.044-40.159-16.176c-9.686-3.686-19.63-5.44-30.267-0.561
		c4.739,9.201,13.611,11.699,20.452,16.395c59.131,40.59,118.812,80.02,190.156,96.931c36.775,8.717,73.763,13.753,111.551,12.048
		c26.27-1.185,41.885-21.405,36.484-47.05c-0.948-4.502-1.826-9.176-3.766-13.286c-17.65-37.396-9.943-71.592,11.541-104.896
		c11.437-17.731,26.411-33.994,28.221-56.68c0.243-3.046,2.277-5.468,5.495-5.828c4.303-0.482,6.345,2.67,7.068,6.121
		c6.368,30.396,24.835,55.836,34.612,84.785c12.221,36.182-0.287,74.159-30.896,97.096c-8.953,6.709-25.626,13.689-21.011,23.874
		c4.396,9.703,19.174-1.154,28.72-4.076c48.014-14.694,95.805-30.141,143.487-45.893c33.968-11.22,42.15-27.64,26.068-59.063
		c-30.394-59.389-17.934-110.288,26.446-156.385c19.268-20.013,37.144-41.118,52.253-64.524c4.04-6.258,9.01-11.979,14.035-17.509
		c2.166-2.384,5.379-4.843,9.126-2.568c3.504,2.126,4.046,5.833,2.726,9.172c-14.244,36.048,1.825,69.253,9.656,103.165
		c3.771,16.328,8.244,32.51,8.371,49.391c0.219,29.311-9.698,54.156-32.609,73.327c-11.069,9.261-21.81,18.926-32.462,28.667
		c-5.006,4.579-10.648,9.038-10.649,17.623c2.325,0.167,4.746,1.026,6.659,0.38c54.885-18.557,112.114-27.217,168.387-39.876
		c13.704-3.083,26.245-8.489,38.573-14.946c22.36-11.71,35.235-28.692,34.337-55.153c-1.368-40.296,17.483-70.834,48.221-94.991
		c24.596-19.33,50.042-37.816,58.315-70.649c0.968-3.841,3.091-8.016,8.237-7.267c5.04,0.734,6.196,5.17,6.044,9.214
		c-1.558,41.642,9.033,82.8,5.147,124.482c-4.297,46.091-34.455,76.25-86.826,87.952c-10.083,2.253-21.702,2.256-27.362,13.743
		c4.483,4.333,8.669,2.785,12.38,2.388c44.809-4.797,88.732,1.075,132.383,10.594c29.05,6.335,41.299-4.559,38.49-34.402
		c-0.648-6.882-2.055-13.695-3.188-20.528c-6.911-41.666,6.099-75.915,37.308-104.195c20.025-18.146,41.393-35.72,46.823-64.69
		c0.663-3.537,3.544-6.674,7.325-5.925c2.283,0.453,5.171,3.282,5.847,5.608c14.296,49.155,35.18,97.432,26.478,150.33
		c-5.724,34.794-27.799,57.168-59.872,70.768c-10.163,4.31-27.953,6.355-26.428,17.931c1.491,11.32,19.306,8.258,30.086,10.202
		c37.01,6.677,74.412,9.428,112.042,9.833c32.474,0.349,55.075-13.59,68.202-43.429c9.077-20.633,18.144-41.262,24.09-63.038
		c8.322-30.477,1.311-49.267-24.099-67.032c-30.367-21.232-38.2-51.558-30.979-85.587c5.127-24.159,14.438-47.427,21.822-71.111
		c1.062-3.405,2.263-7.101,6.11-7.507c3.967-0.419,6.133,3.031,7.299,6.317c3.549,9.995,9.746,18.445,16.159,26.534
		c24.984,31.517,32.086,66.878,24.981,105.995c-2.259,12.439-3.121,25.291,0.368,37.836c1.682,6.048,2.698,13.922,9.893,14.937
		c7.584,1.07,10.024-6.539,12.682-12.231c3.664-7.845,6.708-15.989,10.542-23.745c16.302-32.973,40.529-57.037,76.367-68.464
		c15.349-4.894,31.116-8.988,44.951-17.851c2.959-1.896,6.431-3.42,9.563-0.665c2.954,2.598,2.789,6.193,1.337,9.602
		c-7.532,17.686-9.522,36.828-14.489,55.192c-10.246,37.887-36.285,60.789-73.286,64.537c-46.878,4.748-70.417,31.964-85.9,71.702
		c-6.495,16.67-13.838,33.008-20.545,49.598c-4.84,11.97-0.818,19.3,12.294,20.169c28.223,1.872,56.455,3.924,84.717,4.769
		c16.935,0.507,29.988-7.82,37.823-23.056c5.274-10.255,10.113-20.762,14.603-31.386c24.465-57.89,68.503-89.613,130.178-98.156
		c26.448-3.664,53.01-2.826,79.567-2.739c11.033,0.036,14.018,3.799,6.629,13.196c-25.69,32.671-51.091,65.572-77,98.068
		c-11.587,14.533-27.645,22.673-45.346,27.113c-22.384,5.615-45.005,10.282-67.447,15.681c-5.362,1.29-13.478,1.971-13.102,8.902
		c0.45,8.28,8.902,5.82,13.842,5.259c60.48-6.869,112.521,11.609,158.523,50.546c20.254,17.144,41.985,32.538,62.969,48.825
		c7.603,5.901,12.839,12.593-1.11,16.473c-42.335,11.777-84.569,23.376-129.482,14.152c-40.151-8.245-73.168-27.345-98.918-59.127
		c-4.362-5.385-9.004-10.605-12.803-16.372c-16.694-25.343-40.273-36.278-70.353-36.747c-49.082-0.765-98.137-3.14-147.217-4.208
		c-39.877-0.867-79.604-3.206-119.206-8.022c-4.614-0.562-11.222-3.084-13.854,3.105c-2.348,5.522,2.649,9.554,5.86,13.496
		c5.621,6.899,12.99,11.452,21.254,14.424c36.749,13.217,60.328,39.108,73.89,75.24c4.446,11.843,10.146,23.284,16.08,34.481
		c7.189,13.566,17.333,24.437,32.048,30.252c4.282,1.692,9.319,2.965,7.942,9.294c-1.197,5.499-5.304,7.088-10.463,6.823
		c-41.388-2.128-83.465,0.228-121.976-19.866c-33.128-17.286-52.24-43.017-49.882-81.752c0.735-12.082,2.414-24.106,3.556-36.166
		c2.627-27.757-8.715-47.261-34.351-57.271c-42.688-16.668-86.639-28.427-132.566-31.549c-4.271-0.291-10.604-2.901-12.644,2.034
		c-2.51,6.071,4.241,9.142,8.212,11.472c16.886,9.908,34.591,18.447,51.29,28.644c32.544,19.872,51.573,49.24,56.37,87.01
		c3.053,24.033,4.504,48.28,6.243,72.462c0.393,5.459,1.162,12.578-6.371,14.257c-6.578,1.466-8.645-4.986-11.005-9.194
		c-8.978-16.005-23.622-24.956-39.346-32.613c-13.504-6.576-26.917-13.2-39.323-21.818c-28.97-20.126-39.134-49.639-38.92-82.706
		c0.269-41.546-20.634-55.668-59.588-57.89c-65.838-3.756-129.944,8.822-193.762,22.824c-14.35,3.149-29.234,5.178-44.593,13.802
		c18.165,9.85,34.142,18.661,53.323,18.162c42.408-1.103,73.049,17.505,92.945,54.661c5.177,9.667,10.898,19.042,16.311,28.583
		c8.235,14.517,18.943,26.171,35.604,30.981c3.915,1.13,8.449,1.992,7.957,7.334c-0.464,5.038-4.758,6.21-8.927,6.318
		c-45.406,1.166-90.235-2.609-132.207-21.347c-21.191-9.461-34.357-27.51-38.972-50.263c-9.249-45.6-45.874-63.548-90.474-54.891
		c-24.431,4.742-48.086,12.351-71.151,21.669c-4.423,1.787-11.591,2.426-10.519,9.135c0.897,5.612,7.356,6.862,12.286,8.114
		c4.423,1.123,9.131,1.626,13.704,1.573c36.603-0.423,64.294,15.615,84.786,45.3c12.48,18.078,24.993,36.097,43.49,48.911
		c4.138,2.866,8.762,6.852,4.888,12.908c-3.295,5.151-8.04,3.202-12.348,1.276c-16.164-7.228-32.965-4.205-49.559-2.864
		c-18.689,1.51-36.897-0.245-54.728-5.941c-29.534-9.435-47.701-28.821-53.518-59.776c-5.577-29.678-18.447-38.388-47.92-30.332
		c-87.924,24.033-174.714,22.102-260.462-9.383c-14.602-5.361-28.647-12.238-42.941-18.433c-3.073-1.332-6.456-4.195-9.37-0.902
		c-2.728,3.081-0.036,6.451,1.474,9.448c4.244,8.42,10.218,15.271,18.174,20.468c24.705,16.14,36.31,39.237,37.021,68.552
		c0.518,21.346,0.881,42.896,13.279,61.805c2.354,3.59,3.142,7.603-0.349,11.089c-3.683,3.677-7.81,1.726-11.169-0.221
		c-20.962-12.148-43.775-21.198-63.034-36.151c-31.211-24.233-41.082-61.635-26.289-97.403
		c10.114-24.453-1.445-44.585-15.204-62.201c-17.898-22.916-44.653-35.649-67.823-53.492c-4.938,16.263-3.115,23.012,8.378,34.707
		c48.196,49.044,53.78,79.142,26.915,142.831c-5.377,12.749-9.959,25.837-14.755,38.825c-1.594,4.315-2.24,9.497-8.066,9.91
		c-5.852,0.415-7.858-4.304-9.116-8.758c-6.022-21.331-19.916-37.471-34.404-53.325c-30.539-33.417-38.104-70.202-15.958-111.245
		c2.19-4.059,3.943-8.354,5.873-12.552c15.156-32.946,8.114-56.253-23.648-74.28c-34.394-19.52-71.648-32.09-109.911-41.267
		c-31.995-7.674-64.345-14.097-97.453-14.691c-4.674-0.083-11.69-3.252-13.577,3.389c-1.69,5.951,3.217,10.54,8.016,14.159
		c10.45,7.879,23.022,10.45,35.14,14.095c36.785,11.063,65.005,32,79.558,68.723c6.887,17.377,9.998,35.551,10.331,54.164
		c0.723,40.412-2.458,80.841,0.549,121.256c0.42,5.645,0.831,12.578-5.975,14.819c-7.709,2.538-9.6-4.907-12.057-9.63
		c-14.032-26.962-34.467-47.405-61.039-62.038c-9.091-5.007-17.706-10.886-26.466-16.481
		c-41.325-26.392-61.134-63.274-54.917-112.826c1.078-8.594,2.392-17.179,2.988-25.81c2.688-38.958-17.917-60.134-56.783-58.064
		c-56.75,3.022-111.964,15.227-167.22,27.637c-80.419,18.062-155.387,51.849-232.662,78.974
		c-34.295,12.038-68.441,24.504-102.615,36.884C1112.404,2808.939,1109.735,2810.819,1104.038,2813.876z M1537.475,2443.545
		c-11.957,9.804-116.909,156.771-116.786,161.052C1481.835,2568.599,1502.949,2502.635,1537.475,2443.545z M1130.444,2607.179
		c-3.485-2.568-4.954,0.847-6.573,2.468c-19.294,19.312-41.012,35.863-65.222,47.875c-43.019,21.344-67.733,60.396-98.954,95.615
		C966.1,2751.576,1126.449,2613.492,1130.444,2607.179z M1135.246,2845.188c16.05,4.656,31.812,5.576,45.53,13.231
		c13.591,7.583,27.228,15.206,41.377,21.642c30.509,13.878,60.274,17.684,89.863,11.038c-43.516-0.818-78.542-13.989-110.345-36.742
		c-9.888-7.074-21.4-11.417-33.452-13.645C1157.515,2838.734,1146.652,2836.656,1135.246,2845.188z M2637.453,2593.794
		c-7.764,37.031-46.875,65.748-28.521,109.705C2608.488,2664.292,2640.857,2633.787,2637.453,2593.794z M1714.181,2726.61
		c11.238,31.27,29.29,59.495,40.656,90.709C1752.526,2782.059,1739.675,2751.509,1714.181,2726.61z M3130.367,2597.405
		c-17.807,27.294-40.697,53.146-30.218,90.145C3100.875,2654.302,3125.77,2629.515,3130.367,2597.405z M2984.721,2847.334
		c-13.744-15.909-26.376-32.7-39.039-49.467C2949.393,2821.734,2963.35,2837.475,2984.721,2847.334z M2675.839,2841.12
		c17.072,21.803,32.711,31.439,49.151,31.202C2708.936,2860.624,2694.394,2847.869,2675.839,2841.12z M3167.377,2892.636
		c-11.871-41.819-15.914-49.709-29.326-56.33C3146.159,2856.072,3152.734,2875.514,3167.377,2892.636z M2103.963,2682.277
		c-18.959-2.931-37.49-0.747-55.429,5.873C2067.671,2692.94,2085.704,2687.561,2103.963,2682.277z M1952.592,2566.473
		c-11.167,13.21-22.334,26.419-33.501,39.629C1938.391,2599.515,1948.308,2585.288,1952.592,2566.473z M2931.852,2598.884
		c-11.076,14.497-19.448,30.374-28.179,51.736C2923.83,2635.085,2927.219,2616.668,2931.852,2598.884z M3452.29,2545.347
		c-12.442,10.891-25.441,21.24-33.773,36.118C3434.873,2574.372,3446.697,2562.882,3452.29,2545.347z M1966.188,2814.879
		c2.921,16.035,8.613,31.064,18.478,47.036C1983.198,2841.057,1981.405,2836.333,1966.188,2814.879z"/>
	<path d="M2742.852,245.804c-18.936-24.411-45.038-36.076-73.72-39.063c-45.865-4.777-83.153-26.206-117.563-54.403
		c-16.952-13.891-33.012-28.877-49.334-43.526c-7.237-6.494-6.516-11.713,3.206-14.746c48.614-15.169,97.755-23.988,148.176-9.707
		c41.899,11.867,71.859,38.115,90.042,77.721c1.927,4.197,4.48,8.306,5.4,12.734c10.075,48.512,42.393,71.004,87.8,86.587
		c63.72,21.867,123.977,53.476,188.675,73.442c2.661,0.821,5.137,2.781,9.197,0.399c-6.475-11.241-17.685-16.004-28.656-18.94
		c-61.475-16.457-102.132-55.734-127.704-112.806c-19.376-43.243-43.075-84.29-65.71-125.867c-2.564-4.71-8.488-10.731-2.358-15.37
		c5.998-4.54,10.376,2.352,14.032,6.369c20.018,21.996,46.546,31.348,74.129,38.741c24.524,6.573,49.409,12.02,73.528,19.836
		c57.604,18.668,91.802,64.984,93.879,125.607c0.455,13.262-0.567,26.572-0.194,39.84c0.968,34.482,14.215,52.084,47.155,61.799
		c42.405,12.507,85.884,17.612,130.037,17.065c4.34-0.054,9.999,1.795,12.464-3.37c2.46-5.154-2.454-8.438-5.193-11.832
		c-10.682-13.235-24.115-22.909-39.164-30.826c-70.914-37.306-94.465-83.203-84.285-162.875c3.146-24.619,6.31-49.25,8.682-73.95
		c2.405-25.036-1.339-49.507-8.838-73.481c-1.528-4.884-3.103-11.061,2.398-14.138c6.219-3.479,9.451,2.53,12.161,6.611
		c31.152,46.903,70.782,86.711,107.592,128.873c32.985,37.782,38.867,81.062,26.579,128.21c-3.199,12.274-7.319,24.506-8.709,37.014
		c-3.317,29.854,14.439,49.992,44.381,52.014c21.409,1.445,40.969-5.703,60.339-13.363c30.018-11.872,58.729-27.16,90.477-34.486
		c2.836-0.654,6.156-1.083,6.414-4.615c0.243-3.325-2.601-4.796-5.4-5.726c-2.738-0.91-5.543-1.613-8.307-2.451
		c-68.177-20.665-103.057-68.261-100.248-139.134c1.531-38.641,5.197-77.198,7.99-115.786c0.41-5.667-0.089-13.479,6.469-14.632
		c7.787-1.369,7.542,6.875,9.039,12.143c8.835,31.084,26.194,56.336,52.128,75.546c12.985,9.618,26.359,18.709,39.565,28.028
		c33.117,23.372,49.643,55.291,49.485,95.854c-0.024,6.35-0.09,12.73,0.451,19.046c1.775,20.699,11.975,29.249,32.068,26.024
		c40.865-6.56,81.658-5.655,122.529-0.304c4.136,0.542,9.979,3.638,12.28-1.982c1.998-4.881-3.184-8.164-6.185-11.448
		c-5.497-6.016-11.8-11.302-19.415-14.262c-46.59-18.108-61.832-55.759-63.375-101.706c-1.317-39.243,16.487-74.004,26.897-110.484
		c0.787-2.758,2.481-5.532,5.819-5.604c4.483-0.097,5.998,3.746,6.182,6.986c1.833,32.329,22.835,54.818,40.562,78.806
		c18.93,25.616,26.739,53.973,20.351,84.943c-6.605,32.015,6.593,53.344,32.154,70.036c18.754,12.247,39.967,17.705,61.077,23.639
		c9.271,2.606,18.951,4.258,31.433,13.357c-25.044,3.899-43.132,14.12-61.448,24.015c-3.11,1.681-8.84-0.95-13.19-2.185
		c-49.481-14.044-95.994-11.813-136.642,24.183c-21.972,19.457-31.893,43.038-26.948,72.622c4.275,25.58,9.393,50.98,9.4,77.245
		c0.012,40.585-12.921,75.902-39.151,106.467c-8.26,9.625-16.567,19.525-26.329,27.49c-42.959,35.054-78.657,76.161-107.102,123.745
		c-7.147,11.955-17.616,21.34-27.824,30.746c-3.378,3.113-6.965,7.151-11.896,3.242c-3.601-2.855-3.365-7.029-1.375-11.06
		c27.32-55.357,22.101-113.133,13.419-171.42c-8.421-56.531-3.992-110.489,33.162-157.928c19.011-24.274,42.269-42.832,69.74-55.646
		c31.499-14.693,58.622-34.233,80.193-61.626c4.924-6.253,11.854-10.906,17.712-16.452c3.096-2.932,9.823-4.334,7.548-9.933
		c-2.102-5.17-8.251-2.933-12.48-2.631c-47.667,3.404-93.312,15.453-137.353,33.58c-51.316,21.122-100.622,46.416-149.052,73.432
		c-28.432,15.861-51.414,36.624-64.186,67.74c-5.434,13.239-13.217,25.696-21.171,37.686
		c-31.103,46.886-75.277,70.552-131.389,70.582c-55.746,0.03-110.018-12.529-164.714-21.246
		c-17.667-2.816-35.273-6.016-52.886-9.159c-4.347-0.776-10.28-0.601-9.723-7.162c0.497-5.857,5.743-6.561,10.505-6.583
		c20.484-0.096,40.232-3.984,59.01-12.058c25.321-10.888,46.618-27.385,65.398-47.472c16.543-17.694,32.602-35.889,52.744-49.898
		c31.37-21.819,65.552-30.171,103.441-24.135c20.49,3.264,40.775,8.631,61.721,8.142c16.206-0.378,31.654-3.321,45.759-19.744
		c-23.658,0.222-44.072,0.067-64.372-2.136c-98.614-10.7-191.161-42.89-282.608-79.099c-26.295-10.412-52.549-20.935-78.953-31.063
		c-10.248-3.931-20.906-6.609-32.069-6.536c-20.481,0.135-30.889,7.983-36.087,27.812c-1.605,6.124-2.487,12.44-3.63,18.681
		c-14.642,79.903-65.721,125.316-147.118,130.638c-26.625,1.741-53.077-0.746-79.516-3.599c-12.313-1.328-15.399-5.888-7.332-16.447
		c27.918-36.542,59.746-68.881,98.883-93.539c9.44-5.948,19.871-8.941,30.687-11.274c35.316-7.618,66.669-22.065,89.526-51.643
		c4.706-6.09,11.654-10.447,18.789-16.667c-13.354-1-21.087,5.684-28.188,13.39c-21.113,22.917-46.996,36.708-77.735,41.939
		c-41.165,7.005-92.165-15.299-115.003-49.886c-4.712-7.136,0.248-9.265,3.697-12.4c56.011-50.924,108.428-66.16,176.442-29.876
		C2728.911,238.738,2735.904,242.228,2742.852,245.804z M3542.904,426.662c-25.861,58.279-59.128,112.172-96.962,163.362
		C3490.605,542.877,3537.707,497.174,3542.904,426.662z M3204.636,472.721c-53.276,15.501-104.614,36.554-157.568,52.873
		C3102.019,515.198,3159.398,512.144,3204.636,472.721z M3029.71,290.748c-16.41-51.063-36.371-94.988-88.1-114.774
		c36.202,21.238,50.997,57.908,68.097,92.97C3013.636,277,3018.591,284.479,3029.71,290.748z M3236.506,291.159
		c-3.513-51.645-13.272-101.12-48.593-141.709C3216.544,192.364,3213.867,246.161,3236.506,291.159z M3485.965,276.069
		c-26.047-24.339-38.428-59.891-67.681-81.601C3440.191,222.204,3444.94,264.018,3485.965,276.069z"/>
	<path d="M3807.571,2299.29c47.125,2.927,93.287-5.991,139.608-11.968c59.492-7.676,111.965,8.489,159.293,43.865
		c6.287,4.699,12.709,7.719,20.563,7.78c4.316,0.033,9.298-0.62,9.97-5.03c2.948-19.386,18.876-33.443,18.8-54.865
		c-0.15-42.459,13.924-81.186,36.481-117.465c33.209-53.41,64.436-108.05,97.162-161.766c12.341-20.257,15.117-19.773,26.733,0.645
		c23.337,41.017,35.708,84.972,34.543,132.374c-1.563,63.521-26.684,115.287-78.658,152.531
		c-20.121,14.419-42.145,26.157-63.029,39.543c-27.897,17.88-36.021,38.131-29.244,70.907c2.944,14.23,8.151,27.687,14.177,40.813
		c22.482,48.979,52.179,93.76,81.36,138.817c2.929,4.523,6.151,11.389,12.989,9.24c6.568-2.063,5.882-9.239,6.034-14.897
		c0.155-5.756-0.09-11.555-0.617-17.293c-6.003-65.42,12.461-121.549,65.147-162.938c40.374-31.717,71.687-69.943,93.47-116.277
		c2.3-4.893,4.636-13.034,11.498-10.593c8.955,3.186,2.907,10.61,1.522,16.287c-10.375,42.5-12.748,85.546-8.865,129.016
		c1.284,14.379,2.827,28.735,4.074,43.117c5.363,61.853-17.636,111.31-71.499,141.211c-42.583,23.639-59.492,54.253-54.03,102.656
		c11.509,101.994-22.71,194.684-63.863,285.419c-2.487,5.485-5.819,8.123-11.814,7.924c-7.501-0.249-15.014-0.189-22.521-0.181
		c-25.855,0.03-25.708,0.108-15.102-24.458c6.173-14.3,12.479-28.606,17.496-43.328c9.91-29.086,2.326-55.673-18.847-69.478
		c-23.295-15.188-59.606-11.886-80.236,8.2c-9.475,9.226-17.609,19.85-26.166,29.995c-36.354,43.105-81.823,56.659-135.332,39.841
		c-48.145-15.132-92.949-37.859-135.558-64.827c-5.046-3.193-12.672-6.605-8.865-14.459c3.401-7.017,10.158-2.931,15.449-1.658
		c10.577,2.546,20.683-0.004,30.772-2.413c40.013-9.553,75.108-29.104,107.991-53.21c45.327-33.228,92.931-35.194,141.389-8.118
		c23.577,13.173,47.898,22.572,74.767,25.343c3.898,0.402,8.216,3.146,11.327-0.61c3.218-3.885-0.187-7.603-2.075-10.974
		c-4.792-8.552-9.202-17.41-14.854-25.374c-25.631-36.117-57.483-66.101-92.515-92.947c-17.777-13.624-37.258-17.383-58.815-12.215
		c-6.731,1.614-13.601,2.643-20.352,4.182c-48.375,11.026-92.726,2.419-133.241-26.497c-18.78-13.403-37.761-26.588-57.274-38.883
		c-22.665-14.28-47.14-24.432-74.197-26.857c-5.049-0.453-9.231-1.318-10.266-7.014c-1.176-6.475,2.539-9.75,8.173-11.169
		c13.416-3.38,26.789-7.045,40.352-9.713c43.606-8.578,87.285-16.659,130.635-26.631c74.136-17.052,120.132,2.786,158.684,68.583
		c16.616,28.36,36.9,52.881,62.159,73.627c45.747,37.572,80.107,84.363,109.43,135.27c2.954,5.127,4.938,13.936,12.289,12.547
		c6.99-1.32,6.308-10.068,7.783-16.031c15.453-62.452,2.02-120.416-29.038-174.89c-37.168-65.194-75.299-129.756-107.151-197.903
		c-18.852-40.33-46.377-47.429-85.106-25.794c-33.899,18.937-68.174,36.067-107.555,41.232
		c-100.8,13.222-181.425-56.745-216.35-128.305c-4.923-10.085-1.734-13.903,8.542-13.924
		C3765.993,2299.261,3786.782,2299.29,3807.571,2299.29z M3905.508,2585.088c17.3,10.677,36.154,12.139,55.135,11.635
		c36.182-0.963,69.596,8.154,100.987,25.733c3.197,1.79,6.013,5.808,11.204,3.068c-2.693-6.875-8.272-10.978-13.789-14.879
		c-25.431-17.988-53.938-25.816-84.886-24.174C3951.174,2587.69,3928.258,2588.947,3905.508,2585.088z M4131.337,2824.586
		c-28.858,3.347-52.257,16.269-76.83,25.287c-25.531,9.369-51.419,8.466-77.67,3.741
		C4019.332,2876.556,4084.463,2864.444,4131.337,2824.586z M4322.545,2572.286c30.033-39.827,46.555-86.734,74.06-127.622
		C4361.481,2481.478,4333.019,2522.005,4322.545,2572.286z"/>
	<path d="M4252.675,1417.411c11.453-9.258,13.759-20.262,16.584-30.342c10.081-35.963,33.374-58.459,68.389-69.674
		c38.541-12.344,76.585-25.703,110.424-48.815c5.28-3.606,12.865-10.03,18.579-3.753c6.701,7.362-2.836,11.914-6.951,16.597
		c-16.065,18.282-23.15,41.035-32.037,62.903c-5.863,14.428-10.681,29.354-17.514,43.299
		c-21.231,43.322-56.396,65.827-104.647,61.791c-39.092-3.27-49.917,12.73-51.688,47.053
		c-3.517,68.173-13.595,135.512-26.433,202.481c-0.761,3.968-1.416,7.959-2.002,11.956c-0.337,2.297-0.393,5.183,2.25,5.641
		c1.813,0.315,4.864-0.788,5.819-2.259c3.433-5.287,6.838-10.755,9.113-16.599c5.652-14.516,10.601-29.305,15.971-43.933
		c10.071-27.437,27.136-49.346,51.611-65.515c27.448-18.134,54.716-36.541,82.131-54.725c3.835-2.544,7.984-4.661,12.131-6.679
		c4.603-2.24,10.145-6.011,14.234-1.067c3.916,4.734-2.024,8.279-4.59,11.591c-18.442,23.812-23.213,52.415-28.729,80.76
		c-4.953,25.448-7.588,51.418-19.638,75.09c-17.305,33.999-44.449,53.732-82.371,58.446c-5.729,0.712-11.48,1.546-17.236,1.687
		c-23.666,0.581-38.981,12.643-47.034,34.29c-11.468,30.829-22.255,61.913-33.939,92.658c-7.341,19.316-6.636,17.396-21.522,4.764
		c-18.619-15.8-18.818-30.895-11.219-52.847c17.564-50.736,30.021-103.078,36.717-156.533c4.654-37.151-9.543-54.144-47.055-56.772
		c-18.431-1.291-36.92-1.729-55.366-2.837c-48.528-2.916-85.639-25.085-111.004-66.589c-6.318-10.337-12.921-20.646-17.86-31.655
		c-17.567-39.163-39.19-75.85-64.774-110.272c-3.779-5.085-7.188-10.496-10.279-16.029c-3.516-6.293-11.616-14.432-5.271-19.842
		c8.017-6.835,12.228,4.68,16.822,9.435c17.632,18.248,40.296,26.49,63.787,33.031c34.546,9.62,70.083,14.479,105.276,20.908
		c56.394,10.301,95.878,40.358,114.872,95.509c4.317,12.537,9.234,24.897,14.546,37.045c1.958,4.48,4.626,10.621,10.803,9.669
		c7.122-1.098,5.056-8.136,5.463-12.82c8.33-95.724,2.296-190.396-22.148-283.524c-18.482-70.412-35.737-140.975-42.058-213.815
		c-2.412-27.788-4.793-28.537-33.023-23.486c-19.306,3.454-38.828,5.877-57.956,10.105c-22.681,5.013-32.637,19.709-24.433,40.663
		c19.149,48.901,2.969,86.488-33.448,119.113c-16.453,14.741-31.673,30.452-39.081,52.031c-1.339,3.902-3.109,7.86-8.204,7.394
		c-4.328-0.396-5.158-4.346-5.745-7.599c-5.323-29.541-15.786-57.921-19.341-87.883c-4.091-34.479,7.39-62.393,34.024-84.253
		c14.717-12.08,29.692-23.844,44.46-35.863c8.707-7.087,9.368-13.111-1.326-19.758c-14.498-9.011-29.037-15.815-46.819-15.292
		c-42.115,1.24-76.44-14.288-101.485-49.064c-7.777-10.8-16.809-20.639-29.592-25.952c-2.831-1.177-5.302-2.996-5.185-6.196
		c0.147-4.009,3.303-6.366,6.783-6.773c33.742-3.947,66.521-16.053,101.03-13.077c30.276,2.612,51.477,18.799,63.81,46.462
		c7.862,17.633,11.121,38.355,33.02,46.02c26.419,9.246,53.136,10.636,79.96,2.708c35.27-10.425,40.709-17.056,40.402-53.776
		c-0.545-65.237,6.704-130.488,0.574-195.66c-2.843-30.222-6.818-59.745,7.876-88.607c5.186-10.185,5.556-22.821,9.995-34.51
		c11.417,20.141,25.309,38.141,26.521,62.536c3.815,76.805,2.638,153.534-0.528,230.315c-3.681,89.261,1.349,177.81,25.102,264.499
		c1.895,6.916,1.489,15.012,9.263,21.222c9.852-26.503,19.241-52.318,29.051-77.972c7.191-18.803,16.816-36.58,19.211-57.203
		c2.371-20.406-0.149-38.82-12.675-55.745c-26.042-35.185-22.662-70.681-0.866-106.66c13.132-21.675,31.41-40.036,40.697-64.194
		c2.492-6.482,7.729-8.204,10.62-0.437c20.618,55.409,38.486,110.984,5.382,168.237c-5.792,10.015-9.915,20.945-11.819,32.412
		c-1.326,7.987-8.193,19.407,0.629,23.342c9.076,4.047,15.607-7.142,21.162-14.372c29.718-38.681,66.605-63.294,117.617-60.858
		c9.817,0.469,19.616-0.033,29.094-3.32c3.248-1.126,7.217-2.009,9.423,1.469c2.042,3.219,0.94,7.057-1.949,9.367
		c-19.676,15.729-27.766,39.402-41.14,59.447c-17.721,26.56-44.711,39.535-74.417,35.742c-53.663-6.852-77.175,22.51-95.709,65.648
		c-27.083,63.035-28.714,127.464-17.617,193.598C4250.614,1385.439,4251.076,1400.267,4252.675,1417.411z M4153.917,1587.998
		c-28.259-15.275-42.476-47.081-72.183-60.493c-28.19-12.727-54.596-28.71-80.51-45.597
		C4015.925,1500.473,4139.878,1586.99,4153.917,1587.998z M4319.028,1648.659c-15.03,23.795-31.324,40.899-55.771,56.421
		C4291.751,1703.329,4311.64,1682.293,4319.028,1648.659z M3969.028,1168.858c13.685-20.75,34.853-38.574,26.061-68.113
		C3990.284,1124.968,3975.072,1145.12,3969.028,1168.858z M4294.137,1400.325c20.991-17.872,49.614-19.787,71.535-35.187
		C4341.351,1376.167,4309.99,1372.304,4294.137,1400.325z M4285.166,957.974c-1.042,19.738-0.3,39.132,5.14,58.071
		C4298.786,995.825,4291.003,976.867,4285.166,957.974z M3915.138,959.546c15.716,9.729,30.354,21.693,49.636,24.032
		C3949.728,972.458,3935.448,959.751,3915.138,959.546z M4359.999,1070.516c13.81-0.831,25.278-7.423,34.263-18.803
		C4382.106,1055.997,4370.021,1060.389,4359.999,1070.516z"/>
	<path d="M4047.03,423.534c-24.764-3.788-45.357-11.186-66.177-17.68c-6.855-2.138-14.89-4.754-17.422,4.316
		c-2.733,9.786,6.702,10.591,13.079,11.966c19.167,4.131,38.458,7.688,57.691,11.509c3.83,0.761,8.302,0.406,10.374,6.095
		c-12.242,8.037-26.659,4.302-39.824,6.845c-6.183,1.194-12.676,0.686-18.96,1.483c-5.772,0.732-10.035,4.12-9.327,10.296
		c0.79,6.896,6.501,7.362,11.913,6.507c14.812-2.338,29.565-5.044,44.368-7.439c5.371-0.869,10.818-1.27,19.665-2.274
		c-34.514,39.564-73.936,67.445-113.109,95.574c-27.623,19.836-57.992,33.116-92.024,37.411
		c-22.118,2.791-43.842,1.032-65.065-5.513c-23.637-7.29-26.069-13.36-14.425-34.68c3.305-6.052,7.09-11.924,11.308-17.373
		c5.56-7.184,3.423-9.731-4.837-10.537c-17.312-1.69-34.209-5.195-50.063-12.769c-22.387-10.696-23.834-18.473-6.083-35.022
		c13.574-12.654,28.28-24.09,45.398-31.256c10.971-4.593,8.885-8.146,1.543-13.559c-0.465-0.343-0.951-0.659-1.392-1.03
		c-35.645-30.037-35.712-40.11,1.616-68.537c43.557-33.171,91.902-35.824,141.081-16.496
		c48.483,19.055,91.431,48.964,136.083,75.404C4043.702,417.521,4044.288,419.407,4047.03,423.534z"/>
	<path d="M4057.955,472.652c-7.353,28.086-21.701,52.127-36.263,76.117c-3.421,5.636-12.905,12.657-2.196,18.577
		c9.442,5.22,12.396-5.3,16.151-11.125c13.506-20.96,23.145-43.84,32.512-66.852c1.837-4.512,3.051-11.969,9.447-10.554
		c8.035,1.777,4.763,9.623,3.77,14.571c-4.655,23.181-9.808,46.269-15.259,69.277c-1.699,7.173-4.125,14.692,5.603,16.497
		c9.656,1.792,10.525-6.431,11.609-13.487c3.764-24.503,7.587-48.997,11.472-73.481c0.9-5.671,1.373-12.607,8.639-13.212
		c6.845-0.57,6.712,6.721,8.962,11.032c49.244,94.337,39.708,182.159-29.218,263.41c-10.163,11.981-21.694,22.381-35.069,30.612
		c-18.137,11.163-23.272,9.984-35.107-7.932c-3.47-5.253-6.407-10.859-10.768-18.323c-12.847,16.843-26.787,31.065-42.887,42.93
		c-18.309,13.493-25.581,10.982-31.595-10.611c-5.062-18.177-4.211-36.683-2.112-55.036c1.148-10.034,0.249-13.62-11.355-10.853
		c-39.988,9.532-49.108,1.121-43.939-40.243c4.358-34.868,19.409-65.078,43.053-90.857
		C3956.133,546.521,4014.336,518.592,4057.955,472.652z"/>
	<path d="M498.664,2555.013c23.698,17.413,46.793,34.405,69.922,51.352c3.258,2.387,6.469,4.983,10.067,6.731
		c5.659,2.749,12.074,11.063,17.763,2.448c5.444-8.243-2.989-12.332-8.95-15.493c-19.499-10.34-36.936-23.639-54.334-37.01
		c-7.222-5.55-14.843-10.784-22.109-23.953c20.963,11.019,39.41,15.639,57.392,21.722c48.273,16.331,99.453,20.57,148.017,35.806
		c30.399,9.537,57.779,23.656,78.182,48.703c15.621,19.177,13.866,27.333-7.703,38.918c-9.532,5.12-19.799,8.873-30.827,13.729
		c12.475,15.074,25.332,28.264,33.246,45.323c5.58,12.027,2.275,18.309-9.161,22.634c-18.182,6.875-37.112,8.809-56.238,7.78
		c-12.223-0.658-15.86,3.645-12.266,15.055c0.857,2.72,0.902,5.695,1.347,8.547c6.743,43.244-3.285,52.74-46.559,43.394
		c-47.648-10.292-81.055-39.622-100.269-82.893c-25.514-57.461-46.471-116.853-65.526-176.819
		C498.161,2573.131,495.318,2564.743,498.664,2555.013z M516.461,2585.434c-1.111,0.386-3.192,0.464-4.047,1.527
		c-2.707,3.366-0.579,6.741,1.449,9.259c14.019,17.406,28.193,34.689,42.495,51.863c2.718,3.263,6.493,5.122,10.519,1.819
		c3.043-2.497,3.824-6.345,1.597-9.27c-14.621-19.203-30.834-37.012-48.327-53.642
		C519.376,2586.257,518.07,2586.09,516.461,2585.434z"/>
	<path d="M493.325,2493.834c2.245-18.283,8.882-31.583,15.494-44.923c3.057-6.167,7.624-14.328-1.173-17.78
		c-8.094-3.176-9.352,6.375-11.596,11.836c-3.724,9.061-6.472,18.526-10.278,27.549c-2.786,6.606-2.955,17.309-11.647,17.459
		c-9.362,0.162-8.82-10.722-11.056-17.408c-7.17-21.433-10.955-43.691-12.857-66.092c-4.754-55.967-4.439-111.87,7.142-167.124
		c5.358-25.564,17.421-47.425,39.265-63.165c11.212-8.079,20.253-7.088,27.489,4.729c4.807,7.85,9.521,15.822,13.456,24.129
		c9.231,19.487,8.765,19.204,27.031,6.298c12.212-8.627,24.871-16.856,38.138-23.697c15.45-7.967,21.671-4.47,25.488,12.789
		c3.515,15.897,3.888,32.097,1.923,48.212c-1.412,11.579,3.08,14.919,13.742,11.707c1.655-0.499,3.348-0.894,5.044-1.225
		c39.158-7.658,48.353,2.059,39.891,41.881c-5.72,26.917-18.919,49.79-39.559,67.507c-48.562,41.686-101.335,78.345-147.386,123.07
		C500.382,2491.035,497.993,2491.564,493.325,2493.834z"/>
	<path d="M4119.057,472.563c19.151,8.438,30.002,24.223,41.9,38.933c4.711,5.825,8.498,12.433,13.475,17.996
		c4.37,4.884,7.227,16.173,16.818,8.391c7.824-6.349,0.41-12.592-3.48-17.748c-12.869-17.057-26.576-33.405-42.592-47.692
		c-6.715-5.99-13.102-12.347-20.595-19.443c8.944-5.302,14.417-1.227,19.728,1.299c21.46,10.209,41.726,22.213,58.22,39.772
		c4.889,5.205,11.081,10.809,17.24,2.907c5.546-7.115-1.763-11.268-6.55-15.147c-24.724-20.033-50.547-38.149-87.263-45.691
		c30.446-11.551,57.011-12.409,83.542-7.943c90.534,15.241,148.425,69.367,179.596,153.913c9.257,25.109,4.629,32.248-21.706,35.548
		c-9.916,1.242-9.918,4.537-6.245,11.961c7.975,16.119,13.761,33.087,15.987,50.957c1.904,15.283-3.834,20.598-18.989,17.349
		c-10.08-2.161-20.049-5.505-29.538-9.559c-9.416-4.022-18.168-9.597-29.129-15.528c-1.291,10.88-1.928,20.36-3.621,29.648
		c-3.215,17.643-11.677,22.943-28.211,15.839c-42.809-18.395-73.598-49.528-90.448-92.902
		c-16.064-41.353-29.952-83.548-45.193-125.228C4128.523,490.679,4123.416,481.758,4119.057,472.563z"/>
	<path d="M509.644,2507.676c9.246-16.279,19.492-23.817,29.047-31.877c40.569-34.219,82.308-66.962,125.425-97.913
		c18.372-13.188,38.132-23.988,60.167-29.714c27.484-7.144,38.147-0.262,40.146,27.705c1.001,14.007,5.761,16.388,18.117,12.314
		c13.191-4.35,26.885-5.994,40.965-4.076c12.61,1.718,15.556,8.002,10.974,19.189c-7.025,17.151-15.169,33.837-26.873,48.178
		c-8.613,10.554-5.311,13.981,6.093,16.805c12.334,3.053,23.788,8.547,34.681,15.292c9.792,6.063,11.389,12.836,5.456,22.935
		c-22.693,38.627-58.356,55.747-100.791,62.057c-60.895,9.055-119.251-5.486-177.589-19.497
		c-16.767-4.027-33.72-7.965-49.158-16.178c-3.446-1.833-8.577-3.471-7.733-8.131c0.819-4.522,6.052-4.631,10.012-5.231
		c19.932-3.019,39.859-6.08,59.82-8.89c5.203-0.733,11.548-0.393,11.367-7.473c-0.216-8.469-7.199-7.666-12.926-6.855
		C562.507,2499.76,538.202,2503.449,509.644,2507.676z"/>
	<path d="M4080.587,401.721c-7.99-10.498-12.032-22.862-17.09-34.696c-2.548-5.963-5.481-12.985-13.588-9.008
		c-8.184,4.014-3.943,10.788-1.179,16.361c6.035,12.167,15.172,22.916,17.664,38.437c-81.337-44.835-163.408-86.421-202.061-177.63
		c-4.087-9.642-7.115-19.52-8.564-29.823c-3.542-25.19,6.096-35.397,31.284-30.25c15.177,3.102,16.628-1.174,13.652-14.235
		c-3.58-15.706-6.237-31.737-4.431-48.024c1.386-12.502,7.366-17.545,20.024-12.354c18.283,7.498,35.293,17.048,50.055,30.262
		c8.281,7.412,11.746,6.292,14.053-5.137c7.613-37.705,18.108-41.264,49.09-17.649c33.791,25.756,51.161,60.888,54.14,102.311
		c4.513,62.741-1.826,125.621,0.049,188.448C4083.707,399.408,4082.291,400.126,4080.587,401.721z"/>
	<path d="M4218.247,2098.025c-7.091-29.449-20.852-52.101-33.765-75.164c-11.198-19.998-26.469-36.304-44.917-49.762
		c-10.518-7.673-20.126-9.694-26.497,4.726c-4.034,9.13-8.212,7.236-13.797,1.348c-6.348-6.69-14.012-12.21-19.894-19.248
		c-10.123-12.113-16.95-8.251-23.136,3.355c-0.816,1.528-1.687,3.027-2.528,4.542c-9.279,16.716-9.279,16.716-23.266,4.524
		c-0.321,0.481-0.978,1.332-0.913,1.39c18.783,17.128,7.481,37.215,5.507,56.334c-0.665,6.439-1.607,12.758,6.416,17.985
		c2.554-23.141,5.157-45.59,15.471-66.08c8.857-17.596,8.64-16.486,24.865-5.765c18.259,12.066,24.157,25.648,16.025,46.566
		c-4.468,11.495-5.295,24.406-7.711,36.417c-11.066,0.591-10.986-19.172-21.508-12.577c-5.649,3.54-5.988,15.487-8.829,23.603
		c-1.334,3.812-3.056,7.489-4.355,11.311c-2.774,8.169-5.94,11.213-14.627,4.837c-11.112-8.156-23.942-13.932-35.407-21.66
		c-9.685-6.527-15.444-6.816-17.484,6.459c-1.3,8.46-5.239,16.221-5.39,25.193c-0.443,26.324-11.956,50.866-12.053,79.941
		c-33.231-26.518-68.352-47.569-70.683-94.339c-0.637-12.779,2.259-16.267,14.995-14.283c21.701,3.379,42.462,9.288,64.696,20.891
		c-10.93-27.635-12.164-53.725-12.604-79.985c-0.201-12.04,4.578-13.033,13.177-6.976c15.376,10.832,30.59,21.895,46.819,31.67
		c-12.775-24.178-32.781-39.87-58.254-48.95c-7.73-2.755-8.445,3.595-9.449,8.669c-3.408,17.221-1.826,34.449-0.526,51.772
		c0.514,6.849,6.6,18.865-0.484,19.849c-10.063,1.398-22.853-1.247-28.999-13.749c-13.228-26.9-20.505-55.337-20.247-85.173
		c0.154-17.805,3.429-35.567,4.912-53.38c1.021-12.256,5.279-14.634,16.526-8.401c29.177,16.168,56.937,33.115,67.578,67.838
		c1.928,6.29,7.126,11.579,12.182,16.61c-2.009-14.37-10.154-26.084-16.55-38.383c-10.443-20.081-5.8-40.707-2.75-60.999
		c1.462-9.728,9.333-3.753,13.657-1.55c24.869,12.67,47.703,28.108,65.433,50.198c3.48,4.336,5.814,9.939,13.602,12.952
		c2.564-26.861,7.9-52.464,18.786-76.63c8.854-19.654,8.591-19.581,23.257-4.854c22.987,23.087,43.121,48.048,56.512,78.138
		c2.621,5.889,5.201,12.752,12.553,17.345c0-3.737,1.05-7.094-0.159-9.064c-14.704-23.959,4.824-38.115,15.496-54.678
		c4.938-7.665,9.614-6.908,13.474,1.412C4253.361,1966.83,4263.549,2031.086,4218.247,2098.025z M4217.736,1949.874
		c-4.584,15.612-7.815,31.489-8.207,52.13C4217.285,1982.572,4220.383,1966.727,4217.736,1949.874z"/>
	<path d="M424.13,2496.57c-40.16-14.601-77.459-34.86-110.371-62.309c-34.358-28.656-64.435-61.256-82.054-103.424
		c-7.874-18.845-12.805-38.356-11.127-58.968c1.567-19.25,6.502-22.273,25.783-19.645c10.017,1.365,21.301,11.806,28.592,4.834
		c4.638-4.435-0.42-18.405-0.057-28.059c0.509-13.53-4.978-31.834,7.616-38.721c12.609-6.894,26.729,5.841,39.606,11.762
		c10.445,4.803,18.375,19.727,28.083,17.268c6.992-1.772,9.919-17.974,15.519-27.219c8.732-14.416,16.149-15.801,29.566-5.629
		c14.679,11.127,24.727,25.521,29.327,43.657c9.178,36.179,8.856,73.222,10.198,110.085c1.742,47.847,1.009,95.918,16.096,142.257
		c1.376,4.228,3.577,10.087-0.831,12.821c-5.504,3.413-9.459-1.843-12.899-5.698c-5.376-6.025-10.325-12.454-15.953-18.224
		c-4.333-4.442-9.822-10.501-15.789-3.268c-5.156,6.25,0.936,10.343,5.594,13.829c5.008,3.748,10.136,7.334,15.212,10.991
		C425.539,2494.129,424.834,2495.349,424.13,2496.57z"/>
	<path d="M162.451,2561.776c-20.868-4.405-41.467-9.44-59.677-21.342c-19.566-12.788-20.195-16.749-2.399-30.851
		c14.099-11.172,29.32-20.548,46.272-26.669c8.528-3.079,9.457-6.421,3.481-13.392c-7.479-8.724-14.53-17.941-20.711-27.618
		c-6.925-10.842-4.437-18.962,8.176-24.539c39.654-17.535,78.739-16.237,116.733,3.755c30.089,15.833,59.379,33.193,88.919,50.059
		c24.073,13.743,48.405,26.847,74.908,35.482c4.622,1.506,10.292,2.35,12.189,9.485c-12.916,4.044-26.108,2.444-39.016,3.395
		c-4.544,0.335-9.9-0.193-9.998,6.578c-0.106,7.317,5.041,8.203,10.664,7.78c13.021-0.977,25.854-4.99,41.444-3.003
		c-7.13,9.66-16.88,12.249-24.52,17.452c-56.52,38.496-120.002,58.049-186.973,67.732c-20.2,2.921-40.351,1.749-60.119-3.406
		c-24.336-6.346-26.554-13.255-11.263-32.729C154.759,2574.602,160.686,2570.372,162.451,2561.776z"/>
	<path d="M4124.094,420.866c41.063-48.344,74.833-97.05,127.538-127.14c33.91-19.36,68.562-35.809,108.309-38.176
		c5.748-0.342,11.547-0.546,17.286-0.206c29.267,1.73,35.693,9.324,27.143,37.087c-5.07,16.465-0.261,18.568,14.45,16.776
		c16.676-2.03,33.525-1.115,49.516,5.061c15.533,5.999,17.147,10.938,7.015,23.998c-7.052,9.09-14.909,17.633-23.047,25.78
		c-7.65,7.659-16.141,14.478-25.194,22.492c5.599,3.263,9.939,5.799,14.285,8.325c29.63,17.224,30.281,28.553,1.732,48.233
		c-37.646,25.952-77.681,30.393-119.76,11.321c-22.044-9.992-42.425-23.551-65.935-30.413
		C4214.691,411.53,4171.716,405.764,4124.094,420.866z"/>
	<path d="M4116.452,401.665c5.74-12.94,11.571-25.841,17.176-38.839c2.31-5.357,5.087-11.706-2.862-14.467
		c-7.224-2.51-10.494,3.27-12.393,8.911c-5.208,15.474-8.622,31.655-16.694,45.631c-4.78-1.179-5.167-3.535-5.134-5.813
		c1-68.094-0.464-136.29,8.341-204.065c4.226-32.526,12.053-63.698,35.467-88.423c20.209-21.342,30.89-20.411,44.201,5.4
		c6.821,13.225,11.577,15.98,22.29,3.853c9.942-11.255,22.631-19.646,35.916-26.841c17.59-9.526,23.281-7.051,26.678,13.185
		c1.705,10.159,1.861,20.695,1.608,31.034c-0.259,10.632,3.195,12.625,13.43,9.927c26.65-7.028,32.684-1.593,31.061,26.812
		c-2.368,41.435-22.865,73.286-54.377,98.445c-31.495,25.146-66.817,45.631-92.511,77.735c-16.064,20.073-32.6,39.77-48.924,59.635
		C4118.633,403.078,4117.542,402.372,4116.452,401.665z"/>
	<path d="M458.014,2557.447c-2.028,23.312-4.202,46.612-5.992,69.943c-0.499,6.511-2.848,15.857,7.6,15.772
		c9.22-0.074,6.716-9.018,6.916-14.917c0.791-23.298,0.941-46.657,8.053-71.702c9.315,8.326,10.44,17.697,13.237,25.992
		c15.284,45.318,30.862,90.549,45.237,136.158c10.518,33.371,13.444,67.735,9.064,102.662
		c-3.557,28.363-14.622,53.041-33.495,74.536c-8.197,9.336-15.182,10.606-24.342,1.242c-12.609-12.889-23.707-26.814-31.969-42.785
		c-4.927-9.524-9.054-9.9-16.247-1.846c-9.605,10.754-21.117,19.525-32.986,27.825c-9.821,6.868-16.406,5.103-22.431-5.112
		c-18.516-31.396-21.561-65.497-16.947-100.455c7.114-53.903,27.455-103.435,53.175-150.87c12.248-22.588,22.3-46.477,36.859-67.747
		C455.168,2556.579,456.591,2557.013,458.014,2557.447z"/>
	<path d="M365.444,2705.132c-4.954,29.465-12.914,56.381-42.456,70.799c-7.763,3.789-15.051,8.537-22.709,12.556
		c-18.03,9.463-27.435,24.303-27.572,44.611c-0.432,63.871-35.12,100.936-93.122,120.333
		c-39.349,13.159-78.471,26.997-117.762,40.335c-5.422,1.841-11.185,2.856-16.873,3.673c-4.145,0.595-8.513-0.381-9.968-4.914
		c-1.142-3.557,0.679-7.237,4.021-8.751c41.118-18.626,50.561-58.99,65.772-95.411c5.555-13.301,10.359-26.992,16.903-39.79
		c19.516-38.164,50.156-61.095,93.57-64.869c53.878-4.684,97.515-29.487,134.686-67.401c3.622-3.694,7.396-7.25,11.26-10.69
		C361.862,2705.021,363.338,2705.334,365.444,2705.132z M153.479,2888.008c29.786-19.562,59.324-39.389,77.659-71.216
		C197.218,2831.927,177.043,2861.782,153.479,2888.008z"/>
	<path d="M4140.245,2296.199c-5.293-3.711-5.912-8.581-6.846-12.895c-15.023-69.407-56.578-114.815-124.187-135.608
		c-17.331-5.33-21.216-14.191-19.361-31.446c5.169-48.084,4.688-48.322,44.196-22.292c0.964,0.635,1.918,1.284,2.883,1.916
		c19.015,12.431,19.015,12.43,27.774-8.584c9.472-22.726,9.404-22.636,29.043-7.873c34.715,26.098,61.694,57.204,68.117,102.233
		c0.84,5.89,1.164,11.285-0.746,16.941c-9.098,26.947-14.52,54.563-15.216,83.083
		C4145.782,2286.615,4145.868,2292.132,4140.245,2296.199z M4085.367,2160.069c-0.258-16.077-0.623-32.475-8.44-47.409
		C4074.114,2129.328,4077.692,2144.899,4085.367,2160.069z"/>
	<path d="M442.557,2544.52c-12.639,35.12-29.593,65.877-51.49,94.091c-50.03,64.463-112.394,76.204-193.72,48.741
		c-12.898-4.355-13.085-10.639-3.296-19.528c24.608-22.345,51.239-40.806,83.948-49.569
		c56.625-15.171,110.004-37.676,157.972-71.975C437.151,2545.436,438.945,2545.448,442.557,2544.52z"/>
	<path d="M596.295,768.475c9.907-39.514,46.171-44.294,71.452-62.302c-15.683-0.452-23.137,2.718-47.991,20.319
		c0.403-19.802,6.327-29.024,22.921-36.002c15.333-6.448,28.839-15.871,41.112-27.78c-12.58,6.254-25.158,12.513-37.743,18.758
		c-3.012,1.495-6.333,4.23-9.454,1.771c-3.357-2.645-0.632-6.322,0.133-9.537c1.519-6.385,5.861-12.703-3.028-18.031
		c-5.552-3.327,0.213-6.841,2.23-9.657c13.68-19.101,33.199-27.858,55.803-30.801c21.229-2.764,42.562-1.941,63.893-1.805
		c10.421,0.066,10.616,4.381,8.624,12.986c-14.85,64.16-55.365,107.278-112.01,136.948
		C635.088,772.325,615.957,764.362,596.295,768.475z"/>
	<path d="M3967.209,2275.166c-68.545,8.57-118.522-50.603-135.703-118.133c-2.034-7.991,1.166-10.449,8.369-10.789
		c21.905-1.032,43.805-3.558,65.737-0.933c23.921,2.863,62.894,36.9,68.188,60.262c4.657,20.549,13.043,39.449,23.402,57.516
		c6.342,11.061,3.872,14.146-8.391,12.245C3982.61,2274.373,3976.138,2275.166,3967.209,2275.166z"/>
	<path d="M4132.359,2313.796c-0.254,3.46-0.59,6.911-0.719,10.37c-0.341,9.093-3.602,11.873-11.366,5.448
		c-28.402-23.5-60.134-40.61-95.893-50.024c-5.328-1.402-8.706-5.268-11.813-9.606c-23.136-32.295-32.568-68.273-29.964-107.793
		c0.592-8.976,3.448-10.468,11.794-7.955c64.508,19.421,111.658,56.778,129.589,124.475
		C4127.061,2290.319,4133.499,2301.176,4132.359,2313.796z"/>
	<path d="M650.068,775.515c27.551-21.798,57.102-9.471,86.349-14.105c-18.258-9.245-36.286-2.714-54.546-5.806
		c3.46-8.279,11.324-9.831,17.045-13.711c6.656-4.514,15.472-7.135,20.105-13.1c15.013-19.327,33.478-16.584,53.033-10.931
		c18.859,5.452,36.943,12.772,54.642,21.312c9.849,4.752,8.92,8.036,2.539,16.003c-36.853,46.018-87.438,63.436-143.204,70.635
		c-5.059,0.653-11.332,1.969-14.575-2.488c-3.516-4.832,1.167-9.692,3.401-14.218c1.272-2.576,2.605-5.194,4.351-7.453
		c7.807-10.104,5.877-16.281-6.895-19.157C665.653,780.995,659.232,778.436,650.068,775.515z"/>
	<path d="M727.449,861.129c-13.119-14.563-26.937-19.054-40.769-24.609c44.459-22.299,100.156-12.016,132.164,23.456
		c4.527,5.017,5.685,8.557-1.187,11.802c-65.559,30.966-131.776,54.222-205.121,15.744c19.401-14.189,34.341-31.82,47.32-51.218
		c5.446-8.14,11.649-1.926,16.456,0.96C691.094,846.14,706.307,853.876,727.449,861.129z"/>
	<path d="M2617.57,204.984c-28.92,25.105-59.692,4.061-92.195,8.984c16.729,8.294,33.567,3.702,46.938,14.025
		c-13.642,18.901-43.547,23.433-46.453,51.317c-34.763-5.239-62.229-23.678-86.715-47.184c-7.713-7.404-23.745-11.031-22.276-21.342
		c1.144-8.032,17.742-6.915,26.906-11.551c20.033-10.135,40.788-18.694,62.216-25.508c20.003-6.361,39.524-6.249,58.539,3.887
		C2581.688,186.759,2599.08,195.466,2617.57,204.984z"/>
	<path d="M4171.938,2174.209c-2.136-4.684-3.695-7.102-4.375-9.746c-8.806-34.217-27.099-62.395-55.053-83.766
		c-10.659-8.149-13.539-16.977-11.022-29.76c4.255-21.611,9.882-42.646,18.849-62.823c4.033-9.076,8.274-11.263,16.447-4.13
		c36.772,32.094,59.87,72.587,74.058,118.723c1.1,3.579,0.97,6.673-0.996,9.858
		C4197.529,2132.525,4185.267,2152.52,4171.938,2174.209z"/>
	<path d="M3916.069,2278.072c-57.552,15.506-105.243,8.518-144.129-34.38c-18.586-20.503-36.448-41.495-51.418-64.854
		c-6.231-9.721-5.965-15.785,7.361-16.912c13.176-1.113,26.295-2.9,39.473-3.987c5.791-0.478,12.09,0.159,16.323,4.32
		c23.985,23.573,55.348,38.932,72.802,70.066C3868.517,2253.796,3890.573,2265.809,3916.069,2278.072z M3796.324,2187.019
		c-15.356-9.349-29.059-11.061-43.124-11.29C3765.58,2182.864,3778.668,2187.096,3796.324,2187.019z"/>
	<path d="M3369.936,2534.656c-1.783-14.855-3.369-29.738-5.388-44.561c-5.717-41.966,6.174-66.679,42.738-87.995
		c16.389-9.554,33.82-17.293,47.326-31.479c6.609-6.941,13.354-2.923,11.575,5.471c-5.436,25.646-0.368,51.992-6.234,77.406
		c-3.927,17.012-14.995,29.755-27.643,40.952c-16.459,14.57-31.982,29.883-45.336,47.45c-4.191,5.514-8.279,15.636-16.796,11.759
		C3362.643,2550.23,3369.344,2541.259,3369.936,2534.656z"/>
	<path d="M2573.844,320.745c-13.62,6.602-24.684,12.752-37.768,14.112c5.9,3.116,12.845,3.719,17.359,0.697
		c22.122-14.808,42.6-5.125,64.544,3.317c-29.596,30.133-61.984,48.618-106.191,38.165c-28.93-6.841-54.815-21.223-82.887-29.946
		c-7.918-2.461-7.087-6.842-0.962-10.539c16.443-9.926,29.623-23.875,44.624-35.561c28.653-22.319,50.951-21.7,78.431,1.632
		C2557.925,308.507,2565.238,313.942,2573.844,320.745z"/>
	<path d="M537.324,659.62c5.044-19.278,9.575-35.921,13.745-52.654c12.806-51.379,53.248-70.542,98.178-84.596
		c5.948-1.86,9.286,0.523,9.272,6.261c-0.102,41.007,1.297,82.401-30.57,115.119c-5.643,5.794-11.521,8.852-19.602,8.898
		C585.417,652.779,562.558,654.133,537.324,659.62z M599.469,601.78c-14.176,11.285-28.188,22.872-29.967,42.898
		C579.491,630.379,589.48,616.08,599.469,601.78z"/>
	<path d="M3534.929,2761.868c2.186-2.943,2.745-4.486,3.481-4.576c46.044-5.626,79.085-32.496,108.464-65.716
		c13.31-15.05,30.751-21.67,50.651-23.141c18.361-1.357,36.966,0.488,55.071-4.757c10.364-3.002,11.593,3.483,7.689,10.434
		c-24.86,44.274-54.923,81.599-111.506,84.811c-17.722,1.006-35.7,2.71-52.518,9.903c-2.898,1.239-7.006,1.097-10.115,0.148
		C3569.992,2764.042,3553.263,2763.273,3534.929,2761.868z M3683.161,2709.525c-0.927-1.145-1.854-2.29-2.781-3.435
		c-15.062,9.883-30.124,19.767-49.125,32.235C3654.515,2732.511,3668.248,2720.032,3683.161,2709.525z"/>
	<path d="M4446.572,874.98c6.109,0.298,8.106,3.815,6.244,9.243c-6.974,20.332-7.375,41.949-12.486,62.618
		c-5.123,20.718-17.942,35.743-35.944,46.642c-20.682,12.52-41.414,24.959-62.055,37.545c-4.011,2.446-7.961,5.657-12.397,1.675
		c-3.939-3.535-1.169-7.932,0.614-11.076c10.07-17.75,12.007-37.543,12.163-56.94c0.245-30.461,17.264-47.785,42.066-59.696
		c19.565-9.397,42.203-12.38,58.668-28.283C4444.242,875.938,4445.444,875.588,4446.572,874.98z M4386.822,950.087
		c-12.353,9.751-19.736,22.594-24.419,37.117C4374.758,977.454,4380.146,963.37,4386.822,950.087z"/>
	<path d="M3963.626,1062.657c-1.21,2.554-1.611,5.183-3.133,6.345c-25.667,19.614-42.672,46.275-60.857,72.286
		c-15.354,21.961-38.731,30.043-65.174,28.717c-20.092-1.007-40.16-4.572-60.114,1.695c-4.215,1.324-9.958,1.492-11.693-4.217
		c-1.392-4.58,2.596-7.4,6.149-9.334c13.001-7.078,19.025-19.629,25.586-31.831c12.791-23.787,29.79-37.493,59.717-33.33
		c31.671,4.406,59.387-10.871,86.605-25.113C3947.522,1064.312,3953.881,1058.439,3963.626,1062.657z"/>
	<path d="M3925.136,2055.738c-3.086,0.972-4.173,1.622-5.251,1.61c-33.498-0.39-33.498-0.4-27.945,33.772
		c3.518,21.652,3.134,22.07-17.819,15.309c-25.206-8.133-42.052-25.796-52.656-49.202c-9.818-21.669-13.469-45.079-16.353-68.609
		c-1.259-10.272,2.607-12.032,11.638-10.25c25.631,5.055,50.059,13.408,72.714,26.391
		C3908.775,2015.825,3915.188,2036.158,3925.136,2055.738z"/>
	<path d="M3831.474,2191.207c-47.161-27.004-69.281-67.845-79.406-116.427c-1.898-9.108-9.124-20.868-0.646-27.707
		c7.988-6.444,18.31,2.313,27.523,4.841c19.629,5.387,34.209,18.194,48.353,32c19.18,18.722,39.782,35.265,68.237,37.087
		c5.396,0.345,9.521,2.842,8.391,8.388c-1.133,5.559-6.61,2.729-10.172,2.89c-18.972,0.858-37.961,1.36-56.937,2.15
		c-13.243,0.551-20.786,4.663-14.833,20.282C3826.171,2165.694,3828.029,2177.564,3831.474,2191.207z"/>
	<path d="M482.772,704.362c-22.268-72.115-5.134-129.594,44.621-178.361c3.587-3.516,6.446-9.741,12.233-8.217
		c6.421,1.691,6.766,8.927,7.912,14.283c4.01,18.746,5.841,37.574,0.742,56.566c-5.681,21.161-10.984,42.426-16.218,63.703
		c-1.156,4.697-2.741,9.604-6.768,11.657C508.142,672.735,494.933,685.857,482.772,704.362z M530.166,566.754
		c-8.555,15.615-9.03,33.05-10.405,50.332C527.553,601.276,528.716,584.165,530.166,566.754z"/>
	<path d="M3848.354,1078.373c-28.747-1.138-54.279-4.577-77.509-17.752c-3.964-2.248-9.188-4.49-9.071-9.53
		c0.166-7.182,6.966-4.064,10.815-5.019c14.351-3.56,25.935-12.485,38.18-19.812c25.168-15.058,50.8-17.322,77.651-5.964
		c20.826,8.809,42.272,14.909,64.892,16.898c4.412,0.388,9.387,1.825,12.788,4.469c4.831,3.755,5.443,11.815-1.454,11.237
		c-34.515-2.895-62.067,20.646-94.84,23.431C3861.787,1077.011,3853.784,1077.852,3848.354,1078.373z"/>
	<path d="M1318.709,601.73c0.941,11.359,1.94,22.827,2.811,34.304c0.272,3.584-0.213,7.246-4.244,8.47
		c-2.983,0.906-5.712-0.662-7.559-3.059c-10.288-13.346-25.601-19.417-39.699-27.039c-19.563-10.578-31.308-25.993-35.771-48.063
		c-4.775-23.612-8.955-47.838-26.753-66.352c-2.121-2.207-4.057-4.917-1.706-7.449c1.728-1.861,4.797-3.058,7.413-3.383
		c4.344-0.54,7.855,2.238,10.474,5.232c13.31,15.218,30.467,24.771,48.801,31.884
		C1307.271,539.775,1323.857,563.939,1318.709,601.73z"/>
	<path d="M3602.362,2774.647c38.603-12.346,70.3,11.027,103.982,5.163c-14.9-6.435-31.833-5.26-49.537-12.855
		c32.715-12.567,62.249-24.324,94.047-5.049c13.29,8.056,27.374,14.8,41.101,22.135c3.03,1.619,6.734,2.979,6.316,7.196
		c-0.326,3.301-3.638,4.476-6.299,4.983c-17.384,3.316-31.72,13.547-47.358,20.751c-29.157,13.435-57.036,12.212-83.737-5.875
		C3642.93,2798.938,3625.726,2785.688,3602.362,2774.647z"/>
	<path d="M1201.197,158.388c-18.734-21.014-42.467-30.588-66.218-40.514c-10.776-4.503-16.23-14.586-17.747-26
		c-1.361-10.233-1.858-20.605-2.264-30.934c-0.499-12.694-0.266-25.419-10.032-35.523c-2.384-2.466-4.371-5.801-1.65-9.213
		c2.658-3.333,6.344-2.373,9.378-0.69c20.09,11.142,40.404,21.934,59.979,33.927c9.904,6.068,17.464,15.47,20.448,26.999
		C1199.974,103.032,1193.077,130.879,1201.197,158.388z"/>
	<path d="M900.39,504.35c-27.715,1.118-46.305-13.798-57.613-36.746c-10.317-20.937-24.699-35.587-46.426-43.441
		c-4.172-1.508-10.039-2.792-7.534-9.084c2.441-6.133,7.903-5.638,13.2-3.445c6.911,2.862,14.042,5.29,20.69,8.669
		c16.876,8.578,34.663,12.784,53.443,10.615c20.512-2.37,35.658,5.718,47.764,21.555c9.443,12.354,18.835,24.814,34.126,30.877
		c2.767,1.098,7.456,1.831,6.43,6.576c-0.819,3.79-4.442,5.242-7.875,5.655C937.752,497.847,919.563,504.287,900.39,504.35z"/>
	<path d="M483.943,2545.35c-20.101,0.052-31.183-8.917-31.545-20.524c-0.402-12.88,10.535-24.002,24.048-24.455
		c12.415-0.416,24.134,11.225,23.716,24.486C499.719,2538.906,491.374,2545.223,483.943,2545.35z"/>
	<path d="M4066.78,437.68c2.171-12.273,11.825-16.715,24.784-15.675c13.18,1.057,21.531,11.261,18.874,23.732
		c-2.516,11.804-9.74,19.748-22.857,19.089C4075.829,464.236,4065.187,451.026,4066.78,437.68z"/>
</g>
</svg>
