<?xml version="1.0" encoding="iso-8859-1"?>
<!-- Generator: Adobe Illustrator 25.0.0, SVG Export Plug-In . SVG Version: 6.00 Build 0)  -->
<svg version="1.1" id="Layer_1" xmlns="http://www.w3.org/2000/svg" xmlns:xlink="http://www.w3.org/1999/xlink" x="0px" y="0px"
	 viewBox="0 0 1448 998.462" style="enable-background:new 0 0 1448 998.462;" xml:space="preserve">
<g id="_x28_27_x29__1_">
	<path fill="FRAME_COLOR" d="M1348,420.974c-2.503,2.343-3.009,5.792-4.757,8.573c-3.68,5.856-8.631,10.368-15.475,14.545
		c6.103,0.373,11.018,0.674,16.45,1.007c-4.711,6.439-10.588,10.705-17.622,13.491c-6.86,2.718-14.161,3.693-21.28,5.396
		c-9.657,2.31-18.81,5.669-25.727,13.879c18.844-16.782,40.122-11.479,61.192-6.799c-10.363,11.76-21.689,22.139-40.781,16.493
		c2.883,3.558,6.505,4.501,9.556,7.202c-10.213,2.68-19.746,4.218-28.812-1.646c-3.176-2.054-4.305-0.608-4.502,2.293
		c-0.324,4.776,1.332,9.183,3.15,13.494c3.962,9.396,9.387,18.021,14.592,26.725c19.467,32.557,18.183,64.803-0.887,96.938
		c-2.635,4.439-5.275,8.882-8.103,13.198c-10.682,16.303-18.44,33.814-23.204,52.775c-6.145,24.456-18.127,46.471-29.999,68.456
		c-4.984,9.229-8.948,18.872-13.607,29.371c2.562-2.083,3.555-4.109,4.607-6.04c4.858-8.919,10.114-17.658,14.376-26.856
		c5.468-11.801,13.817-19.8,26.812-23.047c-1.19,4.068-3.713,7.846-4.033,12.913c10.862-7.917,20.68-15.978,28.255-26.474
		c3.909-5.417,8.397-10.187,15.344-12.67c-7.871,6.488-5.374,14.689-4.653,22.652c0.661,7.303,1.131,14.635-1.499,21.75
		c-1.949,5.274-5.055,9.689-10.81,14.19c10.842,0.156,18.831,5.744,28.117,7.391c-15.869,7.35-31.489,15.318-50.046,11.936
		c4.096,4.377,9.411,6.068,14.955,8.875c-11.015,4.77-21.61,7.365-32.878,4.67c-14.034-3.356-25.892,0.198-36.183,10.206
		c-6.17,6-12.776,11.55-18.771,17.944c4.031-2.464,8.171-4.767,12.073-7.422c12.32-8.382,25.685-11.347,40.397-8.602
		c5.356,0.999,10.812,1.971,17.236,0.195c-4.033,4.747-8.652,6.965-13.5,9.524c19.033,5.927,26.473,20.904,30.553,38.401
		c1.687,7.235,1.527,14.827,3.978,22.525c-10.695-15.907-28.236-16.545-44.119-20.989c-0.57,4.104,0.448,8.153,1.034,12.461
		c-9.227-3.859-14.444-11.129-18.845-19.375c-0.766,5.348-0.057,10.328,1.478,15.283c-12.177-4.23-18.387-10.366-22.185-21.844
		c-3.05-9.218-8.08-11.357-16.84-7.057c-12.837,6.301-24.982,13.939-38.57,18.794c-32.282,11.536-64.927,11.912-97.876,3.732
		c-6.38-1.584-12.524-2.374-19.156-1.625c-20.617,2.329-41.286,1.081-61.908-0.3c-37.241-2.493-74.399-6.011-111.535-9.71
		c-22.879-2.279-45.75-4.593-68.692-6.143c-1.136-0.077-2.281-0.01-3.504-0.01c-0.071,1.822,1.633,1.949,2.485,2.752
		c4.306,4.062,4.84,9.003,3.225,14.262c-1.607,5.231-6.783,9.054-11.913,9.283c-5.355,0.239-9.274-4.016-8.53-9.261
		c0.592-4.175,3.251-5.617,7.036-3.73c0.98,0.488,1.781,1.814,2.929,0.408c0.83-1.017,0.617-2.173,0.165-3.314
		c-0.817-2.062-2.469-3.234-4.502-3.573c-12.9-2.149-25.816-4.195-40.198-6.513c13.671,6.785,22.444,15.317,20.904,31.477
		c-6.744-4.381-14.46-5.48-18.81-12.545c0.539,10.614-5.007,18.713-10.154,27.571c-5.838-8.743-11.218-17.18-9.648-29.607
		c-4.239,8.734-12.079,10.289-19.065,14.466c-2.217-16.08,6.706-24.576,19.149-31.006c-12.63,1.995-25.262,3.97-37.886,6.001
		c-2.361,0.38-4.566,1.251-5.698,3.577c-0.602,1.238-0.654,2.648,0.322,3.769c1.255,1.443,1.981-0.164,2.895-0.636
		c3.846-1.988,6.898-0.313,7.315,4.014c0.569,5.909-5.366,10.347-11.607,8.496c-5.253-1.558-8.3-5.353-9.642-10.554
		c-1.281-4.964,0.095-9.206,3.742-12.74c0.664-0.643,1.428-1.182,1.76-2.808c-8.538,0.668-17.08,1.283-25.612,2.013
		c-58.921,5.044-117.64,12.476-176.774,14.999c-16.824,0.718-33.646,1.107-50.389-1.275c-2.611-0.371-4.937,0.552-7.33,1.182
		c-30.542,8.033-61.137,9.429-91.817,0.793c-13.213-3.719-25.705-9.13-37.588-15.995c-4.608-2.662-9.158-5.464-14.225-7.239
		c-6.96-2.438-11.111-0.573-13.857,6.315c-0.615,1.544-1.105,3.143-1.57,4.741c-1.722,5.918-5.393,10.257-10.715,13.237
		c-3.324,1.862-6.776,3.507-9.909,6.086c1.493-5.173,1.858-10.328,1.507-17.112c-5.366,9.017-10.082,17.171-19.635,20.637
		c0.749-4.129,1.599-8.178,0.851-12.149c-15.684,4.528-33.184,4.835-43.502,20.832c3.105-11.807,2.751-23.704,7.28-34.609
		c5.249-12.639,13.272-22.179,27.307-26.164c-4.407-3.003-9.66-4.482-13.19-9.452c6.835,1.546,12.854,0.121,18.863-0.792
		c11.624-1.767,22.539-0.18,32.708,5.954c5.907,3.563,11.919,6.952,18.107,10.098c-9.419-8.118-17.781-17.411-28.142-24.351
		c-7.197-4.82-15.353-5.797-23.537-3.873c-12.434,2.923-24.118,0.891-36.306-4.144c4.967-2.971,10.333-4.548,14.521-8.727
		c-18.091,2.318-33.695-4.641-49.194-12.172c8.591-2.428,16.667-6.609,26.388-7.556c-2.264-2.584-4.357-4.613-6.03-6.944
		c-6.983-9.733-6.323-20.82-4.871-31.784c0.974-7.355,0.786-13.993-5.074-19.594c5.072,1.182,8.719,4.455,11.541,8.303
		c8.656,11.801,19.161,21.614,31.369,30.347c0.098-4.734-2.101-8.519-4.366-13.025c10.864,3.857,19.981,8.327,25.05,18.947
		c4.942,10.356,10.816,20.269,16.364,30.332c1.174,2.13,2.213,4.411,4.81,5.731c-3.831-8.406-7.12-17.112-11.591-25.162
		c-15.26-27.473-27.985-55.906-36.098-86.391c-3.669-13.789-11.47-25.803-19.09-37.763c-5.733-8.998-11.157-18.178-15.24-28.064
		c-10.313-24.971-10.103-49.662,2.518-73.817c5.164-9.883,10.933-19.449,16.158-29.302c3.202-6.038,5.989-12.31,5.522-19.459
		c-0.197-3.013-1.158-3.962-4.002-2.068c-9.074,6.043-18.667,4.398-29.005,1.793c3.359-2.237,6.192-4.123,9.025-6.01
		c-18.093,3.964-29.957-5.31-40.948-18.547c10.587,0.306,19.939-3.876,29.889-3.885c12.329-0.011,23.237,3.804,32.345,12.993
		c-1.156-3.477-3.036-5.446-7.42-8.174c-8.381-5.213-17.806-7.275-27.309-9.139c-11.509-2.257-22.21-6.001-29.468-16.602
		c5.151-1.131,10.221-0.751,15.261-0.553c0.058-0.463,0.208-0.963,0.115-1.013c-9.084-4.88-14.958-12.481-18.716-21.91
		c-0.16-0.401-0.689-0.655-1.047-0.977c0-7.667,0-15.333,0-23c5.842,1.648,11.905,1.211,17.855,1.753
		c10.785,0.982,20.632,3.6,28.021,13.505c0.871-5.219,0.49-9.466-1.288-14.003c12.27,5.932,17.468,16.391,20.36,29.854
		c2.618-4.592,2.206-8.303,3.047-12.164c6.656,5.614,10.528,12.542,11.336,20.601c2.201,21.94,1.855,43.963-1.349,65.747
		c-1.808,12.294-8.967,22.842-14.578,33.798c-3.301,6.445-6.964,12.726-9.357,20.327c5.004-1.649,9.494-2.647,14.179-1.401
		c7.908,2.103,12.582,10.282,10.41,18.387c-1.822,6.798-8.803,10.893-15.525,9.109c-8.327-2.21-10.892-9.746-6.173-18.134
		c-3.758,1.121-5.328,2.762-6.123,7.566c-2.24,13.541,0.5,26.543,4.966,39.222c3.393,9.63,8.531,18.406,14.252,26.852
		c3.629,5.356,7.046,10.855,10.575,16.316c1.532-0.618,0.958-1.97,0.971-2.972c0.812-61.156,3.001-122.297,2.192-183.469
		c-0.253-19.152-0.781-38.334-4.725-57.192c-4.705-22.5-17.305-38.561-38.928-47.123c-19.179-7.595-24.202-15.103-23.893-35.85
		c0.074-4.976,0.333-9.943,1.84-15.165c0.531,0.58,0.957,0.829,1.031,1.158c1.929,8.547,7.403,13.838,15.27,17.182
		c7.137,3.034,13.06,7.422,15.014,15.545c0.233,0.969,0.698,1.984,0.583,2.919c-0.941,7.671,2.728,11.826,9.168,15.934
		c11.317,7.22,19.16,17.885,23.783,30.679c0.452,1.251,0.907,2.504,1.432,3.725c0.089,0.207,0.54,0.259,1.144,0.522
		c1.969-10.136,3.621-20.248,6.319-30.146c3.305-12.128,8.517-23.443,13.997-34.678c1.036-2.123,2.704-3.274,4.653-4.289
		c6.661-3.47,12.982-7.465,18.96-12.03c7.216-5.51,13.379-11.866,17.006-21.006c1.168,4.546,2.016,8.401,3.178,12.159
		c0.683,2.207-0.742,3.059-2.005,4.061c-5.087,4.038-10.164,8.09-15.338,12.015c-12.344,9.365-20.864,21.542-26.672,35.761
		c9.451-13.137,19.584-25.644,32.037-36.1c3.828-3.214,7.721-6.357,11.434-9.7c1.772-1.596,2.503-1.198,3.685,0.676
		c4.449,7.057,4.558,7.05-1.555,12.64c-19.71,18.023-37.106,37.802-47.819,62.683c-0.453,1.053-0.868,2.123-0.93,3.446
		c4.177-5.351,8.006-10.948,12.555-15.958c4.696-5.172,9.016-10.734,15.12-14.445c5.982-3.638,12.236-6.615,19.87-8.614
		c-1.664,3.616-3.043,6.612-4.935,10.723c12.317-6.344,24.081-6.117,35.959-3.377c11.913,2.748,22.1,8.63,30.739,17.536
		c-14.841-3.98-26.991,1.051-37.948,10.455c-3.159,2.711-6.812,4.662-11.703,6.53c6.303,1.595,11.638,2.114,17.019,2.415
		c-6.502,15.107-18.198,22.666-34.306,24.047c-6.299,0.54-12.662,0.514-18.872,1.945c-16.822,3.878-28.385,17.521-28.026,34.762
		c0.971,46.658,1.158,93.315,0.722,139.976c-0.254,27.156-1.624,54.314,0.321,81.461c0.39,5.438,1,10.839,2.762,16.073
		c0-14.256,0.043-28.511-0.007-42.767c-0.224-63.165,0.493-126.323,1.288-189.481c0.214-17.003,5.527-26.125,18.678-30.949
		c9.326-3.421,18.41-2.845,26.263,4.042c5.404,4.74,7.192,13.188,4.244,19.714c-2.746,6.079-7.672,9.122-14.246,9.166
		c-5.837,0.039-10.314-2.632-12.727-8.042c-2.684-6.018-1.204-11.287,3.709-15.706c-6.169-1.318-12.036,1.835-14.828,7.99
		c-2.09,4.607-2.883,9.55-3.242,14.558c-1.899,26.469-0.861,52.975-0.955,79.467c-0.014,3.823-0.002,7.645-0.002,12.093
		c2.333-1.534,2.7-3.798,3.889-5.41c3.904-5.292,9.011-8.814,15.232-10.782c6.361-2.013,12.725-4.005,17.507-10.166
		c-1.318,15.313,0.962,30.701-12.085,41.782c2.621,1.326,4.94-0.637,7.433-0.125c-4.357,8.891-10.447,15.595-20.468,17.604
		c-5.68,1.139-8.605,4.635-9.532,10.12c-0.582,3.446-1.563,6.89-1.629,10.349c-0.642,33.324-1.114,66.654,0.831,99.953
		c0.335,5.746,1.18,11.501,3.568,17.89c0.886-6.206,1.411-11.468,2.418-16.636c3.064-15.724,14.633-27.135,28.749-28.618
		c14.512-1.525,25.651,10.952,21.14,23.677c-2.178,6.143-8.272,10.188-14.762,9.798c-6.508-0.391-11.124-4.158-12.672-10.171
		c-0.949-3.684,0.222-6.89,2.167-10.422c-4.588-0.134-7.24,2.67-9.484,5.532c-6.515,8.312-7.883,18.194-7.691,28.347
		c0.325,17.127,7.312,31.96,16.511,45.903c2.608,3.953,4.608,7.857,5.29,12.693c1.163,8.251,4.482,15.815,9.213,22.737
		c-2.687-9.032-6.931-17.58-7.974-27.085c-1.919-17.489,1.566-32.827,16.855-43.714c3.929-2.798,7.653-5.905,10.745-9.681
		c3.222-3.934,5.123-8.415,6.026-13.483c2.739,18.725,10.375,37.473-1.635,56.532c5.444-0.906,7.073-5.427,10.634-8.152
		c0.664,13.336-2.792,24.909-12.024,34.269c-2.478,2.513-1.794,3.105,0.496,4.935c24.714,19.749,53.52,29.351,84.267,33.934
		c44.564,6.642,89.323,6.071,134.172,3.537c24.116-1.363,48.299-2.047,72.454-2.108c36.666-0.092,73.312-1.909,109.98-1.129
		c7.13,0.151,14.249,0.861,22.539,1.388c-9.132-4.21-17.863-4.987-26.596-5.638c-31.807-2.369-63.633-0.731-95.451-0.323
		c-48.825,0.627-97.657,2.4-146.475,0.92c-33.965-1.03-67.94-3.013-101.078-11.666c-10.468-2.733-20.667-6.208-30.294-11.362
		c26.788,8.255,54.309,11.705,83.22,13.725c-2.122-2.557-3.621-4.219-4.96-6.001c-10.039-13.357-3.523-32.607,12.103-35.823
		c11.306-2.327,22.025,6.576,21.335,17.719c-0.406,6.547-4.686,12.047-11.078,13.961c-7.086,2.122-12.291-0.67-16.172-6.822
		c-0.634,4.381,1.994,9.094,6.667,12.066c5.463,3.474,11.541,5.038,17.929,5.682c27.937,2.817,55.941,1.743,83.929,1.481
		c50.992-0.478,101.972-2.27,152.976-1.494c5.33,0.081,10.663,0.336,15.979,0.725c2.824,0.207,4.403-0.006,4.902-3.564
		c0.546-3.889,3.606-5.949,7.725-5.318c4.169,0.639,4.835,3.699,4.08,7.138c-0.38,1.733-0.09,2.534,1.615,2.745
		c7.629,0.948,14.468,4.466,21.795,6.614c-10.749-8.585-17.357-22.96-34.842-23.734c7.194-6.537,14.73-10.02,23.554-10.272
		c15.463-0.443,18.703,11.947,23.689,22.749c-0.222-2.642-0.385-5.291-0.682-7.925c-0.317-2.812-0.599-5.646-1.191-8.406
		c-0.723-3.369-2.627-6.114-5.413-8.155c-2.797-2.049-5.185-4.579-2.353-7.787c2.684-3.04,5.719-1.233,8.299,0.959
		c0.585,0.497,0.855,1.516,2.425,1.152c-2.35-9.887,1.288-18.411,6.407-26.752c6.105,8.44,7.688,14.087,7.487,26.84
		c1.742-1.164,3.168-2.388,4.809-3.146c2.098-0.968,4.321-0.981,5.779,1.226c1.216,1.841,1.459,4.256-0.385,5.458
		c-9.972,6.5-8.003,17.089-9.377,26.661c5.284-10.001,7.517-23.217,22.688-22.965c8.822,0.147,16.772,3.199,23.658,10.221
		c-16.108,1.262-23.381,13.888-33.205,23.102c7.098-1.891,13.832-4.972,21.158-5.935c1.644-0.216,1.154-1.607,0.958-2.796
		c-0.609-3.694,0.872-6.386,4.573-7.037c4.12-0.724,6.833,1.549,7.587,5.487c0.477,2.492,0.95,3.672,3.921,3.544
		c59.661-2.575,119.3,0.432,178.951,0.8c24.658,0.152,49.328,0.951,73.924-1.631c6.192-0.65,12.149-2.131,17.542-5.354
		c4.498-2.688,7.246-6.544,7.824-13.117c-4.307,6.62-9.309,9.544-16.227,7.793c-8.49-2.148-13.363-10.233-11.415-18.854
		c2.062-9.122,11.308-14.997,20.578-13.077c14.733,3.052,21.897,20.858,13.67,34.163c-1.459,2.359-3.343,4.455-5.586,7.402
		c14.577-0.606,28.321-2.357,42.052-4.331c13.663-1.964,26.996-5.354,40.257-9.159c-13.676,7.174-28.25,11.654-43.298,14.529
		c-34.827,6.655-70.092,8.558-105.447,8.88c-61.501,0.56-122.977-1.587-184.469-2.083c-16.178-0.131-32.322,0.432-48.419,2.074
		c-5.441,0.555-10.796,1.531-16.953,4.795c7.341-0.51,13.313-1.204,19.293-1.295c45.167-0.683,90.313,0.912,135.47,1.358
		c40.988,0.405,81.873,4.756,122.912,3.21c29.84-1.124,59.607-3.05,88.557-11.064c20.411-5.65,39.335-14.479,55.954-27.889
		c2.356-1.901,3.243-2.677,0.467-5.348c-9.304-8.95-12.316-20.428-12.2-33.897c3.461,3.305,5.797,6.832,11.1,8.88
		c-11.997-19.459-4.479-38.253-1.921-57.147c1.633,9.798,7.783,16.605,15.319,21.538c20.703,13.552,22.028,40.161,15.461,58.233
		c-1.634,4.498-3.355,8.965-4.71,13.569c5.035-7.229,8.324-15.2,9.196-23.959c0.369-3.708,1.849-6.61,3.852-9.522
		c8.091-11.764,14.725-24.216,17.005-38.522c1.595-10.013,1.369-19.969-2.61-29.49c-2.539-6.075-6.282-11.136-12.832-13.709
		c-0.241,0.791-0.471,1.126-0.386,1.327c3,7.019,2.078,12.743-2.737,16.807c-4.455,3.759-12.111,3.96-17.324,0.454
		c-5.545-3.729-8.043-10.96-6.111-17.691c2.591-9.031,11.962-14.81,21.985-13.114c14.294,2.418,22.866,11.424,27.306,24.783
		c1.949,5.864,2.542,12.014,3.622,18.189c2.093-5.984,3.12-12.219,3.506-18.447c1.995-32.132,1.281-64.299,0.778-96.457
		c-0.041-2.644-0.664-5.283-1.074-7.915c-1.143-7.343-4.248-12.489-12.504-13.936c-9.428-1.652-13.972-9.468-18.992-17.172
		c2.926-0.55,5.352,1.557,8.384,0.172c-13.73-10.804-11.128-26.402-12.04-41.25c4.469,5.799,11.233,7.57,17.693,9.94
		c8.019,2.943,13.857,8.378,17.618,15.903c1.459-0.2,1.203-1.188,1.199-1.917c-0.147-29.492,0.954-58.995-0.851-88.472
		c-0.266-4.348-0.958-8.62-2.216-12.768c-2.251-7.425-7.911-11.509-15.719-11.432c0.066,0.436-0.019,0.972,0.21,1.237
		c6.028,6.984,5.863,14.352-0.476,19.705c-6.255,5.282-15.609,4.391-21.026-2.002c-7.241-8.546-4.037-21.633,6.593-26.927
		c15.189-7.565,36.056,2.573,39.352,19.204c0.612,3.088,0.953,6.277,0.996,9.425c0.988,71.823,1.561,143.649,1.478,215.479
		c-0.007,5.957-0.001,11.914-0.001,18.858c2.027-6.454,2.398-12.233,2.767-17.968c2.121-32.982,0.189-65.975,0.084-98.963
		c-0.125-39.161-0.91-78.339,0.966-117.465c1.024-21.356-14.421-38.64-36.802-39.364c-3.326-0.108-6.638-0.6-9.962-0.843
		c-16.433-1.2-27.912-9.531-35.122-24.429c5.779,0.832,11.134-0.547,17.609-2.08c-5.436-1.872-9.271-4.487-12.842-7.443
		c-10.767-8.917-22.753-12.945-36.922-9.234c12.399-16.872,40.392-23.178,66.25-15.13c-0.316-3.568-3.135-6.091-4-9.82
		c21.887,5.293,34.35,21.372,46.099,38.507c1.137-1.72-0.216-2.867-0.714-4.035c-9.674-22.687-25.265-40.976-42.999-57.66
		c-1.699-1.598-3.452-3.14-5.174-4.713c-5.281-4.823-5.078-4.714-1.639-11.062c1.697-3.134,2.771-3.106,5.361-0.922
		c15.667,13.206,31.109,26.595,42.092,44.303c-4.465-11.63-10.425-22.223-20.203-30.185c-6.715-5.468-13.496-10.868-20.449-16.027
		c-2.765-2.051-3.362-3.988-2.131-7.158c1.122-2.89,1.568-6.042,2.538-10.004c7.096,16.719,20.86,24.953,35.273,32.4
		c3.138,1.621,5.101,3.95,6.649,7.083c9.149,18.522,15.377,37.923,18.122,58.422c0.257,1.919,0.725,3.81,1.299,6.759
		c1.157-3.287,1.893-5.633,2.801-7.91c5.423-13.609,14.312-24.384,26.936-31.819c3.622-2.133,5.512-4.055,5.177-8.763
		c-0.625-8.782,2.912-16.206,10.918-20.39c9.086-4.748,18.142-9.203,20.848-20.65c2.882,12.338,3.476,24.275-1.442,35.853
		c-2.697,6.349-8.015,9.941-14.365,12.341c-10.332,3.906-20.145,8.656-28.031,16.806c-13.467,13.917-17.644,31.409-19.266,49.76
		c-3.704,41.92-1.955,83.934-1.561,125.914c0.302,32.161,1.124,64.317,1.737,96.474c0.024,1.268-0.44,2.624,0.641,4.118
		c13.763-20.699,28.64-40.632,30.734-66.545c0.458-5.667,0.784-11.324-0.692-16.891c-0.977-3.685-2.888-6.635-7.958-8.225
		c4.979,5.189,5.612,10.202,2.325,15.322c-2.606,4.06-6.768,5.366-11.347,4.726c-5.191-0.726-8.953-3.607-10.501-8.766
		c-3.2-10.666,4.943-20.596,16.048-19.547c2.592,0.245,5.136,1.006,8.145,1.619c-2.895-8.862-7.231-16.687-11.645-24.405
		c-9.63-16.838-15.416-34.47-14.32-54.226c0.653-11.782-1.108-23.622-0.244-35.465c0.746-10.224,4.515-19.017,12.117-26.693
		c1.021,3.877,0.234,7.976,3.078,12.303c2.759-12.759,7.79-23.064,20.087-29.142c-2.138,4.634-1.549,8.875-1.641,13.077
		c1.797,0.502,1.979-1.07,2.61-1.823c6.4-7.646,15.149-9.73,24.489-10.717c6.619-0.699,13.344-0.312,19.867-1.952
		C1348,405.641,1348,413.307,1348,420.974z M376.603,861.386c-5.868-1.139-11.763-2.154-17.598-3.438
		c-31.71-6.979-61.442-18.518-87.649-38.168c-1.342-1.006-2.454-3.626-4.373-2.386c-1.819,1.175-1.808,3.834-1.698,5.972
		c0.104,2.018,1.204,3.769,2.354,5.431c3.16,4.567,7.194,8.267,11.446,11.777c20.721,17.106,45.424,21.986,71.297,23.206
		C359.182,864.195,367.946,863.757,376.603,861.386z M1070.783,861.69c27.819,4.114,54.831,2.002,80.573-9.945
		c10.252-4.758,19.066-11.601,26.505-20.082c2.785-3.175,5.825-6.408,4.62-11.499c-0.778-3.285-1.708-3.917-4.468-1.754
		c-6.556,5.139-13.352,9.953-20.616,14.059C1130.387,847.735,1101.223,856.567,1070.783,861.69z M1252.18,446.741
		c1.309-22.559-23.852-50.813-45.015-50.868C1230.367,405.536,1245.953,421.921,1252.18,446.741z M242.239,394.741
		c-26.833,5.988-48.571,29.533-46.229,50.607C202.143,419.914,219.6,405,242.239,394.741z M140.085,435.546
		c7.159,6.282,14.482,12.372,21.025,19.333c6.707,7.137,11.057,15.559,14.548,25.785
		C175.974,462.421,157.61,442.266,140.085,435.546z M1307.872,435.546c-16.277,5.613-35.326,25.718-35.349,43.573
		C1278.201,459.637,1293.017,447.575,1307.872,435.546z M1243.022,845.291c-19.134-7.786-38.425-13.735-58.999-4.637
		C1204.189,836.34,1223.655,840.236,1243.022,845.291z M221.034,798.421c-12.271-12.984-27.758-21.614-42.716-30.989
		C190.321,780.8,206.499,788.399,221.034,798.421z M259.871,839.457c-18.392-6.76-35.702-1.999-52.793,4.969
		C224.455,840.579,241.846,836.909,259.871,839.457z M1228.789,796.796c14.022-9.247,29.608-16.344,40.802-29.575
		C1255.804,776.81,1240.541,784.303,1228.789,796.796z M1184.387,772.949c0.989,6.866,1.944,13.753,2.376,20.7
		c0.43,6.919-0.19,13.823-0.328,20.719C1190.212,800.345,1190.519,786.48,1184.387,772.949z M261.422,814.092
		c-1.535-14.197-0.3-28.175,2.236-42.093C257.466,785.777,257.591,799.883,261.422,814.092z M211.547,589.78
		c3.119-7.352,6.15-14.745,10.839-22.659C216.064,573.118,211.721,582.385,211.547,589.78z M1226.516,568.506
		c4.083,7.216,6.785,14.984,10.195,22.422C1235.941,582.227,1232.176,574.885,1226.516,568.506z"/>
	<path fill="FRAME_COLOR" d="M536.308,199.051c1.084-5.667-1.663-9.577-5.951-12.585c-4.884-3.426-10.436-5.081-16.357-5.578
		c-9.548-0.802-19.056-0.132-28.31,2.081c-12.555,3.002-24.95,6.674-37.421,10.71c22.449-5.04,43.437-5.397,59.484,16.325
		c-4.332-0.442-7.594-0.775-10.86-1.109c-0.075,0.593-0.238,1.085-0.132,1.152c10.9,6.889,16.214,17.391,18.668,29.525
		c2.196,10.858,5.916,21.076,11.585,30.546c-1.121,1.011-1.822,0.131-2.275-0.298c-7.596-7.184-17.036-10.015-26.995-11.962
		c-9.42-1.841-18.449-4.733-24.87-14.203c-0.541,5.644-0.502,10.247,1.337,14.779c-9.858-3.272-15.798-9.342-22.563-23.412
		c-1.098,4.092,0.382,7.256,1.132,11.121c-6.265-5.161-9.877-11.359-12.628-18.139c-2.199-5.417-4.567-10.653-8.687-15.022
		c-4.081-4.327-8.803-6.373-14.715-5.821c-3.93,0.367-7.87,0.615-12.365,0.959c3.512,2.107,6.697,3.762,9.607,5.809
		c9.056,6.371,13.228,17.5,10.758,28.179c-1.94,8.388-8.539,13.876-17.08,14.204c-8.139,0.312-14.721-4.33-16.975-11.972
		c-1.755-5.95,0.328-12.57,5.078-16.138c4.915-3.692,10.378-3.651,16.205,0.096c0.359,0.231,0.82,0.304,1.901,0.687
		c-1.141-4.563-3.526-7.508-6.905-9.769c-6.987-4.676-14.887-5.65-22.985-5.256c-3.947,0.192-6.261-0.28-4.377-4.927
		c0.183-0.451,0.271-0.99,0.231-1.474c-1.024-12.194,5.967-19.559,14.908-26.367c20.158-15.35,42.964-24.437,67.345-30.302
		c11.169-2.687,22.199-5.954,32.688-10.772c2.537-1.166,5.188-2.167,7.734-4.713c-6.679-0.484-11.782-2.755-12.497-9.738
		c-0.792-7.739,2.61-13.573,9.172-17.533c6.168-3.723,13.757-3.501,18.872,0.35c5.837,4.394,7.187,15.226,2.795,22.963
		c-3.955,6.969-10.134,11.37-17.278,14.548c-3.343,1.487-6.792,2.733-11.584,4.643c58.939,1.838,116.136,8.724,174.661,12.538
		c-6.689-5.661-8.405-11.853-4.995-19.059c2.493-5.269,7.801-8.155,13.002-7.212c4.521,0.82,7.326,4.631,6.651,9.035
		c-0.596,3.882-3.317,5.456-6.829,3.83c-1.391-0.644-2.797-2.681-3.996-0.129c-0.895,1.905,0.255,3.675,1.839,4.716
		c1.201,0.789,2.746,1.278,4.19,1.442c12.909,1.467,25.665,3.757,38.62,6.711c-12.515-6.641-21.641-15.307-19.725-31.424
		c6.297,3.664,13.594,4.961,18.343,11.397c-1.182-11.222,5.049-19.653,10.11-29.399c5.286,9.593,11.156,18.25,9.844,30.896
		c5.113-7.364,12.079-9.532,18.495-12.597c3.259,10.909-0.505,17.436-18.189,30.836c4.787-0.936,8.767-1.818,12.784-2.478
		c7.885-1.295,15.789-2.473,23.687-3.682c2.306-0.353,4.743-0.451,6.318-2.496c1.057-1.373,1.698-3.017,0.411-4.575
		c-1.427-1.728-2.232,0.197-3.26,0.743c-3.265,1.736-6.263,0.27-7.029-3.434c-1.134-5.486,3.77-10.281,9.86-9.41
		c5.505,0.788,9.041,4.256,10.623,9.387c1.543,5.005,1.3,9.895-2.958,13.819c-0.797,0.735-2.166,1.003-2.266,2.842
		c57.708-3.311,115.072-10.338,173.575-12.324c-4.989-2.095-9.513-3.632-13.691-5.826c-8.464-4.443-15.857-9.985-17.437-20.408
		c-1.122-7.4,1.175-13.841,6.337-16.676c6.706-3.683,13.241-2.774,19.211,1.687c5.778,4.318,8.596,10.187,7.304,17.443
		c-0.944,5.304-4.369,7.557-11.882,8.361c1.731,2.38,4.227,3.206,6.446,4.329c14.105,7.139,29.491,10.357,44.611,14.322
		c22.441,5.884,42.119,16.848,60.609,30.705c9.925,7.438,10.148,17.648,11.36,27.961c0.261,2.223-1.861,1.353-2.967,1.343
		c-5.179-0.046-10.392-0.099-15.412,1.2c-7.405,1.917-13.875,5.183-16.677,14.753c4.268-3.2,7.672-5.052,11.918-4.345
		c6.949,1.158,12.045,7.165,12.059,14.436c0.016,7.87-5.946,14.935-13.652,16.18c-12.604,2.036-22.601-8.03-21.39-21.711
		c0.957-10.812,6.296-18.754,16.115-23.565c0.745-0.365,1.529-0.65,2.286-0.992c0.716-0.324,1.421-0.674,3.37-1.603
		c-6.512-0.418-11.699-1.055-16.879-1.004c-6.036,0.059-9.978,4.045-13.542,8.397c-3.226,3.939-4.892,8.68-6.853,13.266
		c-2.699,6.313-6.301,11.976-11.827,16.952c0.491-3.501,1.951-6.454,0.702-9.873c-5.5,12.29-9.706,16.598-22.617,23.04
		c1.679-4.838,2.215-9.411,1.713-15.172c-7.671,10.806-18.795,13.203-29.936,15.05c-9.268,1.536-16.698,6.227-23.69,12.087
		c-1.315-1.635,0.136-2.336,0.595-3.132c4.782-8.303,7.984-17.179,10.002-26.527c2.744-12.715,7.835-24.028,20.054-31.49
		c-4.054-1.511-7.395,0.342-11.129,0.069c6.125-10.066,15.044-15.287,25.812-17.721c10.673-2.413,21.171-0.582,30.98,1.831
		c1.056-0.329,1.094-0.686,0.629-0.825c-18.159-5.43-36.033-12.133-55.334-12.502c-8.246-0.158-16.393,0.407-23.659,4.83
		c-4.818,2.933-8.73,6.643-8.434,13.074c0.537,0,0.98,0.108,1.059-0.015c4.556-7.179,9.026-9.146,15.118-6.617
		c6.322,2.625,9.503,9.852,7.554,17.163c-1.762,6.611-6.957,10.8-14.158,11.415c-7.359,0.629-14.837-3.675-17.646-10.652
		c-3.533-8.778-2.117-16.973,3.793-24.374c0.814-1.019,1.64-2.029,2.455-3.037c-1.277-1.652-2.882-0.968-4.28-0.933
		c-27.319,0.691-54.639,1.376-81.955,2.167c-12.677,0.367-25.32-0.516-37.979-0.774c-2.841-0.058-4.953-0.352-4.909,3.876
		c0.046,4.302-3.578,5.84-7.388,5.655c-4.01-0.194-5.379-2.922-4.686-6.652c0.333-1.793,0.111-2.838-1.945-3.122
		c-7.469-1.03-14.316-4.183-21.692-6.707c13.187,16.071,23.22,23.321,34.375,24.298c-6.971,7.037-14.763,10.278-23.829,10.425
		c-15.024,0.245-16.901-12.675-21.958-22.571c-1.749,10.528,0.674,18.475,7.632,25.058c2.064,1.952,3.031,4.135,1.308,6.616
		c-1.84,2.648-4.368,1.874-6.693,0.655c-1.26-0.661-2.36-1.626-3.674-2.553c-0.255,12.807-1.719,17.874-7.54,26.054
		c-4.853-7.981-8.786-16.034-6.354-26.202c-2.423,1.434-4.021,2.565-5.77,3.364c-1.987,0.907-4.054,0.781-5.296-1.266
		c-1.244-2.05-1.262-4.465,0.814-5.848c9.522-6.346,7.708-16.263,8.193-25.499c-2.173,4.443-4.287,8.917-6.533,13.322
		c-2.824,5.538-7.605,8.2-13.622,8.852c-8.047,0.872-19.451-3.565-25.764-10.313c7.656-0.268,13.219-4.05,18.516-8.625
		c5.164-4.461,9.044-10.184,14.6-14.446c-7.254,1.752-14.196,4.22-21.401,5.715c-1.898,0.394-0.545,1.887-0.421,2.869
		c0.529,4.202-1.605,6.34-5.502,6.761c-3.538,0.383-7.387-2.698-7.066-6.13c0.321-3.431-0.861-3.84-3.781-3.709
		c-40.665,1.823-81.293-0.271-121.933-1.241c-1.102-0.026-2.314-0.462-3.503,0.67c1.761,2.502,3.834,4.866,5.25,7.574
		c3.893,7.445,4.211,15.14-0.299,22.377c-3.849,6.178-9.861,8.741-17.132,8.068c-10.969-1.015-17.314-12.256-12.456-22.158
		c2.157-4.396,5.84-6.75,10.757-6.963C530.786,190.857,533.929,194.224,536.308,199.051z M748.276,171.286
		c5.079,2.513,10.463,3.309,15.912,3.754c21.778,1.776,43.559,2.013,65.408,1.091c31.29-1.32,62.629-1.535,93.905-3.087
		c23.904-1.186,46.783,1.993,68.855,11.322c11.341,4.794,22.858,9.18,34.342,13.628c6.349,2.459,12.959,3.32,19.887,2.319
		c-21.013-5.43-38.942-16.708-56.731-28.947c19.18,0.244,36.38,6.27,52.72,15.4c-10.655-7.87-22.039-13.879-35.201-15.839
		c-15.512-2.309-31.129-3.466-46.789-3.688c-28.672-0.405-57.262,2.374-85.91,2.659C832.55,170.317,790.447,173.259,748.276,171.286
		z M401.154,200.335c6.713,1.215,13.063,0.174,19.126-2.129c11.044-4.195,21.934-8.793,32.958-13.043
		c17.294-6.668,34.782-12.742,53.681-12.264c29.973,0.758,59.941,1.705,89.91,2.597c29.134,0.868,58.273,2.354,87.382-0.518
		c5.55-0.548,11.111-1.202,16.278-3.657c-1.148-0.34-2.255-0.38-3.358-0.334c-46.825,1.947-93.599-0.562-140.384-1.72
		c-32.951-0.816-65.846-3.638-98.857-0.51c-17.153,1.625-33.634,4.543-48.332,14.117c-1.947,1.268-4.113,2.252-6.383,4.999
		c28.638-13.23,43.341-17.52,54.269-16.128C440.138,183.809,422.079,194.835,401.154,200.335z M965.814,220.458
		c16.793-9.78,33.009-20.826,53.757-19.912C1004.263,195.185,983.719,202.804,965.814,220.458z M429.129,200.002
		c20.027,0.684,36.468,10.888,53.228,20.24C466.577,208.281,451.205,195.249,429.129,200.002z"/>
	<path fill="FRAME_COLOR" d="M245.27,241.88c-3.052-17.845-9.788-33.813-23.324-45.906c-17.283-15.441-16.042-35.965,3.343-48.858
		c6.93-4.609,14.684-7.019,22.599-9.055c6.622-1.704,13.136-3.702,19.433-6.382c10.517-4.476,12.913-7.335,15.322-18.604
		c5.43,3.274,7.566,8.281,8.3,14.073c0.25,1.972,0.325,4.018,0.108,5.989c-0.898,8.141,1.475,14.914,7.22,20.909
		c5.419,5.655,7.251,13.016,7.479,20.7c0.172,5.792-1.709,10.778-6.48,14.456c-7.534,5.807-13.135,13.013-16.855,21.885
		c-4.257,10.153-10.058,19.527-16.006,28.782c-1.44,2.24-3.066,4.413-4.135,6.825c-1.085,2.447-3.666,5.615-1.22,7.687
		c2.091,1.771,4.204-1.661,6.194-2.905c12.544-7.844,25.711-13.926,40.585-15.92c24.518-3.287,50.969,11.06,61.263,33.479
		c4.452,9.696,3.923,19.689-1.718,29.901c-0.954-1.905-1.722-3.722-2.726-5.398c-5.341-8.921-13.362-13.682-23.644-13.193
		c-19.365,0.921-37.686-3.395-55.767-9.596c-3.707-1.271-7.59-2.03-12.363-3.28c14.306-8.139,29.099-10.453,45.169-11.063
		c-9.477-3.056-37.651,0.281-50.086,12.438c14.589,3.613,28.277,9.075,42.695,12.003c6.029,1.224,12.147,2.104,18.266,2.771
		c14.802,1.614,21.738,10.523,22.925,26.649c0.394,5.355-0.63,10.681-1.935,15.825c-1.604,6.317-0.807,12.061,1.805,17.948
		c3.107,7.004,3.341,14.228-0.347,21.222c-0.755,1.431-1.52,3.454-3.245,3.458c-1.734,0.005-1.506-2.274-2.12-3.514
		c-4.097-8.276-10.988-13.126-19.353-16.345c-9.611-3.698-19.844-4.159-29.829-5.891c-13.322-2.312-25.157-7.394-34.569-17.469
		c-10.825-11.588-11.993-25.859-11.588-40.606c0.064-2.32,0.306-4.635,0.445-6.954c0.005-0.09-0.203-0.192-0.454-0.414
		c-3.284,2.634-4.6,6.446-5.318,10.258c-3.271,17.37-13.674,29.356-28.54,37.769c-11.145,6.307-22.361,12.616-35.864,12.547
		c-17.701-0.091-31.646-6.973-41.088-22.138c-4.679-7.514-9.193-14.908-17.105-19.804c-3.742-2.315-3.644-7.554-5.228-11.518
		c2.265-1.201,4.166,0.007,6.067,0.245c10.619,1.331,20.074-1.608,28.886-7.366c10.36-6.769,21.028-12.953,33.498-14.966
		c17.058-2.753,33.843-2.337,51.474,5.471c-16.82,4.058-32.907,6.765-45.771,17.572c16.142-10.163,35.395-10.482,52.991-16.57
		c-20.145-11.692-41.3-13.694-63.28-9.355c-6.112,1.206-12.173,2.111-18.323,0.838c-11.939-2.472-19.828-11.851-21.995-26.052
		c-0.502-3.288-0.802-6.612-1.085-9.928c-0.788-9.26-2.886-18.006-8.586-25.686c-3.854-5.193-3.967-8.07-2.077-16.603
		c1.407-0.501,2.125,0.662,3.019,1.304c8.922,6.402,18.246,8.601,29.167,4.935c17.261-5.793,34.181-3.554,50.476,4.22
		c6.791,3.24,12.34,8.039,16.286,14.357c6.435,10.303,12.83,20.677,16.064,32.583C244.535,240.413,244.95,241.133,245.27,241.88z
		 M205.151,241.61c10.79,3.168,20.736,7.969,29.843,14.617c-4.31-4.747-8.862-9.087-13.565-13.256
		c-1.056-0.936-3.012-2.133-3.921-1.741C213.343,243.023,209.394,240.289,205.151,241.61z M253.379,241.3
		c1.636-2.135,1.484-3.85,1.584-5.483c0.517-8.448,0.982-16.899,1.493-25.347c0.088-1.452-0.298-3.135,1.129-4.152
		c4.788-3.411,2.01-6.741-0.115-10.892c-0.953,3.335-4.905,4.771-3.308,8.217c1.214,2.621,0.945,5.157,0.814,7.769
		C254.486,221.171,253.938,230.927,253.379,241.3z M255.945,244.313c5.383-6.729,7.004-14.851,9.172-22.802
		c1.002-3.675-0.583-8.617,4.692-10.49c0.701-0.249,0.983-1.406,0.595-2.224c-1.098-2.317-0.309-4.811-0.569-8.297
		c-2.344,3.556-5.988,6.602-5.556,8.871c1.631,8.557-1.36,15.98-3.918,23.602C259.072,236.814,257.429,240.537,255.945,244.313z
		 M218.78,222.919c1.469,4.449,3.483,7.703,8.214,8.039c1.796,0.128,2.426,1.448,3.399,2.57c4.026,4.643,5.947,10.522,9.22,15.66
		c0.229-0.747,0.203-1.382,0.033-1.976c-2.436-8.488-8.897-14.76-12.491-22.617c-0.312-0.682-1.241-1.797-1.762-1.009
		C222.841,227.441,221.415,222.997,218.78,222.919z M243.716,179.96c-3.76,5.051-3.83,6.496-0.263,10.829
		c1.289,1.566,1.311,3.352,1.469,5.145c0.233,2.628,0.375,5.263,1.905,7.603c-0.352-4.262-2.416-8.749-0.411-12.687
		C248.896,185.985,246.721,183.129,243.716,179.96z M249.142,229.138c-0.93-8.409-3.59-16.176-8.07-23.197
		c-0.425,0.171-0.85,0.342-1.276,0.512C242.911,214.015,246.027,221.577,249.142,229.138z M209.761,234.382
		c-3.829-6.381-9.623-10.155-16.633-12.316C198.709,226.124,204.757,229.561,209.761,234.382z M256.937,261.573
		c-0.124-1.437-0.78-2.682-2.214-2.842c-1.78-0.199-2.593,1.154-2.767,2.739c-0.185,1.685,1.042,2.321,2.422,2.468
		C256.001,264.11,256.646,262.981,256.937,261.573z"/>
	<path fill="FRAME_COLOR" d="M1164.933,112.794c0.263,9.481,5.358,14.489,12.704,17.792c8.233,3.702,16.86,6.187,25.589,8.388
		c10.719,2.703,20.23,7.524,27.777,15.861c11.105,12.267,7.796,29.786-2.805,38.859c-14.545,12.45-21.902,28.809-25.694,47.149
		c1.674-4.122,3.187-8.318,5.066-12.344c1.969-4.219,4.202-8.322,6.469-12.393c14.1-25.325,39.361-36.525,67.552-28.664
		c12.574,3.506,23.823,4.087,34.38-4.465c1.81-1.466,2.59-0.71,2.886,1.288c0.774,5.209,0.996,10.299-2.451,14.823
		c-5.78,7.587-7.847,16.376-8.486,25.703c-0.284,4.137-0.909,8.293-1.834,12.336c-4.218,18.439-17.409,27.153-35.987,23.303
		c-13.382-2.773-26.709-3.569-40.207-1.448c-3.799,0.597-7.489,1.577-11.076,2.973c-5.214,2.029-9.775,5.658-15.784,6.436
		c17.658,6.759,37.183,7.126,53.5,17.399c-12.968-11.033-29.417-13.304-44.951-18.103c25.129-9.261,49.714-9.961,73.53,3.793
		c4.037,2.332,7.995,4.802,11.975,7.232c9.514,5.806,19.706,7.823,30.684,5.568c0.616-0.126,1.28-0.016,2.244-0.016
		c-1.965,6.124-3.613,11.782-9.667,15.227c-4.867,2.769-7.496,7.928-10.328,12.653c-15.777,26.32-41.893,33.401-69.065,18.754
		c-5.57-3.002-11.299-5.715-16.501-9.362c-12.21-8.56-19.373-20.374-22.424-34.826c-0.733-3.472-2.045-6.629-5.211-9.978
		c-0.14,5.938,0.537,11.101,0.39,16.257c-0.904,31.662-23.282,46.002-46.202,49.925c-6.071,1.039-12.219,1.648-18.269,2.786
		c-13.796,2.596-25.842,7.86-31.87,21.872c-1.195,2.777-2.334,0.659-3.111-0.319c-4.292-5.395-4.495-11.62-3.413-18.053
		c0.137-0.814,0.352-1.66,0.735-2.382c4.608-8.669,3.66-17.561,1.562-26.688c-1.505-6.547-1.297-13.185,0.769-19.743
		c3.087-9.799,9.57-15.694,19.764-16.45c21.671-1.607,41.706-9.61,62.799-15.227c-14.809-11.888-31.743-13.825-49.411-12.798
		c7.418,1.076,14.994,1.288,22.359,3.022c7.314,1.722,14.273,4.342,21.703,8.81c-7.73,1.707-14.467,3.541-21.071,5.829
		c-13.334,4.62-26.997,6.892-41.203,6.611c-18.615-0.368-23.127,2.54-31.908,18.582c-6.443-10.584-6.155-21.257-0.811-31.919
		c10.521-20.992,40.375-40.591,75.597-27.641c9.741,3.581,18.996,8.074,27.444,14.146c1.2,0.862,2.424,2.314,3.946,1.323
		c1.296-0.844,0.044-2.483,0.31-3.771c0.373-1.802-0.78-3.157-1.683-4.549c-8.792-13.564-17.189-27.336-23.496-42.293
		c-2.406-5.706-7.077-9.749-11.866-13.301c-7.494-5.557-8.868-12.758-7.27-21.266c1.164-6.199,3.309-11.984,7.692-16.539
		c5.563-5.782,7.095-12.425,6.145-20.196C1155.504,125.044,1157.874,118.37,1164.933,112.794z M1193.403,244.127
		c-0.477,0.078-0.954,0.157-1.431,0.235c-1.686-4.454-3.349-8.916-5.065-13.358c-2.23-5.771-4.05-11.679-3.946-17.902
		c0.081-4.818-1.247-8.435-5.36-11.871c0.068,2.174,1.012,4.339,0.153,6.403c-0.607,1.457-0.652,2.839,0.692,3.478
		c3.168,1.507,3.033,4.406,3.553,7.136c2.038,10.718,5.265,20.987,11.374,30.688c1.161-9.927,0.948-19.183,0.01-28.458
		c-0.468-4.624-1.5-9.605-0.306-13.874c1.385-4.958-0.924-7.412-3.605-10.868c-1.896,4.004-3.595,7.408,0.575,10.558
		c0.582,0.44,1.048,1.382,1.098,2.124C1191.942,220.318,1192.664,232.223,1193.403,244.127z M1244.048,241.288
		c-14.702-0.92-23.536,3.529-31.091,15.556C1222.46,249.225,1232.417,245.119,1244.048,241.288z M1230.01,221.85
		c-3.148,1.208-4.578,4.209-5.968,2.945c-2.926-2.659-3.274,0.029-4.268,1.427c-1.628,2.288-3.153,4.652-4.657,7.025
		c-3.249,5.126-6.261,10.366-7.339,16.476c3.284-4.93,4.974-10.721,8.51-15.485c0.939-1.265,1.484-3.212,3.488-3.171
		C1225.548,231.185,1227.079,226.845,1230.01,221.85z M1199.169,212.947c2.226-5.541,3.248-11.303,3.687-17.181
		c0.134-1.794-0.118-3.654,1.698-4.946c4.114-2.927,2.549-6.2,0.556-9.576c-0.648-1.097-1.197-1.67-2.135-0.611
		c-2.043,2.303-4.168,5.177-2.624,8.063c2.116,3.955,1.522,7.641,0.819,11.583C1200.42,204.486,1199.829,208.722,1199.169,212.947z
		 M1198.308,228.026c2.856-7.257,6.391-14.235,9.176-21.521C1201.445,212.453,1199.738,220.183,1198.308,228.026z M1238.2,234.413
		c4.325-5.364,11.092-7.709,15.802-12.563C1247.67,224.712,1241.753,228.087,1238.2,234.413z M1195.654,261.414
		c-0.469-1.286-0.843-2.735-2.519-2.668c-1.534,0.062-2.421,1.086-2.386,2.637c0.033,1.518,0.889,2.596,2.442,2.548
		C1194.647,263.887,1195.614,262.998,1195.654,261.414z"/>
	<path fill="FRAME_COLOR" d="M262.702,251.11c3.768-6.959,7.891-11.772,11.557-16.908c4.36-6.109,8.375-12.46,10.872-19.583
		c7.835-22.345,24.337-32.728,47.18-34.481c6.496-0.499,12.987-0.103,19.466,0.289c11.525,0.697,21.368-2.863,29.059-11.558
		c2.624-2.966,3.378-1.386,3.929,1.143c1.45,6.654,1.947,13.178-2.69,19.034c-2.753,3.477-4.088,7.488-4.402,11.982
		c-0.823,11.797-3.233,23.107-11.386,32.341c-1.316,1.49-2.783,2.857-4.254,4.2c-5.746,5.247-10.989,6.609-18.97,2.426
		c-23.503-12.317-46.892-9.834-69.281,3.909C270.41,245.972,267.143,248.214,262.702,251.11z"/>
	<path fill="FRAME_COLOR" d="M1183.231,250.039c-3.62-2.342-7.149-4.84-10.874-7c-23.601-13.685-47.505-14.961-71.527-1.205
		c-3.394,1.944-6.055,1.72-9.198-0.09c-12.372-7.124-18.528-18.202-20.555-31.939c-0.437-2.959-0.831-5.944-0.944-8.928
		c-0.178-4.725-2.188-8.611-4.901-12.304c-4.996-6.801-4.173-13.938-1.135-21.776c2.08,1.982,3.741,3.711,5.551,5.266
		c7.749,6.658,16.833,9.124,26.898,8.376c10.157-0.755,20.31-1.155,30.253,1.652c16.455,4.645,28.91,13.809,34.831,30.59
		c3.404,9.646,8.77,18.25,15.118,26.267c2.63,3.321,4.959,6.881,7.425,10.332C1183.861,249.534,1183.546,249.786,1183.231,250.039z"
		/>
	<path fill="FRAME_COLOR" d="M309.054,142.421c10.795-5.463,23.795-0.326,30.875,11.71c-1.624-19.513,4.251-35.052,23.01-44.492
		c-2.434,9.184,1.321,16.908,3.93,25.797c13.716-13.803,25.044-29.938,44.662-35.437c-5.102,5.345-5.69,11.914-5.759,18.636
		c-0.125,12.116-1.696,23.902-8.438,35.219c5.43-0.419,10.235-0.789,15.758-1.215c-4.184,4.544-7.807,8.542-11.504,12.471
		c-2.41,2.56-5.146,4.664-8.355,6.239c-2.879,1.414-4.862,1.803-5.675-2.157c-0.285-1.39-1.271-2.714-2.177-3.882
		c-1.555-2.006-2.9-2.702-4.997-0.049c-7.613,9.627-17.78,13.508-30.87,12.41c5.023-7.632,9.766-14.839,14.508-22.045
		c-6.689,5.129-11.967,11.385-16.034,18.576c-1.628,2.878-3.534,4.057-6.823,3.335c-3.119-0.685-6.295-0.28-9.451,0.117
		c-7.604,0.956-7.642,0.925-7.688-6.553c-0.036-5.861-0.325-11.679-2.698-17.154C319.008,148.593,315.879,144.003,309.054,142.421z"
		/>
	<path fill="FRAME_COLOR" d="M1035.338,152.67c4.749,0.409,9.498,0.818,14.91,1.284c-7.04-12.186-8.135-25.03-8.25-38.104
		c-0.053-6.008-1.665-11.497-6.464-15.782c19.923,5.3,31.339,21.584,45.308,35.443c2.798-8.677,6.292-16.631,3.096-26.147
		c19.127,9.381,25.393,24.796,23.423,44.856c7.326-11.503,16.785-16.762,31.361-12.373c-12.639,5.459-14.043,15.801-14.713,26.587
		c-0.204,3.282,1.447,7.67-0.929,9.514c-1.799,1.396-6.103-0.986-9.044-0.414c-9.923,1.93-15.51-2.585-19.663-11.061
		c-1.844-3.763-5.46-6.663-8.309-9.923c-0.707-0.809-1.559-1.493-2.9-1.797c3.964,6.047,7.966,12.069,11.861,18.16
		c0.864,1.351,2.717,2.899,1.925,4.317c-0.979,1.752-3.333,0.724-5.045,0.646c-9.841-0.452-18.083-4.532-24.362-12
		c-2.531-3.01-3.76-2.853-5.775,0.172c-1.345,2.019-1.277,5.704-3.879,5.947c-3.521,0.33-6.474-2.23-9.325-4.264
		C1043.093,163.827,1040.556,157.184,1035.338,152.67z"/>
	<path fill="FRAME_COLOR" d="M1298.302,113.881c-6.126,6.837-5.995,14.345-5.417,22.085c1.186,15.874-1.549,20.315-15.747,27.553
		c-6.263,3.193-10.806,8.584-14.299,14.331c-3.292,5.416-7.809,5.708-13.195,6.155c0.458-3.804,2.432-6.49,4.414-9.056
		c2.538-3.285,5.189-6.529,8.14-9.436c3.423-3.373,4.57-7.151,3.503-11.751c-2.709-11.68,1.685-20.462,11.151-27.147
		c4.618-3.261,9.215-6.556,13.891-9.734C1292.732,115.53,1294.735,114.024,1298.302,113.881z"/>
	<path fill="FRAME_COLOR" d="M150.247,113.851c11.322,7.223,24.614,11.577,30.581,24.953c1.591,3.566,2.235,7.489,1.376,11.262
		c-1.688,7.419,0.43,13.111,5.981,18.274c4.466,4.154,8.284,9.076,10.259,15.514c-5.341,0.115-9.443-0.475-12.786-5.472
		c-4.89-7.309-10.889-13.67-19.55-17.204c-7.363-3.004-11.275-9.133-11.436-17.284c-0.053-2.658,0.071-5.326,0.244-7.981
		C155.417,128.243,155.935,120.587,150.247,113.851z"/>
	<path fill="FRAME_COLOR" d="M1266.286,369.12c-4.318-0.047-7.834-3.307-7.917-7.34c-0.091-4.449,3.831-8.389,8.225-8.261
		c4.402,0.128,7.83,3.67,7.81,8.071C1274.384,366.098,1271.07,369.171,1266.286,369.12z"/>
	<path fill="FRAME_COLOR" d="M189.097,361.985c-0.107,4.265-3.728,7.253-8.57,7.072c-4.494-0.168-7.598-3.365-7.434-7.659
		c0.175-4.612,3.948-8.053,8.6-7.846C186.007,353.745,189.213,357.396,189.097,361.985z"/>
	<path fill="FRAME_COLOR" d="M1278.895,725.729c-0.025,4.263-3.085,7.39-7.101,7.254c-4.075-0.138-7.58-3.784-7.476-7.777
		c0.095-3.646,3.386-6.919,7.059-7.021C1275.521,718.07,1278.92,721.481,1278.895,725.729z"/>
	<path fill="FRAME_COLOR" d="M182.881,725.67c-0.126,4.216-3.697,7.576-7.771,7.312c-3.876-0.25-7.007-3.79-6.85-7.744
		c0.151-3.805,3.761-7.153,7.604-7.051C179.877,718.292,183.002,721.625,182.881,725.67z"/>
</g>
</svg>
