<?xml version="1.0" encoding="iso-8859-1"?>
<!-- Generator: Adobe Illustrator 23.0.5, SVG Export Plug-In . SVG Version: 6.00 Build 0)  -->
<svg version="1.1" id="Layer_1" xmlns="http://www.w3.org/2000/svg" xmlns:xlink="http://www.w3.org/1999/xlink" x="0px" y="0px"
	 viewBox="0 0 4500 3000" style="enable-background:new 0 0 4500 3000;" xml:space="preserve">
<g id="_x31__x25_20_x28_305_x29__1_">
	<path d="M475.702,2163.402c-20.43-20.193-35.367-43.886-45.293-70.488c-20.02-53.653-17.188-104.767,18.472-151.703
		c3.914-5.152,6.89-12.613,16.276-7.626c4.739,2.518,6.907-2.219,9.045-5.631c27.944-44.592,25.098-118.847-6.457-160.573
		c-8.404-11.113-18.887-19.992-31.671-26.026c-11.755-5.548-22.823-9.594-35.199-0.265c-11.311,8.527-19.601,4.154-25.766-8.237
		c-13.443-27.021-3.552-55.359,24.302-67.188c6.048-2.569,12.232-4.818,22.942-9.01c-18.928-4.456-31.915-0.928-44.722,2.998
		c-7.111,2.181-13.668,6.561-20.864,7.998c-18.066,3.607-26.947,13.72-25.957,32.254c0.256,4.8-1.597,8.974-4.101,12.929
		c-8.29,13.092-14.219,13.702-24.752,2.532c-39.697-42.096-34.681-79.144,14.773-109.554c1.293-0.795,2.115-2.355,4.218-4.784
		c-9.688-2.499-17.795,0.186-25.871,1.732c-28.237,5.406-56.52,10.989-81.652,25.879c-8.979,5.32-12.56,1.513-15.066-6.254
		c-5.871-18.198-0.747-33.932,11.276-47.931c20.7-24.103,48.248-36.39,79.406-44.865c-6.058-5.769-12.112-3.93-17.901-3.213
		c-31.905,3.952-63.784,8.131-95.722,11.799c-9.155,1.052-18.547,1.67-21.541-11.106c-1.662-7.093-8.901-6.124-14.467-6.598
		c-27.202-2.316-50.548-14.368-73.092-28.578c-8.591-5.416-12.598-9.718-0.203-16.234c24.427-12.841,48.007-27.5,76.83-28.209
		c3.509-0.086,7.728-0.389,8.777-4.103c4.681-16.574,17.012-14.069,29.195-12.301c19.897,2.887,39.791,5.8,59.693,8.65
		c14.627,2.095,29.272,3.304,48.688,0.799c-17.602-7.324-31.359-12.303-44.429-18.687c-13.987-6.833-26.692-15.799-36.788-27.993
		c-9.241-11.16-13.692-23.679-11.836-38.319c2.588-20.417,7.369-22.443,25.694-14.151c30.888,13.977,62.764,25.001,102.645,25.797
		c-8.142-4.99-12.034-7.426-15.974-9.782c-33.022-19.751-41.252-52.754-21.16-85.687c3.28-5.377,7.166-10.434,11.186-15.297
		c4.133-5,6.294-14.168,14.966-11.669c7.839,2.259,15.926,8.619,15.786,16.693c-0.576,33.292,24.259,38.753,47.835,46.253
		c13.143,4.181,26.184,8.717,44.044,5.188c-11.034-5.137-19.488-8.582-27.482-12.884c-27.416-14.754-33.871-49.654-14.29-73.807
		c5.293-6.528,10.645-6.316,16.318-2.094c19.934,14.836,36.982,5.918,52.861-6.804c37.299-29.884,47.193-70.672,43.126-115.838
		c-2.013-22.357-9.245-43.815-17.252-64.788c-1.303-3.412-1.606-11.785-8.003-7.965c-13.468,8.043-17.993-3.172-23.17-10.153
		c-28.566-38.519-31.184-81.619-20.178-126.52c8.644-35.266,26.45-65.657,53.015-92.675c-8.19-3.179-13.294,0.898-18.312,3.45
		c-14.846,7.55-29.261,15.984-44.306,23.096c-6.879,3.252-14.96,8.869-22.541,2.534c-7.84-6.552-5.384-16.017-3.048-24.204
		c10.834-37.96,36.22-63.211,71.461-79.063c18.558-8.348,38.322-11.868,58.752-11.459c6.819,0.137,13.729,0.115,20.878-4.288
		c-9.578-11.347-24.046-16.826-30.665-30.017c-3.332-6.642-8.133-13.117-2.766-20.772c5.06-7.216,12.68-7.042,20.255-6.216
		c15.99,1.742,28.925,10.012,41.449,22.104c4.694-13.505,5.311-26.552,16.961-34.472c8.735-5.938,13.82-8.719,21.988,2.368
		c22.171,30.096,73.703,37.006,111.672,16.724c36.289-19.384,52.526-58.125,40.367-96.316c-8.434-26.491-33.155-42.88-59.358-39.554
		c-10.919,1.385-18.298,6.72-20.24,17.842c-1.162,6.656,0.707,11.038,9.116,10.477c17.777-1.185,27.168,11.676,20.73,28.638
		c-6.048,15.933-18.483,24.376-35.042,27.024c-28.071,4.49-56.016-10.407-66.427-35.344c-12.484-29.902-2.723-66.243,22.907-85.286
		c39.704-29.501,101.445-24.949,136.482,10.101c2.836,2.837,5.283,6.078,8.244,8.765c1.039,0.943,3.323,1.452,4.612,0.985
		c2.616-0.948,2.101-3.207,1.604-5.635c-3.856-18.831-44.775-55.44-65.496-56.075c-13.243-0.406-11.125-6.514-8.238-14.096
		c7.16-18.802,30.682-28.829,55.64-23.455c9.509,2.047,18.856,5.057,28.066,8.238c18.986,6.556,37.853,7.282,56.997,0.409
		c-1.515-4.399-5.457-4.173-8.549-5.122c-35.023-10.749-49.21-45.602-32.203-78.156c4.919-9.417,10.304-10.578,19.16-5.272
		c29.323,17.569,61.486,26.564,95.427,24.909c99.089-4.831,192.532,19.376,284.293,52.992c24.254,8.885,48.157,18.723,72.262,28.019
		c6.8,2.623,13.368,6.601,22.677,4.609c-3.009-7.572-6.265-14.595-8.628-21.906c-11.241-34.782,11.289-69.947,46.828-73.033
		c13.224-1.148,25.063,1.924,33.693,13.173c6.172,8.045,10.326,15.082-1.359,22.609c-8.752,5.638-9.128,15.504-7.814,24.91
		c1.898,13.589,8.915,24.74,17.99,34.664c25.46,27.839,56.468,48.648,87.839,68.967c2.242,1.452,4.729,3.639,9.01,0.38
		c-22.075-21.499-37.513-47.264-48.673-75.63c-10.926-27.769-16.326-56.142-9.314-85.953c7.003-29.777,25.338-49.803,53-61.337
		c18.618-7.762,36.444-2.09,47.18,13.574c11.16,16.283,9.897,41.167-1.798,54.948c-4.898,5.772-8.281,3.001-13.193,0.906
		c-16.802-7.169-24.139-2.858-27.734,15.247c-2.55,12.843-0.559,25.412,3.486,37.349c27.679,81.67,90.18,126.81,166.296,157.537
		c-24.145-20.816-46.693-43.052-63.157-70.587c-16.528-27.642-27.753-56.955-23.178-89.981
		c6.103-44.056,55.547-69.664,95.971-50.899c20.61,9.568,29.399,39.855,8.818,60.681c-0.707-14.648-4.036-27.054-20.495-27.881
		c-6.884-0.346-15.092-0.088-18.115,7.099c-3.132,7.446,5.428,8.971,9.647,11.827c12.181,8.247,11.383,20.164,10.513,32.414
		c-4.38,61.677,37.625,117.146,103.352,131.956c-13.789-13.251-26.073-23.08-35.433-35.652
		c-13.246-17.791-24.036-36.576-25.857-59.169c-3.767-46.749,25.649-72.489,73.087-62.953
		c-25.718,33.397-19.329,67.031-1.025,100.543c19.888,36.411,52.168,51.945,92.188,53.666
		c46.227,1.987,113.002-13.258,145.521-34.131c-22.243,4.955-40.92,9.43-60.08,11.639c-40.799,4.703-79.01-3.008-114.945-22.069
		c-30.879-16.38-44.987-48.292-35.526-77.893c6.634-20.756,25.533-35.025,46.926-35.429c-15.507,25.089-7.424,43.006,18.158,57.723
		c42.755,24.596,86.73,30.7,134.304,20.69c64.332-13.535,108.006-54.815,116.796-113.702c5.495-36.816-5.914-68.881-35.521-91.917
		c-26.459-20.587-56.719-23.105-88.101-11.222c-9.971,3.776-18.327,9.851-24.332,18.514c-8.775,12.659-9.361,25.991,0.459,38.303
		c12.248,15.355,29.986,12.883,37.159-4.665c26.968,14.097,36.873,29.993,33.565,53.866c-3.546,25.586-25.149,46.883-52.917,52.165
		c-62.563,11.9-120.183-41.305-115.174-106.47c5.127-66.703,37.863-114.968,101.206-136.61
		c67.432-23.039,129.501-9.685,180.693,42.038c18.161,18.35,33.912,38.928,45.712,62.235c-7.143-37.107-27.977-66.034-55.195-90.83
		c-15.365-13.998-33.042-24.777-52.073-33.307c-3.997-1.791-10.55-1.721-11.018-6.927c-0.526-5.845,5.901-7.87,10.064-10.512
		c24.535-15.571,49.151-12.675,73.52,0.446c24.119,12.985,40.193,33.853,54.344,56.466c4.806,7.68,9.206,15.615,15.132,22.722
		c-6.982-31.895-25.075-58.319-42.036-85.282c-3.359-5.341-7.228-10.363-10.551-15.725c-5.634-9.093-6.542-18.445,0.225-27.353
		c6.577-8.658,16.294-12.776,25.934-8.771c14.841,6.167,17.466-0.562,20.473-13.08c6.26-26.056,20.922-48.334,35.646-70.339
		c5.12-7.651,9.744-8.105,15.16,0.643c15.462,24.974,31.262,49.782,35.862,79.495c1.325,8.559,4.326,8.695,11.314,6.019
		c12.834-4.914,25.536-3.91,34.335,7.625c9.492,12.444,3.113,24.156-4.98,34.499c-20.231,25.853-35.414,54.351-45.31,85.936
		c9.623-13.055,18.631-26.623,29.008-39.048c16.497-19.751,36.101-35.402,62.164-40.882c18.383-3.865,35.474-1.176,50.552,10.561
		c3.399,2.647,9.01,4.562,7.623,10.17c-1.125,4.546-6.495,3.978-10.062,5.529c-48.626,21.139-83.772,55.532-103.376,105.186
		c-0.84,2.129-1.495,4.346-2.035,6.571c-0.258,1.063-0.044,2.24,1.257,4.338c10.831-18.24,23.076-35.318,37.391-50.87
		c75.403-81.919,210.348-69.743,264.934,24.018c28.435,48.841,25.094,108.327-8.251,146.936
		c-32.897,38.091-91.824,41.722-124.054,7.646c-27.705-29.292-18.902-69.973,19.606-85.731c1.194,10.494,2.744,20.718,17.696,17.767
		c14.522-2.866,25.645-15.574,24.326-30.779c-1.815-20.913-15.1-32.73-33.685-39.428c-59.694-21.517-120.241,21.133-121.268,85.286
		c-0.864,54.019,36.281,104.06,94.281,125.124c50.086,18.19,99.829,21.741,147.327-8.509c9.16-5.834,21.715-4.817,29.088-13.814
		c10.91-13.313,10.606-29.847-0.108-45.659c31.472-2.739,57.471,31.841,48.842,65.483c-6.18,24.091-23.125,39.192-44.397,49.9
		c-43.698,21.995-89.502,22.678-136.187,12.441c-9.92-2.175-19.688-5.048-29.758-6.256c59.753,27.347,120.891,48.152,187.044,25.444
		c38.423-13.19,68.331-62.808,64.862-102.947c-1.236-14.299-4.16-28.395-17.969-37.339c37.595-14.618,71.656,8.024,73.92,48.743
		c1.829,32.876-14.035,58.47-35.815,81.055c-7.842,8.132-16.573,15.407-27.927,25.862c20.885-3.51,34.55-12.953,48.077-22.028
		c40.043-26.865,67.111-60.996,61.105-112.999c-1.668-14.443,0.421-26.861,15.685-34.736c9.328-4.812,5.564-11.312-2.74-14.559
		c-16.131-6.308-29.534,3.975-31.722,25.335c-11.81-6.553-11.976-17.524-11.54-27.697c0.624-14.57,9.547-24.398,22.224-30.411
		c35.092-16.643,82.833,6.9,91.122,45.229c8.146,37.666-6.214,70.092-25.905,100.638c-16.118,25.003-36.623,46.293-59.718,65.468
		c43.222-16.905,83.5-37.899,115.205-72.355c26.513-28.813,46.38-61.29,54.19-100.276c1.848-9.223,2.287-18.283-1.693-27.046
		c-4.714-10.379-12.081-16.384-23.052-9.23c-10.131,6.606-14.249,1.293-18.563-6.596c-9.983-18.257-7.709-40.372,5.838-54.531
		c12.027-12.57,27.544-14.549,47.576-4.913c34.38,16.539,49.433,45.887,49.282,82.374c-0.2,48.43-19.238,90.373-49.874,127.32
		c-2.923,3.525-6.24,6.722-9.312,10.128c-0.323,0.358-0.221,1.098-0.34,1.803c1.892,3.389,4.891,2.267,7.051,0.88
		c31.419-20.185,63.511-39.606,88.781-67.745c24.191-26.937,24.646-36.181,5.194-66.461c-4.562-7.102,3.888-21.512,16.103-26.093
		c19.296-7.237,37.447-4.551,53.301,8.808c17.817,15.014,20.45,34.937,16.8,56.512c-0.282,1.67-1.7,3.249-1.671,4.854
		c0.135,7.327-11.315,13.978-4.915,19.793c7.116,6.465,16.282-1.106,23.942-4.124c82.983-32.698,167.261-60.789,255.979-73.439
		c28.049-3.999,56.261-1.739,84.38-1.482c37.387,0.341,73.097-5.857,106.981-22.17c15.413-7.42,20.829-4.468,25.961,12.248
		c8.772,28.572-11.342,61.527-41.875,68.581c-3.167,0.732-6.363,1.339-10.955,2.298c21.952,9.97,37.764,10.874,58.786,4.74
		c19.201-5.604,38.111-13.425,58.929-7.986c7.985,2.086,15.173,5.003,20.74,11.36c12.344,14.096,10.292,21.169-7.472,25.571
		c-31.321,7.762-44.724,32.899-59.653,60.261c9.905,0.159,12.961-6.054,17.09-9.843c36.449-33.459,89.057-37.929,130.308-10.849
		c34.043,22.35,43.728,69.207,21.008,101.644c-20.245,28.901-62.615,32.879-85.48,7.827c-8.022-8.789-13.953-18.719-9.021-31.226
		c4.403-11.165,12.03-15.631,24.575-12.334c6.83,1.795,6.884-4.792,5.836-9.254c-3.135-13.356-13.537-17.852-25.663-19.09
		c-28.656-2.924-54.66,19.439-59.392,50.686c-7.307,48.242,30.809,93.676,82.161,97.863c29.942,2.441,57.676-1.17,76.515-28.539
		c5.37-7.802,10.791-5.912,17.26-0.969c10.305,7.872,13.981,19.172,16.858,33.875c12.74-9.221,24.612-15.7,38.115-17.851
		c8.725-1.39,18.351-2.1,23.571,6.219c5.114,8.15-1.658,15.239-6.098,21.758c-5.929,8.704-14.24,14.871-23.178,20.281
		c-2.806,1.698-7.294,2.973-6.773,6.859c0.745,5.553,6.147,4.14,9.776,4.27c21.292,0.759,42.311,2.206,62.709,9.629
		c38.86,14.139,64.524,40.815,77.895,79.574c2.959,8.577,7.163,18.244-1.264,25.781c-7.919,7.084-16.509,1.741-24.094-1.895
		c-20.536-9.844-40.812-20.229-63.3-31.452c2.136,9.265,8.517,12.512,12.716,17.249c41.826,47.181,68.454,139.154,21.074,205.988
		c-5.561,7.844-9.085,21.562-24.491,14.57c-2.851-1.293-4.97,2.2-5.991,4.937c-17.82,47.76-30.178,95.752-5.134,145.006
		c8.285,16.293,20.325,29.021,36.351,38.081c14.196,8.025,27.925,13.174,43.034,1.5c9.227-7.13,14.784-0.64,18.669,7.358
		c11.97,24.646,5.714,65.064-31.443,69.461c-4.874,0.577-10.358,0.805-14.609,6.02c4.872,6.321,11.348,4.093,16.966,3.649
		c20.333-1.609,39.075-8.959,57.684-16.685c10.553-4.381,12.432-14.344,15.244-23.645c2.847-9.416,4.918-19.744,16.537-22.008
		c12.476-2.431,16.662,8.253,21.945,16.037c26.665,39.29,18.019,68.832-31.441,99.029c34.037,1.823,62.975-5.077,91.272-15.877
		c3.737-1.427,7.247-3.487,10.78-5.404c16.894-9.163,24.484-4.725,24.671,15.015c0.233,24.524-14.393,40.465-32.747,53.563
		c-17.875,12.756-38.49,19.855-61.197,25.762c6.496,7.848,13.764,5.471,19.638,4.925c29.732-2.761,59.347-6.897,89.109-9.159
		c12.617-0.959,28.698-5.806,32.168,15.305c0.891,5.423,7.655,3.88,11.977,4.483c24.396,3.403,46.291,12.943,66.801,26.284
		c7.676,4.993,9.572,8.819,0.622,14.688c-20.897,13.7-42.491,25.189-68.132,26.71c-4.368,0.259-11.057-1.48-12.293,3.703
		c-4.437,18.601-17.835,14.093-30.121,12.794c-31.419-3.321-62.818-6.828-94.245-10.077c-5.374-0.556-11.231-2.218-17.528,3.735
		c14.451,5.72,27.776,10.418,40.61,16.207c20.929,9.44,38.446,23.083,48.67,44.324c3.49,7.251,5.566,14.998,5.06,23.338
		c-1.048,17.285-5.354,19.531-20.906,12.151c-33.076-15.697-68.197-23.161-104.746-25.774c-0.984,9.17,6.41,8.188,10.173,10.238
		c43.202,23.542,47.231,77.986,7.85,107.082c-8.257,6.1-14.685,5.539-19.911-3.428c-1.435-2.464-3.232-5.146-3.432-7.835
		c-2.279-30.692-25.294-38.115-49.391-43.806c-13.762-3.25-27.497-7.928-43.349-5.822c4.478,8.887,13.136,7.411,19.32,10.052
		c29.596,12.639,41.157,42.374,27.291,70.96c-5.269,10.864-11.93,15.374-22.651,6.584c-12.667-10.385-25.42-7.511-38.511-0.724
		c-36.302,18.821-58.553,62.854-54.568,109.204c2.184,25.395,9.012,49.688,19.108,73.043c1.594,3.686,2.768,11.692,8.46,7.381
		c12.094-9.158,15.38,1.355,19.472,7.746c27.457,42.875,32.673,88.707,16.822,136.988c-9.915,30.202-26.509,56.723-47.227,80.925
		c7.9,5.554,12.333,0.427,17.14-1.872c16.583-7.928,32.829-16.624,49.695-23.885c15.852-6.824,22.75-0.866,20.535,16.382
		c-5.822,45.33-50.966,87.543-103.083,95.74c-15.7,2.47-31.623,3.519-49.361,5.426c4.686,10.223,14.875,11.92,20.759,18.226
		c9.292,9.957,24.47,20.167,17.045,34.295c-7.871,14.977-25.942,8.18-37.295,2.829c-16.353-7.706-26.292-15.389-33.522,10.532
		c-4.679,16.773-19.159,16.262-30.889,2.684c-23.622-27.345-74.133-32.046-111.625-10.39c-35.053,20.248-50.655,59.73-37.879,95.861
		c8.029,22.707,29.565,39.078,51.684,39.243c10.88,0.081,20.425-2.954,27.255-12.049c2.872-3.824,4.98-8.173,3.059-12.82
		c-2.95-7.136-7.538-1.45-11.489-0.948c-13.667,1.739-22.964-8.84-21.264-24.118c1.978-17.782,19.373-33.17,39.502-34.945
		c25.406-2.24,50.461,11.351,61.388,33.301c12.636,25.383,7.814,58.367-11.506,78.701c-32.22,33.913-94.437,38.051-131.006,8.479
		c-8.871-7.174-17.103-15.137-26.64-23.639c4.978,26.866,33.741,56.316,58.926,61.708c14.6,3.126,17.02,8.339,7.312,20.014
		c-15.853,19.066-37.026,18.519-58.542,12.908c-18.299-4.771-35.756-12.806-54.913-14.231c-7.126-0.531-14.52-2.509-23.339,2.971
		c27.764,11.258,46.604,28.132,48.731,57.975c0.483,6.777,0.09,13.884-1.435,20.484c-4.022,17.402-10.758,20.497-26.576,11.913
		c-30.177-16.375-63.011-23.772-96.457-21.556c-118.854,7.876-227.947-28.711-336.195-70.309c-2.68-1.03-5.225-2.49-7.969-3.264
		c-7.973-2.249-16.622-11.32-23.775-4.661c-6.669,6.207,4.173,12.514,6.32,19.112c13.155,40.432-16.705,78.761-57.636,73.192
		c-11.03-1.5-19.382-6.904-25.042-16.311c-3.481-5.785-5.068-11.733,1.465-16.856c15.128-11.862,11.494-26.101,4.612-40.327
		c-5.821-12.033-14.134-22.549-24.377-30.971c-24.665-20.279-49.399-40.577-80.745-57.683c2.291,10.335,8.036,14.231,11.906,19.223
		c33.054,42.639,51.873,89.597,40.605,144.355c-6.048,29.395-23.435,50.951-52.275,61.546c-18.955,6.964-36.425,0.602-46.386-15.77
		c-11.133-18.296-9.165-43.412,3.6-56.365c4.517-4.585,7.244-2.805,11.71-0.513c15.897,8.158,26.243,2.259,27.365-15.752
		c0.757-12.157-2.05-23.996-5.759-35.553c-18.465-57.536-57.993-96.833-109.699-124.986c-14.695-8.001-28.294-19.159-50.188-22.207
		c28.017,23.222,50.324,45.943,66.106,74.471c11.679,21.11,18.442,43.112,17.868,67.409c-1.011,42.795-35.003,73.555-77.356,69.034
		c-16.997-1.815-30.867-9.289-37.348-26.292c-5.636-14.789-2.082-27.806,10.119-42.064c1.189,12.565,1.593,23.176,12.776,27.813
		c6.692,2.776,13.381,2.985,20.177,0.757c3.371-1.105,6.76-2.9,7.463-6.498c0.746-3.823-2.09-6.665-5.351-7.961
		c-18.104-7.196-17.064-21.973-15.891-37.518c4.064-53.853-46.413-116.912-100.524-124.978c0.558,7.556,6.962,10.051,11.201,13.824
		c25.379,22.592,42.849,49.391,45.622,84.168c3.175,39.83-24.854,67.885-62.911,63.104c-4.017-0.504-8.948-0.316-10.962-3.923
		c-2.692-4.821,2.964-6.571,5.44-9.273c13.01-14.197,13.24-31.492,10.733-48.74c-7.226-49.718-40.085-83.124-90.021-90.51
		c-54.231-8.021-104.282,6.95-152.461,30.465c23.515-3.187,46.463-9.514,70.453-9.598c35.846-0.126,69.818,6.867,100.61,25.457
		c22.682,13.693,36.502,33.484,33.508,61.361c-2.849,26.527-19.748,41.697-43.551,50.51c-2.597,0.962-5.401,2.186-7.881-0.43
		c12.451-30.527,7.984-41.982-22.774-58.429c-67.752-36.229-146.218-30.833-199.416,15.699
		c-31.73,27.753-49.34,63.543-46.858,106.621c3.632,63.031,78.507,101.606,132.582,68.911c10.151-6.137,18.212-14.33,21.203-26.103
		c3.789-14.918-0.023-27.493-14.034-35.327c-15.877-8.878-25.553-3.672-27.349,14.179c-30.567-7.718-44.956-36.457-32.525-64.957
		c17.651-40.466,70.638-56.361,111.757-33.523c50.303,27.939,68.642,91.591,43.511,151.019
		c-43.73,103.407-182.469,129.524-266.222,50.135c-16.666-15.798-30.949-33.657-45.295-51.469
		c16.28,44.696,44.982,78.538,87.833,100.011c2.054,1.029,4.363,1.68,6.189,3.007c6.495,4.719,20.167,3.256,19.356,12.829
		c-0.745,8.785-12.303,12.858-20.902,16.046c-24.733,9.17-47.632,3.281-68.806-10.484c-21.069-13.697-37.258-32.235-50.212-53.714
		c-2.889-4.791-4.087-10.859-11.481-14.985c6.817,28.827,21.93,51.511,37.639,73.879c4.287,6.105,9.227,11.77,13.271,18.022
		c5.993,9.266,8.49,19.284,0.997,28.823c-7.117,9.06-17.797,12.559-27.871,8.247c-14.806-6.337-17.254,1.128-19.793,12.807
		c-5.63,25.887-21.675,46.657-35.481,68.437c-5.145,8.117-10.473,7.088-15.841-0.518c-15.657-22.186-30.194-44.967-35.271-72.17
		c-1.786-9.569-4.189-14.696-15.295-10.573c-13.242,4.916-25.464,2.197-33.407-10.015c-8.053-12.382-1.482-23.336,6.393-32.898
		c21.374-25.953,38.509-54.156,47.269-87.296c-9.359,14.316-18.71,28.602-30.088,41.344c-17.513,19.614-37.175,35.837-63.722,41.802
		c-18.017,4.048-34.212-0.462-49.278-9.942c-4.124-2.595-9.951-5.552-9.313-11.324c0.582-5.256,6.859-5.511,10.903-7.165
		c44.634-18.241,76.268-50.228,98.345-92.419c1.064-2.034,2.095-4.112,2.848-6.271c0.334-0.957-0.065-2.168-0.312-6.237
		c-8.247,10.146-15.191,18.58-22.019,27.106c-58.899,73.538-162.098,91.505-234.209,39.243
		c-48.357-35.047-72.071-82.499-63.142-143.385c7.838-53.448,56.829-91.571,107.871-84.372
		c38.642,5.449,65.807,39.681,58.457,73.457c-2.871,13.195-10.095,23.046-21.846,29.441c-6.412,3.489-13.153,8.94-14.623-5.233
		c-0.786-7.576-9.018-7.756-15.464-7.015c-19.826,2.28-31.581,24.567-22.628,43.267c5.681,11.866,15.064,20.449,27.3,25.089
		c32.205,12.211,63.769,11.416,91.353-10.725c27.687-22.223,38.771-52.323,32.636-87.558
		c-10.743-61.708-56.739-102.91-125.73-118.552c-51.006-11.565-95.238,3.094-137.899,27.911
		c-14.841,8.634-16.191,28.421-5.047,48.785c-34.144,0.537-59.854-39.412-47.848-74.347c6.798-19.781,21.063-32.476,39.408-41.122
		c44.57-21.005,90.923-22.259,138.197-11.957c9.451,2.06,18.729,4.911,28.471,6.211c-33.619-19.372-70.043-30.616-108.467-35.17
		c-14.18-1.68-28.728-1.639-43.015-0.793c-58.011,3.438-102.369,57.123-95.591,114.989c1.607,13.726,3.035,16.701,15.192,31.671
		c-26.631,12.902-61.008-2.391-69.854-31.763c-10.284-34.142,1.384-63.559,22.548-89.656c9.496-11.708,21.725-21.201,35.675-34.529
		c-56.851,7.692-108.004,68.821-103.974,119.301c1.361,17.048,3.188,33.128-15.508,43.456c-7.413,4.095-3.399,9.644,3.279,12.198
		c16.165,6.181,29.579-4.197,31.89-24.584c20.064,17.57,16.339,47.472-7.356,59.043c-43.391,21.189-96.597-11.651-97.8-60.563
		c-1.06-43.052,19.612-77.083,46.12-108.441c10.287-12.168,21.207-23.801,33.046-37.025c-46.46,21.005-89.966,43.616-120.774,85.212
		c-18.323,24.74-34.062,50.542-39.153,81.474c-1.109,6.738-1.861,13.829-1.008,20.533c1.798,14.133,12.404,21.08,24.565,14.208
		c10.407-5.882,14.03-1.288,18.912,5.779c10.612,15.36,9.683,37.158-2.523,53.058c-10.471,13.64-26.328,18.317-44.848,11.199
		c-32.176-12.366-52.124-35.726-55.538-70.415c-5.265-53.496,14.19-99.013,48.225-139.207c3.441-4.063,9.594-6.244,9.546-16.581
		c-38.421,25.302-77.119,46.601-103.771,82.856c-12.797,17.407-10.792,30.132,2.635,47.565c7.365,9.561,0.422,16.31-5.502,22.187
		c-17.748,17.61-55.173,10.356-70.716-13.73c-11.825-18.324-12.26-37.689-3.713-57.6c1.895-4.413,7.907-9.017,3.831-13.733
		c-4.619-5.343-11.035-0.771-15.977,1.179c-64.718,25.547-130.451,47.753-198.329,63.526c-37.166,8.636-74.448,13.51-112.718,12.152
		c-50.773-1.801-101.331-1.108-147.28,25.753c-9.301,5.437-13.54-1.999-17.19-8.754c-13.479-24.945-3.41-59.681,22.119-75.429
		c6.252-3.856,13.292-6.434,19.937-11.182c-17.02-1.307-33.896-2.773-50.968,2.527c-15.832,4.915-31.383,11.491-48.507,10.998
		c-21.301-0.614-37.319-9.956-41.76-24.451c-2.623-8.56-2.358-13.224,9.35-14.059c24.35-1.736,53.519-30.282,60.137-57.458
		c-8.668,6.953-16.122,13.868-24.461,19.463c-39.83,26.726-80.901,26.789-121.797,3.146c-25.748-14.886-36.693-43.839-30.426-74.64
		c5.536-27.205,25.012-45.665,52.653-49.905c23.295-3.574,48.014,11.057,53.038,31.391c4.545,18.398-2.581,28.282-21.776,28.529
		c-11.205,0.144-9.768,6.16-6.276,12.105c4.972,8.465,13.365,12.112,23.151,12.821c22.465,1.627,41.634-10.613,51.438-33.064
		c21.007-48.107-9.509-101.015-66.018-112.1c-32.059-6.289-61.943-1.089-83.78,26.571c-4.661,5.905-8.938,5.755-14.701,2.195
		c-12.025-7.427-18.832-18.053-19.997-34.188c-13.67,9.096-26.062,17.355-41.488,18.128c-7.659,0.384-15.973,0.986-20.561-5.812
		c-5.25-7.778,0.033-15.298,4.074-22.228c6.511-11.166,17.581-17.675,30.433-27.439c-17.075-2.215-30.924-3.772-44.697-5.844
		c-43.526-6.548-77.236-28-99.66-66.316c-2.028-3.464-4.639-6.852-5.599-10.627c-3.108-12.224-13.608-25.57-1.287-36.845
		c11.767-10.769,22.387,1.855,32.785,6.307c16.147,6.913,31.806,14.966,47.671,22.536
		C473.797,2165.691,474.749,2164.547,475.702,2163.402z M3855.54,1945.371c4.054-5.341,5.473-6.982,6.642-8.785
		c14.36-22.141,32.315-28.616,48.302-17.375c16.708,11.748,17.727,33.115,1.921,52.668c-7.221,8.934-10.701,18.926-11.319,30.075
		c-0.339,6.109,1.718,10.899,7.979,13.755c20.317,9.269,20.166,9.357,8.027,27.282c-5.466,8.072-11.169,16.09-15.609,24.727
		c-6.924,13.467-7.633,27.67-0.985,41.556c3.92,8.188,8.332,21.659,15.409,20.939c9.143-0.93,7.608-14.413,8.99-23.204
		c1.597-10.162,5.673-18.761,16.818-21.691c11.616-3.054,20.368,1.702,26.864,10.777c3.283,4.588,5.836,9.95,7.605,15.328
		c11.892,36.166-8.515,83.938-42.852,101.583c-5.001,2.57-15.57,3.18-11.75,11.187c4.112,8.618,12.498,1.321,17.777-1.292
		c29.281-14.491,45.372-39.674,54.091-70.153c11.674-40.813,2.902-79.261-12.415-117.582
		c-32.431-81.143-72.034-159.101-105.427-239.784c-38.43-92.853-6.458-193.825,77.618-247.488
		c29.484-18.819,62.485-28.663,95.893-37.511c4.592-1.216,12.104-0.727,12.023-6.915c-0.076-5.817-7.41-6.144-12.148-7.573
		c-29.158-8.799-57.759-18.553-84.95-32.887c-99.993-52.711-115.093-158.838-89.069-231.245
		c26.084-72.572,62.009-140.885,93.696-211.033c16.297-36.077,35.114-71.285,40.771-111.266
		c7.621-53.862-19.583-109.346-64.168-130.724c-4.815-2.309-11.146-7.524-14.749,0.173c-3.018,6.446,4.336,8.164,8.568,10.55
		c27.86,15.702,44.187,39.63,49.894,70.771c3.554,19.394,1.111,37.895-11.705,53.851c-6.998,8.712-16.091,13.673-27.241,10.1
		c-10.736-3.441-16.802-11.686-17.844-23.109c-0.364-3.993-0.021-8.046-0.242-12.058c-0.206-3.735,1.523-8.618-4.088-9.88
		c-4.342-0.977-7.664,1.195-10.341,4.664c-11.409,14.785-17.843,30.529-11.573,49.595c4.021,12.229,10.354,22.913,18.245,32.957
		c11.963,15.227,11.572,19.779-5.682,26.5c-15.652,6.097-16.356,16.35-11.252,28.816c3.886,9.492,10.065,18.019,14.526,27.31
		c7.975,16.61,2.938,36.13-10.895,44.213c-14.662,8.567-32.528,4.074-43.989-10.867c-2.486-3.242-3.123-8.997-9.835-7.863
		c0.683,14.5,2.894,28.544,7.766,42.205c3.881,10.883,6.442,22.066,4.67,33.791c-2.697,17.849-16.446,31.566-32.736,32.637
		c-17.169,1.129-30.092-9.52-35.094-28.843c-0.744-2.873,0.205-6.833-5.036-7.979c-6.897,11.179-7.719,22.962-2.901,34.515
		c5.818,13.955,3.522,22.869-10.457,30.935c-16.849,9.722-21.302,27.397-16.002,44.987c3.278,10.883,14.182,13.477,21.289,20.745
		c-29.568,13.037-62.891,1.895-78.323-25.609c-14.139-25.199-14.096-51.54-5.281-78.383c1.381-4.207,5.114-8.953,0.737-12.66
		c-3.426-2.901-7.411,1.122-11.114,2.149c-20.243,5.614-38.982,3.88-53.83-12.518c-9.705-10.718-7.6-16.255,6.635-18.771
		c15.991-2.826,31.134-8.232,45.691-15.033c18.871-8.817,35.677-20.688,53.496-39.145c-20.968,1.656-35.322-3.735-47.668-13.742
		c-17.698-14.345-24.29-33.14-19.187-55.364c4.466-19.45,18.005-30.221,36.752-34.636c15.372-3.62,30.765,3.028,35.199,14.722
		c1.827,4.817,3.449,10.182-1.026,14.496c-5.433,5.237-9.161,1.5-12.614-2.956c-2.344-3.025-5.426-4.301-9.002-2.362
		c-4.007,2.173-5.326,6.069-4.913,10.271c1.155,11.729,9.397,16.902,19.611,18.59c15.24,2.517,28.843-2.28,38.9-13.879
		c21.825-25.17,23.573-54.063,12.61-84.1c-10.56-28.931-30.816-47.027-62.509-48.83c-33.902-1.928-61.908,10.662-82.441,37.982
		c-12.483,16.608-27.331,29.465-47.811,34.65c-9.311,2.357-20.849,7.362-27.408-1.094c-5.496-7.085,3.781-15.537,6.584-23.384
		c3.299-9.238,11.208-17.513,8.882-32.565c-4.07,5.642-5.474,7.437-6.719,9.336c-30.297,46.198-110.373,64.553-157.505,36.215
		c-13.611-8.183-22.026-19.904-25.117-35.357c-0.656-3.281-0.523-7.099,2.516-9.553c3.078-2.485,5.148,0.427,7.318,1.962
		c35.896,25.389,71.918,1.891,94.025-22.444c4.453-4.902,7.421-10.328-3.673-10.362c-3.811-0.011-6.696-1.929-7.263-5.896
		c-0.613-4.28,2.963-5.7,5.846-7.523c6.307-3.989,12.802-7.731,18.824-12.117c21.595-15.728,29.585-25.863,32.578-40.552
		c-27.104,22.805-54.421,28.22-76.948,15.567c-14.53-8.162-18.456-21.381-17.487-36.578c0.865-13.576,8.58-21.789,21.764-25.604
		c34.324-9.931,50.342-34.204,44.431-69.954c-9.233-55.848-40.955-94.232-94.468-112.745
		c-51.007-17.645-104.063-16.625-157.026-12.794c-16.208,1.173-32.809,0.857-48.788,6.558c0.782,1.318,1.004,2.041,1.247,2.048
		c3.381,0.099,6.77,0.229,10.147,0.106c59.274-2.153,118.455-3.605,175.532,17.085c17.508,6.346,33.891,14.434,46.593,28.415
		c20.771,22.863,22.081,53.118,3.653,77.227c-17.276,22.603-57.616,32.318-81.29,19.108c-6.776-3.781-13.928-8.014-15.71-16.871
		c5.579-3.605,10.249,0.236,15.101,0.966c13.129,1.977,25.057-0.974,31.055-13.137c6.421-13.024,1.117-24.552-9.91-33.401
		c-9.146-7.339-19.949-11.339-30.921-14.791c-71.612-22.532-145.016-24.585-218.429-14.586
		c-68.254,9.297-135.837,23.405-203.887,34.326c-93.181,14.953-186.791,26.616-281.406,18.681
		c-127.456-10.69-234.025-62.457-314.392-163.982c-17.285-21.835-38.056-39.868-61.432-54.884
		c-3.416-2.194-6.819-6.903-11.864-2.942c-1.187,4.201,1.595,6.769,3.617,9.357c11.667,14.931,23.373,29.836,35.333,44.533
		c7.611,9.353,6.932,19.14,1.944,28.975c-4.655,9.179-11.81,8.742-20.465,5.095c-10.369-4.369-9.657,4.995-10.48,10.488
		c-2.777,18.529-9.411,35.434-19.581,51.075c-6.076,9.345-11.834,9.802-18.048,0.027c-10.298-16.201-18.015-33.482-20.571-52.549
		c-1.195-8.918-1.96-13.769-13.227-9.371c-10.453,4.08-17.47-1.941-20.002-12.816c-2.622-11.26,1.143-19.809,9.595-27.574
		c15.017-13.797,27.623-29.595,35.887-48.887c-22.161,6.634-38.742,20.95-54.861,36.178c-23.004,21.734-40.372,48.533-64.384,69.474
		c-88.794,77.436-192.247,114.219-309.576,115.076c-117.345,0.857-232.501-16.215-346.78-40.608
		c-93.287-19.913-186.798-33-282.037-15.423c-20.355,3.757-40.613,8.129-58.144,20.148c-11.606,7.957-17.742,18.765-12.339,32.463
		c5.466,13.859,17.588,16.945,31.399,15.013c5.178-0.724,10.282-4.189,16.362-1.348c-23.181,26.588-46.627,31.226-77.117,15.982
		c-27.829-13.914-42.186-41.299-35.207-69.617c6.303-25.573,26.707-37.776,48.883-47.182
		c38.194-16.201,78.759-20.459,119.671-21.849c22.145-0.752,44.337-0.134,66.507-0.134c-52.996-8.746-105.97-11.652-159.505-4.971
		c-78.272,9.768-116.088,67.19-125.678,117.306c-6.445,33.679,9.153,58.989,41.144,69.724c12.25,4.111,21.827,9.391,23.051,24.18
		c1.276,15.413-4.045,26.868-17.118,34.919c-19.392,11.942-47.206,9.992-66.506-4.713c-4.15-3.162-8.297-6.33-12.445-9.495
		c9.852,20.913,24.534,36.368,44.347,46.843c6.292,3.326,15.835,5.316,14.463,14.617c-1.454,9.858-11.941,2.44-17.196,6.176
		c18.491,36.774,62.256,50.541,97.012,30.795c3.221-1.829,6.262-6.384,10.458-2.54c3.304,3.026,2.416,7.674,1.664,11.473
		c-3.099,15.65-12.533,26.888-26.044,34.703c-40.063,23.172-118.24,11.648-149.529-22.4c-7.105-7.732-12.455-17.076-20.679-28.567
		c-0.26,22.273,10.369,36.131,19.408,50.459c6.262,9.927,4.393,15.372-7.553,14.8c-23.037-1.103-44.342-6.751-59.216-26.463
		c-5.19-6.879-10.139-13.973-15.749-20.496c-26.145-30.397-69.517-40.603-101.225-24.057c-34.31,17.904-50.781,58.827-39.904,99.147
		c6.093,22.588,24.403,38.89,45.975,40.877c9.72,0.896,18.366-1.472,24.644-9.349c4.006-5.026,4.64-10.701-0.256-15.552
		c-4.347-4.308-9.164-4.311-13.525,0.4c-3.78,4.084-8.172,7.586-13.128,2.586c-4.315-4.354-4.538-9.995-2.429-16.03
		c5.619-16.078,26.139-23.418,45.154-15.818c22.008,8.796,34.469,30.18,31.359,53.813c-3.353,25.473-23.61,46.337-47.886,49.833
		c-5.315,0.765-11.296-1.583-16.005,2.482c0.543,5.1,4.484,6.869,7.524,9.272c25.974,20.53,53.851,37.466,87.038,43.276
		c12.804,2.241,13.312,8.019,7.336,17.535c-8.231,13.107-26.115,19.638-44.256,15.421c-8.627-2.006-17.063-4.836-26.494-7.554
		c16.682,59.534,9.865,96.78-20.435,116.456c-19.136,12.427-39.932,13.395-52.988,2.468c17.402-11.223,22.218-24.385,15.948-43.549
		c-3.662-11.192-13.185-16.964-21.723-23.709c-6.78-5.357-15.335-11.039-9.134-21.064c8.657-13.997,3.774-26.652-0.95-42.753
		c-2.541,5.054-3.862,7.465-4.991,9.963c-8.479,18.751-21.615,26.406-39.229,22.811c-17.058-3.482-28.23-16.876-28.451-36.014
		c-0.091-7.871,1.977-15.897,3.932-23.633c4.118-16.302,9.332-32.361,10.449-49.756c-6.228,1.278-8.144,5.945-11.331,9.074
		c-15.026,14.752-31.984,17.578-44.54,7.282c-14.348-11.765-16.699-30.979-4.824-47.761c6.892-9.74,10.348-20.482,12.31-31.812
		c0.973-5.621,0.242-10.937-6.219-14.538c-19.738-11.005-19.618-11.291-7.924-30.209c3.322-5.375,6.791-10.663,10.32-15.904
		c12.253-18.195,12.581-36.459,0.171-54.645c-3.396-4.976-5.08-13.792-12.377-12.547c-7.572,1.292-3.175,9.604-4.321,14.727
		c-2.914,13.021-7.847,24.928-22.656,27.089c-14.759,2.154-23.66-7.222-29.045-19.564c-2.931-6.72-5.051-14.249-5.472-21.533
		c-2.276-39.38,14.936-68.444,48.194-88.799c3.942-2.413,12.284-3.658,9.682-9.655c-3.222-7.424-10.295-1.929-14.977,0.007
		c-18.635,7.704-32.914,20.889-43.507,37.859c-26.13,41.858-27.386,85.563-8.215,130.21
		c23.796,55.419,48.131,110.606,72.132,165.937c17.37,40.043,37.632,79.249,47.919,121.737
		c19.228,79.415,5.224,151.079-59.094,206.739c-32.765,28.354-72.309,44.035-114.613,52.852c-5.233,1.091-13.568,0.611-13.741,7.61
		c-0.163,6.612,7.843,7.341,13.158,8.86c26.018,7.436,51.386,16.448,75.463,28.974c79.065,41.134,113.97,111.855,105.144,203.358
		c-5.047,52.323-30.12,98.581-51.354,145.599c-28.135,62.3-57.479,124.112-80.259,188.606
		c-14.085,39.877-7.116,78.368,16.167,113.43c11.253,16.946,25.755,30.875,45.285,38.417c4.265,1.647,10.339,4.148,12.679-0.131
		c3.214-5.875-3.989-7.04-7.592-8.966c-13.933-7.448-25.943-17.04-34.828-30.187c-17.555-25.975-21.794-54.059-11.523-83.694
		c4.542-13.105,14.436-21.007,28.986-19.769c14.875,1.266,19.344,12.669,21.647,25.182c0.718,3.904,0.372,8.004,0.515,12.014
		c0.139,3.872,2.333,6.774,5.71,7.643c3.372,0.867,4.317-2.898,6.096-5.031c18.683-22.403,19.994-39.367,4.447-64.416
		c-4.228-6.812-8.855-13.45-13.936-19.645c-8.141-9.926-8.31-17.386,5.268-21.809c15.561-5.068,15.622-16.097,11.466-29.077
		c-2.907-9.079-10.084-15.281-14.711-23.168c-9.682-16.5-6.591-37.186,6.891-46.694c13.845-9.766,32.842-5.184,45.635,10.484
		c2.892,3.542,3.223,9.927,10.407,10.4c1.041-15.562-3.441-29.741-7.281-44.045c-3.128-11.651-6.554-23.327-4.778-35.62
		c2.399-16.602,11.429-27.981,28.27-30.333c16.085-2.247,29.462,2.987,36.551,19.306c1.405,3.235,0.92,8.327,7.631,9.073
		c2.203-7.603,3.532-15.777,1.328-23.096c-5.674-18.844,0.6-30.374,16.847-41.273c19.94-13.376,20.056-40.63,2.878-56.415
		c-2.402-2.207-7.346-3.554-5.471-7.451c1.155-2.401,5.452-3.787,8.606-4.651c27.528-7.541,58.869,10.742,69.163,40.599
		c9.555,27.717,6.206,54.997-5.764,83.62c10.203-3.244,18.147-6.062,26.254-8.283c14.904-4.083,28.466-0.579,40.64,8.467
		c5.792,4.304,10.015,10.276,8.769,17.664c-1.224,7.255-8.581,6.345-13.889,7.834c-34.062,9.561-64.079,26.492-94.657,51.587
		c17.327,0.633,30.722,2.67,42.436,10.474c20.789,13.848,30.666,38.506,24.907,63.238c-4.704,20.199-21.686,35.156-42.743,36.706
		c-14.993,1.103-27.189-4.398-33.708-18.639c-2.479-5.415-1.737-11.607,3.171-15.857c3.986-3.451,8.797-3.306,12.181,0.939
		c4.129,5.18,8.609,9.02,13.672,2.303c4.719-6.262,3.563-12.818-2.646-18.334c-10.145-9.014-21.601-10.156-33.774-5.692
		c-18.918,6.938-29.372,21.385-34.047,40.368c-8.925,36.249,1.134,67.406,27.846,92.457c20.16,18.907,57.565,19.291,87.79,3.437
		c16.225-8.511,29.133-20.702,38.6-36.085c12.267-19.933,31.181-28.087,52.791-31.768c6.457-1.1,14.715-4.056,19.1,2.921
		c3.719,5.917-1.459,11.903-4.291,17.464c-6.909,13.565-15.798,26.378-17.523,45.637c3.816-5.494,5.977-8.09,7.582-10.992
		c27.709-50.136,107.087-62.989,146.713-47.623c19.46,7.546,32.964,20.564,37.851,41.352c0.907,3.857,1.55,8.479-2.212,11.113
		c-3.42,2.394-6.323-1.063-9.294-2.555c-33.839-16.987-75.022-3.223-93.646,31.401c5.267,2.233,14.164-3.124,15.762,6.054
		c1.148,6.593-5.34,9.497-9.924,12.853c-8.338,6.106-16.885,11.945-24.985,18.351c-14.061,11.121-15.882,13.88-19.057,26.148
		c23.015-19.571,47.755-26.197,75.181-11.662c13.506,7.158,19.133,19.488,18.411,34.45c-0.633,13.103-6.214,22.78-19.597,27.405
		c-35.518,12.274-52.233,38.423-45.454,75.228c10.498,56.998,43.22,95.422,100.078,110.963
		c59.786,16.342,120.272,11.978,180.753,4.804c-21.717-0.963-43.477-0.327-65.187-1.095c-44.604-1.578-88.319-9.021-128.583-28.829
		c-24.766-12.183-43.216-31.045-40.718-62.171c2.023-25.21,22.04-47.459,49.724-55.761c27.562-8.265,53.502,1.767,61.208,24.261
		c-2.513-0.251-4.741-0.383-6.941-0.708c-23.511-3.472-35.825,1.641-39.84,16.577c-3.836,14.27,4.813,27.219,25.049,36.139
		c15.266,6.729,31.225,11.452,47.604,14.867c84.846,17.689,169.218,11.087,253.389-4.835
		c119.306-22.568,239.187-40.719,360.986-39.132c150.791,1.966,280.353,50.807,374.443,174.96
		c18.238,24.066,41.648,42.632,65.993,60.092c2.938,2.107,5.976,4.263,9.038,1.054c2.419-2.535,0.428-5.687-1.152-7.768
		c-5.206-6.851-10.901-13.328-16.287-20.046c-8.954-11.169-20.75-20.203-26.826-33.5c-8.755-19.161-0.701-31.964,19.636-30.351
		c9.317,0.74,9.061-4.415,9.666-10.12c1.848-17.461,8.085-33.451,16.62-48.556c11.398-20.17,15.035-20.291,26.377-0.895
		c9.371,16.025,16.118,33.02,16.874,51.913c0.26,6.496-0.677,12.434,10.319,9.196c13.824-4.07,21.049,3.2,20.922,17.94
		c-0.096,11.113-5.744,19.656-12.675,27.556c-8.714,9.931-17.861,19.498-26.259,29.685c-3.315,4.021-10.403,8.829-5.163,14.426
		c4.371,4.669,9.3-1.724,13.25-4.267c23.868-15.367,45.122-33.977,62.178-56.593c69.023-91.525,161.892-142.727,273.5-161.271
		c92.352-15.344,184.576-5.773,276.597,5.184c81.099,9.657,160.191,31.341,241.217,41.141c72.844,8.811,145.64,9.8,217.133-11.197
		c11.114-3.264,21.732-7.437,31.102-14.387c11.106-8.238,17.875-18.717,12.331-32.612c-5.623-14.094-17.942-16.44-31.582-14.528
		c-4.441,0.622-8.697,3.382-13.372,1.114c-0.991-4.111,1.99-6.347,4.322-8.739c20.702-21.235,61.891-19.199,85.884,4.187
		c23.958,23.352,24.463,59.966,0.994,83.455c-9.899,9.907-21.89,16.676-34.783,21.903c-33.417,13.548-68.399,19.47-104.222,20.976
		c-28.664,1.205-57.293-0.018-86.025-2.248c2.405,1.796,4.926,2.847,7.55,3.296c50.72,8.671,101.806,11.669,152.757,4.14
		c74.242-10.971,119.776-53.975,129.489-118.688c4.942-32.926-12.822-65.772-43.566-69.397
		c-16.271-1.918-22.745-14.395-23.169-29.729c-0.581-21.052,16.678-37.062,40.361-38.774c20.412-1.475,37.202,7.803,57.805,21.08
		c-11.489-21.448-27.52-30.617-41.489-41.897c-5.208-4.205-13.347-7.033-13.107-14.849c0.308-10.018,12.138-2.239,15.814-8.166
		c-1.664-5.608-5.849-8.825-9.747-12.13c-28.247-23.947-57.43-40.81-94.77-17.033c-9.676,6.162-7.732-4.472-7.466-8.903
		c1.148-19.152,19.205-38.217,42.308-45.293c41.992-12.861,114.671-0.573,143.112,49.652c1.356,2.395,2.682,5.063,7.398,4.339
		c-2.654-14.974-11.231-27.222-17.518-40.42c-2.645-5.553-7.092-11.495-2.44-17.662c5.143-6.818,12.572-4.062,19.161-2.599
		c20.839,4.627,38.708,13.891,51.13,32.232c9.088,13.419,20.246,24.949,34.335,33.417c30.576,18.38,69.801,15.859,93.101-6.129
		c26.053-24.585,34.208-71.995,17.545-101.996c-12.34-22.218-42.65-33.674-59.891-22.722c-8.28,5.26-10.501,12.164-5.014,20.386
		c5.462,8.184,12.049,8.633,17.604,0.1c2.317-3.559,4.385-5.443,7.915-2.743c4.246,3.247,7.522,7.398,5.227,13.297
		c-2.352,6.047-6.349,10.799-11.822,14.416c-21.265,14.057-51.812,3.507-61.416-21.286c-12.127-31.304,3.75-64.938,36.419-76.449
		c7.668-2.702,15.772-4.169,23.918-6.266c-3.084-7.005-8.117-10.085-12.778-13.207c-24.49-16.405-50.389-29.863-79.267-36.929
		c-14.028-3.432-15.418-8.021-6.306-19.626c8.352-10.637,19.647-12.769,32.376-12c11.896,0.719,22.697,6.202,36.202,9.318
		c-12.979-42.523-17.688-81.975,18.637-113.185c16.81-14.442,36.845-16.05,58.771-9.909c-29.482,24.982-29.473,48.287-0.283,71.035
		c9.533,7.43,12.684,15.139,8.878,26.719c-3.622,11.02-5.496,22.459,1.229,33.518c5.446-2.694,4.703-6.763,6.187-9.709
		c7.63-15.151,21.574-22.778,36.482-19.924c15.425,2.954,27.316,16.217,28.113,32.756c0.354,7.354-1.115,14.835-2.133,22.207
		C3861.526,1904.925,3854.852,1922.364,3855.54,1945.371z M3137.055,557.737c3.746-1.125,7.504-2.209,11.235-3.381
		c83.656-26.275,169.076-37.469,256.706-30.486c135.816,10.823,236.237,98.6,259.571,226.661
		c7.217,39.609,4.981,78.71-3.525,118.219c19.384-37.076,43.599-71.375,55.339-111.85c6.835-23.567,6.35-24.013-16.953-27.036
		c-3.972-0.515-7.919-1.468-11.774-2.578c-7.087-2.041-13.014-6.029-13.234-13.944c-0.206-7.378,6.008-10.485,11.85-13.254
		c25.897-12.276,27.35-17.003,13.06-42.53c-2.806-5.013-5.657-10-8.513-14.984c-58.201-101.546-145.386-156.213-262.764-158.153
		C3324.874,482.715,3230.208,518.945,3137.055,557.737z M1383.347,549.75c-5.19-4.284-6.146-5.568-7.407-6.043
		c-75.707-28.487-150.422-60.109-231.95-69.363c-131.179-14.89-252.153,32.434-319.8,158.158
		c-16.848,31.313-17.223,31.094,11.495,50.166c4.787,3.179,10.399,6.289,9.015,13.244c-1.421,7.141-5.345,12.856-13.205,14.151
		c-5.077,0.836-10.498,2.176-15.366,1.231c-17.726-3.44-17.552,6.126-14.765,18.669c9.172,41.264,34.061,74.562,54.223,111.941
		c4.086-7.298,1.028-12.07-0.025-16.749C828.129,703.227,909.075,571.12,1022.19,531.32
		c77.693-27.336,156.933-24.915,236.649-12.615C1299.556,524.987,1339.422,535.196,1383.347,549.75z M1361.197,2439.01
		c-2.093,0.114-4.317-0.197-6.26,0.404c-45.749,14.148-92.737,21.743-140.348,24.915c-68.712,4.578-136.743,1.838-201.313-25.989
		c-108.39-46.711-175.376-158.116-161.383-268.377c1.712-13.489,4.878-26.794,7.37-40.185
		c-19.039,30.848-41.253,59.644-52.776,94.071c-9.736,29.088-8.813,29.647,20.163,36.221c7.632,1.731,17.038,2.856,18.13,12.916
		c1.114,10.266-7.075,14.907-14.82,19.048c-2.509,1.341-5.312,2.164-8.031,3.072c-11.045,3.691-13.891,10.306-9.095,21.273
		c7.18,16.419,16.684,31.481,26.273,46.427c44.799,69.819,104.85,117.619,188.926,131.635c43.457,7.245,86.765,8.428,130.341,2.841
		C1228.849,2488.247,1295.481,2465.577,1361.197,2439.01z M3658.813,2146.929c-1.596,0.487-3.193,0.974-4.789,1.461
		c0.426,2.683,0.651,5.416,1.305,8.043c31.144,125.205-46.889,263.739-175.903,304.264c-71.235,22.377-143.727,21.02-216.604,10
		c-40.193-6.078-79.406-16.447-118.48-27.463c39.85,22.45,147.367,57.201,209.259,66.155
		c145.541,21.056,264.85-23.964,334.179-157.569c15.257-29.402,15.507-29.259-11.457-49.46c-4.164-3.12-8.444-6.212-7.41-12.489
		c1.072-6.514,5.129-10.08,11.315-11.369c3.927-0.819,7.917-1.42,11.908-1.83c19.969-2.05,21.38-3.251,16.994-23.405
		C3700.552,2213.844,3674.24,2183.058,3658.813,2146.929z M4151.289,1550.009c-79.345,3.225-179.325,58.864-201.51,169.401
		c-14.765,73.563,3.053,143.618,31.295,211.471c3.082,7.404,6.656,14.636,10.481,21.689c3.794,6.994,8.193,13.659,12.327,20.469
		c-16.894-42.086-32.092-84.014-35.941-129.178c-4.726-55.428-4.881-110.611,21.407-161.675
		C4024.002,1614.868,4079.635,1572.419,4151.289,1550.009z M4016.964,1018.199c-34.669,58.737-59.296,121.172-66.379,189.322
		c-5.583,53.714,0.855,105.503,31.912,151.858c39.829,59.447,96.727,88.685,167.864,96.405c-1.263-2.177-1.426-2.891-1.784-3.007
		c-4.335-1.408-8.764-2.55-13.048-4.097c-86.353-31.178-143.509-89.623-162.124-180.571c-11.987-58.57-2.088-116.602,14.758-173.371
		C3995.932,1068.56,4006.403,1043.352,4016.964,1018.199z M512.405,1014.795c-3.204,9.293,0.069,13.2,1.651,17.244
		c23.013,58.816,30.103,119.928,26.979,182.603c-2.677,53.717-22.599,100.346-57.675,140.687
		c-31.483,36.208-70.334,61.648-115.292,77.911c80.842-11.023,143.201-50.516,175.529-126.304
		C586.538,1206.274,553.835,1111.532,512.405,1014.795z M357.67,1529.114c5.957,2.251,9.602,3.693,13.291,5.012
		c82.822,29.62,141.115,84.189,162.62,170.615c17.113,68.774,11.104,138.008-11.13,205.522c-1.924,5.843-3.771,11.712-5.654,17.569
		c28.107-41.683,46.799-121.612,45.492-183.45C559.806,1626.857,477.994,1539.798,357.67,1529.114z M3730.573,815.521
		c3.021,1.752,3.938,2.619,4.986,2.827c2.801,0.555,5.657,0.827,8.491,1.213c38.65,5.254,75.823,12.791,98.617,50.091
		c5.022,8.219,11.244,1.091,14.29-4.309c7.054-12.51,5.471-25.464-0.096-38.082c-8.563-19.41-22.138-34.698-39.313-46.948
		c-17.865-12.742-28.969-13.12-47.328-1.698C3754.958,788.112,3742.713,800.703,3730.573,815.521z M770.866,797.446
		c3.539-1.527,11.911,5.81,14.711-2.219c1.861-5.339-5.488-9.418-9.463-13.281c-9.041-8.785-18.07-17.713-28.022-25.393
		c-10.547-8.139-22.911-11.091-35.629-5.025c-24.597,11.732-44.13,28.836-54.587,54.7c-4.655,11.512-6.206,23.544-0.468,35.064
		c4.243,8.519,9.219,13.168,17.188,1.908C697.492,810.848,731.419,800.57,770.866,797.446z M3721.096,2190.362
		c11.817,16.358,24.776,28.764,39.107,40.015c10.662,8.37,21.569,9.302,33.634,3.681c26.884-12.526,44.594-33.404,54.982-60.688
		c3.549-9.322,3.919-19.642-1.057-28.339c-3.776-6.598-8.544-14.102-17.057-1.468c-12.493,18.541-31.889,28.931-52.675,36.597
		C3760.313,2186.694,3741.587,2187.875,3721.096,2190.362z M785.485,2173.232c-3.742-2.449-9.027-0.216-13.95-1.007
		c-34.925-5.615-69.143-12.697-92.321-43.38c-2.836-3.753-3.517-10.843-10.717-8.799c-5.503,1.562-7.689,6.691-9.322,11.636
		c-2.415,7.312-2.365,15.072,0.075,22.099c9.849,28.365,28.123,49.83,55.431,62.62c12.984,6.082,26.387,4.522,36.808-5.802
		C763.268,2198.931,773.885,2186.092,785.485,2173.232z M831.08,505.13c4.53,1.289,6.504-0.611,8.456-2.87
		c21.979-25.434,50.678-40.858,80.764-54.256c54.917-24.454,112.491-24.849,170.79-19.195c4.039,0.392,10.414,3.994,11.585-2.545
		c1.212-6.769-5.846-5.465-9.9-6.048c-29.021-4.177-58.211-6.917-87.523-5.478c-59.642,2.927-113.961,19.961-158.083,62.398
		C839.131,484.868,831.087,492.825,831.08,505.13z M3686.989,523.475c2.716-7.612-2.387-12.748-6.552-17.845
		c-10.593-12.968-22.946-24.101-36.724-33.629c-68.629-47.459-144.972-48.819-223.446-37.329c-3.315,0.485-7.553,1.065-6.409,5.824
		c1.068,4.442,5.37,3.426,8.654,3.173c13.156-1.015,26.278-2.652,39.45-3.243c82.292-3.693,155.648,17.376,214.581,78.047
		C3679.221,521.231,3681.553,525.101,3686.989,523.475z M3409.349,2548.426c4.04,9.084,8.621,9.385,13.042,9.697
		c34.979,2.463,70.01,4.72,104.934-0.053c53.702-7.34,102.104-26.636,141.321-65.333c5.583-5.509,12.856-10.783,12.383-24.19
		C3602.608,2539.67,3511.496,2559.197,3409.349,2548.426z M1103.146,2538.902c-0.849-0.743-1.227-1.358-1.674-1.415
		c-2.21-0.277-4.459-0.697-6.658-0.546c-94.415,6.462-182.244-8.512-253.532-77.615c-2.355-2.284-5.197-5.75-8.451-1.739
		c-2.859,3.525,0.461,6.365,2.645,8.85c11.764,13.39,23.74,26.583,38.966,36.244c69.059,43.818,144.938,51.119,223.911,41.703
		C1100.668,2544.108,1102.642,2542.92,1103.146,2538.902z M3528.036,790.961c38.662-22.177,46.216-86.583,15.841-123.357
		C3549.85,709.657,3566.585,753.686,3528.036,790.961z M3540.482,2327.208c23.125-39.276,17.798-89.748-11.062-104.816
		C3548.891,2263.208,3549.92,2272.968,3540.482,2327.208z M975.176,657.546c-24.704,41.165-15.445,103.66,14.92,110.454
		C961.048,735.289,968.658,697.029,975.176,657.546z M972.081,2307.44c-5.051-36.437-9.548-71.469,14.185-102.639
		C957.464,2224.946,950.693,2274.434,972.081,2307.44z"/>
</g>
</svg>
