<?xml version="1.0" encoding="iso-8859-1"?>
<!-- Generator: Adobe Illustrator 25.0.0, SVG Export Plug-In . SVG Version: 6.00 Build 0)  -->
<svg version="1.1" id="Layer_1" xmlns="http://www.w3.org/2000/svg" xmlns:xlink="http://www.w3.org/1999/xlink" x="0px" y="0px"
	 viewBox="0 0 1392.868 992.071" style="enable-background:new 0 0 1392.868 992.071;" xml:space="preserve">
<g id="_x28_24_x29__1_">
	<path fill="FRAME_COLOR" d="M1007.32,801.793c6.194,7.622,7.681,15.85,5.734,24.818c-0.387,1.781,0.783,3.158,1.715,4.542
		c5.735,8.517,14.37,11.414,23.996,12.349c1.439,0.14,2.904,0.019,4.465,0.502c-4.824,3.838-10.645,4.918-16.43,5.555
		c-14.432,1.59-27.521-1.576-36.447-13.854c-10.125-13.927-8.778-29.117-2.802-44.288c2.382-6.048,6.237-11.239,10.347-16.236
		c-11.104,6.416-18.98,14.967-20.381,28.509c-1.507,14.564-10.84,21.55-24.241,17.994c5.718-4.425,6.972-10.909,9.246-16.87
		c3.057-8.01,8.818-14.03,14.555-20.08c1.23-1.297,2.461-2.593,3.433-4.257c-4.685,1.203-8.696,3.66-12.699,6.111
		c-11.667,7.145-23.305,14.354-37.127,16.685c-8.701,1.468-17.419,2.839-26.12,4.31c-2.13,0.36-4.265,0.804-6.324,1.444
		c-11.427,3.551-14.862,9.642-12.005,21.114c-8.491-0.005-18.319-10.348-17.676-18.602c0.493-6.339,5.277-10.759,12.017-11.069
		c5.244-0.241,10.211,1.289,15.248,2.4c5.872,1.296,11.724,1.661,18.265-1.001c-10.99-2.454-21.114-5.295-31.432-6.858
		c-10.77-1.632-20.247,2.829-28.967,8.801c-2.194,1.503-4.025,3.697-7.087,2.109c-3.039-1.576-4.391-4.376-4.06-7.452
		c0.477-4.431-1.293-3.943-4.467-3.09c-12.039,3.236-22.034,9.304-28.961,19.897c-3.221,4.926-4.693,10.297-3.641,16.172
		c1.62,9.05,11.636,14.729,20.284,11.572c6.55-2.392,8.612-6.869,7.198-15.63c4.381,4.983,3.62,12.486-2.072,16.976
		c-7.081,5.585-15.088,6.098-23.114,2.6c-7.638-3.329-12.051-9.555-12.316-17.943c-0.467-14.76,6.986-25.477,18.831-33.178
		c19.404-12.615,40.597-14.915,62.856-9.696c3.183,0.746,6.378,1.445,10.121,2.291c-0.546-1.845-1.289-3.096-1.209-4.293
		c0.545-8.129-5.01-11.279-11.184-13.828c-35.748-14.761-71.513-14.999-106.471,1.841c-14.683,7.073-24.446,19.369-27.097,36.203
		c-0.901,5.721-0.751,11.231,4.625,16.223c-6.634-1.085-9.757-4.689-11.314-9.734c-3.845-12.461-0.032-22.869,8.819-31.904
		c14.154-14.447,31.551-22.503,51.176-26.275c23.277-4.474,46.365-4.29,69.2,2.66c0.611,0.186,1.276,0.197,1.981,0.298
		c0.201-1.503-1.016-1.458-1.7-1.848c-0.717-0.409-1.531-0.648-2.306-0.953c-34.501-13.577-67.588-9.347-99.584,8.012
		c-7.496,4.067-14.275,9.173-20.533,14.986c-10.923,10.146-15.666,22.939-15.949,37.532c-0.183,9.441,2.468,12.877,9.984,13.993
		c6.803,1.01,12.115-2.8,14.583-10.458c4.491,8.769-2.089,20.65-12.588,22.728c-13.349,2.641-25.209-5.777-26.955-19.313
		c-1.933-14.99,2.351-28.442,11.063-40.463c26.62-36.734,79.836-55.256,123.457-43.215c13.459,3.715,25.533,10.491,37.777,16.893
		c11.116,5.811,31.951,10.562,43.748,9.744c-2.359-1.883-4.681-3.409-6.601-5.334c-4.823-4.835-5.426-12.572-1.568-17.334
		c2.764-3.412,7.435-4.354,10.145-2.021c1.531,1.318,2.225,3.037,1.426,4.912c-0.831,1.949-2.303,1.234-3.767,0.563
		c-2.507-1.149-2.926,0.676-2.956,2.446c-0.058,3.429,2.299,5.42,4.813,7.121c5.11,3.458,11.017,4.586,16.975,5.477
		c16.199,2.422,31.045-0.042,41.421-7.209c-7.415,3.23-15.109,3.755-23.006,2.962c-18.531-1.859-26.11-9.467-27.505-27.896
		c-0.22-2.901-0.283-5.813,0.101-9.102c5.899,7.116,14.197,9.219,22.073,12.18c7.746,2.913,12.429,11.204,21.374,12.227
		c-5.23-2.668-8.616-6.759-10.551-12.273c-0.952-2.713-0.356-3.425,2.37-3.732c7.443-0.84,14.612-0.072,21.572,2.74
		c1.306,0.528,2.415,1.879,4.54,1.077c-6.354-4.394-10.972-9.982-14.45-16.531c-6.242-11.753-5.199-26.798,2.486-35.803
		c8.537-10.003,21.863-13.534,34.469-9.108c0.738,0.259,1.411,0.704,3.129,1.58c-7.896,0.671-13.618,3.655-18.301,8.572
		c-4.07,4.273-4.285,7.188,0.081,11.095c7.27,6.506,9.682,13.858,6.389,23.295c-1.892,5.421,2.19,14.673,6.966,17.549
		c1.61,0.969,3.312,1.538,5.407-0.136c-1.177-1.264-3.44-0.598-4.27-2.929c7.576-3.973,10.488-11.511,13.681-19.077
		c4.078-9.662,11.646-15.897,21.901-18.015c13.346-2.756,26.519-1.205,39.364,3.23c0.78,0.269,1.511,0.702,2.227,1.123
		c0.42,0.247,0.764,0.624,2.079,1.73c-23.225,9.128-29.54,30.537-38.675,50.72c2.727-0.095,3.878-1.546,5.104-2.746
		c4.723-4.621,8.152-10.103,10.436-16.278c3.628-9.809,10.146-17.509,17.671-24.484c1.596-1.48,3.491-3.232,5.72-2.058
		c2.412,1.271,0.223,3.601,0.485,5.414c1.127,7.791-5.19,12.648-8.053,19.487c2.247-1.034,2.957-2.567,4.027-3.751
		c0.806-0.892,1.451-2.761,2.988-1.677c1.519,1.071,1.679,2.926,0.365,4.397c-2.481,2.778-2.792,6.326-3.669,9.671
		c-0.269,1.025-1.018,2.48,0.644,2.936c1.219,0.334,1.568-0.962,1.886-1.869c1.513-4.313,2.383-9.013,7.613-10.774
		c1.135-0.382,1.652-1.71,1.172-2.97c-0.553-1.451-1.643-0.477-2.509-0.366c-0.983,0.126-1.526-0.102-1.592-1.24
		c-0.297-5.093-1.699-10.233,0.954-15.162c0.701-1.302,1.338-2.706,0.977-4.297c-0.787-3.462,0.593-5.389,4.087-6.021
		c2.833-0.513,3.425-3.958,6.083-4.844c1.882-0.627,3.743-1.949,5.248,0.515c1.468,2.404-0.26,3.665-1.871,4.921
		c-0.39,0.304-0.903,0.452-1.283,0.765c-2.642,2.172-9.059,1.21-8.652,3.335c1.601,8.36-4.731,17.124,1.459,25.036
		c0.745,0.953,1.366,2.127,2.73,1.322c1.174-0.693,0.561-1.853,0.021-2.615c-4.316-6.086-1.549-12.542-1.033-18.868
		c0.104-1.279,0.287-3.027,2.056-2.928c4.408,0.247,7.74-3.998,12.368-2.776c0.969,0.256,2.479-0.584,2.321-1.405
		c-0.411-2.13-0.774-4.935-2.241-6.073c-4.906-3.805-0.79-4.197,1.64-4.528c6.876-0.936,10.886-6.143,15.877-10.091
		c-7.259,3.237-14.061,7.622-22.945,7.541c1.885-3.86,4.593-6.514,7.195-9.202c12.439-12.853,27.161-21.962,44.574-26.307
		c10.101-2.52,19.464-0.85,27.617,6.18c3.394,2.927,6.95,5.781,10.8,8.042c8.296,4.871,16.631-0.013,16.849-9.621
		c0.094-4.133,1.96-7.112,5.928-8.295c4.537-1.353,8.623-0.39,11.621,3.535c3.605,4.72,3.187,11.607-0.877,16.669
		c-5.592,6.966-13.499,9.028-21.76,9.546c-6.608,0.414-12.536,3.106-20.331,4.104c5.842,3.518,5.542,8.888,7.289,13.923
		c-4.717-4.852-10.646-0.779-15.511-2.502c-0.529,5.755,0.055,11.378,6.966,13.858c0.395,0.142,0.985,0.867,0.899,1.055
		c-2.349,5.182,2.461,6.864,4.833,9.542c2.261,2.553,1.743,4.671-0.46,6.371c-4.834,3.732-5.242,7.356-1.426,12.316
		c2.816,3.659,3.837,8.43,5.256,12.889c1.064,3.341,0.292,4.329-3.033,3.356c-1.278-0.374-2.534-0.834-3.827-1.145
		c-10.255-2.464-15.808,0.76-18.614,11.218c-6.091-4.634-13.163-2.914-20.946-3.723c5.389,3.373,7.248,8.076,8.185,12.889
		c0.641,3.295,2.191,3.117,4.451,2.731c4.542-0.776,8.356-3.134,12.229-5.46c13.131-7.885,23.365-7.166,34.339,2.281
		c1.622,1.396,3.279,2.798,4.058,5.517c-6.824-1.994-11.881,0.631-16.662,4.804c-6.945,6.062-14.941,6.898-23.386,3.59
		c-5.435-2.128-10.646-4.736-15.452-8.101c-1.442-1.01-2.792-2.445-5.349-1.51c6.705,9.393,15.197,16.108,25.589,20.511
		c3.527,1.494,7.059,2.975,10.575,4.496c12.432,5.378,18.346,15.382,19.885,28.361c0.351,2.963,0.357,6.005,0.159,8.987
		c-0.769,11.624,0.571,22.588,10.301,32.079c-4.652-0.78-7.404-2.599-9.771-4.87c-5.319-5.105-11.177-9.464-17.409-13.366
		c-13.4-8.389-21.01-20.476-23.354-36.093c-1.47-9.791-4.3-19.176-10.028-27.452c-0.548-0.791-1.198-1.512-2.68-2.004
		c0.69,3.22,1.378,6.441,2.07,9.661c3.54,16.456,0.285,30.736-13.238,41.816c-3.881,3.18-7.686,6.504-8.316,12.013
		c-0.605-0.262-1.072-0.32-1.138-0.514c-3.628-10.669-6.221-21.474-2.369-32.625c1.994-5.772,6.206-9.635,11.697-12.381
		c7.271-3.635,10.721-9.388,9.956-15.797c-0.205-1.72,0.07-3.963-3.08-2.796c-1.624,0.602-4.856-1.719-4.12,2.636
		c0.163,0.965-0.016,1.995-0.093,2.991c-0.446,5.801-1.182,6.642-6.717,5.244c-3.876-0.979-5.655,0.228-6.503,3.773
		c-1.139,4.759-3.894,8.816-5.74,13.266c-1.035,2.495-2.067,2.498-3.877,0.697c-3.066-3.052-6.519-5.741-9.384-8.961
		c-1.682-1.891-2.95-2.582-4.863-0.793c-2.373,2.219-4.056,1.8-6.061-0.744c-2.31-2.933-3.451-7.477-9.529-5.49
		c-2.217,0.725-3.792-4.459-4.943-7.285c-2.125-5.22-2.485-5.573-7.052-2.131c-1.865,1.406-2.635,0.234-3.79-0.584
		c-6.985-4.943-9.96-11.811-9.766-20.23c0.065-2.818,0.01-5.639,0.01-8.185c-2.634,11.201-1.049,21.518,8.123,29.831
		c0.997,0.904,1.871,1.954,0.76,3.444c-3.383,4.54-4.599,9.794-4.611,15.912c-3.852-1.744-6.853-3.643-8.989-6.556
		c-7.818,6.747-12.206,14.852-12.922,25.395c-0.632,9.315-6.142,14.851-13.737,16.292c-1.635,0.31-3.241,0.676-5.239-0.714
		c10.662-7.845,9.501-18.544,7.552-29.427c-1.673-9.341-3.705-18.626-4.162-28.149c-0.557-11.615,3.762-21.823,8.858-32.05
		c-4.36,3.045-8.594,6.134-11.456,10.811c-2.437,3.982-4.957,7.928-9.144,10.401c-4.183,2.471-8.698,2.431-10.396-0.474
		c-2.283-3.905-0.853-7.46,2.019-10.411c2.344-2.409,5.064-3.97,8.774-3.944c5.235,0.037,10.188-1.215,14.057-6.6
		c-6.069,0.654-11.462-0.891-16.894,3.049c-1.875,1.36-6.218,0.852-9.225,2.576c-13.788,7.903-14.758,22.301-1.945,31.819
		c1.912,1.42,1.707,2.573,0.62,4.112c-2.342,3.315-5.802,4.188-9.6,4.45C1012.406,801.58,1010.273,800.605,1007.32,801.793z
		 M1026.056,747.442c-9.818,2.096-19.096,4.478-27.571,9.356c-6.349,3.654-12.594,7.521-19.121,10.827
		c-22.119,11.202-45.791,13.362-70.083,11.497c-5.312-0.408-10.611-0.976-15.919-1.435c-1.765-0.153-3.434,0.26-4.224,1.989
		c-0.832,1.821,0.381,3.244,1.545,4.399c1.411,1.399,2.917,2.801,4.621,3.79c15.708,9.116,32.01,9.191,50.05,3.002
		c-24.984-0.235-28.182-0.811-34.854-6.503c18.253,4.902,34.918,0.796,51.372-4.994c21.609-7.605,41.204-19.496,61.815-29.226
		C1024.526,749.747,1025.635,749.484,1026.056,747.442z M1142.253,743.41c0.398-0.308,0.795-0.615,1.193-0.923
		c-1.619-2.823-3.321-5.602-4.836-8.479c-2.106-3.999-1.301-5.326,3.043-5.175c1.075,0.037,2.047,0.005,2.419-1.157
		c0.427-1.336-0.497-2.918-1.388-2.694c-4.254,1.069-4.496-2.614-5.962-4.714c-3.46-4.956-8.728-6.939-14.044-8.903
		c-0.625-0.231-1.165-0.479-1.823,0.036c-2.677,2.097-3.828,8.595-1.903,11.599c1.619,2.527,3.701,4.603,6.088,6.491
		C1130.828,734.07,1140.007,734.143,1142.253,743.41z M1131.862,705.343c4.697,1.677,8.298,4.94,12.457,7.218
		c5.261,2.883,10.569,5.688,16.453,7.073c1.789,0.421,4.312,1.72,5.229-0.929c0.77-2.224-1.761-2.91-3.222-3.796
		c-6.496-3.941-13.849-5.631-21.066-7.558C1138.487,706.49,1135.554,704.175,1131.862,705.343z M1114.515,745.357
		c-0.07,0-0.139,0-0.209,0c-0.008,0.166-0.025,0.332-0.022,0.497c0.175,8.215,1.424,16.187,5.45,23.502
		c0.536,0.974,1.168,2.36,2.559,1.828c1.599-0.611,0.557-2.019,0.359-3.021c-0.544-2.764-1.245-5.497-1.888-8.242
		c-1.631-6.958-2.672-13.994-2.95-21.145c-0.048-1.244-0.054-2.982-1.996-2.723c-1.525,0.204-1.278,1.708-1.295,2.836
		C1114.493,741.045,1114.515,743.201,1114.515,745.357z M1152.889,693.048c-5.68,0.113-11.255,0.811-16.74,2.188
		c-1.146,0.288-3.068,0.051-2.649,2.066c0.297,1.43,1.83,1.194,2.951,1.127c8.916-0.529,17.759-2.234,26.75-1.634
		c0.734,0.049,1.822,0.129,1.976-0.965c0.189-1.347-1.077-1.675-1.922-1.783C1159.813,693.608,1156.347,693.364,1152.889,693.048z
		 M1106.268,732.395c-3.249,9.69-6.905,19.288-6.789,29.739C1103.696,752.663,1106.807,742.942,1106.268,732.395z M1125.162,738.74
		c2.24,8.119,6.414,15.198,11.842,21.579c0.325,0.382,1.387,0.642,1.732,0.407c1.101-0.746,0.488-1.827-0.003-2.623
		c-4.01-6.507-7.31-13.381-10.648-20.239c-0.389-0.8-0.812-2.051-2.138-1.371C1125.125,736.916,1125.084,737.827,1125.162,738.74z
		 M1223.732,671.142c6.559,1.287,11.227-0.181,14.191-4.204c-1.188,0.187-2.314,0.527-3.43,0.5
		c-1.709-0.041-2.174-1.259-0.951-2.231c6.742-5.358-0.485-4.239-2.798-6.438C1230.886,664.672,1227.474,667.673,1223.732,671.142z
		 M1013.698,744.634c-6.808-0.07-10.871,3.363-15.19,6.104C1003.154,748.871,1007.8,747.004,1013.698,744.634z"/>
	<path fill="FRAME_COLOR" d="M162.697,207.622c4.793-0.111,8.121-1.52,10.527-4.538c9.879-12.391,26.766-12.538,41.339-3.946
		c1.375,0.811,2.393,2.324,4.76,2.222c-2.284-6.402-6.534-10.715-12.052-13.981c-3.911-2.315-8.211-3.596-12.536-4.867
		c-16.958-4.984-26.308-16.883-27.287-34.581c-0.239-4.326-0.444-8.656-0.774-12.975c-0.683-8.953-3.425-15.279-10.591-24.355
		c3.54,0.53,5.835,2.371,7.89,4.445c5.912,5.968,12.667,10.807,19.873,15.035c14.149,8.302,23.092,20.184,26.264,36.493
		c1.805,9.28,4.06,18.539,10.05,27.53c0.797-3.695,0.503-6.527-0.018-9.323c-2.912-15.627,0.089-29.384,12.08-40.671
		c4.076-3.837,7.897-8.049,10.954-14.611c2.42,10.606,5.703,19.531,4.4,29.11c-1.146,8.426-6.313,13.946-13.603,17.997
		c-9.028,5.016-11.306,10.091-9.803,20.133c0.287,1.916,0.036,2.588,3.236,2.44c6.053-0.28,5.815-3.28,6.057-7.438
		c0.475-8.169,0.708-8.346,8.933-7.477c2.439,0.258,3.184-0.61,3.884-2.606c1.32-3.767,3.032-7.398,4.307-11.178
		c0.854-2.532,1.792-3.231,4.185-1.53c3.667,2.607,7.606,4.89,10.25,8.652c1.326,1.886,2.83,2.975,5.005,1.782
		c3.517-1.929,5.554-0.072,7.569,2.49c1.701,2.161,2.91,5.707,6.863,2.867c0.888-0.638,1.866,0.162,2.54,1.009
		c9.543,11.988,20.056,23.519,18.872,40.534c1.84-8.812,0.283-16.386-5.962-25.803c-2.632-3.968-4.074-7.062-0.242-11.254
		c3.823-4.183,4.787-9.666,3.923-15.277c2.368-0.343,3.993,0.564,4.941,1.766c3.699,4.692,5.282,1.881,7.643-1.459
		c4.488-6.348,7.665-12.895,8.965-20.788c2.238-13.587,13.856-17.729,21.679-13.625c-0.487,1.578-2.116,1.255-3.16,1.865
		c-6.251,3.654-9.842,8.698-9.37,16.305c0.479,7.723,2.518,15.117,4.449,22.515c4.765,18.253,4.132,35.642-7.332,51.546
		c-0.362,0.502-0.844,1.074-0.117,2.049c4.943-2.275,8.267-6.268,11.092-10.759c2.561-4.071,4.501-8.571,8.489-11.616
		c3.171-2.42,6.541-4.218,10.608-2.828c2.205,0.754,3.384,2.569,3.381,5.045c-0.007,4.763-2.741,7.645-6.59,9.819
		c-2.449,1.383-5.134,1.283-7.794,1.308c-4.349,0.041-7.378,2.219-10.262,6.147c4.33-0.044,8.105,1.325,11.321-1.812
		c1.314-1.281,2.092-0.428,2.42,0.93c0.533,2.205,1.727,2.538,3.672,1.64c12.805-5.913,19.826-14.784,15.675-29.811
		c-1.087-3.936-3.093-7.094-7.345-8.01c-3.18-0.685-2.832-1.982-1.145-3.999c4.362-5.213,10.142-4.96,15.989-4.095
		c1.002-1.706-0.38-2.646-0.851-3.731c-2.708-6.242-4.351-12.612-2.669-19.432c0.725-2.941-0.448-5.163-2.373-7.21
		c-6.89-7.325-15.199-11.551-25.512-11.87c12.114-6.044,24.452-9.237,37.569-3.565c12.389,5.357,18.704,15.201,19.664,28.405
		c1.239,17.049-3.984,31.852-16.348,43.914c-1.069,1.043-2.181,2.043-3.582,3.351c10.173-2.926,22.283-17.014,24.873-28.737
		c0.824-3.731,1.128-7.575,1.884-11.324c2.028-10.054,11.208-15.708,21.076-13.183c2.23,0.571,2.582,1.438,0.744,2.807
		c-4.754,3.54-6.447,8.668-7.744,14.114c-1.716,7.205-6.095,12.882-10.987,18.192c-3.257,3.535-6.631,6.963-10.179,10.677
		c1.71,0.625,2.695-0.37,3.681-0.946c6.328-3.697,12.891-7.07,18.867-11.275c14.477-10.187,30.812-13.724,48.057-14.711
		c5.642-0.323,11.303-1.025,16.855-2.08c10.628-2.019,15.808-11.675,11.793-21.419c9.018,0.254,19.052,12.364,17.462,21.073
		c-1.031,5.645-5.494,9.204-11.868,9.355c-4.23,0.1-8.221-1.089-12.186-2.424c-6.587-2.218-13.253-3.138-20.154-0.526
		c12.605,2.199,23.972,9.598,37.219,8.805c7.647-0.458,14.497-3.641,20.571-8.31c2.327-1.789,4.544-3.573,7.621-1.741
		c2.845,1.694,4.492,4.363,3.914,7.518c-0.743,4.055,0.786,4.002,3.904,3.234c12.917-3.181,23.989-9.138,31.192-20.753
		c5.551-8.953,4.178-18.721-3.06-24.282c-5.46-4.195-12.716-4.459-17.616-0.586c-4.364,3.449-5.903,7.857-3.912,13.73
		c-4.492-5.095-3.247-12.618,2.632-16.935c6.88-5.052,14.554-5.824,22.242-2.343c7.881,3.568,12.638,9.881,12.81,18.741
		c0.277,14.263-7.41,24.338-18.603,31.746c-18.235,12.069-38.28,14.546-59.373,9.497c-4.679-1.12-9.295-2.5-13.967-3.768
		c-1.578,8.702,2.604,13.803,9.658,17.398c24.476,12.477,50.352,15.552,77.283,11.643c11.456-1.663,22.456-4.822,32.743-10.231
		c12.141-6.385,20.664-16.117,26.058-28.614c3.762-8.716,2.54-16.333-3.211-21.914c3.969-0.487,6.496,0.411,8.889,4.143
		c5.202,8.114,5.515,16.781,1.006,25.153c-7.65,14.203-20.52,22.796-34.794,28.727c-31.521,13.099-63.775,13.778-96.264,3.331
		c-0.79-0.254-1.57-0.54-2.365-0.774c-0.103-0.03-0.272,0.165-0.619,0.392c13.765,7.168,28.353,11.409,43.616,11.84
		c32.641,0.921,61.729-8.965,86.061-31.188c10.437-9.532,14.844-21.949,14.797-35.901c-0.039-11.862-9.02-16.93-19.352-11.168
		c-3.862,2.154-5.211,4.552-5.329,9.48c-5.282-9.422,2.199-22.161,14.002-23.845c14.315-2.042,25.509,6.819,26.298,21.245
		c1.043,19.076-7.758,34.025-20.696,46.975c-36.043,36.076-92.657,51.313-146.03,18.568c-16.46-10.098-34.562-14.539-53.47-16.524
		c-1.44-0.151-2.91-0.02-4.482,0.294c3.238,1.656,6.692,2.796,9.609,4.977c6.224,4.654,8.586,11.952,5.757,18.016
		c-2.027,4.345-7.02,6.501-10.164,4.381c-1.327-0.895-2.203-2.083-1.961-3.756c0.242-1.673,1.659-1.147,2.733-1.403
		c3.003-0.716,3.57-4.568,0.866-7.421c-2.778-2.931-6.182-5.196-10.096-6.261c-18.512-5.036-36.468-5.462-53.097,6.261
		c-7.632,5.38-16.408,8.624-24.963,12.316c5.881-0.746,11.336-2.882,16.655-5.304c2.555-1.164,4.97-2.761,7.205-4.479
		c12.143-9.335,25.51-8.392,39.038-4.441c6.206,1.812,10.604,6.214,12.719,12.495c1.882,5.59,5.232,10.779,5.054,16.235
		c-18.57-2.831-34.414-13.294-52.333-18.146c7.112,2.588,13.513,5.746,16.939,13.131c1.187,2.559,0.764,3.524-1.772,4.244
		c-5.375,1.525-10.561,0.764-15.685-1.044c-2.955-1.043-5.881-2.17-9.163-2.949c7.33,5.608,12.41,12.718,14.856,21.495
		c2.528,9.072,2.183,17.911-3.817,25.695c-7.843,10.175-24.369,14.468-35.435,9.107c4.458-1.85,8.883-3.163,11.94-6.92
		c4.749-5.835,5.388-10.88,0.591-16.646c-4.809-5.78-7.032-11.773-5.597-19.307c0.684-3.588-0.271-7.305-2.125-10.608
		c-3.056-5.443-7.08-6.429-13.372-2.821c4.595,1.032,5.25,2.59,1.186,5.034c-2.766,1.663-4.758,4.395-5.876,7.321
		c-7.085,18.531-23.119,23.59-40.995,22.047c-5.155-0.445-10.197-1.61-15.04-3.501c-1.675-0.654-3.659-0.999-4.008-3.256
		c-0.377-2.435,1.295-3.63,3.042-4.687c14.391-8.706,19.222-23.197,23.146-38.231c0.161-0.618,0.111-1.315,0.034-1.961
		c-0.031-0.258-0.402-0.475-0.978-1.102c-5.401,5.67-8.564,12.558-11.245,19.627c-2.597,6.846-5.808,13.106-12.149,17.228
		c-1.62,1.053-3.141,2.461-5.809,2.125c0.52-3.134,2.772-5.477,2.909-8.453c0.078-1.677,0.332-3.498-0.683-4.861
		c-1.979-2.655-1.171-4.512,1.157-6.301c0.77-0.592,1.453-1.409,1.913-2.265c0.667-1.241,0.826-2.727-0.483-3.606
		c-1.667-1.119-2.281,0.523-3.023,1.548c-0.629,0.868-1.191,1.784-2.417,2.34c1.5-4.69,3.03-9.371,4.48-14.077
		c0.354-1.149,1.484-2.747-0.518-3.331c-1.928-0.562-2.102,1.369-2.304,2.514c-1.459,8.306-3.889,16.279-8.224,23.779
		c-1.847-3.485-1.913-8.997-8.399-9.64c1.834,3.501,4.892,5.5,5.813,8.973c0.7,2.641,0.265,4.59-1.797,6.19
		c-2.257,1.751-3.955,2.386-4.707-1.551c-1.266-6.634-4.557-12.052-10.82-15.252c-0.575-0.294-1.335-1.067-1.647-0.908
		c-5.56,2.834-4.852-2.114-5.579-4.675c-1.99-7.01-6.99-11.514-12.646-15.655c5.088,5.905,9.291,12.222,10.647,20.057
		c0.134,0.777,1.266,1.48,2.068,2.021c1.233,0.832,1.605,2.513,0.592,2.817c-4.178,1.252-1.672,6.05-4.549,7.946
		c-0.616,0.406-0.41,2.053,0.385,2.733c0.713,0.61,1.65,0.053,2.198-0.568c1.629-1.842,2.46-0.897,3.786,0.565
		c2.908,3.205,6.095,6.17,10.338,7.644c2.828,0.982,3.069,3.325,2.672,5.726c-0.461,2.788-2.864,2.405-4.782,2.356
		c-5.527-0.142-10.142-4.19-12.026-10.316c-0.391-1.271-0.1-3.554-2.516-2.503c-2.075,0.902-0.687,2.293-0.223,3.697
		c3.595,10.88,8.957,11.266,20.022,11.367c1.609,0.015,1.774-0.699,1.446-2.217c-1.006-4.659,0.789-7.965,5.001-10.318
		c3.044-1.701,5.677-4.072,7.89-6.842c0.591-0.74,1.066-1.954,2.259-1.605c1.268,0.37,1.481,1.642,1.676,2.811
		c0.645,3.859-2.362,8.287-5.908,10.028c-3.508,1.723-6.1,4.598-5.59,8.998c0.182,1.57,0.505,2.987-1.16,3.919
		c-1.907,1.067-3.137,0.149-4.145-1.423c-0.465-0.726-1.054-1.419-1.995-1.164c-5.555,1.5-11.267,1.805-17.032,2.241
		c4.796,4.427,10.229,0.573,16.326,1.392c-3.785,4.127-7.979,5.526-12.562,6.072c-1.258,0.15-2.171-0.519-2.325-2.008
		c-0.25-2.405-2.356-3.235-4.004-2.807c-6.143,1.595-12.313,2.947-18.71,3.743c4.359,2.354,8.782,1.274,13.161,0.496
		c2.624-0.466,5.37-2.611,6.486,2.3c0.507,2.235,3.613,2.169,5.744,1.63c3.343-0.846,6.599-2.036,10.69-3.332
		c-5.345,7.621-12.274,12.393-19.462,16.622c-12.093,7.114-25.419,10.657-39.304,12.224c-7.543,0.851-14.507-0.68-21.124-4.454
		c-5.923-3.379-11.891-6.78-18.149-9.445c-7.882-3.356-13.813,1.101-13.391,9.624c0.154,3.116-1.388,5.158-3.784,6.51
		c-3.623,2.044-7.426,1.754-10.936-0.366c-6.429-3.885-6.833-13.366-0.664-18.977c5.225-4.753,11.842-6.217,18.598-5.81
		c5.571,0.335,9.858-2.697,14.741-4.125c1.55-0.453,1.579-1.3,0.295-2.457c-2.31-2.081-3.321-4.904-4.105-8.438
		c6.79,2.638,13.679,2.303,19.745,7.742c8.394,7.526,19.547,9.242,30.889,7.513c-6.818-0.138-13.549-0.696-20.032-3.17
		c-4.414-1.683-8.344-4.086-12.141-6.814c-2.893-2.079-3.517-4.097,0.24-5.694c4.847-2.061,4.72-4.424,1.109-7.76
		c-2.305-2.13-4.317-4.632-5.655-7.568c-0.708-1.554-1.66-3.533-0.333-4.693c3.825-3.342,0.626-4.853-1.358-6.839
		c-0.938-0.939-1.711-2.04-2.576-3.053c-2.336-2.733-3.284-5.253,0.361-7.856c4.31-3.078,4.82-6.816,2.027-11.493
		c-1.674-2.803-2.271-6.235-3.463-9.342c-1.426-3.715-0.391-4.962,3.507-3.868c3.526,0.989,7.057,2.059,10.659,2.655
		c7.29,1.205,8.946-0.152,9.971-7.423c0.108-0.765,0.374-1.509,0.854-3.389c6.194,9.079,15.318,4.26,22.961,6.435
		c-4.272-1.646-5.388-5.684-7.375-9.076c-1.797-3.068-3.281-5.782,2.951-5.504c-9.625-5.649-16.482-8.235-23.361,0.103
		C194.433,220.864,178.785,220.163,162.697,207.622z M447.225,195.617c11.775-1.115,22.182-1.847,30.947,5.692
		c-6.364-1.535-12.773-2.312-19.249-1.405c-14.796,2.074-28.886,6.504-42.281,13.119c-16.729,8.262-32.214,18.824-49.183,26.653
		c-1.21,0.558-2.911,0.99-2.782,3.765c2.168-0.454,4.208-0.799,6.205-1.312c9.989-2.564,19.072-7.15,27.153-13.415
		c16.079-12.465,34.423-18.554,54.419-20.434c14.22-1.337,28.28,0.705,42.375,1.962c2.469,0.22,4.968,0.18,6.179-2.125
		c1.32-2.51-1.161-3.896-2.652-5.288C485.917,191.212,463.698,187.796,447.225,195.617z M252.858,273.132
		c-7.636-7.047-16.512-11.008-26.894-11.354c-1.006-0.034-2.025,0.348-2.318,1.479c-0.293,1.131,0.373,1.918,1.319,2.389
		C233.738,270.019,243.286,271.506,252.858,273.132z M275.808,245.098c-0.874-8.152-2.919-16.35-7.424-23.753
		c-0.869-1.428-1.631-4.205-3.65-3.33c-2.349,1.019-0.233,3.188,0.21,4.756c0.767,2.716,1.854,5.34,2.763,8.018
		c1.878,5.537,3.09,11.231,4.012,16.997c0.209,1.307,0.543,2.872,2.285,2.759c1.806-0.117,1.656-1.773,1.792-3.059
		C275.865,246.828,275.808,246.156,275.808,245.098z M244.493,286.586c1.831,0,3.672,0.122,5.488-0.039
		c1.466-0.13,3.895,0.823,3.87-1.754c-0.023-2.27-2.335-1.984-3.9-2.028c-7.824-0.221-15.628-0.551-23.281-2.422
		c-1.225-0.3-2.893-1.182-3.472,0.548c-0.667,1.995,1.292,2.354,2.643,2.837C231.871,285.884,238.137,286.541,244.493,286.586z
		 M290.071,232.89c-0.108-1.704-0.256-4.848-0.535-7.981c-0.101-1.128-0.381-2.49-1.937-2.353c-1.353,0.119-1.188,1.404-1.182,2.335
		c0.059,8.644-0.586,17.235-1.786,25.793c-0.152,1.081-0.523,2.676,0.912,2.998c1.814,0.407,1.942-1.423,2.254-2.594
		C289.257,245.606,289.566,239.966,290.071,232.89z M255.445,261.452c-1.331-5.337-6.088-7.597-9.44-11.075
		c-0.557-0.578-1.578-0.766-2.17,0.123c-0.532,0.8-0.096,1.579,0.429,2.266C247.2,256.615,250.699,259.768,255.445,261.452z
		 M162.124,309.875c-3.394,1.115-6.922,1.444-8.783,4.67c-1.214,2.105-0.166,3.37,1.605,4.459c1.248,0.767,2.338,0.812,2.645-0.748
		C158.241,314.958,160.451,312.596,162.124,309.875z M147.611,322.248c-0.624-3.671,0.405-6.639,3.163-9.305
		c2.421-2.34,6.043-2.491,8.757-5.208C148.697,310.836,145.768,314.37,147.611,322.248z"/>
	<path fill="FRAME_COLOR" d="M1110.197,385.519c0.705,9.944,4.245,17.463,9.502,24.294c1.993,2.59,4.048,3.68,7.227,1.921
		c2.227-1.233,4.959-1.751,7.297-0.877c9.945,3.721,16.4-2.096,22.18-8.399c10.962-11.956,13.951-26.821,13.558-42.784
		c-1.323,2.753-2.955,5.404-3.897,8.282c-1.465,4.473-6.196,7.188-7.359,10.657c-1.342,4.004-1.839,8.109-4.994,11.299
		c-1.232,1.245-1.692,2.805-1.789,4.537c-0.067,1.192,0.874,2.937-1.056,3.329c-1.578,0.321-2.826-0.788-3.844-1.937
		c-1.455-1.643-1.878-3.713-1.147-5.627c2.467-6.457-0.381-11.378-4.453-15.84c-3.364-3.685-7.183-6.953-10.587-10.604
		c-7.573-8.124-11.383-17.531-9.175-28.801c1.412-7.207,2.235-14.478,2.546-21.812c0.311-7.343-0.576-14.609-1.066-22.066
		c11,13.151,16.846,28.628,19.871,45.993c2.278-3.542,2.507-4.369,1.963-8.867c-1.759-14.558-8.785-26.731-17.401-38.178
		c-1.406-1.868-4.815-3.989-2.544-6.093c2.369-2.194,4.606,1.018,6.491,2.815c6.191,5.904,13.782,9.891,20.593,14.955
		c6.985,5.193,13.21,11.082,19.295,17.3c6.942,7.094,14.745,13.518,25.932,8.202c1.563-0.743,3.399-1.048,4.671,0.366
		c1.648,1.831,0.248,3.517-1.006,4.781c-1.615,1.629-0.64,2.619,0.489,3.704c2.116,2.034,4.782,3.904,7.547,3.308
		c8.861-1.911,18.353-0.536,26.676-5.33c5.369-3.092,10.032-6.637,11.558-13.024c2-8.37-4.185-15.928-11.908-14.625
		c-2.623,0.443-4.743,1.595-5.772,4.175c-1.096,2.749,1.611,2.578,2.801,3.641c1.344,1.2,1.198,2.736-0.027,3.968
		c-1.501,1.509-3.251,1.478-5.014,0.378c-3.097-1.933-4.209-7.111-2.436-11.324c4.064-9.655,22.468-13.408,29.873-6.1
		c2.549,2.516,3.645,5.548,3.125,9.077c-0.317,2.152-1.195,3.878-4.378,3.307c1.305-2.886,2.378-5.968-0.505-8.35
		c-3.158-2.609-6.745-4.131-12.016-2.85c10.63,6.559,13.929,16.351,14.053,27.305c0.125,11.105-3.509,21.062-11.963,28.628
		c-16.391,14.671-36.999,11.91-54.981-7.137c2.733,13.218,10.063,20.339,23.882,22.341c10.805,1.566,18.021,7.168,21.788,17.336
		c0.172,0.464,0.268,0.96,0.36,1.448c0.024,0.129-0.099,0.286-0.316,0.847c-5.939-4.166-12.23-3.787-18.906-1.952
		c-7.581,2.083-16.638-2.809-20.989-11.095c-5.415-10.311-8.042-21.469-9.174-33.006c-0.819-8.354-4.259-15.594-9.459-22.145
		c5.817,11.957,3.674,25.462,7.927,37.857c6.019,17.544,7.243,36.204,10.356,54.416c1.409,8.242,3.112,16.43,6.914,23.918
		c7.192,14.165,18.586,22.868,34.504,24.992c5.806,0.775,11.04-0.898,14.262-6.21c4.159-6.855,1.467-12.047-6.393-12.754
		c4.544-2.974,9.761-1.804,13.154,2.949c4.343,6.083,3.625,15.415-1.721,22.384c-10.189,13.282-28.936,14.771-42.001,3.208
		c-8.632-7.639-15.163-16.772-18.905-27.778c-0.674-1.983-1.476-3.923-2.607-5.745c2.649,12.691,5.344,25.51,12.601,36.442
		c4.697,7.075,12.84,8.677,20.931,8.262c14.042-0.72,26.805-6.31,39.741-11.157c1.925-0.721,3.962-3.116,5.789-1.614
		c1.417,1.164,0.003,3.772-0.223,5.709c-0.222,1.902-0.94,3.747-1.516,5.897c8.844,0.851,16.711,4.166,24.738,9.011
		c-8.104,5.412-16.162,9.219-25.791,9.077c3.843,3.149,3.484,7.505,3.323,11.488c-0.112,2.771-2.276,0.812-3.307,0.389
		c-9.554-3.923-19.153-7.727-29.115-10.489c-8.754-2.427-17.492-4.156-26.318,0.168c-4.984,2.442-8.957,5.523-11.128,10.832
		c-3.77,9.222-7.617,18.401-9.238,28.383c2.398-6.19,5.455-12.018,9.257-17.404c6.532-9.255,13.83-17.561,25.668-20.164
		c11.936-2.625,24.869,2.701,30.092,12.659c2.757,5.257,3.408,10.797,1.433,16.447c-2.415,6.905-9.281,10.026-15.738,6.946
		c4.801-0.103,7.906-2.039,8.602-6.669c0.654-4.35-2.557-9.611-7.208-11.531c-5.327-2.199-10.79-1.76-16.143,0.025
		c-15.66,5.223-26.227,15.532-30.636,31.582c-4.704,17.125-9.105,34.332-13.943,52.655c3.954-4.706,4.964-9.477,6.594-13.917
		c2.53-6.893,4.7-13.999,10.196-19.233c4.921-4.686,10.268-8.671,17.795-6.57c4.144,1.156,6.085,3.703,5.634,8.094
		c-0.946,9.219-6.24,15.198-14.22,19.1c-3.12,1.526-6.432,2.658-9.783,4.345c10.759-0.454,18.501,4.87,24.951,12.578
		c6.412,7.662,9.551,16.47,9.5,26.573c-0.912-0.055-1.382,0.018-1.438-0.101c-5.57-11.908-14.892-18.811-27.755-21.307
		c-4.723-0.916-9.432-2.176-13.744-4.455c-2.012-1.063-4.157-2.181-3.295-5.981c-9.764,8.699-10.899,21.348-18.172,31.22
		c4.583,0.328,7.717-1.668,10.995-2.908c3.901-1.476,7.717-3.212,11.951-3.404c4.715-0.214,8.957,0.739,11.656,5.196
		c2.669,4.408,2.57,9.774-0.68,14.961c-0.462-4.356-1.339-8.287-5.315-10.155c-4.237-1.991-8.428-0.538-12.646,0.626
		c-19.022,5.251-36.204,14.142-52.169,25.641c-4.943,3.56-9.224,7.665-12.825,12.488c-3.042,4.073-6.697,7.342-11.053,9.932
		c-1.891,1.125-3.344,1.505-4.37-0.913c-5.671-13.361-9.74-26.994-6.615-41.726c1.123-5.293,3.656-10.004,6.84-14.337
		c3.053-4.156,2.405-7.673-1.462-10.875c-3.351-2.774-6.297-5.939-8.817-9.498c-4.474-6.319-5.978-13.267-4.531-20.873
		c2.451-12.88,2.442-12.882-6.305-21.861c11.126,0.223,18.756,5.648,24.408,13.817c7.237,10.459,7.829,22.022,3.93,33.939
		c-1.024,3.131-2.681,6.072-2.969,10.539c5.871-7.217,9.432-14.429,10.622-22.739c1.549-10.823,5.734-20.515,12.611-28.952
		c6.225-7.637,11.577-8.978,20.577-5.737c-1.936-3.728-10.291-7.428-16.952-7.464c-1.664-0.009-3.33,0.199-4.994,0.175
		c-10.961-0.157-16.651-5.617-17.339-17.754c3.667,6.274,8.849,4.369,13.822,3.583c6.309-0.998,11.518,1.472,15.948,5.559
		c5.516,5.09,10.408,10.84,14.335,17.215c3.156,5.124,5.429,10.968,5.025,17.054c-1,15.042,0.476,30.299-3.931,46.316
		c3.519-4.202,5.476-8.045,7.293-11.923c6.33-13.514,10.772-27.564,12.31-42.504c0.757-7.355-0.228-14.343-3.281-20.961
		c-4.165-9.027-6.004-18.354-4.354-28.2c0.554-3.309-0.206-4.914-3.793-5.185c-2.282-0.172-4.477-1.276-6.757-1.734
		c-8.769-1.762-15.563,2.154-21.062,12.022c-5.984-8.875-0.643-21.184,15.397-33.989c-2.745,0.942-4.395,1.426-5.982,2.068
		c-6.311,2.554-12.03,1.905-17.093-2.914c-3.981-3.788-9.082-5.442-14.088-7.3c-2.288-0.849-4.778-1.412-6.718-3.295
		c1.618-2.002,3.903-2.089,5.839-2.805c5.622-2.08,11.287-3.942,16.067-7.844c4.781-3.902,10.155-3.593,15.572-1.326
		c1.634,0.684,3.236,1.443,5.184,1.903c-12.949-8.424-18.79-19.583-14.589-36.185c1.672,3.282,2.482,5.639,3.909,7.53
		c4.583,6.074,10.813,7.964,18.172,6.488c3.233-0.648,7.42-0.283,9.432-2.203c1.953-1.864-0.349-5.905-0.473-9.025
		c-0.379-9.576,2.263-18.473,5.99-27.098c6.983-16.161,6.377-32.642,2.332-49.341c-0.765,7.22-1.376,14.428-3.375,21.447
		c-1.652,5.804-3.876,11.34-6.743,16.627c-1.683,3.102-3.571,6.337-6.749,7.867c-6.214,2.991-11.229,7.708-17.096,11.13
		c-7.729,4.509-15.975,6.478-24.946,4.261c-8.213-2.029-13.564-7.071-15.663-15.159
		C1100.334,407.704,1102.859,396.761,1110.197,385.519z M1156.857,609.118c2.257-13.597-9.28-25.825-20.795-22.476
		c-7.7,2.239-12.067,8.048-13.274,15.921c-1.118,7.288-2.901,14.301-6.584,20.749c-0.008,0.013,0.448,0.291,0.647,0.42
		c6.521-2.998,12.942-6.123,19.503-8.918c7.001-2.982,10.831-8.886,14.186-15.461
		C1153.691,602.131,1154.475,605.68,1156.857,609.118z M1211.965,490.677c-0.13-0.718-0.104-0.965-0.197-1.023
		c-0.562-0.352-1.125-0.725-1.735-0.975c-13.307-5.446-20.365-16.097-24.213-29.308c-2.521-8.657-3.896-17.529-4.322-26.55
		c-0.102-2.159,0.28-4.476-1.045-6.779c-7.714,15.364-6.657,34.085,2.565,46.906C1190.123,482.826,1198.991,489.87,1211.965,490.677
		z M1180.553,558.73c1.427-10.35,3.117-20.598,6.143-30.576c3.604-11.885,10.65-20.895,21.994-26.33
		c1.022-0.49,2.528-0.533,2.855-2.761c-14.4,2.423-24.903,9.685-31.358,22.329C1173.869,533.769,1173.618,546.32,1180.553,558.73z
		 M1201.526,492.782c-12.276-5.282-21.115-13.946-27.407-25.451c-0.879-1.608-0.652-4.956-3.882-4.11
		c-2.871,0.753-5.009,2.746-5.527,5.864c-0.791,4.76,0.561,9.122,3.889,12.425C1177.653,490.493,1188.412,495.067,1201.526,492.782z
		 M1203.961,496.835c-4.338,0-7.767-0.278-11.137,0.053c-9.6,0.942-17.976,4.779-24.858,11.57
		c-3.987,3.933-4.611,10.044-1.763,14.182c2.79,4.053,5.892,4.02,8.026-0.308c4.737-9.606,11.855-16.801,21.358-21.653
		C1198.05,499.42,1200.615,498.362,1203.961,496.835z M1158.319,413.709c13.232-4.9,18.394-40.118,14.811-55.37
		C1173.468,378.171,1166.623,396.072,1158.319,413.709z"/>
	<path fill="FRAME_COLOR" d="M277.366,357.175c-3.404,6.878-5.998,14.011-8.026,21.45c-2.07,7.591-6.197,14.384-10.971,20.628
		c-5.853,7.655-10.547,8.866-19.607,5.722c-0.756-0.262-1.546-0.427-2.51-0.218c4.317,4.098,8.146,8.964,15.246,7.905
		c1.957-0.292,3.995-0.125,5.992-0.048c10.858,0.417,17.522,9.051,15.385,20.623c-2.735-4.532-6.759-4.971-11.281-5.064
		c-7.835-0.16-14.602-3.149-19.584-9.455c-5.703-7.218-10.726-14.912-13.818-23.595c-3.564-10.011-2.423-19.992,1.511-29.731
		c0.303-0.75,0.906-1.594,0.769-2.273c-1.546-7.687,0.152-15.131,1.446-22.719c-4.517,6.666-7.706,13.927-10.14,21.487
		c-3.898,12.104-5.987,24.579-6.899,37.253c-0.509,7.08,0.399,13.812,3.371,20.447c4.574,10.212,6.832,20.896,3.775,32.111
		c-0.328,1.204-1.043,2.745,1.093,3.104c4.427,0.743,8.645,2.783,13.206,2.536c6.393-0.346,11.531-2.915,14.492-9.001
		c0.7-1.439,0.767-3.301,2.403-4.24c5.504,11.137,1.139,22.541-13.059,34.014c1.622,0.8,2.808-0.4,3.995-0.885
		c6.778-2.774,12.83-2.416,18.438,2.927c3.952,3.765,9.488,4.678,14.392,6.701c1.68,0.693,3.348,1.415,4.992,2.112
		c-0.228,1.914-1.776,2.089-2.895,2.596c-6.952,3.149-14.05,5.848-19.849,11.242c-3.249,3.022-7.808,2.518-11.923,1.185
		c-3.564-1.155-7.045-2.564-10.807-3.582c8.163,5.129,16.042,10.391,18.052,20.775c1.031,5.329,0.936,10.499-1.326,16.65
		c-5.464-15.307-16.036-16.46-29.007-12.805c-3.315,0.934-3.748,1.939-3.455,4.847c1.097,10.911-0.733,21.252-6.597,30.697
		c-2.068,3.33-2.879,7.103-3.553,10.865c-2.097,11.704-2.716,23.456-0.628,36.528c0.959-5.434,1.472-9.696,2.505-13.828
		c1.087-4.348,2.635-8.583,4.045-12.847c2.547-7.699,6.904-13.814,14.186-17.965c3.997-2.278,7.296-5.767,10.951-8.658
		c8.797-6.96,18.809-9.079,29.658-6.86c10.615,2.171,17.461,9.967,19.12,21.131c1.252,8.425-1.646,19.542-7.405,27.387
		c-1.122-5.316-1.754-10.321-3.974-14.906c-4.227-8.73-7.191-10.437-16.602-8.988c-2.856,0.439-5.706,0.31-8.355-0.838
		c-3.947-1.711-7.334-0.684-10.867,1.341c-14.89,8.538-20.821,22.732-24.467,38.376c-0.9,3.861-1.434,7.807-1.805,11.84
		c1.816-2.606,2.371-6.954,5.026-7.704c5.597-1.582,5.623-5.669,6.502-9.859c0.32-1.525,1.435-3.048,2.564-4.206
		c3.175-3.257,5.661-6.606,3.936-11.516c-0.463-1.318,0.143-2.34,1.515-2.643c1.923-0.426,3.66,0.097,4.974,1.579
		c1.658,1.87,1.83,4.276,1.926,6.59c0.206,4.973,2.45,8.842,5.876,12.288c4.456,4.482,9.504,8.369,13.271,13.549
		c6.308,8.676,8.69,18.313,6.962,28.834c-2.571,15.655-4.813,31.277-0.537,47.108c-12.957-14.93-19.374-32.541-21.862-52.999
		c-3.003,3.471-2.502,6.469-2.306,9.233c0.885,12.452,5.342,23.634,12.422,33.827c2.872,4.135,5.796,8.235,9.495,13.483
		c-5.133-1.059-8.452-2.568-10.883-5.29c-6.535-7.317-14.757-12.43-22.727-17.864c-6.259-4.268-11.645-9.384-16.43-15.225
		c-7.572-9.244-16.414-15.149-29.081-10.63c-1.345,0.48-3.143,0.959-3.92-0.885c-0.64-1.521,0.028-3.014,1.372-3.949
		c3.457-2.404,1.233-3.902-0.929-5.003c-2.733-1.392-5.812-1.832-8.763-0.873c-7.135,2.32-14.468,3.909-21.648,6.018
		c-9.231,2.711-14.021,11.483-11.993,20.792c1.304,5.987,6.08,9.946,11.659,9.611c3.065-0.184,5.477-1.449,6.572-4.492
		c0.439-1.219,0.876-2.83-1.33-2.565c-2.257,0.271-2.681-1.13-2.576-2.666c0.124-1.819,1.311-3.095,3.237-3.213
		c3.9-0.238,5.903,2.004,6.391,5.568c0.727,5.308-1.452,9.583-5.774,12.459c-7.318,4.868-15.258,5.584-23.324,2.075
		c-4.239-1.844-6.907-5.231-6.944-10.095c-0.017-2.277,0.742-4.391,3.39-4.807c1.16-0.182,2.814,0.345,1.361,1.852
		c-3.604,3.736-0.47,5.725,1.921,7.588c2.84,2.213,6.239,3.029,10.765,2.142c-10.215-7.837-12.679-18.744-13.353-30.044
		c-0.72-12.08,3.975-22.185,13.736-29.562c16.702-12.625,35.236-10.285,51.435,6.729c-2.009-9.924-6.524-17.133-16.084-20.197
		c-3.474-1.113-7.074-1.941-10.678-2.523c-8.798-1.419-14.222-6.578-17.938-16.381c8.07,4.614,15.027,1.88,22.153,0.88
		c7.519-1.055,15.76,4.812,19.504,13.105c3.957,8.765,5.76,18.075,6.296,27.619c0.504,8.97,4.397,16.418,9.771,23.339
		c-2.442-9.031-2.752-18.4-5.234-27.348c-5.638-20.324-6.919-41.36-10.144-62.079c-2.029-13.036-5.167-25.611-16.346-34.255
		c-6.575-5.084-13.985-8.41-22.328-9.192c-4.999-0.468-9.594,0.736-13.278,4.463c-2.551,2.581-3.45,5.706-2.797,9.173
		c0.525,2.784,2.209,4.798,5.018,5.708c2.713,0.879,4.987,0.118,6.683-2.053c3.778-4.836,8.021-8.334,14.805-7.092
		c7.419,1.358,13.559,4.629,17.629,11.081c5.195,8.235,7.632,17.185,6.448,27.475c-2.415-1.309-2.427-3.396-2.88-5.18
		c-1.477-5.817-3.088-11.557-5.756-16.998c-2.524-5.146-6.358-8.942-11.09-11.89c-7.817-4.87-11.087-4.529-17.43,2.032
		c-3.219,3.33-6.674,5.748-11.434,4.311c-5.196-1.568-8.326-5.259-9.586-10.562c-2.698-11.352,5.149-23.624,17.454-27.08
		c11.59-3.255,21.799-0.379,30.545,7.586c7.814,7.115,12.761,16.143,16.251,26.021c0.493,1.394,1.01,2.779,1.877,4.055
		c-2.347-11.203-4.98-22.384-9.855-32.75c-3.54-7.529-15.856-11.695-26.033-9.762c-13.15,2.498-25.608,7.197-37.993,12.112
		c-1.065,0.423-2.107,0.905-3.569,1.536c-0.704-4.848,0.002-8.966,3.162-13.07c-9.959-0.264-17.948-4.663-26.047-9.18
		c5.859-4.326,14.36-7.42,24.866-9.093c-1.344-3.904-2.246-7.879-2.415-12.616c10.234,4.657,20.428,8.016,30.822,10.744
		c7.272,1.908,14.579,3.646,22.154,1.528c8.17-2.284,14.413-6.793,17.437-15.012c3.491-9.49,7.095-18.946,9.395-28.894
		c-4.439,11.749-10.523,22.42-19.454,31.3c-8.126,8.08-17.823,11.382-29.189,9.329c-13.098-2.366-21.544-14.907-19.282-27.666
		c1.413-7.971,12.694-14.812,19.841-6.969c-0.253,0.125-0.597,0.422-0.735,0.346c-3.424-1.885-6.858-3.113-9.814,0.655
		c-2.965,3.78-1.855,7.623,0.55,11.097c4.141,5.98,10.27,6.376,16.586,4.981c18.235-4.027,29.824-15.511,35.649-32.933
		c4.501-13.462,7.175-27.396,9.225-41.405c2.141-14.627,5.821-28.693,12.828-41.792c0.672-1.255,1.848-2.38,1.522-4.271
		c-7.452,0.611-14.764,2.631-22.277,2.305c-10.113-0.439-14.736-6.706-12.498-16.792c0.299-0.002,0.781-0.122,0.872,0.016
		c6.607,9.981,9.395,10.963,20.687,6.643c11.382-4.355,23.747-5.27,34.949-10.254c13.333-5.932,26.122-12.484,35.156-24.637
		c3.664-4.929,8.492-3.955,10.421,1.749c2.294,6.787,4.394,13.615,4.785,20.869c0.542,10.05-1.953,19.117-8.084,27.163
		c-3.661,4.805-3.184,8.02,1.523,11.869c2.705,2.212,5.618,4.249,7.971,6.796c6.54,7.081,9.158,15.46,6.634,24.922
		c-3.276,12.283-3.415,12.245,6.707,19.45c-4.995,1.455-9.192,0.319-13.203-1.759c-12.128-6.284-19.879-22.421-17.476-36.456
		c1.034-6.04,2.314-12.039,3.528-18.293c-2.134,0.253-1.829,1.891-2.347,2.923c-1.561,0.258-3.095,0.312-4.492,1.404
		c-6.165,4.822-13.353,7.368-20.935,8.83c-4.866,0.938-8.431,3.543-11.393,7.419c-1.569,2.053-2.715,6.088-4.838,5.706
		c-2.759-0.496-2.104-4.713-3.22-7.202c-0.059-0.131-0.401-0.135-0.633-0.204c0.404,11.674,8.221,19.574,18.194,18.457
		c9.628-1.078,15.4-6.021,17.962-15.407c0.613-2.245,0.888-4.632,1.818-6.731C271.75,365.002,272.412,359.736,277.366,357.175z
		 M209.648,557.176c7.866-10.317,8.179-30.196,1.314-42.277c-5.516-9.706-18.992-21.07-31-19.733
		c0.688,1.317,2.101,1.561,3.237,2.159c11.164,5.88,18.937,14.438,21.962,26.995c1.095,4.544,2.184,9.067,2.649,13.719
		C208.431,544.248,209.006,550.461,209.648,557.176z M212.999,422.502c-1.161,12.596-3.3,24.93-7.767,36.819
		c-4.708,12.53-13.578,20.903-25.739,26.206C206.893,485.794,227.092,447.908,212.999,422.502z M187.957,488.289
		c5.526,0.952,9.704,0.895,13.791,0.303c10.035-1.454,18.085-6.354,23.906-14.729c2.323-3.343,2.946-7.053,1.712-10.935
		c-0.775-2.438-2.842-3.555-5.162-4.28c-1.731-0.541-2.387,0.564-3.024,1.812C212.623,473.29,202.314,482.047,187.957,488.289z
		 M189.232,492.004c0.393,0.608,0.505,1.022,0.734,1.102c13.501,4.704,23.004,13.635,28.614,26.79
		c1.744,4.089,4.345,2.022,6.34,0.358c4.143-3.455,3.827-11.016-0.69-15.743C214.739,494.58,202.777,491.491,189.232,492.004z
		 M214.504,622.224c0.744-17.486,7.835-33.167,13.914-49.145C214.181,586.61,213.203,604.063,214.504,622.224z"/>
	<path fill="FRAME_COLOR" d="M1082.39,200.194c-2.841-6.939-6.4-13.26-12.532-17.595c-10.051-7.106-13.288-16.558-10.428-28.382
		c0.535-2.21,0.552-4.546,0.897-7.611c3.618,3.97,7.861,6.13,11.557,9.028c5.586,4.381,7.86,10.54,8.847,17.346
		c0.97,6.693,0.577,13.601,3.518,20.089c0.386-5.621,0.744-11.244,1.163-16.863c0.861-11.561,6.466-19.678,17.363-24.036
		c6.2-2.479,12.308-5.167,16.533-11.775c2.163,7.655,5.353,14.229,5.385,21.675c0.045,10.447-6.056,18.22-16.234,20.479
		c-4.055,0.9-8.227,1.276-12.059,3.097c-8.255,3.924-10.743,11.891-6.055,19.689c8.351,13.89,14.538,28.838,21.245,43.528
		c2.466,5.402,1.394,11.13,0.894,16.77c-0.187,2.108-1.218,2.078-3.04,1.924c-7.057-0.597-11.85-4.924-16.441-9.58
		c-7.589-7.698-16.618-12.693-27.192-14.91c-4.417-0.926-8.875-1.301-13.393-1.389c-10.428-0.204-14.801-3.245-18.189-13.02
		c-0.904-2.607-2.605-3.213-4.754-3.624c-10.142-1.943-20.231-4.289-30.451-5.669c-15.93-2.151-30.174-9.284-45.147-14.265
		c-5.048-1.68-10.162-3.272-15.358-4.373c-9.031-1.914-18.132-2.445-27.188,0.271c9.213-7.702,20.067-6.664,30.897-5.753
		c-2.806-2.073-5.307-3.224-11.532-4.022c-13.502-1.731-26.287-0.073-37.207,9.024c-1.022,0.852-2.03,1.741-2.918,2.727
		c-1.234,1.369-2.585,2.909-1.79,4.877c0.827,2.047,2.886,1.92,4.732,1.955c7.36,0.14,14.613-1.088,21.911-1.724
		c20.464-1.783,40.298,0.624,59.028,9.394c12.893,6.037,23.081,15.017,29.072,28.324c2.386,5.3,4.533,10.771,8.021,15.508
		c1.467,1.992,2.883,4.171,5.808,4.203c1.025,0.011,2.583-0.945,2.646,1.03c0.044,1.395-0.885,2.464-2.221,3.057
		c-2.649,1.176-5.149-0.064-7.829-0.867c1.718,5.372,5.279,8.365,9.51,8.049c4.851-0.362,6.651-3.83,7.693-7.953
		c0.693-2.744,1.395-5.486,2.063-8.236c3.874-15.963,15.988-19.313,28.539-17.711c10.657,1.36,20.072,5.87,28.244,12.882
		c5.696,4.887,11.536,9.586,17.989,13.45c1.394,0.835,2.704,1.805,2.242,3.445c-0.503,1.784-2.288,0.907-3.432,0.789
		c-12.432-1.275-25.019,0.005-37.382-2.299c-0.989-0.184-2.145-0.595-2.541,0.652c-0.553,1.737,1.041,1.814,2.081,2.054
		c5.543,1.278,11.187,1.797,16.86,1.858c7.769,0.083,15.54,0.021,22.838,0.021c0.861,2.475-0.007,2.87-0.729,3.131
		c-14.166,5.127-25.543,14.937-38.021,22.855c-9.578,6.077-19.105,8.339-29.714,3.366c-3.6-1.688-7.462-1.472-11.3-1.436
		c-2.163,0.02-4.565,0.182-5.624-2.261c-0.98-2.261,0.39-4.191,1.524-6.021c0.608-0.981,1.592-1.734,2.174-2.727
		c2.178-3.714,1.075-7.978-2.795-9.524c-4.236-1.692-7.632-4.494-11.446-8.11c-0.169,5.553,2.033,10.047,1.553,14.675
		c-2.08,0.873-1.346-2.278-3.313-1.693c-0.399,4.007-0.512,8.076,0.126,12.203c0.87,5.623,1.266,11.281-0.466,16.842
		c-2.145,6.885-8.123,10.701-14.466,9.29c-6.099-1.357-7.849-6.421-3.723-11.044c1.546-1.732,3.397-3.191,5.089-4.796
		c1.891-1.793,3.591-3.707,4.39-6.957c-4.294,3.936-7.944,7.471-11.8,10.764c-4.046,3.455-8.727,2.918-13.223,1.177
		c-4.783-1.853-8.606-4.798-9.278-10.839c12.85,4.558,23.201-0.821,31.888-8.386c9.624-8.381,9.485-19.87,5.576-31.589
		c-1.847,1.035-1.409,3.056-1.837,4.606c-1.815,6.574-3.221,13.268-7.758,18.752c-4.37,5.282-9.774,7.486-16.417,5.683
		c-9.112-2.474-16.343-7.646-22.571-16.853c10.166,1.985,17.388-1.517,23.987-7.062c2.889-2.428,6.539-1.982,10.075-1.735
		c8.532,0.596,12.849-4.625,10.845-13.598c-1.527,1.069-2.857,2.179-4.344,3.006c-4.13,2.298-9.435,0.09-9.844-4.012
		c-0.143-1.437,0.214-2.735,1.549-3.405c1.503-0.753,2.557-0.276,2.847,1.508c0.316,1.947,1.685,1.366,2.612,0.825
		c3.101-1.809,4.602-4.361,2.868-7.929c-4.219-8.682-11.442-13.101-20.756-14.599c-2.131-0.343-3.193,0.768-3.793,2.414
		c-0.908,2.494-1.63,5.06-2.349,7.618c-2.539,9.032-9.174,14.443-18.463,14.761c-10.694,0.366-20.784-2.836-30.686-6.179
		c-6.978-2.356-8.023-9.489-2.906-14.651c3.535,7.546,5.299,8.278,13.612,5.395c5.789-2.008,10.104-6.258,15.895-10.433
		c-3.571-0.571-5.988,0.142-8.48,0.417c-1.815,0.201-4.857,2.685-5.37-0.548c-0.38-2.396,3.045-1.752,4.862-1.869
		c13.16-0.849,26.381-4.986,39.514,0.828c-8.034-4.859-16.789-6.889-25.802-7.952c-27.45-3.235-52.862,2.327-76.507,16.895
		c-14.306,8.815-29.928,14.567-46.843,16.2c-27.319,2.637-52.177-4.593-75-19.24c-11.287-7.244-21.263-16.162-29.003-27.209
		c-8.088-11.545-12.358-24.327-10.361-38.628c2.182-15.623,18.21-24.036,31.838-16.824c7.911,4.186,11.221,14.224,7.097,21.522
		c0.047-6.335-5.068-11.258-12.152-11.694c-6.316-0.389-11.369,3.773-11.707,10.297c-0.891,17.184,4.468,32.109,18.193,42.872
		c36.568,28.675,76.487,35.736,119.967,17.36c1.2-0.507,2.31-1.229,3.394-2.102c-15.134,4.961-30.618,7.825-46.519,7.528
		c-25.276-0.472-49.419-5.026-69.889-21.325c-8.593-6.842-16.404-14.331-17.639-26.14c-0.511-4.882,0.138-9.689,2.298-14.137
		c1.867-3.843,4.539-6.795,10.158-7.019c-6.859,6.833-5.575,14.286-3.211,21.456c5.426,16.454,16.93,27.372,32.983,33.171
		c33.37,12.054,66.33,10.906,98.621-4.183c3.659-1.71,6.636-4.271,9.638-6.982c3.524-3.183,1.375-7.207,2.447-10.709
		c0.499-1.632-1.605-0.994-2.587-0.728c-4.983,1.35-9.881,3.082-14.924,4.125c-20.299,4.2-39.509,1.467-56.887-10.248
		c-9.947-6.706-16.754-15.795-17.526-28.269c-0.52-8.389,2.334-15.589,9.714-20.092c7.287-4.445,15.128-5.034,22.897-1.072
		c7.465,3.807,10.139,11.535,6.07,18.106c-0.363-3.544,0.33-6.83-1.684-9.73c-3.163-4.553-8.43-6.965-13.87-5.941
		c-6.272,1.18-11.746,6.352-12.883,12.482c-1.768,9.528,2.468,16.861,9,23.158c7.178,6.92,16.002,10.636,25.628,12.717
		c2.246,0.486,3.012,0.021,2.662-2.425c-0.539-3.764,0.603-7.088,4.122-8.905c3.259-1.683,5.597,0.724,8.075,2.42
		c10.664,7.299,22.024,9.655,34.618,5.399c7.377-2.493,14.656-5.38,23.601-6.855c-4.29-2.419-7.802-2.255-11.292-1.937
		c-4.693,0.427-9.033,2.198-13.454,3.688c-8.155,2.747-15.314,1.103-18.536-4.1c-3.299-5.326-1.576-13.089,4.25-19.047
		c3.152-3.223,6.766-5.666,11.431-6.919c-3.963,11.981,1.304,20.477,13.437,22.109c8.582,1.155,17.177,2.223,25.784,3.176
		c12.876,1.426,24.492,6.003,35.092,13.402c10.804,7.542,22.608,12.476,35.748,14.616c11.328,1.845,22.485,4.746,33.718,7.179
		c0.976,0.211,1.948,0.541,2.934,0.593c2.172,0.113,3.574-1.489,3.89-3.131c0.286-1.49-1.765-1.676-2.982-1.88
		c-8.376-1.402-16.743-2.899-25.158-4.025c-18.082-2.419-33.557-10.452-47.585-21.678c-3.407-2.727-5.368-6.317-5.44-10.796
		c-0.048-2.976,1.08-4.696,4.195-3.227c2.964,1.398,3.526-0.163,4.486-2.5c2.333-5.678,7.077-6.802,12.121-3.162
		c4.472,3.227,7.068,7.927,9.656,12.587c3.146,5.664,6.357,11.247,12.713,16.327c-2.636-4.784-4.577-8.375-5.022-12.527
		c-0.329-3.066-0.068-5.989,1.228-8.779c0.941-2.025,2.333-4.124,4.562-4.206c2.192-0.081,1.384,2.604,2.08,3.971
		c1.581,3.102,3.965,5.279,6.866,7.057c2.836,1.738,5.665,3.503,8.374,5.429c4.385,3.116,6.378,7.31,6.281,12.84
		c-0.154,8.769,2.84,11.08,12.355,10.272c0.126-2.179-1.15-3.764-2.331-5.357c-2.055-2.772-1.39-4.135,2.038-4.452
		c1.943-0.18,4.011,0.198,6.057-1.071c-1.726-3.165-4.392-5.405-7.136-7.398c-19.249-13.98-24.616-33.028-20.497-55.577
		c1.355-7.42,3.339-14.64,8.04-20.764c1.198-1.561,2.49-3.148,5.25-3.678c-1.217,3.002-2.107,5.784-2.378,8.696
		c-0.49,5.263-0.241,10.467,3.128,14.807c9.852,12.692,13.429,26.885,10.741,42.698c-0.042,0.247,0.179,0.539,0.322,0.933
		c2.255-5.711,2.502-11.49,1.09-17.251c-1.457-5.941-1.629-11.834-0.479-17.801c2.03-10.534,9.872-14.933,20.633-11.391
		c-0.965,1.77-2.991,1.973-4.311,3.098c-2.243,1.911-4.144,3.949-3.758,7.162c1.15,9.584-1.576,18.502-4.962,27.211
		c-1.083,2.786-1.411,4.192,2.028,4.568c0.791,0.087,1.547,0.591,2.296,0.952c1.07,0.516,2.248,1.121,1.989,2.523
		c-0.208,1.126-1.386,1.236-2.361,1.501c-2.242,0.609-4.517,1.156-6.675,1.994c-2.758,1.07-4.449,3.43-4.21,6.218
		c0.281,3.285,2.411,5.906,5.488,7.229c2.788,1.199,2.503-1.054,2.422-2.715c-0.169-3.444,1.074-3.364,3.355-1.506
		c4.227,3.442,9.363,4.508,14.551,4.399C1070.817,195.11,1076.87,196.05,1082.39,200.194z"/>
	<path fill="FRAME_COLOR" d="M374.603,781.763c-4.992-1.068-9.984-2.137-15.025-3.216c-0.258,1.925,1.642,2.919,0.885,4.581
		c-0.194,0.061-0.518,0.284-0.781,0.226c-2.199-0.484-4.974-2.833-6.427-1.08c-1.769,2.133,1.676,3.77,2.633,5.733
		c0.362,0.742,1.303,1.87,1.104,2.117c-3.298,4.096,1.188,4.99,2.873,6.724c12.719,13.089,17.846,28.668,15.274,46.658
		c-1.3,9.091-3.403,18.033-8.598,25.871c-1.346,2.031-2.571,4.271-5.163,5.114c-0.216-0.358-0.543-0.656-0.489-0.845
		c2.728-9.531,1.211-17.967-4.423-26.46c-7.947-11.98-7.492-25.548-4.605-39.121c0.277-1.303,0.504-2.617,0.714-3.932
		c0.049-0.307-0.069-0.641-0.114-0.963c-2.385,4.047-4.526,19.785-3.52,27.147c0.509,3.723,0.136,7.328-0.845,10.873
		c-3.04,10.983-8.225,13.628-19.973,9.785c5.303-2.277,6.218-6.837,7.218-11.434c0.526-2.419,1.354-4.799,2.291-7.096
		c0.884-2.166,1.498-3.992,0.71-6.579c-1.431-4.699,1.787-8.155,4.787-11.751c-2.263-1.115-4.414-2.119-6.505-3.235
		c-0.847-0.452-1.907-1.031-1.699-2.193c0.225-1.254,1.493-1.12,2.428-1.269c4.377-0.697,8.398-2.151,11.557-5.413
		c1.648-1.702,3.329-3.555,2.453-6.146c-0.934-2.761-3.205-4.138-5.99-4.694c-2.534-0.505-4.318-0.213-3.884,3.138
		c0.206,1.591,0.391,3.356-1.313,5.024c-4.26-6.444-11.077-7.024-17.792-7.725c-6.081-0.634-12.158-1.181-17.751-4.409
		c2.593,7.102,7.92,11.836,13.496,16.162c8.519,6.609,10.613,15.346,9.184,25.366c-0.465,3.264-1.559,6.439-1.369,10.147
		c-12.657-7.406-20.922-16.822-19.652-32.141c0.354-4.271,0.306-8.612-2.287-12.572c-0.151,5.18-0.696,10.287-1.434,15.381
		c-1.924,13.278-8.916,22.322-21.794,26.612c-4.434,1.477-8.833,3.073-12.327,6.379c-1.513,1.432-2.319,0.8-2.713-0.907
		c-1.831-7.93-4.475-15.788-2.106-24.091c1.847-6.475,5.823-10.711,12.539-12.187c4.873-1.071,9.877-1.54,14.597-3.318
		c9.643-3.634,12.468-12.987,6.283-21.08c-3.358-4.393-6.265-9.03-8.175-14.245c-2.876-7.855-6.793-15.2-11.11-22.33
		c-4.355-7.193-4.536-14.848-2.669-22.696c1.233-5.184,3.699-5.854,7.509-2.158c2.628,2.549,5.292,5.114,7.559,7.974
		c11.755,14.836,27.987,18.305,45.597,17.847c12.267-0.319,19.588,4.883,21.91,16.868c0.501,2.586,1.83,3.121,3.982,3.493
		c12.965,2.241,25.93,4.493,38.866,6.898c7.554,1.404,14.825,3.785,21.855,6.932c11.463,5.132,23.431,8.689,35.815,10.709
		c7.417,1.21,14.842,0.872,22.179-1.091c-8.965,7.666-19.517,6.922-30.812,5.41c15.734,8.563,39.201,5.481,51.025-6.219
		c1.223-1.211,2.007-2.631,2.611-4.2c0.863-2.24,0.202-3.417-2.271-3.684c-3.534-0.382-6.968,0.273-10.43,0.731
		c-24.645,3.26-48.771,2.349-72.188-7.387c-15.251-6.34-26.504-16.316-32.987-31.571c-1.693-3.985-3.454-7.946-5.34-11.842
		c-1.571-3.244-3.801-5.876-7.605-6.647c-1.233-0.25-2.999-0.085-2.595-2.126c0.303-1.532,1.758-1.76,3.097-2.067
		c2.235-0.512,4.101,1.074,6.71,1.111c-1.235-3.334-3.201-5.696-5.818-7.482c-4.481-3.059-9.898-0.814-11.117,4.511
		c-5.057,22.095-14.122,28.272-36.666,26.028c-14.272-1.421-24.579-9.396-34.351-18.728c-2.984-2.85-6.112-5.548-8.725-9.028
		c7.906-0.947,14.822,2.217,22.103,2.93c7.244,0.709,14.404,2.861,23.008,0.143c-8.162-2.665-15.594-2.248-22.77-3.247
		c-7.211-1.003-14.301-2.406-22.543-4.326c4.986-2.321,9.03-1.842,13.024-1.671c1.504,0.064,3.087,0.356,4.349-0.604
		c1.198-0.91,1.41-2.31,0.577-3.583c-1.316-2.011-3.399-1.553-4.907-0.685c-3.139,1.806-6.414,2.738-9.98,2.737
		c-1.107,0-2.616,0.182-2.722-1.411c-0.075-1.133,1.158-1.501,2.108-1.806c15.706-5.035,29.623-13.377,43.156-22.635
		c8.225-5.627,17.43-6.466,26.607-1.888c4.905,2.447,9.947,3.547,15.417,3.319c2.073-0.086,4.783-0.016,5.632,2.349
		c0.753,2.096-1.64,3.057-2.963,4.113c-3.974,3.17-4.669,7.465-4.655,12.107c0.002,0.863-0.049,1.756,0.817,2.177
		c6.326,3.075,9.596,8.92,13.525,14.536c0.133-9.285,1.481-18.497,0.27-27.732c-0.761-5.803-1.654-11.569-0.198-17.372
		c1.833-7.306,8.751-11.413,15.192-9.057c5.508,2.015,6.829,7.29,2.535,11.305c-6.058,5.663-11.034,11.87-12.456,20.337
		c2.889-7.809,8.587-13.527,14.143-19.386c4.203-4.431,9.075-3.401,13.901-1.886c4.934,1.549,8.144,4.821,8.806,10.518
		c-11.811-3.69-21.139,1.102-29.275,8.199c-7.982,6.962-9.487,20.159-5.347,36.184c1.725-1.146,1.254-2.987,1.418-4.537
		c0.69-6.528,2.242-12.796,5.308-18.633c4.84-9.211,13.897-12.788,23.656-9.226c8.276,3.021,13.746,9.378,19.417,15.909
		c-2.204,1.374-3.837,0.485-5.395,0.396c-7.646-0.436-14.553,1.362-20.456,6.385c-3.017,2.567-6.384,3.963-10.4,4.284
		c-8.543,0.683-9.954,2.305-10.073,10.784c-0.032,2.301-0.309,4.691,1.345,7.029c1.136-1.531,2.052-3.097,3.281-4.359
		c3.477-3.568,8.997-2.725,10.811,1.542c0.544,1.28,0.856,2.548-0.159,3.748c-1.108,1.308-1.942,0.296-2.981-0.24
		c-2.137-1.103-4.391-0.941-5.877,0.996c-1.53,1.995-1.609,4.579-0.202,6.607c4.692,6.765,10.965,11.032,19.461,11.479
		c2.44,0.128,3.741-0.901,4.083-3.302c0.258-1.813,0.658-3.606,0.916-5.42c1.631-11.477,7.329-17.19,18.891-18.143
		c10.488-0.864,20.565,1.9,30.364,5.093c6.526,2.127,8.048,9.072,3.744,15.767c-0.829-3.594-1.516-7.038-5.368-7.762
		c-4.676-0.879-9.06,0.246-12.747,3.047c-3.94,2.994-7.497,6.492-11.817,10.295c4.94-0.622,9.091-1.187,13.254-1.634
		c0.907-0.097,2.223-0.271,2.474,1.019c0.252,1.296-0.925,1.736-1.894,1.719c-10.246-0.189-20.019,3.578-30.21,3.61
		c-3.446,0.011-6.893-0.721-10.417-0.836c6.554,2.964,13.594,4.318,20.652,5.203c25.38,3.184,49.484-0.82,71.799-13.733
		c19.613-11.349,40.163-19.699,63.294-19.005c39.069,1.173,71.384,16.49,95.405,47.613c9.027,11.695,13.12,25.471,10.785,40.439
		c-2.019,12.937-15.612,21.319-28.157,17.784c-9.951-2.804-16.043-13.872-11.73-24.019c0.324,7.482,4.547,10.155,9.79,11.615
		c8.143,2.266,14.365-1.659,14.724-10.035c0.627-14.643-2.743-28.211-13.585-38.889c-19.058-18.769-42.609-28.044-68.655-31.637
		c-22.175-3.06-43.029,1.506-62.75,11.857c11.524-4.06,23.39-6.623,35.552-7.37c30.718-1.888,59.872,2.508,85.068,22.066
		c5.87,4.556,10.915,9.845,14.249,16.517c4.235,8.473,4.195,17.009-0.532,25.328c-1.822,3.206-4.625,5.084-9.002,5.448
		c6.579-6.711,5.476-14.271,3.001-21.511c-4.594-13.437-12.957-24.248-25.951-30.342c-34.904-16.369-70.206-15.857-105.568-1.26
		c-1.682,0.694-3.258,1.683-4.803,2.66c-4.066,2.57-8.185,4.926-7.945,10.915c0.091,2.274-1.472,4.615-2.513,7.59
		c5.802-1.607,10.981-3.234,16.252-4.468c19.64-4.597,38.52-2.513,56.006,7.741c12.299,7.212,20.331,17.692,20.871,32.6
		c0.3,8.285-2.819,15.081-10.24,19.229c-7.717,4.314-15.64,4.385-23.277-0.301c-6.866-4.212-8.726-11.68-3.969-18.971
		c-1.309,5.13-1.451,9.03,1.52,12.383c2.956,3.337,6.642,4.975,11.04,4.893c9.362-0.174,16.383-8.226,15.023-17.961
		c-2.001-14.322-12.092-21.974-24.164-27.681c-1.795-0.849-3.75-1.383-5.661-1.963c-6.434-1.953-6.44-1.936-7.559,4.26
		c-1.023,5.667-5.667,7.647-10.179,4.116c-10.468-8.191-21.972-10.639-34.782-6.87c-8.127,2.391-16.258,4.782-24.637,6.481
		c6.371,2.411,12.756,2.143,19.12,0.188c4.48-1.376,8.974-2.646,13.705-2.393c8.223,0.439,13.033,7.023,10.966,14.869
		c-1.965,7.46-10.197,14.802-17.551,15.652c3.835-10.312-0.582-19.083-11.403-21.486c-8.443-1.874-17.029-3.231-25.618-4.284
		c-10.095-1.238-19.932-3.671-28.206-9.401c-19.91-13.788-42.569-19.291-65.789-23.5c-4.587-0.831-9.152-1.789-13.753-2.525
		c-1.841-0.295-4.819-1.608-5.289,0.726c-0.585,2.902,2.791,3.194,4.912,3.614c9.147,1.809,18.31,3.55,27.505,5.093
		c14.094,2.365,26.919,7.528,37.916,16.79c4.231,3.564,8.171,7.286,8.326,13.564c0.087,3.53-1.212,4.69-4.265,3.54
		c-2.729-1.028-3.871-1.087-4.638,2.379c-1.225,5.534-5.655,7.264-10.811,4.785c-5.786-2.782-8.714-8.12-11.275-13.556
		c-2.361-5.013-5.173-9.682-8.567-14.037c-1.742-2.235-3.548-4.364-6.294-5.416C385.058,786.28,380.272,783.296,374.603,781.763z"/>
	<path fill="FRAME_COLOR" d="M268.463,717.728c-7.664,11.704-15.328,23.408-22.992,35.111c10.804-9.11,15.624-22.836,24.94-33.448
		c1.523,1.91,0.529,3.128,0.398,4.31c-0.922,8.363,0.171,16.208,4.983,23.41c3.882,5.81,7.553,11.777,10.207,18.294
		c5.964,14.645-2.61,30.675-18.137,33.7c-6.208,1.21-12.629,1.661-16.592,7.769c-1.356,2.09-2.694,0.143-3.59-0.781
		c-4.168-4.296-8.658-8.298-12.004-13.355c-1.37-2.071-3.39-4.667-5.872-3.644c-2.378,0.981-3.193,4.121-3.21,6.878
		c-0.037,6.082,2.944,11.102,8.009,13.541c12.787,6.157,16.762,16.178,15.052,29.487c-0.29,2.257,0.171,4.61,0.331,7.867
		c-9.681-5.641-20.677-8.041-25.617-19.063c-4.607-10.279-1.655-20.859-1.735-31.501c-4.066,4.929-6.6,10.569-7.902,16.738
		c-1.478,7.003-2.587,14.083-4.08,21.082c-2.293,10.745-7.673,19.891-15.582,27.377c-6.525,6.177-13.495,11.871-19.423,18.685
		c-2.061,2.369-4.546,4.391-9.042,5.596c3.292-3.862,5.498-7.195,6.875-10.993c2.747-7.576,1.458-15.003-0.166-22.602
		c-4.145-19.4,4.082-34.731,22.277-42.226c2.77-1.141,5.609-2.122,8.354-3.318c7.032-3.065,12.251-8.086,15.557-15.489
		c-4.318,1.539-8.684,2.955-12.945,4.639c-11.913,4.709-23.496,5.059-35.148-1.211c-7.887-4.244-13.766-2.573-20.262,4.6
		c-0.999-0.101-0.851-0.962-0.779-1.497c1.609-11.903,8.066-20.36,18.984-24.985c10.428-4.417,20.417-2.377,27.979,5.764
		c5.791,6.234,12.742,9.022,20.459,10.752c2.643,0.592,4.882-1.264,6.803-3.348c-2.353-1.585-4.777-1.155-7.018-1.05
		c-4.76,0.222-6.789-2.069-6.678-6.559c0.169-6.818,0.235-13.648,1.427-20.397c0.225-1.274,0.433-2.552,0.718-4.238
		c-4.135,0.635-7.211,2.603-10.407,4.19c-4.037,2.005-8.043,4.098-12.588,4.621c-8.88,1.023-15.533-6.655-12.903-14.806
		c0.748-2.319,1.99-4.233,4.493-4.95c1.035-0.297,2.016-0.074,2.671,0.838c0.544,0.757,0.241,1.503-0.092,2.322
		c-2.521,6.202-0.791,9.222,5.899,9.729c9.52,0.721,17.912-2.676,25.796-7.647c1.823-1.149,3.563-2.515,5.526-3.342
		c15.76-6.637,30.205-15.445,43.585-26.052c0.765-0.607,1.594-1.134,2.393-1.698C267.764,717.129,268.113,717.429,268.463,717.728z"
		/>
	<path fill="FRAME_COLOR" d="M1167.445,193.057c5.055-2.227,9.945-4.585,14.985-6.559c9.705-3.801,19.62-4.351,29.134,0.244
		c9.056,4.374,16.663,3.276,23.131-4.37c1.592,0.641,1.087,1.829,0.885,2.61c-2.759,10.681-8.66,19.153-18.588,24.155
		c-9.139,4.605-18.152,3.351-26.424-2.514c-3.111-2.206-5.892-4.878-8.809-7.354c-6.367-5.404-13.733-5.644-19.432-0.602
		c-0.459,0.406-1.14,0.894-1.171,1.38c-0.064,0.976,0.854,1.414,1.676,1.444c2.651,0.098,5.421,0.562,7.938-0.018
		c4.573-1.054,5.818,0.962,5.506,4.914c-0.341,4.314-0.787,8.622-1.256,12.925c-0.467,4.287-0.705,8.612-2.293,13.16
		c4.62,0.188,7.719-2.444,10.964-4.429c3.416-2.09,6.705-4.392,10.62-5.441c9.337-2.502,17.866,6.119,15.448,15.514
		c-0.579,2.25-1.862,3.905-3.8,5.03c-1.25,0.726-2.837,1.931-4.067,0.603c-1.184-1.279,0.609-2.321,1.211-3.376
		c2.973-5.203,1.377-9.093-4.439-10.425c-4.731-1.083-9.251-0.061-13.687,1.606c-22.977,8.635-43.65,21.203-62.58,36.723
		c-1.112,0.912-2.119,1.898-3.462,1.068c-1.696-1.049-0.35-2.379,0.122-3.477c5.033-11.727,9.559-23.697,16.158-34.709
		c-9.278,9.534-13.029,22.14-18.468,34.548c-1.634-2.547-1.08-4.71-0.948-6.672c0.465-6.892-1.184-13.1-4.804-19.018
		c-3.207-5.244-5.999-10.763-8.691-16.298c-6.766-13.914,0.26-30.427,14.929-35.277c2.999-0.992,6.09-1.703,9.123-2.597
		c2.405-0.709,5.146-1.311,6.5-3.457c2.932-4.648,5.248-3.888,8.658-0.322c3.234,3.381,6.593,6.537,8.833,10.723
		c1.129,2.11,2.613,3.945,5.507,3.223c2.868-0.715,3.76-2.588,3.981-5.464c0.678-8.831-0.61-11.231-8.616-14.642
		c-12.693-5.408-16.51-11.493-15.876-25.09c0.145-3.113,0.022-6.239,0.022-10.365c3.448,2.9,6.526,4.803,9.96,5.947
		c14.443,4.811,19.706,10.975,18.918,30.731c-0.163,4.091-0.918,8.158-0.377,13.093c4.754-5.67,6.85-11.663,7.743-18.08
		c0.619-4.443,0.72-8.956,1.084-13.436c1.072-13.159,6.119-24.479,15.874-33.485c6.729-6.212,13.635-12.232,20.489-18.307
		c2.748-2.436,5.936-4.068,9.754-4.954c-9.192,9.051-9.775,19.681-7.388,31.456c3.558,17.547-4.077,31.776-21.029,40.476
		c-8.062,4.138-15.821,8.586-21.476,15.913C1168.261,190.655,1167.125,191.313,1167.445,193.057z"/>
	<path fill="FRAME_COLOR" d="M273.741,698.478c-2.447-4.386-2.968-8.984-3.562-13.53c-1.812-13.863-1.203-27.688,2.697-41.084
		c5.198-17.857,16.297-30.357,34.991-34.803c9.751-2.319,17.78-7.174,24.354-14.704c3.915-4.483,8.707-7.475,15.711-7.424
		c-9.602,12.74-9.243,26.292-6.126,40.41c5.523,25.018-3.69,44.448-23.866,59.007c-7.906,5.705-16.218,11-26.449,12.226
		c-3.132,0.375-6.02,2.662-9.061,3.977c-1.315,0.568-2.675,1.667-4.197,0.557c-1.647-1.202-1.347-2.858-0.907-4.533
		c1.641-6.243,4.772-11.647,9.167-16.341c0.453-0.483,1.056-0.834,1.468-1.344c1.304-1.616,2.273-3.364,1.143-5.471
		c-0.62-1.156-1.742-1.576-2.975-1.312c-2.216,0.475-2.685,2.385-2.94,4.193C282.113,685.95,276.788,691.592,273.741,698.478z
		 M291.61,688.808c-0.355-0.279-0.71-0.559-1.065-0.838c-3.617,3.616-8.174,6.459-9.262,12.16
		C284.726,696.356,288.168,692.582,291.61,688.808z"/>
	<path fill="FRAME_COLOR" d="M1104.533,282.296c-2.735,4.052-5.939,6.116-9.209,9.018c4.193,0.334,5.871-2.529,8.17-4.163
		c2.235-1.588,2.984-4.953,7.154-5.419c-1.879,8.825-8.055,14.336-14.33,21.056c4.973-1.407,7.034-4.738,9.258-7.542
		c2.464-3.106,4.284-6.725,6.364-10.134c0.523-0.858,0.989-1.978,2.174-1.644c1.117,0.315,1.277,1.463,1.112,2.499
		c-1.165,7.332-1.003,15.109-6.965,20.852c-0.588,0.566-1.076,1.29-1.439,2.026c-0.666,1.35-1.344,2.798-0.213,4.214
		c0.773,0.967,1.872,1.38,3.12,1.089c1.686-0.394,2.712-1.671,2.672-3.219c-0.225-8.672,5.887-15.938,4.829-25.424
		c3.06,2.368,2.875,5.275,3.349,7.573c3.901,18.947,2.285,37.472-5.349,55.296c-5.22,12.187-14.492,20.379-27.025,24.282
		c-10.691,3.33-19.57,8.788-26.731,17.444c-4.037,4.88-8.142,6.242-14.051,6.028c9.58-13.302,6.69-27.267,3.619-41.674
		c-4.684-21.976,2.795-40.141,20.364-53.783C1081.094,293.149,1091.483,286.474,1104.533,282.296z"/>
	<path fill="FRAME_COLOR" d="M162.375,747.372c-5.998-1.311-10.021-6.36-10.676-13.049c-0.712-7.271,1.935-13.107,7.936-17.237
		c6.33-4.357,11.369-9.78,14.425-16.854c13.62-31.52,50.925-31.458,71.653-10.955c5.452,5.393,10.493,11.065,17.759,14.218
		c2.882,1.251,2.688,4.004-0.091,5.442c-1.097,0.568-2.379,0.778-3.929,1.26c2.415,1.078,5.117-0.083,7.274,2.93
		c-16.479,8.471-33.213,14.882-51.847,15.425c13.293,2.659,25.927,0.315,38.296-4.992c-11.646,7.919-22.911,16.39-36.849,19.959
		c-9.166,2.347-17.087-0.117-24.112-6.168c-5.188-4.469-11.056-7.359-18.029-7.686C160.484,729.023,156.735,734.386,162.375,747.372
		z"/>
	<path fill="FRAME_COLOR" d="M1223.226,239.132c11.246,3.622,15.728,19.871,7.278,26.838c-8.87,7.313-14.708,16.351-20.857,25.69
		c-10.281,15.614-29.964,20.341-48.002,12.761c-10.454-4.393-19.125-11.392-27.328-19.003c-2.795-2.593-5.135-5.525-8.986-6.902
		c-2.589-0.925-3.248-2.6-0.701-5.206c5.701-5.832,13.196-7.948,20.407-10.494c9.534-3.366,19.042-6.966,29.078-8.848
		c-13.471-0.5-26.034,3.344-38.583,7.839c10.999-7.594,20.937-17.037,34.64-19.98c9.362-2.011,17.829,0.068,25.292,6.146
		c5.675,4.622,11.982,7.902,19.433,8.264c3.568,0.173,7.787,1.122,9.939-2.791c2.098-3.814,1.965-8.004-0.347-11.916
		C1224.168,240.986,1223.898,240.412,1223.226,239.132z"/>
	<path fill="FRAME_COLOR" d="M727.977,850.508c1.19,8.979-6.096,13.095-17.796,9.496c1.633,1.985,3.085,3.453,4.154,5.161
		c0.638,1.018,1.662,2.428,0.596,3.651c-1.08,1.24-2.503,0.366-3.705-0.102c-1.363-0.531-2.661-1.229-4.501-2.096
		c0.672,9.996-5.925,16.569-9.918,25.454c-3.693-8.804-10.367-15.246-9.992-24.769c-3.107,0.191-6.476,4.096-8.33,0.931
		c-2.133-3.641,3.442-4.904,4.782-8.227c-4.206,1.057-8.261,2.462-12.34,0.449c-4.25-2.098-6.142-5.343-5.123-10.199
		c6.693,4.411,10.092,3.62,13.987-3.573c8.753-16.165,10.303-33.173,5.56-50.846c-1.859-6.928-4.238-13.676-6.927-20.319
		c-2.213-5.467-5.347-10.025-12.362-11.393c5.627-4.707,11.268-4.299,16.768-2.035c2.43,1.001,3.061,0.63,3.802-1.549
		c2.319-6.818,6.652-12.634,9.818-19.858c3.676,6.462,7.261,12.341,9.482,18.848c1.022,2.994,1.694,3.862,4.966,2.395
		c4.732-2.121,9.686-2.134,14.539,1.886c-10.237,3.707-11.379,13.231-14.425,21.387c-7.159,19.168-7.983,38.355,0.661,57.386
		c0.482,1.062,0.914,2.148,1.441,3.187C717.021,853.463,720.937,854.705,727.977,850.508z"/>
	<path fill="FRAME_COLOR" d="M725.58,224.855c-5.359,3.979-10.242,3.581-15.064,1.845c-2.466-0.888-3.233-0.436-4.32,1.983
		c-2.777,6.177-6.09,12.113-9.626,18.997c-3.659-6.926-7.048-12.92-9.987-19.128c-1.056-2.231-1.53-2.92-4.141-1.892
		c-6.079,2.394-10.674,1.696-16.209-1.982c8.559-1.61,11.025-8.287,13.697-14.82c7.722-18.881,11.436-37.956,2.874-57.642
		c-0.862-1.981-1.693-3.993-2.763-5.862c-3.815-6.665-7.702-7.728-14.414-3.847c-0.671-3.771,0.626-6.51,3.589-8.579
		c4.115-2.874,8.435-2.85,14.565,0.137c-1.081-2.282-3.202-3.392-4.654-5.098c-0.966-1.135-2.112-2.568-1.242-4.026
		c0.987-1.652,2.74-0.651,4.087-0.27c1.407,0.398,2.708,1.168,4.505,1.977c0.162-4.846,0.632-9.391,3.128-13.389
		c2.433-3.897,4.887-7.782,7.133-13.261c3.242,9.985,12.16,16.41,9.126,27.165c0.797,0,1.207,0.13,1.397-0.02
		c2.24-1.76,5.323-4.494,7.359-2.136c2.339,2.708-1.901,4.502-3.399,6.62c-0.54,0.764-1.274,1.39-1.841,2.399
		c5.526-3.113,10.856-3.249,15.838,0.73c2.544,2.032,3.252,4.774,2.327,8.072c-6.58-4.376-10.339-3.704-14.118,3.377
		c-8.988,16.838-10.57,34.48-4.482,52.661c1.742,5.202,3.632,10.365,5.697,15.447C716.558,219.036,719.133,223.313,725.58,224.855z"
		/>
	<path fill="FRAME_COLOR" d="M1011.122,636.869c5.242-7.131,13.603-9.188,19.629-4.27c7.766,6.337,15.881,7.506,25.596,6.265
		c18.847-2.406,31.496,7.022,35.483,25.697c2.259,10.581,4.775,21.015,9.758,30.643c-2.02,1.28-3.015-0.029-4.111-0.515
		c-10.59-4.702-21.727-7.355-33.163-8.829c-4.376-0.564-8.489-1.654-12.041-4.373c-0.932-0.713-1.801-1.203-3.114-1.211
		c-4.082-0.025-6.227-2.764-7.647-6.156c-1.648-3.937-0.891-4.944,3.344-4.459c1.804,0.206,2.963-0.518,3.518-2.045
		c0.607-1.671-0.793-2.351-1.961-2.988c-2.043-1.115-4.116-2.177-6.182-3.251c-6.582-3.422-11.454-8.435-14.525-15.239
		C1022.991,640.121,1019.754,634.68,1011.122,636.869z"/>
	<path fill="FRAME_COLOR" d="M376.623,344.482c-3.728,5.87-11.003,8.409-16.709,4.081c-9.615-7.293-19.187-7.312-30.458-5.307
		c-14.519,2.584-27.23-7.34-31.856-22.865c-2.324-7.799-3.994-15.791-6.149-23.643c-0.703-2.56,0.448-4.178,1.997-5.723
		c1.677-1.673,3.596-1.274,5.538-0.366c8.044,3.759,16.418,6.358,25.271,7.432c3.712,0.45,7.259,0.444,10.772-1.039
		c4.66-1.967,8.061,0.044,10.699,3.809c1.253,1.788,2.6,4.073,1.585,5.995c-0.969,1.835-2.949-0.263-4.511-0.29
		c-1.152-0.02-2.439-0.263-3.029,1.089c-0.539,1.232,0.015,2.288,0.946,3.102c0.619,0.541,1.299,1.114,2.055,1.381
		c10.123,3.573,15.707,11.348,19.332,20.892C364.636,339.687,368.374,344.795,376.623,344.482z"/>
	<path fill="FRAME_COLOR" d="M196.128,378.834c-17.735,5.052-43.715-26.602-37.417-40.699c1.342,0.692,1.347,2.159,1.875,3.281
		c3.585,7.611,9.312,12.866,17.231,15.666c7.039,2.488,14.489,3.756,21.21,7.226c1.127,0.582,2.741,1.018,3.865,0.669
		c4.722-1.466,5.196,1.227,4.477,4.563c-2.623,12.174-5.046,24.458-11.852,35.209c-2.476,3.911-6.085,6.597-10.602,7.846
		c-8.391,2.319-14.381-3.019-12.903-11.585c1.183-6.853,5.344-11.754,11.09-15.266C187.028,383.342,191.238,381.403,196.128,378.834
		z"/>
	<path fill="FRAME_COLOR" d="M374.603,781.763c5.669,1.533,10.454,4.516,14.448,8.798c5.443,5.984,8.038,12.901,6.715,21.023
		c-0.235,1.445-0.739,2.918-1.446,4.196c-0.818,1.48-2.213,2.795-3.945,2.68c-1.595-0.106-1.389-2.021-1.872-3.173
		c-1.709-4.074-4.879-6.801-8.642-8.663c-9.877-4.885-11.323-13.667-10.747-23.173C369.341,779.715,372.659,782.07,374.603,781.763z
		"/>
	<path fill="FRAME_COLOR" d="M155.092,577.905c2.198-8.499,3.231-16.263,10.175-21.391c4.223-3.119,8.453-3.057,11.908,0.9
		c3.177,3.64,7.367,8.399,5.62,12.464c-1.108,2.579-7.779-0.038-11.926-0.565c-1.439-0.183-2.806-0.981-4.192-1.532
		c-2.692-1.071-4.48-0.235-5.477,2.474C160.176,573.039,159.141,575.836,155.092,577.905z"/>
	<path fill="FRAME_COLOR" d="M1229.539,399.269c2.112,8.322-3.466,19.963-10.096,22.682c-2.526,1.036-4.809,0.841-7.02-0.852
		c-2.435-1.864-4.139-4.29-5.688-6.866c-2.812-4.676-1.616-7.035,3.849-7.193c1.959-0.057,3.968,0.356,5.899,0.797
		c7.342,1.676,7.633,1.57,11.2-5.268C1228.131,401.71,1228.631,400.879,1229.539,399.269z"/>
	<path fill="FRAME_COLOR" d="M1200.91,419.109c1.5,4.419,3.086,8.811,4.481,13.263c2.418,7.719,6.522,14.186,13.504,18.531
		c4.628,2.88,9.486,4.854,16.029,2.25c-6.952,4.278-15.104,3.431-22.098-1.601C1204.098,445.272,1197.714,429.355,1200.91,419.109z"
		/>
	<path fill="FRAME_COLOR" d="M156.308,446.237c9.234,5.218,18.734,2.411,26.041-7.846c3.887-5.455,6.65-11.526,9.096-17.738
		c0.577-1.466,0.808-3.14,2.485-4.149c2.058,9.43-7.065,27.315-15.993,31.84C169.397,452.673,161.067,451.861,156.308,446.237z"/>
	<path fill="FRAME_COLOR" d="M1232.43,534.553c-21.597,0.815-26.652,17.357-32.109,34.247c-3.085-7.883,1.353-20.551,8.985-28.222
		C1215.742,534.109,1225.108,531.65,1232.43,534.553z"/>
	<path fill="FRAME_COLOR" d="M261.407,258.498c3.271,0.832,3.383,5.028,6.973,5.056c0.161-3.081-3.507-4.425-3.246-7.396
		c5.039,0.845,10.697,7.741,10.469,12.509c-0.124,2.586-1.213,3.006-3.549,2.281C267.244,269.457,262.698,264.448,261.407,258.498z"
		/>
	<path fill="FRAME_COLOR" d="M173.272,435.715c-3.284-0.4-5.657-2.062-5.66-5.597c-0.003-3.513,2.174-5.498,5.7-5.42
		c3.224,0.071,5.386,1.789,5.333,5.203C178.594,433.223,177.145,435.616,173.272,435.715z"/>
	<path fill="FRAME_COLOR" d="M1218.146,548.734c3.38,0.471,5.611,1.984,5.504,5.42c-0.105,3.377-2.246,5.163-5.523,4.998
		c-3.188-0.16-5.276-1.976-5.296-5.372C1212.81,550.176,1215.265,549.071,1218.146,548.734z"/>
	<path fill="FRAME_COLOR" d="M1217.981,440.507c-3.045-0.226-5.046-1.695-5.049-4.883c-0.003-3.16,2.014-4.867,5.002-4.981
		c2.726-0.104,4.935,1.155,5.039,4.213C1223.085,438.13,1221.258,440.023,1217.981,440.507z"/>
	<path fill="FRAME_COLOR" d="M289.52,280.394c1.931,0.171,3.396,0.835,3.352,2.966c-0.066,3.199-2.403,4.822-4.972,5.402
		c-1.676,0.379-3.064-1.446-2.956-3.297C285.107,282.662,286.85,280.996,289.52,280.394z"/>
	<path fill="FRAME_COLOR" d="M180.402,549.017c-0.464,2.247-1.358,4.326-4.019,4.203c-1.904-0.088-3.575-1.306-3.573-3.461
		c0.002-2.472,1.415-4.099,3.992-4.117C178.889,545.628,180.143,546.861,180.402,549.017z"/>
	<path fill="FRAME_COLOR" d="M277.878,710.41c-0.019,2.153-1.406,3.055-3.223,2.776c-2.66-0.407-3.837-2.443-3.83-4.963
		c0.005-1.609,1.015-3.101,2.801-2.558C275.828,706.335,277.917,707.531,277.878,710.41z"/>
	<path fill="FRAME_COLOR" d="M1113.77,272.696c2.48,0.719,5.16,1.745,5.614,5.033c0.24,1.737-1.2,2.095-2.682,1.946
		c-2.999-0.301-4.732-2.396-5.713-4.822C1110.452,273.526,1111.847,272.546,1113.77,272.696z"/>
	<path fill="FRAME_COLOR" d="M1134.181,731.532c-5.158-2.837-9.314-5.781-12.468-9.986c-0.948-1.264-1.548-2.595-0.566-4.118
		c0.934-1.45,2.34-1.687,3.932-1.539c5.227,0.486,9.448,4.609,10.492,10.455c-2.648-0.423-3.976-3.327-7.141-3.606
		C1129.663,726.14,1133.689,727.39,1134.181,731.532z"/>
</g>
</svg>
