<?xml version="1.0" encoding="UTF-8" standalone="no"?>
<!-- Creator: CorelDRAW X8 -->

<svg
   xmlns:dc="http://purl.org/dc/elements/1.1/"
   xmlns:cc="http://creativecommons.org/ns#"
   xmlns:rdf="http://www.w3.org/1999/02/22-rdf-syntax-ns#"
   xmlns:svg="http://www.w3.org/2000/svg"
   xmlns="http://www.w3.org/2000/svg"
   xmlns:sodipodi="http://sodipodi.sourceforge.net/DTD/sodipodi-0.dtd"
   xmlns:inkscape="http://www.inkscape.org/namespaces/inkscape"
   xml:space="preserve"
   width="7.23415in"
   height="5.97856in"
   version="1.1"
   style="shape-rendering:geometricPrecision; text-rendering:geometricPrecision; image-rendering:optimizeQuality; fill-rule:evenodd; clip-rule:evenodd"
   viewBox="0 0 7234 5979"
   id="svg4073"
   sodipodi:docname="FULL WELD.svg"
   inkscape:version="0.92.3 (2405546, 2018-03-11)"><metadata
   id="metadata4077"><rdf:RDF><cc:Work
       rdf:about=""><dc:format>image/svg+xml</dc:format><dc:type
         rdf:resource="http://purl.org/dc/dcmitype/StillImage" /><dc:title></dc:title></cc:Work></rdf:RDF></metadata><sodipodi:namedview
   pagecolor="#ffffff"
   bordercolor="#666666"
   borderopacity="1"
   objecttolerance="10"
   gridtolerance="10"
   guidetolerance="10"
   inkscape:pageopacity="0"
   inkscape:pageshadow="2"
   inkscape:window-width="1920"
   inkscape:window-height="1001"
   id="namedview4075"
   showgrid="false"
   inkscape:zoom="1.2513239"
   inkscape:cx="374.52132"
   inkscape:cy="277.24305"
   inkscape:window-x="-9"
   inkscape:window-y="-9"
   inkscape:window-maximized="1"
   inkscape:current-layer="_1220010992" />
 <defs
   id="defs4051">
  <style
   type="text/css"
   id="style4049">
   <![CDATA[
    .fil1 {fill:FRAME_COLOR}
    .fil0 {fill:FRAME_COLOR;fill-rule:nonzero}
   ]]>
  </style>
 </defs>
 <g
   id="Layer_x0020_1"
   transform="matrix(0.86493238,0,0,0.86493238,599.40929,332.95662)"
   style="fill:FRAME_COLOR">
  <metadata
   id="CorelCorpID_0Corel-Layer" />
  <g
   id="_1220010992"
   style="fill:FRAME_COLOR">
   <path
   style="fill:FRAME_COLOR;fill-rule:nonzero;stroke-width:0.0830274"
   d="M 368.64453 31.931641 C 364.49219 31.931641 361.65974 32.376953 361.36914 32.376953 L 359.54297 32.708984 L 360.12305 33.955078 C 360.20607 34.20416 361.45154 36.694568 364.02539 39.849609 C 365.2708 41.344103 366.84818 43.086542 368.75781 44.664062 C 370.66744 46.324611 372.90953 47.986015 375.56641 49.314453 C 376.89484 49.978672 378.2243 50.559472 379.55273 50.974609 C 380.88117 51.472774 382.20867 51.970625 383.53711 52.302734 C 386.19399 53.049981 388.76803 53.465762 391.00977 53.714844 C 393.00242 54.046953 394.66275 54.129863 396.07422 54.212891 L 398.23242 55.541016 C 400.30811 56.786427 402.96617 58.695839 405.62305 60.605469 C 406.86846 61.51877 408.19698 62.433398 409.35938 63.263672 C 410.27268 63.927891 411.10336 64.590683 411.76758 65.171875 C 409.44281 64.507656 406.95176 64.093868 404.46094 63.595703 C 401.97012 63.180566 399.47815 62.597735 396.9043 62.265625 C 394.33045 61.933515 391.67346 61.518653 389.09961 61.103516 C 386.52576 60.854433 383.86977 60.605547 381.21289 60.273438 C 378.63904 60.024354 375.9811 59.859414 373.32422 59.693359 C 370.66734 59.527305 368.09438 59.360371 365.4375 59.277344 L 362.86328 59.277344 C 362.69723 59.028262 362.53229 58.861406 362.2832 58.529297 C 361.45293 57.699023 360.20651 56.454513 358.29688 54.710938 C 356.47026 53.133416 354.14627 51.223244 350.9082 48.732422 C 351.73848 47.570038 352.15234 46.241544 352.15234 44.830078 C 352.06932 42.505311 350.7417 40.513029 348.66602 39.101562 C 347.66969 38.354316 346.42318 37.773516 345.01172 37.441406 C 343.68328 37.109297 342.18885 36.942363 340.61133 37.025391 C 337.53931 37.274473 334.80121 38.35412 332.97461 39.931641 C 331.14801 41.675216 330.2343 43.834432 330.56641 46.076172 C 330.89852 48.317912 332.39307 50.227245 334.46875 51.472656 C 336.54443 52.801095 339.20051 53.548868 342.02344 53.382812 C 343.4349 53.299785 344.76435 52.966914 346.00977 52.46875 C 347.00609 52.053613 348.00176 51.556797 348.83203 50.892578 C 351.57194 53.051291 354.22801 55.208553 356.38672 57.035156 C 357.21699 57.782403 358.04867 58.531093 358.71289 59.195312 L 357.7168 59.111328 C 355.14295 59.194356 352.65098 59.277344 350.16016 59.277344 C 348.91475 59.360371 347.66924 59.361328 346.42383 59.361328 C 345.17842 59.444356 344.0159 59.526348 342.85352 59.609375 C 340.44572 59.77543 338.12164 59.942363 335.79688 60.025391 C 333.55513 60.274473 331.39699 60.522402 329.23828 60.771484 C 328.15893 60.854512 327.16139 60.937461 326.08203 61.103516 C 325.0857 61.186543 324.09008 61.353476 323.09375 61.519531 L 319.60547 62.017578 C 318.11098 60.938222 316.20264 59.776622 314.12695 58.697266 C 311.96824 57.617909 309.64213 56.62129 307.40039 55.791016 C 305.24168 54.960742 303.16637 54.213008 301.67188 53.714844 C 300.92462 53.465762 300.26084 53.299824 299.8457 53.216797 C 299.92873 52.46955 299.84574 51.639825 299.67969 50.892578 C 298.60033 47.405427 293.86733 45.49582 289.13477 46.658203 C 284.4022 47.820587 281.82877 51.721873 283.24023 55.042969 C 284.73473 58.447092 289.38375 60.19168 293.70117 59.029297 C 295.85988 58.531132 297.68627 57.285509 298.76562 55.791016 L 300.0957 56.205078 C 301.50717 56.620215 303.49949 57.28496 305.6582 58.115234 C 307.73389 58.945508 310.05908 59.858144 312.13477 60.9375 C 313.21412 61.435664 314.20975 61.934433 315.12305 62.515625 C 315.20607 62.515625 315.37205 62.598613 315.45508 62.681641 C 311.05463 63.428887 307.23604 64.175625 304.33008 64.839844 L 298.76562 66.085938 C 298.43352 66.002909 298.01865 65.919961 297.60352 65.753906 C 296.85627 65.587851 296.02662 65.33793 294.94727 65.171875 C 293.95094 65.00582 292.87236 64.839883 291.62695 64.673828 C 289.13613 64.424746 286.23022 64.259726 283.1582 64.425781 C 280.08619 64.674863 276.84744 65.254628 273.60938 66.333984 C 270.3713 67.496368 267.63045 69.074823 265.22266 70.652344 C 262.89789 72.312892 260.9896 74.222265 259.57812 75.882812 C 258.83088 76.713087 258.16518 77.459785 257.58398 78.207031 C 257.08582 78.87125 256.67195 79.61998 256.33984 80.201172 C 256.19294 80.429691 256.13302 80.557416 256.01758 80.751953 C 255.40874 81.084402 252.81867 82.494897 251.85547 82.939453 C 251.27428 83.188535 250.61053 83.522363 249.86328 83.9375 C 249.03301 84.26961 248.20336 84.767461 247.20703 85.265625 C 246.95795 85.43168 246.70906 85.596659 246.37695 85.679688 C 245.87879 85.596659 242.47444 85.099728 239.07031 84.601562 C 237.16068 84.35248 235.33434 84.185586 233.83984 84.019531 L 233.42383 84.019531 C 233.25777 82.691093 232.76 81.279571 231.76367 80.117188 C 230.18615 78.290584 227.86195 77.127988 225.20508 76.878906 C 223.87664 76.795879 222.4642 76.878827 221.05273 77.210938 C 220.38852 77.293965 219.72477 77.543887 219.06055 77.792969 C 218.39633 78.042051 217.73158 78.373926 217.15039 78.789062 C 214.7426 80.366584 213.24912 82.524881 212.83398 84.683594 C 212.41885 86.842306 213.0826 89.08455 214.82617 90.828125 C 216.65277 92.488673 219.06092 93.402305 221.63477 93.568359 C 224.29164 93.817442 226.94771 93.235685 229.18945 91.824219 C 229.68762 91.409082 230.18643 91.076289 230.60156 90.578125 C 231.09973 90.246015 231.51359 89.749121 231.8457 89.333984 C 232.50992 88.50371 232.92475 87.590079 233.17383 86.59375 C 234.66832 86.759805 236.57865 86.924746 238.48828 87.173828 C 239.89975 87.339883 241.39521 87.589805 242.64062 87.755859 C 241.81035 88.170996 241.0627 88.58582 240.23242 89.083984 C 238.90398 89.831231 237.49254 90.661913 235.99805 91.492188 C 234.50355 92.405489 232.92613 93.318124 231.43164 94.314453 C 228.2766 96.390138 224.87287 98.55019 221.46875 101.04102 C 219.39307 102.45248 217.3999 104.0299 215.32422 105.60742 L 215.24023 105.52344 C 215.24023 105.52344 213.6627 105.85631 211.17188 106.4375 C 209.92645 106.76961 208.43199 107.10049 206.9375 107.51562 C 205.44301 107.93077 203.78359 108.43057 202.12305 108.8457 C 200.4625 109.34387 198.80113 109.84168 197.30664 110.33984 C 196.14426 110.67195 195.06565 111.00383 194.15234 111.33594 L 192.6582 110.83789 C 192.40912 110.75486 189.337 109.84188 184.85352 109.50977 C 182.61178 109.34371 179.95475 109.25969 177.21484 109.5918 C 174.47494 110.00693 171.48604 110.6706 168.58008 111.91602 C 167.83283 112.1651 167.08414 112.49893 166.41992 112.91406 C 165.7557 113.24617 165.09195 113.66008 164.42773 113.99219 C 163.18232 114.82246 162.02076 115.6531 160.94141 116.56641 C 159.86205 117.47971 158.86447 118.39334 157.95117 119.30664 C 157.03787 120.21994 156.29217 121.13356 155.54492 122.04688 C 152.80502 125.61705 151.39258 128.43937 151.39258 128.77148 L 150.72852 130.26562 L 152.38867 130.43164 C 152.96986 130.51467 165.42519 131.84293 176.21875 127.02734 C 178.95865 125.86496 181.28174 124.37145 183.35742 122.87695 C 185.43311 121.29943 187.17737 119.72106 188.67188 118.22656 C 189.83426 116.89812 190.82988 115.81859 191.66016 114.82227 L 194.15234 113.99219 C 196.56014 113.24494 199.71406 112.08223 203.03516 111.25195 C 204.6957 110.75379 206.27404 110.33897 207.85156 109.92383 C 208.93092 109.59172 209.9275 109.2598 210.92383 109.09375 C 203.94953 114.90567 196.89211 121.46416 190.58203 128.52148 C 186.8458 132.58983 183.44215 136.8242 180.28711 141.05859 C 179.955 141.14162 179.62217 141.14158 179.20703 141.22461 C 177.79557 141.30764 175.96842 141.64051 173.22852 142.13867 C 170.73769 142.63684 167.417 143.30051 163.26562 144.46289 C 163.09957 144.21381 162.84965 143.96588 162.68359 143.7168 C 161.85332 142.88652 160.8577 142.13979 159.69531 141.55859 C 157.28752 140.47924 154.54746 140.39434 152.05664 141.22461 C 149.56582 141.97186 147.24154 143.63422 145.83008 145.95898 C 144.50164 148.28375 144.33574 150.77293 145.16602 152.93164 C 145.91326 155.00733 147.73965 156.75076 150.23047 157.66406 C 152.72129 158.57736 155.46035 158.41231 157.95117 157.58203 C 160.35897 156.75176 162.35225 155.25637 163.59766 153.09766 C 164.84307 151.105 165.09291 149.02977 164.51172 147.03711 C 166.00621 146.62197 167.49965 146.20711 168.99414 145.875 C 170.9868 145.45986 172.98008 145.045 174.64062 144.71289 C 175.96907 144.46381 177.13062 144.21488 178.12695 144.04883 C 176.63246 146.12451 175.22102 148.19971 173.89258 150.27539 C 172.73019 152.10199 171.65162 153.92829 170.57227 155.67188 C 169.49291 157.41545 168.57932 159.2418 167.66602 160.90234 C 165.67336 164.30647 164.17809 167.71219 162.68359 170.70117 C 162.51754 171.11631 162.3516 171.53117 162.18555 171.86328 C 162.01949 172.27842 161.85355 172.61025 161.6875 173.02539 L 161.6875 173.19141 L 60.560547 173.19141 C 59.066054 173.19141 57.738281 174.27021 57.738281 175.51562 C 57.738281 175.68169 57.737285 175.84861 57.820312 175.93164 C 57.654258 176.34678 57.572266 176.67861 57.572266 177.09375 C 57.572266 178.92035 59.066971 180.33203 60.810547 180.33203 L 654.95312 180.33203 C 656.77974 180.33203 658.19141 178.92035 658.19141 177.09375 C 658.19141 176.67861 658.10842 176.34678 658.02539 175.93164 L 658.02539 175.51562 C 658.02539 174.27021 656.78066 173.19141 655.20312 173.19141 L 565.28516 173.19141 L 565.5332 173.02539 C 565.86531 172.69328 575.82797 166.1344 576.49219 155.25781 C 576.65824 152.51791 576.07732 149.86093 575.33008 147.45312 C 574.66586 144.9623 573.50322 142.71918 572.25781 140.89258 C 571.09543 138.98295 569.93379 137.40553 569.10352 136.32617 C 568.10719 135.24682 567.4424 134.58303 567.35938 134.5 L 566.11523 133.33789 L 565.03516 134.41797 C 564.8691 134.58402 562.87643 136.7414 560.9668 140.0625 C 559.88744 141.80608 558.89178 143.80027 558.14453 145.95898 C 557.72939 147.12137 557.47955 148.1999 557.23047 149.44531 C 556.98139 150.6077 556.81545 151.85225 556.73242 153.09766 C 556.64939 155.67151 556.98227 158.08053 557.64648 160.32227 C 558.22768 162.64703 558.97441 164.72322 559.80469 166.4668 C 560.21982 167.3801 560.63564 168.1258 561.05078 168.87305 C 561.38289 169.37121 561.63178 169.87002 561.88086 170.28516 L 561.46484 172.52734 L 561.38281 173.19141 L 553.08008 173.19141 C 551.50256 169.70426 549.84123 166.13459 548.09766 162.73047 C 546.93527 160.73781 545.8567 158.66158 544.77734 156.75195 C 543.61496 154.7593 542.36941 152.84908 541.20703 150.93945 C 540.87492 150.27523 540.46006 149.61049 540.04492 149.0293 C 540.12795 148.78021 540.29293 148.53133 540.45898 148.19922 C 540.95715 147.20289 541.6209 145.70854 542.45117 143.4668 C 542.78328 142.30441 543.28113 140.97692 543.7793 139.48242 C 544.02838 138.73518 544.27826 137.90354 544.52734 136.99023 L 545.02539 135.16406 C 546.60291 135.16406 548.26332 134.83318 549.75781 134.08594 C 554.40735 131.76117 555.56918 126.28032 552.08203 121.96289 C 548.51185 117.72849 542.03717 116.48275 537.63672 119.22266 C 533.31929 121.96256 532.48849 127.27644 535.72656 131.0957 C 537.13803 132.92231 539.29633 134.25084 541.62109 134.83203 L 540.625 138.56836 C 540.12684 140.22891 539.54504 141.80728 539.04688 143.21875 C 538.63173 144.29811 538.30086 145.21074 537.96875 146.04102 L 537.4707 145.29297 C 536.14226 143.46637 534.97983 141.64006 533.56836 139.89648 C 532.23992 138.15291 530.91047 136.49258 529.58203 134.83203 C 528.25359 133.25451 526.84211 131.67713 525.51367 130.09961 C 524.84945 129.35236 524.26969 128.60467 523.60547 127.85742 C 522.85822 127.11018 522.19352 126.44647 521.5293 125.69922 C 520.20086 124.28775 518.9544 122.96025 517.70898 121.71484 C 516.96174 120.9676 516.13201 120.2199 515.38477 119.47266 C 516.21504 116.15156 516.29895 111.5019 515.80078 107.59961 C 515.46867 104.69365 515.05281 102.12041 514.7207 100.875 C 515.634 100.54289 516.3807 100.12707 517.04492 99.628906 C 520.19996 97.055057 519.78502 92.736995 516.21484 89.914062 C 515.30154 89.249843 514.38795 88.67 513.30859 88.337891 C 512.22924 88.005781 511.14967 87.921875 510.07031 87.921875 C 507.9116 87.921875 505.91928 88.586581 504.50781 89.998047 C 503.09635 91.326485 502.51559 93.069921 502.68164 94.730469 C 502.8477 95.64377 503.09754 96.473457 503.5957 97.220703 C 504.09387 98.050977 504.67363 98.798671 505.50391 99.462891 C 507.16445 100.7083 509.32371 101.37205 511.48242 101.45508 L 511.73242 102.53516 C 511.9815 103.78057 512.22943 105.60599 512.47852 107.51562 C 512.7276 109.42527 512.81055 111.58547 512.81055 113.57812 C 512.81055 114.65749 512.72756 115.73705 512.64453 116.81641 C 511.89728 116.15219 511.23258 115.48744 510.56836 114.90625 C 508.32662 112.99662 506.41736 111.33529 504.83984 109.92383 C 503.1793 108.51236 501.8508 107.51578 500.9375 106.85156 L 500.68945 106.60352 C 500.35734 105.3581 499.77566 103.19881 498.61328 100.79102 C 497.69998 98.881381 496.37248 96.723166 494.62891 94.564453 C 492.88533 92.488768 490.56022 90.496525 487.82031 88.669922 C 482.25748 85.265798 475.86446 83.770606 470.88281 83.355469 C 468.39199 83.189414 466.3158 83.106426 464.73828 83.189453 C 464.26434 83.215783 463.94323 83.253977 463.58008 83.289062 C 461.87468 82.476813 460.01245 81.590841 459.58984 81.363281 C 459.00865 81.114199 458.3449 80.781328 457.59766 80.449219 C 456.85041 80.034082 455.93678 79.701289 454.85742 79.203125 L 454.02734 78.871094 C 453.77826 78.372929 452.69855 75.717424 451.45312 73.060547 C 451.12102 72.3133 450.78914 71.56461 450.45703 70.900391 C 450.12492 70.236171 449.79305 69.572383 449.46094 69.074219 L 449.29492 68.742188 C 450.70639 67.911913 451.78596 66.833302 452.5332 65.587891 C 453.77861 63.512206 453.69459 61.270001 452.61523 59.277344 C 451.53588 57.284686 449.4616 55.457266 446.63867 54.460938 C 443.81574 53.464608 440.82676 53.547675 438.33594 54.294922 C 435.84512 55.042168 433.85275 56.620584 432.93945 58.779297 C 432.02615 60.854982 432.27416 63.180214 433.35352 65.089844 C 434.5159 67.082501 436.42615 68.65996 439 69.490234 C 441.49082 70.403536 444.06486 70.486485 446.47266 69.822266 C 447.05385 70.984649 447.79962 72.396132 448.54688 73.890625 C 449.04504 75.053009 449.54385 76.215605 449.95898 77.128906 L 447.38477 76.048828 C 444.47881 74.969472 441.15906 73.724923 437.50586 72.396484 C 435.67926 71.815293 433.76805 71.150547 431.77539 70.486328 C 430.77906 70.237246 429.70141 69.904375 428.70508 69.572266 C 427.62572 69.240156 426.54615 68.909238 425.4668 68.660156 C 423.30808 68.078964 421.14899 67.413223 418.82422 66.832031 L 417.57812 66.5 L 417.74414 66.417969 C 417.74414 66.417969 416.49848 65.421231 414.67188 64.009766 C 412.76223 62.515272 410.27211 60.523868 407.61523 58.697266 C 405.29047 57.119745 402.96531 55.458302 400.97266 54.212891 L 400.72461 52.884766 C 400.72461 52.635683 400.14301 50.062327 398.31641 46.658203 C 396.40678 43.337107 393.08528 39.102228 387.60547 36.279297 C 382.04263 33.207283 375.56662 32.293047 370.50195 31.960938 C 369.85849 31.94018 369.23772 31.931641 368.64453 31.931641 z M 357.7168 62.847656 L 363.69336 63.013672 C 361.86676 63.760918 359.95846 64.590605 358.04883 65.503906 C 354.97681 66.915372 351.98685 68.409882 349.82812 69.572266 C 348.74877 70.07043 347.83609 70.568281 347.17188 70.900391 L 346.75586 71.150391 C 345.09531 70.154062 343.02004 69.655254 340.86133 69.738281 C 339.53289 69.821309 338.37037 70.154179 337.29102 70.652344 C 336.21166 71.150508 335.29803 71.898242 334.55078 72.728516 C 333.13932 74.306036 332.47648 76.463338 332.80859 78.705078 C 333.1407 80.946818 334.46736 82.857108 336.21094 84.185547 C 337.12424 84.849766 338.03783 85.348574 339.11719 85.597656 C 340.19654 86.012793 341.3591 86.178731 342.52148 86.095703 C 344.84625 85.929648 346.83949 84.849005 348.33398 83.271484 C 349.74545 81.776991 350.6592 79.702677 350.57617 77.460938 C 350.49314 76.132498 350.07828 74.803966 349.41406 73.724609 L 351.73828 72.478516 C 352.90066 71.897324 354.14617 71.232579 355.47461 70.568359 C 356.22186 70.23625 356.88557 69.822344 357.63281 69.490234 L 359.875 68.494141 C 362.94701 67.165702 366.01799 65.754142 368.42578 64.757812 L 372.08008 63.345703 C 372.32916 63.345703 372.66008 63.429688 372.99219 63.429688 C 375.56604 63.595742 378.14099 63.677656 380.71484 64.009766 C 383.28869 64.258848 385.8617 64.590762 388.43555 64.839844 C 391.0094 65.171953 393.50137 65.587812 395.99219 65.919922 C 398.56604 66.252031 400.97402 66.83291 403.46484 67.248047 C 405.87264 67.746211 408.27875 68.160995 410.60352 68.742188 L 416.08398 69.988281 C 413.51013 70.569473 410.60518 71.233261 407.69922 71.814453 C 403.79693 72.810782 400.06022 73.889472 397.32031 74.636719 C 396.40701 74.885801 395.57633 75.13668 394.91211 75.302734 C 393.6667 74.887597 391.59047 74.304805 388.93359 73.806641 C 386.77488 73.391504 384.28383 73.225566 381.62695 73.308594 C 380.38154 73.391621 378.97102 73.47457 377.64258 73.640625 C 376.23111 73.889707 374.81867 74.222539 373.49023 74.720703 C 370.75033 75.634005 368.34422 76.87955 366.35156 78.291016 C 364.27588 79.785509 362.69758 81.362929 361.36914 82.857422 C 358.79529 85.846408 357.54982 88.254824 357.4668 88.503906 L 356.80273 89.914062 C 356.80273 89.914062 357.13369 89.997051 357.54883 90.080078 C 357.88094 90.163106 358.29688 90.330078 358.29688 90.330078 C 358.46293 90.330078 361.20222 91.160117 365.02148 91.326172 C 365.93479 91.409199 366.93236 91.492188 368.01172 91.492188 C 369.09107 91.492188 370.25363 91.492227 371.41602 91.326172 C 372.5784 91.243144 373.74092 91.077207 374.98633 90.828125 C 376.23174 90.579043 377.47725 90.247168 378.72266 89.832031 C 380.05109 89.416894 381.21262 88.919082 382.375 88.337891 C 382.95619 88.088808 383.53795 87.754942 384.11914 87.505859 C 384.70033 87.17375 385.19811 86.92586 385.7793 86.59375 C 387.85498 85.348339 389.76428 84.019845 391.3418 82.691406 C 392.91932 81.445995 394.24881 80.200411 395.16211 79.287109 C 396.07541 78.373808 396.57322 77.792012 396.65625 77.708984 L 396.98828 77.376953 C 397.32039 77.293926 397.73525 77.127949 398.15039 77.044922 C 399.47883 76.629785 401.13924 76.214961 402.88281 75.716797 C 404.62639 75.218632 406.53568 74.719824 408.44531 74.304688 C 410.35494 73.88955 412.34822 73.475684 414.0918 73.060547 C 415.08813 72.811465 415.91873 72.64457 416.83203 72.478516 C 417.66231 72.312461 418.409 72.147481 419.15625 72.064453 L 421.89648 71.566406 L 424.05469 72.146484 C 425.05102 72.478594 426.13062 72.728437 427.12695 73.060547 C 428.12328 73.392656 429.11891 73.723574 430.11523 73.972656 C 432.10789 74.636875 433.93512 75.301621 435.76172 75.882812 C 439.3319 77.128224 442.5706 78.373769 445.47656 79.453125 L 451.86914 82.109375 L 451.20508 82.275391 C 449.62756 82.690528 447.88324 83.106347 446.05664 83.521484 C 444.14701 84.019649 442.15377 84.518418 440.24414 85.099609 C 436.25883 86.178966 432.5241 87.341562 429.70117 88.337891 L 426.29688 89.582031 C 425.38356 87.672401 423.55623 86.094903 421.14844 85.347656 C 418.57459 84.683437 415.83453 84.932363 413.50977 86.011719 C 411.26803 87.091075 409.4416 89.083436 408.61133 91.408203 C 407.69803 93.815998 407.94803 96.142108 408.86133 98.134766 C 409.77463 100.12742 411.43404 101.70396 413.67578 102.28516 C 416.00055 103.0324 418.40865 102.78443 420.65039 101.70508 C 422.89213 100.70875 424.96848 98.965392 426.13086 96.640625 C 426.96113 95.063104 427.20902 93.402696 427.04297 91.908203 L 427.12695 91.824219 C 427.95723 91.575137 429.11978 91.160274 430.53125 90.662109 C 433.27115 89.748808 437.0899 88.586212 440.99219 87.423828 C 444.89448 86.427499 448.87916 85.431797 451.95117 84.767578 C 453.44567 84.352441 454.77519 84.103555 455.60547 83.9375 L 455.85352 83.9375 L 457.34961 84.601562 C 457.79349 84.806429 459.80735 86.04153 461.94531 87.369141 C 462.59295 88.448428 463.38817 89.995426 464.57227 91.574219 C 466.98006 94.978342 470.38455 99.131116 475.44922 102.20312 C 477.85701 103.86368 480.59703 105.02615 483.25391 105.93945 C 485.82776 106.85275 488.4018 107.51551 490.72656 108.01367 C 493.46647 108.59486 495.79066 108.9277 497.28516 109.09375 L 497.7832 109.50977 C 498.6965 110.25701 500.02404 111.17057 501.60156 112.58203 C 503.17908 113.91047 505.08933 115.57084 507.24805 117.48047 C 509.32373 119.30707 511.56482 121.54728 514.13867 123.95508 C 510.40244 123.04178 506.0019 121.96313 502.09961 120.9668 C 498.94457 120.30258 495.95559 119.63779 493.79688 119.22266 C 492.88356 118.97357 492.13688 118.80764 491.47266 118.72461 C 492.63504 115.98471 491.88735 112.91262 489.23047 110.75391 C 485.24515 107.93097 479.18537 108.51285 475.78125 112 C 472.37713 115.48715 472.37709 120.38613 475.94727 122.87695 C 479.26836 125.53383 485.16217 125.11793 489.06445 121.96289 C 489.39656 121.71381 489.64641 121.38189 489.97852 121.13281 C 490.64273 121.21584 491.72135 121.46476 493.13281 121.79688 C 495.29152 122.29504 498.28051 122.8758 501.43555 123.62305 C 504.50756 124.37029 507.91332 125.20197 511.06836 125.94922 C 513.47615 126.53041 515.71637 127.11025 517.54297 127.52539 L 517.95898 128.02344 C 518.6232 128.68766 519.28695 129.35236 519.95117 130.09961 C 520.61539 130.76383 521.19711 131.51057 521.86133 132.25781 C 523.18977 133.83533 524.51726 135.33068 525.8457 136.9082 C 527.09111 138.56875 528.41961 140.23008 529.74805 141.89062 C 531.07649 143.55118 532.32295 145.37752 533.56836 147.12109 C 534.48166 148.61559 535.56131 150.02603 536.47461 151.4375 L 535.47656 150.93945 C 534.0651 150.19221 532.48863 149.44451 530.99414 148.69727 C 529.49965 147.95002 528.00522 147.20328 526.59375 146.53906 C 525.18228 145.87484 523.85379 145.29309 522.69141 144.79492 L 519.45312 143.4668 C 519.70222 141.72322 519.2044 139.97983 517.95898 138.56836 C 516.46449 136.82478 514.14022 135.74518 511.73242 135.49609 C 509.32463 135.33004 506.75051 135.9118 504.5918 137.24023 C 502.43308 138.6517 501.02061 140.56207 500.60547 142.38867 C 500.02428 144.38133 500.35711 146.28967 501.68555 147.86719 C 503.09701 149.44471 505.17328 150.44232 507.49805 150.69141 C 509.82281 150.94049 512.47896 150.52371 514.7207 149.36133 C 516.13217 148.61408 517.29377 147.7024 518.04102 146.62305 L 520.61523 147.70117 C 521.77762 148.19934 523.10711 148.78109 524.43555 149.44531 C 525.84701 150.10953 527.34144 150.77424 528.83594 151.52148 C 531.90795 152.93295 534.73092 154.59348 536.97266 155.75586 L 540.29297 157.58203 L 540.70898 158.33008 C 541.78834 160.23971 542.86791 162.23099 543.94727 164.14062 C 545.44176 167.12962 546.93523 170.20242 548.26367 173.19141 L 536.88867 173.19141 C 536.30748 171.946 535.55979 170.70049 534.64648 169.45508 C 533.23502 167.62848 531.40875 165.88416 529.08398 164.30664 C 528.50279 163.97453 527.92299 163.56063 527.3418 163.22852 C 526.76061 162.97943 526.09486 162.64752 525.51367 162.39844 C 524.26826 161.81725 522.94072 161.40047 521.69531 161.06836 C 519.20449 160.32111 516.79643 159.90629 514.55469 159.74023 C 510.07121 159.40812 506.83307 159.74119 506.58398 159.82422 L 504.83984 159.99023 L 505.17188 161.31836 C 505.17188 161.40139 505.33781 161.98318 505.66992 162.89648 C 506.08506 163.89281 506.66682 165.13832 507.41406 166.63281 C 507.8292 167.29703 508.24498 168.04377 508.82617 168.79102 C 509.32434 169.62129 509.98812 170.36799 510.65234 171.11523 C 511.23354 171.86248 511.89828 172.52719 512.5625 173.19141 L 170.40625 173.19141 C 169.90809 171.19875 169.41027 169.45543 168.91211 167.96094 C 169.74238 166.13433 170.65501 164.30707 171.73438 162.48047 C 172.64768 160.73689 173.56127 158.99358 174.64062 157.25 C 175.71999 155.58945 176.79955 153.84613 177.87891 152.01953 C 179.95459 148.86449 182.19572 145.62574 184.60352 142.4707 L 184.52148 143.4668 C 184.35543 144.79524 184.4385 146.28971 184.35547 147.70117 C 184.35547 150.60713 184.2724 153.43113 184.52148 155.58984 L 184.6875 158.66211 C 183.94025 158.91119 183.19156 159.24207 182.52734 159.74023 C 182.02918 160.07234 181.61436 160.40518 181.19922 160.82031 C 180.78408 161.23545 180.53524 161.65027 180.20312 162.14844 C 179.2068 164.1411 179.2068 166.21732 180.20312 168.12695 C 181.11644 169.95356 183.10879 171.53105 185.59961 172.36133 C 188.09043 173.27463 190.66547 173.27455 192.99023 172.69336 C 195.315 172.11217 197.14039 170.86662 198.13672 169.12305 C 198.3858 168.70791 198.55174 168.21006 198.63477 167.79492 C 198.80082 167.29676 198.88477 166.88098 198.88477 166.38281 C 198.88477 165.46951 198.63584 164.47385 198.2207 163.56055 C 197.3074 161.81697 195.56404 160.0725 193.15625 159.07617 C 191.74478 158.41195 190.16637 158.08107 188.67188 157.99805 L 188.50586 155.67188 C 188.42283 153.59618 188.42383 150.77315 188.42383 147.86719 C 188.42383 146.45572 188.50682 145.04428 188.58984 143.63281 C 188.67287 142.30437 188.75486 141.05982 188.83789 139.98047 C 188.92092 138.81809 189.00391 137.90541 189.00391 137.32422 L 189.08789 136.6582 C 190.74844 134.66555 192.40877 132.6733 194.15234 130.76367 C 200.3794 123.8724 207.26988 117.39586 214.07812 111.75 C 215.4896 110.58762 216.90203 109.51 218.23047 108.51367 C 217.48322 110.58936 216.65154 112.9965 215.9043 115.4043 C 214.991 118.64237 214.07824 121.79728 213.58008 124.20508 L 213.16602 126.28125 C 212.08666 126.94547 210.42527 128.10703 208.51562 129.76758 C 207.10416 131.17904 205.60869 132.84037 204.36328 134.75 C 203.69906 135.6633 203.20225 136.74291 202.78711 137.82227 C 202.28894 138.90162 201.95611 140.06318 201.70703 141.30859 C 201.20887 143.71639 201.45887 146.04051 201.95703 148.19922 C 202.4552 150.44096 203.28396 152.35117 204.19727 154.01172 C 206.02387 157.41584 208.01754 159.49215 208.18359 159.6582 L 209.3457 160.82031 L 210.50781 159.99023 C 210.59084 159.90721 211.08965 159.49139 211.91992 158.74414 C 212.66717 157.99689 213.82885 157.00127 214.9082 155.75586 C 217.06692 153.09898 219.47541 149.61043 220.22266 145.12695 C 220.63779 142.88521 220.6368 140.64504 220.30469 138.48633 C 220.05561 136.32762 219.64174 134.33442 219.06055 132.50781 C 217.98119 128.93763 216.65139 126.44635 216.56836 126.19727 L 216.32031 125.7832 C 216.40334 125.45109 216.48533 125.20029 216.56836 124.78516 C 217.14955 122.46039 217.89725 119.30643 218.81055 116.06836 C 219.8899 112.91332 220.97051 109.67537 221.80078 107.26758 L 222.71289 105.02539 C 223.29408 104.61025 223.87584 104.27842 224.45703 103.86328 C 227.77813 101.37246 231.09985 99.297345 234.17188 97.304688 C 235.66637 96.308358 237.24283 95.394727 238.6543 94.564453 C 240.06576 93.734179 241.47725 92.903497 242.72266 92.15625 C 244.9644 90.827812 247.03963 89.83127 248.7832 88.917969 L 248.61719 89.416016 C 247.78691 91.989865 246.79217 95.31072 246.04492 98.714844 C 245.62978 100.37539 245.29695 102.03576 244.96484 103.61328 C 244.79879 104.36053 244.63186 105.10822 244.54883 105.85547 C 244.38277 106.60272 244.29982 107.26646 244.2168 107.84766 L 243.80273 110.91992 C 242.64035 110.75387 241.47684 110.83785 240.31445 111.00391 C 239.73326 111.16996 239.06947 111.3349 238.48828 111.58398 C 237.90709 111.83307 237.3263 112.16594 236.82812 112.49805 C 234.75244 113.99254 233.67383 116.06785 233.67383 118.22656 C 233.75686 120.4683 234.83447 122.71051 236.91016 124.53711 C 238.90281 126.36371 241.55996 127.44232 244.05078 127.69141 C 246.62463 128.02352 249.03276 127.60969 250.85938 126.28125 C 251.35754 125.94914 251.77336 125.61631 252.10547 125.20117 C 252.43758 124.78603 252.7685 124.37022 253.01758 123.95508 C 253.43272 123.04178 253.6826 122.04615 253.76562 120.9668 C 253.76562 118.89111 252.93498 116.56688 251.19141 114.57422 C 249.86297 113.16275 248.28555 112.16518 246.625 111.58398 C 246.70803 110.83674 246.87496 109.75813 247.04102 108.42969 C 247.45615 106.02189 248.11894 102.701 248.94922 99.296875 C 249.69647 95.975779 250.77619 92.654885 251.52344 90.164062 C 251.93857 88.752597 252.35443 87.673028 252.60352 86.925781 L 254.09766 86.177734 C 254.92532 85.795737 257.17018 84.795067 258.49023 84.205078 C 258.70404 84.227897 258.83894 84.242739 259.08008 84.269531 C 259.82732 84.269531 260.65601 84.351562 261.65234 84.351562 C 262.64867 84.434591 263.81223 84.517578 264.97461 84.517578 C 267.3824 84.517578 270.0384 84.351641 272.86133 84.019531 C 275.76729 83.687422 278.67412 83.023673 281.58008 82.027344 C 284.48604 81.031015 287.05904 79.702481 289.30078 78.291016 C 291.62555 76.87955 293.61875 75.384122 295.2793 73.972656 C 296.10957 73.22541 296.85727 72.562657 297.52148 71.898438 C 298.1857 71.317245 298.76551 70.734493 299.26367 70.236328 C 299.42973 70.070273 299.51363 69.904336 299.67969 69.738281 L 305.49219 68.410156 C 309.80961 67.496855 316.0363 66.252188 323.5918 65.255859 C 323.09363 65.670996 322.51283 66.08582 321.93164 66.583984 C 319.52385 68.410587 316.86578 70.40287 314.54102 72.3125 C 312.21625 74.305158 310.05799 75.966483 308.48047 77.294922 L 306.90234 78.789062 C 306.23812 78.124843 305.49144 77.626074 304.57812 77.210938 C 303.5818 76.629745 302.41924 76.298868 301.17383 76.132812 C 299.92842 76.049785 298.68291 76.049707 297.4375 76.464844 C 294.94668 77.129063 293.12133 78.622616 292.125 80.449219 C 291.12867 82.275822 291.04469 84.517069 292.04102 86.675781 C 292.95432 88.751466 294.69871 90.329843 296.85742 91.326172 C 298.93311 92.322501 301.25631 92.654454 303.49805 91.990234 C 304.5774 91.658125 305.57402 91.242344 306.4043 90.578125 C 307.23457 89.996933 307.90027 89.168165 308.39844 88.337891 C 309.39477 86.511288 309.72672 84.351115 309.0625 82.109375 L 308.56445 81.113281 C 309.06262 80.698144 309.80932 79.951368 310.88867 79.121094 C 312.46619 77.792655 314.62445 75.965275 316.94922 74.138672 C 318.1116 73.142343 319.3581 72.230704 320.60352 71.234375 C 321.84893 70.238046 323.09348 69.323458 324.25586 68.410156 C 326.08246 66.915663 327.74383 65.670197 329.07227 64.507812 L 329.81836 64.425781 C 331.89404 64.259726 334.05318 64.010801 336.29492 63.761719 C 338.53666 63.595664 340.77875 63.511758 343.10352 63.345703 C 344.2659 63.262676 345.51144 63.180684 346.67383 63.097656 C 347.83621 63.097656 349.08076 63.013672 350.32617 63.013672 C 352.73397 63.013672 355.22597 62.930684 357.7168 62.847656 z M 60.810547 382.41992 C 59.316054 382.41992 58.070352 383.33371 57.904297 384.49609 C 57.738242 384.99426 57.572266 385.49207 57.572266 385.99023 C 57.572266 387.81684 59.066971 389.22852 60.810547 389.22852 L 157.20508 389.22852 L 157.37109 389.56055 C 158.86559 392.63256 160.27687 395.9533 162.26953 399.35742 C 163.18283 401.101 164.09643 402.92829 165.17578 404.67188 C 166.25514 406.41545 167.41674 408.24176 168.49609 410.06836 C 169.82453 412.06102 171.23598 414.13721 172.73047 416.21289 C 171.73414 416.04684 170.57158 415.87994 169.32617 415.63086 C 167.5826 415.29875 165.59031 414.88293 163.59766 414.38477 C 162.10316 414.05266 160.60973 413.72178 159.11523 413.30664 C 159.69643 411.31398 159.44658 409.15572 158.20117 407.24609 C 156.95576 405.08738 154.96248 403.50996 152.55469 402.67969 C 150.14689 401.84941 147.32481 401.76639 144.83398 402.67969 C 142.34316 403.50996 140.59981 405.2534 139.76953 407.41211 C 138.93926 409.48779 139.10516 412.06 140.43359 414.38477 C 141.84506 416.62651 144.16933 418.37189 146.66016 419.11914 C 149.15098 419.94941 151.89103 419.86552 154.29883 418.70312 C 155.46121 418.20496 156.45684 417.45723 157.28711 416.62695 C 157.45316 416.37787 157.70309 416.12994 157.86914 415.88086 C 162.02051 416.96022 165.34121 417.62293 167.83203 418.12109 C 170.57194 418.70229 172.48211 418.95309 173.81055 419.11914 C 174.22568 419.20217 174.55656 419.20117 174.88867 419.20117 C 178.04371 423.43557 181.44931 427.6709 185.18555 431.82227 C 191.49563 438.79657 198.55304 445.43808 205.52734 451.25 C 204.61404 451.00092 203.53443 450.75203 202.45508 450.41992 C 200.87756 450.00478 199.29922 449.50693 197.63867 449.0918 C 194.31758 448.1785 191.16365 447.09785 188.75586 446.26758 L 186.26367 445.4375 C 185.51643 444.5242 184.43777 443.3626 183.27539 442.11719 C 181.7809 440.62269 180.03662 438.96129 177.96094 437.4668 C 175.88525 435.88928 173.56022 434.39481 170.82031 433.23242 C 160.02675 428.41683 147.57338 429.82908 146.99219 429.91211 L 145.41406 430.07812 L 145.99609 431.57227 C 146.07912 431.82135 147.40754 434.72669 150.23047 438.29688 C 150.89469 439.12715 151.64139 440.12381 152.55469 441.03711 C 153.46799 441.95041 154.46557 442.86504 155.54492 443.69531 C 156.62428 444.60861 157.7868 445.52033 159.11523 446.26758 C 159.69643 446.68272 160.35922 447.09758 161.02344 447.42969 C 161.68766 447.7618 162.43635 448.09562 163.18359 448.42773 C 166.08955 449.59012 169.07846 450.33586 171.81836 450.66797 C 174.55826 451.08311 177.21334 451.00004 179.45508 450.83398 C 183.93856 450.50187 187.01068 449.50686 187.25977 449.42383 L 188.75586 448.92578 C 189.66916 449.25789 190.74777 449.6718 191.91016 450.00391 C 193.40465 450.41904 195.06601 450.91785 196.72656 451.41602 C 198.38711 451.91418 200.04652 452.329 201.54102 452.74414 C 203.03551 453.24231 204.52998 453.49211 205.77539 453.82422 C 208.26621 454.40541 209.84375 454.82031 209.84375 454.82031 L 209.92773 454.6543 C 212.00342 456.31484 213.99463 457.89127 216.07031 459.30273 C 219.47444 461.79356 222.88012 463.95265 226.03516 465.94531 C 227.61268 467.02467 229.1901 467.93926 230.60156 468.76953 C 232.09606 469.68283 233.5075 470.51252 234.83594 471.25977 C 235.66621 471.75793 236.41191 472.17275 237.24219 472.58789 C 235.99678 472.75395 234.50326 473.00291 233.0918 473.08594 C 231.18217 473.33502 229.27184 473.58494 227.77734 473.66797 C 227.52826 472.75467 227.11344 471.84004 226.44922 471.00977 C 226.11711 470.5116 225.70225 470.09678 225.28711 469.68164 C 224.78894 469.2665 224.29113 468.85164 223.79297 468.51953 C 221.55123 467.10807 218.89416 466.5273 216.32031 466.69336 C 213.66344 466.85941 211.25529 467.77205 209.51172 469.51562 C 207.68512 471.25921 207.02041 473.50144 207.43555 475.66016 C 207.85068 477.81887 209.34611 479.97717 211.75391 481.55469 C 212.3351 481.8868 212.99984 482.21867 213.66406 482.55078 C 214.32828 482.79986 214.99203 482.96676 215.65625 483.13281 C 217.06772 483.46492 218.4782 483.54691 219.80664 483.38086 C 222.46352 483.13178 224.78967 482.05221 226.36719 480.14258 C 227.36352 478.98019 227.86129 477.65266 228.02734 476.32422 L 228.44141 476.24023 C 229.9359 476.07418 231.7642 475.90924 233.67383 475.66016 C 237.07795 475.16199 240.48035 474.66311 240.97852 474.58008 C 241.31063 474.74613 241.56146 474.91307 241.81055 474.99609 C 242.80688 475.57729 243.71955 475.99111 244.4668 476.40625 C 245.21404 476.73836 245.87779 477.07123 246.45898 477.32031 C 247.40193 477.75552 249.86299 479.09535 250.55078 479.4707 C 250.68335 479.69822 250.76422 479.86391 250.94336 480.14258 C 251.27547 480.72377 251.68934 481.38947 252.1875 482.13672 C 252.76869 482.80094 253.43439 483.63066 254.18164 484.46094 C 255.67613 486.12149 257.5014 487.94882 259.82617 489.60938 C 262.23397 491.26992 264.97482 492.7634 268.21289 493.92578 C 271.45096 495.00514 274.68775 495.58686 277.75977 495.83594 C 280.83178 496.08502 283.73769 495.919 286.22852 495.66992 C 287.47393 495.50387 288.55346 495.33793 289.63281 495.17188 C 290.62914 494.92278 291.45978 494.67387 292.20703 494.50781 C 292.7052 494.42479 293.03703 494.25881 293.36914 494.17578 L 298.93164 495.50391 C 301.8376 496.0851 305.65814 496.83184 310.05859 497.66211 C 309.97557 497.66211 309.80959 497.7451 309.72656 497.82812 C 308.81326 498.3263 307.81568 498.90809 306.73633 499.40625 C 304.66064 500.40258 302.3374 501.39824 300.26172 502.22852 C 298.10301 503.05879 296.10873 503.64051 294.69727 504.13867 L 293.36914 504.4707 C 292.28978 502.97621 290.4634 501.81262 288.30469 501.31445 C 283.98726 500.15207 279.33824 501.8957 277.84375 505.2168 C 276.43228 508.62092 279.00572 512.44014 283.73828 513.68555 C 288.47084 514.7649 293.20385 512.8553 294.2832 509.45117 C 294.53229 508.6209 294.53225 507.8742 294.44922 507.12695 C 294.86436 506.9609 295.52814 506.79596 296.27539 506.54688 C 297.76988 506.13173 299.84519 505.38301 302.00391 504.55273 C 304.24565 503.63943 306.57176 502.64477 308.73047 501.64844 C 310.80615 500.56908 312.71449 499.40553 314.20898 498.32617 L 317.69727 498.82422 C 318.69359 498.90725 319.68922 499.07418 320.68555 499.24023 C 321.7649 499.32326 322.76049 499.40621 323.83984 499.57227 C 325.99856 499.73832 328.15865 499.98725 330.40039 500.23633 C 332.72516 500.40238 335.04924 500.56831 337.45703 500.73438 C 338.61941 500.73438 339.86496 500.81736 341.02734 500.90039 C 342.27275 500.98342 343.51826 500.98242 344.76367 500.98242 C 347.25449 501.06545 349.74451 501.14844 352.31836 501.14844 L 353.31445 501.14844 C 352.65023 501.81266 351.82051 502.47832 350.99023 503.30859 C 348.83152 505.1352 346.17545 507.29346 343.43555 509.36914 C 342.60527 508.70492 341.69068 508.20711 340.61133 507.875 C 339.36592 507.37684 338.03842 507.04396 336.62695 506.96094 C 333.80402 506.79488 331.14795 507.54266 329.07227 508.87109 C 326.99658 510.1165 325.50203 512.02584 325.16992 514.26758 C 324.83781 516.50932 325.74957 518.66758 327.57617 520.32812 C 329.40277 521.98868 332.14283 523.06831 335.21484 523.23438 C 336.79236 523.3174 338.28775 523.23445 339.69922 522.90234 C 341.02766 522.48721 342.2732 521.90641 343.26953 521.24219 C 345.42824 519.74769 346.67283 517.75541 346.75586 515.51367 C 346.75586 514.10221 346.34199 512.68973 345.51172 511.52734 C 348.74979 509.11955 351.07379 507.21033 352.90039 505.63281 C 354.81002 503.88924 356.05449 502.64377 356.88477 501.73047 C 357.13385 501.48139 357.29975 501.23246 357.54883 501.06641 L 360.04102 500.98242 C 362.69789 500.98242 365.27086 500.73441 367.92773 500.56836 C 370.58461 500.4023 373.24256 500.31844 375.81641 499.98633 C 378.47328 499.73725 381.12928 499.40533 383.70312 499.15625 C 386.36001 498.74111 388.93396 498.40928 391.50781 497.99414 C 394.08166 497.66203 396.57363 497.16418 399.06445 496.66602 C 401.55528 496.16785 404.04533 495.75307 406.45312 495.17188 C 405.70588 495.75307 404.87619 496.41686 403.96289 496.99805 C 402.80051 497.91135 401.47197 498.82498 400.22656 499.73828 C 397.56969 501.56488 394.91162 503.47334 392.83594 504.71875 L 390.67773 506.04883 C 389.26627 506.13186 387.60494 506.29778 385.69531 506.54688 C 383.37055 506.87898 380.79751 507.29281 378.14062 507.95703 C 376.81219 508.37217 375.48469 508.78699 374.15625 509.28516 C 372.82781 509.78332 371.49836 510.36508 370.16992 511.0293 C 367.51305 512.35774 365.27096 513.93516 363.36133 515.5957 C 361.4517 517.25625 359.87432 518.91662 358.62891 520.49414 C 356.05506 523.56615 354.80959 526.14059 354.72656 526.30664 L 354.14648 527.63477 L 355.97266 527.88477 C 356.30477 527.96779 359.95777 528.46488 365.10547 528.29883 C 370.17014 527.96672 376.72918 527.05344 382.20898 524.06445 C 387.77182 521.24152 391.01029 517.00764 392.91992 513.60352 C 394.82955 510.28242 395.32812 507.62604 395.32812 507.37695 L 395.66016 506.13086 C 397.56979 504.80242 399.89398 503.14197 402.21875 501.56445 C 404.87563 499.73785 407.36576 497.74545 409.27539 496.33398 C 411.10199 494.83949 412.34766 493.84375 412.34766 493.84375 L 412.18164 493.75977 L 413.42773 493.51172 C 415.7525 492.8475 417.9106 492.26479 420.15234 491.68359 C 421.2317 491.35148 422.22728 491.02057 423.30664 490.77148 C 424.30297 490.43937 425.38258 490.1075 426.37891 489.77539 C 428.37156 489.11117 430.28276 488.52945 432.10938 487.86523 C 435.76258 486.61982 439.08328 485.29029 442.07227 484.21094 L 444.5625 483.13281 C 444.14736 484.12914 443.64856 485.29174 443.15039 486.37109 C 442.40314 487.86559 441.65736 489.3601 441.07617 490.43945 C 438.7514 489.85826 436.09434 489.94121 433.60352 490.77148 C 431.02967 491.60176 429.11941 493.26223 427.95703 495.17188 C 426.87768 497.16453 426.62771 499.40574 427.54102 501.56445 C 428.45432 503.64014 430.44863 505.21855 432.93945 506.04883 C 435.43028 506.79607 438.41926 506.79611 441.24219 505.88281 C 444.14815 504.88648 446.22242 503.05906 447.21875 501.06641 C 448.29811 498.99072 448.38213 496.74852 447.13672 494.75586 C 446.38947 493.42742 445.3099 492.34881 443.89844 491.60156 L 444.06445 491.26953 C 444.39656 490.68834 444.72844 490.10758 445.06055 489.44336 L 446.05664 487.20117 C 447.30205 484.5443 448.38178 481.88779 448.63086 481.47266 L 449.46094 481.05664 C 450.54029 480.6415 451.45393 480.22664 452.20117 479.89453 L 454.19336 478.89844 C 454.65819 478.6839 456.33026 477.89756 458.23438 477.00391 C 458.66004 477.03249 458.71921 477.03768 459.3418 477.07227 C 460.91932 477.23832 462.99551 477.15533 465.48633 476.90625 C 470.46797 476.57414 476.86099 475.07895 482.42383 471.5918 C 485.16373 469.84822 487.48689 467.85598 489.23047 465.69727 C 490.97404 463.53855 492.3035 461.46236 493.2168 459.55273 C 494.46221 457.06191 494.96086 454.98565 495.29297 453.74023 L 495.54102 453.49219 C 496.45432 452.74494 497.78281 451.74836 499.44336 450.41992 C 501.02088 449.00846 502.93013 447.34813 505.17188 445.35547 C 505.83609 444.77428 506.5008 444.19156 507.24805 443.52734 C 507.33107 444.52367 507.41406 445.60324 507.41406 446.76562 C 507.41406 448.75829 507.33111 450.83547 507.08203 452.82812 C 506.83295 454.73777 506.58307 456.48115 506.33398 457.72656 L 506.08594 458.88867 C 503.92723 458.88867 501.76797 459.55242 500.10742 460.88086 C 499.27715 461.54508 498.69543 462.29182 498.19727 463.03906 C 497.6991 463.86934 497.45021 464.70098 497.36719 465.53125 C 497.11811 467.27483 497.69986 469.01726 499.11133 470.3457 C 500.52279 471.67414 502.51512 472.42188 504.67383 472.42188 C 505.75318 472.42188 506.83275 472.25594 507.91211 471.92383 C 508.99147 471.59172 509.90506 471.00992 510.81836 470.3457 C 514.38854 467.52277 514.80348 463.20567 511.64844 460.71484 C 510.98422 460.13365 510.23652 459.71783 509.40625 459.46875 C 509.65533 458.22334 510.07023 455.6511 510.40234 452.66211 C 510.90051 448.84285 510.81856 444.10916 509.98828 440.87109 C 510.73553 440.12385 511.56525 439.37615 512.3125 438.62891 C 513.55791 437.30047 514.80437 435.97201 516.13281 434.56055 C 516.79703 433.89633 517.45978 433.15055 518.20703 432.48633 C 518.87125 431.73908 519.45297 430.99139 520.11719 430.24414 C 521.44563 428.66662 522.85711 427.08924 524.18555 425.51172 C 525.51399 423.85117 526.84343 422.10686 528.17188 420.36328 C 529.58334 418.70273 530.74578 416.87738 532.07422 415.05078 L 532.57227 414.30273 C 532.90438 415.04998 533.23525 416.04664 533.65039 417.04297 C 534.14856 418.45443 534.73035 420.11484 535.22852 421.77539 C 535.56063 422.93777 535.97553 424.26631 536.22461 425.51172 C 533.89984 426.09291 531.82457 427.33746 530.33008 429.16406 C 527.09201 432.98332 527.92281 438.29721 532.24023 441.03711 C 536.64069 443.77701 543.11537 442.61526 546.68555 438.38086 C 550.1727 433.98041 549.09389 428.58258 544.36133 426.25781 C 542.86683 425.51057 541.28945 425.17873 539.62891 425.0957 L 539.13086 423.35352 C 538.88178 422.44021 538.63189 421.60857 538.38281 420.86133 C 537.88465 419.28381 537.46982 417.95631 537.05469 416.87695 C 536.22441 414.63521 535.56066 413.1399 535.0625 412.06055 C 534.89645 411.72844 534.81254 411.48051 534.64648 411.31445 C 535.06162 410.65023 535.47844 410.06852 535.81055 409.4043 C 536.97293 407.49467 538.21652 405.58445 539.37891 403.5918 C 540.45826 401.59914 541.62182 399.60594 542.70117 397.61328 C 544.11264 394.87338 545.44014 392.05145 546.68555 389.22852 L 556.31836 389.22852 L 556.48438 390.05859 C 556.23528 390.47373 555.98445 390.88855 555.65234 391.38672 C 555.23721 392.13397 554.82334 392.96365 554.4082 393.87695 C 553.57793 395.62053 552.83119 397.69771 552.25 399.93945 C 551.58578 402.18119 551.25191 404.58826 551.41797 407.16211 C 551.501 408.49055 551.5849 409.73605 551.83398 410.89844 C 552.08307 412.06082 552.41594 413.22338 552.74805 414.30273 C 553.49529 416.54447 554.57398 418.53672 555.57031 420.19727 C 557.47994 423.60139 559.47262 425.75973 559.63867 425.92578 L 560.71875 427.00586 L 561.96289 425.75977 C 562.04592 425.67674 562.7107 425.09693 563.70703 424.01758 C 564.53731 422.85519 565.6999 421.3608 566.94531 419.45117 C 568.1077 417.54154 569.27033 415.38146 570.01758 412.89062 C 570.76482 410.3998 571.26176 407.82584 571.0957 405.08594 C 570.59754 397.44742 565.69996 391.96842 562.54492 389.22852 L 654.95312 389.22852 C 656.77974 389.22852 658.19141 387.81684 658.19141 385.99023 C 658.19141 385.49207 658.10846 384.99426 657.85938 384.49609 C 657.69331 383.33371 656.44858 382.41992 655.03711 382.41992 L 60.810547 382.41992 z M 164.51172 389.22852 L 177.54688 389.22852 C 176.30145 390.05879 175.30481 391.05441 174.80664 392.2168 C 173.81031 394.0434 173.81031 396.20265 174.80664 398.19531 C 175.13875 398.61045 175.47062 399.1083 175.80273 399.52344 C 176.21787 399.93857 176.63269 400.27141 177.13086 400.60352 C 177.79508 401.01865 178.54182 401.34953 179.28906 401.68164 L 179.12305 404.67188 C 178.87396 406.83059 178.95703 409.65263 178.95703 412.55859 C 179.04006 414.05309 178.95699 415.54851 179.12305 416.87695 L 179.20703 417.87305 C 176.79924 414.63498 174.55811 411.47926 172.48242 408.32422 C 171.40307 406.49762 170.3235 404.75529 169.24414 403.01172 C 168.16478 401.26814 167.33422 399.52383 166.33789 397.86328 C 165.25853 396.03668 164.34591 394.12639 163.51562 392.38281 C 163.84774 391.46951 164.17961 390.3909 164.51172 389.22852 z M 190.99609 389.22852 L 505.17188 389.22852 C 504.59067 389.97576 503.92785 390.72346 503.42969 391.4707 C 502.8485 392.21795 502.43272 392.96369 502.01758 393.71094 C 501.27033 395.1224 500.68953 396.45193 500.35742 397.36523 C 499.94228 398.27854 499.77539 398.94236 499.77539 399.02539 L 499.44336 400.27148 L 501.1875 400.51953 C 501.43658 400.51953 504.67472 400.93563 509.1582 400.60352 C 511.39994 400.43746 513.80801 399.93961 516.29883 399.27539 C 517.54424 398.86025 518.87178 398.44348 520.11719 397.94531 C 520.69838 397.6132 521.36217 397.36531 521.94336 397.0332 C 522.60758 396.70109 523.18934 396.36827 523.6875 395.95312 C 526.01227 394.45863 527.83949 392.63324 529.33398 390.80664 C 529.66609 390.30848 529.99797 389.72668 530.33008 389.22852 L 541.87109 389.22852 C 540.87476 391.55328 539.71121 393.8774 538.54883 396.11914 C 537.46947 398.1118 536.3899 400.02101 535.31055 402.01367 L 534.89648 402.67969 L 531.57617 404.58789 C 529.33443 405.75027 526.51147 407.4108 523.43945 408.82227 C 521.94496 409.48648 520.45053 410.23422 519.03906 410.89844 C 517.71062 411.56266 516.38113 412.14441 515.21875 412.64258 L 512.64453 413.7207 C 511.89728 412.64135 510.73568 411.64664 509.32422 410.98242 C 507.08248 409.73701 504.42438 409.32023 502.09961 409.65234 C 499.77484 409.90143 497.70053 410.89808 496.28906 412.39258 C 494.96062 413.9701 494.62779 415.96342 495.20898 417.87305 C 495.62412 419.78268 497.0366 421.69305 499.19531 423.02148 C 501.35402 424.43295 503.92715 425.01371 506.41797 424.84766 C 508.82576 424.59857 511.06801 423.51897 512.5625 421.77539 C 513.89094 420.2809 514.30572 418.5375 514.05664 416.87695 L 517.29492 415.46484 C 518.45731 414.96668 519.7858 414.38492 521.19727 413.7207 C 522.60873 413.05648 524.10316 412.3107 525.59766 411.64648 C 527.17518 410.89924 528.66861 410.06852 530.08008 409.4043 C 530.41219 409.23824 530.74406 409.07135 531.07617 408.82227 C 530.16287 410.31676 529.08518 411.72916 528.17188 413.14062 C 526.92645 414.96724 525.68 416.71055 524.35156 418.37109 C 523.02312 420.11467 521.77766 421.776 520.44922 423.35352 C 519.12078 424.93104 517.79328 426.50746 516.46484 428.00195 C 515.88365 428.7492 515.21891 429.49689 514.55469 430.24414 C 513.89047 430.90836 513.22672 431.65609 512.5625 432.32031 L 512.14648 432.81836 C 510.31988 433.15047 508.07867 433.73031 505.75391 434.39453 C 502.51584 435.05875 499.11108 435.97346 496.03906 436.7207 C 492.88402 437.46795 489.89504 438.0487 487.73633 438.54688 C 486.32486 438.79596 485.24625 439.04488 484.58203 439.21094 C 484.24992 438.87883 484.00008 438.62994 483.66797 438.38086 C 479.76568 435.22582 473.87188 434.72789 470.55078 437.38477 C 466.9806 439.87559 466.98064 444.77357 470.38477 448.34375 C 473.87192 451.8309 479.84867 452.32879 483.83398 449.50586 C 486.49086 447.43017 487.23856 444.35904 486.07617 441.61914 C 486.74039 441.45309 487.48709 441.28715 488.40039 441.12109 C 490.5591 440.62293 493.54808 439.95719 496.70312 439.29297 C 500.60542 438.37967 505.00595 437.30197 508.74219 436.38867 C 506.16834 438.71344 503.92725 440.95365 501.85156 442.86328 C 499.69285 444.77291 497.7826 446.43523 496.20508 447.76367 C 494.62756 449.09211 493.30002 450.08674 492.38672 450.83398 L 491.88867 451.25 C 490.39418 451.41605 488.06804 451.74889 485.32812 452.33008 C 483.00336 452.74522 480.43127 453.40797 477.85742 454.4043 C 475.20055 455.3176 472.46053 456.48107 470.05273 458.05859 C 464.98806 461.21363 461.58358 465.36445 459.17578 468.68555 C 457.97704 470.36379 457.17313 471.86506 456.52148 472.93945 C 454.39465 474.24353 452.39309 475.45619 451.95117 475.66016 L 450.45703 476.40625 L 450.20898 476.32422 C 449.37871 476.15816 448.04918 475.90828 446.55469 475.57617 C 443.48267 474.91195 439.49799 473.91725 435.5957 472.83789 C 431.69342 471.75853 427.87467 470.51291 425.13477 469.59961 C 423.7233 469.18447 422.55975 468.76961 421.8125 468.4375 L 421.64648 468.4375 C 421.81254 466.85998 421.56465 465.28164 420.73438 463.62109 C 419.57198 461.37935 417.49565 459.636 415.25391 458.55664 C 413.01217 457.56031 410.60502 457.31039 408.36328 457.97461 C 406.03851 458.63883 404.37815 460.1343 403.46484 462.12695 C 402.55154 464.11961 402.30154 466.5268 403.21484 468.85156 C 404.04512 471.25936 405.87154 473.25172 408.11328 474.24805 C 410.43805 475.3274 413.1781 475.65936 415.75195 474.91211 C 418.15975 474.16486 419.98709 472.67135 420.90039 470.76172 L 424.30469 472.00586 C 427.12762 472.91916 430.86234 474.08176 434.84766 475.24414 C 436.75729 475.82533 438.75053 476.3251 440.66016 476.74023 C 442.48676 477.2384 444.23107 477.65226 445.80859 477.98438 L 446.47266 478.15039 L 440.07812 480.89062 C 437.17217 481.96999 433.93541 483.21553 430.36523 484.46094 C 428.53863 485.04213 426.71141 485.62289 424.71875 486.28711 L 421.73047 487.2832 C 420.73414 487.53229 419.65453 487.8642 418.6582 488.11328 L 416.5 488.69531 L 413.75977 488.2793 C 413.01252 488.11324 412.26582 488.03129 411.43555 487.86523 C 410.52225 487.69918 409.69164 487.44926 408.69531 487.2832 C 406.95174 486.86807 404.95846 486.4542 403.04883 486.03906 C 401.1392 485.62393 399.2299 485.12512 397.48633 484.62695 C 395.74275 484.12879 394.08234 483.63094 392.75391 483.29883 C 392.33877 483.13277 391.92391 483.04982 391.5918 482.9668 L 391.25977 482.55078 C 391.17674 482.46775 390.67697 481.88791 389.76367 480.97461 C 388.85037 480.14434 387.52283 478.89875 385.94531 477.57031 C 384.36779 476.3249 382.4585 474.91238 380.38281 473.75 C 379.80162 473.41789 379.30385 473.08697 378.72266 472.83789 C 378.14146 472.50578 377.64273 472.17291 376.97852 471.92383 C 375.81613 471.34264 374.65266 470.84482 373.32422 470.42969 C 372.07881 470.01455 370.8333 469.76472 369.58789 469.51562 C 368.34248 469.26654 367.18191 469.1016 366.01953 468.93555 C 364.85715 468.85252 363.69459 468.85156 362.61523 468.85156 C 361.53588 468.85156 360.5383 468.93555 359.625 468.93555 C 355.80574 469.18463 353.06645 469.93064 352.90039 470.01367 C 352.90039 470.01367 352.48445 470.09762 352.15234 470.26367 C 351.73721 470.3467 351.40625 470.42969 351.40625 470.42969 L 352.07031 471.83984 C 352.15334 472.0059 353.39881 474.49834 355.97266 477.4043 C 357.30109 478.89879 358.87744 480.47621 360.95312 481.9707 C 362.94579 483.4652 365.35385 484.70975 368.09375 485.62305 C 369.42219 486.03818 370.83463 486.45309 372.24609 486.61914 C 373.57453 486.86822 374.98601 486.95213 376.31445 487.03516 C 378.8883 487.03516 381.3784 486.95225 383.53711 486.53711 C 386.19399 486.03894 388.27021 485.37412 389.51562 484.95898 C 390.17985 485.20807 391.01053 485.45795 391.92383 485.70703 C 394.66373 486.45428 398.39849 487.53201 402.30078 488.44531 C 405.20674 489.10953 408.11365 489.77527 410.6875 490.27344 L 405.20703 491.60156 C 402.88226 492.18275 400.4742 492.59658 398.06641 493.01172 C 395.57558 493.50988 393.1676 494.00969 390.59375 494.3418 C 388.10293 494.75693 385.61291 495.08877 383.03906 495.50391 C 380.46521 495.75299 377.89221 496.00187 375.31836 496.33398 C 372.74451 496.58307 370.16955 496.74801 367.5957 496.91406 L 366.68359 496.91406 L 363.0293 495.58594 C 360.6215 494.58961 357.55053 493.17805 354.47852 491.84961 L 352.23633 490.85352 C 351.48908 490.43838 350.82438 490.1075 350.16016 489.77539 C 348.74869 489.02814 347.50318 488.44643 346.42383 487.86523 L 344.01562 486.61914 C 344.67985 485.45676 345.09666 484.21225 345.17969 482.80078 C 345.26271 480.55904 344.34897 478.48277 342.9375 476.98828 C 341.44301 475.41076 339.44977 474.4141 337.125 474.24805 C 335.96262 474.16502 334.80006 474.33195 333.7207 474.66406 C 332.72437 474.99617 331.72775 475.49398 330.81445 476.1582 C 329.07088 477.40361 327.74227 479.39598 327.41016 481.55469 C 327.07805 483.79643 327.74283 485.95469 329.1543 487.61523 C 329.90154 488.44551 330.81518 489.11021 331.89453 489.69141 C 332.97389 490.18957 334.13641 490.43846 335.46484 490.52148 C 337.62356 490.68754 339.69882 490.18969 341.35938 489.19336 L 341.77539 489.44336 C 342.43961 489.77547 343.35228 490.19029 344.43164 490.77148 C 346.59035 491.85084 349.57838 493.42838 352.65039 494.83984 C 354.56002 495.67012 356.47026 496.4998 358.29688 497.33008 L 352.31836 497.41406 C 349.82754 497.41406 347.33748 497.32912 344.92969 497.24609 C 343.68428 497.24609 342.43973 497.24709 341.27734 497.16406 C 340.11496 497.08104 338.86941 497.08107 337.70703 496.99805 C 335.38226 496.83199 333.14018 496.66605 330.89844 496.5 C 328.6567 496.33395 326.58059 496.08502 324.42188 495.83594 L 323.67383 495.75195 C 322.34539 494.6726 320.68598 493.42809 318.85938 491.93359 C 317.69698 491.02029 316.45049 490.02268 315.20508 489.10938 C 313.95967 488.11304 312.71512 487.20141 311.55273 486.20508 C 309.22797 484.29545 307.06971 482.55109 305.49219 481.22266 C 304.49586 480.39238 303.66418 479.64561 303.16602 479.23047 C 303.4151 478.89836 303.49801 478.56553 303.66406 478.15039 C 304.32828 475.99168 303.99633 473.74943 303 472.00586 C 302.50184 471.09256 301.83809 470.34586 301.00781 469.68164 C 300.17754 469.10045 299.18092 468.60164 298.10156 468.26953 C 295.85982 467.68834 293.53662 468.02225 291.46094 468.93555 C 289.38525 469.93188 287.55783 471.50926 286.64453 473.66797 C 285.6482 475.74365 285.73023 478.06697 286.72656 479.81055 C 287.72289 481.63715 289.55019 483.13166 292.04102 483.87891 C 293.28643 484.21102 294.53193 484.29496 295.77734 484.12891 C 297.02275 483.96285 298.18531 483.63098 299.18164 483.13281 C 300.09494 482.71768 300.84164 482.13588 301.50586 481.55469 L 303.16602 482.9668 C 304.66051 484.29524 306.81976 486.03764 309.14453 487.94727 C 311.55233 489.93992 314.12736 491.93316 316.53516 493.75977 C 317.11635 494.1749 317.69715 494.67275 318.19531 495.08789 C 310.63982 494.09156 304.41313 492.76291 300.0957 491.84961 L 294.2832 490.52148 C 294.11715 490.35543 294.03324 490.18949 293.86719 490.02344 C 293.36902 489.6083 292.78922 489.0275 292.125 488.36328 C 291.46078 487.78209 290.71309 487.03531 289.88281 486.37109 C 288.22226 484.95963 286.22906 483.4642 283.9043 482.05273 C 281.66256 480.55824 279.08955 479.22971 276.18359 478.31641 C 273.27763 477.23705 270.37176 476.65633 267.54883 476.32422 C 264.7259 475.99211 261.98593 475.74314 259.57812 475.82617 C 258.41574 475.82617 257.33522 475.82518 256.25586 475.9082 C 255.25953 475.99123 254.42889 475.99119 253.68164 476.07422 C 253.47892 476.08548 253.3728 476.10349 253.18945 476.11719 C 251.91395 475.56923 249.54685 474.55633 248.70117 474.16602 L 247.20703 473.41797 C 246.95795 472.67072 246.54209 471.59115 246.12695 470.17969 C 245.37971 467.60584 244.29998 464.36897 243.55273 460.96484 C 242.72246 457.64375 242.05772 454.32186 241.64258 451.91406 C 241.47652 450.58562 241.31154 449.50701 241.22852 448.75977 C 242.97209 448.09555 244.54951 447.09797 245.79492 445.76953 C 247.5385 443.77687 248.45217 441.45168 248.36914 439.29297 C 248.28611 438.21361 248.03623 437.21799 247.62109 436.30469 C 247.37201 435.88955 247.04109 435.47373 246.70898 435.05859 C 246.37687 434.72648 245.96106 434.31258 245.46289 433.98047 C 243.63629 432.65203 241.22815 432.23625 238.6543 432.56836 C 236.16347 432.90047 233.58936 433.98103 231.51367 435.72461 C 229.43799 437.55121 228.35842 439.79146 228.27539 442.0332 C 228.27539 444.19192 229.35596 446.26918 231.43164 447.76367 C 231.92981 448.17881 232.51061 448.51068 233.0918 448.75977 C 233.67299 449.00885 234.33678 449.17479 234.91797 449.25781 C 236.08035 449.50689 237.24387 449.50686 238.40625 449.42383 L 238.82031 452.41211 C 238.90334 453.07633 238.98629 453.74103 239.15234 454.48828 C 239.23537 455.1525 239.4023 455.90019 239.56836 456.73047 C 239.90047 458.22496 240.23135 459.88533 240.64648 461.62891 C 241.39373 465.03303 242.39043 468.2699 243.2207 470.84375 L 243.38672 471.42578 C 241.64314 470.51248 239.56692 469.43291 237.4082 468.1875 C 236.07976 467.44025 234.75231 466.60957 233.25781 465.7793 C 231.84635 464.866 230.26793 464.03539 228.77344 463.03906 C 225.70142 461.0464 222.38164 458.88826 219.06055 456.48047 L 217.31641 455.23438 L 216.40234 453.07617 C 215.57207 450.66838 214.49342 447.43043 213.41406 444.27539 C 212.50076 441.03732 211.75307 437.79938 211.17188 435.47461 L 210.92383 434.47852 L 211.17188 434.0625 C 211.2549 433.89645 212.58471 431.32408 213.66406 427.75391 C 214.24525 426.01033 214.65912 424.01613 214.9082 421.85742 C 215.24031 419.69871 215.24131 417.37551 214.82617 415.2168 C 214.07893 410.73332 211.67043 407.24477 209.51172 404.58789 C 208.43236 403.25945 207.27068 402.26288 206.52344 401.51562 C 205.69316 400.76838 205.19436 400.35352 205.11133 400.35352 L 203.94922 399.44141 L 202.78711 400.60352 C 202.62105 400.76957 200.62738 402.92695 198.80078 406.24805 C 197.88748 407.90859 197.05871 409.90183 196.56055 412.06055 C 196.06238 414.21926 195.89541 416.62736 196.31055 419.03516 C 196.55963 420.19754 196.89246 421.3601 197.39062 422.43945 C 197.80577 423.60184 198.30258 424.59742 198.9668 425.59375 C 200.29524 427.50338 201.70767 429.16375 203.11914 430.49219 C 205.02877 432.15274 206.68918 433.31525 207.85156 434.0625 L 208.18359 436.05664 C 208.76479 438.46444 209.59451 441.61836 210.50781 444.93945 C 211.25506 447.34725 212.08674 449.75439 212.83398 451.83008 C 211.50555 450.75072 210.09407 449.67311 208.76562 448.59375 C 201.87435 442.86486 194.98291 436.47135 188.75586 429.58008 C 187.01228 427.67045 185.35 425.6782 183.68945 423.68555 L 183.60742 423.02148 C 183.60742 422.35727 183.52443 421.44264 183.44141 420.36328 C 183.35838 419.28393 183.27443 418.03842 183.19141 416.62695 C 183.10838 415.29851 183.02539 413.88707 183.02539 412.39258 C 183.02539 409.56965 183.02634 406.74756 183.10938 404.67188 L 183.27539 402.26367 C 184.76988 402.26367 186.34635 401.9318 187.75781 401.26758 C 190.16561 400.18822 191.91092 398.52777 192.82422 396.70117 C 193.23936 395.78787 193.48828 394.87424 193.48828 393.96094 C 193.48828 393.46277 193.40434 392.96397 193.23828 392.54883 C 193.15525 392.05066 192.98932 391.63584 192.74023 391.2207 C 192.3251 390.47346 191.74334 389.80971 190.99609 389.22852 z "
   transform="matrix(12.044217,0,0,12.044217,-693.40725,-384.95104)"
   id="path4054" />
   
   
   
   
   
   
   
   
   
   
   
  </g>
 </g>
</svg>