<?xml version="1.0" encoding="UTF-8"?>
<svg id="Layer_2" xmlns="http://www.w3.org/2000/svg" version="1.1" viewBox="0 0 5000 4076.1">
  <!-- Generator: Adobe Illustrator 30.1.0, SVG Export Plug-In . SVG Version: 2.1.1 Build 136)  -->
  <defs>
    <style>
      .st0 {
        fill: FRAME_COLOR;
      }
    </style>
  </defs>
  <g id="_10_Hand_Drawn_Floral_Wedding_Monogram_Frames_Elegant_Botanical_Logo_Set_Minimal_Wedding_Crest_Design">
    <g id="Hand_Drawn_Laurel_Wreath_Wedding_Monogram_Logo">
      <g>
        <g>
          <path class="st0" d="M2291.6,4018.1c-140.1,12.6-285.2-18.6-407.4-87.5-54.5-53.3-84.1-127-150.1-169-202.7-92.7-214.5-72-73.2,96.9,79.5,64.1-138.6-24.7-154.1-31.7-33.7-17.7-62.5-43.1-94.8-63.2-63.3-41.1-158.4-60.2-182.2-141.2-26.2-101.5-83-190.3-127.2-284.5-9.2-17.6-82.7-179.8-82.5-101-14.5,95.6,24.4,188.1,43.4,280.5-107.6-65.7-220.1-160.9-251.4-288.3-23.2-81.4-28.7-169.2-67.7-245.5-24.5-37.7-47.3-75.8-74.8-111.3-173.2-192.2-67.7,59-31.2,144.3,60.6,137.6-24.5,54.2-49.5-15.4-137.7-249.4-79-284.7-55-540.7,1.9-59.9-13.5-118.2-31-174.9-12.8-23-71.1-173.3-99.9-132.4-7.2,92.4-16.1,184.7-21.9,277.5.7,9.9-9.3,10.4-11.2,1.2-20-72.5-31.8-146.8-60.9-216.6-32-73.7-25.5-152.8-22.9-230.7,33.9-367.7,292.9-167.5,220.7-525.5-51.7,29.1-26.3,130.8-74,170.3-128.4,146.7-115.2,202.4-114.3-33.2-6.3-99.7,30-110,88-174.2,43.1-31.2,89.7-61.5,111.2-113.8,34.4-94.6,76.2-187.2,122.5-276.2-13-94.2-283.4,300.6-313,323.2-3.4-141.3,75.4-270.6,143.5-389.5,65.5-79.5,103.2-186.5,195.8-240.4,67.9-34.7,151.4-43.1,197.3-112.2,56.8-75,86-181.3,39-267.8-31.9,31.8-53.4,82.8-79.9,121.7-32.3,63.2-88.5,109.8-134.3,162.5,2.2-45.7,32-90.5,48.7-133.6,25.7-49.9,49.6-100.5,97.1-134.2,115-113.6,261.8-173.6,415-216,90.3-22.3,119.7-49.5,127.1-143.9-133.2,20.5-286.2,32.3-383.9,137.7-46.9,63.7-57.3,122.2-137.2,153.9-160,96.1-167.9,302.4-278.1,439.6-22.7,23.9-86.1,169.2-112.9,151.2-4.6-59.7-.2-119.9-17.5-178.5-18.4-47.5-20.9-172.4-80-179.1-3.3.2-8.6,7.3-8.9,11.5-3.8,57.9-4.2,116-5.3,174-12.2,100.7-1.2,201.7,2.2,302.2-5,20.8-34.1,262.3-69.4,186.1-10.7-42.5-12.5-87.3-28.7-128-26.2-65.9-83.2-113.7-84.1-188.8,2.6-15.2-12.9-22.3-23.3-10.3-11.9,12.6-12.9,31.7-13.2,49.1-15.3,271.3,93.3,140.1,132.7,342.2,7.2,71.8,27.8,144.8,10.2,216.2-12,53.2-14.9,105.8-7.1,159.4,9.6,145.3-23.6,293.1-33.7,437.5-37.2-75-78.4-149.2-117.7-223.3C116.6,1835.2.7,1654,0,1713.3c43.3,130.7,83.6,263.7,134.8,392.2,29,75.9,108.1,116,145,186.7,43.2,73.8,62.8,157.4,58.9,242.7-38-16.8-56.7-61.9-90-85.6-44-13.1-58.9-52.7-72.9-91.9-48.9-61.1-147.2-59.2-103.3,39.7,9.3,32.9,33.4,54.7,68.2,53.9,144.2,12.9,160.1,127.4,243,218.6,75.1,95.3,90.4,220.5,144.5,326.3-17.8,4.4-38.2-9.2-52.6-18.2-92.8-58.6-200.4-118.3-313.6-96.8,2.9,28.8,29.9,45.5,51.8,60.4,43.4,25.5,68.4,71.9,110,98.3,72.4,51.6,144.5,104,215.6,157.4,54.2,24.1,105.7,56.8,164.8,69.4,66.7,9.9,96,80.5,133.2,128.5-128.3,15.5-258.6,11.2-384.5-21.7-9.6-2.6-22.9-3.6-26.5,5.6,50.5,123.4,284,175.8,407,164.7,118.4-9.3,235.1,37.1,321.3,118.5,68.1,66.2,151.3,113.9,233.1,160.9-49,22.8-138.1-21.2-198.5-17-43.9,0-92.5-9.9-135.2-19-11.6-4-17.6,7.1-8.1,15.5,99.7,112.3,259.7,120.7,398.9,136.8,71.6-11.8,143.5-21,213.4,6.5,109.4,22.9,646.4,207.6,688.6,93.2,2.5-29.9-37.8-22.5-55.4-20.9h0ZM398.6,1320.7c39.6-50.7,83.3-102.6,129.3-147.4-24.9,81.4-86.4,155.2-143.8,218.9-5.4,11.5-49.9,73.6-49.5,33,2-46.4,42.5-68.1,63.9-104.5h0ZM727.2,642.2c15.4-21.8,37.7-34.8,57-52.4,35.8-40.9,57.3-93.5,91-135.8,16-7.1,11.3,16.7,10.7,25.6-12,86.9-87.6,165.8-169.6,188.2-1.5-9.5,4.4-18.5,11-25.5h0ZM1074.5,124c71.6-48.7,156.5-69,240.8-83.3,3.9-.6,7.9-1.2,11.9-1.7-10.6,73.5-121.4,82.5-178.8,106.7-32.3,6.4-68.1,27.6-100.3,19.8-12.4-17.6,13.8-33.2,26.4-41.4ZM389,716c2.2-19.5-3-40.8,3.7-59.2,47.8,101.6,37.9,235.6,3.3,340.8-27.4-90.2-6.4-187.8-7-281.6ZM208.7,2145.6c-63.3-70.7-82.2-165.6-110.8-253,58.8,70,91.7,166.9,117.3,254.9-2.2-.6-5.4-.5-6.5-1.9ZM482.2,2532.9c-9.6,50.7-5,105.4-18.3,155.3-41.3-87.2-53.4-190.6-48-286.4,3.2-49.4,6-98.2,14.8-146.9.7-4.1,3-9.4,7.1-8.7,18.8,28.9,48,63.9,47.6,100.2-3.1,16.9-2.6,29-.9,46.6,5.3,47.2,11.3,93.6-2.4,140h0ZM653.6,3206.1c-53-30.4-114.8-42.9-162.3-83-44.2-47.1-101.7-76.6-152.9-115.1-8.1-10.5-101-67.7-69.3-70.3,41.2,8.6,74,41.3,116.1,51.1,25.4,11.3,47.7,28.4,69.8,45.3,69.3,59.5,158.9,103.2,216.7,172-6,.1-13,2.2-18,0h0ZM745.9,3185.2c-37.4-61.5-50.3-133.7-78.4-199.3-8.5-28-32.6-52.1-28.8-82.7,76.5,72.4,111.8,184.9,121.5,288.4-5.4.6-10.7-2.4-14.4-6.5h0ZM920.5,3498.4c-87.3,29-235.8,13.8-318.5-27.1-12.7-9-103.9-32.4-77.6-50.6,70.7,12.3,143.4,33.9,215.3,19.4,51.1-13.8,106.6-21.5,149.1,16.9,5,3.7,45,34.5,31.7,41.4h0ZM1178.7,3609.6c-29.8-11.1-51.2-40.3-61.6-71.6-12.6-56.5-49.3-109.9-47.8-168.3,50.3,66.9,77.4,154.9,115.1,230.1-3.1,5.5-3.9,9.1-5.8,9.8h0ZM1486.7,3888.7c-19.9,24.1-318.8-7.6-271.9-45.1,90.8,15.2,181.1,30.2,273.6,34.1,2.7,3.1,1.4,8.3-1.7,11ZM1797.1,3928.5c-53.4-42.9-123.2-85.6-144.8-153.4,25.5-2.8,49.9,18.3,70.9,30.6,17.9,10.3,118.4,115.5,73.9,122.8h0Z"/>
          <path class="st0" d="M2291.6,4018.1c-140.1,12.6-285.2-18.6-407.4-87.5-54.5-53.3-84.1-127-150.1-169-202.7-92.7-214.5-72-73.2,96.9,79.5,64.1-138.6-24.7-154.1-31.7-33.7-17.7-62.5-43.1-94.8-63.2-63.3-41.1-158.4-60.2-182.2-141.2-26.2-101.5-83-190.3-127.2-284.5-9.2-17.6-82.7-179.8-82.5-101-14.5,95.6,24.4,188.1,43.4,280.5-107.6-65.7-220.1-160.9-251.4-288.3-23.2-81.4-28.7-169.2-67.7-245.5-24.5-37.7-47.3-75.8-74.8-111.3-173.2-192.2-67.7,59-31.2,144.3,60.6,137.6-24.5,54.2-49.5-15.4-137.7-249.4-79-284.7-55-540.7,1.9-59.9-13.5-118.2-31-174.9-12.8-23-71.1-173.3-99.9-132.4-7.2,92.4-16.1,184.7-21.9,277.5.7,9.9-9.3,10.4-11.2,1.2-20-72.5-31.8-146.8-60.9-216.6-32-73.7-25.5-152.8-22.9-230.7,33.9-367.7,292.9-167.5,220.7-525.5-51.7,29.1-26.3,130.8-74,170.3-128.4,146.7-115.2,202.4-114.3-33.2-6.3-99.7,30-110,88-174.2,43.1-31.2,89.7-61.5,111.2-113.8,34.4-94.6,76.2-187.2,122.5-276.2-13-94.2-283.4,300.6-313,323.2-3.4-141.3,75.4-270.6,143.5-389.5,65.5-79.5,103.2-186.5,195.8-240.4,67.9-34.7,151.4-43.1,197.3-112.2,56.8-75,86-181.3,39-267.8-31.9,31.8-53.4,82.8-79.9,121.7-32.3,63.2-88.5,109.8-134.3,162.5,2.2-45.7,32-90.5,48.7-133.6,25.7-49.9,49.6-100.5,97.1-134.2,115-113.6,261.8-173.6,415-216,90.3-22.3,119.7-49.5,127.1-143.9-133.2,20.5-286.2,32.3-383.9,137.7-46.9,63.7-57.3,122.2-137.2,153.9-160,96.1-167.9,302.4-278.1,439.6-22.7,23.9-86.1,169.2-112.9,151.2-4.6-59.7-.2-119.9-17.5-178.5-18.4-47.5-20.9-172.4-80-179.1-3.3.2-8.6,7.3-8.9,11.5-3.8,57.9-4.2,116-5.3,174-12.2,100.7-1.2,201.7,2.2,302.2-5,20.8-34.1,262.3-69.4,186.1-10.7-42.5-12.5-87.3-28.7-128-26.2-65.9-83.2-113.7-84.1-188.8,2.6-15.2-12.9-22.3-23.3-10.3-11.9,12.6-12.9,31.7-13.2,49.1-15.3,271.3,93.3,140.1,132.7,342.2,7.2,71.8,27.8,144.8,10.2,216.2-12,53.2-14.9,105.8-7.1,159.4,9.6,145.3-23.6,293.1-33.7,437.5-37.2-75-78.4-149.2-117.7-223.3C116.6,1835.2.7,1654,0,1713.3c43.3,130.7,83.6,263.7,134.8,392.2,29,75.9,108.1,116,145,186.7,43.2,73.8,62.8,157.4,58.9,242.7-38-16.8-56.7-61.9-90-85.6-44-13.1-58.9-52.7-72.9-91.9-48.9-61.1-147.2-59.2-103.3,39.7,9.3,32.9,33.4,54.7,68.2,53.9,144.2,12.9,160.1,127.4,243,218.6,75.1,95.3,90.4,220.5,144.5,326.3-17.8,4.4-38.2-9.2-52.6-18.2-92.8-58.6-200.4-118.3-313.6-96.8,2.9,28.8,29.9,45.5,51.8,60.4,43.4,25.5,68.4,71.9,110,98.3,72.4,51.6,144.5,104,215.6,157.4,54.2,24.1,105.7,56.8,164.8,69.4,66.7,9.9,96,80.5,133.2,128.5-128.3,15.5-258.6,11.2-384.5-21.7-9.6-2.6-22.9-3.6-26.5,5.6,50.5,123.4,284,175.8,407,164.7,118.4-9.3,235.1,37.1,321.3,118.5,68.1,66.2,151.3,113.9,233.1,160.9-49,22.8-138.1-21.2-198.5-17-43.9,0-92.5-9.9-135.2-19-11.6-4-17.6,7.1-8.1,15.5,99.7,112.3,259.7,120.7,398.9,136.8,71.6-11.8,143.5-21,213.4,6.5,109.4,22.9,646.4,207.6,688.6,93.2,2.5-29.9-37.8-22.5-55.4-20.9h0ZM398.6,1320.7c39.6-50.7,83.3-102.6,129.3-147.4-24.9,81.4-86.4,155.2-143.8,218.9-5.4,11.5-49.9,73.6-49.5,33,2-46.4,42.5-68.1,63.9-104.5h0ZM727.2,642.2c15.4-21.8,37.7-34.8,57-52.4,35.8-40.9,57.3-93.5,91-135.8,16-7.1,11.3,16.7,10.7,25.6-12,86.9-87.6,165.8-169.6,188.2-1.5-9.5,4.4-18.5,11-25.5h0ZM1074.5,124c71.6-48.7,156.5-69,240.8-83.3,3.9-.6,7.9-1.2,11.9-1.7-10.6,73.5-121.4,82.5-178.8,106.7-32.3,6.4-68.1,27.6-100.3,19.8-12.4-17.6,13.8-33.2,26.4-41.4ZM389,716c2.2-19.5-3-40.8,3.7-59.2,47.8,101.6,37.9,235.6,3.3,340.8-27.4-90.2-6.4-187.8-7-281.6ZM208.7,2145.6c-63.3-70.7-82.2-165.6-110.8-253,58.8,70,91.7,166.9,117.3,254.9-2.2-.6-5.4-.5-6.5-1.9ZM482.2,2532.9c-9.6,50.7-5,105.4-18.3,155.3-41.3-87.2-53.4-190.6-48-286.4,3.2-49.4,6-98.2,14.8-146.9.7-4.1,3-9.4,7.1-8.7,18.8,28.9,48,63.9,47.6,100.2-3.1,16.9-2.6,29-.9,46.6,5.3,47.2,11.3,93.6-2.4,140h0ZM653.6,3206.1c-53-30.4-114.8-42.9-162.3-83-44.2-47.1-101.7-76.6-152.9-115.1-8.1-10.5-101-67.7-69.3-70.3,41.2,8.6,74,41.3,116.1,51.1,25.4,11.3,47.7,28.4,69.8,45.3,69.3,59.5,158.9,103.2,216.7,172-6,.1-13,2.2-18,0h0ZM745.9,3185.2c-37.4-61.5-50.3-133.7-78.4-199.3-8.5-28-32.6-52.1-28.8-82.7,76.5,72.4,111.8,184.9,121.5,288.4-5.4.6-10.7-2.4-14.4-6.5h0ZM920.5,3498.4c-87.3,29-235.8,13.8-318.5-27.1-12.7-9-103.9-32.4-77.6-50.6,70.7,12.3,143.4,33.9,215.3,19.4,51.1-13.8,106.6-21.5,149.1,16.9,5,3.7,45,34.5,31.7,41.4h0ZM1178.7,3609.6c-29.8-11.1-51.2-40.3-61.6-71.6-12.6-56.5-49.3-109.9-47.8-168.3,50.3,66.9,77.4,154.9,115.1,230.1-3.1,5.5-3.9,9.1-5.8,9.8h0ZM1486.7,3888.7c-19.9,24.1-318.8-7.6-271.9-45.1,90.8,15.2,181.1,30.2,273.6,34.1,2.7,3.1,1.4,8.3-1.7,11ZM1797.1,3928.5c-53.4-42.9-123.2-85.6-144.8-153.4,25.5-2.8,49.9,18.3,70.9,30.6,17.9,10.3,118.4,115.5,73.9,122.8h0Z"/>
          <path class="st0" d="M2291.6,4018.1c-140.1,12.6-285.2-18.6-407.4-87.5-54.5-53.3-84.1-127-150.1-169-202.7-92.7-214.5-72-73.2,96.9,79.5,64.1-138.6-24.7-154.1-31.7-33.7-17.7-62.5-43.1-94.8-63.2-63.3-41.1-158.4-60.2-182.2-141.2-26.2-101.5-83-190.3-127.2-284.5-9.2-17.6-82.7-179.8-82.5-101-14.5,95.6,24.4,188.1,43.4,280.5-107.6-65.7-220.1-160.9-251.4-288.3-23.2-81.4-28.7-169.2-67.7-245.5-24.5-37.7-47.3-75.8-74.8-111.3-173.2-192.2-67.7,59-31.2,144.3,60.6,137.6-24.5,54.2-49.5-15.4-137.7-249.4-79-284.7-55-540.7,1.9-59.9-13.5-118.2-31-174.9-12.8-23-71.1-173.3-99.9-132.4-7.2,92.4-16.1,184.7-21.9,277.5.7,9.9-9.3,10.4-11.2,1.2-20-72.5-31.8-146.8-60.9-216.6-32-73.7-25.5-152.8-22.9-230.7,33.9-367.7,292.9-167.5,220.7-525.5-51.7,29.1-26.3,130.8-74,170.3-128.4,146.7-115.2,202.4-114.3-33.2-6.3-99.7,30-110,88-174.2,43.1-31.2,89.7-61.5,111.2-113.8,34.4-94.6,76.2-187.2,122.5-276.2-13-94.2-283.4,300.6-313,323.2-3.4-141.3,75.4-270.6,143.5-389.5,65.5-79.5,103.2-186.5,195.8-240.4,67.9-34.7,151.4-43.1,197.3-112.2,56.8-75,86-181.3,39-267.8-31.9,31.8-53.4,82.8-79.9,121.7-32.3,63.2-88.5,109.8-134.3,162.5,2.2-45.7,32-90.5,48.7-133.6,25.7-49.9,49.6-100.5,97.1-134.2,115-113.6,261.8-173.6,415-216,90.3-22.3,119.7-49.5,127.1-143.9-133.2,20.5-286.2,32.3-383.9,137.7-46.9,63.7-57.3,122.2-137.2,153.9-160,96.1-167.9,302.4-278.1,439.6-22.7,23.9-86.1,169.2-112.9,151.2-4.6-59.7-.2-119.9-17.5-178.5-18.4-47.5-20.9-172.4-80-179.1-3.3.2-8.6,7.3-8.9,11.5-3.8,57.9-4.2,116-5.3,174-12.2,100.7-1.2,201.7,2.2,302.2-5,20.8-34.1,262.3-69.4,186.1-10.7-42.5-12.5-87.3-28.7-128-26.2-65.9-83.2-113.7-84.1-188.8,2.6-15.2-12.9-22.3-23.3-10.3-11.9,12.6-12.9,31.7-13.2,49.1-15.3,271.3,93.3,140.1,132.7,342.2,7.2,71.8,27.8,144.8,10.2,216.2-12,53.2-14.9,105.8-7.1,159.4,9.6,145.3-23.6,293.1-33.7,437.5-37.2-75-78.4-149.2-117.7-223.3C116.6,1835.2.7,1654,0,1713.3c43.3,130.7,83.6,263.7,134.8,392.2,29,75.9,108.1,116,145,186.7,43.2,73.8,62.8,157.4,58.9,242.7-38-16.8-56.7-61.9-90-85.6-44-13.1-58.9-52.7-72.9-91.9-48.9-61.1-147.2-59.2-103.3,39.7,9.3,32.9,33.4,54.7,68.2,53.9,144.2,12.9,160.1,127.4,243,218.6,75.1,95.3,90.4,220.5,144.5,326.3-17.8,4.4-38.2-9.2-52.6-18.2-92.8-58.6-200.4-118.3-313.6-96.8,2.9,28.8,29.9,45.5,51.8,60.4,43.4,25.5,68.4,71.9,110,98.3,72.4,51.6,144.5,104,215.6,157.4,54.2,24.1,105.7,56.8,164.8,69.4,66.7,9.9,96,80.5,133.2,128.5-128.3,15.5-258.6,11.2-384.5-21.7-9.6-2.6-22.9-3.6-26.5,5.6,50.5,123.4,284,175.8,407,164.7,118.4-9.3,235.1,37.1,321.3,118.5,68.1,66.2,151.3,113.9,233.1,160.9-49,22.8-138.1-21.2-198.5-17-43.9,0-92.5-9.9-135.2-19-11.6-4-17.6,7.1-8.1,15.5,99.7,112.3,259.7,120.7,398.9,136.8,71.6-11.8,143.5-21,213.4,6.5,109.4,22.9,646.4,207.6,688.6,93.2,2.5-29.9-37.8-22.5-55.4-20.9h0ZM398.6,1320.7c39.6-50.7,83.3-102.6,129.3-147.4-24.9,81.4-86.4,155.2-143.8,218.9-5.4,11.5-49.9,73.6-49.5,33,2-46.4,42.5-68.1,63.9-104.5h0ZM727.2,642.2c15.4-21.8,37.7-34.8,57-52.4,35.8-40.9,57.3-93.5,91-135.8,16-7.1,11.3,16.7,10.7,25.6-12,86.9-87.6,165.8-169.6,188.2-1.5-9.5,4.4-18.5,11-25.5h0ZM1074.5,124c71.6-48.7,156.5-69,240.8-83.3,3.9-.6,7.9-1.2,11.9-1.7-10.6,73.5-121.4,82.5-178.8,106.7-32.3,6.4-68.1,27.6-100.3,19.8-12.4-17.6,13.8-33.2,26.4-41.4ZM389,716c2.2-19.5-3-40.8,3.7-59.2,47.8,101.6,37.9,235.6,3.3,340.8-27.4-90.2-6.4-187.8-7-281.6ZM208.7,2145.6c-63.3-70.7-82.2-165.6-110.8-253,58.8,70,91.7,166.9,117.3,254.9-2.2-.6-5.4-.5-6.5-1.9ZM482.2,2532.9c-9.6,50.7-5,105.4-18.3,155.3-41.3-87.2-53.4-190.6-48-286.4,3.2-49.4,6-98.2,14.8-146.9.7-4.1,3-9.4,7.1-8.7,18.8,28.9,48,63.9,47.6,100.2-3.1,16.9-2.6,29-.9,46.6,5.3,47.2,11.3,93.6-2.4,140h0ZM653.6,3206.1c-53-30.4-114.8-42.9-162.3-83-44.2-47.1-101.7-76.6-152.9-115.1-8.1-10.5-101-67.7-69.3-70.3,41.2,8.6,74,41.3,116.1,51.1,25.4,11.3,47.7,28.4,69.8,45.3,69.3,59.5,158.9,103.2,216.7,172-6,.1-13,2.2-18,0h0ZM745.9,3185.2c-37.4-61.5-50.3-133.7-78.4-199.3-8.5-28-32.6-52.1-28.8-82.7,76.5,72.4,111.8,184.9,121.5,288.4-5.4.6-10.7-2.4-14.4-6.5h0ZM920.5,3498.4c-87.3,29-235.8,13.8-318.5-27.1-12.7-9-103.9-32.4-77.6-50.6,70.7,12.3,143.4,33.9,215.3,19.4,51.1-13.8,106.6-21.5,149.1,16.9,5,3.7,45,34.5,31.7,41.4h0ZM1178.7,3609.6c-29.8-11.1-51.2-40.3-61.6-71.6-12.6-56.5-49.3-109.9-47.8-168.3,50.3,66.9,77.4,154.9,115.1,230.1-3.1,5.5-3.9,9.1-5.8,9.8h0ZM1486.7,3888.7c-19.9,24.1-318.8-7.6-271.9-45.1,90.8,15.2,181.1,30.2,273.6,34.1,2.7,3.1,1.4,8.3-1.7,11ZM1797.1,3928.5c-53.4-42.9-123.2-85.6-144.8-153.4,25.5-2.8,49.9,18.3,70.9,30.6,17.9,10.3,118.4,115.5,73.9,122.8h0Z"/>
        </g>
        <g>
          <path class="st0" d="M4997.1,1425.8c-13.7-51.4-246.1,194.6-267.3,219.9-19.1,25.7-35.9,53-53,80.1-6.5,10.4-24.7,54.9-43.4,33.8-7.9-27.8,6.6-63.2.5-93-7.9-52.9,53.9-56.4,77.3-91.3,26.4-51.6,21.3-112.5,35.5-168.2,9.2-25,8.4-145-24.5-142.3-8.5,98.1-55.7,187.2-94.6,276-5.1,17.3-26.8,66.6-36.4,15.1-8.1-115.7-39.7-225.2-68.5-336.4-11.6-58.5-54-105.3-39.2-167.3,13.7-59.8,47.3-111,84-158,15.8-36.2-32.2-72.2-59.5-41.2-18.6,36.4-13,82.8-33.3,120-9.3,24.6-37.3,62.7-49.7,16.7-25.2-54.4-56.3-116.7-51-178.1,20.1-104.1,39.5-211.1,10.9-316-22-67.8-30.9-141.6-66-204.3-28.6-16.3-18.7,159.3-29.1,184.2-20.7,61-1.2,119.7,32.9,171.4,17.3,42.9,36.2,128.5,2.6,165.3-38.2,11.3-55.9-42.2-83.4-60.3-21.5-22.9-42.2-47.2-65.7-68-41.3-41-53.6-106-98.4-144.8-24.9-22.6-57-35.3-87.2-50-50.9-24.6-83.2-66.4-123.3-104.8-84-85.6-71.5-216.6-186.4-287-22.8-11.4-92.7-127.2-106.1-89.3,16.1,83.3,41.5,170.9,86.1,245.4,69.9,71.7,152.4,132.6,221.9,204.6-35.6-1.5-90.4-30.1-120.6-13.8-7.4,18.8,11.1,39.5,18,56.7,12.2,32.9,47.2,44.1,70.9,66.9,90.9,83.4,216.7,105.2,314,176.1,94.1,102.2,175.9,113.5,210.4,269.8,39.7,152.3-29.9,185.6,58.2,357.6,69,106.2,115.6,175.5,129.5,305.9,54.4,89-5.6,201.9-51.2,281.8-9.9-78.7-34.2-164.2-98.9-214.9-19.6,7.8,3.8,78,3.9,98.1,13.9,77.5-1.8,155.8-5.2,233.6-7.9,132.7-16.2,265.4-33.4,397.3-8.8,90.6,8.2,184.9-10,274.3-28.8,67.1-65,131.8-95.9,198.1-21.2,37.1-26.2,91.8-66.7,113.1-20.3,8-22.2-15-17.6-28.7,10.5-105.7,34.3-225.8-.2-325.7-10.3-1.9-13.3,10.6-12.8,18.6-6.9,68.2-31.2,133.1-36.6,202.1-24.3,68.3-51.9,136.2-72.4,206-25.7,63.2-6.4,144.2-56.8,196.4-79.1,71.7-156.5,153.9-256.1,195.3-20.7-1.3-1.3-54.3,1.1-65.8,12.3-67.3,14.8-137.2,49.6-198,35.8-39.1,14.8-138.4-48.7-104.4-31.3,27.7-35.4,71.9-26.1,110.7,6.2,48.8,1.1,98.5-.7,147.6-13.5,87-54.2,183.7-127.9,235.3-39,25.5-83.8,40.8-117,74.3-22.2,21.4-44.6,52.3-78.5,50.5-17.9-1.6-9.9-20.9,2-26.3,57.9-60,105.8-163.4,68.7-245-1.9-6-7.8-1.6-8.2,3.1-32,80.5-69,160.3-126.4,226.4-88.2,135.5-233.2,230-392.3,258.2-149.9,20.4-299.9,39.6-451.4,31-12.5-.1-26.9,1.2-29.4,16.7-4.2,26.4,28.3,24.4,45,25.6,162.4,17,323.8-9.4,485.8-8.1,111.5-1.2,235.4,13.4,337.8-35.8,31.6-27.4,110.3-56.6,88.1-108.9-47.9-15.3-146.5,51.4-197.9,35.3-18.8-8.4,11.6-24.2,17.9-27.5,86.9-38.6,165.6-96.4,258.4-120,110.4-23.4,229.9,11.7,335.5-39.2,79-41.5,186.2-72.9,198.6-175.9,6.4-49-77.2,38.9-155.7,33.3-42.8-.7-85.9-2.7-128.3,5.8-13.1,4.8-38.2-.7-30.9-18.5,34.3-22.8,73.5-40.1,107.4-64.4,80.5-43.4,141.7-162.1,245-114.5,85.7,9.6,168.1-28,233.9-80.5,47-24.3,89.8-53.6,108.8-105.6,8.5-14.1,50.1-125.1,11.2-107-22.4,47.9-66,77.1-115,93.9-42.2,9.5-350.1,180.1-207.4,40.6,129.9-105.1,182.5-278.2,261.9-419.2,199.7-98,227.4-184.5,331.3-365.2,13.9-37.7,124.4-147.1,103.8-171.7-153.5,50.4-256.8,194.9-363,307.8-17.1,6-21.8-11.4-21.2-24.3,9.3-182.5,31-349.7,211.9-438,68.4-33.1,155.7-135.6,93.4-206.8-29.7,36.9-46.6,86.5-81.3,121.3-47,41.1-83.7,91.1-123.2,138.4-2.9,1.6-7.2,1.2-8.6-1.8,14.5-63.3,21.6-130.8,38.9-194.1,11.7-52,60.8-84.6,94.7-122.8,75.6-30.4,144-78.8,194.4-143.9,49.8-56.6,76.6-127.2,104-196.2,17.1-38.4,37.7-75.3,56.3-113.1,1.1-2.2-.8-6.7-2.6-9.3h0ZM3759.9,296.6c-30.3-31.6-68.9-56.3-88.2-97.9-13.9-29.3-42.9-68.7-32.9-100.3,32.5,14.3,53.2,54.8,77.7,81.1,30.7,32.9,39.9,77,52.6,118.7-2.9,1.6-6.6.5-9.2-1.5h0ZM4050.5,636.3c-430.5-205.2-160.4-222.4,9.8,3.4-3.3-1.1-6.7-1.8-9.8-3.4ZM4353.5,613.2c-26.8-42.4-31.9-98.6-33.9-146.9,3-10.1,6.6-64.3,21.7-51.2,1.8,50,30.7,92.5,34.3,141.9,6.9,24.3,15.2,121.5-22.2,56.2h0ZM4427.7,1186.3c36.4-37.3,92.5,219.2,97.6,248.1-50.5-70.8-105.4-157.5-97.6-248.1ZM3239.6,3977.2c37,3.9,72.1-21.1,107.8-23-24,51.3-99.9,46.6-149.1,55.2-17.2.6-121.2,10.6-117.1-3.3,49.1-27.5,103.1-31.3,158.4-28.9h0ZM3782.7,3649.7c19.9-4.4,41.7-.2,61.7,2.5,42.5,5.1,84.3-10.3,124.1-23.6,65.8-5.1-169.7,102.4-180.6,102.5-60.5,21.2-122.9,29.5-186.9,23.5-26.5,0-53.1,2.1-79.3,6.2-4.5.7-10.5.6-11.8-3.8,64.8-78.6,179.9-82.5,272.7-107.4h0ZM4073.6,3371.4c95.6-48.8,199.8-81.8,297-123.7,14.1,41.7-119,83.9-149.3,108.3-42.3,23.2-110.2,43.5-153.7,20.5,2-1.7,3.7-3.9,6-5.1h0ZM4153.9,3051.9c-16.1,49.1-21.6,113.2-65.9,146.5-.3-30.1,74.2-311.6,65.9-146.5ZM4471.2,2645.4c28.6-37,52.9-77.7,90.3-106.3,27.5-23.1,45.1-63.3,76.3-79.6,8.4,2.1,7.5,12.8,4.8,19.2-25.1,84.1-115.1,189.6-200.8,209.3,4-17.5,18.7-29.1,29.4-42.6h0ZM4494.5,2052.3c-4.2,56.5-25.9,109.4-33.5,165.4-9.4,34.4-10.5,78.3-26.7,107.6.5-75.5,9.5-157.9,12.1-235.1,3.2-45.8,9.5-91.6,16-136.9.6-4.2,2.6-9.7,6.9-9.4,21.4,31.5,27.7,71,25.2,108.4h0ZM4875.5,1624.2c-49.9,85.8-115,176.2-212.9,208.8-2.2-.9-4.7-1.9-7.3-2.9,26.8-45.8,68.3-83.6,90.4-133.8,23.8-43.2,64.7-72.3,92.8-112.3,24-18.3,41.7-66.2,75.9-59.9-9.9,34.5-22.9,68-39,100.1h0Z"/>
          <path class="st0" d="M4997.1,1425.8c-13.7-51.4-246.1,194.6-267.3,219.9-19.1,25.7-35.9,53-53,80.1-6.5,10.4-24.7,54.9-43.4,33.8-7.9-27.8,6.6-63.2.5-93-7.9-52.9,53.9-56.4,77.3-91.3,26.4-51.6,21.3-112.5,35.5-168.2,9.2-25,8.4-145-24.5-142.3-8.5,98.1-55.7,187.2-94.6,276-5.1,17.3-26.8,66.6-36.4,15.1-8.1-115.7-39.7-225.2-68.5-336.4-11.6-58.5-54-105.3-39.2-167.3,13.7-59.8,47.3-111,84-158,15.8-36.2-32.2-72.2-59.5-41.2-18.6,36.4-13,82.8-33.3,120-9.3,24.6-37.3,62.7-49.7,16.7-25.2-54.4-56.3-116.7-51-178.1,20.1-104.1,39.5-211.1,10.9-316-22-67.8-30.9-141.6-66-204.3-28.6-16.3-18.7,159.3-29.1,184.2-20.7,61-1.2,119.7,32.9,171.4,17.3,42.9,36.2,128.5,2.6,165.3-38.2,11.3-55.9-42.2-83.4-60.3-21.5-22.9-42.2-47.2-65.7-68-41.3-41-53.6-106-98.4-144.8-24.9-22.6-57-35.3-87.2-50-50.9-24.6-83.2-66.4-123.3-104.8-84-85.6-71.5-216.6-186.4-287-22.8-11.4-92.7-127.2-106.1-89.3,16.1,83.3,41.5,170.9,86.1,245.4,69.9,71.7,152.4,132.6,221.9,204.6-35.6-1.5-90.4-30.1-120.6-13.8-7.4,18.8,11.1,39.5,18,56.7,12.2,32.9,47.2,44.1,70.9,66.9,90.9,83.4,216.7,105.2,314,176.1,94.1,102.2,175.9,113.5,210.4,269.8,39.7,152.3-29.9,185.6,58.2,357.6,69,106.2,115.6,175.5,129.5,305.9,54.4,89-5.6,201.9-51.2,281.8-9.9-78.7-34.2-164.2-98.9-214.9-19.6,7.8,3.8,78,3.9,98.1,13.9,77.5-1.8,155.8-5.2,233.6-7.9,132.7-16.2,265.4-33.4,397.3-8.8,90.6,8.2,184.9-10,274.3-28.8,67.1-65,131.8-95.9,198.1-21.2,37.1-26.2,91.8-66.7,113.1-20.3,8-22.2-15-17.6-28.7,10.5-105.7,34.3-225.8-.2-325.7-10.3-1.9-13.3,10.6-12.8,18.6-6.9,68.2-31.2,133.1-36.6,202.1-24.3,68.3-51.9,136.2-72.4,206-25.7,63.2-6.4,144.2-56.8,196.4-79.1,71.7-156.5,153.9-256.1,195.3-20.7-1.3-1.3-54.3,1.1-65.8,12.3-67.3,14.8-137.2,49.6-198,35.8-39.1,14.8-138.4-48.7-104.4-31.3,27.7-35.4,71.9-26.1,110.7,6.2,48.8,1.1,98.5-.7,147.6-13.5,87-54.2,183.7-127.9,235.3-39,25.5-83.8,40.8-117,74.3-22.2,21.4-44.6,52.3-78.5,50.5-17.9-1.6-9.9-20.9,2-26.3,57.9-60,105.8-163.4,68.7-245-1.9-6-7.8-1.6-8.2,3.1-32,80.5-69,160.3-126.4,226.4-88.2,135.5-233.2,230-392.3,258.2-149.9,20.4-299.9,39.6-451.4,31-12.5-.1-26.9,1.2-29.4,16.7-4.2,26.4,28.3,24.4,45,25.6,162.4,17,323.8-9.4,485.8-8.1,111.5-1.2,235.4,13.4,337.8-35.8,31.6-27.4,110.3-56.6,88.1-108.9-47.9-15.3-146.5,51.4-197.9,35.3-18.8-8.4,11.6-24.2,17.9-27.5,86.9-38.6,165.6-96.4,258.4-120,110.4-23.4,229.9,11.7,335.5-39.2,79-41.5,186.2-72.9,198.6-175.9,6.4-49-77.2,38.9-155.7,33.3-42.8-.7-85.9-2.7-128.3,5.8-13.1,4.8-38.2-.7-30.9-18.5,34.3-22.8,73.5-40.1,107.4-64.4,80.5-43.4,141.7-162.1,245-114.5,85.7,9.6,168.1-28,233.9-80.5,47-24.3,89.8-53.6,108.8-105.6,8.5-14.1,50.1-125.1,11.2-107-22.4,47.9-66,77.1-115,93.9-42.2,9.5-350.1,180.1-207.4,40.6,129.9-105.1,182.5-278.2,261.9-419.2,199.7-98,227.4-184.5,331.3-365.2,13.9-37.7,124.4-147.1,103.8-171.7-153.5,50.4-256.8,194.9-363,307.8-17.1,6-21.8-11.4-21.2-24.3,9.3-182.5,31-349.7,211.9-438,68.4-33.1,155.7-135.6,93.4-206.8-29.7,36.9-46.6,86.5-81.3,121.3-47,41.1-83.7,91.1-123.2,138.4-2.9,1.6-7.2,1.2-8.6-1.8,14.5-63.3,21.6-130.8,38.9-194.1,11.7-52,60.8-84.6,94.7-122.8,75.6-30.4,144-78.8,194.4-143.9,49.8-56.6,76.6-127.2,104-196.2,17.1-38.4,37.7-75.3,56.3-113.1,1.1-2.2-.8-6.7-2.6-9.3h0ZM3759.9,296.6c-30.3-31.6-68.9-56.3-88.2-97.9-13.9-29.3-42.9-68.7-32.9-100.3,32.5,14.3,53.2,54.8,77.7,81.1,30.7,32.9,39.9,77,52.6,118.7-2.9,1.6-6.6.5-9.2-1.5h0ZM4050.5,636.3c-430.5-205.2-160.4-222.4,9.8,3.4-3.3-1.1-6.7-1.8-9.8-3.4ZM4353.5,613.2c-26.8-42.4-31.9-98.6-33.9-146.9,3-10.1,6.6-64.3,21.7-51.2,1.8,50,30.7,92.5,34.3,141.9,6.9,24.3,15.2,121.5-22.2,56.2h0ZM4427.7,1186.3c36.4-37.3,92.5,219.2,97.6,248.1-50.5-70.8-105.4-157.5-97.6-248.1ZM3239.6,3977.2c37,3.9,72.1-21.1,107.8-23-24,51.3-99.9,46.6-149.1,55.2-17.2.6-121.2,10.6-117.1-3.3,49.1-27.5,103.1-31.3,158.4-28.9h0ZM3782.7,3649.7c19.9-4.4,41.7-.2,61.7,2.5,42.5,5.1,84.3-10.3,124.1-23.6,65.8-5.1-169.7,102.4-180.6,102.5-60.5,21.2-122.9,29.5-186.9,23.5-26.5,0-53.1,2.1-79.3,6.2-4.5.7-10.5.6-11.8-3.8,64.8-78.6,179.9-82.5,272.7-107.4h0ZM4073.6,3371.4c95.6-48.8,199.8-81.8,297-123.7,14.1,41.7-119,83.9-149.3,108.3-42.3,23.2-110.2,43.5-153.7,20.5,2-1.7,3.7-3.9,6-5.1h0ZM4153.9,3051.9c-16.1,49.1-21.6,113.2-65.9,146.5-.3-30.1,74.2-311.6,65.9-146.5ZM4471.2,2645.4c28.6-37,52.9-77.7,90.3-106.3,27.5-23.1,45.1-63.3,76.3-79.6,8.4,2.1,7.5,12.8,4.8,19.2-25.1,84.1-115.1,189.6-200.8,209.3,4-17.5,18.7-29.1,29.4-42.6h0ZM4494.5,2052.3c-4.2,56.5-25.9,109.4-33.5,165.4-9.4,34.4-10.5,78.3-26.7,107.6.5-75.5,9.5-157.9,12.1-235.1,3.2-45.8,9.5-91.6,16-136.9.6-4.2,2.6-9.7,6.9-9.4,21.4,31.5,27.7,71,25.2,108.4h0ZM4875.5,1624.2c-49.9,85.8-115,176.2-212.9,208.8-2.2-.9-4.7-1.9-7.3-2.9,26.8-45.8,68.3-83.6,90.4-133.8,23.8-43.2,64.7-72.3,92.8-112.3,24-18.3,41.7-66.2,75.9-59.9-9.9,34.5-22.9,68-39,100.1h0Z"/>
          <path class="st0" d="M4997.1,1425.8c-13.7-51.4-246.1,194.6-267.3,219.9-19.1,25.7-35.9,53-53,80.1-6.5,10.4-24.7,54.9-43.4,33.8-7.9-27.8,6.6-63.2.5-93-7.9-52.9,53.9-56.4,77.3-91.3,26.4-51.6,21.3-112.5,35.5-168.2,9.2-25,8.4-145-24.5-142.3-8.5,98.1-55.7,187.2-94.6,276-5.1,17.3-26.8,66.6-36.4,15.1-8.1-115.7-39.7-225.2-68.5-336.4-11.6-58.5-54-105.3-39.2-167.3,13.7-59.8,47.3-111,84-158,15.8-36.2-32.2-72.2-59.5-41.2-18.6,36.4-13,82.8-33.3,120-9.3,24.6-37.3,62.7-49.7,16.7-25.2-54.4-56.3-116.7-51-178.1,20.1-104.1,39.5-211.1,10.9-316-22-67.8-30.9-141.6-66-204.3-28.6-16.3-18.7,159.3-29.1,184.2-20.7,61-1.2,119.7,32.9,171.4,17.3,42.9,36.2,128.5,2.6,165.3-38.2,11.3-55.9-42.2-83.4-60.3-21.5-22.9-42.2-47.2-65.7-68-41.3-41-53.6-106-98.4-144.8-24.9-22.6-57-35.3-87.2-50-50.9-24.6-83.2-66.4-123.3-104.8-84-85.6-71.5-216.6-186.4-287-22.8-11.4-92.7-127.2-106.1-89.3,16.1,83.3,41.5,170.9,86.1,245.4,69.9,71.7,152.4,132.6,221.9,204.6-35.6-1.5-90.4-30.1-120.6-13.8-7.4,18.8,11.1,39.5,18,56.7,12.2,32.9,47.2,44.1,70.9,66.9,90.9,83.4,216.7,105.2,314,176.1,94.1,102.2,175.9,113.5,210.4,269.8,39.7,152.3-29.9,185.6,58.2,357.6,69,106.2,115.6,175.5,129.5,305.9,54.4,89-5.6,201.9-51.2,281.8-9.9-78.7-34.2-164.2-98.9-214.9-19.6,7.8,3.8,78,3.9,98.1,13.9,77.5-1.8,155.8-5.2,233.6-7.9,132.7-16.2,265.4-33.4,397.3-8.8,90.6,8.2,184.9-10,274.3-28.8,67.1-65,131.8-95.9,198.1-21.2,37.1-26.2,91.8-66.7,113.1-20.3,8-22.2-15-17.6-28.7,10.5-105.7,34.3-225.8-.2-325.7-10.3-1.9-13.3,10.6-12.8,18.6-6.9,68.2-31.2,133.1-36.6,202.1-24.3,68.3-51.9,136.2-72.4,206-25.7,63.2-6.4,144.2-56.8,196.4-79.1,71.7-156.5,153.9-256.1,195.3-20.7-1.3-1.3-54.3,1.1-65.8,12.3-67.3,14.8-137.2,49.6-198,35.8-39.1,14.8-138.4-48.7-104.4-31.3,27.7-35.4,71.9-26.1,110.7,6.2,48.8,1.1,98.5-.7,147.6-13.5,87-54.2,183.7-127.9,235.3-39,25.5-83.8,40.8-117,74.3-22.2,21.4-44.6,52.3-78.5,50.5-17.9-1.6-9.9-20.9,2-26.3,57.9-60,105.8-163.4,68.7-245-1.9-6-7.8-1.6-8.2,3.1-32,80.5-69,160.3-126.4,226.4-88.2,135.5-233.2,230-392.3,258.2-149.9,20.4-299.9,39.6-451.4,31-12.5-.1-26.9,1.2-29.4,16.7-4.2,26.4,28.3,24.4,45,25.6,162.4,17,323.8-9.4,485.8-8.1,111.5-1.2,235.4,13.4,337.8-35.8,31.6-27.4,110.3-56.6,88.1-108.9-47.9-15.3-146.5,51.4-197.9,35.3-18.8-8.4,11.6-24.2,17.9-27.5,86.9-38.6,165.6-96.4,258.4-120,110.4-23.4,229.9,11.7,335.5-39.2,79-41.5,186.2-72.9,198.6-175.9,6.4-49-77.2,38.9-155.7,33.3-42.8-.7-85.9-2.7-128.3,5.8-13.1,4.8-38.2-.7-30.9-18.5,34.3-22.8,73.5-40.1,107.4-64.4,80.5-43.4,141.7-162.1,245-114.5,85.7,9.6,168.1-28,233.9-80.5,47-24.3,89.8-53.6,108.8-105.6,8.5-14.1,50.1-125.1,11.2-107-22.4,47.9-66,77.1-115,93.9-42.2,9.5-350.1,180.1-207.4,40.6,129.9-105.1,182.5-278.2,261.9-419.2,199.7-98,227.4-184.5,331.3-365.2,13.9-37.7,124.4-147.1,103.8-171.7-153.5,50.4-256.8,194.9-363,307.8-17.1,6-21.8-11.4-21.2-24.3,9.3-182.5,31-349.7,211.9-438,68.4-33.1,155.7-135.6,93.4-206.8-29.7,36.9-46.6,86.5-81.3,121.3-47,41.1-83.7,91.1-123.2,138.4-2.9,1.6-7.2,1.2-8.6-1.8,14.5-63.3,21.6-130.8,38.9-194.1,11.7-52,60.8-84.6,94.7-122.8,75.6-30.4,144-78.8,194.4-143.9,49.8-56.6,76.6-127.2,104-196.2,17.1-38.4,37.7-75.3,56.3-113.1,1.1-2.2-.8-6.7-2.6-9.3h0ZM3759.9,296.6c-30.3-31.6-68.9-56.3-88.2-97.9-13.9-29.3-42.9-68.7-32.9-100.3,32.5,14.3,53.2,54.8,77.7,81.1,30.7,32.9,39.9,77,52.6,118.7-2.9,1.6-6.6.5-9.2-1.5h0ZM4050.5,636.3c-430.5-205.2-160.4-222.4,9.8,3.4-3.3-1.1-6.7-1.8-9.8-3.4ZM4353.5,613.2c-26.8-42.4-31.9-98.6-33.9-146.9,3-10.1,6.6-64.3,21.7-51.2,1.8,50,30.7,92.5,34.3,141.9,6.9,24.3,15.2,121.5-22.2,56.2h0ZM4427.7,1186.3c36.4-37.3,92.5,219.2,97.6,248.1-50.5-70.8-105.4-157.5-97.6-248.1ZM3239.6,3977.2c37,3.9,72.1-21.1,107.8-23-24,51.3-99.9,46.6-149.1,55.2-17.2.6-121.2,10.6-117.1-3.3,49.1-27.5,103.1-31.3,158.4-28.9h0ZM3782.7,3649.7c19.9-4.4,41.7-.2,61.7,2.5,42.5,5.1,84.3-10.3,124.1-23.6,65.8-5.1-169.7,102.4-180.6,102.5-60.5,21.2-122.9,29.5-186.9,23.5-26.5,0-53.1,2.1-79.3,6.2-4.5.7-10.5.6-11.8-3.8,64.8-78.6,179.9-82.5,272.7-107.4h0ZM4073.6,3371.4c95.6-48.8,199.8-81.8,297-123.7,14.1,41.7-119,83.9-149.3,108.3-42.3,23.2-110.2,43.5-153.7,20.5,2-1.7,3.7-3.9,6-5.1h0ZM4153.9,3051.9c-16.1,49.1-21.6,113.2-65.9,146.5-.3-30.1,74.2-311.6,65.9-146.5ZM4471.2,2645.4c28.6-37,52.9-77.7,90.3-106.3,27.5-23.1,45.1-63.3,76.3-79.6,8.4,2.1,7.5,12.8,4.8,19.2-25.1,84.1-115.1,189.6-200.8,209.3,4-17.5,18.7-29.1,29.4-42.6h0ZM4494.5,2052.3c-4.2,56.5-25.9,109.4-33.5,165.4-9.4,34.4-10.5,78.3-26.7,107.6.5-75.5,9.5-157.9,12.1-235.1,3.2-45.8,9.5-91.6,16-136.9.6-4.2,2.6-9.7,6.9-9.4,21.4,31.5,27.7,71,25.2,108.4h0ZM4875.5,1624.2c-49.9,85.8-115,176.2-212.9,208.8-2.2-.9-4.7-1.9-7.3-2.9,26.8-45.8,68.3-83.6,90.4-133.8,23.8-43.2,64.7-72.3,92.8-112.3,24-18.3,41.7-66.2,75.9-59.9-9.9,34.5-22.9,68-39,100.1h0Z"/>
        </g>
      </g>
    </g>
  </g>
</svg>