<?xml version="1.0" encoding="UTF-8"?>
<svg id="Layer_2" data-name="Layer 2" xmlns="http://www.w3.org/2000/svg" viewBox="0 0 5000 3564.25">
  <g id="_10_Hand_Drawn_Floral_Wedding_Monogram_Frames_Elegant_Botanical_Logo_Set_Minimal_Wedding_Crest_Design" data-name="10 Hand Drawn Floral Wedding Monogram Frames, Elegant Botanical Logo Set, Minimal Wedding Crest Design">
    <path id="Minimal_Hand_Drawn_Floral_Initial_Wedding_Logo" data-name="Minimal Hand Drawn Floral Initial Wedding Logo" d="M4993.28,746.13c-3.93-18.89-24.68-14.19-25.37,3.07-7.58,35.06-26.91,65.9-42,98.16-61.09,123.79-111.27,264.63-104.1,401.46,9.69,48.71-34.93,87.36-58.89,125.98-48.57,56.34-81.87,125.04-142.45,169.9-90.91,68.74-203.35,142.59-316.22,156.98-4.14-6.33,9.24-28.31,13.61-35.54,14.99-27.62,34.44-53.44,45.33-82.93,64.25-154.85,106.53-317.7,155.5-478.01,11.07-35.43,15.21-72.14,30.29-106.53-17.67-11.69-39.19,12.44-46.66,27.15-24.42,37.8-56.52,68.49-83.19,104.52-141.53,158.63-18.48,315.88-116.3,477.3-12.58-78.95-47.06-141.92-73.39-218.97-80-195.44,21.81-394.08,108.01-568.17,17.86-65.12,76.15-75.68,135.61-75.27,66.4-3.71,116.91-65.97,166.99-109.84,58.14-43.09,115.71-124.91,110.54-192.65-7.13-24.77,15.89-36.17,14.56-57.76-30.49-19.32-58.44,32.6-70.66,55.77-57.58,73.42-133.13,144.52-213.4,194.55-18.76,12.89-38.75,24.96-56.3,41.61-7.41,5.28-23.09,26.96-27.81,14.65-5.86-46.03,28.08-85.47,36.21-129.46,10.04-39.53,17.04-79.07,27.77-118.49,18.17-87.13,32.65-197.56,13.38-284.77-4.06-39.28-12.09-126.71-43.75-155.11-18.56,14.86-10.49,49.36-15.54,71.08-22.9,101.98-73.73,225.56-74.16,339.84,3.52,42.54,11.96,144.18,22.1,202.29,5.88,86.38-55.3,155.32-87.72,230.49-64.48,125.23-104.46,253.61-117.41,391.96-62.56-65.51-24.23-147.15-23.66-223.62-12.31-82.87,39.93-167.95,2.47-244.36-20.98-6.17-29.91,26.69-44.16,53.95-47.03,61.29-67.48,135.69-57.03,213.11,7.82,123.06,108,228.95,149.73,344.42,43.11,93.47,83.79,200.22,47.28,301.8-25.56,96.14-136.82,101.61-211.31,138.94-284.66,94.1-270.67,201.57-222.22-2.8.89-59.49,30.62-112.25,45.77-168.73,23.7-66.28,39.65-134.09,37.54-205.42-3.79-34.93,20.02-121.97-6.72-142.12-54.1,16.48-81.43,155.28-99.42,206.91-52.44,128.99-32.73,269.22-53.34,402.55-31.52,110.21-136.16,180.22-189.47,277.38-39.44,61.33-65.17,135.5-110.78,192.68,22.73-90.41,11.04-181.11-1.38-271.71-1.55-23.86-2.66-58.56-28.38-70.53-29.63-1.9-37.11,129.8-43.54,157.69-8.73,80.77-.16,147.3,5.71,225.06,6.78,95.31-104.21,130.16-157.1,192.82-67.6,60.74-124.38,134.25-198.94,186.63-107.87,79.92-222.73,154.84-332.3,229.49-10.81-21.67,15.74-50.12,27.96-69.29,65.81-87.66,117.94-222,32.98-305.12-49.79-61.6-22.75,28.84-26.72,54.4-6.09,43.89-57.49,225.44-66.78,271.78-12.45,49.43-22.86,121.71-92.2,105.65-96.15-24.96-232.12-103.37-289.04-184.37-27.26-115.05-47.63-230.63-16.05-347.17,35.85-88.92-5.19-172.43-19.95-259.31-4.48-84.36-51.47,23.12-51.11,51.02-9.71,62.98-52.36,115.76-57.67,179.83-4.09,80.82,64.31,209.23,86.23,285.13,23.6,72.4-35.69,34.17-63.42,6.96-117.58-96.61-250.08-169.78-380.53-248.33-134.34-79.72-106.13-269.8-57.84-390.09,35.25-100.15,58.11-204.59,112.71-297.11,118.87-176.64,45.64-312.19-25.45-485.3-30.19-57.35-40.62,66.92-31.76,81.3,13.9,91.83,22.52,184.47,31.75,276.43,8.2,31,6,60.85-7.14,96.83-33.25,96.79-84.37,185.33-111.6,284.05-31.51,109.63-72.01,226.36-37.64,339.57-100.33-64.2-235.55-164.66-210.42-303.49,8.03-123.46,29.47-244.75,39.94-368.35,1.46-23.92-.93-222.45-45.27-152.48-45.21,175.12-131.8,230.61-61.15,423.58,10.44,15.07,57.39,204.77,10.68,149.19-116.62-120.99-181.54-280.18-274.58-418.23-175.83-251.9,34.61-211.75-20.26-381.99-33.65-65.6-52.73-112.17-55.57-1.85-1.78,73.28-39.25,142.13-29.81,216.46-177.9-199.1-191.22-241.42-207.7-510.45-8.31-207.8-79.37-258.94,81.05-431.67,40.6-41.36,35.43-268.3-4.3-308.71-19.46-3.64-22.6,115-35.75,137.57-13.33,46.08-14.85,86.62-37.75,134.54-18.6,32.4-39.61,64.59-43.42,102.79-8.89-62.45-51.99-109.27-82.09-161.43-43.1-78.88-95.45-151.55-137.4-231.31-24.02-42.52-22.15-104.62-52.88-137.4C381.07,147.49,294.17,57.17,187.48,5.44c-77.51-35.51,18.85,113.86,30.06,132.91,48.94,92.63,121.01,167.56,212.54,215.85,45.27,37.36,49.24,84.19,92.6,132.36,34.18,42.67,48.55,94.91,83.95,138.25,35.78,43.11,72.23,99.47,82.72,151.96,36.41,205.36,28.25,420.1,63.84,625.21-15.01-2.57-26.99-14.88-38.03-27.41-56.41-55.88-125.56-95.53-195.19-132.23-30.37-17.69-56.04-67.31-52.14-102.82,35.25-112.41,85.25-244.27-9.13-331.66-30.39-28.88-77.44-37.79-39.16,18.2,34.88,122.64-18.44,248.19,25.87,371.74-95.29-73.74-225.97-133.78-268.4-253.79-23.05-45.57-18.61-108-42.97-150.66C117.94,767.44,4.83,500.2,0,599.31c11.01,55.91,8.22,153.77,32.17,205.21,33.33,55.82,101.83,105.25,113.12,166.74,15.76,56.73,60.64,105.7,104.44,142.55,94.79,72.69,193.62,137.37,298.3,193.46,194.84,136.62,391.89,297.41,491.85,519.59,20.42,49.85,49.64,97.6,84.23,139.1,7.81,8.77,2.88,11.97-6.85,9.41-122.08-33.29-304.87-19.95-393.75-109.73-85.63-115.14-112.37-204.29-261.74-277.4-28.19-20.33-151.92-68.64-73.92,6.77,34.16,46.38,67.72,91.69,95.06,138.01,68.29,129.49,216.66,179.42,345.49,229.12,112.53,20.95,231.07,27.41,332.76,85.05,66.91,46.35,102.08,127.07,146.8,193.04,10.07,16.14,20.09,22.31,33.94,32.4,64.83,48.76,87.15,123.71,144.47,177.65,71.06,50.52,136.52,105.5,207.43,155.74,48.09,43.03,103.52,57.72,148.59,107.99-127.95-4.59-268.12,31.02-391.81,14.16-96.91-.28-58.83-14.97-76.09-86.51-31.75-77.86-95.25-163.24-164.4-207.93-39.39-21.85-140.82-107.73-98.84,5.08,27.72,91.92,120.25,137.6,193.74,190.99,87.55,110.34-43.08,50.77-95.4,29.76-123.82-53.22-250.49-107.74-368.27-174.11-139.5-92.39-323.81-103.55-477.73-42.14-89.24,42.01,73.82,44.16,99.18,58.38,100.61,30.76,237.23,34.85,352.7,29.98,53.1.15,89.22,47.52,139.55,64.37,132.49,60.47,265.36,122.72,406.29,161.31,208.19,54.68,395.9-9.7,600.03,21.25,190.07,80.2,319.11,255.95,506.08,342.99-122.51,61.7-259.15,101.04-384.6,151.47,18.25-63.65,92.1-106.6,85.19-180.61-14.07-47.08-50.2-182.24-108.6-179.44,12.26,84.48,36.29,183.84,14.27,268.07-43.2,165.38-89.42,146.11-182.71,266.79-18.05,27.45-39.07,47.57-48.4,77.53-1.98,12.31,2.15,21.78,11.37,25.99,37.93,11.79,55.68-42.93,73.82-67.04,32.1-74.53,101.4-99.9,163.91-140.33,134.88-95.18,306.31-105.52,448.07-185.01-34.97,86.6-77.04,177.72-111.28,267.09-7.36,34.99-55.55,95.39-39.25,124.93,14.14,16.02,44.01,19.09,61.77.17,20.09-88.5,60.15-169.77,93.28-254.59,16.29-45.07,21.96-102.14,63.28-131.84,52.09-5.27,174.72,74.71,219.78,107.18,40.8,21.61,66.43-29.25,22.5-45.74-26.15-18-117.36-55.82-141.43-75.35-49.94-21.25-39.1-54.65-5.15-87.16,31.38-32.81,196.83-133.48,236.79-162.27,51.87-37.12,105.46-75.62,167.6-91.36,126.29-21.57,191.18-56.28,187.63,108.3-4.85,29.73,84.21,171.03,110.88,126.89,48.48-108.77-92.03-179.45-79.75-246.06,74.03-11.39,154.7-8,224.45-43.05,103.62-53.6,188.82-160.31,218.59-269.09,7.99-47.67,4.14-100.31,21.41-145.23,16.28-44.76,57.28-103.74,30.94-149.94-3.72-1.27-9.58-.94-15.74,8.57-25.79,43.04-62.8,76.74-100.35,109.3-150.39,134.05-20.72,344.82-146.02,392.94-110.96,65.64-238.07,48.97-364.62,52.31-103.03,17.17-57.07-16.27-6.02-58.79,61-59.03,120.81-115.51,177.2-178.65,27.14-58.92,82-87.55,113.27-144.44,95.33-130.69,161.65-294.86,300.62-384.05,87.84-34.39,173.54-105.68,269.18-108.88,153.59,56.78,289.25,106.36,450.21,33.43,38.47-8.86,100.44-49.89,88.53-96.3-59.27,11.65-112.56,21.76-151.47,13.93-79.88-12.26-155.88,10.23-232.96,21.79-166.61,4.53-59.61-38.53,19.28-65.74,142.7-55.33,294.19-109.23,414.95-203.71,69.68-66.28,128.92-145.01,182.76-223.66,11.47-24.63,26.8-49.9,43.58-75.64,72.73-111.53,119.32-238.34,131.84-370.9,5.19-54.91,6.31-110.22-2.73-167.25Z" fill="FRAME_COLOR"/>
  </g>
</svg>