<svg xmlns="http://www.w3.org/2000/svg" viewBox="0 0 1318.59 1050.15"><title>Asset 53</title><g id="Layer_2" data-name="Layer 2"><g id="Layer_1-2" data-name="Layer 1"><path fill="FRAME_COLOR" d="M1316.29,358.06H1128a6.44,6.44,0,0,0-.88-1.34c-13.52-15-12.41-36.83-23.23-53.17,13.61-3.79,26.39-10.53,40.06-14.23,19.58-5.33,39.65-6,59.69-3.42,5.78.71,7.72-8.23,2.9-10.73-12-6.35-24-12.76-34.27-21.84-8.37-7.4-15.54-16-23.8-23.48-2.64-2.09-6.09-4.76-10.17-7.82-12.63-9.44-16.14-11.16-20.14-12a27.9,27.9,0,0,0-11.19,0c5.21-16.63,10.59-33.37,21.92-47,6.35-7.63,17.73-22.35,28.35-28.19,3.87,3.85,9.45,6.32,14.8,4.67,8.91-2.7,5.55-14,1.68-19.47-3.36-4.81-11.3-12.44-17.73-8.77-4.67,2.65-4.5,7.83-2.62,12.42-12.87,6-24.28,21.37-32.62,31.2a99.61,99.61,0,0,0-15.29,25.27c.34-23.23,4.21-45.54,16.57-66.75a13.13,13.13,0,0,0,9.59-2.14c7.91-5.8-1-13.4-6.18-16.71-5.61-3.58-15-6.06-20.41-.59-6,6.09.8,11.53,6.18,15.08-14.15,24.88-17.65,51.27-17.22,78.89-3-9.8-5.78-19.5-6.35-28.78-1.57-25.43,10.22-53.66-23.2-62-22.55-5.63-48.14-4.61-69.52,5a61.71,61.71,0,0,0,3.3-12.55c4.27-27.61-14.57-51.9-40.67-59.58-13.36-4-26-2.51-39.12,1.34-16.82,4.89-34.76-1.91-50.84,5.35C840.81,48.86,837.5,78.32,839,104.2c-9.31-.72-19.36.45-30,3.41a223.07,223.07,0,0,1,12.44-74c5.24,1.08,10.47.82,11.1-5.61.68-7.26-7.23-13.75-13.35-15.89-5.87-2.05-16-1-16.06,7.18,0,4.24,2.71,7.4,6.32,9.34A5.09,5.09,0,0,0,810.54,30a230.33,230.33,0,0,0-7.82,27.59,149.36,149.36,0,0,0-16.14-36.84c5.75-4.55,13.15-11.36,6.6-18-5.92-6-18.56-.85-24.34,2.88s-16,13.46-7.06,19.69c4.33,3,8.91,1.48,13.15-1.45a135.31,135.31,0,0,1,21.13,86.51,6.93,6.93,0,0,0,.08,1.54c-4,1.54-8,3.25-12.13,5.27A163.71,163.71,0,0,0,768,126a74,74,0,0,0,7.48-28.52c1.06-20.5-1.73-35.36-8.79-46.77-4-6.47-9.54-11.48-17.45-15.83a142.53,142.53,0,0,0-17-7.55l-.65-.22-4.07-1.63a4.91,4.91,0,0,0-2.39-1c-1.48-.6-2.91-1.23-4.33-1.88a119.73,119.73,0,0,1-11-6.24c-9.68-6-19.61-12.18-31.11-11.33a5.55,5.55,0,0,0-2,.2,7.09,7.09,0,0,0-.74.12c-13.92,2.39-27,11.24-39,20.49A5,5,0,0,0,635,27.34l-2.68,2.07c-12.89,10.11-25.1,21.87-27.07,39.49-1.88,16.91,3.87,33.76,9.11,46.54.43,1,.85,2.08,1.28,3.1a40,40,0,0,0-11-4,46.48,46.48,0,0,0-10.82-1,1.25,1.25,0,0,0-.09-.37C587.05,94,587.17,74.9,589.7,55,591,44.79,592.89,35.51,588,26.28a7.42,7.42,0,0,0,2.68-6,9.24,9.24,0,0,0-4.81-7.8c-3.16-1.73-6.92-1.31-10.31-.51-5.52,1.28-10.87,5.84-9.25,12.1,1.39,5.32,6.8,7.4,11.75,8.06,4,8.82,1.06,22.88-.68,34.3-6-18.82-14.52-36.5-28.46-51.33a22,22,0,0,0,2.78-6,5.83,5.83,0,0,0-4-7.06c-6.2-2.11-12.07.65-16.91,4.46-4,3.16-8.37,7.43-8.71,12.9A10,10,0,0,0,531.71,30c4.36.23,7.8-2.05,10.93-4.7,13.72,15.6,21.3,34.36,26.68,54.06a202.69,202.69,0,0,0-31.63-32.68,7.82,7.82,0,0,0,1-1.82,8.4,8.4,0,0,0-2.19-9.11c-5.35-5.15-12.64-.54-16.25,4.24-3.48,4.59-6,13-.17,16.83,3.84,2.53,7.71,1.59,10.7-.89a193.57,193.57,0,0,1,47.91,59.78,83.61,83.61,0,0,0-14.69,5.64c-2,1-4.1,2.14-6.12,3.25a32.17,32.17,0,0,0-10.13-4.53c.57-6.83-.72-13-2-19.58l-.26-1.29c-.37-1.82-.65-3.72-.91-5.58l0-.25c-.63-4.5-1.25-9.14-3.33-13.38-5-10.22-16-13.64-24.88-16.37l-1.79-.54c-12.7-4-25.82-8-39.09-2.62-5.32,2.19-15.06,6.15-20.58,12.41-.31-.51-.62-1-.94-1.48-5.86-8.85-17.22-15.46-31.17-18.1-12.33-2.37-24.45-1.26-33.28,3C384,59,379.27,63,374.75,66.73c-5,4.22-10.25,8.57-16.49,11A90.81,90.81,0,0,1,346,81.14c-7.26,1.59-14.75,3.27-21,8.11-7.91,6.12-14.06,16.43-17.28,29-2.59,10.1-5.38,32.08,2.05,44.55a46.15,46.15,0,0,0-14.26,7,217.59,217.59,0,0,1-11.53-81.3,19.72,19.72,0,0,0,4.1-1.45,5.81,5.81,0,0,0,2.65-6.52c-2.74-8.17-13-10-20.64-9.34-8.74.74-15.37,7.43-13.81,16.4.43,2.47,3.19,4.21,5.55,4.24,3.5,0,7,0,10.51.06a229.2,229.2,0,0,0,3.21,46.6c-8.51-10.48-17.33-21.13-23.62-32.71-5.78-10.65-9.34-20.7-20.5-25.68a13,13,0,0,0-3.16-10.36,5.81,5.81,0,0,0-7-.91c-5.53,3.53-10.71,9.36-8.88,16.45a10.76,10.76,0,0,0,15.14,7.23,4.19,4.19,0,0,0,1.22-.91c9.43,5.7,13.3,21.21,19.53,29.58.32.45.69.88,1,1.34-1.14-.66-2.28-1.37-3.45-2-16.82-9.28-42.18-12.64-56-26.25a8.39,8.39,0,0,0,1.45-4.73c0-5.46-5.12-9.42-10.3-9.42-10.17,0-18.28,12.58-15.46,21.89a6,6,0,0,0,5.58,4.22,13.56,13.56,0,0,0,10.42-3.9c10.79,10.93,25.79,13.77,39.79,19.35A146.86,146.86,0,0,1,260,144c-22.78-7.71-50.82-6.32-73.76-17.68,3-8.94-8.94-17.3-16.11-9.42-6.46,7.06-8.06,23.23,3.44,26.08a5.9,5.9,0,0,0,7.09-4.05c.23-.74.43-1.5.66-2.27,34,15.71,87,2.9,102.85,44.23-.83,1.17-1.63,2.34-2.34,3.56a66,66,0,0,0-6.49,17.11c-20.81-12.38-51.15-14.49-73.3-7.86-12.33,3.7-23.63,10-34.84,16.32L122,229.85c-2.31.45-4.64.85-7,1.08-6.18.63-8.17,9.42-1.54,11.3,18,5.15,36.1,10.22,53.21,17.91,13.46,6.06,26.07,14.71,40.5,18.53a63.59,63.59,0,0,0,10.42,1.88c-22.29,19.45-34.69,48-38.52,77.51H2.31A11.87,11.87,0,0,0,0,364.58a12.08,12.08,0,0,0,2.3,7.53h1314a12.09,12.09,0,0,0,2.29-7.53A11.88,11.88,0,0,0,1316.29,358.06ZM1111.38,353a191,191,0,0,0-44.41-1.2c-20.78,1.94-47.65,7.2-61.57-11.5,11.53-8.6,20.61-19.81,22-35a54.61,54.61,0,0,0,.2-8.34,231.53,231.53,0,0,1,53.58,37,189.09,189.09,0,0,0-31.94-36.41c13.12,6.21,27.07,9.94,41.93,8.46C1103.13,318.64,1104.15,337.34,1111.38,353ZM992.62,332.19a30.67,30.67,0,0,1-3.76,6.37,124.92,124.92,0,0,1-36.15,15.69c-.12,0-.23-.06-.34-.06-16.77-1.91-40.91-11.56-46.69-29.69-3.3-10.25-1.28-19.41-7.26-29.18-8.22-13.43-20.15-20-14-38,3.18-9.25,8.88-17.77,15.71-25.08a63.93,63.93,0,0,0-3.36,39c1.17-10.91,6.18-21,11.81-30.41,2.68-4.47,5.9-9.11,10.14-11.92a22.64,22.64,0,0,0,21.55,2.7,283.2,283.2,0,0,1,38.51,53.75c-2.19-8.12-4.41-16.2-6.6-24.32-1.74-6.37-3.53-12.86-6.46-18.73,13.21,7.32,26.56,15.23,36.29,25.79a4.72,4.72,0,0,0,3,3.53,51,51,0,0,1,9.62,18.42c4.08,14.72-2.05,27.76-12.89,38.35a17.54,17.54,0,0,0-2.42-6.84c-1.91-3.27-4.33-6.29-5.44-9.9A30.83,30.83,0,0,1,992.62,332.19Zm-162.75,1.65c-10.36-21.18-27.47-40.48-52.18-58.9l-3-2.28c-8.4-6.26-17-12.67-25.77-18.9,2,.54,4.05,1.05,6.07,1.57,14.91,3.87,30.32,7.85,43.52,16a73.82,73.82,0,0,1,31.06,38.34c3.08,9,3.45,16.06,1.2,22.09C830.5,332.41,830.22,333.1,829.87,333.84Zm.63-47.68a79.84,79.84,0,0,0-24.14-22.64A142.7,142.7,0,0,0,832,265.77a102.86,102.86,0,0,0,18.16-1.56A50.92,50.92,0,0,1,830.5,286.16Zm1.34-32c-17.37.2-33-3.7-49.56-7.77h0c-2.51-.63-5.07-1.26-7.63-1.85-5-1.2-10.25-2.25-14.89-3.19-6.86-1.37-13.86-2.76-20.67-4.67a318.91,318.91,0,0,0,33.51,1.45,460.8,460.8,0,0,0,56.34-4.41l3.78-.51c8.94-1.2,18.16-2.42,27-4.93,6.12-1.71,12-4,17.76-6.15l2.19-.85c-.28.8-.54,1.62-.8,2.39a63.08,63.08,0,0,1-4.58,11.24,125.32,125.32,0,0,0-8.23,9.74C858.17,251,847,254.07,831.84,254.19Zm-11.3-73.45,4-1.39c10.11-3.53,20.56-7.18,31-9.54,8.49-1.91,17.25-3.21,25.71-4.5l.77-.11c1.62-.23,3.33-.57,5.12-.91a79.48,79.48,0,0,1,11.42-1.45c3.72,4,7.11,8,8.68,12.35,2.93,8.29-3.13,14.09-10.16,20.84l-1.63,1.57a74.58,74.58,0,0,0-9.36,10.33c-4.1,1.37-8.14,2.9-12.16,4.41-4.44,1.68-9,3.45-13.58,4.87-10.16,3.24-21.15,4.67-31.77,6.06l-2.81.37a443.66,443.66,0,0,1-53.32,4.07c-15.06.2-30.49-.85-49.93-3.36l-.09-1.36C752.87,204.31,788.8,191.79,820.54,180.74Zm-95.17,28.38c4.24-3.84,8.29-8.05,12.27-12.18,3.5-3.67,7.15-7.46,10.79-10.79,12-11,24.48-22.4,37.66-32.34,10.56-7.94,22.21-13.8,36.67-18.44l4.81-1.54c12.12-4,24.62-8,37.35-8.57,7.37,6,13.43,13.58,19.33,21,1.87,2.37,3.81,4.79,5.8,7.18l-1.59.25c-1.31.23-2.56.46-3.76.63-9.25,1.31-18.19,2.79-26.5,4.38-12.58,2.39-24.74,6.58-36.5,10.65l-2.07.71C789.42,180.43,755.52,192.13,725.37,209.12Zm182.33.29c-.05,0-.11,0-.17.08a120.42,120.42,0,0,0-14.15,8.77,19,19,0,0,1,1.28-2.45c2.25-3.73,5.73-7,9.14-10.22,1.17-1.11,2.34-2.22,3.48-3.33.28-.31.59-.62.88-.91A31.59,31.59,0,0,0,907.7,209.41Zm-35.24,46c-3.9,11.79-3.39,23.83,5.35,34.1,4.76,5.61,11,10.28,13.61,17.57,1.88,5.26,1.11,10.24,2.19,15.48a40.76,40.76,0,0,0,10.76,20.73,67.71,67.71,0,0,0,18.19,13.58c-32.39-2.4-66.16-19.48-65.56-55.8C857.26,284.48,863.21,268.9,872.46,255.44Zm54-62.2c15.52-7.49,24,22.52,9.25,27.87C919.49,227,913.2,200.13,926.43,193.24Zm58.1,47.48c12.07,1,24.37-1.51,35.87,1.91,11.87,3.5,20.75,12.72,32.71,16.31a49.5,49.5,0,0,0,5.89,1.37c-15.91,4.32-34.7,3.58-48.08,1C1003.46,253.5,994.21,246.81,984.53,240.72Zm122.52,3.9a23,23,0,0,0-8.79-1.51,44.57,44.57,0,0,0,3.5-20c24.2-3.67,40.68,17,56.25,32.45a135.66,135.66,0,0,0,22.09,17.6c-22.29.51-43.33,5.8-65,14.29-17.1,6.71-33.33,10-51.29,3.9-11-3.76-21-9.74-30.61-16.34,20.67.2,42.36-4.59,56.17-18.73a87.71,87.71,0,0,1,47.08,4A99.54,99.54,0,0,0,1107.05,244.62ZM1029.26,105.7a39.52,39.52,0,0,0-13.19,14.12c10-4.78,20.81-8.25,31.89-8.56a48.87,48.87,0,0,1,25.65,6c8.05,12.53.94,33.65,3.44,49.53,2.93,18.53,13.44,37.41,13.21,56.57a29.21,29.21,0,0,1-34.33,2.56c4,4.1,8,8.23,13.06,11s11.14,4,16.49,2a12.37,12.37,0,0,0,2.19-1.08,32.24,32.24,0,0,1-5.58,9.14c-15.17,4.47-28,1.14-41.33-7.14-6.49-4.05-12.64-8.23-20.24-9.83-9.2-2-18.56.2-27.84-.11a75.39,75.39,0,0,1-25.14-5.38,63.77,63.77,0,0,0,34.3-8.71,76.26,76.26,0,0,1-47.22-4.47,31.77,31.77,0,0,0-5.36-20.15c1.74-9.34,6.15-18.14,11.9-25.74,6.72-8.91,15.18-16.34,23.89-23.28-9.88,1.39-18.88,6.83-25.91,13.89a76.37,76.37,0,0,0-7.12,8.54c8.77-15,21.67-27.79,31.75-42C996.4,111.68,1012.66,106.67,1029.26,105.7ZM881.83,45.53a5.07,5.07,0,0,0,.54-.49c1.28-.11,2.62-.2,4-.23,12-.11,20.84,1.57,32.54-1.48,7.23-1.87,13.86-3.44,20.47-3.75a26.34,26.34,0,0,1,10.16,12.24c2.93,6.86,3.56,14.43,4.15,21.86,2.85-7.46,5-15.6,3.31-23.43a21.63,21.63,0,0,0-4.81-9.56,49.18,49.18,0,0,1,8.85,3c38.88,17.79,26.19,57,4.84,83.21-8.71,10.7-17.57,20.87-24.2,32.34,1.57-4.27,3.3-8.48,4.95-12.73,4.47-11.38,8.46-23.4,7.26-35.55-4.41,12.87-11.41,24.68-17,37.12-4.67,10.36-8.34,21.52-8.45,32.79a26.13,26.13,0,0,0-7.8,2.39c-.63.32-1.2.69-1.8,1.06,1.4-5.64.69-12-3.78-19.05a88.17,88.17,0,0,0-10.22-12.61c-1.17-1.28-2.37-2.56-3.5-3.84-3-3.39-5.9-7.09-8.54-10.45a.39.39,0,0,1-.12-.14c.8-6.92,1.25-13.83-.31-20.84-2.22-9.73-6.89-14.15-13.32-21.12C864.83,80.91,863,59.53,881.83,45.53ZM858.6,59a50.36,50.36,0,0,0-2.28,10.73c-1.65,16.83,5.92,25,16.4,36.38a31.85,31.85,0,0,1,8.45,18.57s-.06-.09-.11-.12c-8.86-9.25-19-15.4-30.38-18.39C849.63,90.36,850.43,71.57,858.6,59Zm-88,79.23c11.16-7.49,48-29.84,78.25-21.24a241.25,241.25,0,0,0-24.48,6.94l-4.72,1.51c-16.43,5.24-30,12.27-42.51,22.18-15,11.81-28.92,24.48-40.56,35.3-6.78,6.32-13.29,12.64-19.44,18.79,3.24-5.24,6.8-10.68,10.79-16.51l-1.51-1,1.76.71c2.25-2.93,4.59-6,6.69-9C745.56,160.47,755.72,148.18,770.58,138.19Zm-35.39-22.81c2.82-23,6.29-51.44-1-75.38,7.57,3.19,14.89,7.09,19.87,13,9.73,11.64,10.39,28.95,10,41-.71,23.18-13.69,40.57-27.39,59l-4.18,5.63c-3.45,4.67-6.63,9.11-9.59,13.33.14-.4.25-.77.39-1.17C728.73,154.58,732.63,136.48,735.19,115.38ZM682.76,17.54c5.86.83,11.41,4,17.73,7.58,2.37,1.33,4.81,2.73,7.43,4.09a125.26,125.26,0,0,0,13.18,5.7c11,23.6,6.78,55.85,3.42,81.81l-.17,1.34a266.32,266.32,0,0,1-8.57,41.87c-2,6.67-4.38,13.18-6.49,18.79-1,2.62-1.77,5.52-2.62,8.63-1.37,5-2.79,10.05-4.84,13.66-2.39-13.46-5.66-26.84-8.91-40-2.82-11.56-5.75-23.51-8-35.36C678.8,93.18,678.12,59.76,682.76,17.54Zm7.17,208.69a11.2,11.2,0,0,1,3.93-6.06c1.45-1,4-1.28,7-.6a15,15,0,0,1,4.36,4.61,6.13,6.13,0,0,1,.43,5c-2.42,3.31-7.26,4.93-10.88,3.65-2.7-1-4.38-2.51-5.15-4.76,0-.39.11-.79.17-1.19l2.85.85ZM643.84,34.85a145.12,145.12,0,0,1,24.6-14.74,30.7,30.7,0,0,1,3.73-1.51c-4,38.71-3.56,71.7,1.56,103.59,2.34,14.46,5.9,28.86,9.34,42.75l1.79-.39-1.79.42c2.42,9.74,4.9,19.7,6.92,29.75a160.06,160.06,0,0,1-8.54-14.4c-.71-1.26-1.4-2.51-2.08-3.73-7.54-13.5-14.29-27-20.07-40.17C645.38,104.59,639.91,68.56,643.84,34.85Zm-7.42,323.21H617.59c16.3-13.78,29.15-30.92,38.95-45.15a414.76,414.76,0,0,0,29.92-50.84,4.1,4.1,0,0,0-.06.57,145.46,145.46,0,0,0-3,19.62c-5,26-13.58,45.4-27,60.91A53.43,53.43,0,0,1,636.42,358.06ZM627,49.65c1.74-1.82,3.59-3.67,5.55-5.49a211.35,211.35,0,0,0,16.63,95.08c5.52,12.78,12.07,26.07,19.5,39.57-3.85-3.9-7.77-7.94-11.31-12.21-8.48-10.31-16.31-22.64-24.56-38.83C619,100.78,607.52,70.41,627,49.65Zm-24.91,76.12c10.68,2.45,16.68,9.28,23.63,17.2l.29.28c1.28,1.48,2.61,3,4,4.5.17.2.37.37.54.54,3.44,5.81,7.06,11.36,10.76,16.45a212,212,0,0,0,21.72,25c1.77,1.76,3.53,3.73,5.15,5.61-2.33-2.08-4.61-4.19-6.89-6.27-4-3.7-8.17-7.51-12.47-11.1-6-4.95-12.26-9.54-18.41-14l-.52-.37-6.06-4.44A281.29,281.29,0,0,0,574,129.59C584.66,125.12,593.86,123.89,602.08,125.77Zm-59.44,149a26.67,26.67,0,0,1,1.91,4.3q-1.15,2.22-2.22,4.52A36.59,36.59,0,0,0,542.64,274.77Zm-12.49-23a50.84,50.84,0,0,0,3.55-13.47,94.88,94.88,0,0,0,.4-10.67c0-1.74,0-3.5.06-5.3a56.8,56.8,0,0,0,9.05,15.83,51,51,0,0,0,8.37,8C546.2,251,538.8,253,530.15,251.74Zm-57.22,97.75a127.43,127.43,0,0,0-31.77,6c-2.42.78-4.93,1.71-7.17,2.53H394.43a32.33,32.33,0,0,1-5.93-5.26,26.86,26.86,0,0,0,9.7,4.18c11.93,2.62,25.31-2.22,36-6.12l1.31-.46c4.47-1.62,8.94-3.41,13.38-5.18,9.68-3.87,19.7-7.88,30-10.07,3.51-.77,7.12-1.23,10.79-1.68,8.6-1.08,17.51-2.19,25.31-7.83A72.93,72.93,0,0,0,536.67,300a39.91,39.91,0,0,0-.12,15c.06.31.14.59.23.91-.8,1.51-1.65,3-2.56,4.61-7.4,12.87-15.32,21-24.23,25-8.22,3.68-17.73,3.76-27,3.82C479.65,349.27,476.23,349.29,472.93,349.49ZM448.28,196.6h-.17a5.15,5.15,0,0,0-1-.09c1.31-5.77,0-11.72-1.65-17.3a4.84,4.84,0,0,0-3.56-3.42,5.18,5.18,0,0,0-4.87,1.34,4.25,4.25,0,0,0-.85,4.38c1.53,5.24,3.27,11.16.39,15.83-.62.14-1.25.31-1.85.51a41.17,41.17,0,0,0-4.32-8.25,46.14,46.14,0,0,1-4-7.4,4.41,4.41,0,0,0-2.33-2.51,4.55,4.55,0,0,0-3.42,0,4.92,4.92,0,0,0-3,6.46,38.06,38.06,0,0,0,4,7.06c2.11,3.13,4.1,6.12,4.5,9.42a19,19,0,0,0-4.41,6c-3.73-.17-9.54-2.42-10.36-5.64a4.84,4.84,0,0,0-6.07-3.44,4.65,4.65,0,0,0-2.9,2.1,4.21,4.21,0,0,0-.4,3.39c1.68,6.49,8.09,10.73,14.18,12.38a21,21,0,0,1-17.62-3.67,15.22,15.22,0,0,1-5.47-16.62c2.82-10.48,13.44-16.94,22.8-22.66l2.2-1.34c6.29-3.87,18-11.07,26.93-11.07a11.64,11.64,0,0,1,4.49.79c3,1.26,5.07,4,6.12,8.32C457.81,179.55,454.6,190.36,448.28,196.6Zm-4.61,28.1a8.44,8.44,0,0,1-5.53,1.56,3.56,3.56,0,0,1-1.62-.74,1.91,1.91,0,0,1-.57-.68l-.14-.23a5.89,5.89,0,0,0-1.25-2.42,21.49,21.49,0,0,1,5.12-5.92c2.39-2,4.67-2.93,6.21-2.53,1,.25,1.79,1.16,2.39,2.73C449.27,219.12,446.71,222.73,443.67,224.7Zm-40.2,38.88c4.81,7.29,12.41,9.94,19.73,12.5,6,2.1,9.51,5,14.37,9.05a21.17,21.17,0,0,0,9.06,4.9,15.34,15.34,0,0,1-5.95,3.61,28.48,28.48,0,0,1-8.4,1,49.31,49.31,0,0,1-14.46-2.87,175.92,175.92,0,0,1-17.31-7.09c-2.48-1.11-4.95-2.25-7.46-3.31s-5.32-2.1-7.94-3c-5.3-1.91-10.79-3.87-15.46-7.09-5.92-4.1-9.42-9-10-14-.57-4.59,1.11-9.31,5-14,9.2,1.31,19.42.45,30.38-2.56a99.85,99.85,0,0,0,10.36-3.33C398.89,246.07,398.17,255.55,403.47,263.58Zm36.84,10.88c-4.27-3.62-9.11-5.38-13.78-7.12a63.33,63.33,0,0,1-8.51-3.59c-5.38-2.84-8.12-6.6-8.12-11.13,0-7.29,7.09-15.09,14.18-19.13a9.88,9.88,0,0,0,1.17.51,11.27,11.27,0,0,0,.82.94,22.29,22.29,0,0,0-2.87,5.87,4.67,4.67,0,0,0,3.19,6,4.58,4.58,0,0,0,5.89-2.93,13.93,13.93,0,0,1,1.65-3.67,24.4,24.4,0,0,0,3.1.91c.51.11,1.06.2,1.6.28-1.43,6.3,0,12.93.74,15.55a4.89,4.89,0,0,0,6.17,3.41,4.35,4.35,0,0,0,3.19-5.49c-1-3.59-2.22-10.08.29-14a26.73,26.73,0,0,0,4-1.39l.6.91a19,19,0,0,1,3,5.78,4.72,4.72,0,0,0,2.13,2.93,5.05,5.05,0,0,0,3.87.54,4.87,4.87,0,0,0,2.76-1.82,4.34,4.34,0,0,0,.6-3.7,27.11,27.11,0,0,0-3.84-7.94c-.46-.71-.94-1.45-1.4-2.22a17,17,0,0,0,3.59-6.64c7,1.31,11.87,4.19,15.34,9,6.29,8.74.32,15.71-6,23.11l-.11.15c-2.51,2.9-4.87,5.95-7,8.62l-.17.23a4,4,0,0,0-1.05,1.34c-1.26,1.59-2.51,3.16-3.79,4.69-2.87,3.51-5.75,5.33-8.8,5.58C449.22,280.43,445.26,278.61,440.31,274.46Zm33.93-68.84a4.32,4.32,0,0,0-3.84-2.27,31.84,31.84,0,0,0-10.54,1.3,20.44,20.44,0,0,0-3-3.27,38.54,38.54,0,0,0,6.75-11.78,2,2,0,0,0,.28-.37c2.76-4.73,7.52-8,11.85-8.12,3.07-.08,5.75,1.4,7.74,4.36a83.5,83.5,0,0,1,4.52,8.31l.12.26c.71,1.42,1.39,2.82,2.08,4.1,2.5,4.66,2.07,12-1.06,17.87-2.36,4.44-5.83,7.15-9.73,7.6a44.79,44.79,0,0,0-14.61-5.92,30.23,30.23,0,0,0-.79-4.32,21.76,21.76,0,0,1,5.8-.43,4.43,4.43,0,0,0,4.19-2.25A5.21,5.21,0,0,0,474.24,205.62Zm-5,75.84v-.34c15.77,2.3,37.2,1.51,51.61-14.58a49.3,49.3,0,0,0,3.38-4.27c4.53,2.22,7.41,5.58,8.54,10,2.57,9.7-3.55,23.05-9.59,31.57-8,11.32-17,17.64-27.38,19.35-2.54.4-5.07.74-7.58,1.11l-.31,0c-7.14,1-13.92,1.94-21,4.13s-14.15,5-21.06,7.83c-10.74,4.3-21.81,8.74-33.31,10.84-12.53,2.28-20.72-1.11-25-10.39-2.67-5.83-3.53-12.75-2.64-21.18a8.28,8.28,0,0,1,1.9-2.56,33,33,0,0,0,4.84,4.95c7,5.56,14.64,4.59,21.24,2.91,2.33-.6,4.67-1.37,6.83-2.11,2.31-.77,4.67-1.56,7-2.13a52.11,52.11,0,0,1,8.74-1c2.19-.14,4.47-.26,6.75-.63C459.24,312.37,469.57,299.51,469.26,281.46Zm56.65-71a81.6,81.6,0,0,0-1.17,15.48,104.47,104.47,0,0,1-.6,11.56,41.87,41.87,0,0,1-12.41,24.76,37.35,37.35,0,0,1-19.33,9.43,42.25,42.25,0,0,0,18.42-18.19c3.87-7.35,4.64-15.4,5.41-23.2l.22-2.51a130.74,130.74,0,0,1,2.77-15.14,125.61,125.61,0,0,0,2.84-16.49,24.32,24.32,0,0,1,2.88,3.88c.85,1.53,1.62,3.1,2.36,4.72C526.79,206.59,526.3,208.5,525.91,210.41Zm-15.77-1.94A134.83,134.83,0,0,0,508,223.81c-.77,7.18-1.54,14.61-3.84,21.13-3.65,10.39-12.1,17.9-23.37,20.92l1.45-1.62.17-.2c3-3.28,6-6.69,8-10.74,3.76-7.65,2.82-15.57-2.59-22.34,4.58-2.42,8.2-6.83,10.79-13.1,4.3-10.39,4-17.28-1.2-26.27-.94-1.62-1.76-3.42-2.65-5.32-2.9-6.21-6.2-13.24-13.57-15.15,7.17-3.13,15.77.09,21.74,4.44C514.46,184,513.18,194.52,510.14,208.47Zm-14.81-47a41.27,41.27,0,0,1,11.28,4.1,2.2,2.2,0,0,0-.12.49A37.67,37.67,0,0,0,495.33,161.44Zm10.91-6.6c-15.89-6.61-29.38-2.25-41.2,13.29a29.25,29.25,0,0,0-1.33-3.73c-3.56-7.83-9.57-11.78-17.85-11.78a35.42,35.42,0,0,0-9.54,1.45c0-6.69-1.45-17.51-10.05-21.64a10,10,0,0,0-2.48-.85,4.06,4.06,0,0,0-1.22-.31,57.68,57.68,0,0,1-13.06-3.59c15-10.59,33.39-5,49.67.06l.65.2c1.71.54,3.42,1.05,5.1,1.53a95.72,95.72,0,0,0,11,2.31c6.09,1,12.38,2.08,17.56,5.1,7.06,4.09,11.39,9.82,13.84,18.41C506.92,155.12,506.58,155,506.24,154.84Zm-92.86-13.61c3.55-.4,5.52-.65,9,2.73,4.24,4.16,4.81,8.23,4.24,13.78a146.19,146.19,0,0,0-15.14,8.37c-15.77,9.74-33.16,23.43-27.56,43.21,3,10.48,12.56,16,20.81,17.71a79.18,79.18,0,0,1-25.36,5.69c-8.68.4-15.29-3-19.1-9.82-5.61-10-4.39-25.67,2.84-36.52,1.91-2.88,4.1-5.64,6.27-8.4a103.49,103.49,0,0,0,8.17-11.38,32.59,32.59,0,0,0,3.93-9.09,32.75,32.75,0,0,0,.62-5.46c.17-2.59.34-5.27,1.28-7,2-3.76,4.87-5.41,9.2-5.41a43.54,43.54,0,0,1,7.63,1,45.28,45.28,0,0,0,8.22,1A39.56,39.56,0,0,0,413.38,141.23Zm-39.6,3.33c-.34,1.54-.63,3-.91,4.39l-.06.31c-1.08,5.66-2,10.56-5.72,15.91-1.76,2.56-3.82,5.13-5.67,7.49-2.13,2.67-4.29,5.44-6.23,8.34-8.34,12.47-11.7,33.65-3.56,47.77A37.9,37.9,0,0,1,334.81,208a29.84,29.84,0,0,1,4-26.14c3.67-5.35,9-9.28,14.09-13l.09-.06a103.66,103.66,0,0,0,8.91-7.12c6.6-6.09,9.45-13.75,12.44-21.89l.14-.37c2.11-5.75,4.64-11.36,10.11-11.36a9,9,0,0,1,1.68.17,13.58,13.58,0,0,1,4.1,1.68C381.55,130.24,375.83,135.28,373.78,144.56Zm-20.64,123.6c6.63,10.57,17.68,14.78,28.38,18.88,1.88.71,3.76,1.45,5.64,2.19,1.54.63,3.36,1.42,5.52,2.36,15.43,6.61,41.25,17.68,56.19,10.22,5-2.5,8.35-6.89,10-13l.11-.08c-2.25,10.62-10.19,16-25.53,17.25-5.93.51-11,2-17,3.84l-.23.06c-8.82,2.73-14.66,4.55-21.37-2.42-1.09-1.14-2.08-2.22-3.05-3.3-3.16-3.5-6.15-6.81-11.1-9.48-2.71-1.48-5.52-2.79-8.29-4.1A106.75,106.75,0,0,1,360,284.05c-7.94-5.18-11.33-11.25-10.36-18.56a34.93,34.93,0,0,1,.65-3.59A26.14,26.14,0,0,0,353.14,268.16Zm207.13-17c1.3.57,2.61,1,4,1.48-5.15,4.38-11.36,7.34-18.16,7.51A31.74,31.74,0,0,0,560.27,251.2Zm15.42,10a94.23,94.23,0,0,1,18.39-7.89c6.38-1.19,12.84-3,19.22-4.69l3.84-1.06,6.35-1.36a283.81,283.81,0,0,0-26,12.52,142.48,142.48,0,0,0-35.13,27.42l-.88.93c-4.7,5-9.88,10.4-14,16.52C549.25,286.38,563,268.56,575.69,261.22Zm44-26-5.6,1.19c-7,1.51-14.58,3.22-21.75,5.44-14.06,2.68-30,3.16-42-13.44a49.55,49.55,0,0,1-5.58-10.3c18-1.45,36.84.28,55.11,2,3.65.31,7.26.65,10.82,1,14.57,1.28,25.73,2.42,36.18,3.73,2,.25,4.16.48,6.35.71,2.53.28,5.09.57,7.63.91-8.09,1.28-16,3.1-24.31,5l-1,.23c-2,.48-4,.94-6.09,1.39C626.22,233.86,623,234.55,619.67,235.26Zm36.24-19.79c-1.73-.2-3.41-.4-5.09-.62-11.53-1.51-23.23-2.65-34.13-3.65-3.7-.34-7.43-.71-11.22-1.08l-.82-.06c-14.78-1.48-29.92-3-44.87-3a181.74,181.74,0,0,0-18.87.91c-1.28-3.47-2.71-7.28-4.47-11-2.68-5.56-6.66-9.68-10.73-13.84-1-1.05-2.05-2.11-3.08-3.22-3.67-4-5.18-7.82-4.55-11.61,27.47,1.31,55,10.65,80.84,20.13a595.28,595.28,0,0,1,65.11,28C661.35,216.13,658.62,215.81,655.91,215.47ZM518.76,136.65c3.39-2.31,8.43-.88,13.32,1.88a75.78,75.78,0,0,0-11.3,7c-.08.09-.23.17-.31.26A66.63,66.63,0,0,0,518.76,136.65Zm36.58,2.28c2.48-1.23,4.67-2.34,6.6-3.34a293.54,293.54,0,0,1,58.5,34l3.31,2.42c7.68,5.67,15.6,11.5,22.94,17.79,3.1,2.68,6.23,5.55,9.31,8.37,2.1,1.94,4.21,3.87,6.37,5.81a608.26,608.26,0,0,0-60.09-25.42c-24.68-9.05-51-18-78.08-20.3C532.14,150.51,545.89,143.65,555.34,138.93Zm-8-8.32c-1.36.8-2.76,1.57-4.16,2.28-.45.26-.93.48-1.42.74a56.29,56.29,0,0,0-9-5.18A34.07,34.07,0,0,1,547.34,130.61ZM483.69,68c9.25-2,19,1.19,28.35,4.3l3.9,1.28c8.26,2.62,15.83,5.72,18,14.63,1.91,7.8,3.84,16.54,4.3,24.34C533,96.2,520.58,84,503.39,78.6c-9.79-3.07-21.21-6.23-31.51-6.23h-.12A55.76,55.76,0,0,1,483.69,68Zm16.62,19.73C516,92.61,526.56,103.8,530.2,119.2a44.66,44.66,0,0,0-15.71,5.26c-6.89-15.77-18-23.85-33.9-24.65-3.59-.17-7.18-.25-10.65-.34h-.28l-6-.17c-.4-1.54-.77-3.1-1.17-4.7-.77-3.19-1.56-6.46-2.5-9.65C468.89,77.81,490.89,84.72,500.31,87.69Zm-44.77,21h.2c4.83.32,9.39.63,13.94.63h.23c15.49,0,26.22,1.08,33.73,14.72a70,70,0,0,1,5.64,13.72,36.43,36.43,0,0,0-5.41-5.33c-7.63-6.17-15.94-7.8-24.82-9.53-3.64-.71-7.4-1.45-11.07-2.54-1.2-.34-2.4-.71-3.59-1l-.71-.23c-11.33-3.39-23.06-6.92-34.45-6.92a44.89,44.89,0,0,0-14.06,2.11C425.76,106.73,440.88,107.73,455.54,108.72Zm-2.48-10a1.94,1.94,0,0,1-.4,0,93.16,93.16,0,0,0-23.4.26C414.17,101.29,403,109.35,397,122.24c-3.07-1.36-5.44-2.33-7.71-3.16-8.43-3-15.26,0-20.3,8.86A56.84,56.84,0,0,0,364.81,138a52.11,52.11,0,0,1-4,9.74C357.72,153,353,156.6,348,160.36l-2,1.57c-2.48,1.88-4.61,3.64-6.52,5.38a32.47,32.47,0,0,0-17.31-5.95c-4-10.05-1.54-24.34,2.11-34.39,2.93-8.06,6.92-13.78,12.15-17.48,6.18-4.38,13.38-5.41,21-6.52,3.13-.45,6.35-.94,9.51-1.65,9.28-2.13,18.13-6.8,25.25-10.56,2.33-1.25,4.7-2.62,7-4,5.95-3.51,12.13-7.15,18.42-8.46a31.76,31.76,0,0,1,24.14,4.81A27.21,27.21,0,0,1,453.06,98.7ZM318.55,115.24c4.42-12.3,12.1-20.13,22.86-23.26,2.62-.74,5.35-1.33,8.12-2,5.6-1.25,11.38-2.53,16.73-5.32,5-2.65,9.4-6.27,13.64-9.8,1.54-1.31,3.44-2.9,5.32-4.35a39.59,39.59,0,0,1,25.34-8.83c1.68,0,3.44.09,5.24.26,10.76,1.05,20,4.73,26.16,10.25a43.57,43.57,0,0,0-13-3.79c-14.77-1.93-27.89,5.38-40.56,12.47-8.71,4.87-17.71,9.88-27,11.7-2.14.43-4.3.77-6.58,1.14-8.25,1.34-16.77,2.7-24.17,8a41.22,41.22,0,0,0-12.92,16C318,116.89,318.27,116,318.55,115.24Zm-24.45,82.7c3.53-11.05,11.56-20.24,20.5-23.49a20.18,20.18,0,0,1,17,1.4,39.42,39.42,0,0,0-6.83,14.89c-4.35,19.69,6.92,40,26.85,48.82-9.54,9.62-15.43,27.61-9.17,40,4.41,8.68,13.69,13.47,20.47,16.94,1.82.94,3.75,1.82,5.52,2.62a76.42,76.42,0,0,1,9.48,4.92,15.27,15.27,0,0,1-11.81,7.12c-10.77,1-24.57-7-31.72-15.37-3.21-3.79-6.12-8-9-12.07-1.94-2.85-4-5.78-6.15-8.6a67.73,67.73,0,0,0-8.83-8.94c-3.67-3.3-7.46-6.72-9.79-10.45s-2.25-9.47-2.14-15c.09-4.18.18-8.48-.79-12.3-.49-1.88-1-3.75-1.63-5.78C293.67,214.31,291.4,206.39,294.1,197.94ZM277,236.17A205.29,205.29,0,0,0,282.57,215a6,6,0,0,0,1.31-1.4c.2,1.28.43,2.57.71,3.88.57,2.44,1.26,4.81,1.94,7.11l.05.26c1.66,5.66,3.19,11,3,17,0,1.08-.12,2.17-.2,3.25l0,.2c-.31,3.87-.63,7.83.94,11.78,1.71,4.36,5.15,7.43,8.48,10.39l.91.8a102.6,102.6,0,0,1,14.92,16.62c1.08,1.48,2.13,3,3.19,4.5l.31.43c5.95,8.51,12.13,17.31,21.12,23.4a41.86,41.86,0,0,0,17,6.69A30,30,0,0,1,328.63,312c-3.24-3.18-6.21-6.71-9.11-10.19A118,118,0,0,0,307.74,289c-2.88-2.59-5.9-5.1-8.83-7.51l-.17-.18c-6-5-12.3-10.22-17.48-16.16C272.78,255.44,273.29,247.16,277,236.17ZM183.68,255.7c-15-7.63-30.6-13.35-46.49-18.36,14.41-5.1,27.59-13,41.45-20.56,27.1-14.8,67-23.85,94.14-3.24a.94.94,0,0,0-.06.28c-.68,3.39-1.36,6.83-2.16,10.22a108.07,108.07,0,0,0-64.17,10.65A157.08,157.08,0,0,1,266.2,239a37.7,37.7,0,0,0-1.42,14.09C239.39,276.16,211.75,270,183.68,255.7Zm55.57,23.48a74.57,74.57,0,0,0,29.66-14.52c.42.69.82,1.34,1.25,2A124.51,124.51,0,0,1,238,316.47,108.26,108.26,0,0,0,278.84,284a14.52,14.52,0,0,0,2.68-4.64c1.93,1.74,3.9,3.42,5.92,5.07-10.56,22.12-28.52,43.27-48.93,56.76-9.85,6.5-20.4,11.42-30.58,16.88H190.67C195.11,326.14,210.34,295.67,239.25,279.18ZM232,358.06a135.75,135.75,0,0,0,20.64-13c17.74-14,33.79-32.76,43.9-53.15.66.55,1.34,1.11,2,1.68,4.33,3.76,8.29,8.52,12.16,13.13,5.89,7.06,12,14.34,19.95,18.87,12.59,7.17,28.78,6.26,42.59-2.28-.43,3.11-.63,6.18-.77,9.11a37.05,37.05,0,0,0,8.08,25.62Zm264.44,0c8.5-.75,16.86-2.57,24.33-7.68s13.81-12.19,19.59-21.58c.8,2.53,1.62,5.21,2.22,7.86l.34,1.48c1.55,6.64,3.18,13.49,6.23,19.92Zm66.17,0a32.59,32.59,0,0,1-3.41-5.86c-2.19-5-3.41-10.22-4.72-15.8l-.09-.43c-.54-2.22-1-4.44-1.65-6.66s-1.28-4.35-2-6.57c1.71-14.21,17.62-28.56,27.16-37.13a132.79,132.79,0,0,1,28.75-19.89c20.24-10.42,40.11-17.88,59.15-22.26-18.93,13.32-37.69,30.85-58.38,54.51-13.67,15.62-31,36.44-44.64,60.09Zm12.35,0c12.67-20.67,27.91-39,40.24-53.12,15.37-17.59,39-42.75,68.06-60.46a411.75,411.75,0,0,1-32.14,57.87c-13.32,20-29.54,41.64-50.7,55.71Zm83.08,0a90,90,0,0,0,9-9.62,118.23,118.23,0,0,0,16.46-27.13A104.47,104.47,0,0,0,691,352.26c.79,1.83,1.71,3.79,2.7,5.8Zm48.8,0-.21-.34c-7.68-13.35-11.44-28.21-12.24-48.16a203.93,203.93,0,0,1,.43-25.8c.8-4.15,1.51-8.51,2.16-13.15a1.06,1.06,0,0,1,0,.32c.17,1.53.31,3.07.43,4.58,1.17,13.26,2.59,27.47,5.24,41.36a130.85,130.85,0,0,0,15.84,41.19Zm23.93,0A124.28,124.28,0,0,1,712.56,313c-2.36-13.18-3.73-26.73-4.72-38.23-.15-1.71-.32-3.44-.49-5.18-.48-5-1-10.05-1.08-15,11.19,25.87,26.5,50.44,41.36,74.3l1.2,1.87c5.85,9.39,11.76,18.58,18.08,27.33Zm49.12,0c-8.53-11-16.36-23.3-24.38-36.38l-2.68-4.35c-14.63-23.8-29.71-48.4-39.88-74,.12-.08.23-.2.37-.28,18.85,11,36.75,24.31,54.12,37.23l2.19,1.63c27.56,20.52,44.69,40.56,53.86,63.05-.4.71-.8,1.42-1.17,2.16a36.42,36.42,0,0,0-3.44,11Zm51,0a37.9,37.9,0,0,1,3.84-9.39c.52-.94,1.09-1.88,1.8-3.08,2.73-4.58,5.55-9.3,6.74-15,2.62-12.52-2.19-25.65-6.8-34.58a62.44,62.44,0,0,0,10.05-7.61,78.7,78.7,0,0,0-.65,21.38c2.5,23.37,17.2,39,36.26,48.28Zm143.37,0a236.29,236.29,0,0,0,21.51-11.41,41.65,41.65,0,0,0,12.51,11.41Z"/><path fill="FRAME_COLOR" d="M2.31,692.09H190.57a6.32,6.32,0,0,0,.87,1.33c13.52,15,12.41,36.84,23.23,53.18-13.61,3.78-26.39,10.53-40,14.23-19.59,5.32-39.66,6-59.7,3.42-5.78-.72-7.71,8.22-2.9,10.73,12,6.35,24,12.75,34.27,21.83,8.37,7.4,15.55,16,23.8,23.49,2.65,2.08,6.09,4.76,10.18,7.81,12.62,9.45,16.14,11.16,20.14,12a28.28,28.28,0,0,0,11.19,0c-5.21,16.62-10.59,33.36-21.92,47-6.35,7.63-17.74,22.35-28.36,28.18-3.87-3.84-9.45-6.32-14.8-4.67-8.91,2.71-5.55,14-1.68,19.47,3.36,4.81,11.3,12.44,17.74,8.77,4.67-2.65,4.49-7.83,2.62-12.41,12.86-6,24.28-21.38,32.62-31.2A99.67,99.67,0,0,0,213.11,870c-.35,23.23-4.22,45.55-16.57,66.76a13.14,13.14,0,0,0-9.6,2.13c-7.91,5.81,1,13.41,6.18,16.71,5.61,3.59,15,6.06,20.41.6,5.95-6.09-.79-11.53-6.17-15.09C221.5,916.2,225,889.81,224.58,862.2c3,9.79,5.78,19.5,6.35,28.78,1.56,25.42-10.22,53.66,23.2,62,22.54,5.64,48.13,4.61,69.51-5a61.8,61.8,0,0,0-3.3,12.56c-4.27,27.61,14.57,51.89,40.68,59.58,13.35,3.95,26,2.5,39.11-1.34,16.83-4.9,34.76,1.91,50.84-5.35,26.82-12.1,30.12-41.56,28.58-67.44,9.31.71,19.36-.46,30-3.42a223.13,223.13,0,0,1-12.44,74c-5.24-1.08-10.48-.83-11.11,5.61-.68,7.26,7.24,13.75,13.36,15.88,5.86,2,16,1,16.05-7.17.06-4.24-2.7-7.4-6.32-9.34a4.76,4.76,0,0,0-1.08-1.34,228.39,228.39,0,0,0,7.83-27.58A148.55,148.55,0,0,0,532,1029.41c-5.75,4.56-13.15,11.36-6.61,18,5.92,6,18.56.85,24.34-2.88s16-13.46,7.06-19.7c-4.32-3-8.91-1.48-13.15,1.45-16.74-26.16-23.85-55.36-21.12-86.51a6.39,6.39,0,0,0-.09-1.54c4-1.53,8-3.24,12.13-5.26a169.44,169.44,0,0,0,16-8.85,74.15,74.15,0,0,0-7.49,28.52c-1.05,20.5,1.74,35.36,8.8,46.77,4,6.46,9.54,11.47,17.45,15.83a142.32,142.32,0,0,0,17,7.54l.66.23,4.07,1.62a5,5,0,0,0,2.39,1c1.48.6,2.9,1.22,4.33,1.88a119.4,119.4,0,0,1,11,6.23c9.68,6,19.62,12.19,31.12,11.33a5.38,5.38,0,0,0,2-.2c.23,0,.48-.06.74-.11,13.92-2.39,27-11.25,39-20.5a4.92,4.92,0,0,0,1.88-1.45l2.67-2.08c12.9-10.1,25.11-21.86,27.07-39.48,1.88-16.91-3.87-33.76-9.11-46.54-.42-1-.85-2.08-1.28-3.11a40.06,40.06,0,0,0,11,4,46.43,46.43,0,0,0,10.82,1,1.85,1.85,0,0,0,.08.37c6.69,19.13,6.58,38.2,4,58.07-1.28,10.25-3.18,19.53,1.68,28.75a7.4,7.4,0,0,0-2.67,6,9.21,9.21,0,0,0,4.81,7.8c3.16,1.74,6.92,1.31,10.3.51,5.53-1.28,10.88-5.83,9.26-12.09-1.4-5.33-6.81-7.41-11.76-8.06-4-8.83-1-22.89.68-34.3,6,18.81,14.52,36.49,28.47,51.32a22.1,22.1,0,0,0-2.79,6c-.94,3.1,1.14,6.09,4,7.06,6.21,2.11,12.07-.65,16.91-4.47,4-3.16,8.37-7.43,8.71-12.89a10,10,0,0,0-9.62-10.57c-4.35-.22-7.8,2-10.93,4.7-13.72-15.6-21.29-34.36-26.67-54.06a201.39,201.39,0,0,0,31.62,32.68,8.19,8.19,0,0,0-1,1.82,8.43,8.43,0,0,0,2.19,9.11c5.35,5.16,12.64.54,16.26-4.24,3.47-4.58,6-12.95.17-16.82-3.85-2.54-7.72-1.6-10.71.88a193.6,193.6,0,0,1-47.91-59.78,83.31,83.31,0,0,0,14.69-5.64c2.05-1,4.1-2.13,6.12-3.24a32.46,32.46,0,0,0,10.14,4.53c-.57,6.83.71,13,2.05,19.58l.25,1.28c.37,1.82.66,3.73.91,5.58l0,.26c.63,4.49,1.26,9.13,3.33,13.38,5,10.22,16,13.63,24.88,16.36l1.8.55c12.69,4,25.82,8,39.08,2.61,5.33-2.19,15.06-6.14,20.58-12.41.32.52.63,1,.94,1.48,5.87,8.86,17.23,15.46,31.17,18.11,12.33,2.36,24.46,1.25,33.28-3,5.52-2.7,10.22-6.63,14.75-10.42,5-4.21,10.25-8.57,16.48-11a91.35,91.35,0,0,1,12.3-3.39c7.26-1.6,14.74-3.28,21-8.12,7.92-6.12,14.07-16.42,17.28-29,2.59-10.11,5.38-32.08-2.05-44.55a46.76,46.76,0,0,0,14.27-7,217.94,217.94,0,0,1,11.53,81.3,19,19,0,0,0-4.1,1.45,5.78,5.78,0,0,0-2.65,6.52c2.73,8.17,13,10,20.64,9.33,8.74-.74,15.37-7.43,13.8-16.39-.42-2.48-3.18-4.22-5.55-4.24-3.5,0-7,0-10.5-.06a229.15,229.15,0,0,0-3.22-46.6c8.51,10.47,17.34,21.12,23.63,32.71,5.78,10.64,9.34,20.69,20.49,25.67a13,13,0,0,0,3.16,10.37,5.84,5.84,0,0,0,7,.91c5.52-3.53,10.7-9.37,8.88-16.46a10.78,10.78,0,0,0-15.15-7.23,4.37,4.37,0,0,0-1.22.91c-9.42-5.69-13.29-21.2-19.53-29.57-.31-.46-.68-.89-1-1.34,1.13.65,2.27,1.37,3.44,2,16.82,9.28,42.19,12.64,56,26.25a8.38,8.38,0,0,0-1.45,4.72c0,5.47,5.13,9.42,10.31,9.42,10.16,0,18.27-12.58,15.46-21.89a6,6,0,0,0-5.58-4.21,13.52,13.52,0,0,0-10.42,3.9c-10.79-10.93-25.79-13.78-39.8-19.36a146.53,146.53,0,0,1-38.74-22.32c22.77,7.72,50.81,6.32,73.75,17.68-3,8.94,8.94,17.31,16.12,9.43,6.46-7.06,8-23.23-3.45-26.08a5.9,5.9,0,0,0-7.09,4c-.22.74-.42,1.51-.65,2.28-34-15.71-87-2.9-102.85-44.24.82-1.17,1.62-2.33,2.33-3.56a65.35,65.35,0,0,0,6.49-17.11c20.81,12.39,51.16,14.49,73.31,7.86,12.32-3.7,23.62-10,34.84-16.31l45.2-19.81a67.67,67.67,0,0,1,7-1.08c6.18-.63,8.18-9.43,1.54-11.31-18-5.15-36.09-10.22-53.2-17.9-13.47-6.06-26.08-14.72-40.51-18.53A63.4,63.4,0,0,0,1101,769.6c22.29-19.46,34.69-48,38.52-77.51h176.73a11.88,11.88,0,0,0,0-14.05H2.31a11.84,11.84,0,0,0,0,14.05Zm204.9,5.09a191,191,0,0,0,44.41,1.19c20.78-1.93,47.65-7.2,61.57,11.5-11.52,8.6-20.61,19.82-22,35a56,56,0,0,0-.2,8.34,231.13,231.13,0,0,1-53.57-37,189,189,0,0,0,31.94,36.41c-13.13-6.21-27.07-9.94-41.93-8.46C215.47,731.51,214.44,712.81,207.21,697.18ZM326,718a30.7,30.7,0,0,1,3.75-6.38,124.68,124.68,0,0,1,36.16-15.68c.11,0,.22.05.34.05,16.77,1.91,40.91,11.56,46.68,29.7,3.31,10.24,1.28,19.41,7.26,29.17,8.23,13.44,20.16,20,14,38-3.19,9.25-8.88,17.76-15.72,25.08a63.86,63.86,0,0,0,3.36-39c-1.16,10.9-6.17,21-11.81,30.4-2.68,4.47-5.89,9.11-10.13,11.93a22.62,22.62,0,0,0-21.55-2.7,283.12,283.12,0,0,1-38.52-53.75c2.19,8.11,4.41,16.2,6.6,24.31,1.74,6.38,3.54,12.87,6.47,18.73-13.21-7.31-26.56-15.23-36.3-25.79a4.7,4.7,0,0,0-3-3.53A51.1,51.1,0,0,1,304,760c-4.07-14.71,2.05-27.75,12.9-38.34a17.4,17.4,0,0,0,2.42,6.83c1.9,3.27,4.32,6.29,5.43,9.91A30.83,30.83,0,0,1,326,718Zm162.74-1.65c10.36,21.18,27.47,40.48,52.18,58.9l3,2.27c8.4,6.27,17,12.67,25.76,18.91-2-.55-4-1.06-6.06-1.57-14.92-3.87-30.32-7.86-43.53-16A73.87,73.87,0,0,1,489,740.51c-3.07-9-3.44-16.06-1.19-22.1C488.09,717.73,488.38,717.05,488.72,716.31ZM488.09,764a80,80,0,0,0,24.14,22.63,143.45,143.45,0,0,0-25.62-2.25,103,103,0,0,0-18.16,1.57A50.87,50.87,0,0,1,488.09,764Zm-1.33,32c17.36-.2,33,3.7,49.56,7.77h0c2.5.63,5.06,1.25,7.62,1.85,5,1.2,10.25,2.25,14.89,3.19,6.86,1.36,13.87,2.76,20.67,4.67A316.22,316.22,0,0,0,546,812a456.56,456.56,0,0,0-56.33,4.41l-3.79.51c-8.94,1.2-18.16,2.42-27,4.92-6.12,1.71-12,4-17.76,6.15l-2.2.86c.29-.8.54-1.63.8-2.39a64.71,64.71,0,0,1,4.58-11.25,120.91,120.91,0,0,0,8.23-9.73C460.42,799.12,471.55,796.07,486.76,796Zm11.3,73.44-4,1.4c-10.1,3.53-20.55,7.17-31,9.53-8.48,1.91-17.25,3.22-25.7,4.5l-.77.12c-1.63.22-3.33.56-5.13.91a80.78,80.78,0,0,1-11.41,1.45c-3.73-4-7.12-8-8.68-12.36-2.94-8.28,3.13-14.09,10.16-20.83l1.62-1.57a76.49,76.49,0,0,0,9.37-10.33c4.1-1.37,8.14-2.91,12.15-4.42,4.44-1.68,9-3.44,13.58-4.86,10.16-3.25,21.15-4.67,31.77-6.07l2.82-.37a447.5,447.5,0,0,1,53.32-4.07c15.06-.2,30.48.86,49.93,3.36,0,.46,0,.91.08,1.37C565.72,845.83,529.8,858.36,498.06,869.4ZM593.22,841c-4.24,3.84-8.28,8.06-12.27,12.18-3.5,3.68-7.14,7.46-10.79,10.79-12,11-24.48,22.41-37.66,32.34-10.56,7.94-22.2,13.81-36.66,18.45L491,916.32c-12.13,3.95-24.63,8-37.35,8.56-7.37-6-13.44-13.57-19.33-21-1.88-2.36-3.82-4.78-5.81-7.17l1.6-.26c1.31-.23,2.56-.45,3.75-.62,9.26-1.31,18.19-2.79,26.51-4.39,12.58-2.39,24.73-6.57,36.49-10.64l2.08-.72C529.17,869.72,563.08,858,593.22,841Zm-182.33-.28c.06,0,.12,0,.17-.09a117,117,0,0,0,14.15-8.77,18.33,18.33,0,0,1-1.28,2.45c-2.25,3.73-5.72,7-9.14,10.22-1.16,1.11-2.33,2.22-3.47,3.33-.29.31-.6.63-.88.91A32,32,0,0,0,410.89,840.74Zm35.24-46c3.9-11.79,3.39-23.83-5.35-34.11-4.75-5.61-11-10.27-13.6-17.56-1.88-5.27-1.11-10.25-2.2-15.49a40.65,40.65,0,0,0-10.76-20.72A67.5,67.5,0,0,0,396,693.25c32.4,2.39,66.16,19.47,65.56,55.79C461.34,765.67,455.39,781.24,446.13,794.71Zm-54,62.2c-15.51,7.48-24-22.52-9.25-27.87C399.11,823.17,405.4,850,392.16,856.91Zm-58.1-47.49c-12.07-1-24.37,1.51-35.87-1.9-11.87-3.51-20.75-12.73-32.71-16.32a51,51,0,0,0-5.89-1.36c15.91-4.33,34.7-3.59,48.08-1C315.13,796.64,324.38,803.33,334.06,809.42Zm-122.52-3.9a22.86,22.86,0,0,0,8.8,1.51,44.71,44.71,0,0,0-3.51,20c-24.19,3.68-40.67-17-56.25-32.45A135.59,135.59,0,0,0,138.49,777c22.29-.51,43.33-5.81,65-14.29,17.11-6.72,33.34-10,51.3-3.9,11,3.76,21,9.73,30.6,16.34-20.67-.2-42.36,4.58-56.17,18.73a87.93,87.93,0,0,1-47.08-4A99.76,99.76,0,0,0,211.54,805.52Zm77.8,138.92a39.4,39.4,0,0,0,13.18-14.12c-10,4.78-20.81,8.26-31.88,8.57a48.94,48.94,0,0,1-25.65-6c-8.06-12.53-.94-33.65-3.45-49.54-2.93-18.53-13.43-37.4-13.2-56.56a29.17,29.17,0,0,1,34.33-2.56c-4-4.1-8.06-8.23-13.07-11s-11.13-4-16.48-2a13.91,13.91,0,0,0-2.19,1.08,32.16,32.16,0,0,1,5.57-9.13c15.18-4.47,28-1.14,41.34,7.14,6.49,4,12.64,8.23,20.24,9.82,9.19,2,18.56-.2,27.84.12a75.25,75.25,0,0,1,25.14,5.38,63.74,63.74,0,0,0-34.31,8.71A76.15,76.15,0,0,1,364,838.72a31.71,31.71,0,0,0,5.35,20.15c-1.74,9.34-6.15,18.13-11.9,25.73-6.72,8.91-15.17,16.34-23.88,23.29,9.88-1.4,18.87-6.83,25.9-13.89a75.3,75.3,0,0,0,7.12-8.54c-8.77,15-21.66,27.78-31.74,42C322.19,938.46,305.94,943.47,289.34,944.44Zm147.43,60.18a4.12,4.12,0,0,0-.54.48c-1.28.12-2.62.2-4,.23-11.95.12-20.83-1.56-32.53,1.48-7.23,1.88-13.87,3.45-20.47,3.76a26.27,26.27,0,0,1-10.16-12.24c-2.94-6.86-3.56-14.43-4.16-21.86-2.85,7.45-4.95,15.6-3.3,23.42a21.61,21.61,0,0,0,4.81,9.57,48,48,0,0,1-8.85-3.05c-38.89-17.79-26.19-57-4.84-83.21,8.71-10.7,17.56-20.86,24.19-32.33-1.56,4.27-3.3,8.48-4.95,12.72-4.47,11.39-8.45,23.4-7.26,35.56,4.41-12.87,11.42-24.68,17-37.12,4.67-10.37,8.35-21.53,8.46-32.8a25.73,25.73,0,0,0,7.8-2.39c.63-.31,1.19-.68,1.79-1.05-1.39,5.63-.68,12,3.79,19a87,87,0,0,0,10.22,12.61c1.17,1.28,2.36,2.56,3.5,3.85,3,3.38,5.89,7.08,8.54,10.44a.6.6,0,0,1,.11.14c-.79,6.92-1.25,13.84.32,20.84,2.22,9.74,6.88,14.15,13.32,21.12C453.76,969.24,455.64,990.61,436.77,1004.62ZM460,991.18a49.5,49.5,0,0,0,2.27-10.73c1.66-16.82-5.92-25-16.39-36.38a31.84,31.84,0,0,1-8.46-18.56s.06.09.12.11c8.85,9.26,19,15.4,30.37,18.39C469,959.78,468.17,978.57,460,991.18ZM548,912c-11.16,7.49-48,29.83-78.26,21.24a243.9,243.9,0,0,0,24.48-7l4.73-1.51c16.42-5.24,29.95-12.27,42.5-22.17,15-11.82,28.92-24.49,40.56-35.3,6.78-6.32,13.3-12.64,19.45-18.79-3.25,5.24-6.81,10.67-10.79,16.51l1.51,1-1.77-.71c-2.25,2.94-4.58,6-6.69,9C573,889.67,562.88,902,548,912Zm35.38,22.8c-2.82,23-6.29,51.44,1,75.38-7.58-3.19-14.89-7.09-19.87-13-9.74-11.64-10.39-29-10-41,.71-23.17,13.69-40.56,27.38-59l4.19-5.64q5.16-7,9.59-13.32l-.4,1.17C589.86,895.56,586,913.67,583.4,934.76Zm52.44,97.84c-5.87-.82-11.42-4-17.74-7.57-2.36-1.34-4.81-2.73-7.43-4.1a122.22,122.22,0,0,0-13.18-5.69c-11-23.6-6.77-55.85-3.41-81.82l.17-1.33a264,264,0,0,1,8.57-41.88c2-6.66,4.38-13.18,6.49-18.79,1-2.62,1.76-5.52,2.61-8.62,1.37-4.95,2.79-10,4.84-13.67,2.4,13.47,5.67,26.85,8.91,40.06,2.82,11.55,5.75,23.51,8,35.35C639.79,957,640.48,990.39,635.84,1032.6Zm-7.18-208.69a11.17,11.17,0,0,1-3.93,6.07c-1.45,1-4,1.28-7,.59a14.68,14.68,0,0,1-4.35-4.61,6.09,6.09,0,0,1-.43-5c2.42-3.3,7.26-4.92,10.87-3.64,2.71,1,4.39,2.5,5.15,4.75,0,.4-.11.8-.17,1.2l-2.84-.86Zm46.09,191.38A145.1,145.1,0,0,1,650.16,1030a33.93,33.93,0,0,1-3.73,1.51c4-38.72,3.56-71.71-1.57-103.59-2.33-14.46-5.89-28.87-9.34-42.76l-1.79.4,1.79-.43c-2.42-9.73-4.89-19.7-6.91-29.74a159.62,159.62,0,0,1,8.54,14.4c.71,1.25,1.39,2.5,2.07,3.73,7.55,13.49,14.3,27,20.07,40.17C673.21,945.55,678.68,981.59,674.75,1015.29Zm7.43-323.2H701c-16.3,13.77-29.15,30.92-39,45.14a414.24,414.24,0,0,0-29.92,50.84,4,4,0,0,0,.05-.57,145,145,0,0,0,3-19.61c5-26,13.58-45.4,27-60.92A53.32,53.32,0,0,1,682.18,692.09Zm9.42,308.4c-1.73,1.82-3.58,3.67-5.55,5.5a211.3,211.3,0,0,0-16.62-95.08c-5.52-12.78-12.07-26.08-19.5-39.57,3.84,3.9,7.77,7.94,11.3,12.21,8.48,10.31,16.31,22.63,24.57,38.83C699.6,949.37,711.07,979.74,691.6,1000.49Zm24.91-76.12c-10.67-2.45-16.68-9.28-23.63-17.19l-.28-.29c-1.28-1.48-2.62-3-4-4.49-.17-.2-.37-.37-.55-.55-3.44-5.8-7-11.35-10.76-16.45a212,212,0,0,0-21.72-25c-1.76-1.77-3.53-3.73-5.15-5.61,2.34,2.08,4.61,4.19,6.89,6.26,4,3.7,8.17,7.52,12.47,11.11,6,5,12.27,9.53,18.42,14l.51.37,6.06,4.44a282.5,282.5,0,0,0,49.79,29.58C733.93,925,724.74,926.25,716.51,924.37Zm59.44-149a28,28,0,0,1-1.91-4.3q1.15-2.22,2.22-4.53A37.21,37.21,0,0,0,776,775.38Zm12.5,23a51.29,51.29,0,0,0-3.56,13.46,95.06,95.06,0,0,0-.4,10.68c0,1.73,0,3.5-.06,5.29a56.83,56.83,0,0,0-9-15.83,51.43,51.43,0,0,0-8.37-8C772.39,799.17,779.79,797.13,788.45,798.41Zm57.22-97.76a127.33,127.33,0,0,0,31.76-6c2.42-.78,4.94-1.72,7.17-2.53h39.57a32.62,32.62,0,0,1,5.93,5.26,26.93,26.93,0,0,0-9.71-4.19c-11.93-2.61-25.31,2.22-36,6.13l-1.31.45c-4.47,1.62-8.94,3.42-13.38,5.18-9.68,3.87-19.7,7.89-30,10.08-3.5.77-7.12,1.22-10.79,1.68-8.6,1.08-17.51,2.19-25.3,7.83a72.6,72.6,0,0,0-21.61,25.67,39.87,39.87,0,0,0,.11-14.94,7.58,7.58,0,0,0-.23-.91q1.2-2.26,2.57-4.61c7.4-12.87,15.31-21,24.22-25,8.23-3.67,17.74-3.76,27-3.81C839,700.88,842.36,700.85,845.67,700.65Zm24.65,152.9h.17a6,6,0,0,0,1,.08c-1.31,5.78,0,11.73,1.65,17.31a4.81,4.81,0,0,0,3.56,3.42,5.21,5.21,0,0,0,4.86-1.34,4.27,4.27,0,0,0,.86-4.39c-1.54-5.23-3.28-11.16-.4-15.82.63-.15,1.25-.32,1.85-.52a40.77,40.77,0,0,0,4.33,8.26,44.5,44.5,0,0,1,4,7.4,4.42,4.42,0,0,0,2.34,2.51,4.62,4.62,0,0,0,3.41,0,4.92,4.92,0,0,0,3-6.46,37.5,37.5,0,0,0-4-7.06c-2.11-3.14-4.1-6.12-4.5-9.43a19.07,19.07,0,0,0,4.42-6c3.72.17,9.53,2.42,10.36,5.63a4.83,4.83,0,0,0,6.06,3.45,4.6,4.6,0,0,0,2.9-2.11,4.19,4.19,0,0,0,.4-3.38c-1.68-6.5-8.08-10.74-14.17-12.39a21,21,0,0,1,17.62,3.67A15.21,15.21,0,0,1,925.37,853c-2.82,10.47-13.43,16.94-22.8,22.66L900.38,877c-6.29,3.87-18,11.07-26.93,11.07a11.66,11.66,0,0,1-4.5-.8c-3-1.25-5.07-4-6.12-8.31C860.78,870.6,864,859.78,870.32,853.55Zm4.61-28.1a8.47,8.47,0,0,1,5.52-1.57,3.62,3.62,0,0,1,1.62.74,1.88,1.88,0,0,1,.57.69l.15.23A5.63,5.63,0,0,0,884,828a21.74,21.74,0,0,1-5.13,5.93c-2.39,2-4.66,2.93-6.2,2.53-1-.26-1.79-1.17-2.39-2.73C869.32,831,871.88,827.41,874.93,825.45Zm40.19-38.89c-4.81-7.28-12.41-9.93-19.72-12.49-6-2.11-9.51-5-14.38-9.06a21.12,21.12,0,0,0-9-4.89,15.35,15.35,0,0,1,5.95-3.62,28.45,28.45,0,0,1,8.4-1,48.78,48.78,0,0,1,14.46,2.87,175.92,175.92,0,0,1,17.31,7.09c2.47,1.11,4.95,2.25,7.45,3.3s5.33,2.11,8,3.05c5.29,1.9,10.78,3.87,15.45,7.09,5.92,4.09,9.43,9,10,14,.57,4.58-1.11,9.31-5,14-9.19-1.31-19.41-.46-30.37,2.56a95.42,95.42,0,0,0-10.37,3.33C919.71,804.07,920.42,794.59,915.12,786.56Zm-36.83-10.87c4.27,3.62,9.11,5.38,13.78,7.12a62.52,62.52,0,0,1,8.51,3.58c5.38,2.85,8.11,6.61,8.11,11.13,0,7.29-7.09,15.09-14.18,19.13a9.09,9.09,0,0,0-1.16-.51c-.29-.34-.54-.65-.83-.94a21.93,21.93,0,0,0,2.88-5.86,4.7,4.7,0,0,0-3.19-6,4.6,4.6,0,0,0-5.89,2.93,14.71,14.71,0,0,1-1.65,3.68,23,23,0,0,0-3.11-.91c-.51-.12-1-.2-1.59-.29,1.42-6.29,0-12.92-.74-15.54a4.91,4.91,0,0,0-6.18-3.42,4.37,4.37,0,0,0-3.19,5.5c1,3.58,2.22,10.07-.28,14a26.88,26.88,0,0,0-4,1.4l-.59-.92a18.5,18.5,0,0,1-3-5.77,4.72,4.72,0,0,0-2.14-2.94,5.1,5.1,0,0,0-3.87-.54,5,5,0,0,0-2.76,1.82,4.44,4.44,0,0,0-.6,3.71,27.13,27.13,0,0,0,3.85,7.94c.45.71.94,1.45,1.39,2.22a17,17,0,0,0-3.59,6.63c-7-1.31-11.87-4.18-15.34-9-6.29-8.74-.31-15.72,6-23.12l.12-.14c2.5-2.9,4.87-5.95,7-8.63l.17-.22a4.17,4.17,0,0,0,1.06-1.34c1.25-1.6,2.5-3.16,3.78-4.7,2.88-3.5,5.75-5.32,8.8-5.58C869.38,769.71,873.34,771.53,878.29,775.69Zm-33.93,68.83a4.31,4.31,0,0,0,3.84,2.28,31.53,31.53,0,0,0,10.53-1.31,19.62,19.62,0,0,0,3,3.27A38.56,38.56,0,0,0,855,860.55a1.76,1.76,0,0,0-.29.37c-2.76,4.72-7.51,8-11.84,8.11-3.08.09-5.75-1.39-7.74-4.35a81.69,81.69,0,0,1-4.53-8.32l-.11-.25c-.72-1.42-1.4-2.82-2.08-4.1-2.51-4.67-2.08-12,1-17.88,2.36-4.44,5.84-7.14,9.74-7.6a44.31,44.31,0,0,0,14.6,5.92,30.64,30.64,0,0,0,.8,4.33,22.72,22.72,0,0,1-5.81.43,4.42,4.42,0,0,0-4.18,2.25A5.16,5.16,0,0,0,844.36,844.52Zm5-75.83V769c-15.77-2.31-37.21-1.51-51.61,14.57a49,49,0,0,0-3.39,4.27,15.15,15.15,0,0,1-8.54-10c-2.56-9.71,3.56-23.06,9.59-31.57,8-11.33,17-17.65,27.39-19.36,2.53-.4,5.06-.74,7.57-1.11l.31,0c7.15-1,13.92-1.93,21-4.12s14.15-5,21.07-7.83c10.73-4.3,21.8-8.74,33.31-10.85,12.52-2.27,20.72,1.11,25,10.39,2.68,5.84,3.53,12.76,2.65,21.18a8.17,8.17,0,0,1-1.91,2.56,33,33,0,0,0-4.84-4.95c-7-5.55-14.63-4.58-21.23-2.9-2.34.6-4.67,1.36-6.84,2.1s-4.67,1.57-7,2.14a54.15,54.15,0,0,1-8.74,1c-2.19.14-4.47.25-6.74.62C859.36,737.77,849,750.64,849.34,768.69Zm-56.65,71a82.53,82.53,0,0,0,1.17-15.49,104.27,104.27,0,0,1,.59-11.55,42,42,0,0,1,12.42-24.77,37.23,37.23,0,0,1,19.32-9.42,42.23,42.23,0,0,0-18.41,18.19c-3.88,7.34-4.64,15.4-5.41,23.2l-.23,2.5a128.76,128.76,0,0,1-2.76,15.15A125.47,125.47,0,0,0,796.53,854a23.74,23.74,0,0,1-2.87-3.87c-.86-1.54-1.63-3.1-2.37-4.73C791.81,843.55,792.29,841.65,792.69,839.74Zm15.77,1.94a137.27,137.27,0,0,0,2.16-15.35c.77-7.17,1.54-14.6,3.85-21.12,3.64-10.39,12.09-17.91,23.37-20.92l-1.46,1.62-.17.2c-3,3.27-6,6.69-8,10.73-3.76,7.66-2.82,15.57,2.59,22.35-4.59,2.42-8.2,6.83-10.79,13.09-4.3,10.39-4,17.28,1.19,26.28.94,1.62,1.77,3.41,2.65,5.32,2.9,6.21,6.21,13.24,13.58,15.14-7.18,3.14-15.77-.08-21.75-4.44C804.13,866.16,805.41,855.62,808.46,841.68Zm14.8,47A40.45,40.45,0,0,1,812,884.6a1.78,1.78,0,0,0,.11-.48A37.64,37.64,0,0,0,823.26,888.7Zm-10.9,6.61c15.88,6.6,29.38,2.25,41.19-13.3a28.72,28.72,0,0,0,1.34,3.73c3.56,7.83,9.56,11.79,17.85,11.79a35.76,35.76,0,0,0,9.53-1.45c0,6.69,1.46,17.5,10.05,21.63a9.73,9.73,0,0,0,2.48.85,3.88,3.88,0,0,0,1.22.32,58.18,58.18,0,0,1,13.07,3.58c-15,10.59-33.39,5-49.68-.05l-.65-.2c-1.71-.54-3.42-1.05-5.1-1.54a95.07,95.07,0,0,0-10.95-2.3c-6.1-1-12.39-2.08-17.57-5.1-7.06-4.1-11.39-9.82-13.83-18.42Zm92.86,13.6c-3.56.4-5.52.66-9-2.73C892,902,891.41,898,892,892.4A142.35,142.35,0,0,0,907.12,884c15.78-9.73,33.17-23.42,27.56-43.21-3-10.47-12.55-15.94-20.81-17.7a79.32,79.32,0,0,1,25.37-5.7c8.68-.4,15.28,3.05,19.1,9.82,5.6,10,4.38,25.68-2.85,36.53-1.91,2.87-4.1,5.63-6.26,8.39a101.39,101.39,0,0,0-8.17,11.39,26.33,26.33,0,0,0-4.56,14.55c-.17,2.59-.34,5.26-1.28,7-2,3.76-4.87,5.41-9.19,5.41a44.39,44.39,0,0,1-7.63-1,45.41,45.41,0,0,0-8.23-1A39.39,39.39,0,0,0,905.22,908.91Zm39.6-3.33c.34-1.53.62-3,.91-4.38l0-.31c1.08-5.67,2-10.56,5.72-15.92,1.77-2.56,3.82-5.12,5.67-7.48,2.14-2.68,4.3-5.44,6.23-8.34,8.34-12.47,11.7-33.65,3.56-47.77a37.85,37.85,0,0,1,16.83,20.78,29.82,29.82,0,0,1-4,26.13c-3.67,5.35-9,9.28-14.09,13l-.08.06a102,102,0,0,0-8.91,7.11c-6.61,6.1-9.46,13.75-12.44,21.89l-.15.37c-2.1,5.75-4.64,11.36-10.1,11.36a8.19,8.19,0,0,1-1.68-.17,13.23,13.23,0,0,1-4.1-1.68C937,919.9,942.77,914.86,944.82,905.58ZM965.45,782c-6.63-10.56-17.67-14.77-28.38-18.87-1.88-.71-3.76-1.45-5.63-2.19-1.54-.63-3.36-1.43-5.53-2.37-15.43-6.6-41.24-17.67-56.19-10.22-5,2.51-8.34,6.89-10,13l-.12.09c2.25-10.62,10.2-16,25.54-17.25,5.92-.52,11-2,17-3.85l.23-.05c8.82-2.74,14.66-4.56,21.38,2.42,1.08,1.14,2.08,2.22,3,3.3,3.16,3.5,6.15,6.8,11.11,9.48,2.7,1.48,5.52,2.79,8.28,4.1a103,103,0,0,1,12.38,6.52c7.95,5.18,11.33,11.24,10.36,18.56a34.75,34.75,0,0,1-.65,3.58A26.1,26.1,0,0,0,965.45,782ZM758.33,799c-1.31-.57-2.62-1-4-1.48,5.16-4.39,11.36-7.35,18.17-7.52A31.65,31.65,0,0,0,758.33,799Zm-15.43-10a94.58,94.58,0,0,1-18.39,7.88c-6.38,1.2-12.84,3-19.21,4.7l-3.85,1-6.35,1.37a280.12,280.12,0,0,0,26-12.53A142.25,142.25,0,0,0,756.25,764l.88-.94c4.7-4.95,9.88-10.39,14-16.51C769.35,763.76,755.63,781.58,742.9,788.93Zm-44,26,5.61-1.2c7-1.51,14.57-3.21,21.75-5.43,14.06-2.68,30-3.16,42,13.43A49.91,49.91,0,0,1,773.84,832c-18,1.45-36.83-.29-55.11-2l-10.81-1c-14.58-1.28-25.74-2.42-36.19-3.73-2.05-.26-4.15-.48-6.34-.71-2.54-.29-5.1-.57-7.63-.91,8.08-1.28,16-3.11,24.31-5l1-.23c2-.49,4.05-.94,6.1-1.4C692.37,816.28,695.65,815.6,698.92,814.89Zm-36.24,19.78c1.74.2,3.42.4,5.1.63,11.53,1.51,23.23,2.65,34.13,3.64,3.7.34,7.43.71,11.21,1.08l.83.06c14.77,1.48,29.92,3,44.86,3a179.34,179.34,0,0,0,18.88-.91c1.28,3.47,2.7,7.29,4.47,11,2.67,5.55,6.66,9.68,10.73,13.83,1,1.06,2.05,2.11,3.07,3.22,3.67,4,5.18,7.83,4.56,11.62-27.47-1.31-55-10.65-80.85-20.13a596.18,596.18,0,0,1-65.1-28C657.24,834,660,834.33,662.68,834.67ZM799.83,913.5c-3.38,2.3-8.42.88-13.32-1.88a74.53,74.53,0,0,0,11.3-7l.32-.25A68.4,68.4,0,0,0,799.83,913.5Zm-36.58-2.28c-2.47,1.22-4.66,2.33-6.6,3.33a292.85,292.85,0,0,1-58.5-34l-3.3-2.42c-7.69-5.66-15.6-11.5-23-17.79-3.1-2.67-6.23-5.55-9.3-8.37-2.11-1.93-4.22-3.87-6.38-5.8a614.13,614.13,0,0,0,60.09,25.42c24.68,9.05,51,18,78.09,20.29C786.46,899.63,772.71,906.49,763.25,911.22Zm8,8.31c1.37-.79,2.76-1.56,4.16-2.27.45-.26.94-.49,1.42-.75a55.67,55.67,0,0,0,9,5.19A34,34,0,0,1,771.25,919.53Zm63.66,62.66c-9.26,2-19-1.2-28.36-4.3l-3.9-1.28c-8.25-2.62-15.83-5.72-18-14.63-1.9-7.8-3.84-16.54-4.29-24.34,5.26,16.31,17.7,28.49,34.9,33.9,9.79,3.08,21.2,6.24,31.51,6.24h.11A56.26,56.26,0,0,1,834.91,982.19Zm-16.63-19.73C802.6,957.54,792,946.35,788.39,931a44.54,44.54,0,0,0,15.71-5.27c6.89,15.77,18,23.86,33.91,24.65,3.58.17,7.17.26,10.64.35h.29l6,.17c.4,1.53.77,3.1,1.17,4.69.77,3.19,1.57,6.47,2.51,9.65C849.71,972.34,827.7,965.42,818.28,962.46Zm44.78-21h-.2c-4.84-.31-9.4-.62-14-.62h-.23c-15.48,0-26.21-1.08-33.73-14.72a71.5,71.5,0,0,1-5.64-13.72,36.86,36.86,0,0,0,5.41,5.32c7.63,6.18,15.94,7.8,24.83,9.54,3.64.71,7.4,1.45,11.07,2.53,1.19.34,2.39.71,3.59,1.06l.71.22C866.25,934.42,878,938,889.36,938a44.55,44.55,0,0,0,14.06-2.11C892.84,943.42,877.72,942.42,863.06,941.42Zm2.48,10a1.85,1.85,0,0,1,.39,0,93.2,93.2,0,0,0,23.4-.25c15.09-2.37,26.22-10.42,32.31-23.32,3.08,1.37,5.44,2.34,7.72,3.16,8.42,3.05,15.26.06,20.29-8.85a55.18,55.18,0,0,0,4.13-10.08,51.4,51.4,0,0,1,4-9.73c3.07-5.3,7.8-8.86,12.78-12.62l2-1.56c2.47-1.88,4.61-3.64,6.52-5.38a32.52,32.52,0,0,0,17.3,5.95c4,10.05,1.54,24.34-2.1,34.39-2.93,8.05-6.92,13.77-12.16,17.47-6.18,4.39-13.38,5.41-21,6.52-3.13.46-6.34.94-9.5,1.65-9.28,2.14-18.14,6.81-25.25,10.57-2.34,1.25-4.7,2.62-7,4-5.95,3.5-12.12,7.15-18.41,8.45A31.71,31.71,0,0,1,876.87,967,27.14,27.14,0,0,1,865.54,951.44ZM1000,934.9c-4.41,12.3-12.1,20.13-22.86,23.26-2.62.74-5.35,1.34-8.11,2-5.61,1.25-11.39,2.53-16.74,5.32-5,2.65-9.39,6.26-13.64,9.79-1.53,1.31-3.44,2.91-5.32,4.36A39.62,39.62,0,0,1,908,988.42c-1.68,0-3.45-.08-5.24-.25-10.76-1.06-20-4.73-26.16-10.25a43.2,43.2,0,0,0,13,3.78c14.77,1.94,27.9-5.38,40.56-12.46,8.72-4.87,17.71-9.88,27.05-11.7,2.13-.43,4.3-.77,6.57-1.14,8.26-1.34,16.77-2.71,24.17-8a41.26,41.26,0,0,0,12.93-16C1000.61,933.25,1000.33,934.14,1000,934.9Zm24.45-82.69c-3.53,11-11.55,20.24-20.49,23.48a20.2,20.2,0,0,1-17-1.39,39.18,39.18,0,0,0,6.83-14.89c4.36-19.7-6.91-40-26.84-48.82,9.54-9.62,15.43-27.61,9.17-40-4.42-8.68-13.7-13.46-20.47-16.93-1.82-.94-3.76-1.83-5.52-2.62a73.8,73.8,0,0,1-9.48-4.93A15.2,15.2,0,0,1,952.53,739c10.76-1,24.57,7,31.71,15.37,3.22,3.78,6.12,8,9,12.07,1.94,2.84,4,5.78,6.15,8.6a67,67,0,0,0,8.82,8.93c3.67,3.31,7.46,6.72,9.79,10.45s2.25,9.48,2.14,15c-.09,4.19-.17,8.49.8,12.3.48,1.88,1,3.76,1.62,5.78C1024.92,835.84,1027.2,843.75,1024.49,852.21ZM1041.57,814a206.51,206.51,0,0,0-5.55,21.18,6.14,6.14,0,0,0-1.31,1.39c-.2-1.28-.42-2.56-.71-3.87-.57-2.45-1.25-4.81-1.93-7.12l-.06-.25c-1.65-5.67-3.19-11-3-17,0-1.08.11-2.16.2-3.24l0-.2c.31-3.87.62-7.83-.94-11.79-1.71-4.35-5.16-7.43-8.49-10.39l-.91-.79A102.19,102.19,0,0,1,1004,765.27c-1.09-1.48-2.14-3-3.19-4.5l-.32-.42C994.58,751.83,988.4,743,979.4,737a41.74,41.74,0,0,0-17-6.69A30,30,0,0,1,990,738.17c3.25,3.19,6.21,6.72,9.11,10.19a118.27,118.27,0,0,0,11.79,12.76c2.87,2.59,5.89,5.09,8.82,7.51l.17.17c6,5,12.3,10.22,17.48,16.17C1045.82,794.71,1045.3,803,1041.57,814Zm93.35-19.53c15,7.63,30.6,13.35,46.48,18.36-14.4,5.1-27.58,13-41.44,20.55-27.11,14.81-67,23.86-94.14,3.25a1.47,1.47,0,0,0,0-.29c.69-3.38,1.37-6.83,2.17-10.22a108,108,0,0,0,64.16-10.64,156.92,156.92,0,0,1-59.81-4.36,37.68,37.68,0,0,0,1.42-14.09C1079.21,774,1106.85,780.19,1134.92,794.45ZM1079.35,771a74.51,74.51,0,0,0-29.66,14.52c-.43-.68-.83-1.34-1.26-2a124.61,124.61,0,0,1,32.2-49.82,108.44,108.44,0,0,0-40.88,32.48,14.6,14.6,0,0,0-2.67,4.64c-1.94-1.73-3.9-3.41-5.92-5.06,10.56-22.12,28.52-43.27,48.93-56.77,9.84-6.49,20.39-11.41,30.58-16.87h17.25C1123.48,724,1108.26,754.47,1079.35,771Zm7.27-78.87a136.28,136.28,0,0,0-20.65,13c-17.73,14-33.79,32.77-43.9,53.15-.65-.54-1.33-1.11-2-1.68-4.33-3.76-8.28-8.51-12.15-13.12-5.9-7.06-12-14.35-20-18.88-12.58-7.17-28.78-6.26-42.59,2.28.43-3.1.63-6.17.77-9.11a37.07,37.07,0,0,0-8.07-25.61Zm-264.44,0c-8.51.75-16.86,2.56-24.34,7.68S784,712,778.26,721.35c-.8-2.54-1.63-5.21-2.22-7.86l-.35-1.48c-1.55-6.65-3.18-13.5-6.22-19.92Zm-66.17,0a32.8,32.8,0,0,1,3.4,5.86c2.19,5,3.42,10.22,4.73,15.8l.08.42c.54,2.22,1.06,4.44,1.65,6.66s1.28,4.36,2,6.58c-1.71,14.2-17.63,28.55-27.16,37.12A132.72,132.72,0,0,1,712,784.43c-20.24,10.42-40.11,17.88-59.16,22.26,18.93-13.32,37.69-30.86,58.39-54.51,13.66-15.63,30.95-36.44,44.63-60.09Zm-12.35,0c-12.68,20.67-27.92,39-40.24,53.11-15.38,17.59-39,42.76-68.07,60.47a413.32,413.32,0,0,1,32.14-57.88c13.33-20,29.54-41.63,50.7-55.7Zm-83.09,0a90.87,90.87,0,0,0-9,9.61,119,119,0,0,0-16.45,27.13,104.7,104.7,0,0,0-7.52-30.94c-.78-1.83-1.7-3.79-2.7-5.8Zm-48.8,0,.21.33c7.69,13.36,11.45,28.22,12.24,48.17a205.81,205.81,0,0,1-.42,25.79c-.8,4.16-1.51,8.51-2.17,13.15a1,1,0,0,1,0-.31c-.17-1.54-.31-3.07-.42-4.58-1.17-13.27-2.59-27.47-5.24-41.37a131.13,131.13,0,0,0-15.84-41.18Zm-23.93,0A124.23,124.23,0,0,1,606,737.17c2.37,13.18,3.73,26.73,4.73,38.24.14,1.7.31,3.44.48,5.18.49,5,1,10,1.08,15-11.18-25.88-26.5-50.44-41.36-74.3l-1.19-1.88c-5.85-9.39-11.77-18.58-18.09-27.32Zm-49.12,0c8.53,11,16.36,23.3,24.38,36.37l2.68,4.36c14.63,23.8,29.72,48.39,39.88,74a4,4,0,0,1-.37.29c-18.84-11-36.75-24.31-54.11-37.24L549,768.26c-27.56-20.52-44.7-40.56-53.86-63,.39-.72.79-1.43,1.16-2.17a36.08,36.08,0,0,0,3.44-10.95Zm-51,0a38.33,38.33,0,0,1-3.85,9.39c-.51.94-1.08,1.88-1.79,3.07-2.74,4.58-5.55,9.31-6.75,15-2.62,12.53,2.19,25.65,6.8,34.59a61.81,61.81,0,0,0-10.05,7.6,78.69,78.69,0,0,0,.66-21.38c-2.51-23.37-17.21-39-36.26-48.27Zm-143.38,0a233.83,233.83,0,0,0-21.51,11.41,41.53,41.53,0,0,0-12.51-11.41Z"/></g></g></svg>