<svg xmlns="http://www.w3.org/2000/svg" viewBox="0 0 1650 913.26"><title>Asset 45</title><g id="Layer_2" data-name="Layer 2"><g id="Layer_1-2" data-name="Layer 1"><path fill="FRAME_COLOR" d="M1647.11,247.63H1441.32a10.58,10.58,0,0,0,1.89-5.77c0-2.8.23-2.8,5.49,0,8.77,4.68,19.75,4,22.58-1.29,2.52-4.75,1.26-9.45-3.87-14.54l-4.91-4.87,2-4c2.47-4.79,2.57-8.33.34-12.62-2.83-5.45-9.06-6.47-15.48-2.53-3.63,2.23-3.77,2.23-4.45.08-1.14-3.6-7.48-8.19-12.39-9-3.62-.58-4.55-1.21-4.55-3.06a8.08,8.08,0,0,0-1.93-4.51c-1-1.16-1.71-2.37-1.46-2.62s4.61.52,9.75,1.75c7.25,1.73,10.28,2,13.74,1,12.29-3.35,5.84-13.05-14.84-22.32-4.8-2.15-8.77-4.33-8.77-4.81s2.1-.88,4.67-.88c4.8,0,9.36-3,9.36-6.19,0-1.81-4-5.68-8-7.73-1.47-.76-8.07-2.6-14.61-4.08-8.53-1.92-11.22-2.91-9.47-3.46,3.16-1,4.34-3.66,2.85-6.47-2.15-4.1-17.69-8.3-30.66-8.3-5.61,0-5.61,0-3.27-2.33,4.79-4.8,1.52-8.72-8.89-10.63-8-1.47-16.71-.71-28.4,2.5-9.93,2.72-10.78,2.77-9.9.53,1.31-3.32-3-6.43-8.8-6.43-12,0-36.35,7.88-48.62,15.77-7.13,4.58-7.75,4.83-7,2.69a11.32,11.32,0,0,0-.38-5c-.79-2.93-.49-3.84,2-6,4-3.46,3.85-9.36-.36-13-4-3.46-6.78-3.43-11,.12-1.88,1.58-3.68,2.57-4,2.22s-3.16-1.32-6.32-2.16-4.47-1.56-3-1.62c3.27-.12,11.74-7.73,12.63-11.36.52-2.12,1.5-2.8,4.08-2.8,4.91,0,7.71-4.56,5.75-9.35a7,7,0,0,0-9.61-3.84c-1.92.86-3.56.56-6.48-1.18-3.47-2.07-4.62-2.19-10-1a38.51,38.51,0,0,0-9.7,3.55c-4.09,2.47-9.2,11.84-8.31,15.21.47,1.77-.52,2.64-4.84,4.27-3,1.14-8.41,3.52-12.15,5.37-5.26,2.61-7.22,3.08-9,2.16-1.26-.64-5.21-1.17-8.83-1.17h-6.54l2.28-3.21a33.31,33.31,0,0,0,3.74-8.06c1.3-4.33,1.18-5.44-1.14-10.23a19.14,19.14,0,0,0-32.12-4c-2.3,2.69-4.23,5.73-4.26,6.72s-1.14-.29-2.46-2.87c-5.17-10-12.58-14.44-21.55-12.78-4.84.89-11.48,6.24-14.13,11.38-2.05,4-2.31,11.28-.51,14.61,1.11,2.07.72,2.22-5.7,2.14-8.42-.1-13.26,2.85-13.8,8.38l-.34,3.51-8.42-3.86a102.58,102.58,0,0,0-14.49-5.36c-6.9-1.69-7.06-2.77-.59-3.84A44.43,44.43,0,0,0,1074.53,87,25.48,25.48,0,0,1,1086,84.08a21.62,21.62,0,0,0,17.06-7.71c4-4.51,5.44-10.64,3.74-15.43-1-2.81-.76-3.66,1.64-6,3.51-3.35,3.67-7,.46-10.4s-7.63-3.28-11,.35c-2.09,2.27-3.86,2.92-8,2.92-12.15,0-23.13,8.88-23.13,18.7,0,2.4,1.31,5,4.14,8.12l4.15,4.62L1072.48,81a22.59,22.59,0,0,1-5.9,2.52c-2.92.69-3.21.48-3.21-2.29,0-6.5-9.58-11.76-25.13-13.77-7.13-.92-9.67-1.68-8.76-2.59,6.24-6.24-9.35-14.47-24.9-13.14a227.23,227.23,0,0,0-43.36,8.87c-5.49,1.82-10.05,2.89-10.05,2.34a2.06,2.06,0,0,1,1.05-1.63c.59-.35,2.15-3,3.52-5.9,5-10.64,2.17-23.38-6.32-28.61-3.4-2.1-5.49-2.51-10.87-2.13-9.64.68-17.06,4.75-27.47,15l-9,8.91-.65-4.21c-2.31-15-5.4-22.48-12.29-29.92C877.42,1.89,859.77-2.9,842,1.73c-13.32,3.49-29.15,13.82-34.81,22.74l-1.77,2.81L802,24.09c-6.13-5.79-13-8.35-22.09-8.29-17.39.11-35.19,7.88-46.25,19.17-7.84-6.76-14.31-9.7-22.25-10.26-5.38-.38-7.47,0-10.86,2.13-8.5,5.23-11.32,18-6.33,28.61,1.37,2.92,2.93,5.55,3.52,5.9A2.06,2.06,0,0,1,698.83,63c0,.55-4.56-.52-10.05-2.34a227.08,227.08,0,0,0-43.36-8.87c-15.55-1.33-31.14,6.9-24.9,13.14.91.91-1.63,1.67-8.76,2.59-15.55,2-25.12,7.27-25.12,13.77,0,2.77-.3,3-3.22,2.29a22.59,22.59,0,0,1-5.9-2.52l-2.69-1.75L579,74.67c2.83-3.15,4.14-5.72,4.14-8.12,0-9.82-11-18.7-23.13-18.7-4.1,0-5.86-.65-8-2.92-3.34-3.63-7.77-3.77-11-.35s-3,7.05.46,10.4c2.4,2.3,2.64,3.15,1.65,6-1.7,4.79-.22,10.92,3.74,15.43A21.59,21.59,0,0,0,564,84.08,25.42,25.42,0,0,1,575.47,87a44.43,44.43,0,0,0,10.23,3.66c6.47,1.07,6.31,2.15-.59,3.84a103.49,103.49,0,0,0-14.49,5.36l-8.41,3.86-.35-3.51c-.53-5.53-5.38-8.48-13.8-8.38-6.42.08-6.81-.07-5.69-2.14,1.8-3.33,1.54-10.63-.52-14.61-2.65-5.14-9.29-10.49-14.12-11.38-9-1.66-16.39,2.73-21.56,12.78-1.32,2.58-2.43,3.86-2.46,2.87s-2-4-4.26-6.72a19.14,19.14,0,0,0-32.12,4c-2.32,4.79-2.44,5.9-1.13,10.23a32.94,32.94,0,0,0,3.73,8.06l2.28,3.21h-6.54c-3.62,0-7.56.53-8.82,1.17-1.79.92-3.75.45-9-2.16-3.73-1.85-9.13-4.23-12.15-5.37-4.32-1.63-5.31-2.5-4.84-4.27.89-3.37-4.22-12.74-8.31-15.21a38.51,38.51,0,0,0-9.7-3.55c-5.38-1.19-6.53-1.07-10,1-2.91,1.74-4.56,2-6.48,1.18a6.93,6.93,0,0,0-9.6,3.84c-2,4.79.83,9.35,5.74,9.35,2.58,0,3.56.68,4.09,2.8.88,3.63,9.35,11.24,12.63,11.36,1.49.06.17.77-3,1.62s-6,1.8-6.31,2.16-2.16-.64-4-2.22c-4.2-3.55-6.95-3.58-11-.12-4.21,3.6-4.37,9.5-.35,13,2.47,2.14,2.78,3,2,6a11.32,11.32,0,0,0-.38,5c.77,2.14.15,1.89-7-2.69-12.27-7.89-36.58-15.77-48.62-15.77-5.84,0-10.1,3.11-8.8,6.43.88,2.24,0,2.19-9.9-.53-11.69-3.21-20.37-4-28.4-2.5-10.4,1.91-13.68,5.83-8.88,10.63,2.34,2.33,2.34,2.33-3.28,2.33-13,0-28.51,4.2-30.66,8.3-1.48,2.81-.3,5.49,2.85,6.47,1.76.55-.94,1.54-9.47,3.46-6.54,1.48-13.14,3.32-14.6,4.08-4,2.05-7.95,5.92-7.95,7.73,0,3.17,4.55,6.19,9.35,6.19,2.57,0,4.67.4,4.67.88s-4,2.66-8.77,4.81c-20.68,9.27-27.13,19-14.83,22.32,3.45.95,6.48.72,13.73-1,5.14-1.23,9.49-2,9.76-1.75s-.42,1.46-1.47,2.62a8.08,8.08,0,0,0-1.93,4.51c0,1.85-.93,2.48-4.55,3.06-4.91.79-11.25,5.38-12.39,9-.68,2.15-.82,2.15-4.44-.08-6.43-3.94-12.66-2.92-15.49,2.53-2.22,4.29-2.13,7.83.34,12.62l2.05,4L182.59,226c-5.13,5.09-6.39,9.79-3.87,14.54,2.83,5.34,13.82,6,22.58,1.29,5.26-2.81,5.49-2.81,5.49,0a10.58,10.58,0,0,0,1.89,5.77H2.89a14.81,14.81,0,0,0,0,17.59H1647.11a14.81,14.81,0,0,0,0-17.59ZM1466,237.19c-1.11,1.81-8.79,1.42-13-.67-5.26-2.62-7.8-5.75-6.92-8.57.61-2,1.54-2.28,5.87-2a20.48,20.48,0,0,1,8.06,2.25C1463.78,230.67,1467,235.53,1466,237.19Zm-15.68-28.55c5.14-4.34,9.64-3.82,10.15,1.2a9,9,0,0,1-1.8,6.31c-2.65,3.27-10.9,4.45-13.07,1.87C1443.82,215.87,1445.32,212.89,1450.34,208.64ZM1075.09,64.21c3.3-6.19,16.22-9.34,20.14-4.91,4.84,5.49,3,11.88-4.39,15-4.67,1.95-3.63,2-9.59-.87S1073.33,67.55,1075.09,64.21ZM568.75,73.39c-6,2.91-4.92,2.82-9.59.87-7.36-3.08-9.23-9.47-4.38-15,3.91-4.43,16.84-1.28,20.13,4.91C576.68,67.55,574.71,70.49,568.75,73.39ZM197,236.52c-4.21,2.09-11.89,2.48-13,.67-1-1.66,2.24-6.52,6-9A20.53,20.53,0,0,1,198,226c4.32-.3,5.25,0,5.86,2C204.77,230.77,202.23,233.9,197,236.52Zm7.4-18.5c-2.17,2.58-10.42,1.4-13.06-1.87a9,9,0,0,1-1.81-6.31c.51-5,5-5.54,10.15-1.2S206.19,215.87,204.38,218ZM1426,234.38c2.43-2.73,2.9-2.83,7-1.52,2.45.79,4.46,2.17,4.56,3.16.38,3.86-.5,7.69-2.22,9.58-2.51,2.78-5.91,2.37-10-1.19C1422.58,242,1422.85,237.89,1426,234.38Zm-8-9.48c-5.26.8-12.48-2.34-13.13-5.71s3.07-7.71,6.7-7.71c6.54,0,16,9.65,11.92,12.16A26.26,26.26,0,0,1,1418,224.9Zm11.68-25.55c5.73.18,10.06,4.24,10.06,9.44,0,3.75-.12,3.85-4.56,3.85a26,26,0,0,0-6.14.59c-1,.38-2.35-1.29-3.8-4.8C1422.37,201.54,1423.53,199.15,1429.65,199.35ZM1449.06,180c0,2-10.06,1.05-20.34-1.94-14.85-4.33-19.78-2.83-12.39,3.75a26.92,26.92,0,0,1,4.79,5.31c1,1.88.7,1.89-5,.19-8.11-2.41-10-3.19-22.21-8.86-12.51-5.84-14.85-5.13-9.33,2.83a36.64,36.64,0,0,1,4.24,7.65c.71,2.43.42,2.63-3.68,2.51-8.88-.26-23.81-3.45-27-5.76-6.87-5-33.78-9-68.25-10.15l-20.58-.68,1.75-4.15a15,15,0,0,0,1.12-7.42c-.62-3.15-.47-3.27,4-3.27,3.49,0,5.9,1,9.88,4,2.92,2.24,7.07,4.37,9.34,4.79,6.79,1.26,16.32,0,20-2.7l3.27-2.38,4.91,2.41c4.79,2.36,8.65,2.22,8.65-.31,0-.71-2.34-2.28-5.26-3.53-8.18-3.49-6.78-5,3.74-4,7.6.72,9.85,1.47,14.49,4.82,5.85,4.22,7.42,4.68,8.72,2.58.51-.82-.54-2.57-2.53-4.21l-3.38-2.81,5.84.64c3.22.36,12.16,1.2,19.87,1.88s20.45,2.51,28.28,4.08C1417.38,168.44,1449.06,178.31,1449.06,180Zm-84.86,39.62c11,3.48,22.91,8.64,22.91,9.93,0,.35-.35.54-.88.47s-6.6-.81-13.73-1.67c-14.14-1.7-33.79-5.06-37.4-6.4-1.94-.71-1.75-1,1.52-2.09s4.76-3.54,3-5.27c-.75-.75-10.75,2.38-12.86,4-1.19.94-11.69-1.87-13.67-3.66-.52-.46,1-1.2,3.51-1.65,6.54-1.19,16.71-6.17,16.71-8.19,0-2.79-2.22-2.79-8.06,0a81,81,0,0,1-14.09,4.5c-8.53,1.89-8.85,1.88-15.72-.7-3.85-1.45-6.49-2.79-5.84-3s4.85-1.28,9.29-2.39c6.08-1.54,8.23-2.58,8.52-4.15.49-2.57-1-2.49-17.22.88-8.19,1.7-10.6,1.81-14.5.64-5.5-1.65-4.68-2.45,4.67-4.62,7-1.62,9.51-3.65,7-5.72-1.24-1-2.81-.94-6.43.34a99,99,0,0,1-11.75,3c-6.54,1.26-7.33,1.17-13.44-1.69-3.62-1.7-8.7-3.1-11.51-3.16l-5-.12,5.27-1a60.56,60.56,0,0,0,12.85-4.85l7.6-3.86,20.45.76c21.16.78,48.68,3.42,59.25,5.67,4.21.89,6.64,2.15,7.9,4.09,1.76,2.74,1.68,2.84-3,4.1-4.09,1.1-7,3.82-5.6,5.17.25.24,6.19,1.27,13.32,2.3s14.94,2.47,17.53,3.22c4.56,1.31,4.6,1.37,1.81,2.39-1.56.58-8.12,1.69-14.43,2.46q-11.57,1.39-12.2,2.92C1349.12,214.6,1350.64,215.38,1364.2,219.66Zm-11.44,28h-15.82a172,172,0,0,1-16.8-8.89c-4.32-2.73-7.82-3-7.82-.5,0,.63,2.12,3.62,4.66,6.54.93,1.07,1.67,2,2.31,2.85H1302.7a188.66,188.66,0,0,1-18.32-9.25c-17.65-10.16-18.07-10.53-16.51-14.63,1.47-3.86.64-7.26-2.66-10.87a10.76,10.76,0,0,1-2.51-7.31,21.91,21.91,0,0,1,.18-4.62c.12,0,3.27,1.37,7,3.05,5.5,2.46,8.08,4.67,13.6,11.68,6.36,8.07,10.13,10.72,10.13,7.13,0-.83-1.64-3.74-3.62-6.43s-3.18-4.9-2.63-4.9a54.49,54.49,0,0,1,7.42,2.39c4.8,1.79,8.65,4.6,15.19,11.11,4.8,4.75,9.41,8.7,10.17,8.7,2.76,0,1.41-4.32-2.57-8.18-2.22-2.16-3.9-4.13-3.68-4.33s2.57.4,5.15,1.29c2.78,1,7,4.09,10.27,7.6,5.21,5.61,9.88,7.76,9.88,4.56,0-.76-1.47-3-3.21-4.85-2.5-2.69-2.72-3.28-1-2.66,4,1.45,22.2,4.26,41.13,6.37,14.5,1.61,18.59,2.43,18.59,3.71,0,4.21-19.4,6.49-36.47,4.29C1349.37,240.33,1347.75,241.87,1352.76,247.63Zm-170-7.57c-3.53-3-7.56-10.12-9-15.84-.62-2.56-.09-3.42,3.3-5.44l4-2.4,3.5,3.68a37.27,37.27,0,0,1,5.39,7.42c2.25,4.45,2.49,12.11.46,14.15S1186.67,243.33,1182.81,240.06Zm-89.29-53.27c-5.1-2.61-22.67-6.81-28.63-6.84q-6.32,0-2.11-3.58c1.26-1.06,4.15-1.23,10.11-.6,7.38.77,10.24,1.88,24.25,9.43,15.55,8.36,46.82,22.77,49.44,22.77.71,0,.33,1.05-.85,2.34-3.33,3.64-15,2.18-31-3.87-13.44-5.07-14.78-6-14.16-10.16S1099.6,189.89,1093.52,186.79Zm-13.09,24.71c18.93,4.2,34.47,8.71,40,11.61l4.33,2.27-5.85-.06c-6.93-.07-33.42-3.57-46.75-6.17-16.36-3.19-36.84-8.06-36.77-8.73,0-.39,2.12-2.12,4.69-3.91s4.62-3.73,4.62-4.38c0-3-3.51-2.21-10.06,2.18l-7,4.71L1017,205.75c-5.84-1.81-11.23-3.67-12-4.15-1-.58.64-2.14,4.74-4.6,5.84-3.51,8.9-7.73,5.6-7.73-.84,0-5.43,2-10.34,4.55l-8.82,4.56-9.64-4.2c-5.27-2.3-9.64-4.5-9.64-4.85s2-1.72,4.31-3c6.67-3.61,9.71-6.39,9.71-8.88,0-2.69-2.59-2.94-4.66-.46-1.82,2.19-13.93,8.76-16.15,8.76s-19-9.15-19-10.28c0-2.58,6.05-14.77,7.16-14.5.77.19,10.63.86,22,1.48,61.35,3.34,67.81,4.16,72.92,9.19,2.12,2.1,2.1,2.26-.47,3.65-1.49.81-6.6,1.77-11.51,2.16-7.94.64-8.86,1-9.2,3.28-.5,3.37,2.71,4.22,12.41,3.27,16.72-1.64,50.48,5.38,50.64,10.51,0,1.62-7.15,3.92-17,5.42-13,2-13.6,2.15-14.32,4.06C1062.61,207.05,1064.77,208,1080.43,211.5Zm-39.26,25.92c3.21,4.56,5.83,8.75,5.83,9.29a.83.83,0,0,1-.67.92H1046c-4.09-.68-45.29-23.26-57.5-31.55-3.74-2.54-7.51-4.6-8.41-4.6-3,0-3.17,3.5-.38,7.94,3.31,5.26,6.06,12.78,5.05,13.79-2.13,2.13-54.58-34.59-54.58-38.22,0-.52,1.11-1.26,2.51-1.69s5.09-3.17,8.25-6.14l5.72-5.37,8.42,4.5a115.86,115.86,0,0,1,10.16,5.9,13.83,13.83,0,0,0,4.1,2.05c1.29.35,8.06,3.24,15.19,6.48s19.16,7.95,26.88,10.51c28.87,9.61,81.35,19.7,105.19,20.22l5.84.13-5.2,1.63c-2.87.9-12.33,2-21.1,2.41-18.7.9-34.65-1.26-49.55-6.73C1033.1,224,1032.44,225,1041.17,237.42Zm-87.05,10.21c-6.77-5.56-13.81-11.64-18.61-16.26-12.51-12.05-24-25.7-27.55-32.63l-2.25-4.45,5.78,1.29c4.56,1,6.84,2.45,10.76,6.78a166.78,166.78,0,0,0,14.31,13.17,201.62,201.62,0,0,1,30.35,32.1Zm-114,0c-8.46-2.65-15.64-7.6-19.85-14.42-3-4.91-3-5.37.19-5.37,1.48,0,5-1.05,7.78-2.34a36.45,36.45,0,0,1,5.9-2.34c.44,0,.6,3.1.35,6.84-.32,4.56,0,7.13.94,7.72,2.49,1.59,3.56-1.12,4.06-10.35.46-8.65,3.33-16.54,5.52-15.19.51.32.93,5.72.93,11.92,0,12.15.87,15.1,4.09,13.88,1.89-.71,2-2,1.23-12.77-.48-6.55-1.33-14.47-1.87-17.48a45.93,45.93,0,0,1-.29-11.39c.57-4.79,1-5.65,2.27-4.56,1.06.9,1.22,1.79.48,2.69s1.07,6.72,6,18.76c7.6,18.7,9.72,22.31,11.06,18.81.49-1.28-1.3-7.42-4.58-15.72-3-7.47-5.69-14.48-6.08-15.54-.58-1.6.24-1.45,4.8.88,3,1.55,6.43,2.8,7.59,2.8s1.88.59,1.53,1.52c-.93,2.45,7.23,22.4,9.34,22.84,3.24.66,2.12-4.6-4.46-21-.65-1.61.37-2.24,5.4-3.33a45.42,45.42,0,0,0,11.16-4.27c4.67-2.75,5-2.8,5.83-.81,1.84,4.48.7,19.63-1.92,25.59-4.63,10.53-15,18.73-28.3,22.6Zm-91.65-8.13c-16.16-7.58-27.64-34-22.45-51.64,1.1-3.74,2.39-6.77,2.87-6.77s1.77,1.52,2.87,3.39c1.73,2.94,11.45,11,17.64,14.71,1.71,1,1.17,1.79-3.86,5.57-3.85,2.89-5.62,5-5.21,6.13,1,2.63,1.59,2.38,10.48-4.08,6.77-4.92,8.86-5.86,13.08-5.86h5l-5.49,4.74c-3,2.62-6.75,5.56-8.3,6.59-2.8,1.86-3.55,4.38-1.63,5.56,1.61,1,9.7-5,21.73-16.1,6.08-5.61,11.11-9.93,11.11-9.55,0,1.84-6.81,13.79-12.39,21.74-3.44,4.9-6.31,9.9-6.31,11,0,4.34,4.32.58,11.7-10.17l7.7-11.22,2,5.61c1.95,5.52,1.94,5.72-.92,13.32-3.39,9-3.6,11.22-1.07,11.22,1.6,0,3.16-2.8,6.53-11.69l1.06-2.8,3,3c2.18,2.22,2.77,3.73,2.17,5.61-1.26,4-8.53,11.53-13.68,14.17C776.81,246.8,762,245.82,748.51,239.5Zm-65.41,8.13a201.1,201.1,0,0,1,30.34-32.1c1.38-1.14,2.86-2.41,4.33-3.69A41.12,41.12,0,0,0,721.84,224c-2.38,2.49-4.82,5-7.35,7.42-4.8,4.62-11.84,10.7-18.61,16.26ZM670,211.48c-.9,0-4.67,2.06-8.41,4.6-12.21,8.29-53.41,30.87-57.5,31.55h-.38a.84.84,0,0,1-.67-.92c0-.54,2.63-4.73,5.83-9.29,8.73-12.41,8.07-13.45-5.37-8.53-14.9,5.47-30.85,7.63-49.55,6.73-8.77-.43-18.23-1.51-21.1-2.41l-5.2-1.63,5.84-.13c23.84-.52,76.32-10.61,105.19-20.22,7.72-2.56,19.81-7.29,26.88-10.51s13.9-6.13,15.2-6.48a13.9,13.9,0,0,0,4.09-2.05,115.86,115.86,0,0,1,10.16-5.9l8.42-4.5,5.73,5.37a38.56,38.56,0,0,0,7.78,5.91c0,1.53-.06,3.24-.06,5.38-11.09,10-49.73,36.59-51.55,34.76-1-1,1.75-8.53,5.05-13.79C673.13,215,673,211.48,670,211.48ZM586.23,204c-.73-1.91-1.35-2.08-14.32-4.06-9.82-1.5-17-3.8-17-5.42.17-5.13,33.92-12.15,50.64-10.51,9.7,1,12.91.1,12.42-3.27-.35-2.32-1.26-2.64-9.21-3.28-4.91-.39-10-1.35-11.51-2.16-2.57-1.39-2.59-1.55-.47-3.65,5.12-5,11.57-5.85,72.93-9.19,11.34-.62,21.2-1.29,22-1.48,1.11-.27,7.14,11.92,7.16,14.5,0,1.13-16.86,10.28-19,10.28s-14.33-6.57-16.15-8.76c-2.06-2.48-4.65-2.23-4.65.46,0,2.49,3,5.27,9.7,8.88,2.33,1.27,4.31,2.64,4.31,3s-4.37,2.55-9.64,4.85l-9.64,4.2L645,193.82c-4.9-2.53-9.49-4.55-10.34-4.55-3.3,0-.23,4.22,5.61,7.73,4.09,2.46,5.7,4,4.73,4.6-.81.48-6.19,2.34-12,4.15L622.4,209l-7-4.71c-6.55-4.39-10.06-5.15-10.06-2.18,0,.65,2,2.59,4.62,4.38s4.65,3.52,4.69,3.91c.07.67-20.41,5.54-36.77,8.73-13.33,2.6-39.82,6.1-46.75,6.17l-5.85.06,4.33-2.27c5.5-2.9,21-7.41,40-11.61C585.23,208,587.4,207.05,586.23,204Zm-36.75-7.72c.62,4.13-.72,5.09-14.16,10.16-16,6.05-27.72,7.51-31.05,3.87-1.17-1.29-1.56-2.34-.85-2.34,2.62,0,33.89-14.41,49.44-22.77,14-7.55,16.88-8.66,24.25-9.43,6-.63,8.85-.46,10.11.6q4.2,3.54-2.11,3.58c-6,0-23.53,4.23-28.63,6.84C550.4,189.89,548.83,192,549.48,196.28Zm-90,45.35c-2-2-1.8-9.7.45-14.15a37.27,37.27,0,0,1,5.39-7.42l3.5-3.68,4,2.4c3.39,2,3.92,2.88,3.3,5.44-1.4,5.72-5.43,12.84-9,15.84C463.33,243.33,461.54,243.69,459.48,241.63Zm-69.44,6c1-3,2.64-5.51,4.33-6.17,6.33-2.45,15,1,17.29,6.17Zm-7.9-23.88c1.55,4.1,1.13,4.47-16.52,14.63a188.66,188.66,0,0,1-18.32,9.25H330.71c.65-.85,1.38-1.78,2.31-2.85,2.54-2.92,4.67-5.91,4.67-6.54,0-2.45-3.51-2.23-7.83.5a172,172,0,0,1-16.8,8.89H297.24c5-5.76,3.39-7.3-5.48-6.15-17.07,2.2-36.46-.08-36.46-4.29,0-1.28,4.08-2.1,18.58-3.71,18.93-2.11,37.09-4.92,41.14-6.37,1.73-.62,1.51,0-1,2.66-1.74,1.87-3.21,4.09-3.21,4.85,0,3.2,4.67,1,9.88-4.56,3.27-3.51,7.5-6.64,10.28-7.6,2.57-.89,4.92-1.48,5.14-1.29s-1.46,2.17-3.68,4.33c-4,3.86-5.33,8.18-2.57,8.18.77,0,5.37-4,10.17-8.7,6.54-6.51,10.39-9.32,15.19-11.11a54.49,54.49,0,0,1,7.42-2.39c.55,0-.64,2.21-2.63,4.9s-3.62,5.6-3.62,6.43c0,3.59,3.78.94,10.13-7.13,5.53-7,8.1-9.22,13.6-11.68,3.73-1.68,6.88-3.05,7-3.05a22.36,22.36,0,0,1,.17,4.62,10.71,10.71,0,0,1-2.51,7.31C381.49,216.49,380.66,219.89,382.14,223.75ZM300,212.41q-.63-1.51-12.2-2.92c-6.31-.77-12.87-1.88-14.43-2.46-2.79-1-2.75-1.08,1.81-2.39,2.59-.75,10.41-2.18,17.53-3.22s13.07-2.06,13.33-2.3c1.43-1.35-1.52-4.07-5.61-5.17-4.67-1.26-4.75-1.36-3-4.1,1.26-1.94,3.69-3.2,7.9-4.09,10.57-2.25,38.09-4.89,59.25-5.67l20.45-.76,7.6,3.86A60.61,60.61,0,0,0,405.48,188l5.26,1-5,.12c-2.8.06-7.89,1.46-11.51,3.16-6.11,2.86-6.9,2.95-13.44,1.69A99,99,0,0,1,369,191c-3.62-1.28-5.19-1.36-6.43-.34-2.48,2.07,0,4.1,7,5.72,9.35,2.17,10.17,3,4.67,4.62-3.9,1.17-6.31,1.06-14.49-.64-16.25-3.37-17.72-3.45-17.23-.88.3,1.57,2.45,2.61,8.52,4.15,4.44,1.11,8.66,2.2,9.3,2.39s-2,1.53-5.85,3c-6.87,2.58-7.19,2.59-15.72.7a80.54,80.54,0,0,1-14.08-4.5c-5.85-2.79-8.07-2.79-8.07,0,0,2,10.17,7,16.72,8.19,2.45.45,4,1.19,3.5,1.65-2,1.79-12.47,4.6-13.67,3.66-2.11-1.65-12.11-4.78-12.86-4-1.72,1.73-.35,4.11,3,5.27s3.47,1.38,1.52,2.09c-3.6,1.34-23.26,4.7-37.4,6.4-7.13.86-13.25,1.6-13.73,1.67s-.88-.12-.88-.47c0-1.29,11.92-6.45,22.91-9.93C299.36,215.38,300.88,214.6,300,212.41Zm92-58.2c.4.64,4.47,3.37,9.14,6.13l8.41,5-5.84.7c-3.18.38-9.17.78-13.15.87-5.84.15-7.3-.17-7.3-1.57C383.27,160.87,390.48,151.72,392,154.21Zm-16.34,1.16c-4.79,0-4.92-.1-5.6-4.32-.39-2.34-.44-4.6-.12-4.91.64-.65,14.49,1.87,15.42,2.81.33.32-.59,1.87-2.1,3.5C381.22,154.68,379.41,155.37,375.67,155.37Zm123.19-7c1.62,0,2.57-1.64,4.09-7,1.95-6.9,2.06-7,6.08-7,3.73,0,4.3.47,6.49,5.37,3.49,7.84,2,12.79-5.32,17.74-5.85,3.94-11.76,4.88-17.3,2.75-1.53-.6-4.26-3-6-5.35l-3.21-4.27,2.4-4.91c3.62-7.36,9.65-14.38,12-13.94,2.49.49,2.5.73.35,8C496.17,147.19,496.23,148.36,498.86,148.36Zm-17.24-4.5c-2.85,6.08-3.35,6.56-6.31,6-2.69-.49-3.21-.2-3.21,1.76,0,1.68,1.22,2.75,4.38,3.85l4.38,1.52-4.09.76c-8,1.48-9.81.95-30.27-9.05l-20.57-10.06,7.6-1.49c15.66-3.06,21.23-3.18,26.3-.56s15.78,3.22,21.14,1.16c1.76-.67,3.29-1.06,3.46-.86S483.32,140.24,481.62,143.86Zm-42.25,6.84c9.7,4.79,17.53,9,17.53,9.46s-4.5,1.2-9.88,1.64c-9.46.79-10.19.67-17.64-2.8-4.33-2-8.24-3.34-8.82-3-2.31,1.41-.94,4.18,2.68,5.47,3.86,1.36,3.86,1.36.94,2.19-4.8,1.37-5.14,1.26-15.9-4.9-14.26-8.16-14.56-8.53-9.7-11.53,7-4.31,23.26-8.6,23.26-6.13C421.84,141.63,429.67,145.91,439.37,150.7Zm-17.94,52.07a12.84,12.84,0,0,1-1.93-3.8c0-.51,3.33-3.18,7.31-5.85,5.26-3.53,9-5.13,13.44-5.72,5.49-.73,6.06-.61,5.43,1.17-.39,1.1-2.69,3-5.14,4.25-4.91,2.5-8.18,6.41-8.18,9.77,0,1.75-8.65,13.56-9.94,13.56-.19,0-.07-2.34.3-5.26C423.17,207.15,422.8,204.8,421.43,202.77Zm-.94-11.28c-2.57,2.08-2.89,2.09-5.08.29-1.28-1.06-2.55-2.06-2.8-2.22s2-.29,5.08-.29h5.55ZM414.27,204c3.67,5.37,3.66,6.44-.1,10.86-4.22,5-8.69,4.91-13.84-.23s-6.85-8.5-5.95-11.34c.84-2.65,7.59-7,10.86-7s6.08,1.18,6.08,2.46C411.32,199.24,412.68,201.66,414.27,204Zm-2.94,21c0,.8-11.93,8.22-15.09,9.35-5.84,2.1-6.1,2-4.6-1.28.75-1.64,1.95-2.93,2.73-2.93s2.59-1.28,4.1-2.92c2.16-2.35,3.67-2.86,7.77-2.63C409,224.78,411.33,225,411.33,225Zm-1.06,13-4.79-2.68,7.83-5.79a152.79,152.79,0,0,0,13.79-11.69l6-5.9,4,4.5c3.29,3.68,5.09,4.65,9.76,5.32l5.72.82-17.4,9.06c-9.59,5-18,9.05-18.76,9.05S413,239.51,410.27,238ZM443,213.7c-4.55-4.24-5.21-7.75-2.17-11.57q6.62-8.31,19.94-4.62l4.44,1.23-.35,6.66-.35,6.66-5.26,2C452,216.85,446.24,216.72,443,213.7ZM452.57,188c2.09-3.34,6.3-2.92,7,.7.58,3.13-.66,3.6-5.8,2.22C451.52,190.3,451.36,189.9,452.57,188Zm21.51,5.14c-2.69.26-5.49.55-6.19.65s-1.91-1.93-2.63-4.38c-1.55-5.27-.94-7.63,3.11-12q5.47-6,10.66-.47c2.48,2.63,2.56,3.21,1.3,9.29L479,192.66Zm2.69-25.28c-4.67-1-10.71,1.51-13.57,5.53-5.64,7.94-5.13,7.69-17.4,8.55-6.48.44-18.47.83-26.88.86-14.38.05-15.59-.12-22.44-3.27-4-1.83-8.07-4.26-9.06-5.38-1.71-1.93-1.11-2.08,10.81-2.83,17.77-1.12,56-5.2,72.23-7.71,12.27-1.9,14.09-1.94,16.48-.39,4.34,2.83,16.48,3.32,22,.9a31.75,31.75,0,0,1,9.53-2.3c4.79-.23,4.85-.18,5.31,4.27.44,4.21.2,4.59-3.67,5.84a88.81,88.81,0,0,0-9.42,3.92A45.57,45.57,0,0,1,500,179.22c-2.92.44-6.39,1.58-7.6,2.49-3.17,2.4-3.59,2.18-4.45-2.26C487,174.42,481.61,168.83,476.77,167.84Zm54.7-39.29c-2.68-3.85-4.54-7.43-4.1-7.85,1-.92,10.53,2.18,17.42,5.63,7.67,3.83,7.13,11.16-1.17,16-5.38,3.13-10.25,3.23-15.07.29a30.63,30.63,0,0,1-6.84-6.41c-3.13-4.09-3.16-4.27-1.11-6.55,1.15-1.29,2.44-2.34,2.86-2.34s2.67,2.58,5.1,5.85c4.26,5.72,7.82,7.59,7.82,4.09C536.38,136.37,534.14,132.41,531.47,128.55ZM718,95.23l7-2.85.64,7.89a42.9,42.9,0,0,0,3.1,12.91l2.45,5-2.57-.62c-7-1.69-18-2.15-18.8-.78-1.47,2.42.92,3.29,14.24,5.1,8.89,1.22,15,2.75,19,4.77,3.27,1.66,5.89,3.24,5.89,3.57s-8.23.45-18.4.29c-15.66-.25-18.41,0-18.41,1.46s2.46,1.9,12.27,2.51l14,.88q1.7.12-1.7,3.62c-3.19,3.31-3.91,3.51-12.56,3.51-8.06,0-9.13.24-8.82,2,.27,1.62,1.75,2.12,7,2.38,7.25.37,7.34.43,5.6,3.76a34.37,34.37,0,0,0-2,8l-.87,5.73-6.43-1.64c-16.93-4.31-24.8-14.61-24.84-32.49C693.71,111.67,700,102.54,718,95.23Zm73.74,21.93-3.15-2.69,3.14-4.09c5.54-7.25,6.91-7.27,9.78-.12,2.59,6.43,4.45,8.15,7.53,7,2.89-1.1,3.12-4.06.75-9.43-2.47-5.61-1.76-6.82,3.58-6,2.21.33,3,1.68,4.51,7.76,2.06,8.3,4.87,11.16,7.91,8.07,1.64-1.68,1.64-2.64,0-9.06L824,101.38l3,.75c12.16,3,12.16,3,11.62,6.26-.29,1.73-1.23,5.67-2.1,8.71-1.23,4.32-1.26,5.86-.17,7,1.9,1.9,4.07-.58,5.8-6.66a26.21,26.21,0,0,1,2.91-6.78c1.46-2,1.92-1.85,6.48,1.46,2.69,2,4.91,4.23,4.91,5s-2.92,3.21-6.43,5.32c-5,3-6.42,4.46-6.42,6.66,0,4.58,4.55,4.88,11.21.75l5.73-3.56,1,3.39a20.23,20.23,0,0,1,.24,7.66c-.61,3.39-1.17,4.1-2.75,3.45-12.38-5-15.91-5.09-15.21-.24.34,2.32,3.88,4.73,12.06,8.26.62.27-.65,2.32-2.75,4.42s-4.15,3.36-4.44,2.63-2.07-3.73-4-6.78c-2.64-4.2-4-5.41-6-5.15-3.85.52-4,4.57-.34,10.76,2.62,4.44,2.77,5.24,1.1,5.85a16.76,16.76,0,0,1-4.67.7c-2.3,0-2.86-.7-3.46-4.32-1.64-9.94-2.06-11.55-3.59-14s-1.43-2.69.1-2.69c2.45,0,5.26-4.67,5.26-8.76,0-9.82-14.09-12.2-17.32-2.93-1.55,4.44-.12,8.57,3.87,11.25,2.34,1.57,2.65,2.28,1.58,3.54-.86,1-1.11,4.32-.7,9.23.54,6.43.36,7.55-1.11,7a13.15,13.15,0,0,0-3.62-.67c-4.57-.07-5.09-1.72-2.59-8.15s2.25-9.88-.8-11c-2.56-1-4.74,1.12-8.07,7.77-1.52,3.05-3.34,5.62-4,5.62s-3.15-1.8-5.49-3.92l-4.33-3.92,7.95-2.64c8.18-2.73,11.94-6.26,10.52-9.86-1.25-3.17-5.49-3.25-14.84-.26-4.91,1.56-9.17,2.54-9.53,2.19s-.64-3.21-.64-6.37c0-5.26.18-5.63,2.22-4.51,3.51,1.92,5.7,1.52,7.25-1.33C794.7,120.22,794.44,119.44,791.75,117.16Zm-24.31,32.33c4.1-.68,7.72-1,8-.78s-3.68,2.66-8.83,5.32c-10.17,5.28-11.65,6.63-9.58,8.71,1.07,1.07,3.92.06,12-4.27l10.58-5.67,2.39,2.4c2.11,2.1,2.21,2.62.86,4.26-1.69,2-10.38,6.75-15.17,8.2-4.56,1.38-6.14,3-4.65,4.78,1.79,2.14,13.76-2.06,20.54-7.22,4.33-3.29,5.67-3.78,7.54-2.77,1.28.69,2.28,1.53,2.28,1.93,0,1.57-7.45,14.37-10.55,18.11a34.1,34.1,0,0,1-9.55,7.22c-6.78,3.37-13.5,3.84-19.29,1.35-5.49-2.36-13.36-10-15.75-15.23-2.54-5.61-2.79-15.5-.54-20.92s9.4-12.26,15.71-15.06c5.61-2.47,18.89-4.22,18.91-2.47a20.3,20.3,0,0,0,.72,3.56c.62,2.22.12,2.6-4.32,3.27-12.38,1.88-12.74,2-12.74,4.27C756,151.1,757.16,151.21,767.44,149.49Zm20.46-54c-2,3-4,2.34-12.39-4.29-4.21-3.32-8.43-6-9.47-6-4,0-1.4,3.8,6.9,10.06,5.6,4.24,8.42,7.11,8,8.17s-1.12,1.64-1.75,1.64-5.67-3.45-11.16-7.6c-7.95-6-10.4-7.31-11.68-6.24-2.16,1.78-.83,3.22,10.63,11.55,4.79,3.49,8.79,7.07,8.82,7.9.13,3.19-3.68,2.63-14.55-2.15-9.24-4.06-11.52-4.68-12.33-3.34a2.09,2.09,0,0,0,.41,2.87c1,.88,19.63,9.45,22.55,10.38a11.75,11.75,0,0,1-.34,3.28c-.48,2.57-1.2,3.2-3.63,3.14-9.46-.24-24.8-7.58-29.14-14-5.5-8.06-4.8-17.44,1.84-24.77,5.75-6.37,12.11-9.07,21.69-9.23,6.55-.11,8.65.4,13.91,3.37C783.69,84.54,789.84,92.54,787.9,95.53ZM512,185.82l-2.39-4.62,9.41-3.62c8.18-3.15,9.89-3.45,13.09-2.34,2,.72,8.36,1.6,14.2,2l10.52.7-21,10.34c-11.57,5.69-21.45,10.35-22,10.35s-.59-1.87-.18-4.1C514.2,191.53,513.77,189.21,512,185.82Zm8.46-31.15c.39-1,1-3.15,1.42-4.67a7.31,7.31,0,0,1,1.06-2.81,66.9,66.9,0,0,1,7.47,3.06c.2.11-.57,1.62-1.64,3.25C526.46,157,519.17,158,520.46,154.67Zm17.2,13.45c-3.27-.71-6-1.77-6-2.34a1.29,1.29,0,0,1,1.34-1.06c.75,0,21.1-2.88,45.29-6.42s58.37-8,76-10c13.95-1.55,26.52-3,32-3.78a29.82,29.82,0,0,0,1.77,4.78,31.66,31.66,0,0,0,2.2,3.68,7.74,7.74,0,0,1-1.69.52c-1.76.39-18.87,1.74-38,3-34.12,2.25-45.58,3.88-54.35,7.77C587.85,168,548.88,170.54,537.66,168.12ZM720.46,179a45,45,0,0,0-2.14,4.76c-5.19-3.86-10.87-11.12-14.14-18.17a49.76,49.76,0,0,0,7.28,3.08c5.14,1.7,10.08,3.09,11,3.09C723.61,171.74,723,173.84,720.46,179ZM688.32,109.8a24.31,24.31,0,0,0-2.77,9.62l-9.91,2.47c-12,3-22.72,5.43-23.85,5.43-1.88,0-1.89-.23-.15-2.92,2.06-3.15,1.5-6.42-1.08-6.42-.89,0-8.18,2.71-16.12,6s-17.4,7-20.92,8.13l-6.61,2.16a10.34,10.34,0,0,1,.41-2.57c.32-1.47,2.16-4,4.15-5.79,2.45-2.17,3.31-3.77,2.74-5.14-.85-2.07-.11-2.12-17.64,1.25-13.21,2.53-36.47,3.55-40.91,1.78l-3.51-1.39,7-2.89c10.41-4.28,26-8.16,44.42-11.11,14-2.22,20.92-2.61,47.92-2.66,15.74,0,32,.31,38.62.78A34.53,34.53,0,0,0,688.32,109.8Zm-88,18.34c-1.27,1.27-35.65,9.1-42,9.56-1.53.11-2-.73-1.87-3.65l.12-3.8L569,130a203.81,203.81,0,0,0,22.61-1.81C599.9,126.92,601.54,126.91,600.31,128.14ZM575,140.59c16.59-4.07,18-4.24,19.28-2.4a5.77,5.77,0,0,0,4.32,2c5,0,19.64-4.21,32.26-9.25,6.54-2.62,12.16-4.77,12.45-4.77s.68,1.46.88,3.21c.33,3.09.58,3.21,6.78,3.07,4-.09,22.72-4,34.38-7,0,1.26,0,2.64,0,4.21,0,4.36.05,7.44.24,9.87-6.08,1.15-17.32,2.36-38.35,4.76-20.12,2.31-53.41,6.74-74,9.86s-37.8,5.72-38.27,5.78-.88-.35-.88-1.05c0-1.83,7.37-6.83,15.42-10.47C553.64,146.52,565.13,143,575,140.59Zm-70,57.5c-2.8,2.77-8.65,5.85-11.93,6.28-.38,0-2-2-3.73-4.53l-3-4.61,5.37-4.72c6-5.23,10.9-6.18,14.61-2.8C509.26,190.48,508.79,194.27,504.94,198.09Zm-16.65,18.12,4.49-4.62,3.51,2.15c4.79,2.94,7.36,6.92,7.36,11.41,0,6.43-4.89,9.15-10.87,6.06-3.74-1.94-9-7.12-9-8.87C483.78,221.5,485.77,218.78,488.29,216.21Zm308.58-25.77c.73-4,2.35-10.64,3.65-14.85,2.19-7.13,2.52-7.55,5.31-6.84,1.65.43,4.5,1.08,6.38,1.47s3.39,1,3.39,1.4-1.71,6.14-3.75,12.68c-2.7,8.65-3.38,12.34-2.45,13.27,2.28,2.28,3.41.35,7.47-12.86,3.2-10.4,4.41-13,6.15-13,2,0,2.09.64,1.34,8.47-.45,4.67-1.31,11.09-1.9,14.31-1.16,6.32,0,9,3,6.52,1-.88,2.15-6.16,3.09-14.69L830,173l4.56-.75c2.45-.42,4.88-.44,5.26-.07,1,1,2.55,10.17,2.62,15.78.16,14-7.9,27.61-18,30.38C806,223.38,793.25,210.42,796.87,190.44ZM889.11,194a23.25,23.25,0,0,1-10.05,2.25C866.15,196.11,857,188,853,173c-2.34-8.65,0-8.41,9,.94,7.54,7.83,12,10.32,12,6.66,0-.84-3.5-5-7.83-9.29-7.13-7.08-7.66-7.94-6-9.64s2.69-1.2,10.52,5.21c8.53,7,12.62,8.78,12.62,5.54,0-.83-4-4.79-8.76-8.73-12.75-10.47-11.8-13.52,2.22-7.2,6.07,2.74,7.84,3.12,8.85,1.9,1.67-2,.15-3.28-8.74-7.22-8.18-3.62-7.76-3.28-6.87-5.63s5.59-2.39,15.52-.08c13.45,3.12,19.48,9,20.81,20.18a16.61,16.61,0,0,1-1.82,11C901.09,183.78,894.44,191.23,889.11,194Zm19.75-65.77-13.68-.3,4.74-5c4.58-4.81,5-5,12.1-5,8.41,0,11.1-.74,11.1-3,0-1.86-.59-2-9.59-1.64l-6.66.24,2.34-6.19c1.73-4.58,2.25-8.3,2-14.26L910.85,85l4.67.75c13,2.09,23.89,15.84,31.11,39.22,3.73,12,3.77,29.36.11,38.57-3.58,9-11.76,19-18,22.07-4.79,2.34-12,3.08-16.13,1.67-.93-.32-2.4-.79-3.15-1-1-.3-.77-1.81.87-5.44A30.68,30.68,0,0,0,912.6,169v-6.84l3.86.9c6.19,1.43,7.25,1.27,7.25-1.13,0-1.75-1.35-2.53-6.38-3.68-3.5-.81-6.58-2.09-6.83-2.87a30,30,0,0,0-4.09-5.49l-3.62-4.09,5.19.87c2.85.49,8,1.6,11.4,2.47,8,2,8.42,2,8.42-.65s-12.28-6.29-31.09-8.95c-7-1-13.53-2.13-14.5-2.53-2.6-1.08,10.53-2.36,25.95-2.52,9.47-.1,13.93-.6,14.8-1.66C925.64,129.53,922.53,128.53,908.86,128.21Zm212.58,5c2.43-3.27,4.68-5.85,5.1-5.85s1.71,1.05,2.86,2.34c2,2.28,2,2.46-1.11,6.55a30.42,30.42,0,0,1-6.84,6.41c-4.82,2.94-9.69,2.84-15.07-.29-8.3-4.84-8.83-12.17-1.17-16,6.89-3.45,16.47-6.55,17.42-5.63.44.42-1.41,4-4.1,7.85s-4.9,7.82-4.9,8.71C1113.63,140.76,1117.18,138.89,1121.44,133.17Zm14.92,61.35c.41,2.23.33,4.1-.18,4.1s-10.4-4.66-22-10.35l-21-10.34,10.52-.7c5.84-.39,12.15-1.27,14.2-2,3.2-1.11,4.91-.81,13.09,2.34l9.41,3.62-2.39,4.62C1136.23,189.21,1135.8,191.53,1136.36,194.52Zm-82.57-30.25c-8.77-3.89-20.23-5.52-54.35-7.77-19.16-1.26-36.27-2.61-38-3-2.81-.61-3.22-1.28-3.22-5.37,0-4.33.2-4.63,2.69-4,1.48.35,17.12,2.24,34.77,4.2s51.84,6.46,76,10,44.55,6.42,45.29,6.42a1.28,1.28,0,0,1,1.34,1.06c0,.57-2.69,1.63-6,2.34C1101.12,170.54,1062.15,168,1053.79,164.27Zm67.44-10.77c-1.07-1.63-1.83-3.14-1.64-3.25a66.24,66.24,0,0,1,7.48-3.06,7.38,7.38,0,0,1,1,2.81c.38,1.52,1,3.66,1.42,4.67C1130.83,158,1123.54,157,1121.23,153.5Zm-20.69-5.09c8.06,3.64,15.42,8.64,15.42,10.47,0,.7-.35,1.12-.87,1.05s-17.71-2.67-38.28-5.78-53.86-7.55-74-9.86c-48.27-5.52-45.06-4.73-46-11.36a66.44,66.44,0,0,0-1.58-8c-.65-2.11-.44-2.49,1-1.91,6.43,2.47,37.44,9.3,42.77,9.42,6.2.14,6.45,0,6.79-3.07.19-1.75.59-3.21.87-3.21s5.91,2.15,12.45,4.77c12.62,5,27.28,9.25,32.26,9.25a5.77,5.77,0,0,0,4.32-2c1.3-1.84,2.69-1.67,19.28,2.4C1084.87,143,1096.36,146.52,1100.54,148.41Zm-42.13-20.21A203.42,203.42,0,0,0,1081,130l12.39.24.12,3.8c.09,2.92-.34,3.76-1.87,3.65-6.31-.46-40.69-8.29-42-9.56S1050.1,126.92,1058.41,128.2Zm35.93-4.39c-4.44,1.77-27.7.75-40.9-1.78-17.54-3.37-16.8-3.32-17.65-1.25-.57,1.37.29,3,2.74,5.14,2,1.76,3.83,4.32,4.15,5.79a10.34,10.34,0,0,1,.41,2.57l-6.6-2.16c-3.52-1.16-13-4.82-20.92-8.13s-15.24-6-16.13-6c-2.58,0-3.14,3.27-1.08,6.42,1.74,2.69,1.73,2.92-.15,2.92-1.13,0-11.81-2.43-23.84-5.43l-21.8-5.43-1.75-4.39-1.76-4.38,9-1c4.93-.55,23.08-1,40.5-.94,27,0,33.91.44,47.91,2.66,18.47,3,34,6.83,44.42,11.11l7,2.89Zm49.44,63.9c3.72-3.38,8.65-2.43,14.61,2.8l5.37,4.72-3,4.61c-1.69,2.58-3.35,4.58-3.73,4.53-3.28-.43-9.13-3.51-11.93-6.28C1141.21,194.27,1140.74,190.48,1143.78,187.71Zm9.93,26,3.51-2.15,4.5,4.62c2.51,2.57,4.5,5.29,4.5,6.13,0,1.75-5.26,6.93-9,8.87-6,3.09-10.87.37-10.87-6.06C1146.35,220.66,1148.92,216.68,1153.71,213.74Zm8.31-34.29c-.86,4.44-1.28,4.66-4.45,2.26-1.21-.91-4.68-2.05-7.6-2.49a45.57,45.57,0,0,1-10.63-3.39,89.59,89.59,0,0,0-9.41-3.92c-3.88-1.25-4.12-1.63-3.68-5.84.46-4.45.52-4.5,5.31-4.27a31.75,31.75,0,0,1,9.53,2.3c5.49,2.42,17.63,1.93,22-.9,2.4-1.55,4.21-1.51,16.49.39,16.22,2.51,54.45,6.59,72.22,7.71,11.92.75,12.52.9,10.81,2.83-1,1.12-5.08,3.55-9.06,5.38-6.85,3.15-8.06,3.32-22.43,3.27-8.42,0-20.41-.42-26.89-.86-12.27-.86-11.76-.61-17.4-8.55-2.86-4-8.9-6.48-13.57-5.53C1168.39,168.83,1163,174.42,1162,179.45Zm-10.41-39.74c-2.15-7.25-2.14-7.49.35-8,2.32-.44,8.35,6.58,12,13.94l2.41,4.91-3.22,4.27c-1.76,2.34-4.48,4.75-6,5.35-5.54,2.13-11.45,1.19-17.3-2.75-7.32-4.95-8.81-9.9-5.32-17.74,2.19-4.9,2.76-5.37,6.49-5.37,4,0,4.13.11,6.08,7,1.52,5.37,2.48,7,4.09,7C1153.77,148.36,1153.83,147.19,1151.61,139.71Zm115.12,25.6c0,1.4-1.46,1.72-7.3,1.57-4-.09-10-.49-13.15-.87l-5.84-.7,8.41-5c4.67-2.76,8.74-5.49,9.14-6.13C1259.53,151.72,1266.73,160.87,1266.73,165.31Zm-2.1-16.36c.93-.94,14.78-3.46,15.42-2.81.32.31.27,2.57-.11,4.91-.69,4.22-.82,4.32-5.61,4.32-3.74,0-5.55-.69-7.6-2.92C1265.22,150.82,1264.3,149.27,1264.63,149Zm-22.91,9.83c-10.75,6.16-11.09,6.27-15.9,4.9-2.92-.83-2.92-.83.94-2.19,3.62-1.29,5-4.06,2.69-5.47-.59-.36-4.5,1-8.82,3-7.45,3.47-8.19,3.59-17.65,2.8-5.38-.44-9.88-1.19-9.88-1.64s7.83-4.67,17.53-9.46,17.53-9.07,17.53-9.58c0-2.47,16.25,1.82,23.26,6.13C1256.29,150.25,1256,150.62,1241.72,158.78Zm-38.22-10.06c-20.45,10-22.24,10.53-30.27,9.05l-4.09-.76,4.38-1.52c3.16-1.1,4.38-2.17,4.38-3.85,0-2-.52-2.25-3.21-1.76-3,.54-3.46.06-6.31-6-1.7-3.62-3-6.76-2.8-7s1.69.19,3.45.86c5.37,2.06,16.06,1.47,21.14-1.16s10.64-2.5,26.3.56l7.6,1.49Zm46.17,65.91c-5.14,5.14-9.61,5.22-13.84.23-3.76-4.42-3.76-5.49-.1-10.86,1.6-2.34,3-4.76,3-5.26,0-1.28,2.92-2.46,6.08-2.46s10,4.36,10.86,7C1256.52,206.13,1254.69,209.61,1249.67,214.63Zm8.69,18.47c1.5,3.3,1.24,3.38-4.6,1.28-3.16-1.13-15.13-8.55-15.09-9.35,0-.06,2.29-.25,5.09-.41,4.1-.23,5.61.28,7.78,2.63,1.5,1.64,3.3,2.92,4.09,2.92S1257.61,231.46,1258.36,233.1Zm-31.08-22.21c.37,2.92.49,5.26.3,5.26-1.29,0-9.94-11.81-9.94-13.56,0-3.36-3.27-7.27-8.18-9.77-2.45-1.26-4.75-3.15-5.14-4.25-.63-1.78-.06-1.9,5.44-1.17,4.41.59,8.17,2.19,13.44,5.72,4,2.67,7.3,5.34,7.3,5.85a12.58,12.58,0,0,1-1.93,3.8C1227.2,204.8,1226.83,207.15,1227.28,210.89Zm2.23-19.4-2.75-2.22h5.55c3,0,5.34.13,5.08.29s-1.52,1.16-2.8,2.22C1232.4,193.58,1232.08,193.57,1229.51,191.49Zm-33.26-.59c-5.13,1.38-6.38.91-5.8-2.22.68-3.62,4.89-4,7-.7C1198.64,189.9,1198.48,190.3,1196.25,190.9Zm-25.28-14q5.17-5.49,10.66.47c4,4.41,4.67,6.77,3.11,12-.72,2.45-1.93,4.47-2.62,4.38s-3.51-.39-6.2-.65l-4.91-.46-1.34-6.49C1168.41,180.09,1168.49,179.51,1171,176.88Zm19.79,37.19-5.26-2-.35-6.66-.35-6.66,4.44-1.23q13.34-3.69,19.94,4.62c3,3.82,2.38,7.33-2.17,11.57C1203.76,216.72,1198,216.85,1190.76,214.07Zm12.39,7.69c4.68-.67,6.47-1.64,9.76-5.32l4-4.5,6,5.9a152.79,152.79,0,0,0,13.79,11.69l7.84,5.79-4.8,2.68c-2.69,1.51-5.38,2.69-6.14,2.69s-9.17-4.07-18.75-9.05l-17.41-9.06Zm35.19,25.87c2.3-5.21,11-8.62,17.29-6.17,1.69.66,3.34,3.19,4.33,6.17Zm49.43-94.71c0-3.51,5.4-16.09,7.59-17.69,2-1.45,8.77-1,12.27.83,9,4.67,11.46,21.1,3.74,25C1302.38,165.69,1287.77,160.63,1287.77,152.92Zm-24.08-21.31c13.54-9.58,24.9-15,39.86-18.84,17.76-4.61,25-3.72,13.44,1.67-3.86,1.79-5.85,3.47-5.85,4.94,0,3.12,3.63,2.78,22-2.08,11.81-3.12,18.51-4.25,25.48-4.29,15.55-.1,17.17,3.1,3.4,6.68-3.75,1-7.38,2.27-8,2.84-2.66,2.66.94,3.64,13.56,3.67,14.15,0,27.45,1.53,32.73,3.66,4,1.61,3.15,2.52-4.09,4.45-6.32,1.68-9,3.9-6.55,5.48.83.53,7.6,1.86,15,2.94,17.42,2.55,28,6.06,28,9.25,0,.52-5.9,1.1-13.15,1.29-11.92.32-13.15.55-13.15,2.51,0,1.67,2.17,3,9.3,5.61a103.71,103.71,0,0,1,9.87,4c.94.89-2.57.29-7.48-1.28-2.57-.82-9.52-2.43-15.48-3.59s-10.81-2.4-10.81-2.75,1.87-1.85,4.09-3.28c4-2.57,5.28-5.31,3.15-6.64-.57-.36-4.21,1.56-8,4.19-6.31,4.44-7.44,4.83-13.32,4.62-3.5-.13-6.85-.66-7.36-1.17s1.52-2.48,4.44-4.32c5.73-3.61,6.08-4.17,3.86-6.07-1.12-.95-3.86.22-10.29,4.37-8.65,5.6-8.86,5.66-15.78,4.91l-7-.76,6.19-4.13c5.73-3.82,7.33-6.79,4.22-7.83-.72-.23-5.32,2.47-10.23,6-7.72,5.55-9.48,6.34-12.8,5.78-3.51-.58-3.81-.94-3.37-4,.56-4-2.41-8.06-5.87-8.06-1.15,0-4.58-2.57-7.62-5.73-8.88-9.2-18.78-10.42-28.37-3.5-2.57,1.86-4.68,3.75-4.7,4.2-.07,2.76-3,4.25-11.19,5.68-11.81,2.07-13.31,2-16.6-.48l-2.69-2Zm-13.43-16.44c4.19,4.79,4.53,7.74,1.28,11-3,2.94-8,2.92-11.69,0a10.58,10.58,0,0,0-5.38-2.31,7.08,7.08,0,0,1-4.57-2.34c-2.81-3.11-1.15-6.86,4.34-9.85S1245.62,109.86,1250.26,115.17ZM1227,80.57c1.66-3,8-5.84,13.22-5.84,8,0,10.49,8.1,4.44,14.14-2.64,2.65-4.44,3.39-8.18,3.39-4.32,0-5.09-.44-7.83-4.56C1226.06,83.85,1225.8,82.75,1227,80.57Zm-26.15,25.48c-.79-1.75.39-2.69,7.05-5.61,4.45-1.94,9.44-4.26,11.23-5.2,3-1.58,3.5-1.5,7.48,1.17,2.33,1.57,5.63,2.89,7.3,2.92,2.87.06,2.8.16-1.06,1.83-11.44,5-17.34,17-11.78,24.06,2.2,2.81,2.2,2.81,0,4.21a7.55,7.55,0,0,1-3.74,1.21L1204,129l-4.91-.62,1.78-4.2C1202.67,119.84,1202.66,110.1,1200.83,106.05Zm-16.73-2.44c5.14-.22,6.08.15,9.17,3.61,5.74,6.44,4.55,12.86-4.06,21.86-2.82,2.95-4.17,3.43-10.49,3.7-6.89.29-11-.68-16.83-4l-2.57-1.47,2.4-4.08a25.08,25.08,0,0,1,2.69-4.09c.15,0,2.63.8,5.43,1.78,6,2.07,8.41,1.44,7.86-2-.27-1.78-2.07-3.1-6.52-4.79-3.38-1.29-6.13-3-6.13-3.86C1165.05,108.15,1177.2,103.9,1184.1,103.61Zm-33-23.38a31.91,31.91,0,0,1,4.36-5.79c2.56-2.72,4-3.21,9.11-3.21,6.89,0,11.5,2.84,14,8.64,1.85,4.33,0,9.82-5.11,15.2a29,29,0,0,1-7.26,5.26c-4.09,2-4.19,1.94-7.13-1.23l-3-3.22,4.5-3c2.45-1.63,4.5-3.51,4.5-4.15,0-2.79-3.74-2.33-8.65,1a35.4,35.4,0,0,1-6,3.62C1149.26,93.43,1149.8,82.8,1151.11,80.23Zm-1.72,21.63c8.77,2.87,10.65,14,3.5,20.71-3.15,3-11.33,4.29-15.54,2.5-3.59-1.52-7.36-7.91-7.36-12.47,0-2.75,1-4.66,4-7.21C1139,101,1143.54,100,1149.39,101.86Zm-23-33c7,0,13.8,8.88,15.82,20.69.57,3.26.33,3.85-1.56,3.85a14.34,14.34,0,0,0-4,.7c-1.3.5-2.56-.82-4.45-4.67-2.53-5.14-4.74-6.63-6.28-4.21-.36.58.41,3.16,1.73,5.73a27.9,27.9,0,0,1,2.4,5.61c0,2.08-4.21,3.61-6.55,2.36-6.66-3.53-12.15-11.21-12.15-17C1111.29,75.59,1119,68.89,1126.36,68.89Zm-24.42,28.24c7.47.54,19.86,6,19.86,8.81,0,1.4-1,1.59-5,.93-2.69-.44-5.5-.9-6.14-1s-1.17.87-1.17,2.16c0,1.84,1.24,2.6,5.79,3.56l5.79,1.23-8.24,2.93-8.24,2.92-5.47-6.32C1089.67,101.42,1090.6,96.3,1101.94,97.13ZM982.14,63.52c12.15-3.75,15.62-4.35,26-4.44,14.6-.13,18.39,1.8,7.83,4-15,3.1-15.67,3.38-15.67,6.29,0,1.51.68,3.07,1.47,3.39s6.95.07,13.61-.54c15.66-1.44,29.35.12,37.52,4.28,4.21,2.14,5.85,3.62,5.58,5-.36,1.94-3.82,2.91-20.19,5.67-4.09.69-6,1.59-6.22,3-.51,2.64,1.43,3.39,20.25,7.79a120.43,120.43,0,0,1,27.17,9.39c6.55,3.19,12,6.11,12,6.43,0,.82,0,.82-4.67-1.22-11.41-5-44.65-12.11-56.34-12.11-4.21,0-4.31-.09-3.62-3.5.91-4.56-2.21-4.85-5.11-.47-1.95,2.93-2.32,3-10.26,2.22-4.56-.45-8.43-1-8.65-1.22s.74-2.29,2.11-4.5c2.51-4.1,2.36-6.55-.41-6.55-.78,0-2.9,2.57-4.74,5.72-3.13,5.39-3.68,5.77-9.29,6.43-7.83.92-15.9.87-15.9-.11a22.67,22.67,0,0,1,2.52-4.68c1.77-2.8,2.13-4.35,1.23-5.26-1.74-1.74-4,.24-7.86,6.78l-3,5.14H959a65.1,65.1,0,0,0-10.75.65c-1.78.48-2.88-.3-4.56-3.22a88,88,0,0,0-5.61-8.18l-3.39-4.33,5-3.18C949.15,76.19,968.12,67.84,982.14,63.52Zm-31-19.87c0,6.38-3.4,13-10.87,20.79a52.64,52.64,0,0,1-13.15,9.94c-6,2.93-7.49,3.23-11.27,2.22-2.46-.65-4.38-1.56-4.38-2s2.45-2.89,5.37-5.29c16-13.13,22.1-19,26.92-25.74C949.57,35.32,951.06,35.34,951.11,43.65Zm-49,21.5c4-9.94,17.21-25.2,25.56-29.52,4.79-2.47,12.8-4.35,15.31-3.58,2.14.66,1.93,1.31-2.63,7.85a97.14,97.14,0,0,1-13.73,14.61c-4.79,4.09-11.76,10.08-15.37,13.21-6.43,5.57-6.66,5.67-8.65,3.51C900.81,69.27,900.75,68.54,902.12,65.15ZM904.42,90c1,4.68,1.07,7.62.14,11-3,11.09-12.64,21.09-24.45,25.29-6.9,2.45-8.42,2.53-8.42.42,0-.9,2.81-3.23,6.2-5.15,8.18-4.65,12.26-9,10.28-11a2,2,0,0,0-2.92-.26c-4.56,3.42-15,10.06-15.29,9.73-1.13-1.29-1.77-5.61-.84-5.61.64,0,3.92-2.45,7.19-5.38,4.79-4.28,5.75-5.71,4.67-7s-2.5-.8-7.88,3.06c-7.25,5.2-8.15,5.44-10.21,2.67-1.29-1.74-.74-2.81,4.25-8.3,3.18-3.51,5.72-7,5.72-8,0-3.32-3.79-1.52-9.32,4.44l-5.75,6.2-6.49-3.45c-3.62-1.93-6.49-4.28-6.49-5.32,0-2.33,3.69-8.3,10.32-16.71,5.66-7.18,9.44-9,18.67-9,9.93,0,15.52,2.3,22.56,9.28C901.85,82.45,903.26,84.73,904.42,90ZM813.89,29.15c6-11.56,30.46-22.48,45.88-20.48,19.07,2.48,30.8,14.17,34.28,34.15,1.25,7.13.64,17.25-1.08,18.35-.53.32-3-.14-5.56-1.05a31.91,31.91,0,0,0-8.47-1.69c-4.27,0-4.49-.76-2-6.61,2.28-5.37,2.26-7.47-.09-7.47-1.16,0-3.06,2.68-5,7-2.42,5.49-3.65,7-5.67,7a19.23,19.23,0,0,0-5.73,1.22c-1.75.69-3.36,1-3.62.71s1.35-4.91,3.57-10.29,3.81-10.12,3.54-10.58c-1.44-2.38-4.24-.34-6.45,4.68-1.31,3-3.87,9.41-5.62,14.08l-3.22,8.59-.7-6.19c-.64-5.83.2-16.24,2.2-27.12.75-4.09.61-4.51-1.38-4.15-1.63.3-2.67,2.29-3.89,7.42-2,8.42-1.89,8.25-4.17,6a37.27,37.27,0,0,0-4.1-3.39c-2.13-1.46-2.15-1.75-.29-7.6,1.41-4.44,1.58-6.42.64-7.36-2-2-3.44-.47-5.07,5.49l-1.47,5.38-5.38-.75C811.62,32.59,812,32.78,813.89,29.15Zm-5.54,12.67c8.53-1.58,20,0,24.66,3.46,6.69,5,7.7,7.71,7.65,20.68,0,9.94-.56,13.29-2.92,19.17-1.59,4-3.12,7.08-3.44,7-2.81-.62-4.68-1.26-4.68-1.6s1.34-5.4,3-11.59c3.2-12,3.34-16.48.53-16.48q-1.75,0-3.26,7c-2.21,10.29-5,19.63-5.63,19-.32-.29-1.66-6.85-3-14.45-2.43-14.26-3.55-17.11-5.81-14.85-.92.93-.71,5.15.76,14.85,1.13,7.48,1.83,13.77,1.57,14s-1.87.22-3.62-.09c-3.23-.58-3.57-1.54-7.35-21.06-.75-3.86-3.63-5.19-4.8-2.22-.32.83.49,6.43,1.8,12.39,2.56,11.69,2.46,12.08-3.32,13.58-3.21.83-3.82.09-7.25-8.91-1.77-4.64-2.44-9.11-2.42-16.13C790.92,50,795.09,44.28,808.35,41.82ZM779.71,25.67q12.63,0,18.8,6.75c2.1,2.31,2.07,2.37-2.14,4.39a21.76,21.76,0,0,0-6.55,5c-1.27,1.64-2.43,2.72-2.63,2.45s-2.34-3.21-4.79-6.59-4.91-6.15-5.49-6.15c-2.87,0-1.86,4,2.75,10.76l5.08,7.48-1.17,7.66L782.4,65l-4.57-7.13C770.62,46.68,761.45,35,759.85,35c-3.2,0-2.85,2.69.93,7.37,4.73,5.84,19.78,28.05,19.32,28.51-.62.63-11.11-4.32-11.9-5.6-2-3.16-22-18.64-23.66-18.31-3.62.71-2,3,7.83,10.86,10.28,8.28,10.66,9.79,2.45,9.86-2.89,0-6.48-1.61-13.15-6S732.16,56,731.21,57c-1.77,1.78,0,3.84,7.36,8.54,3.28,2.09,5.69,4.12,5.5,4.62s-2.86,2.78-5.9,5.08c-5,3.81-5.66,4-6.67,2.1-1.92-3.63-3.29-14.14-2.44-18.7C732.55,39.9,754.35,25.72,779.71,25.67ZM707,32.05c2.51-.77,10.52,1.11,15.31,3.58A36.5,36.5,0,0,1,729,40.49a38.33,38.33,0,0,0-3.38,5.61A33.26,33.26,0,0,0,723,54.2a96.36,96.36,0,0,1-13.4-14.3C705.08,33.36,704.87,32.71,707,32.05Zm-.74,11.47c3.54,5,7.79,9.46,16.13,16.69A51.42,51.42,0,0,0,724,74.91l-1.11-.53a52.64,52.64,0,0,1-13.15-9.94c-7.47-7.82-10.91-14.41-10.87-20.79C698.94,35.34,700.43,35.32,706.27,43.52ZM570.56,107.34A120.34,120.34,0,0,1,597.74,98c18.81-4.4,20.75-5.15,20.24-7.79-.26-1.39-2.13-2.29-6.22-3-16.37-2.76-19.83-3.73-20.19-5.67-.26-1.4,1.38-2.88,5.58-5,8.17-4.16,21.86-5.72,37.52-4.28,6.66.61,12.81.85,13.61.54s1.47-1.88,1.47-3.39c0-2.91-.71-3.19-15.67-6.29-10.56-2.19-6.77-4.12,7.84-4,10.32.09,13.79.69,25.94,4.44,14,4.32,33,12.67,42.42,18.66l5,3.18L713,88.26c-6.65,3.14-14,7.55-17.12,10.61-.45.45-1,1-1.45,1.63-1.13,0-2.29-.06-3.47-.06h-8.41l-3-5.14c-3.82-6.54-6.12-8.52-7.86-6.78-.9.91-.54,2.46,1.23,5.26a22.67,22.67,0,0,1,2.52,4.68c0,1-8.07,1-15.9.11-5.61-.66-6.16-1-9.29-6.43-1.84-3.15-4-5.72-4.73-5.72-2.78,0-2.93,2.45-.42,6.55,1.37,2.21,2.33,4.27,2.11,4.5s-4.09.77-8.65,1.22c-7.94.79-8.31.71-10.25-2.22-2.91-4.38-6-4.09-5.12.47.69,3.41.59,3.5-3.62,3.5-11.69,0-44.93,7.15-56.33,12.11-4.68,2-4.68,2-4.68,1.22C558.58,113.45,564,110.53,570.56,107.34Zm-22.5-10.21c11.34-.83,12.27,4.29,2.79,15.23l-5.48,6.32-8.23-2.92-8.25-2.93,5.79-1.23c4.56-1,5.79-1.72,5.79-3.56,0-1.29-.53-2.26-1.17-2.16s-3.45.55-6.14,1c-4,.66-5,.47-5-.93C528.2,103.17,540.59,97.67,548.06,97.13Zm-40.24-7.55c2-11.81,8.82-20.69,15.82-20.69,7.36,0,15.07,6.7,15.07,13.09,0,5.76-5.49,13.44-12.15,17-2.34,1.25-6.55-.28-6.55-2.36a27.9,27.9,0,0,1,2.4-5.61c1.32-2.57,2.09-5.15,1.73-5.73-1.54-2.42-3.75-.93-6.28,4.21-1.89,3.85-3.15,5.17-4.45,4.67a14.28,14.28,0,0,0-4-.7C507.49,93.43,507.26,92.84,507.82,89.58ZM516,105.39c2.92,2.55,4,4.46,4,7.21,0,4.56-3.77,11-7.36,12.47-4.21,1.79-12.39.47-15.54-2.5-7.14-6.73-5.27-17.84,3.5-20.71C506.46,100,511,101,516,105.39ZM471.47,79.87c2.45-5.8,7.06-8.64,13.95-8.64,5.14,0,6.55.49,9.12,3.21a32.28,32.28,0,0,1,4.35,5.79c1.31,2.57,1.86,13.2.67,13.2a35.4,35.4,0,0,1-6-3.62c-4.91-3.38-8.65-3.84-8.65-1,0,.64,2.05,2.52,4.5,4.15l4.5,3-3,3.22c-2.94,3.17-3,3.19-7.13,1.23a29,29,0,0,1-7.26-5.26C471.48,89.69,469.63,84.2,471.47,79.87Zm-14.74,27.35c3.09-3.46,4-3.83,9.17-3.61,6.9.29,19.05,4.54,19.05,6.65,0,.84-2.75,2.57-6.13,3.86-4.45,1.69-6.25,3-6.52,4.79-.55,3.46,1.9,4.09,7.86,2,2.8-1,5.28-1.78,5.43-1.78a25.51,25.51,0,0,1,2.7,4.09l2.39,4.08-2.57,1.47c-5.84,3.31-9.94,4.28-16.83,4-6.32-.27-7.67-.75-10.49-3.7C452.18,120.08,451,113.66,456.73,107.22Zm-25.83-12c1.78.94,6.78,3.26,11.22,5.2,6.66,2.92,7.84,3.86,7.05,5.61-1.83,4-1.83,13.79,0,18.12l1.78,4.2L446,129l-13.32,1.65a7.55,7.55,0,0,1-3.74-1.21c-2.22-1.4-2.22-1.4,0-4.21,5.56-7.07-.33-19.1-11.78-24.06-3.86-1.67-3.92-1.77-1.06-1.83,1.67,0,5-1.35,7.31-2.92C427.39,93.74,427.9,93.66,430.9,95.24Zm-25.54-6.37c-6.05-6-3.51-14.14,4.44-14.14,5.26,0,11.56,2.79,13.22,5.84,1.18,2.18.92,3.28-1.65,7.13-2.74,4.12-3.5,4.56-7.83,4.56C409.8,92.26,408,91.52,405.36,88.87Zm-5.62,26.3c4.64-5.31,10.41-6.59,16-3.54s7.15,6.74,4.34,9.85a7.08,7.08,0,0,1-4.57,2.34,10.58,10.58,0,0,0-5.38,2.31c-3.74,3-8.74,3-11.68,0C395.21,122.91,395.55,120,399.74,115.17Zm-175.3,50.22a103.23,103.23,0,0,1,9.88-4c7.12-2.64,9.29-3.94,9.29-5.61,0-2-1.23-2.19-13.15-2.51-7.25-.19-13.15-.77-13.15-1.29,0-3.19,10.64-6.7,28.05-9.25,7.36-1.08,14.13-2.41,15-2.94,2.43-1.58-.24-3.8-6.54-5.48-7.25-1.93-8.09-2.84-4.09-4.45,5.27-2.13,18.58-3.61,32.72-3.66,12.62,0,16.22-1,13.56-3.67-.57-.57-4.21-1.87-8-2.84-13.78-3.58-12.16-6.78,3.39-6.68,7,0,13.67,1.17,25.48,4.29,18.34,4.86,22,5.2,22,2.08,0-1.47-2-3.15-5.85-4.94-11.55-5.39-4.32-6.28,13.44-1.67,15,3.89,26.32,9.26,39.86,18.84l11.1,7.87-2.68,2c-3.3,2.5-4.8,2.55-16.6.48-8.18-1.43-11.13-2.92-11.2-5.68,0-.45-2.13-2.34-4.7-4.2-9.58-6.92-19.48-5.7-28.37,3.5-3,3.16-6.47,5.73-7.62,5.73-3.46,0-6.43,4.09-5.87,8.06.44,3.09.14,3.45-3.37,4-3.32.56-5.08-.23-12.8-5.78-4.91-3.53-9.51-6.23-10.22-6-3.12,1-1.52,4,4.21,7.83l6.19,4.13-7,.76c-6.92.75-7.13.69-15.78-4.91-6.43-4.15-9.17-5.32-10.29-4.37-2.22,1.9-1.87,2.46,3.86,6.07,2.92,1.84,4.95,3.81,4.45,4.32s-3.86,1-7.37,1.17c-5.88.21-7-.18-13.32-4.62-3.74-2.63-7.38-4.55-8-4.19-2.12,1.33-.82,4.07,3.15,6.64,2.22,1.43,4.1,2.93,4.1,3.28s-4.85,1.59-10.82,2.75-12.91,2.77-15.49,3.59C227,165.68,223.5,166.28,224.44,165.39Zm137.79-12.47c0,7.71-14.61,12.77-23.6,8.18-7.72-3.94-5.26-20.37,3.74-25,3.5-1.82,10.28-2.28,12.27-.83C356.83,136.83,362.23,149.41,362.23,152.92ZM221.29,178.1c-10.29,3-20.35,3.94-20.35,1.94,0-1.73,31.68-11.6,47.11-14.68,7.83-1.57,20.58-3.41,28.28-4.08s16.65-1.52,19.87-1.88l5.84-.64-3.38,2.81c-2,1.64-3,3.39-2.53,4.21,1.3,2.1,2.88,1.64,8.72-2.58,4.64-3.35,6.89-4.1,14.49-4.82,10.52-1,11.92.49,3.74,4-2.92,1.25-5.26,2.82-5.26,3.53,0,2.53,3.86,2.67,8.65.31l4.91-2.41,3.27,2.38c3.67,2.67,13.21,4,20,2.7,2.27-.42,6.42-2.55,9.35-4.79,4-3.05,6.38-4,9.87-4,4.44,0,4.59.12,4,3.27a14.9,14.9,0,0,0,1.11,7.42l1.75,4.15-20.57.68c-34.48,1.15-61.39,5.15-68.25,10.15-3.19,2.31-18.12,5.5-27,5.76-4.09.12-4.39-.08-3.68-2.51a36.64,36.64,0,0,1,4.24-7.65c5.52-8,3.18-8.67-9.33-2.83-12.15,5.67-14.1,6.45-22.2,8.86-5.73,1.7-6,1.69-5-.19a27,27,0,0,1,4.8-5.31C241.06,175.27,236.13,173.77,221.29,178.1Zm5.25,45.54c-4.08-2.51,5.37-12.16,11.92-12.16,3.63,0,7.36,4.29,6.7,7.71S237.3,225.7,232,224.9A26.26,26.26,0,0,1,226.54,223.64Zm-1.87,20.77c-4.09,3.56-7.48,4-10,1.19-1.72-1.89-2.6-5.72-2.23-9.58.1-1,2.11-2.37,4.57-3.16,4.09-1.31,4.56-1.21,7,1.52C227.15,237.89,227.42,242,224.67,244.41Zm-4.32-45.06c6.12-.2,7.28,2.19,4.44,9.08-1.45,3.51-2.77,5.18-3.8,4.8a25.92,25.92,0,0,0-6.13-.59c-4.44,0-4.57-.1-4.57-3.85C210.29,203.59,214.62,199.53,220.35,199.35ZM233.22,246c1.9-2.87,1.89-8.06,0-12.5-.73-1.7-.32-2.11,2.12-2.11,4.1,0,10.41-2.69,13.45-5.72s3.37-10.52.7-14.61c-2.45-3.74-7.83-5.83-12.86-5-4,.65-4.09.55-4.09-3.36a9.55,9.55,0,0,0-2.16-6.19c-2.1-2.11-1.93-2.24,6.14-4.86,4.55-1.47,11.11-3.92,14.55-5.43s6.38-2.75,6.55-2.75a20.05,20.05,0,0,1-.92,4.56c-1.68,6.37.15,8.28,7.87,8.23a110.54,110.54,0,0,0,14.72-1.62c7.37-1.33,9-1.33,10.4,0s1.17,1.68-1.16,2.22l-10.76,2.41c-10.28,2.29-12.5,3.51-12.5,6.88,0,2.24,1,3.18,5,4.68a70.17,70.17,0,0,0,10.22,2.8l5.26.93-9.35,3.28a105.79,105.79,0,0,0-14.14,6c-4.91,2.82-13.32,11.34-13.32,13.49,0,6.34,9.82,9.82,27.7,9.82,7.24,0,13.2.11,13.2.23a1.63,1.63,0,0,1-.15.28H231.71A10.35,10.35,0,0,0,233.22,246Zm125.19,1.68c5.82-2.91,11.91-6.21,17.85-9.8,9.35-5.64,10.63-6.14,9.87-3.86a36.38,36.38,0,0,0-1.21,6.72,53,53,0,0,1-.95,6.94Zm58.76,0V246l17.24-8.76,17.93-9.12c.38-.19.49,2.22.23,5.26-.58,6.85,1.92,12.3,6.35,14.3Zm51.77-1.79a41.66,41.66,0,0,0,8.88-9.41l4-6,4.09,2.8a38.77,38.77,0,0,0,8.65,4.19c9.14,2.77,17.15-5.13,15.76-15.52l-.57-4.33,5.61-.72a126.91,126.91,0,0,0,32.38-9.5c7.36-3.35,9.95-4,13.49-3.39,2.45.42,4.39,1.12,4.39,1.57s-4,1.77-8.88,2.94c-21.16,5-34.9,10.93-38.61,16.58-1.69,2.59-1.68,3,.16,5.85,4.72,7.15,21.61,10.46,48.49,9.49,11.11-.4,20.18-1.42,26.3-3,5.14-1.29,9.48-2.21,9.64-2s-1,2.63-2.64,5.44a20.09,20.09,0,0,0-2.65,6.82H466.07A30.06,30.06,0,0,0,468.94,245.84Zm149.78,1.79c11.24-5.7,37-19.7,38.86-21.21,1.07-.88,1.23.25.68,4.81-.79,6.66,1.44,10.63,6,10.63,2.7,0,14.15-5.32,20.58-9.57,4.09-2.7,4.09-2.7-1.5,4.2a93.45,93.45,0,0,0-7.89,11.14Zm86.72,0A246.69,246.69,0,0,0,724.77,229c.53.84,1,1.66,1.61,2.55a57,57,0,0,0,5.46,7c-3.51,3.38-6.79,6.39-9.91,9.08Zm27,0c1.48-1.39,3-2.84,4.42-4.31a41.72,41.72,0,0,0,6.78,4.31Zm61.26,0c5.59-4,11.25-10.57,13.23-15.7,2.26-5.85,3.47-5.85,4.56,0,.95,5.09,5.95,10.88,12.63,15.7Zm94.34,0a50.51,50.51,0,0,0,9.59-8l5.76-6.31,7.83,8.06c2.11,2.17,4.24,4.24,6.38,6.24Zm29.37-9.81-10.86-10.57.74-5.84c1.52-11.92,1.2-11.9,10.46-.82a239.73,239.73,0,0,0,26.87,27H928.07C924.71,244.74,921.2,241.52,917.39,237.82Zm57.19,9.81a93.27,93.27,0,0,0-7.88-11.14c-5.6-6.9-5.6-6.9-1.51-4.2,6.43,4.25,17.88,9.57,20.58,9.57,4.53,0,6.76-4,6-10.63-.54-4.56-.39-5.69.69-4.81,1.84,1.51,27.61,15.51,38.85,21.21Zm78,0a20.09,20.09,0,0,0-2.65-6.82c-1.6-2.81-2.8-5.28-2.64-5.44s4.5.76,9.64,2c6.13,1.53,15.19,2.55,26.3,3,26.88,1,43.78-2.34,48.49-9.49,1.84-2.81,1.86-3.26.16-5.85-3.71-5.65-17.45-11.55-38.61-16.58-4.9-1.17-8.88-2.48-8.88-2.94s1.94-1.15,4.39-1.57c3.54-.61,6.13,0,13.5,3.39a126.72,126.72,0,0,0,32.37,9.5l5.61.72-.57,4.33c-1.39,10.39,6.63,18.29,15.77,15.52a39.19,39.19,0,0,0,8.65-4.19l4.09-2.8,4,6a41.66,41.66,0,0,0,8.88,9.41,28.84,28.84,0,0,0,2.88,1.79Zm144.84-14.3c-.26-3-.15-5.45.23-5.26l17.94,9.12,17.23,8.76v1.68h-41.75C1195.51,245.63,1198,240.18,1197.43,233.33Zm68.6,14.3a53,53,0,0,1-1-6.94,36.38,36.38,0,0,0-1.21-6.72c-.76-2.28.52-1.78,9.87,3.86,5.94,3.59,12,6.89,17.86,9.8Zm94.35,0a3,3,0,0,1-.15-.28c0-.12,6-.23,13.2-.23,17.89,0,27.71-3.48,27.71-9.82,0-2.15-8.42-10.67-13.33-13.49a105.79,105.79,0,0,0-14.14-6l-9.35-3.28,5.26-.93a70.3,70.3,0,0,0,10.23-2.8c4-1.5,5-2.44,5-4.68,0-3.37-2.22-4.59-12.5-6.88l-10.76-2.41c-2.33-.54-2.52-.91-1.16-2.22s3-1.33,10.4,0a110.54,110.54,0,0,0,14.72,1.62c7.72,0,9.55-1.86,7.87-8.23a19.07,19.07,0,0,1-.91-4.56c.16,0,3.16,1.26,6.54,2.75s10,4,14.55,5.43c8.07,2.62,8.24,2.75,6.14,4.86a9.55,9.55,0,0,0-2.16,6.19c0,3.91-.12,4-4.09,3.36-5-.83-10.41,1.26-12.86,5-2.66,4.09-2.31,11.59.7,14.61s9.35,5.72,13.45,5.72c2.45,0,2.85.41,2.12,2.11-1.93,4.44-1.94,9.63,0,12.5a10,10,0,0,0,1.52,1.68Z"/><path fill="FRAME_COLOR" d="M149.41,235.29c1.85-1.3,5.25-2,10.05-2.06,11.33-.16,16.88-5.51,15.15-14.63-.89-4.67-5-12.82-7.56-14.93-3.17-2.62-8.64-3-13.79-.92a16.59,16.59,0,0,0-10.42,12.93,14.45,14.45,0,0,1-3.37,6.9c-3.32,3.31-3.6,7.48-.73,10.87S146.08,237.61,149.41,235.29Zm-.4-22.76c2.51-4.8,9.05-7.49,13.61-5.61,1.86.77,3.12,1.63,2.8,1.93s.45,2.45,1.69,4.79a20.85,20.85,0,0,1,2.28,8.12c0,3.27-.57,4.11-3.74,5.5-4.32,1.92-6.09,2.11-9.94,1.07-1.52-.41-2.68-1.36-2.68-2.19s-1.29-2.64-2.92-4.14C146.68,218.87,146.5,217.32,149,212.53Z"/><path fill="FRAME_COLOR" d="M154,191.1a16.29,16.29,0,0,1,6.9,3.08,13.53,13.53,0,0,0,14.38,2.35c12.15-5.87,13.68-14.69,4.09-23.61-2.66-2.47-4.33-2.94-10.52-2.94s-7.85.46-10.17,2.63c-1.52,1.43-3.94,2.63-5.26,2.63-3.65,0-7.7,5.61-6.76,9.35C147.71,188.9,149.29,190.31,154,191.1Zm11.46-16.2c5-1.45,11.48,1.41,14,6.19s1.7,6.58-4.38,9.25c-5,2.22-8.51,2.13-11-.29-.77-.75-1.58-4.23-1.8-7.74C161.8,176.12,161.9,175.92,165.42,174.9Z"/><path fill="FRAME_COLOR" d="M509.5,118.14c3.39-2.75,3.71-9.13.58-11.4-3.51-2.54-9.49-2-11.59,1-2.62,3.74-2.36,6.39.95,9.7S505.87,121.07,509.5,118.14Z"/><path fill="FRAME_COLOR" d="M1483,203.67c-2.55,2.11-6.67,10.26-7.56,14.93-1.73,9.12,3.82,14.47,15.15,14.63,4.8.06,8.2.76,10.06,2.06,3.32,2.32,7.8,1.54,10.66-1.84s2.59-7.56-.73-10.87a14.65,14.65,0,0,1-3.38-6.9,16.54,16.54,0,0,0-10.41-12.93C1491.6,200.68,1486.12,201.05,1483,203.67Zm18,8.86c2.51,4.79,2.33,6.34-1.1,9.47-1.63,1.5-2.92,3.32-2.92,4.14s-1.16,1.78-2.68,2.19c-3.85,1-5.62.85-9.94-1.07-3.17-1.39-3.74-2.23-3.74-5.5a20.85,20.85,0,0,1,2.28-8.12c1.25-2.34,2-4.51,1.69-4.79s.94-1.16,2.81-1.93C1491.94,205,1498.48,207.73,1501,212.53Z"/><path fill="FRAME_COLOR" d="M1474.77,196.53c4.44,2.15,10.53,1.15,14.37-2.35a16.29,16.29,0,0,1,6.9-3.08c4.67-.79,6.26-2.2,7.34-6.51.95-3.74-3.11-9.35-6.76-9.35-1.32,0-3.74-1.2-5.26-2.63-2.31-2.17-4.09-2.63-10.17-2.63s-7.86.47-10.52,2.94C1461.09,181.84,1462.61,190.66,1474.77,196.53Zm-4.15-15.44c2.48-4.78,8.94-7.64,14-6.19,3.53,1,3.62,1.22,3.22,7.41-.23,3.51-1,7-1.81,7.74-2.48,2.42-6,2.51-11,.29C1468.92,187.67,1468.1,185.93,1470.62,181.09Z"/><path fill="FRAME_COLOR" d="M1150.56,117.39c3.31-3.31,3.57-6,1-9.7-2.1-3-8.08-3.49-11.59-1-3.13,2.27-2.81,8.65.59,11.4C1144.13,121.07,1147.1,120.85,1150.56,117.39Z"/><path fill="FRAME_COLOR" d="M1647.11,665.62H1441.32a10.61,10.61,0,0,1,1.89,5.78c0,2.79.23,2.79,5.49,0,8.77-4.68,19.75-4,22.58,1.29,2.52,4.75,1.26,9.44-3.87,14.54l-4.91,4.86,2,4c2.47,4.79,2.57,8.33.34,12.62-2.83,5.44-9.06,6.46-15.48,2.53-3.63-2.23-3.77-2.23-4.45-.08-1.14,3.6-7.48,8.19-12.39,9-3.62.57-4.55,1.2-4.55,3.06a8.08,8.08,0,0,1-1.93,4.5c-1,1.17-1.71,2.38-1.46,2.63s4.61-.52,9.75-1.75c7.25-1.74,10.28-2,13.74-1,12.29,3.34,5.84,13-14.84,22.32-4.8,2.15-8.77,4.33-8.77,4.81s2.1.88,4.67.88c4.8,0,9.36,3,9.36,6.19,0,1.81-4,5.68-8,7.73-1.47.76-8.07,2.6-14.61,4.07-8.53,1.93-11.22,2.91-9.47,3.46,3.16,1,4.34,3.67,2.85,6.48-2.15,4.09-17.69,8.29-30.66,8.29-5.61,0-5.61,0-3.27,2.34,4.79,4.8,1.52,8.71-8.89,10.62-8,1.48-16.71.71-28.4-2.49-9.93-2.73-10.78-2.78-9.9-.53,1.31,3.32-3,6.43-8.8,6.43-12,0-36.35-7.89-48.62-15.77-7.13-4.58-7.75-4.83-7-2.7a11.36,11.36,0,0,1-.38,5c-.79,2.92-.49,3.83,2,6,4,3.47,3.85,9.37-.36,13-4,3.46-6.78,3.42-11-.13-1.88-1.58-3.68-2.57-4-2.21a31.06,31.06,0,0,1-6.32,2.16c-3.15.85-4.47,1.56-3,1.61,3.27.13,11.74,7.74,12.63,11.36.52,2.13,1.5,2.81,4.08,2.81,4.91,0,7.71,4.55,5.75,9.35a7,7,0,0,1-9.61,3.84c-1.92-.86-3.56-.56-6.48,1.18-3.47,2.07-4.62,2.19-10,1a38.9,38.9,0,0,1-9.7-3.55c-4.09-2.48-9.2-11.84-8.31-15.21.47-1.77-.52-2.64-4.84-4.27-3-1.14-8.41-3.52-12.15-5.37-5.26-2.61-7.22-3.08-9-2.17-1.26.65-5.21,1.17-8.83,1.17h-6.54l2.28,3.22a33.31,33.31,0,0,1,3.74,8.06c1.3,4.32,1.18,5.44-1.14,10.23a19.14,19.14,0,0,1-32.12,4c-2.3-2.69-4.23-5.73-4.26-6.72s-1.14.29-2.46,2.86c-5.17,10.05-12.58,14.44-21.55,12.79-4.84-.89-11.48-6.24-14.13-11.39-2.05-4-2.31-11.27-.51-14.6,1.11-2.07.72-2.22-5.7-2.14-8.42.09-13.26-2.85-13.8-8.38l-.34-3.51-8.42,3.86a101.17,101.17,0,0,1-14.49,5.35c-6.9,1.7-7.06,2.78-.59,3.85a44.83,44.83,0,0,1,10.23,3.65,25.37,25.37,0,0,0,11.51,2.93,21.62,21.62,0,0,1,17.06,7.71c4,4.51,5.44,10.64,3.74,15.43-1,2.8-.76,3.66,1.64,5.95,3.51,3.36,3.67,7,.46,10.41s-7.63,3.27-11-.35c-2.09-2.27-3.86-2.92-8-2.92-12.15,0-23.13-8.88-23.13-18.7,0-2.4,1.31-5,4.14-8.13l4.15-4.61-2.69-1.76a22.9,22.9,0,0,0-5.9-2.51c-2.92-.69-3.21-.48-3.21,2.28,0,6.51-9.58,11.76-25.13,13.78-7.13.92-9.67,1.67-8.76,2.58,6.24,6.25-9.35,14.48-24.9,13.15a227.23,227.23,0,0,1-43.36-8.87c-5.49-1.83-10.05-2.89-10.05-2.35a2.08,2.08,0,0,0,1.05,1.64c.59.35,2.15,3,3.52,5.9,5,10.63,2.17,23.37-6.32,28.61-3.4,2.09-5.49,2.5-10.87,2.13-9.64-.68-17.06-4.75-27.47-15l-9-8.91-.65,4.21c-2.31,15-5.4,22.48-12.29,29.92-11.72,12.64-29.37,17.44-47.13,12.8-13.32-3.48-29.15-13.81-34.81-22.74l-1.77-2.8L802,889.17c-6.13,5.78-13,8.35-22.09,8.29-17.39-.11-35.19-7.88-46.25-19.17-7.84,6.76-14.31,9.69-22.25,10.26-5.38.37-7.47,0-10.86-2.13-8.5-5.24-11.32-18-6.33-28.61,1.37-2.92,2.93-5.55,3.52-5.9a2.08,2.08,0,0,0,1.05-1.64c0-.54-4.56.52-10.05,2.35a227.08,227.08,0,0,1-43.36,8.87c-15.55,1.33-31.14-6.9-24.9-13.15.91-.91-1.63-1.66-8.76-2.58-15.55-2-25.12-7.27-25.12-13.78,0-2.76-.3-3-3.22-2.28a22.9,22.9,0,0,0-5.9,2.51L574.83,834l4.15,4.61c2.83,3.16,4.14,5.73,4.14,8.13,0,9.82-11,18.7-23.13,18.7-4.1,0-5.86.65-8,2.92-3.34,3.62-7.77,3.77-11,.35s-3-7,.46-10.41c2.4-2.29,2.64-3.15,1.65-5.95-1.7-4.79-.22-10.92,3.74-15.43A21.59,21.59,0,0,1,564,829.18a25.31,25.31,0,0,0,11.51-2.93,44.83,44.83,0,0,1,10.23-3.65c6.47-1.07,6.31-2.15-.59-3.85a102.06,102.06,0,0,1-14.49-5.35l-8.41-3.86-.35,3.51c-.53,5.53-5.38,8.47-13.8,8.38-6.42-.08-6.81.07-5.69,2.14,1.8,3.33,1.54,10.63-.52,14.6-2.65,5.15-9.29,10.5-14.12,11.39-9,1.65-16.39-2.74-21.56-12.79-1.32-2.57-2.43-3.86-2.46-2.86s-2,4-4.26,6.72a19.14,19.14,0,0,1-32.12-4c-2.32-4.79-2.44-5.91-1.13-10.23a32.94,32.94,0,0,1,3.73-8.06l2.28-3.22h-6.54c-3.62,0-7.56-.52-8.82-1.17-1.79-.91-3.75-.44-9,2.17-3.73,1.85-9.13,4.23-12.15,5.37-4.32,1.63-5.31,2.5-4.84,4.27.89,3.37-4.22,12.73-8.31,15.21a38.9,38.9,0,0,1-9.7,3.55c-5.38,1.19-6.53,1.07-10-1-2.91-1.74-4.56-2-6.48-1.18a6.93,6.93,0,0,1-9.6-3.84c-2-4.8.83-9.35,5.74-9.35,2.58,0,3.56-.68,4.09-2.81.88-3.62,9.35-11.23,12.63-11.36,1.49,0,.17-.76-3-1.61a30.62,30.62,0,0,1-6.31-2.16c-.36-.36-2.16.63-4,2.21-4.2,3.55-6.95,3.59-11,.13-4.21-3.6-4.37-9.5-.35-13,2.47-2.14,2.78-3.05,2-6a11.36,11.36,0,0,1-.38-5c.77-2.13.15-1.88-7,2.7-12.27,7.88-36.58,15.77-48.62,15.77-5.84,0-10.1-3.11-8.8-6.43.88-2.25,0-2.2-9.9.53-11.69,3.2-20.37,4-28.4,2.49-10.4-1.91-13.68-5.82-8.88-10.62,2.34-2.34,2.34-2.34-3.28-2.34-13,0-28.51-4.2-30.66-8.29-1.48-2.81-.3-5.49,2.85-6.48,1.76-.55-.94-1.53-9.47-3.46-6.54-1.47-13.14-3.31-14.6-4.07-4-2.05-7.95-5.92-7.95-7.73,0-3.17,4.55-6.19,9.35-6.19,2.57,0,4.67-.4,4.67-.88s-4-2.66-8.77-4.81c-20.68-9.28-27.13-19-14.83-22.32,3.45-.95,6.48-.73,13.73,1,5.14,1.23,9.49,2,9.76,1.75s-.42-1.46-1.47-2.63a8.08,8.08,0,0,1-1.93-4.5c0-1.86-.93-2.49-4.55-3.06-4.91-.79-11.25-5.38-12.39-9-.68-2.15-.82-2.15-4.44.08-6.43,3.93-12.66,2.91-15.49-2.53-2.22-4.29-2.13-7.83.34-12.62l2.05-4-4.91-4.86c-5.13-5.1-6.39-9.79-3.87-14.54,2.83-5.34,13.82-6,22.58-1.29,5.26,2.8,5.49,2.8,5.49,0a10.61,10.61,0,0,1,1.89-5.78H2.89a14.8,14.8,0,0,1,0-17.58H1647.11a14.8,14.8,0,0,1,0,17.58ZM1466,676.07c-1.11-1.82-8.79-1.42-13,.67-5.26,2.61-7.8,5.75-6.92,8.56.61,2,1.54,2.28,5.87,2A20.47,20.47,0,0,0,1460,685C1463.78,682.59,1467,677.73,1466,676.07Zm-15.68,28.55c5.14,4.34,9.64,3.81,10.15-1.2a9,9,0,0,0-1.8-6.31c-2.65-3.27-10.9-4.46-13.07-1.87C1443.82,697.39,1445.32,700.37,1450.34,704.62ZM1075.09,849c3.3,6.2,16.22,9.35,20.14,4.91,4.84-5.49,3-11.87-4.39-15-4.67-2-3.63-2-9.59.86S1073.33,845.71,1075.09,849Zm-506.34-9.18c-6-2.91-4.92-2.81-9.59-.86-7.36,3.08-9.23,9.46-4.38,15,3.91,4.44,16.84,1.29,20.13-4.91C576.68,845.71,574.71,842.77,568.75,839.86ZM197,676.74c-4.21-2.09-11.89-2.49-13-.67-1,1.66,2.24,6.52,6,9a20.52,20.52,0,0,0,8.07,2.26c4.32.29,5.25,0,5.86-2C204.77,682.49,202.23,679.35,197,676.74Zm7.4,18.5c-2.17-2.59-10.42-1.4-13.06,1.87a9,9,0,0,0-1.81,6.31c.51,5,5,5.54,10.15,1.2S206.19,697.39,204.38,695.24ZM1426,678.88c2.43,2.72,2.9,2.82,7,1.51,2.45-.78,4.46-2.17,4.56-3.15.38-3.86-.5-7.69-2.22-9.59-2.51-2.77-5.91-2.37-10,1.19C1422.58,671.24,1422.85,675.37,1426,678.88Zm-8,9.47c-5.26-.79-12.48,2.35-13.13,5.72s3.07,7.71,6.7,7.71c6.54,0,16-9.65,11.92-12.16A26.73,26.73,0,0,0,1418,688.35Zm11.68,25.56c5.73-.18,10.06-4.24,10.06-9.44,0-3.76-.12-3.86-4.56-3.86A26.08,26.08,0,0,1,1429,700c-1-.38-2.35,1.29-3.8,4.79C1422.37,711.72,1423.53,714.1,1429.65,713.91Zm19.41,19.31c0-2-10.06-1.05-20.34,1.94-14.85,4.32-19.78,2.83-12.39-3.75a26.92,26.92,0,0,0,4.79-5.32c1-1.87.7-1.88-5-.18-8.11,2.41-10,3.19-22.21,8.86-12.51,5.84-14.85,5.12-9.33-2.84a36.39,36.39,0,0,0,4.24-7.65c.71-2.42.42-2.62-3.68-2.5-8.88.26-23.81,3.44-27,5.76-6.87,5-33.78,9-68.25,10.14l-20.58.69,1.75,4.14a15.06,15.06,0,0,1,1.12,7.42c-.62,3.15-.47,3.28,4,3.28,3.49,0,5.9-1,9.88-4,2.92-2.24,7.07-4.37,9.34-4.79,6.79-1.26,16.32,0,20,2.7l3.27,2.38,4.91-2.41c4.79-2.36,8.65-2.22,8.65.3,0,.72-2.34,2.29-5.26,3.53-8.18,3.5-6.78,5,3.74,4,7.6-.72,9.85-1.47,14.49-4.82,5.85-4.22,7.42-4.69,8.72-2.58.51.82-.54,2.57-2.53,4.21l-3.38,2.8,5.84-.64c3.22-.35,12.16-1.2,19.87-1.87s20.45-2.51,28.28-4.08C1417.38,744.82,1449.06,735,1449.06,733.22Zm-84.86-39.63c11-3.47,22.91-8.63,22.91-9.92,0-.36-.35-.54-.88-.47s-6.6.81-13.73,1.67c-14.14,1.7-33.79,5.06-37.4,6.39-1.94.72-1.75,1,1.52,2.1s4.76,3.54,3,5.27c-.75.75-10.75-2.39-12.86-4-1.19-.93-11.69,1.87-13.67,3.66-.52.47,1,1.21,3.51,1.65,6.54,1.2,16.71,6.18,16.71,8.19,0,2.8-2.22,2.8-8.06,0a81.88,81.88,0,0,0-14.09-4.49c-8.53-1.9-8.85-1.88-15.72.7-3.85,1.44-6.49,2.78-5.84,3s4.85,1.27,9.29,2.39c6.08,1.54,8.23,2.58,8.52,4.15.49,2.57-1,2.49-17.22-.88-8.19-1.7-10.6-1.81-14.5-.64-5.5,1.64-4.68,2.45,4.67,4.61,7,1.63,9.51,3.66,7,5.72-1.24,1-2.81.94-6.43-.34a99.12,99.12,0,0,0-11.75-3c-6.54-1.27-7.33-1.17-13.44,1.69a35,35,0,0,1-11.51,3.16l-5,.11,5.27,1a60,60,0,0,1,12.85,4.85l7.6,3.85,20.45-.75c21.16-.79,48.68-3.42,59.25-5.67,4.21-.89,6.64-2.15,7.9-4.09,1.76-2.74,1.68-2.84-3-4.1-4.09-1.11-7-3.83-5.6-5.17.25-.24,6.19-1.27,13.32-2.3s14.94-2.47,17.53-3.22c4.56-1.31,4.6-1.37,1.81-2.4-1.56-.57-8.12-1.68-14.43-2.45q-11.57-1.39-12.2-2.92C1349.12,698.66,1350.64,697.88,1364.2,693.59Zm-11.44-28h-15.82a171.8,171.8,0,0,0-16.8,8.9c-4.32,2.73-7.82,3-7.82.5,0-.64,2.12-3.62,4.66-6.55.93-1.07,1.67-2,2.31-2.85H1302.7a191.11,191.11,0,0,0-18.32,9.26c-17.65,10.15-18.07,10.53-16.51,14.63,1.47,3.86.64,7.25-2.66,10.87a10.76,10.76,0,0,0-2.51,7.31,21.85,21.85,0,0,0,.18,4.61c.12,0,3.27-1.36,7-3,5.5-2.46,8.08-4.67,13.6-11.68,6.36-8.07,10.13-10.72,10.13-7.13,0,.83-1.64,3.73-3.62,6.43s-3.18,4.9-2.63,4.9a54.49,54.49,0,0,0,7.42-2.39c4.8-1.79,8.65-4.6,15.19-11.11,4.8-4.75,9.41-8.7,10.17-8.7,2.76,0,1.41,4.31-2.57,8.18-2.22,2.15-3.9,4.13-3.68,4.32s2.57-.4,5.15-1.29c2.78-1,7-4.09,10.27-7.59,5.21-5.61,9.88-7.77,9.88-4.56,0,.76-1.47,3-3.21,4.85-2.5,2.69-2.72,3.27-1,2.66,4-1.45,22.2-4.27,41.13-6.38,14.5-1.61,18.59-2.42,18.59-3.7,0-4.21-19.4-6.49-36.47-4.29C1349.37,672.92,1347.75,671.38,1352.76,665.62Zm-170,7.58c-3.53,3-7.56,10.11-9,15.84-.62,2.56-.09,3.42,3.3,5.44l4,2.4,3.5-3.69a37.27,37.27,0,0,0,5.39-7.42c2.25-4.44,2.49-12.11.46-14.14S1186.67,669.93,1182.81,673.2Zm-89.29,53.27c-5.1,2.61-22.67,6.8-28.63,6.84q-6.32,0-2.11,3.57c1.26,1.06,4.15,1.23,10.11.61,7.38-.78,10.24-1.88,24.25-9.43,15.55-8.36,46.82-22.77,49.44-22.77.71,0,.33-1-.85-2.34-3.33-3.64-15-2.18-31,3.87-13.44,5.07-14.78,6-14.16,10.16S1099.6,723.36,1093.52,726.47Zm-13.09-24.71c18.93-4.2,34.47-8.71,40-11.61l4.33-2.28-5.85.07c-6.93.07-33.42,3.57-46.75,6.17-16.36,3.19-36.84,8-36.77,8.73,0,.38,2.12,2.12,4.69,3.91s4.62,3.73,4.62,4.38c0,3-3.51,2.21-10.06-2.19l-7-4.7L1017,707.51a125.4,125.4,0,0,0-12,4.15c-1,.58.64,2.14,4.74,4.6,5.84,3.51,8.9,7.73,5.6,7.73-.84,0-5.43-2-10.34-4.56l-8.82-4.56-9.64,4.21c-5.27,2.29-9.64,4.5-9.64,4.85s2,1.72,4.31,3c6.67,3.61,9.71,6.39,9.71,8.87,0,2.69-2.59,3-4.66.47-1.82-2.19-13.93-8.76-16.15-8.76s-19,9.15-19,10.28c0,2.57,6.05,14.77,7.16,14.49.77-.19,10.63-.85,22-1.47,61.35-3.34,67.81-4.16,72.92-9.2,2.12-2.09,2.1-2.25-.47-3.65-1.49-.81-6.6-1.77-11.51-2.16-7.94-.63-8.86-.95-9.2-3.27-.5-3.38,2.71-4.22,12.41-3.27,16.72,1.63,50.48-5.38,50.64-10.52,0-1.61-7.15-3.91-17-5.41-13-2-13.6-2.16-14.32-4.06C1062.61,706.21,1064.77,705.24,1080.43,701.76Zm-39.26-25.93c3.21-4.55,5.83-8.74,5.83-9.29a.85.85,0,0,0-.67-.92H1046c-4.09.69-45.29,23.27-57.5,31.56-3.74,2.54-7.51,4.6-8.41,4.6-3,0-3.17-3.51-.38-7.94,3.31-5.26,6.06-12.79,5.05-13.8-2.13-2.13-54.58,34.6-54.58,38.22,0,.52,1.11,1.27,2.51,1.7s5.09,3.17,8.25,6.13l5.72,5.38L955,727a115.86,115.86,0,0,0,10.16-5.9,13.83,13.83,0,0,1,4.1-2.05c1.29-.36,8.06-3.24,15.19-6.48s19.16-7.95,26.88-10.52c28.87-9.6,81.35-19.69,105.19-20.21l5.84-.13-5.2-1.64c-2.87-.9-12.33-2-21.1-2.4-18.7-.9-34.65,1.26-49.55,6.72C1033.1,689.29,1032.44,688.25,1041.17,675.83Zm-87.05-10.21c-6.77,5.56-13.81,11.65-18.61,16.27-12.51,12-24,25.7-27.55,32.63L905.71,719l5.78-1.28c4.56-1,6.84-2.45,10.76-6.78a166.78,166.78,0,0,1,14.31-13.17,201.25,201.25,0,0,0,30.35-32.11Zm-114,0c-8.46,2.66-15.64,7.61-19.85,14.42-3,4.91-3,5.38.19,5.38,1.48,0,5,1.05,7.78,2.34a36.45,36.45,0,0,0,5.9,2.34c.44,0,.6-3.1.35-6.84-.32-4.56,0-7.13.94-7.73,2.49-1.59,3.56,1.13,4.06,10.36.46,8.65,3.33,16.54,5.52,15.18.51-.31.93-5.72.93-11.91,0-12.15.87-15.1,4.09-13.88,1.89.71,2,2,1.23,12.77-.48,6.54-1.33,14.47-1.87,17.47a46,46,0,0,0-.29,11.4c.57,4.79,1,5.65,2.27,4.56,1.06-.9,1.22-1.79.48-2.69s1.07-6.72,6-18.76c7.6-18.7,9.72-22.31,11.06-18.82.49,1.28-1.3,7.42-4.58,15.73-3,7.47-5.69,14.48-6.08,15.54-.58,1.6.24,1.45,4.8-.88,3-1.55,6.43-2.8,7.59-2.8s1.88-.59,1.53-1.52c-.93-2.46,7.23-22.4,9.34-22.84,3.24-.67,2.12,4.6-4.46,21-.65,1.62.37,2.25,5.4,3.34A45.4,45.4,0,0,1,893.61,713c4.67,2.75,5,2.8,5.83.82,1.84-4.48.7-19.64-1.92-25.59-4.63-10.53-15-18.73-28.3-22.61Zm-91.65,8.14c-16.16,7.58-27.64,34-22.45,51.63,1.1,3.74,2.39,6.78,2.87,6.78s1.77-1.52,2.87-3.39c1.73-2.94,11.45-11,17.64-14.71,1.71-1,1.17-1.8-3.86-5.57-3.85-2.89-5.62-5-5.21-6.13,1-2.63,1.59-2.38,10.48,4.07,6.77,4.93,8.86,5.86,13.08,5.86h5l-5.49-4.73c-3-2.62-6.75-5.56-8.3-6.59-2.8-1.86-3.55-4.38-1.63-5.56,1.61-1,9.7,5,21.73,16.1,6.08,5.61,11.11,9.93,11.11,9.55,0-1.84-6.81-13.79-12.39-21.74-3.44-4.91-6.31-9.91-6.31-11,0-4.34,4.32-.58,11.7,10.17l7.7,11.22,2-5.61c1.95-5.52,1.94-5.72-.92-13.33-3.39-9-3.6-11.21-1.07-11.21,1.6,0,3.16,2.8,6.53,11.68l1.06,2.81,3-3c2.18-2.22,2.77-3.73,2.17-5.61-1.26-4-8.53-11.53-13.68-14.17C776.81,666.46,762,667.44,748.51,673.76Zm-65.41-8.14a200.73,200.73,0,0,0,30.34,32.11c1.38,1.13,2.86,2.4,4.33,3.69a40.93,40.93,0,0,1,4.07-12.11c-2.38-2.49-4.82-5-7.35-7.42-4.8-4.62-11.84-10.71-18.61-16.27ZM670,701.78c-.9,0-4.67-2.06-8.41-4.6-12.21-8.29-53.41-30.87-57.5-31.56h-.38a.86.86,0,0,0-.67.92c0,.55,2.63,4.74,5.83,9.29,8.73,12.42,8.07,13.46-5.37,8.53-14.9-5.46-30.85-7.62-49.55-6.72-8.77.42-18.23,1.5-21.1,2.4l-5.2,1.64,5.84.13c23.84.52,76.32,10.61,105.19,20.21,7.72,2.57,19.81,7.3,26.88,10.52s13.9,6.12,15.2,6.48a13.9,13.9,0,0,1,4.09,2.05A115.86,115.86,0,0,0,695,727l8.42,4.5,5.73-5.38a38.43,38.43,0,0,1,7.78-5.9c0-1.54-.06-3.24-.06-5.38-11.09-10-49.73-36.59-51.55-34.77-1,1,1.75,8.54,5.05,13.8C673.13,698.27,673,701.78,670,701.78Zm-83.73,7.48c-.73,1.9-1.35,2.08-14.32,4.06-9.82,1.5-17,3.8-17,5.41.17,5.14,33.92,12.15,50.64,10.52,9.7-1,12.91-.11,12.42,3.27-.35,2.32-1.26,2.64-9.21,3.27-4.91.39-10,1.35-11.51,2.16-2.57,1.4-2.59,1.56-.47,3.65,5.12,5,11.57,5.86,72.93,9.2,11.34.62,21.2,1.28,22,1.47,1.11.28,7.14-11.92,7.16-14.49,0-1.13-16.86-10.28-19-10.28s-14.33,6.57-16.15,8.76c-2.06,2.48-4.65,2.22-4.65-.47,0-2.48,3-5.26,9.7-8.87,2.33-1.27,4.31-2.64,4.31-3s-4.37-2.56-9.64-4.85l-9.64-4.21L645,719.43c-4.9,2.54-9.49,4.56-10.34,4.56-3.3,0-.23-4.22,5.61-7.73,4.09-2.46,5.7-4,4.73-4.6a124.32,124.32,0,0,0-12-4.15l-10.57-3.27-7,4.7c-6.55,4.4-10.06,5.16-10.06,2.19,0-.65,2-2.59,4.62-4.38s4.65-3.53,4.69-3.91c.07-.68-20.41-5.54-36.77-8.73-13.33-2.6-39.82-6.1-46.75-6.17l-5.85-.07,4.33,2.28c5.5,2.9,21,7.41,40,11.61C585.23,705.24,587.4,706.21,586.23,709.26ZM549.48,717c.62-4.13-.72-5.09-14.16-10.16-16-6.05-27.72-7.51-31.05-3.87-1.17,1.29-1.56,2.34-.85,2.34,2.62,0,33.89,14.41,49.44,22.77,14,7.55,16.88,8.65,24.25,9.43,6,.62,8.85.45,10.11-.61q4.2-3.54-2.11-3.57c-6,0-23.53-4.23-28.63-6.84C550.4,723.36,548.83,721.24,549.48,717Zm-90-45.35c-2,2-1.8,9.7.45,14.14a37.27,37.27,0,0,0,5.39,7.42l3.5,3.69,4-2.4c3.39-2,3.92-2.88,3.3-5.44-1.4-5.73-5.43-12.84-9-15.84C463.33,669.93,461.54,669.57,459.48,671.63Zm-69.44-6c1,3,2.64,5.52,4.33,6.18,6.33,2.44,15-1,17.29-6.18Zm-7.9,23.89c1.55-4.1,1.13-4.48-16.52-14.63a191.11,191.11,0,0,0-18.32-9.26H330.71c.65.86,1.38,1.78,2.31,2.85,2.54,2.93,4.67,5.91,4.67,6.55,0,2.45-3.51,2.23-7.83-.5a171.8,171.8,0,0,0-16.8-8.9H297.24c5,5.76,3.39,7.3-5.48,6.16-17.07-2.2-36.46.08-36.46,4.29,0,1.28,4.08,2.09,18.58,3.7,18.93,2.11,37.09,4.93,41.14,6.38,1.73.61,1.51,0-1-2.66-1.74-1.87-3.21-4.09-3.21-4.85,0-3.21,4.67-1,9.88,4.56,3.27,3.5,7.5,6.63,10.28,7.59,2.57.89,4.92,1.48,5.14,1.29s-1.46-2.17-3.68-4.32c-4-3.87-5.33-8.18-2.57-8.18.77,0,5.37,3.95,10.17,8.7,6.54,6.51,10.39,9.32,15.19,11.11a54.49,54.49,0,0,0,7.42,2.39c.55,0-.64-2.22-2.63-4.9s-3.62-5.6-3.62-6.43c0-3.59,3.78-.94,10.13,7.13,5.53,7,8.1,9.22,13.6,11.68,3.73,1.68,6.88,3,7,3a22.3,22.3,0,0,0,.17-4.61,10.71,10.71,0,0,0-2.51-7.31C381.49,696.76,380.66,693.37,382.14,689.51ZM300,700.85q-.63,1.51-12.2,2.92c-6.31.77-12.87,1.88-14.43,2.45-2.79,1-2.75,1.09,1.81,2.4,2.59.75,10.41,2.18,17.53,3.22s13.07,2.06,13.33,2.3c1.43,1.34-1.52,4.06-5.61,5.17-4.67,1.26-4.75,1.36-3,4.1,1.26,1.94,3.69,3.2,7.9,4.09,10.57,2.25,38.09,4.88,59.25,5.67l20.45.75,7.6-3.85a60.07,60.07,0,0,1,12.86-4.85l5.26-1-5-.11A35.1,35.1,0,0,1,394.2,721c-6.11-2.86-6.9-3-13.44-1.69a99.12,99.12,0,0,0-11.75,3c-3.62,1.28-5.19,1.37-6.43.34-2.48-2.06,0-4.09,7-5.72,9.35-2.16,10.17-3,4.67-4.61-3.9-1.17-6.31-1.06-14.49.64-16.25,3.37-17.72,3.45-17.23.88.3-1.57,2.45-2.61,8.52-4.15,4.44-1.12,8.66-2.2,9.3-2.39s-2-1.54-5.85-3c-6.87-2.58-7.19-2.6-15.72-.7a81.46,81.46,0,0,0-14.08,4.49c-5.85,2.8-8.07,2.8-8.07,0,0-2,10.17-7,16.72-8.19,2.45-.44,4-1.18,3.5-1.65-2-1.79-12.47-4.59-13.67-3.66-2.11,1.65-12.11,4.79-12.86,4-1.72-1.73-.35-4.11,3-5.27s3.47-1.38,1.52-2.1c-3.6-1.33-23.26-4.69-37.4-6.39-7.13-.86-13.25-1.6-13.73-1.67s-.88.11-.88.47c0,1.29,11.92,6.45,22.91,9.92C299.36,697.88,300.88,698.66,300,700.85Zm92,58.2c.4-.65,4.47-3.38,9.14-6.14l8.41-5-5.84-.7c-3.18-.38-9.17-.78-13.15-.88-5.84-.14-7.3.18-7.3,1.58C383.27,752.39,390.48,761.54,392,759.05Zm-16.34-1.17c-4.79,0-4.92.11-5.6,4.33-.39,2.33-.44,4.59-.12,4.91.64.65,14.49-1.87,15.42-2.81.33-.32-.59-1.87-2.1-3.51C381.22,758.58,379.41,757.88,375.67,757.88Zm123.19,7c1.62,0,2.57,1.63,4.09,7,1.95,6.89,2.06,7,6.08,7,3.73,0,4.3-.47,6.49-5.38,3.49-7.83,2-12.78-5.32-17.73-5.85-3.94-11.76-4.88-17.3-2.75-1.53.59-4.26,3-6,5.35l-3.21,4.26,2.4,4.91c3.62,7.37,9.65,14.39,12,13.94,2.49-.48,2.5-.73.35-8C496.17,766.06,496.23,764.9,498.86,764.9Zm-17.24,4.49c-2.85-6.07-3.35-6.55-6.31-6-2.69.48-3.21.2-3.21-1.76,0-1.68,1.22-2.76,4.38-3.85l4.38-1.52-4.09-.76c-8-1.49-9.81-1-30.27,9L425.93,774.6l7.6,1.48c15.66,3.07,21.23,3.19,26.3.57s15.78-3.22,21.14-1.16c1.76.67,3.29,1,3.46.86S483.32,773,481.62,769.39Zm-42.25-6.83c9.7-4.79,17.53-9,17.53-9.47s-4.5-1.19-9.88-1.63c-9.46-.79-10.19-.67-17.64,2.8-4.33,2-8.24,3.34-8.82,3-2.31-1.41-.94-4.19,2.68-5.47,3.86-1.37,3.86-1.37.94-2.2-4.8-1.36-5.14-1.26-15.9,4.91C394,762.64,393.72,763,398.58,766c7,4.32,23.26,8.61,23.26,6.14C421.84,771.62,429.67,767.34,439.37,762.56Zm-17.94-52.07a12.84,12.84,0,0,0-1.93,3.8c0,.51,3.33,3.17,7.31,5.84,5.26,3.54,9,5.14,13.44,5.73,5.49.73,6.06.61,5.43-1.17-.39-1.1-2.69-3-5.14-4.25-4.91-2.5-8.18-6.41-8.18-9.77,0-1.76-8.65-13.56-9.94-13.56-.19,0-.07,2.33.3,5.26C423.17,706.11,422.8,708.46,421.43,710.49Zm-.94,11.28c-2.57-2.08-2.89-2.1-5.08-.29-1.28,1-2.55,2.06-2.8,2.22s2,.29,5.08.29h5.55Zm-6.22-12.51c3.67-5.37,3.66-6.44-.1-10.86-4.22-5-8.69-4.92-13.84.23s-6.85,8.5-5.95,11.33c.84,2.66,7.59,7,10.86,7s6.08-1.18,6.08-2.46C411.32,714,412.68,711.6,414.27,709.26Zm-2.94-21c0-.8-11.93-8.22-15.09-9.35-5.84-2.1-6.1-2-4.6,1.28.75,1.64,1.95,2.92,2.73,2.92s2.59,1.29,4.1,2.92c2.16,2.35,3.67,2.87,7.77,2.63C409,688.47,411.33,688.29,411.33,688.23Zm-1.06-13-4.79,2.69,7.83,5.79a152.75,152.75,0,0,1,13.79,11.68l6,5.91,4-4.5c3.29-3.68,5.09-4.65,9.76-5.32l5.72-.82-17.4-9.06c-9.59-5-18-9.06-18.76-9.06S413,673.75,410.27,675.25ZM443,699.56c-4.55,4.23-5.21,7.75-2.17,11.57q6.62,8.31,19.94,4.62l4.44-1.23-.35-6.66-.35-6.66-5.26-2C452,696.41,446.24,696.54,443,699.56Zm9.58,25.72c2.09,3.34,6.3,2.92,7-.7.58-3.13-.66-3.6-5.8-2.22C451.52,723,451.36,723.36,452.57,725.28Zm21.51-5.15c-2.69-.26-5.49-.54-6.19-.64s-1.91,1.93-2.63,4.38c-1.55,5.26-.94,7.63,3.11,12q5.47,6,10.66.47c2.48-2.63,2.56-3.22,1.3-9.3L479,720.6Zm2.69,25.28c-4.67,1-10.71-1.5-13.57-5.53-5.64-7.94-5.13-7.69-17.4-8.54-6.48-.44-18.47-.83-26.88-.87-14.38-.05-15.59.13-22.44,3.28-4,1.82-8.07,4.25-9.06,5.37-1.71,1.94-1.11,2.09,10.81,2.84,17.77,1.11,56,5.19,72.23,7.71,12.27,1.9,14.09,1.94,16.48.39,4.34-2.83,16.48-3.33,22-.9a32.05,32.05,0,0,0,9.53,2.3c4.79.23,4.85.18,5.31-4.27.44-4.21.2-4.59-3.67-5.84a88.81,88.81,0,0,1-9.42-3.92A44.65,44.65,0,0,0,500,734c-2.92-.45-6.39-1.58-7.6-2.49-3.17-2.4-3.59-2.18-4.45,2.26C487,738.83,481.61,744.43,476.77,745.41Zm54.7,39.3c-2.68,3.85-4.54,7.43-4.1,7.85,1,.91,10.53-2.19,17.42-5.63,7.67-3.83,7.13-11.16-1.17-16-5.38-3.14-10.25-3.23-15.07-.29a30.17,30.17,0,0,0-6.84,6.41c-3.13,4.09-3.16,4.27-1.11,6.54,1.15,1.29,2.44,2.34,2.86,2.34s2.67-2.57,5.1-5.84c4.26-5.73,7.82-7.59,7.82-4.09C536.38,776.89,534.14,780.85,531.47,784.71ZM718,818l7,2.85.64-7.89a43,43,0,0,1,3.1-12.92l2.45-5-2.57.62c-7,1.69-18,2.15-18.8.78-1.47-2.43.92-3.29,14.24-5.1,8.89-1.22,15-2.75,19-4.77,3.27-1.66,5.89-3.24,5.89-3.57s-8.23-.45-18.4-.29c-15.66.25-18.41,0-18.41-1.46s2.46-1.91,12.27-2.51l14-.88q1.7-.12-1.7-3.63c-3.19-3.3-3.91-3.5-12.56-3.5-8.06,0-9.13-.25-8.82-2,.27-1.61,1.75-2.11,7-2.38,7.25-.36,7.34-.42,5.6-3.75a34.52,34.52,0,0,1-2-7.95l-.87-5.73-6.43,1.64c-16.93,4.31-24.8,14.61-24.84,32.49C693.71,801.59,700,810.71,718,818Zm73.74-21.93-3.15,2.69,3.14,4.09c5.54,7.25,6.91,7.26,9.78.12,2.59-6.43,4.45-8.15,7.53-7,2.89,1.1,3.12,4.05.75,9.43-2.47,5.61-1.76,6.82,3.58,6,2.21-.33,3-1.68,4.51-7.76,2.06-8.3,4.87-11.16,7.91-8.07,1.64,1.68,1.64,2.63,0,9.06L824,811.88l3-.75c12.16-3,12.16-3,11.62-6.26-.29-1.73-1.23-5.67-2.1-8.71-1.23-4.33-1.26-5.86-.17-6.95,1.9-1.91,4.07.58,5.8,6.66a26.21,26.21,0,0,0,2.91,6.78c1.46,2,1.92,1.84,6.48-1.47,2.69-1.95,4.91-4.22,4.91-5s-2.92-3.21-6.43-5.32c-5-3-6.42-4.47-6.42-6.66,0-4.58,4.55-4.89,11.21-.75l5.73,3.55,1-3.39a20.18,20.18,0,0,0,.24-7.65c-.61-3.39-1.17-4.1-2.75-3.46-12.38,5-15.91,5.09-15.21.25.34-2.32,3.88-4.74,12.06-8.26.62-.27-.65-2.32-2.75-4.43s-4.15-3.36-4.44-2.63-2.07,3.74-4,6.79c-2.64,4.2-4,5.41-6,5.15-3.85-.52-4-4.57-.34-10.77,2.62-4.44,2.77-5.23,1.1-5.84a16.4,16.4,0,0,0-4.67-.7c-2.3,0-2.86.7-3.46,4.32-1.64,9.94-2.06,11.55-3.59,14s-1.43,2.69.1,2.69c2.45,0,5.26,4.67,5.26,8.76,0,9.82-14.09,12.2-17.32,2.92-1.55-4.44-.12-8.56,3.87-11.24,2.34-1.57,2.65-2.28,1.58-3.54-.86-1-1.11-4.32-.7-9.24.54-6.42.36-7.55-1.11-7a13.16,13.16,0,0,1-3.62.68c-4.57.07-5.09,1.72-2.59,8.15s2.25,9.88-.8,11c-2.56,1-4.74-1.11-8.07-7.77-1.52-3-3.34-5.61-4-5.61s-3.15,1.8-5.49,3.91l-4.33,3.92,7.95,2.65c8.18,2.73,11.94,6.26,10.52,9.86-1.25,3.17-5.49,3.25-14.84.26-4.91-1.56-9.17-2.55-9.53-2.19S784,781.84,784,785c0,5.26.18,5.62,2.22,4.51,3.51-1.92,5.7-1.52,7.25,1.33C794.7,793,794.44,793.81,791.75,796.1Zm-24.31-32.33c4.1.68,7.72,1,8,.77s-3.68-2.65-8.83-5.32c-10.17-5.28-11.65-6.63-9.58-8.7,1.07-1.07,3.92-.06,12,4.27l10.58,5.66,2.39-2.39c2.11-2.11,2.21-2.63.86-4.27-1.69-2-10.38-6.74-15.17-8.19-4.56-1.39-6.14-3-4.65-4.78,1.79-2.15,13.76,2.06,20.54,7.22,4.33,3.29,5.67,3.78,7.54,2.77,1.28-.69,2.28-1.53,2.28-1.93,0-1.58-7.45-14.37-10.55-18.11a34.31,34.31,0,0,0-9.55-7.23c-6.78-3.36-13.5-3.83-19.29-1.35-5.49,2.36-13.36,10-15.75,15.24-2.54,5.61-2.79,15.49-.54,20.92s9.4,12.26,15.71,15c5.61,2.48,18.89,4.22,18.91,2.48a20.37,20.37,0,0,1,.72-3.57c.62-2.21.12-2.6-4.32-3.26-12.38-1.88-12.74-2-12.74-4.27C756,762.15,757.16,762.05,767.44,763.77Zm20.46,54c-2-3-4-2.33-12.39,4.3-4.21,3.32-8.43,6-9.47,6-4,0-1.4-3.8,6.9-10.06,5.6-4.25,8.42-7.12,8-8.17s-1.12-1.64-1.75-1.64-5.67,3.44-11.16,7.6c-7.95,6-10.4,7.31-11.68,6.24-2.16-1.78-.83-3.23,10.63-11.56,4.79-3.48,8.79-7.06,8.82-7.89.13-3.19-3.68-2.63-14.55,2.15-9.24,4.05-11.52,4.68-12.33,3.34a2.09,2.09,0,0,1,.41-2.87c1-.89,19.63-9.46,22.55-10.38a11.83,11.83,0,0,0-.34-3.29c-.48-2.57-1.2-3.19-3.63-3.13-9.46.24-24.8,7.58-29.14,13.95-5.5,8.06-4.8,17.43,1.84,24.77,5.75,6.37,12.11,9.07,21.69,9.23,6.55.1,8.65-.41,13.91-3.37C783.69,828.71,789.84,820.72,787.9,817.72ZM512,727.44l-2.39,4.61,9.41,3.63c8.18,3.15,9.89,3.45,13.09,2.34,2-.72,8.36-1.6,14.2-2l10.52-.7-21-10.35c-11.57-5.68-21.45-10.34-22-10.34s-.59,1.87-.18,4.09C514.2,721.73,513.77,724.05,512,727.44Zm8.46,31.14c.39,1,1,3.16,1.42,4.68a7.23,7.23,0,0,0,1.06,2.8,66.71,66.71,0,0,0,7.47-3c.2-.12-.57-1.62-1.64-3.26C526.46,756.25,519.17,755.22,520.46,758.58Zm17.2-13.44c-3.27.71-6,1.77-6,2.34a1.28,1.28,0,0,0,1.34,1c.75,0,21.1,2.89,45.29,6.43s58.37,8,76,10c13.95,1.54,26.52,3,32,3.78a29.47,29.47,0,0,1,1.77-4.78,31.79,31.79,0,0,1,2.2-3.69,8.33,8.33,0,0,0-1.69-.52c-1.76-.38-18.87-1.73-38-3-34.12-2.25-45.58-3.89-54.35-7.77C587.85,745.28,548.88,742.72,537.66,745.14Zm182.8-10.87a45.86,45.86,0,0,1-2.14-4.75c-5.19,3.85-10.87,11.11-14.14,18.17a49.76,49.76,0,0,1,7.28-3.08c5.14-1.7,10.08-3.09,11-3.09C723.61,741.52,723,739.42,720.46,734.27Zm-32.14,69.19a24.36,24.36,0,0,1-2.77-9.62l-9.91-2.47c-12-3-22.72-5.44-23.85-5.44-1.88,0-1.89.24-.15,2.92,2.06,3.16,1.5,6.43-1.08,6.43-.89,0-8.18-2.71-16.12-6s-17.4-7-20.92-8.13L606.91,779a10.34,10.34,0,0,0,.41,2.57c.32,1.46,2.16,4,4.15,5.79,2.45,2.17,3.31,3.77,2.74,5.14-.85,2.07-.11,2.12-17.64-1.25-13.21-2.54-36.47-3.56-40.91-1.78l-3.51,1.39,7,2.89c10.41,4.27,26,8.16,44.42,11.1,14,2.23,20.92,2.62,47.92,2.67,15.74,0,32-.32,38.62-.79A34.44,34.44,0,0,1,688.32,803.46Zm-88-18.35c-1.27-1.26-35.65-9.09-42-9.55-1.53-.11-2,.73-1.87,3.65l.12,3.8,12.39.24a206.36,206.36,0,0,1,22.61,1.8C599.9,786.34,601.54,786.35,600.31,785.11ZM575,772.67c16.59,4.07,18,4.24,19.28,2.39a5.77,5.77,0,0,1,4.32-2c5,0,19.64,4.21,32.26,9.25,6.54,2.62,12.16,4.77,12.45,4.77s.68-1.46.88-3.21c.33-3.1.58-3.21,6.78-3.07,4,.09,22.72,4,34.38,7,0-1.26,0-2.65,0-4.22,0-4.35.05-7.43.24-9.87-6.08-1.14-17.32-2.35-38.35-4.76-20.12-2.3-53.41-6.73-74-9.85l-38.27-5.79c-.53-.07-.88.36-.88,1.06,0,1.83,7.37,6.83,15.42,10.47C553.64,766.74,565.13,770.26,575,772.67Zm-70-57.5c-2.8-2.77-8.65-5.85-11.93-6.28-.38,0-2,2-3.73,4.52l-3,4.62,5.37,4.72c6,5.23,10.9,6.18,14.61,2.8C509.26,722.78,508.79,719,504.94,715.17Zm-16.65-18.12,4.49,4.62,3.51-2.15c4.79-2.94,7.36-6.92,7.36-11.41,0-6.43-4.89-9.16-10.87-6.06-3.74,1.94-9,7.12-9,8.87C483.78,691.76,485.77,694.48,488.29,697.05Zm308.58,25.77a152.55,152.55,0,0,0,3.65,14.84c2.19,7.14,2.52,7.55,5.31,6.84,1.65-.42,4.5-1.07,6.38-1.46s3.39-1,3.39-1.4-1.71-6.14-3.75-12.68c-2.7-8.65-3.38-12.34-2.45-13.27,2.28-2.28,3.41-.35,7.47,12.86,3.2,10.4,4.41,13,6.15,13,2,0,2.09-.64,1.34-8.47-.45-4.68-1.31-11.1-1.9-14.32-1.16-6.31,0-9,3-6.52,1,.88,2.15,6.17,3.09,14.7L830,740.24l4.56.75c2.45.41,4.88.44,5.26.06,1-1,2.55-10.16,2.62-15.77.16-14-7.9-27.61-18-30.38C806,689.88,793.25,702.84,796.87,722.82Zm92.24-3.55A23.25,23.25,0,0,0,879.06,717c-12.91.12-22,8.25-26.07,23.21-2.34,8.65,0,8.41,9-.94,7.54-7.83,12-10.32,12-6.66,0,.84-3.5,5-7.83,9.29-7.13,7.08-7.66,7.94-6,9.64s2.69,1.2,10.52-5.21c8.53-7,12.62-8.78,12.62-5.54,0,.83-4,4.79-8.76,8.72-12.75,10.48-11.8,13.53,2.22,7.21,6.07-2.74,7.84-3.12,8.85-1.9,1.67,2,.15,3.28-8.74,7.21-8.18,3.63-7.76,3.29-6.87,5.64s5.59,2.39,15.52.07c13.45-3.12,19.48-9,20.81-20.17a16.6,16.6,0,0,0-1.82-11C901.09,729.48,894.44,722,889.11,719.27ZM908.86,785l-13.68.31,4.74,5c4.58,4.82,5,5,12.1,5,8.41,0,11.1.74,11.1,3,0,1.87-.59,2-9.59,1.64l-6.66-.24,2.34,6.2c1.73,4.57,2.25,8.3,2,14.26l-.35,8.06,4.67-.75c13-2.09,23.89-15.84,31.11-39.22,3.73-12,3.77-29.36.11-38.57-3.58-9-11.76-19-18-22.07-4.79-2.34-12-3.08-16.13-1.67-.93.32-2.4.79-3.15,1-1,.29-.77,1.81.87,5.43a30.77,30.77,0,0,1,2.28,11.87v6.83l3.86-.89c6.19-1.43,7.25-1.27,7.25,1.13,0,1.75-1.35,2.53-6.38,3.68-3.5.81-6.58,2.09-6.83,2.86a29.91,29.91,0,0,1-4.09,5.5l-3.62,4.09,5.19-.88c2.85-.48,8-1.6,11.4-2.46,8-2,8.42-2,8.42.65s-12.28,6.29-31.09,9c-7,1-13.53,2.13-14.5,2.53-2.6,1.08,10.53,2.36,25.95,2.52,9.47.1,13.93.6,14.8,1.66C925.64,783.72,922.53,784.73,908.86,785Zm212.58-4.95c2.43,3.27,4.68,5.84,5.1,5.84s1.71-1,2.86-2.34c2-2.27,2-2.45-1.11-6.54a30,30,0,0,0-6.84-6.41c-4.82-2.94-9.69-2.85-15.07.29-8.3,4.84-8.83,12.17-1.17,16,6.89,3.44,16.47,6.54,17.42,5.63.44-.42-1.41-4-4.1-7.85s-4.9-7.82-4.9-8.71C1113.63,772.5,1117.18,774.36,1121.44,780.09Zm14.92-61.36c.41-2.22.33-4.09-.18-4.09s-10.4,4.66-22,10.34l-21,10.35,10.52.7c5.84.39,12.15,1.27,14.2,2,3.2,1.11,4.91.81,13.09-2.34l9.41-3.63-2.39-4.61C1136.23,724.05,1135.8,721.73,1136.36,718.73ZM1053.79,749c-8.77,3.88-20.23,5.52-54.35,7.77-19.16,1.26-36.27,2.61-38,3-2.81.62-3.22,1.29-3.22,5.38,0,4.32.2,4.62,2.69,4,1.48-.35,17.12-2.25,34.77-4.2s51.84-6.46,76-10,44.55-6.43,45.29-6.43a1.27,1.27,0,0,0,1.34-1c0-.57-2.69-1.63-6-2.34C1101.12,742.72,1062.15,745.28,1053.79,749Zm67.44,10.76c-1.07,1.64-1.83,3.14-1.64,3.26a66.05,66.05,0,0,0,7.48,3,7.3,7.3,0,0,0,1-2.8c.38-1.52,1-3.66,1.42-4.68C1130.83,755.22,1123.54,756.25,1121.23,759.75Zm-20.69,5.1c8.06-3.64,15.42-8.64,15.42-10.47,0-.7-.35-1.13-.87-1.06l-38.28,5.79c-20.57,3.12-53.86,7.55-74,9.85-48.27,5.53-45.06,4.73-46,11.36a66.27,66.27,0,0,1-1.58,8c-.65,2.11-.44,2.49,1,1.91,6.43-2.47,37.44-9.3,42.77-9.42,6.2-.14,6.45,0,6.79,3.07.19,1.75.59,3.21.87,3.21s5.91-2.15,12.45-4.77c12.62-5,27.28-9.25,32.26-9.25a5.77,5.77,0,0,1,4.32,2c1.3,1.85,2.69,1.68,19.28-2.39C1084.87,770.26,1096.36,766.74,1100.54,764.85Zm-42.13,20.2a206,206,0,0,1,22.6-1.8l12.39-.24.12-3.8c.09-2.92-.34-3.76-1.87-3.65-6.31.46-40.69,8.29-42,9.55S1050.1,786.34,1058.41,785.05Zm35.93,4.4c-4.44-1.78-27.7-.76-40.9,1.78-17.54,3.37-16.8,3.32-17.65,1.25-.57-1.37.29-3,2.74-5.14,2-1.76,3.83-4.33,4.15-5.79a10.34,10.34,0,0,0,.41-2.57l-6.6,2.16c-3.52,1.16-13,4.82-20.92,8.13s-15.24,6-16.13,6c-2.58,0-3.14-3.27-1.08-6.43,1.74-2.68,1.73-2.92-.15-2.92-1.13,0-11.81,2.44-23.84,5.44l-21.8,5.43-1.75,4.38-1.76,4.39,9,1c4.93.55,23.08,1,40.5.94,27,0,33.91-.44,47.91-2.67,18.47-2.94,34-6.83,44.42-11.1l7-2.89Zm49.44-63.9c3.72,3.38,8.65,2.43,14.61-2.8l5.37-4.72-3-4.62c-1.69-2.57-3.35-4.57-3.73-4.52-3.28.43-9.13,3.51-11.93,6.28C1141.21,719,1140.74,722.78,1143.78,725.55Zm9.93-26,3.51,2.15,4.5-4.62c2.51-2.57,4.5-5.29,4.5-6.13,0-1.75-5.26-6.93-9-8.87-6-3.1-10.87-.37-10.87,6.06C1146.35,692.6,1148.92,696.58,1153.71,699.52Zm8.31,34.29c-.86-4.44-1.28-4.66-4.45-2.26-1.21.91-4.68,2-7.6,2.49a44.65,44.65,0,0,0-10.63,3.39,89.59,89.59,0,0,1-9.41,3.92c-3.88,1.25-4.12,1.63-3.68,5.84.46,4.45.52,4.5,5.31,4.27a32.05,32.05,0,0,0,9.53-2.3c5.49-2.43,17.63-1.93,22,.9,2.4,1.55,4.21,1.51,16.49-.39,16.22-2.52,54.45-6.6,72.22-7.71,11.92-.75,12.52-.9,10.81-2.84-1-1.12-5.08-3.55-9.06-5.37-6.85-3.15-8.06-3.33-22.43-3.28-8.42,0-20.41.43-26.89.87-12.27.85-11.76.6-17.4,8.54-2.86,4-8.9,6.49-13.57,5.53C1168.39,744.43,1163,738.83,1162,733.81Zm-10.41,39.73c-2.15,7.25-2.14,7.5.35,8,2.32.45,8.35-6.57,12-13.94l2.41-4.91-3.22-4.26c-1.76-2.34-4.48-4.76-6-5.35-5.54-2.13-11.45-1.19-17.3,2.75-7.32,5-8.81,9.9-5.32,17.73,2.19,4.91,2.76,5.38,6.49,5.38,4,0,4.13-.12,6.08-7,1.52-5.38,2.48-7,4.09-7C1153.77,764.9,1153.83,766.06,1151.61,773.54ZM1266.73,748c0-1.4-1.46-1.72-7.3-1.58-4,.1-10,.5-13.15.88l-5.84.7,8.41,5c4.67,2.76,8.74,5.49,9.14,6.14C1259.53,761.54,1266.73,752.39,1266.73,748Zm-2.1,16.36c.93.94,14.78,3.46,15.42,2.81.32-.32.27-2.58-.11-4.91-.69-4.22-.82-4.33-5.61-4.33-3.74,0-5.55.7-7.6,2.92C1265.22,762.44,1264.3,764,1264.63,764.31Zm-22.91-9.83c-10.75-6.17-11.09-6.27-15.9-4.91-2.92.83-2.92.83.94,2.2,3.62,1.28,5,4.06,2.69,5.47-.59.36-4.5-1-8.82-3-7.45-3.47-8.19-3.59-17.65-2.8-5.38.44-9.88,1.18-9.88,1.63s7.83,4.68,17.53,9.47,17.53,9.06,17.53,9.58c0,2.47,16.25-1.82,23.26-6.14C1256.29,763,1256,762.64,1241.72,754.48Zm-38.22,10.06c-20.45-10-22.24-10.54-30.27-9l-4.09.76,4.38,1.52c3.16,1.09,4.38,2.17,4.38,3.85,0,2-.52,2.24-3.21,1.76-3-.54-3.46-.06-6.31,6-1.7,3.63-3,6.77-2.8,7s1.69-.19,3.45-.86c5.37-2.06,16.06-1.48,21.14,1.16s10.64,2.5,26.3-.57l7.6-1.48Zm46.17-65.91c-5.14-5.15-9.61-5.22-13.84-.23-3.76,4.42-3.76,5.49-.1,10.86,1.6,2.34,3,4.76,3,5.26,0,1.28,2.92,2.46,6.08,2.46s10-4.36,10.86-7C1256.52,707.13,1254.69,703.65,1249.67,698.63Zm8.69-18.47c1.5-3.31,1.24-3.38-4.6-1.28-3.16,1.13-15.13,8.55-15.09,9.35,0,.06,2.29.24,5.09.4,4.1.24,5.61-.28,7.78-2.63,1.5-1.63,3.3-2.92,4.09-2.92S1257.61,681.8,1258.36,680.16Zm-31.08,22.21c.37-2.93.49-5.26.3-5.26-1.29,0-9.94,11.8-9.94,13.56,0,3.36-3.27,7.27-8.18,9.77-2.45,1.25-4.75,3.15-5.14,4.25-.63,1.78-.06,1.9,5.44,1.17,4.41-.59,8.17-2.19,13.44-5.73,4-2.67,7.3-5.33,7.3-5.84a12.58,12.58,0,0,0-1.93-3.8C1227.2,708.46,1226.83,706.11,1227.28,702.37Zm2.23,19.4-2.75,2.22h5.55c3,0,5.34-.13,5.08-.29s-1.52-1.17-2.8-2.22C1232.4,719.67,1232.08,719.69,1229.51,721.77Zm-33.26.59c-5.13-1.38-6.38-.91-5.8,2.22.68,3.62,4.89,4,7,.7C1198.64,723.36,1198.48,723,1196.25,722.36Zm-25.28,14q5.17,5.49,10.66-.47c4-4.41,4.67-6.78,3.11-12-.72-2.45-1.93-4.48-2.62-4.38s-3.51.38-6.2.64l-4.91.47-1.34,6.48C1168.41,733.16,1168.49,733.75,1171,736.38Zm19.79-37.19-5.26,2-.35,6.66-.35,6.66,4.44,1.23q13.34,3.68,19.94-4.62c3-3.82,2.38-7.34-2.17-11.57C1203.76,696.54,1198,696.41,1190.76,699.19Zm12.39-7.69c4.68.67,6.47,1.64,9.76,5.32l4,4.5,6-5.91a152.75,152.75,0,0,1,13.79-11.68l7.84-5.79-4.8-2.69c-2.69-1.5-5.38-2.69-6.14-2.69s-9.17,4.08-18.75,9.06l-17.41,9.06Zm35.19-25.88c2.3,5.21,11,8.62,17.29,6.18,1.69-.66,3.34-3.19,4.33-6.18Zm49.43,94.72c0,3.5,5.4,16.09,7.59,17.69,2,1.44,8.77,1,12.27-.83,9-4.68,11.46-21.1,3.74-25C1302.38,747.57,1287.77,752.63,1287.77,760.34Zm-24.08,21.3c13.54,9.59,24.9,15,39.86,18.84,17.76,4.62,25,3.73,13.44-1.66-3.86-1.79-5.85-3.48-5.85-4.94,0-3.12,3.63-2.78,22,2.08,11.81,3.12,18.51,4.24,25.48,4.29,15.55.09,17.17-3.1,3.4-6.68-3.75-1-7.38-2.28-8-2.85-2.66-2.66.94-3.63,13.56-3.67,14.15,0,27.45-1.52,32.73-3.65,4-1.61,3.15-2.53-4.09-4.45-6.32-1.68-9-3.91-6.55-5.48.83-.53,7.6-1.87,15-3,17.42-2.55,28-6,28-9.25,0-.51-5.9-1.09-13.15-1.28-11.92-.32-13.15-.56-13.15-2.51,0-1.67,2.17-3,9.3-5.62a98.06,98.06,0,0,0,9.87-4c.94-.89-2.57-.29-7.48,1.28-2.57.83-9.52,2.44-15.48,3.6s-10.81,2.39-10.81,2.75,1.87,1.85,4.09,3.28c4,2.56,5.28,5.31,3.15,6.64-.57.35-4.21-1.56-8-4.2-6.31-4.44-7.44-4.83-13.32-4.61-3.5.13-6.85.66-7.36,1.17s1.52,2.48,4.44,4.32c5.73,3.6,6.08,4.17,3.86,6.07-1.12,1-3.86-.22-10.29-4.37-8.65-5.6-8.86-5.66-15.78-4.92l-7,.77,6.19,4.13c5.73,3.81,7.33,6.79,4.22,7.83-.72.23-5.32-2.47-10.23-6-7.72-5.54-9.48-6.33-12.8-5.78-3.51.59-3.81,1-3.37,4,.56,4-2.41,8.07-5.87,8.07-1.15,0-4.58,2.57-7.62,5.72-8.88,9.21-18.78,10.43-28.37,3.5-2.57-1.86-4.68-3.75-4.7-4.19-.07-2.76-3-4.25-11.19-5.69-11.81-2.06-13.31-2-16.6.49l-2.69,2Zm-13.43,16.45c4.19-4.8,4.53-7.74,1.28-11-3-2.94-8-2.93-11.69,0a10.66,10.66,0,0,1-5.38,2.31,7.11,7.11,0,0,0-4.57,2.33c-2.81,3.12-1.15,6.87,4.34,9.86S1245.62,803.4,1250.26,798.09ZM1227,832.68c1.66,3.06,8,5.85,13.22,5.85,8,0,10.49-8.1,4.44-14.14-2.64-2.65-4.44-3.39-8.18-3.39-4.32,0-5.09.44-7.83,4.56C1226.06,829.41,1225.8,830.5,1227,832.68Zm-26.15-25.48c-.79,1.75.39,2.7,7.05,5.62,4.45,1.94,9.44,4.25,11.23,5.19,3,1.59,3.5,1.5,7.48-1.16,2.33-1.57,5.63-2.89,7.3-2.93,2.87,0,2.8-.15-1.06-1.83-11.44-5-17.34-17-11.78-24.05,2.2-2.81,2.2-2.81,0-4.21a7.68,7.68,0,0,0-3.74-1.22L1204,784.27l-4.91.61,1.78,4.21C1202.67,793.41,1202.66,803.15,1200.83,807.2Zm-16.73,2.45c5.14.22,6.08-.15,9.17-3.62,5.74-6.44,4.55-12.85-4.06-21.85-2.82-2.95-4.17-3.43-10.49-3.7-6.89-.29-11,.68-16.83,4l-2.57,1.46,2.4,4.09a25.62,25.62,0,0,0,2.69,4.09c.15,0,2.63-.81,5.43-1.79,6-2.07,8.41-1.44,7.86,2-.27,1.77-2.07,3.1-6.52,4.79-3.38,1.29-6.13,3-6.13,3.86C1165.05,805.11,1177.2,809.36,1184.1,809.65Zm-33,23.38a31.91,31.91,0,0,0,4.36,5.79c2.56,2.72,4,3.21,9.11,3.21,6.89,0,11.5-2.85,14-8.65,1.85-4.33,0-9.81-5.11-15.19a29,29,0,0,0-7.26-5.26c-4.09-2-4.19-1.94-7.13,1.23l-3,3.21,4.5,3c2.45,1.63,4.5,3.51,4.5,4.15,0,2.79-3.74,2.33-8.65-1a35.4,35.4,0,0,0-6-3.62C1149.26,819.83,1149.8,830.46,1151.11,833Zm-1.72-21.64c8.77-2.86,10.65-14,3.5-20.7-3.15-3-11.33-4.29-15.54-2.51-3.59,1.53-7.36,7.92-7.36,12.48,0,2.75,1,4.66,4,7.21C1139,812.26,1143.54,813.3,1149.39,811.39Zm-23,33c7,0,13.8-8.88,15.82-20.69.57-3.27.33-3.85-1.56-3.85a14.34,14.34,0,0,1-4-.7c-1.3-.5-2.56.81-4.45,4.67-2.53,5.14-4.74,6.63-6.28,4.21-.36-.58.41-3.16,1.73-5.73a27.9,27.9,0,0,0,2.4-5.61c0-2.08-4.21-3.61-6.55-2.36-6.66,3.53-12.15,11.21-12.15,17C1111.29,837.67,1119,844.37,1126.36,844.37Zm-24.42-28.24c7.47-.54,19.86-6,19.86-8.81,0-1.4-1-1.59-5-.94-2.69.45-5.5.91-6.14,1s-1.17-.88-1.17-2.16c0-1.84,1.24-2.6,5.79-3.57l5.79-1.23-8.24-2.92-8.24-2.92-5.47,6.31C1089.67,811.84,1090.6,817,1101.94,816.13Zm-119.8,33.61c12.15,3.75,15.62,4.34,26,4.43,14.6.13,18.39-1.8,7.83-4-15-3.09-15.67-3.37-15.67-6.28,0-1.52.68-3.07,1.47-3.39s6.95-.08,13.61.54c15.66,1.44,29.35-.12,37.52-4.28,4.21-2.14,5.85-3.62,5.58-5-.36-1.94-3.82-2.91-20.19-5.68-4.09-.69-6-1.58-6.22-3-.51-2.65,1.43-3.39,20.25-7.79a121.42,121.42,0,0,0,27.17-9.39c6.55-3.19,12-6.11,12-6.43,0-.82,0-.82-4.67,1.22-11.41,5-44.65,12.11-56.34,12.11-4.21,0-4.31.09-3.62,3.5.91,4.56-2.21,4.84-5.11.47-1.95-2.94-2.32-3-10.26-2.22-4.56.45-8.43,1-8.65,1.22s.74,2.29,2.11,4.5c2.51,4.1,2.36,6.55-.41,6.55-.78,0-2.9-2.57-4.74-5.73-3.13-5.39-3.68-5.76-9.29-6.43-7.83-.91-15.9-.86-15.9.12a22.71,22.71,0,0,0,2.52,4.67c1.77,2.81,2.13,4.36,1.23,5.26-1.74,1.74-4-.23-7.86-6.77l-3-5.14H959a65.1,65.1,0,0,1-10.75-.65c-1.78-.48-2.88.29-4.56,3.22a88,88,0,0,1-5.61,8.18l-3.39,4.32,5,3.19C949.15,837.07,968.12,845.41,982.14,849.74Zm-31,19.87c0-6.39-3.4-13-10.87-20.8a53.13,53.13,0,0,0-13.15-9.94c-6-2.92-7.49-3.23-11.27-2.21-2.46.65-4.38,1.55-4.38,2s2.45,2.89,5.37,5.29c16,13.14,22.1,19,26.92,25.74C949.57,877.94,951.06,877.91,951.11,869.61Zm-49-21.5c4,9.94,17.21,25.19,25.56,29.52,4.79,2.47,12.8,4.34,15.31,3.58,2.14-.67,1.93-1.31-2.63-7.86a97.11,97.11,0,0,0-13.73-14.6c-4.79-4.09-11.76-10.08-15.37-13.21-6.43-5.57-6.66-5.67-8.65-3.51C900.81,844,900.75,844.72,902.12,848.11Zm2.3-24.84c1-4.67,1.07-7.61.14-11-3-11.1-12.64-21.09-24.45-25.29-6.9-2.45-8.42-2.53-8.42-.42,0,.89,2.81,3.23,6.2,5.15,8.18,4.65,12.26,9,10.28,11a2,2,0,0,1-2.92.26c-4.56-3.42-15-10.07-15.29-9.73-1.13,1.28-1.77,5.61-.84,5.61.64,0,3.92,2.45,7.19,5.38,4.79,4.27,5.75,5.71,4.67,7s-2.5.79-7.88-3.07c-7.25-5.19-8.15-5.43-10.21-2.66-1.29,1.73-.74,2.81,4.25,8.3,3.18,3.5,5.72,7,5.72,8,0,3.32-3.79,1.51-9.32-4.45l-5.75-6.19-6.49,3.45c-3.62,1.92-6.49,4.27-6.49,5.32,0,2.33,3.69,8.29,10.32,16.71,5.66,7.18,9.44,9,18.67,9,9.93,0,15.52-2.3,22.56-9.28C901.85,830.8,903.26,828.53,904.42,823.27ZM813.89,884.1c6,11.56,30.46,22.49,45.88,20.49,19.07-2.48,30.8-14.17,34.28-34.16,1.25-7.12.64-17.24-1.08-18.34-.53-.33-3,.13-5.56,1a31.52,31.52,0,0,1-8.47,1.69c-4.27.06-4.49.77-2,6.62,2.28,5.37,2.26,7.47-.09,7.47-1.16,0-3.06-2.68-5-7-2.42-5.49-3.65-7-5.67-7a19.27,19.27,0,0,1-5.73-1.23c-1.75-.68-3.36-1-3.62-.7s1.35,4.91,3.57,10.29,3.81,10.12,3.54,10.57c-1.44,2.38-4.24.35-6.45-4.67-1.31-3-3.87-9.41-5.62-14.09l-3.22-8.59-.7,6.2c-.64,5.83.2,16.24,2.2,27.11.75,4.09.61,4.52-1.38,4.15-1.63-.3-2.67-2.28-3.89-7.42-2-8.41-1.89-8.25-4.17-6a37.27,37.27,0,0,1-4.1,3.39c-2.13,1.46-2.15,1.75-.29,7.6,1.41,4.44,1.58,6.42.64,7.36-2,2-3.44.47-5.07-5.49L830.44,878l-5.38.75C811.62,880.67,812,880.47,813.89,884.1Zm-5.54-12.66c8.53,1.58,20,0,24.66-3.46,6.69-5,7.7-7.72,7.65-20.69,0-9.93-.56-13.28-2.92-19.17-1.59-4-3.12-7.07-3.44-7-2.81.63-4.68,1.27-4.68,1.6s1.34,5.4,3,11.6c3.2,12,3.34,16.48.53,16.48q-1.75,0-3.26-7c-2.21-10.29-5-19.63-5.63-19-.32.3-1.66,6.86-3,14.46-2.43,14.26-3.55,17.11-5.81,14.84-.92-.92-.71-5.14.76-14.84,1.13-7.48,1.83-13.77,1.57-14s-1.87-.22-3.62.1c-3.23.58-3.57,1.54-7.35,21.05-.75,3.86-3.63,5.2-4.8,2.23-.32-.84.49-6.43,1.8-12.39,2.56-11.69,2.46-12.08-3.32-13.59-3.21-.83-3.82-.09-7.25,8.91-1.77,4.65-2.44,9.12-2.42,16.13C790.92,863.31,795.09,869,808.35,871.44Zm-28.64,16.15q12.63,0,18.8-6.76c2.1-2.3,2.07-2.36-2.14-4.38a21.76,21.76,0,0,1-6.55-5c-1.27-1.64-2.43-2.72-2.63-2.46l-4.79,6.6c-2.45,3.39-4.91,6.14-5.49,6.14-2.87,0-1.86-4,2.75-10.75l5.08-7.48-1.17-7.66-1.17-7.65-4.57,7.13c-7.21,11.21-16.38,22.91-18,22.91-3.2,0-2.85-2.69.93-7.37,4.73-5.84,19.78-28,19.32-28.52-.62-.62-11.11,4.33-11.9,5.61-2,3.16-22,18.64-23.66,18.31-3.62-.71-2-3,7.83-10.86,10.28-8.28,10.66-9.8,2.45-9.87-2.89,0-6.48,1.62-13.15,6s-9.51,5.68-10.46,4.73c-1.77-1.77,0-3.83,7.36-8.53,3.28-2.1,5.69-4.12,5.5-4.62s-2.86-2.78-5.9-5.08c-5-3.81-5.66-4-6.67-2.11-1.92,3.64-3.29,14.15-2.44,18.71C732.55,873.36,754.35,887.53,779.71,887.59ZM707,881.21c2.51.76,10.52-1.11,15.31-3.58a36.14,36.14,0,0,0,6.72-4.87,37.72,37.72,0,0,1-3.38-5.6,33.2,33.2,0,0,1-2.62-8.11,96.85,96.85,0,0,0-13.4,14.3C705.08,879.9,704.87,880.54,707,881.21Zm-.74-11.48c3.54-5,7.79-9.46,16.13-16.68a51.42,51.42,0,0,1,1.62-14.7l-1.11.52a53.13,53.13,0,0,0-13.15,9.94c-7.47,7.83-10.91,14.41-10.87,20.8C698.94,877.91,700.43,877.94,706.27,869.73ZM570.56,805.92a121.33,121.33,0,0,0,27.18,9.39c18.81,4.4,20.75,5.14,20.24,7.79-.26,1.39-2.13,2.28-6.22,3-16.37,2.77-19.83,3.74-20.19,5.68-.26,1.4,1.38,2.88,5.58,5,8.17,4.16,21.86,5.72,37.52,4.28,6.66-.62,12.81-.86,13.61-.54s1.47,1.87,1.47,3.39c0,2.91-.71,3.19-15.67,6.28-10.56,2.19-6.77,4.12,7.84,4,10.32-.09,13.79-.68,25.94-4.43,14-4.33,33-12.67,42.42-18.66l5-3.19L713,825c-6.65-3.14-14-7.55-17.12-10.62-.45-.44-1-1-1.45-1.62-1.13,0-2.29.06-3.47.06h-8.41l-3,5.14c-3.82,6.54-6.12,8.51-7.86,6.77-.9-.9-.54-2.45,1.23-5.26a22.71,22.71,0,0,0,2.52-4.67c0-1-8.07-1-15.9-.12-5.61.67-6.16,1-9.29,6.43-1.84,3.16-4,5.73-4.73,5.73-2.78,0-2.93-2.45-.42-6.55,1.37-2.21,2.33-4.27,2.11-4.5s-4.09-.77-8.65-1.22c-7.94-.79-8.31-.72-10.25,2.22-2.91,4.37-6,4.09-5.12-.47.69-3.41.59-3.5-3.62-3.5-11.69,0-44.93-7.15-56.33-12.11-4.68-2-4.68-2-4.68-1.22C558.58,799.81,564,802.73,570.56,805.92Zm-22.5,10.21c11.34.82,12.27-4.29,2.79-15.24l-5.48-6.31-8.23,2.92-8.25,2.92,5.79,1.23c4.56,1,5.79,1.73,5.79,3.57,0,1.28-.53,2.25-1.17,2.16s-3.45-.55-6.14-1c-4-.65-5-.46-5,.94C528.2,810.09,540.59,815.59,548.06,816.13Zm-40.24,7.55c2,11.81,8.82,20.69,15.82,20.69,7.36,0,15.07-6.7,15.07-13.09,0-5.76-5.49-13.44-12.15-17-2.34-1.25-6.55.28-6.55,2.36a27.9,27.9,0,0,0,2.4,5.61c1.32,2.57,2.09,5.15,1.73,5.73-1.54,2.42-3.75.93-6.28-4.21-1.89-3.86-3.15-5.17-4.45-4.67a14.28,14.28,0,0,1-4,.7C507.49,819.83,507.26,820.41,507.82,823.68ZM516,807.87c2.92-2.55,4-4.46,4-7.21,0-4.56-3.77-10.95-7.36-12.48-4.21-1.78-12.39-.47-15.54,2.51-7.14,6.73-5.27,17.84,3.5,20.7C506.46,813.3,511,812.26,516,807.87Zm-44.57,25.51c2.45,5.8,7.06,8.65,13.95,8.65,5.14,0,6.55-.49,9.12-3.21a32.28,32.28,0,0,0,4.35-5.79c1.31-2.57,1.86-13.2.67-13.2a35.4,35.4,0,0,0-6,3.62c-4.91,3.38-8.65,3.84-8.65,1,0-.64,2.05-2.52,4.5-4.15l4.5-3-3-3.21c-2.94-3.17-3-3.19-7.13-1.23a29,29,0,0,0-7.26,5.26C471.48,823.57,469.63,829.05,471.47,833.38ZM456.73,806c3.09,3.47,4,3.84,9.17,3.62,6.9-.29,19.05-4.54,19.05-6.65,0-.84-2.75-2.57-6.13-3.86-4.45-1.69-6.25-3-6.52-4.79-.55-3.47,1.9-4.1,7.86-2,2.8,1,5.28,1.79,5.43,1.79a26.07,26.07,0,0,0,2.7-4.09l2.39-4.09-2.57-1.46c-5.84-3.31-9.94-4.28-16.83-4-6.32.27-7.67.75-10.49,3.7C452.18,793.18,451,799.59,456.73,806ZM430.9,818c1.78-.94,6.78-3.25,11.22-5.19,6.66-2.92,7.84-3.87,7.05-5.62-1.83-4.05-1.83-13.79,0-18.11l1.78-4.21-4.91-.61-13.32-1.66a7.68,7.68,0,0,0-3.74,1.22c-2.22,1.4-2.22,1.4,0,4.21,5.56,7.07-.33,19.09-11.78,24.05-3.86,1.68-3.92,1.78-1.06,1.83,1.67,0,5,1.36,7.31,2.93C427.39,819.51,427.9,819.6,430.9,818Zm-25.54,6.38c-6.05,6-3.51,14.14,4.44,14.14,5.26,0,11.56-2.79,13.22-5.85,1.18-2.18.92-3.27-1.65-7.12-2.74-4.12-3.5-4.56-7.83-4.56C409.8,821,408,821.74,405.36,824.39Zm-5.62-26.3c4.64,5.31,10.41,6.58,16,3.54s7.15-6.74,4.34-9.86a7.11,7.11,0,0,0-4.57-2.33,10.66,10.66,0,0,1-5.38-2.31c-3.74-3-8.74-3-11.68,0C395.21,790.35,395.55,793.29,399.74,798.09Zm-175.3-50.23a97.63,97.63,0,0,0,9.88,4c7.12,2.65,9.29,3.95,9.29,5.62,0,1.95-1.23,2.19-13.15,2.51-7.25.19-13.15.77-13.15,1.28,0,3.2,10.64,6.7,28.05,9.25,7.36,1.08,14.13,2.42,15,3,2.43,1.57-.24,3.8-6.54,5.48-7.25,1.92-8.09,2.84-4.09,4.45,5.27,2.13,18.58,3.61,32.72,3.65,12.62,0,16.22,1,13.56,3.67-.57.57-4.21,1.87-8,2.85-13.78,3.58-12.16,6.77,3.39,6.68,7,0,13.67-1.17,25.48-4.29,18.34-4.86,22-5.2,22-2.08,0,1.46-2,3.15-5.85,4.94-11.55,5.39-4.32,6.28,13.44,1.66,15-3.88,26.32-9.25,39.86-18.84l11.1-7.86-2.68-2c-3.3-2.51-4.8-2.55-16.6-.49-8.18,1.44-11.13,2.93-11.2,5.69,0,.44-2.13,2.33-4.7,4.19-9.58,6.93-19.48,5.71-28.37-3.5-3-3.15-6.47-5.72-7.62-5.72-3.46,0-6.43-4.09-5.87-8.07.44-3.08.14-3.44-3.37-4-3.32-.55-5.08.24-12.8,5.78-4.91,3.54-9.51,6.24-10.22,6-3.12-1-1.52-4,4.21-7.83l6.19-4.13-7-.77c-6.92-.74-7.13-.68-15.78,4.92-6.43,4.15-9.17,5.32-10.29,4.37-2.22-1.9-1.87-2.47,3.86-6.07,2.92-1.84,4.95-3.82,4.45-4.32s-3.86-1-7.37-1.17c-5.88-.22-7,.17-13.32,4.61-3.74,2.64-7.38,4.55-8,4.2-2.12-1.33-.82-4.08,3.15-6.64,2.22-1.43,4.1-2.94,4.1-3.28s-4.85-1.59-10.82-2.75-12.91-2.77-15.49-3.6C227,747.57,223.5,747,224.44,747.86Zm137.79,12.48c0-7.71-14.61-12.77-23.6-8.18-7.72,3.94-5.26,20.36,3.74,25,3.5,1.81,10.28,2.27,12.27.83C356.83,776.43,362.23,763.84,362.23,760.34ZM221.29,735.16c-10.29-3-20.35-3.95-20.35-1.94,0,1.73,31.68,11.6,47.11,14.68,7.83,1.57,20.58,3.41,28.28,4.08s16.65,1.52,19.87,1.87l5.84.64-3.38-2.8c-2-1.64-3-3.39-2.53-4.21,1.3-2.11,2.88-1.64,8.72,2.58,4.64,3.35,6.89,4.1,14.49,4.82,10.52,1,11.92-.49,3.74-4-2.92-1.24-5.26-2.81-5.26-3.53,0-2.52,3.86-2.66,8.65-.3l4.91,2.41,3.27-2.38c3.67-2.67,13.21-4,20-2.7,2.27.42,6.42,2.55,9.35,4.79,4,3,6.38,4,9.87,4,4.44,0,4.59-.13,4-3.28a14.93,14.93,0,0,1,1.11-7.42l1.75-4.14-20.57-.69c-34.48-1.14-61.39-5.14-68.25-10.14-3.19-2.32-18.12-5.5-27-5.76-4.09-.12-4.39.08-3.68,2.5a36.39,36.39,0,0,0,4.24,7.65c5.52,8,3.18,8.68-9.33,2.84-12.15-5.67-14.1-6.45-22.2-8.86-5.73-1.7-6-1.69-5,.18a27,27,0,0,0,4.8,5.32C241.06,738,236.13,739.48,221.29,735.16Zm5.25-45.54c-4.08,2.51,5.37,12.16,11.92,12.16,3.63,0,7.36-4.29,6.7-7.71s-7.86-6.51-13.13-5.72A26.73,26.73,0,0,0,226.54,689.62Zm-1.87-20.78c-4.09-3.56-7.48-4-10-1.19-1.72,1.9-2.6,5.73-2.23,9.59.1,1,2.11,2.37,4.57,3.15,4.09,1.31,4.56,1.21,7-1.51C227.15,675.37,227.42,671.24,224.67,668.84Zm-4.32,45.07c6.12.19,7.28-2.19,4.44-9.09-1.45-3.5-2.77-5.17-3.8-4.79a26,26,0,0,1-6.13.58c-4.44,0-4.57.1-4.57,3.86C210.29,709.67,214.62,713.73,220.35,713.91Zm12.87-46.6c1.9,2.86,1.89,8.06,0,12.5-.73,1.7-.32,2.1,2.12,2.1,4.1,0,10.41,2.69,13.45,5.73s3.37,10.52.7,14.61c-2.45,3.73-7.83,5.83-12.86,5-4-.66-4.09-.56-4.09,3.36a9.57,9.57,0,0,1-2.16,6.19c-2.1,2.1-1.93,2.24,6.14,4.85,4.55,1.48,11.11,3.93,14.55,5.43s6.38,2.75,6.55,2.75a20,20,0,0,0-.92-4.55c-1.68-6.37.15-8.28,7.87-8.23a108.9,108.9,0,0,1,14.72,1.62c7.37,1.32,9,1.32,10.4,0s1.17-1.68-1.16-2.22L277.73,714c-10.28-2.29-12.5-3.51-12.5-6.88,0-2.25,1-3.18,5-4.68a70.17,70.17,0,0,1,10.22-2.8l5.26-.94-9.35-3.27a108.49,108.49,0,0,1-14.14-6c-4.91-2.82-13.32-11.34-13.32-13.49,0-6.34,9.82-9.82,27.7-9.82,7.24,0,13.2-.11,13.2-.24a2.14,2.14,0,0,0-.15-.28H231.71A10.39,10.39,0,0,1,233.22,667.31Zm125.19-1.69c5.82,2.91,11.91,6.22,17.85,9.8,9.35,5.65,10.63,6.15,9.87,3.86a36.07,36.07,0,0,1-1.21-6.72,53.53,53.53,0,0,0-.95-6.94Zm58.76,0v1.69l17.24,8.76,17.93,9.12c.38.19.49-2.22.23-5.26-.58-6.85,1.92-12.3,6.35-14.31Zm51.77,1.8a41.45,41.45,0,0,1,8.88,9.41l4,6,4.09-2.81a38.3,38.3,0,0,1,8.65-4.18c9.14-2.77,17.15,5.12,15.76,15.52l-.57,4.33,5.61.72a127.28,127.28,0,0,1,32.38,9.49c7.36,3.36,9.95,4,13.49,3.4,2.45-.42,4.39-1.12,4.39-1.57s-4-1.77-8.88-2.94c-21.16-5-34.9-10.94-38.61-16.58-1.69-2.59-1.68-3,.16-5.85,4.72-7.16,21.61-10.46,48.49-9.49,11.11.4,20.18,1.42,26.3,2.94,5.14,1.29,9.48,2.21,9.64,2s-1-2.63-2.64-5.43a20.13,20.13,0,0,1-2.65-6.83H466.07A32.68,32.68,0,0,1,468.94,667.42Zm149.78-1.8c11.24,5.71,37,19.7,38.86,21.22,1.07.88,1.23-.25.68-4.81-.79-6.66,1.44-10.63,6-10.63,2.7,0,14.15,5.32,20.58,9.57,4.09,2.7,4.09,2.7-1.5-4.2a93.49,93.49,0,0,1-7.89-11.15Zm86.72,0a248.67,248.67,0,0,1,19.33,18.61c.53-.84,1-1.66,1.61-2.55a57,57,0,0,1,5.46-7c-3.51-3.38-6.79-6.4-9.91-9.09Zm27,0c1.48,1.39,3,2.85,4.42,4.32a42.46,42.46,0,0,1,6.78-4.32Zm61.26,0c5.59,4,11.25,10.58,13.23,15.71,2.26,5.84,3.47,5.84,4.56,0,.95-5.09,5.95-10.89,12.63-15.71Zm94.34,0a50.93,50.93,0,0,1,9.59,8l5.76,6.31,7.83-8.07c2.11-2.16,4.24-4.23,6.38-6.24Zm29.37,9.82L906.53,686l.74,5.85c1.52,11.92,1.2,11.9,10.46.82a239.81,239.81,0,0,1,26.87-27H928.07C924.71,668.52,921.2,671.74,917.39,675.44Zm57.19-9.82a93.31,93.31,0,0,1-7.88,11.15c-5.6,6.9-5.6,6.9-1.51,4.2,6.43-4.25,17.88-9.57,20.58-9.57,4.53,0,6.76,4,6,10.63-.54,4.56-.39,5.69.69,4.81,1.84-1.52,27.61-15.51,38.85-21.22Zm78,0a20.13,20.13,0,0,1-2.65,6.83c-1.6,2.8-2.8,5.28-2.64,5.43s4.5-.76,9.64-2c6.13-1.52,15.19-2.54,26.3-2.94,26.88-1,43.78,2.33,48.49,9.49,1.84,2.81,1.86,3.26.16,5.85-3.71,5.64-17.45,11.55-38.61,16.58-4.9,1.17-8.88,2.48-8.88,2.94s1.94,1.15,4.39,1.57c3.54.61,6.13,0,13.5-3.4a127.09,127.09,0,0,1,32.37-9.49l5.61-.72-.57-4.33c-1.39-10.4,6.63-18.29,15.77-15.52a38.71,38.71,0,0,1,8.65,4.18l4.09,2.81,4-6a41.45,41.45,0,0,1,8.88-9.41,31.23,31.23,0,0,1,2.88-1.8Zm144.84,14.31c-.26,3-.15,5.45.23,5.26l17.94-9.12,17.23-8.76v-1.69h-41.75C1195.51,667.63,1198,673.08,1197.43,679.93Zm68.6-14.31a53.53,53.53,0,0,0-1,6.94,36.07,36.07,0,0,1-1.21,6.72c-.76,2.29.52,1.79,9.87-3.86,5.94-3.58,12-6.89,17.86-9.8Zm94.35,0c-.06.12-.15.26-.15.28s6,.24,13.2.24c17.89,0,27.71,3.48,27.71,9.82,0,2.15-8.42,10.67-13.33,13.49a108.49,108.49,0,0,1-14.14,6l-9.35,3.27,5.26.94a70.3,70.3,0,0,1,10.23,2.8c4,1.5,5,2.43,5,4.68,0,3.37-2.22,4.59-12.5,6.88l-10.76,2.41c-2.33.54-2.52.91-1.16,2.22s3,1.32,10.4,0a108.9,108.9,0,0,1,14.72-1.62c7.72,0,9.55,1.86,7.87,8.23a19,19,0,0,0-.91,4.55c.16,0,3.16-1.26,6.54-2.75s10-4,14.55-5.43c8.07-2.61,8.24-2.75,6.14-4.85a9.57,9.57,0,0,1-2.16-6.19c0-3.92-.12-4-4.09-3.36-5,.83-10.41-1.27-12.86-5-2.66-4.09-2.31-11.6.7-14.61s9.35-5.73,13.45-5.73c2.45,0,2.85-.4,2.12-2.1-1.93-4.44-1.94-9.64,0-12.5a10,10,0,0,1,1.52-1.69Z"/><path fill="FRAME_COLOR" d="M149.41,678c1.85,1.29,5.25,2,10.05,2.06,11.33.16,16.88,5.51,15.15,14.62-.89,4.68-5,12.82-7.56,14.93-3.17,2.63-8.64,3-13.79.92a16.56,16.56,0,0,1-10.42-12.92,14.41,14.41,0,0,0-3.37-6.9c-3.32-3.32-3.6-7.48-.73-10.87S146.08,675.65,149.41,678Zm-.4,22.76c2.51,4.79,9.05,7.49,13.61,5.61,1.86-.77,3.12-1.64,2.8-1.93s.45-2.45,1.69-4.79a20.94,20.94,0,0,0,2.28-8.12c0-3.27-.57-4.11-3.74-5.51-4.32-1.91-6.09-2.1-9.94-1.06-1.52.41-2.68,1.36-2.68,2.19s-1.29,2.64-2.92,4.14C146.68,694.39,146.5,695.94,149,700.73Z"/><path fill="FRAME_COLOR" d="M154,722.16a16.41,16.41,0,0,0,6.9-3.08,13.53,13.53,0,0,1,14.38-2.35c12.15,5.86,13.68,14.69,4.09,23.61-2.66,2.47-4.33,2.93-10.52,2.93s-7.85-.46-10.17-2.63c-1.52-1.42-3.94-2.62-5.26-2.62-3.65,0-7.7-5.62-6.76-9.35C147.71,724.36,149.29,723,154,722.16Zm11.46,16.2c5,1.45,11.48-1.42,14-6.19s1.7-6.58-4.38-9.26c-5-2.22-8.51-2.12-11,.3-.77.75-1.58,4.23-1.8,7.73C161.8,737.14,161.9,737.34,165.42,738.36Z"/><path fill="FRAME_COLOR" d="M509.5,795.12c3.39,2.74,3.71,9.13.58,11.4-3.51,2.54-9.49,2.05-11.59-.95-2.62-3.74-2.36-6.39.95-9.7C502.9,792.41,505.87,792.19,509.5,795.12Z"/><path fill="FRAME_COLOR" d="M1483,709.58c-2.55-2.11-6.67-10.25-7.56-14.93-1.73-9.11,3.82-14.46,15.15-14.62,4.8-.07,8.2-.77,10.06-2.06,3.32-2.32,7.8-1.55,10.66,1.84s2.59,7.55-.73,10.87a14.6,14.6,0,0,0-3.38,6.9,16.51,16.51,0,0,1-10.41,12.92C1491.6,712.58,1486.12,712.21,1483,709.58Zm18-8.85c2.51-4.79,2.33-6.34-1.1-9.47-1.63-1.5-2.92-3.33-2.92-4.14s-1.16-1.78-2.68-2.19c-3.85-1-5.62-.85-9.94,1.06-3.17,1.4-3.74,2.24-3.74,5.51a20.94,20.94,0,0,0,2.28,8.12c1.25,2.34,2,4.5,1.69,4.79s.94,1.16,2.81,1.93C1491.94,708.22,1498.48,705.52,1501,700.73Z"/><path fill="FRAME_COLOR" d="M1474.77,716.73c4.44-2.15,10.53-1.15,14.37,2.35a16.41,16.41,0,0,0,6.9,3.08c4.67.79,6.26,2.2,7.34,6.51.95,3.73-3.11,9.35-6.76,9.35-1.32,0-3.74,1.2-5.26,2.62-2.31,2.17-4.09,2.63-10.17,2.63s-7.86-.46-10.52-2.93C1461.09,731.42,1462.61,722.59,1474.77,716.73Zm-4.15,15.44c2.48,4.77,8.94,7.64,14,6.19,3.53-1,3.62-1.22,3.22-7.42-.23-3.5-1-7-1.81-7.73-2.48-2.42-6-2.52-11-.3C1468.92,725.59,1468.1,727.33,1470.62,732.17Z"/><path fill="FRAME_COLOR" d="M1150.56,795.87c3.31,3.31,3.57,6,1,9.7-2.1,3-8.08,3.49-11.59.95-3.13-2.27-2.81-8.66.59-11.4C1144.13,792.19,1147.1,792.41,1150.56,795.87Z"/></g></g></svg>