<svg xmlns="http://www.w3.org/2000/svg" viewBox="0 0 1650 1463.27"><title>Asset 54</title><g id="Layer_2" data-name="Layer 2"><g id="Layer_1-2" data-name="Layer 1"><path fill="FRAME_COLOR" d="M1647.11,521.81H1297.86c9.46-5.52,16.71-14.65,20-29.66,2.21-10,5.44-18.2,8.93-26.62,48.91,48.83,114.4,43.47,179.9,31.13,6.55-1.27,7.23-9.44,3.57-13.78-20.5-24.07-41.51-47.8-65.67-67.36a203.32,203.32,0,0,0,64.74-23.82,8.05,8.05,0,0,0,3.91-7.49c-1-8.25-27.39-24.66-27.39-24.66a131.72,131.72,0,0,0-41.26-13.7C1428,343,1408,339.13,1390.9,343.3c2.55-10.12,9.27-14.89,15.74-27.56,7.65-15,6.12-27.3-5.53-38.79-9.27-9.18-19.65-17.26-28.5-27.3A49.25,49.25,0,0,0,1351.78,235c-11.91-4.42-24.08-4.77-36.16-2.38,11.74-21.52,16.17-47-3.74-66.18-5.78-5.61-11.82-6.72-18.63-10.46-13.1-7.15-19.39-16.93-29.85-25.95-11.57-9.78-27.56-14-42.19-9.61-7.57,2.21-13.7,7.32-20.59,10.89-9.27,4.85-19.73,5.95-29,10.63-13.1,6.72-18,17.7-20.5,31.82a102,102,0,0,0-1.28,19.13c-18.88-8.08-42.19-6.12-58.18,6.72a70.55,70.55,0,0,0-7.06-2.38c.26-3,.43-6,.68-9.18l.34-13.61a113.18,113.18,0,0,0-2-21.18c15.48.08,29.09-2.39,43-8.68,3.74,5.1,10.12,8.93,16,5.44,6.89-4,7.32-14.63,5-21.35-2.64-7.65-9.36-16.07-18.46-12.84a11.27,11.27,0,0,0-7.14,10,9.38,9.38,0,0,0,.17,2.72c-14.38,7.06-27.73,8.76-43.89,8.17a41.53,41.53,0,0,0-2.64-5,14.16,14.16,0,0,0-1.19-1.87c18.2-3.66,35.72-15.91,48.57-28.84a21.37,21.37,0,0,0,6.8,2.3c4.6.68,11.23-2,10.38-8-.76-5.78-1.53-11.65-5.1-16.58-3.32-4.68-10.13-9.87-16.08-10-7.83-.26-12.25,7.74-11.31,14.88a13.88,13.88,0,0,0,2.72,6.72c-12.76,12.42-30.62,24.67-48.06,24.07a10.27,10.27,0,0,0-1.7.09c-2-2.21-3.66-4.25-5.27-6.3,7-21.43,30.11-40.82,48.82-54.94,4.68,4.42,12.16,6.37,17.52,2.38,7.91-5.79,1.11-16.76-2.63-23.05-4.34-7.15-11.57-15.06-20.33-9.11-6,4-6,10.47-3.83,16.34-15.74,11.9-33.17,26.28-44.74,43a122.92,122.92,0,0,1,10-43.47,15.84,15.84,0,0,0,4.77.94c5.7,0,9.86-5.53,9.27-10.89-.68-7.4-9.36-14.8-15.48-18.2-7.74-4.26-18.8-2.22-21,7.4-1.53,6.21,1.79,12.24,6.72,15.82A144.16,144.16,0,0,0,1034,78.76a17.14,17.14,0,0,0-5.36-2.38c-6.89-1.87-12.42,1.11-18.2,4.34-7.49,4.08-16.84,9.19-33.51,6.72-22.89-3.4-35.39.42-40.58,2.81-3.66-9.7-17.69-41.09-49.25-52.57a76.07,76.07,0,0,1-12.16-5.87l-.85-.51L872.55,31c-6.3-2.12-12.93-4.76-18.72-9.35-15.14-12.17-27.3-3.91-36.32,2.29-6.46,4.85-11.48,8-15.9,10.81-10,6.29-17.1,10.8-31.14,28.58-15.82,20.07-20.75,38.27-22.11,45.59A115.26,115.26,0,0,0,694,100.2,89.89,89.89,0,0,0,690.52,48,13.46,13.46,0,0,0,694,33.77c-3.32-9-14.55-11.4-23-9.1-7.83,2.21-19.56,11.22-14.29,20.58,3.57,6.29,11,7.91,17.86,7.06,6.64,16.42,6.89,33.77,1.53,50.7-.93.17-1.78.42-2.72.59-4.51-16.16-13.27-30.45-21.6-45.08C644.08,45,636.93,31,625.11,20.67c4.93-4.85,7-12.25,1.1-17.86-7.74-7.32-17.69,1.36-23.56,6.88-5.7,5.45-12.08,15.23-7.31,23.06s13.44,5.53,20,1.1c9.61,9.27,15.65,21.27,22.28,32.92,7.83,13.61,16,26.79,20.16,41.93-3.49,1.37-6.55,2.73-9.19,4C632.93,99,620.77,82.51,609.12,65.41a14.64,14.64,0,0,0,.59-14.12A9.59,9.59,0,0,0,597.46,47c-3.31,1.36-6.29,4.08-9.18,6.12s-7,4.08-8.94,7.23c-2.55,4.17-1.27,9,2.22,12.16A14.77,14.77,0,0,0,596,75.45C607.5,92,619.41,108.28,634.29,122a4.87,4.87,0,0,0-.93.94,20.67,20.67,0,0,0-1.79,2.89c-32.83-8-61.41-26-82.08-52.91,4.08-5,6.12-11.48,1.36-16.75-8-8.59-18.12.76-24.92,5.87-3.83,2.8-8.25,5.53-10,10.12a12,12,0,0,0,2.89,13.18c5.87,5.7,14,4.6,20,.34a161.33,161.33,0,0,0,88.46,56,11,11,0,0,1-.59,1.45c-1.53,2.81-4,4.59-6.81,6.63-3.31,2.38-7,5-9.1,9.79-2.63,5.78-1.7,12-.51,16.75.85,3.92,2,7.57,3.06,11.23a52.36,52.36,0,0,0-19,4.93,103,103,0,0,0-.69-14.46c-1.53-13.78-5.52-27-17.86-34.62-8.08-4.93-18.12-5.95-26.71-9.61-8.84-3.83-16.58-10.54-25.94-13.27-14.29-4.25-29.86-.34-41.34,9-12.08,9.78-14.29,17.69-30.7,26.54-5.62,3.06-11.15,3.83-16.25,8.08-22.63,18.71-18.2,45.85-6.13,68.47a68.29,68.29,0,0,0-32.83,1.19,52.28,52.28,0,0,0-21.78,12.93c-4.59,4.51-6.12,9.19-10.37,13.87C357.85,267,350,270.66,344,276.36c-8.59,8.08-12,16.67-10.63,26.37C267.26,276.87,193.77,288.35,139.16,336c-3.32,2.89-3.06,8.76,0,11.65a157.72,157.72,0,0,0,14.12,11.91l44.83,24.66c25.26,10.13,52.48,16.08,78.59,18.8,15.4,1.7,32.66,2.38,49.25.26a149,149,0,0,0-74,98.84c-1.28,5.53,2.38,9.95,7.91,10.37a193.72,193.72,0,0,0,154.21-56.82,45.49,45.49,0,0,1,3.32,5.53c5,9.79,6.81,19.4,8.93,29.86,3.19,15.67,10.59,25.12,20.33,30.76H2.89a14.81,14.81,0,0,0,0,17.59H1647.11a14.81,14.81,0,0,0,0-17.59Zm-343.73-48.45c-2.39,9.35-2.47,23.05-8.68,31-4.85,6.3-18.46,9.36-26,10a99.44,99.44,0,0,1-18.88-.69,62.06,62.06,0,0,0,11.14-7.23c9-7.31,14.8-17.35,24.5-24.24,5.53-3.91,12-6.55,18.12-9.61A2.67,2.67,0,0,1,1303.38,473.36Zm-43,10c-21.09,23.31-48.74,25.27-77.4,16.76a34.13,34.13,0,0,1-6-6.89c-8.59-13-9.86-29.6-8.59-44.91a81.38,81.38,0,0,1,1.45-10.12c0-.09,0-.09.08-.17a8,8,0,0,0,1.7-7.91c4.68-17.61,13.7-33.94,24.93-48.4a154.21,154.21,0,0,0-3.58,28.58c-.34,13.52,1.79,27.3,7.83,39.38a179.08,179.08,0,0,1,16-78.09,17.5,17.5,0,0,0,4.93-2c17.27,21.61,41.94,33,68.56,37.68a11.53,11.53,0,0,0,2.13,2c11.82,7.57,22,16.67,23.22,28.67C1308.39,459.07,1275.22,467.06,1260.42,483.39Zm-97.56-76.81a131.58,131.58,0,0,0-8,23.74c-7.23,7.91-15,15.31-24.07,21-4.94,3.06-12.08,7.4-18.88,9.27,5.61-11.57,9.1-22.71,8.67-36.66a87.91,87.91,0,0,0-14.12-44.32,72.46,72.46,0,0,0,32.07-30.79l.42-.85c2-4.17,3.66-8.34,5.28-12.51a7.87,7.87,0,0,0,3.32.94l23.73,1.79a56.17,56.17,0,0,0-9.62,7.74c-5,5.19-9.1,11.14-13.18,17a80,80,0,0,1,39.64-15.4,47.64,47.64,0,0,0,3.4,8.85,189.09,189.09,0,0,1-60.9,61.92A78.91,78.91,0,0,0,1162.86,406.58Zm-161.28,97.74a6.42,6.42,0,0,0-3.4-2.55,100.85,100.85,0,0,0,4-10.55c.76,5.44,1.44,10.8,2,16.16A18.79,18.79,0,0,1,1001.58,504.32Zm12.08,7.91c-3.57-32.75-8.16-67-26-95.27-18.11-28.58-50.61-41-71.36-66.86l-.09-.08v-.09c15.4,6.13,29.35,15.15,43.3,24.08,14.8,9.44,29.51,19.73,41.17,33.09,23.47,27.13,35,65.41,44.57,99.6C1035.35,509.76,1023.36,514.1,1013.66,512.23ZM552.81,356.4a54.93,54.93,0,0,0,3.4-8.85A80,80,0,0,1,595.85,363c-4.09-5.87-8.25-11.82-13.27-17a52.28,52.28,0,0,0-9.53-7.74c7.15-.51,14.21-1,21.35-1.62.17.43.43.77.6,1.19,3,6.55,4.84,13.78,6.72,20.76.51,1.87,1,3.82,1.53,5.69,1.44,5,3,10.3,5,15.83l5.1,11a49.64,49.64,0,0,0,11.23,14c7.06,6.12,15.82,9.87,26.88,11.57l7.74.85c3.48.17,7.23.25,11.39.08-2.46,11.74-1.19,22.54.52,33.69-14.13,2.8-32.84,9.18-46.62,5.69-13.61-3.57-25.52-15.82-35-26.45a145.58,145.58,0,0,0-8-23.82,79.17,79.17,0,0,0,32.24,11.74A188.31,188.31,0,0,1,552.81,356.4ZM758.4,244.89c-18.46-10.21-37.85-12.85-58.78-12.08-16.76.59-35.81.68-51.55,7.74-12.24-8.68-13.78-23.14-15.65-37.09a283.5,283.5,0,0,1,175.06,69.75,25.09,25.09,0,0,0-3.15,4.34C789.87,265.56,774.73,253.9,758.4,244.89Zm38.19,41.5a369.66,369.66,0,0,0-70.77-23.22c-24.75-5.36-53.34-11.22-79.28-7.4a42.55,42.55,0,0,1,16.16-7.48c16.33-3.83,34.79-4.42,51.55-3.66C746,246.16,772.6,266.24,796.59,286.39ZM635.32,267.34c28.83-8.5,64.13-1.19,92.71,5.36a379.77,379.77,0,0,1,81.57,29.43,8.75,8.75,0,0,1-.68,1.62c-.08.08-.08.17-.17.34a297.23,297.23,0,0,0-202.61-3.66c2.72-2.3,5.87-4.25,8.33-6.46A76.94,76.94,0,0,0,626,280.36C629.28,275.76,632.17,271.42,635.32,267.34Zm227.62,31.05c-3,4.51-9.87,5.1-13.36.93a7.51,7.51,0,0,1-1-8.42,6.25,6.25,0,0,1,1.11-1.95c2.29-2.9,4.93-3.75,8.59-3.07C863.53,287.08,865.66,294.14,862.94,298.39ZM862.59,267a8.72,8.72,0,0,1,.09-3,8.87,8.87,0,0,1,2.64-6.55c4.51-4.33,12.08-2.63,15,2.56a10.09,10.09,0,0,1-4.09,13.69C870.76,276.36,863.7,273.13,862.59,267Zm-15.05,14.29a9.94,9.94,0,0,1-11.31-5,6.87,6.87,0,0,1,.42-7.31,9.15,9.15,0,0,1,17.61.85A9.43,9.43,0,0,1,847.54,281.29Zm-11.82,5.62c1.1,5.35-3,10.54-8,11.82a10.38,10.38,0,0,1-7.65-1.11,9.88,9.88,0,0,1-4.34-5.95,6.7,6.7,0,0,1,1.87-6.47,9,9,0,0,1,6.72-6.29A10,10,0,0,1,835.72,286.91Zm-13.87,61.58a15.37,15.37,0,0,0,5.19.59c-33,23.57-66.35,47.38-94.84,76.39a291.74,291.74,0,0,0-34.62,41.93c-3.23,4.85-6.47,9.78-9.19,14.8.09-.76.17-1.61.26-2.38.34-7.4-.77-14.63-2.13-21.86-.85-5.1-1.7-10-2.3-14.88,4.43-10.55,19.57-22.55,26.12-28.24a247.51,247.51,0,0,1,36.74-26.2C771.41,374.18,797.19,362.35,821.85,348.49ZM683.71,429.3a56.06,56.06,0,0,1,4.43-19.48c6.46-15.57,18.62-28.67,32.49-38,24.75-16.59,55-21.44,84.38-24.25C777.79,362,749.81,375,724.46,392.63a198.54,198.54,0,0,0-33.94,29.18C688.31,424.19,685.93,426.66,683.71,429.3ZM811.64,322.2c0,.09.09.17.09.26a267.82,267.82,0,0,0-178.29,71.2c-.85-.69-1.61-1.54-2.46-2.3-9.7-10.63-12.42-25.94-16.16-39.38A351.33,351.33,0,0,1,811.64,322.2Zm-5.18-9.52a360.41,360.41,0,0,0-194.2,30.62q-1.28-4.08-2.8-8.17a60.31,60.31,0,0,0-4.85-8.76,7.62,7.62,0,0,0-3.15-5.36,24,24,0,0,1-1.79-4.33,13.35,13.35,0,0,1-.68-4.26A288.47,288.47,0,0,1,806.46,312.68Zm-165.36,86a259,259,0,0,1,170-67.36,12.34,12.34,0,0,0-.17,3.91c-39.29,3.57-80.63,9.78-110.49,37.51a95.46,95.46,0,0,0-22.2,30.11C665.94,403.61,652.24,404,641.1,398.67ZM690,511.21v-.85c-2-18.63,14.2-37.94,24.92-51.8a318.18,318.18,0,0,1,37.26-40c24.32-22.29,51.12-41.68,78-60.82l.51.77c-24.24,22.79-44.66,50.86-65.58,76.63-19.74,24.25-37.86,49.68-48.74,79.11C707.1,513.76,696.05,516,690,511.21ZM820.07,322a8,8,0,0,1,.16-7c.26-4.94,4.26-9.36,9.53-9.11a10.26,10.26,0,0,1,9.7,8.51,11.5,11.5,0,0,1-6.13,11.91C828.74,328.67,822.28,326.88,820.07,322Zm13.18,18.29a9.15,9.15,0,0,1,1.62-6.13,9.9,9.9,0,0,1,8.84-4,11.18,11.18,0,0,1,9.78,8.93,10.58,10.58,0,0,1-7.74,12.16,10.86,10.86,0,0,1-12.08-5.27A6.72,6.72,0,0,1,833.25,340.24ZM849.5,322a7.56,7.56,0,0,1,.51-10.47,5.48,5.48,0,0,1,1.87-1.19,7.55,7.55,0,0,1,3.74-1.95,8.36,8.36,0,0,1,10,6.37,9,9,0,0,1-4.85,9.87C856.9,326.54,852.22,325.18,849.5,322Zm8.59,26.87c3.14-4.93,10.37-4.67,14-.51s3.06,11.15-2.12,13.78a8.85,8.85,0,0,1-12-3.57,7.22,7.22,0,0,1-.76-2.64A8,8,0,0,1,858.09,348.91Zm14.2-22c-2.13-3.65-.17-8.16,3.15-10,.08,0,.08,0,.17-.09a7.86,7.86,0,0,1,12.25,4.51,8.45,8.45,0,0,1-5.28,9.7C878.42,332.41,874.42,330.46,872.29,326.88Zm9.1,17.19c2-3.41,7.06-4.26,10.29-2.13a1.62,1.62,0,0,1,.43.25,7.6,7.6,0,0,1,2.21,10.3c-2,3.4-7.06,4.25-10.29,2.12-.17-.08-.25-.17-.43-.25A7.6,7.6,0,0,1,881.39,344.07Zm6.38-42.7a11,11,0,0,1-6.63.42,7.77,7.77,0,0,1-6.72-5.87,11.86,11.86,0,0,1,6-12.84c5.11-2.64,11.66-1,14.21,4.25C897.38,293.2,893.39,299.41,887.77,301.37Zm4.43-30.71a6.48,6.48,0,0,1-.34-5.87c.08-.17,0-.34.08-.6,1.19-6.38,9-9.27,14.38-5.95,5.53,3.32,5.61,11.06,1.36,15.31a10,10,0,0,1-8.51,2.3A10.29,10.29,0,0,1,892.2,270.66Zm14.37,23.82a10.67,10.67,0,0,1,12.33,5.61,10.84,10.84,0,0,1-4.76,14.12,10.72,10.72,0,0,1-13.1-2.72,8.27,8.27,0,0,1-1.78-4.09v-.08C897.38,301.79,901.47,296,906.57,294.48Zm4.93,35.38c2,9.36-12.58,12.42-14.54,3.06S909.46,320.5,911.5,329.86ZM904.7,355a9.76,9.76,0,0,0,4.42.26c.17.25.34.59.6.93,20,24.84,51.54,37,69.32,63.88-25.18-20.67-60.82-32.06-74.43-63.28A11.93,11.93,0,0,0,904.7,355Zm83.53,94.25c10.12,19.39,3.83,39.55-6,57.5-10-44.4-42.87-77.91-66.09-116.36C940.34,410,973.34,420.53,988.23,449.2Zm19-48.06c-12.16-13.95-27.47-24.75-42.95-34.62-13.44-8.59-27.05-17.27-41.68-23.56.42-.26.85-.6,1.27-.85,36.83,13.86,74.69,28.41,104,55.54,28.92,26.71,46.1,63.46,50.53,102.25a13,13,0,0,1-6,3.31c-5.7,1.45-12.59.34-18.63,1.28C1043.86,468.85,1031.78,429.38,1007.28,401.14Zm27.22-9.53C1006.09,365.16,970,350,934.13,336.41c64.9,15.31,139.5,45.51,169.27,108.79-4.34,12.68-13.7,22.71-18.29,35.3l-.51,1.53C1077.54,447.75,1060.36,415.69,1034.5,391.61ZM930,326.37a9.89,9.89,0,0,0,1.7-1.61c25.78,8.5,55,6.63,81.32,12.59,33.17,7.4,68,23.56,84.55,55a74.46,74.46,0,0,1,8.59,38.62C1071.33,370.18,995.12,340.83,930,326.37Zm216.48-25.69c-6,6.21-9.44,13.78-12.5,21.61a400.45,400.45,0,0,0-191.81-17.18,501.34,501.34,0,0,1,210.6-11.31C1151.8,296.26,1149,298,1146.44,300.68Zm8.93,12.93,3.15-3.14c.76-.85,1.53-1.7,2.55-2.81l.59-.77a40.77,40.77,0,0,0,9.53,14.89c-6.89-.51-13.78-1-20.67-1.62C1153.24,315.31,1155.2,313.78,1155.37,313.61Zm-24.58,17c-.26.59-.51,1.27-.77,1.95a66.53,66.53,0,0,1-11.73,19.82c-20.08-16.41-45.77-22.11-71-27-31.21-6.12-62.94-9.69-94.58-12.84A392.09,392.09,0,0,1,1130.79,330.63Zm-191.3-34A422.76,422.76,0,0,1,1121.94,255a102.6,102.6,0,0,0,6.81,10,69.88,69.88,0,0,0,12.84,12.76c2,1.62,5.19,3,6.81,5a19,19,0,0,1,1.27,1.53A508.17,508.17,0,0,0,939.49,296.6ZM1095.32,369a124.21,124.21,0,0,0-38.53-29.18,148.63,148.63,0,0,0-16.51-6.89c25,4.26,52.06,9.78,71.71,25.78A64.9,64.9,0,0,1,1095.32,369Zm106.58-39.3c.08-6.63-.34-25.18,10.63-18.8a7.06,7.06,0,0,0,1.87.85c4.85,4.85,8.08,10.81,8.42,17.95.17,4.85-1.1,9.7-2.46,14.21-1.7,5.52-1.28,7.74-7.74,8C1202.07,352.32,1201.64,338,1201.9,329.69Zm287,153.53c-57.42,9.79-113.3,11.83-155.57-34.62a31,31,0,0,0,.59-14,43.42,43.42,0,0,0-8.84-18.88,138.22,138.22,0,0,1,80.89,37.6,78.61,78.61,0,0,0-39.13-41.6,73.81,73.81,0,0,0-12.08-4.34c9.78-1.53,19.56-4.42,26.8-10.54C1425.86,413.81,1458.53,448,1488.89,483.22ZM1449,363.29c15.91,3.49,29.94,9.53,42.1,19.48a181,181,0,0,1-60.56,18.46,9.24,9.24,0,0,0-3.57,1.19,225.68,225.68,0,0,0-24.16-14c2.21-.93,4.34-1.95,6.47-3A135.48,135.48,0,0,1,1446,374.6a161.64,161.64,0,0,0-53.93-.34c-.08-4.42-1-8.67-1.61-13.69C1406.81,353.85,1433.26,360,1449,363.29ZM1332,247.78c21.35.59,33.6,18.8,45.59,33.94,7.49,9.35,21.52-1,14.8,25.77-1.36,5.36-8.67,11.65-11.65,16.16-6.12,9.36-9.36,17.27-8.76,28.5.34,5.35,3.32,10.63,3.32,15.9.25,19.14-13.95,22.46-30.54,23.9-34.37,3-73.49,1-100-21.77a94.9,94.9,0,0,0,61,2.89c-25.18-.34-48.23-13.35-68.64-28.58,2.38-10.55,2.13-20.92-1.7-30.28a164.46,164.46,0,0,1,78-17.69c-13.61-4.09-27.39-8.25-41.68-8.51a60.34,60.34,0,0,0-22,3.49c13.61-13.27,29.52-26.46,46.45-34.88a6.23,6.23,0,0,0,3.57-1.61C1310.43,250.33,1321.24,247.44,1332,247.78Zm-90.42-109a9.76,9.76,0,0,0,3.66-.94c10,5.44,15.4,18.46,26.28,26.54,11.06,8.16,25.1,6.12,33.6,19.82,12,19.39-3,42.78-15.31,57.5-13.1,6.55-25.6,15.39-37,25.09,4.17-11.65,5.36-24.5,1.87-36.23a234.78,234.78,0,0,1-32.66,66.09,7.1,7.1,0,0,0-3.15-.94,27.48,27.48,0,0,0-6.8-2.64,123,123,0,0,1-7.4-70.6c-4.34,6.55-8.76,13.1-11.66,20.42a43.52,43.52,0,0,0-3.06,14.63c-3.32-5.19-6.55-10.38-9.61-15.74a9,9,0,0,0-.09-2.12c-5-25.61,5.62-41.94,22.63-59.38C1216.87,166,1217.29,140,1241.62,138.82Zm-75.19,47.46c1.19-25,10.72-28.16,31-35.56a41.81,41.81,0,0,0,6.88-3.23c-4.84,8.34-9.61,17.61-18,25.78a76.24,76.24,0,0,0-19.22,29.17A92.7,92.7,0,0,1,1166.43,186.28Zm-15.23,25.94a4.48,4.48,0,0,0,.77.6,119.91,119.91,0,0,0,7.06,22.79c4.34,10.13,10.29,19.4,16.16,28.58a116,116,0,0,0-34.79-18.45c19.31,18.28,39.38,37.93,48.4,62.52a50.85,50.85,0,0,0-2.47,9.44,71.44,71.44,0,0,1-19.48-18.29,17.84,17.84,0,0,0,2.05-9.87l-.34-1.36c-4.17-10-11.4-17.35-19.74-25.86-8.5-8.59-18-18.37-24.67-32.32l-.25-.51c-2.21-3.49-4.25-6.46-6.21-9.19a60.15,60.15,0,0,0-10.46-11.22C1120.5,202,1139.55,203,1151.2,212.22Zm-50.61,10.29a56.06,56.06,0,0,1,7.32,8.85c3.23,4.76,6,9.78,8.84,14.8a431.24,431.24,0,0,0-185,44.4c-.17-.17-.26-.34-.43-.51,21.27-18.46,46.62-30.7,72.47-41.76C1034.76,235.19,1066.4,221,1100.59,222.51Zm-12.67-8.76c-29.18,1.79-56.57,13.36-83.53,24.67-26.71,11.23-52.91,23.48-75.28,41.77v-.43A422.82,422.82,0,0,1,1015,224.81C1038.16,213.67,1065.8,203.72,1087.92,213.75Zm-17.86-16a96.61,96.61,0,0,0-30.62,4.34c11.14-11.06,21.68-22.54,31.64-34.62C1071.76,177.52,1071,187.9,1070.06,197.76ZM1054.83,129c4.51,4.34,8.59,9.19,11.23,15.39a73.16,73.16,0,0,1,3.4,11.06,479.35,479.35,0,0,1-51.21,54.7C1009,214,999.88,218.43,991,223.2A364.56,364.56,0,0,0,1054.83,129Zm-27.9-32.66c2.55,2.29,3.49,6.29,5.78,10,4.09,6.64,9.7,11.57,15.32,16.42a353,353,0,0,1-94.17,123.34c-8.33,5.78-16.5,11.9-24.49,18.11A438.22,438.22,0,0,0,1026.93,96.29Zm-45.51,6c3.32,0,6.13,0,8.17-.09,3.23-.25,6.63-.43,9.95-.85a6.19,6.19,0,0,0,2.81-.43,38.56,38.56,0,0,0,8.16-2.38c1.88-.85,3.75-2.8,5.7-3.4.68-.17,1.28-.25,1.79-.34a429.38,429.38,0,0,1-97.82,166.21c-.25-.68-.51-1.45-.77-2.13C947,209.67,974.19,159,981.42,102.33Zm-46.35,16.92c-.26-14.8,20.58-16.84,37.42-17C965.35,156.42,939.4,204.91,913,252.12c-.18-.09-.35-.26-.51-.34a15,15,0,0,0-9.11-1.28C920,216,933.11,179.3,934.9,140.77a189.77,189.77,0,0,0-.17-19.48A5.2,5.2,0,0,0,935.07,119.25Zm-33.69-56.9c21.52,23.56,23.9,59.88,20.67,89.91-3.4,32.23-14.71,62.94-28.66,92-.09-.09-.17-.17-.26-.17,11.4-26.28,13.19-55,14.29-83.7,1.28-33.85,1.79-67.71-8.08-100.11ZM860.3,43.12c9.53,3.75,18.63,5.36,27.05,9.19.08.26.17.6.25.85,13.19,34.19,12.25,70.69,10.89,106.67-1,27.55-2.47,55.71-13.61,81.06a11.86,11.86,0,0,0-1.79-.09,19.07,19.07,0,0,0-6.21,1C882.5,203,883,163.31,880,124.27,877.65,95.44,872,66.77,857.83,42,858.6,42.36,859.36,42.78,860.3,43.12Zm-40-3.65c6.89-4.51,12.76-9.28,19.48-8.17,23.56,29.18,29.94,66.94,32,103.69s1.28,73.83-4.34,110.24c0-.09-.08-.09-.17-.09-1.27-.51-2.55-.94-3.91-1.36A697.88,697.88,0,0,0,814.79,43.12C816.58,41.93,818.45,40.74,820.32,39.47Zm-13,8.84a690.06,690.06,0,0,1,47,194.36,10.37,10.37,0,0,0-5.27,2.22c-8.25-62.95-36.92-120.19-66-176C790,61.33,798.2,54.69,807.31,48.31ZM776.94,76.38c26.88,51.8,53.08,104.71,62.26,162.55q-11.48-26.42-23.13-52.82c-8.59-19.65-17.27-38.45-33.35-53.25a126.71,126.71,0,0,0-19-14.46C763.75,101.22,768.77,87.78,776.94,76.38Zm-76.13,36.75c33.77-3.49,69.84,17.69,88.21,45.33,10,15,16.25,32.5,23.39,48.83,5.19,11.74,10.29,23.56,15.48,35.3-1.1-1.53-2.21-3.06-3.4-4.59-7.91-10.55-15.91-21-23.9-31.48-14.46-18.79-28.41-38.78-44.92-55.88a118.68,118.68,0,0,0-69.83-35.13A119.35,119.35,0,0,1,700.81,113.13Zm-48.57,13.61q3.32-1.67,6.89-3.06c37.43-3.49,72,11.73,96.46,40.14,12.25,14.21,23.48,29.35,35,44.23,5.78,7.4,11.48,14.89,17.18,22.38,5.87,7.82,14.38,16.5,18.2,26-.51.68-.93,1.36-1.36,2.05A380.44,380.44,0,0,0,739.17,187a361.7,361.7,0,0,0-51.46-26.28c-14.29-6-29.94-13.27-45.84-14.21C643.74,139.07,643,131.25,652.24,126.74Zm-15.56,29.17c.25-.25.42-.51.59-.68,17.86-.76,38.28,9.61,54.18,16.67a357.15,357.15,0,0,1,50.87,27.48,374.64,374.64,0,0,1,77.32,66.94A31.15,31.15,0,0,0,815,268a292.64,292.64,0,0,0-184-73.49c-.17-.85-.34-1.62-.51-2.38-1.45-6.3-5.11-12.59-6.21-19C622.39,162.38,630.21,161.87,636.68,155.91Zm-53.17,83.53A116.5,116.5,0,0,0,592.1,213a7.8,7.8,0,0,0,1-.77,37.09,37.09,0,0,1,24.67-8.42,87.84,87.84,0,0,1,2.13,13.27c1.61,18.29,7.48,27.22,10.8,30.88-5.53,5.19-9,11.23-12.67,17.52-4.94,8.42-9.95,17.1-20.67,25.69-8.93,7.14-13.78,14.12-14.21,20.67a12,12,0,0,0,2.13,8l.17.26c.08.25.25.51.34.76-4.25.26-8.42.6-12.67.94,9-8.85,13.69-22.12,11.56-34.7a71,71,0,0,1-26.79,30.62,46.15,46.15,0,0,0-2.47-9.44c9.11-24.59,29.18-44.24,48.49-62.52A116.55,116.55,0,0,0,569.31,264C574.41,256.11,579.52,248.12,583.51,239.44Zm-36.66-88.72c17.78,6.55,29,10.13,30.88,31.39a96.93,96.93,0,0,1-.43,20.5,77.16,77.16,0,0,0-19.39-29.34c-8.25-8-12.93-17-17.61-25.27C542.34,148.94,544.47,149.87,546.85,150.72ZM439.17,184.24c7.4-11.66,23.22-12.34,33.51-19.82,2.64-2,4.68-4.51,6.89-6.81,10-10.37,12.16-16.84,24.58-18.62,22.8,2.21,23.65,27.39,37.26,41.33C558.33,197.76,569,214.09,564,239.7a9.27,9.27,0,0,0-.17,2.12c-3,5.45-6.21,10.64-9.52,15.74a42,42,0,0,0-3.15-14.63c-2.89-7.32-7.23-13.87-11.57-20.42a122.49,122.49,0,0,1-7.48,70.6,30.36,30.36,0,0,0-6.81,2.64,7.09,7.09,0,0,0-3.06.94,235.3,235.3,0,0,1-32.75-66.09c-3.49,11.73-2.29,24.58,2,36.15-11.4-9.7-24-18.63-37.17-25.1C442.06,226.85,427,203.46,439.17,184.24Zm92.54,167.65c-6.46-.25-5.87-2-7.74-8a45.74,45.74,0,0,1-2.21-11.15c-.51-8.67,2.47-15.22,8.08-21a6.41,6.41,0,0,0,2-.85c10.46-6.12,10.29,9.61,10.54,16.5C542.77,336,542.85,352.4,531.71,351.89ZM283.93,387.28c-43.38-3.41-92.12-16.85-126.31-45.17C210.86,300.26,282.4,294,343.22,325c3.74,5.36,7.23,10,9.44,15.82a214.13,214.13,0,0,0-109.47-1.1,248.5,248.5,0,0,1,110.92,21.43c-1,6-2.81,11.32-2,17.52C331.91,389.06,305.71,389,283.93,387.28Zm127,43.89a38.63,38.63,0,0,0-.94,6.29,6.88,6.88,0,0,0-3.06,2c-36,38.45-84.64,58.61-136.61,57.16,14.29-48.23,53.67-83.78,103.61-93.31a68,68,0,0,0,14.12,3.91,88.7,88.7,0,0,0-11,5.62c-16.92,10.21-30.87,24.58-44.65,38.79a346.5,346.5,0,0,1,86.93-36.32A43,43,0,0,0,410.93,431.17ZM399.53,392c-15.91-1.36-31.56-4-30.62-23.9.25-5.27,3.06-10.55,3.31-15.9.6-11.15-2.63-19.23-8.76-28.5-3.06-4.59-11-10.72-11.56-16.16-1.2-11.74,9.1-18.8,14.71-25.77,12.25-15.06,24-33.43,45.68-33.94,10.8-.26,21.69,2.55,32.24,7.31a5.89,5.89,0,0,0,3.31,1.53c16.93,8.34,32.92,21.52,46.53,34.88A60.31,60.31,0,0,0,472.42,288c-14.2.26-28,4.42-41.59,8.51a164.1,164.1,0,0,1,77.91,17.69c-3.74,9.36-4.08,19.73-1.61,30.28-20.41,15.14-43.47,28.24-68.73,28.58a94.87,94.87,0,0,0,61-2.89C472.94,393,433.89,394.85,399.53,392ZM428.28,437a30.65,30.65,0,0,1,3.4-8.59c4.76-8.6,12-14,20.16-19.23a8.71,8.71,0,0,0,2-2c26.63-4.67,51.29-16.07,68.56-37.68a18,18,0,0,0,5,2,178.86,178.86,0,0,1,15.9,78.09c6.13-12.08,8.26-25.86,7.91-39.38a159.3,159.3,0,0,0-3.57-28.41c11.32,14.54,20.08,30.79,24.75,48.65a7.91,7.91,0,0,0,1.45,7c.26,1.36.6,2.63.85,4,2.21,14.29,2.13,30-3,43.73A35.26,35.26,0,0,1,562,500c-28.92,8.76-56.73,7-78.08-16.59C468.85,466.81,434.91,458.73,428.28,437ZM441,474.46a12.76,12.76,0,0,0-.51-1.87c6.21,3.06,12.76,5.61,18.37,9.61,9.7,6.89,15.48,16.93,24.5,24.24a56.1,56.1,0,0,0,11,7.15,109.14,109.14,0,0,1-13.86.77c-9.7-.26-24.67-1.45-30.88-10C443.59,496.32,443.33,483.9,441,474.46Zm121,47.35a37.28,37.28,0,0,0,6-3.54c14.21-10.29,20.84-28.16,23.39-44.91a112,112,0,0,0,1.2-16.76c8.33,7.32,17.6,13.44,27.55,16.08,16.85,4.42,36.41-1.79,53.42-5.28.09.34.09.6.17.94.68,5.36-.25,11.82-1.19,18-1.87,12.42-3.74,25.18,5,35,.14.15.31.25.45.39Zm175,0a118.25,118.25,0,0,0-11.84-5.67c10.72-28.32,28.33-52.74,47.38-76.13,20.93-25.85,41.43-54,65.84-76.64a4.09,4.09,0,0,0,1.1.17c-30.12,50.53-59.63,101.9-76.86,158.27Zm80.2-72.61a3.76,3.76,0,0,0-1.53,2.13,558.91,558.91,0,0,0-16.67,65.49,117.14,117.14,0,0,1-10.72,5H771.92c13.23-41.91,33.08-80.93,55-119A201.14,201.14,0,0,0,817.26,449.2Zm3.15,53.33c-.18.17-.34.26-.51.43-3.41,2.72-7,5.27-10.64,7.74,2.21-10.72,4.77-21.27,7.66-31.81A146.66,146.66,0,0,0,820.41,502.53Zm-2,19.28c1.58-1.07,3.17-2.14,4.74-3.29.5,1.16,1.11,2.19,1.65,3.29Zm21.73,0c-4.46-7.19-7.18-15.52-8.91-23.62-9.19-43.38,1.53-90.41,23.39-128.69a20.38,20.38,0,0,0,5.61,3.23c-11.42,49.06,5,100-4.72,149.08Zm24.32,0c8.78-49-7.44-99.6,4.71-148.31a12.74,12.74,0,0,0,1.44-.34c3,50.71,25,98.55,29.68,148.65Zm44.71,0c-4.78-50.16-26.75-97.85-29.71-148.57,9.18,33,26.37,62.61,42,93.06,8.67,16.84,17.86,34.53,20.24,53.58.08.65.1,1.29.17,1.93Zm40.35,0a122,122,0,0,0-10.52-40c-17.52-38.7-41.77-74-52.23-115.68a16.93,16.93,0,0,0,8.17.93,4.11,4.11,0,0,0,.34,2.21c22.28,52.23,71.79,91,80.12,149.2-.51.76-.93,1.53-1.44,2.21l-.76,1.16Zm40.83,0c1.06-1.77,2.16-3.55,3.17-5.33a33.26,33.26,0,0,0,6.93,5.33Zm54.45,0c3.56-1.14,7.21-2.26,10.82-3a66.33,66.33,0,0,1,11.05-.85,68.32,68.32,0,0,0,9.11-.43l1.53-.17.17-.08c9.52-1.45,15.82-11.14,17.6-14.12l.43-1.11c.94-3.32,1.61-6,2.21-8.67a62.79,62.79,0,0,1,5.1-15.83c17.1,1.37,34.62-8.93,48.91-21.09a100.7,100.7,0,0,0,1,15.82c2.38,16.84,8.68,34.79,22.72,45.42a37.59,37.59,0,0,0,7,4.14Z"/><path fill="FRAME_COLOR" d="M2.89,941.46H352.14c-9.46,5.52-16.71,14.66-20,29.66-2.21,10-5.44,18.2-8.93,26.62-48.91-48.82-114.4-43.46-179.9-31.13-6.55,1.28-7.23,9.44-3.57,13.78,20.5,24.07,41.51,47.8,65.67,67.37a203.06,203.06,0,0,0-64.74,23.81,8.05,8.05,0,0,0-3.91,7.49c1,8.25,27.39,24.67,27.39,24.67a132,132,0,0,0,41.26,13.69c16.58,2.81,36.57,6.72,53.67,2.55-2.55,10.13-9.27,14.89-15.74,27.56-7.65,15-6.12,27.31,5.53,38.79,9.27,9.19,19.65,17.27,28.5,27.3a49.17,49.17,0,0,0,20.83,14.63c11.91,4.43,24.08,4.77,36.16,2.39-11.74,21.52-16.17,46.95,3.74,66.17,5.78,5.62,11.82,6.72,18.63,10.47,13.1,7.14,19.39,16.92,29.85,25.94,11.57,9.78,27.56,14,42.19,9.61,7.57-2.21,13.7-7.32,20.59-10.89,9.27-4.85,19.73-6,29-10.63,13.1-6.72,18-17.69,20.5-31.81a102.1,102.1,0,0,0,1.28-19.14c18.88,8.08,42.19,6.12,58.18-6.72a70.55,70.55,0,0,0,7.06,2.38c-.26,3-.43,6-.68,9.19l-.34,13.61a113.26,113.26,0,0,0,2,21.18c-15.48-.09-29.09,2.38-43,8.67-3.74-5.1-10.12-8.93-16-5.44-6.89,4-7.32,14.63-5,21.35,2.64,7.65,9.36,16.08,18.46,12.84a11.27,11.27,0,0,0,7.14-10,9.41,9.41,0,0,0-.17-2.72c14.38-7.06,27.73-8.76,43.89-8.17a40.8,40.8,0,0,0,2.64,5,14.16,14.16,0,0,0,1.19,1.87c-18.2,3.66-35.72,15.91-48.57,28.84a21.37,21.37,0,0,0-6.8-2.3c-4.6-.68-11.23,2-10.38,8,.76,5.78,1.53,11.65,5.1,16.58,3.32,4.68,10.13,9.87,16.08,10,7.83.25,12.25-7.74,11.31-14.89a13.88,13.88,0,0,0-2.72-6.72c12.76-12.42,30.62-24.67,48.06-24.07a10.27,10.27,0,0,0,1.7-.09c2,2.22,3.66,4.26,5.27,6.3-7,21.43-30.11,40.83-48.82,55-4.68-4.43-12.16-6.38-17.52-2.38-7.91,5.78-1.11,16.75,2.63,23,4.34,7.14,11.57,15,20.33,9.1,6-4,6-10.46,3.83-16.33,15.74-11.91,33.17-26.29,44.74-43a122.86,122.86,0,0,1-10,43.46A15.82,15.82,0,0,0,585,1423c-5.7,0-9.86,5.53-9.27,10.88.68,7.4,9.36,14.8,15.48,18.21,7.74,4.25,18.8,2.21,21-7.4,1.53-6.21-1.79-12.25-6.72-15.82A144.29,144.29,0,0,0,616,1384.51a17.14,17.14,0,0,0,5.36,2.38c6.89,1.87,12.42-1.1,18.2-4.34,7.49-4.08,16.84-9.18,33.51-6.72,22.89,3.41,35.39-.42,40.58-2.8,3.66,9.69,17.69,41.08,49.25,52.56a76.07,76.07,0,0,1,12.16,5.87l.85.51,1.53.26c6.3,2.12,12.93,4.76,18.72,9.35,15.14,12.17,27.3,3.92,36.32-2.29,6.46-4.85,11.48-8,15.9-10.8,10-6.3,17.1-10.81,31.14-28.58,15.82-20.08,20.75-38.28,22.11-45.6a115.26,115.26,0,0,0,54.35,8.76,89.88,89.88,0,0,0,3.49,52.23,13.47,13.47,0,0,0-3.49,14.21c3.32,9,14.55,11.39,23,9.1,7.83-2.21,19.56-11.23,14.29-20.59-3.57-6.29-11-7.91-17.86-7.06-6.64-16.41-6.89-33.77-1.53-50.69.93-.17,1.78-.43,2.72-.6,4.51,16.16,13.27,30.45,21.6,45.08,7.74,13.53,14.89,27.56,26.71,37.85-4.93,4.85-7,12.25-1.1,17.87,7.74,7.31,17.69-1.36,23.56-6.89,5.7-5.45,12.08-15.23,7.31-23s-13.44-5.53-20-1.11c-9.61-9.27-15.65-21.26-22.28-32.92-7.83-13.61-16-26.79-20.16-41.93,3.49-1.36,6.55-2.72,9.19-4,15.65,13.7,27.81,30.2,39.46,47.29a14.64,14.64,0,0,0-.59,14.12,9.6,9.6,0,0,0,12.25,4.26c3.31-1.36,6.29-4.09,9.18-6.13s7-4.08,8.94-7.23c2.55-4.17,1.27-9-2.22-12.16a14.77,14.77,0,0,0-14.46-2.89c-11.48-16.59-23.39-32.84-38.27-46.53a4.87,4.87,0,0,0,.93-.94,20.11,20.11,0,0,0,1.79-2.89c32.83,8,61.41,26,82.08,52.91-4.08,5-6.12,11.48-1.36,16.76,8,8.59,18.12-.77,24.92-5.87,3.83-2.81,8.25-5.53,10-10.13a12.05,12.05,0,0,0-2.89-13.18c-5.87-5.7-14-4.59-20-.34a161.33,161.33,0,0,0-88.46-56,11,11,0,0,1,.59-1.45c1.53-2.8,4-4.59,6.81-6.63,3.31-2.38,7-5,9.1-9.78,2.63-5.79,1.7-12,.51-16.76-.85-3.91-2-7.57-3.06-11.23a52,52,0,0,0,19-4.93,103,103,0,0,0,.69,14.46c1.53,13.78,5.52,27,17.86,34.62,8.08,4.93,18.12,6,26.71,9.61,8.84,3.83,16.58,10.55,25.94,13.27,14.29,4.25,29.86.34,41.34-9,12.08-9.78,14.29-17.69,30.7-26.53,5.62-3.07,11.15-3.83,16.25-8.09,22.63-18.71,18.2-45.84,6.13-68.47a68.17,68.17,0,0,0,32.83-1.19,52.28,52.28,0,0,0,21.78-12.93c4.59-4.51,6.12-9.19,10.37-13.86,5.87-6.47,13.7-10.13,19.74-15.83,8.59-8.08,12-16.67,10.63-26.36,66.09,25.85,139.58,14.37,194.19-33.26,3.32-2.89,3.06-8.76,0-11.66a156,156,0,0,0-14.12-11.9l-44.83-24.67c-25.26-10.12-52.48-16.08-78.59-18.8-15.4-1.7-32.66-2.38-49.25-.25a149,149,0,0,0,74-98.84c1.28-5.53-2.38-10-7.91-10.38a193.72,193.72,0,0,0-154.21,56.82,44.73,44.73,0,0,1-3.32-5.53c-5-9.78-6.81-19.39-8.93-29.86-3.19-15.67-10.59-25.12-20.33-30.76h443.76a14.8,14.8,0,0,0,0-17.58H2.89a14.8,14.8,0,0,0,0,17.58Zm343.73,48.46c2.39-9.36,2.47-23.06,8.68-31,4.85-6.3,18.46-9.36,26-10a100.26,100.26,0,0,1,18.88.68,62.61,62.61,0,0,0-11.14,7.23c-9,7.31-14.8,17.35-24.5,24.24-5.53,3.91-12,6.55-18.12,9.61A2.6,2.6,0,0,1,346.62,989.92Zm43-10c21.09-23.31,48.74-25.26,77.4-16.76a34.13,34.13,0,0,1,6,6.89c8.59,13,9.86,29.6,8.59,44.91a81.54,81.54,0,0,1-1.45,10.13c0,.08,0,.08-.08.17a8,8,0,0,0-1.7,7.91c-4.68,17.6-13.7,33.94-24.93,48.4A154.31,154.31,0,0,0,457,1053c.34-13.53-1.79-27.31-7.83-39.39a179,179,0,0,1-16,78.09,17.5,17.5,0,0,0-4.93,2c-17.27-21.61-41.94-33-68.56-37.68a12.27,12.27,0,0,0-2.13-2c-11.82-7.57-22-16.67-23.22-28.66C341.61,1004.21,374.78,996.21,389.58,979.88Zm97.56,76.81a131.48,131.48,0,0,0,8-23.73c7.23-7.91,15.05-15.31,24.07-21,4.94-3.07,12.08-7.4,18.88-9.27-5.61,11.56-9.1,22.71-8.67,36.66a87.87,87.87,0,0,0,14.12,44.31,72.51,72.51,0,0,0-32.07,30.79l-.42.85c-2,4.17-3.66,8.34-5.28,12.51a8,8,0,0,0-3.32-.94l-23.73-1.78a57.15,57.15,0,0,0,9.62-7.74c5-5.19,9.1-11.15,13.18-17a80,80,0,0,1-39.64,15.4,47.91,47.91,0,0,0-3.4-8.85,189.18,189.18,0,0,1,60.9-61.92A79.06,79.06,0,0,0,487.14,1056.69ZM648.42,959a6.45,6.45,0,0,0,3.4,2.56,99.85,99.85,0,0,0-4,10.54c-.76-5.44-1.44-10.8-2-16.16A18.79,18.79,0,0,1,648.42,959ZM636.34,951c3.57,32.75,8.16,67,26,95.27,18.11,28.58,50.61,41,71.36,66.86l.09.08v.09c-15.4-6.13-29.35-15.14-43.3-24.07-14.8-9.45-29.51-19.74-41.17-33.09-23.47-27.14-35-65.41-44.57-99.61C614.65,953.51,626.64,949.17,636.34,951Zm460.85,155.83a55.29,55.29,0,0,0-3.4,8.85,80,80,0,0,1-39.64-15.4c4.09,5.87,8.25,11.83,13.27,17a53.13,53.13,0,0,0,9.53,7.74c-7.15.51-14.21,1-21.35,1.61-.17-.42-.43-.76-.6-1.19-3-6.55-4.84-13.78-6.72-20.75-.51-1.87-1-3.83-1.53-5.7-1.44-5-3-10.29-5-15.82l-5.1-11a49.78,49.78,0,0,0-11.23-14c-7.06-6.12-15.82-9.86-26.88-11.56l-7.74-.85c-3.48-.17-7.23-.26-11.39-.09,2.46-11.74,1.19-22.54-.52-33.68,14.13-2.81,32.84-9.19,46.62-5.7,13.61,3.57,25.52,15.82,35,26.45a145.26,145.26,0,0,0,8,23.82,79.32,79.32,0,0,0-32.24-11.74A188.41,188.41,0,0,1,1097.19,1106.87ZM891.6,1218.39c18.46,10.2,37.85,12.84,58.78,12.08,16.76-.6,35.81-.68,51.55-7.74,12.24,8.67,13.78,23.13,15.65,37.08a283.5,283.5,0,0,1-175.06-69.75,24.71,24.71,0,0,0,3.15-4.34C860.13,1197.72,875.27,1209.37,891.6,1218.39Zm-38.19-41.51a369,369,0,0,0,70.77,23.22c24.75,5.36,53.34,11.23,79.28,7.4A42.4,42.4,0,0,1,987.3,1215c-16.33,3.83-34.79,4.43-51.55,3.66C904,1217.11,877.4,1197,853.41,1176.88Zm161.27,19c-28.83,8.51-64.13,1.19-92.71-5.36a379.23,379.23,0,0,1-81.57-29.43,9,9,0,0,1,.68-1.61c.08-.09.08-.17.17-.34a297.28,297.28,0,0,0,202.61,3.65c-2.72,2.3-5.87,4.26-8.33,6.47a76.59,76.59,0,0,0-11.57,13.61C1020.72,1187.51,1017.83,1191.85,1014.68,1195.93Zm-227.62-31c3-4.5,9.87-5.1,13.36-.93a7.52,7.52,0,0,1,1,8.42,6.41,6.41,0,0,1-1.11,2c-2.29,2.89-4.93,3.74-8.59,3.06C786.47,1176.2,784.34,1169.14,787.06,1164.88Zm.35,31.39a8.72,8.72,0,0,1-.09,3,8.87,8.87,0,0,1-2.64,6.55c-4.51,4.34-12.08,2.64-15-2.55a10.1,10.1,0,0,1,4.09-13.7C779.24,1186.91,786.3,1190.15,787.41,1196.27ZM802.46,1182a10,10,0,0,1,11.31,5,6.89,6.89,0,0,1-.42,7.32,9.15,9.15,0,0,1-17.61-.86A9.43,9.43,0,0,1,802.46,1182Zm11.82-5.61c-1.1-5.36,3-10.55,8-11.83a10.38,10.38,0,0,1,7.65,1.11,9.91,9.91,0,0,1,4.34,5.95,6.69,6.69,0,0,1-1.87,6.47,9,9,0,0,1-6.72,6.29A10,10,0,0,1,814.28,1176.37Zm13.87-61.59a15.37,15.37,0,0,0-5.19-.59c33-23.56,66.35-47.38,94.84-76.39a290.65,290.65,0,0,0,34.62-41.93c3.23-4.85,6.47-9.78,9.19-14.8-.09.77-.17,1.62-.26,2.38-.34,7.4.77,14.63,2.13,21.86.85,5.11,1.7,10,2.3,14.89-4.43,10.54-19.57,22.54-26.12,28.24a248.24,248.24,0,0,1-36.74,26.2C878.59,1089.1,852.81,1100.92,828.15,1114.78ZM966.29,1034a56.11,56.11,0,0,1-4.43,19.48c-6.46,15.56-18.62,28.66-32.49,38-24.75,16.58-55,21.43-84.38,24.24,27.22-14.46,55.2-27.47,80.55-45.08a198.54,198.54,0,0,0,33.94-29.18C961.69,1039.08,964.07,1036.61,966.29,1034ZM838.36,1141.07c0-.09-.09-.17-.09-.26a267.81,267.81,0,0,0,178.29-71.19c.85.68,1.61,1.53,2.46,2.29,9.7,10.64,12.42,25.95,16.16,39.39A351.33,351.33,0,0,1,838.36,1141.07Zm5.18,9.52a360.41,360.41,0,0,0,194.2-30.62c.85,2.72,1.78,5.45,2.8,8.17a59.79,59.79,0,0,0,4.85,8.76,7.62,7.62,0,0,0,3.15,5.36,23.83,23.83,0,0,1,1.79,4.34,13.29,13.29,0,0,1,.68,4.25A288.47,288.47,0,0,1,843.54,1150.59Zm165.36-86a259,259,0,0,1-170,67.37,12.41,12.41,0,0,0,.17-3.92c39.29-3.57,80.63-9.78,110.49-37.51a95.35,95.35,0,0,0,22.2-30.11C984.06,1059.67,997.76,1059.24,1008.9,1064.6ZM960,952.06v.85c2,18.63-14.2,37.94-24.92,51.81a318.09,318.09,0,0,1-37.26,40c-24.32,22.29-51.12,41.68-78,60.82l-.51-.76c24.24-22.8,44.66-50.87,65.58-76.64,19.74-24.24,37.86-49.68,48.74-79.11C942.9,949.51,954,947.3,960,952.06ZM829.93,1141.32a8,8,0,0,1-.16,7c-.26,4.93-4.26,9.35-9.53,9.1a10.25,10.25,0,0,1-9.7-8.51,11.5,11.5,0,0,1,6.13-11.91C821.26,1134.6,827.72,1136.39,829.93,1141.32ZM816.75,1123a9.15,9.15,0,0,1-1.62,6.13,9.9,9.9,0,0,1-8.84,4,11.21,11.21,0,0,1-9.78-8.93,10.59,10.59,0,0,1,7.74-12.17,10.87,10.87,0,0,1,12.08,5.28A6.69,6.69,0,0,1,816.75,1123Zm-16.25,18.21a7.55,7.55,0,0,1-.51,10.46,5.33,5.33,0,0,1-1.87,1.19,7.56,7.56,0,0,1-3.74,2,8.37,8.37,0,0,1-10-6.38,9,9,0,0,1,4.85-9.87C793.1,1136.73,797.78,1138.09,800.5,1141.24Zm-8.59-26.88c-3.14,4.93-10.37,4.68-14,.51s-3.06-11.14,2.12-13.78a8.85,8.85,0,0,1,12,3.57,7.22,7.22,0,0,1,.76,2.64A8,8,0,0,1,791.91,1114.36Zm-14.2,22c2.13,3.66.17,8.17-3.15,10-.08,0-.08,0-.17.08A7.8,7.8,0,0,1,769,1148a7.88,7.88,0,0,1-6.81-6,8.44,8.44,0,0,1,5.28-9.69C771.58,1130.86,775.58,1132.82,777.71,1136.39Zm-9.1-17.18c-2,3.4-7.06,4.25-10.29,2.12a1.62,1.62,0,0,1-.43-.25,7.59,7.59,0,0,1-2.21-10.29c2-3.41,7.06-4.26,10.29-2.13.17.08.25.17.43.25A7.61,7.61,0,0,1,768.61,1119.21Zm-6.38,42.7a11.05,11.05,0,0,1,6.63-.43,7.78,7.78,0,0,1,6.72,5.87,11.88,11.88,0,0,1-6,12.85c-5.11,2.63-11.66,1-14.21-4.26C752.62,1170.07,756.61,1163.86,762.23,1161.91Zm-4.43,30.7a6.48,6.48,0,0,1,.34,5.87c-.08.17,0,.34-.08.6-1.19,6.38-9,9.27-14.38,6-5.53-3.31-5.61-11.06-1.36-15.31a10,10,0,0,1,8.51-2.29A10.25,10.25,0,0,1,757.8,1192.61Zm-14.37-23.81a10.67,10.67,0,0,1-12.33-5.62,10.84,10.84,0,0,1,4.76-14.12,10.72,10.72,0,0,1,13.1,2.73,8.24,8.24,0,0,1,1.78,4.08v.08C752.62,1161.48,748.53,1167.27,743.43,1168.8Zm-4.93-35.39c-2-9.35,12.58-12.42,14.54-3.06S740.54,1142.77,738.5,1133.41Zm6.8-25.09a9.76,9.76,0,0,0-4.42-.26c-.17-.25-.34-.59-.6-.93-20-24.84-51.54-37-69.32-63.88,25.18,20.67,60.82,32.07,74.43,63.28A11.93,11.93,0,0,0,745.3,1108.32Zm-83.53-94.25c-10.12-19.39-3.83-39.55,6-57.5,10,44.4,42.87,77.92,66.09,116.36C709.66,1053.29,676.66,1042.74,661.77,1014.07Zm-19,48.06c12.16,13.95,27.47,24.75,42.95,34.62,13.44,8.59,27.05,17.27,41.68,23.56-.42.26-.85.6-1.27.85-36.83-13.86-74.69-28.41-104-55.54-28.92-26.71-46.1-63.46-50.53-102.24a12.91,12.91,0,0,1,6-3.32c5.7-1.45,12.59-.34,18.63-1.28C606.14,994.42,618.22,1033.89,642.72,1062.13Zm-27.22,9.53c28.41,26.45,64.48,41.59,100.37,55.2-64.9-15.31-139.5-45.5-169.27-108.79,4.34-12.67,13.7-22.71,18.29-35.3l.51-1.53C572.46,1015.52,589.64,1047.59,615.5,1071.66ZM720,1136.9a10,10,0,0,0-1.7,1.62c-25.78-8.51-55-6.64-81.32-12.59-33.17-7.4-68-23.56-84.55-55a74.4,74.4,0,0,1-8.59-38.61C578.67,1093.09,654.88,1122.44,720,1136.9Zm-216.48,25.69c6-6.21,9.44-13.78,12.5-21.61a400.33,400.33,0,0,0,191.81,17.18,501.34,501.34,0,0,1-210.6,11.32C498.2,1167,501,1165.31,503.56,1162.59Zm-8.93-12.93-3.15,3.15c-.76.85-1.53,1.7-2.55,2.8l-.59.77a40.77,40.77,0,0,0-9.53-14.89c6.89.51,13.78,1,20.67,1.62C496.76,1148,494.8,1149.49,494.63,1149.66Zm24.58-17c.26-.6.51-1.28.77-2a66.66,66.66,0,0,1,11.73-19.82c20.08,16.42,45.77,22.12,70.95,27.05,31.21,6.12,62.94,9.7,94.58,12.84A392.09,392.09,0,0,1,519.21,1132.65Zm191.3,34a422.91,422.91,0,0,1-182.45,41.6,104,104,0,0,0-6.81-10,69.88,69.88,0,0,0-12.84-12.76c-2-1.62-5.19-3-6.81-5a19,19,0,0,1-1.27-1.53A508.17,508.17,0,0,0,710.51,1166.67Zm-155.83-72.39a124.21,124.21,0,0,0,38.53,29.18,146.74,146.74,0,0,0,16.51,6.89c-25-4.25-52.06-9.78-71.71-25.77A64.93,64.93,0,0,1,554.68,1094.28Zm-106.58,39.3c-.08,6.64.34,25.18-10.63,18.8a7.39,7.39,0,0,0-1.87-.85c-4.85-4.85-8.08-10.8-8.42-18-.17-4.85,1.1-9.69,2.46-14.2,1.7-5.53,1.28-7.74,7.74-8C447.93,1111,448.36,1125.25,448.1,1133.58Zm-287-153.53c57.42-9.78,113.3-11.82,155.57,34.62a31,31,0,0,0-.59,13.95,43.42,43.42,0,0,0,8.84,18.88A138.27,138.27,0,0,1,244,1009.91a78.63,78.63,0,0,0,39.13,41.59,72.89,72.89,0,0,0,12.08,4.34c-9.78,1.53-19.56,4.42-26.8,10.55C224.14,1049.46,191.47,1015.26,161.11,980.05ZM201,1100c-15.91-3.48-29.94-9.52-42.1-19.48a180.79,180.79,0,0,1,60.56-18.45,9.41,9.41,0,0,0,3.57-1.19,227.3,227.3,0,0,0,24.16,14c-2.21.94-4.34,2-6.47,3a135.12,135.12,0,0,1-36.74,10.8,161.64,161.64,0,0,0,53.93.34c.08,4.42,1,8.68,1.61,13.7C243.19,1109.43,216.74,1103.3,201,1100ZM318,1215.5c-21.35-.6-33.6-18.8-45.59-33.94-7.49-9.36-21.52,1-14.8-25.78,1.36-5.36,8.67-11.65,11.65-16.16,6.12-9.35,9.36-17.27,8.76-28.49-.34-5.36-3.32-10.64-3.32-15.91-.25-19.14,13.95-22.46,30.54-23.9,34.37-3,73.49-1,99.95,21.77a94.9,94.9,0,0,0-61-2.89c25.18.34,48.23,13.36,68.64,28.58-2.38,10.55-2.13,20.93,1.7,30.28a164.35,164.35,0,0,1-78,17.7c13.61,4.08,27.39,8.25,41.68,8.5a60.13,60.13,0,0,0,21.95-3.49c-13.61,13.27-29.52,26.46-46.45,34.88a6.18,6.18,0,0,0-3.57,1.62C339.57,1212.94,328.76,1215.84,318,1215.5Zm90.42,109a9.57,9.57,0,0,0-3.66.93c-10-5.44-15.4-18.46-26.28-26.54-11.06-8.16-25.1-6.12-33.6-19.82-12-19.39,3-42.78,15.31-57.5,13.1-6.55,25.6-15.39,37-25.09-4.17,11.65-5.36,24.5-1.87,36.24a234.78,234.78,0,0,1,32.66-66.09,7.08,7.08,0,0,0,3.15.93,27.09,27.09,0,0,0,6.8,2.64,123.06,123.06,0,0,1,7.4,70.6c4.34-6.55,8.76-13.1,11.66-20.42a43.52,43.52,0,0,0,3.06-14.63c3.32,5.19,6.55,10.38,9.61,15.74a9.14,9.14,0,0,0,.09,2.13c5,25.6-5.62,41.93-22.63,59.37C433.13,1297.24,432.71,1323.27,408.38,1324.46ZM483.57,1277c-1.19,25-10.72,28.16-31.05,35.56a41.81,41.81,0,0,0-6.88,3.23c4.84-8.33,9.61-17.61,18-25.77a76.35,76.35,0,0,0,19.22-29.18A92.7,92.7,0,0,1,483.57,1277Zm15.23-25.94a4,4,0,0,0-.77-.59,119.78,119.78,0,0,0-7.06-22.8c-4.34-10.12-10.29-19.39-16.16-28.58a116.23,116.23,0,0,0,34.79,18.46c-19.31-18.29-39.38-37.94-48.4-62.52a51.06,51.06,0,0,0,2.47-9.44,71.26,71.26,0,0,1,19.48,18.28,17.86,17.86,0,0,0-2,9.87l.34,1.36c4.17,10,11.4,17.35,19.74,25.86,8.5,8.59,18,18.37,24.67,32.32l.25.51c2.21,3.49,4.25,6.47,6.21,9.19a60.21,60.21,0,0,0,10.46,11.23C529.5,1261.26,510.45,1260.32,498.8,1251.05Zm50.61-10.29a56.06,56.06,0,0,1-7.32-8.85c-3.23-4.76-6-9.78-8.84-14.8a431.24,431.24,0,0,0,185-44.4c.17.17.26.34.43.51-21.27,18.46-46.62,30.71-72.47,41.76C615.24,1228.08,583.6,1242.29,549.41,1240.76Zm12.67,8.76c29.18-1.79,56.57-13.36,83.53-24.67,26.71-11.23,52.91-23.47,75.28-41.76v.42a422.39,422.39,0,0,1-85.91,55C611.84,1249.6,584.2,1259.56,562.08,1249.52Zm17.86,16a96.61,96.61,0,0,0,30.62-4.34c-11.14,11.06-21.68,22.54-31.64,34.62C578.24,1285.75,579,1275.38,579.94,1265.51Zm15.23,68.81c-4.51-4.33-8.59-9.18-11.23-15.39a72.81,72.81,0,0,1-3.4-11.06,478.42,478.42,0,0,1,51.21-54.69c9.27-3.92,18.37-8.34,27.21-13.1A364.51,364.51,0,0,0,595.17,1334.32Zm27.9,32.67c-2.55-2.3-3.49-6.3-5.78-10-4.09-6.63-9.7-11.57-15.32-16.42a352.89,352.89,0,0,1,94.17-123.33c8.33-5.79,16.5-11.91,24.49-18.12A438.19,438.19,0,0,0,623.07,1367Zm45.51-6c-3.32,0-6.13,0-8.17.08-3.23.26-6.63.43-9.95.85a6.19,6.19,0,0,0-2.81.43,38.56,38.56,0,0,0-8.16,2.38c-1.88.85-3.75,2.81-5.7,3.4-.68.17-1.28.26-1.79.34a429.27,429.27,0,0,1,97.82-166.2c.25.68.51,1.44.77,2.12C703,1253.6,675.81,1304.3,668.58,1361ZM714.93,1344c.26,14.8-20.58,16.84-37.42,17,7.14-54.18,33.09-102.66,59.45-149.87.18.08.35.25.51.34a15.12,15.12,0,0,0,9.11,1.27C730,1247.31,716.89,1284,715.1,1322.5a189.77,189.77,0,0,0,.17,19.48A5.23,5.23,0,0,0,714.93,1344Zm33.69,56.91C727.1,1377.36,724.72,1341,728,1311c3.4-32.24,14.71-63,28.66-92,.09.09.17.17.26.17-11.4,26.29-13.19,55-14.29,83.7-1.28,33.86-1.79,67.71,8.08,100.12Zm41.08,19.22c-9.53-3.74-18.63-5.36-27.05-9.19-.08-.25-.17-.59-.25-.85-13.19-34.19-12.25-70.68-10.89-106.66,1-27.56,2.47-55.72,13.61-81.06a13.33,13.33,0,0,0,1.79.08,19.07,19.07,0,0,0,6.21-1C767.5,1260.24,767,1300,770.05,1339c2.3,28.84,7.91,57.5,22.12,82.25C791.4,1420.91,790.64,1420.49,789.7,1420.15Zm40,3.66c-6.89,4.5-12.76,9.27-19.48,8.16-23.56-29.17-29.94-66.94-32-103.69s-1.28-73.83,4.34-110.23c0,.08.08.08.17.08,1.27.51,2.55.94,3.91,1.36a697.81,697.81,0,0,0,48.57,200.66C833.42,1421.34,831.55,1422.53,829.68,1423.81Zm13-8.85a690,690,0,0,1-47-194.36,10.44,10.44,0,0,0,5.27-2.21c8.25,62.94,36.92,120.19,66,176C860.05,1402,851.8,1408.58,842.69,1415Zm30.37-28.07c-26.88-51.8-53.08-104.71-62.26-162.55q11.48,26.42,23.13,52.82c8.59,19.65,17.27,38.45,33.35,53.25a126.71,126.71,0,0,0,19,14.46C886.25,1362.05,881.23,1375.49,873.06,1386.89Zm76.13-36.74c-33.77,3.48-69.84-17.7-88.21-45.34-10-15-16.25-32.49-23.39-48.83-5.19-11.73-10.29-23.56-15.48-35.3,1.1,1.54,2.21,3.07,3.4,4.6,7.91,10.54,15.91,21,23.9,31.47,14.46,18.8,28.41,38.79,44.92,55.88a118.68,118.68,0,0,0,69.83,35.13A121.28,121.28,0,0,1,949.19,1350.15Zm48.57-13.61q-3.32,1.65-6.89,3.06c-37.43,3.49-72-11.74-96.46-40.15-12.25-14.21-23.48-29.35-35-44.23-5.78-7.4-11.48-14.89-17.18-22.37-5.87-7.83-14.38-16.5-18.2-26,.51-.68.93-1.36,1.36-2a380.66,380.66,0,0,0,85.4,71.53,360.71,360.71,0,0,0,51.46,26.29c14.29,6,29.94,13.27,45.84,14.2C1006.26,1324.2,1007,1332,997.76,1336.54Zm15.56-29.18c-.25.25-.42.51-.59.68-17.86.77-38.28-9.61-54.18-16.67a356.15,356.15,0,0,1-50.87-27.48A374.34,374.34,0,0,1,830.36,1197a30.09,30.09,0,0,0,4.68-1.7,292.58,292.58,0,0,0,184,73.49c.17.85.34,1.62.51,2.38,1.45,6.3,5.11,12.59,6.21,19C1027.61,1300.9,1019.79,1301.41,1013.32,1307.36Zm53.17-83.53a116.67,116.67,0,0,0-8.59,26.45,7.8,7.8,0,0,0-1,.77,37,37,0,0,1-24.67,8.42,87.64,87.64,0,0,1-2.13-13.27c-1.61-18.29-7.48-27.22-10.8-30.87,5.53-5.19,9-11.23,12.67-17.53,4.94-8.42,10-17.09,20.67-25.69,8.93-7.14,13.78-14.12,14.21-20.66a12,12,0,0,0-2.13-8l-.17-.26c-.08-.25-.25-.51-.34-.76,4.25-.26,8.42-.6,12.67-.94-9,8.85-13.69,22.12-11.56,34.71a70.85,70.85,0,0,1,26.79-30.62,46.32,46.32,0,0,0,2.47,9.44c-9.11,24.58-29.18,44.23-48.49,62.52a116.81,116.81,0,0,0,34.62-18.29C1075.59,1207.16,1070.48,1215.16,1066.49,1223.83Zm36.66,88.72c-17.78-6.55-29-10.12-30.88-31.39a97,97,0,0,1,.43-20.5,77.19,77.19,0,0,0,19.39,29.35c8.25,8,12.93,17,17.61,25.26C1107.66,1314.34,1105.53,1313.4,1103.15,1312.55ZM1210.83,1279c-7.4,11.66-23.22,12.34-33.51,19.82-2.64,2-4.68,4.51-6.89,6.81-10,10.38-12.16,16.84-24.58,18.63-22.8-2.21-23.65-27.39-37.26-41.34-16.92-17.44-27.56-33.77-22.62-59.37a9.4,9.4,0,0,0,.17-2.13c3-5.44,6.21-10.63,9.52-15.74a41.93,41.93,0,0,0,3.15,14.63c2.89,7.32,7.23,13.87,11.57,20.42a122.5,122.5,0,0,1,7.48-70.6,29.88,29.88,0,0,0,6.81-2.64,7.07,7.07,0,0,0,3.06-.93,235.3,235.3,0,0,1,32.75,66.09c3.49-11.74,2.29-24.59-2-36.15,11.4,9.69,24,18.63,37.17,25.09C1207.94,1236.42,1223,1259.81,1210.83,1279Zm-92.54-167.65c6.46.26,5.87,2,7.74,8a45.57,45.57,0,0,1,2.21,11.14c.51,8.68-2.47,15.23-8.08,21a6.67,6.67,0,0,0-2,.85c-10.46,6.13-10.29-9.61-10.54-16.5C1107.23,1127.29,1107.15,1110.87,1118.29,1111.38ZM1366.07,1076c43.38,3.4,92.12,16.84,126.31,45.16-53.24,41.85-124.78,48.15-185.6,17.1-3.74-5.36-7.23-10-9.44-15.82a214.13,214.13,0,0,0,109.47,1.1,248.37,248.37,0,0,1-110.92-21.43c1-5.95,2.81-11.31,2-17.52C1318.09,1074.21,1344.29,1074.3,1366.07,1076Zm-127-43.89a38.92,38.92,0,0,0,.94-6.3,6.88,6.88,0,0,0,3.06-2c36-38.45,84.64-58.61,136.61-57.16-14.29,48.23-53.67,83.78-103.61,93.31A68,68,0,0,0,1262,1056a88.7,88.7,0,0,0,11-5.62c16.92-10.2,30.87-24.58,44.65-38.78a346.5,346.5,0,0,1-86.93,36.32A43.21,43.21,0,0,0,1239.07,1032.11Zm11.4,39.21c15.91,1.36,31.56,4,30.62,23.9-.25,5.27-3.06,10.55-3.31,15.91-.6,11.14,2.63,19.22,8.76,28.49,3.06,4.6,11,10.72,11.56,16.16,1.2,11.74-9.1,18.8-14.71,25.78-12.25,15-24,33.42-45.68,33.94-10.8.25-21.69-2.56-32.24-7.32a5.89,5.89,0,0,0-3.31-1.53c-16.93-8.34-32.92-21.52-46.53-34.88a60.1,60.1,0,0,0,21.95,3.49c14.2-.25,28-4.42,41.59-8.5a164,164,0,0,1-77.91-17.7c3.74-9.35,4.08-19.73,1.61-30.28,20.41-15.14,43.47-28.24,68.73-28.58a94.87,94.87,0,0,0-61,2.89C1177.06,1070.3,1216.11,1068.43,1250.47,1071.32Zm-28.75-45.08a30.76,30.76,0,0,1-3.4,8.59c-4.76,8.59-12,14-20.16,19.22a9.13,9.13,0,0,0-2,2c-26.63,4.68-51.29,16.07-68.56,37.68a18,18,0,0,0-5-2,178.8,178.8,0,0,1-15.9-78.09c-6.13,12.08-8.26,25.86-7.91,39.39a159.53,159.53,0,0,0,3.57,28.41c-11.32-14.55-20.08-30.8-24.75-48.66a7.89,7.89,0,0,0-1.45-7c-.26-1.36-.6-2.64-.85-4-2.21-14.29-2.13-30,3-43.72a35.24,35.24,0,0,1,9.79-14.72c28.92-8.76,56.73-7,78.08,16.59C1181.15,996.47,1215.09,1004.55,1221.72,1026.24ZM1209,988.81a12.43,12.43,0,0,0,.51,1.87c-6.21-3.06-12.76-5.61-18.37-9.61-9.7-6.89-15.48-16.93-24.5-24.24a56.56,56.56,0,0,0-11-7.15,107.32,107.32,0,0,1,13.86-.76c9.7.25,24.67,1.44,30.88,10C1206.41,967,1206.67,979.37,1209,988.81Zm-121-47.35a37.28,37.28,0,0,0-6,3.54c-14.21,10.3-20.84,28.16-23.39,44.92a111.78,111.78,0,0,0-1.2,16.75c-8.33-7.31-17.6-13.44-27.55-16.07-16.85-4.43-36.41,1.78-53.42,5.27-.09-.34-.09-.59-.17-.94-.68-5.35.25-11.82,1.19-18,1.87-12.42,3.74-25.18-5-35-.14-.16-.31-.25-.45-.4Zm-175,0a116.1,116.1,0,0,0,11.84,5.67c-10.72,28.33-28.33,52.74-47.38,76.13-20.93,25.86-41.43,54-65.84,76.64a4.09,4.09,0,0,0-1.1-.17c30.12-50.53,59.63-101.89,76.86-158.27Zm-80.2,72.61a3.73,3.73,0,0,0,1.53-2.12,559.07,559.07,0,0,0,16.67-65.5c3.48-1.85,7.07-3.48,10.72-5h16.42c-13.23,41.91-33.08,80.93-55,119.06A201.33,201.33,0,0,0,832.74,1014.07Zm-3.15-53.33c.18-.17.34-.25.51-.42,3.41-2.73,7-5.28,10.64-7.75-2.21,10.72-4.77,21.27-7.66,31.82A147,147,0,0,0,829.59,960.74Zm2-19.28c-1.58,1.07-3.17,2.14-4.74,3.29-.5-1.16-1.11-2.19-1.65-3.29Zm-21.73,0c4.46,7.2,7.18,15.53,8.91,23.62,9.19,43.38-1.53,90.42-23.39,128.69a20.64,20.64,0,0,0-5.61-3.23c11.42-49-5-100,4.72-149.08Zm-24.32,0c-8.78,49,7.44,99.61-4.71,148.32a10.89,10.89,0,0,0-1.44.34c-3-50.72-25-98.56-29.68-148.66Zm-44.71,0c4.78,50.16,26.75,97.85,29.71,148.57-9.18-33-26.37-62.6-42-93-8.67-16.85-17.86-34.54-20.24-53.59-.08-.65-.1-1.29-.17-1.93Zm-40.35,0a122.12,122.12,0,0,0,10.52,40c17.52,38.7,41.77,74,52.23,115.68a16.94,16.94,0,0,0-8.17-.94,4.12,4.12,0,0,0-.34-2.21c-22.28-52.23-71.79-91-80.12-149.2.51-.76.93-1.53,1.44-2.21l.76-1.16Zm-40.83,0c-1.06,1.78-2.16,3.55-3.17,5.33a34,34,0,0,0-6.93-5.33Zm-54.45,0a108.25,108.25,0,0,1-10.82,3,66.33,66.33,0,0,1-11,.85,68.32,68.32,0,0,0-9.11.43l-1.53.17-.17.09c-9.52,1.44-15.82,11.14-17.6,14.12l-.43,1.1c-.94,3.32-1.61,6-2.21,8.68a62.85,62.85,0,0,1-5.1,15.82c-17.1-1.36-34.62,8.93-48.91,21.09a100.78,100.78,0,0,0-1-15.82c-2.38-16.84-8.68-34.79-22.72-45.42a38.15,38.15,0,0,0-7-4.14Z"/></g></g></svg>