<?xml version="1.0" encoding="UTF-8"?>
<svg id="Layer_2" data-name="Layer 2" xmlns="http://www.w3.org/2000/svg" viewBox="0 0 5000 4241.39">
  <g id="_10_Hand_Drawn_Floral_Wedding_Monogram_Frames_Elegant_Botanical_Logo_Set_Minimal_Wedding_Crest_Design" data-name="10 Hand Drawn Floral Wedding Monogram Frames, Elegant Botanical Logo Set, Minimal Wedding Crest Design">
    <g id="Rustic_Hand_Drawn_Floral_Wedding_Logo_Design" data-name="Rustic Hand Drawn Floral Wedding Logo Design">
      <path d="M4182.68,2254.85c60.88-155.54,213.04-240.4,364.99-288.27,62.11-19.73,132.44-1.9,192.19-25.35,146.11-36.8,290.01-174.36,254.75-334.68-14.39-24.44-28.85,12.77-38.6,24.62-92.94,115.94-245.91,152.24-359.2,242.43-24.56,22.69-55.31,56.7-84.81,68.66,65.87-100.61,114.19-215.86,205.92-299.45,42.28-49.86,56.94-116.25,64.46-178.17-1.34-24.51,21.59-233.61-27.44-196.16-17.24,48.8-53.52,93.69-86,137.69-47.26,71.93-76.99,151.24-87.72,237.36-1.39,53.68,10.91,103.65-14.58,153.5-5.87,50.62-46.96,86.05-71.9,128.87-8.87,13.77-18.7,27.15-32.02,36.88-43.21,29.39-93.28,51.05-136.69,81.07-13.39,6.89-26.16,21.78-38.17,18.78,63.81-173.56,152.73-344.68,201.83-525.64,47.19-112,66.3-233.19,100.35-350.03,9.27-33.16,19.47-68.55,47.31-91.25,167.17-110.65,308.14-268.18,248.65-481.02-25.92-67.24-35.36-14.11-47.15,12.21-53.54,83.57-80.79,181.35-125.91,269.86-8.03,24.01-98.52,161.75-106.48,88.83,3.66-102.46-29.87-200.13-39.8-299.92,27.36-132.11,223.1-90.42,213.25-260.56-4.32-46.48-.55-133.79-44.31-160.35-11.79,1.02-15.66,15.26-17.97,26.45-6.8,59.07-41,110.36-73.67,159.02-23.59,43.45-35.86,92.59-69.53,128.79-6.97,10.22-19.93,43.29-26.68,16.02-11.69-85.33-39.81-170.77-38.45-257.18,5.18-86.84-32.35-171.37-88.18-236.81-2.59-17.15-35.6-38.31-47.5-48.35-13.36-11.26-27.08-22.12-41.13-32.52-2.6-1.93-43.51-25.96-43.74-18.89-.86,25.84,19.02,43.61,28.21,66.34,9.94,24.6,9.4,48.15,13.92,73.49,43.57,244.31,154.85,119.97,194.8,522.8.07,35.28-60.42-32.43-68.33-37.81-17.24-22.93-20.45-53.76-35.68-78.61-45.96-85.91-130.69-141.77-203.13-199.34-18.13-10.31-45.27-46.54-65.92-35.8-3.69,11.35,10.61,20.83,16.11,31.74,32.14,41.43,39.22,90.29,45.57,137.08,33.18,217.51,283.1,109.97,335.91,294.13,17.82,89.55,31.23,187.16,15.81,282.25-8.78,55.75-14.59,144.88-39.47,25.77-8.35-64.88-5.44-129.7-32.34-190-10.73-21.59-119.44-245.66-133.64-153.65,24.93,127.08,40.78,271.06,137.75,366.37,23.59,55.67,55.93,117.91,30.72,180.51-21.11,77.16-40.64,153.02-68.02,227.27-3.18,8.95-8.81,22.32-17.4,25.17-23.69,1.72-33.7-34.98-51.69-47.27-62.73-68.26-175.09-103.64-198.21-198.11,12.94-109.35,93.7-220.25,21.27-331.46-13.01-16.55-119.78-171.68-124.03-117,56.65,147.84,28.08,313.7,82.78,460.71,12.61,31.41,9.58,37.77-22.66,21.19-83.34-35.94-155.2-91.64-206.87-165.72-28.4-28.78-34.03-97.8-77.66-102.33-33.75,140.26,61.39,326.03,213.97,354.45,40.23,7.47,82.61,17.74,122.81,11.3,28.45-4.96,58.55-3.48,79.32,18.32,235.59,133.13,102.47,296.26,21.93,485.32-64.85,154.02-142.4,308.07-233.72,454.31-3.26,1.18-5.96-1.56-8.02-7.02-11.08-47.91-21.72-99.18-39.92-144.87-26.16-97.17,88.63-116.52,135.63-179.77,30.09-16.21,144.26-360.42,60.64-302.86-16.58,24.52-23.05,59.43-41.13,82.77-58.87,71.51-142.95,130.48-173.29,220.16-48.38,137.87,20.07-150.34-169.51-389.37-39.95-28.26-10.23,51.38-14.6,69.93,9.12,83.32-13.9,172.41,27.92,250.5,33.46,75.57,106.5,131.08,125.7,214.13-.33,26.56,8.35,45.62,22.11,67.94,116.44,214-70.14,345.92-179.95,511.44-95.48-4.82,139.45-320.01-232.91-517.85-38.07-4.71,9.71,55,9.31,72.56,15.26,59.85,14.47,121.57,30.84,182,23.12,125.35,204.37,225.91,119.51,358.69-74.79,91.06-146.28,195.47-236.14,272.23-4.75.73-7.63-3.97-9.16-12.06-13.16-98.4-28.64-198.34,3.78-295.03,28.83-98.48,29.84-196.75,35.07-298.56,11.63-42.86-21.65-229.55-78.34-223.43,17.01,84.89-14.76,107.61-18.45,186.44-15.49,91.36,69.13,184.66,21.96,272.5-6.74,14.04-13.07,12.01-19.75-4.27-112.17-261.45-519.74-248.35-702.45-72.69-27.04,38.65,35.96,22.75,51.66,7.75,79.99-34.45,168.23,8.97,249.89,14.38,240.51,16.5,517.74,237.04,394.85,494.24-20.9,43.86-65.43,73.96-99.95,106.6-97.94,92.74-197.24,187.44-312.02,259.65-32.7,21.31.87-56.73,18.5-89.28,91.43-124.3,50.75-282.86,20.22-421.28-23.93-92.68-53.24-111.72-62.35.43-57.98,189.19-100.02,201.2-14.56,407.3,27.78,116.4-82.75,191.08-170.33,242.55-132.79,85.65-257.2,179.66-397.61,252.79-106.66,49.48-204,118.09-311.71,164.86-20.81,3.81-225.44,111.72-120.08,101.39,340.09-166.38,667.12-365.97,977.48-584.84,211.18-179.74,414.58-216.92,678.01-130.68,47.85,29.56,112.23,37.47,164.25,62.13,114.57,7.43,232.28,2.32,341.53-38.1,89.4-45.87,141.12-129.94,239.35-156.27,20.93-6.71,28.75-25.37-1.42-26.01-77.49-9.27-139.03,40.23-209.84,58.46-104.15,22.2-212.68,29.54-318.59,46.94-152.77,59.57-280.43,14.76-434.4-8.78-35.78-5.47,5.01-15.17,22.77-18.26,128.79,9.9,257.48-26.78,373.87-81.86,28.53-7.81,276.88-224.32,199.23-218.05-113.23,69.99-251.76,89.18-369.43,153.02-66.44,27.81-115.97,85.34-178.91,118.5-82.57,24.68-170.68,46.69-255.21,65.98-12.03,1.2-7.06-4.72.7-11.8,155.52-115.82,279.53-265.21,411.28-404.44,16.88-17.76,38.87-22.47,63.71-20.57,140.33,28.41,281.35-32.77,365.45-145.87,56.92-76.48,60.83-119.17-30.96-44.68-97.57,54.26-203.39,91.09-308.46,126.37-7.1,1.62-11.12.12-10.53-4.66,60.49-92.71,141.73-185.66,215.03-270.7,46.79-22.17,98.15-49.25,151.17-51.08,298.72,90.27,542.57,257.3,734.79-108.22-1.04-13.16-18.5-5.65-26.5-.43-178.58,93.12-389.41,79.5-584.84,66.07-9.12-1.49-65.6,4.23-37.31-9.76,196.66-54.3,368.24-200.46,419.89-400.67,1.59-8.04-1.31-14.15-7.89-14.17-42.49,25.07-79.34,68.84-122.58,97.17-83.23,52.99-174.56,99.73-214.88,195.82-23.29,53.44-5.11,81.14-74.93,96.98-60.24,13.25-114.83,43.72-170.59,66.97-26.42,4.84-2.04-24.84,2.97-35.33,72.45-111.88,119.05-238.58,192.22-351.99ZM4722.48,1912.69c57.07-44.89,128.41-86.58,173.96-142.08,4.89-4.14,21.42-28.2,24.77-16.83-17.62,47.88-141.63,168.53-198.73,158.91ZM4958.65,1730.93c-11.88,65.84-67.29,126.78-124.37,156.41.23-1.26.69-3.79.92-5.05,25.6-30.12,55.67-63.23,84.48-93.16,5.58-8.96,38.29-110.88,38.97-58.2ZM4837.44,1746.23c24.53-20.12,49.95-37.85,78.35-52.17,42.84-12.3-107.27,91.86-115.18,88.53-27.54-11.03,28.6-28.1,36.83-36.36ZM4698.21,1834.86c8.49-16.72,53.72-43.33,70.97-40.04l-.57,1.79c-42.41,30.51-88.22,73.18-136.73,89.94,7.3-26.91,51.39-30.25,66.33-51.69ZM4697.47,1883.51c63.39-54.19,136.65-110.77,209.26-146.35l-.21,1.78c-73.45,87.37-174.18,176.96-289.94,194.76,21.39-21.16,54.26-39.54,80.89-50.19ZM4665.2,1605.23c8.96-31.91,11.08-71.79,22.26-103.38-10.72-22.56,8.08-35.57,18.47-54.65,71.78-113.36-30.33,161.27-43.49,175.27-2.11-1.57-.35-17.4,2.75-17.25ZM4726.37,1525.88c-8.65,35.65-12.83,85.68-47.82,106.87,11.88-42.06,35.31-92.97,47.95-135.16l-.06-1.03c1.64-2.96,5.15-15.49,8.15-16.89,11.88,11.81-4.96,32-8.22,46.21ZM4731.4,1362.48c1.2,2.48,2.41,4.96,3.61,7.44-1.1-.16-2.2-.32-3.31-.48-5.21,12.02-13.34,23.79-14.96,36.1-2.55,19.38-25.96,30.2-28.57,48.96-.13.95-3.66,1.61-5.6,2.4-8.04-20.44,34.47-75.99,48.84-94.43ZM4675.4,1425.3c.46,1.72.92,3.44,1.35,5.01-7.98,10.63-9.95,27.3-23.1,31.85,2.7-12.67,10.78-29.52,21.76-36.86ZM4675.17,1460.63c2.89-1.32,3.97,2.94,3.85,5.32-19.44,43.21-31.05,102.54-50.9,142.05-2.39-48.8,6.93-114.71,47.05-147.38ZM4606.87,1591.07c4.43,7.07,3.39,20.03,4.54,25.38-5.7,30.12-3.58,57.92-13.43,83.2-9.75-12.1-.31-94.8,8.89-108.58ZM4864.13,786.87c4.49-1.79,1.23,13.35.85,17.98-6.36,49.79-32.56,94.8-65.56,133.39-3.01,7.48-51.49,64.38-41.56,37.43,52.61-52.31,86.55-118.21,106.27-188.8ZM4765.92,902.86c9.98-17.25-6.37-20.03-2.24-30.73,8.85-11.32,25.29-21.56,32.61-36.25,7.91-14.34,33.09-58.09,8.75-38.31-17.46,8.61-25.23,32.08-34.23,44.34-18.19,1,25.37-74.9,35.7-78.84,10.84-.98,53.22-94.01,39.57-46.05-16.62,106.89-65.04,207-139.72,285.07-23.4,12.85,58.44-85.36,59.57-99.24ZM4731.61,483.95c5.07-30.99,16.77-66.35,15.39-96.92,5.62-9.86,11.82,1.35,13.09,8.27,8.52,60.96-12.67,148.93-81.02,161.81,13.79-19.97,40.33-51.46,52.53-73.16ZM4716.88,381.71c1.06,1.44,2.12,2.87,3.47,4.7-24.43,30.9-37.58,74.33-67,99.56,6.11-37.53,38.73-74.4,63.53-104.26ZM4708.18,427.01c1.19-3.32,3.38-5.79,5.95-7.96,3.12-3.28,2.96,6.93,5.09,7.49l.19,1.58c-22.73,34.58-59.81,146.32-104.77,143.78,13.23-56.75,75.83-90.07,93.54-144.88ZM4415.95,210.09c-12.32-37.37-38.46-86.27-37.67-122.81,9.96.24,68.51,183.56,37.67,122.81ZM4379.06,204.24c-2.25-16.61-14.99-46.65-11.59-60.87,16.57,26.75,28.21,69.54,46.34,99.36,4.43,8.47,18.06,23.64,18.28,30.78-11.92-.46-24.92-29.3-25.01-40.72-6.68-9.25-23.28-16.63-28.01-28.54ZM4408.22,280.99c11.58,10.59,20.14,26.78,27.79,40.77-8.68,3.55-28.74-33.68-27.79-40.77ZM4428.46,150.85l1.33-.05c101.09,180.99,29.24,182.38-1.33.05ZM4365.48,527.85c-14.29-32.34-50.91-58.6-64.63-88.84,40.73,19.34,176.22,216.06,64.63,88.84ZM4388.17,572.65l-.25.73c-43.9-21.84-75.23-61.19-101.91-101.95-12.71-17.99-32.93-32.74-35.97-53.46,50.88,44.72,83.38,111.57,138.13,154.68ZM4243.84,519.19c-4.98-19.22-13.42-50.44-13.09-69.32,19.72,21.38,17.14,63.81,40.58,86.35,13.13,22.19,37.51,44.14,49.1,64.98-39.18-2.42-64.59-48.85-76.6-82.01ZM4397.31,617.77c-13.86-.77-84.78-68.67-81.76-80.8,27.66,29.07,70.33,47.63,94.87,80.03-3.95.23-7.91.47-13.11.77ZM4434.64,970.86c-7.73,19.27-39.88-130.77-46.05-146.2l.84-1.38c8.99-1.27,27.98,10.17,28.4,23.81,8.91,53.27,47,106.07,58.09,157.49-20.71.89-20.27-51.47-38.76-54.68-5.66.91-2.76,14.02-2.52,20.95ZM4485.78,1071.06c-15.77-14.61-54.15-61.46-42.42-82.16,15.71,23.24,22.79,52.18,42.25,73.2,1.51,2.42.2,5.94.17,8.95ZM4497.43,998.59c-.55,1.79-1.1,3.58-1.65,5.37-9.02-9.64-6.61-25.11-11.55-37.13-9.68-16.74-25.93-39.2-20.43-58.97,32.4,6.46,24.29,64.12,35.7,90.34-.69.13-1.38.26-2.07.39ZM4179.47,1041.66c-8.93,5.03,6.43,137.63-16.53,79.92-7.6-63.07-22.65-129.61-31.53-190.58,14.96,10.38,11.48,52.14,31.31,59.35,10.51,4.05,13.72-3.12,11.45-12.87.42-4.44-9.58-23.12-1.86-21.38,37.97,62.92,41.56,148.63,29.96,219.67-11.37,12.89-11.1-41.67-8.58-43.74,2.67-20.05-3.41-47.83-2.27-68.95.76-11.11,1.55-27.34-11.94-21.42ZM4081.53,1327.52c12.31,18.12,38.02,27.51,54.17,38.71l-.61.7c-54.33-15.73-105.18-59.8-140.8-102.31,27.54,22.36,52.17,48.29,87.25,62.9ZM4081.32,1381.17c-14.66-6.27-38.4-23.46-52.92-19.47-9.8,7.86,58.91,29.5,44.48,34.83-82-25.82-168.6-97.71-180.83-187.54-.19-6.1,1.81-12.53,7.63-7.88,23.82,32.3,32.1,98.51,73.96,112.38,1.87-.55,2.33-2.62,1.22-5.43-33.68-18.6-88.6-219.65-25.98-98.14,1.92,11,57.53,54.3,21.55,34.59-78.84-39.23,114.82,136.96,136.58,130.77,15.61,6.14,37.72,10.09,51.33,18.02-25.32-4.54-52.76,5.47-77.02-12.14ZM4172.91,1413.3c-4.49-1.34-7.93-2.36-11.36-3.38,18.3-9.41,43.81-12.81,62.95-5.07-15.33,7.98-35.18,5.27-51.59,8.45ZM4048.88,2078.79c35.56-52.72,78.08-111.05,117.38-160.56,1.8,20.32-104.54,189.87-117.38,160.56ZM4210.63,1876.09c-18.05,54.98-32.24,115.6-64.4,164.28-25.83,18.65-53.49,60.29-83.71,64.69,12.04-23.24,36.58-44.31,51.98-66.76,39.48-45.31,64.52-122.71,96.13-162.2ZM4053.04,2019.84c18.49-58.77,68.73-96.77,106.44-141.79,3.27-3.14,14.66-12.29,13.25-2.2-6.35,13.4-171.71,250.17-119.69,143.99ZM3842.77,1836.09l2.2,1.13c12.95,69.45,33.25,141.46,65.27,205.49-49.51-37.32-87.63-151.41-67.47-206.61ZM3917.99,2020.95c-49.11-84.33-52.63-188.76-61.55-281.2,38.86,56.9,43.46,137.11,65.21,201.83-4.78,15.15-18.16-36.56-25.31-22.35-3.15,9.81,49.78,137.2,21.66,101.72ZM3954.91,2039.2c-7.02-6.33-4.88-17.2-6.84-25.84-.23-18.27-8.14-38.22-2.85-55.64,14.72,21.32,7.56,51.53,12.44,77.31-.61.92-1.68,2.55-2.75,4.17ZM3148.6,2586.57l1.74-.77c57.58,19.49,151.22,24.22,182.98,75.71-31.95-9.64-59.02-32.42-93.89-39.06-41.23-8.82-91.15-13.65-126.83-34.41,4.63-6.34,31.27,4.66,36-1.47ZM3051.26,2591.09c140.72,32.6-39.91,25.11-79.74,20.21,23.95-10.5,54.02-16.89,79.74-20.21ZM3162.3,2672.33c-36.63-6.34-76.94-5.43-110.91-19.92,11.25-.5,20.16-.36,32.25-.23,24.34,7.48,57.07,4.47,78.65,20.15ZM3069.14,2674.5c63.07,8.34,137.41,20.12,192.84,50.41-76.16-.48-516.51-75.64-192.84-50.41ZM3239.35,2694.1c2.65-.5,5.3-1.01,9.23-1.76,25.37,13.88,63.18,15.94,75.84,44.45-25.2-17.01-58.13-26.82-85.07-42.7ZM3347.97,2825.31c-7.08-24.88-190.45-89.9-146.33-92.36,39.21,8.5,93.12,19.15,115.98,54.15,9.8-2.96,56.23,52.96,30.35,38.21ZM3131.56,2641.51l-2.22.23c-1.28,1.42-30.48-5.37-23.94-10.46,138.47-24.76,285.07,78.98,322.64,211.51-89.81-151.85-128.71-153.45-296.47-201.28ZM3064.36,3174.59c16.05,44.94,9.16,105.14,15.95,153.51-4.34,13.77-6.52,93.49-31.26,57.61,7.52-67.96,15.27-142.68,15.31-211.12ZM3030.65,3190.68c-1.22-10.55,1.44-26.74,6.89-34.31,6.83,37.37,4.46,84.32,6.35,122.2-6.78,24.41-1.42,59.9-12.88,81.4-20.6-52.02,1.54-113.88-.36-169.29ZM2963.01,3250.49c2.07-11.73,9.76-41.23,8.51-7.8-8.71,41.03,17.34,81.18,17.28,120.14-33.94,20.61-22.21-94.06-25.79-112.33ZM3004.22,3332.29c-17.16-41.45-17.78-164.24,9.08-199.68,4.8,1.26.42,33.4-.56,35.55-.06,49.81-15.46,101.25-5.85,150.68.89,5.92,2.19,18.55-2.67,13.44ZM3879.85,3568.27c-14.01-3.83,5.55-7.21,11.9-5.84,95.68,3.48,189.85-24.2,278.06-51.78-58.95,55.72-209.61,60.49-289.96,57.62ZM4239.9,3417.68c5.95-1.92,17.74-8.6,20.21-1.24-71.52,101.31-229.47,127.55-347.4,133.16,81.47-32.72,234.39-44.46,314.89-112.47-3.8-4.24-17.17,1.04-23.05,3.7-78.35,42.37-168.68,63.36-258.2,57.59-11.51-2.41-4.07-8.68,4.36-10.88,98.88-14.7,196.52-32.56,289.2-69.86ZM4049.59,3454.2c2.51,1.11,4.13,1.83,5.74,2.54-28.61,11.18-63.53,12.49-94.26,17.28,22.17-17.96,60.95-12.26,88.53-19.82ZM3954.97,3472.97c-37.34,13.61-79.69,15.05-119.8,21.64-1-.49-2.98-1.48-4.96-2.46,37.52-17.79,83.69-16.98,124.76-19.18ZM3990.42,3510.86c-31.49,22.72-87.54,25.03-124.91,29.7-222.25,14.4,77.1-42.21,124.91-29.7ZM3602.47,3381.72c-.74-.73-1.78-2.93,1.75-5,66.27-39.41,143.99-73.6,215.65-98.46-60.75,48.25-144.76,71.45-215.4,103.37l-2,.08ZM3681.81,3396.95c-10.23,2.31-34.8,16.33-43.78,11.78,3.16-7.41,29.17-6.76,37.33-10.61,7.97-3.15,3.52-14.89,12.52-19.62,72.92-35.01,141.66-68.22,210.87-106.66-41.69,62.42-141.52,101.42-216.95,125.11ZM3873.32,3219.11c.18,30.42-136.18,73.02-168.19,86.86-37.73,16.7-76.17,43.1-114.46,55.2-38.44-25.72,255.34-142.3,282.65-142.07ZM3517.22,2517.78c1.09,42.06-3.95,89.64-13.56,130.22-7.22-41.87-9.61-88.72-5.81-130.51,8.1-46.49,13.25-46.1,19.37.29ZM3474.31,2620.64c-2.71-20.58-10.6-42.07-18.52-61.07-.31-57.19,7.1-121.52,27.05-173.19,9.28,3.67,7.64,21.73,10.7,30.72-.22,6.61,9.16,26.52.27,26.76l-.88,1.38c3.6,37.71-14.19,74.99-13.2,112.47-1.58,21.56,6.85,48.95.53,68.71-2.01,1.07-4.99-3.01-5.95-5.78ZM3477.17,2794.51c4.55-20.14,7.8-40.23,25.95-56.26-6.35,39.4-17.96,82.44-28.78,119.95-10.21-18.1-1.99-44.06,2.83-63.68ZM3820.4,3033.07c10.16-9.04,95.89-50.73,101.87-40.24-31.66,16.5-65.57,37.9-101.87,40.24ZM3855.92,2940.79c60.03-13.45,113.44-53.98,166.62-72.73-72.28,69.26-181.94,102.89-277.09,130.11-9.89-22.28,91.92-47.71,110.47-57.38ZM3829.03,3004.99c-28.47,26.59-65.75,18.31-102.94,24.45-2.55-1.3-5.64-2.87-8.73-4.44,36.03-10.06,74.08-27.46,111.67-20.01ZM3687.28,2395.71c21.34,10.21,29.35,42.18,39.42,62.39-2.31,3.51-8.75,3.31-10.25-.06-.32-13.13-19.3-21.59-13.86-36.78-.85-6.33-17.57-14.5-15.31-25.54ZM3747.4,2652.55c-26.05-44.17-39.5-91.57-54.53-139.67-4.09-11.73-19.52-12.63-17.17,3.45,1.24,14.7,12.47,31.7,6.29,45.51-2.92,5.98-5.83,10.14-4.15,15.68,5.3,11.88,1.03,22.31-6.92,9.19-25.62-55.36-56.93-119.77-38.69-180.77,2.8-8.34-10.44-39.45,1.35-37.47,14.86,1.72,25.38,115.11,38.71,63.9,15.81-22.52,62.7,95.45,65.54,110.93-.24,5.46-11.67,6.26-11.11,12.15,7.06,6.11,52.1,135.88,20.67,97.1ZM3783.06,2591.91c-10.28-40.17-19.59-83.64-32.59-124.91-2.69-5.52-7.57-13-1.59-17.32,35.54,22.06,29.01,99.96,40.34,139.06.03,2.71-3.97,6.91-6.16,3.16ZM4424.93,2753.87c-6.77-3.14-14.33-6.65-21.9-10.16,17.64-2.85,37.37-2.99,53.74,3.87-8.28,6.86-20,3.6-31.85,6.28ZM4491.9,2747.38c-17.34-6.75,28.15-8.56,33.44-11.46,36.37-6.68,75.6-29.59,108.4-37.92-35.23,38.96-90.58,54.42-141.84,49.37ZM4378.3,2632.89c95.64-3.64,188.19-8.37,282.18-21.37,20.41,3.72-23.67,15.72-30.92,17.94-94.33,19.82-204.93,34.65-297.52,4.52,5-5.64,40.19-2.28,46.26-1.09ZM4260.36,2631.72c52.45,10.43,102.7,25.07,157.86,30.42,74.12-7.54,154.52-4.78,226.7-22.25-17.18,28.36-82.19,31.4-113.04,45.37-11.69,1.98-46.02,4.71-19.45,15.12,44.14-.86,86.31-27.34,129.63-35.46,107.66-52.85-137.49,123.84-294.77,47.15,5.83-10.96,72.14,12.64,65.48-1.08-49.93-19.1-114.18-20.79-158.95-52.48-5.33-5.23,1.21-5.03,6.82-4.21,58.21,15.08,117.85,38.24,177.49,33.28,13.89-7.91-5.68-12.34-13.01-12.41-17.76,4.81-284.89-51.61-164.77-43.45ZM4162.75,2653.59c24.64,4.56,51.49,9.79,75.79,16.35,44.99,15.08,81.05,56.94,130.77,59.62,7.04,2.49,14.4,4.96,3.92,4.89-65.86-3.17-116.04-44.1-177.88-59.5-9.55-4.9-67.07-17.59-32.6-21.36ZM4381.67,2458.69c-7.29-10.51,23.95-42.71,34.46-45.61.71,12.7-22.62,39.32-34.46,45.61ZM4454.4,2345.22c-62.08,54.87-99.91,142.51-178.76,172.49l-.99-1.11c43.84-92.46,132.04-163.82,216.28-217.68-.58,14.92-26.55,32.98-36.53,46.3ZM4343.23,2369.18c34.85-23.31,68.44-58.76,111.17-63.69-37.4,37.06-94.51,62.41-128.24,105.99-21.08,19.91-68.88,126.36-91.92,116.08,15.01-61.53,52.39-126.45,108.99-158.38Z" fill="FRAME_COLOR"/>
      <path d="M3029.38,4210.17c-223.01-132.33-468.02-229.79-679.54-383.04-113.54-91.16-283.15-137.94-336.81-283.75-4.71-27.82-1.75-52.63,6.26-79.41,98.65-186.91-2-278.11-28.37-458.11-24.18-48.42-46.49,41.38-52.65,62.47-21.38,82.91-35.38,166.91-34.9,252.08-10.53,93.16,66.59,162.86,86.5,249.29,5.16,16.59-3.47,14.77-12.89,9.19-114.75-72.17-214.09-166.92-312.02-259.64-34.57-32.72-79.05-62.77-99.96-106.61-23.32-61.11-43.94-141.96-17.68-204.83,46.49-172.8,243.64-270.42,412.53-289.42,75.76-6.95,151.83-38.06,228.96-22.92,24.74,4.43,61.36,44.06,79.51,16.21-19.89-44.51-76.16-67.54-118.74-91.56-203.21-97.32-505.11-64.9-601.22,162.66-68.63-82.16,32.9-192.99,12.46-286.42-.03-49.55-26.62-96.28-24.36-145.11,2.18-14.46,12.65-31.6,6.26-36.98-50.61-2.55-59.48,99.63-75.37,135.93-13.21,57.56,1.42,120.95,3.64,179.51,2.45,34.89-5.53,70.02,5.06,104.09,39.69,132.75,55.07,260.56,27.2,397.49-6.02,35.65-47.3-24.02-63.31-39.13-249.13-307.92-267.21-216.1-69.62-557.92,30.98-84.09,15.93-178.51,60.17-257.67,11.73-54.47-71.11,21.73-87.75,32.27-148.82,93.69-168.16,281.52-129.74,437.24-1.84,17.93-16.78,39.09-28.32,29.63-35.43-42.24-69.02-86.46-99.85-133.49-122.43-165.75-160.08-226.53-59.67-425.49.41-36.51,21.92-75.87,41.87-107.55,93.08-109.26,124.54-190.95,109.99-334.24,4.66-33.79,2.21-67.52,10.34-100.28,2.86-15-8.05-26.69-21.49-12.89-86.23,119.79-147.34,267.93-145.15,417.06-1.56,17.24-9.11,12.03-14.71-2.41-21.25-83.96-88.1-140.18-142.94-204.27-27.99-23.43-51.52-50.8-63.46-87.51-11.26-37.13-41.54-74.91-47.72-11.42-1.11,17.13,1.27,34.97,5.18,51.85,28.43,104.38,53.91,226.6,154.5,287.19,27.97,13.05,52.58,32.47,64.83,61.04,18.62,53.29-21.51,103.32-27.75,156.91-6.35,14.75-2.4,47.3-18.37,52.54-138.61-225.48-244.14-457.38-338.1-702.3-20.19-47.35-6.83-98.06,15.18-142.67,23.1-40.83,69.26-57.7,101.65-86.42,43.13-51.98,109.78-12.59,166.7-29.66,164.59-14.23,258.67-149.24,265.5-306.68,2.82-23.17,8.34-80.05-28.82-46.97-22.77,28.16-33.14,63.86-55.44,93.33-51.67,74.07-123.56,129.73-206.88,165.71-30.91,15.05-36.12,12.97-22.65-21.19,49.42-134.22,30.99-280.23,68.51-418.78,70.63-167.87-168.43,107.83-137.94,182.18-.84,61.06,17.45,114.92,40.24,169.48,51.05,142.53-164.04,189.23-223.34,293.6-32.78,30.97-43.22-53.1-53.19-71.65-20.6-74.53-49.11-150.05-59.01-227.78,1.85-71.15,44.53-132.02,87.09-184.05,31.65-56.07,53.32-116.19,65.4-179.71,63.89-243.85-23.64-149.24-98.29,3.77-47.17,79.73-25.07,175.88-55.82,260.72-17.84,37.76-21.39-63.63-25.93-76.08-10.12-136.59-25.07-349.72,132.24-400.02,71.72-10.46,156.38-42.91,195.68-106.12,36.41-72.49,21.71-160.7,82.32-225.29,18.69-40.99-45.51,5.22-62.75,22.03-72.45,57.46-157.16,113.49-203.13,199.33-19.61,37.75-24.8,81.15-64.29,104.8-11.38,8.13-38.99,38.08-39.72,11.62,10.76-89.16,31.94-180.73,55.69-267.49,3.79-12.55,9.88-23.7,19.26-33.04,63.48-58.24,111.75-135.54,119.83-222.26,1.46-25.45,3.93-54.16,14.92-77.57,5.36-11.41,13.11-21.42,16.87-33.59.78-2.53,6.71-30.45.74-29.14-12.74,2.79-20.89,12.08-31.55,18.84-93.27,59.19-165.83,163.02-178.49,273.94,1.33,103.98-18.97,211.81-44.51,311.74-43.3-36.2-63.97-103.37-91.05-155.13-39.11-53-67.14-111.29-78.8-175.49-26.14-32.67-44.04,32.72-46.39,54.95-89.4,319.59,274.2,185.4,188.05,447.47-20.4,66.72-21.28,139-25.38,208.43-8.74,81.71-115.38-92.56-116.93-113.24-48.29-94.42-80.76-205.47-139.43-290.14-56.45,53.31-33.98,154.69-21.01,224.25,20.7,152.18,184.67,216.66,272.97,322.85,89.73,311.26,177.31,623.86,320.68,916.2,6.54,15.51,3.93,22.57-9.86,14.82-57.2-43.79-135.07-66.69-184.44-119.57-187.72-227.64-3.95-338.22-244.25-615.68-70.7-176.64-57.9,81.28-53.64,139.57,7.55,61.95,22.17,128.29,64.45,178.17,91.71,83.61,140.11,198.82,205.92,299.45-34.2-13.66-64.68-53.3-94.68-76.35-79.82-62.98-177.1-90.23-256.37-154.61-44.62-27.07-84.44-59.25-110.46-106.16-34.85-31.99-30.12,71.24-21.26,90.44,24.09,134.84,143.05,215.43,267.59,250.14,56.41,16.3,121.9,2.69,179.53,20.86,151.99,47.72,304.43,133.18,364.99,288.27,76.59,122.67,129.83,255.98,206.31,377.65,14.57,37.45-135.22-55.28-159.98-50.89-29.03-10.62-73.38-13.49-80.74-49.53-18.52-123.91-133.17-190.04-230.8-249.68-43.28-28.4-80.02-71.97-122.6-97.15-26.24-.74,33.25,130.8,50.7,152.5,82.95,130.97,211.57,220.32,361.32,262.33,13.83,5.54,9.31,9.17-3.45,9.53-206.55,8.25-429.23,34.38-618.69-65.85-22.17-14.73-34.57-4.62-20.23,17.96,111.04,173.03,207.8,238.87,416.36,194.91,172.57-27.92,271.99-164.96,448.49-61.62,35.21,17.11,52.99,55.38,79.07,83.82,48.25,65.05,112.04,127.02,150.79,195.38,1.47,8.54-12.64,4.31-18.14,2.36-102.54-35.43-205.43-70.71-300.86-124.08-18.46-4.98-77.23-74.28-70.34-22.45,53.62,116.84,185.82,224.21,319.87,217.94,41.55,1.62,88.72-13.43,128.38.99,126.46,115.13,229.88,253.48,362.28,365.65,5.3,4.68,101.79,70.15,69.99,65.24-83.96-19.2-172.79-41.3-255.21-65.98-62.96-33.18-112.48-90.78-178.9-118.51-109.35-57.81-234.49-82.3-343.9-136.82-12.95-12.43-53.92-33.09-38.38,1.16,123.8,188.58,360.38,298.95,585.94,282.55,17.43,2.34,58.84,13.45,22.77,18.25-154.07,23.6-281.55,68.31-434.4,8.81-105.9-17.4-214.45-24.74-318.59-46.95-70.85-18.12-132.3-67.9-209.84-58.47-66.88,11.03,56.41,46.89,71.74,59.1,71.19,39.97,120.6,121.44,209.23,136.93,81.28,21.81,165.1,32.78,248.91,24.88,28.32,2.86,56.66,1.45,82.11-12.94,41.52-20.43,95.11-22.99,131.73-49.73,138.63-47.99,296-59.02,438.26-16.75,98.24,33.97,177.41,103.83,261.74,163.35,304.46,211.78,623,406.76,955.48,568.94,27.3,13.2,40.24-11.6,14.49-27.49ZM2029.65,3242.69c-.43-7.48-.95-24.34,4.57-9.77,8.87,29.56,1.04,62.9.57,94.15-1.7,14.71,2.57,42.66-19.96,37.41-.91-1.19-2.73-3.57-3.65-4.76,5.27-38.47,25.45-76.77,18.47-117.03ZM1932.35,3388.55c-16.56-65.04-11.46-148.91,4.48-213.96,5.19,35.02-.91,70.63,2.71,105.63-1.23,17.64,32.98,141.72-7.19,108.33ZM1966.87,3356.56c-10.05-65-12.75-135.37-3.24-200.21,9.1,13.61,24.98,220.23,3.24,200.21ZM1705.31,2790.75c-18.53,9.19-39.85,17.61-52.09,34.74-2.07,2.1-6.05,4.11-7.74,2.38-.75-8.97,26.8-39.75,38.09-40.73,4.95-3.17,4.66-11.63,11.26-14.95,4.99-3.72,13.87-7.77,17.54-10.17,26.76-14.79,66.16-31.38,96.62-26.64-27.89,23.35-71.59,34.3-103.68,55.38ZM1676.74,2736.79c.88-1.92,1.45-3.99,2.7-5.75,16.29-22.94,48.93-25.91,73.14-38.71,3.93.75,6.58,1.25,9.23,1.76-26.94,15.88-59.86,25.69-85.07,42.7ZM1739.2,2724.9c26.86-21.06,89.21-27.31,124.73-41.48,53.37-7.18,140.36-21.84,193.04-10.83-99.69,26.58-214.49,43.9-317.77,52.31ZM1838.87,2672.33c2.8-2.22,5.15-5.76,8.46-6.45,34.75-6.46,68-16.5,102.44-13.47-33.97,14.49-74.28,13.57-110.9,19.92ZM1959.93,2591.76c23.05,6.77,48.38,8.75,69.72,19.54-20.82,2.08-129.86,11.64-134.7-4.14,20.19-4.07,41.08-16.65,64.98-15.4ZM1736.95,2615.45c46.12-7.96,110.34-39.14,150.99-25.79-70.49,29.11-148.99,28.72-213.52,70.35-31.11,8.15,52.23-48.03,62.53-44.56ZM1574.27,2836.05c43.37-128.83,183.9-229.35,321.5-204.76,5.94,2.82-8.77,7.3-13.41,9.19-132.17,29.04-241.63,57.92-299.94,193.08-3.55,9.85-12.51,16.2-8.16,2.49ZM1158.05,1925.8c-14.09,41.03-32.17,91.76-67.12,117.44,28.17-62.26,55.23-129.59,61.43-198.81,22.67-38.5,4.2,71.78,5.69,81.37ZM1092.8,1927.2c-3.74,7.42-7.62,17.41-10.72,18.17l-1.25-.71c9.62-56.11,28.25-114.95,44.66-170.6,11.16-28.05,28.16-57.94,14.76-4.9-2.19,84.42-14.7,178.62-59.18,255.11-3.67,6-5.53,7-6.97,1.46-2.41-8.45,53.41-146.49,18.72-98.54ZM1055.95,1957.72c5.29,17.42-2.62,37.36-2.85,55.64-1.96,8.63.18,19.52-6.84,25.84-1.07-1.63-2.14-3.25-2.75-4.17,4.88-25.78-2.28-55.97,12.44-77.31ZM929.25,2104.47c-50.16-35.47-94.3-78.8-110.2-139.77-7.46-26.02-25.75-66.44-27.29-91.06,40.15,82.33,88.89,161.41,147.05,231.41-.72,1.77-6.46.42-9.56-.58ZM906.72,2040.65c-31.16-33.88-57.96-81.38-72.09-122.42,28.87,33.18,58.88,79.96,86.52,115.41,53.05,64.63,27.65,65.63-14.43,7.01ZM850.4,1910.09c-71.2-102.73,61.74,38.71,75.66,64.07,12.58,22.57,25.11,50.32,33.45,73.73-42.34-32.53-72.96-94.96-109.11-137.8ZM908.48,1340.02c12.55-21.62,43.61-24.69,59.43-40.56,11.98-10.83,26.58-27.24,39.67-34.92-33.61,42.1-84.36,80.34-134.35,101.39-26.28,4.36,33.64-20.13,35.25-25.91ZM894.15,1375.54c22.12,5.97,214.95-170.16,136.58-131.22-22.19,13.99-9.81-.89-1.6-7.57,23.22-15.9,28.93-48.66,47.19-66.1,19.38-9.45-21.91,102.83-28.83,111.02-32.42,32.9-24.59,47.48,7.28,10.2,23.19-23.02,26.44-78.77,52.3-91.77,4.71,71.76-64,135.33-120.01,170.75-10.45,4.45-54.88,31.58-60.45,23.33,5.18-10.24,49.74-21.03,46.14-32.29-62.79,8.91-39.85,35.06-129.93,31.73,13.5-7.9,35.75-11.93,51.33-18.08ZM828.86,956.09c10.64-1.31-17.12,43.35,9.59,34.26,19.56-6.37,16.92-51.12,31.32-59.34-9.52,62.48-23.86,131.04-32.57,194.75-1.91,5.25-3.21,11.16-8.89,9.96-11.91-21.75,4.47-70.81-6.62-94.05-17.17-7.27-11.07,20.34-11.91,28.3-2.88,27.87-1.54,56.3-1.59,84.29-16.48,101.82-26.8-155.67,20.67-198.16ZM839.61,1409.93c-18.94,5.33-44.27,1.97-62.95-5.07,19.13-7.74,44.66-4.34,62.95,5.07ZM515.38,1071.06c-.03-3.02-1.34-6.53.17-8.95,17.93-20.58,27.23-46.74,39.81-70.77.32-.64,1.12-1.13,2.44-2.43,11.71,20.77-26.69,67.56-42.42,82.16ZM601.55,825.15c29.59-19.31-23.7,102.94-19.74,118.58-2.08,10.06-8.31,24.62-14.25,31.13-5.15-1.58,6.59-26.42-6.44-24.65-15.4,9.61-16.73,55.51-36.15,54.54,1.11-23.13,15.83-44.33,26.18-64.48,18.54-30.37,21.95-98.96,50.39-115.11ZM537.37,907.86c5.5,19.79-10.75,42.23-20.43,58.97-4.94,12.01-2.54,27.5-11.55,37.13l-1.66-5.37c-.69-.13-1.38-.26-2.07-.39,11.4-26.21,3.33-83.92,35.7-90.34ZM760.32,510.2c-9.32,32.45-43,96.35-79.83,88.93,37.01-41.54,71.11-87.22,83.63-142.96,17.05-28.7-4.46,50.93-3.8,54.03ZM750.41,417c.25.98.76,2.93,1.02,3.91-7.01,21.76-25.87,35.86-38.92,53.96-22.29,39.99-55.29,68.61-90.94,95.86-15.32,6.73-3.87-2.81,1.34-7.62,49.38-42.22,81.54-101.47,127.5-146.1ZM694.68,443.17c6.66-7.05,9.2-3.23,1.76,5.97-39.56,36.3-61.52,93.22-103.9,123.65,16.57-50.38,64.21-92.94,102.14-129.62ZM685.62,536.97c-9.59,30.22-47.38,50.18-68.07,75.67-6.67,5.43-19.06,5.29-26.81,4.36,24.55-32.4,67.21-50.96,94.87-80.03ZM569.39,322c-.94.45-2.67-.12-4.23-.25,7.65-13.99,16.2-30.17,27.78-40.77-1.68,13.95-14.03,30.22-23.55,41.01ZM624.82,194.59c-.85,14.69-16.08,25.27-27.19,34.06-6.98,12.27-12.56,43.35-28.56,44.85,8.86-19.85,26.89-41.21,33.39-63.85,15.12-18.44,17.02-50.22,31.24-66.28,4.99,9.74-9.4,38.51-8.88,51.22ZM615.72,95.81c29.89-47.59-30.94,130.92-39.2,127.45,1.65-35.22,27.99-91.23,39.2-127.45ZM564.56,160.6c28.01-41.01-16.53,81.73-19.86,89.18-7.18,11.78-6.49,38.04-22.65,38.82-9.68-43.22,29.03-87.98,42.52-128ZM284.28,381.71c24.81,29.88,57.41,66.72,63.53,104.26-25.99-22.62-40.74-60.63-59.87-90.16-1.86-3.16-4.54-6.02-7.14-9.4,1.35-1.83,2.41-3.27,3.47-4.7ZM320.22,557.91c-115.41-29.77-74.27-231.62-67.25-159.37,6.94,54.33,19.88,106.05,59.8,145.77,4,6.93,13.49,13.18,7.45,13.61ZM335.87,530.37c-11.44-28.92-56.25-84.13-51.07-111.57,3.79-1.08,7.81,8.07,9.19,11.66,16.9,44.23,62.08,76.55,84.97,118.98,29.52,54.54-37.33.53-43.08-19.06ZM243.61,983.05c-29.09-17.15-48.05-57.36-70.71-83.08-14.13-3.82-53.14-135.28-32.47-106.88,13.47,43.76,25.59,88.9,55.62,125.46,8.32,17.34,50.88,49.95,47.55,64.5ZM172.49,796.6c-5.34-16.03-9.21-37.9-12.06-56.8,1.08-14.96-14.83-31.71-5.88-36.43,11.9,13.84,19.42,40.24,33.63,53.89,12.87,1.31,65.22,94.89,40.31,82.87-7.81-16.43-23.98-45.17-42.61-47.23,3.88,28.17,30.79,60.03,51.61,79.23-17.89,46.38,47.51,90.9,63.63,132.32-59.99-48.13-100.53-132.41-128.62-207.84ZM325.77,1425.3c10.98,7.35,19.05,24.19,21.76,36.86-2.34-1.05-5.86-1.65-6.82-3.23-5.69-9.3-10.79-18.83-16.28-28.62.42-1.57.89-3.29,1.35-5.01ZM269.77,1362.48c14.38,18.43,56.92,74.12,48.84,94.43-1.95-.79-5.47-1.45-5.6-2.4-2.61-18.76-26.02-29.58-28.57-48.96-1.62-12.31-9.75-24.09-14.96-36.1-1.1.16-2.2.32-3.31.48,1.2-2.48,2.4-4.96,3.61-7.44ZM278.86,1538.57c-2.31-18.23-22.32-39.47-13.98-57.59,2.1-4.97,4.85,3.94,6.02,6.22,14.63,46.43,37.87,99.18,51.7,145.56-30.05-21.11-41.29-60.03-43.75-94.19ZM331.17,1611.09c-5.58-11.44-98.51-254-46.16-177.91,10.24,20.24,40.61,41.31,28.84,64.82-1.06,6.19,5.03,17.16,5.57,23.12-1.37,8.73,33.81,135.51,11.75,89.97ZM373.15,1608.01c-13.94-22.71-33.11-101.15-48.13-134.87-4.24-5.74-4.38-18.61,6.38-9.22,34.19,38.08,44.78,94.79,41.75,144.09ZM403.18,1699.65c-1.18-2.23-3.12-4.4-3.44-6.71-1.42-31.63-16.35-68.01-5.45-101.87,9.24,13.73,18.62,96.89,8.89,108.58ZM293.43,1822.09c13.12,24.66,40.55,31.66,62.6,46.68,58,59.95-101.54-52.85-110-60.69-44.9-35.61,37.69,4.66,47.4,14.01ZM109.11,1707.49c13.12,6.99,23.57,12.49,33.97,22.52,17.93,20.94,49.25,25.67,65.56,45.26l-.03,1.86c-13.54,21.98-120.41-68.6-132.18-83.89,10.15-3.85,22.81,9.81,32.67,14.25ZM164.58,1887.58c-22.38-14.3-48.88-34.03-67.02-53.55-24.46-28.52-48.99-63.65-54.79-101.77-3.18-12.84,4.02-24.13,11.72-8.18,17.14,66.73,72.29,109.11,112.97,161.31-.72.54-2.15,1.63-2.87,2.18ZM274.19,1915c-66.67-10.92-113.51-63.78-157.67-109.96-11.58-11.58-41.35-36.99-34.87-54.5,6.2.19,12.3,8.86,17.11,13.63,47.81,59.35,120.93,102.31,180.12,148.52-1.17.58-3.52,1.74-4.69,2.31ZM119.63,1768.78c-99.59-102.59,171.08,97.08,184.32,114.77,25.7,10.21,62.12,30.46,81.19,50.24-102.79-14.17-195.74-91.8-265.51-165.01ZM619.5,2458.69c-11.88-6.31-35.18-32.95-34.46-45.61,16.55,5.81,24.41,24.6,36.17,36.61,1.26,1.61-.82,4.85-1.71,9ZM513.83,2308.8c-4.87-7.33-6.72-12.25,1.25-8.74,81.93,56.06,160.66,122.09,210.56,210.12-18.05,40.73-181.61-177.71-211.81-201.38ZM705.36,2457.49c-31.06-68.26-103.96-105.64-158.93-150.59.45-.47,1.35-1.41,1.79-1.88,58.92,17.58,161.77,88.51,185.56,146.04,66.26,112.77,21.15,91.76-28.43,6.43ZM548.78,2630.35c8.52,5.92,156.37-6.23,110.24,8.85-93.97,17.36-240.07,17.71-323.76-25.76,70.58,6.39,143.63,9.92,213.52,16.91ZM367.92,2697.96c43.68,15.51,97.93,39.09,145.85,45.92l.25,1.11c-51.46,11.71-110.57-8.52-146.1-47.03ZM576.24,2753.87c-11.85-2.68-23.57.57-31.85-6.28,16.37-6.87,36.11-6.72,53.74-3.87-7.56,3.51-15.12,7.02-21.9,10.16ZM331.59,2651.64c46.98,18.81,106.1,43.83,157.16,48.72,47.73-13.28-131.43-32.4-133.2-59.44,52.8,9.34,111.96,15.32,169.25,16.62,48.54,7.58,97.92.53,147.84-9.86,28.09-4.36,74.2-25.24,100.39-14.43-49.45,20.75-106.03,27.81-158.14,37.85-8.76,4.61-73.04.09-51.84,16.47,58.81,5.21,122.04-18.98,177.49-33.28,5.48-.8,12.26-1.03,6.82,4.21-44.66,31.78-109.15,33.19-158.95,52.48-12.2,13.08,68.32-9.63,65.48,1.08-101.08,41.05-248.42,9.5-322.29-60.42ZM835.57,2664.51c-72.39,17.17-138.73,68.29-213.3,69.73,48.24-9.61,88.94-37.42,131.18-61.55,8.75-5.3,134.45-31.69,82.12-8.18ZM1313.89,2395.71c2.26,11.03-14.47,19.23-15.31,25.55,5.44,15.2-13.54,23.65-13.86,36.78-.03,1.08-3.62,2.93-5.56,2.93-1.73,0-3.47-2.06-4.69-2.87,10.05-20.2,18.09-52.21,39.41-62.39ZM1323.01,2426.38c4.54-1.44,5.44,4.95,6.71,11.62,9.87,24.69,19.09-17.97,20.1-27.98,2.23-22.71,26.83-65.73,21.54-27.02-5.98,18.87,1,35.9,3.97,54.03-2.84,52.03-21.32,114.06-51.52,155.83-7.16-4.84,2.01-15.56-.36-21.51-9.83-15-4.97-30.03.37-46.72,6.51-16.09-5.07-31.09-15.53-11.74-10.5,31.32-19.37,65.84-32.49,96.14-62.44,129.25-19.7-19.95-1.98-56.11-2.39-3.81-10.26-5-10.51-9.6,12.21-40.08,30.97-84.58,59.69-116.93ZM1215.45,2593.86c-6.78-32.65,10.2-73.69,14.24-107.87,4.85-10.73,8.77-36.49,22.81-35.82,2.59.71,2.95,5.49,2.68,8.04-18.05,41.62-24.38,92.49-38.41,135.5l-1.33.15ZM978.87,2867.83c7.75-5.28,17.26,9.04,25.77,11.96,24.68,11.49,49.27,22.94,72.71,35.64,57.95,29.5,129.38,36.14,181.11,76.99,1.23,4.19-2.86,6.22-8.51,5.25-93.35-29.7-201.12-60.98-271.07-129.83ZM1083.18,2995.96c-1.58-.77-2.79-2.03-4.28-3.14,5.43-10.68,92.49,31.54,101.86,40.24-35.05-1.36-66.16-23.35-97.59-37.11ZM1275.07,3029.44c-37.19-6.14-74.45,2.14-102.94-24.45,37.6-7.45,75.64,9.94,111.67,20.01-3.09,1.57-6.18,3.15-8.73,4.44ZM1518.32,2386.37c13.98,38,23.21,82.38,25.11,123.85,8.9,39.61-9.15,72.76-16.58,110.41-16.86,35.2,2.84-104.4-15.89-127.58-4.21-20.01,1.93-37.4-7.46-54.01,4.87-13.83,3.14-45.5,14.82-52.67ZM1496.19,2484.62c14.03,51.13,9.69,112.17,1.31,163.39-7.74-16.54-25.59-173.07-1.31-163.39ZM1526.83,2858.2c-10.82-37.51-22.44-80.55-28.78-119.95,1.08,1.55,1.77,3.43,3.3,4.61,20.8,16.8,37.81,94.04,25.48,115.33ZM1359.79,3410.16c-90.75-28.75-198.08-61.34-259.08-137.85,69.36,35.38,141.06,72.93,212.57,106.09,9.01,4.71,4.55,16.4,12.53,19.54,3.37,2.13,49.57,6.7,33.99,12.23ZM1399.33,3381.44c-70.67-27.56-156.68-56.19-217.64-103.41,72.84,26.83,153.26,58.63,218.05,102.37l-.41,1.04ZM1308.35,3311.91c-36.56-19.11-177.29-58.86-180.04-93.11,97.61,31.26,212.7,66.68,288.64,137.67-16.08,15.61-84.06-36.14-108.6-44.55ZM1170.96,3492.14c-1.98.98-3.96,1.97-4.97,2.46-40.13-6.59-82.45-8.02-119.8-21.64,41.08,2.2,87.24,1.39,124.76,19.18ZM951.57,3454.2c27.59,7.56,66.35,1.86,88.53,19.82-30.74-4.79-65.65-6.09-94.27-17.28,1.61-.71,3.22-1.43,5.74-2.54ZM761.71,3417.56c87.39,34.12,178.05,54.98,271.54,66.64,13.65-.18,44.04,13.04,13.66,14.73-93.65,5.66-179.42-21.92-262.42-62.65-11.67-2.78-14.52,1.86-4.06,8.52,93.37,55.23,207.2,78.33,311.93,101.72l.11.98c-108.86,5.26-232.54-28.74-320.49-95.42-15.95-8.26-54.31-52.06-10.27-34.51ZM832.06,3510.65c92.76,32.29,196.07,53.29,294.95,54l.06,1.13c-70.73,11.37-246.53-3.43-295.01-55.13ZM1158.29,3542.31c-46.34-1.86-93.05-10.08-137.78-23.34-53.57-31.36,191.59,13.68,200.16,19.39-16.77,6.92-44.46,1.92-62.38,3.95ZM2000.84,3324.67c-13.18,29.15-3.44-27.64-2.99-36.05,2.54-15.93-2.91-36.8-4.95-51.6-2.42-26.04-2.63-55.93-6.28-82.26.31-5.11-4.35-24.89,3.32-21.47,25.84,57.65,20.78,130.31,10.9,191.38Z" fill="FRAME_COLOR"/>
    </g>
  </g>
</svg>