<?xml version="1.0" encoding="utf-8"?>
<!-- Generator: Adobe Illustrator 24.1.1, SVG Export Plug-In . SVG Version: 6.00 Build 0)  -->
<svg version="1.1" id="Layer_1" xmlns="http://www.w3.org/2000/svg" xmlns:xlink="http://www.w3.org/1999/xlink" x="0px" y="0px"
	 viewBox="97 51 237 185" style="enable-background:new 0 0 432 432;" xml:space="preserve">
<g>
	
	
	
	
	
	
	
	
	
	
	
	<path fill="FRAME_COLOR" d="M196.07,71.29c-4.24,1.22-8.55,2.24-12.71,3.69c-11.97,4.17-22.2,11.04-30.88,20.28c-12.28,13.08-20.95,28.06-24.6,45.8
		c-3.99,19.38-1.14,37.89,6.9,55.71c2.3,5.11,5.26,9.92,7.91,14.87c0.32,0.59,0.63,1.17,0.54,2.04c-1.2-1.58-2.51-3.09-3.57-4.75
		c-7.02-10.94-12.08-22.7-14.16-35.58c-4.52-27.92,2.69-52.55,20.95-74.1c8.6-10.16,18.68-18.34,31.09-23.22
		c5.89-2.32,12.18-3.63,18.29-5.4C195.91,70.84,195.99,71.07,196.07,71.29z"/>
	<path fill="FRAME_COLOR" d="M304.85,176.68c-5.08,31.96-23.05,53.65-52.84,65.7c-28.94,11.71-56.01,7.55-81.37-10.03
		c25.97,16.15,53.25,19.36,81.7,7.56C280.81,228.1,298.36,206.93,304.85,176.68z"/>
	
	<path fill="FRAME_COLOR" d="M125.89,127.75c-9.1-9.29-9.25-25.53-3.47-33.12c6.8,5.71,9.86,22.07,5.67,31.26c-0.63-3.3-1.15-6.39-1.83-9.44
		c-0.69-3.07-1.54-6.1-2.32-9.15c-0.17,0.01-0.34,0.03-0.52,0.04c0,2.21-0.12,4.43,0.03,6.63c0.16,2.23,0.54,4.46,0.94,6.66
		C124.81,122.9,125.34,125.14,125.89,127.75z"/>
	<path fill="FRAME_COLOR" d="M187.89,70.93c4.85-4.14,9.68-8.25,14.51-12.37c-0.15-0.18-0.29-0.37-0.44-0.55c-6.66,2.78-12.13,7.34-17.53,11.97
		c1.14-9.35,17.02-20.24,28.22-19.32C211.66,58.65,199.35,68.74,187.89,70.93z"/>
	<path fill="FRAME_COLOR" d="M142.4,100.16c0.71-5.63,1.42-11.25,2.11-16.89c0.07-0.55,0.01-1.11-0.2-1.7c-2.92,6.25-3.96,12.93-4.51,19.78
		c-5.05-7.97-1.71-26.63,7.31-32.92C151.64,76.4,149.17,92.88,142.4,100.16z"/>
	<path fill="FRAME_COLOR" d="M163.14,81.35c2.09-6,4.1-11.8,6.12-17.59c-0.23-0.09-0.46-0.17-0.69-0.26c-3.94,5.59-6.31,11.9-8.31,18.3
		c-4.39-7.11,4.98-26.68,14.35-29.69C177.29,60.61,171.37,75.78,163.14,81.35z"/>
	<path fill="FRAME_COLOR" d="M107.13,126.76c8.58,3.43,16.28,17.35,15.14,27.42c-3.14-5.45-6.19-10.74-9.25-16.04c-0.19,0.11-0.39,0.21-0.58,0.32
		c1.37,7.12,5.52,12.98,9.02,19.23C112.29,154.49,104.89,138.53,107.13,126.76z"/>
	<path fill="FRAME_COLOR" d="M192.98,76.38c6.37,1.29,12.74,2.57,19.11,3.86c0.04-0.17,0.09-0.34,0.13-0.51c-5.65-2.84-11.61-4.73-18.08-5.53
		c7.52-5.11,26.38,1.36,30.89,10.39C217.29,87.73,198.88,83,192.98,76.38z"/>
	<path fill="FRAME_COLOR" d="M306.75,141.33c6.23,7.15,5.88,24.96-0.81,31.28c0.88-6.6,1.58-12.9,0.31-19.23c-2.15,6.4-1.92,13.14-2.72,19.97
		C298.52,164.25,300.37,146.29,306.75,141.33z"/>
	<path fill="FRAME_COLOR" d="M169.01,84.76c9.59-5.67,24.87-2.95,31.73,5.28c-7.21,4.19-26.55,2.48-32.33-2.86c3.21,0.2,6.41,0.49,9.62,0.59
		c3.19,0.1,6.39,0.02,9.61-0.21C181.78,85.43,175.66,84.81,169.01,84.76z"/>
	<path fill="FRAME_COLOR" d="M148.06,134.43c-0.06,9.75-9,22.65-17.64,25.54c3.5-5.48,6.97-10.89,10.43-16.3c-0.19-0.13-0.38-0.26-0.56-0.39
		c-4.69,4.1-8.56,8.91-11.96,14.33C128,147.64,138.16,135.74,148.06,134.43z"/>
	
	<path fill="FRAME_COLOR" d="M148.86,105.35c5.85-1.27,11.71-2.53,17.56-3.8c-0.04-0.32-0.08-0.64-0.12-0.96c-5.71,0.44-11.41,0.88-16.9,1.31
		c6.07-6.87,22.96-7.76,30.51-1.14C170.08,106.41,159.93,108.65,148.86,105.35z"/>
	
	
	
	<path fill="FRAME_COLOR" d="M134.96,129.13c5.2-2.94,10.5-5.94,15.8-8.94c-0.17-0.34-0.33-0.68-0.5-1.02c-5.14,2.09-10.28,4.17-15.23,6.19
		c3.59-8.11,18.74-13.65,27.43-9.82C158.03,123.2,143.27,130.45,134.96,129.13z"/>
	
	
	<path fill="FRAME_COLOR" d="M306.09,191.33c3.53-3.59,7.87-8.01,12.22-12.43c-0.3-0.34-0.6-0.68-0.9-1.02c-2.11,1.48-4.25,2.91-6.31,4.45
		c-2.13,1.59-4.19,3.28-6.2,4.87c1.56-8.08,13.59-18.09,21.26-17.6C325.5,179.33,314.9,190.13,306.09,191.33z"/>
	
	<path fill="FRAME_COLOR" d="M310.98,203.74c-4.97,1.64-9.94,3.27-14.73,4.85c3.02-7,17.7-11.74,26.13-8.21c-5.97,8.29-17.23,13.82-27.72,11.81
		c6-2.05,11.54-4.42,16.56-7.83C311.14,204.16,311.06,203.95,310.98,203.74z"/>
	
	
	
	
	
	
	
	
	
	
	
	<path fill="FRAME_COLOR" d="M298.78,186.32c-6.05-2.81-9.31-9.33-8.09-15.86C295.09,172.48,299.2,180.45,298.78,186.32z"/>
	
	
	
	
	
	<path fill="FRAME_COLOR" d="M228.94,73.3c-0.9-1.15-1.99-1.99-1.85-2.5c0.21-0.77,1.21-1.69,1.99-1.81c0.5-0.08,1.63,1.11,1.7,1.81
		C230.84,71.43,229.83,72.16,228.94,73.3z"/>
	
	
	<path fill="FRAME_COLOR" d="M222.26,72.72c-0.93-1.11-1.96-1.84-1.85-2.32c0.17-0.74,1.02-1.65,1.75-1.84c0.45-0.12,1.69,0.92,1.72,1.49
		C223.92,70.75,223.06,71.49,222.26,72.72z"/>
	<path fill="FRAME_COLOR" d="M304.81,129.6c-1.31,0.81-2.08,1.65-2.77,1.59c-0.56-0.04-1.45-1.18-1.43-1.82c0.02-0.59,1.05-1.63,1.61-1.61
		C302.91,127.78,303.59,128.68,304.81,129.6z"/>
	<path fill="FRAME_COLOR" d="M135.99,172.48c-1.18,0.84-1.93,1.77-2.46,1.66c-0.73-0.15-1.64-1.01-1.82-1.73c-0.11-0.44,1.01-1.66,1.59-1.67
		C134.01,170.73,134.74,171.62,135.99,172.48z"/>
	<path fill="FRAME_COLOR" d="M244.75,73.18c-1.25,0.85-1.94,1.69-2.55,1.64c-0.68-0.06-1.3-0.93-1.94-1.45c0.54-0.63,1.04-1.72,1.63-1.76
		C242.6,71.55,243.38,72.37,244.75,73.18z"/>
	
	
	<path fill="FRAME_COLOR" d="M248.58,72.66c0.74,1.19,1.57,1.95,1.53,2.65c-0.04,0.56-1.31,1.57-1.76,1.44c-0.71-0.2-1.55-1.14-1.66-1.87
		C246.6,74.37,247.65,73.69,248.58,72.66z"/>
	
	
	<path fill="FRAME_COLOR" d="M306.7,136.16c-1.21,0.73-1.95,1.54-2.57,1.46c-0.59-0.08-1.52-1.13-1.46-1.67c0.06-0.6,1.05-1.53,1.65-1.55
		C304.94,134.38,305.59,135.29,306.7,136.16z"/>
	
	
	
	<path fill="FRAME_COLOR" d="M232.93,71.73c1.37-0.84,2.13-1.67,2.84-1.63c0.57,0.03,1.1,1.1,1.65,1.71c-0.62,0.55-1.2,1.46-1.87,1.53
		C234.93,73.4,234.22,72.57,232.93,71.73z"/>
	
	<path fill="FRAME_COLOR" d="M276.78,89.04c0.85,1.12,1.76,1.79,1.74,2.43c-0.01,0.63-0.97,1.23-1.51,1.85c-0.61-0.58-1.59-1.09-1.71-1.75
		C275.2,90.96,276.05,90.2,276.78,89.04z"/>
	<path fill="FRAME_COLOR" d="M299.64,125.27c-0.45-0.75-1.2-1.48-1.23-2.24c-0.02-0.53,0.95-1.1,1.48-1.65c0.57,0.68,1.41,1.28,1.62,2.06
		c0.13,0.47-0.69,1.21-1.09,1.83C300.16,125.27,299.9,125.27,299.64,125.27z"/>
	<path fill="FRAME_COLOR" d="M257.14,77.86c-1.13,0.66-1.91,1.45-2.36,1.3c-0.76-0.26-1.3-1.12-1.94-1.73c0.64-0.58,1.3-1.63,1.93-1.61
		C255.42,75.83,256.06,76.87,257.14,77.86z"/>
	<path fill="FRAME_COLOR" d="M296.86,119.75c-0.65-1.26-1.36-2.02-1.29-2.69c0.06-0.56,1.21-1.54,1.57-1.42c0.69,0.23,1.56,1.1,1.59,1.73
		C298.76,117.98,297.8,118.62,296.86,119.75z"/>
	<path fill="FRAME_COLOR" d="M260.27,78c0.88,1.21,1.67,1.87,1.8,2.64c0.07,0.43-1.03,1.54-1.46,1.47c-0.69-0.12-1.63-0.88-1.76-1.51
		C258.73,80.01,259.55,79.23,260.27,78z"/>
	<path fill="FRAME_COLOR" d="M294.01,109.05c0.8,1.1,1.68,1.79,1.63,2.4c-0.05,0.62-1.02,1.17-1.59,1.75c-0.59-0.66-1.42-1.25-1.66-2.02
		C292.27,110.78,293.21,110.05,294.01,109.05z"/>
	
	<path fill="FRAME_COLOR" d="M137.6,179.17c-1.09,0.72-1.85,1.57-2.29,1.43c-0.74-0.24-1.29-1.1-1.92-1.7c0.61-0.55,1.21-1.5,1.84-1.52
		C135.84,177.36,136.5,178.29,137.6,179.17z"/>
	
	
	<path fill="FRAME_COLOR" d="M266.16,81.31c0.8,1.11,1.69,1.82,1.62,2.41c-0.07,0.61-1.14,1.57-1.69,1.51c-0.61-0.06-1.43-1.03-1.56-1.72
		C264.43,83.02,265.34,82.35,266.16,81.31z"/>
	<path fill="FRAME_COLOR" d="M292.94,106.11c-1.24,0.79-1.99,1.65-2.58,1.55c-0.63-0.11-1.4-1.08-1.52-1.77c-0.07-0.41,1.01-1.42,1.57-1.42
		C291.09,104.48,291.74,105.29,292.94,106.11z"/>
	<path fill="FRAME_COLOR" d="M274,87.62c-1.07,0.71-1.84,1.56-2.25,1.41c-0.74-0.27-1.25-1.14-1.86-1.76c0.62-0.53,1.22-1.47,1.86-1.49
		C272.34,85.77,272.96,86.72,274,87.62z"/>
	<path fill="FRAME_COLOR" d="M286.25,98.39c0.82,1.21,1.6,1.88,1.61,2.54c0,0.55-1.03,1.62-1.42,1.54c-0.69-0.14-1.64-0.9-1.75-1.53
		C284.58,100.36,285.45,99.61,286.25,98.39z"/>
	
	
	<path fill="FRAME_COLOR" d="M281.59,98.59c-0.76-1.18-1.55-1.87-1.54-2.54c0.01-0.51,1.03-1.01,1.6-1.51c0.54,0.61,1.38,1.17,1.52,1.86
		C283.27,96.88,282.39,97.55,281.59,98.59z"/>
	<path fill="FRAME_COLOR" d="M219.3,60.16c0.77,1.17,1.57,1.86,1.47,2.38c-0.11,0.6-0.96,1.35-1.6,1.47c-0.44,0.08-1.54-0.87-1.49-1.25
		C217.78,62.03,218.48,61.39,219.3,60.16z"/>
	
	
	
	<path fill="FRAME_COLOR" d="M252.98,66.2c0.83,1.12,1.53,1.71,1.69,2.43c0.07,0.33-1.05,1.33-1.44,1.24c-0.63-0.15-1.36-0.87-1.55-1.51
		C251.55,67.95,252.3,67.27,252.98,66.2z"/>
	<path fill="FRAME_COLOR" d="M241.75,65.03c-0.64,0.34-1.3,0.98-1.9,0.93c-0.55-0.05-1.05-0.84-1.57-1.3c0.53-0.54,1.01-1.42,1.61-1.51
		c0.56-0.08,1.24,0.68,1.87,1.07C241.75,64.49,241.75,64.76,241.75,65.03z"/>
	<path fill="FRAME_COLOR" d="M226.24,64.88c-0.81-1.11-1.65-1.77-1.56-2.26c0.11-0.61,0.93-1.33,1.57-1.49c0.36-0.09,1.34,0.84,1.38,1.36
		C227.66,63.08,226.95,63.72,226.24,64.88z"/>
	
	
	<path fill="FRAME_COLOR" d="M235.38,63.15c-1.04,0.78-1.64,1.57-2.12,1.5c-0.64-0.09-1.19-0.84-1.78-1.31c0.47-0.51,0.91-1.4,1.42-1.44
		C233.52,61.86,234.2,62.52,235.38,63.15z"/>
	
	
	<path fill="FRAME_COLOR" d="M311.88,127.76c-1.04,0.76-1.68,1.55-2.1,1.45c-0.65-0.16-1.15-0.92-1.71-1.43c0.47-0.51,0.93-1.42,1.41-1.43
		C310.11,126.33,310.74,127.03,311.88,127.76z"/>
	<path fill="FRAME_COLOR" d="M309.36,134.79c0.96-0.78,1.5-1.21,2.04-1.65c0.5,0.63,1.14,1.21,1.43,1.93c0.09,0.22-0.88,1.23-1.24,1.17
		C310.92,136.11,310.35,135.47,309.36,134.79z"/>
	<path fill="FRAME_COLOR" d="M280.63,86.34c1.13-0.69,1.74-1.37,2.26-1.3c0.58,0.08,1.07,0.84,1.59,1.3c-0.47,0.5-0.94,1.39-1.42,1.4
		C282.43,87.75,281.8,87.06,280.63,86.34z"/>
	<path fill="FRAME_COLOR" d="M302.26,114.39c1.02-0.66,1.66-1.39,2.15-1.3c0.55,0.1,1.31,0.95,1.31,1.47c0,0.47-0.88,1.3-1.41,1.33
		C303.8,115.93,303.23,115.15,302.26,114.39z"/>
	<path fill="FRAME_COLOR" d="M271.97,80.13c-0.8-1.05-1.54-1.62-1.61-2.26c-0.05-0.41,0.9-1.31,1.38-1.3c0.52,0.01,1.33,0.78,1.43,1.33
		C273.27,78.4,272.59,79.04,271.97,80.13z"/>
	<path fill="FRAME_COLOR" d="M307.32,118.75c0.67,1.17,1.36,1.84,1.25,2.32c-0.14,0.6-0.95,1.05-1.47,1.56c-0.47-0.51-1.32-1.04-1.31-1.54
		C305.8,120.48,306.54,119.88,307.32,118.75z"/>
	
	<path fill="FRAME_COLOR" d="M294.92,96.53c-1.06,0.77-1.62,1.49-2.15,1.47c-0.55-0.03-1.43-0.73-1.49-1.22c-0.06-0.48,0.71-1.48,1.16-1.5
		C293.07,95.24,293.74,95.89,294.92,96.53z"/>
	<path fill="FRAME_COLOR" d="M299.35,102.54c-1.12,0.66-1.85,1.4-2.23,1.24c-0.62-0.25-1.12-1.03-1.4-1.7c-0.07-0.17,0.93-1.15,1.33-1.08
		C297.7,101.11,298.26,101.77,299.35,102.54z"/>
	
	<path fill="FRAME_COLOR" d="M248.67,66.22c-0.94,0.72-1.5,1.48-2,1.45c-0.57-0.03-1.1-0.77-1.65-1.2c0.5-0.56,0.91-1.4,1.52-1.59
		C246.95,64.75,247.65,65.54,248.67,66.22z"/>
	<path fill="FRAME_COLOR" d="M261.61,71.2c-0.87,0.67-1.41,1.42-1.83,1.35c-0.61-0.1-1.12-0.78-1.67-1.22c0.47-0.51,0.89-1.38,1.41-1.44
		C260.04,69.83,260.66,70.57,261.61,71.2z"/>
	<path fill="FRAME_COLOR" d="M301.03,106.17c0.63,1.04,1.3,1.66,1.23,2.18c-0.07,0.52-0.88,0.94-1.36,1.4c-0.48-0.51-1.27-0.99-1.34-1.55
		C299.5,107.71,300.29,107.13,301.03,106.17z"/>
	<path fill="FRAME_COLOR" d="M287.97,93.38c-0.71-0.99-1.37-1.55-1.48-2.2c-0.06-0.37,0.99-1.34,1.16-1.25c0.63,0.3,1.3,0.86,1.56,1.48
		C289.35,91.73,288.62,92.4,287.97,93.38z"/>
	<path fill="FRAME_COLOR" d="M265.68,72.49c0.7,0.84,1.4,1.32,1.49,1.91c0.06,0.4-0.91,1.39-1.11,1.31c-0.67-0.26-1.34-0.79-1.69-1.4
		C264.25,74.1,265.04,73.35,265.68,72.49z"/>
	<path fill="FRAME_COLOR" d="M277.43,80.13c0.7,0.82,1.5,1.34,1.5,1.86c0,0.47-0.88,1.32-1.36,1.31c-0.5-0.01-1.23-0.79-1.38-1.35
		C276.1,81.57,276.83,80.97,277.43,80.13z"/>
	<g>
		
		
	</g>
</g>
</svg>
