<?xml version="1.0" encoding="utf-8"?>
<!-- Generator: Adobe Illustrator 24.1.1, SVG Export Plug-In . SVG Version: 6.00 Build 0)  -->
<svg version="1.1" id="Layer_1" xmlns="http://www.w3.org/2000/svg" xmlns:xlink="http://www.w3.org/1999/xlink" x="0px" y="0px"
	 viewBox="0 0 432 432" style="enable-background:new 0 0 432 432;" xml:space="preserve">
<g>
	<g>
		<path d="M124.79,142.3c-2.75-3.9-3.43-8.22-2.35-13.54c2.92,1.46,5.5,2.75,8.11,4.05c0.71-1.15,1.58-2.56,2.77-4.49
			c1.41,1.9,2.57,3.47,3.69,4.99c1.89-0.78,3.8-1.57,5.57-2.3c-0.72-1.79-1.68-3.61-2.16-5.55c-0.79-3.12-0.08-6.02,2.26-8.35
			c1.72-1.72,3.24-1.77,4.88,0.05c1.01,1.12,1.7,2.55,2.36,3.92c0.45,0.93,0.61,2.01,0.89,3.03c2.1,7.62,6.98,10.17,14.61,9.69
			c1.74-0.11,3.41-1.29,5.19-2.02c-3.23-0.61-6.28-0.82-9.04-1.84c-2.12-0.79-4.14-2.34-5.71-4.02c-1.92-2.06-1.54-4.69,0.64-6.53
			c3.2-2.7,7.06-3.7,11.17-3.66c1.88,0.02,2.26,0.92,1.37,2.62c-0.26,0.49-0.53,0.97-1.11,2.02c1.81-0.97,3.14-1.67,4.46-2.38
			c5.65-3.03,11.45-5.68,17.76-7.05c3.57-0.77,7.1-0.77,10.63,0.3c1.88,0.57,3.07-0.15,3.66-2.02c0.47-1.46-0.3-3.38-1.75-3.83
			c-0.52-0.16-1.51,0.14-1.82,0.57c-1.47,2.07-2.52,2.55-4.3,1.67c-1.69-0.84-2.52-2.99-1.84-4.88c0.23-0.64,0.61-1.23,0.93-1.86
			c-4.18-0.56-6.35-2.3-6.85-5.42c-0.48-3.03,1.46-6.38,4.72-8c3.49-1.73,7.04-1.76,10.57-0.1c1,0.47,1.94,1.04,3.35,1.81
			c-2.03-3.95-3.28-7.69-2.6-12.41c2.44,1.12,4.66,2.13,6.96,3.18c0.52-3.19,1.58-6.24,4.48-8.56c2.64,2.35,3.71,5.36,4.16,8.71
			c2.22-1.09,4.43-2.17,6.94-3.4c1.07,4.56-0.42,8.16-2.01,11.71c2.14-0.71,4.16-1.65,6.28-2.03c3.83-0.68,7.27,0.43,9.96,3.31
			c1.94,2.08,2.49,4.57,1.35,7.22c-1.11,2.56-3.12,3.9-5.69,3.83c0.13,1.56,0.63,3.25,0.26,4.7c-0.27,1.03-1.63,2.24-2.69,2.45
			c-0.89,0.18-2.26-0.76-3.03-1.58c-1.19-1.26-2.33-1.58-3.09-0.06c-0.54,1.07-0.54,2.66-0.21,3.85c0.38,1.36,1.67,1.72,3.11,1.21
			c4.59-1.64,9.24-1.27,13.63,0.43c5.69,2.2,11.2,4.85,16.78,7.32c0.61,0.27,1.19,0.59,1.84,0.9c0.05-0.27,0.08-0.33,0.07-0.38
			c-0.29-1.1-0.59-2.19-0.88-3.29c1.28-0.19,2.68-0.8,3.83-0.5c2.75,0.72,5.59,1.53,8.03,2.94c3.28,1.89,3.54,4.94,1.07,7.84
			c-2.97,3.49-7.11,4.28-11.37,4.7c-0.83,0.08-1.67,0.01-2.59,0.01c4.08,4.2,12.88,3.39,16.61-1.72c1.49-2.04,2.22-4.64,3.26-7
			c0.62-1.41,0.98-2.96,1.78-4.25c2.04-3.27,4.83-3.27,6.97-0.04c2.03,3.07,2.02,6.36,0.64,9.67c-0.45,1.09-1.13,2.08-1.69,3.1
			c1.88,0.74,3.74,1.47,5.66,2.22c1.09-1.42,2.3-2.98,3.78-4.9c1.2,1.79,2.13,3.16,2.99,4.44c2.43-1.27,4.93-2.57,7.4-3.86
			c1.9,3.12,1.32,6.71-1.69,13.07c2.31,0.7,4.75,1.2,6.99,2.18c1.61,0.7,3.25,2.28,2.64,4.1c-0.48,1.45-2.02,2.97-3.46,3.56
			c-2.09,0.87-4.59,0.68-6.76,1.41c-1.99,0.67-4.05,1.67-5.57,3.07c-2.24,2.06-2.34,4.83-0.87,7.52c0.7,1.28,1.49,2.52,2.34,3.95
			c0-1.72-0.12-3.19,0.02-4.63c0.38-3.81,3.18-6.33,6.71-6.19c3.56,0.14,7.01,3.43,7.25,6.8c0.12,1.66-0.67,2.01-2.04,1.59
			c-1.13-0.34-2.24-0.79-3.95-1.4c6.15,10.95,11.77,21.61,12.23,34.23c0.42-0.15,0.72-0.22,0.98-0.36c1.76-0.98,3.45-0.81,4.82,0.62
			c1.43,1.49,1.48,3.26,0.46,5.05c-1.56,2.74-4.86,3.87-8.28,2.76c-1.11-0.36-2.14-0.92-3.64-1.58c1.27,2.9,3.14,4.47,5.82,5.05
			c3.34,0.73,6.32,0.04,8.55-2.7c2.42-2.99,2.22-6.38,1.24-9.82c-0.09-0.31-0.51-0.61-0.85-0.75c-2.45-1.03-3.02-2.62-1.74-4.94
			c1.94-3.52,7-4.76,10.96-2.69c4.04,2.1,6.45,6.79,5.48,11.35c-0.53,2.49-1.66,4.86-2.35,6.83c2.32-0.63,5.14-1.58,8.04-2.12
			c2.52-0.47,2.92,0.21,1.88,2.6c-0.61,1.4-1.34,2.74-2.09,4.25c3.2,0.03,5.9,1.19,8.43,2.93c1.56,1.07,1.43,2.05-0.03,2.81
			c-2.5,1.31-5.11,2.42-7.87,3.71c0.61,1.51,1.45,3.6,2.41,5.99c-4.27,0.73-7.63-1.11-10.83-2.31c0.81,2.45,2.03,4.94,2.42,7.55
			c1.09,7.4-5.09,13.28-11.84,11.51c-2.47-0.65-4.24-2.12-5.02-4.64c-0.47-1.5-0.1-2.6,1.38-3.3c0.49-0.23,1.1-0.51,1.31-0.94
			c1.46-2.99,1.37-6.01-0.3-8.87c-1.84-3.15-4.81-4.21-8.29-3.8c-3.02,0.36-5.5,1.64-6.64,4.73c-0.01,0.04,0.05,0.11,0.14,0.28
			c1.13-0.46,2.25-0.98,3.41-1.37c3.36-1.12,6.53-0.24,8.12,2.2c1.39,2.13,1.05,5.24-1.03,6.09c-1.34,0.54-3.08,0.1-5.01,0.1
			c-0.53,11.91-6.1,22.61-12.23,33.74c1.75-0.58,2.83-1.01,3.96-1.29c0.57-0.14,1.51-0.22,1.74,0.09c0.35,0.45,0.4,1.32,0.25,1.93
			c-0.92,3.79-4.57,6.62-7.94,6.27c-3.34-0.35-5.98-3.7-6.05-7.78c-0.02-1.11,0.16-2.22,0.12-3.38c-1.71,2.85-4.44,5.41-3.16,9.24
			c1.23,3.67,4.2,5.27,7.84,5.83c1.53,0.23,3.08,0.35,4.57,0.72c1.07,0.26,2.15,0.71,3.06,1.33c2.42,1.64,2.59,3.2,0.67,5.4
			c-2.22,2.55-5.16,3.22-8.68,3.03c2.87,4.02,3.73,8.27,2.52,13.2c-3.14-0.31-5.46-2.26-7.9-3.81c-0.93,1.46-1.84,2.9-3.01,4.75
			c-1.47-1.95-2.62-3.5-3.76-5.01c-1.86,0.83-3.75,1.67-5.38,2.39c0.75,2.13,1.76,4.23,2.21,6.45c0.57,2.78-0.46,5.28-2.43,7.32
			c-1.58,1.62-3.01,1.8-4.58,0.18c-1.22-1.27-2.13-2.91-2.89-4.53c-0.74-1.57-1.01-3.37-1.68-4.98c-3.06-7.34-12.18-9.69-18.39-5
			c2.42,0.38,5.15,0.42,7.57,1.32c2.35,0.87,4.68,2.31,6.48,4.06c2.26,2.19,1.94,4.48-0.42,6.59c-2.83,2.53-6.32,3.62-10.03,3.9
			c-0.95,0.07-1.94-0.51-2.91-0.79c0.26-0.82,0.52-1.65,0.8-2.47c0.11-0.32,0.28-0.61,0.67-1.44c-2.65,1.38-4.86,2.52-7.05,3.67
			c-5.24,2.76-10.62,5.13-16.47,6.29c-3.13,0.62-6.15,0.25-9.14-0.72c-1.73-0.56-2.82,0.11-3.55,2.14
			c-0.51,1.42,0.36,3.45,1.79,3.77c0.53,0.12,1.4-0.18,1.75-0.59c1.85-2.19,2.84-2.61,4.46-1.63c1.64,0.99,2.18,3.12,1.33,5.25
			c-0.15,0.38-0.38,0.74-0.59,1.14c0.14,0.11,0.23,0.26,0.33,0.26c2.58,0.1,4.71,0.99,5.74,3.52c1.08,2.65,0.55,5.16-1.18,7.33
			c-2.96,3.72-6.99,4.17-11.28,3.26c-1.68-0.36-3.27-1.15-4.81-1.72c0.65,2.43,1.45,4.92,1.94,7.48c0.22,1.16-0.2,2.44-0.32,3.67
			c-1.23-0.35-2.5-0.58-3.67-1.08c-1.01-0.43-1.89-1.15-2.99-1.85c-0.53,3.36-1.64,6.36-4.4,8.76c-2.66-2.33-3.84-5.25-4.49-8.51
			c-2.13,1.1-4.25,2.2-6.69,3.46c-0.95-4.54,0.41-8.25,1.83-11.79c-2.5,0.68-4.86,1.55-7.3,1.91c-2.8,0.42-5.48-0.37-7.69-2.21
			c-2.29-1.91-3.67-4.29-2.89-7.41c0.81-3.23,3.06-4.72,6.2-4.86c-0.24-1.27-0.67-2.48-0.63-3.67c0.05-1.69,1.07-2.9,2.75-3.33
			c1.53-0.39,2.6,0.33,3.23,1.7c0.63,1.36,1.54,1.27,2.55,0.56c1.39-0.98,1.84-2.32,1.12-3.87c-0.69-1.49-1.7-2.24-3.53-1.57
			c-4.38,1.61-8.83,1.06-13-0.58c-5.93-2.34-11.69-5.1-17.51-7.7c-0.62-0.28-1.21-0.63-2.23-1.18c0.55,1.05,0.89,1.69,1.23,2.34
			c0.86,1.66,0.6,2.36-1.31,2.46c-4.82,0.25-9.01-1.39-12.24-5c-1.61-1.79-0.99-4.56,1.24-6.55c3.02-2.7,6.73-3.68,10.66-4
			c0.96-0.08,1.93-0.01,3.02-0.01c-6.04-4.92-15.23-2.86-18.44,4.03c-0.56,1.2-0.89,2.51-1.35,3.76c-0.48,1.32-0.89,2.67-1.51,3.92
			c-0.9,1.8-2.1,3.59-4.36,3.45c-2.22-0.14-3.29-2.02-4.07-3.85c-1.34-3.16-0.71-6.2,0.87-9.11c0.33-0.61,0.73-1.19,1.1-1.79
			c-1.91-0.86-3.78-1.71-5.76-2.6c-1.01,1.4-2.13,2.95-3.55,4.91c-1.19-1.73-2.11-3.07-3.03-4.41c-2.45,1.29-5.01,2.63-7.83,4.1
			c-1.09-5.11-0.65-9.48,2.26-13.68c-3.33,0.16-6.11-0.51-8.35-2.73c-2.37-2.35-2.14-4.44,0.8-6.05c1.02-0.56,2.23-0.81,3.39-1.05
			c1.85-0.38,3.79-0.44,5.59-0.98c5.95-1.79,7.82-6.65,4.73-11.98c-0.46-0.78-0.95-1.54-1.85-2.26c0.05,0.62,0.09,1.25,0.16,1.87
			c0.25,2.27-0.28,4.33-1.65,6.16c-2.35,3.14-6.35,3.7-9.2,1.01c-1.33-1.26-2.23-3.01-3.15-4.64c-0.28-0.49-0.15-1.42,0.15-1.94
			c0.15-0.25,1.14-0.13,1.71,0c1.16,0.26,2.29,0.64,4.14,1.18c-6.15-10.99-11.63-21.7-12.33-34.26c-0.67,0.34-1.12,0.61-1.6,0.81
			c-1.63,0.68-3.06,0.32-4.19-0.99c-1.26-1.47-1.51-3.15-0.61-4.9c1.48-2.91,4.98-3.99,8.64-2.63c1.15,0.43,2.23,1.05,3.35,1.59
			c0.15-0.12,0.3-0.23,0.45-0.35c-0.53-0.81-0.95-1.74-1.62-2.41c-2.93-2.88-7.98-3.52-11.1-1.51c-3.2,2.07-4.72,6.82-3.32,10.7
			c0.23,0.64,0.8,1.33,1.39,1.65c1.89,1.03,2.41,2.07,1.58,4.07c-1.26,3.05-3.83,4.2-6.89,4.36c-5.83,0.31-10.67-5.04-9.9-11.32
			c0.35-2.82,1.61-5.53,2.35-7.91c-2.14,0.66-4.76,1.62-7.46,2.25c-2.64,0.61-3.13-0.02-2.23-2.52c0.49-1.37,1.14-2.68,1.77-4.13
			c-3.69-0.37-6.91-1.71-9.74-4.53c2.85-2.68,5.88-4.44,9.83-4.31c-0.93-2.25-1.79-4.34-2.77-6.71c4.17-0.71,7.39,0.89,11.01,2.27
			c-0.71-1.61-1.33-2.96-1.88-4.33c-1.17-2.85-1.23-5.76-0.2-8.65c1.73-4.85,6.78-7.44,11.74-6.08c2.74,0.75,4.87,3.19,4.56,5.57
			c-0.1,0.79-0.86,1.92-1.53,2.11c-1.37,0.39-1.72,1.21-1.96,2.39c-0.55,2.79-0.36,5.46,1.12,7.95c2.98,4.97,11.04,5.07,14.14,0.16
			c0.28-0.45,0.43-0.99,0.71-1.66c-1.84,0.64-3.41,1.33-5.06,1.73c-2.11,0.51-4.05-0.1-5.66-1.55c-1.98-1.79-2.38-4.42-1-6.24
			c1.36-1.8,3.23-1.94,6.12-0.33c0.51-12.53,5.74-23.37,12.1-34.27c-1.38,0.44-2.34,0.77-3.31,1.06c-2.1,0.62-2.73,0.02-2.3-2.18
			c0.73-3.66,3.87-6.17,7.56-6.02c3.19,0.13,5.74,2.71,6.17,6.39c0.15,1.29,0.02,2.61,0.02,4.56c1.73-3.2,4.1-5.57,3.06-9.04
			c-1.05-3.48-3.74-5.12-7.15-5.74c-1.8-0.32-3.64-0.39-5.41-0.81c-2.25-0.53-4.34-1.51-4.96-4c-0.4-1.61,1.46-3.85,4.1-4.79
			C120.74,142.92,122.72,142.73,124.79,142.3z M121.25,215.89c-0.03,52.39,42.4,94.52,95.25,94.57
			c51.94,0.05,94.64-42.5,94.57-94.44c-0.07-54.31-44.5-94.37-94.5-94.45C162.45,121.5,120.97,165.65,121.25,215.89z M195.47,115.76
			c-0.03,0.22-0.06,0.43-0.09,0.65c-8.66,0.22-18.34,5.41-24.1,8.89c2.89,0.55,5.36-0.37,7.81-1.38c6.03-2.49,12.05-3.92,18.83-3.12
			c6.22,0.74,11.81-1.76,14.99-7.75c4.61-8.68-1.33-22.34-10.8-25.03c-4.52-1.28-9.02,0.09-11.1,3.39
			c-1.35,2.15-1.13,4.87,0.54,6.62c1.48,1.55,2.8,1.57,5.5,0.07c0.25-0.14,0.49-0.28,0.74-0.41c3.78-1.94,8.13-1.1,10.89,2.13
			c2.9,3.39,3.29,7.23,1.71,11.25c-1.6,4.06-4.72,6.48-9.04,6.93c-1.57,0.17-3.24-0.51-4.86-0.81c-0.06-0.37-0.12-0.74-0.18-1.11
			c1.63-0.99,3.25-1.99,5.27-3.22c-1.76-0.4-3.19-1.09-4.56-0.98c-3.68,0.3-7.57,0.32-10.94,1.6c-6.01,2.27-11.72,5.35-17.53,8.16
			c-0.39,0.19-0.84,1.17-0.7,1.36c0.41,0.55,1.09,1.18,1.71,1.23c0.69,0.06,1.45-0.43,2.13-0.78c2.31-1.19,4.55-2.52,6.9-3.63
			c4.39-2.08,8.84-4.01,13.78-4.32C193.39,115.45,194.43,115.67,195.47,115.76z M261.03,125.62c0.05-0.23,0.09-0.46,0.14-0.68
			c-7.89-3.5-15.22-8.6-24.51-8.56c0.75-0.49,1.54-0.91,2.33-0.91c1.32,0,2.74,0,3.95,0.46c4.72,1.77,9.39,3.68,14.05,5.6
			c1.75,0.72,3.36,1.8,5.15,2.38c0.65,0.21,1.62-0.56,2.45-0.88c-0.42-0.59-0.72-1.35-1.28-1.74c-1.09-0.75-2.31-1.33-3.5-1.93
			c-5.9-2.97-11.77-6.05-18.35-7.25c-3.58-0.66-7.16-0.66-10.97,1.2c1.28,0.45,2.22,0.61,2.96,1.08c0.87,0.55,1.57,1.37,2.35,2.07
			c-0.85,0.53-1.66,1.12-2.55,1.55c-0.41,0.2-0.97,0.14-1.45,0.12c-4.35-0.14-8.32-2.98-9.89-7.06c-2.47-6.4,0.97-13.28,7.14-14.3
			c2.59-0.43,4.82,0.41,6.99,1.72c2.05,1.23,3.49,0.92,4.98-0.9c1.99-2.43,1.44-5.8-1.29-7.98c-3.18-2.54-8.03-2.82-11.91-0.56
			c-5.66,3.29-8.88,8.39-9.9,14.71c-1.21,7.57,2.74,13.86,10.08,16.12c2.49,0.77,5.3,1.14,7.87,0.86c4.69-0.52,9.09,0.04,13.42,1.75
			c2.02,0.8,4.05,1.65,6.14,2.22C257.23,125.21,259.15,125.34,261.03,125.62z M171.21,306.59c-0.04,0.22-0.09,0.44-0.13,0.66
			c3.92,1.8,7.75,3.82,11.78,5.35c4.09,1.55,8.37,2.62,12.57,3.89c-1.06,0.22-2.25,0.39-3.37,0.19c-6.31-1.08-12.04-3.74-17.7-6.58
			c-1.5-0.75-3.06-1.44-4.66-1.9c-0.51-0.15-1.26,0.52-1.9,0.81c0.32,0.51,0.53,1.24,0.99,1.48c3.78,2.01,7.49,4.25,11.46,5.77
			c4.55,1.74,9.32,3.01,14.08,4.11c2.35,0.54,4.87,0.1,7.15-1.56c-0.6-0.27-0.98-0.43-1.35-0.6c-1.34-0.61-3.62-0.85-3.11-2.62
			c0.26-0.89,2.82-1.11,4.34-1.63c0.06-0.02,0.14,0.01,0.21,0.02c4.83,0.62,8.89,4.57,9.53,9.38c0.59,4.41-0.78,8.14-4.53,10.63
			c-3.64,2.42-7.3,2.04-10.73-0.66c-1.43-1.12-2.76-0.78-3.95,0.4c-2.17,2.12-2.38,5.07-0.41,7.41c2.64,3.13,6.14,3.87,9.94,2.94
			c8.5-2.09,15.08-13.54,12.75-21.98c-1.92-6.94-9.33-11.92-16.77-10.77c-5.67,0.88-10.87-0.24-16.03-2.31
			c-1.3-0.52-2.56-1.23-3.92-1.53C175.4,307.04,173.29,306.87,171.21,306.59z M261.62,306.96c-3.83-0.82-6.82,0.32-9.78,1.67
			c-5.2,2.37-10.51,3.35-16.35,2.78c-12.24-1.2-20.12,7.69-17.15,19.07c1.71,6.53,5.66,11.48,12.38,13.52
			c5.29,1.61,10.6-1.24,11.33-5.79c0.33-2.08-0.47-3.72-2.12-4.95c-1.59-1.18-2.86-0.26-4.2,0.61c-3.7,2.42-8.21,2.1-11.25-0.89
			c-3.07-3.02-3.97-6.75-2.87-10.85c1.1-4.11,3.83-6.86,7.92-7.99c2.26-0.62,4.53-0.37,6.66,1.93c-1.92,1.02-3.54,1.87-5.22,2.76
			c0.29,0.21,0.49,0.42,0.73,0.53c0.45,0.2,0.91,0.36,1.38,0.5c4.55,1.35,9,0.58,13.18-1.17c5.69-2.38,11.2-5.18,16.75-7.88
			c0.65-0.32,1.57-1.31,1.45-1.75c-0.36-1.33-1.57-1.17-2.61-0.74c-1.68,0.7-3.29,1.57-4.99,2.23c-5.42,2.08-10.85,4.16-16.33,6.09
			c-1.05,0.37-2.34,0.05-3.53,0.05c-0.04-0.23-0.08-0.45-0.12-0.68C245.76,315.1,253.29,310.66,261.62,306.96z M163.05,135.2
			c-0.86,0.12-1.73,0.15-2.56,0.37c-5.57,1.5-10.82,1.2-15.68-2.31c-0.69-0.5-1.95-0.74-2.72-0.46c-1.96,0.71-3.8,1.78-5.66,2.69
			c-0.8-1.42-1.75-3.11-3.04-5.4c-0.95,2.26-1.65,3.92-2.38,5.67c-2.16-2.22-4.43-4.21-7.66-4.81c-0.37,3.35-0.14,6.5,1.74,9.09
			c1.8,2.47,4.09,4.58,5.93,6.59c-2.3-0.84-4.74-2.12-7.32-2.55c-2.74-0.45-5.26,0.66-7.32,3.21c1.19,0,1.96-0.12,2.7,0.02
			c3.21,0.59,6.58,0.82,9.57,2c4.5,1.78,6.42,5.81,5.71,10.6c-0.63,4.25-3.2,7.55-5.52,10.99c-1.52,2.25-2.91,4.64-3.96,7.14
			c-1.11,2.62-1.44,5.45-0.7,8.57c1.89-4.34,3.49-8.47,5.45-12.41c2-4.02,4.38-7.85,6.55-11.78c0.33-0.6,0.48-1.32,0.61-2
			c1.38-7.4-0.89-13.56-6.35-18.65c-0.85-0.8-1.62-1.68-2.43-2.53c0.15-0.12,0.29-0.25,0.44-0.37c4.17,2.26,6.76,5.98,8.89,10.11
			c0.18-0.09,0.36-0.18,0.54-0.28c-1.23-3.2-2.45-6.4-3.88-10.12c2.95,2.98,4.33,6.16,4.57,9.73c0.23,3.42,0.05,6.87,0.05,10.42
			c2.66-2.31,3.44-5.12,3.37-8.29c-0.08-3.51-0.76-6.82-2.81-9.77c-0.36-0.51-0.62-1.51-0.36-1.97c1.25-2.18,2.68-2.42,4.92-1.48
			C153.51,141.36,157.62,140.81,163.05,135.2z M308.28,186.74c0.1-0.7,0.2-1.15,0.23-1.6c0.26-5.23-1.68-9.73-4.61-13.93
			c-1.49-2.13-3.03-4.24-4.26-6.51c-4.14-7.64-1.02-14.68,7.43-16.61c2.8-0.64,5.75-0.63,8.82-0.93c-1.76-2.54-4.36-3.64-7.22-3.14
			c-2.62,0.46-5.1,1.76-8.14,2.87c5.22-4.27,9.57-8.74,8.32-16.66c-2.78,1.95-5.19,3.64-7.43,5.21c-0.62-1.44-1.38-3.18-2.13-4.92
			c-0.21-0.01-0.42-0.02-0.64-0.03c-1.01,1.79-2.03,3.59-3.11,5.51c-0.32-0.37-0.65-0.79-1.01-1.18c-1.82-1.94-5.23-2.74-7.08-1.46
			c-4.68,3.21-9.69,3.81-15.09,2.39c-1.06-0.28-2.2-0.25-3.3-0.36c2.66,1.99,4.8,4.5,8.33,4.47c4.18-0.04,8.1-0.94,11.71-2.96
			c1.31-0.73,2.17-0.68,3.1,0.38c0.64,0.72,1.31,1.41,1.95,2.09c-5.01,6.35-5.06,16.32-0.41,19.01c0-3.44-0.12-6.86,0.03-10.27
			c0.17-3.75,2.24-7.64,4.31-8.86c-1.1,2.9-2.25,5.95-3.41,9c0.17,0.06,0.35,0.13,0.52,0.19c4.47-6.53,6.47-8.67,9.08-9.41
			c-0.69,0.81-1.18,1.39-1.67,1.96c-1.38,1.59-3,3.02-4.12,4.78c-3.84,6.06-4.78,12.41-0.98,18.86c4.04,6.86,7.81,13.82,10.21,21.45
			C307.78,186.23,307.96,186.35,308.28,186.74z M136.95,295.66c0.42,0.66,0.62,1.14,0.96,1.47c2.81,2.75,5.31,3,8.56,0.89
			c3.67-2.39,7.63-3.03,11.9-2.12c1.53,0.33,3.09,0.46,4.92,0.73c-3.57-3.78-7.62-5.09-12.28-4.14c-2.11,0.43-4.34,0.98-6.14,2.1
			c-2.16,1.34-3.59,1-5.34-0.55c-1.06-0.94-1.08-1.52-0.52-2.78c1.2-2.73,2.44-5.54,2.96-8.45c0.64-3.61-0.4-6.99-3.62-9.81
			c0.47,7.31,1.38,14.39-4.34,20.35c1.37-3.63,2.61-6.94,3.86-10.24c-0.22-0.11-0.44-0.22-0.67-0.32c-1.8,4.47-4.72,7.95-9.03,10.81
			c0.14-0.69,0.12-0.94,0.23-1.06c1.1-1.18,2.24-2.32,3.33-3.52c6.42-7.03,6.93-15.48,2.06-23.56c-3.06-5.09-5.4-10.62-7.99-15.99
			c-0.64-1.33-1.03-2.78-1.6-4.33c-0.2,0.35-0.3,0.45-0.32,0.57c-0.05,0.28-0.05,0.56-0.07,0.84c-0.32,5.65,2.06,10.36,5.17,14.82
			c1.36,1.96,2.82,3.88,3.94,5.97c3.64,6.8,1,13.93-6.29,16.31c-3.1,1.01-6.53,1.03-9.79,1.49c1.43,2.14,3.93,3.43,6.72,2.96
			c2.62-0.44,5.08-1.86,8.34-3.13c-5.43,4.35-9.82,8.75-8.15,16.48c2.58-1.66,4.95-3.19,7.3-4.7c0.73,1.48,1.5,3.01,2.52,5.07
			C134.79,299.63,135.71,297.94,136.95,295.66z M308.87,301.56c0.17-1.3,0.33-1.97,0.34-2.65c0.05-4.12-1.53-7.49-4.64-10.19
			c-1.26-1.09-2.44-2.27-3.66-3.41c8.04,3.73,13.23,3.59,14.55-0.81c-3.79,0.63-7.45,0.38-10.97-1.18
			c-5.21-2.31-7.86-7.12-6.15-12.56c1.01-3.21,3.1-6.07,4.69-9.1c1.65-3.16,3.55-6.23,4.82-9.53c0.8-2.09,0.66-4.54,0.99-7.25
			c-0.74,0.41-0.92,0.44-0.95,0.53c-2.59,8.16-6.53,15.65-10.99,22.93c-0.88,1.43-1.4,3.25-1.55,4.93
			c-0.58,6.68,1.36,12.48,6.52,17.02c0.88,0.78,1.66,1.68,2.48,2.52c-0.17,0.16-0.35,0.31-0.52,0.47c-3.8-2.32-6.65-5.54-8.49-9.74
			c-0.23,0.14-0.47,0.28-0.7,0.42c1.23,3.05,2.47,6.11,3.85,9.52c-2.9-2.77-4.36-5.91-4.64-9.46c-0.27-3.49-0.06-7.02-0.06-10.53
			c-5.31,6.62-3.83,13.04,0.31,19.21c-2.13,2.57-4.3,3.62-7.26,1.44c-1.07-0.79-2.6-1-3.96-1.34c-5.2-1.31-9.82-0.41-13.9,3.93
			c1.79-0.31,3.23-0.53,4.65-0.81c4.54-0.89,8.94-0.48,12.66,2.36c2.38,1.82,4.4,1.3,6.56,0.08c1.02-0.58,1.9-1.4,2.91-2.16
			c0.95,1.7,1.92,3.42,3.21,5.72c0.96-2.21,1.65-3.82,2.3-5.31C303.66,298.18,306.08,299.75,308.87,301.56z M116.53,242.32
			c1.87-1.67,2.58-3.13,3.18-6.24c1.45-7.58-1.66-14.54-7.73-17.24c-8.17-3.64-21.17-0.09-25.13,11.97
			c-1.99,6.07,2.11,12.01,7.97,12.2c2.83,0.09,5.56-1.64,6.01-3.99c0.11-0.58-0.34-1.72-0.79-1.89c-4.71-1.72-6.44-5.4-4.51-9.93
			c1.74-4.09,6.71-6.85,11.41-6.33c5.52,0.6,9.54,3.91,10.35,8.69c0.32,1.89,0.27,3.79-1.58,5.12c-0.31,0.22-0.57,0.82-0.51,1.18
			C115.58,237.98,116.06,240.08,116.53,242.32z M315.81,242.47c0.48-2.4,0.95-4.56,1.32-6.73c0.05-0.3-0.25-0.78-0.54-1
			c-1.82-1.4-2-3.34-1.66-5.34c0.79-4.6,5.14-8.18,10.25-8.56c5.32-0.39,10.34,2.6,11.82,7.04c1.43,4.31-0.41,8.09-4.61,9.26
			c-1.38,0.38-1.2,1.12-0.85,2.05c0.96,2.58,4.11,4.22,7.11,3.71c4.64-0.78,7.83-5.36,7.18-10.35c-0.84-6.43-6.69-12.41-14.08-14.41
			c-7.14-1.93-13.43,0.14-16.96,5.56C311.12,229.35,311.45,237.89,315.81,242.47z M315.86,189.76c-0.32-0.05-0.63-0.11-0.95-0.16
			c-0.82,2.34-1.9,4.62-2.4,7.03c-1.56,7.53,2.39,14.99,8.88,17.16c9.39,3.15,21.06-2.81,24.01-12.26c1.35-4.31-0.18-8.94-3.7-11.18
			c-3.53-2.25-8.34-1.33-9.96,1.97c-0.52,1.06-1.08,2.31,0.73,2.85c3.87,1.15,5.53,3.76,4.93,7.74c-0.82,5.37-5.67,8.77-12.07,8.46
			c-5.4-0.26-10.35-4.81-10.34-9.84c0-1.39,1.01-2.78,1.55-4.17c0.18-0.47,0.53-0.99,0.47-1.43
			C316.69,193.86,316.25,191.82,315.86,189.76z M116.62,189.77c-0.42,1.92-0.93,3.82-1.22,5.76c-0.1,0.63,0.35,1.35,0.56,2.02
			c0.44,1.43,1.31,2.88,1.25,4.29c-0.22,4.97-4.41,8.97-9.63,9.56c-5.47,0.61-10.88-2.52-12.27-7.2c-1.45-4.87,0.75-8.65,4.6-9.25
			c0.42-0.07,0.99-1.05,0.99-1.61c-0.01-1.76-1.75-3.39-3.9-3.87c-6.63-1.5-11.89,4.45-10.15,11.49
			c2.11,8.52,11.81,14.76,21.01,13.55c5.57-0.73,9.17-3.78,11.14-9C121.14,199.85,120.06,194.69,116.62,189.77z M353.51,226.67
			c-0.74-6.48-5.61-7.81-9.73-10.01c2.17,0.37,4.2,0.9,6.14,1.66c3.63,1.43,7.45,0.66,10.47-2.4c-1.25-0.73-2.39-1.54-3.65-2.1
			c-4.64-2.04-8.77,1.1-13.26,1.32c1.33-0.85,2.7-1.62,4.18-1.99c3.61-0.88,4.63-3.81,6.1-6.99c-3.74,0.21-6.7,1.33-9.54,2.92
			c-3.36,1.88-6.7,3.79-10.13,5.53c-1.33,0.67-2.88,0.91-4.45,1.38c2.45,0.87,4.81,1.5,6.97,2.53c2.27,1.09,4.25,2.77,6.52,3.84
			C346.38,223.93,349.79,225.16,353.51,226.67z M88.7,216.71c-3.87,2.46-9.25,3.25-9.5,9.88c3.72-1.57,7.37-2.62,10.47-4.55
			c4.03-2.51,8.04-4.85,12.73-5.82c0.04-0.01,0.04-0.22-0.04,0.25c-4.03-1.99-7.89-3.92-11.79-5.79c-2.83-1.36-5.68-2.71-8.57-3.93
			c-0.89-0.37-1.96-0.32-3.26-0.5c1.26,3.45,2.45,6.26,6.13,7.06c1.35,0.29,2.59,1.11,3.88,1.68c-0.09,0.17-0.18,0.34-0.27,0.51
			c-2.83-0.77-5.62-1.79-8.49-2.25c-3.05-0.48-5.69,0.8-7.92,2.87C77.55,221.37,83.06,218.1,88.7,216.71z M206.12,78.48
			c-0.33,3.34,0.49,5.98,1.84,8.47c1.37,2.53,3.01,4.92,4.27,7.5c1.53,3.16,2.79,6.46,4.18,9.76c0.63-4.83,3.12-8.94,5.72-13.03
			c1.31-2.06,2.43-4.29,3.3-6.57c0.67-1.75,0.81-3.7,1.19-5.56c-0.24-0.15-0.48-0.3-0.71-0.45c-1.56,0.97-3.13,1.93-5.14,3.18
			c1.29,0.43,1.92,0.65,2.77,0.93c-0.49,1.68-0.95,3.23-1.4,4.79c-0.24-0.07-0.48-0.13-0.72-0.2c0.32-1.37,0.64-2.74,0.96-4.08
			c-0.88-0.32-1.57-0.56-2.25-0.81c-1.18,3.2-2.32,6.28-3.46,9.37c-0.33,0-0.66,0-0.98,0c-1.17-3.1-2.35-6.2-3.54-9.36
			c-0.68,0.25-1.37,0.5-2.17,0.78c0.33,1.39,0.64,2.73,0.95,4.06c-0.21,0.05-0.42,0.1-0.64,0.15c-0.47-1.55-0.94-3.09-1.42-4.65
			c0.88-0.39,1.53-0.67,2.7-1.19C209.56,80.44,207.96,79.53,206.12,78.48z M216.52,328.69c-1.83,3.53-3.74,7.23-5.66,10.93
			c-1.13,2.18-2.49,4.27-3.35,6.55c-0.86,2.28-1.23,4.74-1.82,7.13c0.25,0.14,0.5,0.27,0.75,0.41c1.59-1.08,3.19-2.16,5.16-3.49
			c-1.33-0.5-2.01-0.77-2.8-1.06c0.48-1.7,0.31-3.58,2.15-4.5c-0.37,1.31-0.75,2.61-1.14,4c0.95,0.31,1.65,0.54,2.48,0.82
			c0.27-0.82,0.5-1.55,0.75-2.26c0.61-1.72,1.17-3.46,1.88-5.14c0.21-0.5,0.81-1.13,1.25-1.16c0.39-0.02,0.98,0.65,1.21,1.15
			c0.45,0.94,0.72,1.97,1.05,2.97c0.49,1.5,0.97,3,1.48,4.58c1.06-0.5,1.8-0.85,2.66-1.25c-0.36-1.29-0.71-2.5-1.05-3.72
			c0.22-0.07,0.43-0.13,0.65-0.2c0.49,1.54,0.99,3.09,1.5,4.7c-0.98,0.32-1.63,0.53-2.94,0.95c2.02,1.32,3.61,2.36,5.41,3.54
			c0.34-3.47-0.29-5.37-2.08-9.17C221.5,339.03,217.2,334.42,216.52,328.69z M110.21,201.07c-0.23,0.07-0.46,0.14-0.69,0.21
			c-0.36-0.44-0.74-0.88-1.08-1.34c-1-1.35-2.25-1.95-3.82-1.06c-1.25,0.71-1.52,2.7-0.66,4.15c1.07,1.8,3.39,2.79,5.45,2.32
			c2.62-0.59,3.73-2.11,4.05-5.87c0.66-7.78,2.82-15.15,5.86-22.29c1.24-2.9,2.53-5.78,3.67-8.72c0.49-1.25,0.74-2.64-0.57-4.11
			c-1.91,3.65-3.75,7.02-5.46,10.46C112.85,183.06,110.32,191.74,110.21,201.07z M322.27,230.28c0.77,0.88,1.13,1.26,1.44,1.67
			c1.43,1.85,2.95,2.28,4.27,1.2c1.35-1.11,1.33-3.41-0.09-4.91c-1.51-1.59-3.36-1.91-5.41-1.31c-2.28,0.67-3.13,2.36-3.39,4.57
			c-1.06,9.2-3.45,18.03-7.35,26.46c-0.97,2.09-1.81,4.26-2.5,6.46c-0.29,0.94-0.05,2.05-0.05,3.08c0.31,0.07,0.63,0.14,0.94,0.21
			c2.75-5.87,5.66-11.67,8.21-17.62C320.96,244,321.87,237.48,322.27,230.28z M309.65,164.56c-1.23,1.91-0.4,3.45,0.16,4.99
			c2.46,6.71,5.16,13.34,7.31,20.15c1.15,3.64,1.35,7.58,1.98,11.39c0.39,2.38,1.89,3.9,4.26,4.3c1.85,0.31,4-0.75,4.96-2.51
			c0.79-1.46,0.82-2.92-0.62-3.95c-1.49-1.06-2.79-0.39-3.86,0.87c-0.36,0.43-0.7,0.87-1.05,1.31c-0.24-0.02-0.47-0.03-0.71-0.05
			C322,187.51,316.56,175.89,309.65,164.56z M121.44,234.81c-0.58,3.26-1.49,6.29-3.94,8.7c-0.38,0.37-0.37,1.46-0.14,2.06
			c1.91,5.04,3.98,10.03,5.86,15.09c0.67,1.81,1.23,3.76,1.31,5.66c0.1,2.3-1.28,3.27-3.58,2.92c-1.41-0.22-2.8-0.65-4.74-1.13
			c1,1.57,1.59,2.77,2.43,3.75c2.66,3.06,6.51,2.63,8.57-0.88c1.22-2.09,1.2-4.36,0.49-6.53c-0.96-2.92-2.12-5.78-3.36-8.59
			c-1.52-3.42-2.6-7.04-1.61-10.63C123.77,241.45,122.23,238.26,121.44,234.81z M122.86,267.96c0.87-2.87-0.11-4.95-0.91-7.09
			c-2.31-6.16-4.81-12.26-6.77-18.54c-1.14-3.65-1.39-7.57-2.03-11.37c-0.34-2.04-1.26-3.53-3.45-3.98
			c-2.33-0.47-4.5,0.24-5.63,1.91c-1.07,1.58-0.77,3.58,0.67,4.46c1.31,0.8,2.87,0.27,3.91-1.33c0.3-0.45,0.64-0.88,0.96-1.32
			c0.18,0.04,0.37,0.08,0.55,0.12C110.27,244.48,115.98,256.14,122.86,267.96z M310.6,197.03c1.12-2.48,2.08-5.29,3.62-7.72
			c0.77-1.21,1.2-2.03,0.67-3.34c-2.05-5.15-4.1-10.3-6.07-15.48c-0.52-1.36-1.01-2.81-1.08-4.24c-0.12-2.52,1.66-3.87,4.11-3.34
			c1.26,0.27,2.48,0.69,3.72,1.04c0.18-0.21,0.36-0.43,0.54-0.64c-1.24-1.43-2.25-3.2-3.76-4.21c-3.56-2.37-8.19,0.22-7.88,4.64
			c0.23,3.33,1.37,6.71,2.66,9.84c1.74,4.22,3.47,8.43,2.57,13.02C308.95,190.37,309.94,193.81,310.6,197.03z M116.85,163.99
			c1.36-0.4,2.48-0.79,3.62-1.05c2.32-0.53,3.88,0.55,4.06,2.94c0.08,1.09-0.06,2.27-0.42,3.3c-0.74,2.11-1.73,4.14-2.55,6.23
			c-1.41,3.59-2.79,7.19-4.12,10.81c-0.22,0.6-0.42,1.64-0.1,1.95c2.61,2.59,3.25,5.97,3.94,9.51c1.53-3.81,1.76-7.18,1.52-10.78
			c-0.18-2.69-0.02-5.47,0.52-8.11c0.48-2.29,1.86-4.38,2.57-6.65c0.86-2.72,1.8-5.49,2.04-8.3c0.25-2.95-2.36-5.48-4.94-5.57
			C119.86,158.17,117.25,160.46,116.85,163.99z M315.76,268.13c-1.51,0.41-2.77,0.83-4.05,1.09c-2.61,0.53-4.17-0.66-4.04-3.32
			c0.08-1.56,0.61-3.15,1.17-4.64c1.96-5.17,4.05-10.3,6.03-15.46c0.23-0.61,0.46-1.63,0.15-1.97c-2.46-2.71-3.53-5.99-4.14-9.52
			c-0.82,3.87-2.54,7.47-1.1,11.65c1.17,3.4-0.51,6.75-1.76,9.95c-0.99,2.54-2.08,5.05-2.99,7.63c-0.39,1.11-0.58,2.33-0.63,3.5
			c-0.16,3.6,1.79,6.28,4.74,6.71C312,274.16,314.71,271.96,315.76,268.13z M237.12,310.21c2.05-0.09,4.2,0.15,6.17-0.35
			c3.37-0.85,6.66-2.09,9.92-3.32c3.18-1.2,6.36-1.8,9.63-0.59c2.89,1.07,3.87,3.38,2.75,6.25c-0.34,0.87-0.77,1.71-1.28,2.84
			c2.11-0.1,4.15,0.27,5.26-1.51c1.55-2.5,1.27-5.25,0.17-7.89c-0.97-2.33-2.92-3.52-5.33-3.41c-2.84,0.13-5.79,0.27-8.46,1.13
			C249.66,305.4,243.49,307.87,237.12,310.21z M168.24,116.98c-2.27,0.1-4.42-0.28-5.62,1.61c-3.1,4.86,0.25,11.37,5.96,11.28
			c3.08-0.05,6.22-0.86,9.21-1.75c5.5-1.63,10.91-3.57,16.35-5.39c0.39-0.13,0.75-0.33,1.12-0.49c-0.05-0.22-0.1-0.43-0.15-0.65
			c-2.61,0.32-5.29,0.37-7.81,1.03c-3.38,0.88-6.58,2.43-9.96,3.31c-2.24,0.58-4.72,0.95-6.98,0.61c-3.58-0.53-4.93-3.76-3.37-7.02
			C167.35,118.77,167.72,118.04,168.24,116.98z M194.79,310.37c0.04-0.24,0.07-0.47,0.11-0.71c-0.23-0.1-0.45-0.22-0.68-0.3
			c-5.52-1.82-11.01-3.72-16.56-5.41c-2.66-0.8-5.42-1.53-8.17-1.7c-5.91-0.37-8.77,3.34-7.41,9.17c0.77,3.3,2.51,4.24,5.98,3.17
			c-0.24-0.5-0.47-1-0.72-1.48c-2.2-4.3-0.61-7.45,4.28-7.6c2.71-0.08,5.49,0.73,8.16,1.43c2.36,0.62,4.55,1.91,6.92,2.44
			C189.33,309.98,192.09,310.06,194.79,310.37z M237.11,122.21c0.46,0.29,0.61,0.44,0.78,0.5c5.58,1.84,11.13,3.79,16.75,5.46
			c2.86,0.85,5.85,1.61,8.8,1.69c5.1,0.14,7.95-3.54,7.17-8.59c-0.56-3.65-2.57-4.93-6.37-3.93c0.4,0.83,0.8,1.63,1.17,2.44
			c1.39,3,0.45,5.64-2.75,6.42c-2.09,0.51-4.48,0.5-6.59,0.06c-2.72-0.57-5.29-1.8-7.93-2.74
			C244.68,122.29,241.16,121.43,237.11,122.21z M273.77,134.63c6.88,2.16,14.76-1.94,16.69-8.27c1.02-3.36,0.21-6.64-2.2-8.39
			c-0.03,5.18-1.13,9.86-5.56,13.13c3.05-4.05,5.26-8.34,4.27-14.05c-0.83,0.71-1.59,1.08-1.91,1.68c-0.75,1.41-1.46,2.88-1.87,4.41
			C281.83,128.26,279.48,132.54,273.77,134.63z M286.68,314.77c0.9-3.89,0.57-4.95-3.64-13.52c3.89,3.25,5.23,7.66,5.21,12.79
			c3.21-2.75,3.44-6.78,0.97-10.89c-2.68-4.45-9.72-7.96-15.41-5.61c5.39,1.87,7.92,5.96,9.22,11.05c0.24,0.95,0.49,1.94,0.99,2.76
			C284.7,312.48,285.63,313.45,286.68,314.77z M145.29,314.44c2.15-0.88,3.15-2.46,3.63-4.31c1.42-5.53,3.48-10.55,9.83-12.68
			c-7.18-2.25-15.57,2.5-17.1,9.25c-0.69,3.05,0.1,5.58,2.32,7.11c0.21-4.95,1.21-9.53,5.49-12.65
			C146.66,305.04,144.64,309.15,145.29,314.44z M145.39,117.24c-0.93,5.52,1.12,9.81,4.1,13.83c-4.27-3.3-5.43-7.94-5.52-13.28
			c-2.25,2.24-2.9,4.66-2.38,7.35c1.34,6.92,9.79,11.78,16.44,9.62c-1.51-1.08-3.18-2.08-4.64-3.34c-2.63-2.27-3.55-5.48-4.37-8.7
			C148.49,120.6,147.69,118.62,145.39,117.24z M205.53,317.27c0.14,0.81,0.34,1.36,0.32,1.9c-0.06,1.88-0.03,3.79-0.33,5.63
			c-0.28,1.74-1.56,2.75-3.29,3.17c-1.66,0.4-2.16-0.73-2.78-1.92c-0.56-1.07-2.13-0.94-3.02,0.12c-1.13,1.35-0.66,3.38,1.05,4.53
			c3.26,2.2,8.58,0.79,10.88-2.89C210.66,324.18,209.55,319.6,205.53,317.27z M205.94,114.65c3.36-1.9,4.71-6.68,2.55-10.25
			c-2.18-3.6-7.5-5.06-10.91-2.96c-0.41,0.25-0.81,0.57-1.13,0.94c-1.05,1.23-0.9,3.02,0.35,3.92c1.51,1.07,2.41,0.37,3.1-1.11
			c0.62-1.34,1.86-1.71,2.97-0.9c1.07,0.78,2.36,1.89,2.6,3.05C205.97,109.72,205.83,112.24,205.94,114.65z M226.75,114.71
			c-0.14-0.78-0.41-1.46-0.35-2.11c0.21-2.2,0.11-4.56,0.92-6.53c1.15-2.76,3.74-2.71,5.48-0.29c0.35,0.49,1.16,1.07,1.6,0.97
			c0.72-0.18,1.52-0.76,1.91-1.41c0.84-1.37,0.1-2.89-1.72-3.95c-3.43-1.99-8.64-0.59-10.76,2.89
			C221.67,107.83,222.86,112.3,226.75,114.71z M226.12,317.75c0.05-0.03-0.28,0.08-0.52,0.29c-2.78,2.44-3.56,6.14-1.94,9.13
			c1.78,3.29,5.92,5.34,9.21,4.27c1.24-0.4,2.49-1.34,3.29-2.38c0.9-1.18,0.51-2.64-0.83-3.45c-1.29-0.78-2.12-0.19-2.79,1.14
			c-0.78,1.55-2.35,1.88-3.68,0.73c-0.91-0.79-1.84-1.91-2.08-3.02C226.31,322.26,226.31,319.97,226.12,317.75z M207.71,120.18
			c5.86,0,11.27,0,17.15,0c-5.06-2.78-7.66-6.84-8.7-12.1C215.08,113.19,212.62,117.26,207.71,120.18z M312.39,225.3
			c2.54-5.18,6.25-8.16,11.51-9.23c-5.13-1.16-8.92-3.83-11.51-8.85C312.39,213.46,312.39,219.08,312.39,225.3z M207.38,311.79
			c4.98,2.73,7.72,6.76,8.88,11.99c1-5.15,3.64-9.06,8.44-11.99C218.66,311.79,213.22,311.79,207.38,311.79z M119.86,224.95
			c0-5.95,0-11.61,0-17.27c-2.44,4.82-6.52,7.19-11.54,8.39C113.51,217.34,117.4,220.04,119.86,224.95z M216.3,90.97
			c1.92-6.08,4.9-11.79-0.03-17.53C212.1,77.72,212.7,82.68,216.3,90.97z M216.24,358.52c3.77-4.02,3.61-12.29-0.41-16.95
			C214.38,347.33,210.76,352.99,216.24,358.52z M288.92,278.44c-4.02,4.44-7.85,8.68-11.34,12.54c4.24,1.23,7.68-3.34,12.09-3.17
			C289.41,284.7,289.19,281.86,288.92,278.44z M142.69,287.32c2.51,1.09,4.97,2.39,7.58,3.22c1.62,0.51,3.46,0.32,5.52,0.47
			c-4.41-4.19-8.43-8.02-12.25-11.65C143.25,282.06,142.95,284.87,142.69,287.32z M142.77,144.94c0.17,2.27,0.38,5.13,0.65,8.65
			c4.03-4.49,7.78-8.68,11.54-12.86c-1.26,0.53-3.12,0.43-4.77,0.97C147.71,142.52,145.38,143.78,142.77,144.94z M276.74,141.39
			c2.24,2,4.33,3.76,6.3,5.64c1.97,1.88,3.84,3.88,5.78,5.84c0.32-3.04,0.6-5.79,0.87-8.3c-1.97-0.57-4.23-0.73-5.86-1.83
			C281.59,141.25,279.39,141.11,276.74,141.39z M133.33,157.49c-0.91-6.77-8.87-10.41-16.74-8.45c1.87,1.9,4.24,2.18,6.6,2.43
			C127.26,151.92,130.85,153.2,133.33,157.49z M315.76,149.45c-0.1-0.22-0.2-0.43-0.3-0.65c-8.06-1.53-15.62,2.25-16.06,8.25
			c1.87-2.98,4.37-4.76,7.69-5.29c1.59-0.25,3.24-0.29,4.79-0.69C313.22,150.73,314.47,150.01,315.76,149.45z M299.7,275.87
			c0.28,5.14,8.67,9.33,15.82,7.2c-1.49-1.97-3.63-2.26-5.78-2.4C305.87,280.44,302.44,279.31,299.7,275.87z M132.76,276.3
			c-1.89,1.15-3.95,2.72-6.25,3.69c-1.75,0.74-3.85,0.61-5.74,1.08c-1.38,0.34-2.67,1.02-4,1.55
			C124.15,285.2,131.6,281.72,132.76,276.3z M269.59,128.95c4-1.18,6.65-3.62,6.7-5.9c0.04-1.87-1.94-3.73-5.13-4.74
			C272.11,121.97,272.57,125.54,269.59,128.95z M162.58,128.86c-2.51-3.44-2.56-6.89-1.26-10.71c-2.5,1.22-5.05,1.98-5.21,5
			C155.99,125.41,158.67,127.76,162.58,128.86z M271.38,313.43c2.87-0.88,5.01-2.81,4.94-4.47c-0.08-2.1-2.89-4.63-5.99-5.39
			C272.01,307.36,272.11,308.34,271.38,313.43z M161.08,313.49c-1.01-3.63-0.85-7.03,1.42-10.7c-3.03,1.71-6.16,2.66-6.28,6.08
			C156.12,311.77,158.96,312.38,161.08,313.49z M292.56,139.02c-0.88-0.32-1.88-1.09-2.59-0.88c-2.31,0.7-4.52,1.76-6.72,2.66
			C286.54,144,290.53,143.45,292.56,139.02z M149.02,140.68c-2-0.77-3.89-1.33-5.61-2.21c-1.69-0.87-2.73-0.48-3.55,1.04
			C142.16,143.58,145.06,143.96,149.02,140.68z M148.88,291.39c-4.23-3.08-7.18-2.7-9.09,1.51c1.04,0.38,2.2,1.24,3.06,1.01
			C144.89,293.36,146.8,292.29,148.88,291.39z M283.45,291.39c1.62,0.63,3.34,1.04,4.78,1.92c1.88,1.15,3.06,0.56,4.18-0.95
			C290.51,287.78,286.9,289.21,283.45,291.39z"/>
		<path d="M177.48,104.14c-1.53-2.09-3.06-4.17-4.98-6.78c0.99,0.31,1.67,0.32,2,0.66c1,1.07,2.01,2.18,2.75,3.44
			c1.72,2.93,3.28,5.96,4.81,8.78c-1.18,0.48-2.44,0.97-3.68,1.51c-3.98,1.74-8.11,0.7-10.29-2.53c-0.9-1.33-0.77-2.42,0.33-3.55
			c2.09-2.15,4.91-2.55,8.55-1.14C177.14,104.39,177.31,104.26,177.48,104.14z M169.11,107.87c2.08,3.43,6.11,4.26,9.43,1.84
			C175.24,109.07,172.32,108.5,169.11,107.87z M179.09,108.21c-2.44-3.54-6.92-4.2-9.33-1.61
			C172.79,107.12,175.79,107.64,179.09,108.21z"/>
		<path d="M249.9,110.22c3.43-3.92,4.13-9.84,8.75-12.96c0.22,0.14,0.44,0.29,0.67,0.43c-1.5,2.19-3,4.37-4.86,7.09
			c1.04-0.33,1.44-0.48,1.85-0.59c0.87-0.23,1.75-0.59,2.63-0.61c2.83-0.04,6.04,2.2,5.94,4.04c-0.12,2.36-4.29,5.33-7.26,4.95
			c-1.5-0.19-2.93-0.87-4.39-1.33C252.2,110.93,251.16,110.62,249.9,110.22z M253.55,109.69c3.96,2.5,7.57,1.78,9.5-1.77
			C259.88,108.51,256.9,109.07,253.55,109.69z M262.7,106.73c-2.36-2.78-7.3-2.05-9.2,1.35
			C256.58,107.63,259.61,107.18,262.7,106.73z"/>
		<path d="M182.22,321.88c-3.28,3.91-4.04,9.77-8.61,13.09c-0.19-0.11-0.39-0.22-0.58-0.33c1.47-2.28,2.94-4.55,4.36-6.74
			c-2.05,0.15-4.06,0.75-5.79,0.29c-1.57-0.42-3.43-1.75-4-3.16c-0.34-0.83,1.32-2.88,2.5-3.86c2.76-2.29,5.87-1.77,8.93-0.4
			C180.03,321.22,181.12,321.51,182.22,321.88z M179.36,323.59c-3.48,0.74-6.61,1.41-9.93,2.12
			C172.67,328.05,176.42,327.26,179.36,323.59z M178.78,322.32c-4.03-2.25-7.16-1.6-9.73,1.9
			C172.33,323.57,175.3,322.99,178.78,322.32z"/>
		<path d="M250.04,322.01c1.26-0.51,2.31-0.81,3.25-1.33c3.86-2.1,8.11-1.31,10.77,2.08c1.34,1.71,1.25,2.72-0.47,4.09
			c-1.94,1.55-4.13,2.01-6.53,1.29c-0.65-0.2-1.29-0.46-2.25-0.37c1.5,2.25,2.99,4.49,4.49,6.74c-0.22,0.13-0.43,0.27-0.65,0.4
			C254.42,331.51,253.3,325.94,250.04,322.01z M253.91,322.45c3,0.63,6,1.27,9.41,1.99C260.87,320.63,257.58,319.87,253.91,322.45z
			 M253.23,323.89c2.71,3.59,6.98,4.28,9.34,1.66C259.52,325.01,256.46,324.46,253.23,323.89z"/>
		<path d="M326.11,171.44c2.2-2.16,4.69-3.52,8.29-2.99c-2.62,5.78-7.65,9.08-11.48,13.41c1.54-5.09,6.7-7.4,9.06-11.86
			c-1.97-0.09-3.47,0.68-5.49,3.02c-1.41,1.64-2.71,3.37-4.08,5.09c-2.4-3.86-2.71-8.7-0.7-11.98c0.4-0.65,1.12-1.35,1.8-1.48
			c0.37-0.07,1.2,0.92,1.41,1.57C325.43,167.87,325.7,169.59,326.11,171.44z M323.4,166.42c-2.11,2.76-2.23,6.74-0.27,9.26
			C324.78,171.68,324.87,168.55,323.4,166.42z"/>
		<path d="M109.74,181.82c-3.96-4.24-9.05-7.51-11.64-13.17c3.19-0.56,5.46,0.3,8.24,2.88c0.26-1.47,0.35-3,0.84-4.39
			c0.34-0.96,1.23-1.73,1.88-2.58c0.69,0.82,1.82,1.56,1.99,2.48c0.41,2.22,0.58,4.53,0.46,6.78c-0.08,1.49-0.85,2.93-1.41,4.7
			c-2.92-3.48-4.63-7.98-9.94-8.83C102.78,174.43,107.91,176.83,109.74,181.82z M109.53,175.79c1.41-3.04,1.47-7.78-0.77-9.35
			C107.46,169.7,107.86,172.7,109.53,175.79z"/>
		<path d="M98.3,263.27c2.28-5.33,7.32-8.34,10.67-12.76c0.24,0.19,0.47,0.38,0.71,0.57c-1.51,1.84-2.99,3.72-4.55,5.51
			c-1.58,1.81-3.26,3.55-4.66,5.54c4.51-1,6.73-4.7,9.47-7.78c2.57,3.44,2.63,9,0.18,12.44c-0.98,1.38-1.81,1.42-2.39-0.13
			c-0.7-1.87-1.02-3.88-1.52-5.85c-0.95,0.62-2.06,1.56-3.34,2.12c-1.29,0.56-2.75,0.74-4.13,1.08
			C98.59,263.77,98.44,263.52,98.3,263.27z M108.59,265.77c2.22-1.98,2.63-6.71,0.84-9.33
			C107.54,259.43,107.77,262.52,108.59,265.77z"/>
		<path d="M323.12,250.23c3.28,4.66,8.74,7.53,11,13.45c-3.44,0.49-5.72-1.16-8.2-2.9c-0.17,1.4-0.17,2.71-0.54,3.91
			c-0.33,1.06-1.07,1.98-1.63,2.96c-0.82-0.86-1.94-1.58-2.41-2.6c-1.71-3.73-0.99-7.39,0.92-11.3c2.65,3.51,4.62,7.63,9.74,8.21
			c-3.24-3.69-6.48-7.38-9.73-11.06C322.56,250.68,322.84,250.46,323.12,250.23z M323.56,265.87c1.38-2.88,0.99-7.42-0.81-9.3
			C321.09,259.78,321.4,263.37,323.56,265.87z"/>
		<path d="M332.85,185.77c-1.75-0.53-3.96-1.13-6.12-1.87c-1.34-0.46-1.67-1.39-0.77-2.61c1.89-2.58,4.07-4.75,7.59-4.47
			c3.4,0.27,5.01,2.71,6.34,5.48c0.63,1.32,0.45,2.15-1.08,2.43C337.01,185.05,335.22,185.36,332.85,185.77z M328.16,182.93
			c3.44,1.56,7.21,1.55,10.28,0.05C335.06,180.73,331.74,181.67,328.16,182.93z M328.04,180.89c3.04-0.24,6.01-0.47,8.84-0.69
			C334.25,177.2,331.04,177.36,328.04,180.89z"/>
		<path d="M183.51,324.35c4.99,4.74,3.98,12.57-1.95,15.54c-1.27,0.64-2.1,0.39-2.4-0.88c-0.33-1.41-0.59-2.91-0.48-4.34
			C178.89,331.87,181.45,326.7,183.51,324.35z M182.73,328.79c-0.2-0.03-0.4-0.06-0.59-0.09c-1.64,3.02-3.16,6.06-1.75,9.54
			c0.27,0.04,0.53,0.09,0.8,0.13C181.7,335.17,182.22,331.98,182.73,328.79z M182.88,337.16c2.85-2.51,3.33-6.16,1.37-8.8
			C183.8,331.2,183.36,334.07,182.88,337.16z"/>
		<path d="M332.31,246.34c2.53,0.49,4.58,0.89,6.64,1.29c1.18,0.23,1.52,0.85,0.97,1.95c-1.33,2.69-2.7,5.38-6.18,5.63
			c-3.54,0.26-5.92-1.71-7.87-4.39c-0.81-1.11-0.61-1.98,0.68-2.46C328.55,247.62,330.58,246.94,332.31,246.34z M327.79,249.21
			c3.81,1.1,7.2,1.91,11.16,0.04C335,247.92,331.61,247.43,327.79,249.21z M328.11,251.19c3.1,3.46,6.62,3.62,8.75,0.63
			C334.06,251.62,331.16,251.41,328.11,251.19z"/>
		<path d="M99.95,185.71c-2.59-0.41-4.46-0.69-6.33-1c-1.26-0.21-1.58-0.9-1.17-2.12c1.05-3.13,3.94-5.59,6.88-5.76
			c2.59-0.15,6.14,2.22,7.41,4.84c0.53,1.09,0.22,1.81-0.82,2.16C103.77,184.58,101.57,185.21,99.95,185.71z M104.23,182.95
			c-3.36-1.02-6.73-2.07-10.65,0.16C97.53,184.3,100.88,184.44,104.23,182.95z M104.75,181.08c-3-3.7-6.77-3.97-9.18-0.88
			C98.49,180.48,101.59,180.78,104.75,181.08z"/>
		<path d="M249.29,324.02c1.39,3.25,3.03,6.43,4.07,9.79c0.49,1.58-0.01,3.55-0.37,5.28c-0.24,1.14-1.18,1.32-2.32,0.72
			c-3.55-1.89-5.6-5.71-4.71-9.64c0.48-2.11,1.51-4.09,2.29-6.14C248.6,324.02,248.95,324.02,249.29,324.02z M249.42,328.98
			c0.61,3.11,1.22,6.22,1.83,9.33C252.88,335.49,252.22,332.26,249.42,328.98z M248,328.18c-1.78,3.26-1.13,7.13,1.42,8.68
			C248.95,333.97,248.48,331.11,248,328.18z"/>
		<path d="M183.13,108.21c-1.5-3.47-3.09-6.74-4.32-10.15c-0.72-2.01-0.85-4.69,1.15-5.76c2.03-1.08,3.48,1.25,4.71,2.64
			C187.71,98.35,187.06,104.28,183.13,108.21z M182.29,102.55c0.08-3.05,0.14-6.11-1.73-9.34
			C178.98,97.11,180.64,99.82,182.29,102.55z M184.2,103.66c1.84-3.04,1.32-6.59-1.15-8.46C183.43,97.96,183.82,100.84,184.2,103.66
			z"/>
		<path d="M99.87,246.35c1.72,0.62,4,1.39,6.24,2.25c1.16,0.44,1.14,1.28,0.5,2.18c-1.96,2.74-4.34,4.84-8,4.48
			c-3.52-0.34-4.97-3-6.21-5.85c-0.46-1.05-0.11-1.58,0.96-1.79C95.28,247.26,97.19,246.88,99.87,246.35z M93.89,249.15
			c3.45,1.92,6.89,1.36,10.78,0.12C100.78,247.44,97.34,247.89,93.89,249.15z M104.63,251.05c-3.14,0.29-6.26,0.57-9.29,0.85
			C97.9,255.04,101.53,254.74,104.63,251.05z"/>
		<path d="M248.46,107.69c-1.82-3-3.44-6.04-2.48-9.8c0.7-2.75,2.58-4.48,5.01-5.6c0.48-0.22,1.82,0.28,1.98,0.72
			c0.46,1.27,1.01,2.85,0.63,4.02c-1.19,3.69-2.78,7.25-4.22,10.86C249.08,107.82,248.77,107.76,248.46,107.69z M249.78,103
			c2.67-3.94,3.23-7.05,1.69-9.42C249.85,96.5,249.74,99.5,249.78,103z M248.07,103.75c0.38-2.92,0.76-5.84,1.14-8.69
			C246.67,97.48,246.21,100.85,248.07,103.75z"/>
		<path d="M215.96,307.14c-50.15,0.14-91.19-40.98-91.32-91.51c-0.13-49.27,41.25-90.57,90.86-90.68
			c50.58-0.11,92.1,40.61,92.17,90.39C307.74,266.09,266.87,306.99,215.96,307.14z M216.19,126.29
			c-49.29,0.21-89.91,40.46-90.18,88.69c-0.27,47.45,37.55,90.53,89.58,90.65c50.85,0.11,90.9-40.27,90.68-90.82
			C306.06,166.43,264.99,126.08,216.19,126.29z"/>
		<path d="M205.51,92.82c-4.63-1.04-9.14-1.68-12.72,2.75c0.17-1.8,0.98-2.8,3.01-3.59C199.15,90.68,202.41,90.88,205.51,92.82z"/>
		<path d="M226.36,92.85c4.64-3.2,12.4-1.61,13.28,2.46C234.73,91.65,234.73,91.65,226.36,92.85z"/>
		<path d="M206.24,338.69c-4.58,3.89-12.24,2.5-13.87-2.34C196.22,340.87,200.93,340.56,206.24,338.69z"/>
		<path d="M226.16,338.81c5.05,2.01,9.7,1.97,13.64-2.52c-0.25,1.99-1.83,3.49-4.52,4.26C231.97,341.5,228.91,341.02,226.16,338.81z
			"/>
		<path d="M96.83,239.78c-2.45,0.56-4.19-0.4-5.56-2.74c-1.81-3.08-1.61-7.63,0.77-10.31C90.33,232.4,89.87,237.34,96.83,239.78z"/>
		<path d="M340.42,227.17c2.31,2.77,2.47,6.81,0.55,9.98c-1.29,2.13-2.93,3.04-5.25,2.66C342.05,237.2,342.32,232.59,340.42,227.17z
			"/>
		<path d="M340.27,205.1c2.17-7.25,0.95-10.56-4.37-12.68c1.66-0.71,3.22-0.09,4.61,1.84C342.85,197.51,342.87,202.01,340.27,205.1z
			"/>
		<path d="M92.02,205.05c-2.44-2.7-2.62-7.04-0.69-10.24c1.33-2.2,2.85-3,4.82-2.55C90.87,195.19,90,197.72,92.02,205.05z"/>
		<path d="M349.6,222c-1.18,1.05-3.29,0.45-5.51-1.75C346.15,220.9,347.8,221.43,349.6,222z"/>
		<path d="M349.73,210.11c-1.65,0.47-3.29,0.95-4.94,1.42c-0.07-0.22-0.13-0.45-0.2-0.67c1.64-0.52,3.29-1.04,4.93-1.56
			C349.6,209.58,349.66,209.85,349.73,210.11z"/>
		<path d="M88.15,220.25c-1.75,2.08-3.89,2.67-5.33,1.67C84.49,221.39,86.11,220.89,88.15,220.25z"/>
		<path d="M83.09,209.49c1.68,0.49,3.35,0.97,5.03,1.46c-0.06,0.24-0.13,0.47-0.19,0.71c-1.66-0.47-3.32-0.94-4.97-1.41
			C83,209.99,83.04,209.74,83.09,209.49z"/>
		<path d="M216.21,302.48c-48.35-0.13-86.33-38.92-86.88-85.74c-0.56-47.37,38.16-86.63,85.53-87.22
			c47.99-0.6,87.13,37.76,88.16,84.42C304.06,261.36,266.28,302.03,216.21,302.48z M216.16,130.93
			c-46.68-0.06-85.4,38.2-85.43,84.42c-0.03,47.23,38.1,85.66,85,85.69c47.56,0.02,85.84-37.96,85.91-85.24
			C301.72,169.33,263.09,130.98,216.16,130.93z"/>
		<path d="M251.84,250.94c-1.97,0.53-3.82,0.59-5.09-1.33c-4.59,3.21-6.07,3.34-8.55,0.8c-3.81,3.19-5.72,3.52-8.11,1.6
			c-1.44,0.61-2.72,1.4-4.1,1.68c-2.65,0.52-4.1-1-3.47-3.66c0.43-1.83,1.25-3.57,1.85-5.37c0.3-0.9,0.5-1.83,0.8-2.94
			c-2.34-0.04-3.33,1.43-4.02,2.87c-1.18,2.45-2.06,5.05-3.05,7.6c-0.18,0.46-0.12,1.2-0.42,1.37c-0.78,0.44-1.69,0.64-2.55,0.93
			c-0.17-0.66-0.62-1.41-0.45-1.96c0.82-2.61,1.84-5.16,2.74-7.74c0.24-0.7,0.34-1.45,0.55-2.42c-2.5,0.16-3.6,1.73-4.34,3.4
			c-1.05,2.36-1.91,4.83-2.62,7.32c-0.54,1.89-1.48,2.54-3.37,2.01c-0.44-0.12-1.02,0.01-1.46,0.21c-1.74,0.8-3.36,0.91-4.79-0.6
			c-0.15,0.04-0.31,0.03-0.4,0.1c-1.78,1.46-3.72,2.55-5.92,1.05c-2.13-1.45-1.72-3.69-1.25-5.77c0.72-3.17,2.17-5.93,4.96-7.81
			c2.04-1.37,3.69-1.34,5.63,0.16c0.28-0.26,0.52-0.68,0.86-0.76c0.56-0.14,1.24-0.23,1.73-0.02c0.21,0.09,0.24,1.03,0.08,1.5
			c-0.79,2.4-1.76,4.75-2.45,7.17c-0.27,0.95,0.02,2.07,0.06,3.11c1-0.6,2.51-0.96,2.92-1.84c1.38-2.97,2.36-6.13,3.51-9.21
			c0.74-1.99,1.71-2.23,3.41-0.86c3.66-2.14,4.59-2.14,6.35,0.08c0.82-0.61,1.57-1.52,2.5-1.75c1.18-0.3,2.82-0.52,3.67,0.07
			c0.71,0.49,0.92,2.27,0.71,3.36c-0.36,1.91-1.3,3.7-1.82,5.59c-0.2,0.72,0.07,1.57,0.13,2.36c0.81-0.28,1.84-0.34,2.38-0.89
			c0.85-0.87,1.54-2,2.01-3.14c0.83-2.01,1.45-4.1,2.17-6.16c0.18-0.53,0.26-1.25,0.64-1.53c0.65-0.47,1.5-0.65,2.27-0.95
			c0.12,0.66,0.49,1.41,0.32,1.98c-0.71,2.35-1.68,4.62-2.36,6.98c-0.26,0.91-0.03,1.96-0.02,2.95c1-0.37,2.22-0.5,2.94-1.17
			c0.8-0.75,1.31-1.93,1.66-3.02c1.61-5.07,2.99-10.22,4.77-15.23c0.52-1.46,1.9-2.81,3.22-3.74c2.05-1.44,4.11-0.28,3.91,2.21
			c-0.15,1.91-0.64,3.95-1.57,5.6c-1.68,2.98-3.9,5.65-5.7,8.57c-0.8,1.3-1.38,2.86-1.6,4.36c-0.23,1.64,1.02,2.28,2.28,1.38
			c1.35-0.97,2.66-2.26,3.42-3.71c1.13-2.16,1.73-4.59,2.62-6.88c0.27-0.71,0.64-1.46,1.18-1.95c0.37-0.33,1.21-0.44,1.67-0.25
			c0.28,0.11,0.45,1.08,0.29,1.53c-0.81,2.32-1.85,4.56-2.6,6.89c-0.4,1.25-1.21,3.07,0.6,3.68c1.68,0.57,2.64-1.01,3.17-2.43
			c1.03-2.76,1.94-5.56,2.89-8.35c0.16-0.46,0.14-1.15,0.46-1.37c0.71-0.5,1.58-0.77,2.38-1.14c0.13,0.66,0.52,1.39,0.34,1.95
			c-1.29,4.06-2.69,8.09-4.21,12.57c3.12-1.57,4.97-3.8,6.31-6.56c0.24,0.07,0.48,0.15,0.72,0.22c-0.08,0.74,0.04,1.58-0.26,2.21
			c-1.34,2.82-3.58,4.77-6.26,6.34c-1.04,0.61-1.84,1.73-2.6,2.73c-1.22,1.61-2.19,3.43-3.5,4.94c-0.68,0.79-1.84,1.34-2.88,1.6
			c-1.89,0.48-3.48-0.2-4.45-1.96c-0.84-1.52-0.42-3.65,1.3-4.62c1.86-1.04,4.01-1.56,6.02-2.33c0.74-0.28,1.46-0.64,2.19-0.96
			C252.04,251.41,251.94,251.17,251.84,250.94z M196.66,251.89c0.23,0.47,0.52,1.78,1.03,1.87c0.76,0.13,2.09-0.37,2.43-1
			c1.14-2.15,2.02-4.45,2.83-6.75c0.23-0.64-0.13-1.48-0.21-2.23c-0.77,0.11-1.72-0.03-2.27,0.38
			C198.05,245.96,197.23,248.64,196.66,251.89z M247.5,229.35c-3.08,3.01-4,6.97-4.64,11.03
			C245.21,237.07,247.57,233.76,247.5,229.35z M250.82,254.93c-0.19-0.2-0.38-0.39-0.57-0.59c-1.47,0.57-3.06,0.97-4.37,1.79
			c-0.57,0.36-0.58,1.61-0.84,2.46c0.88,0.04,2.08,0.46,2.58,0.04C248.86,257.6,249.78,256.19,250.82,254.93z"/>
		<path d="M216.72,159.3c-2.8-1.12-2.88-1.16-3.98,1.56c-1.34,3.32-2.4,6.75-3.79,10.05c-0.97,2.31-2.06,4.64-3.5,6.67
			c-1.81,2.55-4.53,3.7-7.71,3.54c-3.51-0.18-5.93-3.02-5.59-6.56c0.34-3.48,3.59-6.05,6.98-5.41c0.52,0.1,0.92,0.79,1.38,1.21
			c-0.49,0.34-0.97,0.73-1.49,1.01c-0.22,0.12-0.55,0-0.83,0.03c-2.18,0.24-3.57,2.08-3.29,4.34c0.25,1.98,1.81,3.31,3.92,2.75
			c1.53-0.4,3.23-1.28,4.18-2.48c1.45-1.84,2.41-4.09,3.39-6.25c0.86-1.92,1.39-3.98,2.18-5.93c0.79-1.95,1.71-3.84,2.64-5.89
			c-3.54-1.03-7.08-1.7-10.7-0.51c-1.66,0.55-3.21,1.46-3.38,3.36c-0.09,0.97,0.24,2.36,0.92,2.92c0.57,0.48,1.99,0.26,2.88-0.07
			c0.87-0.32,1.54-1.16,2.35-1.82c1.6,1.06,0.98,2.14,0.08,3.12c-1.85,2.02-5.32,2.32-7.3,0.69c-2.08-1.7-2.44-5.12-0.7-7.46
			c1.8-2.43,4.4-3.47,7.3-3.66c1.74-0.12,3.5,0.1,5.25,0.22c2.79,0.19,5.54,2.33,8.51-0.4c0,1.03,0,1.53,0,2.03
			c1.3,0.87,2.05,0.37,3.14-0.69c1.18-1.15,2.87-1.9,4.47-2.41c0.67-0.21,2.09,0.45,2.43,1.1c0.4,0.77,0.3,2.12-0.13,2.92
			c-0.94,1.76-2.71,2.46-4.65,2.27c-1.44-0.14-2.21,0.3-2.63,1.69c-0.44,1.45-1.05,2.85-1.58,4.28c0.27,0.08,0.34,0.13,0.37,0.11
			c1.48-0.8,3.08-1.99,4.66-0.7c1.68,1.38,0.71,3.25,0.16,4.89c-0.54,1.6-1.23,3.14-1.75,4.74c-0.15,0.47,0.05,1.06,0.09,1.6
			c0.58-0.07,1.25,0.03,1.73-0.23c1.35-0.74,2.13-1.8,2.28-3.5c0.32-3.72,2.02-6.71,5.47-8.43c1.37-0.68,3.16-1.18,4.04,0.23
			c0.64,1.02,0.57,2.84,0.15,4.08c-0.72,2.16-2.58,3.43-4.72,4.22c-0.64,0.24-1.29,0.45-1.97,0.69c0.44,2.08,1.69,2.88,3.39,1.99
			c1.55-0.82,2.88-2.1,4.23-3.26c0.54-0.46,0.87-1.16,1.37-1.87c0.87,1.76-0.12,3.92-2.38,5.79c-2.84,2.36-6.1,2.45-9.06,0.23
			c-1.15,0.74-2.22,1.76-3.49,2.15c-1.08,0.33-2.69,0.35-3.5-0.26c-0.67-0.5-0.84-2.19-0.62-3.21c0.35-1.62,1.27-3.11,1.84-4.69
			c0.36-0.99,0.53-2.05,0.78-3.08c-0.22-0.14-0.45-0.28-0.67-0.43c-0.8,0.68-1.92,1.2-2.34,2.07c-1.33,2.76-2.56,5.61-3.53,8.51
			c-0.59,1.75-1.49,2.41-3.8,2.01C212.37,172.48,214.54,165.89,216.72,159.3z M232.73,165.7c-2.75,0.54-4.44,2.82-4.25,5.56
			C231.59,170.36,233.09,168.47,232.73,165.7z M221.18,158.09c1.5-0.87,2.53-1.47,3.56-2.06c-0.2-0.32-0.39-0.91-0.59-0.91
			C222.69,155.1,221.69,155.8,221.18,158.09z"/>
		<path d="M284.25,205.79c0-5.48,0-10.96,0-16.29c0.47-0.19,0.59-0.28,0.73-0.29c4.01-0.39,4.01-0.39,4,3.58
			c-0.02,8.43-0.01,16.86-0.09,25.29c-0.01,0.71-0.67,2.03-1,2.02c-1.43-0.04-3.33,1.08-4.1-1.26c-1.46-4.4-2.96-8.78-4.45-13.16
			c-0.24-0.71-0.54-1.41-1.19-2.07c0,1.63,0,3.25,0,4.88c0,2.95,0,5.9-0.02,8.85c-0.01,2.77-1.23,3.69-3.92,2.83
			c-0.4-0.13-0.86-0.89-0.87-1.36c-0.09-9.34-0.11-18.69-0.17-28.03c-0.01-1.28,0.53-1.58,1.77-1.7c2.32-0.22,3.48,0.51,4.17,2.88
			c1.36,4.68,3.13,9.24,4.73,13.85C283.97,205.8,284.11,205.8,284.25,205.79z"/>
		<path d="M209.41,207c1.42,3.97,2.97,8.3,4.51,12.62c-3.57,1.48-5.11,0.83-6.18-2.38c-0.95-2.86-1.89-5.73-2.94-8.55
			c-0.24-0.64-0.94-1.1-1.42-1.65c-0.25,0.12-0.5,0.24-0.74,0.36c0,3.42-0.1,6.83,0.04,10.24c0.08,1.94-0.4,2.73-2.53,2.7
			c-1.99-0.03-2.64-0.54-2.61-2.61c0.14-8.77,0.14-17.55,0.08-26.32c-0.01-1.83,0.46-2.51,2.36-2.34c2.65,0.24,5.33,0.11,7.98,0.37
			c2.3,0.22,3.93,1.66,4.59,3.83c1,3.29,1.11,6.69-0.21,9.91C211.81,204.46,210.62,205.47,209.41,207z M202.81,192.93
			c0,3.85,0,6.83,0,9.91c1.87-0.04,4.22,0.64,4.77-1.38c0.57-2.08,0.46-4.63-0.24-6.67C207.02,193.84,204.6,193.61,202.81,192.93z"
			/>
		<path d="M253.6,204.47c0-2.95-0.13-5.9,0.03-8.84c0.23-4.25,3.2-6.83,7.75-6.94c4.53-0.11,7.78,2.33,7.97,6.6
			c0.27,6.09,0.32,12.22,0.04,18.31c-0.22,4.76-3.54,7.27-8.44,7.06c-4.5-0.19-7.16-2.87-7.34-7.54c-0.11-2.87-0.02-5.76-0.02-8.64
			C253.59,204.47,253.6,204.47,253.6,204.47z M264.52,204.83c0-2.81,0.05-5.62-0.02-8.43c-0.05-1.8-0.75-3.14-2.87-3.15
			c-1.97-0.01-3.15,0.94-3.18,3.11c-0.08,5.55-0.05,11.1,0.09,16.64c0.06,2.29,1.21,3.29,3.05,3.24c1.83-0.05,2.84-1.14,2.91-3.41
			C264.59,210.17,264.53,207.5,264.52,204.83z"/>
		<path d="M222.41,201.59c1.33-2.98,2.68-5.95,3.99-8.94c1.77-4.03,1.93-4.11,6.65-3.25c-0.13,0.45-0.19,0.91-0.38,1.32
			c-1.69,3.62-3.48,7.21-5.05,10.88c-0.38,0.89-0.36,2.19-0.02,3.11c1.71,4.53,3.59,8.99,5.4,13.48c0.2,0.51,0.33,1.05,0.63,2.05
			c-1.72,0-3.23,0.15-4.68-0.08c-0.52-0.08-1.07-1-1.31-1.65c-1.26-3.33-2.42-6.7-3.61-10.05c-0.25-0.04-0.5-0.08-0.75-0.12
			c-0.44,1.36-1.11,2.7-1.26,4.09c-0.22,2.01-0.14,4.07-0.04,6.1c0.1,1.91-1.14,1.81-2.35,1.72c-1.11-0.08-2.68,0.64-2.68-1.56
			c0.02-9.34,0-18.68-0.05-28.02c-0.01-1.26,0.58-1.5,1.67-1.54c3.37-0.12,3.39-0.13,3.39,3.22c-0.01,3.05,0,6.11,0,9.16
			C222.11,201.52,222.26,201.56,222.41,201.59z"/>
		<path d="M189.99,243.02c1.49,0,2.41-0.11,3.29,0.04c0.49,0.08,0.9,0.6,1.34,0.93c-0.37,0.5-0.73,1.01-1.12,1.49
			c-0.07,0.08-0.27,0.09-0.4,0.07c-3.27-0.49-4.33,1.49-5.4,4.16c-1.05,2.61-2.72,5.07-4.53,7.25c-1.8,2.17-4.47,2.81-7.3,2.36
			c-3.55-0.57-5.79-3.1-5.87-6.62c-0.09-3.73,2.13-6.77,5.57-7.39c0.77-0.14,1.9,0.04,2.42,0.53c0.75,0.7,1.05,1.81-0.65,2.01
			c-0.49,0.06-0.97,0.16-1.44,0.31c-2.16,0.67-3.42,2.72-3.02,4.9c0.4,2.21,2.35,3.87,4.6,3.28c1.71-0.45,3.6-1.45,4.68-2.79
			c1.59-1.97,2.53-4.46,3.95-7.09c-1.78,0-3.06,0-4.28,0c-0.62-1.85,0.54-2.26,1.69-2.29c2.56-0.08,3.67-1.42,4.46-3.77
			c0.88-2.63,2.36-5.06,3.67-7.75c-3.83-1.28-7.81-2.07-11.93-0.92c-1.97,0.55-3.56,1.71-4.15,3.82c-0.48,1.7-0.24,3.25,1.36,4.27
			c1.41,0.91,3.47,0.4,4.77-0.96c0.45-0.47,1.13-0.71,1.7-1.06c0.01,0.84,0.29,1.79-0.01,2.49c-0.86,1.98-3.27,2.83-6.01,2.35
			c-2.69-0.47-4.38-2.14-4.72-4.68c-0.54-3.96,2.01-7.67,6.25-8.78c4.27-1.12,8.52-0.66,12.64,0.81c1.29,0.46,2.25,0.45,3.5-0.31
			c2.52-1.51,5.36-2.39,8.25-1.27c1.05,0.41,2.46,1.8,2.4,2.65c-0.08,1.08-1.36,2.76-2.35,2.93c-2.13,0.38-4.46,0.22-6.6-0.22
			c-1.62-0.33-2.47-0.11-3.11,1.37C192.49,237.68,191.29,240.19,189.99,243.02z M196.94,231.67c2.23,0.32,4.31,1.07,6.4-0.49
			C201.29,229.45,199.28,229.63,196.94,231.67z"/>
		<path d="M194.54,220.22c-1.42,0-2.68,0.14-3.88-0.07c-0.45-0.08-0.96-0.89-1.11-1.46c-0.41-1.47-0.63-2.99-0.94-4.56
			c-1.82,0-3.49,0-5.31,0c-0.27,1.3-0.73,2.58-0.77,3.87c-0.06,2.05-1.12,2.49-2.86,2.28c-0.68-0.08-1.36-0.07-2.35-0.12
			c0.75-4.47,1.44-8.74,2.17-13.01c0.93-5.4,1.95-10.78,2.81-16.18c0.22-1.4,0.71-1.89,2.14-1.84c5.65,0.2,4.45-1,5.52,4.65
			c1.54,8.14,2.92,16.31,4.35,24.46C194.4,218.78,194.44,219.32,194.54,220.22z M186.08,198.11c-0.12,0-0.24,0.01-0.36,0.01
			c-0.57,3.69-1.13,7.37-1.71,11.12c1.46,0,2.62,0,3.9,0C187.29,205.43,186.68,201.77,186.08,198.11z"/>
		<path d="M239.99,210.2c0.08,1.37,0.09,2.48,0.22,3.59c0.18,1.63,1.16,2.57,2.78,2.6c1.66,0.03,2.59-0.93,2.78-2.57
			c0.25-2.1-0.36-3.93-1.94-5.32c-1.52-1.35-3.17-2.55-4.74-3.86c-3.21-2.68-4.28-6.14-3.65-10.2c0.56-3.6,3.3-5.73,7.4-5.78
			c4-0.05,6.86,1.95,7.25,5.58c0.49,4.62,0.91,4.87-4.45,4.18c-0.12-1.08-0.18-2.2-0.39-3.29c-0.26-1.38-1.29-2.25-2.56-1.88
			c-0.95,0.28-2.13,1.22-2.39,2.1c-0.6,2,0.09,3.9,1.76,5.29c1.73,1.44,3.52,2.8,5.23,4.25c2.13,1.82,3.31,4.15,3.49,6.96
			c0.45,7.08-5.61,11.12-12.03,8.01c-2.69-1.3-4.54-6.29-3.26-8.98c0.16-0.33,0.73-0.62,1.13-0.66
			C237.66,210.14,238.71,210.2,239.99,210.2z"/>
		<path d="M158.84,201.12c-1.71,0-3.09,0-4.8,0c0-1.65,0.07-3.17-0.02-4.69c-0.12-2.18-1.07-3.2-2.84-3.22
			c-1.77-0.02-2.82,0.96-2.86,3.18c-0.09,5.48-0.09,10.96,0.02,16.44c0.04,2.31,1.33,3.51,3.2,3.34c2.11-0.19,2.55-1.67,2.56-3.45
			c0.01-1.19,0-2.37,0-3.76c1.61,0,3.11,0,5.16,0c-0.32,2.53-0.32,5.08-1.03,7.42c-0.93,3.08-4.35,4.62-8.14,4.2
			c-3.63-0.4-6.25-2.35-6.41-5.86c-0.31-6.72-0.34-13.49,0.03-20.21c0.22-3.92,3.59-6.03,7.93-5.85c4.21,0.17,6.84,2.49,7.16,6.5
			C158.97,197.12,158.84,199.08,158.84,201.12z"/>
		<path d="M167.64,215.69c2.79,0,5.16,0,7.48,0c0.14,0.36,0.26,0.54,0.28,0.74c0.43,3.75,0.42,3.75-3.28,3.75c-3,0-6,0-9.18,0
			c0-10.34,0-20.5,0-30.84c1.44,0,2.92,0,4.7,0C167.64,198.06,167.64,206.72,167.64,215.69z"/>
		<path d="M225.59,272c1.73,0.04,2.49,1.37,2.05,3.32c-0.19,0.84,0.01,1.77-0.06,2.65c-0.08,1.05,0.07,2.41-0.52,3.05
			c-0.48,0.52-2.33,0.6-2.79,0.12c-0.68-0.71-1.07-2.18-0.83-3.14c0.26-1.05,0.33-1.81-0.05-2.85
			C222.73,273.36,223.82,271.97,225.59,272z M226.3,277.53c-0.29-0.08-0.58-0.16-0.86-0.24c-1.19,0.61-1,1.69-0.66,2.74
			c0.07,0.21,0.66,0.26,1.02,0.38C225.97,279.45,226.14,278.49,226.3,277.53z M224.9,275.97c0.38,0.01,0.76,0.02,1.14,0.03
			c0.04-0.84,0.07-1.68,0.11-2.52c-0.42,0-1.19-0.02-1.2,0.02C224.88,274.32,224.9,275.15,224.9,275.97z"/>
		<path d="M230.29,278.8c0.87,0.62,1.52,1.09,2.17,1.56c0.2-0.83,0.4-1.66,0.5-2.07c-1.17-0.54-2.6-0.79-2.73-1.35
			c-0.32-1.35-0.22-2.89,0.12-4.25c0.1-0.41,1.63-0.75,2.4-0.59c0.61,0.12,1.46,1.02,1.51,1.63c0.15,2.02,0.1,4.06-0.08,6.08
			c-0.14,1.61-1.34,2.05-2.77,1.74C229.98,281.23,229.79,280.24,230.29,278.8z M233.4,275.06c-0.57-0.81-0.98-1.4-1.39-1.99
			c-0.26,0.55-0.76,1.11-0.73,1.64c0.04,0.7,0.49,1.38,0.77,2.07C232.44,276.27,232.85,275.76,233.4,275.06z"/>
		<path d="M199,278.12c0.25,0.6,0.31,0.95,0.52,1.17c0.38,0.4,0.84,0.72,1.27,1.07c0.09-0.62,0.44-1.36,0.21-1.83
			c-0.35-0.72-1.24-1.16-1.64-1.87c-0.52-0.93-1.06-2.01-1.03-3.01c0.02-0.61,1-1.49,1.71-1.69c0.64-0.18,1.83,0.18,2.18,0.7
			c0.41,0.61,0.16,1.65,0.2,2.51c-0.23,0.03-0.45,0.06-0.68,0.09c-0.15-0.32-0.25-0.69-0.46-0.96c-0.33-0.41-0.75-0.75-1.13-1.12
			c-0.17,0.59-0.67,1.37-0.46,1.73c0.53,0.88,1.65,1.44,2.04,2.34c0.46,1.05,0.61,2.35,0.46,3.49c-0.05,0.35-1.55,0.76-2.35,0.7
			C198.24,281.31,197.85,280.03,199,278.12z"/>
		<path d="M192.62,271.83c1.24,0.26,2.25,0.47,3.27,0.68c-0.57,0.41-1.14,0.82-1.96,1.41c0,0.37,0,1.12,0,1.99
			c0.5,0.17,1.06,0.35,2.13,0.71c-1,0.44-1.54,0.69-2.15,0.95c0,0.75,0,1.51,0,2.42c0.6,0.15,1.23,0.31,1.86,0.47
			c0.04,0.23,0.08,0.46,0.11,0.69c-1.02,0.15-2.05,0.31-3.27,0.49C192.62,278.35,192.62,275.37,192.62,271.83z"/>
		<path d="M206.63,281.43c-1.82-2.66,1.08-6.48-2.09-9.12c1.61,0,3,0,4.39,0c-2.11,0.9-1.53,2.68-1.55,4.22
			c-0.02,1.59,0,3.18,0,4.78C207.13,281.34,206.88,281.39,206.63,281.43z"/>
		<path d="M220.72,271.82c0,3.42,0,6.44,0,9.47c-0.15,0.07-0.29,0.15-0.44,0.22c-0.27-0.39-0.73-0.76-0.76-1.16
			c-0.1-1.39,0.05-2.79-0.09-4.18c-0.07-0.7,0.78-2.17-1.11-1.87c0.06-0.48-0.05-1.16,0.22-1.41
			C219.01,272.46,219.73,272.28,220.72,271.82z"/>
		<path d="M238.61,276.23c0.25-0.4,0.49-0.81,0.74-1.21c0.42,0.31,1.16,0.58,1.21,0.94c0.2,1.44,0.48,2.98,0.12,4.33
			c-0.16,0.61-1.77,1.26-2.65,1.17c-1.51-0.15-1.61-1.46-1.2-3.32c0.54,0.77,0.75,1.28,1.14,1.57c0.37,0.27,1.15,0.57,1.35,0.39
			c0.76-0.66,0.2-3.19-0.76-3.93L238.61,276.23z"/>
		<path d="M236.02,237.39c-0.98-1.2-2.01-2-1.88-2.39c0.28-0.81,1.09-1.6,1.88-1.98c0.28-0.14,1.66,0.97,1.63,1.45
			C237.61,235.28,236.84,236.04,236.02,237.39z"/>
		<path d="M238.57,276.16c-0.42,0.36-0.83,0.73-1.25,1.09c-0.21-0.45-0.57-0.9-0.6-1.36c-0.09-1.17-0.03-2.34-0.03-3.7
			c1.13-0.07,2.08-0.21,3.02-0.15c0.41,0.03,0.8,0.45,1.2,0.7c-0.36,0.23-0.69,0.56-1.07,0.65c-0.45,0.11-0.95,0.03-1.85,0.03
			c0.23,1.05,0.43,1.92,0.63,2.8C238.61,276.23,238.57,276.16,238.57,276.16z"/>
	</g>
</g>
</svg>
