<?xml version="1.0" encoding="utf-8"?>
<!-- Generator: Adobe Illustrator 24.1.1, SVG Export Plug-In . SVG Version: 6.00 Build 0)  -->
<svg version="1.1" id="Layer_1" xmlns="http://www.w3.org/2000/svg" xmlns:xlink="http://www.w3.org/1999/xlink" x="0px" y="0px"
	 viewBox="76 86 279 259" style="enable-background:new 0 0 432 432;" xml:space="preserve">
<g>
	<g fill="FRAME_COLOR">
		<path d="M177.63,113.21c-0.53,0.35-1.01,0.84-1.59,1.04c-37.77,13.28-60.48,40.02-68.29,78.82c-6.24,30.98,0.78,59.67,20.44,84.51
			c15.58,19.68,35.79,32.86,60.53,38.53c1.3,0.3,2.62,0.49,3.95,0.66c3.29,0.43,3.29,0.42,5.72,3.68
			c-3.79-0.63-7.17-0.95-10.43-1.77c-26.24-6.59-47.78-20.51-63.93-42.23c-16.55-22.25-22.83-47.53-19.93-74.96
			c3.12-29.49,17.09-53.17,40.07-71.57C154.07,122,165.21,116.24,177.63,113.21L177.63,113.21z"/>
		<path d="M254.1,113.32c10.86,2.61,20.77,7.31,29.82,13.81c15.82,11.37,27.76,25.98,35.7,43.75c6.02,13.46,8.7,27.69,8.75,42.42
			c0.07,21.15-5.45,40.72-17.03,58.43c-10.99,16.81-25.94,29.23-43.77,38.28c-9.78,4.96-20.04,8.47-30.93,9.97
			c-0.56,0.08-1.12,0.14-1.68,0.18c-0.2,0.02-0.41-0.04-0.71-0.08c0.65-1.82,1.73-2.81,3.73-3.14c23.87-3.92,43.5-15.65,60.1-32.86
			c13.81-14.31,22.43-31.36,25.99-50.85c5.85-31.98-0.85-61.12-21.27-86.58c-12.25-15.27-27.6-26.53-46.61-32.29
			c-0.73-0.22-1.38-0.71-2.06-1.07L254.1,113.32z"/>
		<path d="M325.44,177.18c1.15-3.2,2.34-5.9,3.07-8.73c0.7-2.7,0.91-5.52,1.4-8.7c-2.04,5.41-3.93,10.42-5.91,15.67
			c-4.54-6.78-0.36-19.39,7.16-22.7C336.98,160.58,336.26,172.74,325.44,177.18z"/>
		<path d="M299.26,116.39c9.82,5.14,11.5,18.66,4.99,24.5c-1.08-6.05-2.15-12.01-3.21-17.98c-0.1,0.02-0.2,0.05-0.3,0.07
			c0.35,5.44,0.7,10.88,1.06,16.53C294.99,135.24,293.8,122.92,299.26,116.39z"/>
		<path d="M148.57,303.77c-4.98,1.09-9.8,2.13-14.72,3.21c2.53,0.79,5.16-0.84,7.21,0.1c3.24-0.41,6.27-0.79,9.43-1.19
			c-3.95,8.23-18.09,9.07-24.42,1.65C130.2,300.67,141.4,297.47,148.57,303.77z"/>
		<path d="M283,303.66c6.93-5.55,17.85-3.65,23.02,3.55c-6.03,7.64-19.75,7.05-24.79-1.54c3.12,0.51,5.87,1.13,8.66,1.37
			c2.72,0.23,5.47,0.05,8.22-0.11C293.22,305.87,288.34,304.81,283,303.66z"/>
		<path d="M281.75,110.27c1.27,5.08,2.54,10.16,3.85,15.37c-7.72-3.26-11.04-14.71-6.57-22.07c9.97,3.3,15.01,15.57,9.2,23.06
			c-2.06-5.51-4.1-10.99-6.15-16.47C281.97,110.19,281.86,110.23,281.75,110.27z"/>
		<path d="M129.98,139.51c0.36-5.23,0.72-10.46,1.09-15.69c-0.14-0.03-0.29-0.05-0.43-0.08c-1.01,5.72-2.02,11.44-3.02,17.14
			c-6.87-6.14-4.12-19.82,4.92-24.46C137.7,123.55,137.55,133.05,129.98,139.51z"/>
		<path d="M317.3,158.12c0-5.6,0-11.22,0-16.84c-0.1-0.01-0.2-0.01-0.3-0.02c-0.72,4.99-1.43,9.98-2.16,15.05
			c-6.02-4.83-4.87-16.53,2.36-22.78c3.73,3.99,5.81,8.64,5.85,14.1C323.07,151.95,320.4,156.54,317.3,158.12z"/>
		<path d="M107.95,175.52c-2.15-5.6-4.1-10.69-6.05-15.77c-0.04,0.01-0.08,0.02-0.12,0.02c0.42,1.88,1.09,3.74,1.2,5.64
			c0.24,3.99,2.34,7.43,3.12,11.3c-8.71-1.29-11.91-15.38-5.54-23.85C107.75,155.44,111.88,167.19,107.95,175.52z"/>
		<path d="M86.36,199.04c8.29,0.62,15.98,7.45,14.63,17.13c-3.5-3.79-6.79-7.35-10.32-11.17c0.28,0.64,0.38,1.05,0.61,1.36
			c2.5,3.38,4.27,7.28,7.43,10.19c0.74,0.68,1.21,1.64,1.88,2.58C92.08,220,84.15,211.01,86.36,199.04z"/>
		<path d="M114.86,133.71c6.77,5.61,7.83,15.1,2.28,23.26c-0.8-5.41-1.54-10.39-2.28-15.37c-0.08,0-0.16-0.01-0.24-0.01
			c0,0.78,0.07,1.56-0.01,2.33c-0.47,4.8,0.12,9.57,0.56,14.4C107.17,155.29,107.01,140.8,114.86,133.71z"/>
		<path d="M297.82,292.78c3.35,0,6.18,0.26,8.94-0.07c2.68-0.32,5.29-1.24,7.93-2.08c-5.02,0-10.03,0-15.67,0
			c3.16-2.92,6.2-4.69,9.92-5.05c4.26-0.4,8.21,0.63,11.93,2.71c1.43,0.8,1.8,1.6,0.56,2.89c-3.84,3.97-8.21,6.87-14,6.66
			C303.66,297.71,300.76,295.79,297.82,292.78z"/>
		<path d="M142.11,268.07c8.21,4.63,11.14,17.3,5.41,24.73c-1.37-6.03-2.66-11.73-3.95-17.43c-0.12,0.02-0.24,0.03-0.36,0.05
			c0.58,5.3,1.16,10.6,1.74,15.92C136.94,285.56,136.34,276.51,142.11,268.07z"/>
		<path d="M116.86,290.81c2.74,0.72,5.46,1.81,8.24,2.07c2.79,0.26,5.66-0.3,8.9-0.53c-5.28,8.24-19.24,6.33-24.3-2.65
			c5.9-5.39,16.06-6.06,23.23,0.87c-5.6,0-10.84,0-16.09,0C116.86,290.65,116.86,290.73,116.86,290.81z"/>
		<path d="M149.66,110.39c-2.05,5.4-4.11,10.8-6.13,16.14c-2-1.58-3.14-6.06-2.21-10.06c1.47-6.3,5.7-10.21,11.32-12.87
			c4.68,6.37,1.53,17.33-6.44,22.13c1.35-5.22,2.64-10.21,3.92-15.19C149.96,110.5,149.81,110.44,149.66,110.39z"/>
		<path d="M91.01,175.17c6.85,1.85,14.14,9.84,11.33,19.31c-2.8-4.2-5.45-8.18-8.1-12.17c1.88,5.17,4.32,10.07,7.29,15.24
			c-4.42-0.51-7.33-2.46-9.44-5.73C89.01,187.02,88.51,179.37,91.01,175.17z"/>
		<path d="M289.81,267.91c6.22,9.61,4.34,18.06-2.99,23.54c0.63-5.33,1.25-10.53,1.86-15.72c-0.13-0.02-0.27-0.04-0.4-0.06
			c-1.31,5.58-2.62,11.15-3.96,16.85C278.49,286.48,281.57,272.96,289.81,267.91z"/>
		<path d="M329.35,194.7c-2.31-8.49,3.41-17.59,11.81-19.44c3.89,8.04-0.61,21.42-10.68,22.12c2.74-5.06,5.55-9.88,7.51-15.61
			C334.99,186.27,332.25,190.37,329.35,194.7z"/>
		<path d="M96.23,252.4c4.7,2.39,9.4,4.78,14.46,7.34c-4.09,2.02-7.91,2.01-11.76,0.48c-4.77-1.91-8.82-7.56-9.44-13
			c6.56-2.66,18.05,1.34,20.03,9.41c-4.41-1.62-8.74-3.21-13.08-4.8C96.37,252.03,96.3,252.21,96.23,252.4z"/>
		<path d="M335.83,251.61c-4.53,1.75-9.06,3.5-13.61,5.26c1.01-7.07,12.63-12.63,20.17-9.7c-2.07,12-13.06,17-20.8,12.58
			c4.85-2.58,9.65-5.13,14.44-7.67C335.96,251.92,335.89,251.76,335.83,251.61z"/>
		<path d="M340.98,205.2c-3.26,3.52-6.52,7.04-9.82,10.61c-2.9-6.72,6.35-17.23,14.5-16.7c2.18,12.05-5.78,20.27-14.62,20.1
			c2.17-2.55,4.19-4.67,5.91-7.03c1.58-2.16,2.82-4.57,4.22-6.86C341.1,205.28,341.04,205.24,340.98,205.2z"/>
		<path d="M130.17,276.26c0.35-6.41,0.66-12.27,0.98-18.13c-0.1-0.01-0.2-0.02-0.3-0.03c-0.93,5.11-1.85,10.22-2.78,15.36
			c-6.37-6.85-4.09-16.38,3.19-22.68C137.9,257.93,138,270.07,130.17,276.26z"/>
		<path d="M159.25,289.32c1.43,5.02,2.86,10.03,4.28,15.04c-7.59-2.77-11.11-13.84-6.89-21.75c10.11,2.9,14.25,15.48,9.84,22.79
			c-2.4-5.58-4.68-10.88-6.96-16.18C159.44,289.25,159.35,289.28,159.25,289.32z"/>
		<path d="M300.51,250.61c6.71,5.64,10.08,15.39,3.35,23.07c-0.47-2.71-0.91-5.26-1.37-7.81c-0.47-2.61-0.96-5.23-1.7-7.83
			c0.24,5.85,0.47,11.7,0.71,17.69C294.41,272.37,293.91,257.27,300.51,250.61z"/>
		<path d="M270.09,116.19c-2.36-5.93-6.16-10.3-10.56-14.63c2.82,4.62,5.45,8.96,8.21,13.48c-7.79-1.08-15.01-11.3-13.53-18.69
			C264.83,95.3,274.01,106.32,270.09,116.19z"/>
		<path d="M164.27,114.76c2.56-4.16,5.12-8.31,7.69-12.47c-4.1,3.95-8.15,7.93-10.1,13.54c-1.36-1.59-1.7-4.58-0.92-7.53
			c1.7-6.39,8.6-11.85,15.22-12.14c1.33-0.06,1.71,0.41,1.69,1.68C177.71,105.62,172.2,112.88,164.27,114.76z"/>
		<path d="M268.14,304.57c0.89-2.69,1.83-5.16,2.53-7.69c0.66-2.43,1.07-4.93,1.65-7.67c-2.32,5.47-4.55,10.72-6.85,16.12
			c-5.26-6.39,0.06-18.85,9.37-22.85C279.72,290.72,276.03,300.64,268.14,304.57z"/>
		<path d="M262.63,315.64c5.93,1.36,11.22,2.57,16.51,3.79c0.04-0.14,0.09-0.29,0.13-0.43c-4.64-1.71-9.27-3.41-14.36-5.28
			c4.29-1.91,8.3-2.78,12.53-1.26c3.7,1.32,6.51,3.84,8.53,7.16c0.28,0.47,0.13,1.72-0.26,2c-6.52,4.64-17.19,2.81-21.71-3.65
			C263.6,317.41,263.3,316.79,262.63,315.64z"/>
		<path d="M243.3,322.55c5.09,1.31,9.14,4.58,14.73,5.16c-4.41-2.4-8.36-4.56-12.34-6.73c7.34-3.6,18.35,2.06,20.2,10.31
			C256.26,335.44,246.57,332.37,243.3,322.55z"/>
		<path d="M104.72,272.27c2.77,1.13,5.22,2.33,7.79,3.14c2.59,0.81,5.3,1.24,8.47,1.95c-3.04,2.73-6.25,3.4-9.71,3.13
			c-5.27-0.42-11.36-5.54-13.1-10.86c6.63-4.46,17.47-1.91,22,5.38C114.99,274.09,110,273.2,104.72,272.27z"/>
		<path d="M308.96,212.79c9.27,0.92,15.7,9.66,13.19,18.09c-2.84-3.87-5.59-7.64-8.35-11.41c-0.12,0.07-0.25,0.14-0.37,0.22
			c2.51,4.64,5.02,9.28,7.56,13.97C313.16,234.08,306.3,222.17,308.96,212.79z"/>
		<path d="M166.81,313.72c-4.63,1.78-9.18,3.53-13.73,5.27c0.04,0.13,0.07,0.26,0.11,0.38c5.34-1.28,10.68-2.55,16.15-3.86
			c-4.01,8.64-15.69,11.3-23.79,5.61C148.48,314.2,157.01,308.66,166.81,313.72z"/>
		<path d="M174.65,327.96c4.55-1.75,9.09-3.5,13.66-5.27c-0.29,8.07-14.38,13.54-22.15,8.67c1.75-8.25,11.76-13.48,20.29-10.38
			c-4.14,2.18-8.13,4.29-12.13,6.39C174.43,327.58,174.54,327.77,174.65,327.96z"/>
		<path d="M103.63,237.72c-4.18-3.08-8.18-6.04-12.19-8.99c-0.1,0.09-0.19,0.19-0.29,0.28c3.98,3.81,7.96,7.63,11.96,11.46
			c-7.28,3.52-17.78-7.03-17.06-17.01C93.72,222.21,103.38,228.97,103.63,237.72z"/>
		<path d="M311.59,277.55c5.05-1.62,10.13-3.24,15.2-4.86c-0.03-0.11-0.06-0.21-0.1-0.32c-4.98,0.86-9.96,1.71-15.1,2.6
			c5.72-8.28,14.99-9.37,22.35-5.11c-2.56,4.91-6.12,8.69-11.57,10.24C318.28,281.26,313.75,280.04,311.59,277.55z"/>
		<path d="M178.42,300.32c2.15,4.14,4.31,8.28,6.48,12.46c-6.76-0.81-14.25-9.08-10.82-19.95c9.22,1.85,16.7,10.75,13.67,19.87
			c-2.97-4.24-5.95-8.48-8.92-12.72C178.69,300.1,178.55,300.21,178.42,300.32z"/>
		<path d="M328.25,237.67c1.07-8.93,8.44-14.94,17.29-14.42c1.41,6.5-5.45,19.57-16.84,17.43c4.16-4.01,8.09-7.8,12.03-11.59
			c-0.09-0.1-0.17-0.2-0.26-0.3C336.48,231.69,332.49,234.59,328.25,237.67z"/>
		<path d="M253.14,300.01c-2.98,4.2-5.95,8.4-8.92,12.59c-4.16-6,4-18.08,13.32-19.73c3.57,7.78-1.95,18.57-10.6,19.92
			c1.25-2.27,2.41-4.29,3.48-6.37c1.06-2.05,2.03-4.15,3.05-6.22C253.35,300.14,253.25,300.07,253.14,300.01z"/>
		<path d="M315.77,252.4c-2.19-4.41-4.39-8.83-6.58-13.24c-0.11,0.04-0.21,0.08-0.32,0.12c1.76,5.22,3.52,10.44,5.33,15.82
			c-8-1.06-12.68-16.07-7.54-22.99C314.75,234.84,319.74,245.95,315.77,252.4z"/>
		<path d="M323.51,207.44c-1.89-1.73-3.61-3.36-5.4-4.92c-1.78-1.55-3.61-3.03-5.67-4.34c3.6,4.1,7.2,8.2,11,12.54
			c-8.97,0.49-16.51-7.95-16.36-17.68C316.59,191.17,324.65,199.82,323.51,207.44z"/>
		<path d="M122.93,213.02c2.08,9.33-3.79,19.64-12.36,20.94c2.72-4.87,5.27-9.43,7.82-14c-0.11-0.09-0.22-0.18-0.33-0.27
			c-2.8,3.66-5.61,7.33-8.45,11.04C107.07,223.71,112.59,214.02,122.93,213.02z"/>
		<path d="M125.21,232.1c4.4,8.18,1.15,20.05-7.73,23.26c1.01-2.9,1.91-5.4,2.76-7.92c0.86-2.55,1.67-5.12,2.16-7.84
			c-2.09,4.2-4.19,8.4-6.27,12.59C111.76,245.13,117.24,235.5,125.21,232.1z"/>
		<path d="M283.84,145.91c5.19,0.45,10.37,0.9,15.69,1.36c-4.58,7.38-18.57,5.52-23.18-2.8c6.76-5.81,16.27-5.69,21.79,0.38
			c-4.86,0.25-9.58,0.49-14.3,0.73C283.85,145.69,283.84,145.8,283.84,145.91z"/>
		<path d="M319.83,184.69c-4.25-2.3-8.57-4.64-12.9-6.98c-0.06,0.11-0.13,0.22-0.19,0.33c4.17,3.04,8.34,6.08,12.66,9.23
			c-8.23,3.71-17.84-4.77-18.7-13.44C308.2,170.48,319.08,176.74,319.83,184.69z"/>
		<path d="M108.53,210.76c3.46-4,6.77-7.82,10.07-11.65c-0.13-0.12-0.26-0.25-0.39-0.37c-3.32,2.86-6.64,5.73-9.94,8.57
			c-0.69-8.36,7.72-15.79,16.29-14.35C125.19,202.48,117.36,211.26,108.53,210.76z"/>
		<path d="M177.64,113.21c4.78-0.96,9.57-1.93,14.35-2.89c0.68-0.14,1.36-0.26,2-0.79c-4.78,0.37-9.56,0.75-14.27,1.12
			c2.79-6.84,14.76-8.16,22.27-2.24c-0.1,0.27-0.16,0.62-0.33,0.9c-4.02,6.43-13.99,8.84-20.51,5.06
			C180.11,113.76,178.82,113.59,177.64,113.21C177.63,113.21,177.64,113.21,177.64,113.21z"/>
		<path d="M148.07,145.68c-4.7-0.33-9.4-0.65-14.13-0.98c4.35-5.49,14.19-6.63,21.48-0.37c-4.53,8.35-18.05,10.28-23.24,2.95
			c5.43-0.48,10.66-0.95,15.9-1.42C148.08,145.81,148.08,145.74,148.07,145.68z"/>
		<path d="M254.14,113.28c-1.23,0.42-2.54,0.68-3.68,1.28c-6.84,3.6-16.87,0.77-20.47-5.84c6.36-5.86,19.74-5.19,22.34,1.99
			c-4.79-0.44-9.58-0.88-14.38-1.32c0,0.11-0.01,0.22-0.01,0.34c5.38,1.2,10.76,2.4,16.15,3.59
			C254.1,113.32,254.14,113.28,254.14,113.28z"/>
		<path d="M112.1,187.49c4.54-3.3,8.61-6.25,12.67-9.2c-0.06-0.11-0.12-0.21-0.18-0.32c-4.08,2.15-8.15,4.3-12.18,6.42
			c-0.22-2.18,1.91-6.12,4.64-8.19c3.89-2.94,8.35-3.43,13-2.73c0.41,0.06,1.07,0.95,1.01,1.36c-0.78,5.44-8.41,14.84-16.75,13.31
			C113.78,188.04,113.26,187.83,112.1,187.49z"/>
		<path d="M311.03,162.47c-4.16-0.64-8.26-1.26-12.37-1.89c-0.04,0.16-0.08,0.32-0.12,0.48c4.42,1.37,8.85,2.74,13.41,4.16
			c-6.62,5.94-18.6,1.63-21.77-7.56C298.14,153.35,307.04,155.62,311.03,162.47z"/>
		<path d="M284.16,132.55c-5.23,7.73-16.97,8.46-22.99,1.64c4.83-6.44,14.3-9.67,21.44-3.73c-4.55,0.99-9.02,1.97-13.48,2.95
			c0.01,0.12,0.02,0.24,0.03,0.36C274.08,133.37,279.01,132.97,284.16,132.55z"/>
		<path d="M162.51,133.49c-4.32-1.03-8.63-2.05-13-3.09c5.23-5.28,16-3.4,21.2,3.61c-4.78,6.81-16.77,6.29-23.06-1.43
			c5.21,0.41,10.02,0.79,14.84,1.17C162.5,133.66,162.51,133.57,162.51,133.49z"/>
		<path d="M141.75,157.58c-2.3,8.71-13.25,12.81-22.06,7.82c4.76-1.53,9.18-2.96,13.59-4.39c-0.03-0.12-0.06-0.24-0.09-0.36
			c-4.03,0.56-8.06,1.12-12,1.67C123.78,155.92,135.12,153.22,141.75,157.58z"/>
		<path d="M165.51,121.23c4.66,0.96,9.31,1.92,13.97,2.89c0.05-0.18,0.11-0.35,0.16-0.53c-4.21-1.37-8.42-2.74-12.54-4.08
			c6.14-3.9,16.24-1.1,21.12,6.23c-4.2,2.58-8.65,3.78-13.52,2.96c-4.27-0.72-7.21-3.36-9.42-6.86
			C165.36,121.63,165.44,121.43,165.51,121.23z"/>
		<path d="M251.92,124.07c4.8-0.89,9.59-1.79,14.49-2.7c-2.32,7.59-15.53,10.08-22.62,4.46c4.15-7.24,12.67-9.86,20.71-6.28
			c-4.31,1.39-8.49,2.75-12.68,4.1C251.86,123.8,251.89,123.94,251.92,124.07z"/>
		<path d="M216.44,324.84c2.43-0.17,4.54-0.99,5.19-3.66c5.33,1.47,8.51,6.04,7.55,10.65c-0.71,3.38-3.39,4.82-6.67,3.57
			C218.87,334.01,216.25,329.55,216.44,324.84z"/>
		<path d="M219.54,313.94c-2.39-1.5-4.72-1.52-6.95-0.01c-2.59-3.24-2.93-8.42-0.87-11.76c2.2-3.56,6.26-3.6,8.54-0.07
			C222.39,305.37,222.14,310.35,219.54,313.94z"/>
		<path d="M209.79,321.41c1.98,1.49,3.62,2.72,5.7,4.28c0.4,3.14-1.79,7.61-5.08,9.35c-3.89,2.06-7.53-0.06-7.63-4.44
			C202.69,326.46,205.33,323.13,209.79,321.41z"/>
		<path d="M220.61,313.59c2.15-2.83,5.54-4.33,9.67-3.99c3.96,0.32,5.49,3.6,3.37,6.95c-2.05,3.22-6.77,5.19-10.27,4.17
			c-0.53-0.15-1.18-0.71-1.33-1.22C221.5,317.72,221.15,315.88,220.61,313.59z"/>
		<path d="M211.53,313.68c-0.71,2.49-1.27,4.44-1.92,6.7c-3.16,1.84-9.72-0.04-11.83-5.55c-0.96-2.51,0.58-4.78,3.57-5.21
			C205.7,309,209.14,310.67,211.53,313.68z"/>
		<path d="M220.32,318.95c-0.05,2.26-2.14,4.42-4.28,4.4c-2.2-0.02-4.38-2.39-4.29-4.66c0.08-2.16,2.22-4.25,4.26-4.16
			C218.17,314.62,220.37,316.87,220.32,318.95z"/>
		<path d="M191.8,335.48c-1.22-4.06,0.93-6.6,8.88-10.12c0.23,3.65-0.79,5.28-3.86,6.85C195.07,333.1,193.5,334.36,191.8,335.48z"/>
		<path d="M230.79,324.76c2.69,1.52,4.97,2.57,6.98,4c2.5,1.78,3.25,4.7,2.4,6.67c-2.08-1.3-4.17-2.69-6.35-3.94
			C231.34,330.05,231.73,327.49,230.79,324.76z"/>
		<path d="M238.13,240.07c-1.21,0.85-1.87,1.6-2.66,1.76c-0.37,0.08-1.49-1.2-1.37-1.48c0.32-0.76,1.03-1.55,1.78-1.85
			C236.24,238.36,237.04,239.28,238.13,240.07z"/>
	</g>
</g>
</svg>
