<?xml version="1.0" encoding="utf-8"?>
<!-- Generator: Adobe Illustrator 24.1.1, SVG Export Plug-In . SVG Version: 6.00 Build 0)  -->
<svg version="1.1" id="Layer_1" xmlns="http://www.w3.org/2000/svg" xmlns:xlink="http://www.w3.org/1999/xlink" x="0px" y="0px"
	 viewBox="0 0 432 432" style="enable-background:new 0 0 432 432;" xml:space="preserve">
<g>
	<g>
		<path d="M211.82,253.12c5.6-4.29,9.48-3.13,10.54,0.93c0.95-0.78,1.8-1.57,2.76-2.22c0.86-0.59,1.8-1.13,2.77-1.49
			c4.58-1.67,7.61,0.73,6.59,5.46c-0.72,3.34-2.07,6.55-3.15,9.81c-0.44,1.33-1.01,2.64-1.31,4c-0.42,1.9,0.56,2.72,2.39,2.02
			c2.39-0.91,3.83-2.79,4.66-5.13c1.63-4.64,3.19-9.3,4.83-13.94c1.21-3.44,2.51-3.97,6.23-2.54c-0.26,0.91-0.47,1.85-0.79,2.76
			c-1.66,4.78-3.36,9.54-4.99,14.33c-0.44,1.29-1.3,3.09,0.31,3.75c1.04,0.43,2.98-0.18,3.95-1c1.33-1.12,2.49-2.74,3.07-4.37
			c3.34-9.47,6.46-19.02,9.74-28.52c0.33-0.95,1.07-2.2,1.89-2.44c1.15-0.35,2.53,0.11,3.82,0.23c-0.14,1.07-0.1,2.2-0.44,3.2
			c-3.18,9.45-6.44,18.88-9.62,28.34c-0.42,1.25-1.48,3.04,0.17,3.74c0.99,0.42,2.94-0.29,3.87-1.14c1.34-1.21,2.46-2.88,3.13-4.57
			c1.77-4.51,3.22-9.14,4.84-13.71c0.78-2.19,2.64-2.96,4.86-2.16c1.33,0.48,1.13,1.37,0.76,2.38c-1.67,4.62-3.35,9.25-4.98,13.88
			c-0.35,0.99-0.66,2.02-0.77,3.05c-0.19,1.67,0.7,2.39,2.31,1.91c2.35-0.69,3.79-2.39,4.61-4.59c1.84-4.93,3.53-9.93,5.45-14.83
			c0.36-0.93,1.42-2.03,2.33-2.22c2.86-0.58,3.56,0.34,2.65,3.06c-2.17,6.46-4.36,12.91-6.55,19.36c-0.2,0.58-0.37,1.16-0.66,2.08
			c3.06-1.18,5.2-3.01,7.08-5.16c1.2-1.38,2.2-2.92,3.41-4.29c0.36-0.41,1.48-0.81,1.62-0.65c0.49,0.54,0.95,1.34,0.93,2.03
			c-0.02,0.7-0.59,1.4-0.99,2.06c-2.97,4.82-7.08,8.28-12.35,10.43c-0.96,0.39-1.9,1.37-2.38,2.32c-1.67,3.24-2.94,6.7-4.73,9.87
			c-1.96,3.47-4.99,5.56-9.23,4.95c-4.36-0.62-6.62-4.28-5.4-8.52c0.76-2.65,2.45-4.65,4.82-5.88c2.79-1.45,5.78-2.52,8.64-3.84
			c0.79-0.36,1.46-1,1.92-1.88c-1.61,0.18-3.28,0.7-4.81,0.44c-1.52-0.26-2.9-1.32-4.47-2.09c-1.7,0.75-3.75,1.96-5.97,2.54
			c-2.45,0.63-4.76-0.06-5.99-2.17c-2.3,1.01-4.37,2.21-6.6,2.81c-2.47,0.66-4.7-0.18-6.18-2.59c-2.09,1.96-4.37,3.26-7.2,3.29
			c-3.43,0.03-5.62-2.18-4.89-5.51c0.64-2.92,1.93-5.7,2.92-8.54c0.53-1.52,1.21-3.01,1.51-4.58c0.35-1.84-0.95-2.74-2.53-1.72
			c-1.2,0.78-2.49,1.84-3.06,3.08c-2.27,4.89-4.41,9.85-6.3,14.89c-0.77,2.07-1.75,2.98-3.94,2.79c-2.06-0.17-2.55-0.58-1.9-2.63
			c1.23-3.88,2.64-7.71,3.96-11.56c0.46-1.33,1-2.64,1.27-4.01c0.13-0.66-0.06-1.8-0.49-2.04c-0.58-0.33-1.79-0.32-2.28,0.09
			c-1.27,1.06-2.69,2.23-3.34,3.67c-2.15,4.72-4.03,9.57-5.91,14.4c-0.94,2.41-3.19,3.54-5.43,2.19c-1.06-0.64-1.69-0.43-2.59-0.02
			c-3.45,1.56-5.58,1.13-7.38-1.2c-1.79,0.88-3.44,2.02-5.27,2.51c-3.55,0.95-6.45-1.07-7.19-4.65c-1.34-6.44,3.28-16.9,8.97-20.21
			c2.9-1.69,5.83-1.98,8.72,0.38c0.3-0.36,0.55-0.97,0.89-1.03c1.29-0.23,2.71-0.64,3.89-0.31c1.57,0.45,0.73,1.84,0.39,2.85
			c-1.65,4.85-3.39,9.68-4.95,14.56c-0.32,1.01,0,2.23,0.02,3.35c1.14-0.34,2.62-0.35,3.35-1.09c1.44-1.46,2.84-3.17,3.59-5.05
			c1.79-4.5,3.18-9.15,4.77-13.73c0.69-2.01,3.2-2.97,4.92-1.8C211.39,251.63,211.52,252.5,211.82,253.12z M190.02,256.79
			c-0.57,0.21-1.26,0.38-1.86,0.71c-3.41,1.85-7.1,9.99-6.29,13.78c0.4,1.88,2.05,2.71,3.65,1.58c1.16-0.82,2.34-1.97,2.87-3.24
			c1.42-3.42,2.52-6.97,3.68-10.5C192.61,257.45,191.39,257.09,190.02,256.79z M268.27,280.8c-0.19-0.14-0.37-0.28-0.56-0.42
			c-0.77,0.31-1.65,0.47-2.3,0.95c-1.89,1.39-3.87,2.74-5.43,4.45c-0.59,0.64-0.13,2.24-0.14,3.4c1.16-0.1,2.35-0.1,3.48-0.35
			c0.47-0.1,0.94-0.66,1.2-1.12C265.81,285.43,267.03,283.11,268.27,280.8z"/>
		<path d="M206.96,125.97c-5.75-1.01-11.08-1.95-16.43-0.34c-2.75,0.83-4.91,2.47-5.41,5.58c-0.36,2.27,0.52,4.05,2.36,4.92
			c2.04,0.96,4.54,0.45,5.98-1.18c0.63-0.71,0.89-2.2,2.36-1.42c1.45,0.77,1.14,2.11,0.82,3.35c-0.99,3.87-6.08,5.98-10.67,4.45
			c-4.96-1.66-7.54-6.73-6.07-12.08c1.33-4.82,4.73-7.51,9.38-8.76c5.94-1.6,11.86-0.61,17.78,0.23c5.91,0.84,11.82,1.66,17.75,2.32
			c1.64,0.18,3.37-0.09,5-0.44c0.77-0.17,1.84-0.91,2-1.58c0.36-1.48,1-1.86,2.36-1.47c1.43,0.41,2.4,1.46,1.91,2.78
			c-0.54,1.49-1.45,3.37-2.71,3.96c-2.34,1.09-5.04,1.54-7.64,1.88c-1.37,0.18-2.11,0.45-2.55,1.84c-1.29,4.12-2.73,8.2-4.17,12.49
			c1.63-0.95,2.92-1.95,4.39-2.51c3.65-1.4,6.58,0.63,6.17,4.49c-0.29,2.75-1.28,5.44-2.09,8.12c-0.63,2.08-1.53,4.08-2.13,6.17
			c-0.2,0.71-0.08,2.05,0.33,2.26c0.65,0.33,1.87,0.25,2.48-0.18c1.96-1.39,3.8-2.73,4.07-5.66c0.41-4.55,2.32-8.68,5.3-12.19
			c2.56-3.02,5.84-4.61,9.88-4.03c3.13,0.45,4.63,2.39,4.51,5.57c-0.18,4.91-4.8,9.6-10.47,10.6c-1.23,0.22-2.48,0.35-3.68,0.51
			c-0.6,3.47,1.15,5.56,4.42,5.24c4.59-0.45,7.96-2.91,10.49-6.65c0.5-0.74,0.98-1.5,1.47-2.25c0.24-0.05,0.47-0.09,0.71-0.14
			c0.35,0.88,1.23,1.96,0.98,2.61c-2.5,6.6-9.7,11.55-16.2,10.96c-2.99-0.27-4.02-0.84-6.53-3.38c-2.56,1.29-4.83,3.01-7.36,3.59
			c-4.64,1.06-7.22-1.87-5.95-6.47c0.87-3.17,2.11-6.25,3.19-9.37c0.3-0.86,0.76-1.7,0.88-2.58c0.1-0.68,0.02-1.72-0.41-2.06
			c-0.43-0.34-1.7-0.3-2.06,0.08c-1.8,1.91-3.91,3.75-5.01,6.04c-1.97,4.1-3.3,8.5-4.88,12.78c-0.8,2.18-2.8,3.16-4.99,2.38
			c-1.44-0.51-0.84-1.59-0.55-2.47c1.55-4.66,3.1-9.33,4.74-13.96c2.46-6.95,4.98-13.88,7.47-20.82c0.14-0.38,0.22-0.78,0.38-1.35
			c-2.19-0.33-4.25-0.64-6.46-0.98c-1.55,4.47-3.04,8.85-4.59,13.2c-1.93,5.43-3.75,10.9-5.91,16.23c-1.09,2.7-2.55,5.36-4.35,7.64
			c-3.44,4.37-9.48,5.92-14.68,4.21c-4.36-1.43-6.61-5.19-6.29-10.49c0.29-4.72,3.44-8.91,7.53-9.52c1.49-0.22,3.22,0.14,4.6,0.76
			c0.64,0.29,1.19,2.02,0.9,2.76c-0.3,0.76-1.67,1.56-2.56,1.54c-3.09-0.06-4.74,1.17-5.15,4.36c-0.39,2.99,1.26,5.5,4.01,6.01
			c2.21,0.41,4.28-0.08,5.88-1.61c1.3-1.24,2.71-2.64,3.35-4.25C198.97,147.26,202.88,136.76,206.96,125.97z M238.67,151.57
			c3.27,0.03,7.04-2.37,8.01-5.13c0.29-0.82-0.01-1.83-0.03-2.76c-0.97,0.06-2.13-0.19-2.89,0.24
			C240.89,145.54,239.72,148.4,238.67,151.57z"/>
		<path d="M219.4,203.07c0-7.36,0-14.73,0-22.09c0-3.11,0-3.13,3.12-3.09c4.62,0.07,4.25-0.9,4.26,4.25
			c0.02,13.56,0.01,27.12,0.01,40.68c0,2.81-0.16,2.97-2.98,2.99c-5.3,0.03-4.28,0.42-5.85-4.05c-2.5-7.08-4.95-14.18-7.42-21.27
			c-0.22-0.63-0.49-1.24-1.17-1.82c0,0.58,0,1.16,0,1.74c0,7.59,0.01,15.18,0,22.76c0,2.55-0.18,2.73-2.78,2.72
			c-5.09-0.02-4.46,0.48-4.46-4.53c-0.02-13.56-0.02-27.12-0.03-40.68c0-2.83,0.01-2.89,2.8-2.8c5.95,0.19,4.51-1.12,6.66,4.72
			c2.13,5.8,4.09,11.66,6.13,17.49c0.36,1.04,0.77,2.06,1.16,3.09C219.02,203.14,219.21,203.1,219.4,203.07z"/>
		<path d="M299.38,198.56c0,1.6-0.01,3.19,0,4.79c0.03,6.68,0.02,13.36,0.1,20.03c0.02,1.8-0.69,2.54-2.49,2.53
			c-5.71-0.01-4.71,0.13-4.73-4.54c-0.07-13.57-0.08-27.13-0.12-40.7c-0.01-2.87,0-2.87,2.95-2.87c4.89-0.01,4.91-0.01,6.56,4.62
			c2.12,5.95,4.21,11.92,6.32,17.88c0.34,0.97,0.72,1.92,1.55,2.82c0.04-0.72,0.1-1.43,0.1-2.15c-0.01-6.96,0.02-13.92-0.07-20.88
			c-0.02-1.72,0.51-2.36,2.27-2.33c5.62,0.1,5.26-0.72,5.27,5.18c0.01,13.57-0.06,27.13-0.04,40.7c0,1.66-0.65,2.23-2.23,2.28
			c-5.05,0.15-5.08,0.2-6.8-4.49c-2.57-7.06-5.08-14.15-7.62-21.22c-0.21-0.58-0.44-1.16-0.66-1.74
			C299.63,198.49,299.5,198.53,299.38,198.56z"/>
		<path d="M172.54,237.57c-5.04-0.38-9.5-0.84-13.97-1c-2.51-0.09-4.86,0.77-6.7,2.62c-2.24,2.25-2.42,5.68-0.42,7.56
			c2.15,2.03,5.38,1.67,7.63-0.74c0.42-0.45,1.66-0.89,1.79-0.74c0.61,0.74,1.4,1.74,1.32,2.56c-0.23,2.28-1.82,3.72-3.88,4.59
			c-3.89,1.65-9.35,0.38-11.8-2.7c-2.68-3.38-2.68-8.97,0.05-12.62c2.82-3.77,6.83-5.69,11.33-5.54c5.94,0.19,11.85,1.14,17.77,1.8
			c4.39,0.49,8.77,1.14,13.17,1.52c2.05,0.18,4.07-0.17,5.3-2.29c0.22-0.38,1.42-0.64,1.76-0.39c0.7,0.51,1.55,1.38,1.59,2.14
			c0.11,2.1-1.27,3.5-3,4.48c-2.82,1.6-5.92,1.65-9.03,1.35c-2.1-0.2-4.17-0.63-6.27-0.82c-0.52-0.05-1.44,0.31-1.59,0.7
			c-1.87,4.91-3.62,9.86-5.48,14.99c1.45,0,2.62-0.04,3.79,0.01c0.91,0.04,2.17-0.33,2.17,1.23c0,1.41,0.03,2.97-1.84,3.31
			c-1.45,0.26-2.93,0.42-4.4,0.43c-1.25,0.01-1.82,0.55-2.27,1.68c-1.45,3.65-2.87,7.33-4.58,10.86c-2.34,4.84-5.93,8.33-11.46,9.36
			c-5.14,0.96-10.08-1.18-12.06-5.24c-2.17-4.44-0.91-10.99,2.76-14.18c2.11-1.84,4.56-2.78,7.39-2.33
			c2.18,0.35,3.33,1.88,2.74,3.64c-0.38,1.15-1.02,1.87-2.5,1.64c-3.49-0.54-5.79,1.5-6.09,5.22c-0.28,3.48,1.82,5.94,5.19,6.08
			c2.73,0.11,4.96-1.01,6.69-3.01c3.22-3.75,4.61-8.4,6.4-12.98c-1.29,0-2.27-0.01-3.24,0c-1.26,0.02-2.24-0.33-2.39-1.78
			c-0.15-1.43,0.31-2.59,1.82-2.88c1.51-0.28,3.08-0.27,4.6-0.5c0.54-0.08,1.34-0.38,1.49-0.78
			C168.36,249.32,170.32,243.78,172.54,237.57z"/>
		<path d="M133.76,200.55c3.17,1.69,5.03,4.07,5.34,7.26c0.44,4.55,0.64,9.17-1.77,13.35c-1.92,3.31-5.13,4.5-8.72,4.65
			c-3.93,0.16-7.87,0.05-11.8,0.1c-1.86,0.02-1.91-1.17-1.92-2.54c-0.02-12.79-0.06-25.57-0.1-38.36c0-1.69,0.03-3.37-0.02-5.06
			c-0.04-1.47,0.49-2.23,2.07-2.19c4,0.08,8.01-0.04,12.01,0.17c5.8,0.31,9.29,3.95,9.53,9.74c0.06,1.47,0.01,2.95-0.04,4.42
			C138.23,195.46,137.31,198.47,133.76,200.55z M122.62,211.65c0,0,0.01,0,0.01,0c0,0.98,0,1.97,0,2.95
			c-0.01,5.15,0.06,5.2,5.31,4.56c2-0.24,3.34-1.31,3.46-3.33c0.15-2.58,0.28-5.22-0.1-7.76c-0.18-1.23-1.31-2.81-2.42-3.28
			c-1.52-0.64-3.43-0.47-5.17-0.43c-0.37,0.01-1.01,0.89-1.04,1.4C122.55,207.71,122.62,209.68,122.62,211.65z M122.61,190.94
			c0,1.76-0.05,3.51,0.03,5.27c0.02,0.47,0.32,1.16,0.69,1.33c3.46,1.59,7.61-1,7.75-4.79c0.04-1.19,0.04-2.39-0.01-3.58
			c-0.15-3.33-1.21-4.39-4.49-4.55c-0.77-0.04-1.55,0.03-2.32-0.05c-1.33-0.13-1.72,0.52-1.67,1.74
			C122.65,187.84,122.6,189.39,122.61,190.94z"/>
		<path d="M232.85,201.94c0-7.24,0.05-14.48-0.04-21.72c-0.02-1.84,0.55-2.49,2.41-2.42c3.65,0.13,7.31-0.02,10.96,0.1
			c5.92,0.2,9.48,3.45,10.39,9.34c0.17,1.11,0.27,2.24,0.28,3.36c0.03,7.45,0.1,14.9,0.03,22.35c-0.08,8.62-4.24,12.73-12.9,12.87
			c-2.81,0.05-5.63-0.07-8.43,0.05c-1.96,0.08-2.81-0.5-2.72-2.62c0.15-3.58,0.04-7.17,0.04-10.75c0-3.51,0-7.03,0-10.54
			C232.86,201.94,232.86,201.94,232.85,201.94z M240.46,201.77c0.02,0,0.04,0,0.06,0c0,5.13-0.03,10.25,0.03,15.38
			c0.01,0.65,0.31,1.69,0.76,1.87c4,1.63,7.73-0.75,7.83-5.04c0.12-4.98,0.04-9.97,0.02-14.96c-0.01-3.51,0.05-7.03-0.14-10.53
			c-0.14-2.64-1.41-3.72-4.05-3.89c-0.84-0.05-1.69,0.03-2.53-0.06c-1.59-0.17-2.04,0.51-2.02,2.06
			C240.51,191.66,240.46,196.72,240.46,201.77z"/>
		<path d="M144.29,201.77c0-7.17,0.06-14.34-0.04-21.51c-0.03-1.97,0.62-2.57,2.55-2.5c3.72,0.14,7.45-0.03,11.17,0.11
			c6.12,0.23,9.63,3.66,9.97,9.74c0.15,2.59,0.16,5.2-0.01,7.79c-0.23,3.53-1.53,6.59-4.76,8.44c-1.3,0.74-0.74,1.61-0.44,2.51
			c1.86,5.6,3.74,11.19,5.61,16.79c0.77,2.3,0.49,2.75-1.99,2.72c-4.97-0.07-4.44,0.73-6.17-4.33c-1.54-4.52-2.97-9.08-4.56-13.58
			c-0.26-0.73-0.97-1.54-1.67-1.81c-1.23-0.47-2.09-0.09-2.07,1.59c0.08,5.13,0.04,10.26,0.03,15.39c0,2.51-0.24,2.77-2.78,2.79
			c-5.18,0.05-4.8,0.45-4.81-4.73c-0.01-6.47,0-12.93,0-19.4C144.32,201.77,144.31,201.77,144.29,201.77z M151.86,184.35
			c0,4,0,7.63,0,11.25c0,4.07,0,4.07,4.16,3.79c2.82-0.19,4.34-1.52,4.47-4.28c0.12-2.44,0.19-4.93-0.22-7.32
			c-0.2-1.14-1.38-2.63-2.43-2.97C156.05,184.25,154.02,184.47,151.86,184.35z"/>
		<path d="M262.32,202.03c0-4.21-0.08-8.43,0.02-12.64c0.22-10.14,10.1-15.58,18.96-10.43c3.47,2.02,5.02,5.37,5.08,9.19
			c0.15,8.99,0.13,17.98-0.03,26.97c-0.08,4.31-1.67,8.09-5.9,9.94c-4.56,1.99-9.23,1.91-13.54-0.72c-3.11-1.89-4.42-5.05-4.51-8.6
			c-0.12-4.56-0.03-9.13-0.03-13.7C262.35,202.03,262.34,202.03,262.32,202.03z M278.8,201.99c0.01,0,0.01,0,0.02,0
			c0-4.35,0.03-8.71-0.01-13.06c-0.03-3.28-1.36-4.69-4.31-4.75c-3.11-0.06-4.61,1.27-4.64,4.63c-0.08,8.77-0.06,17.55,0.05,26.32
			c0.04,3.19,1.66,4.62,4.56,4.51c2.88-0.11,4.3-1.63,4.32-4.81C278.83,210.55,278.8,206.27,278.8,201.99z"/>
		<path d="M180.21,214.99c-0.54,2.98-1.09,5.73-1.52,8.5c-0.26,1.66-1,2.38-2.77,2.42c-4.63,0.09-4.69,0.14-3.87-4.44
			c2.43-13.69,4.92-27.37,7.31-41.06c0.33-1.91,1.02-2.96,3.13-2.61c0.68,0.11,1.4,0.01,2.1,0.03c5.82,0.16,4.79-1.09,5.96,5.03
			c2.6,13.52,4.97,27.08,7.49,40.61c0.32,1.69-0.17,2.32-1.85,2.41c-5.02,0.27-5.02,0.3-5.93-4.64c-0.09-0.48-0.2-0.96-0.29-1.44
			c-0.97-4.8-0.97-4.8-5.94-4.8C182.84,214.99,181.65,214.99,180.21,214.99z M181.19,208.04c2.14,0,3.81,0,5.47,0
			c1.1,0,1.45-0.49,1.22-1.61c-0.55-2.67-1-5.37-1.51-8.05c-0.51-2.72-1.04-5.44-1.56-8.16c-0.11,0.01-0.23,0.02-0.34,0.03
			C183.41,196.04,182.34,201.84,181.19,208.04z"/>
		<path d="M150.32,105.36C103.61,135.96,83.13,178.54,91,234.2c11.54,54.84,44.46,88.48,99.42,100.39
			c-0.23,2.51-1.99,2.13-3.77,1.77c-28.17-5.69-51.78-19.19-69.99-41.51C94.62,267.82,84.96,236.69,87.9,202
			c2.49-29.32,14.06-54.72,34.94-75.73c7.74-7.79,16.34-14.38,25.73-20C149.13,105.93,149.74,105.66,150.32,105.36z"/>
		<path d="M279.68,104.51c0.52,0.17,1.08,0.25,1.54,0.52c32.84,19.08,53.68,47.03,60.87,84.41c6.99,36.38-0.75,69.78-22.51,99.83
			c-18.57,25.64-43.73,40.91-74.59,47.11c-2.35,0.47-2.35,0.46-3.58-2.18c0.67-0.17,1.3-0.36,1.94-0.48
			c36.2-6.47,63.4-25.9,82.03-57.39c13.58-22.94,19.25-47.9,17.05-74.42c-2.89-34.83-18.11-63.39-45.28-85.41
			c-4.94-4.01-10.53-7.22-15.81-10.81c-0.56-0.38-1.08-0.82-1.61-1.22L279.68,104.51z"/>
		<path d="M216.03,74.8c1.71,7.85,6.65,11.93,14.32,13.4c-7.65,1.8-12.74,5.91-13.94,13.63c-1.77-2.91-3.06-6.33-5.44-8.62
			c-2.41-2.33-5.88-3.56-9-5.33C209.51,87,214.2,82.55,216.03,74.8z"/>
		<path d="M219.53,334.99c1.01-1.79,2.03-3.57,3.16-5.56c5.05-1.17,13.03,2.21,15.79,6.93c1.15,1.96,1.87,4,0.38,6.11
			c-1.51,2.14-3.77,2.65-6.17,2.33c-4.26-0.56-7.57-2.84-10.26-6.1c-1.02-1.23-1.98-2.51-2.97-3.77
			C219.46,334.93,219.53,334.99,219.53,334.99z"/>
		<path d="M212.51,334.97c-0.63,0.8-1.28,1.6-1.9,2.41c-2.84,3.74-6.27,6.69-11.09,7.31c-1.44,0.19-3.09-0.16-4.46-0.71
			c-2.22-0.88-3.36-3.19-2.37-5.34c0.96-2.09,2.32-4.19,4.03-5.68c3.61-3.14,8.17-3.71,12.6-3.72c1.12,2.06,2.13,3.92,3.15,5.78
			L212.51,334.97z"/>
		<path d="M212.46,335.03c0.23-0.15,0.47-0.43,0.7-0.42c2.12,0.1,4.24,0.25,6.37,0.39c0,0-0.07-0.06-0.06-0.05
			c0.87,2.21,1.92,4.36,2.55,6.63c1.04,3.74,0.61,7.4-1.58,10.7c-2.55,3.84-6.54,3.82-8.99-0.1c-2.32-3.72-2.32-7.72-0.97-11.76
			c0.61-1.84,1.37-3.63,2.06-5.43C212.51,334.97,212.46,335.03,212.46,335.03z"/>
		<path d="M213.31,324.18c-1.15-3-2.53-5.94-3.37-9.02c-0.77-2.81-0.41-5.73,0.96-8.4c1.07-2.09,2.74-3.4,5.16-3.39
			c2.52,0.01,4.2,1.41,5.22,3.62c1.42,3.08,1.39,6.29,0.5,9.47c-0.52,1.88-1.37,3.67-2.05,5.51c-0.47,1.25-1.15,1.79-2.66,1.61
			C215.85,323.43,214.56,323.95,213.31,324.18L213.31,324.18z"/>
		<path d="M222.71,328.54c-1.07-1.62-2.02-3.06-3.12-4.71c2.58-4.89,5.92-9.34,12.05-10.66c3.23-0.7,6.13,0.18,7.23,2.06
			c1.16,1.97,0.59,4.71-1.66,7.31C233.32,327.03,228,328.04,222.71,328.54z"/>
		<path d="M213.31,324.18c-1.35,1.27-2.69,2.54-4.54,4.28c-3.57-0.29-7.97-0.92-11.58-3.75c-1.6-1.25-3.08-2.94-3.98-4.74
			c-1.79-3.56,0.21-6.93,4.18-6.87c2.41,0.04,5.18,0.64,7.12,1.96c2.65,1.8,4.67,4.53,6.93,6.89
			C212.11,322.64,212.69,323.43,213.31,324.18C213.31,324.18,213.31,324.18,213.31,324.18z"/>
		<path d="M140.64,320.31c-5.18,6.77-19.34,7-26.58,0.44C119.26,314.17,134.23,313.92,140.64,320.31z"/>
		<path d="M172.33,76.85c1.16,8.54-6.57,19.32-15.5,21.74C152.57,92.13,162.1,78.65,172.33,76.85z"/>
		<path d="M317.88,320.62c-6.34,6.6-20.62,6.51-26.61-0.18C296.81,313.92,311.79,314.03,317.88,320.62z"/>
		<path d="M130.01,95.31c4.45,8.49,0.82,21.93-6.92,26.04C118.09,114.61,121.83,100.29,130.01,95.31z"/>
		<path d="M299.92,334.46c-6.83,5.16-20.91,2.91-26.33-4.11C281.06,324.47,293.42,326.35,299.92,334.46z"/>
		<path d="M333.07,303.28c-6.35,7.86-17.67,10.05-26.09,5.15C310.05,301.14,325.16,298.1,333.07,303.28z"/>
		<path d="M302.03,95.24c7.98,4.9,11.55,18.54,6.9,26.02C300.49,115.65,297.79,104.14,302.03,95.24z"/>
		<path d="M149.92,83.78c2.62,8.92-2.05,19.83-10.56,24.86C134.58,102.61,141.19,86.84,149.92,83.78z"/>
		<path d="M275.32,98.58c-8.69-1.86-16.56-12.81-15.48-21.54C268.94,78.03,278.49,90.67,275.32,98.58z"/>
		<path d="M331.62,275.75c3.43-9,14.44-15.54,22.85-13.68C352.72,270.99,338.6,279.53,331.62,275.75z"/>
		<path d="M282.22,83.73c8.88,3.62,14.7,17.18,10.79,24.88C283.64,103.43,279.32,91.47,282.22,83.73z"/>
		<path d="M77.66,261.98c11.25-1.3,20.41,6.55,22.79,13.87C93.93,278.86,80.7,272.92,77.66,261.98z"/>
		<path d="M158.46,330.31c-5.63,7.18-18.74,9.32-25.91,4.22C136.78,326.74,151.04,324.42,158.46,330.31z"/>
		<path d="M125.04,308.08c-6.95,5.42-20.19,2.97-26.04-4.69C104.95,299.14,118.13,298.99,125.04,308.08z"/>
		<path d="M111.67,110.52c6.17,5.79,4.85,20.44-2.27,26.38C104.47,131.32,103.66,119.63,111.67,110.52z"/>
		<path d="M344.6,283.77c-3.59,8.02-16.83,13.45-24.47,10.15C322.32,285.64,335.78,279.99,344.6,283.77z"/>
		<path d="M288.42,294.85c4.15,7.71-1.49,20.78-10.47,24.25C274.09,313.24,280.62,298.11,288.42,294.85z"/>
		<path d="M320.36,110.51c6.79,6.75,7.81,20.06,2.1,26.47C315.44,130.96,314.28,117.15,320.36,110.51z"/>
		<path d="M154.2,319.17c-8.98-3.65-14.61-16.34-10.9-24.35C150.84,297.11,157.25,311.29,154.2,319.17z"/>
		<path d="M333.46,154.75c-5.94-6.47-4.97-20.79,1.79-26.23C341.32,135.29,340.12,150.11,333.46,154.75z"/>
		<path d="M96.56,128.42c6.86,5.55,7.77,18.94,1.89,26.4C91.93,150.51,90.79,135.34,96.56,128.42z"/>
		<path d="M91.95,256.73c-8.01,1.56-19.26-8.04-20.19-17.12C79.58,238.12,91.19,247.88,91.95,256.73z"/>
		<path d="M360.24,239.34c-1.8,10.97-12.51,18.51-19.94,17.35C339.5,249.11,350.45,239.5,360.24,239.34z"/>
		<path d="M159.82,304.57c7.59,1.22,15.77,15.46,12.96,22.54C164.68,326.43,157.16,313.34,159.82,304.57z"/>
		<path d="M142.42,114.49c7.15-6.69,20.92-5.07,26.34,2.28C162.45,121.78,147.83,120.52,142.42,114.49z"/>
		<path d="M289.51,114.49c-7.09,6.81-19.45,6.81-26.19,2.38C267.57,109.33,283.34,107.9,289.51,114.49z"/>
		<path d="M339.41,208.61c-8.08-1.1-17.34-12.79-16.53-20.87C332.63,188.77,341.15,199.53,339.41,208.61z"/>
		<path d="M87.47,283.63c8.91-3.23,21.33,2.01,24.27,10.24C104.62,297.61,90.44,291.63,87.47,283.63z"/>
		<path d="M135.41,306.53c-8.06-4.9-11.11-18.09-6-25.52C136.94,286.36,139.78,299.93,135.41,306.53z"/>
		<path d="M302.18,280.9c5.65,6.5,2.73,19.93-5.56,25.52C291.95,301.03,295.29,285.7,302.18,280.9z"/>
		<path d="M240.49,331.79c-2.05-7.46,5.73-18.45,14.48-20.63C258.46,318.45,249.4,331.48,240.49,331.79z"/>
		<path d="M125.69,153.43c-4.52,9.15-16.65,13.48-23.35,10.59C104.63,155.21,117.03,149.84,125.69,153.43z"/>
		<path d="M119.69,290.34c-7.12-4.71-7.56-20.54-0.71-26.18C123.91,269.3,125.73,283.16,119.69,290.34z"/>
		<path d="M187.48,108.6c-7.48,4.6-21.62,2.02-26.45-4.72C169.9,98.78,182.47,100.98,187.48,108.6z"/>
		<path d="M153.05,345.18c2.8-8.04,17.29-12.72,24.64-7.95C174.92,344.34,161.23,348.76,153.05,345.18z"/>
		<path d="M272.16,304.46c2.72,9.02-4.19,21.04-12.93,22.73C256.49,320.24,263.65,307.55,272.16,304.46z"/>
		<path d="M347.46,148.3c4.48,8.13,1.34,21.77-5.82,25.75C336.74,166.71,339.83,152.8,347.46,148.3z"/>
		<path d="M361.26,192.35c1.5,9.33-5.17,20.43-13.49,22.62C345.07,205.8,353.23,194,361.26,192.35z"/>
		<path d="M92.21,208.6c-0.98-9.73,8.08-20.78,16.74-20.6C109.26,196.42,100.73,206.99,92.21,208.6z"/>
		<path d="M137.16,138.77c-5.62,7.39-18.7,10.78-24.82,6.53C116.29,136.99,129.87,133.36,137.16,138.77z"/>
		<path d="M270.79,103.8c-4.35,6.89-17.45,9.32-25.83,4.81C248.03,101.23,262.46,98.55,270.79,103.8z"/>
		<path d="M356.23,169.63c3.26,8.42-2.1,21.22-10.12,24.19C341.99,187.17,348.07,172.64,356.23,169.63z"/>
		<path d="M362.53,215.98c-0.26,9.67-8.65,19.6-16.83,20.07C343.63,228.31,353.64,216.26,362.53,215.98z"/>
		<path d="M75.67,169.47c8.17,3.13,13.67,16.27,10.25,24.27C78.31,191.67,72.77,178.69,75.67,169.47z"/>
		<path d="M312.7,264.11c7.08,6.22,6.71,21.16-0.54,26.27C306.98,284.3,307.21,270.56,312.7,264.11z"/>
		<path d="M126.2,128.58c4.61-7.49,19.07-8.68,25.86-2.13C146.52,132.42,132.01,133.61,126.2,128.58z"/>
		<path d="M254.05,337.21c7.85-4.61,21.37-0.3,25.03,7.88C271.26,348.73,258.1,344.64,254.05,337.21z"/>
		<path d="M94.95,185.68c0.18-9.18,11.57-17.98,20.37-15.85C114.49,177.61,103.58,186.17,94.95,185.68z"/>
		<path d="M316.45,169.83c9.3-1.98,19.93,6.26,20.54,15.76C329.76,186.04,319.18,180.02,316.45,169.83z"/>
		<path d="M84.62,148.35c7.68,4.78,10.69,18.07,5.92,25.61C83.43,170.5,80.2,156.68,84.62,148.35z"/>
		<path d="M306.55,153.43c8.09-3.81,21.45,2.32,23.13,10.62C323.48,167.64,309.44,161.19,306.55,153.43z"/>
		<path d="M176.83,311.09c9.18,2.48,16.85,13.39,14.6,20.65C182.65,331.66,174.74,319.39,176.83,311.09z"/>
		<path d="M106.92,207.94c0.67,9.28-5.61,20.16-13.09,22.86C89.45,224.21,97.68,209.69,106.92,207.94z"/>
		<path d="M69.47,216.06c7.77-0.55,17.59,10.98,16.94,19.89C79.01,236.89,69.43,225.64,69.47,216.06z"/>
		<path d="M84.23,215.05c-8.47-2.55-14.89-13.29-13.53-22.46C78.27,192.94,86.8,206.96,84.23,215.05z"/>
		<path d="M324.01,228.05c9.07,3.27,14.05,15.69,9.66,23.83C326.79,248.87,321.83,238.41,324.01,228.05z"/>
		<path d="M306,128.51c-6.38,4.9-19.05,3.97-25.89-1.8C284.06,119.92,299.79,120.95,306,128.51z"/>
		<path d="M319.63,145.3c-6.15,4-20.02,0.36-24.72-6.39C300.73,133.05,314.94,136.67,319.63,145.3z"/>
		<path d="M325.32,208.18c8.48,0.95,16.48,15.02,12.82,22.57C330.78,228.56,323.84,216.35,325.32,208.18z"/>
		<path d="M319.92,247.13c8.1,3.56,10.88,16.74,5.18,24.51C318.18,267.09,316.04,254.36,319.92,247.13z"/>
		<path d="M106.96,271.85c-5.19-6.77-4.47-18.88,4.99-24.97C115.91,254.05,113.21,267.56,106.96,271.85z"/>
		<path d="M98.52,251.81c-4.52-7.58,0.13-19.86,9.11-24.02C110.58,235.29,105.33,249.12,98.52,251.81z"/>
		<path d="M153.66,154.93c-3.58,0-7.16,0-10.75,0c-1.65,0-3.3-0.2-3.25-2.35c0.05-1.97,1.55-2.19,3.17-2.19
			c7.31,0.01,14.61,0,21.92-0.05c1.66-0.01,3,0.31,3.13,2.25c0.11,1.57-1.06,2.37-3.26,2.37c-3.65,0-7.3,0-10.96,0
			C153.66,154.95,153.66,154.94,153.66,154.93z"/>
		<path d="M278.2,150.36c3.73,0,7.45,0.04,11.18-0.02c1.67-0.02,2.85,0.59,2.87,2.31c0.02,1.66-1.19,2.21-2.73,2.21
			c-7.59,0.01-15.18,0.05-22.77,0.05c-1.49,0-2.72-0.53-2.73-2.24c-0.01-1.81,1.14-2.33,2.81-2.3c3.79,0.06,7.59,0.02,11.39,0.02
			C278.2,150.38,278.2,150.37,278.2,150.36z"/>
		<path d="M157.14,159.3c2.74,0,5.47,0.02,8.21-0.01c1.48-0.01,2.52,0.54,2.57,2.11c0.04,1.6-0.89,2.48-2.49,2.49
			c-5.54,0.03-11.08,0.03-16.62,0.01c-1.62-0.01-2.76-0.76-2.79-2.48c-0.03-1.74,1.18-2.17,2.71-2.15c2.8,0.03,5.61,0.01,8.42,0.01
			C157.14,159.29,157.14,159.3,157.14,159.3z"/>
		<path d="M274.82,159.3c2.81,0,5.62,0.03,8.43-0.01c1.57-0.02,2.7,0.56,2.69,2.22c-0.02,1.6-1.11,2.36-2.67,2.36
			c-5.62,0-11.24,0-16.86-0.06c-1.56-0.02-2.55-0.9-2.47-2.52c0.08-1.6,1.2-2.03,2.65-2.01c2.74,0.04,5.48,0.01,8.22,0.01
			C274.82,159.29,274.82,159.29,274.82,159.3z"/>
		<path d="M250.2,91.97c0.01,2.83-2.39,5.27-5.2,5.26c-2.85-0.01-5.24-2.39-5.27-5.22c-0.02-2.63,2.42-5.07,5.13-5.13
			C247.74,86.81,250.19,89.15,250.2,91.97z"/>
		<path d="M186.97,97.29c-2.74,0.04-5.14-2.27-5.2-5.01c-0.06-2.83,2.29-5.35,5.07-5.42c2.74-0.07,5.39,2.47,5.36,5.14
			C192.17,94.83,189.77,97.25,186.97,97.29z"/>
		<path d="M256.46,354.6c-1.94,0.91-3.55,1.71-5.19,2.42c-1.45,0.63-1.83-0.59-2.27-1.5c-1.93-3.98-4.44-7.44-8.32-9.74
			c1.83-2.53,1.82-2.51,4.4-1.08C249.41,347.11,253.15,350.18,256.46,354.6z"/>
		<path d="M192.22,345.33c-4.84,2.63-7.36,6.37-9.32,10.55c-0.55,1.18-1.29,1.58-2.49,0.97c-1.41-0.71-2.82-1.42-4.49-2.27
			c3.43-5.06,7.67-8.57,12.93-10.77C189.49,343.55,190.67,344.6,192.22,345.33z"/>
		<path d="M131.96,259.82c-1.34-3.64-3.46-6.26-7.37-7.38c3.97-1.11,6.22-3.69,7.07-7.65c1.04,1.79,1.72,3.63,2.97,4.9
			c1.22,1.24,3.04,1.89,4.75,2.89C135.57,253.51,132.9,255.73,131.96,259.82z"/>
		<path d="M300.14,244.92c1.01,4.1,3.67,6.33,7.66,7.35c-5.34,2.65-5.34,2.65-7.8,7.63c-0.95-3.99-3.4-6.29-7.6-7.5
			C296.52,251.07,299.31,249.06,300.14,244.92z"/>
		<path d="M163.28,134.42c2.43-0.04,4.44,1.89,4.49,4.32c0.05,2.42-1.92,4.45-4.34,4.47c-2.37,0.02-4.35-2.01-4.36-4.46
			C159.07,136.37,160.92,134.46,163.28,134.42z"/>
		<path d="M272.71,138.81c0.05,2.39-1.78,4.36-4.12,4.44c-2.31,0.08-4.49-2.03-4.5-4.36c-0.01-2.33,1.88-4.31,4.2-4.41
			C270.72,134.38,272.65,136.27,272.71,138.81z"/>
		<path d="M251.41,242.55c-0.05,2.26-1.85,4.1-4,4.09c-1.91-0.01-3.17-1.29-3.13-3.2c0.04-2.33,1.79-4.02,4.05-3.93
			C250.21,239.6,251.45,240.82,251.41,242.55z"/>
		<path d="M279.71,104.47c-1.58-0.71-3.15-1.43-4.74-2.12c-3.64-1.6-7.29-3.2-10.88-4.92c5.38,1.93,10.83,3.73,15.58,7.09
			C279.68,104.51,279.71,104.47,279.71,104.47z"/>
	</g>
</g>
</svg>
