<?xml version="1.0" encoding="utf-8"?>
<!-- Generator: Adobe Illustrator 24.1.1, SVG Export Plug-In . SVG Version: 6.00 Build 0)  -->
<svg version="1.1" id="Layer_1" xmlns="http://www.w3.org/2000/svg" xmlns:xlink="http://www.w3.org/1999/xlink" x="0px" y="0px"
	 viewBox="61 67 309 297" style="enable-background:new 0 0 432 432;" xml:space="preserve">
<g>
	<g fill="FRAME_COLOR">
		<path d="M226.57,338.02c9.42,2.96,17.48,7.21,23.55,14.7c-3.24,2.44-4.65,2.47-7.17-0.05c-7.22-7.23-15.95-11.45-26.01-12.69
			c-2.39-0.3-4.99,0.48-7.4,1.11c-7.62,1.97-14.38,5.57-20.02,11.15c-2.82,2.78-3.56,2.84-7.55,0.85
			c5.87-7.63,13.91-11.8,22.95-15.12c-16.86-2.3-32.53-7.07-47.26-14.74c0.53-2.34,1.58-2.58,3.4-1.67
			c11.65,5.8,23.9,9.84,36.78,11.74c21.59,3.19,42.6,0.89,62.94-7.13c10.22-4.03,20.06-8.78,29.18-14.99
			c14.66-9.97,26.35-22.66,35.45-37.85c9.06-15.12,14.73-31.39,16.64-48.88c1.84-16.8-0.06-33.35-5.51-49.28
			c-13.08-38.24-38.88-64.08-76.99-77.57c-2.84-1.01-5.76-1.81-8.68-2.57c-2.91-0.76-5.87-1.34-8.74-2.4
			c3.31,0.63,6.66,1.1,9.91,1.93c14.16,3.6,27.39,9.38,39.32,17.83c14.82,10.49,26.92,23.5,35.97,39.36
			c11.79,20.65,17.71,42.78,16.99,66.51c-0.68,22.37-7.72,42.77-19.92,61.55c-9.36,14.4-21.07,26.34-35.49,35.52
			c-17.19,10.94-35.8,18.43-56,21.7C230.96,337.33,229.02,337.64,226.57,338.02z"/>
		<path d="M190.53,92.71c-42.12,8.9-73.47,31.94-90.57,71.54c-17.06,39.5-13.32,78.16,10.15,114.57c-1.89,1.02-2.76,0.14-3.62-1.14
			c-9.7-14.53-15.45-30.59-17.65-47.8c-3.22-25.14,0.99-49.19,12.49-71.78c12.89-25.32,32.07-44.31,58.05-56.22
			c9.31-4.27,19.01-7.24,29.1-8.96C189.15,92.81,189.85,92.78,190.53,92.71z"/>
		<path d="M125.58,307.42c0,3.09,0,5.57,0,8.05c0.08,0.02,0.16,0.04,0.25,0.06c0.37-2.43,0.74-4.86,1.11-7.28
			c0.17,0.01,0.34,0.01,0.52,0.02c0.35,2.37,0.7,4.74,1.04,7.11c0.09,0.01,0.19,0.01,0.28,0.02c0-2.53,0-5.05,0-7.58
			c2.94,2.84,5.03,6.11,6.07,9.88c1.45,5.27,0.92,10.46-2.64,14.76c-4.09,4.94-5.96,4.61-9.81,0.01c-3.25-3.88-3.71-8.54-2.85-13.35
			C120.32,314.8,122.88,311.39,125.58,307.42z"/>
		<path d="M132.45,301.41c2.97-1.38,5.76-2.67,8.54-3.96c-0.07-0.17-0.14-0.33-0.22-0.5c-2.65,0.99-5.31,1.97-7.96,2.96
			c-0.07-0.11-0.14-0.22-0.22-0.33c2.11-1.71,4.23-3.41,6.34-5.12c-0.1-0.14-0.21-0.29-0.31-0.43c-2.34,1.56-4.69,3.11-7.03,4.67
			c-0.09-0.11-0.26-0.23-0.24-0.3c2.12-8.55,7.71-14.11,15.57-15.12c2.09-0.27,4.35,0.01,6.43,0.49c2.91,0.68,3.62,2.03,3.16,4.95
			c-0.7,4.49-3.02,7.96-6.79,10.43C145.43,301.96,136.92,303.11,132.45,301.41z"/>
		<path d="M115.87,294.47c2.25,1.8,4.5,3.61,6.75,5.41c-0.06,0.11-0.13,0.22-0.19,0.33c-2.7-0.97-5.4-1.94-8.1-2.91
			c-0.07,0.16-0.13,0.32-0.2,0.48c2.62,1.25,5.24,2.5,8.21,3.91c-0.75,0.3-1.16,0.59-1.56,0.6c-4.44,0.05-8.88-0.1-13.03-1.95
			c-5.08-2.26-8.33-6.11-9.41-11.62c-0.54-2.78,0.27-4,2.98-4.93c6.07-2.08,14.12,0.59,17.73,6.1c1.82,2.77,3.26,5.79,4.88,8.7
			c-0.14,0.11-0.27,0.22-0.41,0.34c-2.45-1.63-4.9-3.26-7.35-4.88C116.07,294.19,115.97,294.33,115.87,294.47z"/>
		<path d="M132.55,305.05c2.43,1.01,4.85,2.01,7.28,3.02c0.1-0.19,0.2-0.38,0.31-0.56c-1.14-0.64-2.26-1.32-3.43-1.92
			c-1.22-0.63-2.47-1.18-3.96-1.88c6.53-2.16,16.66,0.61,20.63,5.45c1.74,2.12,2.85,4.51,2.95,7.29c0.09,2.45-0.76,3.81-3.06,4.72
			c-2.94,1.17-5.95,0.95-8.89,0.04c-4.47-1.38-8.03-4.01-10.36-8.12c-1.15-2.03-2.17-4.15-3.24-6.23c0.15-0.15,0.3-0.29,0.45-0.44
			c2.65,1.69,5.3,3.37,7.94,5.06c0.12-0.17,0.24-0.35,0.36-0.52c-2.44-1.84-4.88-3.68-7.32-5.53
			C132.31,305.3,132.43,305.18,132.55,305.05z"/>
		<path d="M129.02,297.75c0-2.32,0-4.64,0-6.96c-0.17,0-0.34-0.01-0.51-0.01c-0.3,2.15-0.59,4.31-0.89,6.46
			c-0.21,0.01-0.42,0.01-0.63,0.02c-0.34-2.01-0.69-4.03-1.03-6.04c-0.12,0.01-0.23,0.02-0.35,0.03c0,2.13,0,4.27,0,6.4
			c-0.2,0.2-0.41,0.4-0.61,0.6c-0.16-0.46-0.23-0.98-0.5-1.37c-2.96-4.34-5.52-8.82-5.39-14.32c0.12-4.57,2.17-8.17,5.52-11.17
			c1.64-1.47,3.1-1.5,4.83-0.12c3.69,2.94,5.65,6.71,5.91,11.4c0.33,5.93-2.88,10.46-5.65,15.17
			C129.49,297.81,129.26,297.78,129.02,297.75z"/>
		<path d="M122.37,303.89c-3.14,1.39-5.82,2.58-8.51,3.78c0.08,0.2,0.16,0.4,0.24,0.6c2.78-1.03,5.56-2.06,8.34-3.1
			c0.08,0.13,0.16,0.25,0.23,0.38c-2.18,1.66-4.37,3.32-6.55,4.98c0.1,0.16,0.2,0.31,0.29,0.47c2.43-1.49,4.86-2.99,7.57-4.65
			c-3.47,10.21-11.43,17.43-21.87,14.94c-2.93-0.7-3.91-2.35-3.45-5.31c0.7-4.46,3.11-7.8,6.99-10
			C110.75,303.09,116.22,302.76,122.37,303.89z"/>
		<path d="M262.77,81.85c10.47,1.09,17.88,10.66,15.24,19.51C268.76,99.35,261.53,90.16,262.77,81.85z"/>
		<path d="M154.38,101.18c-3.35-7.85,4.51-18,14.88-19.22C170.95,90.52,163.73,98.96,154.38,101.18z"/>
		<path d="M295.96,112.61c-8.95-4.48-13.69-14.87-10.12-21.94C294.76,92.62,300.66,105.29,295.96,112.61z"/>
		<path d="M326.91,280c3.38-5.95,7.62-10.25,14.35-11.08c2.03-0.25,4.16,0.21,6.22,0.54c0.41,0.07,1.07,1.12,0.95,1.53
			c-2.01,6.76-10.53,11.85-17.32,10.4C329.75,281.09,328.46,280.52,326.91,280z"/>
		<path d="M323.55,308.12c-5.63,8.52-17.14,9.44-22.76,1.82C305.56,303.31,318.86,302.24,323.55,308.12z"/>
		<path d="M264.61,330.34c7.97-5.07,19.77-2.75,23.5,4.49C281.96,341.01,269.65,338.71,264.61,330.34z"/>
		<path d="M268.03,344.06c-8.34,4.85-19.27,1.48-23.04-7.23C253.45,332.68,265.48,336.46,268.03,344.06z"/>
		<path d="M136.29,112.41c-4.45-7.43,0.54-18.42,9.85-21.72C150.33,97.03,145.09,108.58,136.29,112.41z"/>
		<path d="M314.81,296.31c5.16-7.83,16.42-11.22,22.45-6.75C333.04,299.23,320.9,302.3,314.81,296.31z"/>
		<path d="M257.18,93.18c-8.26,1.06-17.4-6.95-17.47-15.31C248.26,75.3,258.84,84.58,257.18,93.18z"/>
		<path d="M167.59,330.45c-4.42,8.12-15.2,10.34-23.14,4.75C146.34,328.08,160.49,325.17,167.59,330.45z"/>
		<path d="M186.96,336.93c-3.14,7.81-13.98,12.49-22.57,7.2C167.3,336.31,179.21,332.51,186.96,336.93z"/>
		<path d="M83.29,270.03c7.36-3.64,16.8,0.53,21.57,9.37C98.74,284.99,87.49,280.15,83.29,270.03z"/>
		<path d="M336.76,262.35c2.24-7.88,8.47-13.5,15.49-14.12c4.24-0.37,4.7,0.23,3.16,4.15c-2.87,7.32-9.17,11.25-16.65,10.38
			C338.1,262.69,337.44,262.5,336.76,262.35z"/>
		<path d="M337.52,137.82c6.67,6.38,5.45,18.55-2.23,23.35C329.87,153.73,329.96,143.41,337.52,137.82z"/>
		<path d="M120.41,126.18c-6.08-5.67-2.54-18.62,6.14-22.5C131.28,110,128.11,121.63,120.41,126.18z"/>
		<path d="M305.76,103.54c8.89,4.83,12.01,16.56,6.07,22.87C303.81,120.62,300.88,109.59,305.76,103.54z"/>
		<path d="M283.7,321.12c6.5-5.92,18.63-4.95,22.74,1.81C301.04,330.1,289.6,329.19,283.7,321.12z"/>
		<path d="M95.46,262.38c-8.35,2.89-18.31-4.13-19.31-13.47C82.88,245.96,92.74,252.77,95.46,262.38z"/>
		<path d="M175.23,93.41c-2.03-8.49,7.17-16.83,17.21-15.77C193.07,85.17,184.68,92.92,175.23,93.41z"/>
		<path d="M359.81,226.03c0.59,9.8-7.5,18.3-16.19,16.77C342.77,234.65,352.39,224.68,359.81,226.03z"/>
		<path d="M72.5,226.08c7.94-0.7,15.89,7.5,16.31,16.67C80.1,244.41,71.91,236.12,72.5,226.08z"/>
		<path d="M94.75,137.74c6.81,5.68,7.7,15.61,2.17,23.19C89.79,156.8,87.52,145.1,94.75,137.74z"/>
		<path d="M189.74,330.37c-8.28-0.85-14.44-12.06-11.14-20.26C186.58,311.18,193.1,323.03,189.74,330.37z"/>
		<path d="M89.56,180.83c-8.67-4.76-11.29-15.37-5.72-22.71C91.07,161.28,93.86,172.17,89.56,180.83z"/>
		<path d="M323.09,119.68c8.53,7.24,8.03,16.97,2.11,23.16C318.22,137.7,317.11,126.19,323.09,119.68z"/>
		<path d="M85.56,222.13c-8.24,0.26-15.61-10.14-13.25-18.69C79.74,202.59,87.09,212.95,85.56,222.13z"/>
		<path d="M356.25,180.53c4.08,7.54-1.74,19.58-10,20.71C343,192.92,348.44,181.67,356.25,180.53z"/>
		<path d="M86,201.43c-8.6-1.78-13.69-12.44-10.09-20.92C83.43,181.42,88.84,192.5,86,201.43z"/>
		<path d="M342.48,180.79c-3.89-9.59-1.32-19.38,5.86-22.58C353.83,166.52,350.78,177.05,342.48,180.79z"/>
		<path d="M124.77,130.69c6.17-7.1,17.21-7.85,22.57-1.62C141.82,136.77,130.56,137.11,124.77,130.69z"/>
		<path d="M359.95,203.2c1.17,9.9-3.17,17.5-13.11,18.92C344.54,213.89,351.55,203.65,359.95,203.2z"/>
		<path d="M292.26,117.32c-4.59,7.08-15.9,8.13-22.4,2.07C273.69,112.14,287.01,110.91,292.26,117.32z"/>
		<path d="M329.94,259.79c-7.9-4.32-11.61-14.69-7.89-21.82C330.39,239.9,334.55,251.21,329.94,259.79z"/>
		<path d="M336.3,241.14c-8.21-2.42-13.23-11.65-10.94-19.95C334.13,221.93,340.21,232.87,336.3,241.14z"/>
		<path d="M109.21,119.84c5.54,6.16,5.05,15.14-2.1,23.01C100.45,136.84,101.41,125.94,109.21,119.84z"/>
		<path d="M260.83,324.06c-3.2-8.01,0.51-17.43,8.33-21.41C274.47,309.08,269.57,321.86,260.83,324.06z"/>
		<path d="M319.63,146.22c-5.9,5.56-18.02,2.7-21.96-5.2C304.64,135.87,315.64,138.48,319.63,146.22z"/>
		<path d="M339.64,221.74c-8.83-0.91-15.49-9.01-14.55-17.58C333.26,202.84,341.01,212.1,339.64,221.74z"/>
		<path d="M95.93,241.23c-3.58-8.69,1.67-18.33,10.83-20.11C109.86,228.04,104.75,237.64,95.93,241.23z"/>
		<path d="M320.93,276.81c-7.74-4.68-9.26-15.74-4.77-22.53C323.91,257.48,326.44,269.25,320.93,276.81z"/>
		<path d="M162.39,119.22c-5.24,6.21-17.73,5.09-22.27-2.01C146.05,110.93,157.7,111.98,162.39,119.22z"/>
		<path d="M171.44,324.17c-10.7-4.25-12.15-15.68-8.76-21.39C170.65,305.69,175.16,316.58,171.44,324.17z"/>
		<path d="M307.46,130.66c-5.94,6.4-16.1,5.8-22.38-1.33C290.73,123.06,301.21,123.2,307.46,130.66z"/>
		<path d="M198.5,106.18c-7.29,4.57-17.97,0.95-21.46-7.16C183.82,94.15,195.4,97.96,198.5,106.18z"/>
		<path d="M233.76,106.27c3.5-9.42,14.56-11.07,21.57-7.37C252.1,106.82,241.09,110.63,233.76,106.27z"/>
		<path d="M111.65,276.56c-6.03-6.16-3.73-18.09,4.25-22.09C120.13,259.84,119.88,271.57,111.65,276.56z"/>
		<path d="M134.7,141.06c-4.21,7.84-15.16,10.44-21.82,5.29C115.94,139.19,127,135.57,134.7,141.06z"/>
		<path d="M316.91,170.83c7.35-3.95,17.74,2.31,19.2,11.56C327.57,184.55,318.18,178.9,316.91,170.83z"/>
		<path d="M92.49,221.75c-1.18-9.29,5.71-17.78,14.18-17.65C108.9,211.69,102.01,220.35,92.49,221.75z"/>
		<path d="M252.41,111.91c3.68-7.51,15.63-10.29,22.24-5.17C269.6,114.39,260.25,117.2,252.41,111.91z"/>
		<path d="M339.59,201.57c-7.55,1.97-16.57-5.46-17.15-14.02C329.59,184.46,339.21,192.23,339.59,201.57z"/>
		<path d="M328.95,163.77c-8.15,3.59-17.93-0.59-20.46-8.62C314.9,150.64,327.86,156.05,328.95,163.77z"/>
		<path d="M157.97,106.6c6.48-4.99,18.28-2.12,21.81,5.31C171.63,117.69,160.96,113.3,157.97,106.6z"/>
		<path d="M294.39,305.02c-5.29-6.16-3.57-17.79,3.24-21.96C303.85,288.71,301.81,302.48,294.39,305.02z"/>
		<path d="M309.08,291.59c-6.69-5.08-7.53-17.25-1.65-22.34C314.52,274.1,315.47,286.32,309.08,291.59z"/>
		<path d="M96.29,182.31c1.32-9.09,11.69-15.33,18.92-11.51C113.47,179.05,104.52,184.54,96.29,182.31z"/>
		<path d="M103.12,163.7c2.08-8.11,14.55-13.24,20.39-8.54C119.84,163.63,112.01,167.21,103.12,163.7z"/>
		<path d="M92.81,201.6c0.45-8.57,7.11-14.93,15.09-14.8c1.76,0.03,2.18,0.55,1.7,2.27c-2.2,8.03-7.36,12.42-15.04,12.63
			C94.03,201.72,93.48,201.64,92.81,201.6z"/>
		<path d="M227.61,91.81c-2.02,0.57-4.02,1.2-6.05,1.71c-1.8,0.45-2.91,1.45-3.36,3.31c-0.47,1.94-1.16,3.82-2.07,5.94
			c-0.63-6.97-4.37-10.59-11.42-10.74c0.05-0.21,0.1-0.41,0.15-0.62c1.45-0.48,2.86-1.13,4.35-1.39c3.24-0.56,5.04-2.4,5.69-5.57
			c0.28-1.33,0.8-2.62,1.57-4.12c0.26,7.36,4.91,10.08,11.4,10.92C227.78,91.44,227.7,91.63,227.61,91.81z"/>
	</g>
</g>
</svg>
