<?xml version="1.0" encoding="utf-8"?>
<!-- Generator: Adobe Illustrator 24.1.1, SVG Export Plug-In . SVG Version: 6.00 Build 0)  -->
<svg version="1.1" id="Layer_1" xmlns="http://www.w3.org/2000/svg" xmlns:xlink="http://www.w3.org/1999/xlink" x="0px" y="0px"
	 viewBox="59 54 313 323" style="enable-background:new 0 0 432 432;" xml:space="preserve">
<g>
	<g fill="FRAME_COLOR">
		<path d="M280.89,106.64c0.26-0.18,0.53-0.36,0.79-0.54c6.96-3.29,15.88-0.04,15.88,5.55
			c-1.3-0.54-2.68-1.11-4.06-1.68c-0.84,0-1.69,0-2.53,0.01c-0.42,0.11-0.85,0.23-1.27,0.34c-3.32,1.07-5.65,3.94-5.96,7.37
			c-0.38,4.29,1.09,8,3.66,11.32c3.41,4.41,7.77,7.65,12.68,10.2c0.27,0.18,0.53,0.35,0.8,0.53c0.18,0.03,0.36,0.05,0.53,0.08
			c-0.1-0.13-0.19-0.27-0.29-0.4c-0.17-0.21-0.35-0.42-0.52-0.63c-3.53-4.68-6.8-9.45-5.82-15.79c0.11-0.28,0.22-0.57,0.33-0.85
			c0.19-0.41,0.37-0.83,0.56-1.24c1.82-3.62,5.2-3.73,7.92-1.27c-0.09,2.1-0.17,4.19-0.26,6.29c-1.82,7.81,1.32,13.63,7.33,18.31
			c0.16,0.12,0.33,0.24,0.49,0.36c0.12,0.1,0.25,0.21,0.37,0.31c-0.04-0.19-0.07-0.38-0.11-0.56c-0.1-0.15-0.19-0.3-0.29-0.46
			c-3.41-5.17-5.37-10.72-4.37-17.03c0.66-1.23,1.2-2.56,2.03-3.67c0.67-0.89,1.7-1.52,2.57-2.26c0.8,0.13,1.6,0.25,2.41,0.38
			c-0.29,1.4-0.57,2.81-0.86,4.21c-0.07,0.43-0.13,0.86-0.2,1.29c-0.02,1.25-0.04,2.51-0.06,3.76c0.07,0.57,0.15,1.15,0.22,1.72
			c1.07,3.82,2.13,7.64,3.2,11.46c1.47,2.48,2.95,4.95,4.42,7.43c0.16-0.09,0.33-0.19,0.49-0.28c-0.14-2.55-0.28-5.11-0.42-7.66
			c0.5-3.77,1.56-7.29,4.57-9.9c6.39-4.03,11.68-2.18,13.91,4.86c0.01,0.56,0.02,1.11,0.02,1.67c-0.83,2.25-1.65,4.5-2.48,6.75
			c-2.28,3.76-3.45,7.83-3.38,12.23c-0.31,3.24,0.25,6.34,1.35,9.21c0.99-2.28,1.99-4.56,2.98-6.83c1.53-1.29,3.05-2.58,4.58-3.88
			c3.58-1.1,7.05-0.82,10.42,0.79c0,0.32-0.01,0.64-0.01,0.96c-4.02,1.71-6.7,4.76-8.85,8.47c-4.49,7.73-3.69,20.34-1.3,29.59
			c1.38-7.62,2.07-15.49,10.68-18.79c0.49-0.04,0.97-0.07,1.64-0.12c0.07,10.36-2.04,20.21-5.67,29.78
			c-0.09,0.28-0.18,0.56-0.28,0.83c0.13,0.1,0.26,0.19,0.38,0.29c0.11-0.23,0.22-0.46,0.33-0.69c4.35-3.74,8.39-5.42,12.81-5.18
			c-0.21,1.36-0.31,2.72-0.63,4.02c-1.31,5.34-4.85,9.2-8.59,12.95c-2.87,2.87-5.62,5.85-8.42,8.78c-0.11,0.2-0.22,0.4-0.33,0.6
			c0.3-0.03,0.61-0.06,0.91-0.1c2.5-0.53,4.99-1.21,7.52-1.53c1.02-0.13,2.21,0.38,3.19,0.86c2.37,1.15,2.53,2.25,0.84,4.16
			c-0.68,0.77-1.24,1.65-1.92,2.56c3.14,2.63,4.74,5.73,3.71,9.73c-0.21,0.8-0.53,1.62-1.01,2.28c-0.2,0.28-0.95,0.15-1.45,0.21
			c-0.62-2.23-2.47-2.79-4.37-2.89c-7.53-0.4-13.25,3.15-18.01,8.61c-0.03,0.04,0.09,0.22,0.2,0.48c7.74-2.98,14.92-3.09,20.3,4.55
			c0.14,0.45,0.28,0.9,0.49,1.58c-12.8-0.86-23.84,3.21-33.66,11.36c6.22-0.62,11.52,0.78,13.95,7.16
			c1.28,3.35,1.57,6.83-0.82,10.21c-4.22-7.49-11.01-5.68-17.39-4.97c-2.71,0.3-5.36,1.24-7.91,2.17c2.25,0.37,4.58,0.52,6.75,1.16
			c5.14,1.53,6.19,6.92,2.17,10.51c-2.17,1.94-4.82,2.46-7.62,2.5c-4.3-0.94-8.57-1.99-12.89-2.78c-3.03-0.55-6.13-1-9.48,0.45
			c5,0.75,9.13,2.43,12.22,6.12c-0.13,0.76,1.88,1.33,0.19,2.22c-8.97-0.35-17.95-0.71-26.92-1.05c-1.36-0.05-2.72-0.01-4.07-0.01
			c-0.06,0.21-0.12,0.42-0.18,0.63c4.89,2.67,9.74,5.4,14.68,7.98c1.34,0.7,2.89,1.09,4.4,1.37c3.52,0.66,6.95-1.23,8.45-4.48
			c0.15-0.32,0.36-0.6,0.65-1.08c1.63,3.64,0.43,6.59-1.35,9.46c-7.14,8.87-17.97,8.15-25.67,2.24c-2.6-1.99-4.74-4.58-7.28-6.67
			c-2.25-1.85-4.75-3.37-7.15-5.04c-0.42-0.04-0.83-0.08-1.25-0.12c-0.01,0.08-0.02,0.17-0.03,0.25c0.29,0.11,0.59,0.23,0.88,0.34
			c5.03,3.9,8.45,8.63,7.84,15.39c-0.26,2.95-1.26,5.6-3.43,7.72c-0.66-1.58-1.23-3.2-2-4.72c-0.83-1.65-0.93-3.86-3.17-4.58
			c-0.72,2.96-2.9,5.45-4.76,5.2c-2.04-0.27-3.58-1.29-3.69-5.07c-3.78,0.94-4.99,0.3-6.61-3.71c-0.87-2.16-2.35-3.43-4.68-3.67
			c-2.54-0.26-4.54,0.65-5.92,2.82c-1.77,2.78-1.65,6.69,0.3,9.5c2.63-2.51,5.63-3.31,9.06-1.85c3.19,1.35,4.93,3.96,4.8,7.25
			c-0.09,2.26-1.29,4.47-1.99,6.7c-3.36,3.04-4.99,3.68-9.63,3.84c0.24,1.84,0.81,3.71,0.65,5.53c-0.19,2.15-1.9,3.14-4.01,3.25
			c-0.65,4.56-2.4,6.24-6.06,5.76c-0.45,3.94-2.81,6.56-6.1,8.55c-3.3-1.97-5.61-4.63-6.08-8.58c-3.67,0.65-5.61-1.23-5.88-5.65
			c-4.68-0.62-5.74-4.53-2.98-8.78c-6.07-0.13-10.68-2.29-12.24-8.64c-0.36-3.81,0.68-7.01,4.29-8.83c3.51-1.77,6.84-1.51,9.63,1.55
			c2.61-3.71,1.71-9.07-1.82-11.53c-3.17-2.21-7.29-0.92-8.63,2.7c-1.54,4.17-2.18,4.56-6.59,4.03c0.04,2.92-0.98,4.41-3.32,4.87
			c-1.74,0.34-3.57-1.13-4.42-3.53c-0.22-0.63-0.54-1.23-0.93-2.1c-2.3,2.66-2.96,5.72-3.97,8.63c-0.33,1.31-1.05,1.28-1.54,0.23
			c-1.05-2.24-1.92-4.56-2.87-6.86c-0.42-7.55,3.55-12.53,9.61-16.37c-0.8,0.05-1.58,0.12-2.15,0.51c-2.53,1.73-5.24,3.29-7.44,5.39
			c-3.88,3.68-7.63,7.45-12.63,9.62c-0.41,0.15-0.82,0.3-1.23,0.44c-4.3,0.9-8.53,0.85-12.6-1.01c-2.15-1.95-4.61-3.67-6.38-5.92
			c-1.91-2.43-2.47-5.45-1.23-8.54c0.25,0.15,0.63,0.24,0.73,0.45c2.16,4.57,5.32,6.12,10.22,4.7c6.32-1.83,11.56-5.68,16.93-9.45
			c-3.31-0.08-6.55,0.18-9.8,0.3c-6.58,0.25-13.16,0.42-19.74,0.62c-0.15,0-0.3,0.01-0.45,0.01c-0.45-0.02-0.9-0.04-1.36-0.06
			c0.16-0.57,0.33-1.14,0.49-1.71c3.08-3.87,7.19-5.86,12-6.72c-5.22-1.34-10.23-0.35-15.2,1.22c-3.33,0.86-6.65,1.73-10.14,0.76
			c-4.41-1.22-6.62-4.08-6.36-8.37c2.19-5.16,6.97-4.82,11.39-5.32c-5.02-1.68-10.02-3.17-15.36-2.72
			c-0.28,0.01-0.56,0.02-0.84,0.03c-0.85,0.12-1.69,0.24-2.54,0.37c-0.31,0.06-0.62,0.12-0.93,0.18c-1.12,0.58-2.23,1.16-3.35,1.75
			c-0.78,0.97-1.55,1.94-2.47,3.09c-2.39-3.28-2.03-6.78-0.72-10.25c2.02-5.31,5.95-7.27,13.98-7.08
			c-9.99-7.72-20.86-12.18-33.67-11.34c0.09-0.57,0.17-1.03,0.24-1.49c2.19-3.58,5.41-5.56,9.53-6.18
			c4.04-0.61,7.83,0.18,11.45,2.13c0-0.33,0.06-0.52-0.01-0.59c-4.96-5.55-10.75-9.47-18.58-8.99c-1.91,0.12-3.7,0.83-4.28,3.07
			c-0.06,0.23-0.61,0.33-1.04,0.54c-0.57-1.39-1.1-2.68-1.62-3.96c-0.02-0.73-0.04-1.46-0.05-2.19c0.06-0.3,0.12-0.59,0.18-0.89
			c1.13-2.1,2.27-4.21,3.56-6.61c-0.73-0.88-1.84-2.22-2.94-3.56c2-3.98,6.01-4.41,13.91-1.36c-0.29-0.6-0.38-1.04-0.65-1.32
			c-2.31-2.44-4.58-4.94-7.01-7.26c-4.4-4.21-8.58-8.54-9.87-14.8c-0.21-1.01-0.26-2.05-0.41-3.3c5.18-0.27,9.04,2.06,12.61,5.12
			c0.17-0.15,0.33-0.3,0.5-0.45c-3.85-9.52-5.54-19.46-5.75-29.68c0.29-0.05,0.58-0.11,0.87-0.16c0.37,0.09,0.74,0.19,1.11,0.28
			c8.2,3.32,9.03,10.87,10.46,18.14c1.86-7.35,2.78-14.77,1.22-22.25c-1.34-6.42-4.79-11.55-10.52-14.98
			c-0.38-0.18-0.76-0.36-1.14-0.54c1.93-1.88,6.25-2.66,9.59-1.63c5.48,1.69,7.52,6.03,8.4,11.64c1.86-3.83,2.37-7.53,1.67-11.18
			c-0.66-3.47-1.97-6.82-3.1-10.18c-0.44-1.32-1.26-2.5-1.8-3.79c-2.51-6.03,0.04-10.94,6.41-12.4c1.94,0.41,4.18,0.33,5.74,1.33
			c2.89,1.85,4.41,4.99,4.74,8.35c0.33,3.37,0.07,6.79,0.07,10.66c3.54-4.29,5.81-8.74,7.1-13.65c1.14-4.34,2.15-8.74,0.91-13.27
			c-0.02-0.14-0.03-0.28-0.05-0.42c-0.25-1.26-0.51-2.53-0.76-3.79c0.82,0.27,1.64,0.54,2.46,0.8c2.89,1.96,4.48,4.7,4.83,8.17
			c0.02,5.34-1.73,10.12-4.68,14.52c4-0.62,9.41-9.61,8.42-15.05c-0.23-1.64-0.1-3.45-0.77-4.9c-1.05-2.27-0.2-3.79,1.15-5.37
			c0.3-0.16,0.6-0.33,0.9-0.49c3-0.4,4.5,0.21,5.65,2.92c0.69,1.63,1.1,3.52,1.06,5.28c-0.09,4.17-2.06,7.65-4.65,10.82
			c-0.48,0.58-0.91,1.2-1.36,1.81c0.13,0.13,0.27,0.26,0.4,0.39c1.84-1.1,3.76-2.07,5.49-3.32c5.3-3.81,9.77-8.32,11.23-14.98
			c1.38-6.35-3.41-11.95-9.58-11.1c-1.6,0.22-3.06,1.45-4.58,2.21c0.4-1.09,0.58-2.34,1.25-3.23c4.72-6.35,14.63-5.87,18.43,1.04
			c1.27,2.31,1.66,5.12,2.38,7.73c0.17,0.61,0.02,1.3,0.25,1.97c2.09-3.1,2.48-6.64,2.98-10.14c0.08-0.55,0.08-1.13,0.21-1.67
			c0.68-2.85,2.96-3.79,5.43-2.24c0.47,0.29,0.89,0.66,1.1,0.81c2.18-2.3,4.29-4.52,6.4-6.75c0.41,0.51,1.14,1.01,1.17,1.54
			c0.16,3.17,0.15,6.35,0.2,9.52c-0.05,0.27-0.1,0.55-0.16,0.82c-0.24,0.71-0.48,1.42-0.73,2.13c-1.9,4.65-5.17,8.2-8.98,11.32
			c-0.24,0.06-0.49,0.13-0.73,0.19c0.01,0.09,0.03,0.18,0.04,0.26c0.32-0.04,0.64-0.07,0.95-0.11c3.19-1.03,6.34-2.2,9.57-3.05
			c4.13-1.08,8.14-0.61,11.48,2.24c1.07,0.92,2.19,2.46,2.19,3.71c0,0.79-2.06,1.57-3.19,2.35c-1.73,0-3.46,0-5.38,0
			c-0.61,0.64-1.46,1.54-2.3,2.43c-1.85,0.59-3.07-0.56-4.34-1.57c-3.48-2.86-9.66-2.15-14.37,1.7c3.35,0.16,6.63,0.32,9.91,0.47
			c0.13,0.02,0.26,0.05,0.39,0.07c1.14,0.09,2.28,0.17,3.43,0.26c1.83,0.14,3.66,0.28,5.49,0.42c2.11-0.01,4.22-0.02,6.32-0.02
			c6.75,0.03,14.75-3.31,16.41-6.9c-3.55,0.19-6.02-1.45-7.62-4.51c-0.23-0.85-0.47-1.71-0.7-2.56c-0.01-0.27-0.03-0.54-0.04-0.81
			c0.42-1.54,0.84-3.09,1.25-4.63c2.01-2.67,4.56-4.27,8.01-4.27c3.34,0.01,5.9,1.69,8.38,3.78c-0.25-1.61-0.52-3.13-1.06-4.55
			c-1.38-3.66-3.84-5.3-7.74-5.25c-1.05,0.01-2.09,0.2-3.14,0.32c-0.28,0.03-0.61,0.27-0.8,0.18c-0.99-0.47-2.34-0.82-2.78-1.63
			c-0.3-0.56,0.44-2.35,1.12-2.64c1.89-0.81,3.99-1.12,6.22-1.68c-1.49-0.59-2.91-1.35-4.43-1.71c-5.53-1.32-9.31,1.98-8.7,7.55
			c0.2,1.78-0.49,2.96-1.89,3.88c-3.1,0.29-5.34-0.93-5.92-3.96c-0.41-2.09-0.37-4.53,0.3-6.53c1.97-5.86,8.17-9.2,15.03-8.56
			c0.86,0.08,1.74-0.01,2.61-0.02c0,0-0.03,0.06-0.03,0.06l0.07-0.01c-1.95-1.98-2.48-4.37-2-7.04c1.77-3.91,4.03-5.13,7.36-4.39
			c0.91-1.97,1.5-4.01,2.71-5.59c0.62-0.82,2.33-0.81,3.95-1.29c0.47-2.7,1.95-5.46,4.93-7.18c0.48-0.28,1.11-0.3,1.67-0.45
			c2.05,1.62,4.16,3.2,4.97,5.87c0.1,0.27,0.2,0.53,0.29,0.8c0,0.38,0,0.75,0.01,1.13c0.07,0.25,0.14,0.5,0.22,0.75
			c0.21-0.11,0.42-0.23,0.63-0.34c0.03-0.13,0.01-0.26-0.08-0.36c0.83,0.12,1.65,0.23,2.48,0.35c2.72,1.16,2.8,3.71,3.1,6.09
			c6-0.09,8.56,2.42,7.91,8.01c-0.02,0.13,0.06,0.27,0.09,0.41c-0.28,0.7-0.56,1.41-0.83,2.11c-0.26,0.39-0.53,0.77-0.89,1.31
			c0.66-0.11,1.17-0.19,1.69-0.28c1.26,0.04,2.53,0.07,3.79,0.11c4.71,0.68,8.62,2.64,11.12,6.9c0.12,0.21,0.45,0.3,0.67,0.45
			c0.67,2.76,1.41,5.51,0.24,8.34c-1.03,2.49-3.2,3.9-5.36,3.41c-1.9-0.43-2.56-1.82-2.35-4.93c0.23-3.4-1.18-5.42-4.4-6.42
			c-3.38-1.06-6.26,0.15-9.18,1.92c0.3,0.24,0.56,0.45,0.82,0.66c0,0.25,0,0.5,0,0.75c-2.27,0.56-4.17,1.65-5.44,3.68
			c0.12,0.45,0.25,0.89,0.37,1.34c-2.7,2.25-3.12,5.47-3.68,8.63c0.11,0.19,0.22,0.38,0.33,0.57c0.14-0.21,0.28-0.42,0.42-0.63
			c3.62-4.51,10.31-5.2,14.26-1.46c3.8,3.6,3.46,9.3-0.77,13.28c-1.55,0.49-3.11,0.97-5.28,1.65c2.19,1.34,4.15,2.55,6.12,3.76
			c4.37,2.25,9.09,2.77,13.91,2.77c0.99-0.01,1.98-0.01,2.97-0.02c1.4-0.09,2.81-0.19,4.21-0.28c2.39-0.27,4.78-0.54,7.18-0.81
			c0.28-0.01,0.56-0.02,0.84-0.03c0.28-0.01,0.57-0.02,0.85-0.03c1.26-0.06,2.52-0.13,3.79-0.19c0.28-0.01,0.55-0.02,0.83-0.02
			c0.14,0,0.27,0,0.41,0c0.37,0,0.75,0,1.36,0c-6.06-3.75-11.98-5.61-16.16-0.34c-1.1-0.13-2.2-0.27-3.31-0.4
			c-1.03-1.79-2.46-2.57-4.51-1.79c-1.38-0.21-2.82-0.25-4.14-0.65c-2.12-0.64-2.44-2.09-1.03-3.81c2.88-3.53,6.73-4.98,11.06-4.18
			c3.9,0.72,7.66,2.18,11.49,3.31c0.17,0.02,0.34,0.05,0.51,0.07c-0.07-0.14-0.15-0.27-0.22-0.41c-4.84-3.85-8.47-8.52-9.86-14.69
			c-0.09-0.43-0.17-0.87-0.26-1.3c-0.02-0.27-0.05-0.54-0.07-0.81c-0.01-0.98-0.03-1.97-0.04-2.95c0.04-0.55,0.07-1.1,0.11-1.65
			c0.33-1.31,0.66-2.62,1.11-4.41c1.78,1.66,3.24,3.02,4.7,4.38c1.02,1.54,1.89,3.47,4.24,1.69c2.16-0.64,3.73,0.04,4.67,2.1
			c-0.15,4.6,1.46,10.74,3.34,12.69c0.16-5.64,0.71-7.58,3.32-11.68C279.7,107.82,280.29,107.23,280.89,106.64z M289.92,283.16
			c0.08-0.24,0.16-0.48,0.24-0.72c-0.18,0.12-0.36,0.24-0.54,0.36c-0.15,0.14-0.29,0.27-0.44,0.41c-0.23,0.09-0.46,0.17-0.69,0.26
			c0.03,0.1,0.07,0.19,0.1,0.29c0.28-0.1,0.57-0.19,0.85-0.29C289.6,283.37,289.76,283.26,289.92,283.16z M132.72,277.88
			c0.12,0.08,0.24,0.16,0.36,0.25c-0.01-0.17-0.01-0.34-0.02-0.51c-0.13-0.14-0.26-0.28-0.38-0.43c-0.12-0.13-0.24-0.27-0.36-0.4
			c-0.43-0.55-0.88-1.09-1.3-1.65c-5.55-7.52-9.69-15.59-9.61-25.25c0.02-2.14-1.48-4-3.68-4.35c-2.13-0.34-3.29,0.98-3.93,2.75
			c-1.29,3.57-0.98,7.05,1.08,10.27c4.57,7.15,10.25,13.31,16.9,18.58c0.16,0.12,0.32,0.24,0.48,0.37
			C132.4,277.64,132.56,277.76,132.72,277.88z M130.58,139.37c-0.12,0.12-0.24,0.24-0.36,0.35c0.21-0.03,0.42-0.06,0.63-0.09
			c0.07-0.22,0.15-0.44,0.22-0.67C130.91,139.11,130.75,139.24,130.58,139.37z M158,125.87c-0.23,0.07-0.47,0.15-0.7,0.22
			c0.02,0.09,0.05,0.18,0.07,0.27c0.29-0.07,0.59-0.15,0.88-0.22c0.15-0.09,0.3-0.18,0.44-0.27c3.91-2.27,7.58-4.85,10.18-8.64
			c2.96-4.31,4.11-9.05,2.99-14.91c-2.19,2.83-4.04,5.23-5.96,7.7c-0.22-0.51-0.28-1.01-0.56-1.24c-0.84-0.7-1.78-1.3-2.67-1.94
			c-0.53,0.82-1.43,1.59-1.52,2.46c-0.48,4.59-1.81,8.91-3.75,13.06c-0.03,0.17-0.06,0.33-0.09,0.5c0.13-0.07,0.26-0.15,0.4-0.22
			c0.43-0.44,0.85-0.87,1.28-1.31c0.24,0.19,0.48,0.37,0.73,0.56c0.16-0.34,0.31-0.68,0.47-1.02c0.29-0.13,0.58-0.26,0.87-0.39
			c0,0-0.02,0.02-0.02,0.02c0.15-0.3,0.3-0.59,0.45-0.89l-0.03,0.04c0.56-0.37,1.22-0.65,1.65-1.13c1.39-1.54,2.69-3.16,4.03-4.75
			c0.14,0.1,0.29,0.2,0.43,0.3c-0.47,0.75-0.86,1.56-1.42,2.23c-2.56,3.06-5.18,6.08-7.77,9.11
			C158.26,125.56,158.13,125.72,158,125.87z M273.43,126.15c0.15,0.2,0.3,0.39,0.45,0.59c0.08-0.05,0.15-0.09,0.23-0.14
			c-0.13-0.23-0.26-0.45-0.39-0.68c-0.18-0.21-0.35-0.42-0.53-0.64c-3.49-4.23-7.71-7.92-9.75-13.27c2.33,2.84,4.65,5.69,6.98,8.53
			c0.13-0.1,0.25-0.2,0.38-0.29c0-0.21,0-0.41,0-0.62c0.31-0.03,0.63-0.05,0.94-0.08c0.41,0.65,0.83,1.3,1.24,1.95
			c-0.18,0.16-0.36,0.32-0.54,0.48c0.05,0.04,0.09,0.08,0.14,0.12c0.14-0.18,0.29-0.36,0.43-0.54c0.21,0.16,0.42,0.32,0.63,0.47
			c-0.17,0.16-0.34,0.33-0.51,0.5c0,0,0.07,0.08,0.1,0.12c0.16-0.18,0.32-0.36,0.47-0.53c0.21,0.22,0.41,0.44,0.64,0.68
			c0.07-0.18,0.19-0.34,0.15-0.42c-2.08-4.62-3.56-9.4-4.17-14.46c-0.16-1.3-1.35-1.39-2.27-0.62c-0.86,0.72-1.54,1.66-2.18,2.37
			c-1.82-2.26-3.64-4.53-5.47-6.8c-0.27,0.13-0.54,0.26-0.81,0.39c0.14,2.42,0,4.9,0.48,7.25c1.49,7.25,6.52,11.69,12.64,15.17
			C272.95,125.82,273.19,125.99,273.43,126.15z M337.4,244.57c0.08-0.05,0.16-0.12,0.22-0.19c1.39-1.01,2.77-2.02,4.16-3.03
			c0.17,0.29,0.34,0.58,0.51,0.88c-1.21,1.18-2.43,2.36-3.64,3.54c0.06,0.17,0.11,0.35,0.17,0.52c0.09-0.15,0.17-0.3,0.26-0.44
			c0.4-0.11,0.82-0.17,1.2-0.34c5.34-2.34,10.73-3.78,16.45-0.73c0.61-3.11-0.38-5.51-2.57-7.29c-1.56-1.26-1.47-2.36-0.36-3.7
			c0.71-0.86,1.44-1.7,2.17-2.54c-4.53-4.1-14.34,0.9-17.73,9.3c2.63-2.02,4.75-4.29,7.36-4.92c-2.65,2.66-5.48,5.51-8.31,8.35
			c-0.1,0.17-0.19,0.34-0.29,0.51c-0.31,0.36-0.62,0.72-0.93,1.08c0.14,0.1,0.28,0.19,0.42,0.29
			C336.79,245.43,337.09,245,337.4,244.57z M145.94,272.76c0.11-0.11,0.22-0.22,0.33-0.33c0.85,0.42,1.69,0.85,2.54,1.27
			c0.14,0.11,0.28,0.22,0.42,0.34c0.42,0.59,0.85,1.18,1.27,1.77c0.1,0.11,0.2,0.22,0.3,0.33c0.46,0.6,0.92,1.2,1.39,1.81
			c0.09,0.1,0.19,0.2,0.28,0.3c0.75,0.85,1.49,1.71,2.24,2.56c0.14,0.2,0.28,0.4,0.42,0.61c0.12-0.28,0.24-0.56,0.36-0.84
			c0.24-0.38,0.49-0.76,0.57-0.88c3.44,2.3,6.53,5,10.1,6.61c6.75,3.03,13.73,5.58,20.72,8.05c6.67,2.36,13.68,3.89,19.18,8.77
			c0.17,0.16,0.33,0.31,0.5,0.47c0.71,0.59,1.41,1.18,2.12,1.76c0.82,0.85,1.63,1.7,2.45,2.55c0.11,0.22,0.22,0.44,0.33,0.66
			c0.09-0.03,0.17-0.07,0.26-0.1c-0.06-0.29-0.12-0.58-0.17-0.87c-0.07-0.21-0.13-0.42-0.2-0.63c0.24,0,0.48,0,0.73-0.01
			c0.42,0.12,0.84,0.23,1.26,0.35c-0.02-0.4-0.03-0.79-0.05-1.19c0.06-2.66-1.69-4.23-3.44-5.83c-0.22-0.2-0.19-0.67-0.27-1.01
			c0.9,0.46,1.8,0.92,3.02,1.54c0.45-1.95,0.87-3.79,1.29-5.64c1.14-1.21,2.29-1.88,3.51-0.08c0.08,0.11,0.39,0.06,0.59,0.09
			c0.38,2.05,0.75,4.11,1.12,6.09c1.43-1.5,1.44-1.5,2.68-1.1c-3.2,2.43-3.65,5.86-3.58,9.65c2.71-2.41,5.31-4.72,7.92-7.03
			c5.51-4.15,11.8-6.52,18.44-8.08c0.29-0.25,0.58-0.49,0.87-0.74c0.75-0.12,1.55-0.12,2.25-0.38c5.52-2.07,11.19-3.84,16.47-6.39
			c3.86-1.87,7.2-4.79,10.78-7.25c0.34-0.01,0.67-0.03,1.01-0.04c0.24,0.29,0.48,0.59,0.71,0.88c0.1,0.21,0.21,0.43,0.31,0.64
			c0.17-0.21,0.34-0.43,0.52-0.64c0.11-0.31,0.16-0.69,0.36-0.93c2.11-2.52,4.25-5.02,6.39-7.53c0.41-0.09,0.82-0.17,1.23-0.26
			c0.35,0.42,0.7,0.83,1.04,1.25c0.28-0.01,0.56-0.03,0.84-0.04c2.22-3.88,4.53-7.71,6.63-11.66c1.16-2.17,1.96-4.54,2.92-6.81
			c0.72,1.17,1.6,2.28,2.11,3.54c1.54,3.8,0.5,7.55-0.52,11.27c-2.68,4.14-5.36,8.27-8.03,12.41c0.01,0.17,0.03,0.35,0.04,0.52
			c0.21-0.11,0.42-0.21,0.64-0.32c3.09-3.18,6.17-6.35,9.26-9.53c4-5.12,6.59-10.9,7.78-17.26c0.86-4.58,0.71-9.12-2.04-13.17
			c-2.09-3.07-5.2-4.2-8.77-3.96c-2.84,0.19-5.06,1.58-6.31,4.24c-1.13,2.4-0.77,5.51,1.08,6.74c0.91,0.6,2.41,0.89,3.44,0.61
			c1.29-0.35,1.43-1.7,0.99-3.01c-0.41-1.21-0.07-2.08,1.24-2.42c0.25,1.19,0.64,2.16,0.61,3.11c-0.03,1.06-0.45,2.11-0.71,3.17
			c-0.76,0.45-1.52,0.9-2.27,1.35l-0.01-0.01c-0.66-0.07-1.32-0.15-1.99-0.22c-0.23-0.06-0.45-0.12-0.68-0.18
			c-0.31-0.04-0.62-0.09-0.93-0.13c-0.15-0.08-0.3-0.17-0.46-0.25c-0.15-0.06-0.31-0.11-0.46-0.17c-0.27-0.37-0.54-0.75-0.82-1.12
			c-0.4-0.7-0.81-1.39-1.21-2.09c-0.09-0.14-0.19-0.28-0.28-0.42c-0.5-3.4,0.3-6.4,2.77-8.88c1-0.58,2-1.16,3-1.74
			c0.29-0.1,0.58-0.21,0.86-0.31c0.41-0.06,0.83-0.11,1.24-0.17c1.13,0.01,2.26,0.02,3.39,0.03c4.04,0.74,7.08,2.87,9.04,6.5
			c0.42,1.07,0.84,2.14,1.32,3.35c0.38-0.35,0.62-0.59,0.88-0.81c3.18-2.82,7.34-1.86,8.74,2.15c0.49,1.41,0.46,3.01,0.66,4.52
			c-0.03,0.21-0.06,0.41-0.08,0.62c0.18-0.2,0.36-0.4,0.54-0.61c2.98-6.07,1.57-11.35-2.89-16.08c-0.2-0.36-0.55-0.7-0.58-1.08
			c-0.09-1.02-0.46-2.4,0.04-2.98c0.52-0.61,1.94-0.6,2.95-0.56c0.7,0.03,1.37,0.58,2.06,0.89c1.47,2.25,2.94,4.49,4.28,6.54
			c4.26-12.75,6.14-26.17,4.25-39.99c-1.04-7.59-2.72-15.01-6.26-21.88c-0.13-0.28-0.27-0.57-0.4-0.85
			c-2.92-6.63-7.04-12.39-12.74-16.88c-1.99-1.56-4.41-2.57-6.63-3.83c-3.18-1.37-6.41-1.49-9.6-0.17
			c-4.61,1.91-5.74,5.79-5.52,10.49c-0.62-1-0.99-1.95-1.05-2.91c-0.29-5.24,4.39-10.01,9.87-10.3c6.91-0.37,12.1,3.1,16.78,7.53
			c7.82,7.42,12.31,16.77,15.19,27c3.17,11.25,3.66,22.69,2.34,34.25c-0.07,0.42-0.14,0.84-0.21,1.26
			c-0.85,4.08-1.69,8.15-2.54,12.23c-0.18,0.53-0.4,1.05-0.54,1.59c-3.19,12.57-9.91,23.16-18.42,32.72
			c-12.9,14.49-28.79,24.25-47.33,29.81c-4.38,1.31-8.72,2.75-13.28,4.2c0.34,0.22,0.51,0.41,0.65,0.39
			c0.82-0.09,1.64-0.22,2.46-0.34c24.11-3.25,44.12-14.45,60.7-31.88c10.13-10.65,16.86-23.47,21.35-37.39
			c3.77-11.68,4.65-23.66,2.71-35.82c-0.57-2.95-1.14-5.9-1.72-8.85c-1.56-6.43-3.92-12.52-7.44-18.14
			c-1.66-2.41-3.32-4.83-4.98-7.24c-0.6-0.71-1.19-1.43-1.79-2.14c-5.57-6.59-12.32-11.3-20.99-12.68
			c-5.15-0.82-10.28-0.63-14.75,2.57c-5.01,3.58-6.06,10.81-2.41,15.73c3.45,4.64,10.48,5.51,15.23,1.8
			c0.94-0.73,1.6-1.82,2.38-2.74c-0.15-0.13-0.3-0.26-0.45-0.39c-0.44,0.18-0.87,0.38-1.32,0.54c-1.89,0.69-3.61,0.43-5.03-1.04
			c-1.39-1.43-1.41-3.19-0.79-4.92c1.16-3.25,5.63-4.72,8.74-1.98c1.55,1.75,1.89,3.75,1.39,5.99c-0.88,3.95-3.42,6.41-7.01,7.96
			c-4.03,1.23-7.91,0.84-11.64-1.09c-3.08-2.16-4.75-5.22-5.55-8.82c0-7.88,3.05-12.7,9.71-15.03c1.75-0.61,3.66-0.8,5.58-1.21
			c-7.72-1.22-17.23,0.36-20.53,9.43c-0.65,1.79-2.14,3.16-4.42,2.85c-0.95-0.65-1.91-1.31-2.89-1.98c-2.11,1.52-4.21,3.03-6.5,4.69
			c-0.17-1.04-0.47-1.93-0.43-2.8c0.09-2.02,0.34-4.03,0.53-6.05c0.98-1.41,1.95-2.82,2.93-4.23c1.73-1.1,3.46-2.19,5.19-3.29
			c-2.68-0.31-5.26-0.22-7.83-0.02c-0.56,0.04-1.09,0.49-1.63,0.74c-1.64-0.07-3.29-0.11-4.93-0.22
			c-5.57-0.36-11.22-0.26-16.67-1.28c-3.62-0.67-6.95-2.94-10.41-4.5c-1.52-1.35-3.04-2.7-4.57-4.05c-1.68-1.94-3.37-3.88-5.05-5.81
			c-0.21,0.13-0.42,0.26-0.64,0.39c1.42,2.49,2.84,4.99,4.26,7.48c-0.26,0.24-0.51,0.49-0.77,0.73c-1.06-1.53-2.12-3.06-3.18-4.59
			c-0.2-0.43-0.4-0.86-0.6-1.3c-0.11,0.04-0.22,0.07-0.33,0.11c0.06,0.42,0.12,0.85,0.19,1.27c0.72,2.13,1.44,4.25,2.16,6.38
			c1.27,1.12,2.54,2.24,3.81,3.36c-0.48,0.19-1.11,0.68-1.41,0.53c-1.26-0.67-2.42-1.53-3.61-2.32c-0.88-1.64-1.76-3.28-2.57-4.78
			c-0.91,1.53-1.78,2.99-2.64,4.45c-0.4,0.49-0.8,0.99-1.2,1.48c-0.45,0.31-0.91,0.62-1.36,0.93c-0.8,0.02-1.6,0.05-2.4,0.07
			c1.28-1.25,2.57-2.49,3.85-3.74c1.51-2.18,2.41-4.54,2.06-7.25c0.11-0.09,0.22-0.17,0.31-0.27c0.01-0.02-0.1-0.14-0.15-0.21
			c-0.04,0.17-0.08,0.35-0.12,0.52c-1.16,1.61-2.32,3.22-3.47,4.83c-0.5,0.39-1,0.78-1.5,1.17c-0.1-0.11-0.21-0.23-0.31-0.34
			c0.42-0.62,0.86-1.23,1.27-1.86c1.1-1.69,2.86-3.1,2.7-5.5c-4.04,3.44-7.92,6.74-11.81,10.04c-0.41,0.06-0.82,0.13-1.23,0.19
			c-0.42,0.24-0.85,0.48-1.27,0.72c-1.55,0.57-3.09,1.15-4.64,1.72c-0.11,0.08-0.22,0.16-0.34,0.24c-1.26,0.32-2.53,0.65-3.79,0.97
			c-0.22-0.11-0.45-0.33-0.67-0.33c-5.01,0.12-10.02,0.27-15.03,0.42c-3.9-0.37-7.79-0.74-11.69-1.11c1.83,2.07,3.69,3.64,5.53,5.22
			c2.08,1.79,2.62,4.31,3.21,6.8c-0.15,1.68-0.3,3.35-0.45,5.03c-1.95-1.29-3.9-2.58-5.85-3.87c-1.72-2.05-2.1,0.48-3.09,0.91
			c-0.74,0.06-1.49,0.19-2.23,0.18c-2.3-0.02-2.38-2.34-3.55-3.53c-0.4-0.76-0.8-1.52-1.21-2.28c-1.26-1.33-2.51-2.66-3.77-3.99
			c-4.27-2.76-8.98-3.03-13.91-2.32c4.77,0.49,8.65,2.58,11.73,6.18c3.03,4.61,3.89,9.59,1.1,14.44c-4.7,8.16-15.23,7.72-20.17,2.64
			c-2.95-3.02-3.56-7.08-1.6-10.79c2.75-2.22,5.47-2.3,7.74-0.21c1.75,1.62,2.13,4.21,0.9,6.13c-1.25,1.94-3.39,2.54-5.73,1.61
			c-0.49-0.2-1-0.36-1.74-0.62c3.01,4.72,7.21,6.5,12.2,5.23c3.82-0.96,6.49-3.3,7.53-7.17c1.07-3.98,0.25-7.51-2.6-10.65
			c-3.32-3.66-7.66-4.48-12.16-4.5c-9.74-0.06-17.35,4.59-23.88,11.39c-1.85,2.19-4,4.19-5.52,6.59
			c-14.09,22.25-16.33,46.02-7.8,70.64c6.72,19.4,18.68,35.09,35.43,47.29c14.21,10.35,29.98,16.24,47.16,18.87
			c0.38,0.06,0.81-0.18,1.22-0.28c-0.65-0.58-1.3-0.79-1.95-1c-6.79-2.24-13.62-4.36-20.37-6.74
			c-23.85-8.41-54.93-34.99-59.43-71.58c-2.74-22.3,0.12-43.14,14.55-61.31c2.24-2.01,4.37-4.17,6.75-6
			c3.53-2.72,7.58-4.22,12.11-4.1c5.91,0.15,10.75,4.98,10.35,10.43c-0.08,1.17-0.72,2.31-1.11,3.46c-0.24-0.05-0.47-0.11-0.71-0.16
			c1.28-3.19,0.96-6.21-1.37-8.65c-3.23-3.38-7.27-3.89-11.63-2.55c-1.85,0.8-3.85,1.36-5.51,2.44
			c-6.74,4.37-11.24,10.66-14.77,17.73c-6.77,13.58-8.74,28.03-7.43,42.99c0.62,7.11,2.06,14.08,4.85,21.09
			c0.28-0.82,0.45-1.32,0.62-1.82c0.85-2.55,2.22-4.72,4.77-5.85c1.29-0.57,2.97-1.25,3.77,0.27c0.47,0.9,0.04,2.54-0.48,3.61
			c-0.73,1.49-2.04,2.68-2.88,4.13c-2.36,4.08-2.35,8.2,0.12,12.56c0.45-3.48,0.79-6.82,4.45-8.14c2.43-0.88,4.36,0.19,5.67,1.63
			c1.73-2.35,3.5-4.73,5.26-7.12c0.75-0.43,1.49-0.87,2.24-1.3c2.02-0.37,4.04-0.73,6.07-1.1c2.55,0.47,4.86,1.41,6.69,3.31l-0.01,0
			c0.3,0.43,0.59,0.85,0.89,1.28c0.17,0.4,0.35,0.79,0.52,1.19c0.11,0.29,0.21,0.57,0.32,0.86c-0.1,1.67,0,3.38-0.35,4.99
			c-0.51,2.4-1.81,3.68-4.78,4.2c-2.48,0.44-3.82-0.95-4.81-2.93c0.15-0.89,0.33-1.77,0.43-2.66c0.05-0.43,0.08-1.08-0.16-1.27
			c-0.3-0.23-1.08-0.3-1.32-0.08c-1,0.92-2.3,1.83-2.7,3.02c-0.65,1.93-0.69,4.06-0.98,6.11c-0.04,1.26-0.07,2.52-0.11,3.77
			c-2.05-3.58-1.35-10,1.49-12.74c0.63-0.61,1.48-1.11,2.32-1.36c2.06-0.6,3.45,0.96,3.02,3.04c-0.17,0.83-0.05,2.12,0.49,2.59
			c0.58,0.52,2.04,0.74,2.66,0.36c1.1-0.69,2.25-1.79,2.69-2.98c1.27-3.43-0.83-7.1-4.47-8.3c-5.46-1.81-11.12,1.49-12.74,7.56
			c-1.38,5.17-0.36,10.15,1.42,15.06c3.35,9.24,9.56,16.29,17.26,22.28c-5.84-6.6-11.09-13.47-10.32-22.96
			c0.45-1.51,0.91-3.03,1.36-4.54c0.17-0.22,0.33-0.45,0.5-0.67c0.4-0.29,0.81-0.57,1.21-0.86c1.89,6.64,4.57,12.62,8.69,17.91
			c0.34,0.55,0.68,1.1,1.1,1.78C145.48,273.56,145.71,273.16,145.94,272.76z M323.45,151.69c0.28,0.83,0.55,1.66,0.83,2.49
			c0.17-0.05,0.33-0.09,0.5-0.14c-0.06-0.79-0.12-1.58-0.18-2.36c-0.02-0.28-0.05-0.55-0.07-0.83c-0.03-0.29-0.06-0.58-0.1-0.86
			c-0.01-0.41-0.02-0.83-0.04-1.24c0.01-0.44,0.03-0.87,0.04-1.31c0.38-1.96,0.75-3.92,1.13-5.89c0.14,0,0.28,0.01,0.42,0.01
			c-0.01,3.21-0.15,6.43,0.04,9.63c0.1,1.7,0.75,3.37,1.15,5.05c0.44-1.74,0.37-3.36,0.46-4.96c0.09-1.67,0.2-3.37,0.57-5
			c0.33-1.45,1.02-2.83,1.55-4.24c-1.46,10.82-1.25,15.83,1.49,20.1c-0.76-7.27,1.64-13.3,4.84-19.12c0.46-0.84,0.72-1.84,0.85-2.8
			c0.55-4.19-2.46-7.43-6.51-7.06c-2.3,0.21-4.13,1.34-5.52,3.11c-2,2.54-2.51,5.52-2.38,8.67c0.21,1.97,0.43,3.93,0.64,5.9
			C323.25,151.13,323.35,151.41,323.45,151.69z M158.51,147.93l-0.05,0c0.66,1.46,1.32,2.91,1.99,4.37
			c-0.15,0.09-0.3,0.19-0.46,0.28c-1.81-2.69-3.94-4.95-7.23-5.69c-0.24-0.04-0.48-0.09-0.73-0.13c0.16,0.14,0.31,0.27,0.47,0.41
			c1.44,1.78,2.94,3.51,4.3,5.35c0.66,0.89,0.92,2.09,1.62,2.92c0.51,0.6,1.6,1.3,2.17,1.12c0.75-0.24,1.28-1.26,1.81-2.01
			c0.19-0.26,0.12-0.71,0.16-1.06c2.26,1.64,4.37,3.18,6.63,4.81c0.48-5.59-3.09-10.05-9.23-11.91c-0.35-0.14-0.7-0.27-1.05-0.41
			c-0.62-0.17-1.24-0.34-2.07-0.57c0.36,0.88,0.58,1.44,0.81,1.99c-0.06,0.15-0.13,0.3-0.19,0.45
			C157.81,147.87,158.16,147.9,158.51,147.93z M118.57,143.79c4.58-4.94,7.11-16.08,2.54-19.64c0,2.01,0.27,4.12-0.06,6.12
			c-0.74,4.48-1.77,8.9-2.69,13.35c-0.05,0.2-0.11,0.41-0.16,0.61C118.33,144.09,118.45,143.94,118.57,143.79z M179.05,126.51
			c-2.07-0.29-4.14-0.57-6.21-0.86c4.07,2.53,8.19,4.57,13.02,2.52c-1.76-3.66-7.19-5.47-10.76-3.86c1.36,0.6,2.79,1.24,4.23,1.88
			C179.24,126.3,179.15,126.4,179.05,126.51z M313.29,143.71c0.12,0.1,0.25,0.2,0.37,0.3c-0.02-0.18-0.05-0.37-0.07-0.55
			c-2.37-6.31-3.55-12.77-2.38-19.78c-1.9,1.32-2.74,3.03-2.88,4.91C307.89,134.29,309.61,139.34,313.29,143.71z M186.98,314.25
			c-2.03,1.32-4.32,2.37-6.03,4.03c-1.85,1.8-2.36,4.4-1.22,6.83c0.38,0.81,1.85,1.53,2.79,1.49c0.56-0.03,1.6-1.72,1.46-2.49
			c-0.71-3.86,0.56-6.89,3.31-9.46c0.07-0.15,0.13-0.3,0.2-0.45C187.33,314.21,187.16,314.23,186.98,314.25z M220.57,339.36
			c-0.24-0.12-0.47-0.25-0.71-0.37c-0.04,0.08-0.09,0.16-0.13,0.24c0.2,0.14,0.41,0.27,0.61,0.41c1.72,2.4,3.44,4.8,5.16,7.2
			c-0.09,0.11-0.18,0.22-0.28,0.33c-1.59-1.39-3.18-2.77-4.77-4.16c-0.19,0.22-0.39,0.44-0.58,0.67c2.26,2.45,4.44,4.99,6.84,7.28
			c0.54,0.52,2.17,0.6,2.76,0.16c0.64-0.47,1.14-2.03,0.83-2.69c-0.72-1.5-1.8-2.95-3.06-4.05
			C225.16,342.55,222.81,341.02,220.57,339.36z M331.68,258.25c2.34-0.72,4.68-1.44,7.03-2.15c-1.99,1.48-4.15,2.46-6.14,3.72
			c-1.99,1.26-3.81,2.82-5.7,4.24c4.07-1.26,7.88-3.03,11.88-4.1c4.08-1.09,8.34-1.47,12.55-2.17c-0.14-0.16-0.37-0.48-0.66-0.73
			c-5.32-4.53-12.96-4.2-19.26,0.83c-0.23,0.09-0.46,0.18-0.69,0.27c0.02,0.09,0.05,0.17,0.07,0.26
			C331.06,258.36,331.37,258.31,331.68,258.25z M347.6,216.69c1.38-1.35,2.75-2.7,4.13-4.05c0.09,0.12,0.19,0.24,0.28,0.36
			c-3.09,4.49-6.18,8.99-9.27,13.48c0.24,0.18,0.49,0.35,0.73,0.53c6.03-6.74,14.57-11.52,16.72-21.8
			c-7.14,1.25-11.19,5.65-14.24,11.31c-0.68,1.37-1.36,2.75-2.04,4.12c0.15,0.09,0.31,0.17,0.46,0.26
			C345.44,219.5,346.52,218.09,347.6,216.69z M286.98,132.59c0.17,0,0.34,0,0.51,0c-0.07-0.13-0.14-0.27-0.22-0.4
			c-2.57-3.37-4.73-6.89-5.4-11.21c-0.96-6.19,2.61-11.53,8.73-12.81c0.53-0.11,1.05-0.25,1.58-0.38c-1-0.66-2.02-1.11-3.08-1.26
			c-5.88-0.83-10.58,3.31-11.22,9.8C277.15,123.87,281.06,128.79,286.98,132.59z M202.61,88.14c2.04,1.38,4.08,2.75,6.24,4.21
			c-0.99-2.97-3.74-4.52-5.37-6.93c4.08,2.09,6.99,5.38,9.45,9.17c-1.39-5.44-3.96-10.22-8.46-13.59c-1.05-0.79-3.32-0.63-4.71-0.09
			c-1.75,0.68-2.26,2.63-1.93,4.49c0.44,2.44,1.71,4.39,3.77,5.85c2.79,1.98,5.5,4.07,8.24,6.11c0.11,0.22,0.21,0.44,0.32,0.66
			c0.09-0.03,0.17-0.06,0.26-0.1c-0.05-0.29-0.1-0.58-0.15-0.87c-0.42-0.71-0.73-1.54-1.29-2.11c-2.16-2.22-4.4-4.36-6.61-6.54
			C202.46,88.33,202.54,88.24,202.61,88.14z M222.71,96.5c2.65-1.81,5.38-3.51,7.9-5.49c1.26-0.99,2.39-2.37,3.11-3.81
			c1.21-2.42,0.52-5.1-1.25-6.25c-1.89-1.24-4.59-0.8-6.49,1.07c-3.37,3.32-5.44,7.41-6.8,11.92c1.16-1.17,2.07-2.53,3.15-3.74
			c1.17-1.3,2.41-2.57,3.77-3.65c1.22-0.97,2.65-1.68,3.99-2.5c0.1,0.16,0.2,0.32,0.31,0.47c-3.2,2.15-5.92,4.74-7.62,8.31
			c1.66-1.26,3.33-2.53,4.99-3.79c0.06,0.12,0.11,0.24,0.17,0.35c-1.86,2.25-3.72,4.5-5.58,6.75c-0.23,0.11-0.47,0.21-0.7,0.32
			c0.11,0.14,0.22,0.27,0.33,0.41C222.22,96.75,222.47,96.63,222.71,96.5z M80.57,213.59c2.33,2.08,4.66,4.17,6.43,5.76
			c-0.49-5.36-9.07-14.18-14.98-13.87c-0.03,0.18-0.11,0.39-0.08,0.57c0.09,0.48,0.21,0.96,0.34,1.43c1.36,4.7,4.47,8.19,7.9,11.47
			c2.78,2.65,5.5,5.36,8.69,8.48c-1.95-5.51-5.59-9.31-8.59-13.51C80.37,213.8,80.47,213.69,80.57,213.59z M86.19,210.61
			c0.06-0.04,0.12-0.07,0.16-0.12c0.04-0.05,0.07-0.11,0.1-0.16c-0.1,0.1-0.19,0.2-0.29,0.3c0.06-0.54,0.26-1.1,0.17-1.61
			c-0.75-4.29-1.53-8.57-2.33-12.85c-0.48-2.54-1.01-5.07-1.52-7.6c0.22-0.05,0.44-0.1,0.66-0.16c1.55,5.66,3.09,11.32,4.64,16.98
			c0.13-3.51,0.06-6.98-0.6-10.33c-0.68-3.47-1.74-6.9-3.01-10.2c-0.8-2.09-2.63-3.47-5.39-4.27c0.67,4.85,0.88,9.4,1.99,13.71
			C82.21,199.83,84.35,205.19,86.19,210.61z M123.94,293.1c2.35-0.27,4.7-0.53,7.05-0.8c0.02-0.15,0.05-0.3,0.07-0.46
			c-3.89-0.3-7.78-0.6-11.68-0.9c0-0.13,0-0.26,0.01-0.39c3.84,0,7.68,0,11.9,0c-4.12-2.38-10.85-3-14.57-1.53
			c-3.82,1.51-4.34,4.63-1.12,7.22c2.74,2.21,5.92,2.35,9.19,1.58c4.26-1.01,8.51-2.08,12.73-3.12c-4.24-1.16-8.69-1.14-13.16-1
			C124.2,293.52,124.07,293.31,123.94,293.1z M300.68,290.48c3.79,0,7.58,0,11.37,0c0,0.1-0.01,0.21-0.01,0.31
			c-3.42,0.31-6.85,0.63-10.27,0.94c0,0.17,0,0.34,0.01,0.5c2.68,0.37,5.35,0.75,8.03,1.12c-0.02,0.19-0.04,0.38-0.06,0.56
			c-5-0.19-10.04-0.81-14.93,0.83c1.01,0.36,2.04,0.48,3.04,0.72c3.81,0.91,7.58,2.07,11.43,2.72c3.07,0.52,6.06-0.2,8.12-2.88
			c1.76-2.29,1.24-4.82-1.41-5.88c-5.21-2.09-10.33-1.45-15.27,1.09c-0.25,0.02-0.51,0.04-0.13,0.01
			C300.25,290.69,300.46,290.59,300.68,290.48z M210.49,352.18c-0.12-0.12-0.23-0.24-0.35-0.36c1.17-2.56,2.34-5.12,3.51-7.68
			c-2.41,2.32-4.41,4.75-6.49,7.1c-1.3,1.48-1.65,3.06-0.92,4.87c0.69,1.73,2.08,2.1,3.49,0.87c0.93-0.82,1.72-1.8,2.87-3.05
			c-0.24,1.15-0.37,1.88-0.56,2.59c-0.78,2.93,0.16,5.35,2.06,7.57c1.28,1.49,2.4,1.37,3.67,0.03c2-2.1,2.67-4.56,2.17-7.37
			c-0.12-0.67-0.24-1.35-0.45-2.56c0.88,0.98,1.26,1.63,1.82,1.97c0.99,0.59,2.09,0.98,3.15,1.45c0.5-1.31,1.2-2.59,1.42-3.94
			c0.11-0.66-0.58-1.55-1.08-2.19c-1.78-2.26-3.64-4.46-5.5-6.66c-0.15-0.18-0.51-0.18-0.99-0.33c1.3,2.76,2.46,5.24,3.63,7.73
			c-0.18,0.09-0.36,0.19-0.54,0.28c-1.38-1.97-2.76-3.95-4.18-5.96c-0.78,4.2,0.12,8.53-1.05,12.62c-0.26-0.01-0.52-0.02-0.77-0.03
			c-0.2-4.29-0.4-8.58-0.59-12.81C213.34,348.31,211.92,350.24,210.49,352.18z M266.88,307.81c-0.03-0.14-0.06-0.28-0.09-0.42
			c-0.07,0.02-0.13,0.04-0.2,0.05c0.11,0.11,0.22,0.22,0.33,0.33c0.27,0.33,0.48,0.74,0.81,0.99c2.18,1.62,4.4,3.18,6.58,4.81
			c0.3,0.22,0.45,0.65,0.67,0.98c-0.12,0.14-0.25,0.27-0.37,0.41c-3.67-1.82-6.53-5.15-10.64-6.2c1.2,1.27,2.56,2.3,3.86,3.41
			c1.3,1.11,2.55,2.28,3.82,3.42c-0.17,0.19-0.33,0.37-0.5,0.56c-3.43-2.37-6.85-4.74-10.06-6.96c2.49,2.76,4.97,5.73,7.7,8.43
			c1.58,1.56,3.47,2.89,5.42,3.96c7.43,4.06,15.99,2.32,20.33-4.01c0.47-0.69,0.79-1.49,1.18-2.24c-3.04,1.92-6.16,2.38-9.32,1.44
			c-2.8-0.83-5.52-2.03-8.15-3.33c-3.39-1.68-6.64-3.65-9.97-5.44C267.91,307.78,267.36,307.86,266.88,307.81z M136.58,315.35
			c-0.09-0.05-0.18-0.1-0.28-0.15c0.01,0.06,0.02,0.12,0.03,0.18c0.09-0.03,0.18-0.06,0.27-0.08c0.22,0.67,0.3,1.43,0.69,1.98
			c3.42,4.86,8.2,6.93,14.02,6.32c6.16-0.64,15.81-7.66,18.94-14.02c-3.63,2.45-7.26,4.9-10.89,7.35c-0.11-0.18-0.22-0.37-0.33-0.55
			c3.05-2.53,6.1-5.05,9.54-7.9c-3.6,0.45-5.66,2.75-8.14,4.25c-0.31-0.21-0.62-0.42-0.93-0.64c1.9-1.49,3.8-2.98,5.7-4.48
			c-0.08-0.15-0.17-0.3-0.25-0.45c-1.3,0.61-2.63,1.17-3.9,1.85c-3.88,2.1-7.7,4.33-11.62,6.35
			C145.19,317.57,140.86,317.86,136.58,315.35z M219.27,88.87c1.85-2.71,3.85-5.34,5.5-8.17c0.76-1.3,1.11-2.99,1.12-4.51
			c0.01-0.78-0.99-1.89-1.8-2.26c-0.5-0.23-1.58,0.55-2.27,1.05c-0.6,0.44-1.03,1.14-1.53,1.72c-0.36-0.89-0.3-1.54-0.26-2.2
			c0.16-2.52-0.23-4.88-1.96-6.87c-1.63-1.87-2.62-1.9-4.19,0.02c-2,2.45-2.26,5.33-1.87,8.34c-0.18,0.12-0.36,0.24-0.54,0.36
			c-0.37-0.42-0.66-0.97-1.12-1.23c-0.85-0.48-2.11-1.35-2.62-1.06c-0.86,0.5-1.83,1.82-1.76,2.72c0.11,1.58,0.74,3.24,1.57,4.62
			c1.67,2.81,3.61,5.45,5.44,8.16c0.16,0.22,0.32,0.45,0.47,0.67c0.08-0.28,0.17-0.56,0.25-0.85l-0.11-0.04c0,0,0.02-0.12,0.02-0.12
			c0.47-0.31,0.93-0.63,1.4-0.94c0.17-4.6,0.35-9.21,0.52-13.81c0.24,0,0.49,0,0.73,0c0.18,4.58,0.35,9.16,0.53,13.74
			c0.12,0.06,0.24,0.12,0.37,0.18c1.22-2.68,2.44-5.36,3.66-8.04c0.05,0.44,0.1,0.88,0.15,1.32c-0.27,0.77-0.59,1.54-0.81,2.33
			c-0.47,1.63-0.89,3.27-1.33,4.91c-0.26,0.4-0.53,0.79-0.79,1.19c0.19,0.1,0.37,0.2,0.56,0.3
			C218.82,89.91,219.04,89.39,219.27,88.87z M211.33,103.41c-4.06-7.26-9.85-11.82-18.55-11.61c-5.6,0.14-10.55,3.99-11.22,9.01
			c-0.24,1.78,0.55,3.76,1.19,5.54c0.17,0.47,1.68,0.89,2.28,0.63c0.51-0.21,0.93-1.48,0.83-2.19c-0.58-4,0.86-6.85,4.62-8.36
			c4.33-1.74,8.44-0.87,11.85,2c2.53,2.13,4.51,4.92,6.74,7.42c2.36,5.65,3.42,11.34,0.62,17.18c-0.47-4.52-1.75-8.56-6.56-10.06
			c-3.07-0.95-6.03-0.34-8.23,2.28c-1.46,1.75-1.71,3.75-1.29,5.56c1.6-1.04,2.95-2.45,4.55-2.86c4.75-1.2,8.79,3.58,7.43,8.82
			c-1.53,5.9-5.97,9.12-11.29,11.34c-0.42,0.17-0.97,0.02-1.87,0.02c6.42-2.93,10.27-6.73,10.5-10.05
			c-1.35,1.12-2.66,2.39-4.15,3.42c-4.7,3.24-10.03,4.89-15.65,4.91c-6.1,0.02-12.2-0.49-18.29-0.99
			c-9.06-0.75-17.68,0.87-26.03,4.42c10.58-3.08,21.19-2.49,31.81-0.51c-4.97,0.09-9.95-0.24-14.92-0.25
			c-5.08-0.01-10.09,0.63-14.9,2.5c1.83,0.14,3.64-0.16,5.44-0.05c9.67,0.6,19.33,1.25,28.99,1.97c9.36,0.7,18.35-0.27,26.6-5.27
			C213.95,130.88,218.38,114.75,211.33,103.41z M229.96,129.16c-0.2-0.11-0.39-0.22-0.59-0.33c0.03,0.23,0.05,0.46,0.08,0.69
			c1.49,1.82,2.98,3.64,4.46,5.46c-0.19,0.28-0.38,0.56-0.58,0.85c-4.23-2.63-7.11-6.18-7.28-11.35c-0.1-2.93,1.94-5.6,4.56-6.45
			c2.74-0.9,4.86-0.11,6.89,2.58c0.16,0.21,0.2,0.51,0.37,0.95c1.66-3.4-0.68-7.76-4.56-8.69c-4.59-1.1-8.79,1.53-10.28,6.46
			c-0.24,0.78-0.53,1.55-0.8,2.33c-0.21-0.01-0.42-0.01-0.63-0.02c-0.22-0.78-0.6-1.55-0.63-2.33c-0.08-2.44-0.3-4.93,0.01-7.33
			c0.98-7.72,7.26-14.67,14.21-16.01c6.93-1.34,11.14,2.33,10.77,9.31c-0.03,0.62,0.46,1.58,0.97,1.83c0.51,0.25,1.66,0.03,2-0.41
			c0.72-0.89,1.33-2.01,1.55-3.12c0.72-3.7-1.26-7.57-4.94-9.69c-4.64-2.67-9.54-2.84-14.39-0.74
			c-8.65,3.74-14.99,15.42-13.82,24.79c1.38,11.14,7.6,18.5,17.67,22.75c8.69,3.67,17.78,3.35,26.97,2.45
			c8.38-0.82,16.81-1.05,25.22-1.48c1.22-0.06,2.46,0.23,3.85,0.37c-0.18-0.54-0.19-0.76-0.26-0.78c-1.07-0.33-2.13-0.69-3.22-0.92
			c-9.63-2.04-19.29-1.31-28.96-0.23c-0.68,0.08-1.39,0.01-2.08,0.01c0-0.24,0-0.48,0-0.72c5.87-0.55,11.74-1.47,17.62-1.54
			c5.81-0.07,11.62,0.72,16.95,1.1c0.33,0.21,0.18,0.07,0,0.01c-0.73-0.26-1.46-0.5-2.19-0.76c-9.95-3.55-20.13-3.15-30.41-1.95
			C248.19,137.44,238.29,136.32,229.96,129.16z M275.76,282.97c-0.2-0.17-0.4-0.34-0.6-0.51c-1.05,0.81-2.06,1.66-3.14,2.42
			c-6.21,4.38-13.27,6.94-20.38,9.38c-6.03,2.06-12.25,3.76-18.02,6.4c-11.57,5.3-17.5,16.03-15.6,27.57
			c1.02,6.21,4.2,11.17,10.11,13.89c5.12,2.35,11.16-0.03,12.82-4.85c1.44-4.19-1.22-8.76-5.06-8.7c2.62,1.85,3.5,4.37,2.45,7.03
			c-1,2.55-3.74,4.19-6.68,3.52c-1.85-0.42-3.82-1.2-5.24-2.4c-4.15-3.5-5.41-8.3-4.83-13.51c0.71-6.35,4.07-11.38,9.48-14.45
			c4.71-2.67,9.9-4.58,15.04-6.39c7-2.47,14.28-4.19,21.19-6.87c7.96-3.09,13.84-8.73,17.03-16.82c0.47-1.2,0.5-2.57,0.73-3.86
			c-0.24-0.09-0.48-0.18-0.72-0.27c-2.21,2.88-4.6,5.63-6.58,8.66c-3.33,5.1-7.86,8.7-13.48,10.65c-7.94,2.75-16.03,5.04-24.07,7.52
			c-0.13,0.04-0.34-0.13-1-0.42c1.05-0.47,1.72-0.87,2.45-1.09c5.63-1.73,11.3-3.35,16.91-5.16c5.04-1.63,9.88-3.74,13.77-7.46
			C273.64,285.99,274.63,284.4,275.76,282.97z M156.93,282.56c-0.22,0.13-0.44,0.26-0.66,0.39c1.06,1.38,1.96,2.92,3.2,4.1
			c3.56,3.4,7.87,5.65,12.51,7.18c5.46,1.8,10.99,3.39,16.49,5.09c0.62,0.19,1.19,0.55,1.78,0.83c-0.52,0.48-0.88,0.56-1.18,0.46
			c-7.43-2.3-14.94-4.37-22.26-7.01c-5.02-1.81-9.08-5.18-12.21-9.67c-2.18-3.13-4.73-6-7.12-8.98c-0.22,0.1-0.43,0.2-0.65,0.3
			c0.47,1.62,0.75,3.34,1.46,4.86c3.53,7.52,9.11,12.98,16.97,15.77c5.81,2.06,11.75,3.78,17.66,5.55
			c6.74,2.01,13.44,3.99,19.19,8.33c6.61,4.99,9.68,12.61,7.81,19.95c-1.31,5.15-5.57,9.14-10.11,9.48c-2.7,0.2-5.16-1.16-6.25-3.44
			c-1.06-2.22-0.5-4.61,1.56-6.68c0.14-0.14,0.25-0.31,0.73-0.93c-3.11,1.1-4.83,2.74-5.19,5.4c-0.44,3.16,0.59,5.92,3.37,7.64
			c3.79,2.34,7.72,2.37,11.53-0.04c5.55-3.52,8.17-8.86,8.56-15.18c0.67-10.68-4.24-18.73-13.27-23.84
			c-5.12-2.9-10.93-4.71-16.57-6.55C174.59,292.4,164.99,289.13,156.93,282.56z M106.37,155.5c0.35-0.07,0.54-0.05,0.6-0.13
			c0.2-0.28,0.39-0.57,0.53-0.88c1.95-4.36,2.52-8.89,1.54-13.57c-0.52-2.46-1.58-4.64-3.64-6.23c-2.28-1.75-5.8-2.03-7.93-0.61
			c-1.91,1.27-3.04,4.56-2.39,7.19c0.25,1.01,0.56,2.05,1.08,2.95c3.14,5.42,5.09,11.15,4.84,17.53c2.46-5.42,2.45-11.09,1.75-16.87
			c1.76,4,1.51,8.14,1.35,12.3c2.32-4.69,2.62-9.65,1.86-14.76C107.76,144.77,107.88,150.72,106.37,155.5z M298.83,277.61
			c0.79-0.29,1.3-0.34,1.62-0.62c6.36-5.58,12.4-11.43,16.73-18.82c1.64-2.8,2-5.81,1.27-8.95c-0.63-2.73-1.97-3.9-4.07-3.61
			c-2.17,0.3-3.87,2.37-3.92,4.64c-0.04,1.68-0.08,3.38-0.34,5.04C308.79,263.78,304.52,270.82,298.83,277.61z M75.94,231.21
			c0.68,0.72,1.21,1.27,1.72,1.84c1.99,2.27,1.98,2.6-0.18,4.69c-2.19,2.12-2.96,4.64-2.16,7.02c6.31-3.46,12.14-1.21,17.91,1.71
			c0.11-0.16,0.22-0.33,0.33-0.49c-1.44-1.46-2.89-2.92-4.33-4.39c0.16-0.18,0.32-0.36,0.48-0.53c1.49,1.03,2.99,2.07,4.48,3.1
			c0.18-0.23,0.36-0.47,0.54-0.7c-2.44-2.19-4.89-4.39-7.46-6.7c2.62,0.47,4.29,2.28,6.14,3.92c0.04-0.33,0.1-0.54,0.08-0.74
			c-0.02-0.2-0.1-0.41-0.2-0.59c-2.42-3.9-5.39-7.21-9.81-8.86C80.97,229.54,78.45,229.2,75.94,231.21z M112.38,278.97
			c-0.03-0.06-0.06-0.12-0.1-0.17c2.14,0.24,4.29,0.47,6.43,0.71c-3.62-2.53-7.77-3.04-12-3.28c0.04-0.22,0.07-0.43,0.11-0.65
			c2.96,0.13,5.92,0.27,8.89,0.4c-3.68-3.02-9.96-3.56-13.53-1.19c-3.15,2.09-4.9,6.57-3.97,9.87c8.79-6,17.87-2.25,26.88-0.57
			c0.07-0.26,0.13-0.52,0.2-0.78C120.99,281.87,116.68,280.42,112.38,278.97z M333.98,285.06c0.14-4.48-0.74-8.18-4.53-10.34
			c-4.67-2.66-9.12-1.26-13.94,1.36c3.3-0.18,6.06-0.32,8.81-0.47c-0.01,0.07-0.01,0.15-0.02,0.22c-3.65,0.9-7.29,1.81-10.94,2.71
			c0.03,0.25,0.06,0.49,0.1,0.74c2.09-0.15,4.18-0.31,6.26-0.46c-2.33,0.94-4.7,1.42-6.98,2.2c-2.22,0.76-4.35,1.8-6.52,2.72
			c0.07,0.18,0.14,0.36,0.21,0.54c0.74-0.17,1.48-0.34,2.21-0.5c2.94-0.66,5.85-1.62,8.82-1.9
			C323.09,281.34,328.87,280.48,333.98,285.06z M345.48,209c0.21,0.05,0.43,0.1,0.64,0.15c4.46-8.93,6.2-18.53,6.77-28.85
			c-0.9,0.49-1.51,0.77-2.08,1.13c-2.84,1.83-4.33,4.62-4.98,7.78c-0.75,3.64-1.14,7.35-1.66,11.03c-0.19,1.35-0.32,2.71-0.48,4.07
			c0.2,0.03,0.39,0.06,0.59,0.09c1.43-5.18,2.86-10.37,4.29-15.55c0.22,0.06,0.44,0.11,0.67,0.17
			C347.99,195.67,346.74,202.34,345.48,209z M245.3,309.16c1.63,0.71,3.13,1.23,4.51,2c1.3,0.73,2.47,1.7,3.7,2.57
			c-0.13,0.23-0.25,0.46-0.38,0.7c-4.37-3.05-9.07-4.58-14.52-3.32c11.34,1.1,17.7,8.12,21.56,18.28
			C264.46,319.45,257.16,309.65,245.3,309.16z M144.83,132.59c-0.09,0.03,0.41-0.01,0.77-0.25c3.29-2.27,6.04-5.02,7.58-8.8
			c2.14-5.27,0.9-11.54-2.93-14.97c-2.96-2.64-7.87-2.97-10.42-0.68c9.75,1.49,11.73,9.14,9.73,15.05
			C148.4,126.38,146.36,129.53,144.83,132.59z M185.45,309.37c-5.96,0.29-10.05,2.78-12.89,7.2c-2.49,3.88-2.96,8.05-0.85,12.67
			c3.87-10.25,10.37-16.97,21.54-18.13c-5.01-1.39-9.43,0.54-13.86,2.36c-0.06-0.2-0.12-0.39-0.19-0.59
			C181.11,311.82,183.01,310.74,185.45,309.37z M150.65,287.98c-1.71-3.45-3.61-7.3-5.54-11.14c-0.22-0.43-0.6-0.78-0.85-1.19
			c-2.79-4.6-5.6-9.19-8.35-13.81c-0.48-0.81-0.73-1.75-1.19-2.89C131.37,268.84,141.62,282.17,150.65,287.98z M279.45,288.89
			c0.65-0.12,0.98-0.09,1.17-0.23c7.13-5.24,13.26-11.34,16.26-19.93c1.03-2.95,1.53-6.02,0.53-9.48c-0.37,0.57-0.58,0.83-0.71,1.12
			c-2.56,5.81-5.54,11.35-9.73,16.19c-0.26,0.31-0.47,0.73-0.55,1.12C285.56,282.18,282.72,285.45,279.45,288.89z M92.67,256.58
			c0.05-0.16,0.1-0.32,0.15-0.48c2.43,0.63,4.87,1.25,7.72,1.98c-6.24-5.81-16.94-5.07-19.99-0.03c8.55,0.25,16.55,2.43,24.15,6.26
			C101.29,260.76,97.3,258.17,92.67,256.58z M268.77,153.88c0.86,1.01,1.47,2.35,2.43,2.71c1.56,0.59,2.22-0.94,2.92-2.1
			c1.51-2.53,3.07-5.02,4.56-7.44c-2.93,0.68-5.33,2.55-6.86,5.65c-0.16-0.13-0.32-0.25-0.47-0.38c0.47-1.31,0.95-2.62,1.54-4.26
			c-1.24,0.69-2.19,1.23-3.13,1.76c-0.11-0.16-0.22-0.32-0.34-0.48c1.13-0.98,2.26-1.95,3.55-3.07c-5.99,0.43-10.98,6.36-9.98,11.82
			C265.07,156.57,267.09,155.1,268.77,153.88z M338.57,173.56c0.19,0.06,0.38,0.12,0.57,0.19c1.79-5.79,4.55-10.94,9.7-14.79
			c-3.33-0.98-6.08-0.34-8.38,1.77c-3.58,3.29-3.95,7.56-3.49,12.17c0.81-2.66,1.59-5.19,2.36-7.72c0.18,0.05,0.35,0.1,0.53,0.15
			C339.42,168.07,339,170.82,338.57,173.56z M134.45,304.32c7.56-0.15,15.05,0.17,22.45-1.21c0-0.25,0.01-0.5,0.01-0.75
			c-4.63-0.25-9.26-0.49-14.38-0.77c2.17-0.48,3.85-0.86,5.6-1.24C144.06,298.63,135.85,301.03,134.45,304.32z M83.69,158.9
			c1.89,2.34,3.95,4.47,5.5,6.92c1.53,2.42,2.56,5.17,3.81,7.78c0.18-0.05,0.36-0.09,0.54-0.14c-0.82-3.19-1.64-6.38-2.45-9.57
			c0.97,1.27,1.86,2.65,2.44,4.16c0.61,1.58,0.93,3.26,1.46,5.24C96.58,163.98,91.15,157.4,83.69,158.9z M283.51,300.3
			c1.77,0.42,3.61,0.86,5.44,1.3c-0.05,0.17-0.1,0.33-0.15,0.5c-2.34-0.15-4.68-0.5-7.01-0.39c-2.33,0.1-4.64,0.66-6.95,1.02
			c0.01,0.25,0.01,0.5,0.02,0.76c7.54,0.35,15.09,0.69,23.05,1.05C294.25,300.34,287.7,298.59,283.51,300.3z M131.14,131.6
			c0.22-0.87,0.6-2.13,0.85-3.4c0.23-1.21,0.33-2.44,0.49-3.67c0.75,3.77-0.06,7.27-1.46,10.78c1.17-1.17,2.24-2.4,2.98-3.82
			c1.62-3.11,2.2-6.37,0.48-9.65c-0.66-1.26-1.62-2.5-3.28-1.96c-1.78,0.58-1.46,2.15-1.26,3.55
			C130.34,126.26,130.76,129.07,131.14,131.6z M211.64,339.99c-0.14-0.1-0.28-0.2-0.42-0.31c-2.57,1.8-5.26,3.46-7.65,5.47
			c-1.03,0.86-1.68,2.38-2.04,3.73c-0.19,0.7,0.43,1.99,1.08,2.43c0.53,0.36,1.87,0.15,2.46-0.31c1.54-1.2,2.95-2.6,4.25-4.06
			c0.86-0.96,1.45-2.17,2.16-3.27c-0.13-0.09-0.26-0.17-0.39-0.26c-1.61,1.45-3.22,2.89-4.83,4.34c-0.13-0.12-0.25-0.25-0.38-0.37
			C207.8,344.91,209.72,342.45,211.64,339.99z M300.66,131.65c0.12-0.02,0.23-0.04,0.35-0.07c0.14-1.58,0.23-3.17,0.42-4.75
			c0.17-1.39,0.68-2.78,0.6-4.14c-0.06-0.96-0.65-2.25-1.4-2.67c-0.54-0.3-2.09,0.35-2.57,1.02c-0.81,1.13-1.45,2.58-1.61,3.96
			c-0.46,3.8,1.5,6.79,3.8,9.63c-0.52-3.38-1.98-6.68-0.93-10.7C299.82,126.86,300.24,129.26,300.66,131.65z M243.73,314.14
			c3.57,2.86,5.01,6.31,4.32,10.67c-0.09,0.57,0.95,1.69,1.68,1.94c1.34,0.46,2.59-0.84,2.84-2.61
			C253.23,319.35,249.27,314.72,243.73,314.14z M252.38,126.37c-0.03-0.11-0.06-0.22-0.09-0.33c1.67-0.52,3.34-1.04,5.05-1.57
			c-4.13-1.6-10.36-0.07-11.08,3.71c3.9,1.76,8.91,0.38,12.69-2.47C256.51,125.95,254.45,126.16,252.38,126.37z M235.08,314.77
			c3.5,0.48,5.53,2.4,6.5,5.59c0.55,1.81,2.1,2.64,3.49,2.08c1.21-0.49,1.41-2.09,0.47-3.86
			C243.68,315.03,239.17,313.33,235.08,314.77z M196.83,314.72c-4.56-1.47-8.97,0.28-10.66,3.98c-0.79,1.74-0.46,3.45,0.84,3.76
			c1.77,0.43,2.8-0.49,3.21-2.16C191.04,316.98,193.27,315.28,196.83,314.72z M215.77,307.15c2.27-4.83,2.19-9.55-0.06-11.46
			C214.25,298.31,214.24,301.69,215.77,307.15z M266.45,128.01c-4.23-2.08-9.17-1.26-11.61,1.87c0.85,1.56,1.9,2.2,3.44,0.78
			C260.59,128.55,263.29,127.68,266.45,128.01z M166.43,127.36c2.23,1.04,4.59,1.93,6.73,3.2c2.09,1.23,2.54,1.27,3.93-1.02
			C173.77,127,170.2,125.94,166.43,127.36z M205.53,104.67c-1.75-3.06-5.9-4.58-8.96-3.4c-0.78,0.3-1.27,1.35-1.9,2.06
			c0.83,0.21,1.71,0.69,2.48,0.57C199.86,103.45,202.52,103.14,205.53,104.67z M113.21,232.96c-4.45,0.39-7.48,6.58-5.75,9.94
			C109.23,239.84,111.15,236.51,113.21,232.96z M324.66,243.54c0.58-5.63-2.3-10.84-5.68-10.23
			C320.87,236.72,322.78,240.16,324.66,243.54z M213.3,307.94c-0.19,0-0.38,0-0.58,0c0,0.62,0,1.23,0,1.85
			c0.19,0.01,0.38,0.02,0.58,0.02C213.3,309.19,213.3,308.56,213.3,307.94z M337.67,246.88c0.12-0.05,0.29-0.07,0.33-0.15
			c0.04-0.08-0.07-0.22-0.11-0.34c-0.12,0.05-0.29,0.07-0.33,0.15C337.52,246.62,337.63,246.76,337.67,246.88z M152.06,289.23
			c-0.03-0.05-0.05-0.09-0.08-0.14c-0.03,0.04-0.09,0.08-0.1,0.12c0,0.04,0.04,0.09,0.07,0.14
			C151.99,289.31,152.03,289.27,152.06,289.23z M153.61,289.96c-0.02,0.05-0.04,0.1-0.06,0.15c0.05,0.02,0.12,0.06,0.13,0.04
			c0.03-0.04,0.04-0.1,0.06-0.15C153.7,289.99,153.66,289.98,153.61,289.96z M222.23,93.43c0.11-0.06,0.21-0.12,0.32-0.17
			c-0.1-0.1-0.19-0.26-0.29-0.27c-0.1-0.01-0.22,0.13-0.34,0.21C222.02,93.27,222.12,93.35,222.23,93.43z M93.98,246.61
			c-0.11-0.14-0.23-0.28-0.35-0.42c-0.09,0.08-0.27,0.19-0.26,0.23c0.07,0.18,0.2,0.34,0.3,0.51
			C93.77,246.84,93.86,246.74,93.98,246.61z M332.87,253.81c0.06,0.14,0.13,0.27,0.19,0.41c0.19-0.1,0.38-0.21,0.57-0.31
			C333.38,253.88,333.12,253.85,332.87,253.81z M105.33,264.56c-0.14-0.06-0.28-0.12-0.43-0.18c-0.03,0.1-0.12,0.24-0.08,0.3
			c0.09,0.12,0.23,0.2,0.36,0.3C105.22,264.86,105.26,264.74,105.33,264.56z M87.9,230.09c0.06-0.06,0.1-0.1,0.15-0.15
			c-0.09-0.05-0.18-0.11-0.28-0.13c-0.03-0.01-0.09,0.09-0.14,0.13C87.72,229.99,87.81,230.05,87.9,230.09z M243.52,313.76
			c-0.05,0.04-0.1,0.09-0.16,0.13c0.05,0.05,0.09,0.13,0.14,0.13c0.05,0,0.1-0.08,0.15-0.12
			C243.61,313.86,243.57,313.81,243.52,313.76z M211.4,339.1c-0.05,0.05-0.1,0.09-0.14,0.14c0.05,0.05,0.1,0.09,0.15,0.14
			c0.05-0.07,0.09-0.14,0.14-0.21C211.5,339.15,211.45,339.12,211.4,339.1z M321.23,151.43l-0.12-0.08l-0.01,0.14L321.23,151.43z
			 M211.43,342.84c-0.04,0.04-0.13,0.09-0.12,0.12c0.02,0.09,0.07,0.17,0.12,0.25c0.04-0.04,0.13-0.09,0.12-0.12
			C211.53,343.01,211.48,342.93,211.43,342.84z"/>
		<path d="M159.01,121.34c1.3-2.05,2.6-4.1,3.9-6.14c0.11,0.1,0.22,0.19,0.33,0.29c-0.59,1.39-1.18,2.78-1.77,4.17
			c0,0,0.03-0.04,0.03-0.04c-0.15,0.3-0.3,0.59-0.45,0.89c0,0,0.02-0.02,0.02-0.02c-0.29,0.13-0.58,0.26-0.87,0.39
			c-0.16,0.34-0.31,0.68-0.47,1.02C159.49,121.71,159.25,121.52,159.01,121.34z"/>
		<path d="M158.94,147.77c-0.16,0.05-0.32,0.1-0.49,0.15c0,0,0.05,0,0.05,0c-0.29-0.18-0.57-0.36-0.86-0.53
			c-0.23-0.56-0.45-1.12-0.81-1.99c0.84,0.23,1.46,0.4,2.07,0.57c0,0.22,0.01,0.43,0.01,0.65
			C158.93,147,158.94,147.39,158.94,147.77z"/>
		<path d="M124.34,293.73c-1.16,0.13-2.31,0.26-3.47,0.39c-0.03-0.13-0.06-0.25-0.09-0.38c1.05-0.21,2.1-0.42,3.15-0.64
			C124.07,293.31,124.2,293.52,124.34,293.73z"/>
		<path d="M211.33,306.95c-0.39-0.64-0.78-1.28-1.16-1.92c0.1-0.07,0.19-0.15,0.27-0.24c0.54,0.59,1.09,1.18,1.63,1.76
			c0.01,0.13,0.01,0.26-0.01,0.39C211.81,306.94,211.57,306.95,211.33,306.95z"/>
		<path d="M213.3,307.94c0,0.62,0,1.25,0,1.87c-0.19-0.01-0.38-0.02-0.58-0.02c0-0.62,0-1.23,0-1.85
			C212.91,307.94,213.11,307.94,213.3,307.94z"/>
		<path d="M226.05,104.71c0.55-0.19,1.11-0.39,1.66-0.58c0.04,0.36,0.08,0.71,0.12,1.07c-0.47,0.29-0.94,0.57-1.4,0.86
			C226.3,105.6,226.18,105.16,226.05,104.71z"/>
		<path d="M220.81,80.37c0.32-0.42,0.64-0.84,0.97-1.26c0.09,0.09,0.19,0.17,0.3,0.24c-0.37,0.78-0.74,1.56-1.11,2.34
			C220.91,81.25,220.86,80.81,220.81,80.37z"/>
		<path d="M218.82,88.93c0.15-0.02,0.3-0.04,0.45-0.05c-0.23,0.52-0.45,1.03-0.68,1.55c-0.19-0.1-0.37-0.2-0.56-0.3
			C218.29,89.72,218.56,89.32,218.82,88.93z"/>
		<path d="M337.4,244.57c-0.31,0.43-0.61,0.86-0.92,1.29c-0.14-0.1-0.28-0.19-0.42-0.29c0.31-0.36,0.62-0.72,0.93-1.08
			C337.13,244.52,337.26,244.54,337.4,244.57z"/>
		<path d="M214.67,88.39c0.11-0.04,0.21-0.07,0.32-0.09c-0.47,0.31-0.93,0.63-1.4,0.94c-0.06-0.28-0.12-0.55-0.18-0.83
			C213.84,88.4,214.26,88.39,214.67,88.39z"/>
		<path d="M215.52,74.48c0.03-0.37,0.06-0.75,0.1-1.12c0.1-0.02,0.2-0.03,0.31-0.05c0.11,0.39,0.22,0.78,0.33,1.17
			C216.01,74.48,215.76,74.48,215.52,74.48z"/>
		<path d="M290.89,251.1c-0.27-0.37-0.54-0.75-0.82-1.12C290.34,250.35,290.62,250.72,290.89,251.1z"/>
		<path d="M212.97,89.57c0.24-0.06,0.48-0.12,0.72-0.18c-0.08,0.28-0.17,0.56-0.25,0.85
			C213.28,90.02,213.12,89.79,212.97,89.57z"/>
		<path d="M221.84,71.82c0.28,0.14,0.56,0.27,0.85,0.41c-0.21,0.11-0.42,0.23-0.63,0.34
			C221.98,72.32,221.91,72.07,221.84,71.82z"/>
		<path d="M232.34,100.99c-0.28,0.01-0.56,0.03-0.85,0.04c0-0.25,0-0.5,0-0.75c0.28,0,0.56-0.01,0.85-0.01
			C232.34,100.51,232.34,100.75,232.34,100.99z"/>
		<path d="M337.67,246.88c-0.04-0.12-0.15-0.26-0.11-0.34c0.04-0.08,0.21-0.1,0.33-0.15c0.04,0.12,0.15,0.26,0.11,0.34
			C337.96,246.81,337.79,246.83,337.67,246.88z"/>
		<path d="M222.75,114.68c0.25-0.02,0.5-0.04,0.75-0.05c-0.14,0.21-0.28,0.42-0.42,0.63
			C222.97,115.07,222.86,114.88,222.75,114.68z"/>
		<path d="M244.55,294.69c0.29-0.25,0.58-0.49,0.87-0.74C245.13,294.2,244.84,294.45,244.55,294.69z"/>
		<path d="M271,118.45c0.25,0.37,0.49,0.73,0.74,1.1c-0.31,0.03-0.63,0.05-0.94,0.08c-0.14-0.2-0.28-0.41-0.43-0.61
			C270.58,118.83,270.79,118.64,271,118.45z"/>
		<path d="M293.41,251.83c-0.23-0.06-0.45-0.12-0.68-0.18C292.96,251.71,293.18,251.77,293.41,251.83z"/>
		<path d="M154.7,280.8c0.26-0.08,0.52-0.15,0.78-0.23c-0.12,0.28-0.24,0.56-0.36,0.84
			C154.98,281.21,154.84,281,154.7,280.8z"/>
		<path d="M273.64,122.03c0,0,0.07,0.08,0.07,0.08c-0.16,0.18-0.32,0.36-0.47,0.53c-0.04-0.04-0.11-0.12-0.1-0.12
			C273.3,122.35,273.47,122.19,273.64,122.03z"/>
		<path d="M320.48,252.1c0.15,0,0.3,0.01,0.45,0.01c-0.18,0.2-0.36,0.4-0.54,0.61
			C320.42,252.51,320.45,252.31,320.48,252.1z"/>
		<path d="M276.64,280.76c0.28,0,0.55,0,0.83,0c-0.17,0.21-0.34,0.43-0.52,0.64
			C276.85,281.19,276.74,280.98,276.64,280.76z"/>
		<path d="M274.92,279.93c0.34-0.01,0.67-0.03,1.01-0.04C275.59,279.9,275.25,279.91,274.92,279.93z"/>
		<path d="M152.06,289.23c-0.03,0.04-0.07,0.08-0.1,0.12c-0.03-0.05-0.07-0.1-0.07-0.14c0-0.04,0.06-0.08,0.1-0.12
			C152.01,289.14,152.03,289.18,152.06,289.23z"/>
		<path d="M153.61,289.96c0.05,0.02,0.09,0.03,0.14,0.05c-0.02,0.05-0.03,0.11-0.06,0.15
			c-0.01,0.01-0.09-0.03-0.13-0.04C153.58,290.06,153.6,290.01,153.61,289.96z"/>
		<path d="M272.98,121.5c0,0,0.03,0.07,0.03,0.06c-0.15,0.18-0.29,0.36-0.44,0.54c-0.05-0.04-0.09-0.08-0.14-0.12
			C272.62,121.82,272.8,121.66,272.98,121.5z"/>
		<path d="M338.65,245.76c0.14,0.02,0.29,0.05,0.43,0.07c-0.09,0.15-0.17,0.3-0.26,0.44
			C338.76,246.11,338.7,245.94,338.65,245.76z"/>
		<path d="M145.94,272.76c-0.07-0.13-0.08-0.26-0.03-0.39c0.13-0.03,0.24-0.01,0.36,0.06
			C146.16,272.54,146.05,272.65,145.94,272.76z"/>
		<path d="M291.8,251.52c-0.13,0.03-0.26,0.07-0.39,0.1c-0.01-0.12-0.04-0.24-0.07-0.35
			C291.5,251.35,291.65,251.43,291.8,251.52z"/>
		<path d="M288.86,247.88c-0.09-0.14-0.19-0.28-0.28-0.42C288.68,247.6,288.77,247.74,288.86,247.88z"/>
		<path d="M148.81,273.69c0.14,0.11,0.28,0.22,0.42,0.34C149.08,273.92,148.95,273.81,148.81,273.69z"/>
		<path d="M150.49,275.8c0.1,0.11,0.2,0.22,0.3,0.33C150.7,276.02,150.59,275.91,150.49,275.8z"/>
		<path d="M152.18,277.94c0.09,0.1,0.19,0.2,0.28,0.3C152.37,278.14,152.28,278.04,152.18,277.94z"/>
		<path d="M295.41,252.06c0.03,0.05,0.06,0.09,0.09,0.14c-0.07,0-0.13-0.01-0.2-0.01c0.03-0.04,0.06-0.09,0.1-0.13
			C295.39,252.05,295.41,252.06,295.41,252.06z"/>
		<path d="M216.78,88.23c0.13,0.05,0.25,0.11,0.37,0.18C217.02,88.35,216.9,88.29,216.78,88.23z"/>
		<path d="M237.18,137.08c1.23,0.51,2.45,1.03,3.67,1.55c0.05,0.02,0.07,0.12,0.4,0.73c-1.85-0.69-3.28-1.22-4.7-1.75
			C236.77,137.44,236.98,137.26,237.18,137.08z"/>
		<path d="M222.53,122.05c0,0.52,0,1.03,0,2.12c-0.34-1.04-0.51-1.53-0.67-2.02
			C222.08,122.12,222.3,122.08,222.53,122.05z"/>
		<path d="M233.92,134.98c0.26,0.39,0.52,0.77,0.78,1.16c-0.45-0.1-0.9-0.21-1.35-0.31
			C233.53,135.54,233.73,135.26,233.92,134.98z"/>
		<path d="M236.57,137.61c-0.2-0.26-0.4-0.53-0.6-0.79c0.41,0.09,0.81,0.18,1.22,0.27
			C236.98,137.26,236.77,137.44,236.57,137.61z"/>
		<path d="M222.53,122.05c-0.22,0.03-0.45,0.07-0.67,0.1c0.08-0.22,0.15-0.44,0.23-0.67
			C222.23,121.67,222.38,121.86,222.53,122.05z"/>
		<path d="M100.26,238.61c-1.32-4.24-2.91-8.42-3.9-12.74c-1.89-8.28-2.2-16.68-1.1-25.12
			c0.11-0.87,0.32-1.72,0.74-2.52c0,1.46,0.1,2.93-0.02,4.38c-0.89,11.56,0.61,22.83,3.95,33.89c0.2,0.66,0.27,1.36,0.41,2.04
			L100.26,238.61z"/>
		<path d="M108.62,165.86c-3.99,5.71-7.03,11.92-9.6,18.38c1.8-6.86,4.82-13.12,9.19-18.73
			C108.34,165.63,108.48,165.75,108.62,165.86z"/>
		<path d="M109.94,164.1c-0.44,0.59-0.88,1.17-1.32,1.76c-0.14-0.12-0.28-0.23-0.42-0.35c0.43-0.56,0.86-1.11,1.29-1.67
			C109.64,163.93,109.79,164.02,109.94,164.1z"/>
		<path d="M110.41,162.65c0.16,0.14,0.31,0.29,0.47,0.43c-0.22,0.24-0.45,0.48-0.67,0.71c-0.11-0.13-0.21-0.26-0.32-0.4
			C110.06,163.14,110.24,162.89,110.41,162.65z"/>
		<path d="M96.24,197.48C96.32,197.12,96.28,197.3,96.24,197.48C96.2,197.31,96.16,197.14,96.24,197.48z"/>
		<path d="M100.34,238.55c0.11,0.18,0.22,0.36,0.34,0.54c-0.09,0.04-0.17,0.08-0.26,0.12c-0.05-0.2-0.1-0.4-0.15-0.59
			C100.26,238.61,100.34,238.55,100.34,238.55z"/>
		<path d="M109.49,163.84c0.13-0.15,0.26-0.3,0.39-0.45c0.11,0.13,0.21,0.26,0.32,0.4c-0.09,0.1-0.18,0.21-0.27,0.31
			C109.79,164.02,109.64,163.93,109.49,163.84z"/>
		<path d="M232.34,100.99c0-0.24,0-0.48,0-0.72c1.85-0.07,3.76-0.51,5.37,0.9c1.32,1.15,1.24,2.87-0.21,3.63
			c-0.14,0.08-0.48-0.21-0.73-0.33c0.71-1.88,0.23-2.89-1.71-3.29C234.18,100.99,233.25,101.04,232.34,100.99z"/>
		<path d="M227.83,105.19c-0.04-0.36-0.08-0.71-0.12-1.07c1.61-0.19,3.21-0.39,4.82-0.52c0.11-0.01,0.27,0.55,0.41,0.85
			C231.24,104.71,229.53,104.95,227.83,105.19z"/>
		<path d="M235.08,104.89c0.57-0.15,1.14-0.3,1.71-0.44C236.58,105.97,235.84,105.46,235.08,104.89z"/>
		<path d="M233.39,104.47c0.29-0.16,0.58-0.33,0.87-0.49c0.12,0.3,0.25,0.61,0.37,0.91
			C234.23,104.75,233.81,104.61,233.39,104.47z"/>
		<path d="M174.1,140.15c-1.18-0.12-2.36-0.25-3.54-0.37c0.04-0.24,0.07-0.48,0.11-0.73c1.15,0.16,2.29,0.31,3.44,0.47
			C174.11,139.74,174.1,139.95,174.1,140.15z"/>
		<path d="M174.1,140.15c0-0.21,0-0.42,0-0.62c0.92,0.13,1.83,0.26,2.75,0.39c-0.02,0.13-0.03,0.27-0.05,0.4
			C175.91,140.26,175,140.21,174.1,140.15z"/>
		<polygon points="209.28,123.58 209.4,123.53 209.38,123.66 		"/>
		<path d="M334.89,222.87c0.1-0.53,0.19-1.05,0.29-1.58c0.17-6.05,0.32-12.1,0.55-18.15c0.03-0.7,0.52-1.38,0.8-2.07
			c1.41,11,0.31,21.77-2.98,32.33c-0.16,0.53-0.78,0.92-1.18,1.37C333.21,230.81,334.05,226.84,334.89,222.87z"/>
		<path d="M328.93,174.44c1.55,3.86,3.11,7.71,4.63,11.58c0.05,0.13-0.24,0.4-0.37,0.6c-1.3-3.46-2.6-6.91-3.88-10.38
			C329.11,175.67,329.06,175.04,328.93,174.44z"/>
		<path d="M287.53,155.26c-0.82,1.47-1.64,2.93-2.46,4.4c-0.2-0.1-0.39-0.19-0.59-0.29c0.85-1.48,1.71-2.96,2.56-4.44
			C287.21,155.05,287.37,155.16,287.53,155.26z"/>
		<path d="M327.91,171.92c0.2,0.72,0.4,1.43,0.6,2.15c-0.64-0.95-1.28-1.91-1.92-2.86c0.14-0.1,0.29-0.19,0.43-0.29
			C327.32,171.25,327.62,171.59,327.91,171.92z"/>
		<path d="M323.55,165.53c0.44,0.55,0.87,1.1,1.31,1.66c-0.15,0.11-0.29,0.22-0.44,0.33c-0.4-0.56-0.79-1.12-1.19-1.67
			C323.34,165.73,323.45,165.63,323.55,165.53z"/>
		<path d="M325.83,168.74c0.4,0.59,0.79,1.19,1.19,1.78c-0.14,0.11-0.28,0.21-0.42,0.32c-0.38-0.59-0.75-1.18-1.13-1.77
			C325.6,168.96,325.71,168.85,325.83,168.74z"/>
		<path d="M321.69,162.85c0.03,0.22,0.06,0.45,0.09,0.67c-0.2-0.04-0.4-0.07-0.6-0.11c-0.22-0.25-0.44-0.5-0.66-0.76
			c-0.02-0.13-0.04-0.26-0.04-0.39c0.11-0.09,0.21-0.18,0.3-0.27C321.08,162.27,321.38,162.56,321.69,162.85z"/>
		<path d="M325.48,169.07c-0.3-0.41-0.6-0.81-0.9-1.22c0.11-0.1,0.23-0.2,0.34-0.31c0.3,0.4,0.61,0.8,0.91,1.2
			C325.71,168.85,325.6,168.96,325.48,169.07z"/>
		<path d="M322.59,164.76c0.32,0.14,0.64,0.28,0.96,0.42c0,0.11,0,0.23,0.01,0.34c-0.11,0.1-0.21,0.21-0.32,0.31
			C323.02,165.48,322.8,165.12,322.59,164.76z"/>
		<path d="M289.35,153.43c-0.23,0.23-0.46,0.45-0.69,0.68c-0.1-0.13-0.19-0.25-0.29-0.38c0.24-0.2,0.47-0.4,0.71-0.6
			C289.16,153.23,289.25,153.34,289.35,153.43z"/>
		<path d="M320.47,162.26c-0.12-0.3-0.24-0.61-0.36-0.91c0,0-0.03,0.04-0.03,0.04c0.23,0.2,0.46,0.4,0.7,0.6
			C320.68,162.08,320.58,162.17,320.47,162.26z"/>
		<path d="M318.53,159.59c-0.23,0.01-0.47,0.03-0.11,0.01c-0.34-0.18-0.14-0.08,0.06,0.03L318.53,159.59z"/>
		<path d="M290.2,165.38c0.14,0.25,0.31,0.41,0.31,0.57c0,0.14-0.2,0.27-0.31,0.4c-0.11-0.15-0.29-0.3-0.3-0.46
			C289.88,165.75,290.05,165.6,290.2,165.38z"/>
		<path d="M322.18,163.9c0.14,0.3,0.29,0.6,0.43,0.89C322.47,164.49,322.32,164.19,322.18,163.9z"/>
		<path d="M328.5,174.04c0.16,0.15,0.31,0.3,0.47,0.45C328.81,174.34,328.65,174.19,328.5,174.04z"/>
		<path d="M319.65,160.98c0.14,0.14,0.29,0.27,0.43,0.41c0,0,0.03-0.04,0.03-0.04c-0.15,0.02-0.29,0.03-0.44,0.05
			c0-0.15,0.01-0.31,0.01-0.46C319.69,160.94,319.65,160.98,319.65,160.98z"/>
		<path d="M319.24,160.54c0.14,0.15,0.27,0.29,0.41,0.44c0,0,0.04-0.04,0.04-0.04c-0.17-0.03-0.34-0.06-0.51-0.08
			c0.04-0.12,0.07-0.24,0.1-0.35C319.28,160.5,319.24,160.54,319.24,160.54z"/>
		<path d="M288.66,154.11c-0.14,0.13-0.28,0.27-0.42,0.4c-0.11-0.13-0.21-0.26-0.32-0.4c0.15-0.13,0.3-0.26,0.46-0.39
			C288.47,153.85,288.56,153.98,288.66,154.11z"/>
		<path d="M318.83,160.11c0.14,0.15,0.27,0.29,0.41,0.44c0,0,0.04-0.05,0.04-0.05c-0.16-0.01-0.31-0.01-0.47-0.02
			c0.02-0.14,0.04-0.28,0.06-0.42C318.87,160.06,318.83,160.11,318.83,160.11z"/>
		<path d="M289.08,153.12c0.17-0.02,0.34-0.04,0.51-0.06c-0.08,0.12-0.16,0.25-0.25,0.37
			C289.25,153.34,289.16,153.23,289.08,153.12z"/>
		<path d="M318.48,159.63c0.12,0.16,0.23,0.32,0.35,0.48c0,0,0.04-0.05,0.04-0.05c-0.15-0.01-0.3-0.01-0.45-0.02
			c0.04-0.15,0.07-0.29,0.12-0.44C318.53,159.59,318.48,159.63,318.48,159.63z"/>
		<path d="M287.91,154.85c-0.12,0.14-0.25,0.27-0.37,0.41c-0.16-0.11-0.32-0.22-0.48-0.32
			c0.14-0.14,0.28-0.28,0.42-0.42C287.62,154.63,287.76,154.74,287.91,154.85z"/>
		<path d="M321.75,163.48c0.16,0.15,0.31,0.31,0.47,0.46C322.06,163.79,321.9,163.64,321.75,163.48z"/>
		<path d="M288.24,154.51c-0.11,0.12-0.22,0.23-0.33,0.35c-0.14-0.11-0.29-0.22-0.43-0.34
			c0.15-0.14,0.29-0.27,0.44-0.41C288.02,154.24,288.13,154.38,288.24,154.51z"/>
		<path d="M229.98,305.41c2.19-1.17,4.38-2.35,6.57-3.52c0.2,0.18,0.41,0.36,0.61,0.53c-2.29,1.11-4.59,2.21-6.88,3.32
			C230.19,305.63,230.08,305.52,229.98,305.41z"/>
		<path d="M237.17,302.42c-0.2-0.18-0.41-0.36-0.61-0.53c0.7-0.28,1.41-0.55,2.11-0.83c0.06,0.25,0.12,0.51,0.17,0.76
			C238.28,302.02,237.73,302.22,237.17,302.42z"/>
		<path d="M238.84,301.82c-0.06-0.25-0.12-0.51-0.17-0.76c0.34-0.02,0.68-0.03,1.03-0.05
			C239.41,301.28,239.12,301.55,238.84,301.82z"/>
		<path d="M230.29,305.74c-0.27,0.12-0.54,0.24-0.8,0.36c-0.04-0.08-0.08-0.16-0.12-0.24c0.21-0.15,0.41-0.31,0.62-0.46
			C230.08,305.52,230.19,305.63,230.29,305.74z"/>
		<path d="M194.36,301.49c1.77,0.81,3.54,1.63,5.31,2.44c-0.1,0.21-0.2,0.42-0.3,0.63c-1.86-0.86-3.73-1.72-5.59-2.57
			C193.97,301.82,194.16,301.66,194.36,301.49z"/>
		<path d="M194.36,301.49c-0.2,0.16-0.39,0.33-0.59,0.49c-0.42-0.15-0.84-0.31-1.25-0.46c0.19-0.17,0.39-0.33,0.58-0.5
			C193.52,301.18,193.94,301.34,194.36,301.49z"/>
		<path d="M191.23,300.22c0.29,0.25,0.52,0.45,0.75,0.66c-0.12,0.13-0.31,0.4-0.35,0.37c-0.28-0.13-0.52-0.33-0.77-0.51
			C190.96,300.6,191.06,300.45,191.23,300.22z"/>
		<path d="M193.1,301.03c-0.19,0.17-0.39,0.33-0.58,0.5c-0.15-0.18-0.31-0.35-0.46-0.53
			C192.4,301.01,192.75,301.02,193.1,301.03z"/>
		<path d="M200.95,305.41c-0.26-0.16-0.51-0.33-0.77-0.49c0.1-0.11,0.2-0.23,0.3-0.34c0.24,0.19,0.49,0.38,0.73,0.57
			C201.12,305.24,201.03,305.33,200.95,305.41z"/>
		<path d="M202.22,306.25c-0.24-0.18-0.49-0.35-0.73-0.53c0.1-0.09,0.19-0.19,0.27-0.29c0.22,0.21,0.45,0.41,0.67,0.62
			C202.36,306.11,202.29,306.18,202.22,306.25z"/>
		<path d="M200.18,304.92c-0.12-0.16-0.24-0.32-0.36-0.48c0.22,0.05,0.44,0.09,0.67,0.14
			C200.38,304.69,200.28,304.81,200.18,304.92z"/>
		<path d="M202.43,306.05c0.12,0.11,0.24,0.22,0.37,0.33c-0.19-0.04-0.38-0.09-0.57-0.13
			C202.29,306.18,202.36,306.11,202.43,306.05z"/>
		<path d="M201.21,305.15c0.18,0.09,0.37,0.19,0.55,0.28c-0.08,0.1-0.18,0.2-0.27,0.29c-0.18-0.1-0.36-0.21-0.54-0.31
			C201.03,305.33,201.12,305.24,201.21,305.15z"/>
		<path d="M144.7,154.95c1.74,1.61,2.08,3.7,2.1,5.79c-0.83-1.76-1.7-3.6-2.57-5.44
			C144.39,155.18,144.55,155.07,144.7,154.95z"/>
		<path d="M144.23,155.3c-0.26-0.29-0.53-0.58-0.79-0.87c0.11-0.09,0.23-0.18,0.34-0.26c0.31,0.26,0.61,0.52,0.92,0.78
			C144.55,155.07,144.39,155.18,144.23,155.3z"/>
		<path d="M143.1,154.11c-0.22-0.23-0.45-0.46-0.67-0.69c0.09-0.09,0.18-0.19,0.25-0.3c0.23,0.21,0.45,0.42,0.68,0.63
			C143.27,153.88,143.19,153.99,143.1,154.11z"/>
		<path d="M142.43,153.42c-0.24-0.05-0.48-0.09-0.72-0.14c0.01-0.09,0.03-0.19,0.04-0.28c0.31,0.04,0.62,0.08,0.93,0.13
			C142.6,153.23,142.52,153.33,142.43,153.42z"/>
		<path d="M143.44,154.43c-0.11-0.11-0.23-0.22-0.34-0.32c0.09-0.12,0.17-0.23,0.26-0.35c0.14,0.14,0.29,0.27,0.43,0.41
			C143.67,154.26,143.56,154.34,143.44,154.43z"/>
		<path d="M303.31,256.73c0-2,0-4,0-6c0.28-0.01,0.55-0.02,0.83-0.04c0.81,1.95,0.42,3.99-0.13,6.04
			C303.77,256.73,303.54,256.73,303.31,256.73z"/>
		<path d="M303.48,251.1c-0.35-1.16-0.69-2.31-1.04-3.47c0.29-0.1,0.58-0.2,0.86-0.29c0.4,1.15,0.79,2.3,1.19,3.45
			C304.16,250.9,303.82,251,303.48,251.1z"/>
		<path d="M303.31,256.73c0.23,0,0.46,0,0.7,0c-0.23,0.89-0.47,1.79-0.7,2.68c-0.14-0.03-0.28-0.06-0.43-0.09
			C303.02,258.46,303.16,257.6,303.31,256.73z"/>
		<path d="M302.44,247.61c-0.35-0.58-0.7-1.16-1.05-1.74c0.23-0.13,0.45-0.25,0.68-0.38c0.34,0.58,0.69,1.16,1.03,1.74
			C302.88,247.35,302.66,247.48,302.44,247.61z"/>
		<path d="M214.67,88.39c-0.42,0.01-0.83,0.01-1.25,0.02c-0.68-2.07-1.37-4.14-2.05-6.2c0.24-0.1,0.48-0.19,0.72-0.29
			C213.29,83.9,214.19,86.05,214.67,88.39z"/>
		<path d="M211,81.59c-0.22-0.46-0.44-0.91-0.66-1.37c0.17-0.08,0.33-0.17,0.5-0.25c0.25,0.44,0.49,0.88,0.74,1.32
			C211.39,81.39,211.2,81.49,211,81.59z"/>
		<path d="M212,76c0.04,0.3,0.08,0.6,0.2,1.44c-0.46-0.67-0.6-0.87-0.74-1.08C211.64,76.24,211.82,76.12,212,76z"/>
		<path d="M219.92,77.41c-0.1-0.26-0.2-0.41-0.21-0.57c-0.01-0.09,0.13-0.2,0.21-0.29c0.11,0.1,0.3,0.21,0.3,0.3
			C220.2,77,220.06,77.15,219.92,77.41z"/>
		<path d="M221.77,79.11c0.11-0.09,0.23-0.17,0.34-0.26c-0.01,0.17-0.03,0.33-0.04,0.5
			C221.96,79.28,221.86,79.2,221.77,79.11z"/>
		<path d="M154.94,316.46c-0.82,0.42-1.64,0.83-2.47,1.25c-0.07-0.14-0.15-0.27-0.22-0.41
			c0.74-0.47,1.47-0.94,2.21-1.41C154.63,316.08,154.79,316.27,154.94,316.46z"/>
		<path d="M160.44,312.73c-0.69,0.46-1.38,0.91-2.06,1.37c-0.15-0.18-0.29-0.36-0.44-0.54
			c0.53-0.49,1.05-0.97,1.58-1.46C159.82,312.31,160.13,312.52,160.44,312.73z"/>
		<path d="M156.83,314.37c0.4-0.34,0.79-0.68,1.19-1.02c0.27,0.28,0.53,0.56,0.8,0.84c-0.5,0.23-1,0.45-1.5,0.68
			C157.16,314.7,156.99,314.54,156.83,314.37z"/>
		<path d="M154.47,315.88c0.39-0.13,0.79-0.25,1.18-0.38c-0.24,0.32-0.47,0.64-0.71,0.96
			C154.79,316.27,154.63,316.08,154.47,315.88z"/>
		<path d="M277.65,316.94c-0.79-0.51-1.59-1.01-2.38-1.52c0.2-0.21,0.39-0.41,0.59-0.62c0.77,0.53,1.53,1.06,2.3,1.59
			C277.99,316.58,277.82,316.76,277.65,316.94z"/>
		<path d="M274.41,318.53c-0.81-0.52-1.62-1.05-2.42-1.57c0.11-0.19,0.23-0.37,0.34-0.56c0.81,0.51,1.63,1.03,2.44,1.54
			C274.65,318.14,274.53,318.34,274.41,318.53z"/>
		<path d="M278.16,316.39c0.42,0.3,0.83,0.6,1.25,0.9c-0.07,0.13-0.15,0.25-0.22,0.38c-0.51-0.24-1.02-0.48-1.53-0.73
			C277.82,316.76,277.99,316.58,278.16,316.39z"/>
		<path d="M275.86,314.8c-0.2,0.21-0.39,0.41-0.59,0.62c-0.2-0.33-0.39-0.66-0.59-1
			C275.07,314.55,275.46,314.68,275.86,314.8z"/>
		<path d="M280.19,317.72c0.2,0.13,0.4,0.25,0.6,0.38c-0.05,0.08-0.09,0.16-0.14,0.25c-0.23-0.13-0.46-0.26-0.69-0.39
			C280.04,317.87,280.12,317.8,280.19,317.72z"/>
		<path d="M279.96,317.95c-0.13-0.13-0.26-0.26-0.38-0.4c0.21,0.06,0.41,0.11,0.62,0.17
			C280.12,317.8,280.04,317.87,279.96,317.95z"/>
		<path d="M275.31,318.52c-0.08,0.04-0.16,0.1-0.25,0.11c-0.03,0.01-0.08-0.08-0.12-0.12c0.08-0.04,0.16-0.1,0.25-0.12
			C275.22,318.4,275.27,318.48,275.31,318.52z"/>
		<path d="M83.1,238.42c1.18,0.35,2.36,0.7,3.54,1.05c-0.08,0.24-0.15,0.49-0.23,0.73c-1.17-0.42-2.34-0.85-3.51-1.27
			C82.96,238.75,83.03,238.59,83.1,238.42z"/>
		<path d="M86.71,239.73c0.42,0.15,0.83,0.3,1.31,0.47c-0.17,0.26-0.25,0.45-0.28,0.44c-0.41-0.13-0.81-0.28-1.21-0.42
			C86.58,240.05,86.65,239.89,86.71,239.73z"/>
		<path d="M89.36,241.84c-0.43-0.26-0.86-0.53-1.29-0.79c0.09-0.17,0.17-0.34,0.26-0.5c0.48,0.22,0.96,0.44,1.44,0.65
			C89.63,241.42,89.49,241.63,89.36,241.84z"/>
		<path d="M344.97,239.6c1.31-0.39,2.63-0.79,3.94-1.18c0.06,0.17,0.12,0.34,0.18,0.51c-1.35,0.51-2.7,1.02-4.04,1.53
			C345.02,240.17,344.99,239.88,344.97,239.6z"/>
		<path d="M344.97,239.6c0.03,0.29,0.05,0.58,0.08,0.86c-0.61,0.36-1.22,0.72-1.83,1.08c-0.14-0.23-0.29-0.46-0.43-0.69
			C343.51,240.43,344.24,240.02,344.97,239.6z"/>
		<path d="M341.77,241.35c0.45-0.09,0.89-0.18,1.34-0.28c-0.28,0.38-0.55,0.77-0.83,1.15
			C342.12,241.93,341.95,241.64,341.77,241.35z"/>
		<path d="M163.95,113.69c-0.05,0.11-0.09,0.23-0.14,0.34c-0.07-0.06-0.21-0.13-0.21-0.19c0-0.12,0.08-0.23,0.13-0.35
			C163.8,113.55,163.87,113.62,163.95,113.69z"/>
		<path d="M162.9,115.19c0.13-0.22,0.25-0.45,0.38-0.67c0.08,0.03,0.16,0.06,0.25,0.09c-0.1,0.29-0.19,0.58-0.29,0.88
			C163.13,115.39,163.02,115.29,162.9,115.19z"/>
		<path d="M270.37,119.02c-0.72-1.28-1.45-2.57-2.17-3.85c0.2-0.12,0.39-0.25,0.59-0.37c0.74,1.22,1.47,2.44,2.21,3.65
			C270.79,118.64,270.58,118.83,270.37,119.02z"/>
		<path d="M80.28,213.91c-0.21-0.14-0.41-0.27-0.62-0.41c0.04-0.09,0.09-0.17,0.13-0.26c0.26,0.12,0.52,0.23,0.78,0.35
			C80.47,213.69,80.37,213.8,80.28,213.91z"/>
		<path d="M253.64,314.81c-0.08-0.25-0.17-0.5-0.25-0.75c0.2,0.11,0.4,0.22,0.6,0.34
			C253.87,314.53,253.76,314.67,253.64,314.81z"/>
		<path d="M253.99,314.39c0.05,0.15,0.11,0.3,0.16,0.44c-0.17-0.01-0.34-0.02-0.51-0.03
			C253.76,314.67,253.87,314.53,253.99,314.39z"/>
		<path d="M201.96,84.61c0.5,0.15,1,0.31,1.5,0.46c-0.1,0.19-0.2,0.38-0.3,0.57c-0.39-0.36-0.78-0.72-1.17-1.08
			L201.96,84.61z"/>
		<path d="M202.37,88.41c-0.09-0.11-0.18-0.22-0.27-0.32c0.17,0.02,0.34,0.04,0.51,0.05
			C202.54,88.24,202.46,88.33,202.37,88.41z"/>
		<path d="M201.99,84.56c-0.08-0.02-0.16-0.04-0.24-0.06c0.04-0.02,0.11-0.06,0.11-0.05c0.04,0.05,0.06,0.11,0.09,0.16
			C201.96,84.61,201.99,84.56,201.99,84.56z"/>
		<path d="M269.8,149.86c-0.39,0.22-0.77,0.44-1.16,0.66c-0.08-0.12-0.17-0.25-0.25-0.37c0.36-0.26,0.71-0.52,1.07-0.78
			C269.57,149.54,269.69,149.7,269.8,149.86z"/>
		<path d="M158.93,146.62c0.24,0.05,0.48,0.1,0.72,0.16c1,0.77,2,1.55,3,2.32c-0.15,0.23-0.3,0.47-0.45,0.7
			c-1.08-0.68-2.17-1.35-3.25-2.03C158.94,147.39,158.93,147,158.93,146.62z"/>
		<path d="M165.06,152.47c-0.61-0.64-1.22-1.29-1.83-1.93c0.15-0.13,0.3-0.27,0.44-0.4c0.59,0.64,1.18,1.28,1.77,1.92
			C165.31,152.19,165.19,152.33,165.06,152.47z"/>
		<path d="M162.53,150.09c0.09-0.24,0.19-0.47,0.28-0.71c0.16,0.37,0.32,0.74,0.48,1.11
			C163.03,150.35,162.78,150.22,162.53,150.09z"/>
		<path d="M162.53,150.09c0.25,0.13,0.51,0.27,0.76,0.4C163.03,150.36,162.78,150.22,162.53,150.09z"/>
		<path d="M209.24,139.14c-0.26,0.12-0.52,0.24-0.77,0.36c-0.05-0.08-0.09-0.17-0.14-0.25c0.2-0.15,0.4-0.3,0.6-0.45
			C209.03,138.91,209.13,139.02,209.24,139.14z"/>
		<path d="M179.33,126.19c0.22,0.11,0.45,0.22,0.67,0.34c-0.02,0.07-0.05,0.15-0.07,0.22
			c-0.29-0.08-0.59-0.16-0.88-0.24C179.15,126.4,179.24,126.3,179.33,126.19z"/>
		<path d="M210.16,305.03c-0.05-0.3-0.09-0.6-0.14-0.91c0.14,0.22,0.27,0.44,0.41,0.67
			C210.35,304.88,210.26,304.96,210.16,305.03z"/>
	</g>
</g>
</svg>
