<svg xmlns="http://www.w3.org/2000/svg" viewBox="0 0 1650 1473.88"><title>Asset 52</title><g id="Layer_2" data-name="Layer 2"><g id="Layer_1-2" data-name="Layer 1"><path fill="FRAME_COLOR" d="M2.89,526.65H382.53a48.86,48.86,0,0,1-7.43-15.49l-.56-1.88c-3.29-11.31-5.67-19.47-13.27-27.88l-2.87-3c-4.16-4.43-8.9-9.46-11.77-15.8a50.1,50.1,0,0,1-4-21.26c-16.51,16.79-37.43,28.19-61.61,31.58-44.7,6.25-90.5-18.18-133.45,2.31-8.25,3.91-15.37-7.67-7.27-12.45,1.94-1.14,17.48-17.53,48.54-50.35,29.21-30.88,27.2-40.6,46.77-50.29a80.1,80.1,0,0,1,29.85-7.91l-3.75-6.32a37.27,37.27,0,0,0-4.25-5.67c-3.55-3.72-8.41-6.65-13.13-9.45-1.72-1.05-3.36-2-5-3.05-.83-.53-1.79-1.14-2.8-1.82a37.32,37.32,0,0,1-14.45-14.42,28.27,28.27,0,0,1-2.81-7.12,30.64,30.64,0,0,1,1.45-17.89c2.28-6.25,5.55-11.89,8.72-17.31,1.05-1.79,2.1-3.58,3.08-5.36,2.59-4.65,4.93-9.52,7.21-14.2,3.11-6.44,6.35-13.06,10.17-19.32,21.19-34.84,58.62-46.08,111.26-33.48,1.18.31,2.31.64,3.52.95-1.7-1.63-3.33-3.26-4.93-4.93a160.53,160.53,0,0,0-62.38-28.09c-1.24,1.91-2.47,3.82-3.67,5.73-2.25,3.48-8.32,5.3-11.3,1.48-7.86-10-6-25.42,5.7-31.82,4.34-2.38,8.93-.13,10.56,4.28a20.26,20.26,0,0,1,1.17,8.13,171.79,171.79,0,0,1,36.94,12.29A222.24,222.24,0,0,1,317,131.24c-3.42.28-6.87.53-10.29.8-5.82.44-8.47-6.34-6.22-10.84,5.6-11.18,18-16.42,30-14.35,5,.86,6,6.77,4.31,10.56a18.73,18.73,0,0,1-7,7.92,203.47,203.47,0,0,0,39.68,59.82c1.17.86,2.34,1.82,3.54,2.74A83.09,83.09,0,0,1,365.79,174c-6.46-23.63-7-41.68-1.69-56.77,3-8.57,8.19-15.87,16.3-23a170.85,170.85,0,0,1,17.92-13.16c1.64-1.08,3.3-2.19,4.93-3.29l.09-.1A6,6,0,0,1,405.78,76l.12-.06c1.54-1.08,3-2.16,4.5-3.27a137.72,137.72,0,0,0,11.12-10c9.77-9.43,19.84-19.16,33.42-21.16a5.72,5.72,0,0,1,2.5-.31l.86-.09c16.82-.71,34.29,6.19,50.67,13.86l.13,0a6.73,6.73,0,0,1,2.46,1.17l3.7,1.79C532.88,66.37,550.13,77,556.94,97c6.53,19.25,4.16,40.35,1.32,56.59l-.27,1.63c23.47-13.09,54.12-25.14,97.68-27.57a118.84,118.84,0,0,1,18.45.49c-2.4-10.59-4.53-20-3.36-31.66.68-6.72,1.51-12.91,1.88-19.1,0-.47,0-1-.06-1.39-.25-6.5-7.21-17.1-13.4-26.43-8.84-13.46-16.51-25.08-13.28-34.5,1-2.84,3.42-6.63,9.49-8.69l.77-.21c80.19-15.5,139.15,51.41,156.49,78.24,21.25-38.51,55.11-56.9,92.69-73,4.9-2.09,47.93-20,56.06-6.22a18,18,0,0,1,2.13,7.36c4.68,16.24-1.91,38.2-4.22,53.63-2.93,19.44-3.88,38.6-4.07,57.58.19-.16.37-.34.56-.53,10.29-8.41,24.64-15.43,39.64-20.45l5.06-1.57c2.43-.74,4.89-1.42,7.33-2l8.93-2a183.59,183.59,0,0,1,23-2.25,0,0,0,0,0,0,0l8.47.31c13.09,1.54,28.8,8.66,38.54,17.41l8,8.1c1.14,1.26,2.25,2.52,3.33,3.82,9.24,11,14.35,26.67,21.37,39.74-.4-10.79.93-20.71,4.75-29.73a.11.11,0,0,1-.09,0l2.31-4.56c5.42-10.07,17.77-26.89,31.14-34.59,6.47-3.73,13.68-7.89,21.19-11.93-.06,0-.09-.06-.15-.06,1.42-.8,3.17-1.75,5.24-2.83l.21.09a193.38,193.38,0,0,1,25.42-11.18.4.4,0,0,1-.1-.16c1.85-.61,3.7-1.2,5.52-1.69,0,.06.09.09.12.15,1.39-.4,2.83-.86,4.22-1.17.89-.21,1.82-.37,2.74-.55A68.19,68.19,0,0,1,1233.72,65c6.81,0,12.32,1.23,15.59,3.24,4.65,2.89,7.54,9.11,9,12.9-.12-.06-.25-.09-.34-.15,2.62,7.11,5.08,22,7.43,29.14,5.94,18.48,19.19,27.82,24.36,47,4.38,16.26-1,34.28-7.58,46.11a474.33,474.33,0,0,0,92.39-61,9.93,9.93,0,0,1,1.14-12.63c6.87-6.87,16.32-2,21.84,3.76,5.73,6,10.16,15.83,2.16,22.05-6.26,4.87-13.74,2.1-17-3.79a497.75,497.75,0,0,1-42.32,32,860.11,860.11,0,0,1,88.93-16.36,9.58,9.58,0,0,1,7-7.92c9.46-2.77,14.51,6.5,14.76,14.54.18,7.24-2.28,16.39-11,17a10.32,10.32,0,0,1-9.4-4.72,12.67,12.67,0,0,1-2-6.31,826,826,0,0,0-81.45,14.94c9.61,2.74,18.73,6.93,25.85,12.45a303.82,303.82,0,0,1,37.8,1.35c2.8-6,7.94-11.46,15.31-8.75,8.78,3.21,8.1,13.19,5.32,20.33-2.55,6.6-6.4,17-15.61,13.87-6.38-2.16-7.74-7.68-6.78-13.13-7.76-.74-15.56-1.14-23.35-1.26,12.85,14.2,27.14,34,31.57,49.56,5,17.47-10,30.69-21.77,42.64-.74.77-1.45,1.6-2.22,2.4l-12.76,14.2a208.57,208.57,0,0,1-17.86,18.82c1.94.37,3.85.8,5.73,1.27l31.91,14.29c40.57,26.68,67.56,77.72,109.51,103.47,7.89,4.84.83,17-7.27,12.42-37.18-20.83-79.29.92-118.5,3-25,1.32-49.11-4.13-68-19.75-2.65,13.18-10,24.86-19,38.1-4.82,7-8.8,16.9-13.2,26.74h363.35a14.8,14.8,0,0,1,0,17.58H2.89a14.8,14.8,0,0,1,0-17.58Zm1382.2-391.77c-.3-.34-.89-.56-2.09-.62A5.44,5.44,0,0,1,1385.09,134.88ZM493.26,293.77c-2.68-1.17-6.46-.71-10.5,1.29-2.49,2.84-4.16,5.58-4.68,7.77a9.67,9.67,0,0,0,1.17,7.79c4.37,4,11.67,4.93,16.48,1.91,3.63-2.25,5.57-5.24,5.85-8.9A15.79,15.79,0,0,0,493.26,293.77Zm1.64-34.59a47.1,47.1,0,0,1-6.72-4.9c-.06,6.65,0,13.31.22,19.93A85.85,85.85,0,0,0,494.9,259.18Zm6.31,22.21a136.16,136.16,0,0,0,11.86-13.62c-1.05-.43-2.06-.83-3.08-1.23a82.33,82.33,0,0,1-9.61,14.26Zm8,3.35c4.93-4.28,10.11-8.5,15.37-12.72-1.26-.46-2.52-.89-3.75-1.35A159.18,159.18,0,0,1,509.22,284.74Zm3.73,7.43c7.11-3.95,15.06-6.72,22.76-9.4,2.1-.71,4.13-1.42,6.1-2.15,1.33-.47,2.65-.9,4-1.36-2.34-.8-4.69-1.6-7-2.37-1.72-.59-3.45-1.17-5.14-1.76C526.5,280.77,519.54,286.44,513,292.17Zm27.48-2.59c-7.49,2.53-15.22,5.11-21.94,8.66,14.45-2.07,28.62-1.91,43.5-1.76,2.87,0,5.73.06,8.59.06,4.32,0,8.6,0,12.88,0l5.11,0h.16c-1.88-.86-3.76-1.73-5.64-2.65A249,249,0,0,0,558,283.54c-3.6,1.2-7.05,2.4-10.44,3.61C545.23,288,542.86,288.75,540.43,289.58Zm48.21,16.26-10.82.07c-5.23.06-10.41,0-15.58-.07-6.38-.06-12.6-.15-18.76,0a318.57,318.57,0,0,1,70.29,12.26A167.35,167.35,0,0,1,661,340.72l1.29.86c8.84,6,18.61,12.6,25.54,21.25-.16-1.29-.34-2.58-.62-3.88-2.34-10.44-8.75-20.42-16.79-28.65a146.68,146.68,0,0,1-43-13.37c-6.44-3.17-12.72-6.71-19-10.35-5-.06-10-.24-14.94-.49Zm98.73,72.4c-5.64-17.1-28.53-30.1-42.24-37.92a161.63,161.63,0,0,0-39.06-16c-30.68-8.1-59.64-11.71-86.19-10.69,28.4,10.5,57.85,27.32,91.68,52.3,20.57,15.16,46.94,35.74,69.24,60.66A36.54,36.54,0,0,0,685,415.36c1.33-6.54,1.42-13.07,1.51-20,.06-2.89.09-5.76.22-8.65s.4-5.64.68-8.38Zm-11.83,54.55c-22-24.74-48.21-45.22-68.64-60.28-23.22-17.13-58.53-41.28-98.42-54.31-.46.55-.92,1.08-1.41,1.57A491.36,491.36,0,0,0,561.62,382c25,24.19,55.57,50,92,57.79a3.91,3.91,0,0,1,2.34,1.48c1.64-.12,3-.27,4.38-.46a27.72,27.72,0,0,0,15.52-7.7A2.86,2.86,0,0,1,675.54,432.79ZM561,392.53a491.73,491.73,0,0,1-55.35-61.21c1.51,4.68,2.92,8.9,4.31,12.91a171.42,171.42,0,0,1,8.5,21.93c12.66,29.42,27.79,50,47.63,64.88,20.11,15,38.81,15.61,60.68,11.85,2.22-.36,4.44-.64,6.63-.8C604.69,431,580,410.27,561,392.53Zm-44.2,7a238.34,238.34,0,0,0-7.27-30.37c-2.74-6.44-5.45-13.4-8.19-21.2-1.27-2.68-2.59-5.26-4-7.82.92,5.14,1.54,10.32,2.16,15.4.24,2,.46,3.91.74,5.82,2,15.75,4,32.6,4.46,49.26.9,32.38-10,67.4-28.8,93.37,1.91-.62,3.67-1.26,5.36-2,15.46-6.47,26.77-20.7,33.55-42.27C520.43,441.88,521.05,423.3,516.8,399.49Zm-20.27,8.93c-.62-16-2.53-32.22-4.28-45.89-.28-2-.53-4-.77-6.1-1.11-9.4-2.28-19.07-5.18-27.73-5.76,36.17-18.48,71.93-30.77,106.56l-.86,2.49C443.21,470,431.07,501,409.29,525.88c6.47-1.14,13.43-4.53,19.78-7.61,2-1,4-1.94,5.88-2.77,7.92-3.6,16.36-5.48,24.49-7.3,1.17-.25,2.37-.52,3.54-.8C485.07,482.05,497.92,444.16,496.53,408.42ZM373.71,477.67c5.7,6.9,7.92,14.85,10,22.52,1.85,6.5,3.58,12.66,7.27,18.12v0a17.35,17.35,0,0,0,8,6.8c24.21-25.1,36.84-57.79,49.69-94.78l2-5.76c11.15-32.07,22.67-65.22,27.85-98.36a29.84,29.84,0,0,1-3.27-1.57c-19.65,17.92-37.48,38.47-54.77,58.4l-2.12,2.44c-27.39,31.57-42.42,60-47.23,89.27C372.05,475.73,372.88,476.69,373.71,477.67Zm-13.92-15.92a47.21,47.21,0,0,0,4.56,5.82c6-28.4,21.16-56.31,46.14-85.24l3-3.39c10.93-12.66,22.12-25.59,33.85-38-5.94,3.3-11.95,6.35-17.89,9.37-16.58,8.41-33.67,17.06-47.23,30.12a91,91,0,0,0-24.33,40.73,6.3,6.3,0,0,1-.47,1.85,83.9,83.9,0,0,0-2.18,11.33C353.9,446.13,355.35,454.85,359.79,461.75Zm101-143.18C439.54,326.11,422,331.14,405,334.68a539.29,539.29,0,0,1-66.39,9.24l-4.56.37c-10.62.89-21.62,1.82-32.4,1.2-7.46-.43-14.88-1.54-22.06-2.62-2.46-.37-5-.74-7.45-1.08,1.41,2.16,2.74,4.38,4,6.53,3.14,5.24,6.1,10.2,10.35,14.3C299,374.79,316.35,378,341,372.78c20.48-4.34,37.82-12.87,56.18-21.9,2.81-1.35,5.61-2.74,8.44-4.13,5.43-2.62,11-5.08,16.42-7.45C435.38,333.45,449.09,327.41,460.83,318.57Zm-288.09,135c17.41-2,35.06-.09,53.45,2.35,46.45,6.19,89.21,3,118-38.85a7.56,7.56,0,0,1,3.27-2.68c.92-2.8,1.78-5,2.43-6.56a94.5,94.5,0,0,1,15.71-25.75,596.23,596.23,0,0,0-111.27,33.36c14.17-11.77,29.33-24,46.43-30.87A53.38,53.38,0,0,1,290.11,380a60,60,0,0,1-17.62-15.58,4.7,4.7,0,0,1-.9.15C223.54,368.59,203.33,419.24,172.74,453.58Zm65.43-174.07c-3.33,5.6-6.9,11.89-7.7,18.2a21.86,21.86,0,0,0-.15,2.37c0,10.23,8.93,15.68,18.32,21.41l2.28,1.39c5.09,3.17,9.68,6.1,13.74,9.89,5.33.55,10.69,1.35,15.9,2.09,5.6.83,11.43,1.7,17.16,2.22,12.84,1.17,26.09,0,38.93-1.08l3.36-.27a531.31,531.31,0,0,0,63.33-9c18-3.73,36.45-9.12,59.4-17.4a20.68,20.68,0,0,1-.8-4.62c-40.79-14.36-86.44-19.81-126.76-24.62l-5-.58c-12.72-1.54-25.9-3.14-38.75-3.21-10.35-.06-21,.65-31.23,1.36l-.93.06c-1.91.12-3.94.19-6.07.25C248.06,278.15,242.7,278.31,238.17,279.51Zm29.39-52c-7.27,9.05-12.51,19.68-17.56,30-2.16,4.34-4.37,8.84-6.75,13.22,1.94-.16,3.92-.25,5.83-.34,1.57-.06,3.11-.16,4.55-.25,11.06-.83,21.78-1.42,31.89-1.69,15-.44,30.19,1.35,44.82,3.05l2.62.3c41.21,4.81,87.76,10.2,129.9,24.8.22-.83.52-1.66.83-2.49-9.24-4.07-18.23-10.11-27-15.93-5.33-3.57-10.38-7-15.44-9.86C404.39,258.5,387,248.39,369,240.17c-14.54-6.66-29.82-10.57-48.06-12.26l-6-.59c-15.53-1.54-31.55-3.11-47-.24C267.77,227.2,267.68,227.35,267.56,227.48Zm10.07-9.68c12.82-.92,25.6.31,38.08,1.51l5.91.56c20.18,1.85,37.46,6.5,54.37,14.69,20.42,9.89,39.8,21,56.07,30.62,10.44,6.19,20.6,12.48,30.18,18.67.84.55,2.1,1.2,3.42,1.91.74.37,1.48.77,2.25,1.17.19-.18.34-.4.53-.62-.65-1.07-1.36-2.18-2.19-3.35-6.29-6.72-13.19-13.56-20.95-20.83l-.28-.21c-3.41-2.87-7-5.83-10.19-8.84C418.29,237.73,403.13,225.91,383,218,366.07,211.34,311.18,192.85,277.63,217.8ZM402.05,92c-9.49,6.34-19.16,13.7-24.36,23.72-8.72,16.69-5,37.55-1.36,51.78C383.26,194.92,403,212,424,230.19l4.59,4c.34.28.65.56,1,.83l.71.65c10,8.75,18.54,16.57,26.21,23.94.4.37.77.71,1.17,1-1.11-1.72-2.25-3.45-3.35-5.14-2.31-3.51-4.69-7.15-6.9-10.81-10.39-17.32-19.47-37.18-27.85-61C409.88,156.23,398,122.49,402.05,92Zm52.77-37.59c-7.95,2.28-14.29,8-21.53,14.51-2.37,2.16-4.87,4.38-7.52,6.63a159.67,159.67,0,0,1-14.42,10.32c-7.27,31.05,6.07,68.2,16.82,98.14l.56,1.54a320.55,320.55,0,0,0,20.82,46.82c4,7.21,8.5,14.27,12.42,20.34,1.75,2.68,3.42,5.85,5.17,9.18,3.45,6.53,7,13.27,11.37,17,.65-.28,1.32-.52,2-.74-.55-11.71-.55-23.47-.34-35.12a40.12,40.12,0,0,1-2.43-26.34,38.2,38.2,0,0,1,3.08-8c.12-8.41.18-16.85-.06-25.19C479.56,143.35,471.55,103.49,454.82,54.38Zm50.12,11.34a178.65,178.65,0,0,0-33.67-11.4,38.88,38.88,0,0,0-8.32-1c15.22,45.07,23.35,84.37,25.6,123.4.37,7,.49,14,.52,21a47.22,47.22,0,0,1,15.13-9.39,77.28,77.28,0,0,0,10.17-5.27C521,143.78,517.79,102.44,504.94,65.72ZM527.8,78.47A140.86,140.86,0,0,0,515,70.74a247.55,247.55,0,0,1,8.32,106.59c1.73-1.14,3.45-2.28,5.24-3.51,4.86-3.33,10.07-6.84,15.74-10.45C552,130.57,554.23,96.56,527.8,78.47ZM656,145.57C594.8,149,560.42,166.14,535.1,183.36c-9.92,6.72-18.49,12.54-26.68,15.75-13.15,5.14-17.87,13.92-19.5,20.36a28,28,0,0,0,5.42,24.67c6.47,7.7,30.65,11.09,51.14,18,15.71,5.3,31.91,10.79,45.68,17.53,6.66,3.27,13.31,6.19,19.93,8.84.77.28,1.57.59,2.34.9,48.34,18.79,95.38,21.13,140.13,6.87,12-6.26,19.2-4.69,29.36-3.67,9.86,1,19.59,5.11,30.56,12.94.8.55,1.57,1,2.34,1.48-6.25-9.49-16.85-24.68-26.28-33.8-8.71-8.41-20.14-13.89-27.53-18.17-2.25,3.14-3.67,7.45-8.23,7.64-5.88.24-7.48-8.69-6.38-13,1.27-4.93,10.05-21.13,17.29-15.62,2.89,2.19,4.19,8.07,3.23,12.66,2.5.71,4.34,1.42,4.34,1.42,14,5.94,25.69,15.62,35.09,25.81-15.65-35.7-53.08-54.28-68.05-63.76-2.22,3.11-3.66,7.39-8.22,7.57-5.86.25-7.46-8.68-6.35-13,1.26-4.89,10-21.13,17.28-15.61,2.78,2.12,4.13,7.7,3.36,12.19,7.24,2.65,17.81,8.41,32.59,19.07,20.49,14.76,34.54,36.91,43.22,54.37-7.91-28-18.17-40.41-18.33-40.6l-.49-.68C801.71,232.53,738.47,141,656,145.57Zm137.54,57a.58.58,0,0,1,0-.22c0,.06,0,.09,0,.15ZM658.78,17.42c-.83.34-1.76.8-2,1.42-1.39,4,6.68,16.29,12,24.36,7.33,11.15,14.94,22.64,15.31,32.59.68,19.16,1.51,40.73,11.58,56.62,41,11.77,74,42.61,94.33,66-2.47-17-7.12-46.3-11.31-56.1C775,133.49,768.2,126,764.32,120.8c-3.79,1.23-7.58,4.37-11.62,1.82-5-3.11-1.29-11.4,2.1-14.33,3.82-3.35,20.21-11.76,23.07-3.14,1.23,3.76-1.51,10-5.36,13.06.92.77,1.51,1.36,1.51,1.36,8.93,9.18,14.57,20.73,18.11,31.6a157.47,157.47,0,0,1,12.51-45.46C795.18,90.12,738.13,2.42,658.78,17.42Zm293-5.64c-7.79-2.12-52,7.36-92.16,41-36.17,30.29-74.09,84.66-49.44,171.71.8,1.14,1.35,2,1.66,2.49a74.53,74.53,0,0,1,6.71,10.23c0-8,.47-16.66.87-24.33a190.92,190.92,0,0,1,3.39-27.64c-3.55-2.34-9.34-2.34-10.54-7.48-1.33-5.7,7.15-9,11.61-8.66,4.29.28,17.47,4.32,19,10.48,6.28-20.4,14.51-39.19,20.08-47.5-2.71-3.15-7.88-5-7.42-10.11.52-5.85,9.61-6.28,13.74-4.62,4.71,1.88,19.65,12.69,13.28,19.13-2.84,2.83-9.8,3.23-14.24,1.11-4.37,16.36-19.9,51.44-23.16,96.94a362.47,362.47,0,0,0,2.71,75.6c-1.26-16.45-.34-48.06,7.05-67.84,6.57-17.55,19.13-37,27.45-46.6-2.8-2.84-7.42-4.78-7-9.61.52-5.86,9.58-6.32,13.74-4.62,4.68,1.87,19.65,12.69,13.24,19.13-3,3.11-11.06,3.29-15.34.43-6,12.87-18.48,34-24.73,50.24-5.39,14-5.3,35.76-4.44,50.49.71-32.38,6.47-47.53,15.34-61,15.74-23.93,59.76-52,57.27-99.13-1.42-27.29,6.9-59.29,13.58-85C948.81,38.52,954.14,18.1,951.82,11.78ZM834,226.68c.18-12.33,3.23-27.42,7.45-42.05-2.83,3.05-8.93,4.9-13.25,3.76-.43,6.13-1.44,14.72-2.61,26.12-1.36,13.55-.16,29.08,1.23,40.41a201.13,201.13,0,0,1,6.78,21.38C833.44,262.53,833.66,245.78,834,226.68Zm259.46-85.24a106.16,106.16,0,0,0-19.25-22.06c-7.45-5.54-15.77-9.42-25.1-10.19-23.85-2-65.49,7.54-83.64,23.56-4.1,3.58-7,8.44-9.21,14,36.94-14.88,75.5-20.4,112.56-7.52a154.55,154.55,0,0,1,33,16.2C1099.32,150.8,1096.61,146.24,1093.43,141.44Zm-29.75,13.21c-41.74-14.47-84-10-125.47,13.4-12.63,39.56-51.66,73.1-56.16,80.31-1.57,2.71-8.1,14.91-11.15,36.23,12.35-23.07,30.93-42,46.73-53.85,13.06-9.76,27.88-19.59,37.21-22.42-.86-2.38-1.38-4.78.28-7.21,3.33-4.84,11.46-.8,14.26,2.65,3.18,4,11,20.67,2.22,23.19-4.16,1.2-11.21-2.52-13.58-7-6,3.94-16.48,9.21-32,18.94-13.77,8.63-26.4,23.51-36.07,37.06,8.32-6.22,18.88-11.86,28.43-16.82,10.84-5.6,23.75-11.83,32.25-14.29-1-3.45-1.81-7.36-.06-9.52,3.58-4.34,10.72,2.22,12.88,5.3S969,253.45,965,255.94s-7.92-.8-10.63-4c-6.81,3.78-19.34,8-34.53,15-13.22,6.16-24.46,15.86-31.76,23.16,8.72-3.42,19.59-6,31.27-4.83a55.92,55.92,0,0,1,30.46,13c1.14.92,2.16,1.91,3.21,2.86,16.91-.74,31.23-6.41,46.63-15,18.27-10.2,31.76-25.91,49.85-36.07,19.46-11,36.62-10.45,58.59-9.4,18.73.89,40.54-5.36,38-25.57C1140.72,205.82,1110.35,170.83,1063.68,154.65Zm87.73,186.56a10.49,10.49,0,0,0-2.13,2.46c-.27.8-.55,1.57-.77,2.28-1.38,4.22-3.17,8.5-4.8,12.69a168.69,168.69,0,0,1-8,17.5c-2.56,4.84-6.53,13.34-11.58,16.17-7.12,3.95-2.81-4.56-.77-7.51a96.05,96.05,0,0,0,7.48-13.74c6.29-13.77,10.81-23,13-34.69-2.34,3.27-5.27,6.5-7,8.69-6.84,8.44-15.07,16.2-22.21,24.52s-15.74,14.69-24.65,21c-3.23,2.31-8.25,6-12.26,6.44-6.19.58-3.6-5-.61-7.89,6.59-6.41,14.32-12.26,21.31-18A235.83,235.83,0,0,0,1126.83,343c2.18-2.53,8.38-12.3,13.83-16.42a27.12,27.12,0,0,1-1.76-3.64c-13.06,8.2-28.58,14.39-43.16,19.22a69.52,69.52,0,0,1-18,3.92c-4.56.27-10.07-1-4.59-5,5.33-3.88,15.9-6.13,22.06-8.47,5.51-2.09,10.41-4.93,15.71-7.36,7.61-3.51,17.59-10,26.18-10.93a17.28,17.28,0,0,1,0-1.76c-1.84-.56-3.75-1-5.69-1.42-22.06-1.38-45.63-.18-68.85-.37-4.75,1.08-9.61,1.79-14.3,3-11.36,3-21.62,9.15-31.66,15.28q-7.39,4.53-14.79,9.09c-5.91,4.16-11.64,8.56-17.28,13.06a82.76,82.76,0,0,1,.8,12.17c-.8,13.95-5.18,26.67-9.74,39.83a314.29,314.29,0,0,1-19.31,44.7c-1.63,3-3.08,6-4.5,9,.9,6,1,12.2,2.1,18.21s3.54,12.19,8.19,16.29c5.24,4.65,12.42,6,19.44,6.81,10.57-.77,22.18-3.45,32.75-2.16a105.9,105.9,0,0,1,15.64,3.48,67.42,67.42,0,0,0,47-14.17,109.67,109.67,0,0,0,15.5-15.86,159.83,159.83,0,0,0,13.3-18.11,196,196,0,0,0,10.32-20.21c12-25.75,24-51.54,34.2-78.09C1151.56,349.25,1153,345,1151.41,341.21Zm1.08-20.21a13.11,13.11,0,0,0,8.44,6.75c7.39.34,15.43-4.78,17.56-12.17,1.66-5.79.46-10.38-2.34-13.86a19.57,19.57,0,0,0-16.52-2.68c-4.28,1.41-7.45,5.7-9.3,10.62C1150.3,313.76,1150.85,318,1152.49,321ZM1086,271.53c5.24-.86,13.49,4.59,18.3,6.65a88.74,88.74,0,0,1,14.44,7.55c4.81,3.2,15.53,9.21,20.83,15.37a23.41,23.41,0,0,1,1.48-2.8c-3.3-7-10-13.09-14.79-18.76-4.34-5.15-8.81-10.08-13.49-14.67-4.07-4-8.5-7.73-13-11.39-29.42-2.56-49.72,14.51-73.66,39.27a378.31,378.31,0,0,0,39.53,2.41c18.14.12,36.81-.87,54.4,2.8-5.18-2.93-10.23-6-15.19-9-5.2-3.14-10.93-5.63-16.23-8.41C1084.47,278.37,1077.05,273,1086,271.53Zm29.57-16c7.64,7.85,14.39,14.88,20.36,24,1.67,2.49,6.53,8.34,9.52,13.73a5.81,5.81,0,0,0,.5-.49c.27-12.47-4.07-23.66-9.62-34.9a77.86,77.86,0,0,0-4.09-6.72,64.59,64.59,0,0,1-18.12,3C1114.54,254.55,1115,255,1115.52,255.48ZM1272,155.21a108.89,108.89,0,0,0-4.19-15.22c-6.72-10.84-14-21-17.07-34.32-1-4.49-.8-10.75-3.2-14.66-8.44-13.77-27.72-10.56-39.58-6-10.35,4-20.46,9.55-30.5,14.66a176.92,176.92,0,0,0-19,15.89c-8.84,8.54-17,18.83-20.85,30.22a85.81,85.81,0,0,0-1.85,15.34,126.32,126.32,0,0,0,1.85,24.09c10.94,11.65,17.87,22,19.81,26.87,3.14,7.79,1.44,17.06-4.47,24.82-.68.87-1.48,1.61-2.22,2.44,3.67,15.49,6.19,31.26,4.65,46.94,0,.65.07,1.27.07,1.88.4-.09.83-.12,1.26-.21,1.82-7.67,2.49-15.56,3.85-23.54.86-4.93.4-21.9,3.6-25.38,7.27-7.92,6.29,19.75,5.89,23.32-.68,5.67-.84,11.24-1,16.79a46.82,46.82,0,0,0,2.31-6c2.22-7.61,4.56-15.62,6.22-23.41,2.41-11.34,3.76-23.11,7.37-33.92,9.21,1-1.08,36.6-2.1,42.7-1.11,6.44-2.12,13.43-3.54,19.87,1.08-1.42,2-2.62,2.62-3.45,2.18-3.05,14.26-21.29,17.19-18.21,2.4,2.53-6,15-7.24,17.62-2,4.22-4.56,8.23-7,12.26l67.28-74.48c6.9-7.67,14-15.53,17.74-25.11C1273.89,177,1274,165.77,1272,155.21Zm97.93,159.11c5-6.9,10.07-13.8,15.12-20.74,3.45-4.71,7-9.58,8.66-15.18,2.16-7.15,1.17-14.94-1.39-21.94-2.21-6-5.51-11.58-8.9-17.06-6.93-9.09-14.66-18.11-22.3-23.91a52.38,52.38,0,0,0-12-6.65c-14.47-4.44-30.55-3.51-45.15,1-17.87,5.51-33.86,15.86-49,26.8q-22.46,16.22-43.22,34.56c-4.68,4.31-9.33,8.69-13.74,13.28,8.11-4.56,21.29-10.94,30.41-6.32-1.39,5.15-15.13,9-19.53,11.06-7.86,3.67-16.2,7.7-20.55,15.46,14.33-6.13,27.7-11.64,43.68-14.66a86.63,86.63,0,0,1,21.6-1.57c3.45.22,15.92,1.66,9.76,6.72-1.81,1.51-8.07.49-10.41.74a109.21,109.21,0,0,0-11.46,2.15c-7.08,1.51-14.2,3.51-21.13,5.64-5.51,1.69-10.87,3.6-16.39,5.39-1.88.59-3.82,1.14-5.76,1.72a119.66,119.66,0,0,1,12.85.22c8.38.62,25.53,2,30.62,10,4.62,7.24-2.78,4.44-7,3.27a99,99,0,0,0-14.54-2.93c-9.42-1.11-19.1-2.56-28.55-1.66a610.55,610.55,0,0,0,63.45,25c17,5.64,34.44,10.54,52.31,11.55a75.85,75.85,0,0,0,23.26-6,74.1,74.1,0,0,0,20.18-13C1358.11,330.49,1364,322.39,1369.91,314.32Zm-53.48,128.14a8.57,8.57,0,0,1,1.26,1.11c42.64,46.89,103.45,9.49,157.35,12.91C1435,417.17,1403.15,359.6,1343.66,360a63.86,63.86,0,0,1-8.19,3.2,110.64,110.64,0,0,1-32.5,4.69,193.17,193.17,0,0,1,89.27,55c-40.54-16.11-81.14-32.28-120.14-51.78,19.1,17.84,36.88,40.78,42.85,63.83A65.85,65.85,0,0,1,1316.43,442.46Zm-47.34,84.19.24-.58c2.68-6.19,5.14-12.35,8.53-18.21,5.52-9.52,11.71-18,16.7-26.67,6.13-14.45,10.87-30.19,6.84-45.19-2.22-8.26-6.93-15.59-11.74-22.68-8.72-12.81-18.08-25.32-29.54-35.73-14.23-12.94-31.36-22.4-46.27-34.47.34.4.68.77,1,1.14,5.2,6.53,18.94,19.87,15.62,29.32-7.31,1-13.07-15.61-17-20.54a101,101,0,0,0-23-20.92c-2.89-.86-5.76-1.63-8.63-2.31a9,9,0,0,1-.89.86c1,1.42,2.22,3.08,3.73,4.9,3.94,4.81,8.44,8.69,12.66,13.22,8.13,8.71,13.18,18,17.47,29.14,1.2,3.2,11.83,30.09,1.44,27.72-4.06-.92-6.09-12.17-7.23-15.49-2.13-6.35-5.4-11.65-8.48-17.56-3.88-7.55-7.54-15.28-12.78-21.9-4-5.12-9.55-10.05-13.12-15.68-.43.21-.83.46-1.27.64,4.19,7.09,3.79,18.89,4.41,25.54.89,10.17,3.2,26.74-2.43,35.89-8.45,1.2-5.15-23-5.67-28.9-.93-10-1.36-20.45-5-30.15h-.06c-2.41,17.28-8.72,34.13-15.07,50.92-12.81,51-12.81,78.79-5.61,97.22a79,79,0,0,0,9.22,16.94,61.34,61.34,0,0,0,26.46,18.17c4.83,1.64,9.88,2.56,14.78,4,1.5.41,3,.91,4.45,1.41Zm-114.88,0a82.86,82.86,0,0,1-9.36-10.75,93.42,93.42,0,0,1-14.3-27.11c-3.11-11.33-6.28-26.18-5.94-38.69,0,0-18,35.18-45.5,51.72-28.68,17.19-54.25-1-83.88,2.19-20.09,2.16-38.85,8.13-49-14A78.59,78.59,0,0,1,942,477.43a135.28,135.28,0,0,1-7.12,12.38c-1.85,2.83-4,5.76-6.31,8.63-6.35,11-15.39,20.63-23.56,28.21Zm-266.83,0c19.08-16.13,39-53.23,59.08-110.34,10.14-28.71,29-82.09-4-109.17a44.58,44.58,0,0,0-24.3-10.41c-21.29-2.16-40.36,11.52-42.88,13.37a56.38,56.38,0,0,1-19.44,12.59c5,7.58,12.75,21.35,15.12,35.49a67.18,67.18,0,0,1,1.42,8.57c1.32,13.61-1.63,27.84-9.4,39.12-.61-14.48-1.23-29-4.31-43.19C855.93,350,851,337.51,843,327.32c-8.07,39.3-7.88,79.84-7.58,120-5.17-7-7.91-15.37-9.61-24-2.25-7.85-3.72-20.7-3.35-34.1a290.89,290.89,0,0,1,5.2-64.59c-1.66-.41-3.36-.84-5-1.39-12.54,19.71-18.58,42.91-24.31,65.64a60.13,60.13,0,0,1,16.89-68.84A67,67,0,0,1,806.8,315c-9.28-6.62-17.26-10.07-25-10.87-13.12-1.3-27.14,4.8-48.36,21C702,349.16,719,405.28,725,421.89c8.5,23.72,29.17,66.57,48.51,80.58,8.35,6.09,17.47,15.25,26.28,24.18Zm-104,0a163.49,163.49,0,0,0-16.73-14.84,126.36,126.36,0,0,1-33.12-36.88c-.27-.34-.49-.61-.71-.86A185.93,185.93,0,0,1,718.66,456c-8.44-12.63-16.42-26.22-21.65-40.73-.25,1.57-.5,3.14-.9,4.68-4.22,17.53-17.22,30-33.88,32.53a97.19,97.19,0,0,1-15.13.71l0-2.4h-.3l-.34,2.4a85.48,85.48,0,0,0-13.19.56c-2.68.4-5.36.89-8.07,1.38-7.21,1.3-15.4,2.75-23.87,2.38-14.94-.74-30.13-7.21-45.1-19.16a140.55,140.55,0,0,1-25.66-26.77c1.54,13.8,1.23,25.81-.92,37.21-2.81,14.69-9.12,35.36-23.54,50.33-12.2,12.69-27.6,16.3-42.54,19.81-3.7.86-7.52,1.76-11.24,2.77a78.19,78.19,0,0,0-12.59,5Z"/><path fill="FRAME_COLOR" d="M1647.11,947.23H1267.47a48.65,48.65,0,0,1,7.43,15.49l.56,1.88c3.29,11.3,5.67,19.47,13.27,27.88l2.87,3c4.16,4.44,8.9,9.46,11.77,15.81a50.05,50.05,0,0,1,4,21.25c16.51-16.79,37.43-28.18,61.61-31.57,44.7-6.26,90.5,18.17,133.45-2.31,8.25-3.91,15.37,7.67,7.27,12.44-1.94,1.14-17.48,17.54-48.54,50.36-29.21,30.87-27.2,40.6-46.77,50.28a80.14,80.14,0,0,1-29.85,7.92l3.75,6.31a36.31,36.31,0,0,0,4.25,5.67c3.55,3.73,8.41,6.66,13.13,9.46,1.72,1,3.36,2,5,3,.83.52,1.79,1.14,2.8,1.82a37.28,37.28,0,0,1,14.45,14.41,28.43,28.43,0,0,1,2.81,7.12,30.66,30.66,0,0,1-1.45,17.9c-2.28,6.25-5.55,11.89-8.72,17.31-1,1.79-2.1,3.57-3.08,5.36-2.59,4.65-4.93,9.52-7.21,14.2-3.11,6.44-6.35,13.06-10.17,19.31-21.19,34.84-58.62,46.09-111.26,33.49-1.18-.31-2.31-.65-3.52-1,1.7,1.64,3.33,3.27,4.93,4.93a160.4,160.4,0,0,0,62.38,28.1c1.24-1.91,2.47-3.82,3.67-5.73,2.25-3.48,8.32-5.3,11.3-1.48,7.86,10,6,25.41-5.7,31.82-4.34,2.37-8.93.12-10.56-4.28a20.26,20.26,0,0,1-1.17-8.13,171.81,171.81,0,0,1-36.94-12.3,222.24,222.24,0,0,1,19.84,35.55c3.42-.27,6.87-.52,10.29-.8,5.82-.43,8.47,6.35,6.22,10.85-5.6,11.18-18,16.41-30,14.35-5-.86-6-6.78-4.31-10.57a18.76,18.76,0,0,1,7-7.91,203.64,203.64,0,0,0-39.68-59.83c-1.17-.86-2.34-1.81-3.54-2.74a82.87,82.87,0,0,1,5.27,13.93c6.46,23.62,7,41.68,1.69,56.77-3,8.56-8.19,15.86-16.3,23a169.33,169.33,0,0,1-17.92,13.15c-1.64,1.08-3.3,2.19-4.93,3.3l-.09.09a6,6,0,0,1-2.44,1.7l-.12.06c-1.54,1.08-3,2.15-4.5,3.26a139.85,139.85,0,0,0-11.12,10c-9.77,9.42-19.84,19.16-33.42,21.16a5.72,5.72,0,0,1-2.5.31l-.86.09c-16.82.71-34.29-6.19-50.67-13.86l-.13,0a6.89,6.89,0,0,1-2.46-1.17l-3.7-1.79c-17.62-8.47-34.87-19.07-41.68-39.12-6.53-19.26-4.16-40.36-1.32-56.59.09-.56.18-1.08.27-1.63-23.47,13.09-54.12,25.13-97.68,27.57a117.6,117.6,0,0,1-18.45-.5c2.4,10.6,4.53,20.06,3.36,31.67-.68,6.72-1.51,12.91-1.88,19.1,0,.46,0,1,.06,1.39.25,6.5,7.21,17.09,13.4,26.43,8.84,13.46,16.51,25.07,13.28,34.5-1,2.83-3.42,6.62-9.49,8.69l-.77.21c-80.19,15.5-139.15-51.41-156.49-78.24-21.25,38.5-55.11,56.89-92.69,73-4.9,2.1-47.93,20.06-56.06,6.23a18.07,18.07,0,0,1-2.13-7.37c-4.68-16.23,1.91-38.19,4.22-53.63,2.93-19.43,3.88-38.6,4.07-57.57-.19.15-.37.34-.56.52-10.29,8.41-24.64,15.44-39.64,20.46l-5.06,1.57c-2.43.74-4.89,1.41-7.33,2l-8.93,2a179.89,179.89,0,0,1-23,2.25,0,0,0,0,0,0,0l-8.47-.31c-13.09-1.54-28.8-8.65-38.54-17.4l-8-8.1q-1.71-1.89-3.33-3.82c-9.24-11-14.35-26.68-21.37-39.74.4,10.78-.93,20.7-4.75,29.73a.11.11,0,0,1,.09,0l-2.31,4.56c-5.42,10.07-17.77,26.89-31.14,34.59-6.47,3.73-13.68,7.89-21.19,11.92.06,0,.09.06.15.06-1.42.8-3.17,1.76-5.24,2.84l-.21-.09a194.71,194.71,0,0,1-25.42,11.18.44.44,0,0,1,.1.15c-1.85.62-3.7,1.2-5.52,1.7,0-.07-.09-.1-.12-.16-1.39.4-2.83.86-4.22,1.17-.89.22-1.82.37-2.74.56a68.19,68.19,0,0,1-11.77,1.08c-6.81,0-12.32-1.24-15.59-3.24-4.65-2.9-7.54-9.12-9-12.91.12.07.25.1.34.16-2.62-7.12-5.08-22-7.43-29.14-5.94-18.49-19.19-27.82-24.36-47-4.38-16.27,1-34.29,7.58-46.12a473.92,473.92,0,0,0-92.39,61,9.93,9.93,0,0,1-1.14,12.63c-6.87,6.87-16.32,2-21.84-3.76-5.73-6-10.16-15.83-2.16-22.06,6.26-4.86,13.74-2.09,17,3.79a495.54,495.54,0,0,1,42.32-32,860.08,860.08,0,0,1-88.93,16.35,9.56,9.56,0,0,1-7,7.92c-9.46,2.77-14.51-6.5-14.76-14.54-.18-7.24,2.28-16.39,11-17a10.31,10.31,0,0,1,9.4,4.71,12.7,12.7,0,0,1,2,6.32q41.13-5.46,81.45-14.94c-9.61-2.75-18.73-6.93-25.85-12.45a303.82,303.82,0,0,1-37.8-1.35c-2.8,6-7.94,11.45-15.31,8.74-8.78-3.2-8.1-13.18-5.32-20.33,2.55-6.59,6.4-17,15.61-13.86,6.38,2.16,7.74,7.67,6.78,13.12,7.76.74,15.56,1.14,23.35,1.27-12.85-14.2-27.14-34-31.57-49.57-5-17.46,10-30.68,21.77-42.63.74-.77,1.45-1.6,2.22-2.4l12.76-14.21a208.57,208.57,0,0,1,17.86-18.82c-1.94-.37-3.85-.8-5.73-1.26l-31.91-14.29c-40.57-26.68-67.56-77.72-109.51-103.48-7.89-4.83-.83-17,7.27-12.41,37.18,20.82,79.29-.93,118.5-3,25-1.32,49.11,4.13,68,19.75,2.65-13.19,9.95-24.86,19-38.11,4.82-7,8.8-16.9,13.2-26.73H2.89a14.81,14.81,0,0,1,0-17.59H1647.11a14.81,14.81,0,0,1,0,17.59ZM264.91,1339c.3.34.89.55,2.09.61A5.44,5.44,0,0,1,264.91,1339Zm891.83-158.89c2.68,1.17,6.46.71,10.5-1.3,2.49-2.83,4.16-5.57,4.68-7.76a9.66,9.66,0,0,0-1.17-7.79c-4.37-4-11.67-4.93-16.48-1.91-3.63,2.25-5.57,5.23-5.85,8.9A15.82,15.82,0,0,0,1156.74,1180.11Zm-1.64,34.59a45.61,45.61,0,0,1,6.72,4.9c.06-6.66,0-13.31-.22-19.93A85.53,85.53,0,0,0,1155.1,1214.7Zm-6.31-22.21a136.16,136.16,0,0,0-11.86,13.62c1,.43,2.06.83,3.08,1.23a82.33,82.33,0,0,1,9.61-14.26Zm-8-3.36c-4.93,4.28-10.11,8.51-15.37,12.73,1.26.46,2.52.89,3.75,1.35A159.31,159.31,0,0,1,1140.78,1189.13Zm-3.73-7.42c-7.11,3.94-15.06,6.71-22.76,9.39-2.1.71-4.13,1.42-6.1,2.16-1.33.46-2.65.89-4,1.36,2.34.8,4.69,1.6,7,2.37l5.14,1.75C1123.5,1193.11,1130.46,1187.44,1137.05,1181.71Zm-27.48,2.59c7.49-2.53,15.22-5.12,21.94-8.66-14.45,2.06-28.62,1.91-43.5,1.76-2.87,0-5.73-.07-8.59-.07-4.32,0-8.6,0-12.88,0l-5.11,0h-.16c1.88.86,3.76,1.72,5.64,2.65a251.34,251.34,0,0,0,25.14,10.28c3.6-1.2,7-2.4,10.44-3.6C1104.77,1185.93,1107.14,1185.13,1109.57,1184.3ZM1061.36,1168l10.82-.06c5.23-.06,10.41,0,15.58.06,6.38.06,12.6.16,18.76,0a318,318,0,0,1-70.29-12.26A167,167,0,0,1,989,1133.16l-1.29-.86c-8.84-6-18.61-12.6-25.54-21.26.16,1.3.34,2.59.62,3.88,2.34,10.45,8.75,20.43,16.79,28.65a146.68,146.68,0,0,1,43,13.37c6.44,3.17,12.72,6.72,19,10.35,5,.06,10,.25,14.94.5Zm-98.73-72.39c5.64,17.1,28.53,30.1,42.24,37.92a162,162,0,0,0,39.06,16c30.68,8.1,59.64,11.7,86.19,10.69-28.4-10.51-57.85-27.33-91.68-52.31-20.57-15.15-46.94-35.73-69.24-60.65a36.35,36.35,0,0,0-4.16,11.24c-1.33,6.53-1.42,13.06-1.51,20-.06,2.9-.09,5.76-.22,8.66s-.4,5.64-.68,8.38Zm11.83-54.56c22,24.74,48.21,45.23,68.64,60.29,23.22,17.13,58.53,41.28,98.42,54.31.46-.56.92-1.08,1.41-1.57a492.13,492.13,0,0,0-54.55-62.23c-25-24.18-55.57-50-92-57.79a3.87,3.87,0,0,1-2.34-1.48c-1.64.13-3,.28-4.38.47a27.72,27.72,0,0,0-15.52,7.7A2.7,2.7,0,0,1,974.46,1041.08ZM1089,1081.35a491,491,0,0,1,55.35,61.21c-1.51-4.69-2.92-8.91-4.31-12.91a172.58,172.58,0,0,1-8.5-21.93c-12.66-29.42-27.79-50-47.63-64.88-20.11-15-38.81-15.62-60.68-11.86-2.22.37-4.44.65-6.63.8C1045.31,1042.84,1070,1063.6,1089,1081.35Zm44.2-7a238.34,238.34,0,0,0,7.27,30.37c2.74,6.44,5.45,13.4,8.19,21.19,1.27,2.68,2.59,5.27,4,7.83-.92-5.15-1.54-10.32-2.16-15.41-.24-2-.46-3.91-.74-5.82-2-15.74-4-32.59-4.46-49.25-.9-32.38,10-67.41,28.8-93.37-1.91.61-3.67,1.26-5.36,2-15.46,6.47-26.77,20.7-33.55,42.26C1129.57,1032,1129,1050.57,1133.2,1074.39Zm20.27-8.94c.62,16,2.53,32.22,4.28,45.9.28,2,.53,4,.77,6.1,1.11,9.4,2.28,19.07,5.18,27.72,5.76-36.16,18.48-71.92,30.77-106.55l.86-2.49c11.46-32.26,23.6-63.28,45.38-88.14-6.47,1.14-13.43,4.53-19.78,7.61-2,1-4,1.94-5.88,2.77-7.92,3.61-16.36,5.49-24.49,7.3-1.17.25-2.37.53-3.54.81C1164.93,991.83,1152.08,1029.72,1153.47,1065.45Zm122.82-69.25c-5.7-6.9-7.92-14.85-10-22.52-1.85-6.5-3.58-12.66-7.27-18.11v0a17.32,17.32,0,0,0-8-6.81c-24.21,25.11-36.84,57.79-49.69,94.79l-2,5.76c-11.15,32.07-22.67,65.21-27.85,98.36a28.12,28.12,0,0,1,3.27,1.57c19.65-17.93,37.48-38.48,54.77-58.41l2.12-2.43c27.39-31.57,42.42-60,47.23-89.27C1278,998.14,1277.12,997.19,1276.29,996.2Zm13.92,15.93a46.47,46.47,0,0,0-4.56-5.82c-6,28.4-21.16,56.31-46.14,85.23l-3,3.39c-10.93,12.66-22.12,25.6-33.85,38,5.94-3.3,12-6.35,17.89-9.37,16.58-8.41,33.67-17.07,47.23-30.13a91,91,0,0,0,24.33-40.72,6.22,6.22,0,0,1,.47-1.85,84.5,84.5,0,0,0,2.18-11.33C1296.1,1027.75,1294.65,1019,1290.21,1012.13Zm-101,143.18c21.29-7.55,38.79-12.57,55.88-16.11a539.29,539.29,0,0,1,66.39-9.24l4.56-.37c10.62-.9,21.62-1.82,32.4-1.2,7.46.43,14.88,1.54,22.06,2.61,2.46.37,5,.74,7.45,1.08-1.41-2.15-2.74-4.37-4-6.53-3.14-5.24-6.1-10.19-10.35-14.29-12.54-12.17-29.88-15.4-54.53-10.17-20.48,4.35-37.82,12.88-56.18,21.9-2.81,1.36-5.61,2.75-8.44,4.13-5.43,2.62-11,5.09-16.42,7.46C1214.62,1140.43,1200.91,1146.47,1189.17,1155.31Zm288.09-135c-17.41,2-35.06.09-53.45-2.34-46.45-6.19-89.21-3-118,38.85a7.63,7.63,0,0,1-3.27,2.68c-.92,2.8-1.78,5-2.43,6.56a94.5,94.5,0,0,1-15.71,25.75,597.73,597.73,0,0,0,111.27-33.36c-14.17,11.77-29.33,24-46.43,30.86a53.38,53.38,0,0,1,10.66,4.56,60.17,60.17,0,0,1,17.62,15.59,4.7,4.7,0,0,1,.9-.15C1426.46,1105.28,1446.67,1054.64,1477.26,1020.29Zm-65.43,174.08c3.33-5.61,6.9-11.89,7.7-18.21a21.86,21.86,0,0,0,.15-2.37c0-10.22-8.93-15.68-18.32-21.41l-2.28-1.38c-5.09-3.18-9.68-6.1-13.74-9.89-5.33-.56-10.69-1.36-15.9-2.1-5.6-.83-11.43-1.69-17.16-2.21-12.84-1.17-26.09,0-38.93,1.07l-3.36.28a529.27,529.27,0,0,0-63.33,9c-18,3.72-36.45,9.11-59.4,17.4a20.68,20.68,0,0,1,.8,4.62c40.79,14.36,86.44,19.81,126.76,24.61l5,.59c12.72,1.54,25.9,3.14,38.75,3.2,10.35.06,21-.64,31.23-1.35l.93-.06c1.91-.13,3.94-.19,6.07-.25C1401.94,1195.73,1407.3,1195.57,1411.83,1194.37Zm-29.39,52c7.27-9.06,12.51-19.68,17.56-30,2.16-4.35,4.37-8.85,6.75-13.22-1.94.15-3.92.25-5.83.34-1.57.06-3.11.15-4.55.25-11.06.83-21.78,1.41-31.89,1.69-15,.43-30.19-1.36-44.82-3l-2.62-.31c-41.21-4.8-87.76-10.19-129.9-24.8a26.13,26.13,0,0,1-.83,2.5c9.24,4.07,18.23,10.1,27,15.93,5.33,3.57,10.38,7,15.44,9.85,16.88,9.77,34.31,19.87,52.27,28.1,14.54,6.65,29.82,10.56,48.06,12.26l6,.58c15.53,1.54,31.55,3.11,47,.25C1382.23,1246.68,1382.32,1246.52,1382.44,1246.4Zm-10.07,9.67c-12.82.93-25.6-.31-38.08-1.51l-5.91-.55c-20.18-1.85-37.46-6.5-54.37-14.7-20.42-9.88-39.8-21-56.07-30.62-10.44-6.19-20.6-12.47-30.18-18.66-.84-.56-2.1-1.21-3.42-1.91-.74-.37-1.48-.77-2.25-1.17-.19.18-.34.4-.53.61.65,1.08,1.36,2.19,2.19,3.36,6.29,6.72,13.19,13.55,21,20.82l.28.22c3.41,2.86,7,5.82,10.19,8.84,16.54,15.34,31.7,27.17,51.88,35.12C1283.93,1262.54,1338.82,1281,1372.37,1256.07ZM1248,1381.91c9.49-6.35,19.16-13.71,24.36-23.72,8.72-16.7,5-37.55,1.36-51.78-6.93-27.45-26.68-44.58-47.62-62.72l-4.59-4c-.34-.27-.65-.55-1-.83l-.71-.64c-10-8.75-18.54-16.58-26.21-23.94-.4-.37-.77-.71-1.17-1,1.11,1.73,2.25,3.45,3.35,5.15,2.31,3.51,4.69,7.14,6.9,10.81,10.39,17.31,19.47,37.18,27.85,61C1240.12,1317.65,1252,1351.38,1248,1381.91Zm-52.77,37.58c8-2.28,14.29-8,21.53-14.51,2.37-2.15,4.87-4.37,7.52-6.62a155.82,155.82,0,0,1,14.42-10.32c7.27-31-6.07-68.2-16.82-98.14l-.56-1.54a321.17,321.17,0,0,0-20.82-46.83c-4-7.21-8.5-14.26-12.42-20.33-1.75-2.68-3.42-5.85-5.17-9.18-3.45-6.53-7-13.28-11.37-17-.65.27-1.32.52-2,.74.55,11.7.55,23.47.34,35.11a40.13,40.13,0,0,1,2.43,26.34,37.78,37.78,0,0,1-3.08,8c-.12,8.41-.18,16.85.06,25.2C1170.44,1330.53,1178.45,1370.39,1195.18,1419.49Zm-50.12-11.34a177.94,177.94,0,0,0,33.67,11.4,38.29,38.29,0,0,0,8.32,1c-15.22-45.07-23.35-84.38-25.6-123.41-.37-7-.49-14-.52-21a47.07,47.07,0,0,1-15.13,9.4,74.92,74.92,0,0,0-10.17,5.27C1129,1330.1,1132.21,1371.44,1145.06,1408.15Zm-22.86-12.75a138.62,138.62,0,0,0,12.76,7.73,247.5,247.5,0,0,1-8.32-106.58c-1.73,1.14-3.45,2.28-5.24,3.51-4.86,3.33-10.07,6.84-15.74,10.44C1098,1343.31,1095.77,1377.32,1122.2,1395.4ZM994,1328.31c61.21-3.39,95.59-20.58,120.91-37.8,9.92-6.71,18.49-12.54,26.68-15.74,13.15-5.14,17.87-13.92,19.5-20.36a28,28,0,0,0-5.42-24.68c-6.47-7.7-30.65-11.09-51.14-18-15.71-5.3-31.91-10.78-45.68-17.53-6.66-3.26-13.31-6.19-19.93-8.84-.77-.27-1.57-.58-2.34-.89-48.34-18.79-95.38-21.13-140.13-6.87-12,6.25-19.2,4.68-29.36,3.67-9.86-1-19.59-5.12-30.56-12.94-.8-.56-1.57-1-2.34-1.48,6.25,9.49,16.85,24.67,26.28,33.79,8.71,8.41,20.14,13.9,27.53,18.18,2.25-3.14,3.67-7.46,8.23-7.64,5.88-.25,7.48,8.69,6.38,13-1.27,4.93-10.05,21.13-17.29,15.62-2.89-2.19-4.19-8.07-3.23-12.66-2.5-.71-4.34-1.42-4.34-1.42-14-6-25.69-15.62-35.09-25.82,15.65,35.71,53.08,54.28,68.05,63.77,2.22-3.11,3.66-7.39,8.22-7.58,5.86-.24,7.46,8.69,6.35,13-1.26,4.9-10,21.13-17.28,15.62-2.78-2.13-4.13-7.7-3.36-12.2-7.24-2.65-17.81-8.41-32.59-19.07-20.49-14.75-34.54-36.9-43.22-54.37,7.91,28,18.17,40.42,18.33,40.6l.49.68C848.29,1241.35,911.53,1332.87,994,1328.31Zm-137.54-57a.53.53,0,0,1,0,.22c0-.07,0-.1,0-.16Zm134.77,185.11c.83-.34,1.76-.8,2-1.42,1.39-4-6.68-16.3-12-24.37-7.33-11.15-14.94-22.64-15.31-32.59-.68-19.16-1.51-40.72-11.58-56.62-41-11.76-74-42.6-94.33-66,2.47,17,7.12,46.3,11.31,56.09,3.76,8.81,10.53,16.3,14.41,21.51,3.79-1.24,7.58-4.38,11.62-1.82,5,3.11,1.29,11.4-2.1,14.32-3.82,3.36-20.21,11.77-23.07,3.14-1.23-3.75,1.51-10,5.36-13.06-.92-.77-1.51-1.35-1.51-1.35-8.93-9.18-14.57-20.73-18.11-31.61a157.54,157.54,0,0,1-12.51,45.47C854.82,1383.76,911.87,1471.46,991.22,1456.46Zm-293,5.63c7.79,2.13,52-7.36,92.16-41,36.17-30.28,74.09-84.65,49.44-171.7-.8-1.14-1.35-2-1.66-2.5a73.83,73.83,0,0,1-6.71-10.23c0,8-.47,16.67-.87,24.34a190.78,190.78,0,0,1-3.39,27.63c3.55,2.34,9.34,2.34,10.54,7.49,1.33,5.7-7.15,9-11.61,8.65-4.29-.27-17.47-4.31-19-10.47-6.28,20.39-14.51,39.18-20.08,47.5,2.71,3.14,7.88,5,7.42,10.1-.52,5.86-9.61,6.29-13.74,4.63-4.71-1.88-19.65-12.7-13.28-19.13,2.84-2.84,9.8-3.24,14.24-1.11,4.37-16.36,19.9-51.45,23.16-97a362.32,362.32,0,0,0-2.71-75.59c1.26,16.45.34,48-7.05,67.83-6.57,17.56-19.13,37-27.45,46.61,2.8,2.83,7.42,4.77,7,9.61-.52,5.85-9.58,6.31-13.74,4.62-4.68-1.88-19.65-12.69-13.24-19.13,3-3.11,11.06-3.3,15.34-.43,6-12.88,18.48-34,24.73-50.24,5.39-14,5.3-35.77,4.44-50.49-.71,32.37-6.47,47.53-15.34,61-15.74,23.94-59.76,52-57.27,99.13,1.42,27.3-6.9,59.3-13.58,85C701.19,1435.36,695.86,1455.78,698.18,1462.09ZM816,1247.2c-.18,12.32-3.23,27.42-7.45,42,2.83-3,8.93-4.9,13.25-3.76.43-6.13,1.44-14.72,2.61-26.12,1.36-13.56.16-29.08-1.23-40.42a200.4,200.4,0,0,1-6.78-21.38C816.56,1211.34,816.34,1228.1,816,1247.2Zm-259.46,85.24a105.85,105.85,0,0,0,19.25,22c7.45,5.55,15.77,9.43,25.1,10.2,23.85,2,65.49-7.55,83.64-23.57,4.1-3.57,7-8.44,9.21-13.95-36.94,14.88-75.5,20.39-112.56,7.52a154.11,154.11,0,0,1-33-16.21C550.68,1323.07,553.39,1327.63,556.57,1332.44Zm29.75-13.22c41.74,14.48,83.95,10,125.47-13.4,12.63-39.55,51.66-73.1,56.16-80.31,1.57-2.71,8.1-14.91,11.15-36.22-12.35,23.07-30.93,42-46.73,53.84-13.06,9.77-27.88,19.6-37.21,22.43.86,2.37,1.38,4.77-.28,7.21-3.33,4.83-11.46.8-14.26-2.65-3.18-4-11-20.67-2.22-23.2,4.16-1.2,11.21,2.53,13.58,7.06,6-4,16.48-9.21,32-19,13.77-8.62,26.4-23.5,36.07-37.06-8.32,6.23-18.88,11.86-28.43,16.82-10.84,5.61-23.75,11.83-32.25,14.3,1,3.45,1.81,7.36.06,9.52-3.58,4.34-10.72-2.22-12.88-5.3-2-2.93-5.54-12.88-1.51-15.37s7.92.8,10.63,4c6.81-3.79,19.34-8,34.53-15,13.22-6.16,24.46-15.87,31.76-23.17-8.72,3.42-19.59,6-31.27,4.84a55.92,55.92,0,0,1-30.46-13c-1.14-.92-2.16-1.91-3.21-2.86-16.91.73-31.23,6.4-46.63,15-18.27,10.19-31.76,25.91-49.85,36.07-19.46,11-36.62,10.44-58.59,9.4-18.73-.9-40.54,5.36-38,25.56C509.28,1268.05,539.65,1303.05,586.32,1319.22Zm-87.73-186.55a10.34,10.34,0,0,0,2.13-2.47c.27-.8.55-1.57.77-2.28,1.38-4.22,3.17-8.5,4.8-12.69a168.53,168.53,0,0,1,8-17.49c2.56-4.84,6.53-13.34,11.58-16.18,7.12-3.94,2.81,4.56.77,7.52a95,95,0,0,0-7.48,13.74c-6.29,13.77-10.81,23-13,34.68,2.34-3.26,5.27-6.5,7-8.68,6.84-8.44,15.07-16.21,22.21-24.52s15.74-14.7,24.65-21c3.23-2.31,8.25-6,12.26-6.44,6.19-.59,3.6,5,.61,7.89-6.59,6.4-14.32,12.26-21.31,18a235.91,235.91,0,0,0-28.44,28.19c-2.18,2.53-8.38,12.29-13.83,16.42a26.54,26.54,0,0,1,1.76,3.64c13.06-8.2,28.58-14.39,43.16-19.23a69.51,69.51,0,0,1,18-3.91c4.56-.28,10.07,1,4.59,5s-15.9,6.13-22.06,8.47c-5.51,2.1-10.41,4.93-15.71,7.37-7.61,3.51-17.59,9.95-26.18,10.93a17.23,17.23,0,0,1,0,1.76c1.84.55,3.75,1,5.69,1.41,22.06,1.39,45.63.19,68.85.37,4.75-1.07,9.61-1.78,14.3-3,11.36-2.95,21.62-9.14,31.66-15.27q7.39-4.53,14.79-9.09c5.91-4.16,11.64-8.57,17.28-13.06a82.91,82.91,0,0,1-.8-12.17c.8-14,5.18-26.68,9.74-39.83a313.8,313.8,0,0,1,19.31-44.7c1.63-3,3.08-6,4.5-9-.9-6-1-12.2-2.1-18.21s-3.54-12.2-8.19-16.3c-5.24-4.65-12.42-6-19.44-6.8-10.57.77-22.18,3.45-32.75,2.15a103.41,103.41,0,0,1-15.64-3.48,67.52,67.52,0,0,0-46.95,14.17,109.74,109.74,0,0,0-15.5,15.87,158.94,158.94,0,0,0-13.3,18.11,196,196,0,0,0-10.32,20.21c-12,25.75-24,51.53-34.2,78.09C498.44,1124.63,497,1128.91,498.59,1132.67Zm-1.08,20.21a13.11,13.11,0,0,0-8.44-6.75c-7.39-.34-15.43,4.77-17.56,12.17-1.66,5.79-.46,10.38,2.34,13.86a19.61,19.61,0,0,0,16.52,2.68c4.28-1.42,7.45-5.7,9.3-10.63C499.7,1160.11,499.15,1155.86,497.51,1152.88Zm66.54,49.47c-5.24.86-13.49-4.59-18.3-6.66a87.91,87.91,0,0,1-14.44-7.54c-4.81-3.21-15.53-9.21-20.83-15.37a23.41,23.41,0,0,1-1.48,2.8c3.3,7,10,13.09,14.79,18.76,4.34,5.14,8.81,10.07,13.49,14.66,4.07,4,8.5,7.73,13,11.4,29.42,2.56,49.72-14.51,73.66-39.28a378.3,378.3,0,0,0-39.53-2.4c-18.14-.12-36.81.86-54.4-2.8,5.18,2.92,10.23,6,15.19,9,5.2,3.14,10.93,5.64,16.23,8.41C565.53,1195.51,573,1200.9,564.05,1202.35Zm-29.57,16.05c-7.64-7.86-14.39-14.88-20.36-24-1.67-2.49-6.53-8.35-9.52-13.74-.19.16-.34.34-.5.49-.27,12.48,4.07,23.66,9.62,34.91a77.94,77.94,0,0,0,4.09,6.71,65,65,0,0,1,18.12-3C535.46,1219.32,535,1218.89,534.48,1218.4ZM378,1318.67a109.13,109.13,0,0,0,4.19,15.21c6.72,10.85,14,20.95,17.07,34.32,1,4.5.8,10.75,3.2,14.66,8.44,13.77,27.72,10.57,39.58,6,10.35-4,20.46-9.55,30.5-14.66a177,177,0,0,0,18.95-15.9c8.84-8.53,17-18.82,20.85-30.22a85.59,85.59,0,0,0,1.85-15.34,126.45,126.45,0,0,0-1.85-24.09c-10.94-11.64-17.87-22-19.81-26.86-3.14-7.79-1.44-17.07,4.47-24.83.68-.86,1.48-1.6,2.22-2.43-3.67-15.5-6.19-31.27-4.65-47,0-.65-.07-1.26-.07-1.88-.4.1-.83.13-1.26.22-1.82,7.67-2.49,15.55-3.85,23.53-.86,4.93-.4,21.91-3.6,25.39-7.27,7.91-6.29-19.75-5.89-23.32.68-5.67.84-11.25,1-16.79a46.27,46.27,0,0,0-2.31,6c-2.22,7.61-4.56,15.61-6.22,23.41-2.41,11.33-3.76,23.1-7.37,33.91-9.21-1,1.08-36.59,2.1-42.69,1.11-6.44,2.12-13.43,3.54-19.87-1.08,1.42-2,2.62-2.62,3.45-2.18,3-14.26,21.29-17.19,18.21-2.4-2.53,6-15,7.24-17.63,2-4.22,4.56-8.22,7-12.26l-67.28,74.49c-6.9,7.67-14,15.53-17.74,25.11C376.11,1296.89,376,1308.1,378,1318.67Zm-97.93-159.11c-5,6.9-10.07,13.8-15.12,20.73-3.45,4.72-7,9.58-8.66,15.19-2.16,7.15-1.17,14.94,1.39,21.93,2.21,6,5.51,11.58,8.9,17.07,6.93,9.09,14.66,18.11,22.3,23.9a52.41,52.41,0,0,0,12,6.66c14.47,4.43,30.55,3.51,45.15-1,17.87-5.51,33.86-15.87,49-26.8q22.46-16.21,43.22-34.56c4.68-4.32,9.33-8.69,13.74-13.28-8.11,4.56-21.29,10.94-30.41,6.31,1.39-5.14,15.13-9,19.53-11,7.86-3.67,16.2-7.71,20.55-15.47-14.33,6.13-27.7,11.65-43.68,14.66a86.17,86.17,0,0,1-21.6,1.58c-3.45-.22-15.92-1.67-9.76-6.72,1.81-1.51,8.07-.49,10.41-.74a106.71,106.71,0,0,0,11.46-2.16c7.08-1.5,14.2-3.51,21.13-5.63,5.51-1.7,10.87-3.61,16.39-5.39,1.88-.59,3.82-1.14,5.76-1.73a119.66,119.66,0,0,1-12.85-.21c-8.38-.62-25.53-2-30.62-10-4.62-7.23,2.78-4.43,7-3.26a100.32,100.32,0,0,0,14.54,2.93c9.42,1.11,19.1,2.55,28.55,1.66a608.33,608.33,0,0,0-63.45-25c-17-5.64-34.44-10.54-52.31-11.56a76.13,76.13,0,0,0-23.26,6,74.57,74.57,0,0,0-20.18,13C291.89,1143.39,286,1151.49,280.09,1159.56Zm53.48-128.15a8.57,8.57,0,0,1-1.26-1.11c-42.64-46.88-103.45-9.48-157.35-12.9,40.07,39.3,71.89,96.88,131.38,96.48a63.9,63.9,0,0,1,8.19-3.21A111,111,0,0,1,347,1106a193.11,193.11,0,0,1-89.27-55c40.54,16.12,81.14,32.29,120.14,51.79C358.8,1085,341,1062,335.05,1039A66,66,0,0,1,333.57,1031.41Zm47.34-84.18-.24.58c-2.68,6.19-5.14,12.35-8.53,18.2-5.52,9.52-11.71,18-16.7,26.68-6.13,14.45-10.87,30.19-6.84,45.19,2.22,8.26,6.93,15.59,11.74,22.67,8.72,12.82,18.08,25.33,29.54,35.74,14.23,12.94,31.36,22.39,46.27,34.47-.34-.4-.68-.77-1-1.14-5.2-6.53-18.94-19.87-15.62-29.33,7.31-1,13.07,15.62,17,20.55a101.43,101.43,0,0,0,23,20.92c2.89.86,5.76,1.63,8.63,2.31a10.46,10.46,0,0,1,.89-.87c-1-1.41-2.22-3.08-3.73-4.89-3.94-4.81-8.44-8.69-12.66-13.22-8.13-8.72-13.18-18-17.47-29.14-1.2-3.21-11.83-30.1-1.44-27.73,4.06.93,6.09,12.17,7.23,15.5,2.13,6.34,5.4,11.64,8.48,17.56,3.88,7.54,7.54,15.28,12.78,21.9,4,5.11,9.55,10,13.12,15.68.43-.22.83-.46,1.27-.65-4.19-7.08-3.79-18.88-4.41-25.53-.89-10.17-3.2-26.74,2.43-35.89,8.45-1.2,5.15,23,5.67,28.89.93,10,1.36,20.46,5,30.16h.06c2.41-17.28,8.72-34.13,15.07-50.92,12.81-51,12.81-78.8,5.61-97.22a78.53,78.53,0,0,0-9.22-16.94,61.27,61.27,0,0,0-26.46-18.18c-4.83-1.63-9.88-2.55-14.78-3.94-1.5-.41-3-.91-4.45-1.41Zm114.88,0A82.78,82.78,0,0,1,505.15,958a93.67,93.67,0,0,1,14.3,27.11c3.11,11.34,6.28,26.19,5.94,38.69,0,0,18-35.18,45.5-51.72,28.68-17.19,54.25,1,83.88-2.19,20.09-2.15,38.85-8.13,49,14A78.59,78.59,0,0,1,708,996.45a134,134,0,0,1,7.12-12.38c1.85-2.84,4-5.77,6.31-8.63,6.35-11,15.39-20.63,23.56-28.21Zm266.83,0c-19.08,16.13-39,53.22-59.08,110.34-10.14,28.71-29,82.09,4,109.17a44.58,44.58,0,0,0,24.3,10.41c21.29,2.16,40.36-11.52,42.88-13.37a56.35,56.35,0,0,1,19.44-12.6c-5-7.58-12.75-21.35-15.12-35.49a66.73,66.73,0,0,1-1.42-8.56c-1.32-13.62,1.63-27.85,9.4-39.12.61,14.48,1.23,29,4.31,43.19,2.77,12.72,7.67,25.16,15.68,35.36,8.07-39.31,7.88-79.85,7.58-120,5.17,7,7.91,15.37,9.61,24,2.25,7.86,3.72,20.7,3.35,34.1a290.93,290.93,0,0,1-5.2,64.6c1.66.4,3.36.83,5,1.39,12.54-19.72,18.58-42.91,24.31-65.65a60.15,60.15,0,0,1-16.89,68.85,66.93,66.93,0,0,1,8.41,5.08c9.28,6.63,17.26,10.08,25,10.88,13.12,1.29,27.14-4.81,48.36-21,31.45-24,14.45-80.16,8.47-96.76-8.5-23.72-29.17-66.57-48.51-80.59-8.35-6.09-17.47-15.25-26.28-24.17Zm104,0a164.7,164.7,0,0,0,16.73,14.84,126.31,126.31,0,0,1,33.12,36.87c.27.34.49.62.71.87a184.73,184.73,0,0,1,14.2,18.11c8.44,12.63,16.42,26.21,21.65,40.72.25-1.57.5-3.14.9-4.68,4.22-17.53,17.22-30,33.88-32.53a97.19,97.19,0,0,1,15.13-.71l0,2.41h.3l.34-2.41a85.48,85.48,0,0,0,13.19-.55c2.68-.4,5.36-.89,8.07-1.39,7.21-1.29,15.4-2.74,23.87-2.37,14.94.74,30.13,7.21,45.1,19.16a140.55,140.55,0,0,1,25.66,26.77c-1.54-13.8-1.23-25.81.92-37.21,2.81-14.7,9.12-35.37,23.54-50.34,12.2-12.69,27.6-16.29,42.54-19.8,3.7-.87,7.52-1.76,11.24-2.78a78.12,78.12,0,0,0,12.59-5Z"/></g></g></svg>