<svg xmlns="http://www.w3.org/2000/svg" viewBox="0 0 1650 1584.04"><title>Asset 58</title><g id="Layer_2" data-name="Layer 2"><g id="Layer_1-2" data-name="Layer 1"><path fill="FRAME_COLOR" d="M1647.1,582.22h-446a309.76,309.76,0,0,0-20.65-29.59,43.41,43.41,0,0,0,20.79-6.33c10.32,6.54,22.29,9.29,34.41,9.29a94.09,94.09,0,0,0,42.94-11c18.72-10,38-29.39,35.86-53.75a43.58,43.58,0,0,0-4.82-15.83,89.29,89.29,0,0,0,14.52-7.16c18.65-11.35,33-30.35,40-51.13,8.81-19.06,1.45-44.18,1.45-44.18a6.9,6.9,0,0,1,.69-5.17,67.38,67.38,0,0,0,10.8-36.4,58.51,58.51,0,0,0-1.58-13.49,1.27,1.27,0,0,1-.14-.55A556,556,0,0,0,1495.69,236l17.55-15.56-23.47.21c-62.21.55-123.67,17.55-177.83,47.69a79.6,79.6,0,0,0-32.21-19.75c-6-21.54-24.29-39.3-45.76-42.74l-.62-.07a9.37,9.37,0,0,0-1.38-.27,1,1,0,0,0-.07-.48c-.07-.42-.14-.9-.2-1.24-2.62-13.42-13.08-24.64-31-33.38-9.16-4.47-23.13-10.12-37.65-7.43a44.54,44.54,0,0,0-22.43,11.83,70.19,70.19,0,0,0-19.41-7.77c-17.34-4.13-35.44-.69-48.38,9.22-1.31,1-2.48,2-3.72,3.1-2.2,1.79-4.13,3.51-6.12,4.4-3.72,1.79-8.81,1.31-14.59.76-2.89-.28-5.85-.55-8.88-.55a16.39,16.39,0,0,0-2.62.07,396.82,396.82,0,0,0,51.69-114.45l4.68-16.73L1077,59.05c-49.07,18.79-88.92,54.09-115.83,100.82-4.68-19.48-14.18-37.3-27.6-50.65C910.3,86,876,76.53,846.3,85.27c-1,.27-2.07.62-3.1,1-4,1.24-7.77,2.41-10.66,1.86-1.86-.34-4.07-1.58-6.54-3-1.93-1-4-2.27-6.4-3.3a35.3,35.3,0,0,0-14.25-2.82,46.83,46.83,0,0,0-25.46,8c-10.74,7.09-18.38,17.34-24.71,26.43-1.65,2.34-3.37,4.81-4.89,7.36a92.28,92.28,0,0,0-21.74-11.22c-16.24-5.78-31.52-7.57-45.29-5.16-17.27,3-32.14,12.87-39.77,26.5-4.68,8.26-6.54,17.13-8.33,25.67-1.72,8.32-3.31,16.17-7.43,22.23-.42.68-1,1.3-1.45,2a429,429,0,0,0-110-167.65L502.2,0l-.76,19.2a295.07,295.07,0,0,0,35,152c-21.47-9.09-46.59-5.78-62.35,8.94-7.16-8.81-15-13.76-23.75-15.14-6.53-1-12.59.28-18,1.38-3.85.76-7.5,1.51-10.67,1.31a42.31,42.31,0,0,1-9.08-2.14c-4.68-1.37-10.05-3-16-2.82-16,.62-27.25,13.77-32.55,25.81a72.94,72.94,0,0,0-5.43,36.27,1,1,0,0,1-.28.2C343.08,219.13,324,222,308.05,233c-8.6,5.92-15.48,13.35-22.09,20.44-5.92,6.4-12.11,13-16.79,21.19a63.52,63.52,0,0,0,3,67.52,90.93,90.93,0,0,0,1.24,46.45.22.22,0,0,0,.07.14c.48,1.31,8.12,22.78,13.55,28,.76,1,1.45,1.93,2.21,2.82-30.08,1.72-56.85,8.33-79.7,19.82-28.49,14.32-50.86,36.48-63,62.42l-9.77,20.92L158,513.54c8.61-3.79,18.65-4.13,29.32-4.47,2.34-.07,4.68-.14,7-.28,33.86-1.72,65.79-11.15,96.49-24.36a43.79,43.79,0,0,0,6.67,10.67c-2,.82-3.92,1.65-5.85,2.4-24.15,10-49.2,20.24-70.81,36.34-18.45,13.7-32.14,30.49-39.92,48.38H2.9A15.72,15.72,0,0,0,0,590.41a15,15,0,0,0,2.89,9.36H1647.1a15,15,0,0,0,2.89-9.36A15.72,15.72,0,0,0,1647.1,582.22Zm-595.23-303a49.75,49.75,0,0,1,9.84-5.24,19.58,19.58,0,0,0,12.39-15.62c1.44-10.32,13.21-19.68,24.7-19.68h.07c15.83,0,28.91,12.18,35.72,23.61a73.05,73.05,0,0,1,7.29,16A55.61,55.61,0,0,0,1113.74,297a50.87,50.87,0,0,0-49.07,34.2,42.39,42.39,0,0,0-1.52,5.17,70.27,70.27,0,0,0-6.4-5.58,59.49,59.49,0,0,0-10-5.78c2.55-9.22,3.86-19,5-28.63C1052.35,290.7,1052.76,284.78,1051.87,279.21Zm191,167.16c-11.28,9.15-27,17.76-43.77,20.65a29.38,29.38,0,0,0-5.5-11.57,65.23,65.23,0,0,0-49.9-25.39c-.69-2-1.44-4-2.27-5.92a47.7,47.7,0,0,1,29.32-9.91,46.84,46.84,0,0,1,13.76,2.07,18.77,18.77,0,0,0,23.4-12c4.61-14.18,18.58-25.74,33.17-27.32A18,18,0,0,0,1257,360.55c1.17-17.07,16-32.69,32.35-34.55C1295.9,370.12,1277.46,418.15,1242.91,446.37ZM1302,387a25.2,25.2,0,0,0,1.79,7.77c1.65,4.13,1.65,9.92-.07,15-3.17,9.29-10.53,17.41-17.2,24.36a166.64,166.64,0,0,1-13.22,12.59c-1.37-.41-2.82-.75-4.2-1.1A150,150,0,0,0,1302,387Zm-167.17-55.26c.62-.28,1.17-.56,1.72-.76a36.08,36.08,0,0,1,14.18-3,29.77,29.77,0,0,1,11.63,2.27,24.79,24.79,0,0,1,11.5,9.84,37.15,37.15,0,0,0-5.23,3.92,33.13,33.13,0,0,0-21.27-4.33A37,37,0,0,0,1134.86,331.72Zm4.75,43.22a55.17,55.17,0,0,1-9.08,20.16,29.26,29.26,0,0,1-3.58,4.27,97.36,97.36,0,0,0-14-14.73c-8.74-7.64-18.31-11.15-26.63-10.19a9.65,9.65,0,0,0-.49-1.24,25.78,25.78,0,0,1,2.69-8.74c3-5.57,8.33-10.53,15-14,6.88-3.51,14.11-4.81,20.37-3.71,6.54,1.1,12.18,4.95,14.73,10C1141.54,362.62,1140.78,369.84,1139.61,374.94Zm51.69,24a1.22,1.22,0,0,1-1.59.55,65.94,65.94,0,0,0-42,1.45,76.59,76.59,0,0,0,9-22.16,49.71,49.71,0,0,0,.55-20.79,9.73,9.73,0,0,1,3.1,1.66,13.92,13.92,0,0,0,8.74,3,14.13,14.13,0,0,0,10.66-4.88c4.55-5.37,13.7-7.16,20.31-4,6.05,2.89,10.53,9.22,12.25,16.51A58.3,58.3,0,0,0,1191.3,399Zm16.38-61a34.73,34.73,0,0,0-16.8-3.17,41.8,41.8,0,0,0-21.74-20.71c-11.91-5-26.22-4.82-39.3.62a44,44,0,0,0-19.27,15,53.84,53.84,0,0,0-15,5.23,53.24,53.24,0,0,0-16.38,12.53,41,41,0,0,1,2-10.67,33.37,33.37,0,0,1,31-22.3,24.27,24.27,0,0,1,4.41.34l5.57.76,3-4.68c7.36-11.35,23.12-20.44,37.51-15,1.51.76,4.75,5.16,6.6,7.78,3.44,4.74,7,9.56,11.56,12.25a52.91,52.91,0,0,0,8.26,3.44c4.75,1.72,12.74,4.54,15.28,7.7a29.46,29.46,0,0,1,6.26,12.53C1209.67,339,1208.64,338.46,1207.68,338Zm-134.75,50.58,4.13,11.36,9.49-7.37c2.89-2.27,9.91.9,14.94,5.3a89.48,89.48,0,0,1,27.46,43.5l1.92,7.09,7.3-.69a47,47,0,0,1,41.43,18.3c2,2.62,2.34,4.06,2.34,4.61-1.52,2-8.26,5.3-13.08,5.92-19.47,2.69-35.3.35-55.47-2.61-11.08-1.59-31.24-14.87-45.14-25.74-2.14-1.65-4.2-3.3-6.27-4.89-22-17.07-42.8-33.24-53.54-56.5,1.79-7.91,4.13-15.07,8.81-20.58a66.24,66.24,0,0,1,7.09-6.53c2.41-2.07,4.88-4.13,7.29-6.61a56.77,56.77,0,0,0,8.61-11.77,30.09,30.09,0,0,1,6,3.51C1060.06,355.11,1067.28,372.87,1072.93,388.56Zm-21.75,68.62,6.26,4.81a246.19,246.19,0,0,0,23.81,16.66c9.91,6.05,20.72,11.42,29.66,12.66,6.13.9,12,1.79,17.9,2.48-6,9.43-17.76,16.17-30.21,16.17h-.49c-16.1-.21-32.89-10.12-45-26.36l-.21-.27a22.26,22.26,0,0,0-7-6.82c-3.51-2-7.23-2.27-9.84-2.54h-.62c-18.65-1.52-36.06-13.77-45.63-30.08a126.75,126.75,0,0,0,13.35-31.65C1016.15,430,1033.9,443.76,1051.18,457.18ZM1123,521.52a124.94,124.94,0,0,0,9.43,9.91A92.46,92.46,0,0,0,1151,545.27a295.69,295.69,0,0,1,24.15,29.59c-21.26-17.34-42.39-33.59-63.79-48.93A52.44,52.44,0,0,0,1123,521.52Zm147.27,7.57c-19.06,10.19-46.11,14-63.59-.48l-6-5L1195,529c-5.64,5.44-15.34,7.51-24.63,5.23-8.47-2-16.93-7.15-25.88-15.62-2.55-2.34-5-4.88-7.3-7.5a45.47,45.47,0,0,0,10.4-15.9c1.37.07,2.75.07,4.06.07a131,131,0,0,0,19.61-1.37,46.07,46.07,0,0,0,20.51-8.61c20.65-1.1,42.53-9.63,61.39-24.7a72.89,72.89,0,0,1,23.26,6.05c11.56,5.51,19.61,15.63,20.51,25.74C1298.38,508.24,1283.52,522.07,1270.3,529.09Zm98.14-228.34a52.23,52.23,0,0,0-7-8.74c25.4-11.91,51.34-23.13,78.46-34.14A541.76,541.76,0,0,1,1368.44,300.75ZM1425,245c-27.66,11.36-54.09,23.06-80.17,35.44a47.53,47.53,0,0,0-6.95-2.54c-1.59-.42-3.1-.76-4.62-1A360.11,360.11,0,0,1,1425,245ZM1321.44,379.48a64.44,64.44,0,0,0,9.7-18.93,95,95,0,0,0-2.27-66.69,38,38,0,0,1,4.27.9,36.75,36.75,0,0,1,25.39,26.84c2.69,11.42,0,25.67-6.88,36.2a24.42,24.42,0,0,0-2.07,22.16,30.12,30.12,0,0,1,1.59,11.15c-.48,23.6-15.35,49.07-36.13,61.8a64.33,64.33,0,0,1-16.93,7.29,54.33,54.33,0,0,0-7.37-5.57c3-2.82,5.85-5.64,8.47-8.33,8-8.33,16.86-18.24,21.19-31,3-9.15,3-19.06-.34-27.18A9.13,9.13,0,0,1,1321.44,379.48Zm-39.78-111.29a60.49,60.49,0,0,1,18,12.74c17.76,18.1,23.74,47.9,14.87,74a54.37,54.37,0,0,1-7.09,14.11,20.24,20.24,0,0,0-1.72,2.54,145.53,145.53,0,0,0,.41-51.2,14.48,14.48,0,0,0-3.44-7.85c-4.13-4.47-9.91-4.26-11.84-4.19-25.94,1-49.55,24.29-51.48,51a.3.3,0,0,1-.27.21,57,57,0,0,0-10.05,2.2c.48-10.46.83-21.13-3-31.66a67.55,67.55,0,0,0,17.62-6.12C1265.49,313,1280.08,291.18,1281.66,268.19Zm-115.41-87.95a24.65,24.65,0,0,1,4.54-.41c6.19,0,13.42,2.06,22.23,6.33,12.73,6.19,20,13.28,21.47,20.92l.14,1a18.19,18.19,0,0,0,3.78,9.29c3.72,4.4,9,5.23,12.18,5.71l.55.07c17.42,2.82,32.35,20.37,33.18,39,.82,18.37-10.88,37.37-28.43,46.18a57.43,57.43,0,0,1-19.75,5.64c-5.78-5.57-14.45-8.67-21-11.08a53.19,53.19,0,0,1-5.5-2.13c-1.38-.83-4.34-4.89-6.06-7.37-3.51-4.75-7.09-9.7-11.84-12.45a117.68,117.68,0,0,0,8.12-31.8c.83-7.5-6.6-37.92-6.67-38.19-2.14-8.19-7.23-14.53-11.5-19.07-2.13-2.27-4.26-4.47-6.53-6.47A25.35,25.35,0,0,1,1166.25,180.24Zm-127.11,21.27h.2a70.44,70.44,0,0,1,7.36.48c7.37.69,15.63,1.44,23.68-2.34a48.09,48.09,0,0,0,10-7c1-.9,2-1.72,3-2.48,8.8-6.74,21.4-9.08,33.65-6.12,14.24,3.3,25.12,12.59,31.73,19.68,4.19,4.54,6.46,8.05,7.36,11.49,1.79,7,6.26,27.8,6.19,32a102.37,102.37,0,0,1-5.09,22.23,95,95,0,0,0-7.64-16.31c-11.91-19.75-31.38-32.07-50.79-32.07h-.07c-20.23,0-39.5,16-42,34.89a2.08,2.08,0,0,1-1.51,1.59,73.46,73.46,0,0,0-11.36,5.78l-1.37-1.38c-.9-1-1.86-1.86-2.48-2.68-2.82-3.72-3.65-9.71-4.54-16-1.31-9.5-2.76-20.23-11.84-27.6a27.49,27.49,0,0,0-8-4.54C1022.41,205,1030.88,201.51,1039.14,201.51Zm-32.14-6a58.54,58.54,0,0,0-5.85,5.3,60.06,60.06,0,0,0-6.27,7.71,82.55,82.55,0,0,0-12.18.48,970.94,970.94,0,0,1,75.15-103A362,362,0,0,1,1007,195.52Zm-42.67-1.45v-1.65c17.82-40.33,44.87-73.43,78.93-96.28a977.41,977.41,0,0,0-77.14,106.33c-.69-1.1-1.45-2.2-2.21-3.3C964.05,197.45,964.19,195.79,964.33,194.07Zm-.69,107.57c-.28-4-.55-7.78,0-11,.69-4.06,2.82-8.19,5.09-12.53,1.17-2.13,2.27-4.4,3.31-6.74a70.26,70.26,0,0,0,4.61-42.6c5.36-2.82,12.59-2.82,20.85-2.62,6.4.21,11.9.56,15.07,3.17,3.72,3,4.54,9.22,5.51,16.45,1.1,7.84,2.34,16.79,8.05,24.22a49.6,49.6,0,0,0,3.92,4.34,25.15,25.15,0,0,1,2.75,3.1c2.69,3.85,2.21,10.25,1.45,17-1.93,18.24-4.68,35.52-15.28,46.53a65.94,65.94,0,0,1-6,5.37,85.56,85.56,0,0,0-9,8.53c-9.64,11.22-12.32,25.67-14.66,38.47-.62,3.44-1.24,6.74-2,9.91-5.5,24.64-19.82,47.21-39.36,62.08A99.17,99.17,0,0,1,878,485.19c-2.76-.28-5.65-.69-8.61-1.11-7.22-1.1-14.59-2.27-22.36-1.65-8.06.55-15.35,2.89-22.44,5.1a102.83,102.83,0,0,1-15.83,4.12c-8.94,1.24-20-2.2-21.54-9.22a19,19,0,0,1,.28-7.09,67.17,67.17,0,0,1,5.78-18.85c31.17-4.89,59.32-16.11,81.48-32.49a139.55,139.55,0,0,0,33.86-35.71A117.83,117.83,0,0,0,939,366.47C955.38,350,964.46,328.62,964,308,963.91,305.77,963.78,303.71,963.64,301.64Zm-510,29.66c2.82,10.46,6.95,20.24,11,29.66,1.45,3.45,3,7,4.34,10.4.89,2.13,1.72,4.4,2.61,6.6-1.1,2.07-2.06,4.13-3,6.2-6.4-20.1-17.13-37.37-31.17-49.55a84.3,84.3,0,0,0-25.54-15.42,38.8,38.8,0,0,1,15.28-14.93c1.86-.9,3.79-1.72,5.85-2.55,4.06-1.72,8.67-3.65,12.87-6.81a53.47,53.47,0,0,0,6.33-5.78c.49-.49.9-.9,1.31-1.38C449.27,300.33,449.27,315.34,453.61,331.3Zm49.62-67.1c-.07-2.2,2.82-4.82,5.71-5.16a4.82,4.82,0,0,1,1-.07c3.51,0,7.51,2,10.67,5.3a25.92,25.92,0,0,1,2.69,3.3,246.71,246.71,0,0,0-4,52.1c-2.54,1.86-5,3.86-7,5.65a171.55,171.55,0,0,0-29.45,33.58c-.69-1.58-1.38-3.24-2-4.82-4.06-9.29-7.77-18.1-10.25-27.32-2.55-9.5-4.54-23.4.41-35.51,4.27-10.6,14-18,23.54-18l8.95-.07ZM534.13,363a51.62,51.62,0,0,0,14.8,23.47,90,90,0,0,1-19.21,16.58c-15,9.57-33.3,15.9-55.74,19a159.38,159.38,0,0,1,49.83-83.55,84.91,84.91,0,0,1,8.25-6.47C530.62,343.35,531.31,353.81,534.13,363Zm2.48-52.86c.2-19.2,3.16-40.05,8.94-62.35,1.45-5.78,3.24-9.15,5.65-10.8a10.92,10.92,0,0,1,6-1.65c4.55,0,9,2.2,10.12,3.58,9.84,11.28,13.21,24.43,13.42,37.23-1.1.41-2.2.75-3.23,1.24-10.53,3.92-23.75,8.87-32.56,19.68a46.83,46.83,0,0,0-7.43,12.8A3.78,3.78,0,0,1,536.61,310.17ZM548.1,431.71a13.28,13.28,0,0,1-13.42-9.77,7.1,7.1,0,0,1-.28-1.17c1.59-1,3.24-2,4.82-3a107,107,0,0,0,25-22.37c1.72.55,3.44,1,5.16,1.52,4.06,1.1,8.61,2.34,9.43,4.2.48,1.1.14,3.92-.14,6.19-.41,3.65-.82,7.64-.89,11.77A47.61,47.61,0,0,1,548.1,431.71Zm22.09,12.73c-4.89,6.82-9.56,13.7-14,20.72a118.57,118.57,0,0,0-2.54-16.38A68.32,68.32,0,0,0,570.19,444.44ZM439.64,276.87a48.48,48.48,0,0,1-4.41,4.06,39.43,39.43,0,0,1-9,4.54c-2.27,1-4.68,2-7.09,3.16-10.53,5.44-19.2,14.8-24.78,26.16a69.71,69.71,0,0,0-22.43.48,27.4,27.4,0,0,0-1.79-2.21c1.1-.34,2.2-.61,3.37-1,7.43-2.06,16-4.4,22-10.94,4.74-5.16,6.81-11.36,8.46-17.34l.21-.76c1.17-4.06,2.27-7.91,4.26-10.53a17,17,0,0,1,5.44-4.2,28.29,28.29,0,0,0,10.53,3,56.9,56.9,0,0,0,9.29-.55c3.58-.34,6.88-.69,8.47.21a7.15,7.15,0,0,1,1.79,1.79A58.28,58.28,0,0,0,439.64,276.87ZM394.35,262c-3.92,5.16-5.57,11.08-7.08,16.31l-.21.69c-1.17,4.06-2.41,7.91-4.54,10.25-2.62,2.89-8,4.34-13.7,5.92-2.41.69-4.88,1.38-7.36,2.27,1.58-6.26,5-12.52,8.05-18.17,6.74-12.45,14.38-26.56,26.43-33.92l.89-.49a31.1,31.1,0,0,0,3.93,11A29.47,29.47,0,0,0,394.35,262Zm-24.43,71.78c18-5.51,39.92.07,55.95,14,14.39,12.59,24.85,32.07,29.32,54.85,2.14,10.67,1.72,18.1-1.24,23.33-2.61,4.47-7.84,8.19-14.38,10-6.95,2-14.52,1.86-21.75,1.51-24.5-1.37-43.08-6.88-56.91-16.86-18.45-13.28-30.42-37-32.07-63.24-.55-9.85.41-17.55,3.23-23.61,3-6.68,8.54-11.49,14.25-12.53.69-.06,1.31-.13,2-.13,4.75,0,9.5,2.89,10.6,6.67l2.55,8.54ZM383.76,463c11.76,0,25.6-1.79,38.33-7.85,1,0,2,.07,3,.07a72.35,72.35,0,0,0,19.27-2.34c.82-.21,1.58-.55,2.41-.83-4.48,9-11.7,18-21.68,27.12-10.81,9.77-21,16.52-31.25,20.58-11.76,4.61-24,5.57-34.41,2.68a77.49,77.49,0,0,1-10.18-3.79,115.11,115.11,0,0,0-11.84-4.26c-2.82-.83-5.57-1.38-8.33-1.93a56.43,56.43,0,0,1-11.35-3.23c-9.91-4.68-15.49-18.45-12.46-30.7a37.59,37.59,0,0,1,8.95-16.1,127.58,127.58,0,0,0,61.18,20.3C378,463,380.8,463,383.76,463Zm53.06,29.11c15.34-14,25.12-27.88,29.87-42.53a42.88,42.88,0,0,0,2.13-9.23c18.72-2,35.17-5.92,49.55-11.76a31.58,31.58,0,0,0,16.45,18,91,91,0,0,1,3.92,20.57c1,12.74-1.1,22.65-6,29.46-9.63,13.35-29.66,14.66-44.25,10.19-1-.28-2.13-.62-3.16-1-4.34-1.44-9.23-3-14.66-3.23h-1c-6,0-11.49,1.65-16.31,3.23-1.3.35-2.68.76-4,1.17-9.15,2.55-20.51,2.62-29.45-1.37A151.26,151.26,0,0,0,436.82,492.14ZM586.36,452a30.77,30.77,0,0,0,4.82,5,43.21,43.21,0,0,0,6.2,4.33A1210.19,1210.19,0,0,1,523.94,575,431.44,431.44,0,0,1,586.36,452Zm-43.7,127.11a1230.89,1230.89,0,0,0,69-107.43c1.44,2,2.82,4.2,4.2,6.47,1.1,1.65,2.13,3.37,3.3,5A287.37,287.37,0,0,1,542.66,579.06Zm76.19-125.19a62.33,62.33,0,0,0-9.43-6,37.74,37.74,0,0,1-6.88-4.26c-6.54-5.51-8.54-16.38-6.4-34.14.55-4.13,1.24-9.84-1.17-15.34-4.2-9.57-13.91-12.19-20.92-14.11-1.79-.48-3.45-1-4.89-1.45-8.19-2.82-15.21-10.73-18.24-20.71-2.75-8.95-2.75-19.69.07-32,1.79-8.06,4.2-13.63,7.5-17.69,5.85-7.16,16.11-11,25.12-14.38,1.93-.69,3.85-1.38,5.78-2.14v3.44c-.2,3.93-.82,8-1.44,12.25-1.24,7.78-2.48,15.83-1.1,24.43s5.36,16,8.94,22.1c17.69,30,43.7,47.83,69.65,47.83h.76a59,59,0,0,0,9.56-.9c2.2,2.34,4.54,4.61,6.88,6.95C691.18,416,700.06,424.14,709,432c8.54,7.5,17.76,15.28,28.77,20.09,9.56,4.2,20.23,6.27,32.83,6.27,1,0,2.06,0,3.09-.07a86.82,86.82,0,0,0-3.51,14.24,42.83,42.83,0,0,0-.62,8.12c-.75.83-1.37,1.52-2.06,2.27-10.39,10.26-24.22,14.25-34.07,15.83-13.69,2.21-27.94,1.17-41.29-.2-20-2.14-44.39-6.68-56.91-23.13a64.83,64.83,0,0,1-4.41-6.67C627.73,463.85,624.22,458.28,618.85,453.87Zm126-17.82c-8.74-3.86-16.45-10.33-24.23-17.21-8.81-7.71-17.41-15.69-25.8-23.81-6.41-6.06-12-11.77-15.35-18.44a8.73,8.73,0,0,1-1.17-3.38c.07-.55.82-2.13,3.44-4.33a31.54,31.54,0,0,1,19.68-6.75,28.79,28.79,0,0,1,9,1.38,74.48,74.48,0,0,1,7.43,2.89c7.23,3.1,15.42,6.68,24.84,4.75a34.68,34.68,0,0,0,13.77-6.68,150.8,150.8,0,0,0,13.07-10.8c9.09-8,17.62-15.49,27.6-16.86,4.75-.62,10,.2,15.55,1,6.27,1,12.74,1.93,19.62,1.17,16.52-1.86,29.11-12.87,40.19-22.57l2.2-1.93c9.09-7.85,20.92-16.72,32.42-14.93,2.34.34,3.23,1,3.51,1.24,1.79,1.65,1.51,7.77,1.44,10-.55,12.32-1.31,24.3-4.06,35.65-5.78,24.3-21.33,46.87-43.7,63.39-20,14.79-45.56,24.91-74.05,29.24C770.87,442.1,756.42,441.14,744.86,436.05ZM690.49,284.23c6.88,10.39,17.07,16.52,26.91,22.43,8.53,5.1,16.52,9.91,21.26,16.93,2.62,3.93,4.55,9,6.06,16.25a64.51,64.51,0,0,1,1.51,10.46h-.06c-2,1.44-4.55,3.16-7,3.64-4,.83-8.87-1.23-14.45-3.64-2.89-1.24-5.85-2.55-9-3.58a47.63,47.63,0,0,0-22.16-1.52,43,43,0,0,1-2-6.46c-.41-1.86-.69-3.79-1-5.85-1.24-8.06-2.69-17.21-9.84-24.09a38.18,38.18,0,0,0-6.89-5.09,36.19,36.19,0,0,1-3.44-2.34c-3.16-2.48-5.23-7-6.88-11.15-6.19-15.28-8.33-29.39-6.26-42.05,2.27-14,10.46-26.29,21.19-31.94a13.94,13.94,0,0,1,1.93-.89,14.27,14.27,0,0,1,.9,3.92,163.17,163.17,0,0,1,.48,19.41C681.54,254.15,681.2,270.19,690.49,284.23ZM883,252.43c.9,3.72,1.72,7.3,2.41,10.88a71.38,71.38,0,0,1,1.44,15,86.56,86.56,0,0,0-2.89,8.53c-.62.28-1.23.62-1.85,1-.28-7.64-.83-15.14-1.52-22.51-1-10.46-2.54-21.47-8.26-30.9-7.43-12.32-21-18.51-33-15.07a27.15,27.15,0,0,0-9.15,4.54,47.51,47.51,0,0,0-14-8.67c-12.59-5.37-25.46-6.95-37.16-4.61-10.73,2.07-21,7.78-29.66,16.11-.14-1.11-.21-2.07-.28-3.1-.41-13.42,6.47-27.87,18.52-38.61,8.87-7.91,22-14.25,35.1-14.25a34.77,34.77,0,0,1,16.79,4.06c1.79,1,3.58,2.14,5.5,3.38,5.58,3.58,11.91,7.64,19.89,8.12a40.51,40.51,0,0,0,9.84-.69,28.35,28.35,0,0,1,5.92-.55c6.4.48,11.36,8.46,13.15,11.9a38.86,38.86,0,0,1,4.47,12.25,59,59,0,0,1,.35,9.92c0,2.13-.07,4.33,0,6.6C878.92,235,881,243.83,883,252.43Zm-98.41,8.95a10.46,10.46,0,0,1,3.44-1.79,32,32,0,0,1,11.35-2.06,34.13,34.13,0,0,1,4.68.34c-1.72,1.24-3.51,2.55-5.43,3.79a88.6,88.6,0,0,0-8.33,6,50.26,50.26,0,0,0-5.16,5,41.08,41.08,0,0,1-5.23-2.69C781.13,266.4,782.5,263,784.57,261.38Zm-11-13.76A30.31,30.31,0,0,0,765.3,259a14.21,14.21,0,0,0-2.07-1.51,54.43,54.43,0,0,0-11.35-6.2c.14-.27.34-.48.48-.75,7.71-12.25,18.72-20.58,30.14-22.78,10.39-2.07,20.37.75,26.84,3.51a30.85,30.85,0,0,1,9.64,6.05c-1,1.72-2,3.37-2.89,5l-.21.41a50.15,50.15,0,0,0-34.13.41A33.88,33.88,0,0,0,773.56,247.62Zm27.87,33.51c2.06-1.65,4.4-3.23,7-4.88,4.2-2.83,8.6-5.72,12.46-9.91,4.4-4.61,7.5-10,10.53-15.35,4.06-7.16,7.63-13.35,12.73-14.8,4.88-1.37,10.46,2.69,13.21,7.23,3.85,6.4,4.89,14.8,5.78,23.54a266.94,266.94,0,0,1,1.45,33.17c-.42.41-.9.82-1.31,1.17l-2.27,2c-9.64,8.33-19.48,17.07-30.56,18.24-4.61.55-9.7-.21-15.07-1-6.54-1-13.28-2-20.51-1.1a46.24,46.24,0,0,0-9.5,2.41c-.06-.9-.06-1.79-.06-2.62C785.32,303.91,791.59,289.32,801.43,281.13Zm-48.24-9.22c2.27,1.51,4.47,3.3,6.81,5.09,4.68,3.72,9.43,7.44,15.07,10.26a73.17,73.17,0,0,0-7.36,31.79,85.7,85.7,0,0,0,.82,12.53c-2.2,1.72-4.33,3.51-6.47,5.37-.07-.28-.07-.55-.13-.76-1.31-5.92-3.58-14.73-8.68-22.37-6.88-10.25-17.06-16.38-26.84-22.23-2.47-1.51-4.95-3-7.29-4.54a71.35,71.35,0,0,1,7-12.11c2.2-3.1,4.82-6.47,8-7.92a10,10,0,0,1,4.34-.89C744.44,266.13,751,270.33,753.19,271.91Zm202.88-7.71c-.83,1.86-1.79,3.79-2.89,5.85-2.62,5-5.65,10.88-6.81,17.48-1,5.44-.56,10.74-.21,15.42.14,1.93.27,3.71.27,5.44.35,15.89-6.88,32.62-19.89,45.76a33.86,33.86,0,0,1-3.3,3,53.48,53.48,0,0,0,1.86-6.54c3.1-12.87,3.92-25.81,4.47-39,.28-5.37.76-16.59-7.09-23.74-3.16-3-7.5-4.82-12.73-5.65a35.75,35.75,0,0,0-5.3-.41,23.57,23.57,0,0,1,2.07-3.44c2.13-3,5.16-5.57,8.32-8.33a73,73,0,0,0,9.64-9.5c7.78-9.49,10.67-21.12,13.49-32.34,2.27-8.88,4.33-16.86,8.4-22.78C960.27,220.91,964.67,245.21,956.07,264.2ZM769.56,123.46c5.65-8.12,11.84-16.44,20-21.81a29.76,29.76,0,0,1,15.9-5.16,19,19,0,0,1,7.22,1.37c1.38.62,3,1.52,4.55,2.41,3.44,2,7.22,4.2,12,5.09,7.16,1.31,13.49-.68,19.13-2.4.9-.35,1.86-.55,2.82-.83,23.27-6.88,51.41,1,69.93,19.48,15.27,15.27,24.5,37.43,25.6,60.83l-.41-.34-5.44,4.06c-12.73,9.43-16.59,24.43-19.89,37.71-2.55,9.84-4.89,19.07-10.19,25.67a64,64,0,0,1-7.57,7.3,7.21,7.21,0,0,1-1.1,1c-.69-3.16-1.37-6.33-2.13-9.36-1.86-8.12-3.58-15.76-3.86-23.33-.06-1.86,0-3.71,0-5.71a73.86,73.86,0,0,0-.55-12.8,56.31,56.31,0,0,0-6.33-18c-6.88-12.73-16.51-20.24-27.18-21.13-.9-.07-1.79-.07-2.69-.07-1.44-9.77-5-18-10.59-24.22-8.81-9.91-21.34-13.49-31.25-15.56-9.7-2-24.09-3.92-36.75,2.82a60,60,0,0,0-7.36,4.82,52.83,52.83,0,0,1-6.4,3.92,51.11,51.11,0,0,0-3.79-6A102.86,102.86,0,0,1,769.56,123.46Zm-23.95,29.32c1.52.41,3.24,1,5,1.65,4.33,1.59,9.7,3.58,15.83,3,7.09-.75,12.39-4.47,17.06-7.84,2-1.31,3.79-2.62,5.51-3.58,6-3.1,13.7-3.51,25-1.17,10.81,2.27,17.55,5.37,21.75,10.12,3.17,3.44,5,8,5.92,12.66a59.85,59.85,0,0,1-7.16-4.2c-2.13-1.31-4.33-2.75-6.74-4.06C806.45,148,777,153.13,755.94,171.91c-15.83,14.18-24.91,33.66-24.36,52.24a69.24,69.24,0,0,0,4.06,20.23c-.9,1.58-1.72,3.17-2.41,4.68a27.29,27.29,0,0,0-6.4,2c-7,3.23-11.7,9.08-15.07,13.76-1.38,2-2.62,3.92-3.79,5.92a19.28,19.28,0,0,1-7-5.78c-2-7.78-1.86-16.72-1.72-26a184.48,184.48,0,0,0-.35-19.48,27.94,27.94,0,0,1,3.31-6.95,42.14,42.14,0,0,1,3-4.06c2.68-3.44,5.85-7.37,7.5-12.6a40.85,40.85,0,0,0,1.65-10.11,20.6,20.6,0,0,1,.14-2.14c.75-9.49,4.54-18.16,10.39-24a24.15,24.15,0,0,1,16.65-7.29A15.23,15.23,0,0,1,745.61,152.78Zm-126.56,58c2.14-1.93,4.41-3.72,6.75-5.71,5.85-4.75,11.9-9.64,16.51-16.52,6-8.88,8.06-18.79,10-28.42,1.66-7.57,3.1-14.73,6.4-20.65,5.17-9,15.49-15.76,27.53-17.83a59.53,59.53,0,0,1,9.36-.75,81,81,0,0,1,27,5.16,76.57,76.57,0,0,1,17.27,8.74,42.09,42.09,0,0,0-27.32,12.39c-8.67,8.67-14.31,21.33-15.48,34.89-.07.83-.14,1.65-.21,2.55a27.84,27.84,0,0,1-.76,5.85c-.75,2.2-2.54,4.47-4.61,7.08-.62.83-1.24,1.59-1.92,2.41a17.17,17.17,0,0,0-3-1.44c-7.3-2.55-14,1-16.18,2.13-15.83,8.33-27.18,25-30.41,44.67-2.55,15.89-.07,33.17,7.36,51.47,2.48,6.2,5.85,13.08,12,18.17,1.86,1.45,3.72,2.62,5.3,3.65a19.62,19.62,0,0,1,4,2.75c2.9,2.82,3.79,8.33,4.68,14.18a61.44,61.44,0,0,0,1.17,6.74A52.87,52.87,0,0,0,677,351a54.73,54.73,0,0,0-6.26,4.26C663,361.58,661,368,660.83,372.32a22.93,22.93,0,0,0,2.82,11.77c-19.13-.9-38.68-15.28-52.72-39.09-2.82-4.75-5.78-10.33-6.74-16.11s.07-12.11,1.1-18.85a134.06,134.06,0,0,0,1.65-14.32,65.33,65.33,0,0,0-5.57-28.7c-.48-1-.9-2.06-1.45-3.09a31.27,31.27,0,0,1-2.68-7,9.29,9.29,0,0,1-.14-2,36.45,36.45,0,0,1,.48-4.95A70.18,70.18,0,0,1,619.05,210.8Zm-6.81-17.21c-1.72,1.38-3.37,2.82-5,4.27-.55.55-1,1-1.59,1.51A1157.34,1157.34,0,0,1,534.89,58,413.21,413.21,0,0,1,612.24,193.59ZM521.74,71.92a1154.81,1154.81,0,0,0,72,141.77c-1,1.37-1.79,2.75-2.69,4.2A274.17,274.17,0,0,1,521.74,71.92ZM486,193c6.54-6.12,15.9-9.29,25.67-9.29a46.25,46.25,0,0,1,22.92,6.06c10.26,6,18.79,15.83,24.71,28.15a28,28,0,0,0-17.83,4.54,27.37,27.37,0,0,0-8.87,10.11,48.85,48.85,0,0,0-4,10.81c-.34,1.31-.61,2.61-1,3.85a33.93,33.93,0,0,0-7.16-3.78,85.84,85.84,0,0,0-18.72-20.3,81,81,0,0,0-8.94-6.06A98.75,98.75,0,0,0,484,195.24C484.58,194.49,485.27,193.8,486,193Zm5,44a75.07,75.07,0,0,1,7.71,7.09,24.12,24.12,0,0,0-11.43,12.25,44.16,44.16,0,0,0-15.55,6.74,54,54,0,0,0-11.91,1.45c-.13-.07-.13-.14-.2-.21-2-2.68-4.48-6-8.4-8.4-6.68-4-13.83-3.23-19.48-2.61a44,44,0,0,1-6.33.41c-3.3-.2-6.67-2.34-8.94-5.71s-3-7.36-1.93-10.53c3.1-9.08,16-12.53,19.89-13.35A69.38,69.38,0,0,1,491,237ZM380.25,195.66c3-6.89,9.29-15,17.06-15.35h.49c2.89,0,6.26,1,9.84,2.06a55.23,55.23,0,0,0,12.93,2.83c5.58.34,10.74-.69,15.35-1.66,4.27-.89,8.4-1.72,11.77-1.17,5.64.9,11.36,5.85,17,14.73a97.89,97.89,0,0,1,6.06,11,85.29,85.29,0,0,0-40-1c-11.7,2.48-21,7.64-27,14.66a40.7,40.7,0,0,0-6.95-2.75,42.88,42.88,0,0,0-20.92-.76A53.74,53.74,0,0,1,380.25,195.66Zm-30.42,71.85.89-2.28c3.79-9.56,9.16-19.54,11.49-21.47A41.57,41.57,0,0,1,380,235.23c-12,10-19.61,24-26,35.65-4.95,9.15-11.08,20.44-11.15,33.24a33.47,33.47,0,0,0-15.14,7.16,40.55,40.55,0,0,1-.13-18.17c1.79-7.85,13.35-18.93,20.16-24.09ZM284,315.68a58.67,58.67,0,0,0-3.23,5c-.27-1-.62-2-.89-3a46.5,46.5,0,0,1,4.54-34.35c3.65-6.46,9.08-12.31,14.38-18,6-6.47,12.18-13.14,19.2-18,6.54-4.54,15.28-7.85,23.81-7.85a16.52,16.52,0,0,1,1.86.07,134.1,134.1,0,0,0-8.32,16.86c-5.85,4.68-21.61,18.38-24.85,32.69a56.31,56.31,0,0,0-1.31,8.95,1.7,1.7,0,0,0-.82.14C299.31,299.92,291.12,305.77,284,315.68ZM286.93,467c-30.08,13.14-61.05,22.64-93.46,24.22-.83.07-1.72.07-2.62.14,24.43-13.35,54.65-23.61,92.57-31.59l3.92-.83A51.84,51.84,0,0,0,286.93,467Zm7.5-27.39c-2,.34-4,.82-5.92,1.17l-8.67,1.85C245.91,449.81,217.69,458.76,194,470a136,136,0,0,1,23.4-15c22-11,48.17-17.13,78-18.17a3.33,3.33,0,0,1,.83-.07C295.6,437.77,295,438.66,294.43,439.63Zm3.92-113.76c2.75-4,7.23-8.81,12.39-10.19a64.1,64.1,0,0,0,4.54,12.8c-3.37,8.33-4.68,18.17-3.92,30,1.92,31.45,16.65,60,39.29,76.39a90.91,90.91,0,0,0,16.18,9.22c-27.53-4.2-51.76-18.1-66-38.33C283.62,381.47,282.59,347.89,298.35,325.87ZM231.25,548c19.89-14.8,43.91-24.64,67.1-34.2,1.17-.49,2.34-1,3.58-1.45-4.34,3-8.67,5.78-13,8.53-8.26,5.1-16.52,10-24.5,14.73-21.06,12.46-41.36,24.57-60,40.06A114.31,114.31,0,0,1,231.25,548Zm-6.75,34.27c15.35-11.63,31.87-21.47,48.87-31.59,8.05-4.74,16.45-9.7,24.84-14.93a420.15,420.15,0,0,0,34.55-24.23,275.61,275.61,0,0,1-95.25,70.75Zm50.86,0a293.91,293.91,0,0,0,74.95-64.28c1.44.55,2.82,1,4.4,1.45a64.14,64.14,0,0,0,17.14,2.2,79.37,79.37,0,0,0,28.42-5.5c.69-.28,1.38-.62,2.07-.9,14.38,11.77,35.58,13.15,51.68,8.67,1.52-.34,3-.82,4.54-1.31,4.13-1.3,8.06-2.54,11.5-2.4,3,.13,6.26,1.17,9.77,2.34,1.17.41,2.41.75,3.58,1.1a71,71,0,0,0,20.71,3.09A63.16,63.16,0,0,0,525,523.24a431.64,431.64,0,0,0-21.48,59Zm290.5,0a303.22,303.22,0,0,0,66.06-85.4c16.8,13,39.44,17.13,58.43,19.13A239,239,0,0,0,716,517.6a133.63,133.63,0,0,0,20.17-1.51c16-2.55,29.86-8.68,40.32-17.76,6.89,7.36,17.76,11.08,28.5,11.08a39.15,39.15,0,0,0,6.33-.41,110.7,110.7,0,0,0,18.51-4.75c6.47-2,12.53-3.92,18.45-4.34s12,.48,18.51,1.52c3,.41,6.19.89,9.36,1.24a115.74,115.74,0,0,0,56.71-8.61,445.38,445.38,0,0,0,50.37,88.16Zm439.35,0a426.46,426.46,0,0,1-55.61-93.59c27.53,30.9,52.17,61.45,75.56,93.59Zm41.56,0a1221.83,1221.83,0,0,0-81.48-102.4,285.69,285.69,0,0,1,94.56,102.4Zm32.9,0a294.53,294.53,0,0,0-15.14-26.49,450.54,450.54,0,0,0,41.5,26.49Zm-68.13-96.48a71.06,71.06,0,0,0,13.9,4.4c7.43,4.54,14.73,9.09,22,13.7a81.06,81.06,0,0,0,30.08,19.82c26.7,18.23,52.71,37.5,78.87,58.56h-12.05A430.52,430.52,0,0,1,1011.54,485.74Z"/><path fill="FRAME_COLOR" d="M2.9,1001.82h446a309.76,309.76,0,0,0,20.65,29.59,43.41,43.41,0,0,0-20.79,6.33c-10.32-6.54-22.29-9.29-34.41-9.29a94.09,94.09,0,0,0-42.94,11c-18.72,10-38,29.39-35.86,53.75a43.58,43.58,0,0,0,4.82,15.83,89.29,89.29,0,0,0-14.52,7.16c-18.65,11.35-33,30.35-40,51.13-8.81,19.06-1.45,44.18-1.45,44.18a6.9,6.9,0,0,1-.69,5.17,67.38,67.38,0,0,0-10.8,36.4,58.51,58.51,0,0,0,1.58,13.49,1.27,1.27,0,0,1,.14.55,556,556,0,0,0-120.3,80.93l-17.55,15.56,23.47-.21c62.21-.55,123.67-17.55,177.83-47.69a79.6,79.6,0,0,0,32.21,19.75c6.05,21.54,24.29,39.3,45.76,42.74l.62.07a9.37,9.37,0,0,0,1.38.27,1,1,0,0,0,.07.48c.07.42.14.9.2,1.24,2.62,13.42,13.08,24.64,31,33.38,9.16,4.47,23.13,10.12,37.65,7.43a44.54,44.54,0,0,0,22.43-11.83,70.19,70.19,0,0,0,19.41,7.77c17.34,4.13,35.44.69,48.38-9.22,1.31-1,2.48-2,3.72-3.1,2.2-1.79,4.13-3.51,6.12-4.4,3.72-1.79,8.81-1.31,14.59-.76,2.89.28,5.85.55,8.88.55a16.39,16.39,0,0,0,2.62-.07,396.82,396.82,0,0,0-51.69,114.45l-4.68,16.73L573,1525c49.07-18.79,88.92-54.09,115.83-100.82,4.68,19.48,14.18,37.3,27.6,50.65,23.26,23.26,57.53,32.69,87.26,24,1-.27,2.07-.62,3.1-1,4-1.24,7.77-2.41,10.66-1.86,1.86.34,4.07,1.58,6.54,3,1.93,1,4,2.27,6.4,3.3a35.3,35.3,0,0,0,14.25,2.82,46.83,46.83,0,0,0,25.46-8c10.74-7.09,18.38-17.34,24.71-26.43,1.65-2.34,3.37-4.81,4.89-7.36a92.28,92.28,0,0,0,21.74,11.22c16.24,5.78,31.52,7.57,45.29,5.16,17.27-3,32.14-12.87,39.77-26.5,4.68-8.26,6.54-17.13,8.33-25.67,1.72-8.32,3.31-16.17,7.43-22.23.42-.68,1-1.3,1.45-2a428.94,428.94,0,0,0,110,167.64l14,13.15.76-19.2a295.07,295.07,0,0,0-35-152c21.47,9.09,46.59,5.78,62.35-8.94,7.16,8.81,15,13.76,23.75,15.14,6.53,1,12.59-.28,18-1.38,3.85-.76,7.5-1.51,10.67-1.31a42.31,42.31,0,0,1,9.08,2.14c4.68,1.37,10.05,3,16,2.82,16-.62,27.25-13.77,32.55-25.81a72.94,72.94,0,0,0,5.43-36.27,1,1,0,0,1,.28-.2c15.35,5.91,34.41,3.09,50.38-7.92,8.6-5.92,15.48-13.35,22.09-20.44,5.92-6.4,12.11-13,16.79-21.19a63.52,63.52,0,0,0-3-67.52,90.93,90.93,0,0,0-1.24-46.45.22.22,0,0,0-.07-.14c-.48-1.31-8.12-22.78-13.55-28-.76-1-1.45-1.93-2.21-2.82,30.08-1.72,56.85-8.33,79.7-19.82,28.49-14.32,50.86-36.48,63-62.42l9.77-20.92L1492,1070.5c-8.61,3.79-18.65,4.13-29.32,4.47-2.34.07-4.68.14-7,.28-33.86,1.72-65.79,11.15-96.49,24.36a43.79,43.79,0,0,0-6.67-10.67c2-.82,3.92-1.65,5.85-2.4,24.15-10,49.2-20.24,70.81-36.34,18.45-13.7,32.14-30.49,39.92-48.38h178a15.72,15.72,0,0,0,2.89-8.19,15,15,0,0,0-2.89-9.36H2.9A15,15,0,0,0,0,993.63,15.72,15.72,0,0,0,2.9,1001.82Zm595.23,303a49.75,49.75,0,0,1-9.84,5.24,19.58,19.58,0,0,0-12.39,15.62c-1.44,10.32-13.21,19.68-24.7,19.68h-.07c-15.83,0-28.91-12.18-35.72-23.61a73.05,73.05,0,0,1-7.29-16,55.61,55.61,0,0,0,28.14-18.65,50.87,50.87,0,0,0,49.07-34.2,42.39,42.39,0,0,0,1.52-5.17,70.27,70.27,0,0,0,6.4,5.58,59.49,59.49,0,0,0,10,5.78c-2.55,9.22-3.86,19-5,28.63C597.65,1293.34,597.24,1299.26,598.13,1304.83Zm-191-167.16c11.28-9.15,27-17.76,43.77-20.65a29.38,29.38,0,0,0,5.5,11.57,65.23,65.23,0,0,0,49.9,25.39c.69,2,1.44,4,2.27,5.92a47.7,47.7,0,0,1-29.32,9.91,46.84,46.84,0,0,1-13.76-2.07,18.77,18.77,0,0,0-23.4,12c-4.61,14.18-18.58,25.74-33.17,27.32a18,18,0,0,0-15.83,16.45c-1.17,17.07-16,32.69-32.35,34.55C354.1,1213.92,372.54,1165.89,407.09,1137.67ZM348,1197.06a25.33,25.33,0,0,0-1.79-7.78c-1.65-4.12-1.65-9.91.07-15,3.17-9.29,10.53-17.41,17.2-24.36a166.64,166.64,0,0,1,13.22-12.59c1.37.41,2.82.75,4.2,1.1A150,150,0,0,0,348,1197.06Zm167.17,55.26c-.62.28-1.17.56-1.72.76a36.08,36.08,0,0,1-14.18,3,29.77,29.77,0,0,1-11.63-2.27,24.79,24.79,0,0,1-11.5-9.84,37.15,37.15,0,0,0,5.23-3.92,33.13,33.13,0,0,0,21.27,4.33A37,37,0,0,0,515.14,1252.32Zm-4.75-43.22a55.17,55.17,0,0,1,9.08-20.16,29.26,29.26,0,0,1,3.58-4.27,97.36,97.36,0,0,0,14,14.73c8.74,7.64,18.31,11.15,26.63,10.19a9.65,9.65,0,0,0,.49,1.24,25.78,25.78,0,0,1-2.69,8.74c-3,5.57-8.33,10.53-15,14-6.88,3.51-14.11,4.81-20.37,3.71-6.54-1.1-12.18-5-14.73-10C508.46,1221.42,509.22,1214.2,510.39,1209.1Zm-51.69-24a1.22,1.22,0,0,1,1.59-.55,65.94,65.94,0,0,0,42-1.45,76.59,76.59,0,0,0-9,22.16,49.66,49.66,0,0,0-.55,20.78,9.51,9.51,0,0,1-3.1-1.65,13.92,13.92,0,0,0-8.74-3,14.13,14.13,0,0,0-10.66,4.88c-4.55,5.37-13.7,7.16-20.31,4-6.05-2.89-10.53-9.22-12.25-16.51A58.3,58.3,0,0,0,458.7,1185.09Zm-16.38,61a34.73,34.73,0,0,0,16.8,3.17,41.8,41.8,0,0,0,21.74,20.71c11.91,5,26.22,4.82,39.3-.62a44,44,0,0,0,19.27-15,53.84,53.84,0,0,0,15-5.23,53.24,53.24,0,0,0,16.38-12.53,41,41,0,0,1-2,10.67,33.37,33.37,0,0,1-31,22.3,24.27,24.27,0,0,1-4.41-.34l-5.57-.76-3,4.68c-7.36,11.35-23.12,20.44-37.51,15-1.51-.76-4.75-5.16-6.6-7.78-3.44-4.74-7-9.56-11.56-12.25a52.91,52.91,0,0,0-8.26-3.44c-4.75-1.72-12.74-4.54-15.28-7.7a29.46,29.46,0,0,1-6.26-12.53C440.33,1245,441.36,1245.58,442.32,1246.06Zm134.75-50.58-4.13-11.36-9.49,7.37c-2.89,2.27-9.91-.9-14.94-5.3a89.48,89.48,0,0,1-27.46-43.5l-1.92-7.09-7.3.69A47,47,0,0,1,470.4,1118c-2-2.62-2.34-4.06-2.34-4.61,1.52-2,8.26-5.3,13.08-5.92,19.47-2.69,35.3-.35,55.47,2.61,11.08,1.59,31.24,14.87,45.14,25.74,2.14,1.65,4.2,3.3,6.27,4.89,22,17.06,42.8,33.24,53.54,56.5-1.79,7.91-4.13,15.07-8.81,20.58a66.24,66.24,0,0,1-7.09,6.53c-2.41,2.07-4.88,4.13-7.29,6.61a56.77,56.77,0,0,0-8.61,11.77,30.09,30.09,0,0,1-6-3.51C589.94,1228.93,582.72,1211.17,577.07,1195.48Zm21.75-68.62-6.26-4.81a246.19,246.19,0,0,0-23.81-16.66c-9.91-6.05-20.72-11.42-29.66-12.66-6.13-.9-12.05-1.79-17.9-2.48,6-9.43,17.76-16.17,30.21-16.17h.49c16.1.21,32.89,10.12,45,26.36l.21.27a22.26,22.26,0,0,0,7,6.82c3.51,2,7.23,2.27,9.84,2.54h.62c18.65,1.52,36.06,13.77,45.63,30.08a126.75,126.75,0,0,0-13.35,31.65C633.85,1154.05,616.1,1140.28,598.82,1126.86ZM527,1062.52a124.94,124.94,0,0,0-9.43-9.91A92.46,92.46,0,0,0,499,1038.77a295.69,295.69,0,0,1-24.15-29.59c21.26,17.34,42.39,33.59,63.79,48.93A52.44,52.44,0,0,0,527,1062.52ZM379.7,1055c19.06-10.19,46.11-14,63.59.48l6,5L455,1055c5.64-5.44,15.34-7.51,24.63-5.23,8.47,2,16.93,7.15,25.88,15.62,2.55,2.34,5,4.88,7.3,7.5a45.47,45.47,0,0,0-10.4,15.9c-1.37-.07-2.75-.07-4.06-.07a131,131,0,0,0-19.61,1.37,46.07,46.07,0,0,0-20.51,8.61c-20.65,1.1-42.53,9.63-61.39,24.7a72.89,72.89,0,0,1-23.26-6.05c-11.56-5.51-19.61-15.63-20.51-25.74C351.62,1075.8,366.48,1062,379.7,1055Zm-98.14,228.34a52.23,52.23,0,0,0,6.95,8.74c-25.4,11.91-51.34,23.13-78.46,34.14A541.76,541.76,0,0,1,281.56,1283.29ZM225,1339c27.66-11.36,54.09-23.06,80.17-35.44a47.53,47.53,0,0,0,6.95,2.54c1.59.42,3.1.76,4.62,1A360.11,360.11,0,0,1,225,1339Zm103.57-134.48a64.44,64.44,0,0,0-9.7,18.93,95,95,0,0,0,2.27,66.69,38,38,0,0,1-4.27-.9,36.75,36.75,0,0,1-25.39-26.84c-2.69-11.42,0-25.67,6.88-36.2a24.42,24.42,0,0,0,2.07-22.16,30.12,30.12,0,0,1-1.59-11.15c.48-23.6,15.35-49.07,36.13-61.8a64.33,64.33,0,0,1,16.93-7.29,54.33,54.33,0,0,0,7.37,5.57c-3,2.82-5.85,5.64-8.47,8.33-8,8.33-16.86,18.24-21.19,31-3,9.15-3,19.06.34,27.18A9.13,9.13,0,0,1,328.56,1204.56Zm39.78,111.29a60.49,60.49,0,0,1-18-12.74c-17.76-18.1-23.74-47.9-14.87-74a54.37,54.37,0,0,1,7.09-14.11,20.24,20.24,0,0,0,1.72-2.54,145.53,145.53,0,0,0-.41,51.2,14.48,14.48,0,0,0,3.44,7.85c4.13,4.47,9.91,4.26,11.84,4.19,25.94-1,49.55-24.29,51.48-51a.3.3,0,0,1,.27-.21,57,57,0,0,0,10.05-2.2c-.48,10.46-.83,21.13,3,31.66a67.55,67.55,0,0,0-17.62,6.12C384.51,1271,369.92,1292.86,368.34,1315.85Zm115.41,88a24.65,24.65,0,0,1-4.54.41c-6.19,0-13.42-2.06-22.23-6.33-12.73-6.19-20-13.28-21.47-20.92l-.14-1a18.19,18.19,0,0,0-3.78-9.29c-3.72-4.4-9-5.23-12.18-5.71l-.55-.07c-17.42-2.82-32.35-20.37-33.18-39-.82-18.37,10.88-37.37,28.43-46.18a57.43,57.43,0,0,1,19.75-5.64c5.78,5.57,14.45,8.67,21,11.08a53.19,53.19,0,0,1,5.5,2.13c1.38.83,4.34,4.89,6.06,7.37,3.51,4.75,7.09,9.7,11.84,12.45a117.68,117.68,0,0,0-8.12,31.8c-.83,7.5,6.6,37.92,6.67,38.19,2.14,8.19,7.23,14.53,11.5,19.07,2.13,2.27,4.26,4.47,6.53,6.47A25.35,25.35,0,0,1,483.75,1403.8Zm127.11-21.27h-.2a70.44,70.44,0,0,1-7.36-.48c-7.37-.69-15.63-1.44-23.68,2.34a48.09,48.09,0,0,0-10,6.95c-1,.9-2,1.72-3,2.48-8.8,6.74-21.4,9.08-33.65,6.12-14.24-3.3-25.12-12.59-31.73-19.68-4.19-4.54-6.46-8-7.36-11.49-1.79-7-6.26-27.8-6.19-32a102.37,102.37,0,0,1,5.09-22.23,95,95,0,0,0,7.64,16.31c11.91,19.75,31.38,32.07,50.79,32.07h.07c20.23,0,39.5-16,42-34.89a2.08,2.08,0,0,1,1.51-1.59,73.46,73.46,0,0,0,11.36-5.78l1.37,1.38c.9,1,1.86,1.86,2.48,2.68,2.82,3.72,3.65,9.71,4.54,16,1.31,9.5,2.76,20.23,11.84,27.6a27.49,27.49,0,0,0,8,4.54C627.59,1379,619.12,1382.53,610.86,1382.53Zm32.14,6a58.54,58.54,0,0,0,5.85-5.3,60.06,60.06,0,0,0,6.27-7.71,82.55,82.55,0,0,0,12.18-.48,970.94,970.94,0,0,1-75.15,103A362,362,0,0,1,643,1388.52Zm42.67,1.45v1.65c-17.82,40.33-44.87,73.43-78.93,96.28a977.41,977.41,0,0,0,77.14-106.33c.69,1.1,1.45,2.2,2.21,3.3C686,1386.59,685.81,1388.25,685.67,1390Zm.69-107.57c.28,4,.55,7.78,0,11-.69,4.06-2.82,8.19-5.09,12.53-1.17,2.13-2.27,4.4-3.31,6.74a70.26,70.26,0,0,0-4.61,42.6c-5.36,2.82-12.59,2.82-20.85,2.62-6.4-.21-11.9-.56-15.07-3.17-3.72-3-4.54-9.22-5.51-16.45-1.1-7.84-2.34-16.79-8-24.22a49.6,49.6,0,0,0-3.92-4.34,25.15,25.15,0,0,1-2.75-3.1c-2.69-3.85-2.21-10.25-1.45-17,1.93-18.24,4.68-35.52,15.28-46.53a65.94,65.94,0,0,1,6-5.37,85.56,85.56,0,0,0,9-8.53c9.64-11.22,12.32-25.67,14.66-38.47.62-3.44,1.24-6.74,2-9.91,5.5-24.64,19.82-47.21,39.36-62.08A99.17,99.17,0,0,1,772,1098.85c2.76.28,5.65.69,8.61,1.11,7.22,1.1,14.59,2.27,22.36,1.65,8.06-.55,15.35-2.89,22.44-5.1a102.83,102.83,0,0,1,15.83-4.12c8.94-1.24,20,2.2,21.54,9.22a19,19,0,0,1-.28,7.09,67.17,67.17,0,0,1-5.78,18.85c-31.17,4.89-59.32,16.11-81.48,32.49a139.55,139.55,0,0,0-33.86,35.71A117.83,117.83,0,0,0,711,1217.57c-16.38,16.52-25.46,37.85-25,58.43C686.09,1278.27,686.22,1280.33,686.36,1282.4Zm510-29.66c-2.82-10.46-7-20.24-11-29.66-1.45-3.45-3-7-4.34-10.4-.89-2.13-1.72-4.4-2.61-6.6,1.1-2.07,2.06-4.13,3-6.2,6.4,20.1,17.13,37.37,31.17,49.55a84.3,84.3,0,0,0,25.54,15.42,38.8,38.8,0,0,1-15.28,14.93c-1.86.9-3.79,1.72-5.85,2.55-4.06,1.72-8.67,3.65-12.87,6.81a53.47,53.47,0,0,0-6.33,5.78c-.49.49-.9.9-1.31,1.38C1200.73,1283.71,1200.73,1268.7,1196.39,1252.74Zm-49.62,67.1c.07,2.2-2.82,4.81-5.71,5.16a4.82,4.82,0,0,1-1,.07c-3.51,0-7.51-2-10.67-5.3a26.64,26.64,0,0,1-2.69-3.3,246.71,246.71,0,0,0,4-52.1c2.54-1.86,5-3.86,7-5.65a171.55,171.55,0,0,0,29.45-33.58c.69,1.58,1.38,3.24,2,4.82,4.06,9.29,7.77,18.1,10.25,27.32,2.55,9.5,4.54,23.4-.41,35.51-4.27,10.6-14,18-23.54,18l-9,.07Zm-30.9-98.83a51.62,51.62,0,0,0-14.8-23.47,90,90,0,0,1,19.21-16.58c15-9.57,33.3-15.9,55.74-19a159.38,159.38,0,0,1-49.83,83.55,84.91,84.91,0,0,1-8.25,6.47C1119.38,1240.69,1118.69,1230.23,1115.87,1221Zm-2.48,52.86c-.2,19.2-3.16,40.05-8.94,62.35-1.45,5.78-3.24,9.15-5.65,10.8a10.92,10.92,0,0,1-6,1.65c-4.55,0-9-2.2-10.12-3.58-9.84-11.28-13.21-24.43-13.42-37.23,1.1-.41,2.2-.75,3.23-1.24,10.53-3.92,23.75-8.87,32.56-19.68a46.83,46.83,0,0,0,7.43-12.8A3.78,3.78,0,0,1,1113.39,1273.87Zm-11.49-121.54a13.27,13.27,0,0,1,13.42,9.77,7.1,7.1,0,0,1,.28,1.17c-1.59,1-3.24,2-4.82,3a107,107,0,0,0-25,22.37c-1.72-.55-3.44-1-5.16-1.52-4.06-1.1-8.61-2.34-9.43-4.2-.48-1.1-.14-3.92.14-6.19.41-3.65.82-7.64.89-11.77A47.61,47.61,0,0,1,1101.9,1152.33Zm-22.09-12.73c4.89-6.82,9.56-13.7,14-20.72a118.57,118.57,0,0,0,2.54,16.38A68.32,68.32,0,0,0,1079.81,1139.6Zm130.55,167.57a48.48,48.48,0,0,1,4.41-4.06,39.43,39.43,0,0,1,9-4.54c2.27-1,4.68-2,7.09-3.16,10.53-5.44,19.2-14.8,24.78-26.16a69.71,69.71,0,0,0,22.43-.48,25.61,25.61,0,0,0,1.79,2.2c-1.1.35-2.2.62-3.37,1-7.43,2.06-16,4.4-22,10.94-4.74,5.16-6.81,11.36-8.46,17.34l-.21.76c-1.17,4.06-2.27,7.91-4.26,10.53a17,17,0,0,1-5.44,4.2,28.29,28.29,0,0,0-10.53-3,56.9,56.9,0,0,0-9.29.55c-3.58.34-6.88.69-8.47-.21a7.15,7.15,0,0,1-1.79-1.79A58.28,58.28,0,0,0,1210.36,1307.17Zm45.29,14.87c3.92-5.16,5.57-11.08,7.08-16.31l.21-.69c1.17-4.06,2.41-7.91,4.54-10.25,2.62-2.89,8-4.34,13.7-5.92,2.41-.69,4.88-1.38,7.36-2.27-1.58,6.26-5,12.52-8,18.17-6.74,12.45-14.38,26.56-26.43,33.92l-.89.49a31.1,31.1,0,0,0-3.93-11A29.47,29.47,0,0,0,1255.65,1322Zm24.43-71.78c-18,5.51-39.92-.07-55.95-14-14.39-12.59-24.85-32.07-29.32-54.85-2.14-10.67-1.72-18.1,1.24-23.33,2.61-4.47,7.84-8.19,14.38-10,7-2,14.52-1.86,21.75-1.51,24.5,1.37,43.08,6.88,56.91,16.86,18.45,13.28,30.42,36.95,32.07,63.24.55,9.85-.41,17.55-3.23,23.61-3,6.68-8.54,11.49-14.25,12.53-.69.06-1.31.13-2,.13-4.75,0-9.5-2.89-10.6-6.67l-2.55-8.54ZM1266.24,1121c-11.76,0-25.6,1.79-38.33,7.85-1,0-2-.07-3-.07a72.35,72.35,0,0,0-19.27,2.34c-.82.21-1.58.55-2.41.83,4.48-9,11.7-18,21.68-27.12,10.81-9.77,21-16.52,31.25-20.58,11.76-4.61,24-5.57,34.41-2.68a77.49,77.49,0,0,1,10.18,3.79,115.11,115.11,0,0,0,11.84,4.26c2.82.83,5.57,1.38,8.33,1.93a56.43,56.43,0,0,1,11.35,3.23c9.91,4.68,15.49,18.45,12.46,30.7a37.59,37.59,0,0,1-9,16.1,127.58,127.58,0,0,0-61.18-20.3C1272,1121.08,1269.2,1121,1266.24,1121Zm-53.06-29.11c-15.34,14-25.12,27.88-29.87,42.53a42.88,42.88,0,0,0-2.13,9.23c-18.72,2-35.17,5.92-49.55,11.76a31.58,31.58,0,0,0-16.45-18,91,91,0,0,1-3.92-20.57c-1-12.74,1.1-22.65,6-29.46,9.63-13.35,29.66-14.66,44.25-10.19,1,.28,2.13.62,3.16,1,4.34,1.44,9.23,3,14.66,3.23h1c6,0,11.49-1.65,16.31-3.23,1.3-.35,2.68-.76,4-1.17,9.15-2.55,20.51-2.62,29.45,1.37A151.26,151.26,0,0,0,1213.18,1091.9Zm-149.54,40.19a30.77,30.77,0,0,0-4.82-5,43.21,43.21,0,0,0-6.2-4.33,1210.19,1210.19,0,0,1,73.44-113.7A431.44,431.44,0,0,1,1063.64,1132.09Zm43.7-127.11a1230.89,1230.89,0,0,0-69,107.43c-1.44-2-2.82-4.2-4.2-6.47-1.1-1.65-2.13-3.37-3.3-5A287.37,287.37,0,0,1,1107.34,1005Zm-76.19,125.19a62.33,62.33,0,0,0,9.43,6,37.74,37.74,0,0,1,6.88,4.26c6.54,5.51,8.54,16.38,6.4,34.14-.55,4.13-1.24,9.84,1.17,15.34,4.2,9.57,13.91,12.19,20.92,14.11,1.79.48,3.45,1,4.89,1.45,8.19,2.82,15.21,10.73,18.24,20.71,2.75,8.95,2.75,19.69-.07,32-1.79,8.06-4.2,13.63-7.5,17.69-5.85,7.16-16.11,11-25.12,14.38-1.93.69-3.85,1.38-5.78,2.14v-3.44c.2-3.93.82-8,1.44-12.25,1.24-7.78,2.48-15.83,1.1-24.43s-5.36-16-8.94-22.1c-17.69-30-43.7-47.83-69.65-47.83h-.76a59,59,0,0,0-9.56.9c-2.2-2.34-4.54-4.61-6.88-7-8.54-8.19-17.42-16.38-26.36-24.23-8.54-7.5-17.76-15.28-28.77-20.09-9.56-4.2-20.23-6.27-32.83-6.27-1,0-2.06,0-3.09.07a86.82,86.82,0,0,0,3.51-14.24,42.83,42.83,0,0,0,.62-8.12c.75-.83,1.37-1.52,2.06-2.27,10.39-10.26,24.22-14.25,34.07-15.83,13.69-2.21,27.94-1.17,41.29.2,20,2.14,44.39,6.68,56.91,23.13a64.83,64.83,0,0,1,4.41,6.67C1022.27,1120.19,1025.78,1125.76,1031.15,1130.17Zm-126,17.82c8.74,3.86,16.45,10.33,24.23,17.21,8.81,7.71,17.41,15.69,25.8,23.81,6.41,6.06,12,11.77,15.35,18.44a8.73,8.73,0,0,1,1.17,3.38c-.07.55-.82,2.13-3.44,4.33a31.54,31.54,0,0,1-19.68,6.75,28.79,28.79,0,0,1-9-1.38,74.48,74.48,0,0,1-7.43-2.89c-7.23-3.1-15.42-6.68-24.84-4.75a34.68,34.68,0,0,0-13.77,6.68,150.8,150.8,0,0,0-13.07,10.8c-9.09,8-17.62,15.49-27.6,16.86-4.75.62-10-.2-15.55-1-6.27-1-12.74-1.93-19.62-1.17-16.52,1.86-29.11,12.87-40.19,22.57l-2.2,1.93c-9.09,7.85-20.92,16.72-32.42,14.93-2.34-.34-3.23-1-3.51-1.24-1.79-1.65-1.51-7.77-1.44-10,.55-12.32,1.31-24.3,4.06-35.65,5.78-24.3,21.33-46.87,43.7-63.39,20-14.79,45.56-24.91,74.05-29.24C879.13,1141.94,893.58,1142.9,905.14,1148Zm54.37,151.82c-6.88-10.39-17.07-16.52-26.91-22.43-8.53-5.1-16.52-9.91-21.26-16.93-2.62-3.93-4.55-9-6.06-16.25a64.51,64.51,0,0,1-1.51-10.46h.06c2-1.44,4.55-3.16,7-3.64,4-.83,8.87,1.23,14.45,3.64,2.89,1.24,5.85,2.55,9,3.58a47.63,47.63,0,0,0,22.16,1.52,43,43,0,0,1,2,6.46c.41,1.86.69,3.79,1,5.85,1.24,8.06,2.69,17.21,9.84,24.09a38.18,38.18,0,0,0,6.89,5.09,36.19,36.19,0,0,1,3.44,2.34c3.16,2.48,5.23,7,6.88,11.15,6.19,15.28,8.33,29.39,6.26,42-2.27,14-10.46,26.29-21.19,31.94a13.94,13.94,0,0,1-1.93.89,14.27,14.27,0,0,1-.9-3.92,163.17,163.17,0,0,1-.48-19.41C968.46,1329.89,968.8,1313.85,959.51,1299.81ZM767,1331.61c-.9-3.72-1.72-7.3-2.41-10.88a71.38,71.38,0,0,1-1.44-15,86.56,86.56,0,0,0,2.89-8.53c.62-.28,1.23-.62,1.85-1,.28,7.64.83,15.14,1.52,22.51,1,10.46,2.54,21.47,8.26,30.9,7.43,12.32,21,18.51,33,15.07a27.15,27.15,0,0,0,9.15-4.54,47.51,47.51,0,0,0,14,8.67c12.59,5.37,25.46,7,37.16,4.61,10.73-2.07,21-7.78,29.66-16.11.14,1.11.21,2.07.28,3.1.41,13.42-6.47,27.87-18.52,38.61-8.87,7.91-22,14.25-35.1,14.25a34.77,34.77,0,0,1-16.79-4.06c-1.79-1-3.58-2.14-5.5-3.38-5.58-3.58-11.91-7.64-19.89-8.12a40.51,40.51,0,0,0-9.84.69,28.35,28.35,0,0,1-5.92.55c-6.4-.48-11.36-8.46-13.15-11.9a38.86,38.86,0,0,1-4.47-12.25,59,59,0,0,1-.35-9.92c0-2.13.07-4.33,0-6.6C771.08,1349,769,1340.21,767,1331.61Zm98.41-8.95a10.46,10.46,0,0,1-3.44,1.79,32,32,0,0,1-11.35,2.06,34.13,34.13,0,0,1-4.68-.34c1.72-1.24,3.51-2.55,5.43-3.79a88.6,88.6,0,0,0,8.33-6,50.26,50.26,0,0,0,5.16-5,41.08,41.08,0,0,1,5.23,2.69C868.87,1317.64,867.5,1321,865.43,1322.66Zm11,13.76A30.31,30.31,0,0,0,884.7,1325a14.21,14.21,0,0,0,2.07,1.51,54.43,54.43,0,0,0,11.35,6.2c-.14.27-.34.48-.48.75-7.71,12.25-18.72,20.58-30.14,22.78-10.39,2.07-20.37-.75-26.84-3.51a30.85,30.85,0,0,1-9.64-6c1-1.72,2-3.37,2.89-5l.21-.41a50.15,50.15,0,0,0,34.13-.41A33.88,33.88,0,0,0,876.44,1336.42Zm-27.87-33.51c-2.06,1.65-4.4,3.23-7,4.88-4.2,2.83-8.6,5.72-12.46,9.91-4.4,4.61-7.5,10-10.53,15.35-4.06,7.16-7.63,13.35-12.73,14.8-4.88,1.37-10.46-2.69-13.21-7.23-3.85-6.4-4.89-14.8-5.78-23.54a266.94,266.94,0,0,1-1.45-33.17c.42-.41.9-.82,1.31-1.17l2.27-2c9.64-8.33,19.48-17.07,30.56-18.24,4.61-.55,9.7.21,15.07,1,6.54,1,13.28,2,20.51,1.1a46.24,46.24,0,0,0,9.5-2.41c.06.9.06,1.79.06,2.62C864.68,1280.13,858.41,1294.72,848.57,1302.91Zm48.24,9.22c-2.27-1.51-4.47-3.3-6.81-5.09-4.68-3.72-9.43-7.44-15.07-10.26a73.17,73.17,0,0,0,7.36-31.79,85.7,85.7,0,0,0-.82-12.53c2.2-1.72,4.33-3.51,6.47-5.37.07.28.07.55.13.76,1.31,5.92,3.58,14.73,8.68,22.37,6.88,10.25,17.06,16.38,26.84,22.23,2.47,1.51,4.95,3,7.29,4.54a71.35,71.35,0,0,1-7,12.11c-2.2,3.1-4.82,6.47-8,7.92a10,10,0,0,1-4.34.89C905.56,1317.91,899,1313.71,896.81,1312.13Zm-202.88,7.71c.83-1.86,1.79-3.79,2.89-5.85,2.62-5,5.65-10.88,6.81-17.48,1-5.44.56-10.74.21-15.42-.14-1.93-.27-3.71-.27-5.44-.35-15.89,6.88-32.62,19.89-45.76a33.86,33.86,0,0,1,3.3-3,53.48,53.48,0,0,0-1.86,6.54c-3.1,12.87-3.92,25.81-4.47,39-.28,5.37-.76,16.59,7.09,23.74,3.16,3,7.5,4.82,12.73,5.65a35.75,35.75,0,0,0,5.3.41,23.57,23.57,0,0,1-2.07,3.44c-2.13,3-5.16,5.57-8.32,8.33a73,73,0,0,0-9.64,9.5c-7.78,9.49-10.67,21.12-13.49,32.34-2.27,8.88-4.33,16.86-8.4,22.78C689.73,1363.13,685.33,1338.83,693.93,1319.84Zm186.51,140.74c-5.65,8.12-11.84,16.44-20,21.81a29.76,29.76,0,0,1-15.9,5.16,19,19,0,0,1-7.22-1.37c-1.38-.62-3-1.52-4.55-2.41-3.44-2-7.22-4.2-12-5.09-7.16-1.31-13.49.68-19.13,2.4-.9.35-1.86.55-2.82.83-23.27,6.88-51.41-1-69.93-19.48-15.27-15.27-24.5-37.43-25.6-60.83l.41.34,5.44-4.06c12.73-9.43,16.59-24.43,19.89-37.71,2.55-9.85,4.89-19.07,10.19-25.67a64,64,0,0,1,7.57-7.3,7.21,7.21,0,0,1,1.1-1c.69,3.16,1.37,6.33,2.13,9.36,1.86,8.12,3.58,15.76,3.86,23.33.06,1.86,0,3.71,0,5.71a73.86,73.86,0,0,0,.55,12.8,56.31,56.31,0,0,0,6.33,18c6.88,12.73,16.51,20.24,27.18,21.13.9.07,1.79.07,2.69.07,1.44,9.77,5,18,10.59,24.22,8.81,9.91,21.34,13.49,31.25,15.56,9.7,2,24.09,3.92,36.75-2.82a60,60,0,0,0,7.36-4.82,52.83,52.83,0,0,1,6.4-3.92,51.11,51.11,0,0,0,3.79,6A102.86,102.86,0,0,1,880.44,1460.58Zm23.95-29.32c-1.52-.41-3.24-1-5-1.65-4.33-1.59-9.7-3.58-15.83-3-7.09.75-12.39,4.47-17.06,7.84-2,1.31-3.79,2.62-5.51,3.58-6,3.1-13.7,3.51-25,1.17-10.81-2.27-17.55-5.37-21.75-10.12-3.17-3.44-5-8-5.92-12.66a59.85,59.85,0,0,1,7.16,4.2c2.13,1.31,4.33,2.75,6.74,4.06,21.34,11.36,50.79,6.19,71.85-12.59,15.83-14.18,24.91-33.66,24.36-52.24a69.24,69.24,0,0,0-4.06-20.23c.9-1.58,1.72-3.17,2.41-4.68a27.29,27.29,0,0,0,6.4-2c7-3.23,11.7-9.08,15.07-13.76,1.38-2,2.62-3.92,3.79-5.92a19.28,19.28,0,0,1,7,5.78c2,7.78,1.86,16.72,1.72,26a184.48,184.48,0,0,0,.35,19.48,27.94,27.94,0,0,1-3.31,7,42.14,42.14,0,0,1-3,4.06c-2.68,3.44-5.85,7.37-7.5,12.6a40.85,40.85,0,0,0-1.65,10.11,20.6,20.6,0,0,1-.14,2.14c-.75,9.49-4.54,18.16-10.39,24a24.15,24.15,0,0,1-16.65,7.29A15.23,15.23,0,0,1,904.39,1431.26Zm126.56-58c-2.14,1.93-4.41,3.72-6.75,5.71-5.85,4.75-11.9,9.64-16.51,16.52-6,8.88-8.06,18.79-10,28.42-1.66,7.57-3.1,14.73-6.4,20.65-5.17,9-15.49,15.76-27.53,17.83a59.53,59.53,0,0,1-9.36.75,81,81,0,0,1-27-5.16,76.57,76.57,0,0,1-17.27-8.74,42.09,42.09,0,0,0,27.32-12.39c8.67-8.67,14.31-21.33,15.48-34.89.07-.83.14-1.65.21-2.55a27.84,27.84,0,0,1,.76-5.85c.75-2.2,2.54-4.47,4.61-7.08.62-.83,1.24-1.59,1.92-2.41a17.17,17.17,0,0,0,3,1.44c7.3,2.55,14-1,16.18-2.13,15.83-8.33,27.18-25,30.41-44.67,2.55-15.89.07-33.17-7.36-51.47-2.48-6.2-5.85-13.08-12-18.17-1.86-1.45-3.72-2.62-5.3-3.65a19.62,19.62,0,0,1-4-2.75c-2.9-2.82-3.79-8.33-4.68-14.18a61.44,61.44,0,0,0-1.17-6.74,52.87,52.87,0,0,0-2.55-8.68,54.73,54.73,0,0,0,6.26-4.26c7.78-6.33,9.71-12.73,9.91-17.07a22.93,22.93,0,0,0-2.82-11.77c19.13.9,38.68,15.28,52.72,39.09,2.82,4.75,5.78,10.33,6.74,16.11s-.07,12.11-1.1,18.85a134.06,134.06,0,0,0-1.65,14.32,65.33,65.33,0,0,0,5.57,28.7c.48,1,.9,2.06,1.45,3.09a31.27,31.27,0,0,1,2.68,7,9.29,9.29,0,0,1,.14,2,36.45,36.45,0,0,1-.48,4.95A70.18,70.18,0,0,1,1031,1373.24Zm6.81,17.21c1.72-1.38,3.37-2.82,5-4.27.55-.55,1-1,1.59-1.51a1157.34,1157.34,0,0,1,70.74,141.42A413.21,413.21,0,0,1,1037.76,1390.45Zm90.5,121.67a1154.81,1154.81,0,0,0-72-141.77c1-1.37,1.79-2.75,2.69-4.2A274.17,274.17,0,0,1,1128.26,1512.12ZM1164.05,1391c-6.54,6.12-15.9,9.29-25.67,9.29a46.25,46.25,0,0,1-22.92-6.06c-10.26-6-18.79-15.83-24.71-28.15a28,28,0,0,0,17.83-4.54,27.37,27.37,0,0,0,8.87-10.11,48.85,48.85,0,0,0,4-10.81c.34-1.31.61-2.61,1-3.85a33.93,33.93,0,0,0,7.16,3.78,85.84,85.84,0,0,0,18.72,20.3,81,81,0,0,0,8.94,6.06,98.75,98.75,0,0,0,8.81,21.89C1165.42,1389.55,1164.73,1390.24,1164.05,1391Zm-5-44a75.07,75.07,0,0,1-7.71-7.09,24.12,24.12,0,0,0,11.43-12.25,44.16,44.16,0,0,0,15.55-6.74,54,54,0,0,0,11.91-1.45c.13.07.13.14.2.21,2,2.68,4.48,6,8.4,8.4,6.68,4,13.83,3.23,19.48,2.61a44,44,0,0,1,6.33-.41c3.3.2,6.67,2.34,8.94,5.71s3,7.36,1.93,10.53c-3.1,9.08-16,12.53-19.89,13.35A69.38,69.38,0,0,1,1159,1347Zm110.73,41.36c-3,6.89-9.29,15-17.06,15.35h-.49c-2.89,0-6.26-1-9.84-2.06a55.23,55.23,0,0,0-12.93-2.83c-5.58-.34-10.74.69-15.35,1.66-4.27.89-8.4,1.72-11.77,1.17-5.64-.9-11.36-5.85-17-14.73a97.89,97.89,0,0,1-6.06-11,85.29,85.29,0,0,0,40,1c11.7-2.48,21-7.64,27-14.66a40.7,40.7,0,0,0,7,2.75,42.88,42.88,0,0,0,20.92.76A53.74,53.74,0,0,1,1269.75,1388.38Zm30.42-71.85-.89,2.27c-3.79,9.57-9.16,19.55-11.49,21.48a41.57,41.57,0,0,1-17.83,8.53c12-10,19.61-24,26-35.65,4.95-9.15,11.08-20.44,11.15-33.24a33.47,33.47,0,0,0,15.14-7.16,40.55,40.55,0,0,1,.13,18.17c-1.79,7.85-13.35,18.93-20.16,24.09Zm65.8-48.17c1.17-1.58,2.2-3.24,3.23-5,.27,1,.62,2,.89,3a46.5,46.5,0,0,1-4.54,34.35c-3.65,6.46-9.08,12.31-14.38,18-6,6.47-12.18,13.14-19.2,18-6.54,4.54-15.28,7.85-23.81,7.85a16.52,16.52,0,0,1-1.86-.07,134.1,134.1,0,0,0,8.32-16.86c5.85-4.68,21.61-18.38,24.85-32.69a56.31,56.31,0,0,0,1.31-8.95,1.7,1.7,0,0,0,.82-.14C1350.69,1284.12,1358.88,1278.27,1366,1268.36Zm-2.9-151.34c30.08-13.14,61-22.64,93.46-24.22.83-.07,1.72-.07,2.62-.14-24.43,13.35-54.65,23.61-92.57,31.59l-3.92.83A51.84,51.84,0,0,0,1363.07,1117Zm-7.5,27.39c2-.34,4-.82,5.92-1.17l8.67-1.85c33.93-7.16,62.15-16.11,85.82-27.39a136,136,0,0,1-23.4,15c-22,11-48.17,17.13-78,18.17a3.33,3.33,0,0,1-.83.07C1354.4,1146.27,1355,1145.38,1355.57,1144.41Zm-3.92,113.76c-2.75,4-7.23,8.81-12.39,10.19a64.1,64.1,0,0,0-4.54-12.8c3.37-8.33,4.68-18.17,3.92-30-1.92-31.45-16.65-60-39.29-76.39a90.91,90.91,0,0,0-16.18-9.22c27.53,4.2,51.76,18.1,66,38.33C1366.38,1202.57,1367.41,1236.15,1351.65,1258.17Zm67.1-222.08c-19.89,14.8-43.91,24.64-67.1,34.2-1.17.49-2.34,1-3.58,1.45,4.34-3,8.67-5.78,13-8.53,8.26-5.1,16.52-10,24.5-14.73,21.06-12.46,41.36-24.57,60-40.06A114.31,114.31,0,0,1,1418.75,1036.09Zm6.75-34.27c-15.35,11.63-31.87,21.47-48.87,31.59-8.05,4.74-16.45,9.7-24.84,14.93a420.15,420.15,0,0,0-34.55,24.23,275.61,275.61,0,0,1,95.25-70.75Zm-50.86,0a293.91,293.91,0,0,0-75,64.28c-1.44-.55-2.82-1-4.4-1.45a64.14,64.14,0,0,0-17.14-2.2,79.37,79.37,0,0,0-28.42,5.5c-.69.28-1.38.62-2.07.9-14.38-11.77-35.58-13.15-51.68-8.67-1.52.34-3,.82-4.54,1.3-4.13,1.31-8.06,2.55-11.5,2.41-3-.13-6.26-1.17-9.77-2.34-1.17-.41-2.41-.75-3.58-1.1a71,71,0,0,0-20.71-3.09,63.16,63.16,0,0,0-20.86,3.44,431.64,431.64,0,0,0,21.48-59Zm-290.5,0a303.22,303.22,0,0,0-66.06,85.4c-16.8-13-39.44-17.13-58.43-19.13a239,239,0,0,0-25.67-1.65,133.63,133.63,0,0,0-20.17,1.51c-16,2.55-29.86,8.68-40.32,17.76-6.89-7.36-17.76-11.08-28.5-11.08a39.15,39.15,0,0,0-6.33.41,110.7,110.7,0,0,0-18.51,4.75c-6.47,2-12.53,3.92-18.45,4.34s-12-.48-18.51-1.52c-3-.41-6.19-.89-9.36-1.24a115.74,115.74,0,0,0-56.71,8.61,445.38,445.38,0,0,0-50.37-88.16Zm-439.35,0a426.46,426.46,0,0,1,55.61,93.59c-27.53-30.9-52.17-61.45-75.56-93.59Zm-41.56,0a1221.83,1221.83,0,0,0,81.48,102.4,285.69,285.69,0,0,1-94.56-102.4Zm-32.9,0a294.53,294.53,0,0,0,15.14,26.49,450.54,450.54,0,0,0-41.5-26.49Zm68.13,96.48a71.06,71.06,0,0,0-13.9-4.4c-7.43-4.54-14.73-9.09-22-13.7a81.06,81.06,0,0,0-30.08-19.82c-26.7-18.23-52.71-37.5-78.87-58.56h12.05A430.52,430.52,0,0,1,638.46,1098.3Z"/></g></g></svg>