<?xml version="1.0" encoding="UTF-8"?>
<svg id="Layer_2" data-name="Layer 2" xmlns="http://www.w3.org/2000/svg" viewBox="0 0 5000 3362.87">
  <g id="_10_Hand_Drawn_Floral_Wedding_Monogram_Frames_Elegant_Botanical_Logo_Set_Minimal_Wedding_Crest_Design" data-name="10 Hand Drawn Floral Wedding Monogram Frames, Elegant Botanical Logo Set, Minimal Wedding Crest Design">
    <g id="Botanical_Olive_Branch_Floral_Monogram_Frame" data-name="Botanical Olive Branch Floral Monogram Frame">
      <path d="M4989.65,577.91c-26.69,6.42-92.48,29.51-115.53,18.23,23.21-48.94,95.43-70.91,102.5-132.37-1.05-79.41-74.11,75.55-103.37,93.49-33.99,25.68,19.28-95.83.07-103.49-44.58,23.77-59.99,95.36-68.72,143.16-1.43,34.28-35.6,50.42-58.53,69.94-32.24,27.61-9.17-28.32-15.93-43.89-.05-25.19-35.63-86.68-38.73-32.49-1.26,40.26-26.71,74.94-44.63,109.66-8.46,11.92-16.68,36.41-31.34,39.35,1.11-69.99,3.83-147.4,13.2-221.12,3.57-24.05,18.66-41.92,35.52-58.4,35.25-36.84,42.7-122.41,2.39-155.84-5.33,1.02-8.14,6.33-10.61,11.85-10.65,34.32-30.14,68.75-34.31,104.75-17.79,165.37-51.73-146.89-40.92-174.41-4.14-89.9-19.81-198.07-116.91-233.13-111.55-56.32,44.78,101.8,63.64,128.39,24.78,30.49,33.02,69.27,32.72,109.77-.77,45.08,11.3,124.98-26.42,27.87-28.14-46.51-97.74-90.84-147.9-68.18,16.11,40.11,68.97,69.23,104.53,94.8,110.92,66.91,92.49,219.37,111.96,330.6-2.87,81.62-15.22,104.37-42.89,9.79-17.88-47.39-174.73-200.03-99.84-55.21,24.07,64.53,115.56,80.86,119.93,154.64,8.33,20.76-55.42,236.81-75.96,204.83-28.64-81.86,50.07-168.78,9.84-246.36-37.98-47.79-25.52,78.38-20.51,100.39.28,14.46-6.41,57.47-17.06,41.99-13.78-45.28-32.92-90.8-62.86-129.38-10.66-17.99-45.54-51.33-34.01-7.48,12.22,43.13,9.97,94.25,41.46,130.3,59.96,43.56,76.16,119.16,56.97,187.49-22.22,61.02-60.88,116.99-83.42,178.24-11.68,78.89-67.19,137.73-116.98,194.69-9.33,10.53-88.02,106.07-82.97,65.69,55.98-121.01,39.84-279.63,162.69-358.15,26.14-30.3,54.87-95.15,25.7-127.98-38.02,21.13-66.95,69.5-82.2,109.62-6.27,20.99-5.63,58.33-27.81,66.88-9.61-64.04-30.6-156.46,30.93-205.96,46.23-41.2,47.62-130.13.5-165.61-8.27,1.87-12.21,13.44-15.46,21.29-20.86,46.99-40.41,94.34-31.23,146.55-3.47,88.88-76.08-84.11-73.41-101.32,6.24-48.71-20.93-90.25-48.97-127.26-19.96-31.87-25.49.1-22.18,18.8,1.71,57.87-3.14,132.87,59.8,161.22,41.95,63.37,67.84,135.55,71.24,213.44,15.36,98.6-41.32,11.85-56.85-23.82-33.36-96.8-201.46-228.51-87.75-20.36,34.52,42.73,98.81,51.22,124.35,104.87,35.65,86.45-17.13,185.22-48.63,266.02-25.06-72.19,33.31-165.28-6.38-239.42-51.64-86.4-41.79,3.34-36.66,47.23,6.96,39.65,32.91,73.41,22.33,113.4-1.88,78.66-31.38-19.62-57.68-35.63-61.55-54.87-147.14-105.24-62.15,16.76,22.8,40.88,77.4,55.11,103.28,88.39,51.33,124.42-213.82,327.75-299.3,403.85-14.72,10.02-16.26,1.06-11.49-15.86,6.41-36.83,15.69-55.09,53.31-66.15,36.88-24.37,72.68-56.45,87.19-96.83,4.48-23.08-16.01-5.12-22.01,3.49-14.62,16.9-37.49,26.36-56.82,41.33-49.02,45.84-44.43-11.89-35.36-44.4,9.85-21.76,37.54-27.68,55.49-41.66,42.37-10.55,63.07-178.96,9.53-91.9-9.8,11.67-60.09,89.6-66.38,53.69.74-30.63,1.82-65.1,19.53-91.49,22.81-33.97,32.35-73.52,22.88-113.86-3.27-17.09-16.72-78.6-39.34-48.82-15.39,43.45-33.37,91.71-27.09,138.27,9.36,45.25,11.26,104.7-5.56,147.24-16.93-15.76-2.94-49.38-16.95-69.35-6.65-13.94-69.41-90.79-73.87-50.77,12.22,61.34,46.81,107.73,88.73,149.61,13.46,14.87,5.38,146.96-23.22,76.43-12.01-73.27-195.47-207.7-105.32-42.57,29.66,42.71,98.03,50.71,117.22,102.43,10.08,43.73-9.54,91.42-34.19,127.35-11.16,13.27-29.49,45.85-36.38,27.27-1.57-32.22-14.81-132.21-47.24-138.18-33.92,240.97,127.54,109.82-153.49,287.45-15.22,3.44-157.74,116.38-141.84,76.71,26.54-94.9,117.86-153.37,155.28-240.21,9.76-33.1,26.74-63.46,47.1-91.56,23.38-40.22,26.66-96.89,20.16-141.02-36.37,6.89-78.44,128.03-78.08,166.05-1.4,9.37-1.47,40.94-15.6,32.47-14.55-45.49-24.94-95.99-46.33-140.39-13-39.15-14.02-85.18-9.56-127.23,24.5-54.04,44.29-114.05-.54-165.89-14.49-16.95-16.51,5.96-15.49,17.18,2.65,31.92-10.09,62.63-10.6,94.05,5.67,35.94,10.27,71.97,5.22,108.76-.98,57.12-71.38-80.27-106.18-77.39-19.9-2.67-47.22-25.93-64.34-17.44,2.85,30.38,28.56,61.87,45.14,86.59,21.02,23.96,58.62,22.17,82.49,41.66,61.8,62.18,115.44,153.67,93.43,243.59-14.33,29.17-38.82,69.14-68.91,81.61-6.22-2.08-6.11-10.93-5.29-17.89,7.04-44.63,5.52-97.96-21.3-135.65-8.45-6.54-13.76,7.94-15.86,14.4-9.16,34.48-19.26,70-14.56,105.43,2.51,25.84,21.96,47.68,19.77,73.52-49.37,210.73-269.35,317.91-414.97,459.28-40.28,32.02-8.14-34.2-.03-53.02,20.83-42.49,16.35-101.83,53.33-133.21,65.94-30.92,144.98-39.49,158.4-129.14,26.74-110.93-129.57,56.44-141.26,79.78-12.89,18.97-19.52,13.47-16.75-5.17-1.85-63.83,49.93-101.22,64.06-158.75,7-26.42,19.62-184.8-30.43-102.25-104.96,91.37-16.78,185.73-74.43,277.91-27.76-22.3-51.16-63.44-85.78-82.11-87.35-63.27-4.64,116.02,39.47,121.59,35.76,14.11,34,48.61,22.94,83.14-2.75,8.48-7.51,35.02-17.71,24.11-56.02-94.68-249.57-196.07-91.05-3.49,17.35,18.32,38.96,32.12,63.64,36.79,9.8,2.5,21.08,6.19,21.32,17.64-3.87,37.45-27.72,72.02-56.52,93.63-20.13,7.46-142.3,142.66-138.45,88.27,4.92-31.73-9.44-166.32-45.15-163.6-25.62,33.77-39.37,78.74-38.21,121.21-1.29,37.36,37.37,71.2,29.28,106.97-107.46,135.04-222.56,271.82-284.77,436.31-14.57,55.69-74.48,120.73-50.8,176.99l1.89.84c18.7,3.3,33.62-26.15,41.34-44.35,40.83-105.65,89.08-206.14,143.87-304.67,121.68-175.34,320.94-443.66,558.82-415.64,34.83,9.49,44.81,49.74,67.64,75.43,28.85,33.56,82.83,46.43,124.59,35.79,22.84-9.59,5.79-33.61-5.56-46.08-34.78-41.28-93.98-53.12-138.4-73.18-3.7-2.8-3.26-5.67,1.19-8.28,54.4-22.96,114.44-18.83,171.73-13.79,48.66-.45,99.48-8.06,137.24,31.3,47.68,35.12,62.65,104.84,127.05,115.73,27.59.75,9.73-32.9.55-45.91-25.4-45.93-76.92-57.26-116.46-86.54-16.3-10.66-39.25-30.77-3.38-30.81,17.98-2.12,35.2.56,51.35,8.76,47.66,24.73,108.58,19.63,156.8-.33,41.73-20.22,91.9-64,6.14-59.85-126.96-26.28-249.31,71.86-375.69,37.14,24.82-25.45,71.74-31.44,102.53-49.59,55.29-20.22,101.03-57.09,152.32-83.52,83.8-7.38,140.34-5.58,175.71-96.15,30.13-66.73-133.44,14.81-151.02,25.64-21.97,13.85-33.16,38.38-54.09,53.44-25.3,11.93-224.93,153.89-152.61,50.61,41.15-37,88.6-77.6,91.5-137.9.55-12.78,5.24-42.62-12.75-42.88-129.18,79.64-53.33,231.51-209.61,260.9-59.89,21.34-22.74-16.29-10.1-40.82,27.88-33.13,65.98-63.08,72.06-110.18.11-15.93,21.71-49.32,9.47-56.63-46.72,28.04-88.51,77.6-91.21,133.91-17.71,66.68-78.66,114.51-148.18,114.04-22.43.74-71.92,16.48-83.84-1.26,114.04-107.05,234.5-214.34,359.46-311.49,41.85-36.56,98.03-49.18,151.69-51.07,47.18,2.13,79.3,48.83,120.47,64.38,16.48,5.96,106.94,14.05,69.34-18.8-28.29-23.17-65.21-40.02-103.46-43.46-94.56-40.72,188-14.22,227.79-84.79,74.34-61.74-122.78-22.6-143.84-14.89-55.49,52.4-126.61,70.29-202.51,74.72-16.35-.17-3.21-9.84,2.55-13.82,122.2-110.3,294.66-170,444.91-77.92,178.53,100.09,119.28,205.79,233.01,270.37,27.48,8.13,14.42-27.3,8.63-41.57-16.96-57.33-68.61-92.9-99-141.98-6.57-39.12,164.9-16.43,194.51-37.22,28.24,1.54,85.27-121.98,33.61-88.54-133.47,95.52-227.56,128.49-365.86,20.34-16.06-15.73-133.9-36.28-63.02-50.81,60.09-21.92,123.31-24.53,185.55-10.92,66.94,37.23,165.96,49.63,215.99-19.7-23.92-22.26-84.45-19.98-119.2-24.03-48.55,1.08-97.24,31.6-147.48,20.41-61.33-5.01,39.51-44.13,53.38-59.71,74.34-52.74,152.86-105.84,243.38-125.93,68.29-20.3,150.74,15.47,215.31-26.64,27.83-18.07,26.81-40.96-7.86-38.19-32.09.91-64.64-8.78-95.49-3.22-41,7.75-77.42,37.53-114.66,48.6-49.43,6.92,15.76-74.93,32.36-84.97,22.91-27.25,59.83-79.4,36.28-112.62-29.74,23.53-70.55,62.22-90.16,97.3-11.77,85.15-22.77,118.73-109.62,149.95-71.83,45.29-41.67-15.25-29.9-56.52,12.53-32.23,47.39-51.31,59.27-82.83,11.01-27.95,8.61-60.24,13.25-89.23,5.28-50.65-81.59,83.36-86.76,96.29-17.62,34.33-3.39,74.31-15.12,109.63-16.31,43.65-40.59,88.24-78.61,116.99-13.73,13.87-44.27,31.53-28.15-2.77,15.93-33.97,45.78-61.7,50.05-101.04,6.05-19.05,10.02-87.39-20.79-46.38-37.24,41.02-28.98,95.26-49.09,142.47-41.79,96.94-170.32,79.18-256.96,101.58-31.78-4.36,38.11-42,45.34-56.16,161.32-171.86,342.22-323.22,501.83-497.85,34.52-34.31,114.49-56.09,143.67-5.15,18.77,35.99.58,82.57,26.38,115.86,29.22,38.32,49.3,19.55,42.15-27.52-2.41-50.27-56.43-83.05-63.7-129.49,39.02-35.04,122.72-28.41,166.39-1.47,46.21,28.83,125.87,47.58,158.21-9.93,5.35-9.92,11.14-20.7.64-25.63-41.38,2.59-85.4-11.78-128.1-4.13-84.31,2.25-24.49-30.69,10.39-55.87,46.7-39.53,94.99-71.65,154.88-92.17,50.13-15.05,106.49-26.26,132.72-77.92,47.97-78.84-60.98-7.8-84.21,13.36-17.92,16.21-29.5,40.23-51.66,50.44-125.99,63.79,90.07-135.46,100.81-156.89,40.11-47.61,55.47-113.6,24.99-169.99-31.78-53.92-19.53,99.5-24.73,120.64,2.83,14.06-69.62,112.06-64.43,70.37,33.29-79.16,12.78-154.39-39.18-216.81-7.31-6.47-8.42,2.06-9.83,9.18-10.06,62.49,27.37,114.31,35.92,172.24-9.83,60.79-47.23,126.07-89.07,169.48-3.31,1.13-4.76-1.75-4.46-7.8,18.19-73.08,28.96-147.54-15.79-213.26-39.55-60.31-30.6,80.94-14.18,99.08,20.96,35.28,25.23,79.25,16.34,118.46-5.6,43.42-57.25,82.53-92.77,94.86-3.49-4.12,19.25-27.1,22.93-39.69,17.05-15.84,11.12-184.05-22.27-129.27-33.39,227.45-4.15,225.52-246.58,264.15-33.43,3.99-21.16-15.87-2.17-38.37,12.8-18.32,24.63-39.14,37.39-57.75,24.87-40.12,77.36-42.4,115.14-64.74,26.2-17.14,40.87-50.78,46.46-80.35.24-43.05-103.64,47.61-117.46,67.35-7.26,8.81-18.85,20.3-17.35,3.61,53.97-124.92,127-247.56,169.62-376.26,25.07-100.35,112.05-137.29,195.86-72.26,34.65,32.1,100.82,28.24,135.03-.3,1.9-5.32-4.76-7.87-10.21-8.38-30.9-1.08-59.72-13.64-89.08-21.59-32.14-8.06-134.16-8.72-68.86-55.13,70.52-78.97,140.6-10.98,217.72-51.63,14.38-6.56,51.5-52.6,23.22-56.4Z" fill="FRAME_COLOR"/>
      <path d="M2452.95,2931.19c-43.41-64.6-106.4-116.74-146.43-182.48-5.57-44.29,42.12-86.65,28.03-134.75-2.45-19.52-28.41-124.33-54.14-85.57-18.64,47.66-34.12,104.58-27.97,155.75.39,5.63.02,13.27-5.04,14.78-46.63-19.16-79.69-64.04-122.13-93.9-27.44-19.17-89.68-84.29-58.26-116.45,69.13-13.07,120.72-83,137.03-146.73-28.93-20.95-133.52,71.38-146.72,100.6-21.12,44.33-39.33-70.1-24.58-80.19,7.86-11.09,22.01-16.41,33.24-23.8,43.21-23.56,64.36-80.48,67.78-125.22-16.4-18.97-58.25,28.36-75.66,40.21-15.33,10.88-36.36,48.34-47.82,51.05-59.1-95.07,32.87-180.48-74.41-277.98-58.31-96.05-38.04,134.28-9.88,151.89,6.79,10.03,14.9,19.26,21.57,29.35,7.83,4.82,38.71,115.04,13.07,94.16-15.26-25.04-174.71-203.11-149.14-88.96,16.04,92.68,90.21,96.42,158.39,129.18,36.93,31.33,32.58,90.8,53.33,133.23,8.78,21.34,42.29,90.01-5.35,48.77-88.01-69.41-166.57-148.53-255.45-217.43-70.04-58.65-125.44-131.29-151.13-220.79-11.24-29.86,9.06-55.21,15.51-83.89,5.5-20.59-2.42-130.79-29.23-126.39-20.8,29.29-27.41,72.07-24.39,108.17,1.55,15.76,11.94,63.06-16.95,37.89-109.93-86.6-45.36-237.54,39.27-317.74,16.94-13.41,40.31-17.51,60.19-25.73,31.41-13.97,42.71-49.24,60.03-77.06,4.65-8.5,16.89-31.67-2.41-27.97-16.24,5.28-36.91,14.66-54.51,19.93-36.66.25-94.38,116.49-104.82,86.15-7.08-39.2-2.25-78.96,3.86-117.54-.05-28.01-11.23-55.19-10.72-83.52,3.23-96.54-62.01,47.91-40.13,77.06,63.78,107.68-3.67,222.54-31.69,328.8-21.95,11.19-16.01-101.23-38.67-121.12-8.62-14.06-55.21-120.62-57.92-59.51-.76,55.26,5.58,110.06,42.79,152.5,34.02,82.89,79.28,155.72,145.66,220.78,14.94,24.61,24.84,56.49,37.02,81.67,2.46,6.38,2.82,10.38.06,10.96-47.24-21.63-96.5-61.41-141.91-87.69-235.77-159.04-159.03-48.06-146.49-243.95-.94-124.6-60.81,52.23-53.23,86.26-1.11,33.06-24.66-1.55-37.4-18.89-24.68-35.99-44.26-83.6-34.2-127.38,25.61-61.27,115.8-65.65,134.08-133.66,9.36-17.62,14.26-63.99-17.45-46.12-39.19,28-84.23,59.39-99.54,106.66-4.63,10.69-11.23,35.19-24.16,34.02-9.36-13.42-7.06-42.56-10.92-60.5-6.95-38.61,28.47-57.19,49.31-82.45,9.89-10.19,79.69-141.08,24.87-110.35-27.94,23.79-61.15,51.35-60.47,91.38-.24,12.77-1.53,27.98-5.81,33.25-18.59,7.12-17.46-117.08-11.51-131.76,12.49-47.95-6.65-97.4-20.8-143.12-2.26-6.82-6.69-16.77-13.4-17.3-49.82,35.31-37.73,132.12-3.09,177.29,32.87,96.41,21.28,137.92-50.48,31.82-24.37-43.35-34.55-24.91-31.15,9.34-1.81,77.81,59.13,79.82,96.17,124.24,19.08,93.36-11.49,60.89-65.47,24.41-17.83-5.39-32.99-38.48-48.22-35.24,4.21,53.5,67.27,100.4,115.44,119.82,11.45,5.56,15.54,18.05,18.23,29.78,3.88,17.1,13.08,40.92,6.36,43.57-115.13-74.24-215.89-188.04-297.17-299.37-22.99-29.97-28.18-73.97-13.64-108.44,9.75-22.17,39.31-26.65,58.36-42.9,37.19-29.77,71.32-75.4,82.23-119.38-42.75.63-86.79,42.55-115.31,75.26-11.13,8.29-38.22,77.32-39.67,34.23-13.92-46.34,9.16-84.99,20.15-130.16,5.23-44.98,14.8-133.05-36.66-47.24-35.74,73.35,9.89,156.72-2.04,232.41-8.09,33.24-50.32-122.07-53.99-131.5-64.59-211.31,145.02-148.83,164.21-333.42-1.86-45.59-103.67,67.33-112.13,85.93-14.66,35.28-27.8,69.88-55.69,98.14-3.6,3.98-10.41,11.97-14.53,7.19-5.86-61.46,5.31-135.85,32.86-190.92,14.54-21.14,21.84-49.56,37.28-68.63,12.65-12.31,33.79-18.23,42.08-36.59,20.16-39.56,14.59-83.63,17.74-124.66-.1-10.17,3.13-24.97-4.37-32.22-5.22-2.75-14.17,7.23-17.81,13.41-23.42,33.25-52.69,69.85-48.88,113.17,4.2,48.06-31.79,86.79-49.15,128.88-24.74,41.77-26.71-28.12-22.77-45.23,3.14-45.57-23.36-88.73-39.75-129.31-20.58-23.49-34.01,31.55-39.75,47.98-23.99,143.96,117.47,81.85,62.66,316.91-7.07,1.93-12.34-12.44-15.34-17.38-12.13-59.82-38.44-115.61-86.74-156.97-33.63-7.79-16.25,63.68-7.98,84.5,21.09,58.66,87.81,73.88,108.29,134.85,35.38,84.4,42.02,180.16,80.16,264.71,2.03,49.78-135.28-130.61-149.41-144.61-37.66-42.05-41.7-99.85-63.64-149.72-32.48-66.01-81.63-131.56-76.74-207.65-7.23-80.18,57.91-99.46,84.42-161.42,6.25-32.49,52.53-176.31-13.59-85.69-33.92,38.06-45.95,93.27-67.54,133.46-23.56-27.71-5.92-74.76-4.68-107.33-1.57-16.25-2.7-64.32-22.91-46.38-56.9,70.29,47.27,191.01-2.31,259.64-34.27-58.61-91.04-182.78-58.24-248.45,20.32-36.28,63.65-51.02,87.82-83.89,14.66-15.51,77.53-129.9,15.4-85.1-55.69,41.27-96.46,98.7-115.17,164.66-51.3,31.66,6.16-278.49,13.89-304.25,19.71-89.7,146.62-112.74,180.87-188.55-49.92-22.09-120.08,20.92-147.9,68.21-10.02,11.84-12.42,43.22-24.59,47.09-6.12-52.45-6.61-121.33,19.56-168.52,35.09-45.4,77.34-93.09,111.07-137.85,32.4-61.29-121.58,37.59-121.95,69.11-54.1,120.22-8.75,259.15-57.05,381.04-3.96,3.22-8.22-3.62-10.53-14.9-2.42-48.32-21.82-94.68-38.71-139.18-13.99-31.79-31.11,11.89-32.96,28.32-13.32,51.63,4.62,102.65,43.97,136.69,41.63,74.37,14.85,168.43,32.19,247.55-3.66,54.18-91.79-134.61-79.85-147.89-15.87-46.74-48.85,56.77-36.48,78.17,11.45,44.39-47.32-19.75-57.83-24.5-31.44-41.44-19.92-104.13-55.01-147.44-6.07-14.92-37.48-56.03-35.21-16.2-2.47,14.53,32.97,111.56,3.87,86.61-18.31-3.68-106.44-178-103.35-93.5-11.74,47.88,178.41,158.16,65.19,132.28-24.29-5.01-50.4-7.3-70.46-16.02-11.74-5.25-21.26-1.92-16.48,13.92,29.38,84.69,125.23,40.49,187.18,52.6,29.87,12.12,69.56,38.36,85.16,64.73-11.82,27.39-64.74,21.18-91.56,29.85-29.41,7.91-58.11,20.57-89.08,21.6-5.02.9-12.43,2.82-10.22,8.38,28.43,24.24,77.84,28.46,112.2,15.28,25.9-15.36,46.66-35.81,78.2-41.74,121.38-40.07,141.22,116.24,177.06,197.28,2.76,17.16,184.18,347.89,115.71,274.47-17.63-25.36-150.19-135.8-109.97-40.92,18.06,77.54,115.78,61.54,154.12,118.68,12.76,18.62,24.59,39.44,37.39,57.76,12.06,17.45,33.15,36.79,7.87,38.64-77.56-13.16-193.92-11.75-232.95-91.78-2.43-38.73-5.7-76.37-15.87-115.05-6.08-21.6-.6-50.34-13.55-68.73-36.76,4.58-29.36,110.67-16.53,140.39,1.13,10.63,33.98,40.86,18.29,40.04-80.29-35.74-117.96-122.01-76.56-204.01,24.88-24.34,29.21-186.62-15.61-96.79-28.7,48.62-34.89,109.28-16.02,164.4.23,13.05,13.65,39.9,1.98,44.68-40.67-43.56-109.6-144.4-81.1-206.41,13.73-17.8,47.66-148.49,18.13-144.57-10.48,15.57-25.92,40.17-37.5,57.63-29.93,46.43-17.75,110.92-1.69,159.23,3.95,14.49-1.8,14.56-11.73,6.04-21.05-21.48-45.64-47.49-52.7-76.42-3.67-14.08,5.87-177.57-24.72-120.66-73.09,144.19,113.69,230.75,167.44,338.7-40.13,3.93-68.83-35.23-93.3-62.21-23.8-21.09-53.57-37.27-82.14-49.4-26.74-8.64-9.82,24.58-2.08,36.04,18.69,33.51,53.34,57.44,90.32,65.52,96.8,19.25,169.81,83.56,245.77,139.97,32.14,31.03-64.97,17.1-77.27,17.59-27.5,1.86-54.75,10.84-81.62,6.03-6.09-.13-12.14,1.61-12.95,7.98,14.85,75.49,115.26,62.51,164.49,28.62,22.97-24.89,179.28-36.69,164.23,14.48-18.06,39.05-57.25,71.03-61.55,116.5-2.3,23.06-2.75,58.64,21.8,45.99,46.65-25.04,29.67-83.1,42.8-124.88,15.19-50.59,81.5-43.95,119.24-24.93,33.32,17.19,52.39,50.23,79.11,76.04,166.82,161.63,329.61,323.91,497.59,482.88,10,8.62,13.06,15.47-1.15,15.84-86.69-22.52-215.14-4.58-256.96-101.62-21.69-39.99-6.38-88.72-38.7-124.97-47.7-85.45-38.51,35.83-19.7,66.08,118.78,178.22-54.54,27.41-68.19-50.4-11.72-35.34,2.51-75.32-15.11-109.66-3.86-11.79-94.05-148.68-86.75-96.3,2.52,101.29,22.07,96.95,72.52,172.1,29.28,88.7,23.29,85.25-56.22,43.81-58.37-14.69-78.55-74.47-79.65-127.79-12.47-35.5-45.59-61.62-72.07-87.5-19.11-24.3-30.32-26.48-28.8,4.84,2.46,34.04,21.48,63.63,43.33,88.53,17.31,10.49,81.39,91.99,32.35,84.99-92.45-44.53-123.59-61.24-231.76-42.55-7.95,2.77-7.45,10.3-4.42,16.56,32.45,45.77,100.21,40.92,150.63,40.3,92.46-9.13,178.54,34.16,255.38,81.51,43.79,34.54,90.01,62.2,136.39,91.16,20.36,12.5,3.29,17.16-12.16,18.14-50.24,11.23-98.94-19.35-147.48-20.4-36.51-.06-75.38,8.11-110.36,15.56-6.19,1.87-9.46,4.61-8.83,8.48,39.36,55.54,127.79,64.33,185.86,32.41,38.45-21.41,84.9-19.87,127.49-21.63,11.68.55,140.41,23.17,105.7,37.2-78.77,20.03-138.96,85.19-218.39,102.28-82.71,9.42-162.09-45.12-227.99-89.16-8.78-6.68-16.41-9.91-19-5.18-2.06,136.67,149.07,92.45,238.15,115.37,31.6,8.27-24.62,55.79-32.77,69.51-20.51,10.92-106.22,149.45-42.8,127.18,116.1-80.13,42.02-165.84,242.46-277.21,163.81-79.28,304.78-19.83,434.49,90.81,15.19,11.01-5.05,10.98-14.73,9.47-61.36-9.84-129.35-13.2-172.33-62.7-48.12-30.99-122.62-30.47-177-26.61,24.49,83.37,151.38,81.93,223.2,87.65,58.93,2.33,43.4,28.26-3.67,31.64-31.05,3.47-61.24,25.12-84.34,42.98-25.95,28.81,62.44,20.58,73.88,15.02,41.19-15.56,73.19-62.35,120.46-64.39,71.26-.99,135.59,30.9,187.29,79.11,111.89,89.36,220.79,186.7,323.87,283.54-12.31,17.23-60.32,3.24-83.84,1.24-78.09,1.09-146.32-61.54-152.1-139.14-9.82-45.15-48.87-85.3-87.3-108.86-3.84-.66-5.09,2.23-4.11,7.88,13.96,45.64,21.21,102.45,62.95,133.31,20.36,17.16,33.37,42.77,46.07,65.41,1.58,4.03,1.12,6.44-1.82,7.15-14.76.13-44.54-9.22-62.29-15.18-48.51-13.52-78.28-61.83-86.33-111.38-6.53-46.57-31.5-86.76-66.27-116.28-37.73-52.01-45.82-5.96-37.04,33.08,6.1,69.43,82.44,95.85,105.12,153.99,8.27,35.95-146.89-69.6-168.32-81.05-20.94-15.07-32.12-39.6-54.1-53.45-21.53-14-191.48-95.33-147.74-19.4,39.94,92.24,89.09,79.02,172.43,89.94,78.89,49.82,161.44,89.63,248.39,125.59,11.02,6.65,7.15,10.18-4.23,11.68-126.29,21.6-240.32-65.16-365-41.28-84.93-3.69-37.07,38.45,6.14,59.84,63.02,31.85,129.85,10.8,191.57-9.03,91.02-3.19-21.43,52.99-46.2,65.34-25.38,13.1-91.3,70.37-63.68,98.08,104.41-11.47,102.67-169.95,242.54-146.61,65.46.2,133.17-13.48,196.1,11.64,14.83,5.08,5.77,11.4-3.64,15.21-41.4,14.6-91.2,29.45-124.2,63.24-11.87,13.1-34.35,36.66-13.03,49.95,42.28,13.78,100.94-1.1,129.6-37.23,21.18-25.58,31.68-63.61,65.3-72.69,196.04-28.18,346.72,155.13,466.72,285.26,121.82,138.46,174.65,321.07,262.61,475.76l2.28,1.41c85.89,14.71-139.25-380.49-174.83-429.39Z" fill="FRAME_COLOR"/>
    </g>
  </g>
</svg>