<?xml version="1.0" encoding="UTF-8"?>
<svg id="Layer_2" data-name="Layer 2" xmlns="http://www.w3.org/2000/svg" viewBox="0 0 5000 4338.65">
  <g id="_10_Hand_Drawn_Floral_Wedding_Monogram_Frames_Elegant_Botanical_Logo_Set_Minimal_Wedding_Crest_Design" data-name="10 Hand Drawn Floral Wedding Monogram Frames, Elegant Botanical Logo Set, Minimal Wedding Crest Design">
    <g id="Timeless_Floral_Wedding_Crest_Monogram" data-name="Timeless Floral Wedding Crest Monogram">
      <path d="M4760.18,1977.26c85.82-111.93,218.13-216.48,228.15-365.82-.54-28.63,23.92-94.09,3.58-113.75-19.26-9.29-25.67,18.89-36.65,29.48-98.71,84.41-122.4,211.37-163.84,327.72-12.98,58.21-60.25,94.4-100.19,134.62-5.77,5.56-11.32,12.86-21.73,11.06,19.54-29,19.09-231.91-37.89-187.78-6.1,75.07-51.31,134.45-37.35,209.46,6.01,36.11-.67,65.36-22.56,94.95-41.79,61.68-72.84,128.95-117.07,189.62,9.06-90.51,23.44-172.11,23.59-261.69-.26-22.85,6.08-43.72,17.05-63.46,43.4-71.96,75.44-153.55,131.25-216.89,88.74-81.51,130.81-198.37,161.65-311.44-14.54-51.09-76.84,66.86-96.99,78.53-28.89,30.46-61.1,57.79-89.86,88.36-81.29,91.97-11.27,166.54-112.6,259.45-.91-210.2-38.82-419.7-109.92-617.29-27.65-78.78,69.29-172.17,49.32-281.5-9.18-35.91,3.31-138.56-26.02-155.66-6.97,1.21-16.59,10.4-16.23,19.39-15.75,83.06-44.16,163.18-60.95,246.61-68.8-103.43-130.03-212.31-185-323.98-39.07-66.83-120.49-122.92-95.24-209.01,10.16-58.19-53.95-239.96-97.1-275.32-34.39-18.2-22.6,33.61-23.8,52.51-9.48,97.1,51.38,175.32,72.84,266.22-64.5-59.68-121.92-131.74-193.47-186.56-35.26-28.8-64.57-61.64-85.36-102.44-46.1-49.18-90.32-99.85-146.91-137.41-25.23-15.41-99.76-82.96-123.92-52.4-4.58,8.54,0,15.21,5.55,21.32,48.37,47.83,73.62,115.31,124.26,161.01,67.59,64.12,165.06,82.96,227.64,152.87,93.41,99.48,186.4,194.32,280.16,294.27-59.09-28.31-115.52-35.35-167.04-73.41-24.34-15.32-69.06.02-37.71,30.07,29.1,34.24,59.08,68.51,85.3,105.03,32.48,47.67,95.35,47.15,133.75,89.58-104.38-8.73-224.17-14.79-304.8-89.75-84.16-80.99-172.42-157.73-258.1-237.16-68.26-20.98,45.59,153.43,50.25,180.58,25.74,68.19,97.47,94.29,158.04,123.63,52.16,27.28,112.82,21.14,169.83,26.48,39.47,7.81,78.46,19.34,117.87,27.89,52.69-1.21,103.83,2.65,147.81,33.91,67.05,42.69,83.38,135.6,114,204.89,52.68,116.58,79.7,243.41,101.91,368.74-1.93.62-3.87,1.23-5.8,1.85-44.27-56.42-74.73-123.9-137.04-164.2-156.62-116.16-289.87-179.52-87.25,44.87,59.44,93.89,186.4,107.54,231.24,211.36,34.17,145.38,46.71,298.52,27.92,447.28-21.48,211.17-74.73,419.14-131.7,623.45-37.26,101.33-89.58,196.27-150.03,285.51-22.31,34.78-35.2,82.34-78.64,97.89,2.99-64.55-1.35-129.69-2.38-194.41,1.74-59.78-17.66-124.45,11.48-180.04,49.74-95.61,95.19-234.18,39.4-332.76-9.6-2.66-11.37,8.45-14.69,15.33-39.01,68.68-59.5,143.77-78.48,220.02-27.44,74.73-7.09,149.9,2.67,225.3-1.68.76-3.35,1.51-5.03,2.26-61.64-125.78-137.98-253.22-262.51-325.74-20.59-6.38-21.95,18.78-10.54,29.16,20.14,20.37,28.22,47.49,39.95,72.29,60.78,166.07,276.8,201.49,231.29,409.58-14.96,56.17-.9,126.54-41.9,171.5-56.33,55.85-101.01,121.97-153.3,181.1-97.79,71.21-174.43,164.4-272.49,235.04-108.37,63.4-208.51,149.04-326.42,192.74-119.52,38.06-230.61,99.57-354.02,125.9,98.57-157.61,281.72-140.23,338.82-359.06,3.98-13.52-7.13-26.35-21.39-18.54-106.2,59.29-208.08,130.6-262.61,243.22-6.03-64.5,39.47-112.34,38.92-176.25,3.81-47.26-26.44-89.45-13.1-137.59.91-4.39-3.48-12.48-7.65-14.72-26.37-9.55-41.53,92.84-60.1,112.92-33.56,65.35,23.05,141.84,3.87,208.78-33.56,61.11-52.53,150.53-135.11,155.68-171.92,26.46-347.19,39.07-520.66,20.09-360.75-35.63-547.64-59.43-861.05-260.39,214.1-75.37,351.35,71.7,526.29,33.34,58.15-20,110.54-49.75,152.31-95.17,2.04-3.18,2.67-7.6.43-10.65-22.15-10.34-50.53,4.4-74.41,4.94-66.97,6.05-141.23,4.56-204.55-12.41,43.97-26.32,82.27-70.41,136.53-71.52,65.11-5.95,111.89-60.79,166.71-91.45,17.65-7.8,7.91-26.18-6.48-29.37-46.19-1.95-91.58,18.98-135.66,30.97-40.14,10.09-69.53,34.19-95.46,66.5-77.7,71.13-183.84,102.3-286.7,109.46,48.41-41.39,94.16-84.7,111.64-150.51,33.79-84.02-197.55,119.48-211.17,133.03-67.66,40.87-164.28,16.25-231.44-16.54-68.07-48.13-124.16-110.71-187.9-164.38-25.84-19.28-86.5-118.7-116.91-69.94-12.18,30.45,22.45,56.28,38.93,78.12,31.96,30.92,51.95,71.12,90.39,95.29,155.71,109.57,301.08,239.64,476.66,317.9,18.99,7.55,32.89,20.72,42.3,39.64,62.96,125.95,159.72,244.48,315.75,221.08,50.57-14.07-58.89-69.5-72.11-88.99-31.12-26.97-50.78-64.97-84.57-89.61-.86-.63-.51-2.91-1.18-7.49,67.48,14.58,133.13,34.19,200.75,47.43,49.73,5.15,77.01,39.8,107.88,74.43,85,75.34,83.13,160.25,208.37,210.44,44.64,11.96,132.33,82.42,172.93,56.07,12.86-40.02-118.84-154.39-150.73-187.61-66.41-55.82-163.38-44.68-212.1-122.89,190.23,27.16,380.28,10.83,570.29,17.82,78.99,32.36,151.4,78.08,224.29,121.62,57.02,40.82,121.99,15.25,183.74,9.17,16.19,2.22,141.21-38.07,99.66-56.32-44.94-1.89-89.7.39-133.04-17.77-84.92-38.75-191.21,9.6-266.07-54.31,132.32-28.07,254.75-86.91,387.36-112.79,88.4-12.48,175.41,27.08,263.61,31.46,84.2,8.12,170.13,22.82,247.97-22.21,15.03-14.76,234.76-106.74,155.8-117.85-96.64,32.46-206.09,2.14-294.47,59.82-34.68,19.95-77.32,16.15-112.47,36.54-52.29,5.29-106.81-13.23-158-26.53,180.95-87.47,360.78-191.38,506.3-332.94,14.72-12.96,31.26-11.91,40.9,3.7,21.57,36.62,62.05,34.83,98.19,42.86,82.69,21.22,174.78,3.42,231.17-66.48-19.67-12.22-40.83-13.36-62.23-10.89-65.55,10.93-136.5-11.24-196.98-32.51,113.08-32.06,239.81-11.52,344.66-74.79,34.49-23.34,263.99-142.48,101.7-123.67-106.94-14.59-199.07,46.64-289.59,94.35-24.54,7.2-77.75,49.25-98.5,32.26,101.09-124.5,196.75-253.49,289.28-384.6,32.83-51.75,87.83-74.22,136.69-106.42,97.37-55.41,161.58-152.26,240.57-229.43,49.59-34.76,111.12-48.49,157.37-87.17,27.29-22.69,52.43-48.01,78.06-72.65,17.16-15.1,90.03-141.96,21.33-107.04-25.2,22.81-57.13,30.52-88.23,39.03-61.1,16.74-105.57,61.83-152.91,100.9-48.61,35.3-62.31,95.69-95.85,142.32-64.76,77.73-139.52,149.53-224.07,204.99,42.85-98.01,102.81-185.5,127.3-290.29,40.94-171.53,44.35-128.65,189.75-180.81,43.05-21.55,73.06-53.05,82.69-103.28,4.51-51.76,58.48-134.55,30.92-180-16.39-4.95-24.68,16.35-33.29,26.93-30.07,51.91-75.33,87.13-122.13,124.07,25.86-59.31,56.07-114.29,85.96-171.17,35.66-67.85,103.2-109.34,148.59-170.97Z" fill="FRAME_COLOR"/>
      <path d="M1394.42,116.29c-54.93,43.58-117.79,72.84-182.12,100.13-72.62,48.67-165.68,82.77-205.65,166.07-3.94,9.71-12.18,17.8-26.93,15.42,41.26-130.17,89.55-258.43,148.38-381.32,5.41-28.1-31.56-13.6-44.69-6.34-122.31,63.02-170.3,208.75-171.69,338.9,2.1,96.56-76.02,163.44-132.12,233.57-110.59,145.3-214.76,299.59-305.22,458.55-26.48-33.19,4-68.48,11.7-102.22,22.8-62.72,41.84-126.49,47.07-192.98,11.96-63.02,5.69-191.61-54.19-224.23-8.52-.49-10.66,7.57-11.9,15.08-10.79,65.57-34.16,128.28-39.23,195.52-4.01,53.04-10.96,105.47-3.02,158.6,1.04,6.97,4.56,15.06-3.37,25.16-138.35-154.57-48.83-127.28-97.19-300.19-20.66-72.38-38.81-145.51-58.1-218.28-1.9-7.33-3.94-14.28-13.05-14.27-25.59,5.72-11.87,45.73-21.15,65.08-18.86,122.42-32.78,265.42,47.06,368.53,64.88,75.64,150.13,157.74,146.62,265.23-15.77,220.63-109.83,427.6-127.32,648.04-2.2.14-4.4.27-6.6.41-11.77-160.52-88.6-352.06-269.24-372.45-7.15-2.21-19.08,3.66-22.17,8.69-2.07,9.61,7.27,20.44,16.39,25.03,52.11,34.65,62.03,96.85,79.24,152.4,56.29,183.06,140.87,94.18,186.39,270.85,19.39,46.01,1.03,95.65,6.09,143.3,5.69,81.37,13.19,162.62,20.9,243.84,7.05,32.86,36.83,325.61,92.81,262.57,14.74-41.33-1.44-86.21-7.26-128.14-13.25-87.31-28.9-175.49-39.01-262.99,2.1-195.25-35.77-430.99,134.31-569.2,49.62-44,100.1-87.53,137.28-143.32,30.28-41.67,54.97-94.31,106.53-113.53,154.79-45.06,187.49-190.22,241.62-321.48,5.97-27.18-21.39-24.72-31.59-7.18-30.71,35.78-72.29,55.75-111.88,79.21-98.12,82.32-163.03,192.19-211.73,308.4-1.89-.49-3.78-.97-5.67-1.46-4.05-23.54,16.74-271.24-39.56-205.49-27.07,103.45-56.91,205.84-68.62,312.69-13.84,58.33-72.69,88.54-112.37,130,9.62-273.08,132.97-528.66,285.71-750.45,70.94-91.57,123.48-199.38,216.35-272.01,121.21-116.92,289.72-157.34,419.58-260.9,20.79-8.33,151.63-156.19,78.64-142.83Z" fill="FRAME_COLOR"/>
    </g>
  </g>
</svg>