<?xml version="1.0" encoding="UTF-8"?>
<svg id="Layer_2" data-name="Layer 2" xmlns="http://www.w3.org/2000/svg" viewBox="0 0 5000 3146.93">
  <g id="_10_Hand_Drawn_Floral_Wedding_Monogram_Frames_Elegant_Botanical_Logo_Set_Minimal_Wedding_Crest_Design" data-name="10 Hand Drawn Floral Wedding Monogram Frames, Elegant Botanical Logo Set, Minimal Wedding Crest Design">
    <path id="Wildflower_Botanical_Initial_Monogram_Logo" data-name="Wildflower Botanical Initial Monogram Logo" d="M707.88,2455.98c-24.99-22.36-8.93-41.78,17.6-23.87,25.74,18.99,56.72,27.6,85.63,39.77,17.42,4.11,36.83-4.55,51.83-12.14-3.28-5.22-10-3.07-15.23-3.35-12.85.98-72.47-9.25-56.37-28.26,17.37-14.05,36.66-25.86,60.14-25.32,7.34-5.7-15.24-22.4-21.34-16.91-32.7,18.73-116.44,20.14-144.7-5.93-15.87-24.72,50.1-35.06,63.1-50.25-48.61-25.91-102.65-29.53-156.69-30.14-13.45-.45-36.72,12.22-37.37-10.19.67-49.9,71.16-42.23,106.17-59.36-45.2-17.47-96.43-5.46-140.62-27.12-7.89-4.82-7.47-11.58-1.4-18.75,27.57-36.62,69.88-18.22,106.1-16.46-19.19-29.77-197.69,10.85-163.51-42.34,3.63-5.02,24.35-15.77,10.19-19.58-19.23-2.58-203.74-3.74-170.18-42.27,10.18-22.98,70.49-30.5,45.83-55.45-21.9-21.87-48.81-35.26-79.22-37.86-21.83-2.93-124.97-11.85-85.27-47.37,40.45-15.29,30.79-15.24-.45-34.81-20.1-6.18-49.67-3.71-58.68-27.18,6.44-15.58,35.59,5.1,29.28-17.92-26.92-83.39,55.99,6.51,80.06,22.94,1.86-32.11-36.44-113.13,29.12-73.5,47.56,39.72,21.34,115.69,71.11,155.7,2.95,2.76,5.09,2.12,6.02-1.59.02-157.27,88.56-86.79,66.96,6.41-5.56,16.32.61,33.19,5.46,48.69,1.78,23.7,29.06,21.32,39.09,39.76,2.81,4.6,27.89,23.46,25.14,8.58-8.41-23.13-33.56-46.38-14.58-71.03,2.65-3.4,1.8-6.37-1.54-8.78-8.6-11.35-53.28-23.63-26.69-37.34,12.9-9.72,28.45-9.57,43.23-13.6-6.56-7.71-16.56-7.98-25.76-10.08-18.56-3.69-28.33-18.64-39.86-31.2-7.63-14.01,20.51-19.61,29.69-21.86-15.25-18.56-40.36-32.76-64.71-31.46-20.41-.36-97.1-17.44-77.22-46.53,5.56-5.99,3.24-9.3-1.47-12.19-14.35-8.81-21.53-22.81-29.45-36.81-31.19-66.24-99.85-17.47-150.45-89.79-8.65-12.48-7.65-16.2,3.55-27.25,24.71-23.77,53.93-3.62,83.26,1.81-29.42-26.09-55.23-55.21-88.74-75.92-16.08-8.74-27.75-21.97-31.67-40.81-6.45-30.47,52.69-5.21,69-16.31-1.65-9.04-8.59-14.04-15.95-18.48-26.31-15.84-49.14-36.15-70.49-57.77-11.33-10.72-53.42-71.6-22.37-74.16,21.94-3.44,43.85,7.52,64.61,6.48-25.96-36.84-70.39-58.65-102.67-89.66-10.02-13.53-5.84-25.65,10.14-30.37,23.85-7.52,44.89,11.34,67.48,15.01-11.54-29.4-32.51-57.55-55.6-80.19-10.91-9.52-16.59-21.74-18.29-36.02-4.79-38.03,55.23-11.1,66.82,4.46,17.39,12.14,25.72-25.38,9.09-33.29-15.25-16.39-23.13-38.23-42.34-51.44-12.84-9.36-26.62-35.84-.87-36.99,20.99-4.64,29.38,20.29,48.63,20.08,2.86-11.79-2.26-23.38-7.16-33.78-7.33-13.99-20.69-81.23-6.54-88.76,34.41,12.73,49.02,56.75,54.21,90.93,4.42,8.58-10.12,51.64,7.09,42.68,19.15-20.81,39.33-36.64,41.28,4.7-.67,48-49.29,72.8-69.18,110.73,13.47,8.33,46.11-47.31,51.34-21.93,5.28,43.12-53.39,81.58-40.1,110.13,11.18,20.55,22.01-27.15,53.09-37.77,22.15-11.89,17.95,42.41,16.09,54.97-2.68,40.58-30.24,72.58-42.16,109.84-2.51,20.91,14.07,30.91,25.77,10.46,11.33-12.37,17.96-32.52,37.48-32.12,9.11-.69,14.64,3.44,14.07,12.67-5.73,29.74-23.43,55.87-26.6,86.63-1.88,15.13-11.06,31.24-6.15,46.08,21.83-14.03,28.62-54.34,56.75-58.85,37.66,26.36-57.64,163.54-8.83,203.2,31.54-30.69-2.77-82.39,62.74-55.99,15.15,1.57,15.7.35,15.26-14.86-5.84-29.98,19.13-42.36,10.28-50.69-13.89-15.53-42.39-42.21-19.17-61.37,1.35-.92,1.76-5.24.82-7.1-2.82-5.6-5.36-12.34-10.09-15.79-12.6-6.32-51.08-88.45-14.41-69.17,23.69,15.34,46.16,45.29,75.1,46.2-8.43-23.13-29.03-43.87-41.49-66.1-11.61-13.23-2.66-30.05-9.05-44.48-4.25-25.92,44.38,11.05,56.34,11.2-12.03-31.53-45.37-52.06-70.92-73.24-8.09-7.73-60.11-69.54-35.77-72.48,9.43-4.76,44.82,7.38,35.41-11.55-17.25-31.67,8.25-35.15-28.33-69.19-43.77-59.88-3.77-66.92,44.56-35.86,12.44,7.61,26.05,22.1,40.85,22.23-4.84-40.97-49.97-69.18-83.95-88.09-18.52-6.6-74.38-76.53-33.5-78.02,29.35-4.96,48.66,11.63,70.56,28.39,5.62,3.98,11.56-.09,9.44-6.61-15.64-41.75-61.47-60.72-90.16-92.04-12.67-14.02-16.53-32.67-12.75-51.67,12.6-27.52,59.17,21.21,80.44,23.19,15.4-42.1-40.94-82.45-57.12-120.4-11.45-12.22-27.96-79.21,3.32-68.86,29.17,8.81,44.6,33.6,65.34,53.01,38.15-40.84-74.16-132.8-34.2-136.52,42.44-8.79,53.47,28.15,70.21,26.16-10.38-43.82-52.41-65.16-77.11-100.12-15.63-14.97,7.2-38.4,24.62-28.61,12.42,7.44,22.74,18.69,35.86,25.51-8.94-34.68-30.43-66.66-28.6-103.9,16.72-28.52,30.52,21.29,44.67,28.31,9.39-20.61.81-47.03,13.3-67.94,7.7-17.27,25.87-18.84,36.37-3,20.23,27.62-3.27,60.02-3.04,89.6,9.46.05,15.68-7.62,23.51-11.87,21.33-13.32,30.06,13.14,23.98,29.99-8.68,45.9-71.07,65.88-70.11,114.33,1.51,26.1,31.81-4.45,43.84-8.34,8.67-5.15,55.26-18.87,49.5.63-5.01,41.84-42.09,64.83-69.62,92.72-7.13,7.89-63.96,53.49-30.16,50.85,15.7-2.28,61.92-44.67,62.43-12.13,3.5,83.8-47.34,82.91-79.08,134.05,22.94,4.28,41.72-56.42,60.2-25.39,6.31,10.15,7.38,20.2,1.21,30.86-2.55,55.09-83.27,75.09-69.32,120.44,24.57,91.85,11.77,52.44,62.77,3.76,18.3-15.66-11.23-22.5-19.01-34.11-33.74-48.96,67.88-49.08,85.07-15.58,4.25,5.5,8.45,10.68,15.77,11.44-8.86-40.26-36.53-82.84-22.15-125.12,30.91-19.41,49.11,36.48,62.6,56.27,7.9,9.82,19.53,8.04,15.33-7.82-15.29-48.42-45.68-99.74-36.08-151.25,1.13-5.58,7.68-8.64,13.93-5.49,34.55,8.78,41.03,45.09,55.85,73.34,3.33,6.87,7.1,6.94,11.29,1.04,7.07-9.94,7.03-25.67-1.16-34.6-17.15-25.34-26.9-58.42-24.57-89.28,14.32-117.81,32.28-15.23,75.11,16.21,2.58-45.94-22.86-94.16-8.45-141.42,17.46-33.84,55.31,55.06,50.82,72.14,4.71,33.52,23.05-12.59,17.07-25.39-13.24-62.49-10.39-205.12,50.97-69.5,1.77,7.62,8.8,9.67,11.73,2.33,7.16-25.73-4.48-50.59-3.54-76.39.44-20.46,19.75-21.83,33.16-10.71,17.04,1.29,8.09-34.74-.76-42.64-9.54-11.12-20.85-19.98-34.7-24.78-34-13.25-50.8-49.66-63.93-81.39-1.99-11.19-.56-16.59,9.54-22.83,20.96-10.42,36.95,30.72,59.06,28.49-2.79-37.84-11.77-77.12-4.23-115.43,1.07-16.63,30.01-27.39,36.75-9,32.25,61.87-15.03,137.34,69.76,61.89,61.51-40.17,14.86,111.25-24.56,122.8-13.45,8.01-18.85,22.42-19.79,37.44-.14,8.11,9.64,3.07,12.04-1.66,11.78-13.34,64.58-61.47,74.98-30.49,10.63,22.09,24.37-20.76,19.98-31.11-6.48-31.9-16.1-65.05-2.73-96.44,17.96-40.2,53.42,21.09,45.31,44.46-2.12,6.47.2,24.55,9.56,15.03,1.6-1.54,2.39-4.65,4.12-5.19,19.88-9.38,5.8-37.26,3.53-53.38-2.97-17.38-13.49-66.93,10.61-69.2,7.04-.85,12.32,1.24,15.25,8.22,32.55,43.27-8.48,127.27,52.12,35.01,4.82-35.75-7.71-73.99,10.3-108.17,4.15-6.02,7.56-15.69,16.34-16.01,8.36.31,10.63,7.44,13.26,14,16.89,53.92,30.41,9.67,67.4,4.79,68.82-46.56,25.1,42.19,1.55,63.72-48.98,61.81-2.23,29.64,35.05,41.25,8.8,4.14,11.43,12.9,5.34,20.04-23.55,38.84-77.67,26.41-113.74,12.16-19.33-4.78-28.71,24.95-41.6,35.72-4.18,5.33-2.74,9.45,3.89,12,11.64,5.38,44.48,2.8,34.05,23.5-12.41,27.79-43.29,23.54-68.26,20.06-23.41-7.77-29.16,5.47-6.5,15.25,12.43,4.57,26.92,19.37,9.11,26.98-36.73,10.9-60.14-12.83-83.49-.45-17.7,15.09,13.27,18.99,22.7,24.95,38.53,30.66-81.32,75.66-105.4,75.55-9.55,2.68-21.1,3.96-28.83,10.38-10.77,15.84-29.82,29.07-34.69,47.4,14.58-1.25,30.33-9.85,42.06-19.86,8.59-9.71,21.86-9.05,33.12-12.49,21.97,3.42,4.76,45.43-10.82,50.21-35.03,18.3-78.51,17.67-109.74,42.61-22.84,20.03-27.39,43.61,10.15,25.64,16.24-9.86,32.76,9.34,22.36,24.49-27.31,51.61-68.99,58.71-119.69,77.43-16.12,6.54-29.31,44.01.13,30.4,26.74-5.11,73.15-6.29,46.12,33.13-31.92,38.01-96.04,5.97-106.19,53.23-2.7,7.68.09,11.12,7.99,9.56,17.65-5.33,75.89-17.8,55.5,17.67-104.17,115.42-95.51-20.28-142.34,106.08,34.62-3.76,66.15-25.06,100.13-33.35,52.49,6.03-45.9,81.18-60.57,93.08-16.03,16.65-72.57,2.68-76.08,19.79-.82,6.7,3.74,8.34,9.25,10,14.62,4.39,19.7,11.17,18.76,26.3-.21,41.21-44.42,57.51-62.12,89.47,2.01,7.96,10.79.42,15.52-1.37,22.39-14.17,49.16-17.81,70.7-34.28,18.66-24.12,10.67-58.08,16.31-86.4,1-6.6,3.36-13.99,12.26-14.49,18.24,1.44,15.52,26.42,21.37,39.24,5.07,46.37,35.34-.97,38.33-20.53,2.81-28.66,21.66-44.77,42.65-59.39,70.73-41.88,10.1,36.76,6.45,65.5,17.58,6.36,101.63-33.28,75.89,11.55-21.06,43.16-75.37,36.17-115.25,49.86,16.8,25.01,45.04,9.7,53.92,22.17,5.53,38.58-98.4,31.7-123.09,25.39-15.83-2.72-30.18,8.93-45.14,12.8-25.48,5.22-50.64,11.41-72.68,25.48-6.43,4.27-38.01,30.67-15.64,30.7,18.63-13.29,40.15-21.87,60.63-32.11,63.28-17.04,3.23,49.31-13.59,65.95-24.63,31.05-74.62,37.12-80.93,83.36,3.36,26.32,46-34.71,50.39-4.43,12.34,29.51-8.6,52.35-13.46,80.39-9.3,25.12-39.64,53.38-14.27,79.94,79.51-89.02,2.28-96.94,61.38-187.94,20.34-27.51,47.88,44.03,41.53,61.97,1.22,7.19-5.49,17.61,4.1,21.33,31.86-4.06-7.28-95.45,31.33-123.62,10.38-16.31,42.23-50.19,41.39-9.13,4.38,16.1-6.26,43.15,5.92,54.4,19.54-.42,34.53-22.25,41.11-39.03,12.92-32.67,37.44-56.02,62.06-79.38,10.53-8.04,24.79-8.55,34.38-18.8,5.98-4.39,13.92,1.26,11.2,8.33-4.01,10.89-21.69,65.25,2.44,57.33,10.86-4.76,22.92-11.53,29.78-21.74,11.87-11.05,18.12,8.55,11.93,17.12-12.18,29.42-55.36,30.8-56.03,48.21,9.7,3.52,29.88,1.71,41.54,3.53,8.05.77,10.43,3.43,8.09,11.32-13.96,35.77-55.03,57.73-93.92,56.63-18.94-1.39-37.94-1.11-55.66-9.28-4.19-3.19-7.8-.67-11.73,1.38,12.88,13.97,37.24,13.55,53.61,23.73,36.52,19.08,21.08,44.11-14.84,44.6-37.25.56-74.7,2.99-111.58-2.66-12.92-2.76-27.52,17.62-8.57,20.58,13.99,2.32,28.78-.22,42.63,1.43,31.64,11.11-10.57,49.6-30.04,52.48-6.72,1.33-13.15,4.06-19.8,5.83-19.72,5.01-40.91,2.5-60.94-1.95-12.3-4.53-17.41-1.54-24.51,9.42-17.25,26.34-46.71,97.45,13.12,62.54,18.69-10.27,22.71,22.64,15.85,34.01-9.03,19.82-16.53,40.58-34.52,54.77-4.11,3.2-4.26,8.88-5.7,13.51,17.9-1.35,33.49-9.44,49.85,4.34,50.29,24.52,17.41,86.79,12.77,127.58-1.43,22.39,23.76,2.59,52.67,47.91-2.97-32.5-28.68-56.82-27.95-89.21,7.06-79.38,30.23-30.37,61.96.18,6.16-31.94-13.89-64.13-19.37-95.51-5.04-21.02,21.25-36.66,36.94-23.03,7.75,5.62,12.46,15.25,20.61,20.21,3.17-19.65-14.56-40.41-20.66-59.51-9.43-18.43,6.48-33.73,8.21-52.26,11.88-24.26,39.59,21.97,51.78,29.77,2.79,4.5,12.86,11.86,13.13,2.35-1.44-20.29-18.63-35.99-16.6-56.91,2.52-12.03.82-39.05,19.3-35.65,13.2,2.66,23.4,8.27,27.16,22.85,2.48,9.61,4.66,20.44,16.7,23.77,7.72-7.63,6.59-17.74,7.19-27.16,1.32-30.76,31.52-76.52,57.51-89.43,8.79,8.55,5.92,38.77.13,50.13-7.28,22.86-8.32,48.03-26.79,66.16-4.88,5.43-.33,8.51,4.9,8.78,19.14,6.2,63.46-29.88,61.52,6.85-12.11,29.31-54.5,32.5-71.97,57.01,24.41,8.82,39.09.27,23.31,30.83-9.39,20.1-24.46,36.07-47,42.45-25.79,8.16-54.41,13.16-79.3,22.27-5.28,7.09-9.08,15.28-13.46,23.04,20.08,9.03,90.21-44.43,88.35.66-7.68,63.36-81.07,42.16-114.21,70.7,25.22,6.41,51.43-13.04,77.05-3.43,28.97,7.62.9,38.39-15.73,43.83-26.88,15.46-79.77,16.36-85.63,52.06,16.15,3.13,74.16-42.2,66.76-5.71-10.38,34.51-45.53,49.27-63.72,77.99,55.77-20.48,19.58,65.56,15.76,91.4-8.41,12.88,8.09,107.97,22.54,61.84,6.1-19.63,24.47-8.73,31.07,4.32,19.72,31.27,4.72,65.94-4.53,97.96-1.05,3.14-2.05,16,4.07,11.43,37.16-106.75,53.96-54.62,64.51,22.72,6.68,36.86-7.16,88.99,37.04,103.94,1.04.56,5.43-2.04,5.44-3.19,2.07-19.56-8.19-43.17,3.12-60.48,10.1-9.51,23.72-14.53,29.96,1.25,26.65,29.15,29.4,70.01,44.39,105.31,2.27,6.73,5.69,12.27,12.56,15.57,19.15,7.48,10.99,30.89,25.34,42.52,45.95,42.91,103,87.95,164.75,99.48-7.52-21.79-33.61-36.68-44.74-58.61-28.74-33.19-81.05-14.51-96.1-73.79-13.55-27.01,19.14-25.26,36.74-23.23,56.38,18.14,22.48-9.28,7.75-37.12-24.48-17.87-54.89-28.55-81.19-44.1-10.01-5.36-15.9-21.11-11.14-31.23,22.74-18.48,56.86.96,82.62,3.68-28.45-54.92-106.01-56.87-144.13-104.84-15.99-17.73,15.82-15.88,24.86-23.81,21.72-15.11,38.34,10.26,57.91,12.86-2.76-14.63-14.95-26.37-21.39-39.85-30.56-56.04-18.03-137.57,40.7-50.4,27.42,45.39,2.96,80.11,26.83,113.22,9.46,6.71,24.45-48.49,32.29-56.41,5.53-9.69,23.59-15.69,23.32.95.15,4.57-1.12,9.72.55,13.61,13.3,30.93.02,62.04.82,93.02-9.17,26.18-27.18,56.17-5.74,82.26,16.8-10.93,21.22-91.14,46.62-73.43,16.61,9.77,12.14,16.52,13.98,33.62,6.45,36.28-5.85,71.76-13.72,106.61-15.73,20.1-3.42,40.16,1.11,61.62,5.14-16.83,27.75-86.67,45.46-47.5,3.17,34.19,8,68.01,15.79,101.5,2.77,16.49-1.04,31.41,15.59,43.13,8.75-11.13,15.47-103.73,34.03-79.57,21.55,43.76,57.78,79.58,87.42,118.24,23.68,20.85,65.73,17.96,94.06,12.01-29.79-15.99-54.46-41.31-76.49-67.05-10.02-32.65,42.42-34.97,63.8-28.96,36.76,7.37,69.97,21.71,100.57,43.01,11.95,6.04,23.39,19.83,37.47,17.16-1.25-3.4-1.24-7.66-4.71-9.64-31.85-23.27-45.41-57.85-57.95-93.15-36.25-57.39,57.52-4.47,70.78,10.04,13.01,19.77,32.33,34.39,44.25,54.5,10.47,17.65,25.71,18.75,42.7,17.91,5.33-.44,7.56-4.38,3.2-8.56-17.12-19.93-29.47-44.53-36.95-69.24,3.66-19.81-11.24-37.16-7.02-55.88,24.72,7.75,38.08,36.65,58.33,52.54,13.07,12.91,27.39,24.58,35.87,41.44,13.45,11.85,36.16,16.7,54.7,13.44,9.51-2.5,10.58-3.96,4.21-10.79-27.02-25.73-39.11-136.72,20.47-86.06,39.35,23.85,55.02,66.21,79.03,101.55,10.21,6.11,67.63,14.66,55.31-7.92-14.49-9.33-34.43-137.32-4.56-112.98,28.55,37.96,71.14,65.31,88.55,110.82,6.31,17.65,11.93,37.52,33.21,41.24,11.92,4.31,11.61,3.99,14.37-8.08,2.63-19.43,16.68-35.89,15.25-55.8,13.94-44.2,41.2,68.34,48.98,79.25,6.13,28.12-2.6,65.82,21.04,86.39,10.73-50.12,5.24-89.36,51.09-24.49,23.7,28.23,21.27,66.39,39.03,98.16,17.2,18.82,51.7,15.99,75.49,23.46,81.42,19.78,167.9,38.63,236.98,87.94,54.18,30.17,114.92,74.55,178.45,71.62,102.52-43.47,143.95-44.55,201.88-146.79,17.42-17.18,24.63,14.63,22.69,27.99-14.72,53.15,8.25,22.92,41.31,17.92,39.67-14.84,90.12-11.16,122.66-39.79,44.4-41.6,67.45-78.91,59.56-141.61,15.64-124.75,43.46-86.34,56.05,10.66,3.67,7.06-10.1,31.41,5.06,27.5,8.87-6.22,26.59-8.81,23.47-22.76-1.81-18.26-2.63-36.62-4.33-54.9-1.35-20.61,13.59-74.41,36.1-74.99,16.47,6.86,23.97,113.86,38.34,92.66,8.62-33.63,25.37-65.53,32.86-100.46,10.19-21.27,23.95-40.13,30.96-62.91,4.17-5.52,11.78-5.08,16.22.29,32.51,33.38,1.29,74.4,1.86,112.05,20.46-6.28,35.05-27.14,51.59-40.56,10.78-12.74,10.81-33.3,24.59-44.41,14.46-13.22,44.73-49.2,64.6-41.96,33.64,21.3-53.15,83.15-30.08,89.32,65.36-3.18,134.75,16.8,30.08,49.84-36.28,15.63-84.79-22.8-112.23,5.51-2.91,3.08-.97,7.86,3,7.53,31.28,2.2,62.02,11.74,91.71,21.35,30.17,23.95-48.65,35.82-64.37,33-53.3.54-116.5-19.2-163.11,13.9,25.26,12.75,56.65,6.32,84.29,11.21,23.61.09,77.5,24.69,33.93,42.67-47.99,16.28-101.03,1.63-147.54-14.32-10.9-7.07-41.44,7.61-30.68,21.58,7.44,3.5,21.1,4.08,23.97,13.03-10.86,16.7-39.32,17.72-56.64,27.26-63.17,28.88,79.49,12.22,92.01,12.15,48.55-3.09,100.72-4.64,140.38-36.83,8.71-7.98,11.39-7.33,20.99-.11,14.44,16.02,33.36,18.55,53.11,18.83,3.52.58,8.12-3.68,11.82-6.28,38.38-17.99,67.23-189.89,88.54-62.13,4.92,29.46,36.75,8.04,42.25-10.18,8.65-34.14,34.77-58.11,48.5-90.1,5.13-27.3,28.95-24.47,37.55.27,4.33,19.88.2,38.75-5.89,58.03,51.16-2.9,78.64-47.19,113.84-78.14,22.43-20.5,45.72-40.07,68.69-59.98,4.79-4.6,14.23-6.52,20.03-4.96,21.71,40.88-58.56,96.77-37.04,99.31,64.81,19.99,104.66-55.33,160.05-75.16,11.4-6.44,29.47-1.09,31.91-17.49,24.9-58.66-67.03-111.77-41.76-140.3,31.92-27.83,71.58,24.27,91.88,46.77,15.52,12.21,15.2-39.11,18.94-48.39-13.11-43.74-61.32-71.82-66.67-120.17-2.5-12.46,1.56-50.15,22.62-36.8,11.36,9.84,25.58,12.55,38.26,18.89,9.93,3.62,15.53,18.22,25.82,20.61,12.89-37.9-129.94-177.31-38.16-170.8,8.71-.86,31.97,20.48,32.92,6.12-1.27-38.34,23.62-69.64,36.35-104.31,2.41-12.26,19.25-12.69,20.13.65,8.22,45.08-10.84,92.08-29.42,131.62,2.05,26.02-21.1,49.59-7.53,74.89,3.13,6.77,7.32,7.37,11.57,1.9,19.97-23.09,35.44-51.53,58.23-71.58,30.79-5.02,4.85,80.72-6.86,94.35-16.35,35.65-57.65,61.06-52.28,103.31,21.32-12.81,40.31-29.09,60.95-42.93,46.03-.42-46.19,129.66-72.38,130.15-23.64,11.14-30,37.82-39.15,59.86-12.51,39.49-40.05,70.15-59.19,105.89,42.35-.82,46.17-50.37,56.58-81.99,3.04-19.54,18.11-32.23,27.25-48.86,2.23-4.32,4.32-8.22,9.89-8.07,22.43,6.66,12.16,53.35,13.18,72.47-.19,7.85,3.41,10.37,9.19,5.81,58.58-38.56,14.65-91.9,68.51-162.53,4.35-7.03,8.54-17.29,19.19-13.78,21.86,21.27,2.77,60.37,2.94,87.19,50.31-23.8,23.54-79.99,20.09-123.18.83-15.32-10.47-43.65-1.13-54.91,13.35-7.36,47.98,22.49,50.86,37.62.29,8.04,18.84,31.55,23.43,17.88-1.44-42.89-7.35-85.28-1.47-128.2,1.74-11.79,5.79-15.25,17.57-13.29,21.41,1.78,19.58-34.41,30.19-47.97,10.08-22.01-17.1-38.14-27.92-54.48-66.87-85.85-45.28-151.75,53.38-62.17,14.04,8.25,8.4-33.39,2.9-39.5-10.27-55.68-64.8-88.83-73.12-143.96-.69-38.28,41.56-14.02,61.22-7.23,14.08-2.4,45.76,48.81,48.75,30-7.44-60.74-70.83-98.02-97.29-149.53-3.19-24.48,28.82-33.21,47.86-24.37,18.74,6.64,32.5,20.47,48.24,31.32,3.81-28.5-45.93-96.7-64.57-121.52-17.34-27.73,6.66-46.51,31.95-36.15,18.91,9.77,28.62,32.78,44.92,45.6,1.7-1.04,4.13-2.88,4.14-4.43.06-17.39,12.73-30.57,15.54-47.08,28.57-41.57,21.57,40.98,21.64,56.63,1.37,42.59-28.92,79.76-21.15,121.74,18.86-4.11,29.35-29.06,43.21-42.32,4.65-5.6,14.56-7.81,9.64-19.14-2.75-6.34.65-14.32-6.31-20.47-14.35-23.95,53.42-10.36,60.49,5.03,13.19,12.35,36.19,22.94,33.89-4.5-17.26-52.39-66.52-83.93-90.42-132.68-11.28-57.19,64.94,1.31,82.53,14.34,15.14,10.7,18.51,34.02,34.51,43.07,9.42-24.56,1.53-49.39-5.34-73.07.56-23.92-16.53-29.54-34.7-31.58-33.9-11.19-80.73-33.9-97.92-66.6-26.95-70.9,35.18-46.11,72.43-25.7,16.31,9.18,41.05,28.89,26.78-6.19-12.71-47.72-88.06-34.05-108.65-73.41-2.12-9.25-23.83-17.7-13.86-27.56,14.93-16.48,35.56-16.71,55.06-24.23-29.2-37.34-101.87,39.73-131.85,8.31-6.31-7.53-6.43-14.34-.52-23.6,5.71-20.79,75.8-47.83,63.72-56.99-5.09-4.61-10.25-5.79-17.2-2.42-46.98,22.02-165.05,23.68-75.49-43.72,3.46-13.56-13.97-.56-18.95,1.17-22.97,9.11-54.64,3.52-71.32,23.6-7.22,15.01-29.41,10.42-20.19-7.48,7.63-23.39,11.09-48.6,38.82-55.21,16.24-6.29-22.45-28.8-34.65-5.63-33.56,35.91-84.36,49.92-130.51,32.34-24.04-12.73,43.98-65.67,60.03-69.44,2.93-1.87,4.07-4.78.37-6.45-66.82-25.26-97.94-41.94-131.17-108.96-8.91-9.2,3.4-21.58,13.99-16.24,38.06,22.03,88.2,35.67,104.59,81.07,7.41,13.2,18.88,19.88,15.46-.21,15.41-77.42,3.16-111.4,61.25-23.82,12.65,14.61,23.01,29.94,26.18,49.44,4.11,13.98,18.63,15.87,18.64-.73,31.54-120.33,46.69-18.36,59.19,37.65.6,9.8,14.52,42.29,24.5,24.33,7.47-15.36,9.35-98.51,37.12-72.86,17.34,30.84,28.89,67.83,45.27,97.22,1.24-.11,3.11-2.03,3.32-3.37,2.15-13.91,11.13-26.42,6.91-41.79-2.08-7.56,5.31-12.49,13.26-10.1,34.59,10.62,38.28,127,63.73,136.82,25.68,2.36,42.36,20.31,61.83,33.91,1.87-4.35,1.11-8.83-3.07-11.23-32.55-22.59-47.15-61.67-73.12-90.62-27.43-36.19-3.61-60.56,30.23-26.19-8.63-41.4-19.37-138.66-70.04-142.87-17.07.49-32.76.84-46.96,12.4-4.53,3.68-13.19,3.8-19.73,3.19-59.34-5.69-84.82-9.29-30.39-60.45-23.2-8.24-140.7,1.64-125.37-38.1,20.79-19.48,51.21-27.03,79.38-27.42,4.28-.57,10.85.87,10.8-5.25-27.03-30.49-82.03-31.25-105.73-68.94-15.05-13.61-2.77-35.84,16.3-33.55,16,1.8,31.61,7.93,47.97,8.72-2.16-13.19-8.24-24.19-16.89-34.27-12.49-14.27-28.55-95.88,8.43-71.02,33.57,22.26,35.12,61.64,43.58,97.42,8.48,22.51,26.36,40.13,32.05,64.08,1.36,5.66,3.98,10.12,8.99,13.27,10.86-38.02,11.26-102.59,51.12-31.37,4.66,11.25,10.15,18.91,24.99,15.41,11.02-3.12,23.82,2.99,34.98-.87-29.66-29.27-68.62-51.17-100.45-79.32-8.76-7.27-28.71-12.22-17.78-26.33,24.51-32.9,64.34-8.8,91.26,6.3-9.56-51.27-75.57-69.24-120.63-58.9-10.96,3-20.5-.43-27.89-9.03-8.76-27.93,48.51-42.81,66.95-54.36,27.64-4.65,36.44-2.27,7.66-24.16-60.73-27.15-193.93-15.79-51.33-75.75-4.03-4.45-9.07-13.26-11.92-12.6-17.75,6.11-27.55-12.57-43.9-8.4-26.67,8.04-49.61-11.39-75.88-10.22-42.93-7.04,47.13-63.31,60.11-68.35-33.68-36.69-90.03-8.23-133.14-22.04-9.77-1.2-13.08-4.96-10.91-15.06,3.87-24.23,26.25-33.65,46.05-42.83-43.08-30.76-190-1.94-74.55-76.14,14.63-7.21-22.12-14.3-27.99-47.59-2.88-13.89-31.84-59.57.27-51.41,41.18,13.14,61.15,49.14,84.81,81.26,10.05-14.33,4.28-34.56,9.43-50.95,13.83-25.24,23.3,17.67,29.01,28.6,8.48,23.44,10.72,50.13,8.12,74.5-3,8.93.54,13.87,6.94,18.86,17.78,20.02,15.3-43.44,31.51-54.53,19.45-25.76,48.28,83.65,45.74,96.89-.79,18.88.34,36.33,15.91,49.32,23.51-17.64,3.72-72.01,37.17-85.93,23.9-10.51,19.81,87.36,15.54,102.37-5.14,19.7-8.27,39.87,6.82,56,16.27-14.21,26.32-34.24,30.34-55.58,1.07-11.35,18.09-27.41,23.69-9.52,16.14,47.08,27.77,100.41,8.68,148.75-4.59,10.69,1.74,22.28,7.27,32.38,11.29,6.48,18.58-27.95,29.7-34.46,10.66-10.56,14.18-35.2,31.39-35.61,28.6,25.13-7.68,105.87-9.7,141.88-.56,2.81-.15,6.09-1.47,8.42-8.86,17.33-.05,37.94,12.53,48.57,5.83-18.47,12.2-35.89,23.93-51.68,13.11-16.44,27.43-64.65,53.85-48.15,18.56-2.93,41.53,56.86,50.37,32.63-3.13-29.95-13.65-57.64-.33-87.42,14.89-57.68,36.67-124.94,56.93-20.43-.94,35.19-12.21,69.15-30.14,98.88-2.48,30.18,72.69-79.21,76.77-14.69-9.61,33.82-28.45,62.26-50.44,88.87-20.8,21.34-46.35,38.3-41.45,72.12,5.67-12.08,81.44-88.65,69.64-42.19-20.56,40.8-28.83,92.03-71.37,116.63-51.67,26.11-53.73,167.56-39.28,217.01,9.88-8.32,9.21-24.26,16.84-34.42,7.89-12.67,58.51-92.1,67.32-55.55-7.93,15.66-4.66,32.8-7.87,49.06-1.54,36.11-40.92,56.73-36.53,91.84,1.49,5.45-.37,13.04-3.27,18.22-12.1,25.07-12.37,54.42-8.36,80.48,6.42,17.67,35-38.24,50.87-40.91,12.02-8.24,21.23-21.17,31.39-31.62,23.73-13.34,11.28,39.5,7.33,50.45-23.19,66.09-85.08,103.48-62.3,181.12,20.18-24.51,41.33-50.84,64.34-74.27,15.87-18.57,16.46,4.04,25.8-5.73,22.96-50.73,53.25-113.03,17.85-165.34-21.6-22.57-80.36-125.26-9.99-109.28,35.73,17.47,77.01,113.53,65.16,24.95-11.01-56.41-89.35-64.56-90.67-129.05-3.2-26.11,7.23-31.11,31.61-29.55,35.74-4.4,38.68,20.95,65.21,36.15-2.03-44.84-12.41-88.97-4.13-134.08.3-11.65,12.5-17.8,10.75-29.77,18.76-46.24,37.53,45.21,35.8,61.1,9.4,55.8-27.13,105.98-18.31,160.04,5.18,8.93,15.05-11.23,18.81-15.17,89.25-103.43,88.04-35.87,34.11,44.65-24.21,24.88-51.35,50.66-60.15,85.59-2.71,21.61,53.14-36.55,74.02-28.7,8.27-.56,17.13-12.83,24.79-3.55,3.8,4.4,5.28,10.28.87,13.96-16.66,42.94-46.24,79.37-85.59,105.72-20.79,18.89-56.92,32.02-65.07,59.7,45.57-35.1,43.12-3.78,79.66-30.89,10.08-4.43,30.94-35.91,37.61-15.08-49.91,155.13-126.57,71.38-154.29,169.7,25.24-4.37,34.93-30.2,63.32-27.62,13.23-12.78,55.64,6.52,36.46,22.65-42.04,32.67-78.46,72.61-127.16,95.51-19.75,16.35-25.11,46.66-35.85,69.5,3.13,16.95,40.14-42.4,58.42-35.3,16.98,60.71-51.51,107.72-84.73,145.9,19.26,6.26,34.34-18.92,52.15-23.41,4.91-1.52,9.32,1.59,9.08,7.4,2.59,63.52-61.07,101.76-81.18,157.38-8.08,15.6-32.04,62.8,3.2,29.15,16.77-16.96,43.65-23.78,54.56-45.46,3-6.33,13.63-7.42,16.03,1.05,12.44,40.88-16.57,89.58-56.01,103.77-10.5,3.01-12.97,9.94-12.35,19.54,3.18,17.81-4.08,28.39-14.67,41.53-4.41,21.63,51.26-18.89,63.88-8.85,25.02,15.42-35.57,44.89-45.48,56.88-18.33,27.39-87.91,48.44-89.04,75.05,21.39-.27,99.81-72.38,101.75-34.51-11.51,21.53-27.02,40.04-32.23,65.07-17.36,60.94-78.21,81.19-123.53,115.32-18.78,23.59-55.71,23.94-66.86,53.85-12.2,17.5-15.91,37.34-22.5,56.9-2.42,12.48,21.52,5.54,25.33-1.41,13.9-13.72,59.04-111.14,80.14-87.89,15.26,19.36-3.22,38.22-6.35,57.9,53.03-18.67,70.72-77.75,105.45-117.29,15.2-19.85,20.75-46.84,38.63-64.28,29.76-21.84,18.65,33.3,16.59,48.42-5.06,9.89,6.79,12.58,9.93,3.56,20.1-42.14,14.99-87.75,18.89-133.26,19.65-56.69,44.85,38.43,50.34,57.95,27.8-15.03,33.82-56.01,20.85-83.26-11.73-29.31-10.38-58.41-.73-87.53,4.95-19.69,26.55-31.98,36.46-7.82,5.19,7.04,12.84,54.58,22.74,42.14,20.08-18.68,18.72-18.34,11.95-45.56-11.78-38.57.16-80.62-12.38-118.52-7.4-26.8,28.68-9.62,39.83-3.11,21.89,8.2,14.93,35.65,28.07,49.9,27.09-63.32-19.9-109.46-46.71-162.38-31.45-73.63,45.58-37.39,66.28-2.54,2.32-42.45-20.9-83.88-17.75-126.8,7.19-95.96,52.07-100.58,52.9.6.23,24.93-5.19,50.26-2.9,74.96,24.67-9.7,38.12-43.19,63.98-49.46,20.52,19.25-45.71,97.92-52.54,133.33,20.49-4.58,32.27-21.59,49.72-20.95,9.66,12.79-8.58,53.08-17.13,66.48-16.73,28.19-49.08,47.47-60.38,77.82,1.85,10.24-16.3,40,4.28,35.33,99.74-24.26,54.12,10.6,7,51.42-36.44,24.32-81.89,36.79-104.89,77.14-20.31,31.57,47.86-.78,57.43-6.25,7.27-3.27,18.78-15.22,25.63-6.06,5.57,30.77-23.89,62.57-53.67,71.52-7.25,2.53-16.04,2.65-21.02,9.03,12.68,11.61,63.41-16.35,45.07,17.13-37.77,61.29-140.32,32.54-167.3,102.27,3.66,4.4,12.11,3.45,17.44,2.54,16.53-5.37,32.98,2.04,49.35-1.07,14.55-5.1,38.15,9.72,23.93,25.31-19.99,33.32-83.65,33.76-119.03,39.52-24.53,1.29-49.58-.86-73.89.96-14.64,12.43-37.18,19-46.18,36.14,77.73,9.71,75.21,37.65,6.84,66.92-35.27,8.83-74.56,9.2-110.77,5.88-5.59-1.07-9.36-1-13.95,2.85-14.61,13.65-47.43,23.69-8.04,30.62,6.28,2.18,16.14,2.99,15.77,10.52-8.36,37.13-122.3,40.16-158.34,59.4-26.23,10.16-51.63,30.82-65.11,54.43,29.61-.12,57.34-20.14,86.34-25.28,33.57,14.25-54.56,69.6-69.3,78.54-23.78,12.34-51.43,10.86-77.2,15.58-22.53,4.08-117.24,83.48-118.91,103.14,10.12.41,19.16-7.22,27.24-12.41,36.26-29.45,75.08-54.68,117.79-73.79,34.96-25.37,39.07,5.04,25.41,32.41-8.22,10.84-13.69,23.8-19.89,36.07-.66,1.3,1.37,5.6,2.94,6.12,17.66,5.86,23.94,2.81,36.16-12.79,28.52-33.07,63.98-82.9,109.85-84.86,1.83,25.6-17.57,52.75-23.9,79.2,24.39,3.78,145.51-140.34,128.78-65.1-3.35,27.36-23.07,45.94-37.16,68.03,32.28,9.06,77.14,0,96.91-28.92,28.46-36.69,72.5-58.33,112.26-80.51,36.16-1.44-15.31,55.21-25.65,64.75-17.25,20.16-41.61,32.28-60.28,49.95,12.98,20.61,89.73-7.14,78.36,24.3-30.06,61.48-104.21,14.11-153.77,13.33,14.33,19.92,67.85,29.78,52.17,60.91-13.68,18.92-126.38-40.84-144.75-54.81-5.75-8.1-40.85-2.49-32.35,6.71,22,12.39,33.06,34.69,48.05,53.37,7.82,9.74,7,11.35-3.23,19.02-10.31,4.41-13.3,24.51-25.78,14.67-48.53-14.15-89.71-41.01-133.29-64.94,6.47,17.27,18.93,29.03,32.98,39.77,4.12,5.35,1.41,11.85-5.17,12.8-49.95,9.42-101.72-18.51-130.01-59.6-2.16-9.34-25.54-15.91-22.51-2.04,9.36,15.58,14.36,34.02,30.22,45.4,15.56,9.14,19.39,29.91-4.58,18.86-26.26-13.74-55.1-23.85-79.67-40.31-15.47-12.24-26.78-32.94-45.16-40.14-8.06,1.71-59.24-6.68-44.48,8.96,11.59,8.43,87.41,18.21,57.5,38.66-39.62,9.3-77.71-6.78-115.8-16.99-27.94-10.11-41.33,31.19-69.11,28.98-1.87.32-3.45,2.32-5.16,3.54,27.55,19.52,69.76,17.47,102.71,24.34,5.02,1.96,6.34,7.27,3.12,11.51-17.95,25.98-55.46,19.59-82.77,17.03-26.12-3.61-52.8-3.35-77.45-13.62-24.2-9.03-48.57-15.49-73.04-3.39-22.73,8.47-45.52,14.36-70.11,15.21-72.18,14.18-142.75,39.72-217.58,40.06-67.47,4.13-153.61-2.44-22.87,29.19,31.13,4.27,59.21-16.93,87.05-27.78,14.75.93,68-24.71,67.59-1.76,2.77,20.37-10.41,31.31-22.66,44.92,18.97,8.05,41.84,4.39,62.31,7.43,15.91-5.91,33.43-16.27,42.42-32.62,4.55-18.84,71.98-55.53,64.71-16.83-3.81,13.88-29.78,40.55-8.91,48.94,5.64,2.03,9.52.94,13.08-4.41,9.82-21.16,109.1-115.05,107.24-53.9-4.49,19.11-56.56,70.63-7.89,60.46,21.32-5.87,115-8.25,120.96,14.05-11.98,25.66-128.59,30.09-156.42,21.48,18.99,22.76,51.32,36.53,54.8,67.29-.23,17.5-18.1,9.86-27.98,5.55-40.49-14.73-80.71-29.83-110.72-63.1-5.9-5.94-15.47-5.76-23.2-3.14,13.49,19.17,12.79,42.65,12.01,65.05-3.69,34.59-63.06-13.92-65.28-32.67-24.11-55.38-12.37-29.69-45.44-35.23-23.15-8.92-7.8,29.8-4.01,39.81,1.76,37.45-70,2.73-81.93-14.57-28.98-21.17-54.5-69.95-94.19-64.1-6.01,1.39-8.03,5.17-5.44,10.01,5.6,10.46,2.84,21.41,2.82,32.14-19.93,69.71-77.81-71.57-111.56-70.1-36.03-7.8-82.72-21.08-116.65-5.34,1.28,4.95,9.06,4.92,13.21,5.08,25.19-.66,48.25,12.77,65.85,28.91,6.72,17.14-62.44,25.78-75.45,18.35-33.71-9.44-66.89-27.4-101.36-31.5-69.06,2.67-134.69,27.7-200.93,48.02-24.97,9.59-45.12,29.61-72.18,35.26-14.55,7.83-117.44,28.03-91.08,45.84,19.32,29.89,365.6,186.28,241.96,204.88-136.18-60.14-145.09-141.36-307.08-175.09-28.38-17.07-41.82,2.76-69.69,7.97-54.19,27.55-109.51,58.78-156.81,98.09-39.61,34.92-76.66,71.99-110.04,112.69-11.8,8.5-29.36,2.24-42.85,1.77-10.72.24-11.3-8.46-14.3-14.58-8.85-14.47,8.88-24.44,19.94-30.28,20.79-9.47,36.82-25.39,53.88-39.67,39.2-32.82,77.33-66.9,116.32-99.98,41.75-31.88,93.58-48.94,134.59-81.81-17.17-12.89-136.23-85.45-150.41-72.2-25.18,14.96-52.83,18.22-81.31,10.43-21.82-4.96-1.82-21.35,6.57-29.38,22.24-17.46-44.89-23.84-55.02-31.23-120.67-45.74-68.19,12.16-188.91,39.3-24.77,8.99-46.85-5.12-70.93-.75-2.64.98-7.81-1.5-10.01-3.99,2.71-26.65,55.21-53.95,78.91-64.87,6.01-3.47,17.04-5.09,19.25-12.12-17.27-5.05-38.28-4.36-55.74-13.31-7.56-2.77-13.7-2.04-19.65,5.22-40.22,48.53-81.15,105.57-148.84,113.42-63.08,16.31-7-48,9.58-67.62,5.27-11.62,76.78-56.42,54.23-61.35-119.47-38.79-105.18,46.46-192.2,73.89-15.06-.02-70.66,28.83-53.1-5.41,18.27-39.07,52.22-66.83,79.86-97.44-67-15.56-40.17,5.52-82.79,25.99-60.3,38.74-185.08,119.74-87.05-16.73,11.74-19.43-53.59-.95-63.88-2.23-30.9,26.66-54.13,58.98-100.5,58.09-52.44,2.92-49.49-2.18-66.9,48.59-3.65,8.02-6.34,17.27-17.92,18.91-6.89,2.69-14,20.08-22.87,8.79-16.18-14.25-4.05-36.53-10.06-54.24-21.74,43.48-36.36,148.42-67.34,38.93-16.14,11.96-32.02,100.24-58.51,69.89-15.04-17-11.44-39.53-16.71-59.38-11.09,13.46-15.2,31.53-24.6,46.19-7.97,14.17-25.94,19.1-32.56,34.59-8.6,16.67-23.22-11.97-29.29-18.95-6.89-21.72-.8-71.01,6.41-93.62,10.55-18.22-30.86-11.98-27.05,1.7,9.79,37.35-15.1,70.17-11.27,106.78.82,3.68-1.41,11.07-3.77,11.79-30.08,6.95-38.08-43.53-42.15-65.03-1.22-15.55,6.42-31.44,3.83-46.85-51.06,19.47,10.58,88.32-29.56,115.62-13.9,14.81-16.59,21.41-26.64-1.33-8.86-14.25-22.57-24.37-24.19-42.65-.42-2.19-3.49-3.88-5.33-5.81-23.44,33.06-34.15,79.83-71.84,101.83-36.52,20.37-17.9-51.5-7.37-65.74,26.13-50.16-1.82-14.35-63.14-32.3-79.04-14.16,59.98-44.17,72.54-55.94-6.73-4.95-72.33-30.23-42.62-37.41,43.98-1.33,79.3-29.39,127.15-6.48-19.23-25-27.06-53.16-37.04-82.33-.4-28.29,105.05,42.13,120.57,40.5-2.59-16.59-32.01-32.6-27.17-48.9,22.85-17.29,95.41,36.36,118.53,51.13,2.11-27.8-24.31-47.43-19.77-71.56,22.12-3.45,54.08,11.13,69.29,28.54,9.29,12.11,18.26,25.26,34.68,31.64,1.5-5.83-1.78-9.66-4.61-13.37-11.13-14.62-14.33-32.4-19.71-49.28-4.46-8.23,5.81-23.79,12.67-12.29,5.38,21.34,51.45,26.55,70.67,43.17-41.27-75.17,53.52-20.02,78.18-1.04,9.97,8.55,21.18,10.21,35.69,7.16-12.95-10.05-26.96-15.69-24.54-34.86,1-7.37-17.25-25.44-.43-26.56,30.3,7.94,60.75,17.01,91.05,25.48,4.32,1.24,9.52,2.42,12.32,5.46,10.65,10.82,41.97,16.11,47.37-.1-21.41-13.87-52.64-15.98-77.29-24.89-33.26-10.04-67.31-13.71-101.66-16.42-28.75-.51-59.33-23.4-86.57-10.11-43.26,10.11-86.58,27.85-132.41,27.15-83.41-7.34-15.48-41.53,17.23-63.8-43.44-28.38-89.64,17.38-135.4,19.18-28.81,1-53.53,19.82-83.32,16.82-6.65.05-9.44-4.61-6.86-10.68,14.09-43.89,59.3-51.57,95.72-73.54-38.71-14.56-78.18-9.02-113.15,12.03-30.75,15.61-131.82,90.97-101.33,4-19.73-6.67-94.95,75.55-92.87,34.75,2.2-7.76,11.98-31.36-5.11-23.98-22.81,19.51-52.57,23.5-77.66,37.91-22,15.57-19.4-32.3-25.63-44.76-1.47-12.08-15.08-6.18-22.75-4.62-19.47,7.06-39.78,4.71-59.75,5.55-19.05.89-133,4.03-92.49-32.71,16.83-15.43,40.83-22,58.34-34.47-40.61-21.61-228.81,65.76-119.87-43.15-38.32-11.96-85.78,5.91-119.04-25.51-10.5-11.55,13.71-21.96,19.57-30.78,18.97-14.19,39.5-12.1,60.4-16.35-2.67-5.1-8.81-7.16-13.96-8.69-47.61-9.78-76.46-54.57-88.58-98.46-1.74-9.97,1.04-12.47,10.89-10.66,47.35,5.87,68.46,44.76,96.84,75.67,5.97-13.91,1.83-30.26.64-44.83,6.68-59.15,35.73-6.27,49,16.84,24.47,35.32-4.53,80.88,20.89,94.26,22.75-54.14,26.94-120.82,65.44-23.82,5.61,17.17,9.96,35.3,7.09,54.21-2.31,8.31,8.4,33.33,15.18,15.28,2.79-19.49-3.57-98.77,31.22-59.04,21.85,33.88,14.45,116.33,50.38,123.76,18.38,4.93-1.55-30.34-1.69-39.25-5.91-12.3-6.38-94.27,19.31-71.06,34.43,23.45,48.37,59.19,55.91,98.35,2.04,7.57,33.03,26.18,25.62,8.14-10.46-11.27-47.54-95.27-8.01-76.28,19.51,5.24,40.33,10.03,48.29,31.26,6.31,14.57,13.92,28.26,30.6,32.1,5.08,9.55,11.91,27.12,23.61,13.81-5.67-7.99-15.27-9.88-23.83-13.59ZM1475.41,2580.16c-34.46.9-1.62-31.33,2.96-47.12-31.9.5-63.99,18.96-91.18,34.21,60,22.45,125.7,49.22,190.13,51.86-1.55-9.25-9.67-14.89-13.73-22.8-7.32-22.3,43-7.67,52.39-1.24,22.55,12.15,45.5,37.9,73.17,28.56-13.59-26.92-72.73-83.75-25.83-105.06,44.47,2.43,85.74,51.12,97.08,90.96,1.33,7.36,9.67,14.69,12.21,22.18,5.37,13.55,8.09,15.66,22.3,15.66,7.27,0,8.31-1.47,5.82-7.95-7.15-37.31-52.17-84.82-24.56-118.79,3.71-4.94,26.8-21.59,14.71-24.54-25.22,8.42-50-10.73-73.44-2.33-20.8,11.75-46.31-10.25-64.36,5.9-17.3,13.3-29.06,32.29-46.54,45.06-40.28,19.39-85.79,39.04-131.14,35.46ZM1862.88,2623.8c1.03-.16,2.05-.33,3.08-.5,2.98-19.46-11.64-40.75-3.59-58.26,33.68.03,41.02,49.81,68.26,63.75-.49-18.84-22.13-42.16-3.23-57.32,6.85-5.29,12.72-.94,18.58,3.26,15.75,9.09,33.91,13.71,50.22,21.84-30.6-52.92-87.47-107.19-146.19-59.68-35.77,17.41,8.33,60.22,12.87,86.91ZM313.2,1714.96c9.71-40.86,83.68,40.37,83.31,63.3,2.91,16.94,35.54-.96,27.12-13.08-14.09-19.89-24.15-43.09-49.4-53.16-14.78-5.89-25.48-17.89-31.89-32.41-10.94-35.32,12.18-34.05-31.92-53.89-18.37-7.96-17.41,39.59-24.34,51.15-13.27,22.55,42.55,93.89,27.12,38.08ZM4561.83,1786.64c6.54-17.2,11.98-31.51,3.69-47.13-4.73-16.84-4.02-35.42-18.34-48.66-14.82-24.36-16.82-58.56-39.75-77.94-61.56,148.8-20.02,23.98,54.4,173.73ZM4437.57,2031.66c7.14,21.56,28.07-1.91,27.3-16.71-.1-25.76,9.6-52.58,5.32-77.82-9.68-19.2-13.66-39.83-16.14-60.91-.47-5.5-4.95-7.18-9.05-3.55-13.53,15.17-52.93,29.75-30.05,52.79,16.93,18.52,32.4,81.47,22.62,106.21ZM4423.04,767.91c.17.03.33.05.5.08-.17,11.29-3.43,22.25,10.03,27.47,17.6,7.65,33.57,20.5,51.15,27.67,24.45-.61,29.48,22,44.05,35.52,6.07-24.96-1.24-64.23-22.78-80.41-24.22-11.75-47.56-25.45-72.09-36.51-12.8-2.76-8,18.48-10.87,26.18ZM384.19,1044.21c-.09,14.5,3.47,44.06,18.5,17.89,23.78-38.92,95.42-96.89,42.02-139.01-7.78-4.44-14.01-1.35-14.38,7.62-1.78,43.75-46.3,69.15-46.14,113.5ZM3714.07,2600.46c-.09-.76-.18-1.52-.27-2.29-27.31,4.28-177.5,20.8-153.12,62.98,15.38,8.36,236.67-51.66,153.39-60.69ZM4347.02,2181.92c45.48-35.45,56.08-105.66,31.22-155.9-23.45,47.83-26.58,101.36-31.22,155.9ZM4557.86,704.65c-8.19-31.17-30.02-53.48-45.18-80.97-30.69,16.11-1.88,47.9,4.73,71.02,9.39,28.5,24.59,41.99,40.45,9.95ZM4469.66,1738.19c.3-.02.61-.04.91-.05-.96-9.44.93-19.55-3.11-28.32-12.92,6.01-13.82,24.02-29.82,28.09-6.89,5.33-5.83,19.07-6.42,27.44,2.38,15.61-6.43,29.51-5.49,44.27,12.92-7.98,55.49-31.85,45.9-49.29-2.57-6.64-1.44-14.7-1.97-22.13ZM4587.61,626c10.47-12.46-34.28-44.62-37.02-67.75-8.34-13.62-20.54,23.77-25.97,29.6-2.37,4.54-1.95,9.19,5.67,8.16,24.66-3.23,36.96,21.35,57.33,29.99ZM4601.27,1261.67c.24-22.43-12.99-68.45-35.73-77.91-5.31,9.51,3.54,17.55,5.75,26.63,9.25,24.71,13.28,51.74,26.81,74.53,1.47-9.26,3.25-12.74,3.17-23.24ZM4637.56,1396.13c4.07-2.29,41.73-105.38,28.47-95.6-7.25,9.81-18.98,16.08-21.09,30.03-.13,21.59-18.08,45.41-7.38,65.57ZM4506.41,1861.2c.23,0,.47,0,.7.01,4.58-12.87-1.16-21.94-8.21-31.39-8.86-5.41-16.49,10.31-23.13,15.02-.82,13.08,16.16,23.04,22.84,33.76,10.32,6.83,7.14-11.83,7.8-17.4ZM3803.04,2596.25c12.71-4.68,25.12-9.3,34.32-19.68-11.53-7.55-23.81-9.51-37.09-5.95-9.71,3.18-12.13,25.35,2.77,25.63ZM542.12,2015.89c-9.69-6.99-19.87-21.41-33.9-19.67,3.73,20.97,5.92,59.76,30.92,27.71,2.91-2.59,2.35-2.94,2.98-8.04ZM971.03,2755.49c.17-.85.33-1.69.5-2.54-5.02-1.24-10.04-2.47-15.06-3.71-.24,1.06-.47,2.12-.71,3.18,5.09,1.02,10.18,2.04,15.27,3.06ZM4400.17,806.1c.5-1.09,1.01-2.18,1.51-3.28-4.37-3.38-7.84-.51-11.86,1.68,2.47,4.89,6.28,2.52,10.35,1.6ZM626.61,2081.56c-5.16-4.04-5.98-1.92-9.12,1.83,4.31,4.96,5.6,2.84,9.12-1.83ZM4323.17,515.59c.86,1.81,1.3,2.73,1.73,3.64,7.87-3.01,5.64-7.82-1.73-3.64Z" fill="FRAME_COLOR"/>
  </g>
</svg>