<?xml version="1.0" encoding="utf-8"?>
<!-- Generator: Adobe Illustrator 24.1.1, SVG Export Plug-In . SVG Version: 6.00 Build 0)  -->
<svg version="1.1" id="Layer_1" xmlns="http://www.w3.org/2000/svg" xmlns:xlink="http://www.w3.org/1999/xlink" x="0px" y="0px"
	 viewBox="0 0 432 432" style="enable-background:new 0 0 432 432;" xml:space="preserve">
<g>
	<g fill="FRAME_COLOR">
		<path d="M219.49,320.72c1.02-1.51,1.97-3.07,3.08-4.51c2-2.57,4.54-4.41,7.84-4.92c2.43-0.37,4.72,0.04,6.2,2.19
			c1.53,2.23,1.1,4.57-0.24,6.75c-2.49,4.05-6.59,5.23-10.91,5.94c-0.69,0.11-1.39,0.15-1.99,0.22c2.36,0.61,4.96,0.88,7.15,1.96
			c2.18,1.07,4.21,2.74,5.85,4.56c1.4,1.55,1.59,3.75,0.47,5.74c-1.18,2.1-3.1,2.99-5.46,2.95c-3.39-0.05-6.03-1.7-8.25-4.11
			c-0.99-1.08-1.88-2.26-3-3.61c0.62,1.94,1.26,3.6,1.67,5.31c0.62,2.6,0.46,5.19-0.81,7.59c-1.15,2.16-2.78,3.73-5.47,3.6
			c-2.73-0.12-4.39-1.69-5.34-4.1c-1.32-3.34-0.79-6.63,0.43-9.86c0.39-1.03,0.83-2.05,1.02-3.2c-1,1.37-1.93,2.79-3.01,4.09
			c-2.05,2.47-4.61,4.15-7.89,4.36c-2.52,0.16-4.84-0.47-6.14-2.85c-1.24-2.28-0.66-4.55,0.78-6.54c2.5-3.44,6.24-4.6,10.21-5.23
			c0.8-0.13,1.6-0.17,2.41-0.49c-1.88-0.39-3.78-0.67-5.62-1.18c-3.08-0.85-5.66-2.51-7.28-5.36c-1.22-2.15-1.57-4.42,0.02-6.54
			c1.54-2.05,3.71-2.64,6.2-2.18c3.44,0.64,5.99,2.65,8.13,5.28c0.62,0.76,1.19,1.54,2,2.6c-0.68-2.5-1.41-4.6-1.78-6.77
			c-0.24-1.41-0.12-2.95,0.17-4.37c0.59-2.88,2.95-4.85,5.58-4.92c2.69-0.08,5.29,1.85,6.13,4.62c0.99,3.28,0.19,6.4-0.98,9.46
			c-0.44,1.16-0.99,2.27-1.49,3.4C219.29,320.65,219.39,320.68,219.49,320.72z M216.16,332.2c3.11,0.02,5.49-2.26,5.55-5.32
			c0.05-2.96-2.55-5.59-5.58-5.63c-3.2-0.04-5.8,2.31-5.87,5.31C210.18,329.84,212.63,332.18,216.16,332.2z"/>
		<path d="M241.64,327.28c3.04,1.06,6.14,1.98,9.11,3.21c3.9,1.62,7.42,3.83,9.09,7.99c0.48,1.2,0.75,2.57,0.77,3.87
			c0.03,2.1-0.91,2.76-2.59,1.62c-2.17-1.47-4.16-3.26-5.97-5.16c-1.49-1.56-2.48-3.59-3.91-5.22c-2.87-3.25-6.28-5.56-10.84-5.75
			c-0.74-0.03-1.44-0.82-2.16-1.25c0.73-0.41,1.43-1.11,2.19-1.18c15.12-1.5,29.32-6.03,42.46-13.54
			c21.74-12.43,39.21-29.13,49.94-52.12c12.66-27.13,14.54-55.16,6.16-83.84c-5.47-18.74-15.44-34.82-29.47-48.42
			c-10.73-10.41-22.87-18.58-36.94-23.78c-0.9-0.33-1.85-0.55-2.86-0.84c-0.72,3.69-3.2,5.74-6.19,7.15
			c-6.25,2.94-12.37,2.14-18.62-0.98c2.94-4.38,6.92-6.77,11.79-7.62c6.24-1.08,12.37-0.13,18.25,1.98
			c14.36,5.15,26.49,13.8,37.2,24.49c24.25,24.22,34.8,53.87,33.39,87.71c-1.53,36.58-17.57,65.82-46.59,88.02
			c-15.03,11.5-31.68,19.41-50.37,22.84c-1.17,0.22-2.36,0.37-3.53,0.57C241.82,327.05,241.73,327.19,241.64,327.28z"/>
		<path d="M189.83,108.68c-7.9,6.07-20.35,3.21-25.19-5.92c-3.44,1.41-7.03,2.64-10.41,4.3c-24.09,11.82-41.64,30.18-52.98,54.32
			c-10.19,21.69-12.47,44.57-8.79,68.17c2.96,18.97,10.41,36,22.25,51.01c11.62,14.73,26.07,26.08,42.96,34.34
			c11.69,5.72,23.97,9.16,36.88,10.55c0.75,0.08,1.43,0.8,2.14,1.22c-0.67,0.39-1.33,1.1-2.02,1.13c-5.21,0.22-8.94,3.02-12.11,6.77
			c-1.4,1.66-2.41,3.67-3.91,5.22c-1.57,1.64-3.44,3.02-5.32,4.32c-1.18,0.82-2.1,0.11-2.18-1.21c-0.07-1.23-0.01-2.55,0.35-3.72
			c1.08-3.49,3.57-5.91,6.75-7.46c3.52-1.71,7.2-3.09,10.84-4.62c-2.5-0.54-5.12-1.07-7.72-1.67
			c-23.21-5.32-42.83-17.11-59.46-33.87c-18.96-19.12-29.73-42.34-32.22-69.1c-3.7-39.73,9.08-73.35,38.84-100.16
			c8.92-8.04,18.96-14.52,30.4-18.59c6.04-2.15,12.2-3.31,18.63-2.37c3.79,0.55,7.11,2.18,9.97,4.7
			C188.39,106.81,189.06,107.79,189.83,108.68z"/>
		<path d="M153.28,317.23c-4.97,7.91-18.58,9.81-25.65,3.7C131.02,312.83,144.65,310.82,153.28,317.23z"/>
		<path d="M278.08,317.43c7.69-5.92,18.97-5.16,24.83,1.44c1.68,1.89,1.64,2.13-0.59,3.32c-7.17,3.85-15.96,2.96-21.82-2.23
			C279.67,319.23,278.96,318.36,278.08,317.43z"/>
		<path d="M278.76,87.03c9.94,2.37,16.86,15.71,12.29,23.47C281.84,107.21,275.38,95.01,278.76,87.03z"/>
		<path d="M104.59,272.8c-8.34,4.4-20.19-1.27-23.74-11.25C88.21,257.56,101.64,263.86,104.59,272.8z"/>
		<path d="M153.02,87.2c3.08,8.5-3.13,20.11-12.25,23.11C136.77,104.41,140.9,90.4,153.02,87.2z"/>
		<path d="M350.83,261.55c-4.32,11.06-16.09,15.31-23.65,11.24C329.91,264.04,343.84,257.41,350.83,261.55z"/>
		<path d="M93.23,283.8c7.87-4.48,18.07-2.4,25.01,7.04C109.89,297.11,97.35,292.24,93.23,283.8z"/>
		<path d="M134.56,305.24c-5.72,7.28-19.62,6.67-25.78-1.03C113.89,297.56,127.26,298.04,134.56,305.24z"/>
		<path d="M297.03,305.45c5.92-7.22,20.17-8.02,25.89-1.45C317.59,311.74,302.97,312.56,297.03,305.45z"/>
		<path d="M283.29,333.05c-6.94,4.81-21.3,0.42-24.48-7.49C265.97,319.69,280.66,324.18,283.29,333.05z"/>
		<path d="M313.26,290.91c6.27-8.73,18.58-12.16,25.11-7.1C334.47,292.72,321.22,296.53,313.26,290.91z"/>
		<path d="M148.48,333.05c2.6-8.92,15.91-13.03,24.51-7.57C167.85,334.63,156.98,337.03,148.48,333.05z"/>
		<path d="M357.6,237.05c-0.77,9.66-12,18.33-20.26,15.79C337.25,243.91,348.32,235.22,357.6,237.05z"/>
		<path d="M297.05,275.97c4.73,5.98,4.21,15.82-1.15,21.92c-1.02,1.16-2.41,2-3.63,2.99c-0.83-1.42-1.94-2.76-2.44-4.29
			C287.37,289.02,290.65,279.75,297.05,275.97z"/>
		<path d="M309.51,125.02c-8.22-4.08-12.15-17.84-7.07-24.74C311.08,104.21,315.3,118.97,309.51,125.02z"/>
		<path d="M74.21,236.81c5.7-0.44,10.91,0.88,14.67,5.22c2.28,2.64,3.65,6.07,5.34,9.2c0.53,0.99,0.4,1.85-1.1,2.03
			C84.62,254.32,74.58,245.73,74.21,236.81z"/>
		<path d="M180.34,81.61c-0.05,0.81-0.03,1.36-0.12,1.89c-1.44,7.88-9.07,15.27-16.93,16.54c-1.96,0.31-1.95-0.92-1.83-2.15
			c0.51-5.35,3.21-9.51,7.38-12.72C172.1,82.66,175.89,81.55,180.34,81.61z"/>
		<path d="M123.31,286.99c-7.37-6.41-7.56-20.16-0.46-25.62C129.73,266.51,130.05,281.45,123.31,286.99z"/>
		<path d="M335.58,162.81c-6.23-6.89-4.25-21.14,3.58-25.74C345.08,143.46,343.02,158.31,335.58,162.81z"/>
		<path d="M251.54,81.86c8.82-1.05,18.56,7.33,18.76,15.77c0.06,2.44-0.5,2.85-2.83,2.2c-7.97-2.22-13.09-7.33-15.49-15.21
			C251.72,83.77,251.69,82.86,251.54,81.86z"/>
		<path d="M321.88,116.89c8.13,5.44,9.7,20.44,2.82,25.86C317.34,135.44,316.17,124.62,321.88,116.89z"/>
		<path d="M321.63,269.94c-7.43-4.08-10.03-18.47-4.52-25.01C325.1,247.91,327.83,263,321.63,269.94z"/>
		<path d="M139.24,300.83c-7.91-4.26-10.39-17.86-4.58-25.04C142.65,279.91,145.35,294.71,139.24,300.83z"/>
		<path d="M308.42,286.84c-6.8-5.33-6.64-19.52,0.19-25.37C315.71,265.34,315.65,280.86,308.42,286.84z"/>
		<path d="M144.95,114.8c6.16-6.23,19.82-5.97,25.17,2.02C165.72,123.37,149.92,122.11,144.95,114.8z"/>
		<path d="M122.2,124.81c-5.95-5.44-1.67-20.19,7.11-24.49C134.51,106.6,130.6,120.04,122.2,124.81z"/>
		<path d="M294.62,139.68c5.85-4.48,15.68-3.58,21.44,1.89c0.56,0.53,1.08,1.1,1.59,1.68c2.05,2.32,1.94,2.79-0.86,3.93
			C309.01,150.32,298.94,146.96,294.62,139.68z"/>
		<path d="M345.15,207.9c-2.98-9.03,3.95-21.4,12.63-22.56C360.56,194.37,354.04,206.03,345.15,207.9z"/>
		<path d="M73.92,185.34c8.28,0.75,15.75,14,12.73,22.57C78.19,206.87,71.3,194.65,73.92,185.34z"/>
		<path d="M81.29,160.28c8.1,2.87,12.13,15.13,8.06,24.57C81.63,183.59,76.49,167.94,81.29,160.28z"/>
		<path d="M261.43,116.94c4.64-6.91,17.33-9.4,25.24-2.07C282.48,122,267.57,123.29,261.43,116.94z"/>
		<path d="M343.42,230.47c-1.44-9.03,7.5-19.64,16.48-19.72C361.86,219.34,352.68,230.41,343.42,230.47z"/>
		<path d="M350.19,160.33c5,7.49,0.24,22.45-7.72,24.55C337.95,176.89,341.98,163.88,350.19,160.33z"/>
		<path d="M114.44,245.15c5.55,6.57,2.97,20.81-4.49,24.74C103.67,263.55,106.44,248.24,114.44,245.15z"/>
		<path d="M112.73,145.76c3.05-8.15,17.55-11.82,24.36-6.16C133.41,147.61,119.02,151.25,112.73,145.76z"/>
		<path d="M149.1,288.79c8.88,3.52,13.52,17.75,7.91,23.9C148.4,308.21,144.52,296.65,149.1,288.79z"/>
		<path d="M71.91,210.88c8.68-0.14,18.37,11.49,16.32,19.59C79.56,230.57,70.97,221.85,71.91,210.88z"/>
		<path d="M322,227.38c8.99,2,14.29,15.9,9.06,23.76C323.53,248.44,318.61,235.56,322,227.38z"/>
		<path d="M107.2,142.8c-8.09-6.37-4.38-21.09,2.53-25.5C114.85,123.53,114.82,134.48,107.2,142.8z"/>
		<path d="M109.67,227.22c3.26,8.62-1.47,20.84-9.16,23.91C95.99,244.68,99.08,230.85,109.67,227.22z"/>
		<path d="M94.6,229.8c-3.69-8.41,5.13-21.88,13.84-21.15C109.9,217.53,102.68,228.56,94.6,229.8z"/>
		<path d="M151.8,127.21c-4.92,7.02-19.07,8.06-24.93,1.84C132.09,121.24,146.62,120.16,151.8,127.21z"/>
		<path d="M323.16,208.69c8.89-0.42,16.8,11.33,14,20.8C330.21,230.38,321.81,217.91,323.16,208.69z"/>
		<path d="M255.47,320.15c-4.19-7.58,1.79-19.73,10.94-22.47C269.82,303.51,266.1,316.9,255.47,320.15z"/>
		<path d="M124.75,154.83c-3.16,8.05-13.75,14.32-22.86,10.03C103.34,156.48,116.98,150.43,124.75,154.83z"/>
		<path d="M306.84,154.67c4.34-1.81,8.58-1.64,12.78-0.13c4.2,1.51,7.28,4.4,9.44,8.27c1.14,2.05,0.96,2.45-1.28,3
			C319.5,167.86,310.3,163.09,306.84,154.67z"/>
		<path d="M165.19,297.42c6.43,2.68,10.43,7.28,11.76,13.92c0.46,2.33,0.05,4.85-0.18,7.27c-0.04,0.46-1.22,1.27-1.67,1.15
			C167.06,317.6,161.62,305.59,165.19,297.42z"/>
		<path d="M96.04,162.58c-7.56-6-9.35-18.99-3.6-25.39C100.26,141.49,102.19,154.64,96.04,162.58z"/>
		<path d="M279.9,127.29c5.57-7,19.28-6.11,24.9,1.5C300.72,134.32,287.42,135.34,279.9,127.29z"/>
		<path d="M282.35,288.75c4.88,7.53,1.24,18.74-7.62,23.84C269.03,307.35,273.58,292.96,282.35,288.75z"/>
		<path d="M338.65,208.46c-8.22,0.45-17.82-10.56-16.42-18.69C331.06,188.61,339.92,198.6,338.65,208.46z"/>
		<path d="M92.95,208.47c-1.59-9.03,7.91-19.9,16.41-18.77C110.6,198.19,100.8,209.4,92.95,208.47z"/>
		<path d="M316.32,171.62c5.68-0.75,10.59,0.43,14.77,4.12c2.7,2.38,4.33,5.47,5.26,8.93c0.54,2.01,0.22,2.38-1.83,2.35
			C326.05,186.86,318.27,180.44,316.32,171.62z"/>
		<path d="M114.99,171.81c-1.32,9.18-11.92,17.01-19.65,14.64C94.69,178.04,106.38,169.24,114.99,171.81z"/>
		<path d="M205.73,93.62c1.86-0.72,3.76-1.36,5.57-2.19c0.71-0.33,1.45-0.98,1.79-1.68c0.9-1.87,1.6-3.84,2.38-5.77
			c0.21-0.03,0.43-0.07,0.64-0.1c0.76,1.73,1.62,3.42,2.24,5.19c0.47,1.35,1.11,2.19,2.58,2.6c1.72,0.48,3.34,1.33,5.01,2.01
			c0.03,0.2,0.06,0.41,0.1,0.61c-1.66,0.74-3.28,1.56-4.97,2.2c-1.47,0.55-2.39,1.42-2.88,2.95c-0.5,1.56-1.29,3.03-2.23,5.18
			c-1.09-2.34-1.8-4.13-2.76-5.78c-0.51-0.87-1.35-1.66-2.24-2.15c-1.67-0.93-3.48-1.61-5.23-2.4
			C205.72,94.07,205.72,93.84,205.73,93.62z"/>
		<path d="M278.03,149.44c-3.96,1.18-6.27,3.57-7.36,7.5c-1.49-3.5-3.26-6.44-7.41-7.41c3.81-1.23,6.2-3.51,7.18-7.48
			C271.54,146.08,274.1,148.29,278.03,149.44z"/>
		<path d="M133.76,237.03c1.17,3.78,3.11,6.26,7.16,6.99c-3.59,1.56-6.31,3.59-6.82,7.65c-0.23-0.04-0.45-0.08-0.68-0.11
			c-0.73-1.6-1.14-3.52-2.29-4.72c-1.12-1.17-3.01-1.61-4.75-2.76C130.36,243.26,132.5,240.71,133.76,237.03z"/>
		<path d="M161.12,157.04c-1.42-3.57-3.24-6.39-7.27-7.03c0.05-0.24,0.1-0.48,0.15-0.72c1.6-0.68,3.57-1,4.7-2.15
			c1.16-1.18,1.5-3.17,2.49-4.91c1.15,3.68,2.99,6.51,7.4,7.08C164.75,150.71,162.24,153.06,161.12,157.04z"/>
		<path d="M305.53,244.42c-3.65,1.11-6.29,3.22-7.33,7.21c-1.3-3.6-3.35-6.17-7.14-7.42c3.52-1.32,6.19-3.18,6.6-7.16
			c0.17,0.05,0.35,0.1,0.52,0.15c0.81,1.57,1.3,3.47,2.51,4.61c1.17,1.1,3.08,1.41,4.66,2.06
			C305.41,244.05,305.47,244.24,305.53,244.42z"/>
		<path d="M189.99,98.08c-2.21-0.01-4.05-1.82-4.05-3.98c0-2.14,1.91-3.99,4.09-3.96c2.2,0.03,3.98,1.82,4.01,4.04
			C194.06,96.43,192.34,98.09,189.99,98.08z"/>
		<path d="M241.64,98.1c-2.32-0.04-4.04-1.73-4.03-3.94c0.02-2.24,1.79-3.98,4.04-3.94c2.23,0.03,4.04,1.81,4.05,3.99
			C245.72,96.41,243.91,98.14,241.64,98.1z"/>
		<path d="M240.37,322.08c2.71-4.84,4.46-9.97,8.99-13.34C251.14,313.73,246.44,320.83,240.37,322.08z"/>
		<path d="M191.12,322.03c-5.96-1.11-10.57-8.25-8.77-13.24C184.67,310.17,188.77,316.32,191.12,322.03z"/>
		<path d="M141.39,157.98c0.03,2.18-1.44,3.73-3.62,3.8c-2.2,0.07-3.8-1.44-3.8-3.56c0-2.11,1.6-3.71,3.72-3.71
			C139.8,154.5,141.37,155.98,141.39,157.98z"/>
		<path d="M297.71,158.28c0,2.01-1.58,3.53-3.63,3.51c-2.06-0.02-3.65-1.7-3.61-3.81c0.04-1.98,1.65-3.53,3.67-3.53
			C296.18,154.46,297.71,156.09,297.71,158.28z"/>
		<path d="M244.64,239.77c-1.79,0.03-3.27-1.34-3.35-3.11c-0.09-1.93,1.91-3.93,3.92-3.93c1.68,0,3.02,1.36,3.08,3.11
			C248.36,237.77,246.53,239.73,244.64,239.77z"/>
	</g>
</g>
</svg>
