<?xml version="1.0" encoding="utf-8"?>
<!-- Generator: Adobe Illustrator 24.1.1, SVG Export Plug-In . SVG Version: 6.00 Build 0)  -->
<svg version="1.1" id="Layer_1" xmlns="http://www.w3.org/2000/svg" xmlns:xlink="http://www.w3.org/1999/xlink" x="0px" y="0px"
	 viewBox="75 40 281 351" style="enable-background:new 0 0 432 432;" xml:space="preserve">
<g fill="FRAME_COLOR">
	<path d="M311.24,314.68c-0.02,9.13-4.18,15.26-11.27,17.11c-12.08,3.16-21.78-4.95-21.13-17.66c0.61-12,9.62-18.71,21.08-15.69
		c6.25,1.65,10.53,6.93,11.18,13.81C311.2,313.23,311.22,314.22,311.24,314.68z M303.48,314.97c-0.53-2.89-0.84-5.84-1.65-8.64
		c-1.1-3.81-3.64-5.72-6.91-5.76c-3.27-0.04-5.76,1.86-6.97,5.67c-1.93,6.08-1.73,12.21,0.3,18.23c1.15,3.42,3.72,5.18,6.94,5.15
		c3.18-0.03,5.64-1.84,6.63-5.46C302.62,321.22,302.93,318.13,303.48,314.97z"/>
	<path d="M320.72,307.36c0,6.97-0.04,13.55,0.06,20.14c0.01,0.72,0.8,1.52,1.39,2.12c0.55,0.56,1.31,0.91,1.82,1.83
		c-3.25,0-6.49,0-10.02,0c0.34-0.52,0.45-0.94,0.69-1.04c2.52-0.99,2.71-3.04,2.7-5.36c-0.06-6.88-0.05-13.77,0.03-20.65
		c0.03-2.25-0.4-4.05-2.86-4.72c-0.17-0.05-0.33-0.24-0.44-0.4c-0.07-0.1-0.05-0.27-0.13-0.84c3.06,0,6.09-0.07,9.1,0.07
		c0.51,0.02,1.05,0.86,1.45,1.41c4.19,5.72,8.35,11.47,12.53,17.2c0.73,1,1.48,1.99,2.66,2.86c0-2.9,0.01-5.81,0-8.71
		c-0.01-2.6-0.1-5.2-0.08-7.8c0.01-1.73-0.54-2.99-2.27-3.6c-0.41-0.15-0.72-0.6-1.53-1.3c3.8,0,6.93,0,10.06,0
		c0.25,0.31,0.5,0.63,0.75,0.94c-0.48,0.11-0.96,0.2-1.44,0.33c-2.08,0.55-2.55,2.01-2.54,4c0.06,8.36,0.01,16.72,0,25.08
		c0,0.89,0,1.78,0,2.52c-2.81,0.92-4.46,0.12-5.97-2.05c-4.94-7.08-10.08-14.02-15.15-21.02
		C321.33,308.1,321.1,307.84,320.72,307.36z"/>
	<path d="M131.35,331.54c-3.89,0-7.13,0-10.37,0c-0.09-0.13-0.18-0.27-0.28-0.4c0.49-0.42,0.93-0.97,1.5-1.24
		c1.45-0.7,2.01-1.78,1.99-3.37c-0.07-7.59-0.1-15.18-0.1-22.77c0-1.9-0.69-3.24-2.58-3.87c-0.42-0.14-0.75-0.56-1.12-0.85
		c0.07-0.21,0.13-0.42,0.2-0.63c2.98,0,5.96-0.08,8.93,0.07c0.56,0.03,1.16,0.92,1.6,1.52c4.44,6.07,8.85,12.15,13.28,18.23
		c0.45,0.61,0.93,1.2,1.65,2.12c0.09-0.89,0.18-1.4,0.18-1.91c-0.01-4.71-0.1-9.42-0.03-14.13c0.03-2.17-0.3-3.92-2.68-4.6
		c-0.23-0.07-0.41-0.34-0.57-0.55c-0.07-0.09-0.01-0.27-0.01-0.54c3.28,0,6.53,0,10.45,0c-0.84,0.69-1.13,1.09-1.5,1.2
		c-2.15,0.64-2.63,2.18-2.61,4.22c0.06,8.29,0.04,16.59,0.05,24.88c0,0.89,0,1.78,0,2.59c-2.79,0.69-4.5,0.07-6.08-2.25
		c-4.66-6.85-9.63-13.49-14.49-20.21c-0.36-0.5-0.75-0.99-1.38-1.81c-0.07,0.96-0.15,1.54-0.15,2.12c0.01,5.27,0.12,10.55,0,15.81
		c-0.06,2.44,0.54,4.26,2.9,5.26C130.41,330.54,130.61,330.85,131.35,331.54z"/>
	<path d="M106.41,331.37c0.17-0.27,0.29-0.7,0.51-0.76c2.75-0.82,2.31-2.57,1.54-4.62c-1.6-4.28-1.54-4.3-6.11-4.3
		c-1.69,0-3.37,0-5.06,0c-0.14,0-0.28-0.01-0.42,0c-3.47,0.47-2.28,3.82-3.49,5.7c-0.88,1.36,0.28,2,1.27,2.58
		c0.58,0.34,1.15,0.69,1.62,1.5c-3.32,0-6.65,0-10.2,0c0.2-0.41,0.29-1.01,0.59-1.15c1.85-0.85,2.53-2.52,3.2-4.24
		c3.35-8.57,6.75-17.11,10.09-25.68c0.46-1.17,0.8-2.1,2.42-2.02c1.64,0.08,2.83,0.13,3.54,2.04c3.01,8.09,6.22,16.11,9.3,24.18
		c0.98,2.56,1.76,5.21,5.13,6.04c-0.17,0.25-0.34,0.49-0.51,0.74C115.41,331.37,110.99,331.37,106.41,331.37z M96.26,319.01
		c3.27,0,6.25,0,9.5,0c-1.53-4.12-3-8.1-4.7-12.69C99.31,310.92,97.82,314.87,96.26,319.01z"/>
	<path d="M196.07,71.29c-4.24,1.22-8.55,2.24-12.71,3.69c-11.97,4.17-22.2,11.04-30.88,20.28c-12.28,13.08-20.95,28.06-24.6,45.8
		c-3.99,19.38-1.14,37.89,6.9,55.71c2.3,5.11,5.26,9.92,7.91,14.87c0.32,0.59,0.63,1.17,0.54,2.04c-1.2-1.58-2.51-3.09-3.57-4.75
		c-7.02-10.94-12.08-22.7-14.16-35.58c-4.52-27.92,2.69-52.55,20.95-74.1c8.6-10.16,18.68-18.34,31.09-23.22
		c5.89-2.32,12.18-3.63,18.29-5.4C195.91,70.84,195.99,71.07,196.07,71.29z"/>
	<path d="M304.85,176.68c-5.08,31.96-23.05,53.65-52.84,65.7c-28.94,11.71-56.01,7.55-81.37-10.03
		c25.97,16.15,53.25,19.36,81.7,7.56C280.81,228.1,298.36,206.93,304.85,176.68z"/>
	<path d="M211.3,354.97c1.67-4.49,3.19-8.41,4.57-12.38c0.51-1.46,1.19-2.22,2.84-2.04c1.37,0.15,2.77,0.03,4.31,0.19
		c-2.1,0.89-1.82,2.6-1.8,4.25c0.03,4,0.08,8.01,0,12.01c-0.04,1.71,0.09,3.19,1.87,4.16c-2.46,0-4.92,0-6.92,0
		c0.26-1.52,0.72-3.17,0.79-4.83c0.13-3.06,0.04-6.13-0.44-9.34c-0.62,1.43-1.28,2.83-1.85,4.28c-1.16,2.93-2.25,5.9-3.44,8.82
		c-0.2,0.5-0.77,1.17-1.17,1.17c-0.42,0-1.02-0.63-1.23-1.12c-1.89-4.37-3.72-8.76-5.87-13.09c0.49,4.69-1.51,9.61,1.38,14.14
		c-1.7,0-3.67,0-5.63,0c2.81-1.27,1.99-3.75,2-5.94c0.02-3.23,0.01-6.46,0.01-9.69c0-3.04,0.01-3.04-2.77-4.97
		c2.8,0,5.05-0.1,7.28,0.08c0.46,0.04,0.96,1.09,1.23,1.77C208.03,346.41,209.54,350.4,211.3,354.97z"/>
	<path d="M125.89,127.75c-9.1-9.29-9.25-25.53-3.47-33.12c6.8,5.71,9.86,22.07,5.67,31.26c-0.63-3.3-1.15-6.39-1.83-9.44
		c-0.69-3.07-1.54-6.1-2.32-9.15c-0.17,0.01-0.34,0.03-0.52,0.04c0,2.21-0.12,4.43,0.03,6.63c0.16,2.23,0.54,4.46,0.94,6.66
		C124.81,122.9,125.34,125.14,125.89,127.75z"/>
	<path d="M187.89,70.93c4.85-4.14,9.68-8.25,14.51-12.37c-0.15-0.18-0.29-0.37-0.44-0.55c-6.66,2.78-12.13,7.34-17.53,11.97
		c1.14-9.35,17.02-20.24,28.22-19.32C211.66,58.65,199.35,68.74,187.89,70.93z"/>
	<path d="M142.4,100.16c0.71-5.63,1.42-11.25,2.11-16.89c0.07-0.55,0.01-1.11-0.2-1.7c-2.92,6.25-3.96,12.93-4.51,19.78
		c-5.05-7.97-1.71-26.63,7.31-32.92C151.64,76.4,149.17,92.88,142.4,100.16z"/>
	<path d="M163.14,81.35c2.09-6,4.1-11.8,6.12-17.59c-0.23-0.09-0.46-0.17-0.69-0.26c-3.94,5.59-6.31,11.9-8.31,18.3
		c-4.39-7.11,4.98-26.68,14.35-29.69C177.29,60.61,171.37,75.78,163.14,81.35z"/>
	<path d="M107.13,126.76c8.58,3.43,16.28,17.35,15.14,27.42c-3.14-5.45-6.19-10.74-9.25-16.04c-0.19,0.11-0.39,0.21-0.58,0.32
		c1.37,7.12,5.52,12.98,9.02,19.23C112.29,154.49,104.89,138.53,107.13,126.76z"/>
	<path d="M192.98,76.38c6.37,1.29,12.74,2.57,19.11,3.86c0.04-0.17,0.09-0.34,0.13-0.51c-5.65-2.84-11.61-4.73-18.08-5.53
		c7.52-5.11,26.38,1.36,30.89,10.39C217.29,87.73,198.88,83,192.98,76.38z"/>
	<path d="M306.75,141.33c6.23,7.15,5.88,24.96-0.81,31.28c0.88-6.6,1.58-12.9,0.31-19.23c-2.15,6.4-1.92,13.14-2.72,19.97
		C298.52,164.25,300.37,146.29,306.75,141.33z"/>
	<path d="M169.01,84.76c9.59-5.67,24.87-2.95,31.73,5.28c-7.21,4.19-26.55,2.48-32.33-2.86c3.21,0.2,6.41,0.49,9.62,0.59
		c3.19,0.1,6.39,0.02,9.61-0.21C181.78,85.43,175.66,84.81,169.01,84.76z"/>
	<path d="M148.06,134.43c-0.06,9.75-9,22.65-17.64,25.54c3.5-5.48,6.97-10.89,10.43-16.3c-0.19-0.13-0.38-0.26-0.56-0.39
		c-4.69,4.1-8.56,8.91-11.96,14.33C128,147.64,138.16,135.74,148.06,134.43z"/>
	<path d="M298.45,284.94c-14.9,0-29.8,0-44.71,0c-0.42,0-0.89,0.11-1.25-0.03c-0.5-0.19-0.92-0.58-1.38-0.88
		c0.48-0.35,0.92-0.79,1.45-1.03c0.35-0.16,0.83-0.04,1.25-0.04c29.87,0,59.75,0,89.62,0c0.56,0,1.16-0.11,1.68,0.04
		c0.45,0.14,0.79,0.59,1.19,0.9c-0.42,0.35-0.79,0.88-1.26,0.99c-0.73,0.17-1.54,0.06-2.31,0.07c-14.76,0-29.52,0-44.28,0
		C298.45,284.96,298.45,284.95,298.45,284.94z"/>
	<path d="M148.86,105.35c5.85-1.27,11.71-2.53,17.56-3.8c-0.04-0.32-0.08-0.64-0.12-0.96c-5.71,0.44-11.41,0.88-16.9,1.31
		c6.07-6.87,22.96-7.76,30.51-1.14C170.08,106.41,159.93,108.65,148.86,105.35z"/>
	<path d="M296.33,243.22c-7.4,4.79-23.11,2.98-31.12-3.58c6.35,0.67,12.74,1.34,19.13,2.01c0.06-0.33,0.13-0.66,0.19-1
		c-5.8-1.38-11.6-2.76-17.21-4.09C275.08,232.47,292.11,236.28,296.33,243.22z"/>
	<path d="M132.96,284.97c-15.04,0-30.07,0-45.11,0c-0.49,0-1.02,0.1-1.47-0.05c-0.38-0.12-0.67-0.52-1-0.79
		c0.35-0.34,0.64-0.84,1.05-0.99c0.5-0.18,1.11-0.08,1.67-0.08c30.14-0.04,60.29-0.07,90.43-0.1c0.49,0,1.05-0.1,1.45,0.1
		c0.34,0.16,0.64,0.67,0.69,1.07c0.03,0.24-0.42,0.69-0.72,0.77c-0.53,0.14-1.11,0.06-1.68,0.06
		C163.18,284.96,148.07,284.96,132.96,284.97C132.96,284.96,132.96,284.97,132.96,284.97z"/>
	<path d="M244.65,248.75c5.99,1.75,11.81,3.45,17.63,5.16c0.08-0.22,0.16-0.44,0.24-0.66c-4.88-2.96-10.11-5.18-15.9-6.87
		c9.66-2.51,24.54,3.56,27.77,11.11C264.32,260.27,251.46,257.35,244.65,248.75z"/>
	<path d="M134.96,129.13c5.2-2.94,10.5-5.94,15.8-8.94c-0.17-0.34-0.33-0.68-0.5-1.02c-5.14,2.09-10.28,4.17-15.23,6.19
		c3.59-8.11,18.74-13.65,27.43-9.82C158.03,123.2,143.27,130.45,134.96,129.13z"/>
	<path d="M283.9,193.31c0.48,5.83,0.96,11.66,1.46,17.7c-5.88-6.13-7.74-20.45-3.59-29.81c6.4,4.77,12.11,19.41,6.6,28.65
		c-1.11-5.4-2.28-11.06-3.45-16.73C284.58,193.18,284.24,193.24,283.9,193.31z"/>
	<path d="M282.73,227.3c6.26-0.62,12.32-0.59,18.04-3.07c-5.67,0-11.34,0-16.79,0c4.66-5.65,23.14-6.46,29.64-1.05
		C306.86,228.86,294.04,232.74,282.73,227.3z"/>
	<path d="M306.09,191.33c3.53-3.59,7.87-8.01,12.22-12.43c-0.3-0.34-0.6-0.68-0.9-1.02c-2.11,1.48-4.25,2.91-6.31,4.45
		c-2.13,1.59-4.19,3.28-6.2,4.87c1.56-8.08,13.59-18.09,21.26-17.6C325.5,179.33,314.9,190.13,306.09,191.33z"/>
	<path d="M310.98,203.74c-4.97,1.64-9.94,3.27-14.73,4.85c3.02-7,17.7-11.74,26.13-8.21c-5.97,8.29-17.23,13.82-27.72,11.81
		c6-2.05,11.54-4.42,16.56-7.83C311.14,204.16,311.06,203.95,310.98,203.74z"/>
	<path d="M235.01,242.97c3.4-3.84,6.85-7.74,10.31-11.65c-0.15-0.15-0.31-0.31-0.46-0.46c-5.08,3.05-9.24,7.23-13.44,11.74
		c0.4-8.41,13.47-20.19,21.86-20.05C252.68,231.51,243.99,241.19,235.01,242.97z"/>
	<path d="M183.7,361.23c-1.98,0-3.96,0-6.08,0c3.61-3.86,4.09-8.93,6.1-13.31c0.9-1.97,1.4-4.12,2.31-6.08
		c0.28-0.61,1.31-1.21,1.99-1.19c0.67,0.02,1.68,0.67,1.92,1.28c1.94,4.95,3.71,9.98,5.6,14.95c0.55,1.45,1.35,2.81,2.08,4.29
		c-2.19,0-4.59,0-6.93,0c1.05-1.39,0.95-4.44-0.32-5.83c-0.24-0.26-0.71-0.41-1.08-0.45c-0.91-0.08-1.82-0.07-2.73-0.07
		c-3.07,0-4.24,0.98-4.34,4.08C182.18,359.63,183.13,360.39,183.7,361.23z M189.6,353.16c-0.85-2.44-1.65-4.71-2.45-6.98
		c-0.15,0.02-0.3,0.05-0.45,0.07c-0.83,2.26-1.65,4.52-2.52,6.91C186.1,353.16,187.75,353.16,189.6,353.16z"/>
	<path d="M178.59,346.28c-1.08-3.65-3.65-4.55-6.91-4.34c-1.23,0.08-1.76,0.5-1.71,1.77c0.07,2.02,0.02,4.04,0.02,6.04
		c2.88,0.74,4.93,0.27,5.99-2.56c0,2.48,0,4.96,0,7.44c-0.18,0.18-0.37,0.36-0.55,0.54c-0.33-3.59-2.37-4.11-5.29-3.46
		c0,2.36-0.17,4.81,0.1,7.21c0.08,0.75,1.34,1.36,2.2,2.17c-2.88,0-5.76,0-9.17,0c2.34-0.98,2.39-2.65,2.35-4.44
		c-0.08-3.87-0.05-7.73-0.06-11.6c-0.01-2.68-0.01-2.68-2.26-4.33c5.47,0,10.65,0,15.88,0c0,1.75,0,3.46,0,5.17
		C178.98,346.03,178.78,346.16,178.59,346.28z"/>
	<path d="M257.06,340.79c-2.26,0.95-2.03,2.15-1.21,3.54c1.2,2.02,2.34,4.08,3.73,6.53c1.45-2.76,2.8-5.05,3.81-7.48
		c0.24-0.57-0.71-1.63-1.16-2.57c1.84,0,4.07,0,6.35,0c-3.88,3.05-5.53,7.6-7.74,11.74c-1.29,2.42-0.19,6.85,1.83,8.6
		c-3.03,0-5.83,0-8.63,0c2.17-0.82,2.41-2.56,2.33-4.64c-0.08-1.92-0.22-3.69-1.36-5.38c-1.37-2.03-2.4-4.29-3.68-6.38
		c-0.82-1.34-1.85-2.56-2.88-3.96C251.03,340.79,253.73,340.79,257.06,340.79z"/>
	<path d="M311.54,347.76c10.67,0,21.35,0,32.02,0c0.63,0,1.27-0.03,1.89,0.07c0.26,0.04,0.71,0.45,0.67,0.58
		c-0.1,0.33-0.37,0.79-0.65,0.86c-0.6,0.15-1.25,0.1-1.88,0.1c-21.42-0.01-42.83-0.01-64.25-0.07c-0.91,0-1.83-0.51-2.74-0.79
		c0.9-0.26,1.81-0.73,2.71-0.74c10.74-0.05,21.49-0.03,32.23-0.03C311.54,347.75,311.54,347.75,311.54,347.76z"/>
	<path d="M120.22,347.76c10.82,0,21.63,0,32.45,0c0.56,0,1.14-0.04,1.68,0.08c0.25,0.05,0.59,0.43,0.59,0.66
		c0.01,0.25-0.29,0.68-0.53,0.74c-0.53,0.14-1.11,0.13-1.67,0.13c-21.7-0.01-43.4-0.02-65.11-0.03c-0.07,0-0.15,0.02-0.21,0
		c-0.67-0.29-1.34-0.59-2.01-0.89c0.64-0.23,1.29-0.67,1.93-0.67c10.53-0.04,21.07-0.03,31.6-0.04c0.42,0,0.84,0,1.26,0
		C120.22,347.75,120.22,347.75,120.22,347.76z"/>
	<path d="M235.11,340.71c2.27,0,5.01,0,7.74,0c-2.12,0.88-2.1,2.6-2.08,4.39c0.06,4.14,0.1,8.28,0.03,12.42
		c-0.03,1.78,0.55,2.48,2.4,2.53c2.85,0.08,4.95-0.72,5.86-3.64c0.13-0.4,0.49-0.73,0.74-1.1c0.19,0.04,0.38,0.09,0.57,0.13
		c-0.14,1.87-0.27,3.75-0.42,5.77c-5.21,0-10.27,0-15.34,0c1.88-0.83,1.82-2.4,1.8-4.03c-0.05-4.21,0.07-8.43-0.09-12.63
		C236.3,343.31,235.57,342.09,235.11,340.71z"/>
	<path d="M232.81,340.75c-2.3,0.85-1.94,2.76-1.93,4.53c0.03,3.79,0.02,7.57,0.03,11.36c0,2.89,0,2.89,2.3,4.54
		c-2.97,0-5.74,0-8.51,0c1.99-0.88,1.97-2.52,1.94-4.25c-0.07-3.93,0.04-7.86-0.12-11.78c-0.06-1.45-0.65-2.88-1.02-4.4
		C227.56,340.75,230.18,340.75,232.81,340.75z"/>
	<path d="M298.78,186.32c-6.05-2.81-9.31-9.33-8.09-15.86C295.09,172.48,299.2,180.45,298.78,186.32z"/>
	<path d="M194.49,373.23c-1.34-0.44-2.65-0.87-4.54-1.5c0.21,1.72,0.34,2.77,0.46,3.82c0.87-0.13,1.73-0.26,2.73-0.41
		c-0.03,0.61-0.08,1.52-0.12,2.21c-0.88-0.4-1.71-0.77-2.54-1.15c-0.2,0.15-0.39,0.3-0.59,0.46c0.27,1.2,0.16,3.03,0.89,3.49
		c1.61,0.99,3.16,0.1,4.3-1.59c-0.12,0.83-0.24,1.66-0.38,2.58c-2.52,0-4.89,0-7.12,0c0-3.23,0-6.41,0-9.71c1.44,0,3.12-0.02,4.8,0
		C194.52,371.45,194.52,371.46,194.49,373.23z"/>
	<path d="M230.68,376.53c-0.07,0.6-0.06,1.39-0.26,2.12c-0.41,1.56-1.36,2.63-3.09,2.66c-1.66,0.03-3.02-0.77-3.33-2.36
		c-0.31-1.6-0.35-3.37,0-4.95c0.37-1.65,1.64-2.8,3.58-2.6c1.93,0.2,2.76,1.48,2.98,3.26C230.62,375.23,230.63,375.79,230.68,376.53
		z M228.72,376.38c-0.13-1.09-0.15-2.17-0.42-3.17c-0.11-0.4-0.72-0.85-1.16-0.93c-0.29-0.05-1,0.52-1,0.82
		c-0.04,2.21-0.01,4.43,0.15,6.63c0.02,0.31,0.81,0.74,1.26,0.76c0.27,0.02,0.75-0.62,0.83-1.02
		C228.58,378.44,228.62,377.38,228.72,376.38z"/>
	<path d="M196.09,380.91c0-0.9,0-1.81,0-3.18c0.77,1.01,1.13,1.97,1.77,2.21c0.82,0.31,2.22,0.43,2.73-0.05
		c1.07-1,0.15-1.87-0.88-2.4c-0.68-0.36-1.58-0.48-2.06-1c-0.73-0.8-1.77-2.02-1.58-2.78c0.24-0.94,1.49-1.94,2.51-2.29
		c1.03-0.35,2.33,0.07,3.68,0.16c-0.09,0.85-0.17,1.57-0.32,2.84c-0.51-0.92-0.64-1.48-0.98-1.67c-0.6-0.35-1.35-0.7-2-0.63
		c-0.44,0.05-1.18,0.87-1.12,1.24c0.09,0.55,0.69,1.1,1.2,1.48c0.55,0.41,1.27,0.59,1.89,0.91c1.43,0.72,2.49,1.69,1.91,3.48
		c-0.56,1.76-1.97,2.28-3.65,2.19C198.18,381.33,197.16,381.08,196.09,380.91z"/>
	<path d="M209.41,381.09c-0.89,0-2.07,0-2.91,0c0.14-2.89,0.27-5.78,0.41-8.66c-0.23-0.15-0.46-0.3-0.68-0.44
		c-0.82,0.62-1.65,1.25-2.52,1.91c0-0.61,0-1.41,0-2.34c2.81,0,5.65,0,8.59,0c0,0.91,0,1.73,0,2.57c-0.92-0.73-1.83-1.45-2.9-2.29
		C209.41,375.23,209.41,378.08,209.41,381.09z"/>
	<path d="M218.51,379.73c1.59-0.25,2.82-0.44,4.12-0.64c0.03,1.39-0.51,2.31-2.42,2.09c-1.24-0.14-2.51-0.03-4.38-0.03
		c0.78-1.17,1.26-2,1.86-2.75c0.78-0.98,1.83-1.79,2.41-2.87c0.41-0.75,0.32-1.84,0.22-2.75c-0.02-0.23-1.23-0.64-1.36-0.5
		c-0.57,0.64-0.94,1.45-1.46,2.34c-1.22-0.07-1.61-0.71-0.84-1.89c0.89-1.36,3.46-1.75,4.94-0.68c1.56,1.14,1.23,2.61,0.33,3.88
		C221.05,377.16,219.91,378.2,218.51,379.73z"/>
	<path d="M228.94,73.3c-0.9-1.15-1.99-1.99-1.85-2.5c0.21-0.77,1.21-1.69,1.99-1.81c0.5-0.08,1.63,1.11,1.7,1.81
		C230.84,71.43,229.83,72.16,228.94,73.3z"/>
	<path d="M198.41,237.1c-1.23,0.85-1.99,1.78-2.54,1.67c-0.75-0.15-1.34-1.1-2-1.71c0.59-0.58,1.17-1.61,1.78-1.63
		C196.38,235.41,197.13,236.27,198.41,237.1z"/>
	<path d="M211.54,239.97c-1.26,0.82-2.04,1.7-2.58,1.58c-0.75-0.17-1.32-1.1-1.97-1.71c0.6-0.58,1.19-1.6,1.81-1.62
		C209.51,238.21,210.24,239.08,211.54,239.97z"/>
	<path d="M222.26,72.72c-0.93-1.11-1.96-1.84-1.85-2.32c0.17-0.74,1.02-1.65,1.75-1.84c0.45-0.12,1.69,0.92,1.72,1.49
		C223.92,70.75,223.06,71.49,222.26,72.72z"/>
	<path d="M304.81,129.6c-1.31,0.81-2.08,1.65-2.77,1.59c-0.56-0.04-1.45-1.18-1.43-1.82c0.02-0.59,1.05-1.63,1.61-1.61
		C302.91,127.78,303.59,128.68,304.81,129.6z"/>
	<path d="M135.99,172.48c-1.18,0.84-1.93,1.77-2.46,1.66c-0.73-0.15-1.64-1.01-1.82-1.73c-0.11-0.44,1.01-1.66,1.59-1.67
		C134.01,170.73,134.74,171.62,135.99,172.48z"/>
	<path d="M244.75,73.18c-1.25,0.85-1.94,1.69-2.55,1.64c-0.68-0.06-1.3-0.93-1.94-1.45c0.54-0.63,1.04-1.72,1.63-1.76
		C242.6,71.55,243.38,72.37,244.75,73.18z"/>
	<path d="M189.51,232.43c0.82,1.28,1.6,2,1.66,2.76c0.04,0.51-1.17,1.64-1.44,1.53c-0.77-0.3-1.69-1.01-1.88-1.73
		C187.71,234.47,188.66,233.67,189.51,232.43z"/>
	<path d="M204.87,238.78c-1.18,0.85-1.93,1.78-2.43,1.66c-0.74-0.18-1.31-1.1-1.95-1.7c0.56-0.58,1.11-1.61,1.69-1.63
		C202.89,237.1,203.61,237.94,204.87,238.78z"/>
	<path d="M248.58,72.66c0.74,1.19,1.57,1.95,1.53,2.65c-0.04,0.56-1.31,1.57-1.76,1.44c-0.71-0.2-1.55-1.14-1.66-1.87
		C246.6,74.37,247.65,73.69,248.58,72.66z"/>
	<path d="M183.49,229.87c0.79,1.08,1.69,1.77,1.64,2.38c-0.05,0.62-1.15,1.7-1.6,1.62c-0.72-0.14-1.65-1-1.8-1.71
		C181.62,231.67,182.64,230.92,183.49,229.87z"/>
	<path d="M139.39,185.28c-1.14,0.84-1.82,1.73-2.41,1.67c-0.65-0.07-1.64-0.99-1.67-1.58c-0.03-0.63,0.9-1.83,1.41-1.82
		C137.44,183.55,138.15,184.42,139.39,185.28z"/>
	<path d="M306.7,136.16c-1.21,0.73-1.95,1.54-2.57,1.46c-0.59-0.08-1.52-1.13-1.46-1.67c0.06-0.6,1.05-1.53,1.65-1.55
		C304.94,134.38,305.59,135.29,306.7,136.16z"/>
	<path d="M145.16,200.71c0.87,1.2,1.74,1.88,1.78,2.61c0.03,0.58-0.98,1.2-1.52,1.8c-0.6-0.67-1.46-1.27-1.7-2.05
		C143.57,202.62,144.42,201.86,145.16,200.71z"/>
	<path d="M215.59,238.01c0.82,1.22,1.76,2.05,1.6,2.51c-0.24,0.71-1.16,1.41-1.93,1.62c-0.35,0.1-1.49-1.04-1.44-1.54
		C213.89,239.88,214.71,239.22,215.59,238.01z"/>
	<path d="M224.66,240.68c-1.2,0.77-1.91,1.6-2.5,1.52c-0.66-0.09-1.2-1.01-1.79-1.57c0.62-0.59,1.18-1.53,1.89-1.66
		C222.78,238.87,223.51,239.81,224.66,240.68z"/>
	<path d="M232.93,71.73c1.37-0.84,2.13-1.67,2.84-1.63c0.57,0.03,1.1,1.1,1.65,1.71c-0.62,0.55-1.2,1.46-1.87,1.53
		C234.93,73.4,234.22,72.57,232.93,71.73z"/>
	<path d="M142.11,194.81c0.9,1.21,1.79,1.89,1.84,2.62c0.03,0.54-1.05,1.61-1.61,1.59c-0.61-0.01-1.58-0.95-1.68-1.6
		C140.55,196.82,141.37,196.06,142.11,194.81z"/>
	<path d="M276.78,89.04c0.85,1.12,1.76,1.79,1.74,2.43c-0.01,0.63-0.97,1.23-1.51,1.85c-0.61-0.58-1.59-1.09-1.71-1.75
		C275.2,90.96,276.05,90.2,276.78,89.04z"/>
	<path d="M299.64,125.27c-0.45-0.75-1.2-1.48-1.23-2.24c-0.02-0.53,0.95-1.1,1.48-1.65c0.57,0.68,1.41,1.28,1.62,2.06
		c0.13,0.47-0.69,1.21-1.09,1.83C300.16,125.27,299.9,125.27,299.64,125.27z"/>
	<path d="M257.14,77.86c-1.13,0.66-1.91,1.45-2.36,1.3c-0.76-0.26-1.3-1.12-1.94-1.73c0.64-0.58,1.3-1.63,1.93-1.61
		C255.42,75.83,256.06,76.87,257.14,77.86z"/>
	<path d="M296.86,119.75c-0.65-1.26-1.36-2.02-1.29-2.69c0.06-0.56,1.21-1.54,1.57-1.42c0.69,0.23,1.56,1.1,1.59,1.73
		C298.76,117.98,297.8,118.62,296.86,119.75z"/>
	<path d="M260.27,78c0.88,1.21,1.67,1.87,1.8,2.64c0.07,0.43-1.03,1.54-1.46,1.47c-0.69-0.12-1.63-0.88-1.76-1.51
		C258.73,80.01,259.55,79.23,260.27,78z"/>
	<path d="M294.01,109.05c0.8,1.1,1.68,1.79,1.63,2.4c-0.05,0.62-1.02,1.17-1.59,1.75c-0.59-0.66-1.42-1.25-1.66-2.02
		C292.27,110.78,293.21,110.05,294.01,109.05z"/>
	<path d="M139.22,188.72c0.88,1.22,1.77,1.92,1.72,2.53c-0.05,0.63-1.02,1.18-1.59,1.77c-0.57-0.58-1.49-1.1-1.59-1.75
		C137.67,190.68,138.47,189.95,139.22,188.72z"/>
	<path d="M137.6,179.17c-1.09,0.72-1.85,1.57-2.29,1.43c-0.74-0.24-1.29-1.1-1.92-1.7c0.61-0.55,1.21-1.5,1.84-1.52
		C135.84,177.36,136.5,178.29,137.6,179.17z"/>
	<path d="M149.26,206.56c0.82,1.25,1.61,1.92,1.61,2.6c-0.01,0.52-1.01,1.42-1.57,1.43c-0.56,0-1.58-0.89-1.59-1.41
		C147.69,208.5,148.47,207.8,149.26,206.56z"/>
	<path d="M179.98,228.85c-1.11,0.83-1.84,1.73-2.26,1.61c-0.76-0.23-1.52-0.98-1.87-1.71c-0.13-0.26,0.96-1.59,1.43-1.55
		C178.04,227.25,178.74,228.03,179.98,228.85z"/>
	<path d="M266.16,81.31c0.8,1.11,1.69,1.82,1.62,2.41c-0.07,0.61-1.14,1.57-1.69,1.51c-0.61-0.06-1.43-1.03-1.56-1.72
		C264.43,83.02,265.34,82.35,266.16,81.31z"/>
	<path d="M292.94,106.11c-1.24,0.79-1.99,1.65-2.58,1.55c-0.63-0.11-1.4-1.08-1.52-1.77c-0.07-0.41,1.01-1.42,1.57-1.42
		C291.09,104.48,291.74,105.29,292.94,106.11z"/>
	<path d="M274,87.62c-1.07,0.71-1.84,1.56-2.25,1.41c-0.74-0.27-1.25-1.14-1.86-1.76c0.62-0.53,1.22-1.47,1.86-1.49
		C272.34,85.77,272.96,86.72,274,87.62z"/>
	<path d="M286.25,98.39c0.82,1.21,1.6,1.88,1.61,2.54c0,0.55-1.03,1.62-1.42,1.54c-0.69-0.14-1.64-0.9-1.75-1.53
		C284.58,100.36,285.45,99.61,286.25,98.39z"/>
	<path d="M171.93,227.54c-0.83-1.14-1.74-1.84-1.66-2.41c0.09-0.66,1.05-1.19,1.63-1.78c0.55,0.62,1.41,1.17,1.56,1.87
		C173.56,225.71,172.71,226.41,171.93,227.54z"/>
	<path d="M210.22,255.02c-1.18,0.76-1.84,1.52-2.4,1.46c-0.62-0.07-1.55-0.85-1.61-1.4c-0.06-0.51,0.85-1.57,1.35-1.58
		C208.25,253.49,208.95,254.24,210.22,255.02z"/>
	<path d="M281.59,98.59c-0.76-1.18-1.55-1.87-1.54-2.54c0.01-0.51,1.03-1.01,1.6-1.51c0.54,0.61,1.38,1.17,1.52,1.86
		C283.27,96.88,282.39,97.55,281.59,98.59z"/>
	<path d="M219.3,60.16c0.77,1.17,1.57,1.86,1.47,2.38c-0.11,0.6-0.96,1.35-1.6,1.47c-0.44,0.08-1.54-0.87-1.49-1.25
		C217.78,62.03,218.48,61.39,219.3,60.16z"/>
	<path d="M203.53,253.69c-1.25,0.73-1.96,1.47-2.52,1.37c-0.6-0.1-1.06-1-1.58-1.55c0.57-0.5,1.12-1.34,1.73-1.39
		C201.73,252.07,202.36,252.86,203.53,253.69z"/>
	<path d="M194.69,254.12c-0.85-1.17-1.56-1.78-1.68-2.49c-0.06-0.36,1-1.33,1.44-1.26c0.65,0.1,1.54,0.79,1.69,1.38
		C196.25,252.23,195.44,252.95,194.69,254.12z"/>
	<path d="M184.23,246.89c-1.11,0.66-1.84,1.4-2.23,1.25c-0.67-0.25-1.12-1.06-1.67-1.64c0.54-0.42,1.11-1.2,1.63-1.16
		C182.57,245.38,183.15,246.11,184.23,246.89z"/>
	<path d="M252.98,66.2c0.83,1.12,1.53,1.71,1.69,2.43c0.07,0.33-1.05,1.33-1.44,1.24c-0.63-0.15-1.36-0.87-1.55-1.51
		C251.55,67.95,252.3,67.27,252.98,66.2z"/>
	<path d="M241.75,65.03c-0.64,0.34-1.3,0.98-1.9,0.93c-0.55-0.05-1.05-0.84-1.57-1.3c0.53-0.54,1.01-1.42,1.61-1.51
		c0.56-0.08,1.24,0.68,1.87,1.07C241.75,64.49,241.75,64.76,241.75,65.03z"/>
	<path d="M226.24,64.88c-0.81-1.11-1.65-1.77-1.56-2.26c0.11-0.61,0.93-1.33,1.57-1.49c0.36-0.09,1.34,0.84,1.38,1.36
		C227.66,63.08,226.95,63.72,226.24,64.88z"/>
	<path d="M190.39,249.35c-1.02,0.85-1.66,1.74-2.04,1.64c-0.72-0.19-1.28-0.95-1.91-1.47c0.5-0.49,0.96-1.33,1.5-1.37
		C188.55,248.09,189.22,248.73,190.39,249.35z"/>
	<path d="M212.3,256.03c1.09-0.78,1.75-1.6,2.31-1.54c0.58,0.06,1.07,0.98,1.6,1.52c-0.57,0.47-1.09,1.21-1.72,1.31
		C213.99,257.4,213.37,256.7,212.3,256.03z"/>
	<path d="M235.38,63.15c-1.04,0.78-1.64,1.57-2.12,1.5c-0.64-0.09-1.19-0.84-1.78-1.31c0.47-0.51,0.91-1.4,1.42-1.44
		C233.52,61.86,234.2,62.52,235.38,63.15z"/>
	<path d="M169.69,241.73c-0.68-1.02-1.47-1.71-1.36-2.15c0.16-0.6,0.99-1.35,1.58-1.4c0.46-0.03,1.42,0.93,1.4,1.41
		C171.27,240.2,170.47,240.77,169.69,241.73z"/>
	<path d="M177.49,244.04c-0.68,0.29-1.39,0.87-2.01,0.78c-0.53-0.08-1.32-0.94-1.31-1.44c0.01-0.49,0.94-1.41,1.36-1.35
		c0.72,0.1,1.36,0.81,2.04,1.26C177.53,243.55,177.51,243.79,177.49,244.04z"/>
	<path d="M311.88,127.76c-1.04,0.76-1.68,1.55-2.1,1.45c-0.65-0.16-1.15-0.92-1.71-1.43c0.47-0.51,0.93-1.42,1.41-1.43
		C310.11,126.33,310.74,127.03,311.88,127.76z"/>
	<path d="M309.36,134.79c0.96-0.78,1.5-1.21,2.04-1.65c0.5,0.63,1.14,1.21,1.43,1.93c0.09,0.22-0.88,1.23-1.24,1.17
		C310.92,136.11,310.35,135.47,309.36,134.79z"/>
	<path d="M280.63,86.34c1.13-0.69,1.74-1.37,2.26-1.3c0.58,0.08,1.07,0.84,1.59,1.3c-0.47,0.5-0.94,1.39-1.42,1.4
		C282.43,87.75,281.8,87.06,280.63,86.34z"/>
	<path d="M302.26,114.39c1.02-0.66,1.66-1.39,2.15-1.3c0.55,0.1,1.31,0.95,1.31,1.47c0,0.47-0.88,1.3-1.41,1.33
		C303.8,115.93,303.23,115.15,302.26,114.39z"/>
	<path d="M271.97,80.13c-0.8-1.05-1.54-1.62-1.61-2.26c-0.05-0.41,0.9-1.31,1.38-1.3c0.52,0.01,1.33,0.78,1.43,1.33
		C273.27,78.4,272.59,79.04,271.97,80.13z"/>
	<path d="M307.32,118.75c0.67,1.17,1.36,1.84,1.25,2.32c-0.14,0.6-0.95,1.05-1.47,1.56c-0.47-0.51-1.32-1.04-1.31-1.54
		C305.8,120.48,306.54,119.88,307.32,118.75z"/>
	<path d="M166.27,236.11c-1.2,0.54-1.91,1.15-2.41,1.01c-0.53-0.15-1.13-0.99-1.17-1.57c-0.03-0.38,0.97-1.26,1.32-1.17
		C164.68,234.55,165.21,235.25,166.27,236.11z"/>
	<path d="M294.92,96.53c-1.06,0.77-1.62,1.49-2.15,1.47c-0.55-0.03-1.43-0.73-1.49-1.22c-0.06-0.48,0.71-1.48,1.16-1.5
		C293.07,95.24,293.74,95.89,294.92,96.53z"/>
	<path d="M299.35,102.54c-1.12,0.66-1.85,1.4-2.23,1.24c-0.62-0.25-1.12-1.03-1.4-1.7c-0.07-0.17,0.93-1.15,1.33-1.08
		C297.7,101.11,298.26,101.77,299.35,102.54z"/>
	<path d="M161.02,231.37c-1.08,0.8-1.71,1.6-2.15,1.51c-0.62-0.13-1.11-0.92-1.66-1.42c0.43-0.46,0.86-1.29,1.29-1.29
		C159.15,230.16,159.81,230.74,161.02,231.37z"/>
	<path d="M248.67,66.22c-0.94,0.72-1.5,1.48-2,1.45c-0.57-0.03-1.1-0.77-1.65-1.2c0.5-0.56,0.91-1.4,1.52-1.59
		C246.95,64.75,247.65,65.54,248.67,66.22z"/>
	<path d="M261.61,71.2c-0.87,0.67-1.41,1.42-1.83,1.35c-0.61-0.1-1.12-0.78-1.67-1.22c0.47-0.51,0.89-1.38,1.41-1.44
		C260.04,69.83,260.66,70.57,261.61,71.2z"/>
	<path d="M301.03,106.17c0.63,1.04,1.3,1.66,1.23,2.18c-0.07,0.52-0.88,0.94-1.36,1.4c-0.48-0.51-1.27-0.99-1.34-1.55
		C299.5,107.71,300.29,107.13,301.03,106.17z"/>
	<path d="M287.97,93.38c-0.71-0.99-1.37-1.55-1.48-2.2c-0.06-0.37,0.99-1.34,1.16-1.25c0.63,0.3,1.3,0.86,1.56,1.48
		C289.35,91.73,288.62,92.4,287.97,93.38z"/>
	<path d="M265.68,72.49c0.7,0.84,1.4,1.32,1.49,1.91c0.06,0.4-0.91,1.39-1.11,1.31c-0.67-0.26-1.34-0.79-1.69-1.4
		C264.25,74.1,265.04,73.35,265.68,72.49z"/>
	<path d="M277.43,80.13c0.7,0.82,1.5,1.34,1.5,1.86c0,0.47-0.88,1.32-1.36,1.31c-0.5-0.01-1.23-0.79-1.38-1.35
		C276.1,81.57,276.83,80.97,277.43,80.13z"/>
	<g>
		<path d="M238.24,374.17c0.01,0.13,0.01,0.25,0.01,0.37c0,0.77-0.32,1.46-0.96,2.09l-3.65,3.49h4.46v0.85h-5.72v-0.86l4.22-4.06
			c0.53-0.52,0.77-1.08,0.73-1.68c-0.03-0.53-0.24-0.97-0.61-1.33c-0.38-0.36-0.83-0.54-1.35-0.55c-0.54,0-1.01,0.19-1.42,0.57
			c-0.4,0.38-0.6,0.84-0.6,1.37v0.31h-0.91v-0.31c0-0.79,0.29-1.46,0.88-2.02c0.59-0.55,1.28-0.82,2.07-0.82
			c0.75,0.01,1.39,0.25,1.93,0.74C237.85,372.82,238.16,373.43,238.24,374.17z"/>
		<path d="M245,380.03c-0.71,0.7-1.55,1.06-2.54,1.06c-0.92,0-1.71-0.31-2.38-0.94c-0.71-0.68-1.07-1.52-1.07-2.53
			c0-1,0.36-1.86,1.08-2.58l3.29-3.29h1.26l-2.28,2.28c1.02-0.06,1.89,0.24,2.61,0.91c0.72,0.67,1.09,1.51,1.09,2.52
			C246.06,378.47,245.71,379.33,245,380.03z M244.39,379.34c0.5-0.52,0.75-1.14,0.75-1.87c0-0.73-0.25-1.34-0.75-1.85
			c-0.49-0.48-1.08-0.72-1.77-0.72c-0.72,0-1.35,0.25-1.88,0.76c-0.56,0.54-0.84,1.21-0.84,1.99c0,0.75,0.27,1.37,0.8,1.86
			c0.48,0.44,1.05,0.66,1.72,0.66C243.21,380.17,243.86,379.89,244.39,379.34z"/>
	</g>
</g>
</svg>
