<?xml version="1.0" encoding="utf-8"?>
<!-- Generator: Adobe Illustrator 24.1.1, SVG Export Plug-In . SVG Version: 6.00 Build 0)  -->
<svg version="1.1" id="Layer_1" xmlns="http://www.w3.org/2000/svg" xmlns:xlink="http://www.w3.org/1999/xlink" x="0px" y="0px"
	 viewBox="52 49 327 333" style="enable-background:new 0 0 432 432;" xml:space="preserve">
<g>
	<g fill="FRAME_COLOR">
		<path d="M302.01,337.89c-2.08-7.17-7.71-9.71-14.24-10.75c-4.8-0.77-8.86-3-12.96-5.34c-1.59-0.91-3.26-2.1-5.43-0.67
			c7.07,3.26,10.86,8.62,10.19,16.35c-0.52,6.04-4.37,9.95-10.12,12.93c2-6.24,2.26-11.87-1.91-16.9c-2.69-3.25-7.48-6.3-11.52-7.12
			c-5.25,11.27-14.1,16.61-26.96,15.85c0.78,0.54,1.32,0.92,1.86,1.3c0.92,0.64,1.9,1.22,2.75,1.95c1.95,1.66,2.6,3.84,1.79,5.6
			c-0.82,1.77-2.52,2.4-5.28,1.92c-0.4-0.07-0.8-0.19-1.44-0.34c0.27,1.07,0.66,1.97,0.69,2.88c0.05,1.81,0.19,3.69-0.24,5.41
			c-0.95,3.7-3.08,4.54-6.59,2.78c-0.82,3.6-2.61,6.56-5.58,8.79c-0.94,0.71-1.57,0.77-2.56,0.04c-2.97-2.2-4.71-5.15-5.57-8.35
			c-1.64,0-3.68,0.6-4.51-0.14c-1.33-1.19-2.34-3.2-2.6-4.99c-0.28-1.98,0.43-4.11,0.72-6.25c-0.69,0.1-1.68,0.33-2.67,0.35
			c-3.46,0.09-5.39-2.86-3.61-5.83c0.9-1.49,2.48-2.6,3.81-3.8c0.6-0.54,1.37-0.9,2.29-1.49c-13.02,1.3-21.73-4.23-26.97-15.8
			c-5.2,1.45-9.59,3.96-12.5,8.63c-2.94,4.72-2.77,9.71-1.13,14.83c-3.48-0.27-8.86-5.75-9.74-11.13
			c-1.18-7.22,2.17-13.25,9.82-17.87c-1.09,0-2.26-0.27-3.24,0.06c-1.44,0.5-2.78,1.34-4.08,2.17c-3.74,2.39-7.84,3.68-12.19,4.42
			c-4.63,0.79-8.83,2.5-11.33,6.85c-0.65,1.13-1.03,2.42-1.53,3.64c-3.47-3.07-3.89-11.57-0.74-17.09
			c3.24-5.68,8.52-8.48,14.66-10.04c-2.96-2.89-2.98-2.93-6.38-1.41c-7.06,3.16-14.09,3.45-21.17,0.01
			c-1.7-0.83-3.48-1.52-5.29-2.07c-4.86-1.49-9.28-0.51-13.26,2.78c-0.24-11.5,10.63-18.57,26.21-17.95
			c-1.2-1.39-2.21-2.7-3.38-3.82c-0.39-0.37-1.3-0.53-1.85-0.36c-8.86,2.75-16.47,0.42-23.2-5.6c-0.47-0.42-0.98-0.8-1.47-1.2
			c-6.43-5.35-7.95-5.81-16.14-4.91c0.88-3.97,7.47-8.38,13.57-9.09c5.85-0.68,11.43,0.44,17.12,2.96c-1.14-2.11-2.01-3.93-3.1-5.59
			c-0.37-0.57-1.28-1-2.01-1.1c-2.22-0.32-4.49-0.32-6.7-0.7c-5.08-0.88-9.39-3.26-12.82-7.14c-0.93-1.05-1.92-2.07-2.72-3.22
			c-3.6-5.19-8.2-8.27-14.86-7.11c1.22-4.46,8.64-8.4,15.3-8.12c6.34,0.26,11.74,2.91,16.79,7.37c-0.73-2.94-1.25-5.41-2-7.81
			c-0.17-0.56-1.08-1.23-1.69-1.27c-9.7-0.7-16.15-5.83-20.07-14.49c-0.52-1.15-0.98-2.33-1.41-3.52
			c-1.92-5.31-4.9-9.61-10.69-11.32c-0.03-0.23-0.06-0.46-0.09-0.69c2.01-0.55,4-1.44,6.05-1.59c8.88-0.68,15.97,3.01,21.75,9.49
			c1.47,1.65,2.66,3.53,4.4,5.86c0-3.24,0.04-5.87-0.04-8.51c-0.01-0.44-0.42-1-0.81-1.29c-1.07-0.8-2.21-1.48-3.33-2.2
			c-7.12-4.56-11.48-11.01-13.2-19.28c-0.32-1.51-0.68-3.02-1.11-4.5c-1.34-4.6-3.48-7.3-7.55-9.65c8.7-6.41,22.68,2.12,28.8,18.04
			c0.85-3.19,1.64-5.87,2.22-8.6c0.1-0.48-0.55-1.2-0.97-1.72c-3.17-3.88-6.06-7.93-7.75-12.71c-2.47-6.99-2.16-13.94,0.34-20.85
			c0.53-1.45,1.1-2.89,1.61-4.35c1.3-3.67,1.31-7.29-0.74-11.44c1.7,0.68,3.01,1.04,4.15,1.7c5.92,3.43,8.67,8.97,10.03,15.4
			c1.07,5.08,0.38,10.07-0.9,15.01c-0.84,3.25-1.72,6.49-2.35,9.87c8.69-19.55,21.02-36.15,38.8-48.53
			c-6.84-0.86-14.6,2.99-17.87,8.79c-0.78,1.38-1.79,2.43-3.5,2.17c-1.76-0.27-2.59-1.52-2.93-3.18c-0.49-2.43,0.5-4.4,1.98-6.19
			c3.59-4.35,8.58-5.91,13.85-6.88c1.37-0.25,2.76-0.39,4.13-0.66c-6.85-0.64-13.37,0.46-19.54,3.61c-0.85,0.43-2,0.28-3.01,0.4
			c-0.07-1.19-0.65-2.79-0.1-3.5c1.24-1.6,2.84-3.19,4.64-4.04c7.92-3.7,16.07-3.61,24.18-0.55c2.28,0.86,4.34,2.29,6.58,3.28
			c0.77,0.34,1.89,0.43,2.65,0.13c2.15-0.84,4.19-1.95,6.4-3.01c-1.95-7.3-1.54-14.34,2.42-20.93c3.19-5.32,7.76-8.97,13.49-11.28
			c11.78-4.74,28.46-3.69,37.95,12.88c-0.03-2.87-2.4-8.16-5.2-12.03c-2.71-3.75-6.52-5.99-10.77-7.69
			c0.09-0.21,0.19-0.42,0.28-0.63c1.18,0,2.36,0,3.6,0c-2.38-4.5-2.46-6.4-0.42-8.34c1.94-1.85,4.92-1.74,8.9,0.37
			c0.47-3.65,1.87-6.72,5.06-8.79c1.01-0.66,1.81-0.71,2.86-0.04c3.18,2.06,4.74,5.07,5.22,8.86c3.02-1.7,6.01-3.01,8.79-0.22
			c2.55,2.56,1.28,5.29-0.38,8.09c1.34,0,2.46,0,3.59,0c0.16,0.21,0.31,0.41,0.47,0.62c-9.52,3.1-13.65,10.48-16.05,18.64
			c2.55-2.64,5.12-5.9,8.27-8.46c7.09-5.74,15.32-7.04,24.08-4.93c8.78,2.12,15.96,6.44,20.01,14.99
			c2.62,5.53,2.86,11.24,1.67,17.09c-0.29,1.45,0.12,1.98,1.34,2.74c3.76,2.35,6.91,2.28,11.07,0.08c8.7-4.6,18-5.16,27.21-0.93
			c1.25,0.57,2.45,1.43,3.41,2.41c0.74,0.76,1.3,1.87,1.51,2.91c0.15,0.76-0.17,1.89-0.71,2.42c-0.34,0.33-1.57,0.03-2.23-0.32
			c-6.34-3.39-13.1-4.48-20.04-3.95c3.39,0.81,6.96,1.47,10.4,2.54c3.67,1.14,6.69,3.41,8.47,6.86c0.72,1.39,1.03,3.23,0.84,4.78
			c-0.12,0.96-1.46,2.31-2.41,2.46c-1.04,0.16-2.86-0.54-3.32-1.41c-3.94-7.42-11.02-8.47-18.32-9.3c17.6,12.5,30,29.11,39.02,48.55
			c-0.38-1.4-0.75-2.81-1.13-4.21c-0.39-1.42-0.79-2.84-1.2-4.26c-1.94-6.82-2.66-13.65-0.11-20.5c1.93-5.18,4.94-9.44,10.08-11.9
			c0.44-0.21,0.9-0.4,1.36-0.56c0.25-0.08,0.54-0.08,1.15-0.15c-2.49,5.29-0.62,10.07,1.06,14.91c4.52,13.04,2.01,24.61-7.44,34.68
			c-0.38,0.4-0.69,1.05-0.68,1.58c0.02,0.82,0.31,1.65,0.53,2.46c0.51,1.87,1.04,3.74,1.63,5.84c6.1-16.12,19.21-24.22,29.39-18.09
			c-6.09,2.14-7.76,7.24-8.76,12.71c-1.9,10.33-7.68,17.74-16.79,22.75c-0.52,0.28-0.99,1.12-1.02,1.73
			c-0.11,2.52-0.05,5.04,0.15,7.67c3.56-5.46,7.73-10.16,13.84-12.7c6.08-2.52,12.18-3.5,18.92,0.01c-6.79,1.72-9.59,6.5-11.64,12
			c-0.68,1.84-1.4,3.69-2.32,5.41c-4.08,7.59-10.7,11.25-19.09,12.03c-0.35,0.03-0.7,0.04-1.05,0.07c-0.06,0.01-0.13,0.06-0.4,0.19
			c-0.6,2.56-1.23,5.26-1.95,8.32c6.86-5.65,14.2-8.44,22.8-5.94c4.35,1.26,8.07,4.11,9.38,7.07c-0.38,0-0.7,0.03-1.02-0.01
			c-4.9-0.61-8.79,1.2-11.9,4.93c-1.53,1.84-3.01,3.72-4.61,5.48c-5.29,5.82-12.14,7.87-19.73,7.95c-1.27,0.01-1.88,0.37-2.39,1.47
			c-0.75,1.62-1.67,3.16-2.62,4.91c14.55-5.14,27.08-2.51,30.56,6.44c-0.95-0.14-1.81-0.32-2.67-0.4
			c-4.28-0.41-8.01,0.82-11.32,3.59c-2.69,2.25-5.42,4.48-8.33,6.43c-5.29,3.55-11.13,4.18-17.15,2.28
			c-2.09-0.66-3.46-0.35-4.54,1.54c-0.41,0.71-1.02,1.29-1.66,2.08c3.14,0.34,6.11,0.52,9.04,1.01c6.63,1.09,12.15,4.06,15.35,10.24
			c1.06,2.05,1.5,4.41,2.23,6.63c-0.2,0.1-0.4,0.2-0.6,0.29c-1.06-0.63-2.07-1.38-3.18-1.89c-4.66-2.14-9.29-1.79-13.83,0.43
			c-4.4,2.15-8.89,4.1-13.92,3.27c-2.75-0.45-5.59-1.01-8.08-2.19c-2.87-1.35-5.14-1.52-7.2,1.27c8.09,2.16,14.62,6.24,16.45,15.2
			C305.46,330.56,304.31,335.48,302.01,337.89z M225.35,314.11c0.1-5.97,2.76-9.84,7.57-12.23c6.14-3.06,13.47-1.9,18.54,2.93
			c0.81,0.77,1.44,1.02,2.56,0.58c7.16-2.81,14.11-6.08,20.29-10.65c30.08-22.23,44.62-51.89,40.28-89.31
			c-3.74-32.28-20.71-56.28-49.31-71.97c-3.13-1.72-5.71-2.07-9.27-0.42c-15.02,6.96-32.46,0.46-38.02-14.51
			c-0.64-1.72-1.91-1.51-3.04-1.39c-0.62,0.07-1.41,0.91-1.69,1.58c-3.4,8.1-9.25,13.51-17.66,15.96c-7.9,2.3-15.45,0.92-22.66-2.74
			c-1.18-0.6-2.13-0.75-3.32-0.07c-4.62,2.66-9.53,4.9-13.9,7.92c-37.46,25.92-53.31,79.35-26.9,124.42
			c11.25,19.2,27.18,32.89,48,40.85c1.13,0.43,2.03,0.82,3.18-0.31c4.71-4.65,10.41-5.68,16.56-3.67c5.97,1.95,9.07,6.33,9.45,13.03
			C212.4,314.11,218.74,314.11,225.35,314.11z M177.55,307.64c-38.55-16.27-61.21-44.74-63.29-86.45
			c-2.09-41.9,17.83-72.33,54.95-91.58c-0.57-0.48-1.38-0.97-1.94-1.67c-1.24-1.54-2.44-1.49-4.17-0.67
			c-17.28,8.23-30.68,20.85-40.43,37.09c-11.17,18.61-16.21,38.87-14.25,60.71c1.65,18.42,7.81,35.21,18.36,50.27
			c8.53,12.18,19.41,22.04,32.3,29.48c5.07,2.92,10.53,5.17,15.85,7.74C176.01,310.55,176.82,309.02,177.55,307.64z M256.28,312.43
			c2.82-1.19,5.51-2.23,8.11-3.44c19.88-9.27,35-23.66,45.72-42.74c11.92-21.21,15.79-43.85,11.41-67.75
			c-4.27-23.3-15.51-42.72-33.47-58.21c-6.2-5.35-12.95-9.89-20.41-13.3c-0.64-0.29-1.71-0.36-2.24-0.02
			c-1.19,0.76-2.16,1.84-2.98,2.57c36.8,19.67,56.59,49.95,54.6,91.85c-1.99,41.95-25.14,69.9-63.03,86.43
			C254.69,309.23,255.43,310.73,256.28,312.43z M204.12,97.29c-3.12-5.8-11.88-8.73-17.41-5.72c-1.5,0.82-2.85,2.3-3.74,3.79
			c-1.16,1.93-0.44,4.29,1.14,5.5c1.4,1.06,1.6,2.43,0.43,3.81c-1.37,1.64-3.18,2.28-5.29,1.85c-2.42-0.5-4.2-1.9-5.35-4.07
			c-3.03-5.73,0.68-14.41,6.6-15.31c-0.73,0.65-1.44,1.23-2.09,1.86c-2.56,2.48-3.85,5.54-3.7,9.08c0.11,2.66,1.12,4.94,3.71,6.16
			c2.08,0.98,3.68,0.48,4.75-1.39c-4.4-4.6-2.82-10.64,3.08-13.36c2.94-1.36,5.98-1.45,9.07-0.7c12.9,3.16,19.22,19.73,11.99,31.38
			c-5.2,8.37-14.58,12.21-24.45,9.97c-5.75-1.31-10.67-3.95-14.11-8.96c3.19,3.35,7.19,4.62,11.23,4.5
			c-1.75-1.44-3.84-3.16-5.93-4.88c1.88,0.17,3.51,0.74,5.14,1.29c5.23,1.78,10.45,2.03,15.63-0.2c1.61-0.69,2.88-1.64,2.81-3.79
			c-1.12,0.28-2.12,0.63-3.14,0.77c-3.74,0.51-7.49,1.39-11.23,1.33c-8.34-0.14-15.89-7.61-16.69-15.91
			c-0.41-4.26,0.31-8.31,2-12.23c-4.04,4.27-5.45,9.53-5.91,15.15c-0.54-6.66,1.84-12.32,6.11-17.34c-0.23-0.07-0.3-0.11-0.33-0.1
			c-0.18,0.1-0.38,0.19-0.53,0.33c-6.37,5.92-9.37,13.13-7.73,21.81c2.71,14.37,17.46,24.16,32.17,21.56
			c12.44-2.2,20.89-12.44,20.93-25.36c0.04-11.8-8.8-22.25-20.71-24.49c-9.9-1.86-17.55,1.4-21.96,9.36
			c-3.58,6.46-2.88,14.35,1.65,19.29c0.8,0.88,1.41,1.09,2.67,0.64c3.88-1.41,7.85-2.59,11.81-3.74c1.5-0.43,3.09-0.54,4.71-0.81
			c-2.48-4.49-2.67-7.18-0.31-9.72C194.93,94.55,199.44,95.15,204.12,97.29z M252.21,87.52c4.97,2.22,7.75,8.97,5.53,14.43
			c-1,2.46-2.81,4-5.39,4.58c-2.51,0.57-5.26-0.8-5.98-3.13c-0.2-0.63,0.12-1.78,0.61-2.21c1.44-1.24,1.97-2.68,1.67-4.48
			c-0.47-2.88-2.33-4.61-4.92-5.55c-4.35-1.58-8.48-0.85-12.23,1.72c-1.52,1.04-2.79,2.43-4.17,3.67c4.73-1.31,9.13-2.09,12.77,1.85
			c2.92,3.15,1.88,6.58-0.09,9.98c0.69,0.14,1.23,0.21,1.76,0.36c4.94,1.33,9.93,2.51,14.79,4.08c1.57,0.51,2.23,0.22,3.1-0.91
			c7.12-9.21,2.13-24.36-9.19-27.81c-17.39-5.31-35.34,10.61-32.15,28.49c2.37,13.28,12.96,21.72,26.54,21.16
			c14.4-0.59,25.7-11,26.57-24.69c0.5-7.8-2.47-14.19-8.77-19.46c5.84,10.3,6.95,13.99,5.77,18.77c-0.55-7.96-2.67-13.77-5.86-16.03
			c0,0.06-0.02,0.14,0,0.19c0.2,0.45,0.43,0.88,0.61,1.34c2.82,7.07,2.46,13.86-2.5,19.83c-4.84,5.84-11.22,7.98-18.7,6.43
			c-2.85-0.59-5.65-1.38-8.57-2.1c0.29,2.05,1.53,3.17,3.33,3.95c5.1,2.19,10.18,1.54,15.26,0.06c1.83-0.53,3.63-1.19,5.44-1.79
			c0.1,0.15,0.19,0.31,0.29,0.46c-1.43,1.31-2.86,2.63-4.35,3.99c0.45-0.05,0.78-0.08,1.38-0.14c-0.76,0.57-1.26,0.95-1.77,1.32
			c0.08,0.14,0.17,0.29,0.25,0.43c3.03-1.51,6.07-3.03,9.09-4.54c-0.17,0.24-0.38,0.57-0.63,0.86c-4.26,5.02-9.95,7.11-16.25,7.96
			c-10.05,1.35-19.97-4.82-23.34-14.53c-3.35-9.67,0.57-20.45,9.42-25.54c4.92-2.83,10.05-3.15,15.02-0.16
			c4.12,2.48,5.26,7.62,2.78,11.13c-0.39,0.56-0.91,1.64-0.7,1.88c0.55,0.61,1.59,1.36,2.24,1.21c1.41-0.34,2.99-0.91,3.96-1.91
			c2.03-2.09,2.31-4.95,1.35-7.51C255.18,92.36,253.45,89.82,252.21,87.52z M174.46,324.18c0.47-2.6-0.38-3.4-2.15-4.2
			c-6.83-3.1-13.92-5.87-20.21-9.88c-24.25-15.46-40.48-37.17-48.59-64.8c-4.09-13.94-4.99-28.19-3.18-42.59
			c1.32-10.47,4.64-20.35,8.95-29.96c7.68-17.13,18.96-31.35,34.29-42.18c5.47-3.86,11.42-7.05,17.24-10.6
			c-0.21-0.39-0.66-1.24-1.39-2.6c-5.7,3.29-11.5,6.17-16.82,9.77c-20.96,14.18-34.01,34.34-41.7,57.96
			c-7.6,23.34-6.32,46.72,2.39,69.64c10.57,27.81,28.86,48.91,55.34,62.66C163.66,320.01,169.05,321.89,174.46,324.18z
			 M256.98,323.5c0.31-0.02,0.53,0.01,0.73-0.05c12.62-3.8,24.11-9.94,34.14-18.33c16.32-13.64,28.99-30.05,36.22-50.39
			c6.14-17.28,8.5-34.87,5.9-53.07c-2.75-19.26-10.12-36.61-21.9-52.05c-9.24-12.13-20.41-22.04-34.18-28.82
			c-2.05-1.01-4.12-2.01-6.28-3.06c-0.52,1.07-0.91,1.86-1.32,2.71c0.39,0.24,0.6,0.42,0.85,0.53c16.49,7.4,29.81,18.68,40.25,33.35
			c16.87,23.71,23.34,49.97,19,78.82c-2.89,19.23-10.95,36.2-22.74,51.46c-12.69,16.41-28.86,28.2-48.36,35.33
			C257.53,320.56,256.49,321.35,256.98,323.5z M203.47,334.5c-8.4,2.05-14.31-0.32-18.66-7.1c-3.51-5.48-4.63-14.15,0.66-20.23
			c-0.26,1.07-0.49,1.96-0.71,2.86c0.08,0.02,0.15,0.04,0.23,0.05c0.9-1.44,1.8-2.89,2.69-4.33c0.11,0.08,0.23,0.16,0.34,0.24
			c-0.38,0.85-0.76,1.7-1.37,3.06c1.65-1.36,2.81-2.33,3.97-3.29c0.09,0.11,0.17,0.22,0.26,0.33c-0.47,0.61-0.95,1.21-1.41,1.8
			c2.4-0.43,4.6-1.21,6.76-1.11c2.2,0.1,4.36,1.05,6.49,1.62c-1.34-2.68-3.63-4.53-6.6-5.52c-8.46-2.84-17.26,2.2-19.34,11.02
			c-3.32,14.15,8.75,27.9,23.22,26.44c6.61-0.67,12.22-5.71,13.27-11.96c-1.26-0.4-2.02-0.07-2.61,1.25
			c-1.61,3.57-4.32,6.13-8.1,7.2c-11.43,3.23-24.36-5.73-23.05-19.29C182.4,332.2,193.12,340.07,203.47,334.5z M251.84,316.7
			c0.08,0.81,0.24,1.62,0.23,2.43c-0.16,10.09-8.18,18.12-18.26,18.38c-6.13,0.16-10.54-2.52-13.22-7.96
			c-0.66-1.33-1.39-1.54-2.78-1.02c2.26,6.08,6.05,10.71,12.64,11.67c13.23,1.93,28.55-10.88,23.89-27.07
			c-2.81-9.77-13.63-14.09-21.86-8.76c-1.48,0.96-2.64,2.42-4.31,3.99c2.79-0.67,4.87-1.53,6.96-1.57c2.14-0.04,4.3,0.72,6.56,1.15
			c-0.45-0.63-0.87-1.22-1.3-1.81c0.09-0.1,0.19-0.2,0.28-0.3c1.14,0.93,2.27,1.86,3.89,3.19c-0.67-1.36-1.07-2.18-1.48-2.99
			c0.12-0.08,0.25-0.16,0.37-0.24c0.93,1.27,1.85,2.54,2.84,3.89c-0.12-0.77-0.22-1.42-0.35-2.27c4.26,4.17,4.71,12.57,1.16,19.08
			c-1.88,3.44-4.58,6.02-8.15,7.66c-4.21,1.94-8.39,1.79-12.51-0.36c4.55,3.24,9.42,3.04,14.13,0.88
			C248.12,331.18,251.53,324.91,251.84,316.7z M332.55,158.32c0.08-0.02,0.16-0.04,0.24-0.06c-0.29-2.94-0.57-5.87-0.86-8.81
			c0.2-0.03,0.4-0.06,0.6-0.1c0.61,2.94,1.22,5.89,1.87,9.02c0.41-1.71,0.78-3.25,1.15-4.79c0.15,0.03,0.3,0.06,0.44,0.1
			c-0.17,2.3-0.34,4.59-0.51,6.89c0.13,0.03,0.25,0.05,0.38,0.08c0.5-0.99,0.99-1.97,1.49-2.96c0.16,0.07,0.32,0.14,0.48,0.22
			c-0.76,2.36-1.53,4.71-2.29,7.07c0.08,0.03,0.17,0.05,0.25,0.08c0.74-0.86,1.47-1.73,2.21-2.59c0.14,0.09,0.28,0.18,0.42,0.26
			c-1.02,2.17-2.04,4.35-3.06,6.52c0.09,0.05,0.19,0.11,0.28,0.16c0.53-0.6,1.06-1.2,1.59-1.79c0.11,0.05,0.23,0.11,0.34,0.16
			c-1.15,2.88-2.3,5.76-3.44,8.65c1.08-0.82,1.85-1.81,2.46-2.88c4.21-7.5,5.05-15.39,2.47-23.58c-1.44-4.58-3.5-9-3.09-14.1
			c-9.27,5.55-12.53,25.25-5.52,33.7c-0.32-2.19-0.59-4.08-0.9-6.22c0.45,0.51,0.72,0.82,1.14,1.3c-0.59-2.36-1.11-4.46-1.63-6.56
			c0.16-0.05,0.31-0.1,0.47-0.14c0.61,1.54,1.22,3.08,1.84,4.62c0.14-0.04,0.28-0.09,0.42-0.13c-0.6-2.93-1.21-5.85-1.81-8.78
			c0.11-0.04,0.21-0.09,0.32-0.13C331.04,155.12,331.8,156.72,332.55,158.32z M307.88,297.06c-0.01-0.04,0.07,0.33,0.14,0.68
			c2.11-0.19,4.12-0.38,6.55-0.6c-0.79,0.47-1.26,0.75-1.76,1.05c2.82,0.53,5.51,1.04,8.21,1.55c-0.03,0.09-0.07,0.17-0.1,0.26
			c-3.04,0-6.09,0-9.13,0c0.94,0.48,1.89,0.69,2.83,0.96c0.86,0.25,1.69,0.56,2.66,0.89c-3.61,0-6.97,0-10.33,0c0,0.1,0,0.2,0,0.3
			c1.79,0.61,3.58,1.22,5.37,1.82c-0.03,0.06-0.07,0.11-0.1,0.17c-2.89-0.25-5.79-0.51-8.68-0.76c-0.02,0.19-0.04,0.38-0.06,0.57
			c1.49,0.64,2.97,1.27,4.46,1.91c-0.04,0.11-0.08,0.21-0.13,0.32c-2.75-0.4-5.51-0.81-8.26-1.21c-0.02,0.09-0.04,0.18-0.06,0.28
			c1.41,0.64,2.83,1.29,4.24,1.93c-0.05,0.1-0.1,0.2-0.15,0.3c-3.11-0.22-6.22-0.44-9.85-0.7c7.57,3.59,14.3,4.33,21.48,0.55
			c5.27-2.77,10.7-3.75,16.38-1.19c0.08,0.04,0.23-0.1,0.35-0.16c-1.75-4.92-5.26-8.72-10.67-10.22c-3.86-1.07-7.99-1.24-12.01-1.66
			c-2.64-0.27-4.52,1.01-5.84,3.77C305.07,297.58,306.44,297.33,307.88,297.06z M337.36,257.63c0.01,0.17,0.01,0.33,0.02,0.5
			c-0.74,0.15-1.52,0.19-2.19,0.49c-0.41,0.18-0.56,0.92-0.96,1.11c-0.9,0.43-1.88,0.66-2.83,0.98c7.21,0.34,12.58-3.05,16.86-8.38
			c3.5-4.36,6.98-8.65,13.54-9.37c-6.22-4.59-12.43-5.05-18.97-2.62c-5.04,1.88-11.49,7.22-11.67,12.09
			c2.39-2.28,4.84-4.63,7.3-6.97c0.09,0.1,0.18,0.2,0.27,0.3c-0.56,0.91-1.12,1.83-1.68,2.74c0.11,0.09,0.23,0.19,0.34,0.28
			c1.37-1.25,2.73-2.5,4.1-3.75c0.09,0.09,0.18,0.19,0.27,0.28c-0.29,0.51-0.59,1.01-0.89,1.52c2.45-0.97,4.8-1.9,7.16-2.84
			c0.03,0.11,0.07,0.22,0.1,0.34c-2.41,1.5-4.83,3.01-7.24,4.51c1.13,0.02,2.03-0.36,2.97-0.6c0.84-0.22,1.73-0.29,3.11-0.51
			c-3.43,1.71-6.33,3.15-9.22,4.59c0.07,0.16,0.14,0.32,0.21,0.48c1.73-0.27,3.46-0.55,5.19-0.82c0,0.12,0.01,0.23,0.01,0.35
			c-2.54,0.92-5.08,1.84-7.62,2.76c0.06,0.17,0.11,0.34,0.17,0.51c1.44,0,2.88,0,4.31,0c0.01,0.07,0.02,0.15,0.03,0.22
			c-1.88,0.42-3.76,0.84-5.65,1.26c0.03,0.18,0.07,0.36,0.1,0.53C335.45,257.63,336.4,257.63,337.36,257.63z M100.83,153.92
			c0.16,0.05,0.31,0.11,0.47,0.16c-0.47,2.3-0.94,4.6-1.41,6.91c0.11,0.04,0.22,0.07,0.33,0.11c0.54-1.05,1.08-2.1,1.62-3.15
			c0.14,0.06,0.28,0.12,0.42,0.18c-0.48,1.93-0.95,3.87-1.52,6.21c0.56-0.68,0.85-1.04,1.32-1.61c-0.3,1.37-0.59,2.45-0.76,3.55
			c-0.17,1.1-0.21,2.21-0.36,3.83c6.97-14.25,2.77-30.06-5.89-34.43c0.69,4.09-0.37,7.82-1.87,11.51
			c-2.12,5.23-3.02,10.63-2.04,16.28c0.85,4.93,2.93,9.23,6.34,12.95c-1.29-2.89-2.59-5.79-3.88-8.68c0.13-0.06,0.27-0.12,0.4-0.18
			c0.6,0.73,1.2,1.47,1.8,2.2c0.08-0.04,0.15-0.08,0.23-0.12c-1.02-2.38-2.03-4.77-3.05-7.15c0.19-0.08,0.38-0.16,0.57-0.23
			c0.64,0.92,1.28,1.84,1.93,2.77c0.11-0.06,0.22-0.13,0.33-0.19c-0.78-2.42-1.57-4.85-2.35-7.27c0.13-0.05,0.27-0.1,0.4-0.16
			c0.56,0.95,1.11,1.91,1.95,3.34c-0.24-2.79-0.43-4.97-0.62-7.15c0.15-0.03,0.3-0.05,0.45-0.08c0.39,1.48,0.78,2.96,1.28,4.89
			c0.7-3.3,1.3-6.12,1.9-8.94c0.18,0.04,0.35,0.07,0.53,0.11c-0.21,2.91-0.42,5.83-0.64,8.74c0.1,0,0.19,0,0.29,0.01
			C99.63,156.86,100.23,155.39,100.83,153.92z M345.47,195.64c0.08,0.12,0.16,0.23,0.24,0.35c-1.27,1.33-2.54,2.65-3.81,3.98
			c0.08,0.09,0.16,0.17,0.24,0.26c0.79-0.55,1.58-1.1,2.36-1.65c0.09,0.11,0.17,0.21,0.26,0.32c-1.58,2.01-3.17,4.02-4.75,6.03
			c0.81-0.13,1.44-0.49,2.03-0.91c5.98-4.18,9.18-10.11,10.63-17.09c0.97-4.65,2.16-9.17,5.67-12.68c0.04-0.04-0.06-0.24-0.1-0.36
			c-12.7-0.88-25.83,14.42-22.19,25.55c0.24-0.61,0.55-1.38,0.86-2.15c0.18,0.08,0.36,0.15,0.54,0.23c0.18-1.37,0.35-2.73,0.53-4.1
			c0.1,0.01,0.2,0.03,0.3,0.04c0.11,0.56,0.21,1.13,0.32,1.69c0.11,0,0.22,0,0.33,0c0.42-2.15,0.84-4.3,1.27-6.44
			c0.07,0.01,0.14,0.01,0.21,0.02c0.04,0.85,0.08,1.7,0.15,3.13c0.99-2.67,1.78-4.79,2.57-6.91c0.09,0.03,0.17,0.06,0.26,0.09
			c-0.1,1-0.2,2-0.33,3.29c1.95-2.47,3.7-4.68,5.44-6.88c0.12,0.08,0.25,0.17,0.37,0.25c-1.4,2.52-2.79,5.04-4.19,7.55
			c0.11,0.08,0.22,0.16,0.33,0.25c0.91-0.75,1.82-1.5,2.73-2.25c0.09,0.1,0.18,0.2,0.28,0.3c-1.28,1.76-2.55,3.52-3.83,5.29
			c0.09,0.1,0.19,0.21,0.28,0.31c0.99-0.55,1.99-1.1,2.98-1.65c0.25,0.3,0.51,0.59,0.76,0.89c-1.76,1.36-3.51,2.73-5.27,4.09
			c0.14,0.13,0.27,0.26,0.41,0.39C344.06,196.44,344.77,196.04,345.47,195.64z M119.59,300.11c-0.03-0.07-0.06-0.13-0.09-0.2
			c-3.04,0-6.07,0-9.11,0c-0.02-0.08-0.04-0.16-0.06-0.24c2.88-0.5,5.76-1,8.76-1.52c-0.99-0.33-1.88-0.63-2.77-0.93
			c0.02-0.08,0.04-0.15,0.06-0.23c3.11,0.22,6.23,0.44,9.42,0.67c-0.32-0.36-0.59-0.66-0.99-1.1c0.97,0.17,1.67,0.29,2.38,0.41
			c0.09-0.24,0.19-0.48,0.28-0.72c-1.46-0.67-2.86-1.61-4.39-1.95c-1.61-0.36-3.36-0.27-5.04-0.17c-5.78,0.35-11.1,2-15.17,6.35
			c-1.41,1.5-2.36,3.43-3.52,5.16c6.53-1.54,9.29-1.38,15.2,1.09c1.81,0.76,3.62,1.56,5.48,2.17c5.86,1.92,11.42,0.84,17.3-1.95
			c-3.44,0.16-6.37,0.29-9.29,0.42c-0.03-0.08-0.06-0.16-0.09-0.24c1.21-0.57,2.41-1.14,3.62-1.71c-0.05-0.18-0.1-0.35-0.15-0.53
			c-2.68,0.41-5.36,0.82-8.04,1.23c-0.04-0.12-0.07-0.25-0.11-0.37c1.54-0.61,3.08-1.23,4.62-1.84c-0.04-0.23-0.08-0.47-0.12-0.7
			c-2.84,0.27-5.68,0.53-8.52,0.8c-0.02-0.06-0.04-0.13-0.06-0.19c1.69-0.52,3.38-1.04,5.08-1.56c-0.01-0.11-0.02-0.23-0.03-0.34
			c-3.29,0-6.57,0-10.07,0C116.06,301.29,117.82,300.7,119.59,300.11z M95.68,255.55c0.04-0.21,0.08-0.42,0.12-0.62
			c-2.53-0.82-5.05-1.65-7.58-2.47c0.03-0.12,0.05-0.24,0.08-0.36c1.63,0.16,3.27,0.32,4.9,0.47c0.07-0.16,0.13-0.33,0.2-0.49
			c-2.75-1.31-5.5-2.62-8.25-3.93c0.04-0.12,0.08-0.24,0.12-0.36c1.73,0.44,3.46,0.89,5.19,1.33c0.06-0.11,0.12-0.22,0.17-0.32
			c-2.63-1.49-5.26-2.99-7.89-4.48c0.03-0.1,0.07-0.2,0.1-0.3c2.43,0.9,4.85,1.8,7.56,2.81c-0.56-0.82-0.93-1.36-1.3-1.9
			c0.09-0.08,0.18-0.17,0.27-0.25c1.52,1.4,3.03,2.8,4.55,4.2c0.14-0.13,0.28-0.27,0.43-0.4c-0.77-0.99-1.55-1.97-2.32-2.96
			c0.07-0.06,0.14-0.13,0.21-0.19c2.36,2.16,4.71,4.32,7.07,6.48c0.25,0.23,0.51,0.46,0.76,0.7c-2.06-7.26-7.53-10.78-14.13-12.81
			c-5.76-1.78-11.17-0.79-16.45,3.36c6.25,0.42,9.78,4.15,13.03,8.35c1.2,1.55,2.53,3.02,3.96,4.36c3.96,3.71,8.76,5.22,14.39,5.23
			c-2.34-1.15-4.42-2.18-6.91-3.41c1.52,0,2.58,0,3.64,0c0.02-0.14,0.04-0.28,0.06-0.42c-2.14-0.41-4.27-0.83-6.41-1.24
			c0.01-0.12,0.02-0.24,0.04-0.37C92.74,255.55,94.21,255.55,95.68,255.55z M346.88,217.24c1.94-1.73,3.64-3.25,5.35-4.78
			c0.09,0.11,0.18,0.21,0.27,0.32c-0.86,1.1-1.72,2.21-2.84,3.65c1.04-0.37,1.59-0.57,2.73-0.98c-2.03,1.9-3.59,3.36-5.16,4.83
			c0.09,0.09,0.17,0.18,0.26,0.27c1.32-0.52,2.65-1.05,3.97-1.57c0.03,0.08,0.06,0.15,0.09,0.23c-2.32,1.79-4.65,3.57-6.97,5.36
			c0.1,0.15,0.19,0.29,0.29,0.44c1.28-0.3,2.57-0.6,4.45-1.03c-2.37,1.34-4.16,2.36-5.96,3.39c0.06,0.13,0.11,0.26,0.17,0.39
			c0.95-0.14,1.89-0.29,2.84-0.43c0.02,0.12,0.05,0.24,0.07,0.36c-1.27,0.58-2.55,1.16-4.3,1.96c1.08,0,1.6,0,2.45,0
			c-1.83,1.04-3.37,1.92-4.91,2.8c4.07-0.26,7.48-1.81,10.37-4.62c2.79-2.71,4.73-5.91,6.06-9.51c1.76-4.76,3.68-9.41,8.4-12.34
			c-11.2-3.01-27.94,9.82-27.65,21.3c0.89-1.74,1.62-3.17,2.35-4.59c0.09,0.04,0.18,0.09,0.27,0.13c-0.07,0.49-0.13,0.97-0.2,1.46
			c0.08,0.02,0.16,0.03,0.24,0.05c0.6-1.41,1.2-2.82,1.95-4.58c0.16,0.81,0.25,1.25,0.4,1.99c1.03-2.02,1.93-3.79,2.84-5.56
			c0.12,0.05,0.23,0.09,0.35,0.14c-0.13,0.76-0.26,1.52-0.39,2.28c0.09,0.03,0.18,0.06,0.26,0.09c0.68-1.13,1.35-2.26,2.27-3.8
			C347.1,215.87,347.01,216.45,346.88,217.24z M88.15,196.85c0.15-0.16,0.3-0.32,0.45-0.48c-1.8-1.51-3.6-3.03-5.39-4.54
			c0.17-0.18,0.35-0.36,0.52-0.54c1.12,0.71,2.24,1.41,3.36,2.12c0.07-0.09,0.15-0.18,0.22-0.27c-1.37-1.91-2.73-3.81-4.1-5.72
			c0.09-0.07,0.19-0.13,0.28-0.2c0.89,0.67,1.78,1.34,2.67,2.01c0.08-0.09,0.16-0.19,0.24-0.28c-1.44-2.48-2.88-4.96-4.32-7.44
			c0.15-0.1,0.3-0.2,0.46-0.3c1.97,2.64,3.95,5.28,5.87,7.85c-0.17-1.32-0.36-2.72-0.55-4.12c0.1-0.02,0.2-0.05,0.31-0.07
			c0.65,2.02,1.31,4.04,1.96,6.06c0.1-0.01,0.21-0.02,0.31-0.04c0.04-0.87,0.08-1.73,0.13-2.6c0.14,0.01,0.27,0.02,0.41,0.03
			c0.14,1.57,0.28,3.13,0.43,4.7c0.13-0.02,0.26-0.03,0.39-0.05c0.11-0.67,0.21-1.35,0.32-2.02c0.13,0,0.26,0.01,0.39,0.01
			c0.11,1.22,0.22,2.44,0.34,3.79c0.25-0.27,0.44-0.47,0.68-0.72c0.58,1.94,1.13,3.78,1.82,6.08c1.52-7.37-1.7-12.94-5.52-18.13
			c-4.09-5.56-9.7-8.47-17.34-8.08c3.9,4.14,5.34,8.91,6.5,13.86c0.57,2.44,1.41,4.86,2.45,7.15c2.09,4.6,5.53,7.97,10.26,10.06
			c-1.62-1.95-3.25-3.9-4.87-5.85c0.08-0.06,0.17-0.12,0.25-0.18c0.78,0.41,1.56,0.83,2.35,1.24c0.05-0.09,0.1-0.19,0.15-0.28
			c-1.42-1.32-2.84-2.64-4.26-3.96c0.09-0.1,0.18-0.21,0.27-0.31C86.44,196.04,87.3,196.44,88.15,196.85z M91.86,232.45
			c-1.54-0.81-3.08-1.61-4.63-2.42c0.04-0.1,0.09-0.2,0.13-0.3c0.53,0,1.05,0,1.95,0c-1.73-0.87-3.12-1.57-4.52-2.28
			c0.04-0.12,0.09-0.24,0.13-0.35c1.04,0.2,2.08,0.41,3.12,0.61c0.04-0.12,0.09-0.23,0.13-0.35c-2-1.01-4-2.02-6.01-3.03
			c0.04-0.1,0.09-0.2,0.13-0.31c1.52,0.41,3.05,0.82,4.57,1.23c0.07-0.13,0.14-0.26,0.21-0.39c-2.38-1.78-4.76-3.56-7.14-5.34
			c0.08-0.12,0.15-0.25,0.23-0.37c1.53,0.72,3.07,1.45,4.6,2.17c0.07-0.1,0.14-0.2,0.21-0.31c-1.97-1.84-3.94-3.69-5.91-5.53
			c0.07-0.08,0.15-0.15,0.22-0.23c1.05,0.53,2.11,1.05,3.16,1.58c0.19-0.24,0.38-0.48,0.58-0.73c-1.43-1.11-2.86-2.23-4.28-3.34
			c0.13-0.12,0.26-0.25,0.39-0.37c1.61,1.34,3.22,2.68,5.06,4.2c-0.09-0.75-0.14-1.22-0.25-2.22c0.87,1.73,1.49,2.95,2.1,4.17
			c0.13-0.06,0.26-0.12,0.39-0.18c-0.23-0.77-0.45-1.53-0.68-2.3c0.15-0.07,0.3-0.15,0.44-0.22c1.11,1.95,2.23,3.89,3.34,5.84
			c0.09-0.03,0.17-0.06,0.26-0.09c-0.06-0.6-0.12-1.2-0.18-1.8c0.1-0.02,0.21-0.04,0.31-0.07c0.69,1.63,1.39,3.26,2.15,5.06
			c0.21-0.53,0.31-0.81,0.52-1.34c0.63,1.34,1.12,2.4,1.72,3.68c0.84-10.96-16.9-24.55-27.42-21.09c4.16,2.66,6.19,6.68,7.85,11.01
			c0.72,1.89,1.56,3.78,2.59,5.52C80.57,228.07,84.88,232.15,91.86,232.45z M315.46,285.56c-0.04,0.29-0.08,0.58-0.12,0.87
			c2.45,0.2,4.93,0.72,7.35,0.54c5.45-0.41,9.7-3.51,13.62-6.99c3.85-3.41,7.89-6.3,13.71-6.23c-2.73-2.51-5.47-4.08-8.74-4.61
			c-5.79-0.95-11.29,0.06-16.65,2.35c-2.54,1.08-3.68,3.18-4.69,5.54c1.19-0.94,2.38-1.88,3.56-2.83c0.07,0.09,0.14,0.19,0.21,0.28
			c-0.27,0.44-0.54,0.89-1.13,1.84c1.95-1.43,3.42-2.51,4.9-3.59c0.1,0.12,0.19,0.23,0.29,0.35c-0.4,0.54-0.79,1.07-1.35,1.82
			c1.75-0.78,3.18-1.41,4.62-2.05c0.05,0.11,0.11,0.22,0.16,0.33c-0.98,0.66-1.95,1.31-2.94,1.98c2.9-0.53,5.71-1.04,8.52-1.55
			c0.03,0.14,0.05,0.28,0.08,0.43c-2.61,0.88-5.21,1.76-7.82,2.63c0.03,0.14,0.06,0.29,0.09,0.43c1.2,0.07,2.4,0.15,3.6,0.22
			c-0.02,0.09-0.04,0.18-0.06,0.26c-2.81,0.62-5.62,1.24-8.43,1.86c0.04,0.16,0.07,0.31,0.11,0.47c1.74,0.19,3.48,0.37,5.21,0.56
			c-0.01,0.15-0.03,0.29-0.04,0.44c-2.42,0.14-4.84,0.28-7.7,0.45c1.57,0.54,2.7,0.92,3.84,1.31c-0.03,0.13-0.06,0.25-0.09,0.38
			c-1.92,0-3.85,0-6.09,0c1.22,0.52,2.14,0.9,3.06,1.29c-0.05,0.11-0.1,0.22-0.15,0.32c-1.04,0-2.08,0-3.12,0
			c-0.07,0.1-0.14,0.19-0.22,0.29c0.27,0.13,0.55,0.26,1.27,0.61C318.36,285.56,316.91,285.56,315.46,285.56z M102.55,274.87
			c-0.96-0.69-1.69-1.21-2.42-1.73c0.07-0.12,0.13-0.25,0.2-0.37c1.53,0.79,3.05,1.57,4.98,2.56c-0.9-0.97-1.48-1.6-2.06-2.22
			c2.67,1.04,5.1,2.38,7.53,3.74c0.38,0.21,0.75,0.46,1.13,0.68c0.13-0.14,0.25-0.27,0.38-0.41c-1.45-1.66-2.6-3.87-4.42-4.89
			c-5.53-3.11-11.58-4.22-17.91-3.03c-3.18,0.6-6.04,1.9-8.68,4.6c5.21-0.28,8.96,1.91,12.38,4.91c1.42,1.25,2.82,2.6,4.44,3.54
			c2.77,1.6,5.59,3.24,8.6,4.26c3.1,1.06,6.39,0.73,9.45-0.96c-1.51,0-3.02,0-4.79,0c0.62-0.45,0.97-0.69,1.63-1.16
			c-1.56,0.12-2.69,0.2-3.82,0.29c-0.02-0.09-0.03-0.19-0.05-0.28c0.95-0.35,1.9-0.7,2.84-1.05c-0.03-0.11-0.06-0.21-0.09-0.32
			c-2.16,0-4.32,0-6.48,0c-0.01-0.09-0.01-0.18-0.02-0.28c1.09-0.35,2.18-0.7,3.27-1.05c-0.02-0.1-0.03-0.21-0.05-0.31
			c-2.3-0.19-4.6-0.38-6.9-0.57c-0.01-0.14-0.01-0.28-0.02-0.42c1.6-0.18,3.2-0.36,4.8-0.54c0.03-0.2,0.07-0.4,0.1-0.59
			c-2.77-0.61-5.53-1.21-8.3-1.82c0.01-0.11,0.03-0.22,0.04-0.33c1.27,0,2.54,0,3.81,0c0.04-0.19,0.08-0.37,0.12-0.56
			c-2.75-0.88-5.5-1.77-8.26-2.65c0.02-0.1,0.05-0.2,0.07-0.31C96.76,274.02,99.45,274.41,102.55,274.87z M286.95,316.47
			c1.83,0.76,3.37,1.32,4.84,2.04c1.44,0.7,2.81,1.56,4.21,2.35c-0.06,0.07-0.11,0.15-0.17,0.22c-2.23-0.78-4.47-1.56-6.7-2.33
			c-0.07,0.16-0.13,0.32-0.2,0.49c1.12,0.75,2.24,1.51,3.35,2.26c-0.05,0.09-0.1,0.18-0.15,0.27c-2.39-1.01-4.78-2.01-7.17-3.02
			c-0.05,0.13-0.1,0.27-0.14,0.4c0.85,0.5,1.71,0.99,2.56,1.49c-0.06,0.13-0.13,0.27-0.19,0.4c-1.44-0.56-2.88-1.12-4.36-1.69
			c0.25,0.89,0.44,1.57,0.75,2.68c-3.25-1.24-6.05-2.31-8.86-3.38c-0.08,0.21-0.16,0.43-0.25,0.64c4.13,2.72,8.33,5.23,13.43,5.93
			c5.58,0.77,10.6,2.76,14.13,7.48c0.05,0.06,0.24,0.02,0.67,0.04c0-2.1,0.3-4.24-0.05-6.26c-1.61-9.27-9.52-12.94-16.28-13.76
			c-1.01-0.12-2.11,0.55-3.17,0.86c0.06,0.12,0.12,0.23,0.17,0.35c1.95,0.38,3.9,0.76,5.85,1.14c-0.03,0.12-0.05,0.24-0.08,0.36
			c-0.33,0.07-0.66,0.14-1.12,0.24c0.98,0.29,1.83,0.54,2.68,0.8c-0.03,0.12-0.05,0.23-0.08,0.35
			C289.5,316.72,288.4,316.61,286.95,316.47z M147.24,319.12c-0.08-0.2-0.17-0.4-0.25-0.6c-2.67,0.99-5.35,1.97-8.19,3.02
			c1.09-0.74,2.02-1.39,2.96-2.03c-0.06-0.13-0.12-0.27-0.18-0.4c-2.03,0.61-4.05,1.21-6.08,1.82c-0.06-0.14-0.12-0.27-0.18-0.41
			c2.13-1.02,4.26-2.05,6.92-3.33c-1.37,0-2.11,0-2.86,0c-0.02-0.11-0.04-0.23-0.06-0.34c1.45-0.36,2.9-0.72,4.69-1.16
			c-0.97-0.14-1.58-0.22-2.18-0.31c0-0.11,0-0.22,0-0.34c2.1-0.39,4.2-0.78,6.42-1.19c-3.19-2.12-9.8-0.55-14.11,3.21
			c-4.72,4.11-6.98,11.27-4.85,15.77c2.52-3.74,6.1-5.81,10.31-6.88c1.9-0.48,3.85-0.8,5.77-1.19c4.34-0.89,8.01-3.13,11.65-5.45
			c-0.07-0.19-0.15-0.38-0.22-0.57c-3.12,1.14-6.23,2.28-9.35,3.42c-0.05-0.12-0.11-0.24-0.16-0.36c0.87-0.6,1.73-1.2,2.6-1.8
			c-0.06-0.14-0.13-0.28-0.19-0.42c-2.15,0.74-4.3,1.47-6.45,2.21c-0.05-0.11-0.09-0.22-0.14-0.33
			C144.49,320.68,145.87,319.9,147.24,319.12z M206.43,103.97c-1.51-3.66-4.16-5.84-8-6.39c-2.59-0.38-5.19,0.81-6.32,2.9
			c-1.22,2.25-0.74,4.39,0.79,6.26c0.97,1.18,2.08,2.29,3.27,3.24c3.26,2.6,4.2,5.9,2.92,9.75c-0.6,1.82-1.65,3.48-2.65,5.54
			c3.44-2.46,5.79-5.2,6.08-9.36c0.06,1,0.13,2,0.19,3c1.33-5.2,2.77-10.4-2.08-15.15c1.1,0.49,1.8,0.8,2.89,1.28
			c-0.8-1.05-1.3-1.71-1.8-2.37c0.1-0.08,0.2-0.17,0.29-0.25c0.92,0.76,1.84,1.53,3.13,2.59c-0.58-1.24-0.96-2.06-1.34-2.87
			c0.11-0.07,0.22-0.14,0.32-0.21C204.89,102.62,205.66,103.29,206.43,103.97z M224.55,104.01c1.31-1.03,2.47-1.93,3.63-2.84
			c0.07,0.1,0.14,0.2,0.21,0.3c-0.75,1.02-1.5,2.04-2.26,3.06c0.09,0.06,0.18,0.12,0.27,0.18c0.92-0.76,1.84-1.53,2.76-2.29
			c0.08,0.09,0.16,0.18,0.24,0.28c-0.48,0.72-0.96,1.44-1.59,2.39c0.93-0.39,1.57-0.67,2.54-1.07c-3.14,3.86-3.88,10.1-1.75,14.08
			c0-1,0-1.81,0-2.95c2.42,7.35,3.27,8.69,6.39,9.98c-0.42-0.62-0.73-1.05-1.01-1.49c-3.27-5.06-3.65-10.49,2.14-14.55
			c1.27-0.89,2.38-2.24,3.11-3.63c1.8-3.41-0.21-7.13-4.02-7.79C231.01,96.94,226.17,99.76,224.55,104.01z M235.86,320.69
			c-14.26,2.63-24.56,2.72-38.33,0.38c-2.44-0.41-2.63-0.27-3.23,2.75c14.26,3.54,28.44,3.58,42.93-0.09
			C236.68,322.5,236.28,321.63,235.86,320.69z M212.99,355.53c-3.27,7.88-2.38,12.45,2.78,15.42c5.21-3.69,6.15-8.49,2.68-14.96
			c0,1.87,0,3.41,0,4.96c-0.24,0.01-0.48,0.02-0.72,0.03c-0.64-9.5-1.29-19-1.93-28.5c-1.44,9.47-0.08,19.19-3.23,28.46
			C212.72,359.13,212.86,357.33,212.99,355.53z M215.53,89.02c0.11,0.02,0.23,0.05,0.34,0.07c0.05-0.48,0.08-0.97,0.14-1.45
			c0.6-5.22,0.62-10.65,3.46-15.25c2.03-3.29,0.48-8.56-2.83-11.03c-0.4-0.3-1.28-0.44-1.63-0.21c-2.97,1.98-4.95,7.37-3.46,10.4
			c1.43,2.91,2.17,6.19,2.9,9.38C215.05,83.57,215.19,86.32,215.53,89.02z M162.73,324.11c-4.59,0.54-7.97,4.36-8.93,9.7
			c-0.83,4.64,1.32,9.96,4.73,11.64c-0.86-10.18,4.83-16.15,13.16-20.5c-5.64,1.33-10.51,3.85-14.36,8.28
			c0.57-1.06,1.14-2.11,1.97-3.65c-1.04,0.55-1.6,0.85-2.16,1.14c-0.09-0.1-0.18-0.21-0.28-0.31c0.82-0.87,1.64-1.74,2.5-2.66
			c-0.37-0.02-0.71-0.05-1.43-0.09C159.63,326.4,161.02,325.37,162.73,324.11z M259.65,324.54c3.41,2.88,6.98,5.39,9.89,8.51
			c3.11,3.33,3.58,7.83,3.4,12.49c4.74-3.72,6.09-10.05,3.53-15.43c-1.82-3.82-4.59-6.1-6.52-5.65c1.43,1.9,2.92,3.89,4.42,5.89
			c-0.07,0.06-0.15,0.12-0.22,0.19c-0.82-0.47-1.65-0.93-2.74-1.55c1.16,1.92,2.08,3.46,3.01,5.01
			C270.43,329.15,265.35,326.36,259.65,324.54z M202.65,319.95c8.82,1.44,17.29,1.34,25.94-0.09c-0.66-0.87-1.29-1.48-1.63-2.21
			c-0.72-1.56-1.74-1.88-3.47-1.78c-4.61,0.28-9.25,0.4-13.86,0.19c-2.56-0.12-4.79-0.39-5.85,2.58
			C203.63,319.05,203.17,319.36,202.65,319.95z M243.45,320.79c0.21-0.03,0.42-0.07,0.63-0.1c-0.24-2.1-0.14-4.32-0.79-6.29
			c-1.9-5.81-9.31-7.75-13.8-3.77c-1.97,1.75-2.2,4.11-0.62,6.44c1.59,2.33,3.13,2.76,5.67,1.54c-0.2-0.37-0.41-0.73-0.61-1.1
			c-0.74-1.41-1.03-2.83,0.33-4.03c1.36-1.2,3.11-1.47,4.47-0.42c1.38,1.06,2.48,2.59,3.42,4.1
			C242.84,318.21,243.04,319.56,243.45,320.79z M187.89,320.55c0.34-1.22,0.49-2.05,0.8-2.82c0.86-2.13,2.02-4.21,4.37-4.79
			c1.25-0.31,3.03-0.09,4.04,0.63c1.37,0.98,1.15,2.72,0.33,4.22c-0.21,0.39-0.37,0.8-0.57,1.25c3.27,0.51,4.93-0.26,6.26-2.79
			c0.96-1.84,0.67-3.91-0.97-5.37c-2.08-1.87-4.52-2.79-7.37-2.24C189.49,309.66,186.73,314.22,187.89,320.55z M212.36,80.32
			c-0.45-3.94-1.39-7.64-4.37-10.41c-1.99-1.85-4.77-2.09-6.29-0.64c-1.33,1.27-1.09,3.45,0.71,5.68c2.2,2.73,4.48,5.39,6.65,8.13
			c0.9,1.13,1.62,2.39,2.42,3.58c0.17-0.08,0.35-0.17,0.52-0.25c-0.77-2.22-1.59-4.43-2.29-6.67c-0.45-1.42-0.74-2.89-1.1-4.34
			c0.23-0.07,0.47-0.14,0.7-0.21C210.33,76.9,211.34,78.61,212.36,80.32z M223.6,75.19c-1.38,3.68-2.74,7.29-4.25,11.31
			c3.52-4.27,6.71-8.07,9.81-11.95c1.57-1.96,1.65-4.07,0.42-5.37c-1.11-1.18-3.28-1.18-5.27,0c-0.36,0.21-0.71,0.46-1.01,0.75
			c-3.02,2.9-4.07,6.65-4.9,11.1C220.37,78.82,220.45,75.73,223.6,75.19z M287.85,122.97c1.42,0.2,2.85,0.37,4.27,0.6
			c6.86,1.08,13.39,2.71,17.2,9.43c0.34,0.6,1.46,0.76,2.21,1.13c0.27-0.86,0.9-1.79,0.73-2.56c-0.73-3.33-3.11-5.43-5.99-6.91
			C300.43,121.65,294.27,121.1,287.85,122.97z M143.35,122.87c-0.01-0.29-0.01-0.59-0.02-0.88c-3.12-0.02-6.26-0.32-9.34,0
			c-4.58,0.47-9.07,1.67-12.37,5.15c-1.26,1.33-1.93,3.31-2.59,5.09c-0.18,0.49,0.64,1.35,1,2.03c0.67-0.39,1.65-0.61,1.95-1.19
			c2.72-5.21,7.37-7.51,12.77-8.68C137.59,123.77,140.48,123.36,143.35,122.87z M147.83,119.43c0.02,0.12,0.04,0.23,0.05,0.35
			c-0.51-0.33-1-0.71-1.54-1c-5.63-2.97-11.66-4.27-17.93-3.35c-3.4,0.5-6.72,1.8-9.96,3.04c-1.06,0.41-1.77,1.74-2.58,2.59
			c5.53-1.07,10.71-2.66,15.96-2.92C137.12,117.89,142.49,118.95,147.83,119.43z M315.57,121.9c-2.55-7.94-23.41-9.07-32.74-1.42
			c5.77-2.04,11.12-2.78,16.62-2.53C304.98,118.21,310.25,119.49,315.57,121.9z M211.99,343.63c-2.36,2.99-4.53,5.52-6.43,8.24
			c-1.83,2.62-2.66,5.59-1.56,8.78c0.86,2.48,2.46,2.81,4.2,0.87c2.44-2.73,3.17-6.17,3.77-9.65c-0.81,1.19-1.63,2.38-2.74,4.01
			c0.15-1.1,0.23-1.62,0.34-2.41c-0.73,0.81-1.24,1.38-1.76,1.95c-0.08-0.06-0.16-0.12-0.24-0.18c0.7-1.31,1.4-2.62,2.1-3.93
			c-0.08-0.04-0.16-0.09-0.24-0.13c-0.4,0.51-0.79,1.02-1.19,1.53c-0.09-0.05-0.17-0.1-0.26-0.15
			C209.26,349.7,210.54,346.87,211.99,343.63z M221.78,351.84c-0.09,0.05-0.18,0.11-0.27,0.16c0.51,1.79,1.03,3.58,1.54,5.38
			c-0.09,0.04-0.19,0.07-0.28,0.11c-0.6-1.32-1.2-2.64-1.81-3.96c-0.07,0.04-0.15,0.07-0.22,0.11c0.05,0.38,0.1,0.76,0.15,1.14
			c-0.08,0.03-0.15,0.07-0.23,0.1c-0.48-0.88-0.96-1.77-1.44-2.65c0.53,3.39,1.69,6.52,3.94,9.11c1.88,2.16,3.16,1.88,4.19-0.86
			c1.23-3.29,0.22-6.27-1.71-8.92c-1.84-2.53-3.95-4.87-6.34-7.78c1.77,4.07,3.29,7.57,4.82,11.08c-0.15,0.07-0.31,0.14-0.46,0.21
			C223.03,353.99,222.4,352.92,221.78,351.84z M174.97,114.72c-0.06,0.24-0.12,0.49-0.18,0.73c1.07,0.45,2.27,1.46,3.21,1.27
			c6.06-1.28,12.05-2.82,18.41-4.36c-1.32-0.74-2.62-2.11-3.87-2.05C186.4,110.57,180.54,112.16,174.97,114.72z M256.84,114.85
			c-5.68-2.35-11.41-3.67-17.26-4.55c-2.24-0.34-3.35,0.99-4.53,2.2c5.73,1.31,11.37,2.44,16.91,3.96
			C254.12,117.05,255.44,116.56,256.84,114.85z M236.95,326c-4.84,0.76-9.65,1.51-14.53,2.28c1.97,3.2,5.32,4.67,8.9,3.99
			C234.47,331.66,236.37,329.57,236.95,326z M208.87,328.35c-4.93-0.8-9.74-1.58-14.54-2.36c0.44,3.34,2.44,5.66,5.46,6.31
			C203.38,333.06,207.04,331.51,208.87,328.35z M192.32,328.42c-0.33-5.57-0.33-5.57,2.64-10.43c0.26-0.42,0.59-0.81,0.74-1.27
			c0.18-0.55,0.46-1.47,0.23-1.67c-0.44-0.38-1.25-0.53-1.87-0.47c-0.58,0.05-1.21,0.38-1.69,0.75
			C188.85,318.02,188.75,325.31,192.32,328.42z M238.87,328.33c3.67-3.53,3.69-9.89,0.2-12.92c-0.74-0.65-2.42-1.15-3.09-0.75
			c-1.44,0.85-0.3,2.1,0.34,3.03C238.46,320.78,239.81,324.07,238.87,328.33z M225.15,345.65c0.13,2.42,2.54,4.75,5.44,5.21
			c0.95,0.15,2.01-0.41,3.02-0.65c-0.32-1.08-0.31-2.56-1.03-3.15c-1.63-1.32-3.61-2.2-5.45-3.26c-0.06,0.11-0.12,0.23-0.18,0.34
			c0.64,0.61,1.28,1.21,1.92,1.82c-0.07,0.06-0.13,0.13-0.2,0.19c-0.78-0.35-1.56-0.71-2.68-1.22c0.47,0.63,0.69,0.93,1.22,1.63
			C226.28,346.15,225.81,345.94,225.15,345.65z M202.87,347.06c-0.21-0.25-0.41-0.51-0.62-0.76c1-0.89,2-1.78,3.01-2.67
			c-1.71,0.46-3.29,1.05-4.73,1.89c-0.93,0.55-1.84,1.36-2.36,2.29c-0.38,0.67-0.39,1.88-0.02,2.53c0.28,0.49,1.47,0.74,2.19,0.65
			c2.15-0.25,4.06-1.1,5.28-3.05c0.1-0.16,0.13-0.36,0.21-0.59c-0.41,0.04-0.74,0.08-1.22,0.14c0.4-0.53,0.67-0.9,1.01-1.35
			C204.63,346.47,203.75,346.76,202.87,347.06z M329.77,217.48c1.14-3.57-2.25-3.9-4.09-5.86c1.2,0.38,1.98,0.62,2.76,0.86
			c0.04-0.11,0.08-0.21,0.11-0.32c-1.07-0.51-2.14-1.02-3.33-1.58C325.44,214.51,325.44,214.51,329.77,217.48z M324.51,229.11
			c-0.92,3.2-0.03,4.75,3.66,6.73C328.73,232.59,326.03,231.33,324.51,229.11z M107.82,251.83c0.65-2.38,4.35-3.77,2.12-7.32
			C108.46,246.86,106.22,248.69,107.82,251.83z M321.7,189.9c0.4,3.37,3.58,3.07,5.77,4.86C327.16,190.61,323.78,191.06,321.7,189.9
			z M106.34,207.09c-2.11,1.48-4.84,1.87-4.76,5.07C103.02,210.49,106.74,211.08,106.34,207.09z M323.48,198.22
			c0.31,3.94,3.54,3.78,5.58,5.67C328.73,200.1,325.69,200.04,323.48,198.22z M319.32,182.82c0.77,4.14,4.22,3.16,6.16,4.52
			C324.82,184.12,321.64,184.59,319.32,182.82z M106.37,247.77c0.69-2.21,4.28-3.12,2.7-6.71
			C107.46,243.22,105.37,244.8,106.37,247.77z M104.18,241.05c4.16-4.63,4.16-4.63,3.32-6.75
			C105.92,236.29,103.76,237.87,104.18,241.05z M319.38,261.85c1-2.15,0.26-4.72-1.76-6.71
			C316.16,257.94,318.73,259.63,319.38,261.85z M112.22,251.18c-1.08,2.6-3.16,4.37-1.95,7.15
			C110.83,256.07,114.16,254.74,112.22,251.18z M125.35,276.76c-0.18,2.67-2.13,4.98,0.47,7.48
			C125.68,281.68,128.09,279.41,125.35,276.76z M110.55,186.59c-2.31,1.16-5.03,0.98-5.62,4.03
			C106.47,188.95,110.13,190.72,110.55,186.59z M112.09,262.24c0.42-2.64,2.98-4.35,1.46-7.65
			C112.58,257.29,110.18,259.04,112.09,262.24z M320.2,248.6c-1.07,2.86,1.37,4.1,2.47,5.97C323.89,251.7,321.47,250.4,320.2,248.6z
			 M113.82,265.89c0.29-2.81,3-4.63,1.2-7.84C114.18,260.77,111.89,262.67,113.82,265.89z M140.51,293.54
			c0.1,2.22-1.35,4.69,1.08,6.53C141.22,297.89,142.77,295.45,140.51,293.54z M109.5,190.35c-2.19,0.68-4.84,0.69-5.46,3.55
			C105.85,192.68,108.85,193.25,109.5,190.35z M326.97,240.71c0.6-2.88-1.86-3.92-3.35-5.56
			C323.13,237.92,325.73,238.91,326.97,240.71z M106,213.23c-1.88,1.1-4.63,1.31-4.5,4.37C102.95,216.08,105.92,216.13,106,213.23z
			 M119.64,158.01c2.06-0.83,5.01,0.83,6.61-2.57C123.73,156.39,121,155.25,119.64,158.01z M112.05,184.01
			c-0.16-0.23-0.33-0.45-0.49-0.68c-4.06,0.97-5.23,1.77-5.51,3.76c1.1-0.39,2.26-0.67,3.31-1.2
			C110.33,185.4,111.16,184.65,112.05,184.01z M268.11,309.12c-1.85,0.79-2.79,3.33-2.6,6.59
			C267.17,314.63,267.17,314.63,268.11,309.12z M271.07,307.72c-2.74,1.43-1.63,4.26-2.41,6.43
			C271.28,312.69,270.58,310,271.07,307.72z M290.86,293.88c-2.65,1.83-0.65,4.38-1.17,6.55
			C292.24,298.64,290.53,296.07,290.86,293.88z M311.79,158.08c-1.45-2.86-4.13-1.72-6.65-2.24
			C306.76,159.11,309.72,157.15,311.79,158.08z M136.12,295.2c-0.41-2.24,1.72-4.87-0.99-6.75
			C135.41,290.72,133.68,293.23,136.12,295.2z M321.2,258.18c1.38-2.91-0.95-4.34-2.21-6.82
			C317.91,254.73,320.68,256.04,321.2,258.18z M123.23,280.27c0.26-2.2,2.48-4.35-0.09-6.91
			C123.02,275.88,121.38,278.01,123.23,280.27z M116.44,261.26c-0.66,2.65-2.39,4.58-1.24,7.29
			C117.8,264.11,117.8,264.09,116.44,261.26z M145.8,298.11c0.35,2.36-0.87,5.11,1.77,6.82
			C146.57,302.74,148.43,299.84,145.8,298.11z M328.59,232.5c0.43-2.71-0.98-4.55-4.16-5.91
			C324.97,229.15,327.27,230.21,328.59,232.5z M108.86,193.19c-2.28,1.19-4.89,1.34-5.56,4.14
			C105,195.94,108.31,196.74,108.86,193.19z M107.41,199.47c-1.92,1.09-4.75,1.08-5.07,4.08
			C103.91,202.03,107.04,202.49,107.41,199.47z M128.12,286.71c-0.34-2.12,2.29-4.34-0.36-6.42
			C127.75,282.42,125.96,284.55,128.12,286.71z M160.26,307.69c0.84,2.19-0.14,5.14,2.8,6.41
			C162.17,311.94,162.88,309.13,160.26,307.69z M106.13,223.84c-1.74,1.57-4.27,2.57-3.74,5.61
			C103.58,227.52,106.47,226.78,106.13,223.84z M169.67,316.98c-1.09-2.1-0.32-5.12-3.09-6.33
			C167.36,312.89,166.85,315.76,169.67,316.98z M308,280.71c1.56-1.86,1.37-4.51-0.28-6.98C305.9,276.15,308.2,278.19,308,280.71z
			 M279.82,302.34c-2.09,1.84-1.34,4.54-2.04,6.81C280.39,307.49,279.4,304.7,279.82,302.34z M133.48,292.85
			c0.53-6.11,0.53-6.11-1.05-6.96C132.78,288.18,130.98,290.62,133.48,292.85z M295.19,295.56c2.08-2.01,0.74-4.25,0.59-6.42
			C293.47,291.09,295.6,293.43,295.19,295.56z M329.61,211.97c0.25-3.28-2.91-3.07-4.77-4.95
			C324.88,210.68,328.18,210.32,329.61,211.97z M166.22,315.76c-0.75-5.31-1.05-5.96-2.92-6.52
			C164.08,313.68,164.45,314.55,166.22,315.76z M108.27,238.09c-2.47,1.94-3.53,4.05-2.96,5.88
			C109.13,239.51,109.34,239.76,108.27,238.09z M123.43,152.53c5.56-0.33,5.56-0.33,6.17-1.58
			C125.2,150.24,124.66,150.38,123.43,152.53z M107.69,181.44c5.61-2.37,5.61-2.37,5.89-3.65
			C109.37,178.68,108.5,179.19,107.69,181.44z M130.7,289.8c-0.11-2.27,1.75-4.68-0.56-7.32
			C129.95,285.28,128.61,287.65,130.7,289.8z M264.67,310.97c-2.82,1.16-1.52,4.09-2.59,6.05
			C264.77,315.83,263.96,313.08,264.67,310.97z M319.76,172.14c-1.23-2.58-3.72-1.92-6.19-2.74
			C315.1,172.63,317.79,171.45,319.76,172.14z M322.49,178.21c-1.16-2.62-3.78-2.26-5.93-2.89
			C317.53,178.26,320.66,176.93,322.49,178.21z M121.04,277.49c0.03-2.2,2.35-4.19,0.46-6.52
			C121.05,273.13,119.23,275.15,121.04,277.49z M117.72,160.93c1.94-0.87,4.73,0.63,6.49-2.47
			C121.6,159.16,119.1,158.34,117.72,160.93z M305.59,149.81c-1.73-2.36-3.96-1.11-6.53-1.3
			C301.22,151.18,303.57,149.42,305.59,149.81z M157.09,305.83c0.7,2.23,0.18,4.98,2.62,6.49
			C158.79,310.17,159.87,307.2,157.09,305.83z M283.94,305.1c2.04-1.89,1.4-4.25,1.23-6.54C283.29,300.44,284.2,302.89,283.94,305.1
			z M215.93,109.05c-0.17,0-0.34,0.01-0.51,0.01c-0.32,1.94-0.64,3.89-0.98,6c0.82,0,1.53,0,2.37,0
			C216.5,112.99,216.22,111.02,215.93,109.05z M270.49,126.14c2.49,2.24,4.27-0.09,6.55-0.2
			C274.63,123.51,272.84,125.62,270.49,126.14z M317.01,166.49c-1.48-2.43-3.94-2.14-6.47-2.47
			C312.08,167.14,314.96,165.64,317.01,166.49z M314.97,261.37c-1.85,2.99,0.71,4.65,1.1,6.73
			C317.78,265.6,315.63,263.86,314.97,261.37z M297.73,292.84c2.14-2.03,0.75-4.26,0.6-6.43
			C296.13,288.4,297.95,290.69,297.73,292.84z M274.94,310.81c1.98-1.8,1.99-4.2,2.05-6.58
			C274.58,305.85,275.6,308.62,274.94,310.81z M303.37,147.09c-1.9-1.89-4.06-0.83-6.59-0.94
			C299.07,148.57,301.28,147.19,303.37,147.09z M294.54,144.03c2.29,2.06,4.52,0.57,6.84,0.93
			C299.94,143.17,299.39,143.1,294.54,144.03z M108.12,254.56c0.33,0.14,0.66,0.27,0.98,0.41c0.52-2.13,3.18-3.38,2.52-6.01
			c-0.24-0.11-0.47-0.21-0.71-0.32C109.98,250.61,109.05,252.59,108.12,254.56z M153.49,308.59c-0.95-2.05,0.45-4.83-2.01-6.35
			C151.79,304.48,150.91,307.08,153.49,308.59z M291.9,141.52c2.53,2.35,4.7,0.46,6.75,0.67
			C296.7,140.02,294.55,141.61,291.9,141.52z M274.04,305.94c-2.28,1.65-1.71,4.22-2.18,6.46
			C274.36,310.82,273.58,308.18,274.04,305.94z M138.75,297.62c-0.38-2.16,1.55-4.61-0.89-6.5
			C137.98,293.31,136.44,295.71,138.75,297.62z M106.61,226.72c-1.67,1.68-4.16,2.81-3.82,5.81
			C103.82,230.43,106.77,229.6,106.61,226.72z M307.65,159.04c1.38,2.78,4.09,0.99,6.02,1.91
			C312.26,158.26,309.75,159.37,307.65,159.04z M118.94,166.85c-2.08,0.83-4.94,0.03-6.01,2.81
			C114.85,168.5,117.9,169.77,118.94,166.85z M325.8,244.39c0.86-2.18-0.36-4.5-2.97-6.18C322.21,240.99,325.09,241.88,325.8,244.39
			z M109.18,178.13c1.66-1.45,4.68-0.48,5.63-3.12C112.72,175.7,110.05,175.3,109.18,178.13z M154.62,125.57
			c1.93,0.34,3.52,2.95,6.08,0.66C158.45,126.02,156.85,123.67,154.62,125.57z M118.25,265.18c-0.62,2.06-2.56,3.82-1.13,6.24
			C117.55,269.33,120.03,267.69,118.25,265.18z M150.49,306.9c-0.96-2.16,0.64-4.99-1.87-6.74
			C148.83,302.52,147.99,305.16,150.49,306.9z M141.36,139.26c-2.34-0.23-4.4-1.37-6.3,0.49
			C137.05,139.78,139.09,141.86,141.36,139.26z M325.16,247.67c0.48-2.58-0.98-5.11-3.1-6.26c-0.18,0.1-0.35,0.21-0.53,0.31
			C322.64,243.55,323.76,245.37,325.16,247.67z M132.29,142.55c2.26-0.63,4.37,1.43,6.43-0.65
			C134.65,140.62,133.76,140.67,132.29,142.55z M101.86,226c4.2-3.19,4.34-3.36,4.12-5C102.63,222.86,101.65,224.05,101.86,226z
			 M130.22,144.57c1.95-0.28,4.15,1.55,5.89-0.63C134.13,144.09,131.98,141.95,130.22,144.57z M310.23,277.37
			c1.35-1.25,1.08-4.08-0.62-6.78C308.26,273.06,310.16,275.1,310.23,277.37z M280.75,307.1c2.56-1.66,1.57-4.3,1.85-6.61
			C280.42,302.24,281.47,304.9,280.75,307.1z M131.77,148.53c-1.98,0.09-4.23-1.36-5.86,0.89
			C127.88,149.25,130.06,150.69,131.77,148.53z M114.2,166.5c5.95-1.03,5.95-1.03,6.42-2.87
			C118.45,164.38,115.97,164.08,114.2,166.5z M328.96,228.57c0.33-2.98-2.44-3.41-3.91-4.91
			C324.92,226.47,327.5,227.06,328.96,228.57z M329.58,220.48c-0.11-2.75-2.56-3.24-4.29-4.46
			C325.43,218.71,328.14,218.96,329.58,220.48z M106.99,229.73c-1.76,1.66-3.78,3.11-3.8,5.87
			C104.13,233.4,107.41,232.81,106.99,229.73z M106.91,202.62c-1.91,0.94-4.4,1.12-4.96,3.8
			C103.56,205.09,106.48,205.48,106.91,202.62z M300.57,284.01c-0.34-0.01-0.68-0.02-1.02-0.03c0.19,2.07,0.38,4.14,0.62,6.71
			C302.41,288.12,300.84,286.07,300.57,284.01z M315.29,172.68c1.28,2.47,3.89,1.59,5.82,2.44
			C319.95,172.35,317.32,173.27,315.29,172.68z M143.3,295.57c-0.7,4.74-0.45,5.98,1.56,7.11
			C143.73,300.4,145.46,297.78,143.3,295.57z M152.03,131.03c-2.33-0.07-4.14-2.08-6.58,0.23
			C147.84,131.19,149.59,133.53,152.03,131.03z M156.63,310.66c-0.91-2.11,0.08-4.91-2.35-6.48
			C154.97,306.37,153.84,309.22,156.63,310.66z M139.94,135.51c2.38-0.18,4.31,1.64,6.64-0.5
			C144.21,134.84,142.28,133.06,139.94,135.51z M317.92,264.85c0.99-2.5-0.7-4.18-1.76-6.58
			C315.09,261.28,317.22,262.84,317.92,264.85z M293.38,291.54c-2.26,1.92-0.62,4.24-0.77,6.4
			C294.51,296.01,293.29,293.7,293.38,291.54z M118.93,274.36c0.53-2.04,2.43-3.87,0.95-6.23
			C119.41,270.19,117.37,271.99,118.93,274.36z M293.33,137.59c-1.87-2.01-3.82-0.6-6.08-0.37
			C289.38,139.63,291.4,137.44,293.33,137.59z M117.7,169.66c-4.63,0.86-5.22,1.13-5.94,2.91
			C113.44,171.17,116.39,172.69,117.7,169.66z M284.84,135.12c1.99,2.03,3.99,0.25,6.37,0.27
			C288.89,133.18,286.86,135.07,284.84,135.12z M312.25,274.72c1.45-2.11,1.07-4.27-1.32-6.52
			C311.34,270.24,311.75,272.27,312.25,274.72z M326.5,190.41c-1.04-2.58-3.71-2.51-5.74-3.52
			C321.82,189.41,324.65,189.11,326.5,190.41z M127.52,153.49c-2.12,0.07-4.44-0.65-5.99,1.57
			C123.46,154.23,125.96,155.86,127.52,153.49z M303.49,153.37c1.6,2.51,4.17,0.95,6.18,1.7
			C308.11,152.68,305.6,153.73,303.49,153.37z M312.56,167.15c1.38,2.31,3.89,1.41,5.82,2.15
			C317.05,166.86,314.65,167.45,312.56,167.15z M172.44,313.25c0.51,1.97,0.96,3.67,1.52,5.84
			C175.15,315.21,174.79,313.83,172.44,313.25z M288.35,295.94c-1.71,1.38-2.01,3.38-1.44,7.25
			C289.29,301.17,288.06,298.63,288.35,295.94z M261.43,312.29c-2.53,1.17-1.37,3.82-2.23,5.66
			C261.32,316.61,261.17,314.36,261.43,312.29z M296.07,139.83c-1.83-2.05-3.92-0.41-6.39-0.6
			C291.95,141.62,294.09,139.6,296.07,139.83z M314.45,271.07c1.09-2.35-0.35-4.02-1.33-5.82
			C312.04,267.56,313.71,269.21,314.45,271.07z M306.35,282.99c1.33-2.09-0.04-3.97-0.38-6.23
			C304.87,278.22,304.87,278.22,306.35,282.99z M197,116.63c-1.37-2.22-2.27-2.48-4.51-1.35C193.73,116.44,194.88,117.75,197,116.63
			z M327.96,197.28c-0.98-2.4-3.44-2.6-5.35-3.65C323.48,196.14,326.1,196.14,327.96,197.28z M328.41,199.7
			c-1.02-2.3-3.37-2.58-5.3-3.51C324.07,198.59,326.59,198.61,328.41,199.7z M102.51,200.47c4.87-1.98,5.15-2.18,5.32-3.72
			C104.18,197.74,103.41,198.25,102.51,200.47z M106.53,183.99c3.39-0.61,5.56-1.76,5.93-3.25
			C110.33,181.6,107.9,181.59,106.53,183.99z M276.4,129.5c2.64,2.26,4.3-0.19,6.82,0C280.55,127.48,278.76,129.31,276.4,129.5z
			 M309.42,161.46c-0.07,0.33-0.15,0.66-0.22,0.99c2.01,0.4,4.03,0.8,6.54,1.31C313.82,161.27,311.52,161.71,309.42,161.46z
			 M148.65,134.16c0.03-0.38,0.07-0.76,0.1-1.14c-1.87,0.1-3.57-1.96-6.14,0.17C144.97,133.57,146.81,133.87,148.65,134.16z
			 M169.58,311.88c1.45,5.48,1.46,5.5,3.25,6.2C171.38,316.08,172.61,313.27,169.58,311.88z M143.61,137.27
			c-1.96-0.12-3.94-1.93-6.26,0.34C139.73,137.45,141.68,139.31,143.61,137.27z M324.15,184.02c0.11-0.18,0.22-0.36,0.33-0.54
			c-1.36-2.03-3.68-2.07-5.65-2.86c-0.13,0.29-0.27,0.57-0.4,0.86C320.34,182.32,322.25,183.17,324.15,184.02z M282.42,133.27
			c0.04,0.29,0.08,0.59,0.12,0.88c1.87-0.27,3.73-0.55,6.08-0.9C286.04,131.21,284.27,132.81,282.42,133.27z M323.5,181.17
			c-0.54-1.9-2.64-2.82-5.74-2.71c-0.07,0.18-0.15,0.36-0.22,0.55C319.48,179.71,321.42,180.42,323.5,181.17z M285.45,131.11
			c-2.13-1.64-3.84-0.27-6.05,0.42C281.92,133.32,283.58,131.38,285.45,131.11z M151.67,127.29c1.84,0.15,3.34,2.74,5.79,0.68
			C155.35,127.52,153.78,125.76,151.67,127.29z M127.92,146.99c1.93-0.41,4.14,1.32,5.82-0.74
			C131.75,146.18,129.65,145.1,127.92,146.99z M154.26,129.68c-1.76-0.55-3.37-2.32-5.38-0.74
			C150.65,129.46,152.21,131.25,154.26,129.68z M301.3,151.2c2.19,2.04,4.52,0.53,6.88,1.62
			C306.46,150.78,306.14,150.71,301.3,151.2z M101.06,219.71c0.22,0.25,0.43,0.49,0.65,0.74c1.14-1.71,4.03-1.56,4.49-4
			c-0.17-0.18-0.33-0.36-0.5-0.54C104.16,217.18,102.61,218.45,101.06,219.71z M279.65,127.51c-2.06-1.68-3.71,0.16-5.87,0.43
			C276.13,129.9,277.79,127.58,279.65,127.51z M324.43,202.28c-0.2,0.26-0.41,0.53-0.61,0.79c1.73,1.14,3.46,2.28,5.19,3.43
			C328.57,203.65,326.05,203.55,324.43,202.28z M122.12,162.18c-0.1-0.31-0.19-0.61-0.29-0.92c-1.93,0.67-4.33,0.09-6.13,2.6
			C118.19,163.21,120.15,162.7,122.12,162.18z M302.56,287.55c1.34-1.46,1.14-3.47-0.46-6.04
			C301.04,283.69,302.55,285.45,302.56,287.55z M321.47,244.42c-0.06,2.3,1.72,3.57,2.97,5.15
			C324.56,247.26,322.74,245.99,321.47,244.42z M329.27,223.35c0.23-0.22,0.47-0.45,0.7-0.67c-1.52-1.38-3.04-2.76-4.56-4.14
			C325.33,221.45,328.23,221.52,329.27,223.35z M238.83,115.09c-0.11-0.24-0.22-0.49-0.32-0.73c-1.29,0.57-2.57,1.14-3.86,1.71
			C236.79,117.51,236.79,117.51,238.83,115.09z M110.14,174.21c0.09,0.33,0.18,0.67,0.28,1c1.74-1.08,4.15-0.54,5.61-2.28
			c-0.09-0.23-0.18-0.46-0.26-0.7C113.89,172.9,112.02,173.56,110.14,174.21z M106.28,219.24c-0.19-0.2-0.37-0.4-0.56-0.59
			c-1.56,1.19-3.79,1.7-3.98,4.32C103.25,221.72,104.77,220.48,106.28,219.24z M247.56,116.86c-0.15-0.3-0.3-0.61-0.45-0.91
			c-1.37,0.72-2.74,1.44-4.12,2.15C245.34,119.42,246.36,117.94,247.56,116.86z M325.61,221.34c-0.2,0.14-0.39,0.28-0.59,0.41
			c0.82,1.84,2.79,2.52,4.08,3.89c0.19-0.2,0.39-0.4,0.58-0.6C328.33,223.81,326.97,222.57,325.61,221.34z M187.84,118.87
			c0.08-0.25,0.16-0.5,0.23-0.75c-1.28-1.03-2.32-2.76-4.88-1.28C184.94,117.61,186.39,118.24,187.84,118.87z M324.9,204.9
			c-0.19,0.26-0.38,0.52-0.57,0.78c1.63,0.97,3.26,1.95,4.89,2.92c0.16-0.25,0.33-0.51,0.49-0.76
			C328.11,206.86,326.5,205.88,324.9,204.9z M257.09,317.94c0.21,0.04,0.42,0.09,0.63,0.13c0.3-1.5,0.61-2.99,0.99-4.88
			C255.67,314.51,257.59,316.49,257.09,317.94z M162.63,125.87c0.1-0.35,0.2-0.69,0.29-1.04c-1.64-0.52-3.28-1.03-4.92-1.55
			c-0.09,0.28-0.18,0.55-0.27,0.83C159.37,124.7,161,125.29,162.63,125.87z M106.44,211.66c-0.21-0.3-0.41-0.6-0.62-0.9
			c-1.55,1.06-3.09,2.12-4.64,3.18c0.14,0.19,0.27,0.39,0.41,0.58C103.21,213.57,104.82,212.61,106.44,211.66z M304.46,284.74
			c0.25-0.03,0.5-0.06,0.75-0.09c-0.37-1.68-0.74-3.37-1.1-5.05c-0.29,0.07-0.58,0.13-0.87,0.2
			C303.64,281.44,304.05,283.09,304.46,284.74z M106.75,205.86c-3.25,0.6-4.4,1.41-4.8,2.84
			C103.58,207.74,105.17,206.8,106.75,205.86z M321.08,246.48c-0.2,0.13-0.41,0.27-0.61,0.4c1.09,1.5,2.18,3,3.27,4.5
			c0.19-0.13,0.37-0.25,0.56-0.38C323.22,249.5,322.15,247.99,321.08,246.48z M240.01,117.63c0.13,0.27,0.26,0.54,0.38,0.82
			c1.15-0.68,2.3-1.36,3.45-2.03c-0.15-0.27-0.31-0.54-0.46-0.8C242.26,116.29,241.13,116.96,240.01,117.63z"/>
		<path d="M167.7,215.52c0,1.79,0,3.3,0,5.02c-4.88,0-9.74,0-14.76,0c0-12,0-23.96,0-36.05c1.88,0,3.66,0,5.69,0
			c0,10.32,0,20.54,0,31.03C161.75,215.52,164.66,215.52,167.7,215.52z"/>
		<path d="M241.71,235.49c-0.85,0.62-1.64,1.62-2.57,1.76c-1.3,0.2-2.23-0.79-2.21-2.19c0.03-1.39,0.98-2.31,2.29-2.11
			c0.88,0.13,1.64,1.01,2.46,1.56C241.7,234.84,241.71,235.17,241.71,235.49z"/>
		<path d="M188.05,86.52c-2.5,1.26-5.66,2.85-8.58,4.32C181.65,87.85,185.12,86.85,188.05,86.52z"/>
		<path d="M245.36,87c2.91,0.52,5.7,2.21,7.16,5.16C250.17,90.46,247.53,88.57,245.36,87z"/>
	</g>
</g>
</svg>
