<?xml version="1.0" encoding="utf-8"?>
<!-- Generator: Adobe Illustrator 24.1.1, SVG Export Plug-In . SVG Version: 6.00 Build 0)  -->
<svg version="1.1" id="Layer_1" xmlns="http://www.w3.org/2000/svg" xmlns:xlink="http://www.w3.org/1999/xlink" x="0px" y="0px"
	 viewBox="0 0 432 432" style="enable-background:new 0 0 432 432;" xml:space="preserve">
<g>
	<g fill="FRAME_COLOR">
		<path d="M185.94,96.29c-3.2,0.71-6.42,1.32-9.58,2.16c-15.42,4.11-28.91,11.8-40.97,22.16c-22.52,19.34-35.1,43.99-39.2,73.16
			c-4.35,30.99,2.57,59.43,20.29,85.04c12.97,18.74,30.27,32.48,51.33,41.42c8.65,3.67,17.57,6.29,26.85,7.73
			c2.34,0.37,2.34,0.37,4.4,4.13c-2.28-0.25-4.33-0.36-6.33-0.73c-25.9-4.73-48.09-16.52-66.32-35.49
			c-25.47-26.5-36.73-58.39-33.75-94.84c2.4-29.39,13.73-55.15,35.09-76.04c12.78-12.49,27.49-21.81,44.76-26.74
			c4.35-1.24,8.88-1.87,13.33-2.78C185.86,95.76,185.9,96.02,185.94,96.29z"/>
		<path d="M246.02,95.58c3.3,0.57,6.64,0.96,9.89,1.73c16.59,3.91,30.87,12.22,43.62,23.3c18.62,16.18,30.49,36.51,36.53,60.33
			c6.41,25.31,4.96,50.3-4.48,74.53c-12.72,32.65-35.8,55.42-68.16,68.83c-8.87,3.68-17.9,6.66-27.52,7.57
			c-0.76,0.07-1.52,0.13-2.33,0.19c0.7-2.66,2.25-3.75,4.95-4.24c26.79-4.94,49.56-17.3,67.89-37.55
			c23.96-26.48,33.23-57.86,29.88-93.02c-2.01-21.07-9.06-40.54-21.85-57.61c-13.1-17.49-29.62-30.71-50.17-38.46
			c-5.29-2-10.94-3.03-16.43-4.49c-0.64-0.17-1.29-0.31-1.93-0.46C245.93,96,245.97,95.79,246.02,95.58z"/>
		<path d="M329.97,298.34c-6.72,10.08-21.26,12.14-28.45,7.26c5.04-1.33,10-2.65,14.95-3.96c-0.03-0.18-0.07-0.35-0.1-0.53
			c-4.39,0.52-8.79,1.04-13.37,1.58C307.91,295.08,323.37,292.65,329.97,298.34z"/>
		<path d="M131.17,305.63c-9.86,5.23-23.14,1.76-28.66-7.21c5.35-5.7,19.92-3.62,27.06,4.27c-5.26-0.64-10.07-1.23-14.88-1.82
			c-0.03,0.13-0.07,0.26-0.1,0.39C120.03,302.7,125.48,304.13,131.17,305.63z"/>
		<path d="M92.34,238.79c-3.66-3.39-6.91-6.4-10.16-9.42c-0.13,0.12-0.26,0.23-0.4,0.35c3.3,4,6.61,8.01,9.88,11.97
			c-9.63-0.35-19.7-12.38-18.59-22.3C81.11,218.12,91.08,227.88,92.34,238.79z"/>
		<path d="M340.09,241.9c3.59-4.25,7.04-8.34,10.49-12.43c-0.13-0.12-0.25-0.24-0.38-0.36c-3.4,3.06-6.8,6.12-10.34,9.31
			c-0.59-8.78,10.41-19.63,18.92-19C360.62,228.66,350.86,240.51,340.09,241.9z"/>
		<path d="M80.66,200.69c1.18,2.43,2.29,4.89,3.55,7.28c1.23,2.35,2.6,4.62,3.95,7c-11.11-3.26-16.15-16.52-13.55-25.74
			c8.04,0.73,15.38,11.69,14.15,22.13c-2.57-3.63-5.13-7.25-7.7-10.88C80.92,200.55,80.79,200.62,80.66,200.69z"/>
		<path d="M345.16,274.82c-4.62,10.51-15.93,15.58-26.83,11.92c5.15-2.18,10.17-4.31,15.2-6.44c-0.06-0.18-0.12-0.36-0.18-0.54
			c-4.38,1.16-8.75,2.32-13.38,3.55C324.6,275.24,338.32,270.76,345.16,274.82z"/>
		<path d="M86.77,274.74c6.92-4.11,20.17,0.19,25.34,8.55c-4.69-1.25-9.05-2.41-13.41-3.58c-0.08,0.18-0.15,0.37-0.23,0.55
			c5.05,2.14,10.1,4.27,15.17,6.42C103.55,290.64,90.66,284.9,86.77,274.74z"/>
		<path d="M343.89,215.15c2.54-4.7,4.99-9.24,7.44-13.78c-0.17-0.11-0.35-0.21-0.52-0.32c-2.53,3.45-5.05,6.9-7.84,10.71
			c-1.33-10.45,6.37-20.91,14.53-22.29C360.27,199.35,354.13,211.98,343.89,215.15z"/>
		<path d="M169.64,327.24c-4.82,1.83-9.32,3.53-13.82,5.24c0.05,0.17,0.1,0.34,0.14,0.51c5.2-1.2,10.4-2.4,15.72-3.63
			c-3.94,8.06-19.72,11.92-27.27,6.84C147.44,327.7,159.92,323.1,169.64,327.24z"/>
		<path d="M77.4,247.81c7.77-2.19,19.34,4.92,22.83,14.5c-4.3-2.34-8.18-4.46-12.06-6.58c-0.11,0.15-0.23,0.3-0.34,0.45
			c4.33,3.23,8.66,6.46,13.09,9.77C89.89,266.83,78.56,258.01,77.4,247.81z"/>
		<path d="M283.69,317.09c8.2-5.66,21.25-4.25,26.62,2.44c-5.31,7.43-22.24,7.28-28.58-0.17c4.9,0,9.89,0,14.88,0
			c0.01-0.06,0.02-0.12,0.03-0.18C292.5,318.51,288.37,317.85,283.69,317.09z"/>
		<path d="M135.42,319.46c4.93,0,9.86,0,14.88,0c-6.41,7.13-20.74,7.38-28.29,0.6c4.84-7.34,17.82-8.93,26-2.98
			c-4.43,0.72-8.51,1.38-12.6,2.04C135.41,319.24,135.42,319.35,135.42,319.46z"/>
		<path d="M322.73,140.64c-0.75-5.01-1.51-10.03-2.27-15.05c-0.19,0.02-0.38,0.04-0.58,0.07c0,4.36,0,8.73,0,13.23
			c-6.54-5.67-7.53-20.71-1.91-26.56C326.49,117.09,329.03,132.56,322.73,140.64z"/>
		<path d="M287.77,336.04c-7.91,5.15-22.15,1.74-27.35-6.56c5.31,1.19,10.52,2.36,15.74,3.52c0.05-0.18,0.1-0.36,0.15-0.53
			c-4.51-1.64-9.02-3.28-13.74-5C272.31,322.47,285.16,328.52,287.77,336.04z"/>
		<path d="M112.22,138.77c0-4.62,0-8.9,0-13.18c-0.19-0.03-0.39-0.05-0.58-0.08c-0.78,5.07-1.57,10.15-2.32,15.05
			c-6.69-5.64-3.98-22.86,4.72-28.19C119.66,117.68,118.82,131.91,112.22,138.77z"/>
		<path d="M332.43,262.18c3.29-9.26,13.18-15.49,21.85-14.39c1.25,8.83-12.17,19.61-22.73,18.03c4.35-3.23,8.57-6.37,12.79-9.51
			c-0.09-0.14-0.18-0.28-0.27-0.42C340.2,257.99,336.31,260.09,332.43,262.18z"/>
		<path d="M85.55,173.41c1.56,5.13,3.11,10.27,4.67,15.43c-9.28-4.72-12.88-19.11-7.6-27.56c7.8,3.14,12.73,15.91,9.19,24.69
			c-2.01-4.39-3.89-8.49-5.77-12.59C85.88,173.38,85.72,173.4,85.55,173.41z"/>
		<path d="M340.34,186.13c-3.58-9.54,0.91-21.29,9.01-24.56c4.63,6.54,3,21.74-7.38,27.43c1.42-5.2,2.82-10.33,4.23-15.47
			c-0.19-0.06-0.39-0.13-0.58-0.19C343.92,177.46,342.22,181.58,340.34,186.13z"/>
		<path d="M299.15,105.91c1.31,4.55,2.62,9.1,4.03,13.97c-8.74-5.31-12.75-17.93-8.4-25.41c9.16,2.56,15.38,17.12,10.94,25.62
			c-2-4.81-3.99-9.61-5.99-14.4C299.54,105.76,299.34,105.84,299.15,105.91z"/>
		<path d="M99.64,160.39c-1.03-4.48-1.98-8.64-2.93-12.8c-0.13,0.01-0.27,0.02-0.4,0.03c0,1.68-0.07,3.36,0.02,5.03
			c0.1,1.75,0.34,3.49,0.55,5.24c0.21,1.71,0.47,3.41,0.74,5.35c-7.96-5.8-9.27-22-2.56-28.26
			C102.27,139.4,104.79,152.56,99.64,160.39z"/>
		<path d="M337.03,135.14c6.08,6.31,5.65,21.7-2.59,28.05c0.48-4.97,0.94-9.77,1.41-14.57c-0.22-0.03-0.45-0.07-0.67-0.1
			c-0.95,3.88-1.9,7.75-2.87,11.71C326.79,154.65,329.52,140.36,337.03,135.14z"/>
		<path d="M284.66,104.82c-2.81-4.41-5.53-8.7-8.26-12.99c-0.15,0.08-0.3,0.17-0.45,0.25c1.96,4.04,3.93,8.07,6.05,12.42
			c-8.87-3.14-15.12-14.71-12.58-22.6C280.54,83.95,287.61,95.67,284.66,104.82z"/>
		<path d="M129.18,119.63c1.28-4.84,2.43-9.19,3.58-13.55c-0.18-0.06-0.36-0.13-0.53-0.19c-1.93,4.7-3.85,9.41-5.77,14.1
			c-4.74-10.1,2.52-22.18,10.59-25.23C141.12,100.02,138.77,113.4,129.18,119.63z"/>
		<path d="M194.24,335.96c-4.79,10.12-16.87,12.65-25.07,10.86c0.29-8.6,13.5-16.14,23.15-12.78c-4.8,2.42-9.3,4.68-13.81,6.94
			c0.08,0.19,0.16,0.38,0.23,0.57C183.9,339.69,189.05,337.84,194.24,335.96z"/>
		<path d="M333.43,213.29c-9.42-1.12-17.47-12.28-16.47-22.38c8.06-0.49,18.01,10.45,17.01,19.08c-3.11-3.3-6.07-6.44-9.04-9.58
			c-0.12,0.09-0.24,0.18-0.36,0.26C327.48,204.81,330.39,208.95,333.43,213.29z"/>
		<path d="M150.51,104.14c2.06-4.27,3.89-8.08,5.73-11.89c-0.21-0.12-0.42-0.24-0.63-0.35c-2.71,4.23-5.41,8.45-8.07,12.6
			c-3.96-7.44,5.53-21.57,15.17-22.28C165.17,90.36,159.9,100.15,150.51,104.14z"/>
		<path d="M299.45,269.96c5.77,5.76,5.89,19.07-1.65,25.33c0-4.42,0-8.87,0-13.31c-0.06-0.01-0.12-0.03-0.18-0.04
			c-0.9,4.75-1.8,9.51-2.74,14.49C290.27,289.24,290.53,276.11,299.45,269.96z"/>
		<path d="M121.86,252.01c6.86,6.5,6.87,19.41-0.09,27.94c0-5.42,0-10.57,0-15.72c-0.18-0.02-0.35-0.03-0.53-0.05
			c-0.68,4.49-1.35,8.98-2.04,13.54C113.41,272.61,114.8,259.29,121.86,252.01z"/>
		<path d="M149.51,295.51c0.95,4.51,1.9,9.02,2.87,13.63c-7.89-4.02-11.43-18.48-6.18-24.69c8.9,4.79,12.76,15.29,9.22,25.77
			c-1.89-5.1-3.68-9.93-5.47-14.75C149.81,295.48,149.66,295.49,149.51,295.51z"/>
		<path d="M134.32,281.34c0,4.71,0,9.42,0,14c-7.36-6.36-7.29-19.18-2.05-25.41c8.28,4.33,10.21,17.13,5.12,26.52
			c-1.02-5.33-1.97-10.26-2.91-15.19C134.43,281.29,134.38,281.31,134.32,281.34z"/>
		<path d="M279.77,309.32c0.96-4.67,1.9-9.23,2.84-13.79c-0.14-0.04-0.29-0.09-0.43-0.13c-1.75,4.79-3.5,9.57-5.28,14.44
			c-3.96-7.79-0.76-20.48,9.02-25.28C290.12,290.28,288.59,303.76,279.77,309.32z"/>
		<path d="M310.26,252.02c6.84,6.69,8.1,18.1,2.65,25.66c-0.71-4.67-1.39-9.08-2.06-13.49c-0.14,0.01-0.28,0.02-0.43,0.03
			c0,5.14,0,10.28,0,15.39C303.43,275.45,303.25,259.31,310.26,252.02z"/>
		<path d="M111.81,245.42c-1.46,3.89-2.91,7.78-4.42,11.8c-4.32-6.59-0.32-19.18,7.45-24.09c5.95,6.17,3.13,20.37-5.59,26.7
			c1.09-4.94,2.12-9.59,3.14-14.24C112.2,245.54,112,245.48,111.81,245.42z"/>
		<path d="M262.68,95.18c-3.89-3.54-7.62-6.94-11.34-10.33c-0.13,0.12-0.26,0.23-0.39,0.35c2.9,3.39,5.8,6.78,8.79,10.26
			c-8.16,0.17-16.85-8.9-17.39-17.93C251.2,75.24,262.04,84.56,262.68,95.18z"/>
		<path d="M312.31,159.01c4.3,2.43,8.6,4.85,13.07,7.37c-8.56,3.36-21.68-4.36-23.65-13.64c6.97-3.14,19.19,2.3,22.97,10.51
			c-4.22-1.63-8.2-3.17-12.18-4.71C312.44,158.7,312.38,158.85,312.31,159.01z"/>
		<path d="M130.46,152.87c-2.68,9.54-14.05,16.24-23.64,13.65c4.51-2.61,8.75-5.06,13-7.51c-0.08-0.16-0.15-0.32-0.23-0.49
			c-3.95,1.55-7.9,3.1-11.86,4.65C109,156.05,123.14,149.58,130.46,152.87z"/>
		<path d="M319.46,212.15c10.06,4.27,14.32,14.19,12.21,22.14c-2.5-3.97-4.87-7.73-7.24-11.49c-0.17,0.08-0.34,0.17-0.51,0.25
			c2.13,4.73,4.27,9.46,6.41,14.21C322.39,236.4,315.28,219.94,319.46,212.15z"/>
		<path d="M97.96,210.05c-0.05-9.28,9.03-19.21,17.1-19.27c0.33,11.3-6.67,20.75-16.09,22.21c2.96-4.25,5.85-8.4,8.74-12.55
			c-0.14-0.11-0.28-0.21-0.42-0.32C104.29,203.31,101.3,206.5,97.96,210.05z"/>
		<path d="M317,233.05c8.03,5.2,11.36,15.37,7.83,24.52c-1.61-4.26-3.11-8.23-4.6-12.19c-0.18,0.06-0.35,0.11-0.53,0.17
			c0.98,4.69,1.96,9.37,3,14.34C313.72,252.42,311.97,242.01,317,233.05z"/>
		<path d="M172.09,95.63c3.24-3.67,6.22-7.06,9.21-10.44c-0.14-0.14-0.28-0.29-0.42-0.43c-3.7,3.32-7.41,6.65-11.11,9.97
			c-1.16-8.94,10.59-18.91,19.93-16.92C190.63,85.34,181.73,94.47,172.09,95.63z"/>
		<path d="M100.31,234.26c-2.34-8.23,3.82-19.08,12.21-22.14c4.27,7.4-1.53,21.09-11.13,25.62c2.29-5.1,4.46-9.94,6.63-14.78
			c-0.16-0.08-0.33-0.16-0.49-0.24C105.18,226.48,102.82,230.25,100.31,234.26z"/>
		<path d="M167.09,306.73c1.54,4.02,3.09,8.05,4.68,12.2c-8.2-2.55-13.48-15.23-9.64-22.72c8.47,1.64,14.61,12.55,12.63,23.26
			c-2.6-4.61-4.97-8.81-7.34-13.01C167.31,306.54,167.2,306.63,167.09,306.73z"/>
		<path d="M120.57,171.41c-0.53,9.4-9.14,17.98-20.03,17.8c3.92-3.41,7.62-6.63,11.32-9.85c-0.11-0.14-0.21-0.28-0.32-0.43
			c-3.57,2.27-7.13,4.54-10.79,6.87C100.91,178.24,113.52,169.23,120.57,171.41z"/>
		<path d="M311.52,171.41c7.1-2.12,19.09,6.51,20.12,14.79c-3.93-2.62-7.69-5.11-11.44-7.61c-0.09,0.11-0.18,0.22-0.28,0.32
			c3.74,3.38,7.48,6.75,11.33,10.23C321.97,190.1,311.64,180.69,311.52,171.41z"/>
		<path d="M119.21,143.04c3.28-7.18,17.11-10.77,24.18-6.41c-3.21,6.55-12.63,13.48-25.48,9.4c4.8-1.81,9.16-3.46,13.52-5.1
			c-0.05-0.18-0.11-0.36-0.16-0.53C127.28,141.28,123.29,142.15,119.21,143.04z"/>
		<path d="M313.03,143.16c-4.41-0.99-8.49-1.91-12.57-2.84c-0.06,0.17-0.11,0.34-0.17,0.51c4.43,1.67,8.85,3.34,13.48,5.09
			c-8.15,4.27-21.52-0.77-25.09-9.18C295.27,132.2,307.92,135.38,313.03,143.16z"/>
		<path d="M179.51,303.87c8.52,0.42,17.18,11.39,15.6,20.28c-3.16-3.96-6.14-7.7-9.12-11.44c-0.15,0.09-0.3,0.19-0.45,0.28
			c2.3,3.87,4.59,7.75,6.9,11.63C184.49,324.4,177.5,313.14,179.51,303.87z"/>
		<path d="M270.08,296.34c3.28,8.57-1.55,19.99-9.58,22.2c1.58-4.06,3.09-7.93,4.6-11.8c-0.17-0.09-0.34-0.17-0.5-0.26
			c-2.3,4.05-4.61,8.1-6.97,12.24C254.71,309.95,260.98,298.72,270.08,296.34z"/>
		<path d="M236.98,324.23c-0.32-9.87,5.26-18.7,15.61-20.44c2.22,8.82-5.04,20.6-12.72,20.67c2.2-3.76,4.4-7.53,6.59-11.3
			c-0.17-0.12-0.35-0.23-0.52-0.35C243.07,316.47,240.2,320.13,236.98,324.23z"/>
		<path d="M296.96,124.92c-4.41,0.24-8.44,0.46-12.47,0.69c0,0.17-0.01,0.34-0.01,0.51c4.33,0.39,8.66,0.79,13.02,1.19
			c-5.28,6.52-20.6,4.78-25.4-2.82C277.6,119.11,290.94,119.17,296.96,124.92z"/>
		<path d="M254.63,116.13c6.12-8.34,17.95-9.21,24.07-5.34c-4.37,1.21-8.51,2.36-12.66,3.51c0.03,0.16,0.06,0.32,0.09,0.48
			c4.62-0.66,9.24-1.33,13.87-1.99C273.55,121.01,261.83,122.16,254.63,116.13z"/>
		<path d="M166.44,114.31c-4.25-1.13-8.49-2.27-12.87-3.44c7.07-4.82,18.92-1.94,23.67,5.06c-5.31,6.32-19.22,4.74-25.23-3.09
			c4.89,0.66,9.57,1.29,14.24,1.91C166.31,114.6,166.37,114.45,166.44,114.31z"/>
		<path d="M159.97,124.29c-4.35,6.08-15.4,10.7-25.8,3.03c4.6-0.4,9.02-0.79,13.44-1.18c-0.01-0.19-0.01-0.38-0.02-0.57
			c-4.08-0.21-8.16-0.42-12.35-0.64C139.47,119.7,153.52,118.73,159.97,124.29z"/>
		<path d="M258.24,102.25c-3.85,1.36-7.59,2.68-11.33,4c0.07,0.25,0.14,0.5,0.2,0.75c4.47-1.06,8.94-2.12,13.34-3.17
			c-4.69,8.01-17.89,10.91-24.69,5.35C239.01,102.39,250.88,98.7,258.24,102.25z"/>
		<path d="M196.13,109.11c-6.58,5.5-19.73,2.66-24.34-5.36c4.33,1.1,8.57,2.18,12.81,3.25c0.08-0.22,0.15-0.44,0.23-0.67
			c-3.53-1.39-7.07-2.77-10.73-4.21C181.62,98.8,192.43,102.3,196.13,109.11z"/>
		<path d="M210.48,92.96c-5.13,6.46-15.33,8.03-21.38,2.92c3.71-0.68,7.07-1.3,10.44-1.92c0-0.09,0-0.18,0-0.27
			c-3.36,0-6.72,0-10.15,0C193.49,86.84,206.12,87.6,210.48,92.96z"/>
		<path d="M242.91,93.55c-3.66,0-6.88,0-10.09,0c-0.01,0.16-0.03,0.33-0.04,0.49c3.28,0.54,6.56,1.08,9.98,1.65
			c-4.91,5.26-16.12,3.78-20.81-2.55C225.82,87.57,238.09,87.36,242.91,93.55z"/>
		<path d="M221.94,336.41c-0.85-1.56-1.7-3.12-2.56-4.68c0.12-0.16,0.24-0.31,0.35-0.47c3.29,0.98,6.96,1.1,9.32,4.22
			c2.01,2.67,0.98,5.77-2.16,7.02c-1.09,0.44-2.19,0.9-3.21,1.47c-2.99,1.65-6.27,0.32-6.74-3.03c-0.32-2.26-0.09-4.61,0-6.91
			c0.02-0.45,0.47-1,0.87-1.25c0.18-0.11,0.83,0.37,1.13,0.71c0.92,1.04,1.77,2.15,2.65,3.23
			C221.7,336.62,221.82,336.51,221.94,336.41z"/>
		<path d="M220.82,329.11c1.49-0.32,2.88-0.62,4.28-0.91c0-0.13-0.01-0.27-0.01-0.4c-1.37,0-2.73,0-4.1,0
			c-0.1-0.22-0.21-0.44-0.31-0.66c1.41-1.04,2.82-2.08,4.23-3.12c-0.04-0.09-0.08-0.17-0.12-0.26c-1.48,0.61-2.97,1.22-4.45,1.83
			c-0.14-0.15-0.28-0.3-0.43-0.45c1.44-2.07,2.79-4.22,4.38-6.17c0.48-0.59,1.61-0.84,2.46-0.89c2.45-0.14,5.28,1.95,6.32,4.48
			c0.98,2.39,0.31,5.7-1.51,7.41C228.91,332.46,223.31,332.09,220.82,329.11z"/>
		<path d="M212.76,331.55c-0.92,1.65-1.81,3.25-2.7,4.84c0.14,0.09,0.28,0.19,0.41,0.28c0.85-1.04,1.66-2.12,2.56-3.11
			c0.33-0.37,0.89-0.54,1.34-0.8c0.26,0.47,0.72,0.92,0.74,1.4c0.08,2.24,0.27,4.51-0.01,6.71c-0.43,3.37-3.4,4.68-6.44,3.11
			c-1.17-0.6-2.37-1.16-3.59-1.66c-2.49-1.02-3.7-4.01-2.48-6.24C204.03,333.46,209.44,330.97,212.76,331.55z"/>
		<path d="M212.1,325.28c-1.56-0.54-3.11-1.07-4.67-1.61c-0.06,0.1-0.12,0.2-0.18,0.31c1.02,0.58,2.07,1.12,3.04,1.78
			c0.46,0.32,0.77,0.87,1.14,1.32c-0.57,0.25-1.13,0.65-1.72,0.73c-0.93,0.12-1.89,0.03-2.88,0.41c1.47,0.29,2.94,0.57,4.9,0.95
			c-1.69,1.56-3.43,1.97-5.25,2.19c-3.62,0.44-6.43-1.14-7.4-4.12c-1.05-3.24,0.51-6.99,3.57-8.6c2.04-1.07,4.3-0.79,5.92,1.06
			c1.42,1.62,2.56,3.47,3.83,5.21C212.29,325.03,212.19,325.15,212.1,325.28z"/>
		<path d="M215.71,323.72c-0.32-1.47-0.64-2.94-0.96-4.41c-0.13,0.02-0.25,0.03-0.38,0.05c-0.14,1.63-0.29,3.26-0.43,4.89
			c-0.17,0.07-0.34,0.15-0.5,0.22c-1.55-2.2-3.66-4.08-3.97-7.03c-0.29-2.71,2.79-5.91,5.91-6.01c2.8-0.09,5.38,0.81,6.89,3.31
			c1.38,2.29,0.34,4.48-1.01,6.47c-0.77,1.14-1.62,2.24-2.44,3.35c-0.2-0.03-0.39-0.07-0.59-0.1c0-1.77,0-3.54,0-5.31
			c-0.22-0.02-0.43-0.05-0.65-0.07c-0.45,1.6-0.9,3.19-1.36,4.79C216.05,323.82,215.88,323.77,215.71,323.72z"/>
		<path d="M216.21,325.48c1.4,0.05,2.81,1.52,2.79,2.92c-0.02,1.51-1.39,2.79-2.9,2.73c-1.55-0.06-3.02-1.57-2.94-3.02
			C213.24,326.71,214.72,325.43,216.21,325.48z"/>
		<path d="M234.28,241.44c-0.34-0.47-1.23-1.15-1.3-1.9c-0.13-1.41,0.88-2.49,2.28-2.35c0.73,0.07,1.79,1.08,1.94,1.82
			C237.51,240.51,236.35,241.17,234.28,241.44z"/>
	</g>
</g>
</svg>
