<?xml version="1.0" encoding="utf-8"?>
<!-- Generator: Adobe Illustrator 24.1.1, SVG Export Plug-In . SVG Version: 6.00 Build 0)  -->
<svg version="1.1" id="Layer_1" xmlns="http://www.w3.org/2000/svg" xmlns:xlink="http://www.w3.org/1999/xlink" x="0px" y="0px"
	 viewBox="0 0 432 432" style="enable-background:new 0 0 432 432;" xml:space="preserve">
<g>
	<g fill="FRAME_COLOR">
		<path d="M328.57,258.72c3.6,1.78,7.28,3.59,11.35,5.6c-4.24,5.86-10.64,6.56-16.59,7.62c1.68,3,3.37,6,5.21,9.28
			c-4.49,1.52-8.4,1.58-12.36,0.65c-4.39-1.02-7.94-3.45-11.12-6.54c-2.11-2.06-4.26-4.07-6.42-6.12c-1.75,1.25-0.55,1.94,0.26,2.61
			c7.45,6.18,12.15,14.1,14.68,23.36c1.76,6.45,1.8,12.91-0.19,19.34c-1.1,3.58-2.91,6.64-6.48,8.96c-0.15-1.64-0.28-2.97-0.44-4.71
			c-4.97,7.55-11.71,12.18-20.25,14.79c1.31,1.91,2.43,3.75,3.76,5.41c0.94,1.17,0.79,1.98-0.49,2.4c-2.64,0.87-5.33,1.56-8.21,2.38
			c-1.07,3.71-1.82,4.22-5.98,2.86c-2.09-0.68-3.99-1.93-5.91-2.88c-1.12,2.1-2.4,4.49-3.88,7.27c-1.61-1.72-2.79-2.97-4.01-4.28
			c-0.87,0.71-1.62,1.31-2.77,2.23c-0.39-1.33-0.76-2.32-0.97-3.35c-0.5-2.41-0.77-4.87-1.4-7.24c-2.41-9.11-8.19-15.05-17.23-17.66
			c-2.78-0.8-5.54-0.52-7.74,2.1c0.71,0.27,1.23,0.45,1.74,0.67c2.61,1.12,3.7,3.13,3.14,5.94c-0.62,3.12-2.49,5.28-5.33,6.64
			c-0.61,0.29-1.24,0.54-1.99,0.86c2.25,1.75,4.61,2.38,7.23,2.11c1.76-0.18,3.09-0.57,3.61-2.74c0.71-2.98,3.81-4.61,6.75-3.99
			c3.09,0.65,5.5,4.16,5.07,7.55c-0.51,4.13-2.8,7.12-6.25,9.28c-1,0.63-2.09,1.12-3.21,1.72c1.56,3.48,2.64,7.29-0.37,10.2
			c-3.13,3.02-7.1,1.55-11.08,0.3c0,1.48,0.1,2.84-0.02,4.19c-0.44,5.01-1.62,5.72-6.1,4.08c-1.73,2.61-3.17,5.38-5.17,7.64
			c-2.67,3.03-3.96,3.01-6.69,0.04c-2-2.18-3.51-4.81-4.86-7.53c-0.12-0.02-0.27-0.1-0.37-0.06c-4.28,1.68-5.29,1.1-5.87-3.5
			c-0.18-1.46-0.17-2.94-0.25-4.52c-1.71,0.32-3.45,0.81-5.21,0.95c-5.76,0.45-8.42-2.62-7.26-8.29c0.24-1.15,0.7-2.25,1.05-3.37
			c-1.45-0.83-2.99-1.54-4.35-2.51c-3.08-2.2-4.93-5.18-5.06-9.04c-0.12-3.67,2.23-6.77,5.42-7.28c3.11-0.5,5.36,1.29,6.83,4.95
			c0.34,0.85,1.67,1.63,2.66,1.82c2.73,0.53,5.28-0.24,7.94-2.05c-3.66-0.99-6.19-2.99-7.31-6.45c-1.14-3.51-0.03-5.51,4.38-7.7
			c-2.26-2.43-5.06-2.78-7.94-1.98c-9.55,2.67-14.98,9.19-17.01,18.73c-0.48,2.27-0.8,4.57-1.25,6.84c-0.16,0.8-0.48,1.56-0.81,2.6
			c-1.06-0.78-1.88-1.38-2.88-2.12c-1.09,1.2-2.2,2.43-3.46,3.81c-2.43-1.84-3.39-4.45-4.21-6.87c-2.25,1.07-4.37,2.45-6.7,3.11
			c-4.01,1.13-4.73,0.53-5.71-3.57c-3.29-0.14-6.49-0.71-9.38-2.85c1.47-2.29,2.87-4.46,4.4-6.84c-8.3-2.67-15.17-7.1-20.16-14.97
			c0,1.95,0,3.34,0,5.2c-0.79-0.55-1.25-0.8-1.62-1.15c-4.55-4.36-6.26-9.93-6.47-16c-0.41-11.93,3.9-22.11,11.86-30.85
			c1.37-1.51,2.89-2.88,4.24-4.4c0.39-0.44,0.43-1.18,0.64-1.78c-0.2-0.08-0.4-0.16-0.6-0.24c-2.56,2.39-5.09,4.83-7.69,7.17
			c-5.6,5.03-12.14,6.82-19.54,5.47c-0.66-0.12-1.3-0.38-2.57-0.75c1.8-3.26,3.43-6.22,5.1-9.24c-5.89-1.11-12.13-2.11-16.55-7.76
			c4.12-1.97,7.87-3.77,11.62-5.57c-0.02-0.14-0.04-0.27-0.06-0.41c-0.4-0.07-0.81-0.16-1.21-0.19c-3.21-0.27-6.54-0.09-9.62-0.88
			c-13.18-3.4-21.29-20.5-15.69-32.88c2.31-5.11,6.15-8.29,12.03-8.48c5.95-0.19,11.03,4.86,10.63,10.62
			c-0.3,4.39-3.24,7.44-7.63,7.89c-0.9,0.09-1.82,0.01-2.67,0.01c-1.59,4.51,1.1,11.45,5.49,14.58c2.69,1.91,5.68,2.6,8.95,2.58
			c19.26-0.09,38.53-0.13,57.79-0.19c0.68,0,1.36,0,2.11,0.49c-8.86,1.54-17.71,3.08-26.51,4.61c9.56,26.45,36.73,49.58,71.84,52.47
			c36.84,3.04,72.33-18.3,85.63-52.39c-8.9-1.56-17.82-3.13-26.74-4.69c0.02-0.12,0.05-0.23,0.07-0.35c7.14,0,14.28,0,21.42,0
			c13.22,0.01,26.44,0.09,39.65,0.02c8.64-0.05,15.66-8.98,13.39-16.98c-0.51-0.03-1.05-0.08-1.6-0.1
			c-3.56-0.12-6.61-1.38-8.03-4.78c-1.52-3.62-0.97-7.2,1.68-10.25c3.67-4.24,9.97-4.79,14.93-1.33c4.12,2.88,6.25,6.96,6.85,11.86
			c1.38,11.23-5.35,22.9-15.95,26.78C336.85,258.08,332.7,258.08,328.57,258.72z M130.51,256.38c9.93,28.74,41.67,59.18,86.28,58.75
			c45.02-0.43,75.96-31.94,84.72-58.59c-3.8-0.75-3.86-0.72-5.34,2.58c-17.02,37.78-57.44,58.79-97.81,50.18
			c-29.13-6.21-49.95-23.34-62.54-50.38C134.27,255.59,134.2,255.54,130.51,256.38z M209.09,366.14c1,2.46,1.59,5.08,2.99,7.16
			c3.59,5.29,4.49,5.24,8-0.05c1.38-2.08,1.94-4.72,2.9-7.17c0.96,0.58,2.08,1.27,3.22,1.92c1.34,0.77,2.05,0.25,2.38-1.17
			c0.66-2.86,0.18-5.57-0.97-8.22c-0.31-0.7-0.59-1.42-0.88-2.13c1.05,0.3,1.66,0.86,2.32,1.36c2.74,2.06,5.78,3.18,9.25,2.71
			c2.2-0.3,3.41-2.09,3.27-4.65c-0.16-2.89-1.51-4.45-3.74-4.61c-1.81-0.13-3.61-0.44-5.4-0.78c-1.24-0.23-2.45-0.64-3.68-0.97
			c0.95,1.48,2.02,2.68,3.3,3.63c1.27,0.95,2.74,1.63,4.12,2.44c-6.6-1.07-9.98-6.37-14.3-10.57c1.21,2.61,2.41,5.21,3.62,7.82
			c-0.13,0.07-0.26,0.14-0.39,0.21c-1.67-2.55-3.35-5.11-5.02-7.66c-0.11,0.05-0.22,0.1-0.33,0.16c1.47,4.7,2.93,9.39,4.4,14.09
			c-0.18,0.06-0.37,0.12-0.55,0.18c-1.83-4.96-3.65-9.92-5.48-14.87c-0.2,0.05-0.4,0.1-0.6,0.15c0.76,4.84,1.52,9.69,2.29,14.53
			c-0.16,0.03-0.32,0.06-0.48,0.09c-0.7-2.62-1.41-5.23-2.11-7.85c-0.24,0.03-0.48,0.06-0.72,0.09c0,5.75,0,11.5,0,17.25
			c-0.25,0-0.5,0.01-0.75,0.01c-0.24-5.65-0.47-11.31-0.71-16.96c-0.12-0.01-0.23-0.01-0.35-0.02c-0.71,2.75-1.42,5.51-2.13,8.26
			c-0.12-0.03-0.25-0.05-0.37-0.08c0.74-5.23,1.47-10.45,2.21-15.68c-0.14-0.02-0.27-0.03-0.41-0.05
			c-1.88,5.12-3.76,10.24-5.64,15.36c-0.17-0.06-0.35-0.12-0.52-0.18c1.45-4.85,2.91-9.69,4.36-14.54
			c-0.08-0.02-0.15-0.04-0.23-0.06c-1.74,2.6-3.48,5.2-5.23,7.79c-0.14-0.09-0.28-0.19-0.43-0.28c1.32-2.67,2.63-5.34,3.95-8.01
			c-2.39,2.14-4.36,4.52-6.51,6.73c-2.6,2.66-5.73,4.16-8.23,4.1c3.09-1.46,5.9-3,7.59-5.65c-3.02,0.43-6.04,0.99-9.09,1.22
			c-1.33,0.1-2.15,0.48-2.51,1.68c-0.36,1.2-0.77,2.43-0.82,3.66c-0.09,2.61,1.14,3.96,3.72,4.14c3.45,0.24,6.51-0.78,9.09-3.13
			c0.52-0.48,1.05-0.95,1.58-1.43c0.16,0.08,0.32,0.16,0.48,0.24c-2.33,3.95-2.78,7.98-1.01,12.56
			C206.31,367.84,207.77,366.94,209.09,366.14z M183.11,311.53c-12.39-4.99-23.38-12.02-33.15-21.43c-0.09,3.28,0.31,6.29-1.35,9.1
			c-1.07-0.48-1.96-0.88-2.9-1.3c-0.57,1.82-1.12,3.59-1.74,5.55c-3-1.35-5.2-3.1-6.74-5.63c-3.12-5.11-2.02-10.38-0.29-15.9
			c-5.94,5.73-6.48,19.29-1.37,28.17c4.18,7.27,14.72,12.18,21.72,10.16c-1.36-0.58-2.82-1.09-4.16-1.81
			c-4.09-2.21-6.29-5.72-6.68-10.32c-0.08-1-0.19-2.82,1.53-2.18c2.64,0.99,5.24,0.62,7.89,0.62c4.47,0,7.48,2.14,8.58,6.34
			c0.5,1.9,1.53,2.45,3.23,2.56C173.21,315.83,178.02,313.35,183.11,311.53z M249.07,311.69c3.24,1.06,6.58,2.28,10,3.22
			c1.66,0.45,3.46,0.42,5.2,0.53c1.85,0.11,2.87-0.74,3.48-2.59c1.45-4.36,4.29-6.28,8.86-6.34c1.12-0.02,2.25,0.15,3.37,0.11
			c0.97-0.03,1.97-0.11,2.88-0.39c2.15-0.67,2.79-0.25,2.52,2.06c-0.56,4.8-2.84,8.48-7.31,10.59c-1.21,0.57-2.52,0.96-3.88,1.47
			c7.93,1.92,18.35-3.1,22.57-10.8c4.73-8.62,4.07-22.04-1.35-27.32c2.58,11.11,0.3,17.92-7.21,21.11c-0.32-0.84-0.68-1.65-0.94-2.5
			c-0.28-0.9-0.46-1.83-0.69-2.79c-3.33,1.91-3.96,1.61-4.29-2.16c-0.16-1.83-0.03-3.69-0.03-5.26c-5.28,3.96-10.28,8.2-15.76,11.67
			C260.96,305.8,254.94,308.56,249.07,311.69z M265.16,327.3c8.36,7.52,23.18,6.22,33.68-2.6c10.93-9.17,10.43-22.68,6.27-31.06
			c1.33,11.84-0.09,19.77-4.03,23.45c0.98-2.86,2.41-5.88,2.98-9.05c0.58-3.27,0.7-6.73,0.31-10.03c-0.36-3.13-1.64-6.16-2.51-9.23
			c-0.21,0.06-0.43,0.12-0.64,0.18c0.08,0.33,0.19,0.66,0.25,0.99c3.08,17.31-6.65,33.82-27.55,32.73
			c-6.43-0.34-12.34-2.52-18.23-4.85c-1.53-0.61-3.09-1.14-4.63-1.71c11.63,7.1,23.61,12.62,37.66,7.41
			c-8.02,4.36-16.28,3.4-24.59,1.35c9.71,4.11,19.35,4.82,29.02-0.26c-2.77,1.6-5.56,3.11-8.54,3.94
			C278.03,330.4,271.54,329.33,265.16,327.3z M130.27,288.94c-4.49,10-3.97,19.84,1.49,29.51c-5.96-7.34-6.56-15.74-4.95-24.59
			c-5.32,13.16-2.24,25.5,9.71,33.48c11.71,7.81,25.78,5.25,30.36-0.09c-2.42,0.58-4.77,1.33-7.16,1.67
			c-2.42,0.34-4.91,0.5-7.34,0.32c-2.43-0.18-4.88-0.68-7.2-1.43c-2.21-0.72-4.26-1.94-6.38-2.94c0.08-0.19,0.16-0.38,0.24-0.56
			c9.57,4.91,19.22,5.09,28.95,0.55c-8.4,2.21-16.72,3.16-24.85-1.11c3.62,0.59,7.18,1.5,10.76,1.68
			c10.22,0.52,18.77-4.35,27.28-9.16c-3.46,1.09-6.88,2.29-10.26,3.6c-5.45,2.11-11.05,3.15-16.91,2.77
			c-12.95-0.83-22.1-9.2-23.67-22.11C129.88,296.71,130.27,292.78,130.27,288.94z M318.41,263.96c-0.04,0.09-0.07,0.18-0.11,0.28
			c-4.85-1.62-9.7-3.24-14.55-4.87c-0.06,0.11-0.12,0.23-0.17,0.34c3.21,1.9,6.42,3.8,9.63,5.69c-0.08,0.16-0.16,0.31-0.24,0.47
			c-3.53-1.72-7.07-3.44-10.73-5.23c-0.38,1.07-0.74,2.1-1.09,3.09c12.89,8.59,29.22,7.31,35.39,1.35
			c-5.22-2.88-10.49-5.81-15.78-8.71c-2.57-1.41-5.3-1.81-7.96-1.41c4.46,2.91,8.94,5.84,13.43,8.77c-0.11,0.19-0.23,0.39-0.34,0.58
			c-5.6-2.46-11.21-4.91-16.81-7.37c-0.09,0.19-0.18,0.39-0.27,0.58C312.02,259.67,315.22,261.82,318.41,263.96z M113.96,264.2
			c-0.07-0.09-0.14-0.17-0.21-0.26c2.9-2.05,5.8-4.11,8.7-6.16c-0.08-0.18-0.16-0.36-0.24-0.55c-5.38,2.36-10.76,4.72-16.14,7.08
			c-0.11-0.19-0.22-0.37-0.33-0.56c4.45-2.92,8.89-5.83,13.26-8.7c-2.6-0.34-5.26-0.02-7.73,1.35c-5.26,2.91-10.5,5.85-15.68,8.74
			c7.53,6.63,23.83,6.55,35.55-1.61c-0.44-0.96-0.88-1.94-1.23-2.7c-4.01,1.86-7.82,3.62-11.63,5.38c-0.06-0.14-0.12-0.27-0.19-0.41
			c3.44-1.95,6.89-3.9,10.33-5.85c-0.09-0.19-0.18-0.37-0.27-0.56C123.43,260.99,118.69,262.6,113.96,264.2z M235.68,317.29
			c14.54,3.73,22.66,12.88,23.78,28.27c0.98-0.87,1.62-1.43,2.19-1.93c1.17,1.35,2.25,2.59,3.4,3.91c2.43-3.54,2.61-7.07,1.31-10.71
			c-3.56-9.96-10.99-16.02-20.39-20.02c-1.27-0.54-2.71-0.69-4.07-1.02c5.48,2.35,10.32,5.45,14.38,9.81
			c3.72,4,8.41,12.52,7.54,15.07C257.2,325.3,246.46,316.32,235.68,317.29z M172.58,345.79c1.22-15.45,8.77-25.13,23.65-28.61
			c-15.42,1.19-23.6,10.79-28.41,24.35c2.59-12.85,10.66-20.85,22.51-25.51c-10.69,0.74-23.89,13.04-25.35,23.66
			c-0.39,2.85,0.06,5.54,2.16,7.99c1.24-1.39,2.35-2.63,3.5-3.92C171.17,344.31,171.65,344.81,172.58,345.79z M85.82,220.64
			c-3.5,1.58-4.74,4.62-5.91,7.73c-0.19-0.09-0.38-0.19-0.57-0.28c1.04-2.39,2.08-4.79,3.12-7.18c-5.28,4.78-5.87,10.87-4.33,17.18
			c2.03,8.36,6.77,14.63,15.38,17.23c-3.39-2.08-6.27-4.71-8.2-8.26c-2.67-4.92-3.86-10.11-2.27-15.63
			c1.71-5.9,5.64-7.88,11.42-5.98c0.07,0.02,0.2-0.13,0.3-0.21c-2.27-4.4-6.91-4.29-12.32,0.05
			C83.51,223.82,84.58,222.34,85.82,220.64z M339.4,254.91c4.42-1.42,7.87-4.13,10.4-7.85c4.07-5.97,6.2-12.47,4.08-19.72
			c-0.8-2.73-2.18-5.2-5.15-7.05c3.29,5.44,3.9,7.11,3.6,9.57c-2.34-6.53-3.14-7.66-6.01-8.68c1.11,1.46,2.32,3.07,3.53,4.67
			c-0.14,0.12-0.28,0.25-0.42,0.37c-2.29-3.26-5.32-4.84-9.27-3.94c-1.58,0.36-2.82,1.37-3.11,3.28c6.28-2.22,10.95,0.34,12.24,6.86
			c0.45,2.29,0.48,4.78,0.15,7.1C348.51,246.15,344.92,251.18,339.4,254.91z M222.68,336.65c-0.15,0.24-0.3,0.49-0.45,0.73
			c2.15,1.87,4.15,3.98,6.51,5.53c2.32,1.53,5.01,2.49,7.35,3.61c-6.9-0.4-11.64-4.87-16.25-10.11
			c2.23,8.25,12.89,14.62,20.69,12.58c4.17-1.09,7.43-3.35,8.49-7.85c0.2-0.87,0.03-1.83,0.03-2.75c-1.41,4.42-4.57,7.48-8.54,7.88
			c2.8-1.26,5.26-2.71,6.39-6.31c-3.17,3.02-6.62,4.06-10.13,3.09c-3.17-0.87-6.06-2.76-9.09-4.18
			C226.02,338.12,224.35,337.4,222.68,336.65z M182.82,338.28c0,0.72-0.09,1.45,0.02,2.15c0.42,2.8,1.92,4.93,4.19,6.56
			c3.74,2.69,7.89,2.64,12.12,1.67c6.15-1.4,9.76-5.69,12.43-11.02c-4.49,4.33-9.04,8.49-15.54,8.78c2.31-1.12,4.96-2.1,7.26-3.61
			c2.31-1.52,4.27-3.58,6.38-5.4c-0.2-0.3-0.4-0.59-0.6-0.89c-2.03,0.98-4.16,1.81-6.08,2.98c-5.65,3.43-11.3,5.86-17.51,1.22
			c-0.13,0.17-0.27,0.34-0.4,0.51c1.78,1.66,3.56,3.31,5.3,4.94C186.63,344.84,184.16,342.27,182.82,338.28z M122.97,318.66
			c-3.12-17.23-0.51-32.52,14.38-43.87c-0.72-0.99-1.35-1.87-2.17-3.01c-1.18,1.28-2.18,2.36-3.18,3.44
			c-8.55,9.25-13.57,19.87-12.63,32.77C119.64,311.81,120.65,315.41,122.97,318.66z M294.79,274.71c0.11,0.26,0.12,0.34,0.16,0.38
			c0.15,0.15,0.3,0.3,0.46,0.42c10.94,8,15.25,19.04,14.72,32.25c-0.14,3.59-0.66,7.16-1.04,11.08c8.48-12.38,0.5-40.69-12.81-46.45
			C295.79,273.15,295.3,273.91,294.79,274.71z M113.27,276.61c4.47-2.56,8.66-4.96,13.23-7.57c-4.97,1.05-9.41,1.98-13.84,2.92
			c-0.27,0.06-0.61,0.09-0.78,0.26c-2.14,2.28-4.18,4.62-5.13,7.74c7.7,1.9,16.29-1.64,21.96-9.32
			C123.72,273.14,119.03,275.84,113.27,276.61z M325.53,279.76c-1.23-3.07-2.87-6.31-5.78-7.48c-4.28-1.72-9.03-2.28-13.58-3.33
			c-0.07,0.12-0.14,0.24-0.21,0.36c4.49,2.52,8.98,5.04,13.99,7.85c-3.24-0.96-5.98-1.59-8.58-2.59c-2.57-0.99-4.99-2.36-7.59-3.62
			C309.5,278.52,319.01,282.37,325.53,279.76z M139.94,282.59c-5.05,4.02-3.14,15.1,2.97,17.57c0.49-1.73,0.98-3.45,1.51-5.29
			c1.09,0.65,2.03,1.21,3.01,1.8c1.39-4.75,0.6-9.59-2.75-11.08c-0.08,1.8-0.16,3.52-0.23,5.24c-0.12,0.02-0.24,0.04-0.36,0.05
			c-0.6-1.46-1.19-2.92-1.79-4.38c-0.16-0.02-0.31-0.04-0.47-0.06c-0.4,2.47-0.8,4.93-1.27,7.76
			C138.73,290.25,139.59,286.45,139.94,282.59z M287.8,291.44c-0.17-0.04-0.35-0.09-0.52-0.13c0.1-0.97,0.25-1.94,0.27-2.91
			c0.02-0.97-0.11-1.94-0.19-3.2c-3.39,3.29-4.3,7.57-2.54,11.36c1-0.61,1.99-1.21,3.05-1.86c0.47,1.91,0.91,3.7,1.36,5.55
			c6.18-3.26,7.88-14.34,2.74-17.82c0.95,3.96,1.35,7.76-0.54,11.7c-0.44-2.61-0.83-4.89-1.32-7.79
			C289.15,288.46,288.48,289.95,287.8,291.44z M162.16,318.97c-2.73-1.15-5.03-2.12-7.33-3.09c0.06-0.14,0.12-0.29,0.17-0.43
			c3.22,0.8,6.45,1.6,9.67,2.4c0.04-0.14,0.08-0.29,0.12-0.43c-3.47-1.73-6.94-3.46-10.4-5.19c0.05-0.15,0.1-0.31,0.15-0.46
			c2.7,0.74,5.4,1.48,8.19,2.25c-0.82-3.31-2.62-5.16-5.63-5.4c-2.82-0.22-5.67-0.05-8.5-0.05
			C149.02,314.82,154.56,319.29,162.16,318.97z M277.1,315.34c0.05,0.14,0.11,0.29,0.16,0.43c-2.24,0.98-4.49,1.97-6.89,3.02
			c7.07,0.5,12.62-4.06,12.86-10.33c-1.58,0-3.17-0.03-4.75,0.01c-1.33,0.03-2.68-0.03-3.97,0.23c-2.94,0.59-4.89,2.91-4.73,5.36
			c2.78-0.85,5.57-1.7,8.36-2.55c0.05,0.13,0.1,0.26,0.15,0.39c-3.48,1.73-6.96,3.46-10.44,5.19c0.08,0.19,0.15,0.37,0.23,0.56
			C271.08,316.88,274.09,316.11,277.1,315.34z M270.5,334.28c2.1,2.39,4.2,4.78,6.3,7.17c-0.19,0.2-0.38,0.39-0.57,0.59
			c-2.3-1.6-4.61-3.2-7.01-4.87c-0.04,4.04,2.41,5.98,5.57,7.2c1.24,0.48,2.67,0.44,4.02,0.63c-0.02-1.28-0.03-2.55-0.04-3.83
			c0-0.06,0.05-0.12,0.14-0.3c2.98,0.39,6.03,0.72,8.86-1.29C281.58,339.19,276.06,336.98,270.5,334.28z M161.32,334.18
			c-3.33,1.43-5.95,2.82-8.73,3.69c-2.7,0.85-5.56,1.17-8.34,1.72c0.02,0.29,0.03,0.58,0.05,0.87c2.92,0.34,5.83,0.68,8.82,1.02
			c-0.04,0.26-0.1,0.6-0.15,0.94c-0.36,2.66,0.21,3.2,2.82,2.63c4.12-0.91,6.58-3.74,6.97-8.32c-1.28,1.07-2.35,2.04-3.51,2.91
			c-1.14,0.85-2.36,1.59-3.54,2.38c-0.13-0.16-0.27-0.32-0.4-0.48C157.19,339.24,159.07,336.95,161.32,334.18z M220.47,319.7
			c-2.1,0.94-3.47,4.15-3.03,7.12c0.65,4.43,3.75,7.77,7.72,8.32c3.27,0.45,5.72-0.57,6.72-2.78
			C222.34,333.07,219.35,329.75,220.47,319.7z M211.41,319.58c1.26,3.83,0.73,7.3-1.68,10.39c-2.65,3.39-6.09,3.43-9.9,1.85
			c1.32,2.78,3.34,3.73,6.76,3.38c3.5-0.37,6.57-3.09,7.57-6.72C215.12,325.01,214.05,321.41,211.41,319.58z M200.9,330.7
			c1.65,1.41,3.38,1.53,4.99,0.53c2.49-1.54,3.36-4.02,3.3-6.85c-0.04-2.29-1.21-4.25-2.86-4.98
			C207.38,325.62,205.79,329.07,200.9,330.7z M225.58,319.17c-3.36,2.6-3.69,7.32-0.93,10.8c1.79,2.25,4.58,2.48,6.98,0.58
			C226.88,330.29,224.34,325.65,225.58,319.17z M145.82,337.62c3.9,0.53,6.96-0.66,7.89-3.13
			C150.83,334.93,147.01,332.56,145.82,337.62z M277.98,334.7c1.94,2.54,5.11,3.64,8.71,2.64c-1.27-1.11-2.19-2.54-3.38-2.81
			C281.63,334.14,279.75,334.6,277.98,334.7z"/>
		<path d="M321.52,212.45c0-5.39,0.05-10.79-0.07-16.17c-0.01-0.63-0.96-1.21-1.4-1.86c-0.29-0.43-0.72-1.01-0.61-1.39
			c0.1-0.35,0.82-0.74,1.28-0.75c2.46-0.08,4.92-0.08,7.37-0.01c0.46,0.01,1.19,0.4,1.28,0.74c0.1,0.39-0.27,1.11-0.65,1.36
			c-1.33,0.85-1.45,2.07-1.44,3.47c0.07,10.05,0.11,20.09,0.15,30.14c0,0.77,0,1.54,0,2.68c-1.95,0-3.82,0.12-5.66-0.07
			c-0.53-0.06-1.13-0.94-1.43-1.57c-3.04-6.56-6.03-13.14-9.03-19.71c-0.08-0.18-0.22-0.33-0.52-0.79c-0.1,0.63-0.2,0.98-0.2,1.33
			c-0.01,5.13,0.01,10.26-0.03,15.39c-0.01,1.34,0.18,2.47,1.49,3.22c0.44,0.25,0.6,0.97,0.89,1.48c-0.52,0.25-1.04,0.7-1.56,0.71
			c-2.46,0.07-4.92,0.06-7.37-0.02c-0.54-0.02-1.06-0.43-1.59-0.67c0.22-0.47,0.46-0.94,0.67-1.42c0.47-1.02,1.32-2.04,1.33-3.07
			c0.09-9.34,0.08-18.69-0.03-28.03c-0.01-1-0.91-1.98-1.39-2.98c-0.25-0.52-0.5-1.05-0.75-1.57c0.48-0.22,0.97-0.6,1.46-0.62
			c2.32-0.06,4.65-0.13,6.95,0.05c0.68,0.06,1.6,0.8,1.91,1.46c2.58,5.53,5.04,11.12,7.54,16.69c0.31,0.69,0.63,1.38,0.94,2.07
			C321.18,212.5,321.35,212.48,321.52,212.45z"/>
		<path d="M122.15,193.29c0.43-0.31,0.84-0.72,1.34-0.94c1.74-0.74,2.85-0.01,2.86,1.85c0.01,4.06,0,8.12,0,12.31
			c-1.58,0-2.89,0-4.31,0c-0.49-1.85-0.88-3.7-1.47-5.48c-0.59-1.8-1.53-3.34-3.74-3.48c-2.33-0.14-3.88,1.14-4.47,3.13
			c-0.8,2.73-1.54,5.6-1.58,8.42c-0.05,3.82,0.49,7.67,1.01,11.48c0.16,1.17,0.9,2.39,1.69,3.32c2.12,2.53,5.64,2.14,7.13-0.8
			c0.65-1.29,0.99-2.77,1.27-4.2c0.22-1.16,0.64-1.75,1.91-1.66c1.23,0.09,2.47,0.02,3.68,0.02c0.8,9.76-6.86,16.49-15.35,13.79
			c-3.61-1.15-5.98-3.71-7.23-7.16c-3.01-8.32-2.95-16.74,0.39-24.9C108.17,191.95,114.56,189.95,122.15,193.29z"/>
		<path d="M143.87,259.7c1.63-1.12,2.04,0.05,2.57,1.07c4.28,8.17,9.68,15.49,16.62,21.6c38.14,33.56,92.23,22.85,117.36-12.79
			c2.02-2.86,3.61-6.02,5.48-8.99c0.39-0.62,1.17-0.98,2.09-1.13c-3.45,8.98-9.04,16.37-15.89,22.8
			c-13.74,12.92-30.12,20.18-48.83,22.05C189.91,307.64,156.44,288.32,143.87,259.7z"/>
		<path d="M177.79,179.75c-25.61,0-51.23,0-76.84,0c0-0.21,0-0.41,0-0.62c25.64-1.28,51.28-1.67,76.92,0.03
			C177.84,179.35,177.82,179.55,177.79,179.75z"/>
		<path d="M330.95,179.76c-25.61,0-51.21,0-76.82,0C259.78,177.75,317.63,177.64,330.95,179.76z"/>
		<path d="M164.27,245.96c-6.62,1.27-54.61,1.34-63.7,0.1C105.33,244.74,157.78,244.66,164.27,245.96z"/>
		<path d="M237,245.09c-1.07,0.58-1.72,1.23-2.25,1.14c-0.55-0.09-0.98-0.9-1.47-1.39c0.58-0.48,1.12-1.25,1.75-1.33
			C235.49,243.45,236.07,244.3,237,245.09z"/>
	</g>
</g>
</svg>
