<svg xmlns="http://www.w3.org/2000/svg" viewBox="0 0 1650 1298.93"><title>Asset 56</title><g id="Layer_2" data-name="Layer 2"><g id="Layer_1-2" data-name="Layer 1"><path fill="FRAME_COLOR" d="M1647.1,439.66H1393.83c-5.37-29-16.18-55.68-31-77.91,11.28,7.37,23.05,14.25,35.92,19.34a138.84,138.84,0,0,0,51.69,10,125.71,125.71,0,0,0,53.61-11.63l9.15-4.41-6.33-7.91c-17.27-21.89-43-38.61-70.61-45.91-17.89-4.68-36.2-5.64-54.09-6.19a139.82,139.82,0,0,0,27.59-3.3L1462,288.11c12.46-8.12,24-17.21,35-25.74l11-8.6-12.87-5.23c-22.58-9.23-53.48-21.89-84-16.59-18,3.17-33.52,12-48.59,20.51-6,3.37-12.18,6.88-18.31,9.84a156.76,156.76,0,0,1-24.91,9.77,151.17,151.17,0,0,0-2.75-17.89c-3.79-18.79-8.4-36.68-22.92-48.18-8.12-6.53-18.93-10.32-33-11.7a120.12,120.12,0,0,0-49.83,6c.28-.82.62-1.65.9-2.48,1.24-1,2.61-1.92,4-3,2.62-1.85,5.09-4.06,7.85-6.12s5.57-4.41,8.26-6.88c1.72-1.45,3.44-3,5.09-4.41.07,0,1-.27,2.68-.69s4.06-1,6.88-1.65c5.85-1.37,13.84-3.16,21.82-5.5,2-.55,4-1.17,6-1.79s3.85-1.31,5.71-2.07,3.65-1.44,5.37-2.13c1.51-.62,2.89-1.38,4.2-2.07a15.09,15.09,0,0,0,25.53-10.94,15.11,15.11,0,1,0-30.21,0v.62c-1.17.41-2.41,1-3.86,1.45s-3.09,1-4.88,1.44-3.44,1-5.37,1.38-3.72.75-5.64,1.17c-2.62.48-5.23,1-7.92,1.37,2-1.92,3.86-3.78,5.58-5.71q3.2-3.51,6-6.61c1-1,1.86-2,2.69-3s1.58-1.92,2.27-2.75c.34-.41.62-.76,1-1.1a9.59,9.59,0,0,0,1.45.07A15.11,15.11,0,1,0,1261,123.83a14.63,14.63,0,0,0,2.75,8.67c-.55.55-1.1,1.17-1.65,1.79-.9.89-1.79,1.79-2.69,2.75-1.85,1.93-3.92,4-6,6.2s-4.62,4.4-7,6.67-4.89,4.75-7.51,7l-8.05,7c-2.75,2.27-5.5,4.48-8.26,6.68-1.65,1.44-3.37,2.68-5,4a66.51,66.51,0,0,0-.83-22.64c-3.58-15.69-14.17-28.22-27.59-32.83-9-3-17.76-2.34-26.3-1.72a93.31,93.31,0,0,1-13,.41c-3.1-.21-6.27-.83-9.57-1.38-4.82-.82-9.77-1.79-15.21-1.72-19.2.21-37.85,13.42-46.32,33-4.75,11-6.4,23.88-4.88,37.44-3.51-2.2-7.16-4.2-10.81-6.06-2.2-1.17-4.33-2.2-6.47-3.09a1.19,1.19,0,0,0-.07-.49c-1.92-7.63-8-14.1-16.52-17.34,12.46-3.92,24.92-8.53,35.72-16.79,12.94-9.84,23.2-24.78,29.53-43.29,5.57-16,7.78-32.42,9.63-49.21l3.45-29.46-17.9,23.68c-8.12,10.73-21.68,15.76-35.92,21.13-7.92,3-16.11,6-23.75,10.11a97.4,97.4,0,0,0-27.46,22.85c-6.74-3.16-15.76-3.71-26.15-1.3a162.59,162.59,0,0,0-24.85,8C964.92,98.5,967.47,93,970,87.49c2.89-6.26,6.4-14.11,7.09-22.64.89-10.67-3.23-20.58-10.74-25.95C957,32.22,943.38,33,930,41A89.84,89.84,0,0,0,911,56.11,124.45,124.45,0,0,0,896,75.31a225.42,225.42,0,0,0-4.61-35.24c-1.72-8-4.13-17.27-9.16-25.12C876,5.31,866.84-.33,857.55,0,845.65.36,835,10.06,827.68,27.27a142.88,142.88,0,0,0-9,29.52c-2.48-4.95-5.09-9.84-7.92-14.66-4.54-7.7-9.77-15.69-17.48-21.54-9.43-7.15-21.26-9.36-30.9-5.78a28.7,28.7,0,0,0-11.63,8,35.68,35.68,0,0,0-7.43,13.36c-2.82,9-2.34,18.3-1.52,25.32.55,4.82,1.31,9.64,2.27,14.39a107.2,107.2,0,0,0-28.7-15.21c-15.14-5.1-28.28-3.65-37,4.13a27.48,27.48,0,0,0-7.64,11.83c-.14-.75-.21-1.58-.28-2.4-.27-3.31-.62-6.68-.89-9.78-.14-1.58-.28-3.09-.35-4.54s-.2-2.82-.27-4.13-.14-2.48-.21-3.58a15.09,15.09,0,1,0-9.63-.62c-.14,1.17-.21,2.55-.28,4.06-.14,1.31-.27,2.62-.34,4.13s-.14,3.1-.21,4.68c-.14,3.24-.27,6.75-.41,10.26-.07,1.79-.07,3.64-.14,5.5L656.52,79,655,77.17c-3.86-4.75-7.64-9.43-10.74-14-1.58-2.27-3-4.54-4.27-6.67s-2.2-4.2-3.16-6.13c-.35-1-.76-1.85-1.1-2.75s-.62-1.65-.83-2.48a25,25,0,0,1-1-4.06,15.07,15.07,0,0,1-.35-2.54,7.9,7.9,0,0,1-.07-.9l-11.08.07s0,.41.07,1.24a26.16,26.16,0,0,0,.21,3.72,45.4,45.4,0,0,0,1,5.57c.27,1,.62,2.06.89,3.23.42,1.11.83,2.28,1.24,3.45,1,2.4,2.07,4.88,3.38,7.43s2.75,5.16,4.33,7.71c3.17,5.23,6.95,10.46,10.67,15.48l1.38,1.86,1.58,1.93,3,3.65c.07.2.2.27.27.41-5.78-1.52-11.63-2.82-17.41-4.13-3.23-.69-6.54-1.45-9.77-2.2-17.62-4.13-32.69-11.5-48.8-23.82l-22.5-17.13,10,26.42a285.85,285.85,0,0,0,18.59,39.37c2.54,4.41,5.44,9,8.74,13.63a50.47,50.47,0,0,0-16,3.85,94.79,94.79,0,0,0-19.61-18.17c-12.25-8.67-30.77-17.82-49.83-12.66-7.09,1.93-12.94,5.51-18.65,9-5.51,3.3-10.74,6.47-16,7.5-3.37.69-7.16.55-11.15.48a71.55,71.55,0,0,0-12.66.41c-17.34,2.55-32.55,16.38-37.92,34.62a59,59,0,0,0-2.07,20.1c-25.67,6.26-45.9,27.8-48.72,52.17a99.34,99.34,0,0,0-.42,14.24c.14,6.13.28,12-1.24,17a58.58,58.58,0,0,1-5.43,11.08,75.48,75.48,0,0,0-5.72,11.29,45.78,45.78,0,0,0-3,11.7H330c-5.16-3.17-10.25-6.68-15.55-10.25-10.12-6.89-20.58-14-32.14-19.48-33.31-15.62-74.4-14.94-107.16,1.86l-17.48,8.94,21.95,6.95c11.5,3.65,22,7,31.52,12l34.41,23.61a211.94,211.94,0,0,0,36.83,18.44c-14.11.76-28.5,1.86-42.61,5.3-41.84,10.12-78.39,41-95.45,80.46l-7.57,17.68,17.89-6.88c15-5.78,31.59-5,49.07-4.2,10.26.48,20.79,1,31.25.14,22.5-1.86,43.29-9.84,58.91-16.59,35.86-15.55,66.14-34.75,90.5-57.4l1.45.42a149.78,149.78,0,0,0-17,19.34c-11.15,15.07-20,31.66-28.36,47.69-3.71,6.95-7.57,14.18-11.49,21.2-.48.83-.9,1.58-1.38,2.34H2.83A15.22,15.22,0,0,0,0,447.85a15.57,15.57,0,0,0,2.82,9.36H1647.1a14.72,14.72,0,0,0,0-17.55ZM1432.16,336.84A120.37,120.37,0,0,1,1487,368.91c-25.39,8.81-55.33,7.91-82.24-2.82-18-7.23-34.41-18.59-50.31-29.6l-10.32-7.09c10.8,1,21.61,1.31,32.27,1.66C1395.06,331.61,1414.27,332.16,1432.16,336.84Zm-98.28-25.12h5c6.88,1,13.9,1.92,21.06,2.54A227.52,227.52,0,0,1,1333.88,311.72Zm-15.28-22.58a179.72,179.72,0,0,0,32.76-12.32c6.54-3.16,12.94-6.81,19.07-10.32,14.52-8.19,28.21-15.9,43.42-18.58,20-3.51,40.2,2.06,62.08,10.39-20.58,15.76-43.36,31.45-69,37.51-26.29,6.12-54.58,2-79.08-2.34l-9.91-1.86Zm-69-79.14c3.24,0,6.4.13,9.57.41,10.8,1,18.79,3.71,24.43,8.26,10.19,8.12,13.9,22.92,17.14,38.74,2.82,14,5,28.5-2,38.06-5.16,7.23-15.55,11.36-31.66,12.6a193,193,0,0,1-67.86-6.68c-6.53-1.86-14.45-4.4-21.4-8.67l2.55.76c.48.07,1.1.27,1.65.41s1.3.28,2.06.41c1.45.35,3,.69,4.61,1s3.31.55,5,.82,3.51.49,5.37.62,3.64.21,5.5.35,3.65,0,5.51.07,3.51-.14,5.23-.21,3.3-.14,4.88-.34,3-.42,4.34-.56a26.43,26.43,0,0,0,3.65-.61c1.1-.14,2-.35,2.75-.49,1.58-.34,2.41-.48,2.41-.48l-2.41-.2c-.76-.07-1.72-.14-2.82-.28a26.93,26.93,0,0,1-3.58-.48c-1.31-.21-2.68-.42-4.2-.69s-3-.62-4.61-1-3.23-.69-4.82-1.24l-5-1.45-4.75-1.86a43.93,43.93,0,0,1-4.54-1.85c-1.45-.69-2.89-1.24-4.13-1.93s-2.34-1.31-3.44-1.86c-.49-.27-1-.55-1.52-.83s-1-.61-1.44-.89c-1-.55-1.79-1-2.41-1.45a14.18,14.18,0,0,1-1.24-.75,9.88,9.88,0,0,0,.21-2.07c.34-.07.61-.27,1-.34.62-.28,1.31-.48,2-.83,1.38-.48,2.83-1.1,4.41-1.72s3.1-1.37,4.75-2.06,3.3-1.52,5-2.41,3.38-1.65,5-2.62,3.3-1.85,4.88-2.75,3.17-1.93,4.61-2.89,3-1.79,4.2-2.75,2.62-1.79,3.72-2.62c2.34-1.58,4.06-3.1,5.37-4.06,1-.82,1.65-1.38,1.92-1.58-.2.14-1,.41-2.34,1-1.51.62-3.51,1.58-6.19,2.48-1.24.41-2.61,1-4.13,1.44s-3.1,1-4.68,1.52-3.3,1-5,1.44-3.44.83-5.23,1.31l-5.23,1c-1.72.42-3.45.62-5.1.9s-3.23.55-4.75.69-2.89.27-4.13.41l-1.85.21c-.62,0-1.24.07-1.79.07s-1.31.06-1.93.13a21.43,21.43,0,0,0-4.27-3.51,183.77,183.77,0,0,0,27.33-35.72A106.42,106.42,0,0,1,1249.57,210ZM1131.81,311.3a10.54,10.54,0,0,0,1.11-1.37,19.25,19.25,0,0,0,5.09,6c.69,2,2.06,5.85,3.85,10.81.62,1.86,1.38,3.85,2.07,6s1.79,4.4,2.75,6.74c1.93,4.68,4,9.57,6.06,14.52,2.41,4.75,4.75,9.5,7,14,1.1,2.21,2.06,4.41,3.23,6.34s2.2,3.85,3.24,5.57c3.44,5.92,5.92,10.19,6.47,11.15-.35-1-1.93-5.64-4.2-12.18-.62-1.86-1.31-3.85-2-6s-1.31-4.47-2-6.81c-1.31-4.68-2.69-9.71-4.06-14.66-1-5-2.14-10.12-3.1-14.8-.48-2.41-1-4.54-1.38-6.81s-.62-4.34-.89-6.33c-.14-1.11-.35-2.21-.48-3.24a20.68,20.68,0,0,0,4.06-1.1c.34-.14.68-.34,1-.48.48.55,1,1.24,1.51,1.86.9,1.17,1.86,2.34,2.83,3.64s2.34,2.69,3.57,4.07c2.55,2.82,5.17,5.78,7.92,8.74,2.82,2.61,5.64,5.36,8.33,7.84a42.88,42.88,0,0,0,3.92,3.51c1.31,1,2.48,2.07,3.65,3,4.2,3.37,7.09,5.71,7.5,6-.28-.35-2.48-3.37-5.64-7.71-.83-1.17-1.79-2.41-2.76-3.72s-1.79-2.89-2.75-4.33c-1.86-3-3.85-6.26-5.85-9.43-1.65-3.3-3.37-6.61-5-9.71-.75-1.58-1.58-2.95-2.2-4.47s-1.24-3-1.79-4.27c-1.17-2.68-2.06-4.95-2.75-6.53a105.08,105.08,0,0,0,24.71,9.91,208.3,208.3,0,0,0,41.5,7.29c1.86,2.14,3.58,4.2,5.3,6.4,10.66,13.49,16,25.61,16.45,37s-6.13,25.26-17.28,28a43,43,0,0,1-7.29,1c-5.17.42-11,.83-16.66,4-5.09,3-8.53,7.29-11.56,11.15-2.07,2.54-4,5-6.06,6.53-6,4.34-15.41,1.59-19.2.21-27.39-10.12-41.91-39.71-46.32-64.07C1131.13,340.28,1130.85,325.76,1131.81,311.3Zm-2.27-17.2c-3-2.34-4.81-5.71-6.67-9-1.38-2.41-2.82-5-2.82-7.78a8.79,8.79,0,0,1,6.26-8.53c2.55-.69,5.64-.34,7.36-2.27,1-1.17,1.24-2.82,2.21-4,1.37-1.79,3.85-2.21,6.12-2.07a18.41,18.41,0,0,1,13,7.3,23.74,23.74,0,0,1,4.61,14.38,16.31,16.31,0,0,1-2.13,8.6c-2.62,4.06-7.64,6.06-12.46,6.68C1139.66,298.23,1133.81,297.47,1129.54,294.1Zm45.63-3a6.34,6.34,0,0,0,.76-.62l-.34.89A2.76,2.76,0,0,1,1175.17,291.07Zm-81.55-137c5.85-13.56,18.86-23.06,31.66-23.19h.27a75.65,75.65,0,0,1,11.84,1.44,85.38,85.38,0,0,0,11.36,1.59,102.36,102.36,0,0,0,15.34-.35c7.23-.62,14-1.1,19.82.9,8.06,2.68,14.73,11,17,21.06,2.07,8.94,1.17,19.34-2.68,31.79-6.4,20.37-18.79,40.54-35.86,58.43a9.42,9.42,0,0,1,.48-1.1c.49-1.1,1-2.41,1.59-3.71s1-2.76,1.51-4.2,1-2.82,1.31-4.34.76-3.1,1.1-4.61.55-3.1.83-4.61.34-3,.48-4.47.27-2.83.27-4.13v-3.72a22.16,22.16,0,0,0-.07-3.1c-.06-1-.13-1.72-.2-2.41a19.51,19.51,0,0,1-.14-2s-.21.69-.55,1.93c-.21.68-.34,1.44-.62,2.27a24.76,24.76,0,0,1-.89,3c-.42,1-.76,2.13-1.24,3.3a27.42,27.42,0,0,1-1.52,3.58,31.42,31.42,0,0,1-1.86,3.78c-.68,1.24-1.37,2.48-2,3.72-.83,1.17-1.58,2.41-2.34,3.51a30.87,30.87,0,0,1-2.41,3.3c-.83,1-1.51,2.07-2.34,2.89s-1.45,1.59-2.13,2.28a16.89,16.89,0,0,0-9.85-3.1v-.07c-.55-1-1.1-2.13-1.65-3.24s-1.17-2.54-1.79-3.85-1.24-2.75-1.79-4.2-1.1-3-1.65-4.4-1-3-1.51-4.54-.9-3-1.24-4.41-.83-2.89-1.17-4.2-.55-2.68-.83-3.85c-.55-2.41-.75-4.41-1-5.78s-.34-2.21-.34-2.21-.14.76-.35,2.21a55.77,55.77,0,0,0-.75,5.92c-.14,1.23-.28,2.54-.42,4s-.13,2.89-.27,4.47-.14,3.17-.07,4.82v5c.07,1.65.21,3.38.34,5a37.19,37.19,0,0,0,.42,4.88,45.38,45.38,0,0,0,.55,4.61c.2,1.52.41,2.9.62,4.2a.87.87,0,0,1,.06.42,22,22,0,0,0-2.27,2.13,154.33,154.33,0,0,0-33.1-40.95c-.14-.55-.34-1-.48-1.58C1088.11,182.05,1088.32,166.43,1093.62,154.11ZM976.55,307a232.32,232.32,0,0,0-29.32-35c9.7.89,19.13,1.3,28.36,1.3,8.19,0,16.17-.34,24-1a195.08,195.08,0,0,1,19.68,12.46c6.19,4.54,13,10.05,16.31,16.93,2.41,5,2.82,12.59-1.24,16.65-4.47,4.48-13.21,4.61-26.77.28C996.37,315,986.05,311.17,976.55,307Zm19.82,24.84-2.13,3.37c-1-1.65-1.93-3.37-3-5.09C993,330.71,994.65,331.33,996.37,331.88Zm-97,42.6c-.76-2.68-1.65-5.5-2.55-8.53s-1.65-6.26-2.54-9.57c-1.66-6.6-3.45-13.76-5.23-20.85-1.45-7.09-2.83-14.18-4.13-20.92-.28-1.1-.49-2.21-.69-3.31,1.72,2.82,3.44,5.58,5.23,8.4,8.74,13.9,19.2,29.8,32.48,43.22,1.79,1.86,3.72,3.58,5.58,5.3,4.06,16.72,5.09,32.21,1.24,48.52-1.79,7.64-4.27,12.11-7.44,13.28s-8.12-1-11.49-3.58c-11.7-8.67-18.38-23.19-24.16-37.37-1.72-4.13-3.44-8.46-5.09-12.87-.07-9.63-.55-19.2-1-28.63-.14-2.2-.21-4.61-.35-7.22-.13-3.44-.34-6.75-.48-9.91.83,2.47,1.72,4.95,2.62,7.43,2.75,6.88,5.5,13.69,8.12,20.16,1.31,3.17,2.41,6.34,3.78,9.23s2.62,5.57,3.79,8.12c4.34,9.36,7.29,15.83,7.71,16.58C904.42,391.14,902.36,384.39,899.33,374.48ZM903.11,311c-7.08-11.22-14-22.71-20.64-34.21-.07,0-.07,0-.07-.07a13.5,13.5,0,0,0,3.1-.41c.13.21.2.41.34.62.41.83.9,1.79,1.38,2.68s1,1.93,1.65,3c1.17,2.07,2.48,4.34,3.78,6.68s3,4.68,4.48,7.16,3.16,5,5,7.5,3.58,4.95,5.44,7.5,3.85,4.82,5.71,7.16,3.92,4.61,5.85,6.81,3.65,4.27,5.58,6.13,3.57,3.65,5.23,5.3c.75.75,1.58,1.58,2.27,2.34s1.51,1.3,2.2,1.92c1.44,1.31,2.61,2.41,3.58,3.31,1.72,1.51,2.82,2.48,3,2.75-.14-.27-1-1.38-2.55-3.23-.76-1.11-1.79-2.34-3-3.79-.55-.76-1.1-1.51-1.79-2.34s-1.24-1.72-1.86-2.61c-1.31-1.93-2.75-3.86-4.26-6.06s-2.83-4.41-4.41-6.82-3.1-4.81-4.47-7.43-2.89-5.16-4.34-7.77l-3.92-8.06c-1.38-2.54-2.48-5.3-3.58-7.84s-2.2-5-3-7.37-1.72-4.61-2.48-6.6c-.34-1-.68-2-1.1-3-.27-1-.55-1.93-.82-2.83s-.62-1.92-.9-2.75l61.46,56L916.88,268c29.94,20.44,50.93,53.07,66.21,80.39,3.3,5.85,6,11.08,6.67,16.31.55,4.54-1,9-3.64,10.67q-3.72,2.37-12.19.41c-14-3.23-28-11.63-40.6-24.29C921.22,339.31,911.37,324.17,903.11,311Zm4.68-77.91c.07-.14.07-.28.14-.41H908Zm65.87,7.16c-1.72-.42-3.51-.9-5.44-1.38s-3.92-.76-6.05-1.17c-4.27-.76-8.81-1.58-13.29-2.41-4.61-.62-9.22-1.24-13.49-1.86-2.2-.2-4.33-.55-6.26-.75l-5.51-.42a10.58,10.58,0,0,0-1.37-.13,5.35,5.35,0,0,0-.14-1.52c-.14-.55-.21-1.1-.34-1.65.82-.07,1.65-.07,2.47-.07,1.66-.14,3.38-.14,5.23-.2s3.79-.21,5.85-.35c4.06-.27,8.4-.62,12.81-.89,4.26-.55,8.53-1.1,12.52-1.59,2.07-.2,4-.41,5.78-.75s3.58-.62,5.16-.83c6.34-1.1,10.53-1.79,10.53-1.79s-4.26-.34-10.66-.76c-1.59-.06-3.31-.27-5.17-.34s-3.71-.41-5.71-.62c-3.92-.48-8.12-1-12.32-1.44-4.13-.69-8.26-1.38-12.11-2-2-.34-3.79-.62-5.58-1s-3.51-.69-5-1a213.94,213.94,0,0,1,24.57-2.82c20-1.24,36.48-2.06,53.06.21,13,1.79,31.32,6.4,44.74,18.51,1.1,1,2.68,5.23,1.72,9.43-.76,3.65-3.1,6-7,7.16-32.76,10-70.82,12-112.87,5.92-2.27-.35-4.61-.69-7-1.17-2.89-1.86-5.85-3.65-8.95-5.3,1.79-.21,5.37-.69,10.12-1.31,1.65-.27,3.51-.48,5.44-.76s3.92-.41,6-.62c4.2-.34,8.67-.75,13.08-1.17,4.54-.2,9-.41,13.28-.55,2.07-.06,4.2-.2,6.06-.13s3.85.07,5.5.07l11.36.2S980.27,241.93,973.66,240.28Zm32.48,107a71.42,71.42,0,0,1,6.54-10.6,52.83,52.83,0,0,0,11.29,1.24c7.57,0,15.62-1.93,21.88-8.19,5-5,7.58-12.05,7.71-19.48,14.32-.69,28.77-2.89,42.88-5.37,2.06-.34,4.2-.75,6.33-1.17a.07.07,0,0,1,.07.07c-.41.28-.89.62-1.38.9s-1.17.82-1.79,1.3c-1.23.9-2.61,1.93-4.06,3s-2.82,2.21-4.33,3.31-3,2.41-4.54,3.71-3,2.62-4.48,4l-4.33,4.12c-1.38,1.31-2.76,2.69-4.06,4.07s-2.55,2.61-3.65,3.92-2.14,2.48-3.17,3.58c-1.92,2.2-3.37,4.2-4.47,5.5a20.77,20.77,0,0,0-1.45,1.93c.35-.28,1-.76,1.93-1.45,1.38-1,3.23-2.47,5.71-4.12,1.17-.76,2.55-1.66,3.93-2.62s2.89-1.79,4.4-2.75,3.1-1.93,4.82-2.82,3.3-1.86,5-2.76,3.44-1.72,5.09-2.54,3.38-1.59,5-2.28,3.17-1.51,4.68-2,2.89-1.17,4.2-1.58c.62-.28,1.24-.55,1.79-.76a4.45,4.45,0,0,0,1-.35c-.28,1.31-.55,2.83-.83,4.48s-.62,3.37-1,5.16a54.07,54.07,0,0,1-1.31,5.64c-1,3.93-2,8.06-3,12.25-1.3,4.13-2.61,8.26-3.85,12.12-.62,1.92-1.1,3.85-1.79,5.57s-1.31,3.44-1.93,5c-2.2,5.71-3.71,9.7-3.85,10.18.28-.41,2.62-3.92,6.13-9.08,1-1.38,1.92-2.82,3-4.41s2-3.3,3.1-5.09c2.13-3.58,4.41-7.36,6.68-11.22,1.86-3.58,3.65-7.16,5.43-10.53a155.51,155.51,0,0,0,2.27,20.24c.28,1.58.62,3.16,1,4.75a154.6,154.6,0,0,1-6.47,19.27c-4.2,10.25-8.33,17.2-13.49,22.5-5.92,6.19-13.28,9.77-20.23,9.84-8.54.14-17.69-4.75-28.08-14.86-2.07-2-4.13-4.06-6.27-6.33-7.36-7.51-14.86-15.28-24.84-20.51-1.65-.9-3.37-1.72-5.1-2.48-3.16-1.52-6.19-3-8.25-4.68a20.73,20.73,0,0,0-.21-2.07,39.48,39.48,0,0,0-2.2-9.15A32.38,32.38,0,0,1,1006.14,347.3Zm48-154.65c.49.28,1,.55,1.66.83a136.48,136.48,0,0,1,54,50.31c-2.41-1.24-5-2.62-7.5-3.93-3-1.23-5.92-2.47-8.67-3.64-1.38-.55-2.68-1.17-4-1.59l-3.65-1.17c-3.92-1.23-6.74-2.13-7.36-2.34.55.42,2.89,2.14,6.19,4.55.89.68,1.93,1.44,3,2.27s2.06,1.79,3.16,2.68c2.14,1.93,4.48,3.92,6.75,6s4.13,4.27,6.06,6.26c.13.14.2.14.2.21a20.22,20.22,0,0,0-5.71,7.29,19.78,19.78,0,0,0-1.86,8.88l-2.55,1c-1,.41-2.27.75-3.51,1.1a33.37,33.37,0,0,1-3.92,1.1c-1.37.34-2.75.69-4.06,1s-2.82.48-4.2.69-2.82.41-4.13.55-2.68.34-3.85.34-2.48.14-3.58.14c-2.2.14-4,0-5.3,0s-2-.07-2-.07l1.86.76c1.24.41,3,1.17,5.1,1.79,1,.41,2.27.76,3.44,1.1s2.61.69,4,1a38.17,38.17,0,0,0,4.27,1l4.54.82c1.51.14,3,.28,4.54.48s3,.28,4.48.35,2.89.21,4.33.14,2.68-.07,3.85-.07H1101a21.52,21.52,0,0,0,4.2,4.06c0,.07,0,.07-.07.07a102.7,102.7,0,0,1-11.42,2.41c-14.94,2.68-29.67,4.88-43.71,5.3-5-9.92-13.49-17-21.19-22.58-1.31-1-2.69-1.93-4.06-2.82,7.77-1.51,15.27-3.37,22.64-5.58,9.43-2.89,16-9.84,18.1-19.13s-.69-19.54-6.74-24.91a80.3,80.3,0,0,0-19.14-12.67,42.15,42.15,0,0,0,9.09-6.6A32.45,32.45,0,0,0,1054.11,192.65Zm-13.28-13.21c.62,2.61-.76,6.26-3.51,8.94-3.37,3.38-8.4,5.58-13.21,7.58-2.34,1-4.68,1.92-7,2.82-3.79-.9-7.71-1.59-11.7-2.14-15.35-2.13-31.18-1.72-45.22-1a197.63,197.63,0,0,0,30.56-24c6.47-.28,12.87-.41,19.13-.41,3.23,0,6.47,0,9.64.07,5.71.06,10.46.27,14.52,1.78C1037.53,174.48,1040.21,177,1040.83,179.44Zm-23-39.92c7.78-11.7,10-21.89,6.68-30.42a78.9,78.9,0,0,1,24-20.51c6.61-3.65,13.9-6.33,21.61-9.22,8.81-3.31,17.76-6.68,25.88-11.5A143.43,143.43,0,0,1,1090,92.79c-5.3,15.48-13.63,27.87-24,35.72-10.6,8.05-23.74,12.11-37.71,16.38-6.27,1.86-12.6,3.85-18.79,6.19C1012.41,147.37,1015.16,143.51,1017.84,139.52Zm-27-27.8a37,37,0,0,1,8.74-1.11c4.2,0,8,1,9.49,3.51,2.55,4.34-1.85,12.19-4.68,16.45a180.3,180.3,0,0,1-93,70.41c-.27-.14-.55-.28-.75-.41s-.14-.07-.21-.14c1.45-1,3-2.2,4.82-3.58,1.51-1.17,3.09-2.34,4.81-3.65s3.51-2.68,5.3-4.2c3.72-3,7.64-6.05,11.57-9.22,3.71-3.23,7.5-6.47,11.08-9.5,1.79-1.51,3.51-3,5.09-4.4s3.1-2.82,4.41-4.06c5.16-4.68,8.74-7.92,9.15-8.33L956,159.82c-1.58.9-3.37,1.93-5.16,3S947,165,945,166.09c-4,2.2-8.33,4.61-12.67,7-4.33,2.2-8.74,4.47-12.8,6.53-2.06,1-4,2.07-5.92,3s-3.78,1.72-5.43,2.55c-.14.07-.21.07-.28.14l-.07-.07c1.17-1.24,2.62-2.62,4.06-4.13s3.17-3.1,4.82-4.82,3.58-3.3,5.51-5c3.78-3.44,7.91-7.16,12-10.88,4.34-3.51,8.6-7,12.73-10.25,2.07-1.65,3.93-3.37,5.92-4.68s3.86-2.75,5.51-4c5.92-4.27,10.18-7.3,11.15-8.06-1.1.49-5.78,2.76-12.46,5.92-1.86.9-4,1.86-6.19,2.89s-4.34,2.34-6.75,3.58c-4.68,2.55-9.63,5.3-14.59,8-4.88,3-9.7,6-14.31,8.81-2.28,1.44-4.61,2.82-6.54,4.19s-3.86,2.69-5.58,3.86c-3.51,2.48-6.4,4.47-8.46,5.85v-2C925.21,140.48,957.49,119.29,990.8,111.72ZM890,121.49c12.53-27.46,25.6-53.2,48.25-66.62,3.85-2.27,8.94-4.27,13.28-4.27a9,9,0,0,1,5.43,1.51c2.89,2,4.48,6.54,4.07,11.43-.49,5.71-3.1,11.56-5.72,17.2C949.71,93,944,105.11,937.8,116.53c-17.41,10.67-34.41,24.85-50.72,42.4a13.84,13.84,0,0,1,.62-1.65c.27-.9.62-1.72,1-2.62.76-1.86,1.52-3.85,2.34-5.92s1.86-4.26,2.82-6.54,2-4.68,3.24-7,2.27-4.74,3.51-7.15,2.48-4.75,3.71-7.09,2.55-4.48,3.86-6.68,2.48-4.33,3.78-6.26,2.41-3.79,3.51-5.51,2.14-3.23,3.1-4.54,1.72-2.55,2.41-3.51c1-1.51,1.72-2.55,2-2.89-.35.28-1.24,1.17-2.55,2.41-.83.82-1.86,1.86-3,3s-2.55,2.48-3.92,4-2.89,3.1-4.54,4.82-3.17,3.58-4.89,5.5-3.44,3.93-5.16,6.06-3.44,4.2-5.16,6.4-3.24,4.41-4.89,6.54-3.17,4.4-4.61,6.54c-.76,1.1-1.52,2.13-2.2,3.16C884.46,133.53,887.28,127.34,890,121.49Zm-9.7,62.7v.13l.41.76.07.14.13.21c.42.61.83,1.17,1.24,1.72a14.47,14.47,0,0,0,1.38,1.44c.48.48,1,.76,1.51,1.17a19.34,19.34,0,0,0,5.1,2.41l3.44,1c.27.07.48.14.69.21-.07.41-.14.82-.28,1.44a42.33,42.33,0,0,0-.55,4.62,11.94,11.94,0,0,0,.07,1.58,8.29,8.29,0,0,0,.21,1.79,9.57,9.57,0,0,0,.27,1.31l.21.61.2.42.14.41.07.21.07.07.27.68.07.07a14.72,14.72,0,0,0,4.82,5.16,41,41,0,0,0,3.72,2.14,2.9,2.9,0,0,1,.62.27c-.14.42-.28.83-.48,1.31a21.73,21.73,0,0,0-1.66,4.89,14.08,14.08,0,0,0-.06,4.2c.06.34.27,1,.41,1.58a9.8,9.8,0,0,0,.69,1.58.61.61,0,0,1,.06.21l.07.14.07.13.21.42a5.23,5.23,0,0,0,.48.68l.14.14.2.28.35.41a4.64,4.64,0,0,0,.83.83c.41.41.82.75,1.23,1.1l1,.69v.13c.13,0,0,.07.07.14s0,.07.06.14l-.13.07-.07.07-.28.27c-.07.07-.34.21-.55.35l-.55.41c-.48.41-1,.69-1.58,1.24a4.26,4.26,0,0,0-1,.75l-1.11,1a17,17,0,0,0-1.37,1.51c-.21.35-.42.69-.62,1l-.28.48-.13.2-.35.76s-.41.83-.41.9l-.07.13-.14.49-.2,1a7.51,7.51,0,0,0-.35,1.72,10.93,10.93,0,0,0-.07,1.44c0,1,.07,1.59.07,2.28v.68a9.72,9.72,0,0,1-1.17.28l-3.3.76a19.91,19.91,0,0,0-4.48,1.3l-1.37.55c-.42.28-.9.56-1.31.83a14.34,14.34,0,0,0-3.1,2.75l-.48.76-.07.07h-.07a4.15,4.15,0,0,1-.41.62v.07l-.27.41-.35.83a8.92,8.92,0,0,0-.62,1.44c-.14.55-.27.9-.34,1.31L881,263.2c-.75,0-1.72,0-2.89-.07a20.48,20.48,0,0,0-5.71.75l-.41.14-.62.28-.35.13a12.71,12.71,0,0,0-1.58.9l-.76.41-.62.48c-.34.35-.75.69-1.1,1a14.62,14.62,0,0,0-1.72,2c-.48.62-.82,1.1-1.24,1.72l-1,1.38-.41.48-.21.41h-.07v.14l-.2.21-.62.48c-.07.07-.21.07-.49.14a13.92,13.92,0,0,1-4.26-.83,74.8,74.8,0,0,0-7.23-2.13,16.24,16.24,0,0,0-2.48-.35l-.89-.06-.48-.07h-1a24.13,24.13,0,0,0-4.68.48c-2.82.62-5.09,1.44-7.15,2.06a17.23,17.23,0,0,1-4.89,1c-.28,0-.48-.07-.69-.07h-.07v.07l-.14-.07-.68-.28-.14-.14a2.23,2.23,0,0,0-.62-.41L823.07,271A24,24,0,0,0,820,268.5l-.21-.14-.28-.21a24.26,24.26,0,0,0-8.87-2.48l-1.52-.2-.69-.07a13,13,0,0,0-1.24-.28v.07l-.34-.2-.62-.42a1.05,1.05,0,0,1-.21-.27,8.45,8.45,0,0,1-1-1.93c-.48-.83-1-1.93-1.58-3.23a19.71,19.71,0,0,0-3.1-4.34l-.62-.55-.34-.28-.41-.34c-.35-.21-.62-.41-1-.62l-.48-.28-.21-.13-.34-.21-.28-.07-.62-.27L796,252h-.07c-.41-.14-1-.28-1.38-.42-.14-.06-.14-.06-.21-.06a9.66,9.66,0,0,1-.06-1.38l-.14-1.45c-.07-.41-.07-.62-.14-.89l-.07-.21v-.07l-.07-.48v-.14l-.27-.75a11.35,11.35,0,0,0-.55-1.52,16.24,16.24,0,0,0-3.31-4.75,60.49,60.49,0,0,0-6-4.74,6.75,6.75,0,0,1-1-.83l-.41-.41-.27-.35a5.62,5.62,0,0,1-.83-1.17,7.88,7.88,0,0,1-.76-3.58,2.68,2.68,0,0,0,0-.75v-.21l.07-.41.14-.83v-.2l.07-.07v-.14l.2-.55.28-1.1c.21-.76.69-1.59,1-2.34s.83-1.52,1.24-2.34c.21-.28.55-.83.83-1.31l1.79-2.68,1.1-1.66a29.41,29.41,0,0,0,2.13-4.19l.41-1.31a9,9,0,0,0,.35-1.45,14.34,14.34,0,0,0,.21-4l-.07-.55v-.21L790,202l-.07-.34-.07-.28-.21-.82-.07-.21a13.29,13.29,0,0,0-.82-1.93,38.3,38.3,0,0,0,5.57-3.09,10.23,10.23,0,0,1,1.24-.9c.48-.55,1-1,1.45-1.51l.62-.76.07-.07.41-.62.21-.27.41-.83c.27-.48.55-1.1.75-1.51l.62-2,.14-.41.14-.76.21-.83.13-.41v-.14a1.58,1.58,0,0,0,.35-.68,5.61,5.61,0,0,1,.89-1.38,10.07,10.07,0,0,1,3-2.48,6.36,6.36,0,0,1,.69-.34l.14-.07a.51.51,0,0,1,.34-.14l.83-.34.41-.14h.07l.48-.14,1.17-.2a7.1,7.1,0,0,1,1.17-.28l1.31-.14c.89,0,1.72-.14,2.61-.07l1.31.07a5.37,5.37,0,0,1,1.45.07l3.37.35,1.65.2a17.94,17.94,0,0,0,2,.14,35.45,35.45,0,0,0,4.68-.07,17.56,17.56,0,0,0,5.71-1.65,11.19,11.19,0,0,0,3.16-2.07,9.4,9.4,0,0,0,1.59-1.72,24.79,24.79,0,0,0,3,1.31c.55.14,1,.28,1.58.41a15.3,15.3,0,0,0,2,.28h1.51l.76-.07a3.77,3.77,0,0,0,.55-.07L849,175l.28-.07h.06l.83-.2.21-.07a14.7,14.7,0,0,0,6.12-4.34l1.1-1.3c.14-.14.28-.21.48-.42a1.23,1.23,0,0,1,.49-.34,2.58,2.58,0,0,1,.62-.35,7.08,7.08,0,0,1,3.09-.68c2.34,0,4.48,1.1,5.23,2.27l1.86,2.68,3.86.48a14.71,14.71,0,0,1,4.47,1,5.19,5.19,0,0,1,1.24.68v3a8.18,8.18,0,0,0,.07,1.24L879,180c.07.2.13.69.2,1s.21.83.28,1.24a7.86,7.86,0,0,0,.41,1l.28.83ZM808.76,377.44c0,2.69.07,5.23.14,7.85C797.4,406,784.88,426.93,782,430c-3.65,3.51-9.43,6.4-14.18,4.88-3.31-1-6.4-4.4-8-8.74-1.86-5.09-2-11.15-1.79-16.31.89-29.94,11.08-62.42,31.24-99.38,5.3-9.77,11.29-19.41,18.86-26.29-.76,1.86-1.58,3.85-2.55,6.05-1,2.41-2,5-3.16,7.78-.55,1.31-1.1,2.82-1.65,4.34s-1,3-1.59,4.61c-2.13,6.26-4.4,12.94-6.67,19.54-1.86,6.75-3.72,13.49-5.44,19.83-.48,1.58-.9,3.09-1.31,4.61s-.82,3-1.1,4.47c-.62,2.89-1.17,5.64-1.72,8.26-2,9.5-3.37,16-3.51,16.86.28-.76,2.55-7,5.92-16.17.89-2.41,1.86-5,2.89-7.85.48-1.37,1.1-2.75,1.72-4.2s1.24-2.89,1.93-4.33c2.61-5.92,5.37-12.18,8.12-18.52,3.16-6,6.26-12.11,9.22-17.75.76-1.45,1.45-2.82,2.13-4.2s1.24-2.41,1.93-3.58C808.76,327.27,808.48,352.12,808.76,377.44ZM526,427.82a45.73,45.73,0,0,1-30.42-4.47,94.34,94.34,0,0,1-10.87-7.09c-1.38-1-2.76-2-4.13-3,4.26.83,8.53,1.86,13,2.89,7.85,1.86,15.9,3.79,24.3,4.61a78.5,78.5,0,0,0,8.4.41,67.82,67.82,0,0,0,16.17-1.85C538.63,423.42,532.77,426.44,526,427.82Zm-36.89-86.3a10.88,10.88,0,1,0,20.79-6.4,10.57,10.57,0,0,0-3.44-5.23c.2-.35.41-.76.61-1.17.55-1,1.11-2.21,1.72-3.38a31.3,31.3,0,0,0,1.79-3.78c.56-1.24,1.17-2.41,1.59-3.65a280.37,280.37,0,0,0,16.52,60.29c3.23,8.12,7.22,16.86,13.14,24.43-7.5,2.69-15.9,2.75-22.3,2.07-7.36-.76-14.59-2.48-22.23-4.27-4.61-1-9.43-2.2-14.25-3.1-13.14-2.47-29.66-.82-42.6,4.13-5.57-.34-10.73-.89-15-3-11.22-5.43-15.21-20.64-13.35-32.83a56.31,56.31,0,0,1,4.26-14.31c14.46-1.58,29.39-6.75,44.6-15.42,15.42-8.74,29.11-19.89,42.33-30.69.14-.07.27-.21.41-.28-.07.28-.07.55-.14.83-.2,1.44-.34,2.82-.55,4.26s-.55,2.83-.75,4.2-.62,2.76-.9,4.06-.62,2.62-1,3.79-.69,2.34-1,3.37c-.21.69-.42,1.31-.62,1.93a10.92,10.92,0,0,0-9.71,14.11Zm37.3-39.78a25.53,25.53,0,0,0,5.51-1.17c.89-.28,1.72-.55,2.55-.9.2.48.55,1,.82,1.52a18.19,18.19,0,0,0,.83,1.65c.41.55.75,1.1,1.17,1.72,1.44,2.34,3,4.82,4.61,7.29.82,1.24,1.72,2.34,2.55,3.51s1.72,2.21,2.54,3.31,1.58,2.06,2.27,3a3.43,3.43,0,0,0,.42.48A10.91,10.91,0,1,0,569.8,324a11,11,0,0,0-12-7.57c-.07-.14-.14-.21-.21-.35-.48-1-1-2.13-1.58-3.23s-1.17-2.27-1.72-3.44a27.81,27.81,0,0,1-1.72-3.58c-1-2.41-2-4.75-2.89-6.95-.21-.56-.49-1.11-.69-1.66s-.35-1.17-.55-1.72c-.42-1.17-.69-2.2-1-3.16-.21-.62-.35-1.17-.56-1.65a32.84,32.84,0,0,0,5.58-9.3h.83c1.17-.06,2.4-.13,3.78-.13s2.55.07,3.92.07,2.76.06,4.2.13,2.89.07,4.41.21l8.81,1c1.37.21,2.75.28,4.06.55s2.4.48,3.51.69a7.68,7.68,0,0,0,.41,1.72,10.88,10.88,0,1,0,7.16-13.63,10.16,10.16,0,0,0-4.75,3c-.14,0-.21-.07-.35-.07-1.1-.48-2.34-.89-3.58-1.37s-2.75-.83-4.12-1.24c-3-.83-6.06-1.72-9.16-2.69-1.58-.34-3.23-.62-4.82-1-.75-.14-1.51-.34-2.27-.48a269.51,269.51,0,0,1,48.25-10.39,28.67,28.67,0,0,0,2.06,6.19c6.27,12.66,20.72,16.86,31,18.93a12.3,12.3,0,0,0,1.45.27,195.37,195.37,0,0,0-17.9,21.82c-6.33,9-9.56,17.48-9.56,25a23.27,23.27,0,0,0,4.4,13.77c6.2,8.39,16.18,10.18,23.88,10.18,1.79,0,3.44-.13,4.82-.2a37.11,37.11,0,0,0-5.92,8.87c-2.13,4.62-2.82,9.36-3.51,13.56a63.33,63.33,0,0,1-1.44,7.09c-2.48,8.4-9.84,15.83-19.76,19.89-8.53,3.51-18.72,4.82-32.07,3.92-13.62-.82-23.12-3.57-29.87-8.8-8-6.2-12.73-16.25-16.58-26.09A266.68,266.68,0,0,1,526.44,301.74ZM700.77,175.51c1.17.14,2.62.35,4.27.62.83.07,1.72.21,2.69.35s1.85.41,2.82.55c2.06.48,4.19.89,6.53,1.38,2.28.34,4.68,1.1,7.16,1.72s5,1.23,7.57,2.13,5.1,1.65,7.64,2.41c2.55,1,5.09,1.93,7.57,2.89s4.89,2,7.16,3c1,.48,2.07,1,3,1.37-2.27-.27-4.54-.55-7-.68s-5-.35-7.5-.55l-7.51-.21c-2.47-.14-4.88-.07-7.22-.07s-4.61,0-6.82.14-4.13.2-6,.27c-3.72.14-6.82.55-9,.69s-3.37.35-3.37.35l3.37.34c2.13.34,5.23.55,8.88,1.17,1.86.28,3.85.55,5.92.89s4.26.83,6.47,1.24,4.61.9,6.95,1.52l7.09,1.65c2.34.69,4.68,1.38,7,2s4.54,1.37,6.74,2.13l.83.21c-33-5.17-61.6-4.75-86.31,1.44-9.29-3.72-18.3-7.78-27.11-12.25-5.1-2.55-10.19-5.51-13.9-9.64s-5.23-9.08-4.07-12.93c1.24-4.27,5.79-7.64,9.43-9.64,9.43-5.37,21.41-8,36.62-8.19h1.51c30.63,0,65.66,11.84,93.88,30.49a3.59,3.59,0,0,0-1-.34c-2.4-.76-4.88-1.17-7.43-1.86s-5.23-1.31-8-1.72-5.51-1-8.26-1.52l-8.33-1c-2.75-.41-5.44-.55-8-.69s-5.09-.48-7.5-.48-4.68-.07-6.75-.07h-3c-1,0-1.86.07-2.75.07-1.65.07-3.1.14-4.34.21-2.41.07-3.78.13-3.78.13S698.36,175.17,700.77,175.51Zm12.46,40.06a260.51,260.51,0,0,1,42.19,3.72c3.17.48,6.33,1.1,9.43,1.79a16.48,16.48,0,0,1-1.72.06c-.9.07-1.86.14-2.82.14s-2,.21-3.17.28c-2.2.27-4.61.48-7.16.75s-5.09.69-7.84,1.11-5.44.75-8.26,1.3-5.65,1.17-8.47,1.79-5.64,1.38-8.39,2.07-5.51,1.51-8.06,2.27-5.09,1.51-7.36,2.34-4.54,1.65-6.54,2.34c-1,.34-2,.76-3,1s-1.72.76-2.54,1.1c-1.59.69-3,1.24-4.13,1.72-1.72.69-2.9,1.17-3.38,1.45.48-.07,1.72-.35,3.58-.76,1.24-.27,2.69-.62,4.41-1,.82-.21,1.72-.42,2.68-.62s1.93-.35,3-.48c2.13-.42,4.41-.76,6.75-1.17s5-.62,7.57-1,5.36-.69,8.12-.82,5.5-.35,8.33-.55l8.32-.21c2.75-.07,5.44.07,8.05.14s5.17.07,7.51.27,4.54.42,6.6.55c1,.07,1.93.21,2.89.28s1.86.21,2.76.27c1.58.21,3,.42,4.13.55a11.73,11.73,0,0,0-1.24.69c-.83.35-1.72.76-2.62,1.17-1.79.83-3.71,1.72-5.85,2.76s-4.33,1.85-6.67,2.82-4.75,2-7.3,2.89-5.09,1.86-7.64,2.75-5.23,1.65-7.78,2.48-5.09,1.51-7.57,2.2-4.88,1.38-7.22,1.86-4.48,1-6.47,1.51-3.86.83-5.58,1.1-3.09.56-4.26.83c-2.34.41-3.72.62-3.72.62h3.79c1.23,0,2.68.07,4.4.07s3.58,0,5.64-.14,4.41-.14,6.75-.27,5-.35,7.5-.55,5.37-.35,8-.76l8.33-1,8.33-1.45c2.75-.34,5.37-1,8-1.58s5.09-1,7.5-1.65,4.61-1.17,6.68-1.72c1.1-.28,2.06-.56,3-.76s1.79-.55,2.54-.83c1.66-.48,3-.89,4.27-1.24a3.83,3.83,0,0,0,.83-.27,19.31,19.31,0,0,1,1.85,1.51c.35.42.56.62.62.69v.07a4.32,4.32,0,0,1,.14.76v.2l.07,1.65a.42.42,0,0,1,.07.28,80.89,80.89,0,0,0-8.33,3.44c-.55.21-1.1.55-1.65.76-39.5,14.31-82.52,17.89-122.16,10-11.08-2.27-17.28-5.51-19.69-10.26-1.92-4-1-9.91,2.21-14.66,3.09-4.4,8.05-8.32,15.69-12.25C665.81,220.39,687.63,215.57,713.23,215.57ZM637.32,334.29c-3.24-4.47.62-13.21,5.3-19.82a178.67,178.67,0,0,1,24.77-28.22,230.93,230.93,0,0,0,24,1.24,248.58,248.58,0,0,0,37.79-3,203.1,203.1,0,0,0-39.09,44.94,216.35,216.35,0,0,1-34.69,7.78C648.81,338.14,640.35,338.35,637.32,334.29ZM687,371.59A183,183,0,0,1,779.71,271a76.91,76.91,0,0,1,10-3.78c-1.72,1.85-3.78,4.06-6.12,6.47-1.65,1.85-3.51,3.85-5.51,5.91s-3.92,4.48-6,6.82c-4.12,4.82-8.53,10-12.86,15.07S750.88,312.06,747,317c-1.92,2.47-3.85,4.74-5.5,7.15s-3.24,4.55-4.68,6.54c-5.44,7.71-9.16,12.94-9.64,13.56.55-.55,5-5.16,11.56-11.91,1.73-1.79,3.65-3.71,5.58-5.78s4.27-4.06,6.47-6.19c4.54-4.27,9.36-8.74,14.18-13.28,5-4.27,10-8.61,14.66-12.6-1.66,2.75-3.17,5.51-4.68,8.19-12.19,22.44-21,43.43-26.43,63.39a215.69,215.69,0,0,1-43.36,24.36c-6.13,2.55-14.32,4.89-18.24,1.65C682.6,388.59,684.12,379.23,687,371.59ZM842.55,33.67C847.09,23,853,16.33,858.1,16.19h.14c3.37,0,7.43,3,10.32,7.5,3.65,5.64,5.58,13.15,7,19.75a215,215,0,0,1,3.78,62.63c-1.37,2.82-2.68,5.78-4.06,8.74-4.89,10.67-10.53,23.13-13.9,36.55-.28,0-.55.07-.83.07-.07-.76-.07-1.59-.13-2.41-.07-2.14-.21-4.48-.28-7s-.07-5-.14-7.71c0-5.3-.07-11-.07-16.73.21-5.71.49-11.42.69-16.79.14-2.68.14-5.3.35-7.71s.41-4.81.55-6.95c.68-8.67,1.17-14.38,1.17-14.38S861.2,77.37,859,85.7c-.55,2.13-1.17,4.4-1.79,6.81s-1.1,5-1.72,7.64c-1.17,5.3-2.41,11-3.65,16.66-1,5.78-1.93,11.49-2.89,16.93-.41,2.68-1,5.37-1.31,7.78s-.62,4.81-.89,6.95c-.35,2.75-.69,5.16-1,7.22a261.71,261.71,0,0,0-14.38-69C832.23,66.57,835.94,49.09,842.55,33.67ZM758.72,41C760.37,35.67,764,31.47,768,30c4.4-1.58,10.59-.2,15.55,3.51,5.51,4.2,9.63,10.53,13.28,16.8a251.16,251.16,0,0,1,33,109.29l-.48.41s-.35.41-.56.69a.24.24,0,0,0-.06.14l-.35.34c-.82-2-1.72-4.34-2.82-6.95-.82-2.2-1.72-4.47-2.68-7s-2.14-5.09-3.24-7.78c-2.27-5.37-4.68-11.08-7.16-16.79s-5.16-11.22-7.57-16.45c-1.24-2.62-2.34-5.23-3.58-7.57S799.05,94,798,92c-3.85-7.77-6.54-13.07-6.88-13.76.21.69,2,6.4,4.54,14.66.69,2.2,1.38,4.61,2.2,7.09s1.45,5.3,2.21,8c1.51,5.57,3.16,11.49,4.81,17.41,1.38,5.92,2.83,11.84,4.2,17.41.62,2.83,1.31,5.44,1.86,8s1,5.09,1.51,7.29c.21.83.35,1.59.55,2.41A251.39,251.39,0,0,0,766,95a167.62,167.62,0,0,1-8.19-35.17C757.28,54.32,756.8,47.16,758.72,41ZM689.07,77c6.06-5.37,17.69-2.07,21.13-.9,13.84,4.68,27.12,13.56,42,28a231.72,231.72,0,0,1,36.33,45.63c-.48-.48-1-.9-1.51-1.38-2-1.79-4-3.72-6.19-5.44s-4.48-3.51-6.68-5.3c-2.34-1.58-4.68-3.23-6.95-4.81a80.5,80.5,0,0,0-6.88-4.34c-2.34-1.31-4.41-2.75-6.61-3.78s-4.13-2.14-6.06-3.1c-.89-.48-1.79-1-2.68-1.38l-2.48-1c-1.58-.69-3-1.24-4.06-1.72-1.93-.83-3.17-1.38-3.37-1.45.27.21,1.31.9,3,2.07,1,.62,2.27,1.44,3.64,2.41.76.41,1.52,1,2.27,1.44s1.52,1.17,2.34,1.79c1.66,1.24,3.45,2.62,5.3,4.06s3.72,3.17,5.65,4.82,3.92,3.37,5.78,5.3,3.78,3.85,5.71,5.78,3.51,4.06,5.3,6.06,3.3,4.13,4.82,6.12c.76,1,1.51,1.93,2.2,2.89s1.45,1.93,2.07,2.89c.48.76,1,1.45,1.37,2.14-1-.76-2.06-1.65-3.23-2.48-1.79-1.51-3.86-2.82-5.92-4.34s-4.2-3-6.4-4.47-4.54-2.89-6.82-4.4-4.61-2.69-6.88-4.07-4.54-2.61-6.81-3.85-4.27-2.34-6.4-3.37-4-1.93-5.78-2.82c-.9-.42-1.79-.83-2.62-1.24s-1.58-.69-2.34-1c-1.51-.68-2.82-1.23-3.92-1.65-1.65-.69-2.69-1.17-3.17-1.31.48.28,1.45,1,2.89,1.93,1,.62,2.07,1.38,3.44,2.27.69.48,1.38,1,2.14,1.45s1.51,1.1,2.27,1.72c1.58,1.17,3.3,2.48,5.16,3.78s3.58,3,5.51,4.48,3.92,3.16,5.78,4.88l5.85,5.23c1.93,1.79,3.78,3.58,5.57,5.44,1.1,1,2.14,2.07,3.17,3.1a208.84,208.84,0,0,0-47.35-20.44,297,297,0,0,1-25.33-33.79c-3.58-5.65-7-11.77-8-18C684.46,85.22,685.91,79.78,689.07,77ZM587.77,91.07a136.27,136.27,0,0,0,31.86,11.77l10,2.27c15.76,3.51,30.63,6.81,43.63,14.11A71.6,71.6,0,0,1,689.62,132l3.86,5.09a154.38,154.38,0,0,0-23-1.58c-12.25.2-22.85,1.86-32.14,5-8.4-2.54-16.86-6-23.81-11.49-8.6-6.75-14.87-16.52-19.82-25.19C592.24,99.67,590,95.34,587.77,91.07Zm-5.3,53.47a7.28,7.28,0,0,1-.55-1.17,33.38,33.38,0,0,1,10.46-1.79,23.29,23.29,0,0,1,10.11,2.14c4.06,1.93,7.71,5.3,11.5,8.95a20.88,20.88,0,0,0,.41,2.68,26.79,26.79,0,0,0-5.3,9.7c-2.75,9.23.21,20,7.57,28.29,5.44,6.13,12.46,10.12,18.58,13.21,3.86,2,7.71,3.86,11.7,5.65-2.47,1.1-4.81,2.2-7.15,3.44-6.4,3.23-15.49,8.67-21.61,17.48a35,35,0,0,0-4.2,8.33,288.1,288.1,0,0,0-43.16,8.12.36.36,0,0,1,.28-.14,34.42,34.42,0,0,0,3.23-3.16,40,40,0,0,0,2.83-3c.89-1,1.65-1.93,2.41-2.82.34-.42.62-.76.89-1.11a11.18,11.18,0,0,0,4,.69,10.88,10.88,0,1,0-10.87-10.87,10.45,10.45,0,0,0,1.24,5.09,4.23,4.23,0,0,1-.83.69c-.82.62-1.72,1.31-2.61,2.06s-2.07,1.31-3.1,2.07-2.14,1.44-3.3,2.06c-.83.42-1.66.9-2.55,1.31,9.5-11.49,16.72-26.29,21.27-43.5C589.21,177.85,588.8,159.55,582.47,144.54ZM423,155.07c3.51-12,13.63-21.54,24.64-23.12a40.23,40.23,0,0,1,5.92-.34c1.38,0,2.68.06,4.06.06a67.66,67.66,0,0,0,14.73-.75c8.12-1.65,14.73-5.65,21.2-9.5,4.95-3,9.7-5.85,14.52-7.23,13-3.51,26.91,3.65,36.27,10.26,11.35,8,19.2,16.93,23.19,26.36,4.89,11.7,5.09,26.49.48,44-3.58,13.77-11.08,32.9-26.36,45.77-.55.48-1.17,1-1.79,1.45a36,36,0,0,0-4.88-2.62,1.68,1.68,0,0,0-.07-.55c-.14-1-.21-2.13-.35-3.23a28.42,28.42,0,0,0-.55-3.51c-.2-1.24-.34-2.48-.62-3.72s-.62-2.48-.89-3.79-.69-2.47-1-3.64-.76-2.41-1.17-3.51-.76-2.21-1.17-3.24c-.35-.82-.62-1.58-1-2.34a10.86,10.86,0,1,0-8.12,1.52v.34c.14.83.28,1.79.48,2.75s.14,2,.28,3.1.21,2.13.21,3.24.07,2.27.13,3.37-.06,2.27-.06,3.37-.14,2.2-.21,3.23-.14,2.07-.28,3c-.07.42-.07.69-.13,1.11a24.67,24.67,0,0,0-5.92.89c-9.5-20-21.34-35.93-35.45-47.63-17-14-37.78-21.68-57.67-21.47A42.23,42.23,0,0,1,423,155.07ZM358.86,282.33a71.55,71.55,0,0,1,4.68-9.09c2.61-4.47,5.23-9,6.88-14.45,2.34-7.57,2.2-14.93,2-22.09a98.71,98.71,0,0,1,.27-12,36.14,36.14,0,0,1,3.24-11.14,124.45,124.45,0,0,0,3,15.69A115.86,115.86,0,0,1,381.64,243a58.68,58.68,0,0,1-14.45,45.43c-4.89,5.36-7,10.73-8.54,16.86C356.17,297.54,356.11,289.35,358.86,282.33Zm-125.54,1c-9.63-7.57-19.82-12.45-30.48-16.45,23.95-6.33,50.31-4.33,72.6,6.2,10.4,4.88,19.89,11.35,29.94,18.17,9.43,6.47,19.2,13.14,29.87,18.44,3,1.45,6.13,2.89,9.29,4.06a58.78,58.78,0,0,0,6.4,11.84A139.3,139.3,0,0,1,320.8,324C291.21,319.22,261,305.18,233.32,283.29Zm54.17,107.92c-14.45,6.26-33.66,13.69-53.82,15.35-9.43.75-19,.27-29.18-.21-6.13-.28-12.39-.55-18.65-.55A128.92,128.92,0,0,0,167.25,407c17-27.46,45-48.25,76.33-55.82,16-3.85,32.41-4.54,49.83-5.3,9.29-.34,18.79-.75,28.28-1.65,5.85-.62,11.63-1.38,17.42-2.34,1.37,0,2.75.07,4.13.07a150.93,150.93,0,0,0,23.05-1.72c.62.41,1.24.83,1.93,1.24C346.13,360.86,319.08,377.51,287.49,391.21Zm83.69-67.52c.76-3,1.24-5.78,1.79-8.26,1.72-8.53,2.61-12.25,6.19-16.24A74.86,74.86,0,0,0,397.68,241a138.41,138.41,0,0,0-3-15.55A119.46,119.46,0,0,1,391.89,211a59.65,59.65,0,0,1,.42-13.42c.13-1.38.27-2.62.41-3.72a49.12,49.12,0,0,1,18.79-8,55,55,0,0,1,10.73-1c15.83,0,32.63,6.34,46.53,17.83,12.46,10.25,23,24.64,31.45,42.74-.48.55-1,1-1.51,1.51-.62-.34-1.24-.68-1.93-1-.89-.48-1.58-1-2.41-1.44-1.58-1-3.3-2.14-4.95-3.17-1.72-1.24-3.38-2.48-5-3.65a27.59,27.59,0,0,1-2.27-1.72c-.55-.48-1-.89-1.58-1.31a10.9,10.9,0,0,0-20.1-8.32,11,11,0,0,0,5,14.66,10.86,10.86,0,0,0,9.77-.14c.21.34.41.62.62,1,.55.83,1.17,1.58,1.79,2.41,1.31,1.72,2.68,3.51,4.06,5.3,1.58,1.72,3.1,3.51,4.54,5.16.76.76,1.51,1.65,2.13,2.27s1.31,1.31,1.86,1.86l1,1a32.08,32.08,0,0,0-.27,17.48l-2.06.83c-1.79.76-3.65,1.51-5.51,2.27s-4,1.24-5.85,1.86c-1,.27-1.86.62-2.75.82l-1.86.42a10.82,10.82,0,1,0,1.72,7.57h1a21.65,21.65,0,0,0,3,.07c2.13,0,4.4,0,6.68-.07s4.67-.35,6.81-.55c1.1-.07,2.27-.14,3.16-.28.28,0,.49-.07.76-.07-1,.83-2,1.66-3,2.48C480.4,303,467.19,313.78,453,321.9c-15.55,8.81-30.49,13.49-44.53,13.84S380.74,331.61,371.18,323.69Zm-25.05,116c3-5.37,5.85-10.74,8.6-16,8.19-15.48,16.65-31.45,27.12-45.56a138.74,138.74,0,0,1,14.59-16.72,17.05,17.05,0,0,0-.28,1.86,55.79,55.79,0,0,0,2.34,26.08c-.34,1.17-.62,2.34-1,3.51-3.93,15.14-7.64,29.46-14.8,42.26-.89,1.58-1.79,3.1-2.82,4.61Zm52.58,0c5.23-10.26,8.67-21.13,11.7-32a34.41,34.41,0,0,0,8,5.36c8.19,4,16.59,4.41,24.78,4.89,5.78.28,11.15.55,15.9,2.07,5.64,1.85,10.8,5.5,16.24,9.42a104.7,104.7,0,0,0,12.59,8.19c1.38.76,2.82,1.45,4.27,2.07Zm144,0c.14-.28.35-.62.49-.9a40.3,40.3,0,0,0,16.45-15.69,32.12,32.12,0,0,0,2.33-5.3,81.08,81.08,0,0,0,23.13,5.3A119.06,119.06,0,0,1,580,434c-1.1,1.92-2.27,3.85-3.58,5.71Zm52.45,0a119.36,119.36,0,0,0,7-16.11,78.54,78.54,0,0,0,22.37-3.92c-.42.62-.83,1.24-1.24,1.79-.83,1.24-1.65,2.34-2.34,3.3a15.18,15.18,0,0,0-16.18,5.58,14.92,14.92,0,0,0-3,9.36Zm36.82,0a15.47,15.47,0,0,0-1.31-6.61c.83-1,1.86-2.27,3-3.78.83-1,1.72-2,2.62-3.24s1.85-2.41,2.82-3.71c2-2.62,4.06-5.37,6.19-8.13,1.45-2,2.89-4,4.27-5.91-.07.62-.07,1.23-.14,1.85-.2,3.44-.55,7-.76,10.53-.41,3.51-.89,7-1.23,10.46-.35,3-.83,5.79-1.31,8.54Zm27.39,0c.48-2.13,1-4.27,1.24-6.47.62-3.58,1.24-7.23,1.79-10.94s.82-7.37,1.24-10.95.62-7.22.89-10.73.55-6.82.55-10,.07-6.2.07-9c.07-1.37.07-2.75.07-4s-.07-2.48-.14-3.58c-.07-2.27-.13-4.27-.2-5.85-.07-1.37-.07-2.48-.14-3.3a85.64,85.64,0,0,1,8.12-7.5c1.31-1,2.55-2.14,3.85-3.24C675,358,673.38,362,671.87,366c-5,13.35-5,24.64-.35,32.62a124.5,124.5,0,0,0-.68,41.09Zm27.81,0a111.1,111.1,0,0,1-1.38-25.74c.14-1.51.27-3.1.48-4.68a25.09,25.09,0,0,0,6,.69,46,46,0,0,0,15.21-3l-1.31,3.3c-3.58,9.43-7.36,19.07-9.36,29.46Zm26.15,0c1.86-7.85,4.88-15.55,8-23.61,2.2-5.78,4.48-11.7,6.4-17.82a3.68,3.68,0,0,1,.14-.48c5.37-2.83,10.67-5.72,15.76-8.81a160.8,160.8,0,0,0-1.86,20.37c-.2,6.81-.07,14.73,2.82,22.43a34,34,0,0,0,4.27,7.92Zm81.49,0c3.64-4.54,9.7-14.32,16.38-25.81a89.87,89.87,0,0,0,8.25,25.81Zm44,0a26.74,26.74,0,0,1-3.71-5.09c-9-16-9.91-35.38-10.19-57.33-.34-32.35.21-63.73,9.77-91.26a15.85,15.85,0,0,1,1.72-.49c.14-.06.21-.06.35-.13l4.33,105.09,10.81-105a3.87,3.87,0,0,0,.83.28,24.14,24.14,0,0,0,5.71,1.38c.41,2.2.76,4.61,1.1,7.22,2,15.56,2.82,33.59,3.44,46.67.14,2.68.21,5.16.34,7.36,1.45,28.7,2.83,55.82-7.15,83.76a38.08,38.08,0,0,1-3.38,7.5Zm31.87,0c.21-.76.48-1.45.69-2.07a147.6,147.6,0,0,0,6.67-26c5.3,10.46,12.18,20.51,22.1,27.87.06.07.2.14.27.21Zm64.56,0c6.19-6.47,8.32-15.55,9.22-19.2.07-.21.07-.48.14-.69a168.83,168.83,0,0,0,9.49,19.89Zm37.85,0C962.37,423.83,956,405,951.57,390.24l-.28-1.1c-.55-1.72-1.1-3.58-1.65-5.37,2,1.11,4.13,2.07,6.12,3,14,15.56,27.4,33,33.31,52.93Zm32.69,0c-.28-1.17-.62-2.27-.9-3.37C1000.29,420,991.83,405.8,982,392.86A25.15,25.15,0,0,0,994.93,389a22.89,22.89,0,0,0,7.08-7.5c1.86,1,3.65,1.86,5.44,2.69,1.52.69,3,1.44,4.34,2.13,7.71,4.06,14.11,10.6,20.78,17.48,2.2,2.2,4.34,4.48,6.61,6.68,13.49,13.07,26.29,19.41,39.09,19.41h.48c8.81-.07,17.76-3.45,25.54-9.36v.2c-.14,1-.28,2.14-.42,3.44s-.2,2.69-.34,4.2c-.14,3-.21,6.54-.14,10.26v1Zm112.11,0V439c.07-.76.07-1.51.14-2.27,1,1,2,1.93,2.89,2.89Zm20.37,0c-1-.83-1.92-1.79-2.89-2.75a30.58,30.58,0,0,1-2.54-2.55c-.83-1-1.65-1.86-2.48-2.82a61.57,61.57,0,0,1-5.09-6c-1.65-2.13-3.24-4.34-4.89-6.47-1.44-2.34-2.89-4.61-4.34-6.88a21.75,21.75,0,0,1-1.3-2.14,96.9,96.9,0,0,0,12.52-22.57.26.26,0,0,1,.07-.21c10.46,22.17,27.19,39,47.15,46.39a46.72,46.72,0,0,0,16.38,3.17,30.53,30.53,0,0,0,17.75-5.3c4-2.89,6.88-6.54,9.43-9.78,2.34-2.89,4.47-5.64,6.81-7s6-1.66,10-2a53.28,53.28,0,0,0,9.91-1.38c20-5,30.08-26.49,29.53-44.18a65.14,65.14,0,0,0-6.4-25.19c9.77,11.49,19.06,24.43,28.36,37.78l.48.69c14.52,20.92,29.25,42.26,46.59,59.19ZM1310,371.25l-.48-.69c-11.63-16.79-23.4-33-36.27-46.87a84.58,84.58,0,0,0,16-3.37,106.77,106.77,0,0,1,15.14,7.09c36.14,20.58,63,62.49,73,112.25h-9.29C1345.93,423,1327.76,396.78,1310,371.25Z"/><path fill="FRAME_COLOR" d="M819.77,207.1a4.1,4.1,0,0,0,.89.21l.07.07,1.31.14.41.07.49.07h1a12.59,12.59,0,0,0,5.85-1.79,12.26,12.26,0,0,0,2-1.66l1-1v-.07L833,203l.07-.07.9-1.1a.57.57,0,0,0,.27-.28l.07-.07.21-.21a.61.61,0,0,0,.34-.27,24.49,24.49,0,0,1,3.58-2.41,22.16,22.16,0,0,1,2.2-1l.55-.28.28-.07.14-.06.07-.07h-.21a11.17,11.17,0,0,0,1.44-.42c.42-.13.76-.27,1.17-.41a4.46,4.46,0,0,0,.83-.27,20,20,0,0,1,1.93-.56,3.34,3.34,0,0,0,.82-.13h.48l.21-.07-.07-.07h.21l.55.07c.21,0,.41.07.48,0h.69a7.9,7.9,0,0,1,4.75,2.27.53.53,0,1,0,.89-.28c.07-.27.07-.68.14-1.17a7.15,7.15,0,0,0-.14-1.65,9.68,9.68,0,0,0-2-4.26,8.82,8.82,0,0,0-1.1-1.11l-1-1-.07-.07a.32.32,0,0,0-.27-.13v-.07l-.34-.14-.69-.41c-.55-.35-1-.62-1.52-.9-1-.41-2.2-.82-3.37-1.17-.62-.14-1.31-.21-1.93-.34l-1.72-.21a10.2,10.2,0,0,0-1.44-.21l-.35.07h-1.85a17.89,17.89,0,0,0-1.93.14c-.62.07-1.31.21-2,.34a22.57,22.57,0,0,0-8.12,3.1l-1,.62-.55.35-.55.41c-.76.62-1.52,1.31-2.2,2-1-.06-1.93-.06-2.83-.06a21.67,21.67,0,0,0-9,2.34,19,19,0,0,0-2,1.17,16.32,16.32,0,0,0-2,1.44c-.42.34-.76.76-1.11,1.1l-.2.21v.07a.9.9,0,0,0-.35.2l-.41.42-.62.82a19.27,19.27,0,0,0-3.37,6.54c-.21,1-.41,2.07-.55,3s-.07,1.93,0,2.75a20.83,20.83,0,0,0,.34,2.34,13.7,13.7,0,0,0,.62,1.93,10.4,10.4,0,0,0,1.24,2.34l.55.76a8,8,0,0,0,.35-.9,21,21,0,0,1,1.1-2.27c.27-.41.41-.83.75-1.31a12.82,12.82,0,0,0,1-1.44c.41-.48.82-1,1.3-1.45s1-.89,1.52-1.37a12.62,12.62,0,0,1,3.37-2l.34-.14.14-.07.14-.07c.48-.2,1-.41,1.38-.55s.55,0,.75-.07l.83-.13a17.06,17.06,0,0,1,3.78,0C819.15,207,819.49,207,819.77,207.1Zm4.13-15.62a.26.26,0,0,1,.21.07h-.42l-.41-.07Zm-3.44,1.24h.07l-.07.07Z"/><path fill="FRAME_COLOR" d="M862.9,262.26h0Z"/><path fill="FRAME_COLOR" d="M876.61,210c-.69-.48-1.08-.71-1.08-.71s.22.39.61,1.13.94,1.83,1.55,3.19a26,26,0,0,1,1.61,5,14.59,14.59,0,0,1,0,6,9.38,9.38,0,0,1-2.92,5,2.48,2.48,0,0,1-.26.19l-.13.1h0c0-.06-.44.52-.25.29l0,0-.1.1-.21.2a1.82,1.82,0,0,0-.28.32,14.06,14.06,0,0,0-.8,1.21,11.07,11.07,0,0,0-1.35,4.37,12.52,12.52,0,0,0,0,2.29l.19,1.14,0,.14c0,.09-.15-.55-.08-.26v.19l0,.3c.18,1.12-.06.79-.1,1.27a6.09,6.09,0,0,1-.93,2.23c-.13.14-.21.31-.34.44l-.19.18-.08.09,0,0h0c.27-.4.06-.09.11-.17l-.1.11-.42.49a.31.31,0,0,1-.14,0c-.06,0-.29.2-.43.28a7.58,7.58,0,0,1-4.76,1.05s-.3,0-.18,0l-.62-.07a11.18,11.18,0,0,0-1.26-.13,15.18,15.18,0,0,0-4.87.38l-.6.18-.08,0-.15.06-.31.1L857,247l-.81.36c-.3.14-.48.24-.62.32l-.49.28c-.36.21-.57.36-.84.53a12.89,12.89,0,0,0-1.77,1.41l-.07.09v0h0c.13-.05-.29.15.28-.12l-.14.09-.54.35c.06,0,.23,0,.06.14a2.07,2.07,0,0,1-.76.57,6.47,6.47,0,0,1-3,.47,16.69,16.69,0,0,1-1.91-.25l-1-.2-1.13-.3a31.54,31.54,0,0,0-5.65-1.19,11,11,0,0,0-3.84.33,8.32,8.32,0,0,0-3.51,2l-.34.32c.21-.18,0,0,.09-.07l0,0,0,.05-.09.09-.34.38a2.45,2.45,0,0,1-.37.44,8.94,8.94,0,0,1-1.18,1,32.87,32.87,0,0,1-6.05,2.94,14.22,14.22,0,0,0-5.22,3.2,4.76,4.76,0,0,0-1.22,3.76,6,6,0,0,0,.18.95c.05.21.07.32.07.32l.06-.32a5.44,5.44,0,0,1,.2-.9,3.66,3.66,0,0,1,1.92-2.34,13.07,13.07,0,0,1,4.9-.79,38.59,38.59,0,0,0,7.66-.77,15.68,15.68,0,0,0,2.39-.81,12.34,12.34,0,0,0,1.34-.69l.48-.27.12-.06.06,0,0,0,.14-.11h.08c.21,0,.26.09.34.19a2,2,0,0,0,.55.37c.63.33,1.7,1,3,1.85l1,.65,1.22.71c.83.46,1.72.89,2.67,1.33a21.57,21.57,0,0,0,6.77,1.89,17.34,17.34,0,0,0,4.23-.13,15.3,15.3,0,0,0,2.48-.65l.62-.18.16,0,.54-.25.49-.22c1.27-.6,2.11-1.1,2.59-1.32l.1,0,.07,0h0l-.12,0,.06,0c-.25.06-.26,0,0,0a.76.76,0,0,1,.18-.08l.07,0c.05,0,.06,0,0,0l-.07,0-.1,0h0l.27,0,1.34,0,.67,0c.56,0,.74,0,1.13-.06a21.56,21.56,0,0,0,14-6.73c.47-.52.84-.94,1.33-1.59l.67-.95.31-.56.08-.14.16-.24,0-.05.06-.12.23-.45.45-.92c.29-.6.48-1.24.71-1.85a17.81,17.81,0,0,0,.73-7.48c-.31-3-1.29-4.86-1.28-4.39a1.51,1.51,0,0,0-.29-.13.64.64,0,0,1-.24.22c-.09.07,0-.07.05-.14l.14-.25.07-.13,0-.06c.21-.25-.26.31-.2.23l0,0,.24-.34c.15-.23.31-.45.44-.68a16.89,16.89,0,0,0,2.24-10.71,17.89,17.89,0,0,0-2.94-7.85,23.26,23.26,0,0,0-3.89-4.5A26.61,26.61,0,0,0,876.61,210Z"/><path fill="FRAME_COLOR" d="M1647.1,859.27H1393.83c-5.37,29-16.18,55.68-31,77.91,11.28-7.36,23.05-14.25,35.92-19.34a138.84,138.84,0,0,1,51.69-10,125.71,125.71,0,0,1,53.61,11.63l9.15,4.41-6.33,7.91c-17.27,21.89-43,38.61-70.61,45.91-17.89,4.68-36.2,5.64-54.09,6.19a139.82,139.82,0,0,1,27.59,3.3l52.24,23.61c12.46,8.12,24,17.21,35,25.74l11,8.6-12.87,5.23c-22.58,9.23-53.48,21.89-84,16.59-18-3.16-33.52-12-48.59-20.51-6-3.37-12.18-6.88-18.31-9.84a156.76,156.76,0,0,0-24.91-9.77,151.17,151.17,0,0,1-2.75,17.89c-3.79,18.79-8.4,36.68-22.92,48.18-8.12,6.54-18.93,10.32-33,11.7a120.12,120.12,0,0,1-49.83-6c.28.83.62,1.65.9,2.48,1.24,1,2.61,1.92,4,3,2.62,1.85,5.09,4.06,7.85,6.12s5.57,4.41,8.26,6.88c1.72,1.45,3.44,3,5.09,4.41.07,0,1,.27,2.68.69s4.06,1,6.88,1.65c5.85,1.38,13.84,3.16,21.82,5.51,2,.55,4,1.16,6,1.78s3.85,1.31,5.71,2.07,3.65,1.44,5.37,2.13c1.51.62,2.89,1.38,4.2,2.07a15.09,15.09,0,0,1,25.53,10.94,15.11,15.11,0,1,1-30.21,0v-.62c-1.17-.41-2.41-1-3.86-1.44s-3.09-1-4.88-1.45-3.44-1-5.37-1.38-3.72-.75-5.64-1.17c-2.62-.48-5.23-1-7.92-1.37,2,1.92,3.86,3.78,5.58,5.71q3.2,3.51,6,6.61c1,1,1.86,2,2.69,3s1.58,1.92,2.27,2.75c.34.41.62.76,1,1.1a9.59,9.59,0,0,1,1.45-.07A15.11,15.11,0,1,1,1261,1175.1a14.63,14.63,0,0,1,2.75-8.67c-.55-.55-1.1-1.17-1.65-1.79-.9-.89-1.79-1.79-2.69-2.75-1.85-1.93-3.92-4-6-6.2s-4.62-4.4-7-6.67-4.89-4.75-7.51-7l-8.05-7c-2.75-2.27-5.5-4.48-8.26-6.68-1.65-1.44-3.37-2.68-5-4a66.51,66.51,0,0,1-.83,22.64c-3.58,15.7-14.17,28.22-27.59,32.83-9,3-17.76,2.34-26.3,1.72a93.31,93.31,0,0,0-13-.41c-3.1.21-6.27.83-9.57,1.38-4.82.82-9.77,1.79-15.21,1.72-19.2-.21-37.85-13.42-46.32-33-4.75-11-6.4-23.88-4.88-37.44-3.51,2.2-7.16,4.2-10.81,6.06-2.2,1.17-4.33,2.2-6.47,3.09a1.19,1.19,0,0,1-.07.49c-1.92,7.64-8,14.1-16.52,17.34,12.46,3.92,24.92,8.53,35.72,16.79,12.94,9.84,23.2,24.78,29.53,43.29,5.57,16,7.78,32.42,9.63,49.21l3.45,29.46-17.9-23.68c-8.12-10.73-21.68-15.76-35.92-21.13-7.92-3-16.11-6-23.75-10.11a97.4,97.4,0,0,1-27.46-22.85c-6.74,3.16-15.76,3.71-26.15,1.3a162.59,162.59,0,0,1-24.85-8c2.62,5.44,5.17,11,7.71,16.45,2.89,6.26,6.4,14.11,7.09,22.64.89,10.67-3.23,20.58-10.74,26-9.36,6.68-23,5.92-36.4-2.06A89.84,89.84,0,0,1,911,1242.82a124,124,0,0,1-15.07-19.2,225.42,225.42,0,0,1-4.61,35.24c-1.72,8-4.13,17.28-9.16,25.12-6.19,9.64-15.35,15.28-24.64,14.94-11.9-.35-22.57-10.05-29.87-27.26a142.88,142.88,0,0,1-9-29.52c-2.48,4.95-5.09,9.84-7.92,14.66-4.54,7.7-9.77,15.69-17.48,21.54-9.43,7.16-21.26,9.36-30.9,5.78a28.7,28.7,0,0,1-11.63-8,35.68,35.68,0,0,1-7.43-13.36c-2.82-9-2.34-18.3-1.52-25.32.55-4.82,1.31-9.64,2.27-14.39a106.91,106.91,0,0,1-28.7,15.21c-15.14,5.1-28.28,3.65-37-4.13a27.48,27.48,0,0,1-7.64-11.83c-.14.75-.21,1.58-.28,2.41-.27,3.3-.62,6.67-.89,9.77-.14,1.58-.28,3.1-.35,4.54s-.2,2.82-.27,4.13-.14,2.48-.21,3.58a15.09,15.09,0,1,1-9.63.62c-.14-1.17-.21-2.55-.28-4.06-.14-1.31-.27-2.62-.34-4.13s-.14-3.1-.21-4.68c-.14-3.24-.27-6.75-.41-10.26-.07-1.79-.07-3.64-.14-5.5l-1.17,1.31-1.51,1.78c-3.86,4.75-7.64,9.43-10.74,14-1.58,2.27-3,4.54-4.27,6.67s-2.2,4.2-3.16,6.13c-.35,1-.76,1.86-1.1,2.75s-.62,1.65-.83,2.48a25,25,0,0,0-1,4.06,15.2,15.2,0,0,0-.35,2.54,8.05,8.05,0,0,0-.07.9l-11.08-.07s0-.41.07-1.24a26,26,0,0,1,.21-3.71,45.18,45.18,0,0,1,1-5.58c.27-1,.62-2.06.89-3.23.42-1.1.83-2.28,1.24-3.45,1-2.4,2.07-4.88,3.38-7.43s2.75-5.16,4.33-7.71c3.17-5.23,6.95-10.46,10.67-15.48l1.38-1.86,1.58-1.93,3-3.64c.07-.21.2-.28.27-.42-5.78,1.52-11.63,2.82-17.41,4.13-3.23.69-6.54,1.45-9.77,2.2-17.62,4.13-32.69,11.5-48.8,23.82l-22.5,17.13,10-26.42A285.85,285.85,0,0,1,580.61,1187c2.54-4.41,5.44-9,8.74-13.63a50.47,50.47,0,0,1-16-3.85,94.79,94.79,0,0,1-19.61,18.17c-12.25,8.67-30.77,17.82-49.83,12.66-7.09-1.93-12.94-5.51-18.65-8.95-5.51-3.3-10.74-6.47-16-7.5-3.37-.69-7.16-.55-11.15-.48a71.55,71.55,0,0,1-12.66-.41c-17.34-2.55-32.55-16.38-37.92-34.62a59,59,0,0,1-2.07-20.1c-25.67-6.26-45.9-27.8-48.72-52.17a99.34,99.34,0,0,1-.42-14.24c.14-6.13.28-12-1.24-17a58.58,58.58,0,0,0-5.43-11.08,75.48,75.48,0,0,1-5.72-11.29,45.78,45.78,0,0,1-3-11.7H330c-5.16,3.17-10.25,6.68-15.55,10.26-10.12,6.88-20.58,14-32.14,19.47-33.31,15.63-74.4,14.94-107.16-1.86l-17.48-8.94,21.95-7c11.5-3.65,22-7,31.52-12l34.41-23.61a211.94,211.94,0,0,1,36.83-18.44c-14.11-.76-28.5-1.86-42.61-5.3-41.84-10.12-78.39-41-95.45-80.45l-7.57-17.69,17.89,6.88c15,5.78,31.59,5,49.07,4.2,10.26-.48,20.79-1,31.25-.14,22.5,1.86,43.29,9.84,58.91,16.59,35.86,15.55,66.14,34.75,90.5,57.4l1.45-.42a149.78,149.78,0,0,1-17-19.34c-11.15-15.07-20-31.66-28.36-47.69-3.71-6.95-7.57-14.18-11.49-21.2-.48-.82-.9-1.58-1.38-2.34H2.83A15.22,15.22,0,0,1,0,851.08a15.6,15.6,0,0,1,2.82-9.36H1647.1a14.72,14.72,0,0,1,0,17.55ZM1432.16,962.09A120.37,120.37,0,0,0,1487,930c-25.39-8.81-55.33-7.91-82.24,2.82-18,7.23-34.41,18.59-50.31,29.6l-10.32,7.09c10.8-1,21.61-1.31,32.27-1.65C1395.06,967.32,1414.27,966.77,1432.16,962.09Zm-98.28,25.12h5c6.88-1,13.9-1.92,21.06-2.54A227.52,227.52,0,0,0,1333.88,987.21Zm-15.28,22.58a179.72,179.72,0,0,1,32.76,12.32c6.54,3.16,12.94,6.81,19.07,10.32,14.52,8.19,28.21,15.9,43.42,18.58,20,3.51,40.2-2.06,62.08-10.39-20.58-15.76-43.36-31.45-69-37.51-26.29-6.12-54.58-2-79.08,2.34l-9.91,1.86Zm-69,79.15c3.24,0,6.4-.14,9.57-.42,10.8-1,18.79-3.71,24.43-8.26,10.19-8.12,13.9-22.91,17.14-38.74,2.82-14,5-28.5-2-38.06-5.16-7.23-15.55-11.36-31.66-12.6a193,193,0,0,0-67.86,6.68c-6.53,1.86-14.45,4.4-21.4,8.67l2.55-.76c.48-.07,1.1-.27,1.65-.41s1.3-.28,2.06-.41c1.45-.35,3-.69,4.61-1s3.31-.55,5-.82,3.51-.48,5.37-.62,3.64-.21,5.5-.35,3.65,0,5.51-.07,3.51.14,5.23.21,3.3.14,4.88.35,3,.41,4.34.55a25,25,0,0,1,3.65.62c1.1.13,2,.34,2.75.48,1.58.34,2.41.48,2.41.48l-2.41.21c-.76.06-1.72.13-2.82.27a26.93,26.93,0,0,0-3.58.48c-1.31.21-2.68.42-4.2.69s-3,.62-4.61,1-3.23.69-4.82,1.24l-5,1.45-4.75,1.86a44,44,0,0,0-4.54,1.86c-1.45.68-2.89,1.23-4.13,1.92s-2.34,1.31-3.44,1.86c-.49.28-1,.55-1.52.83s-1,.62-1.44.89c-1,.55-1.79,1-2.41,1.45a14.18,14.18,0,0,0-1.24.75,9.88,9.88,0,0,1,.21,2.07c.34.07.61.27,1,.34.62.28,1.31.48,2,.83,1.38.48,2.83,1.1,4.41,1.72s3.1,1.37,4.75,2.06,3.3,1.52,5,2.41,3.38,1.65,5,2.62,3.3,1.86,4.88,2.75,3.17,1.93,4.61,2.89,3,1.79,4.2,2.75,2.62,1.79,3.72,2.62c2.34,1.58,4.06,3.1,5.37,4.06,1,.83,1.65,1.38,1.92,1.58-.2-.14-1-.41-2.34-1-1.51-.62-3.51-1.58-6.19-2.48-1.24-.41-2.61-1-4.13-1.44s-3.1-1-4.68-1.52-3.3-1-5-1.44-3.44-.83-5.23-1.31l-5.23-1c-1.72-.42-3.45-.62-5.1-.9s-3.23-.55-4.75-.69-2.89-.27-4.13-.41l-1.85-.21c-.62,0-1.24-.06-1.79-.06s-1.31-.07-1.93-.14a21.09,21.09,0,0,1-4.27,3.51,183.77,183.77,0,0,1,27.33,35.72A106.43,106.43,0,0,0,1249.57,1088.94ZM1131.81,987.63a10.54,10.54,0,0,1,1.11,1.37,19.25,19.25,0,0,1,5.09-6c.69-2,2.06-5.85,3.85-10.81.62-1.86,1.38-3.85,2.07-6s1.79-4.4,2.75-6.74c1.93-4.68,4-9.57,6.06-14.52,2.41-4.75,4.75-9.5,7-14,1.1-2.21,2.06-4.41,3.23-6.34s2.2-3.85,3.24-5.57c3.44-5.92,5.92-10.19,6.47-11.15-.35,1-1.93,5.64-4.2,12.18-.62,1.86-1.31,3.86-2,6s-1.31,4.47-2,6.81c-1.31,4.68-2.69,9.71-4.06,14.66-1,5-2.14,10.12-3.1,14.8-.48,2.41-1,4.54-1.38,6.81s-.62,4.34-.89,6.33c-.14,1.11-.35,2.21-.48,3.24a21.4,21.4,0,0,1,4.06,1.1c.34.14.68.34,1,.48.48-.55,1-1.24,1.51-1.86.9-1.17,1.86-2.34,2.83-3.64s2.34-2.69,3.57-4.06c2.55-2.83,5.17-5.79,7.92-8.75,2.82-2.61,5.64-5.36,8.33-7.84a42.88,42.88,0,0,1,3.92-3.51c1.31-1,2.48-2.07,3.65-3,4.2-3.37,7.09-5.71,7.5-6-.28.35-2.48,3.37-5.64,7.71-.83,1.17-1.79,2.41-2.76,3.72s-1.79,2.89-2.75,4.33c-1.86,3-3.85,6.27-5.85,9.43-1.65,3.3-3.37,6.61-5,9.71-.75,1.58-1.58,3-2.2,4.47s-1.24,3-1.79,4.27c-1.17,2.68-2.06,4.95-2.75,6.53a105.08,105.08,0,0,1,24.71-9.91,208.3,208.3,0,0,1,41.5-7.29c1.86-2.14,3.58-4.2,5.3-6.4,10.66-13.49,16-25.6,16.45-37s-6.13-25.26-17.28-28a43,43,0,0,0-7.29-1c-5.17-.42-11-.83-16.66-4-5.09-2.95-8.53-7.29-11.56-11.14-2.07-2.55-4-5-6.06-6.54-6-4.34-15.41-1.59-19.2-.21-27.39,10.12-41.91,39.71-46.32,64.07C1131.13,958.65,1130.85,973.17,1131.81,987.63Zm-2.27,17.2c-3,2.34-4.81,5.72-6.67,8.95-1.38,2.41-2.82,5-2.82,7.78a8.79,8.79,0,0,0,6.26,8.53c2.55.69,5.64.35,7.36,2.27,1,1.17,1.24,2.82,2.21,4,1.37,1.79,3.85,2.21,6.12,2.07a18.38,18.38,0,0,0,13-7.3,23.74,23.74,0,0,0,4.61-14.38,16.31,16.31,0,0,0-2.13-8.6c-2.62-4.06-7.64-6.06-12.46-6.68C1139.66,1000.7,1133.81,1001.46,1129.54,1004.83Zm45.63,3a6.34,6.34,0,0,1,.76.62l-.34-.89A2.76,2.76,0,0,0,1175.17,1007.86Zm-81.55,137c5.85,13.56,18.86,23.06,31.66,23.19h.27a75.65,75.65,0,0,0,11.84-1.44,83.78,83.78,0,0,1,11.36-1.58,102.39,102.39,0,0,1,15.34.34c7.23.62,14,1.1,19.82-.9,8.06-2.68,14.73-11,17-21.06,2.07-8.94,1.17-19.33-2.68-31.79-6.4-20.37-18.79-40.54-35.86-58.43a8.74,8.74,0,0,0,.48,1.1c.49,1.1,1,2.41,1.59,3.71s1,2.76,1.51,4.2,1,2.82,1.31,4.34.76,3.1,1.1,4.61.55,3.1.83,4.61.34,3,.48,4.48.27,2.82.27,4.12V1088a22.16,22.16,0,0,1-.07,3.1c-.06,1-.13,1.72-.2,2.41a19.68,19.68,0,0,0-.14,2s-.21-.69-.55-1.92c-.21-.69-.34-1.45-.62-2.28a24.12,24.12,0,0,0-.89-2.95c-.42-1-.76-2.14-1.24-3.31a27.42,27.42,0,0,0-1.52-3.58,31.42,31.42,0,0,0-1.86-3.78c-.68-1.24-1.37-2.48-2-3.72-.83-1.17-1.58-2.41-2.34-3.51a30.87,30.87,0,0,0-2.41-3.3c-.83-1-1.51-2.07-2.34-2.89s-1.45-1.59-2.13-2.27a17,17,0,0,1-9.85,3.09v.07c-.55,1-1.1,2.14-1.65,3.24s-1.17,2.54-1.79,3.85-1.24,2.75-1.79,4.2-1.1,3-1.65,4.4-1,3-1.51,4.55-.9,3-1.24,4.4-.83,2.89-1.17,4.2-.55,2.68-.83,3.85c-.55,2.41-.75,4.41-1,5.78s-.34,2.21-.34,2.21-.14-.76-.35-2.21a55.77,55.77,0,0,1-.75-5.92c-.14-1.23-.28-2.54-.42-4s-.13-2.89-.27-4.47-.14-3.17-.07-4.82v-5c.07-1.65.21-3.37.34-5a37.19,37.19,0,0,1,.42-4.88,45.38,45.38,0,0,1,.55-4.61c.2-1.52.41-2.89.62-4.2a.87.87,0,0,0,.06-.42,22,22,0,0,1-2.27-2.13,154.33,154.33,0,0,1-33.1,40.95c-.14.55-.34,1-.48,1.58C1088.11,1116.88,1088.32,1132.5,1093.62,1144.82ZM976.55,991.89a232.89,232.89,0,0,1-29.32,35c9.7-.9,19.13-1.31,28.36-1.31,8.19,0,16.17.34,24,1a193.32,193.32,0,0,0,19.68-12.46c6.19-4.54,13-10,16.31-16.93,2.41-5,2.82-12.59-1.24-16.65-4.47-4.48-13.21-4.61-26.77-.28C996.37,984,986.05,987.77,976.55,991.89Zm19.82-24.84-2.13-3.37c-1,1.65-1.93,3.37-3,5.09C993,968.22,994.65,967.6,996.37,967.05Zm-97-42.6c-.76,2.68-1.65,5.5-2.55,8.53s-1.65,6.26-2.54,9.57c-1.66,6.6-3.45,13.76-5.23,20.85-1.45,7.09-2.83,14.18-4.13,20.92-.28,1.1-.49,2.21-.69,3.31,1.72-2.82,3.44-5.58,5.23-8.4,8.74-13.9,19.2-29.8,32.48-43.22,1.79-1.86,3.72-3.58,5.58-5.3,4.06-16.72,5.09-32.21,1.24-48.52-1.79-7.64-4.27-12.11-7.44-13.28s-8.12,1-11.49,3.58c-11.7,8.67-18.38,23.19-24.16,37.37-1.72,4.13-3.44,8.46-5.09,12.87-.07,9.63-.55,19.2-1,28.63-.14,2.2-.21,4.61-.35,7.22-.13,3.44-.34,6.75-.48,9.91.83-2.47,1.72-5,2.62-7.43,2.75-6.88,5.5-13.69,8.12-20.16,1.31-3.17,2.41-6.34,3.78-9.23s2.62-5.57,3.79-8.12c4.34-9.36,7.29-15.83,7.71-16.58C904.42,907.79,902.36,914.54,899.33,924.45Zm3.78,63.45c-7.08,11.22-14,22.71-20.64,34.21-.07,0-.07,0-.07.07a13.5,13.5,0,0,1,3.1.41c.13-.21.2-.41.34-.62.41-.83.9-1.79,1.38-2.68s1-1.93,1.65-3c1.17-2.07,2.48-4.34,3.78-6.68s3-4.68,4.48-7.16,3.16-5,5-7.5,3.58-5,5.44-7.5,3.85-4.82,5.71-7.16,3.92-4.61,5.85-6.81,3.65-4.27,5.58-6.13,3.57-3.64,5.23-5.3c.75-.75,1.58-1.58,2.27-2.34s1.51-1.3,2.2-1.92c1.44-1.31,2.61-2.41,3.58-3.31,1.72-1.51,2.82-2.47,3-2.75-.14.28-1,1.38-2.55,3.24-.76,1.1-1.79,2.33-3,3.78-.55.76-1.1,1.51-1.79,2.34s-1.24,1.72-1.86,2.62c-1.31,1.92-2.75,3.85-4.26,6s-2.83,4.41-4.41,6.82-3.1,4.81-4.47,7.43-2.89,5.16-4.34,7.78-2.61,5.36-3.92,8-2.48,5.3-3.58,7.84-2.2,5-3,7.37-1.72,4.61-2.48,6.61c-.34,1-.68,2-1.1,3-.27,1-.55,1.93-.82,2.83s-.62,1.92-.9,2.75l61.46-56-43.15,56.64c29.94-20.44,50.93-53.07,66.21-80.39,3.3-5.85,6-11.08,6.67-16.31.55-4.54-1-9-3.64-10.67q-3.72-2.37-12.19-.41c-14,3.23-28,11.63-40.6,24.29C921.22,959.62,911.37,974.76,903.11,987.9Zm4.68,77.91c.07.14.07.28.14.41H908Zm65.87-7.16c-1.72.42-3.51.9-5.44,1.38s-3.92.76-6.05,1.17c-4.27.76-8.81,1.58-13.29,2.41-4.61.62-9.22,1.24-13.49,1.86-2.2.2-4.33.55-6.26.75l-5.51.42a9.07,9.07,0,0,1-1.37.13,5.31,5.31,0,0,1-.14,1.52c-.14.55-.21,1.1-.34,1.65.82.07,1.65.07,2.47.07,1.66.14,3.38.14,5.23.21s3.79.2,5.85.34c4.06.28,8.4.62,12.81.89,4.26.56,8.53,1.11,12.52,1.59,2.07.2,4,.41,5.78.75s3.58.62,5.16.83c6.34,1.1,10.53,1.79,10.53,1.79s-4.26.34-10.66.76c-1.59.07-3.31.27-5.17.34s-3.71.41-5.71.62c-3.92.48-8.12,1-12.32,1.45-4.13.68-8.26,1.37-12.11,2-2,.35-3.79.62-5.58,1s-3.51.69-5,1a213.94,213.94,0,0,0,24.57,2.82c20,1.24,36.48,2.06,53.06-.21,13-1.79,31.32-6.4,44.74-18.51,1.1-1,2.68-5.23,1.72-9.43-.76-3.65-3.1-6-7-7.16-32.76-10.05-70.82-12-112.87-5.92-2.27.35-4.61.69-7,1.17-2.89,1.86-5.85,3.65-8.95,5.3,1.79.21,5.37.69,10.12,1.31,1.65.27,3.51.48,5.44.76s3.92.41,6,.62c4.2.34,8.67.75,13.08,1.17,4.54.2,9,.41,13.28.55,2.07.07,4.2.2,6.06.13s3.85-.06,5.5-.06c6.89-.14,11.36-.21,11.36-.21S980.27,1057,973.66,1058.65Zm32.48-107a71.42,71.42,0,0,0,6.54,10.6A52.83,52.83,0,0,1,1024,961c7.57,0,15.62,1.93,21.88,8.19,5,5,7.58,12.05,7.71,19.48,14.32.69,28.77,2.89,42.88,5.37,2.06.34,4.2.75,6.33,1.17a.07.07,0,0,0,.07-.07c-.41-.28-.89-.62-1.38-.9s-1.17-.82-1.79-1.3c-1.23-.9-2.61-1.93-4.06-3s-2.82-2.2-4.33-3.31-3-2.4-4.54-3.71-3-2.62-4.48-4l-4.33-4.13c-1.38-1.31-2.76-2.69-4.06-4.06s-2.55-2.62-3.65-3.93-2.14-2.48-3.17-3.58c-1.92-2.2-3.37-4.19-4.47-5.5a20.77,20.77,0,0,1-1.45-1.93c.35.28,1,.76,1.93,1.45,1.38,1,3.23,2.47,5.71,4.13,1.17.75,2.55,1.65,3.93,2.61s2.89,1.79,4.4,2.75,3.1,1.93,4.82,2.83,3.3,1.85,5,2.75,3.44,1.72,5.09,2.55,3.38,1.58,5,2.27,3.17,1.51,4.68,2,2.89,1.17,4.2,1.58c.62.28,1.24.56,1.79.76a4.45,4.45,0,0,1,1,.35c-.28-1.31-.55-2.83-.83-4.48s-.62-3.37-1-5.16a54.07,54.07,0,0,0-1.31-5.64c-1-3.93-2-8.05-3-12.25-1.3-4.13-2.61-8.26-3.85-12.12-.62-1.92-1.1-3.85-1.79-5.57s-1.31-3.44-1.93-5c-2.2-5.71-3.71-9.7-3.85-10.18.28.41,2.62,3.92,6.13,9.08,1,1.38,1.92,2.82,3,4.41s2,3.3,3.1,5.09c2.13,3.58,4.41,7.36,6.68,11.22,1.86,3.58,3.65,7.16,5.43,10.53a155.7,155.7,0,0,1,2.27-20.24c.28-1.58.62-3.16,1-4.74a153.5,153.5,0,0,0-6.47-19.27c-4.2-10.26-8.33-17.21-13.49-22.51-5.92-6.19-13.28-9.77-20.23-9.84-8.54-.14-17.69,4.75-28.08,14.86-2.07,2-4.13,4.06-6.27,6.34-7.36,7.5-14.86,15.27-24.84,20.5-1.65.9-3.37,1.73-5.1,2.48-3.16,1.52-6.19,3-8.25,4.68a20.73,20.73,0,0,1-.21,2.07,39.48,39.48,0,0,1-2.2,9.15A32.38,32.38,0,0,0,1006.14,951.63Zm48,154.65c.49-.28,1-.55,1.66-.83a136.48,136.48,0,0,0,54-50.31c-2.41,1.24-5,2.62-7.5,3.93-3,1.23-5.92,2.47-8.67,3.64-1.38.55-2.68,1.17-4,1.59l-3.65,1.17c-3.92,1.24-6.74,2.13-7.36,2.34.55-.42,2.89-2.14,6.19-4.55.89-.68,1.93-1.44,3-2.27s2.06-1.79,3.16-2.68c2.14-1.93,4.48-3.92,6.75-6s4.13-4.27,6.06-6.26c.13-.14.2-.14.2-.21a20.22,20.22,0,0,1-5.71-7.29,19.78,19.78,0,0,1-1.86-8.88l-2.55-1c-1-.41-2.27-.75-3.51-1.1a33.37,33.37,0,0,0-3.92-1.1c-1.37-.34-2.75-.69-4.06-1s-2.82-.48-4.2-.69-2.82-.41-4.13-.55-2.68-.34-3.85-.34-2.48-.14-3.58-.14c-2.2-.14-4,0-5.3,0s-2,.07-2,.07l1.86-.76c1.24-.41,3-1.17,5.1-1.79,1-.41,2.27-.76,3.44-1.1s2.61-.69,4-1a38.17,38.17,0,0,1,4.27-1l4.54-.82c1.51-.14,3-.28,4.54-.48s3-.28,4.48-.35,2.89-.2,4.33-.14,2.68.07,3.85.07H1101a21.52,21.52,0,0,1,4.2-4.06c0-.07,0-.07-.07-.07a102.7,102.7,0,0,0-11.42-2.41c-14.94-2.68-29.67-4.88-43.71-5.29-5,9.91-13.49,17-21.19,22.57-1.31,1-2.69,1.93-4.06,2.82,7.77,1.52,15.27,3.37,22.64,5.58,9.43,2.89,16,9.84,18.1,19.13s-.69,19.54-6.74,24.91a80.3,80.3,0,0,1-19.14,12.67,42.15,42.15,0,0,1,9.09,6.6A32.45,32.45,0,0,1,1054.11,1106.28Zm-13.28,13.21c.62-2.61-.76-6.26-3.51-8.94-3.37-3.38-8.4-5.58-13.21-7.57-2.34-1-4.68-1.93-7-2.83-3.79.9-7.71,1.59-11.7,2.14-15.35,2.13-31.18,1.72-45.22,1a197.63,197.63,0,0,1,30.56,24c6.47.28,12.87.41,19.13.41,3.23,0,6.47,0,9.64-.06,5.71-.07,10.46-.28,14.52-1.79C1037.53,1124.45,1040.21,1122,1040.83,1119.49Zm-23,39.92c7.78,11.7,10,21.89,6.68,30.42a78.9,78.9,0,0,0,24,20.51c6.61,3.65,13.9,6.33,21.61,9.22,8.81,3.31,17.76,6.68,25.88,11.5a143.43,143.43,0,0,0-6.06-24.92c-5.3-15.48-13.63-27.87-24-35.72-10.6-8.05-23.74-12.11-37.71-16.38-6.27-1.86-12.6-3.85-18.79-6.19C1012.41,1151.56,1015.16,1155.42,1017.84,1159.41Zm-27,27.81a37.5,37.5,0,0,0,8.74,1.1c4.2,0,8-1,9.49-3.51,2.55-4.34-1.85-12.19-4.68-16.45a180.3,180.3,0,0,0-93-70.41c-.27.14-.55.28-.75.41s-.14.07-.21.14c1.45,1,3,2.2,4.82,3.58,1.51,1.17,3.09,2.34,4.81,3.65s3.51,2.68,5.3,4.2c3.72,3,7.64,6,11.57,9.22,3.71,3.23,7.5,6.47,11.08,9.5,1.79,1.51,3.51,3,5.09,4.4s3.1,2.82,4.41,4.06c5.16,4.68,8.74,7.92,9.15,8.33l-10.6-6.33c-1.58-.9-3.37-1.93-5.16-3S947,1134,945,1132.84l-12.67-7c-4.33-2.21-8.74-4.48-12.8-6.54-2.06-1-4-2.07-5.92-3s-3.78-1.72-5.43-2.55c-.14-.07-.21-.07-.28-.14l-.07.07c1.17,1.24,2.62,2.62,4.06,4.13s3.17,3.1,4.82,4.82,3.58,3.3,5.51,5c3.78,3.44,7.91,7.16,12,10.88,4.34,3.51,8.6,7,12.73,10.25,2.07,1.65,3.93,3.37,5.92,4.68s3.86,2.75,5.51,4c5.92,4.27,10.18,7.3,11.15,8.06-1.1-.49-5.78-2.76-12.46-5.92-1.86-.9-4-1.86-6.19-2.89s-4.34-2.34-6.75-3.58c-4.68-2.55-9.63-5.3-14.59-8-4.88-3-9.7-6.05-14.31-8.81-2.28-1.44-4.61-2.82-6.54-4.19s-3.86-2.69-5.58-3.86c-3.51-2.47-6.4-4.47-8.46-5.85v2C925.21,1158.45,957.49,1179.65,990.8,1187.22ZM890,1177.44c12.53,27.46,25.6,53.2,48.25,66.62,3.85,2.28,8.94,4.27,13.28,4.27a9,9,0,0,0,5.43-1.51c2.89-2,4.48-6.54,4.07-11.43-.49-5.71-3.1-11.56-5.72-17.2-5.57-12.25-11.28-24.37-17.48-35.79-17.41-10.67-34.41-24.85-50.72-42.4a13.84,13.84,0,0,0,.62,1.65c.27.9.62,1.72,1,2.62.76,1.86,1.52,3.85,2.34,5.92s1.86,4.27,2.82,6.54,2,4.68,3.24,7,2.27,4.75,3.51,7.15,2.48,4.75,3.71,7.09,2.55,4.48,3.86,6.68,2.48,4.33,3.78,6.26,2.41,3.79,3.51,5.51,2.14,3.23,3.1,4.54,1.72,2.55,2.41,3.51c1,1.51,1.72,2.55,2,2.89-.35-.27-1.24-1.17-2.55-2.41-.83-.82-1.86-1.86-3-3s-2.55-2.48-3.92-4-2.89-3.1-4.54-4.82-3.17-3.58-4.89-5.5-3.44-3.93-5.16-6.06-3.44-4.2-5.16-6.4-3.24-4.4-4.89-6.54-3.17-4.4-4.61-6.54c-.76-1.1-1.52-2.13-2.2-3.16C884.46,1165.4,887.28,1171.59,890,1177.44Zm-9.7-62.7v-.13l.41-.76.07-.14.13-.2c.42-.62.83-1.17,1.24-1.73a14.47,14.47,0,0,1,1.38-1.44c.48-.48,1-.76,1.51-1.17a19.34,19.34,0,0,1,5.1-2.41l3.44-1c.27-.07.48-.14.69-.21-.07-.41-.14-.82-.28-1.44a42.42,42.42,0,0,1-.55-4.61,12,12,0,0,1,.07-1.59,8.29,8.29,0,0,1,.21-1.79,9.16,9.16,0,0,1,.27-1.3l.21-.62.2-.42.14-.41.07-.21.07-.07.27-.68.07-.07a14.72,14.72,0,0,1,4.82-5.16,41,41,0,0,1,3.72-2.14,2.9,2.9,0,0,0,.62-.27c-.14-.42-.28-.83-.48-1.31a21.73,21.73,0,0,1-1.66-4.89,14.08,14.08,0,0,1-.06-4.2c.06-.34.27-1,.41-1.58a9.8,9.8,0,0,1,.69-1.58.61.61,0,0,0,.06-.21l.07-.13.07-.14.21-.42a5.23,5.23,0,0,1,.48-.68l.14-.14.2-.28.35-.41a4.64,4.64,0,0,1,.83-.83c.41-.41.82-.75,1.23-1.1l1-.69V1066c.13,0,0-.07.07-.14s0-.07.06-.14l-.13-.07-.07-.07-.28-.27c-.07-.07-.34-.21-.55-.35l-.55-.41c-.48-.41-1-.69-1.58-1.24a4.26,4.26,0,0,1-1-.75l-1.11-1a17,17,0,0,1-1.37-1.51c-.21-.35-.42-.69-.62-1l-.28-.49-.13-.2-.35-.76s-.41-.83-.41-.9l-.07-.13-.14-.48-.2-1a7.51,7.51,0,0,1-.35-1.72,10.93,10.93,0,0,1-.07-1.44c0-1,.07-1.59.07-2.28v-.68a9.72,9.72,0,0,0-1.17-.28l-3.3-.76a19.91,19.91,0,0,1-4.48-1.3l-1.37-.55c-.42-.28-.9-.55-1.31-.83a14.34,14.34,0,0,1-3.1-2.75l-.48-.76-.07-.07h-.07a4.15,4.15,0,0,0-.41-.62v-.07l-.27-.41-.35-.83a8.92,8.92,0,0,1-.62-1.44c-.14-.55-.27-.9-.34-1.31l-.35-1.38c-.75,0-1.72,0-2.89.07a20.48,20.48,0,0,1-5.71-.75l-.41-.14-.62-.28-.35-.13a11.56,11.56,0,0,1-1.58-.9l-.76-.41-.62-.48c-.34-.35-.75-.69-1.1-1a14.62,14.62,0,0,1-1.72-2c-.48-.62-.82-1.1-1.24-1.72l-1-1.38-.41-.48-.21-.41h-.07v-.14l-.2-.21-.62-.48c-.07-.07-.21-.07-.49-.14a13.92,13.92,0,0,0-4.26.83,74.8,74.8,0,0,1-7.23,2.13,16.24,16.24,0,0,1-2.48.35l-.89.07-.48.06h-1a24.13,24.13,0,0,1-4.68-.48c-2.82-.62-5.09-1.44-7.15-2.06a17.14,17.14,0,0,0-4.89-1c-.28,0-.48.06-.69.06h-.07v-.06l-.14.06-.68.28-.14.14a2.23,2.23,0,0,1-.62.41l-2.55,2.41a24.24,24.24,0,0,1-3.09,2.55l-.21.13-.28.21a24.26,24.26,0,0,1-8.87,2.48l-1.52.2-.69.07a13,13,0,0,1-1.24.28v-.07l-.34.21-.62.41a1.05,1.05,0,0,0-.21.27,8.45,8.45,0,0,0-1,1.93c-.48.83-1,1.93-1.58,3.24a19.92,19.92,0,0,1-3.1,4.33l-.62.55-.34.28-.41.34c-.35.21-.62.41-1,.62l-.48.28-.21.13-.34.21-.28.07-.62.27-.06.07h-.07c-.41.14-1,.28-1.38.42-.14.06-.14.06-.21.06a9.66,9.66,0,0,0-.06,1.38l-.14,1.45c-.07.41-.07.62-.14.89l-.07.21v.07l-.07.48v.14l-.27.75a10.87,10.87,0,0,1-.55,1.52,16.24,16.24,0,0,1-3.31,4.75,60.88,60.88,0,0,1-6,4.75,6.74,6.74,0,0,0-1,.82l-.41.41-.27.35a5.62,5.62,0,0,0-.83,1.17,7.88,7.88,0,0,0-.76,3.58,2.68,2.68,0,0,1,0,.75v.21l.07.41.14.83v.21l.07.06v.14l.2.55.28,1.1c.21.76.69,1.59,1,2.34s.83,1.52,1.24,2.34c.21.28.55.83.83,1.31l1.79,2.69,1.1,1.65a29,29,0,0,1,2.13,4.2l.41,1.3a9,9,0,0,1,.35,1.45,14.34,14.34,0,0,1,.21,4l-.07.55v.21l-.07.48-.07.34-.07.28-.21.82-.07.21a13.29,13.29,0,0,1-.82,1.93,38.3,38.3,0,0,1,5.57,3.09,9.26,9.26,0,0,0,1.24.9c.48.55,1,1,1.45,1.51l.62.76.07.07.41.62.21.27.41.83c.27.48.55,1.1.75,1.51l.62,2,.14.41.14.76.21.83.13.41v.14a1.58,1.58,0,0,1,.35.68,5.61,5.61,0,0,0,.89,1.38,10.07,10.07,0,0,0,3,2.48,4.93,4.93,0,0,0,.69.34l.14.07a.51.51,0,0,0,.34.14l.83.34.41.14h.07l.48.14,1.17.21a8.23,8.23,0,0,0,1.17.27l1.31.14c.89,0,1.72.14,2.61.07l1.31-.07a5.37,5.37,0,0,0,1.45-.07l3.37-.34,1.65-.21a17.94,17.94,0,0,1,2-.14,35.45,35.45,0,0,1,4.68.07,17.56,17.56,0,0,1,5.71,1.65,11.19,11.19,0,0,1,3.16,2.07,9.4,9.4,0,0,1,1.59,1.72,24.79,24.79,0,0,1,3-1.31c.55-.14,1-.28,1.58-.41a15.3,15.3,0,0,1,2-.28h1.51l.76.07a3.77,3.77,0,0,1,.55.07l.41.07.28.07h.06l.83.2.21.07a14.79,14.79,0,0,1,6.12,4.34l1.1,1.31a6,6,0,0,1,.48.41,1.23,1.23,0,0,0,.49.34,2.58,2.58,0,0,0,.62.35,7.08,7.08,0,0,0,3.09.68c2.34,0,4.48-1.1,5.23-2.27l1.86-2.68,3.86-.48a14.71,14.71,0,0,0,4.47-1,5.19,5.19,0,0,0,1.24-.68v-3a8.18,8.18,0,0,1,.07-1.24l.07-1.45c.07-.2.13-.69.2-1s.21-.83.28-1.24a8.47,8.47,0,0,1,.41-1l.28-.83ZM808.76,921.49c0-2.69.07-5.23.14-7.85C797.4,892.93,784.88,872,782,869c-3.65-3.51-9.43-6.4-14.18-4.89-3.31,1-6.4,4.4-8,8.74-1.86,5.09-2,11.15-1.79,16.31.89,29.94,11.08,62.42,31.24,99.38,5.3,9.77,11.29,19.41,18.86,26.29-.76-1.86-1.58-3.85-2.55-6-1-2.41-2-5-3.16-7.78-.55-1.31-1.1-2.82-1.65-4.34s-1-3-1.59-4.61c-2.13-6.26-4.4-12.94-6.67-19.54-1.86-6.75-3.72-13.49-5.44-19.83-.48-1.58-.9-3.09-1.31-4.61s-.82-3-1.1-4.47c-.62-2.89-1.17-5.64-1.72-8.26-2-9.5-3.37-16-3.51-16.86.28.76,2.55,7,5.92,16.17.89,2.41,1.86,5,2.89,7.85.48,1.38,1.1,2.75,1.72,4.2s1.24,2.89,1.93,4.33c2.61,5.92,5.37,12.19,8.12,18.52,3.16,6.05,6.26,12.11,9.22,17.75.76,1.45,1.45,2.82,2.13,4.2s1.24,2.41,1.93,3.58C808.76,971.66,808.48,946.82,808.76,921.49ZM526,871.11a45.73,45.73,0,0,0-30.42,4.47,94.34,94.34,0,0,0-10.87,7.09c-1.38,1-2.76,2-4.13,3,4.26-.82,8.53-1.86,13-2.89,7.85-1.86,15.9-3.78,24.3-4.61a78.5,78.5,0,0,1,8.4-.41,67.82,67.82,0,0,1,16.17,1.85C538.63,875.51,532.77,872.49,526,871.11Zm-36.89,86.3a10.88,10.88,0,1,1,20.79,6.4,10.57,10.57,0,0,1-3.44,5.23c.2.35.41.76.61,1.17.55,1,1.11,2.21,1.72,3.38a32,32,0,0,1,1.79,3.78c.56,1.24,1.17,2.41,1.59,3.65a280.37,280.37,0,0,1,16.52-60.29c3.23-8.12,7.22-16.86,13.14-24.43-7.5-2.69-15.9-2.75-22.3-2.07-7.36.76-14.59,2.48-22.23,4.27-4.61,1-9.43,2.2-14.25,3.1-13.14,2.48-29.66.82-42.6-4.13-5.57.34-10.73.89-15,3-11.22,5.44-15.21,20.65-13.35,32.83a56.31,56.31,0,0,0,4.26,14.31c14.46,1.58,29.39,6.75,44.6,15.42,15.42,8.74,29.11,19.89,42.33,30.69.14.07.27.21.41.28-.07-.28-.07-.55-.14-.83-.2-1.44-.34-2.82-.55-4.26s-.55-2.83-.75-4.2-.62-2.76-.9-4.06-.62-2.62-1-3.79-.69-2.34-1-3.37c-.21-.69-.42-1.31-.62-1.93a10.92,10.92,0,0,1-9.71-14.11Zm37.3,39.78a25.53,25.53,0,0,1,5.51,1.17c.89.28,1.72.55,2.55.9.2-.48.55-1,.82-1.52a18.19,18.19,0,0,1,.83-1.65c.41-.55.75-1.1,1.17-1.72,1.44-2.34,3-4.82,4.61-7.29.82-1.24,1.72-2.34,2.55-3.51s1.72-2.21,2.54-3.31,1.58-2.06,2.27-3a3.43,3.43,0,0,1,.42-.48,10.89,10.89,0,0,1,12.87-15.48,10.92,10.92,0,0,1,7.22,13.63,11,11,0,0,1-12,7.57c-.07.13-.14.2-.21.34-.48,1-1,2.13-1.58,3.23s-1.17,2.28-1.72,3.45a27.7,27.7,0,0,0-1.72,3.57c-1,2.41-2,4.75-2.89,7-.21.55-.49,1.1-.69,1.65s-.35,1.17-.55,1.72c-.42,1.17-.69,2.2-1,3.16-.21.62-.35,1.17-.56,1.66a32.65,32.65,0,0,1,5.58,9.29h.83c1.17.07,2.4.13,3.78.13s2.55-.06,3.92-.06,2.76-.07,4.2-.14,2.89-.07,4.41-.21l8.81-1c1.37-.21,2.75-.28,4.06-.55s2.4-.48,3.51-.69a7.68,7.68,0,0,1,.41-1.72,10.88,10.88,0,1,1,7.16,13.63,10.08,10.08,0,0,1-4.75-3c-.14,0-.21.07-.35.07-1.1.48-2.34.89-3.58,1.37s-2.75.83-4.12,1.24c-3,.83-6.06,1.72-9.16,2.69-1.58.34-3.23.62-4.82,1-.75.14-1.51.34-2.27.48A269.51,269.51,0,0,0,612.75,1041a28.67,28.67,0,0,1,2.06-6.19c6.27-12.66,20.72-16.86,31-18.93a12.3,12.3,0,0,1,1.45-.27,194.46,194.46,0,0,1-17.9-21.82c-6.33-9-9.56-17.48-9.56-25a23.29,23.29,0,0,1,4.4-13.77c6.2-8.39,16.18-10.18,23.88-10.18,1.79,0,3.44.14,4.82.2a37.11,37.11,0,0,1-5.92-8.87c-2.13-4.62-2.82-9.36-3.51-13.56a63.33,63.33,0,0,0-1.44-7.09c-2.48-8.4-9.84-15.83-19.76-19.89-8.53-3.51-18.72-4.82-32.07-3.92-13.62.82-23.12,3.58-29.87,8.81-8,6.19-12.73,16.24-16.58,26.08A266.68,266.68,0,0,0,526.44,997.19Zm174.33,126.23c1.17-.14,2.62-.35,4.27-.62.83-.07,1.72-.21,2.69-.35s1.85-.41,2.82-.55c2.06-.48,4.19-.89,6.53-1.37s4.68-1.11,7.16-1.73,5-1.23,7.57-2.13,5.1-1.65,7.64-2.41c2.55-1,5.09-1.92,7.57-2.89,2.48-.82,4.89-2,7.16-3,1-.48,2.07-1,3-1.37-2.27.27-4.54.55-7,.68s-5,.35-7.5.55l-7.51.21c-2.47.14-4.88.07-7.22.07s-4.61,0-6.82-.14-4.13-.2-6-.27c-3.72-.14-6.82-.55-9-.69s-3.37-.35-3.37-.35l3.37-.34c2.13-.34,5.23-.55,8.88-1.17,1.86-.27,3.85-.55,5.92-.89s4.26-.83,6.47-1.24,4.61-.9,6.95-1.52l7.09-1.65c2.34-.69,4.68-1.38,7-2s4.54-1.38,6.74-2.14l.83-.2c-33,5.16-61.6,4.74-86.31-1.45-9.29,3.72-18.3,7.78-27.11,12.25-5.1,2.55-10.19,5.51-13.9,9.64s-5.23,9.08-4.07,12.94c1.24,4.26,5.79,7.63,9.43,9.63,9.43,5.37,21.41,8,36.62,8.19h1.51c30.63,0,65.66-11.84,93.88-30.49a4,4,0,0,1-1,.35c-2.4.75-4.88,1.17-7.43,1.85s-5.23,1.31-8,1.72-5.51,1-8.26,1.52l-8.33,1c-2.75.41-5.44.55-8,.69s-5.09.48-7.5.48-4.68.07-6.75.07h-3c-1,0-1.86-.07-2.75-.07-1.65-.07-3.1-.14-4.34-.21-2.41-.06-3.78-.13-3.78-.13S698.36,1123.76,700.77,1123.42Zm12.46-40.06a260.51,260.51,0,0,0,42.19-3.72c3.17-.48,6.33-1.1,9.43-1.79a16.48,16.48,0,0,0-1.72-.06c-.9-.07-1.86-.14-2.82-.14s-2-.21-3.17-.28c-2.2-.27-4.61-.48-7.16-.75s-5.09-.69-7.84-1.1-5.44-.76-8.26-1.31-5.65-1.17-8.47-1.79-5.64-1.38-8.39-2.07-5.51-1.51-8.06-2.27-5.09-1.51-7.36-2.34-4.54-1.65-6.54-2.34c-1-.34-2-.75-3-1s-1.72-.76-2.54-1.1c-1.59-.69-3-1.24-4.13-1.72-1.72-.69-2.9-1.17-3.38-1.45.48.07,1.72.35,3.58.76,1.24.28,2.69.62,4.41,1,.82.21,1.72.42,2.68.62s1.93.35,3,.48c2.13.42,4.41.76,6.75,1.17s5,.62,7.57,1,5.36.69,8.12.82,5.5.35,8.33.55l8.32.21c2.75.07,5.44-.07,8.05-.14s5.17-.07,7.51-.27,4.54-.41,6.6-.55c1-.07,1.93-.21,2.89-.28s1.86-.2,2.76-.27c1.58-.21,3-.42,4.13-.55a11.73,11.73,0,0,1-1.24-.69c-.83-.35-1.72-.76-2.62-1.17-1.79-.83-3.71-1.72-5.85-2.76s-4.33-1.85-6.67-2.82-4.75-2-7.3-2.89-5.09-1.86-7.64-2.75-5.23-1.65-7.78-2.48-5.09-1.51-7.57-2.2-4.88-1.38-7.22-1.86-4.48-1-6.47-1.51-3.86-.83-5.58-1.1-3.09-.55-4.26-.83c-2.34-.41-3.72-.62-3.72-.62h3.79c1.23,0,2.68-.07,4.4-.07s3.58,0,5.64.14,4.41.14,6.75.27,5,.35,7.5.56,5.37.34,8,.75l8.33,1,8.33,1.44c2.75.34,5.37,1,8,1.58s5.09,1,7.5,1.66,4.61,1.16,6.68,1.72c1.1.27,2.06.55,3,.75s1.79.55,2.54.83c1.66.48,3,.89,4.27,1.24a4.46,4.46,0,0,1,.83.27,19.31,19.31,0,0,0,1.85-1.51c.35-.41.56-.62.62-.69v-.07a4.32,4.32,0,0,0,.14-.76v-.2l.07-1.65a.42.42,0,0,0,.07-.28,80.89,80.89,0,0,1-8.33-3.44c-.55-.21-1.1-.55-1.65-.76-39.5-14.31-82.52-17.89-122.16-10-11.08,2.27-17.28,5.51-19.69,10.26-1.92,4-1,9.91,2.21,14.66,3.09,4.4,8.05,8.32,15.69,12.25C665.81,1078.54,687.63,1083.36,713.23,1083.36ZM637.32,964.64c-3.24,4.47.62,13.21,5.3,19.82a178.22,178.22,0,0,0,24.77,28.22,230.93,230.93,0,0,1,24-1.24,248.58,248.58,0,0,1,37.79,3,203.1,203.1,0,0,1-39.09-44.94,216.35,216.35,0,0,0-34.69-7.78C648.81,960.79,640.35,960.58,637.32,964.64ZM687,927.34a183,183,0,0,0,92.7,100.55,76.91,76.91,0,0,0,10,3.78c-1.72-1.85-3.78-4.06-6.12-6.46-1.65-1.86-3.51-3.86-5.51-5.92s-3.92-4.48-6-6.82c-4.12-4.82-8.53-10-12.86-15.07s-8.33-10.53-12.19-15.49c-1.92-2.47-3.85-4.74-5.5-7.15s-3.24-4.55-4.68-6.54c-5.44-7.71-9.16-12.94-9.64-13.56.55.55,5,5.16,11.56,11.91,1.73,1.79,3.65,3.71,5.58,5.78s4.27,4.06,6.47,6.19c4.54,4.27,9.36,8.74,14.18,13.29,5,4.26,10,8.6,14.66,12.59-1.66-2.75-3.17-5.51-4.68-8.19-12.19-22.44-21-43.43-26.43-63.39a215.69,215.69,0,0,0-43.36-24.36c-6.13-2.55-14.32-4.89-18.24-1.65C682.6,910.34,684.12,919.7,687,927.34Zm155.54,337.92c4.54,10.67,10.46,17.34,15.55,17.48h.14c3.37,0,7.43-3,10.32-7.5,3.65-5.64,5.58-13.14,7-19.75a215,215,0,0,0,3.78-62.63c-1.37-2.82-2.68-5.78-4.06-8.74-4.89-10.67-10.53-23.13-13.9-36.55-.28,0-.55-.07-.83-.07-.07.76-.07,1.59-.13,2.41-.07,2.14-.21,4.48-.28,6.95s-.07,5-.14,7.71c0,5.3-.07,11-.07,16.73.21,5.71.49,11.42.69,16.79.14,2.68.14,5.3.35,7.71s.41,4.82.55,7c.68,8.67,1.17,14.38,1.17,14.38s-1.45-5.57-3.65-13.9c-.55-2.13-1.17-4.4-1.79-6.81s-1.1-5-1.72-7.64c-1.17-5.3-2.41-11-3.65-16.66-1-5.78-1.93-11.49-2.89-16.93-.41-2.68-1-5.37-1.31-7.78s-.62-4.81-.89-7c-.35-2.75-.69-5.16-1-7.22a261.71,261.71,0,0,1-14.38,69C832.23,1232.36,835.94,1249.84,842.55,1265.26Zm-83.83-7.36c1.65,5.37,5.23,9.56,9.23,11.08,4.4,1.58,10.59.2,15.55-3.51,5.51-4.2,9.63-10.53,13.28-16.8a251.16,251.16,0,0,0,33-109.29l-.48-.41s-.35-.41-.56-.69a.24.24,0,0,1-.06-.14l-.35-.34c-.82,2-1.72,4.34-2.82,7-.82,2.2-1.72,4.47-2.68,7s-2.14,5.1-3.24,7.78c-2.27,5.37-4.68,11.08-7.16,16.79s-5.16,11.22-7.57,16.45c-1.24,2.62-2.34,5.23-3.58,7.57s-2.27,4.61-3.3,6.68c-3.85,7.77-6.54,13.07-6.88,13.76.21-.69,2-6.4,4.54-14.66.69-2.2,1.38-4.61,2.2-7.09s1.45-5.3,2.21-8c1.51-5.57,3.16-11.49,4.81-17.41,1.38-5.92,2.83-11.84,4.2-17.41.62-2.83,1.31-5.44,1.86-8s1-5.09,1.51-7.29c.21-.83.35-1.59.55-2.41a251.05,251.05,0,0,1-47,65.45,167.62,167.62,0,0,0-8.19,35.17C757.28,1244.61,756.8,1251.77,758.72,1257.9ZM689.07,1222c6.06,5.37,17.69,2.07,21.13.9,13.84-4.68,27.12-13.56,42-27.95a231.72,231.72,0,0,0,36.33-45.63c-.48.49-1,.9-1.51,1.38-2,1.79-4,3.72-6.19,5.44s-4.48,3.51-6.68,5.3c-2.34,1.58-4.68,3.23-6.95,4.81a80.5,80.5,0,0,1-6.88,4.34c-2.34,1.31-4.41,2.75-6.61,3.79s-4.13,2.13-6.06,3.09c-.89.48-1.79,1-2.68,1.38l-2.48,1c-1.58.69-3,1.24-4.06,1.72-1.93.83-3.17,1.38-3.37,1.45.27-.21,1.31-.9,3-2.07,1-.62,2.27-1.44,3.64-2.41.76-.41,1.52-1,2.27-1.44s1.52-1.17,2.34-1.79c1.66-1.24,3.45-2.62,5.3-4.06s3.72-3.17,5.65-4.82,3.92-3.37,5.78-5.3,3.78-3.85,5.71-5.78,3.51-4.06,5.3-6.06,3.3-4.13,4.82-6.12c.76-1,1.51-1.93,2.2-2.89s1.45-1.93,2.07-2.89c.48-.76,1-1.45,1.37-2.14-1,.76-2.06,1.66-3.23,2.48-1.79,1.52-3.86,2.82-5.92,4.34s-4.2,3-6.4,4.47-4.54,2.89-6.82,4.41c-2.27,1.37-4.61,2.68-6.88,4.06s-4.54,2.61-6.81,3.85-4.27,2.34-6.4,3.37-4,1.93-5.78,2.82c-.9.42-1.79.83-2.62,1.24s-1.58.69-2.34,1c-1.51.68-2.82,1.24-3.92,1.65-1.65.69-2.69,1.17-3.17,1.31.48-.28,1.45-1,2.89-1.93,1-.62,2.07-1.38,3.44-2.27.69-.48,1.38-1,2.14-1.45s1.51-1.1,2.27-1.72c1.58-1.17,3.3-2.48,5.16-3.78s3.58-3,5.51-4.48,3.92-3.16,5.78-4.88l5.85-5.23c1.93-1.79,3.78-3.58,5.57-5.44,1.1-1,2.14-2.07,3.17-3.1a208.84,208.84,0,0,1-47.35,20.44,297,297,0,0,0-25.33,33.79c-3.58,5.65-7,11.77-8,18C684.46,1213.71,685.91,1219.15,689.07,1222Zm-101.3-14.11a136.27,136.27,0,0,1,31.86-11.77l10-2.27c15.76-3.51,30.63-6.81,43.63-14.11a71.6,71.6,0,0,0,16.38-12.8l3.86-5.09a154.38,154.38,0,0,1-23,1.58c-12.25-.2-22.85-1.86-32.14-5-8.4,2.54-16.86,6-23.81,11.49-8.6,6.75-14.87,16.52-19.82,25.19C592.24,1199.26,590,1203.6,587.77,1207.86Zm-5.3-53.47a7.28,7.28,0,0,0-.55,1.17,33.38,33.38,0,0,0,10.46,1.79,23.29,23.29,0,0,0,10.11-2.14c4.06-1.92,7.71-5.3,11.5-8.94a20.76,20.76,0,0,1,.41-2.69,26.79,26.79,0,0,1-5.3-9.7c-2.75-9.23.21-20,7.57-28.29,5.44-6.12,12.46-10.12,18.58-13.21,3.86-2,7.71-3.86,11.7-5.65-2.47-1.1-4.81-2.2-7.15-3.44-6.4-3.23-15.49-8.67-21.61-17.48a34.86,34.86,0,0,1-4.2-8.33,288.1,288.1,0,0,1-43.16-8.12.36.36,0,0,0,.28.14,33.32,33.32,0,0,1,3.23,3.17,38.09,38.09,0,0,1,2.83,3c.89,1,1.65,1.93,2.41,2.83.34.41.62.75.89,1.1a11.4,11.4,0,0,1,4-.69,10.88,10.88,0,1,1-10.87,10.87,10.45,10.45,0,0,1,1.24-5.09,4.23,4.23,0,0,0-.83-.69c-.82-.62-1.72-1.31-2.61-2.06s-2.07-1.31-3.1-2.07-2.14-1.44-3.3-2.06c-.83-.42-1.66-.9-2.55-1.31,9.5,11.49,16.72,26.29,21.27,43.5C589.21,1121.08,588.8,1139.38,582.47,1154.39ZM423,1143.86c3.51,12,13.63,21.54,24.64,23.12a40.19,40.19,0,0,0,5.92.35c1.38,0,2.68-.07,4.06-.07a67.66,67.66,0,0,1,14.73.75c8.12,1.66,14.73,5.65,21.2,9.5,4.95,3,9.7,5.85,14.52,7.23,13,3.51,26.91-3.65,36.27-10.26,11.35-8,19.2-16.93,23.19-26.36,4.89-11.7,5.09-26.49.48-44-3.58-13.77-11.08-32.9-26.36-45.77-.55-.48-1.17-1-1.79-1.45a36,36,0,0,1-4.88,2.62,1.68,1.68,0,0,1-.07.55c-.14,1-.21,2.13-.35,3.23a28.42,28.42,0,0,1-.55,3.51c-.2,1.24-.34,2.48-.62,3.72s-.62,2.48-.89,3.79-.69,2.47-1,3.64-.76,2.41-1.17,3.51-.76,2.21-1.17,3.24c-.35.82-.62,1.58-1,2.34a10.86,10.86,0,1,1-8.12-1.52v-.34c.14-.83.28-1.79.48-2.75s.14-2,.28-3.1.21-2.13.21-3.23.07-2.28.13-3.38-.06-2.27-.06-3.37-.14-2.2-.21-3.23-.14-2.07-.28-3c-.07-.42-.07-.69-.13-1.1a25.19,25.19,0,0,1-5.92-.9c-9.5,20-21.34,35.93-35.45,47.63-17,14-37.78,21.68-57.67,21.47A42.23,42.23,0,0,0,423,1143.86ZM358.86,1016.6a71.55,71.55,0,0,0,4.68,9.09c2.61,4.47,5.23,9,6.88,14.45,2.34,7.57,2.2,14.93,2,22.09a98.71,98.71,0,0,0,.27,12,36.28,36.28,0,0,0,3.24,11.15,124.27,124.27,0,0,1,3-15.7,115.86,115.86,0,0,0,2.75-13.76,58.64,58.64,0,0,0-14.45-45.42c-4.89-5.37-7-10.74-8.54-16.87C356.17,1001.39,356.11,1009.58,358.86,1016.6Zm-125.54-1c-9.63,7.57-19.82,12.46-30.48,16.45,23.95,6.33,50.31,4.33,72.6-6.2,10.4-4.88,19.89-11.35,29.94-18.17,9.43-6.47,19.2-13.14,29.87-18.44,3-1.45,6.13-2.89,9.29-4.06a58.78,58.78,0,0,1,6.4-11.84A139.3,139.3,0,0,0,320.8,975C291.21,979.71,261,993.75,233.32,1015.64Zm54.17-107.92C273,901.46,253.83,894,233.67,892.38c-9.43-.76-19-.28-29.18.2-6.13.28-12.39.55-18.65.55A128.92,128.92,0,0,1,167.25,892c17,27.46,45,48.25,76.33,55.82,16,3.85,32.41,4.54,49.83,5.3,9.29.34,18.79.76,28.28,1.65,5.85.62,11.63,1.38,17.42,2.34,1.37,0,2.75-.07,4.13-.07a150.93,150.93,0,0,1,23.05,1.72c.62-.41,1.24-.82,1.93-1.24C346.13,938.07,319.08,921.42,287.49,907.72Zm83.69,67.52c.76,3,1.24,5.78,1.79,8.26,1.72,8.53,2.61,12.25,6.19,16.24a74.86,74.86,0,0,1,18.52,58.16,138.41,138.41,0,0,1-3,15.55,119.46,119.46,0,0,0-2.76,14.45,59.65,59.65,0,0,0,.42,13.42c.13,1.38.27,2.62.41,3.72a49.12,49.12,0,0,0,18.79,8,55,55,0,0,0,10.73,1c15.83,0,32.63-6.34,46.53-17.83,12.46-10.25,23-24.64,31.45-42.74-.48-.55-1-1-1.51-1.51-.62.34-1.24.69-1.93,1-.89.48-1.58,1-2.41,1.45-1.58,1-3.3,2.13-4.95,3.16-1.72,1.24-3.38,2.48-5,3.65a27.59,27.59,0,0,0-2.27,1.72c-.55.48-1,.89-1.58,1.31a10.9,10.9,0,0,1-20.1,8.32,11,11,0,0,1,5-14.66,10.86,10.86,0,0,1,9.77.14c.21-.34.41-.62.62-1,.55-.83,1.17-1.58,1.79-2.41,1.31-1.72,2.68-3.51,4.06-5.3,1.58-1.72,3.1-3.51,4.54-5.16.76-.76,1.51-1.65,2.13-2.27s1.31-1.31,1.86-1.86l1-1a32.08,32.08,0,0,1-.27-17.48l-2.06-.83c-1.79-.76-3.65-1.51-5.51-2.27s-4-1.24-5.85-1.86c-1-.27-1.86-.62-2.75-.82l-1.86-.42a10.82,10.82,0,1,1,1.72-7.57h1a21.65,21.65,0,0,1,3-.07c2.13,0,4.4,0,6.68.07s4.67.35,6.81.55c1.1.07,2.27.14,3.16.28.28,0,.49.07.76.07-1-.83-2-1.65-3-2.48C480.4,995.89,467.19,985.15,453,977c-15.55-8.81-30.49-13.49-44.53-13.83S380.74,967.32,371.18,975.24Zm-25.05-116c3,5.37,5.85,10.74,8.6,16,8.19,15.48,16.65,31.45,27.12,45.56a138.74,138.74,0,0,0,14.59,16.72,17.05,17.05,0,0,1-.28-1.86,55.79,55.79,0,0,1,2.34-26.08c-.34-1.17-.62-2.34-1-3.51-3.93-15.14-7.64-29.46-14.8-42.26-.89-1.58-1.79-3.09-2.82-4.61Zm52.58,0c5.23,10.26,8.67,21.13,11.7,32a34.41,34.41,0,0,1,8-5.36c8.19-4,16.59-4.41,24.78-4.89,5.78-.28,11.15-.55,15.9-2.06,5.64-1.86,10.8-5.51,16.24-9.43a107.2,107.2,0,0,1,12.59-8.19c1.38-.76,2.82-1.45,4.27-2.07Zm144,0c.14.28.35.62.49.9a40.3,40.3,0,0,1,16.45,15.69,32.12,32.12,0,0,1,2.33,5.3,81.08,81.08,0,0,1,23.13-5.3A119.06,119.06,0,0,0,580,865c-1.1-1.92-2.27-3.85-3.58-5.71Zm52.45,0a119.36,119.36,0,0,1,7,16.11,78.54,78.54,0,0,1,22.37,3.92c-.42-.62-.83-1.24-1.24-1.79-.83-1.24-1.65-2.34-2.34-3.3a15.18,15.18,0,0,1-16.18-5.58,14.92,14.92,0,0,1-3-9.36Zm36.82,0a15.47,15.47,0,0,1-1.31,6.61c.83,1,1.86,2.27,3,3.78.83,1,1.72,2,2.62,3.24s1.85,2.41,2.82,3.72c2,2.61,4.06,5.36,6.19,8.12,1.45,2,2.89,4,4.27,5.91-.07-.61-.07-1.23-.14-1.85-.2-3.44-.55-7-.76-10.53-.41-3.51-.89-7-1.23-10.46-.35-3-.83-5.79-1.31-8.54Zm27.39,0c.48,2.13,1,4.27,1.24,6.47.62,3.58,1.24,7.23,1.79,10.94s.82,7.37,1.24,11,.62,7.22.89,10.73.55,6.82.55,10,.07,6.2.07,9c.07,1.37.07,2.75.07,4s-.07,2.48-.14,3.58c-.07,2.27-.13,4.27-.2,5.85-.07,1.38-.07,2.48-.14,3.3a85.64,85.64,0,0,0,8.12,7.5c1.31,1,2.55,2.14,3.85,3.24C675,941,673.38,937,671.87,933c-5-13.35-5-24.64-.35-32.62a124.5,124.5,0,0,1-.68-41.09Zm27.81,0A111.1,111.1,0,0,0,685.84,885c.14,1.52.27,3.1.48,4.68a25.09,25.09,0,0,1,6-.69,46,46,0,0,1,15.21,3l-1.31-3.3c-3.58-9.43-7.36-19.07-9.36-29.46Zm26.15,0c1.86,7.85,4.88,15.56,8,23.61,2.2,5.78,4.48,11.7,6.4,17.82a4.46,4.46,0,0,0,.14.49c5.37,2.82,10.67,5.71,15.76,8.8a160.8,160.8,0,0,1-1.86-20.37c-.2-6.81-.07-14.73,2.82-22.43a34,34,0,0,1,4.27-7.92Zm81.49,0c3.64,4.54,9.7,14.32,16.38,25.81a89.87,89.87,0,0,1,8.25-25.81Zm44,0a27.39,27.39,0,0,0-3.71,5.09c-9,16-9.91,35.38-10.19,57.33-.34,32.35.21,63.73,9.77,91.26a15.85,15.85,0,0,0,1.72.49c.14.07.21.07.35.13l4.33-105.09,10.81,105a3.87,3.87,0,0,1,.83-.28,24.14,24.14,0,0,1,5.71-1.38c.41-2.2.76-4.61,1.1-7.22,2-15.56,2.82-33.59,3.44-46.66.14-2.69.21-5.17.34-7.37,1.45-28.7,2.83-55.81-7.15-83.76a38.08,38.08,0,0,0-3.38-7.5Zm31.87,0c.21.76.48,1.45.69,2.07a147.6,147.6,0,0,1,6.67,26c5.3-10.46,12.18-20.51,22.1-27.87.06-.07.2-.14.27-.21Zm64.56,0c6.19,6.47,8.32,15.56,9.22,19.2.07.21.07.49.14.69a168.83,168.83,0,0,1,9.49-19.89Zm37.85,0C962.37,875.1,956,894,951.57,908.69l-.28,1.1c-.55,1.72-1.1,3.58-1.65,5.37,2-1.1,4.13-2.07,6.12-3,14-15.56,27.4-33,33.31-52.93Zm32.69,0c-.28,1.17-.62,2.27-.9,3.37-4.61,16.32-13.07,30.49-22.91,43.43a25.15,25.15,0,0,1,12.94,3.86,22.89,22.89,0,0,1,7.08,7.5c1.86-1,3.65-1.86,5.44-2.69,1.52-.68,3-1.44,4.34-2.13,7.71-4.06,14.11-10.6,20.78-17.48,2.2-2.2,4.34-4.48,6.61-6.68,13.49-13.07,26.29-19.41,39.09-19.41h.48c8.81.07,17.76,3.45,25.54,9.36v-.2c-.14-1-.28-2.14-.42-3.44s-.2-2.69-.34-4.2c-.14-3-.21-6.54-.14-10.26v-1Zm112.11,0v.62c.07.76.07,1.51.14,2.27,1-1,2-1.92,2.89-2.89Zm20.37,0c-1,.83-1.92,1.79-2.89,2.75a30.58,30.58,0,0,0-2.54,2.55c-.83,1-1.65,1.86-2.48,2.82a61.57,61.57,0,0,0-5.09,6c-1.65,2.13-3.24,4.34-4.89,6.47-1.44,2.34-2.89,4.61-4.34,6.88a21.75,21.75,0,0,0-1.3,2.14,96.9,96.9,0,0,1,12.52,22.57.26.26,0,0,0,.07.21c10.46-22.17,27.19-39,47.15-46.39a47,47,0,0,1,16.38-3.17,30.53,30.53,0,0,1,17.75,5.3c4,2.89,6.88,6.54,9.43,9.78,2.34,2.89,4.47,5.64,6.81,7s6,1.65,10,2a53.28,53.28,0,0,1,9.91,1.38c20,5,30.08,26.5,29.53,44.18a65.14,65.14,0,0,1-6.4,25.19c9.77-11.49,19.06-24.43,28.36-37.78l.48-.69c14.52-20.92,29.25-42.26,46.59-59.19ZM1310,927.68l-.48.69c-11.63,16.79-23.4,33-36.27,46.87a84.58,84.58,0,0,1,16,3.37,106.77,106.77,0,0,0,15.14-7.09c36.14-20.58,63-62.49,73-112.25h-9.29C1345.93,875.93,1327.76,902.15,1310,927.68Z"/><path fill="FRAME_COLOR" d="M819.77,1091.83a4.1,4.1,0,0,1,.89-.21l.07-.07,1.31-.14.41-.07.49-.06h1a12.46,12.46,0,0,1,3.51.68,12.91,12.91,0,0,1,2.34,1.1,12.26,12.26,0,0,1,2,1.66l1,1v.07l.13.14.07.06.9,1.11a.51.51,0,0,1,.27.27l.07.07.21.21a.61.61,0,0,1,.34.27,24.49,24.49,0,0,0,3.58,2.41,22.16,22.16,0,0,0,2.2,1l.55.28.28.07.14.07.07.06h-.21a11.17,11.17,0,0,1,1.44.42c.42.13.76.27,1.17.41a3.87,3.87,0,0,1,.83.28c.62.27,1.31.34,1.93.55a3.34,3.34,0,0,1,.82.13h.48l.21.07-.07.07h.21l.55-.07c.21,0,.41-.07.48,0h.69a7.9,7.9,0,0,0,4.75-2.27.53.53,0,1,1,.89.28c.07.27.07.68.14,1.17a7.15,7.15,0,0,1-.14,1.65,9.76,9.76,0,0,1-2,4.27,9.5,9.5,0,0,1-1.1,1.1l-1,1-.07.07a.33.33,0,0,1-.27.14v.06l-.34.14-.69.41c-.55.35-1,.62-1.52.9-1,.41-2.2.83-3.37,1.17-.62.14-1.31.21-1.93.34l-1.72.21a10.2,10.2,0,0,1-1.44.21l-.35-.07h-1.85a17.89,17.89,0,0,1-1.93-.14c-.62-.07-1.31-.21-2-.34a22.57,22.57,0,0,1-8.12-3.1l-1-.62-.55-.34-.55-.42c-.76-.62-1.52-1.31-2.2-2-1,.07-1.93.07-2.83.07a22,22,0,0,1-9-2.34c-.69-.42-1.24-.62-2-1.17a17.46,17.46,0,0,1-2-1.45c-.42-.34-.76-.76-1.11-1.1l-.2-.21v-.07a.9.9,0,0,1-.35-.2l-.41-.42-.62-.82a19.27,19.27,0,0,1-3.37-6.54c-.21-1-.41-2.06-.55-3s-.07-1.92,0-2.75a20.83,20.83,0,0,1,.34-2.34,13.7,13.7,0,0,1,.62-1.93,10.4,10.4,0,0,1,1.24-2.34l.55-.75a7.15,7.15,0,0,1,.35.89,21,21,0,0,0,1.1,2.27c.27.41.41.83.75,1.31a12.82,12.82,0,0,1,1,1.44c.41.49.82,1,1.3,1.45s1,.89,1.52,1.38a12.85,12.85,0,0,0,3.37,2l.34.14.14.07.14.07c.48.2,1,.41,1.38.55s.55,0,.75.07l.83.13a17.06,17.06,0,0,0,3.78,0C819.15,1091.9,819.49,1091.9,819.77,1091.83Zm4.13,15.62a.26.26,0,0,0,.21-.07h-.42l-.41.07Zm-3.44-1.24h.07l-.07-.07Z"/><path fill="FRAME_COLOR" d="M862.9,1036.67h0Z"/><path fill="FRAME_COLOR" d="M876.61,1089c-.69.48-1.08.71-1.08.71s.22-.39.61-1.13.94-1.83,1.55-3.19a26,26,0,0,0,1.61-5,14.59,14.59,0,0,0,0-6,9.42,9.42,0,0,0-2.92-5,2.48,2.48,0,0,0-.26-.19l-.13-.1h0c0,.06-.44-.52-.25-.29l0,0-.1-.1-.21-.2a1.82,1.82,0,0,1-.28-.32,14.06,14.06,0,0,1-.8-1.21,11.07,11.07,0,0,1-1.35-4.37,12.52,12.52,0,0,1,0-2.29l.19-1.14,0-.14c0-.09-.15.55-.08.26v-.19l0-.3c.18-1.12-.06-.79-.1-1.27a6.09,6.09,0,0,0-.93-2.23c-.13-.14-.21-.31-.34-.43l-.19-.19-.08-.09,0,0h0c.27.4.06.09.11.18l-.1-.12-.42-.48a.25.25,0,0,0-.14,0c-.06,0-.29-.2-.43-.28a7.58,7.58,0,0,0-4.76-1s-.3,0-.18,0l-.62.06c-.24,0-.67.09-1.26.14a15.24,15.24,0,0,1-4.87-.39l-.6-.18-.08,0-.15-.06-.31-.1L857,1052l-.81-.36c-.3-.14-.48-.24-.62-.32l-.49-.28c-.36-.21-.57-.36-.84-.53a12.89,12.89,0,0,1-1.77-1.41l-.07-.09v0h0c.13,0-.29-.15.28.12l-.14-.09-.54-.35c.06,0,.23,0,.06-.14a2.07,2.07,0,0,0-.76-.57,6.47,6.47,0,0,0-3-.47,16.69,16.69,0,0,0-1.91.25l-1,.2-1.13.3a31.54,31.54,0,0,1-5.65,1.19,11,11,0,0,1-3.84-.33,8.32,8.32,0,0,1-3.51-2l-.34-.32c.21.18,0,0,.09.07l0,0,0,0-.09-.09-.34-.38a2.13,2.13,0,0,0-.37-.43,8.25,8.25,0,0,0-1.18-1,32.87,32.87,0,0,0-6.05-2.94,14.22,14.22,0,0,1-5.22-3.2,4.76,4.76,0,0,1-1.22-3.76,6,6,0,0,1,.18-1c.05-.21.07-.32.07-.32l.06.32a5.44,5.44,0,0,0,.2.9,3.66,3.66,0,0,0,1.92,2.34,13.25,13.25,0,0,0,4.9.8,37.74,37.74,0,0,1,7.66.76,15.68,15.68,0,0,1,2.39.81,12.34,12.34,0,0,1,1.34.69l.48.27.12.06.06,0h0l.14.11h.08c.21,0,.26-.09.34-.19a2,2,0,0,1,.55-.37c.63-.33,1.7-1,3-1.85l1-.65,1.22-.71c.83-.46,1.72-.89,2.67-1.32a21.56,21.56,0,0,1,6.77-1.9,17.34,17.34,0,0,1,4.23.13,15.3,15.3,0,0,1,2.48.65l.62.18.16,0,.54.24.49.22c1.27.6,2.11,1.1,2.59,1.32l.1,0,.07,0h0l-.12,0,.06,0c-.25-.06-.26,0,0,0a.76.76,0,0,0,.18.08l.07,0c.05,0,.06,0,0,0l-.07,0-.1,0h0l.27,0,1.34,0,.67,0c.56,0,.74,0,1.13.06a21.61,21.61,0,0,1,14,6.73c.47.52.84.94,1.33,1.59l.67.95.31.56.08.14.16.24,0,0,.06.12.23.45.45.92c.29.6.48,1.24.71,1.85a17.81,17.81,0,0,1,.73,7.48c-.31,3-1.29,4.86-1.28,4.39a1.51,1.51,0,0,1-.29.13.73.73,0,0,0-.24-.22c-.09-.07,0,.07.05.14l.14.25.07.13,0,.06c.21.25-.26-.31-.2-.23l0,0,.24.34c.15.23.31.45.44.68a16.89,16.89,0,0,1,2.24,10.71,17.89,17.89,0,0,1-2.94,7.85,23.26,23.26,0,0,1-3.89,4.5A26.61,26.61,0,0,1,876.61,1089Z"/></g></g></svg>