<svg xmlns="http://www.w3.org/2000/svg" viewBox="0 0 1650 1229.38"><title>Asset 46</title><g id="Layer_2" data-name="Layer 2"><g id="Layer_1-2" data-name="Layer 1"><path fill="FRAME_COLOR" d="M1647.11,405.08H1475.93c15.75-15.23-2.08-40.21-40.52-54.91-20-7.6-32.41-9.2-74.83-9.6-28,0-48-1.6-44-3.2,3.61-1.6,14.41-2.8,23.62-2.8,24.81-.4,69.23-10.81,93.64-21.61,27.62-12.41,60.43-42,71.24-64,25.61-52.82-12-114.85-69.64-114.85-36.41,0-59.63,18-64.43,50-4,28.82,13.61,50,41.62,50,6.41,0,13.21-2,16-4.81,6.8-6.8,6-19.21-1.2-19.21-3.2,0-6,2-6,4,0,2.4-5.61,4-12,4-10,0-13.21-2.4-18.81-13.61-6-12.8-5.6-14.41,1.2-28.81,22-44.83,86.45-30.42,102.45,22.81,6.41,22.41-1.2,44-24,68.43-21.61,23.21-50.42,38.82-93.24,50.83-40,11.2-48,10.4-16-1.6,30.41-11.21,56.43-28.42,63.23-42,7.2-14.41,2.8-17.21-23.61-15.21-19.61,1.6-33.22,6.8-80.44,30.41l-56.83,28.82-42-.4c-23.21,0-46.43-2-52-3.6-8.4-2.8-8.8-3.21-2-3.61,4.4-.4,24.81-6,45.62-12.8,30.82-10.41,40.82-16,56.83-31.22,16-15.61,19.61-21.61,19.61-32.81,0-17.61-6-23.62-22.81-23.62-28,0-53.63,19.61-79.24,60-21.61,34.42-44.82,38.82-113.66,21.21l-42.42-11.2,44.82-2c42.43-2,45.63-2.8,60-14.41,21.21-17.21,21.61-27.21,2.4-37.22-14.41-7.2-57.23-15.2-95.25-17.61-16-.8-9.61-2.4,132.87-30.81,42.82-8.81,74.83-21.61,72.43-28.82-4.4-12.4-20.41-15.6-69.23-13.6-102.45,4.4-175.69,27.61-243.72,78-24.42,18.41-29.62,20.41-47.63,20.41-18.81,0-19.61-.4-12.41-6,4-3.2,9.61-6,12-6,6.4,0,39.62-36,47.22-51.63,6-11.2,6-12.8.41-14.8-8-3.2-7.61-9.21,2-30,16-36,5.6-62-27.62-66.43-22.81-3.2-42.42,7.2-52.82,27.61-4.41,8.41-8.41,15.21-8.81,15.21-.8,0,.4-10.8,2.8-23.61,4.4-28-.4-50-15.2-67.23L825.91,0l-8.8,8c-16,14.41-20.81,32.82-19.21,72,1.6,30.41,1.2,33.62-2.4,22-2.41-7.6-6.81-18-9.61-22.81C775.09,60,739.87,51.63,722.26,64s-19.21,44.42-3.2,68.84c6.4,9.6,4.4,17.2-7.61,26-4,2.8,18.41,35.22,36.42,52,9.61,9.21,45.22,26,45.22,21.62,0-.8-6.8-13.21-15.2-27.62s-17.61-33.61-20.81-42.42c-2.8-9.2-6.81-16.41-8.41-16.41-7.2,0-7.2,8.81-.4,30,4,12,6.4,22,5.2,22-1.6,0-8.4-9.61-15.6-20.81l-12.81-21.21,14-12.81c26.41-24.81,48.42-13.21,61.63,32.82,4.4,15.21,7.6,28.41,6.8,29.21s-7.6-9.6-14.81-23.21c-11.6-22-30.41-42.82-34.41-38.42-1.2.8,9.2,20.41,22.41,43.22,13.6,22.81,24.41,43.62,24.41,45.63,0,4.8-64.83,2.4-68-2.41-1.2-1.6-18-13.6-38-26.41-68.84-45.22-146.48-66.83-238.92-67.23-43.22-.4-52,.8-58,6.4-6.4,6.8-6.4,7.6.8,13.21,13.21,10,56,20.41,136.07,34,84,14.41,102.85,19.21,74,20-47.23.8-104.06,12.81-114.46,24.42-6,6.8-6,8,0,17.61,13.6,20.41,24,24,75.23,24,25.62,0,45.63,1.2,44,2.4-6.41,5.2-84.85,23.61-101.25,23.61-25.22,0-43.63-10.81-58.43-34-20.41-32.81-30-42.82-46.83-50.42-29.61-13.21-50.42-8.41-50.42,11.2,0,32.42,37.62,59.63,106.05,77.24l28,7.21-35.22,2.8c-59.63,5.2-71.64,2.4-137.67-28.82-32.42-15.6-64.43-29.61-70.44-31.21-26.41-5.61-35.21,8.8-15.6,26.81,8.8,8.81,44.82,27.61,68.83,36.42,3.2,1.2.8,2.4-5.6,2.4-16.81.4-80.84-22-100.05-35.22-9.21-6.4-22-18.81-28-27.61-26-37.62-20.41-76.84,13.61-99.25,13.61-8.8,19.21-10.41,36-8.8,32,3.2,50,26.81,40.42,52.42-4.8,12.41-21.61,18-30.82,10.81-8.4-7.21-17.2,1.2-11.2,10.8,10.8,17.61,44.42,11.21,55.23-10.4,20-38.42-11.21-80.44-60-80.44-40,0-77.64,38-77.64,78,0,17.2,10.8,44,24.41,61.23C186,305,240.82,328.56,302.85,333.77l40,3.2-40,.8c-58.43.8-115.66,17.21-126.06,36-7.2,13.56-6.21,24.35,1.6,31.29H2.89a14.8,14.8,0,0,0,0,17.58H1647.11a14.8,14.8,0,0,0,0-17.58ZM1214.9,254.93c22-30.42,54.83-42.42,57.63-21.61,2,14-9.2,27.61-31.21,38.82-24,12-30.82,12.8-12.81,1.6,12.41-8,17.61-19.61,8.41-19.61-2.41,0-9.21,3.2-14.81,7.2C1201.7,275.74,1200.9,274.94,1214.9,254.93ZM788.69,127.66c-2.8-3.2-12-9.6-20-14l-15.21-7.61-10,12.41-10.41,12-10-22.81c-5.6-12.4-10-24-10-25.61,0-4.4,23.22-12,35.62-12,17.61.41,30.82,15.21,42,47.23C797.1,135.67,796.7,137.27,788.69,127.66Zm-317,36c-33.61-8.4-41.62-12-36.41-14.81,6.4-3.6,70.43-1.6,93.64,2.81,43.62,8.8,84,20.41,85.65,24.81,1.6,3.6-1.2,4-10.81,1.2-22-6.81-27.61-7.61-34-4-5.6,3.2-4,4,35.22,11.2,5.2.8,10.81,2.4,11.61,3.6C623,194.9,541.37,180.89,471.73,163.68Zm-41.22,99.25c-12.8-16.41-19.21-16.41-15.6-.8,1.6,6.8,2,12,1.2,12s-8.81-4.41-18-10c-12-7.2-17.21-13.61-19.21-22.41-6.8-30,29.21-21.21,54,13.21C447.32,274.54,444.92,281.74,430.51,262.93ZM1381,374.19c9.2,4.4,21.61,10,27.61,12.4l10.81,4-8.81-9.2c-5.2-4.8-16.81-12-26-16l-17.21-7.6,26.41,2.4c36.42,2.8,63.23,12.41,68.44,24.41,2.8,6,3.2,11.21.8,13.21-12,11.2-56.43,2.4-86-17.21C1356.58,367,1359,363,1381,374.19Zm-63.63-68.84c38.41-18,80.44-35.22,85.64-35.22,7.2,0-37.22,23.62-68.44,36.42C1296.94,321.76,1284.14,321,1317.36,305.35ZM1056,166.48c60.43-16,157.28-26.41,157.28-16.41,0,4.81-18,9.61-23.61,6-2.4-1.2-4.4-.8-4.4,1.6,0,5.2-22,10.8-54,14.41-13.2,1.6-38.42,6.4-56,10.4s-36.41,7.6-42,7.2c-9.6-.4-9.2-.4,2-4.4a151.06,151.06,0,0,0,20.81-8c4.81-2.4,11.61-3.2,15.21-1.6,4,1.6,5.61.8,3.6-2-1.6-3.21.4-3.61,6-1.6,5.2,1.6,8.4.8,8.4-2,0-2.4,2-3.2,4-2,2.4,1.2,4,.4,4-2s-3.21-3.6-6.81-2.4c-18.41,5.2-62.43,14.41-64,12.81C1025.61,175.69,1038.82,171.29,1056,166.48Zm-110.45,70c69.23-5.21,158.08-6.81,173.29-3.6,19.21,4,22,10.4,8.4,16.4-14.41,6.41-18,6-15.61-2,2-6,1.2-6-4.4.8-4.8,6.41-7.2,6.81-9.6,2.8-2.81-4.4-3.61-4.4-5.61.81-2,5.6-10.4,6.4-55.62,6-60.83-.8-91.25-4-110.86-12.81L912,239.32Zm-70,7.2c31.22,5.6,45.63,10.81,57.63,20.81,14.81,12.81,16.41,30,3.21,39.22-10.41,7.2-25.62,8-37.22,1.6-11.21-6-34-27.61-38.82-37.22-4.4-7.6-4-7.6,5.2-.8,19.61,14.41,40.82,22.41,48.42,18.41,14.81-8,8.81-13.6-26.41-25.61C859.13,250.52,851.12,239.32,875.53,243.72Zm21.62,26.41c5.2,3.21,5.2,4-.8,4-3.61,0-8-1.6-9.21-4C883.94,264.93,889.14,264.93,897.15,270.13Zm-2.81-66.83c-.8-2.4,2.81-13.61,8.41-24.81,10.8-20.81,13.61-34.82,6.4-30.42-2.4,1.6-9.2,12.81-15.61,25.22a406.13,406.13,0,0,1-24,40c-6.8,9.2-15.61,16.8-19.21,16.8-5.6,0-5.6-1.2,1.6-8.8,4.41-5.2,14.81-21.61,23.21-37.22,8.41-15.21,18-31.21,21.22-34.82,3.2-4,4.4-7.2,2.4-7.2-10,0-21.61,14.41-34,42-13.21,29.62-22.41,40.82-15.61,19.21,2-6.4,6.41-20.81,10-32.42,7.2-22.81,23.21-44.82,32.41-44.82,7.61,0,29.62,23.61,29.62,31.62S895.94,208.5,894.34,203.3ZM869.93,88.44c12.81-15.6,33.62-22,48.83-15.2,12.4,5.6,14.4,15.2,7.6,38.42l-6,19.61-9.61-10.41c-5.6-6-13.2-10.81-17.61-10.81-14,0-35.21,23.22-44.42,48.43-4.8,12.81-9.2,23.61-10,23.61C830.71,182.09,856.33,104.45,869.93,88.44Zm-51.22-42c6-4.8,7.6-4.8,13.2.8s6,13.21,1.2,77.64c-4.8,67.64-10.8,101.65-12.4,69.24-.4-7.61-1.2-17.61-1.6-22-.8-4.41-2.4-33.22-4-64C812.3,58,812.7,51.23,818.71,46.42Zm-36,321c2.8,14.81,19.61,34.82,29.21,34.82,7.61,0,10.81-10,6.81-23.21-2-8-3.2-9.21-4.41-3.6-2.4,9.2-8,8.8-13.6-1.6-8-15.61,7.6-87.65,23.21-103.66,3.6-4,3.2-1.6-1.6,8C814.7,293,813.9,325,820.71,337c2.8,5.6,4.4,4,6.4-8,1.6-8.4,2-23.21.8-33.21-.8-9.61-.4-17.61,1.6-17.61,1.6,0,4,10.4,5.6,23.21,4,36.42,10.41,48,8,14.81-1.6-22.81-1.2-26.42,2.8-20,2.4,4.4,5.6,22.81,6.4,40.42,1.6,29.61.8,33.61-7.2,41.62-4.8,4.8-11.21,7.6-14.41,6.4-7.6-2.8-7.2,7.21.4,13.61,9.61,8,25.22-1.2,32.82-18.81,8.4-20.81,5.2-62.83-6.8-86l-8.81-17.21L865.53,295c19.61,20.81,32.82,27.21,56,27.21,30,0,49.62-32,33.61-54.83-5.6-8-4.8-8,22.82,2.4,24.41,8.81,29.21,12,32,22.42,4.4,15.2,1.6,34.41-10.8,72.43-5.42,16.49-8.93,31.56-9.88,40.5H663.19c-2.09-7.3-5.79-18.5-10.17-30.09-14.4-39.62-18.41-70.84-11.2-84.85,3.6-6.8,12.81-12.4,29.21-18,13.21-4.41,26.82-10,30-12,5.2-3.2,5.2-2.8.4,3.2-2.8,3.6-5.6,14-6,22.41-.8,43.22,55.22,50.43,93.24,12l13.21-13.61-6,12C786.69,315,779.89,351.77,782.69,367.38ZM823.51,301c-1.2,1.6-2.4-.8-2-5.2,0-4.41,1.2-5.61,2.4-2.4C825.11,296.15,824.71,299.75,823.51,301Zm-46-54c13.6,1.6,13.2,1.6-13.21,14.41-26.81,12.81-34,22.41-20.81,27.61,3.2,1.2,16.81-3.2,29.61-10,28-14.41,28-7.2-.4,13.21-25.61,18.8-43.62,22-55.22,9.6-10.81-11.61-10.81-16.41,1.6-31.22C731.46,256.13,759.08,244.92,777.49,246.92Zm-226.92,6c-1.2-4-4.8-6.81-7.6-6.81a7.22,7.22,0,0,0-6.8,5.61c-.8,4-3.61,4.4-10,2-13.21-4.81-11.2-14,3.2-19.21,16.81-5.61,105.66-5.21,163.68,1.2l46,4.8-22,7.2c-15.61,4.81-42.42,7.61-92.85,9.21C560.58,258.93,553,258.53,550.57,252.93ZM244,276.54c-4-6,3.6-8,10-3.2,2.8,2,23.21,10.4,45.62,18.81,22.41,8,44,17.2,48,20.41,4,2.8,5.61,5.2,3.2,5.2C342.07,317.36,246.82,280.14,244,276.54ZM192.4,381.79c9.2-11.61,28.41-17.61,74-23.61,15.61-2,32.42-4.8,36.42-6.41,16-6-32.82,32-52,40.83-28.41,12.4-48,14.8-58,6.4l-8.41-6.8Zm60.52,23.29c16.22-6.24,33.88-16.13,55.93-31.29,12.81-8.41,30.82-18.41,40.42-21.61,18.81-6.81,84.05-19.21,86.45-16.41.8.8-19.61,13.2-45.63,27.61-36.49,20.15-59,32.65-74.22,41.7Zm104-8.88c0,.42-3.22,3.84-8.23,8.88h-7.22C350.51,399.16,356.88,395.36,356.88,396.2Zm7.47,8.88c53-50.28,65.82-55.77,14.54-4.48q-2.22,2.25-4.45,4.48Zm32.55,0c7.22-6.48,12-10.4,12-9.68,0,.47-1.53,4.07-4.1,9.68Zm28.74,0c1-10.34,4-19.05,9.28-29.69a85.77,85.77,0,0,1,54-44.43c7.61-2,17.61-5.2,22-7.2,4.81-1.6.4,5.2-11.2,17.61-19.46,21-31.52,42.14-36.37,63.71Zm53.24,0c4.81-14,12.2-27.88,21.67-38.9,7.2-8.4,6.8-7.2-1.6,8a234.73,234.73,0,0,0-14.06,30.89Zm16.09,0c16.41-38.38,29.06-59.29,21.19-34.9-1.75,5.55-5.64,19.62-9.62,34.9Zm19.25,0c5.39-20.5,6.07-19.5,4.34-2.88-.09.89-.22,1.91-.33,2.88Zm15.54-18.49c2.4-32,6-60.43,8.81-63.23,2.4-2.8,21.61-10.8,42.82-18.41l38.82-13.2L608.2,315c-13.94,27.7-21.1,60.77-21.78,90.12H528.27C528.8,399.26,529.31,393.17,529.76,386.59Zm72.82,18.49a104.39,104.39,0,0,1,1.62-14.89c3.18-17.47,3.2-17.17,5.94,14.89Zm20.27,0c.33-4.85.65-10,1-15.29l2.4-49.22,7.21,20.81c6,17.75,12.92,33.34,18.73,43.7Zm373.43,0c3.55-7,8.72-18.08,13.72-30.09,13.21-30.42,15.21-33.22,15.21-20.81-.4,7.6-5.2,25.61-11.21,40-1.71,4.1-3.09,7.6-4.3,10.88Zm22.75,0c.94-7,2.21-13.09,3.78-16.89,3.2-7.6,6.4-14,7.2-14s.8,13.81,0,30.89Zm22,0c.32-5.05.53-10.56.61-16.49l.4-24.41,4,18a138.66,138.66,0,0,1,2.07,22.89Zm23.37,0c-.91-28.15-7.91-59.63-21.16-86.12-7.61-14.81-12.81-27.21-12-28.42.8-.8,7.61,1.21,14.81,4.81,7.2,3.2,23.21,8.8,35.62,12.4,34.42,9.61,36,13.21,42,82,.46,5.45.93,10.47,1.4,15.29Zm92.45,0c-4.08-19.47-10.68-37.27-13.56-34.1-1,1,1.13,15.33,4.6,34.1h-7.22c-.41-4.85-.75-9.82-1-14.89l-2-38,8,10c9.88,12.07,17.37,27.4,21.84,42.9Zm27.12,0c-5-22.38-16.24-45.1-33.08-65.71-16.81-20.41-12.4-21.21,22.41-4,35.1,17.4,50.57,37,51.13,69.71Zm65.51,0c-.67-1.47-1.39-3-2.14-4.48l-6.4-12,9.2,8c2.8,2.33,6.24,5.46,9.37,8.48Zm44.24,0h-12.07c-2.08-2.25-4.17-4.52-6.3-6.88-9.2-10-23.61-24-32-31.22-8.81-7.2-12.41-11.2-8-9.2s16.41,10.8,26.82,20c18,16,26.41,20.81,20.81,11.6-3.2-5.2,4.4-1.2,14.41,7.21,1.87,1.46,6.94,4.67,13.48,8.48h-7.75c-8.82-6.35-15.49-10.34-16.54-9.28C1285.92,396.32,1288.84,399.91,1293.7,405.08Zm46.61,0c-19.23-11.79-43.82-25.33-74.18-40.9-29.21-14.81-52.43-27.61-52-28,2.41-2.4,74,10,89.25,15.2,8.8,3.21,31.61,15.61,50,28a266,266,0,0,0,50.19,25.69Z"/><path fill="FRAME_COLOR" d="M256,377.79c14.8-6.81,24.81-13.21,22-14.41-4.4-1.6-53.23,21.21-53.23,24.81S228.41,390.59,256,377.79Z"/><path fill="FRAME_COLOR" d="M547,167.68c-7.6-1.2-14-4-14-6s-3.6-1.6-8,1.2c-7.6,4.8-6.8,5.6,8.81,10,22,5.6,27.21,6,27.21,1.2C561,172.09,554.58,169.28,547,167.68Z"/><path fill="FRAME_COLOR" d="M507,160.48c-3.2-1.2-6-.4-6,1.6,0,2.4,2.8,4,6,4s6-.8,6-1.6S510.15,162.08,507,160.48Z"/><path fill="FRAME_COLOR" d="M1109.25,170.08c2.4,0,4-.8,4-1.6,0-1.2-1.6-3.2-4-4.4-2-1.2-4-.4-4,1.6A4.38,4.38,0,0,0,1109.25,170.08Z"/><path fill="FRAME_COLOR" d="M1121.26,170.08a3.69,3.69,0,0,0,4-3.6,7.6,7.6,0,0,0-4-6.4c-2-1.2-4,.4-4,3.6C1117.26,167.28,1119.26,170.08,1121.26,170.08Z"/><path fill="FRAME_COLOR" d="M1159.28,161.68a46.29,46.29,0,0,0,16-3.6c7.21-3.2,7.21-3.6-2-3.6-5.6,0-12.8,1.6-16,3.6C1152.47,161.28,1152.47,162.08,1159.28,161.68Z"/><path fill="FRAME_COLOR" d="M971.18,160.88c4.41-3.2,21.61-10.81,38-16.81,42.82-16,58-24,74-40,23.21-23.61,18-46-10.81-46-33.61,0-57.63,18-91.64,68.43-12.81,19.61-23.61,36.42-23.61,37.62C957.18,167.68,963.18,166.48,971.18,160.88Zm64-75.24c14.41-13.2,42-16,42-4,0,4-4.41,10.81-9.61,16-5.2,4.8-18.81,12.4-30.81,16.41-18.81,6.8-20.41,7.2-11.61,1.2C1048,99.25,1064.43,78,1054,78c-1.6,0-14,9.2-27.21,20.81C1004,118.86,1010.8,108.05,1035.21,85.64Z"/><path fill="FRAME_COLOR" d="M639,142.47c24.41,10.41,46.42,19.21,49.22,19.21,2.8.4-6.4-16.41-20.41-36.42C632.61,73.24,595.4,50,565.38,60.83c-8.8,2.8-10.4,6-10,18.41C556.18,104.05,564.18,110.05,639,142.47ZM587.79,74c12,0,17.61,3.2,32,18.41,10,10,16.41,19.61,15.21,20.81-1.6,1.6-5.61-1.6-9.21-6.81-6-8.8-33.22-28.41-39.62-28.41-2,0,6.8,8.8,18.81,19.61s21.21,20.41,20,21.21-9.6-2.4-18.41-6.8C571,94.85,560.58,74,587.79,74Z"/><path fill="FRAME_COLOR" d="M149.17,146.07c7.61,0,40-28.41,37.62-32.41-7.6-11.61-42,8.8-42,25.21C144.77,142.87,146.77,146.07,149.17,146.07Z"/><path fill="FRAME_COLOR" d="M1480.64,134.87c17.61,12.8,24.81,13.6,24.81,3.6,0-11.21-18-28.42-30-28.42C1460.63,110.05,1463,122.06,1480.64,134.87Z"/><path fill="FRAME_COLOR" d="M1647.11,824.3H1475.93c15.75,15.23-2.08,40.21-40.52,54.91-20,7.6-32.41,9.2-74.83,9.6-28,0-48,1.6-44,3.2,3.61,1.6,14.41,2.8,23.62,2.8,24.81.41,69.23,10.81,93.64,21.62,27.62,12.4,60.43,42,71.24,64,25.61,52.82-12,114.85-69.64,114.85-36.41,0-59.63-18-64.43-50-4-28.81,13.61-50,41.62-50,6.41,0,13.21,2,16,4.81,6.8,6.8,6,19.21-1.2,19.21-3.2,0-6-2-6-4,0-2.4-5.61-4-12-4-10,0-13.21,2.4-18.81,13.61-6,12.81-5.6,14.41,1.2,28.81,22,44.83,86.45,30.42,102.45-22.81,6.41-22.41-1.2-44-24-68.43-21.61-23.21-50.42-38.82-93.24-50.83-40-11.2-48-10.4-16,1.6,30.41,11.21,56.43,28.42,63.23,42,7.2,14.4,2.8,17.2-23.61,15.2-19.61-1.6-33.22-6.8-80.44-30.41l-56.83-28.82-42,.4c-23.21,0-46.43,2-52,3.6-8.4,2.81-8.8,3.21-2,3.61,4.4.4,24.81,6,45.62,12.8,30.82,10.41,40.82,16,56.83,31.22,16,15.61,19.61,21.61,19.61,32.82,0,17.6-6,23.61-22.81,23.61-28,0-53.63-19.61-79.24-60-21.61-34.42-44.82-38.82-113.66-21.21l-42.42,11.2,44.82,2c42.43,2,45.63,2.8,60,14.41,21.21,17.21,21.61,27.21,2.4,37.22-14.41,7.2-57.23,15.21-95.25,17.61-16,.8-9.61,2.4,132.87,30.81,42.82,8.81,74.83,21.61,72.43,28.82-4.4,12.4-20.41,15.6-69.23,13.6-102.45-4.4-175.69-27.61-243.72-78-24.42-18.41-29.62-20.42-47.63-20.42-18.81,0-19.61.41-12.41,6,4,3.2,9.61,6,12,6,6.4,0,39.62,36,47.22,51.63,6,11.2,6,12.8.41,14.8-8,3.21-7.61,9.21,2,30,16,36,5.6,62-27.62,66.43-22.81,3.2-42.42-7.2-52.82-27.61-4.41-8.41-8.41-15.21-8.81-15.21-.8,0,.4,10.81,2.8,23.61,4.4,28-.4,50-15.2,67.24l-9.61,11.2-8.8-8c-16-14.41-20.81-32.82-19.21-72,1.6-30.41,1.2-33.61-2.4-22-2.41,7.6-6.81,18-9.61,22.81-10.8,19.21-46,27.62-63.63,15.21s-19.21-44.42-3.2-68.83c6.4-9.61,4.4-17.21-7.61-26-4-2.8,18.41-35.22,36.42-52,9.61-9.21,45.22-26,45.22-21.61,0,.8-6.8,13.2-15.2,27.61s-17.61,33.62-20.81,42.42c-2.8,9.21-6.81,16.41-8.41,16.41-7.2,0-7.2-8.81-.4-30,4-12,6.4-22,5.2-22-1.6,0-8.4,9.61-15.6,20.81l-12.81,21.21,14,12.81c26.41,24.81,48.42,13.21,61.63-32.82,4.4-15.2,7.6-28.41,6.8-29.21s-7.6,9.6-14.81,23.21c-11.6,22-30.41,42.82-34.41,38.42-1.2-.8,9.2-20.41,22.41-43.22,13.6-22.81,24.41-43.62,24.41-45.62,0-4.81-64.83-2.41-68,2.4-1.2,1.6-18,13.6-38,26.41-68.84,45.22-146.48,66.83-238.92,67.23-43.22.4-52-.8-58-6.4-6.4-6.8-6.4-7.6.8-13.21,13.21-10,56-20.41,136.07-34,84-14.41,102.85-19.21,74-20-47.23-.8-104.06-12.81-114.46-24.42-6-6.8-6-8,0-17.6,13.6-20.41,24-24,75.23-24,25.62,0,45.63-1.2,44-2.4-6.41-5.2-84.85-23.61-101.25-23.61-25.22,0-43.63,10.81-58.43,34-20.41,32.81-30,42.82-46.83,50.42-29.61,13.21-50.42,8.41-50.42-11.2,0-32.42,37.62-59.63,106.05-77.24l28-7.2-35.22-2.81c-59.63-5.2-71.64-2.4-137.67,28.82-32.42,15.61-64.43,29.61-70.44,31.21-26.41,5.61-35.21-8.8-15.6-26.81,8.8-8.8,44.82-27.61,68.83-36.42,3.2-1.2.8-2.4-5.6-2.4-16.81-.4-80.84,22-100.05,35.22-9.21,6.4-22,18.81-28,27.61-26,37.62-20.41,76.84,13.61,99.25,13.61,8.81,19.21,10.41,36,8.81,32-3.21,50-26.82,40.42-52.43-4.8-12.41-21.61-18-30.82-10.81-8.4,7.21-17.2-1.2-11.2-10.8,10.8-17.61,44.42-11.21,55.23,10.4,20,38.42-11.21,80.44-60,80.44-40,0-77.64-38-77.64-78,0-17.21,10.8-44,24.41-61.23,24.81-31.62,79.64-55.23,141.67-60.43l40-3.21-40-.8c-58.43-.8-115.66-17.21-126.06-36-7.2-13.57-6.21-24.36,1.6-31.3H2.89a14.8,14.8,0,0,1,0-17.58H1647.11a14.8,14.8,0,0,1,0,17.58ZM1214.9,974.45c22,30.42,54.83,42.43,57.63,21.62,2-14-9.2-27.62-31.21-38.82-24-12-30.82-12.81-12.81-1.6,12.41,8,17.61,19.6,8.41,19.6-2.41,0-9.21-3.2-14.81-7.2C1201.7,953.64,1200.9,954.44,1214.9,974.45ZM788.69,1101.72c-2.8,3.2-12,9.6-20,14l-15.21,7.6-10-12.41-10.41-12-10,22.81c-5.6,12.4-10,24-10,25.61,0,4.4,23.22,12,35.62,12,17.61-.4,30.82-15.21,42-47.23C797.1,1093.71,796.7,1092.11,788.69,1101.72Zm-317-36c-33.61,8.4-41.62,12-36.41,14.81,6.4,3.6,70.43,1.6,93.64-2.8,43.62-8.81,84-20.41,85.65-24.82,1.6-3.6-1.2-4-10.81-1.2-22,6.81-27.61,7.61-34,4-5.6-3.21-4-4,35.22-11.21,5.2-.8,10.81-2.4,11.61-3.6C623,1034.48,541.37,1048.49,471.73,1065.7Zm-41.22-99.25c-12.8,16.41-19.21,16.41-15.6.8,1.6-6.8,2-12,1.2-12s-8.81,4.4-18,10c-12,7.2-17.21,13.61-19.21,22.41-6.8,30,29.21,21.21,54-13.21C447.32,954.84,444.92,947.64,430.51,966.45ZM1381,855.2c9.2-4.41,21.61-10,27.61-12.41l10.81-4-8.81,9.2c-5.2,4.8-16.81,12-26,16l-17.21,7.6,26.41-2.4c36.42-2.8,63.23-12.4,68.44-24.41,2.8-6,3.2-11.21.8-13.21-12-11.2-56.43-2.4-86,17.21C1356.58,862.4,1359,866.4,1381,855.2ZM1317.36,924c38.41,18,80.44,35.22,85.64,35.22,7.2,0-37.22-23.61-68.44-36.42C1296.94,907.62,1284.14,908.42,1317.36,924ZM1056,1062.9c60.43,16,157.28,26.41,157.28,16.41,0-4.81-18-9.61-23.61-6-2.4,1.2-4.4.8-4.4-1.6,0-5.2-22-10.8-54-14.4-13.2-1.6-38.42-6.41-56-10.41s-36.41-7.6-42-7.2c-9.6.4-9.2.4,2,4.4a151.06,151.06,0,0,1,20.81,8c4.81,2.4,11.61,3.2,15.21,1.6,4-1.6,5.61-.8,3.6,2-1.6,3.2.4,3.6,6,1.6,5.2-1.6,8.4-.8,8.4,2,0,2.4,2,3.2,4,2,2.4-1.2,4-.4,4,2s-3.21,3.6-6.81,2.4c-18.41-5.2-62.43-14.41-64-12.81C1025.61,1053.69,1038.82,1058.1,1056,1062.9Zm-110.45-70c69.23,5.21,158.08,6.81,173.29,3.61,19.21-4,22-10.41,8.4-16.41-14.41-6.41-18-6-15.61,2,2,6,1.2,6-4.4-.8-4.8-6.41-7.2-6.81-9.6-2.8-2.81,4.4-3.61,4.4-5.61-.8-2-5.61-10.4-6.41-55.62-6-60.83.8-91.25,4-110.86,12.81L912,990.06Zm-70-7.2c31.22-5.6,45.63-10.81,57.63-20.81,14.81-12.81,16.41-30,3.21-39.22-10.41-7.2-25.62-8-37.22-1.6-11.21,6-34,27.61-38.82,37.22-4.4,7.6-4,7.6,5.2.8,19.61-14.41,40.82-22.41,48.42-18.41,14.81,8,8.81,13.61-26.41,25.61C859.13,978.86,851.12,990.06,875.53,985.66Zm21.62-26.41c5.2-3.2,5.2-4-.8-4-3.61,0-8,1.6-9.21,4C883.94,964.45,889.14,964.45,897.15,959.25Zm-2.81,66.83c-.8,2.4,2.81,13.61,8.41,24.81,10.8,20.81,13.61,34.82,6.4,30.42-2.4-1.6-9.2-12.81-15.61-25.21a403.8,403.8,0,0,0-24-40c-6.8-9.21-15.61-16.81-19.21-16.81-5.6,0-5.6,1.2,1.6,8.8,4.41,5.2,14.81,21.61,23.21,37.22,8.41,15.21,18,31.22,21.22,34.82,3.2,4,4.4,7.2,2.4,7.2-10,0-21.61-14.41-34-42-13.21-29.61-22.41-40.82-15.61-19.21,2,6.4,6.41,20.81,10,32.42,7.2,22.81,23.21,44.82,32.41,44.82,7.61,0,29.62-23.61,29.62-31.62S895.94,1020.88,894.34,1026.08Zm-24.41,114.86c12.81,15.61,33.62,22,48.83,15.2,12.4-5.6,14.4-15.2,7.6-38.41l-6-19.61-9.61,10.4c-5.6,6-13.2,10.81-17.61,10.81-14,0-35.21-23.21-44.42-48.43-4.8-12.8-9.2-23.61-10-23.61C830.71,1047.29,856.33,1124.93,869.93,1140.94Zm-51.22,42c6,4.8,7.6,4.8,13.2-.8s6-13.21,1.2-77.64c-4.8-67.63-10.8-101.65-12.4-69.24-.4,7.61-1.2,17.61-1.6,22-.8,4.4-2.4,33.21-4,64C812.3,1171.35,812.7,1178.16,818.71,1183Zm-36-321c2.8-14.81,19.61-34.82,29.21-34.82,7.61,0,10.81,10,6.81,23.21-2,8-3.2,9.21-4.41,3.6-2.4-9.2-8-8.8-13.6,1.61-8,15.6,7.6,87.64,23.21,103.65,3.6,4,3.2,1.6-1.6-8-7.61-14.8-8.41-46.82-1.6-58.83,2.8-5.6,4.4-4,6.4,8,1.6,8.4,2,23.21.8,33.21-.8,9.61-.4,17.61,1.6,17.61,1.6,0,4-10.4,5.6-23.21,4-36.42,10.41-48,8-14.81-1.6,22.82-1.2,26.42,2.8,20,2.4-4.4,5.6-22.81,6.4-40.42,1.6-29.61.8-33.61-7.2-41.62-4.8-4.8-11.21-7.6-14.41-6.4-7.6,2.8-7.2-7.2.4-13.61,9.61-8,25.22,1.2,32.82,18.81,8.4,20.81,5.2,62.83-6.8,86l-8.81,17.2,17.21-18.81c19.61-20.81,32.82-27.21,56-27.21,30,0,49.62,32,33.61,54.83-5.6,8-4.8,8,22.82-2.4,24.41-8.81,29.21-12,32-22.41,4.4-15.21,1.6-34.42-10.8-72.44-5.42-16.48-8.93-31.56-9.88-40.5H663.19c-2.09,7.3-5.79,18.5-10.17,30.09-14.4,39.62-18.41,70.84-11.2,84.85,3.6,6.8,12.81,12.4,29.21,18,13.21,4.4,26.82,10,30,12,5.2,3.2,5.2,2.8.4-3.2-2.8-3.6-5.6-14-6-22.41-.8-43.22,55.22-50.43,93.24-12l13.21,13.61-6-12C786.69,914.42,779.89,877.61,782.69,862Zm40.82,66.43c-1.2-1.6-2.4.8-2,5.2,0,4.41,1.2,5.61,2.4,2.41C825.11,933.23,824.71,929.63,823.51,928.43Zm-46,54c13.6-1.6,13.2-1.6-13.21-14.41-26.81-12.8-34-22.41-20.81-27.61,3.2-1.2,16.81,3.2,29.61,10,28,14.41,28,7.21-.4-13.2-25.61-18.81-43.62-22-55.22-9.61-10.81,11.61-10.81,16.41,1.6,31.22C731.46,973.25,759.08,984.46,777.49,982.46Zm-226.92-6c-1.2,4-4.8,6.8-7.6,6.8a7.22,7.22,0,0,1-6.8-5.6c-.8-4-3.61-4.41-10-2-13.21,4.8-11.2,14,3.2,19.2,16.81,5.61,105.66,5.21,163.68-1.2l46-4.8-22-7.2c-15.61-4.8-42.42-7.61-92.85-9.21C560.58,970.45,553,970.85,550.57,976.46ZM244,952.84c-4,6,3.6,8,10,3.21,2.8-2,23.21-10.41,45.62-18.81,22.41-8,44-17.21,48-20.41,4-2.81,5.61-5.21,3.2-5.21C342.07,912,246.82,949.24,244,952.84ZM192.4,847.59c9.2,11.61,28.41,17.61,74,23.61,15.61,2,32.42,4.81,36.42,6.41,16,6-32.82-32-52-40.82-28.41-12.41-48-14.81-58-6.41l-8.41,6.81Zm60.52-23.29c16.22,6.24,33.88,16.13,55.93,31.3,12.81,8.4,30.82,18.4,40.42,21.61,18.81,6.8,84.05,19.21,86.45,16.4.8-.8-19.61-13.2-45.63-27.61-36.49-20.15-59-32.65-74.22-41.7Zm104,8.88c0-.42-3.22-3.84-8.23-8.88h-7.22C350.51,830.22,356.88,834,356.88,833.18Zm7.47-8.88c53,50.29,65.82,55.77,14.54,4.48-1.48-1.49-3-3-4.45-4.48Zm32.55,0c7.22,6.48,12,10.4,12,9.68,0-.47-1.53-4.07-4.1-9.68Zm28.74,0c1,10.34,4,19.05,9.28,29.69a85.74,85.74,0,0,0,54,44.43c7.61,2,17.61,5.2,22,7.2,4.81,1.6.4-5.2-11.2-17.61-19.46-21-31.52-42.13-36.37-63.71Zm53.24,0c4.81,14,12.2,27.88,21.67,38.9,7.2,8.4,6.8,7.2-1.6-8a234.86,234.86,0,0,1-14.06-30.9Zm16.09,0c16.41,38.38,29.06,59.3,21.19,34.9-1.75-5.55-5.64-19.62-9.62-34.9Zm19.25,0c5.39,20.5,6.07,19.5,4.34,2.88-.09-.89-.22-1.9-.33-2.88Zm15.54,18.49c2.4,32,6,60.43,8.81,63.23,2.4,2.8,21.61,10.81,42.82,18.41l38.82,13.21-12-23.22c-13.94-27.7-21.1-60.77-21.78-90.12H528.27C528.8,830.12,529.31,836.21,529.76,842.79Zm72.82-18.49a104.39,104.39,0,0,0,1.62,14.89c3.18,17.47,3.2,17.17,5.94-14.89Zm20.27,0c.33,4.85.65,10,1,15.29l2.4,49.22L633.42,868c6-17.75,12.92-33.34,18.73-43.7Zm373.43,0c3.55,7,8.72,18.08,13.72,30.09,13.21,30.42,15.21,33.22,15.21,20.81-.4-7.6-5.2-25.61-11.21-40-1.71-4.11-3.09-7.61-4.3-10.89Zm22.75,0c.94,7,2.21,13.09,3.78,16.89,3.2,7.6,6.4,14,7.2,14s.8-13.81,0-30.9Zm22,0c.32,5.05.53,10.56.61,16.49l.4,24.41,4-18a138.66,138.66,0,0,0,2.07-22.89Zm23.37,0c-.91,28.15-7.91,59.63-21.16,86.12-7.61,14.81-12.81,27.22-12,28.42.8.8,7.61-1.2,14.81-4.81,7.2-3.2,23.21-8.8,35.62-12.4,34.42-9.61,36-13.21,42-82,.46-5.45.93-10.47,1.4-15.29Zm92.45,0c-4.08,19.47-10.68,37.27-13.56,34.1-1-1,1.13-15.33,4.6-34.1h-7.22c-.41,4.85-.75,9.82-1,14.89l-2,38,8-10c9.88-12.07,17.37-27.4,21.84-42.9Zm27.12,0c-5,22.38-16.24,45.1-33.08,65.71-16.81,20.41-12.4,21.21,22.41,4,35.1-17.4,50.57-37,51.13-69.71Zm65.51,0c-.67,1.48-1.39,3-2.14,4.48l-6.4,12,9.2-8c2.8-2.33,6.24-5.46,9.37-8.48Zm44.24,0h-12.07c-2.08,2.25-4.17,4.52-6.3,6.88-9.2,10-23.61,24-32,31.22-8.81,7.2-12.41,11.2-8,9.2s16.41-10.8,26.82-20c18-16,26.41-20.81,20.81-11.6-3.2,5.2,4.4,1.2,14.41-7.21,1.87-1.46,6.94-4.67,13.48-8.48h-7.75c-8.82,6.35-15.49,10.34-16.54,9.28C1285.92,833.06,1288.84,829.47,1293.7,824.3Zm46.61,0c-19.23,11.79-43.82,25.33-74.18,40.9-29.21,14.81-52.43,27.61-52,28,2.41,2.41,74-10,89.25-15.2,8.8-3.2,31.61-15.61,50-28a266,266,0,0,1,50.19-25.69Z"/><path fill="FRAME_COLOR" d="M256,851.59c14.8,6.81,24.81,13.21,22,14.41-4.4,1.6-53.23-21.21-53.23-24.81S228.41,838.79,256,851.59Z"/><path fill="FRAME_COLOR" d="M547,1061.7c-7.6,1.2-14,4-14,6s-3.6,1.6-8-1.2c-7.6-4.8-6.8-5.6,8.81-10,22-5.61,27.21-6,27.21-1.21C561,1057.3,554.58,1060.1,547,1061.7Z"/><path fill="FRAME_COLOR" d="M507,1068.9c-3.2,1.2-6,.4-6-1.6,0-2.4,2.8-4,6-4s6,.8,6,1.6S510.15,1067.3,507,1068.9Z"/><path fill="FRAME_COLOR" d="M1109.25,1059.3c2.4,0,4,.8,4,1.6,0,1.2-1.6,3.2-4,4.4-2,1.2-4,.4-4-1.6A4.38,4.38,0,0,1,1109.25,1059.3Z"/><path fill="FRAME_COLOR" d="M1121.26,1059.3a3.69,3.69,0,0,1,4,3.6,7.6,7.6,0,0,1-4,6.4c-2,1.2-4-.4-4-3.6C1117.26,1062.1,1119.26,1059.3,1121.26,1059.3Z"/><path fill="FRAME_COLOR" d="M1159.28,1067.7a46.29,46.29,0,0,1,16,3.6c7.21,3.2,7.21,3.6-2,3.6-5.6,0-12.8-1.6-16-3.6C1152.47,1068.1,1152.47,1067.3,1159.28,1067.7Z"/><path fill="FRAME_COLOR" d="M971.18,1068.5c4.41,3.2,21.61,10.81,38,16.81,42.82,16,58,24,74,40,23.21,23.61,18,46-10.81,46-33.61,0-57.63-18-91.64-68.43-12.81-19.61-23.61-36.42-23.61-37.62C957.18,1061.7,963.18,1062.9,971.18,1068.5Zm64,75.24c14.41,13.21,42,16,42,4,0-4-4.41-10.8-9.61-16-5.2-4.8-18.81-12.4-30.81-16.41-18.81-6.8-20.41-7.2-11.61-1.2,22.81,16,39.22,37.22,28.81,37.22-1.6,0-14-9.2-27.21-20.81C1004,1110.52,1010.8,1121.33,1035.21,1143.74Z"/><path fill="FRAME_COLOR" d="M639,1086.91c24.41-10.4,46.42-19.21,49.22-19.21,2.8-.4-6.4,16.41-20.41,36.42-35.22,52-72.43,75.24-102.45,64.43-8.8-2.8-10.4-6-10-18.41C556.18,1125.33,564.18,1119.33,639,1086.91Zm-51.23,68.43c12,0,17.61-3.2,32-18.4,10-10,16.41-19.61,15.21-20.81-1.6-1.61-5.61,1.6-9.21,6.8-6,8.8-33.22,28.41-39.62,28.41-2,0,6.8-8.8,18.81-19.61s21.21-20.41,20-21.21-9.6,2.4-18.41,6.81C571,1134.53,560.58,1155.34,587.79,1155.34Z"/><path fill="FRAME_COLOR" d="M149.17,1083.31c7.61,0,40,28.41,37.62,32.42-7.6,11.6-42-8.81-42-25.22C144.77,1086.51,146.77,1083.31,149.17,1083.31Z"/><path fill="FRAME_COLOR" d="M1480.64,1094.51c17.61-12.8,24.81-13.6,24.81-3.6,0,11.21-18,28.42-30,28.42C1460.63,1119.33,1463,1107.32,1480.64,1094.51Z"/></g></g></svg>