<svg xmlns="http://www.w3.org/2000/svg" viewBox="0 0 1650 980.75"><title>Asset 57</title><g id="Layer_2" data-name="Layer 2"><g id="Layer_1-2" data-name="Layer 1"><path fill="FRAME_COLOR" d="M1650,229.27l-11-15.89-63.09,1.12,60.32-62.58-183.4,9.14-14,15.07h-79.18L1304,221.68h-58.09a118.12,118.12,0,0,0,7.93-8.93l4.3-5.41-6-3.39c-21.26-11.93-46.14-16.16-70.73-13.23-2.74-10.9-6.75-20.81-15.42-27.71-6.13-4.88-14.22-7.76-24.72-8.81a113.9,113.9,0,0,0,7.24-63.47l-1.16-6.81-6.54,2.23a111.68,111.68,0,0,0-38.87,23.18,31,31,0,0,0-15.76-12.66h0c-6.78-2.31-13.48-1.8-20-1.3a71.31,71.31,0,0,1-10,.3,68.74,68.74,0,0,1-7.37-1,61.43,61.43,0,0,0-11.52-1.31,35.74,35.74,0,0,0-17.85,5.19,49.61,49.61,0,0,0,3.5-5.8c2.88-5.6,4.12-10.72,3.8-15.63-.46-6.87-4.21-12.83-9.8-15.57-5.41-2.66-11.92-2.16-18.65,1.32a61.11,61.11,0,0,0,2.79-11.43c1.07-7.5.48-13.76-1.8-19.15-3.13-7.41-9.53-12.57-16.7-13.45-8.26-1-16.6,3.46-23.49,12.63h0a67.81,67.81,0,0,0-11.26,23.34,86.91,86.91,0,0,0-2.53,22.53c0,4.45.42,9.13,3.23,13.19a15.21,15.21,0,0,0,2.94,3.11c-1.6,3.71-3.25,7.4-5,11.06a52.57,52.57,0,0,0-14-8.54A51.13,51.13,0,0,0,915.85,93a50.38,50.38,0,0,0-.37-6.79c-1-8-3.7-16.1-8.78-26.15A211.16,211.16,0,0,0,881,21.45c-6.47-7.9-13.84-15.68-23.89-19.21C848.88-.64,840.26-.2,832.92.61c-24,2.65-45.16,10.83-61.08,23.65a83.38,83.38,0,0,0-22.5,27.83,61.62,61.62,0,0,0-18.23-2.46c-16.35.1-32.22,4.86-47.08,9.74-9.58,3.14-18.85,6.47-26.87,11.94a19.47,19.47,0,0,0-6.74-.49l-.18-.17a16.56,16.56,0,0,0,1.93-7.05c.21-4.16-.91-8.38-3.52-13.27A52.23,52.23,0,0,0,622.2,26.75c-5.87-2.32-11.08-3.05-15.93-2.24-6.79,1.13-12.36,5.45-14.54,11.27a18,18,0,0,0,.16,12.46c-.3,0-.59,0-.89,0-8,.25-15.19,6.71-20.09,18.18a96.44,96.44,0,0,0-5.59,17.72c-1.4-2.72-2.85-5.42-4.39-8.07-3-5.12-6.45-10.39-11.6-14.27C543,57,535,55.55,528.55,57.94h0c-5.91,2.17-10.7,7.55-12.82,14.37-1.87,6-1.52,12.15-1,16.83.3,2.67.71,5.32,1.21,8A69,69,0,0,0,498.25,88c-10.12-3.42-18.93-2.42-24.81,2.81-4.4,3.91-6.71,10.18-6.31,16.78A121.59,121.59,0,0,0,415,113.8l-6.52,2.29,3.3,6.08a114.89,114.89,0,0,0,20.44,27,18.58,18.58,0,0,0-4.25,7.34,19.24,19.24,0,0,0,1.66,14.1A120.53,120.53,0,0,0,413.05,172c-30.5,4.64-60.66,21.32-82.77,45.75l-3.56,3.94H298.85v-7h-15l.31-12.57L221,212.82l36.28-56.41L0,222.2l254.08,80.35-26.14-53L282.8,258l.35-14.32h15.7v-3.14h60.57a153.1,153.1,0,0,0,52.5,9.08c1.15,0,2.29,0,3.44-.07-20,18.54-34.64,44.58-41.05,72.83h22.85q26.37-21.64,54-41.64c1,.1,2,.14,3,.14a43.79,43.79,0,0,0,6.27-.5q6.53-.9,12.85-2.32c-1.53,3.21-2.94,6.47-4.19,9.81a44.85,44.85,0,0,0-1.4,4.37,144.37,144.37,0,0,1-61.2,30.14h35.84a161.5,161.5,0,0,0,25.35-15.26,15.26,15.26,0,0,0,4.77,6.74A16.36,16.36,0,0,0,483,317.4c5.45,0,10.46-2.09,12.71-3a155.15,155.15,0,0,0,20.07-10.14,112.81,112.81,0,0,0-1,12.14c-.05,1.88-.05,3.9.09,6h11.83a44.85,44.85,0,0,1-.15-5.64c.58-19.46,7.24-40.61,20.36-64.67,3-5.49,6.28-10.89,10.29-15.14l-.56,1.39c-.64,1.57-1.32,3.28-2.05,5.09-.38.88-.72,1.85-1,2.85s-.68,2-1,3c-1.38,4.1-2.84,8.48-4.31,12.85-1.18,4.42-2.35,8.84-3.46,13-.27,1-.54,2.05-.81,3s-.52,2-.69,2.93l-1.1,5.4c-1.34,6.67-2.23,11.12-2.23,11.12l4-10.6c.6-1.58,1.24-3.29,1.93-5.1.32-.91.72-1.83,1.15-2.75s.84-1.88,1.28-2.84l5.42-12,6.1-11.56,1.15-2.2c-2.4,14.42-2.56,29.6-2.38,45.07h0c0,1.67,0,3.31.09,5-4.48,8.1-9.2,16.21-12.66,21.83h13.75c.25-.43.5-.84.75-1.28.09.43.2.85.3,1.28h12.12c-2.09-8.06-2.46-17.09-2.58-26.92h0c-.24-21,.14-41.44,6.3-59.35l.3-.08,3.36,68,7.59-67.92a22.7,22.7,0,0,0,3.23.84c.23,1.38.45,2.89.67,4.56,1.32,10.14,1.85,21.77,2.23,30.27.08,1.74.15,3.35.23,4.79.79,15.68,1.53,30.64-2.06,45.76h12c.18-.87.36-1.74.52-2.61.47.88,1,1.75,1.49,2.61h14.3c-4.59-5.45-7.74-12.49-10.59-19.4-1.1-2.68-2.21-5.46-3.3-8.32,0-6.28-.34-12.49-.65-18.63-.08-1.43-.15-3-.23-4.73-.05-1.12-.1-2.22-.15-3.31.21.6.43,1.21.64,1.82,1.85,4.48,3.7,8.95,5.43,13.15.89,2.09,1.63,4.14,2.55,6s1.73,3.65,2.5,5.29c3.09,6.52,5.14,10.88,5.14,10.88s-1.36-4.61-3.41-11.53c-.52-1.72-1.07-3.59-1.65-5.56s-1-4.11-1.6-6.28l-3.32-13.65c-.84-4.46-1.69-8.92-2.49-13.12l1.95,3.13c5.74,9.12,12.6,19.58,21.33,28.38q1.74,1.74,3.53,3.36c2.63,10.8,3.26,20.78.79,31.3-.11.44-.22.81-.32,1.21h17.5q4.4-8.72,9-17.33c.48.12,1,.25,1.44.36s1.08.24,1.61.34c1.18,1.22,2.4,2.39,3.66,3.53a130.32,130.32,0,0,1-3,13.1H679c.45-1.73.89-3.46,1.27-5.21a81.93,81.93,0,0,0,9.82,5.21h87.05c2.42-1,4.78-2.15,7-3.37a79.73,79.73,0,0,0,28.71-25.56,37.38,37.38,0,0,0,12.55,2.12,44.14,44.14,0,0,0,18.7-4.27c8.86-4.14,16.87-11.22,23.17-20.46,1-1.49,2-3,2.85-4.59a46.56,46.56,0,0,0,13.61-4c10.45-4.84,18.68-12.81,24.68-19.21,1.25-1.33,2.47-2.67,3.68-4,3.78,6.2,6.13,14.33,7.44,25.5,1.56,13.35.86,23.56-2.19,32.14-3.69,10.35-11.44,18.41-20.24,21-1.09.33-2.28.6-3.53.9-3.38.79-7.09,1.66-10.41,3.78H913c.61-.47,1.23-.92,1.82-1.43.32.49.68.95,1,1.43h14.72a104.7,104.7,0,0,1-7.69-10.63,50.85,50.85,0,0,0,5.58-11.13,63.34,63.34,0,0,0,3.19-14.27q12,18.23,24.85,36H971q-20.76-28.32-39.52-57.83a52.47,52.47,0,0,0,11.92-2.19,143.53,143.53,0,0,1,43.29,60H1026c6.44-6.74,10.31-15.14,12.67-20.89.11-.26.21-.53.31-.79a77.53,77.53,0,0,0,14.71,21.68h18.79c-16.7-9.69-25.84-29.42-28.88-46a133.26,133.26,0,0,1-1.44-32.75,7.06,7.06,0,0,0,1.12-1.37,14.73,14.73,0,0,0,4.33,4.89c.56,1.62,1.52,4.4,2.74,7.91.49,1.42,1,3,1.59,4.59s1.35,3.37,2.06,5.16c1.48,3.54,3,7.33,4.62,11.11l5.26,10.69c.87,1.69,1.58,3.37,2.48,4.86l2.43,4.25,5,8.71-3.32-9.46-1.6-4.57c-.6-1.6-1-3.38-1.53-5.17-1-3.59-2.08-7.42-3.16-11.25-.82-3.84-1.64-7.69-2.42-11.3-.35-1.81-.81-3.46-1-5.19s-.5-3.32-.73-4.81c-.13-.89-.26-1.72-.38-2.51a14.78,14.78,0,0,0,3.37-.92c.34-.15.66-.31,1-.48l1.11,1.44,2.17,2.81c.74,1,1.77,2,2.7,3.12l6,6.66,6.36,6.05c1,.94,1.93,1.92,3,2.71l2.79,2.27,5.71,4.63-4.37-5.89-2.1-2.83c-.77-1-1.4-2.17-2.15-3.3-1.43-2.3-3-4.75-4.5-7.2-1.31-2.51-2.62-5-3.84-7.39-.6-1.2-1.23-2.22-1.71-3.42l-1.41-3.26L1071.4,240c0-.14.09-.28.14-.42a79.21,79.21,0,0,0,19.14,7.75,159.78,159.78,0,0,0,31.84,5.59c1.43,1.61,2.82,3.26,4.15,5,8.18,10.37,12.31,19.71,12.61,28.54s-4.75,19.53-13.41,21.7a34.88,34.88,0,0,1-5.62.73c-3.92.32-8.37.67-12.6,3.05-3.89,2.19-6.48,5.49-8.77,8.41-.55.7-1.1,1.38-1.64,2h15.94c.08-.05.16-.13.25-.18,2-1.11,4.65-1.32,7.76-1.57a45,45,0,0,0,7.54-1.05c8.43-2.11,14.54-8.13,18.22-15.37a114,114,0,0,0,15.8,8.65,124.12,124.12,0,0,0,34.34,9.52h36.54a138.87,138.87,0,0,0,18.11-3.63l6.68-1.8-2.85-6.3c-11.37-25.16-30.67-46-54.48-60.71a107.13,107.13,0,0,0,20.75-9.4h85.53l49.71,50.18,24.81-4.85,16.38,10.24,80.18-3.67L1502.9,307l127.4,2.34-55.36-62.94,63.14-.8ZM31.13,223.81,28.56,223l211.32-54-12.51,19.45-37.43,40.25Zm1199.65-16.56q-22.53,4.13-45.23,7.05a100.41,100.41,0,0,0-1.66-12.07A107.43,107.43,0,0,1,1230.78,207.25ZM1129,104.24q-10.18,16.65-21.13,32.79a48.18,48.18,0,0,0-.82-15.49c0-.26-.13-.5-.19-.76A104.36,104.36,0,0,1,1129,104.24Zm9.35,7.28a98.34,98.34,0,0,1-9.9,42.35,92.47,92.47,0,0,0-20.06,3.16Q1124,134.78,1138.35,111.52ZM1001.2,74.76c4.23-2.85,8.18-3.86,10.56-2.69,1.73.85,3.06,3.23,3.23,5.78.18,2.72-.64,5.82-2.52,9.47a40.25,40.25,0,0,1-20.09,18.51c-3,1.25-5.42,1.73-7.32,1.44-1.47-.22-2.88-1.15-3.14-2.07-.33-1.17.46-3.48.84-4.58a59.86,59.86,0,0,1,6.63-14A43.7,43.7,0,0,1,1001.2,74.76Zm5.22,110.7c.71.53,1.49,1.09,2.31,1.69s1.61,1.35,2.46,2l5.21,4.5,4.71,4.81c.06.06.12.11.17.17a15,15,0,0,0-5.93,12.74l-1.93.71c-.82.32-1.78.54-2.73.84s-2,.6-3,.8l-3.15.71-3.21.51c-1.06.2-2.12.27-3.14.37s-2,.24-3,.25l-2.69.09a23.34,23.34,0,0,1-2.37,0c3.57-7.13,7.16-15.86,8.26-25.35,1.22-10.42-.7-21.58-5.45-32.45a105.25,105.25,0,0,1,33.27,34.39l-.06,0-6.48-3.43-6.61-2.83c-1.05-.42-2-.92-3-1.23l-2.78-.93-5.69-1.9Zm15.65,38.89a7.79,7.79,0,0,0-.63.51c-2.64.71-5.41,1.21-8.14,1.68a256.41,256.41,0,0,1-31.6,4c2.11-3.26,4.18-6.75,6.22-10.53.58-1.07,1.17-2.2,1.77-3.37.74.28,1.59.6,2.57.88l2.66.8c.94.31,2,.49,3,.76s2.15.53,3.28.7l3.44.58,3.49.38c1.16.15,2.3.17,3.42.23s2.18.13,3.25.09l3-.07.83,0A15.28,15.28,0,0,0,1022.07,224.35Zm-19.93-106c-3.71,8.56-4.93,18.6-3.67,29.12q-4.28-2.7-8.76-5c-2.86-1.45-5.64-2.69-8.36-3.75a148.65,148.65,0,0,0-13.61-14.94q4.53-3.54,8.76-7.46a16.74,16.74,0,0,0,6.83,2.62,19.76,19.76,0,0,0,2.89.21,27.81,27.81,0,0,0,10.66-2.42,49.9,49.9,0,0,0,8.58-4.6A43.79,43.79,0,0,0,1002.14,118.31ZM959.22,57.73a55.83,55.83,0,0,1,9.29-19.24c2-2.63,7.17-8.68,12.63-8,2.91.36,5.84,2.92,7.3,6.35s1.74,7.59,1,12.91a51.47,51.47,0,0,1-16.55,30.79c-3.3,2.92-6.06,4.51-8.7,5-2.4.45-5-.3-6-1.74s-1.13-4-1.14-6.54A75.71,75.71,0,0,1,959.22,57.73Zm3.42,39.69h.14a19.68,19.68,0,0,0,3.57-.33,24.31,24.31,0,0,0,5.86-1.95c-.2.55-.4,1.1-.59,1.66a21.55,21.55,0,0,0-1.45,9.28A131,131,0,0,1,959,115.63l-3.32-3Q959.37,105.12,962.64,97.42Zm-183.41-64c14.16-11.41,33.18-18.71,55-21.12,6-.67,13-1.06,19,1,7.68,2.69,13.67,9.44,18.68,15.56,10.32,12.58,18.27,24.51,24.3,36.47,4.44,8.78,6.79,15.66,7.6,22.28a32.2,32.2,0,0,1-3.29,19.53,46.87,46.87,0,0,0-2.53-6.88c-4.42-9.61-11.3-17.42-18-25-1.21-1.38-2.42-2.75-3.61-4.13L875,69.61C869.35,63,862.93,55.5,853.75,51.75c-11.74-4.8-24.59-2.27-34.91-.24-10.15,2-20.65,4.07-30.78,7.78-11.77,4.32-21.26,10.31-28.21,17.8a56,56,0,0,0-6,7.68c0-.76-.08-1.53-.08-2.29C753.67,64.7,763.17,46.36,779.23,33.43Zm51.82,101.15c-1.32.4-2.62.88-3.9,1.4-8.22-8-22-10.79-34.63-6.7a41.7,41.7,0,0,0-8.33,3.77,48.06,48.06,0,0,1,12.51-14.34,49.2,49.2,0,0,1,27-10.27c.72,0,1.43,0,2.15,0a39.46,39.46,0,0,1,24.25,8,34.77,34.77,0,0,1,12.32,19.44,39.6,39.6,0,0,1,.91,9.81,23.66,23.66,0,0,0-8.27-9.11C848.65,132.56,840.12,131.85,831.05,134.58Zm3.29,44c-1.3.26-2.57.55-3.75.83l-1.89.44a71.44,71.44,0,0,1-33.69-.57l-1.67-.46c-1.25-.35-2.59-.71-4-1,3.51-6.3,11.25-12,19.41-14.18s16.67-1,21.49,2.8A11.84,11.84,0,0,1,834.34,178.61Zm-38.2-38.12c7.79-2.53,18.49-1.59,23.88,5.08a18.51,18.51,0,0,1,3,5.63,42.45,42.45,0,0,0-17.33,1.08c-11.58,3.13-21.88,10.91-26.89,20.3-.32.6-.61,1.2-.88,1.8a46.89,46.89,0,0,1,0-17.71c.09-.43.19-.86.28-1.29A32.13,32.13,0,0,1,796.14,140.49Zm-12.79,48.38h.42a30.8,30.8,0,0,1,6.43,1.32l1.81.49a83.23,83.23,0,0,0,39.26.68l2-.48a33.74,33.74,0,0,1,6.91-1.17c2,0,3.75.52,4.46,1.4,1,1.22.73,4.09-.62,7.13-2.88,6.48-8.76,12.59-17.47,18.18a61,61,0,0,1-7,3.85c-1-.86-2.06-1.59-2.93-2.19-2.4-1.67-4.86-3.3-7.24-4.88-7.89-5.23-15.35-10.17-21.06-16.73a44.51,44.51,0,0,1-5.29-7.6Zm54.25-31.62c-.49-.38-1-.76-1.51-1.11a41.41,41.41,0,0,0-2.41-10l.77-.25c5.69-1.71,10.93-1.46,14.38.7a13.4,13.4,0,0,1,5.61,9c.71,3.71.38,8-1,13a52.22,52.22,0,0,1-4.61,11.29,16.9,16.9,0,0,0-2.56-1A23.49,23.49,0,0,0,837.6,157.25ZM854.82,203c2.12-4.78,2.72-9.41,1.83-13.39q1.5-2.32,2.81-4.76l.34-.31c7-6.87,11.84-16.48,14.09-27.77.14-.66.24-1.32.35-2,4.28,1.48,7.7,5.51,9.56,9.12,5.12,10,3.8,23.37-3.23,32.56-7.28,9.52-19.73,14.69-29.77,18.12-1.7.58-3.44,1.15-5.22,1.67A44.84,44.84,0,0,0,854.82,203ZM875,140.73a48.14,48.14,0,0,0-1.09-7.48,46.5,46.5,0,0,0-16.5-26,51.63,51.63,0,0,0-34.3-10.51,61.42,61.42,0,0,0-45,24.19,10.74,10.74,0,0,0-10.87,0,53,53,0,0,0-10.62,8.14,61.53,61.53,0,0,1-.37-16.66A49,49,0,0,1,768.47,85.1C774.15,79,782.11,74,792.11,70.35c9.26-3.4,19.3-5.37,29-7.29,5.36-1.05,11.51-2.26,17.42-2.26a28.4,28.4,0,0,1,10.76,1.85c6.55,2.67,11.53,8.48,16.79,14.62l1.41,1.64q1.83,2.11,3.69,4.21c6.37,7.23,12.39,14.07,16.1,22.11,3.44,7.48,5.23,19.08-1,27.18C883.53,136,879.54,138.53,875,140.73ZM750.25,167.82c1.75-14.88,9.88-28.42,21.36-35.79a70.86,70.86,0,0,1-2.8,12.78c-.88,3.11-1.78,6.32-2.43,9.57a59,59,0,0,0,13.14,49.82C786.28,212,794.77,217.59,803,223c2.32,1.54,4.72,3.13,7,4.72,1.91,1.32,3.52,2.53,4,3.83,0,.15.06.26.11.2a11.15,11.15,0,0,1-3.21,1.42h0c-8.28,2.74-18.58,6.14-27.21,3.85-7.54-2-14.11-8.13-20.68-19.28C755.91,205.75,748,187.33,750.25,167.82Zm-3-26.71a64.28,64.28,0,0,0-8.65,25.33c-2.12,18,2.82,37.83,14.29,57.3.62,1,1.24,2,1.86,3-9,1.55-17,1.16-23.64-1.23-9.64-3.45-16.37-11-20.32-16.69-5.07-7.33-8.59-15.64-12.31-25.86-3.2-8.75-6.39-18.84-3.9-27.68,1.15-4.09,3.5-8,6-12.14,1.42-2.36,2.89-4.81,4.2-7.39s2.31-5,3.33-7.47a64.27,64.27,0,0,1,4.83-10c6-9.31,18.11-15.06,30.61-15.06.82,0,1.64,0,2.46.08a64.21,64.21,0,0,0-1.4,7.59A76,76,0,0,0,747.21,141.11Zm-88-56.49c7.45-6.81,17.72-10.54,28.47-14.07,14-4.58,28.83-9.06,43.48-9.15h.41A50.08,50.08,0,0,1,745,63.06,65.13,65.13,0,0,0,742,82.58a67.27,67.27,0,0,0,.72,9c-16.23.19-31.68,7.85-39.78,20.46a73.56,73.56,0,0,0-5.78,11.77c-1,2.35-1.91,4.58-3,6.7s-2.41,4.35-3.78,6.64c-2.78,4.62-5.65,9.4-7.23,15-3.45,12.22.34,24.43,4.16,34.92,1.65,4.5,3.43,9.12,5.48,13.67a49.53,49.53,0,0,1-16.66-3.06c-11.17-4.31-20.74-14.14-26.26-27-4.64-10.78-6.76-23.87-6.49-40C643.79,109.38,649.1,93.9,659.23,84.62Zm-21,129.47c-1.43-.21-2.91-.45-4.4-.74-1.39-.88-2.8-1.74-4.24-2.55l4.79-.71,3.57-.53c1.28-.2,2.55-.29,3.92-.44l4.14-.44c-.57,2.07-1.09,4.15-1.55,6.21C642.44,214.65,640.37,214.39,638.27,214.09Zm3.46,20.48q-.13,2.24-.18,4.47l-9.32-12.52A97.14,97.14,0,0,1,641.73,234.57ZM620.51,160l-4.55,3.1a173.94,173.94,0,0,1,16.31-16c.16,1.74.36,3.45.59,5.12l-4.35,2.63c-1.49.93-3,1.78-4.32,2.69Zm3,40.68-.18.28a.76.76,0,0,1,.08-.21C623.5,200.66,623.76,200.4,623.56,200.67Zm3.33-33.06,3.11-3.19c1.1-1.16,2.31-2.17,3.54-3.34l.8-.73c.27,1.23.57,2.43.89,3.62l-3.91,1.94c-1.36.65-2.61,1.32-3.89,1.89l-1.31.6Zm2.1,10.33,3.11-2.4c1.11-.83,2.26-1.83,3.46-2.79l1.92-1.58c.43,1.16.87,2.31,1.35,3.43a115.46,115.46,0,0,1-11.52,4.64Zm17.75,10.75c.76,1,1.54,2,2.35,3l-6.68-1.2c-1.27-.24-2.44-.4-3.63-.69l-.6-.14C641,189.24,643.88,188.93,646.74,188.69Zm-4.87,12.38c-1.41-.19-2.81-.43-4.08-.55l-3.6-.36-.39,0a4.2,4.2,0,0,0-.06-.62c0-.17-.07-.34-.1-.51l.94,0,3.38-.14c1.19,0,2.54-.19,3.87-.29l7.75-.66c-.56,1.39-1.06,2.76-1.5,4.09Zm1-115.13C635.74,97.12,632,112,631.66,130.45c0,.65,0,1.29,0,1.93a173.2,173.2,0,0,0-19.92,18c0-.06,0-.12.08-.19.45-1.2,1-2.49,1.47-3.86s1.18-2.81,1.8-4.31,1.28-3.06,2-4.59,1.48-3.13,2.23-4.71l2.42-4.62c.78-1.55,1.65-3,2.47-4.43s1.58-2.84,2.4-4.11l2.27-3.61c1.38-2.27,2.71-4,3.56-5.34l1.38-2-1.76,1.68c-1.1,1.1-2.79,2.57-4.62,4.52l-3,3.11c-1.09,1.09-2.12,2.34-3.25,3.58s-2.31,2.54-3.41,3.92-2.27,2.76-3.42,4.14l-3.26,4.29c-.66.84-1.28,1.69-1.87,2.54,1.14-2.69,2.34-5.31,3.49-7.84C620.68,111.11,629,94.81,642.91,85.94Zm-28.42,88.71h0ZM612.63,70.41c.42.24.84.49,1.27.71a71.31,71.31,0,0,0,17.43,6.31c.8.18,1.61.35,2.44.49a71.17,71.17,0,0,0-17.19,18.33,148.55,148.55,0,0,0-2.89-21.37C613.38,73.44,613,71.93,612.63,70.41Zm-9.87-30.5c.68-1.81,2.91-3.36,5.44-3.79,2.69-.44,5.85.07,9.67,1.58a40.22,40.22,0,0,1,20.39,18.18c1.55,2.89,2.25,5.22,2.15,7.14-.07,1.49-.86,3-1.75,3.33-1.13.44-3.5-.12-4.64-.39a60.32,60.32,0,0,1-14.58-5.22,43.63,43.63,0,0,1-13-10.59C603.22,46.22,601.83,42.39,602.76,39.91ZM581.74,71c2.87-6.71,6.56-10.94,9.63-11,2,0,4.53,1.8,6.34,4.62,2.32,3.62,3.56,8.46,4.46,12.71A140,140,0,0,1,604.65,118q-1.32,2.79-2.61,5.62c-3,6.57-6.45,14.15-8.7,22.3-.07-1.31-.15-2.7-.23-4.18-.11-1.63-.07-3.27-.11-5,0-3.48-.11-7.2-.16-10.92.11-3.74.21-7.49.32-11,.07-1.76.05-3.47.19-5.08s.22-3.13.32-4.54c.4-5.64.67-9.4.67-9.4l-2.48,9.1c-.38,1.38-.78,2.86-1.21,4.43s-.77,3.25-1.19,5L587,125.16c-.69,3.77-1.38,7.54-2,11.07-.3,1.76-.68,3.51-.88,5.1s-.41,2.91-.6,4.23a172.16,172.16,0,0,0-9-40.12C575.07,92.35,577.46,81,581.74,71Zm22.61,91.78v0h0l-.06-.12,0-.12v-.06l0,.07Zm0-.07s0,0,0,0S604.34,162.75,604.34,162.75ZM527,75.8c1-3.3,3.19-5.91,5.65-6.81,2.73-1,6.51-.14,9.63,2.22,3.48,2.62,6.14,6.73,8.51,10.79a163,163,0,0,1,21.48,70.91l-.07.08-.12.13-1.46-3.66c-.57-1.4-1.18-2.92-1.82-4.53s-1.42-3.3-2.17-5.06c-1.52-3.49-3.14-7.22-4.77-11l-5.08-10.75c-.82-1.71-1.56-3.38-2.36-4.92s-1.54-3-2.22-4.36l-4.58-9s1.14,3.86,2.86,9.65l1.39,4.66c.51,1.65.93,3.43,1.42,5.24,1,3.64,2,7.51,3,11.39s1.81,7.77,2.65,11.41c.41,1.83.86,3.54,1.18,5.25.16.79.32,1.56.47,2.31a164.46,164.46,0,0,0-28.87-39.21,106.92,106.92,0,0,1-5.27-22.77C526,84.31,525.74,79.74,527,75.8Zm-45.7,23.78c3.71-3.31,11.06-1.19,13.22-.46,8.93,3,17.58,8.78,27.21,18.15a151.84,151.84,0,0,1,21.8,26.67c-.78-.69-1.57-1.37-2.43-2l-4.39-3.43-4.6-3.12c-1.48-1.06-3.06-1.93-4.55-2.81s-2.9-1.77-4.34-2.44l-4-2c-.62-.3-1.2-.6-1.76-.86l-1.65-.68-2.65-1.1-2.31-1,2.07,1.4,2.36,1.6c.46.3.94.63,1.45,1s1,.77,1.54,1.18l3.42,2.68c1.23.92,2.39,2.09,3.65,3.18s2.55,2.23,3.74,3.53l3.69,3.78,3.41,4c1.15,1.28,2.12,2.69,3.1,4,.72,1,1.49,2,2.15,2.91-1.22-.93-2.54-1.8-3.87-2.75s-2.76-2-4.25-2.88l-4.45-2.84-4.56-2.65c-1.48-.9-3-1.68-4.46-2.45s-2.85-1.53-4.22-2.17l-3.84-1.8-1.71-.8-1.57-.64L506,133.79l-2.21-.9,2,1.35,2.26,1.55,1.38,1,1.48,1.12,3.33,2.53c1.17.89,2.35,1.94,3.59,3s2.52,2.08,3.75,3.24,2.51,2.28,3.77,3.44l3.11,3.08a135.59,135.59,0,0,0-27.8-11.6,192.76,192.76,0,0,1-16.42-21.91c-2.3-3.65-4.51-7.57-5.15-11.52C478.46,104.62,479.34,101.29,481.27,99.58Zm7.23,64,2.8.44c1.08.15,2.3.35,3.61.65l4.24.9c1.5.29,3.05.79,4.66,1.2s3.28.84,4.93,1.43l5,1.65,4.9,1.92c1.5.54,2.93,1.23,4.32,1.86-.68-.06-1.36-.12-2.05-.15l-4.92-.3-4.92-.1c-1.62-.06-3.21,0-4.75,0s-3,0-4.42.13l-3.95.24c-2.43.11-4.46.41-5.87.53l-2.22.22,2.22.28c1.4.21,3.41.37,5.79.81l3.85.64c1.36.21,2.78.57,4.25.86s3,.61,4.51,1l4.61,1.17,3.74,1.11c-19.14-2.49-35.88-1.93-50.57,1.72q-9-3.59-17.52-7.92c-3.23-1.65-6.55-3.53-8.88-6.14s-3.24-5.6-2.56-7.9c.77-2.61,3.63-4.68,5.89-6,6.1-3.43,13.84-5.17,23.66-5.29h1c18.91,0,40.41,7,58.27,18l-2.28-.51c-1.7-.38-3.44-.82-5.25-1.09l-5.43-.93-5.46-.62c-1.78-.25-3.57-.31-5.28-.42s-3.35-.25-4.92-.23l-4.41,0c-1.36,0-2.6,0-3.71.09l-2.85.15-2.47.13Zm8.14,26.77a170.19,170.19,0,0,1,27.52,2.43l2,.34-.76.08-4.71.5c-1.67.15-3.36.5-5.14.76s-3.59.53-5.43,1l-5.55,1.16L499.07,198c-1.81.43-3.55,1-5.24,1.55s-3.33,1-4.84,1.58l-4.26,1.57c-1.33.47-2.52,1-3.56,1.43l-2.72,1.16-2.35,1,2.51-.52,2.87-.6c1.1-.25,2.35-.5,3.73-.69l4.43-.7c1.56-.27,3.24-.38,4.95-.59s3.48-.41,5.29-.48l5.45-.31,5.45,0c1.79-.06,3.56.06,5.26.12s3.35.08,4.87.25l4.28.39,1.9.18,1.79.24.9.12-.85.42-3.79,1.81c-1.34.67-2.85,1.24-4.36,1.91s-3.11,1.35-4.75,1.94l-5,1.87L506,213.28c-1.67.59-3.34,1-4.95,1.49s-3.18.94-4.69,1.28l-4.24,1c-1.31.34-2.52.58-3.6.78l-2.8.54-2.45.47,2.49,0,2.86,0c1.11,0,2.36,0,3.73,0l4.41-.13c1.58,0,3.22-.21,4.93-.31s3.49-.23,5.28-.47l5.46-.63,5.44-.86c1.8-.25,3.55-.64,5.25-1s3.36-.63,4.93-1l4.43-1.1,2-.5,1.69-.49,2.74-.79.33-.09a8.49,8.49,0,0,1,.85.69c.1.11.26.23.24.26s0,0,.07.06,0,0,0-.07c0,.16.09.42.09.48a.24.24,0,0,0,0,.12l0,.77a53.25,53.25,0,0,0-5.17,2.12l-1,.47c-25.76,9.34-53.79,11.68-79.64,6.51-7-1.41-11-3.43-12.41-6.38-1.2-2.42-.64-6,1.38-9s5.13-5.31,10-7.85C465.84,193.46,480,190.35,496.64,190.35Zm-25.89-70.49a68.64,68.64,0,0,0,3.45,6c2.58,4.1,5.36,8,8.21,11.82-1.94-.25-3.88-.44-5.8-.58q-19.5-8.88-39.44-16.87A107,107,0,0,1,470.75,119.86Zm-39.31,10.77q10.1,4,20.11,8.29a50.87,50.87,0,0,0-9.49,3.38A106.6,106.6,0,0,1,431.44,130.63Zm-16.62,53a109.77,109.77,0,0,1,28-.61c.88.49,1.75.95,2.6,1.38q3.19,1.64,6.45,3.16c-1.18.54-2.35,1.1-3.5,1.7-4.2,2.18-10.26,5.75-14.3,11.62a24,24,0,0,0-2.64,5q-39.5,2-78.94,6.82C370.75,197.35,392.71,187,414.82,183.63Zm-62.88,41q39.13-4.83,78.46-6.9a17.83,17.83,0,0,0,1.4,4c3.41,6.93,10.4,10.09,16.58,11.76C415.55,241.44,381.17,238.63,351.94,224.62ZM441.35,248c-7.08,10-8.27,19.26-3.35,26,.29.39.6.76.91,1.12Q413.32,293.81,388.75,314c7.17-22.77,20.13-43.29,37-58a107.13,107.13,0,0,1,10.79-8.27q2.85-.44,5.7-1C441.92,247.17,441.63,247.56,441.35,248Zm17.42,20.75c-5.95.82-9.84.23-11.27-1.72-1.94-2.65.52-8.06,3.46-12.24a116.41,116.41,0,0,1,16-18.16c5.13.51,10.31.77,15.51.77a163.23,163.23,0,0,0,22.79-1.62,131.54,131.54,0,0,0-24,27.95A139.45,139.45,0,0,1,458.77,268.71Zm83.55-41.28-3.58,3.87c-1.28,1.34-2.55,3-3.9,4.52l-8.38,9.91-7.85,10.21c-1.23,1.64-2.5,3.15-3.56,4.71L512,265l-6.24,8.93,7.65-7.74,3.69-3.74c1.28-1.34,2.79-2.63,4.27-4l9.33-8.63,7.37-6.2c-.54.95-1.08,1.89-1.59,2.83-8,14.63-13.71,28.34-17.3,41.37a139.32,139.32,0,0,1-28.05,15.72c-5.54,2.3-9.45,2.72-11.33,1.2-2.55-2.08-1.55-7.93.24-12.72h0a119,119,0,0,1,60.3-65.42,44.21,44.21,0,0,1,4.38-1.76C544,225.61,543.19,226.49,542.32,227.43Zm6.6-14.88h0Zm.09,0h0l.06,0Zm58.49,4,0,.06,0,0c-.59.86-.19.28-.33.49l-.15.27-.28.57a8.72,8.72,0,0,0-.4,1c-.12.35-.19.61-.25.85s-.09.41-.14.58l-1.49,0a12,12,0,0,0-3.87.5l-.27.09-.43.17-.28.13c-.36.18-.72.37-1.06.58l-.52.32-.41.34c-.27.22-.54.46-.79.7a14.16,14.16,0,0,0-1.19,1.34l-.82,1.14-.6.89-.4.55h0l0,0s-.12.11-.17.15l-.35.29-.08,0a7.85,7.85,0,0,1-2.62-.52c-1.28-.38-2.84-1-4.76-1.38-.48-.1-1.27-.23-1.68-.27l-.57,0-.35,0h-.64a15.15,15.15,0,0,0-3.14.35,46.89,46.89,0,0,0-4.75,1.35,11.63,11.63,0,0,1-3,.65,2.06,2.06,0,0,1-.38,0c-.1,0,0,0,0,0s0,0,0,0,0,.06-.07,0l-.44-.19-.06-.07a1.36,1.36,0,0,0-.34-.23l-1.66-1.59a16.56,16.56,0,0,0-2.06-1.67l-.15-.12-.24-.13a16.07,16.07,0,0,0-5.94-1.68l-1-.14a5.76,5.76,0,0,1-.77-.14l-.35-.08a.11.11,0,0,1,.06.07s0,.05,0,.05l-.23-.15-.36-.23-.08-.11a8.4,8.4,0,0,1-.63-1.15c-.27-.57-.58-1.29-1-2.15a12.21,12.21,0,0,0-2.12-3l-.42-.39-.21-.19-.31-.23-.66-.44-.34-.2-.16-.08-.24-.13-.13-.06h0c.07,0-.66-.3-.38-.17l-.12,0-.77-.24c0-.17,0-.35,0-.56l-.1-1c0-.31-.06-.4-.09-.61a10.39,10.39,0,0,0-.69-2.17,8.15,8.15,0,0,0-1-1.81,8.84,8.84,0,0,0-1.2-1.42,35,35,0,0,0-4-3.18,4.12,4.12,0,0,0-.41-.32l-.72-.7,0-.07-.12-.16a3.25,3.25,0,0,1-.21-.37,5,5,0,0,1-.45-2.12c0-.24,0-.3,0-.46v-.1l0-.27.09-.55.36-1.27c.13-.48.42-1,.61-1.47s.53-1,.77-1.44a9.25,9.25,0,0,1,.54-.86l.6-.92.57-.84.71-1.09a17.4,17.4,0,0,0,1.43-2.84l.31-.88c.09-.32.17-.69.24-1a9.81,9.81,0,0,0,.13-2.78l0-.38,0-.14,0-.27,0-.27,0-.14v0l-.15-.6,0-.14a8.76,8.76,0,0,0-.32-.84A20.31,20.31,0,0,0,550,177c.29-.21.48-.35.82-.64a14.58,14.58,0,0,0,1-1l.38-.47,0-.05,0,0c-.05.07.48-.66.27-.38l.16-.27.29-.53a11.22,11.22,0,0,0,.51-1.07l.3-.89.14-.44.07-.27.13-.53.14-.53.07-.27,0,0h0v0a2.54,2.54,0,0,0,.16-.38,4.8,4.8,0,0,1,.52-.78,6.37,6.37,0,0,1,1.81-1.48c.15-.08.27-.12.39-.2l.09-.06.23-.08.52-.2.26-.09h0l.35-.06.72-.16c.25,0,.47-.13.73-.16l.82-.05a9.92,9.92,0,0,1,1.64-.06l.82,0a8.15,8.15,0,0,1,.92,0l2.19.24,1.08.13c.44.05.89.09,1.36.11a17.68,17.68,0,0,0,3.14-.06,11.71,11.71,0,0,0,4-1.11,9.19,9.19,0,0,0,2.16-1.45,6.14,6.14,0,0,0,.8-.81,17,17,0,0,0,1.64.65c.36.1.67.21,1.08.29a8.51,8.51,0,0,0,2.45.2l.54-.05.4,0,.27-.05.14,0h.06l.63-.16.1,0a9.82,9.82,0,0,0,4.28-3l.73-.85a1.21,1.21,0,0,0,.23-.22,1.79,1.79,0,0,0,.28-.2,2.68,2.68,0,0,0,.33-.18,4.42,4.42,0,0,1,1.79-.36,3.74,3.74,0,0,1,3,1.24l1.2,1.92,2.91.4h0a10.94,10.94,0,0,1,2.75.56,2.88,2.88,0,0,1,.46.22v1.63c0,.28,0,.48,0,.83l.09,1c0,.12.08.48.13.74s.13.55.21.82.18.58.25.77l.11.26.11.26.06.13c-.23-.46.31.65.28.57l0,.08.09.16c.27.41.55.83.85,1.2s.65.69,1,1a10.72,10.72,0,0,0,1,.79A14.12,14.12,0,0,0,612.1,175c.95.3,1.68.49,2.25.66h0c0,.14-.05.28-.07.44a19.11,19.11,0,0,0-.4,3.09c0,.37,0,.73,0,1.1s.08.8.16,1.26c.07.3.14.59.23.88l.13.44.12.33.12.26.05.13,0,.06.21.45,0,.08a10,10,0,0,0,3.32,3.56,21.16,21.16,0,0,0,2.47,1.4c0,.11-.1.22-.15.35a14.79,14.79,0,0,0-1.08,3.3,8.8,8.8,0,0,0,0,3,6.74,6.74,0,0,0,.27,1.08,8.8,8.8,0,0,0,.47,1.14l.07.15,0,.06.07.12.14.24c.62,1,.21.32.36.56l.07.08.12.16.27.31c.18.2.37.4.55.58s.59.51.87.72l.29.22-.21.15-.37.28c-.34.25-.62.42-1.08.78-.21.17-.39.3-.64.51l-.73.68a8.59,8.59,0,0,0-.94,1.09c-.16.22-.32.44-.47.67l-.2.33-.06.12-.25.51,0,.06c.2-.47-.3.67-.26.59l0,.08-.1.32-.17.66a6.7,6.7,0,0,0-.2,1.19l-.05.56v.46c0,.65,0,1.06.05,1.49v0l-.37.09-2.17.47a18,18,0,0,0-3,.89l-.9.41a10.85,10.85,0,0,0-.95.57,9.41,9.41,0,0,0-2.12,1.91Zm10.6-5s0,0-.06,0S618.13,211.48,618.1,211.51Zm32.12,92.68c-.07-1.52-.19-3-.34-4.51.71.39,1.42.77,2.13,1.13C651.41,301.94,650.81,303.06,650.22,304.19Zm-9.22-26c-7.89-7.94-14.32-17.77-19.73-26.35-4.47-7.1-8.86-14.39-13.07-21.65.24,0,.5-.08.77-.13l0,.06.89,1.71,1.12,1.95,2.54,4.37c.88,1.56,2,3.05,3,4.67s2.1,3.27,3.32,4.87l3.58,4.88,3.83,4.69c1.22,1.57,2.57,3,3.84,4.4s2.44,2.78,3.69,4l3.45,3.43,1.53,1.51,1.45,1.3,2.35,2.1,2,1.82L644,273.64,642,271.16l-1.17-1.53-1.22-1.75-2.71-3.94c-1-1.38-1.86-2.95-2.84-4.51s-2-3.17-2.89-4.89-1.86-3.4-2.79-5.12-1.69-3.52-2.52-5.25-1.55-3.47-2.26-5.14-1.44-3.29-2-4.84l-1.54-4.33c-.24-.67-.47-1.31-.68-1.92s-.36-1.16-.52-1.71l22.71,20.28a101.25,101.25,0,0,0,2.81,19.56,90.73,90.73,0,0,0,8.48,21.76A66.12,66.12,0,0,1,641,278.2Zm137.58,30.43c-12.6,6.75-28,10.4-44.59,10.56-13.43.16-32.92-2.05-49.27-13.14-13.9-9.42-24.41-25-28.83-42.82-4.09-16.43-3.35-35,2.13-53.68.77-2.6,1.58-5,2.45-7.18a52.25,52.25,0,0,0,11.47,6.24,62.61,62.61,0,0,0,22.72,3.88c1.42,0,2.87-.05,4.34-.12.66,1.07,1.35,2.13,2.07,3.17a59.39,59.39,0,0,0,16.43,16.29,38.44,38.44,0,0,0,.1,7.2c2,18.34,16.58,31.31,27.37,39.47,7.75,5.85,17.17,11.79,28.24,11.57a53.54,53.54,0,0,0,11.86-2c4.07-1,7.92-2,11.31-1.53a20.1,20.1,0,0,1,5.62,1.85A69.29,69.29,0,0,1,778.58,308.63Zm60.53-28c-7.5,3.52-16,4.11-22.68,1.61a55.87,55.87,0,0,1-5.68-2.66c-3.69-1.9-7.87-4.05-12.77-4.72a25.16,25.16,0,0,0-3.44-.23,50.31,50.31,0,0,0-12.34,2,43.51,43.51,0,0,1-9.25,1.66c-7.52.18-14.75-4.55-20.88-9.19-14.38-10.87-21.62-20.83-22.76-31.35,0-.14,0-.28,0-.42a52.59,52.59,0,0,0,15.28,2.14,74.26,74.26,0,0,0,14.7-1.56c1.16-.23,2.31-.49,3.44-.77,5.51,5.83,11.46,9.56,18,11.29a35.82,35.82,0,0,0,9.3,1.17c8.84,0,17.39-2.83,24.63-5.22h0c3.18-1,9.79-3.23,11.06-10.5a12.33,12.33,0,0,0,.09-3.38l.63.07c.88,2.84,1.86,5.62,3,8.3,5.13,12.34,12.31,20.68,21.36,24.77a32.42,32.42,0,0,0,5.82,2A46.32,46.32,0,0,1,839.11,280.63Zm67-52.62c-2.06,2.31-4.2,4.7-6.33,7-5.27,5.62-12.43,12.59-21,16.58-8.1,3.75-16.79,4.26-23.23,1.34-6.23-2.82-11.39-9.06-15.33-18.55-.59-1.43-1.13-2.89-1.65-4.37a97.92,97.92,0,0,0,16-4.23c11.61-4,26.12-10.08,35.32-22.12,9.83-12.86,11.58-31,4.34-45.08A33.54,33.54,0,0,0,886,148.13a36.23,36.23,0,0,0,9.64-8.53,31.29,31.29,0,0,0,5.88-13,79.19,79.19,0,0,1,11.65,11,119.45,119.45,0,0,1,20.39,32.27c4.85,11.37,5.68,20.14,2.52,26.83-2.35,5-7,9-11.86,13.17-1.37,1.18-2.73,2.35-4,3.55A192.8,192.8,0,0,0,906.15,228Zm43.52,18.81a41.89,41.89,0,0,1-20.09,6c-1.58-7.47-4.31-15.7-9.36-22.8,2.53-2.75,5.09-5.4,7.82-7.88,1.24-1.13,2.53-2.23,3.82-3.34,5.6-4.84,11.4-9.84,14.81-17.06,4.68-9.91,3.92-21.84-2.33-36.48A131.29,131.29,0,0,0,922,129.8a91.09,91.09,0,0,0-13.76-12.87c.45-.6.9-1.2,1.31-1.82a38.2,38.2,0,0,0,4.67-10.37,42.36,42.36,0,0,1,14.05,2.35c6.16,2.38,11.5,7.11,16.66,11.69,10.92,9.68,22.21,19.68,30.44,31.59,8.78,12.69,12.83,26.41,11.41,38.62-1.11,9.51-5.49,18.59-9.18,25.44C969,230.22,960.18,240.52,949.67,246.82ZM1027.75,297c-3.23,7.89-6.44,13.24-10.38,17.33-4.6,4.77-10.32,7.54-15.68,7.61a17.69,17.69,0,0,1-2.7-.19,154.54,154.54,0,0,0-43.48-64.51c.14-.14.27-.3.4-.44a70.15,70.15,0,0,0,15-12.3c1.18-.75,2.34-1.46,3.49-2.13l1.66,0c13,0,26.3-2,39.26-4.26,1.53-.27,3.13-.55,4.75-.88.11.19.21.38.32.56l-1.06.7-1.39,1-3.11,2.22c-1.11.77-2.17,1.67-3.32,2.56s-2.32,1.79-3.45,2.8l-3.46,3-3.31,3.13c-1.11,1-2.12,2.09-3.11,3.11s-2,2-2.82,3L992.94,262c-1.52,1.66-2.63,3.19-3.48,4.19l-1.29,1.6,1.65-1.24c1.06-.76,2.49-1.95,4.35-3.19l3-2c1-.74,2.22-1.4,3.38-2.14s2.38-1.5,3.66-2.19l3.82-2.13,3.9-2c1.27-.67,2.58-1.22,3.82-1.78s2.43-1.13,3.58-1.55l3.19-1.26,1.42-.55,1.23-.43c-.22,1.13-.47,2.43-.76,3.88-.24,1.24-.5,2.57-.77,4s-.68,2.79-1,4.29l-2.38,9.32-3,9.27c-.5,1.47-.89,2.95-1.43,4.26s-1,2.6-1.47,3.76l-3,7.81,4.68-7,2.28-3.39c.84-1.2,1.53-2.55,2.36-3.9l5-8.59c1.55-3.05,3.09-6.1,4.55-9a123.93,123.93,0,0,0,1.81,16.39q.35,1.85.75,3.66A123.15,123.15,0,0,1,1027.75,297Zm34.3-69.39c-2,3.14-5.83,4.64-9.52,5.13-4.12.55-8.6,0-11.86-2.59-2.24-1.78-3.71-4.34-5.11-6.84-1-1.87-2.13-3.83-2.18-6a6.77,6.77,0,0,1,4.84-6.48c1.93-.52,4.28-.26,5.62-1.75.78-.87,1-2.14,1.69-3.06,1-1.36,3-1.69,4.68-1.57a14.15,14.15,0,0,1,9.94,5.57,18.13,18.13,0,0,1,3.53,11A12.2,12.2,0,0,1,1062.05,227.62Zm2.7-32.92.1-.2c.16-.31.32-.64.5-1l.58-1.27,1.25-2.85c.47-1,.75-2.05,1.14-3.14a33.58,33.58,0,0,0,1-3.35c.29-1.15.59-2.31.88-3.48s.41-2.36.62-3.52a34.2,34.2,0,0,0,.41-3.4c.08-1.1.25-2.14.24-3.16s0-1.95,0-2.82a19.69,19.69,0,0,0-.07-2.37c0-.7-.09-1.31-.12-1.82l-.11-1.56s-.14.55-.4,1.52c-.12.48-.27,1.07-.45,1.74a19,19,0,0,1-.67,2.21l-.9,2.56c-.29.91-.77,1.82-1.17,2.78a31.15,31.15,0,0,1-1.37,2.87l-1.55,2.87-1.75,2.72a28.51,28.51,0,0,1-1.82,2.52c-.62.77-1.16,1.6-1.77,2.22s-1.12,1.24-1.63,1.79a13.85,13.85,0,0,0-5.69-2.38,12.82,12.82,0,0,0-2.31-.16l-1.23-2.47c-.46-.89-.85-1.92-1.31-2.94s-.93-2.11-1.32-3.22l-1.27-3.39c-.37-1.16-.74-2.32-1.11-3.46s-.66-2.29-1-3.4-.62-2.19-.82-3.22-.43-2-.63-2.93c-.41-1.82-.57-3.36-.77-4.43s-.28-1.7-.28-1.7-.08.62-.23,1.7-.42,2.64-.55,4.52c-.08.94-.17,2-.27,3.05s-.1,2.23-.16,3.42-.11,2.43-.07,3.69,0,2.54.06,3.82.16,2.57.23,3.84.23,2.51.36,3.72.23,2.37.43,3.5.37,2.21.53,3.2a1.16,1.16,0,0,1,0,.18,15.6,15.6,0,0,0-2.16,2.14,116.91,116.91,0,0,0-25.37-31.42c-.14-.44-.3-.86-.43-1.29-3.81-12.43-3.64-24.49.46-34,4.53-10.45,14.58-17.81,24.45-17.9h.21a53.29,53.29,0,0,1,9.13,1.11,79.36,79.36,0,0,0,8.65,1.22,82.23,82.23,0,0,0,11.7-.31c5.55-.43,10.79-.82,15.29.71h0c6.25,2.12,11.43,8.53,13.2,16.33,1.57,6.89.88,14.89-2.1,24.46C1088.43,164.77,1078.5,180.7,1064.75,194.7Zm10.63,33.38c.27-.23.54-.46.8-.71l-.41,1Zm18.49,8c-5.53-1.56-12.27-3.82-18-7.66l1.73.47,2.07.57,1.27.34,1.56.35,3.5.76c1.23.29,2.51.4,3.83.61s2.67.42,4.07.49l4.2.33,4.19.06c1.36,0,2.72-.06,4-.12s2.55-.09,3.74-.25l3.31-.39c1-.1,2-.26,2.78-.42l2.12-.4,1.83-.34-1.86-.16-2.13-.19a26,26,0,0,1-2.74-.33l-3.21-.5c-1.13-.15-2.31-.48-3.53-.73s-2.47-.52-3.72-.92l-3.77-1.11-3.67-1.34c-1.22-.4-2.36-.95-3.48-1.43s-2.21-.92-3.15-1.45-1.84-1-2.66-1.4l-1.18-.62-1.14-.68-1.84-1.1-.86-.51a14.47,14.47,0,0,0,.19-2.18l.75-.26,1.51-.57,3.37-1.32c1.2-.44,2.38-1,3.63-1.58s2.54-1.11,3.81-1.78l3.85-1.95,3.74-2.13c1.24-.67,2.4-1.44,3.54-2.16s2.24-1.37,3.24-2.09l2.82-2c1.76-1.2,3.11-2.37,4.1-3.1l1.53-1.19-1.79.76c-1.15.45-2.72,1.21-4.71,1.91l-3.18,1.16c-1.11.42-2.34.75-3.58,1.15s-2.51.81-3.84,1.13l-4,1-4,.84c-1.31.31-2.63.49-3.89.7s-2.48.44-3.62.54l-3.19.35-1.41.15-1.36.1-1.27.09a16.64,16.64,0,0,0-3.78-3.11,140,140,0,0,0,20.94-27.38,81.27,81.27,0,0,1,38-9.58q3.66,0,7.32.35c8.31.8,14.47,2.88,18.83,6.35,7.9,6.29,10.76,17.69,13.21,29.81,2.19,10.79,3.87,21.94-1.53,29.37-4.06,5.58-12.06,8.77-24.45,9.74A148.41,148.41,0,0,1,1093.87,236Zm73.68,66.06a102.17,102.17,0,0,1-16.91-9.58,36.57,36.57,0,0,0,.4-6.47,50.14,50.14,0,0,0-5.87-21.25c27.55,16.59,56,32,85.13,46.11C1208.47,313.5,1186.36,310.5,1167.55,302.1Zm69.55-1c-30.5-14.71-60.28-30.88-89-48.35,1-.08,1.9-.19,2.82-.3a94.13,94.13,0,0,0,33.21,1.35C1205.9,264.8,1224.44,281.05,1237.1,301.12Zm-48-60.1a82.41,82.41,0,0,1-13.32,1.77,27.88,27.88,0,0,0,4-4.45,29.77,29.77,0,0,0,5.11-12.09q23.38-3,46.64-7.18C1219.12,230,1204.31,237.7,1189.12,241Zm271.41-69.87,39.71-2c-9.8,10.9-36.82,40.87-48,52.51h-30Zm-77.16,15.45h45.71c-4.81,6-18.71,24.76-26.79,35.08h-54.37Zm17.69,98.9-.32-.2h1.18l-50.63-44.77H1434l31.51,42Zm104.81,11.09-15.71-9.36-43.72-46.7h14.91l55.88,56.27Zm100.9,1.85-26.24-.48-66.1-57.43h41.42Zm-52.36-76.76h-44.67l56.66-55.81,43.91-2.19Z"/><path fill="FRAME_COLOR" d="M1650,751.48l-11,15.9-63.09-1.12,60.32,62.58-183.4-9.15-14-15.07h-79.18L1304,759.07h-58.09a118.12,118.12,0,0,1,7.93,8.93l4.3,5.42-6,3.38C1230.86,788.73,1206,793,1181.39,790c-2.74,10.9-6.75,20.81-15.42,27.71-6.13,4.88-14.22,7.76-24.72,8.81a113.9,113.9,0,0,1,7.24,63.47l-1.16,6.82-6.54-2.24a111.37,111.37,0,0,1-38.87-23.18,31,31,0,0,1-15.76,12.66h0c-6.78,2.31-13.48,1.8-20,1.31a69.89,69.89,0,0,0-10-.31,68.84,68.84,0,0,0-7.37,1.06,62.28,62.28,0,0,1-11.52,1.3,35.74,35.74,0,0,1-17.85-5.19,49.61,49.61,0,0,1,3.5,5.8c2.88,5.61,4.12,10.72,3.8,15.63-.46,6.87-4.21,12.83-9.8,15.58-5.41,2.65-11.92,2.16-18.65-1.33a61.11,61.11,0,0,1,2.79,11.43c1.07,7.5.48,13.76-1.8,19.15-3.13,7.41-9.53,12.57-16.7,13.45-8.26,1-16.6-3.46-23.49-12.63h0A67.81,67.81,0,0,1,947.83,926a86.91,86.91,0,0,1-2.53-22.53c0-4.45.42-9.13,3.23-13.19a15.21,15.21,0,0,1,2.94-3.11c-1.6-3.71-3.25-7.4-5-11.06a52.57,52.57,0,0,1-14,8.54,50.87,50.87,0,0,1-16.61,3.1,50.38,50.38,0,0,1-.37,6.79c-1,8-3.7,16.1-8.78,26.15A211.56,211.56,0,0,1,881,959.31c-6.47,7.89-13.84,15.68-23.89,19.2-8.23,2.89-16.85,2.45-24.19,1.64-24-2.66-45.16-10.84-61.08-23.66a83.28,83.28,0,0,1-22.5-27.83,61.3,61.3,0,0,1-18.23,2.46c-16.35-.1-32.22-4.86-47.08-9.73-9.58-3.15-18.85-6.48-26.87-11.95a19.46,19.46,0,0,1-6.74.5l-.18.16a16.56,16.56,0,0,1,1.93,7c.21,4.16-.91,8.38-3.52,13.27A52.18,52.18,0,0,1,622.2,954c-5.87,2.32-11.08,3-15.93,2.24-6.79-1.13-12.36-5.45-14.54-11.27a18,18,0,0,1,.16-12.46c-.3,0-.59,0-.89,0-8-.26-15.19-6.71-20.09-18.19a96.19,96.19,0,0,1-5.59-17.72c-1.4,2.72-2.85,5.42-4.39,8.07-3,5.12-6.45,10.4-11.6,14.27-6.33,4.77-14.29,6.25-20.78,3.86h0c-5.91-2.17-10.7-7.54-12.82-14.37-1.87-6-1.52-12.15-1-16.83.3-2.67.71-5.32,1.21-8a69,69,0,0,1-17.68,9.12c-10.12,3.42-18.93,2.42-24.81-2.81-4.4-3.91-6.71-10.18-6.31-16.78A121.59,121.59,0,0,1,415,867l-6.52-2.29,3.3-6.08a114.63,114.63,0,0,1,20.44-27,18.69,18.69,0,0,1-4.25-7.35,19.24,19.24,0,0,1,1.66-14.1,120.53,120.53,0,0,1-16.62-1.35c-30.5-4.64-60.66-21.32-82.77-45.75l-3.56-3.94H298.85v7h-15l.31,12.57L221,767.94l36.28,56.4L0,758.55,254.08,678.2l-26.14,53,54.86-8.46.35,14.31h15.7v3.14h60.57a153.34,153.34,0,0,1,52.5-9.08c1.15,0,2.29,0,3.44.07-20-18.54-34.64-44.58-41.05-72.83h22.85q26.37,21.64,54,41.64c1-.1,2-.14,3-.14a43.79,43.79,0,0,1,6.27.5q6.53.9,12.85,2.33c-1.53-3.22-2.94-6.48-4.19-9.82a44.85,44.85,0,0,1-1.4-4.37,144.37,144.37,0,0,0-61.2-30.14h35.84a161.5,161.5,0,0,1,25.35,15.26,15.24,15.24,0,0,1,4.77-6.73A16.3,16.3,0,0,1,483,663.36c5.45,0,10.46,2.08,12.71,3a155.2,155.2,0,0,1,20.07,10.15,113.21,113.21,0,0,1-1-12.15c-.05-1.88-.05-3.9.09-6h11.83a44.85,44.85,0,0,0-.15,5.64c.58,19.46,7.24,40.61,20.36,64.67,3,5.49,6.28,10.9,10.29,15.14l-.56-1.38c-.64-1.58-1.32-3.29-2.05-5.1-.38-.88-.72-1.85-1-2.85s-.68-2-1-3c-1.38-4.1-2.84-8.48-4.31-12.85-1.18-4.42-2.35-8.84-3.46-13-.27-1-.54-2-.81-3s-.52-2-.69-2.92l-1.1-5.41c-1.34-6.67-2.23-11.12-2.23-11.12l4,10.6c.6,1.58,1.24,3.29,1.93,5.1a29.2,29.2,0,0,0,1.15,2.75l1.28,2.85,5.42,12c2.07,3.94,4.15,7.87,6.1,11.56l1.15,2.2c-2.4-14.42-2.56-29.6-2.38-45.07h0c0-1.67,0-3.31.09-4.94-4.48-8.11-9.2-16.22-12.66-21.84h13.75c.25.43.5.84.75,1.28.09-.43.2-.85.3-1.28h12.12c-2.09,8.06-2.46,17.1-2.58,26.92h0c-.24,21,.14,41.44,6.3,59.35l.3.08,3.36-68.05,7.59,67.92a22.7,22.7,0,0,1,3.23-.84c.23-1.38.45-2.89.67-4.56,1.32-10.13,1.85-21.77,2.23-30.27.08-1.74.15-3.35.23-4.79.79-15.68,1.53-30.64-2.06-45.76h12c.18.87.36,1.75.52,2.61.47-.87,1-1.74,1.49-2.61h14.3c-4.59,5.45-7.74,12.5-10.59,19.4-1.1,2.68-2.21,5.46-3.3,8.32,0,6.28-.34,12.49-.65,18.63-.08,1.43-.15,3-.23,4.73-.05,1.13-.1,2.23-.15,3.32l.64-1.83c1.85-4.48,3.7-9,5.43-13.15.89-2.08,1.63-4.14,2.55-6l2.5-5.29c3.09-6.53,5.14-10.88,5.14-10.88s-1.36,4.61-3.41,11.52c-.52,1.72-1.07,3.59-1.65,5.57s-1,4.1-1.6,6.28l-3.32,13.64c-.84,4.46-1.69,8.92-2.49,13.12l1.95-3.13c5.74-9.12,12.6-19.58,21.33-28.38q1.74-1.74,3.53-3.35c2.63-10.81,3.26-20.78.79-31.31-.11-.44-.22-.81-.32-1.21h17.5q4.4,8.72,9,17.34c.48-.13,1-.26,1.44-.37s1.08-.24,1.61-.34c1.18-1.21,2.4-2.39,3.66-3.52a130.51,130.51,0,0,0-3-13.11H679c.45,1.73.89,3.46,1.27,5.21a81.93,81.93,0,0,1,9.82-5.21h87.05c2.42,1,4.78,2.15,7,3.37a79.82,79.82,0,0,1,28.71,25.56,37.63,37.63,0,0,1,12.55-2.12,44.14,44.14,0,0,1,18.7,4.27c8.86,4.15,16.87,11.22,23.17,20.46,1,1.5,2,3,2.85,4.59a46.87,46.87,0,0,1,13.61,4c10.45,4.84,18.68,12.81,24.68,19.21,1.25,1.33,2.47,2.68,3.68,4,3.78-6.2,6.13-14.33,7.44-25.5,1.56-13.35.86-23.56-2.19-32.14-3.69-10.35-11.44-18.41-20.24-21-1.09-.32-2.28-.6-3.53-.9-3.38-.79-7.09-1.66-10.41-3.78H913c.61.48,1.23.92,1.82,1.43.32-.48.68-.95,1-1.43h14.72A103.73,103.73,0,0,0,922.85,669a50.55,50.55,0,0,1,5.58,11.12,63.42,63.42,0,0,1,3.19,14.28q12-18.24,24.85-36H971q-20.76,28.33-39.52,57.84a51.9,51.9,0,0,1,11.92,2.18,143.53,143.53,0,0,0,43.29-60H1026c6.44,6.74,10.31,15.14,12.67,20.89.11.26.21.53.31.79a77.53,77.53,0,0,1,14.71-21.68h18.79c-16.7,9.69-25.84,29.42-28.88,46a133.26,133.26,0,0,0-1.44,32.75,7.06,7.06,0,0,1,1.12,1.37,14.6,14.6,0,0,1,4.33-4.88c.56-1.63,1.52-4.41,2.74-7.91.49-1.43,1-3,1.59-4.6s1.35-3.37,2.06-5.15c1.48-3.55,3-7.34,4.62-11.12l5.26-10.69c.87-1.69,1.58-3.36,2.48-4.86l2.43-4.24,5-8.72-3.32,9.47c-.5,1.41-1,2.94-1.6,4.56s-1,3.39-1.53,5.18c-1,3.58-2.08,7.41-3.16,11.24-.82,3.85-1.64,7.69-2.42,11.3-.35,1.81-.81,3.47-1,5.2s-.5,3.32-.73,4.81c-.13.88-.26,1.71-.38,2.51a14.26,14.26,0,0,1,3.37.91c.34.15.66.31,1,.48l1.11-1.43,2.17-2.82c.74-1,1.77-2.05,2.7-3.12l6-6.65c2.16-2.07,4.33-4.13,6.36-6.06,1-.94,1.93-1.92,3-2.71l2.79-2.27,5.71-4.63-4.37,5.89-2.1,2.83c-.77,1-1.4,2.17-2.15,3.3-1.43,2.3-3,4.75-4.5,7.2-1.31,2.52-2.62,5-3.84,7.39-.6,1.2-1.23,2.22-1.71,3.42l-1.41,3.27-2.21,5.12c0,.14.09.29.14.43a79.27,79.27,0,0,1,19.14-7.76,160.5,160.5,0,0,1,31.84-5.59c1.43-1.61,2.82-3.26,4.15-4.95,8.18-10.37,12.31-19.7,12.61-28.53s-4.75-19.54-13.41-21.71a36,36,0,0,0-5.62-.73c-3.92-.31-8.37-.67-12.6-3-3.89-2.19-6.48-5.49-8.77-8.41-.55-.7-1.1-1.38-1.64-2h15.94a2.27,2.27,0,0,0,.25.18c2,1.11,4.65,1.33,7.76,1.57a46.1,46.1,0,0,1,7.54,1c8.43,2.11,14.54,8.13,18.22,15.37a114,114,0,0,1,15.8-8.65,124.81,124.81,0,0,1,34.34-9.52h36.54a140.55,140.55,0,0,1,18.11,3.63l6.68,1.8-2.85,6.31c-11.37,25.16-30.67,46-54.48,60.7a107.13,107.13,0,0,1,20.75,9.4h85.53L1357.08,690l24.81,4.85,16.38-10.24,80.18,3.67,24.45-14.57,127.4-2.34-55.36,62.94,63.14.8ZM31.13,756.94l-2.57.81,211.32,54-12.51-19.45-37.43-40.25ZM1230.78,773.5q-22.53-4.12-45.23-7a100.57,100.57,0,0,1-1.66,12.08A107.58,107.58,0,0,0,1230.78,773.5ZM1129,876.51q-10.18-16.65-21.13-32.79a48.26,48.26,0,0,1-.82,15.5c0,.25-.13.5-.19.75A104,104,0,0,0,1129,876.51Zm9.35-7.28a98.27,98.27,0,0,0-9.9-42.34,92.49,92.49,0,0,1-20.06-3.17Q1124,846,1138.35,869.23ZM1001.2,906c4.23,2.86,8.18,3.86,10.56,2.7,1.73-.85,3.06-3.23,3.23-5.79.18-2.72-.64-5.82-2.52-9.47a40.25,40.25,0,0,0-20.09-18.51c-3-1.25-5.42-1.72-7.32-1.44-1.47.22-2.88,1.15-3.14,2.07-.33,1.18.46,3.48.84,4.59a59.78,59.78,0,0,0,6.63,14A43.7,43.7,0,0,0,1001.2,906Zm5.22-110.7,2.31-1.69c.83-.58,1.61-1.35,2.46-2.05l5.21-4.5,4.71-4.81.17-.17a15,15,0,0,1-5.93-12.74l-1.93-.7c-.82-.33-1.78-.55-2.73-.84s-2-.6-3-.81l-3.15-.7-3.21-.52c-1.06-.2-2.12-.27-3.14-.37s-2-.24-3-.25l-2.69-.09c-.88,0-1.67,0-2.37,0,3.57,7.13,7.16,15.86,8.26,25.35,1.22,10.43-.7,21.58-5.45,32.45a105.25,105.25,0,0,0,33.27-34.39l-.06,0-6.48,3.43-6.61,2.83c-1.05.43-2,.92-3,1.23l-2.78.94-5.69,1.89Zm15.65-38.88c-.23-.16-.42-.35-.63-.52-2.64-.71-5.41-1.2-8.14-1.68a254.43,254.43,0,0,0-31.6-4c2.11,3.25,4.18,6.74,6.22,10.52.58,1.07,1.17,2.2,1.77,3.37.74-.28,1.59-.6,2.57-.88l2.66-.8c.94-.31,2-.49,3-.76s2.15-.53,3.28-.7l3.44-.58,3.49-.38c1.16-.15,2.3-.17,3.42-.22s2.18-.14,3.25-.1l3,.07.83,0A15.23,15.23,0,0,1,1022.07,756.41Zm-19.93,106c-3.71-8.57-4.93-18.61-3.67-29.12q-4.28,2.68-8.76,5a91,91,0,0,1-8.36,3.75A148.65,148.65,0,0,1,967.74,857q4.53,3.56,8.76,7.46a16.59,16.59,0,0,1,6.83-2.61,18.47,18.47,0,0,1,2.89-.22A27.81,27.81,0,0,1,996.88,864a50.6,50.6,0,0,1,8.58,4.6A44.23,44.23,0,0,1,1002.14,862.45ZM959.22,923a55.75,55.75,0,0,0,9.29,19.24c2,2.64,7.17,8.68,12.63,8,2.91-.36,5.84-2.91,7.3-6.35s1.74-7.59,1-12.91a51.52,51.52,0,0,0-16.55-30.79c-3.3-2.92-6.06-4.51-8.7-5-2.4-.45-5,.3-6,1.75s-1.13,4-1.14,6.53A75.6,75.6,0,0,0,959.22,923Zm3.42-39.69h.14a18.83,18.83,0,0,1,3.57.33,23.47,23.47,0,0,1,5.86,2c-.2-.56-.4-1.1-.59-1.67a21.52,21.52,0,0,1-1.45-9.28A134.74,134.74,0,0,0,959,865.12c-1.11,1-2.21,2-3.32,3Q959.37,875.63,962.64,883.33Zm-183.41,64c14.16,11.41,33.18,18.72,55,21.12,6,.67,13,1.06,19-1,7.68-2.69,13.67-9.44,18.68-15.56a198.83,198.83,0,0,0,24.3-36.46c4.44-8.79,6.79-15.66,7.6-22.29a32.21,32.21,0,0,0-3.29-19.53,46.87,46.87,0,0,1-2.53,6.88c-4.42,9.61-11.3,17.42-18,25-1.21,1.37-2.42,2.74-3.61,4.12L875,911.15c-5.67,6.61-12.09,14.1-21.27,17.86-11.74,4.79-24.59,2.26-34.91.23-10.15-2-20.65-4.07-30.78-7.78-11.77-4.32-21.26-10.3-28.21-17.8a55.39,55.39,0,0,1-6-7.68c0,.76-.08,1.53-.08,2.29C753.67,916.05,763.17,934.39,779.23,947.32Zm51.82-101.15c-1.32-.4-2.62-.87-3.9-1.39-8.22,8-22,10.78-34.63,6.69a41.7,41.7,0,0,1-8.33-3.77,48.09,48.09,0,0,0,12.51,14.35,49.26,49.26,0,0,0,27,10.26c.72,0,1.43.05,2.15.05a39.46,39.46,0,0,0,24.25-8.05,34.74,34.74,0,0,0,12.32-19.44,39.55,39.55,0,0,0,.91-9.81,23.66,23.66,0,0,1-8.27,9.11C848.65,848.19,840.12,848.9,831.05,846.17Zm3.29-44c-1.3-.26-2.57-.54-3.75-.82l-1.89-.45a71.44,71.44,0,0,0-33.69.58c-.56.14-1.12.3-1.67.45-1.25.35-2.59.71-4,1,3.51,6.3,11.25,12,19.41,14.18s16.67,1,21.49-2.8A11.84,11.84,0,0,0,834.34,802.14Zm-38.2,38.13c7.79,2.52,18.49,1.58,23.88-5.09a18.51,18.51,0,0,0,3-5.63,42.27,42.27,0,0,1-17.33-1.08c-11.58-3.13-21.88-10.91-26.89-20.3-.32-.6-.61-1.2-.88-1.8a46.94,46.94,0,0,0,0,17.72c.09.42.19.85.28,1.28A32.19,32.19,0,0,0,796.14,840.27Zm-12.79-48.39h.42a30.17,30.17,0,0,0,6.43-1.32l1.81-.49a83.23,83.23,0,0,1,39.26-.67l2,.47a33.07,33.07,0,0,0,6.91,1.17c2,0,3.75-.52,4.46-1.4,1-1.22.73-4.09-.62-7.13-2.88-6.48-8.76-12.59-17.47-18.18a62.54,62.54,0,0,0-7-3.85c-1,.86-2.06,1.59-2.93,2.19-2.4,1.68-4.86,3.3-7.24,4.88-7.89,5.23-15.35,10.17-21.06,16.74a44,44,0,0,0-5.29,7.59ZM837.6,823.5c-.49.39-1,.76-1.51,1.11a41.41,41.41,0,0,1-2.41,10c.26.08.51.18.77.25,5.69,1.72,10.93,1.46,14.38-.7a13.4,13.4,0,0,0,5.61-9c.71-3.71.38-8-1-13a51.94,51.94,0,0,0-4.61-11.28,16.86,16.86,0,0,1-2.56,1A23.48,23.48,0,0,1,837.6,823.5Zm17.22-45.78c2.12,4.79,2.72,9.41,1.83,13.4,1,1.54,1.94,3.13,2.81,4.75l.34.31c7,6.88,11.84,16.48,14.09,27.77.14.67.24,1.33.35,2,4.28-1.49,7.7-5.51,9.56-9.12,5.12-10,3.8-23.37-3.23-32.56-7.28-9.53-19.73-14.69-29.77-18.13-1.7-.58-3.44-1.15-5.22-1.67A44.84,44.84,0,0,1,854.82,777.72ZM875,840a48.14,48.14,0,0,1-1.09,7.48,46.5,46.5,0,0,1-16.5,26,51.69,51.69,0,0,1-34.3,10.52,61.12,61.12,0,0,1-33.58-12.68,60.44,60.44,0,0,1-11.42-11.52,10.74,10.74,0,0,1-10.87,0,53,53,0,0,1-10.62-8.14,61.54,61.54,0,0,0-.37,16.66,48.93,48.93,0,0,0,12.22,27.29c5.68,6.12,13.64,11.08,23.64,14.75,9.26,3.4,19.3,5.38,29,7.29,5.36,1,11.51,2.26,17.42,2.26a28.4,28.4,0,0,0,10.76-1.84c6.55-2.68,11.53-8.48,16.79-14.63l1.41-1.63q1.83-2.11,3.69-4.22c6.37-7.23,12.39-14.07,16.1-22.11,3.44-7.47,5.23-19.07-1-27.18C883.53,844.79,879.54,842.22,875,840ZM750.25,812.93c1.75,14.88,9.88,28.42,21.36,35.79a71,71,0,0,0-2.8-12.78c-.88-3.1-1.78-6.31-2.43-9.57a59,59,0,0,1,13.14-49.82c6.76-7.77,15.25-13.39,23.45-18.83,2.32-1.53,4.72-3.12,7-4.71,1.91-1.33,3.52-2.54,4-3.84,0-.15.06-.26.11-.2a11.72,11.72,0,0,0-3.21-1.42h0c-8.28-2.74-18.58-6.14-27.21-3.85-7.54,2-14.11,8.13-20.68,19.29C755.91,775,748,793.43,750.25,812.93Zm-3,26.71a64.28,64.28,0,0,1-8.65-25.33c-2.12-18,2.82-37.83,14.29-57.3.62-1,1.24-2,1.86-3-9-1.55-17-1.15-23.64,1.23-9.64,3.46-16.37,11-20.32,16.69-5.07,7.34-8.59,15.64-12.31,25.86-3.2,8.76-6.39,18.84-3.9,27.69,1.15,4.08,3.5,8,6,12.13,1.42,2.37,2.89,4.81,4.2,7.4s2.31,5,3.33,7.46a63.83,63.83,0,0,0,4.83,9.95c6,9.32,18.11,15.06,30.61,15.06.82,0,1.64,0,2.46-.08a63.83,63.83,0,0,1-1.4-7.59A76,76,0,0,1,747.21,839.64Zm-88,56.49c7.45,6.81,17.72,10.54,28.47,14.07,14,4.58,28.83,9.06,43.48,9.15h.41A50.08,50.08,0,0,0,745,917.69,65.08,65.08,0,0,1,742,898.17a67,67,0,0,1,.72-8.94c-16.23-.2-31.68-7.86-39.78-20.47A73.88,73.88,0,0,1,697.2,857c-1-2.36-1.91-4.58-3-6.71s-2.41-4.35-3.78-6.64c-2.78-4.62-5.65-9.4-7.23-15-3.45-12.22.34-24.43,4.16-34.91,1.65-4.51,3.43-9.13,5.48-13.68a49.53,49.53,0,0,0-16.66,3.06c-11.17,4.31-20.74,14.15-26.26,27-4.64,10.78-6.76,23.87-6.49,40C643.79,871.37,649.1,886.86,659.23,896.13Zm-21-129.46c-1.43.2-2.91.44-4.4.73q-2.08,1.33-4.24,2.56l4.79.7,3.57.53c1.28.2,2.55.29,3.92.45l4.14.43q-.85-3.11-1.55-6.21C642.44,766.1,640.37,766.36,638.27,766.67Zm3.46-20.49c-.09-1.49-.15-3-.18-4.46l-9.32,12.52A98.65,98.65,0,0,0,641.73,746.18Zm-21.22,74.58-4.55-3.1a173.94,173.94,0,0,0,16.31,16c.16-1.73.36-3.44.59-5.11L628.51,826c-1.49-.93-3-1.78-4.32-2.68Zm3-40.68-.18-.28a.66.66,0,0,0,.08.21C623.5,780.1,623.76,780.35,623.56,780.08Zm3.33,33.07c1,1,2,2.05,3.11,3.18s2.31,2.17,3.54,3.34l.8.73c.27-1.23.57-2.43.89-3.62l-3.91-1.94c-1.36-.65-2.61-1.32-3.89-1.89l-1.31-.6Zm2.1-10.34,3.11,2.4c1.11.83,2.26,1.83,3.46,2.8l1.92,1.57c.43-1.16.87-2.31,1.35-3.43a115.46,115.46,0,0,0-11.52-4.64Zm17.75-10.75c.76-1,1.54-2,2.35-3l-6.68,1.2c-1.27.25-2.44.41-3.63.69l-.6.14C641,791.51,643.88,791.82,646.74,792.06Zm-4.87-12.38c-1.41.19-2.81.44-4.08.55l-3.6.37-.39,0a4.2,4.2,0,0,1-.06.62c0,.17-.07.34-.1.51l.94,0,3.38.14c1.19,0,2.54.19,3.87.28l7.75.67c-.56-1.4-1.06-2.77-1.5-4.1Zm1,115.13c-7.17-11.18-10.94-26.08-11.25-44.51,0-.65,0-1.29,0-1.93a173.2,173.2,0,0,1-19.92-18c0,.06,0,.12.08.19.45,1.2,1,2.49,1.47,3.86s1.18,2.81,1.8,4.31,1.28,3.06,2,4.6l2.23,4.7,2.42,4.62c.78,1.55,1.65,3,2.47,4.43s1.58,2.84,2.4,4.11,1.57,2.5,2.27,3.62c1.38,2.26,2.71,4,3.56,5.33l1.38,2-1.76-1.68c-1.1-1.1-2.79-2.57-4.62-4.52-.93-1-1.94-2-3-3.11s-2.12-2.33-3.25-3.58-2.31-2.54-3.41-3.92l-3.42-4.14c-1.09-1.44-2.19-2.87-3.26-4.29-.66-.84-1.28-1.69-1.87-2.54,1.14,2.69,2.34,5.31,3.49,7.84C620.68,869.64,629,885.94,642.91,894.81ZM614.49,806.1Zm-1.86,104.24c.42-.24.84-.48,1.27-.71a70.9,70.9,0,0,1,17.43-6.3c.8-.19,1.61-.36,2.44-.5a71.13,71.13,0,0,1-17.19-18.32,148.61,148.61,0,0,1-2.89,21.36C613.38,907.31,613,908.82,612.63,910.34Zm-9.87,30.5c.68,1.81,2.91,3.37,5.44,3.79,2.69.44,5.85-.07,9.67-1.58a40.22,40.22,0,0,0,20.39-18.18c1.55-2.89,2.25-5.22,2.15-7.13-.07-1.49-.86-3-1.75-3.33-1.13-.45-3.5.11-4.64.38A59.89,59.89,0,0,0,619.44,920a43.45,43.45,0,0,0-13,10.58C603.22,934.53,601.83,938.36,602.76,940.84Zm-21-31.13c2.87,6.71,6.56,10.94,9.63,11,2,0,4.53-1.79,6.34-4.61,2.32-3.63,3.56-8.47,4.46-12.71a140.08,140.08,0,0,0,2.48-40.66q-1.32-2.79-2.61-5.62c-3-6.57-6.45-14.15-8.7-22.3-.07,1.31-.15,2.7-.23,4.18s-.07,3.27-.11,5c0,3.48-.11,7.2-.16,10.92.11,3.74.21,7.49.32,11,.07,1.76.05,3.47.19,5.08s.22,3.13.32,4.54c.4,5.64.67,9.4.67,9.4l-2.48-9.1c-.38-1.37-.78-2.86-1.21-4.43s-.77-3.25-1.19-5L587,855.59l-2-11.07c-.3-1.76-.68-3.51-.88-5.1s-.41-2.91-.6-4.23a172,172,0,0,1-9,40.12C575.07,888.4,577.46,899.71,581.74,909.71Zm22.61-91.78v0h0l-.06.12,0,.12v.06l0-.07Zm0,.08s0,0,0,0S604.34,818,604.34,818ZM527,905c1,3.3,3.19,5.91,5.65,6.81,2.73,1,6.51.14,9.63-2.21,3.48-2.63,6.14-6.74,8.51-10.79a163.09,163.09,0,0,0,21.48-70.92l-.07-.07-.12-.13-1.46,3.65c-.57,1.4-1.18,2.92-1.82,4.53s-1.42,3.31-2.17,5.06c-1.52,3.49-3.14,7.22-4.77,11l-5.08,10.75c-.82,1.71-1.56,3.38-2.36,4.92s-1.54,3-2.22,4.36l-4.58,9s1.14-3.86,2.86-9.65l1.39-4.66c.51-1.65.93-3.43,1.42-5.24,1-3.63,2-7.51,3-11.38s1.81-7.77,2.65-11.42c.41-1.82.86-3.54,1.18-5.25.16-.79.32-1.56.47-2.31a164.46,164.46,0,0,1-28.87,39.21,107.06,107.06,0,0,0-5.27,22.77C526,896.44,525.74,901,527,905Zm-45.7-23.77c3.71,3.3,11.06,1.18,13.22.45,8.93-3,17.58-8.78,27.21-18.15a151.84,151.84,0,0,0,21.8-26.67c-.78.69-1.57,1.37-2.43,2l-4.39,3.42c-1.54,1-3.08,2.1-4.6,3.12s-3.06,1.93-4.55,2.81-2.9,1.77-4.34,2.45l-4,2c-.62.3-1.2.61-1.76.87l-1.65.68-2.65,1.09-2.31,1,2.07-1.4,2.36-1.6,1.45-1c.5-.37,1-.78,1.54-1.19l3.42-2.68c1.23-.92,2.39-2.09,3.65-3.18s2.55-2.23,3.74-3.52l3.69-3.79,3.41-4c1.15-1.28,2.12-2.69,3.1-4,.72-1,1.49-2,2.15-2.9-1.22.92-2.54,1.79-3.87,2.74s-2.76,2-4.25,2.88l-4.45,2.84-4.56,2.66c-1.48.89-3,1.67-4.46,2.44s-2.85,1.54-4.22,2.17l-3.84,1.8-1.71.8-1.57.64L506,847l-2.21.9,2-1.35L508,845l1.38-.94,1.48-1.13,3.33-2.53c1.17-.89,2.35-1.94,3.59-3s2.52-2.07,3.75-3.24,2.51-2.28,3.77-3.44l3.11-3.07a136.71,136.71,0,0,1-27.8,11.6,191,191,0,0,0-16.42,21.91c-2.3,3.64-4.51,7.56-5.15,11.51C478.46,876.13,479.34,879.47,481.27,881.18Zm7.23-64,2.8-.43c1.08-.16,2.3-.36,3.61-.66l4.24-.9c1.5-.28,3.05-.79,4.66-1.2s3.28-.84,4.93-1.43l5-1.65,4.9-1.92c1.5-.54,2.93-1.23,4.32-1.86-.68.06-1.36.12-2.05.15l-4.92.3-4.92.1c-1.62.06-3.21,0-4.75,0s-3,0-4.42-.13l-3.95-.24c-2.43-.11-4.46-.41-5.87-.52l-2.22-.23,2.22-.28c1.4-.21,3.41-.37,5.79-.8l3.85-.65c1.36-.21,2.78-.57,4.25-.86s3-.6,4.51-1l4.61-1.17,3.74-1.11c-19.14,2.49-35.88,1.93-50.57-1.71q-9,3.59-17.52,7.91c-3.23,1.65-6.55,3.53-8.88,6.14s-3.24,5.6-2.56,7.91c.77,2.6,3.63,4.67,5.89,5.94,6.1,3.44,13.84,5.17,23.66,5.29h1c18.91,0,40.41-7,58.27-18-.75.17-1.51.33-2.28.52-1.7.38-3.44.82-5.25,1.08l-5.43.93-5.46.63c-1.78.24-3.57.3-5.28.41s-3.35.25-4.92.23l-4.41,0c-1.36,0-2.6,0-3.71-.09l-2.85-.15-2.47-.12Zm8.14-26.77A170.19,170.19,0,0,0,524.16,788c.66-.1,1.32-.22,2-.34l-.76-.07-4.71-.51c-1.67-.15-3.36-.5-5.14-.75s-3.59-.54-5.43-1l-5.55-1.17-5.48-1.43c-1.81-.44-3.55-1-5.24-1.55s-3.33-1-4.84-1.58L484.73,778c-1.33-.47-2.52-1-3.56-1.42l-2.72-1.16-2.35-1,2.51.52,2.87.61c1.1.24,2.35.49,3.73.68l4.43.7c1.56.28,3.24.38,4.95.59s3.48.41,5.29.48l5.45.31,5.45,0c1.79.06,3.56-.06,5.26-.12s3.35-.08,4.87-.25l4.28-.39,1.9-.17,1.79-.25.9-.12-.85-.41-3.79-1.82c-1.34-.67-2.85-1.24-4.36-1.91s-3.11-1.35-4.75-1.93l-5-1.88L506,767.47c-1.67-.58-3.34-1-4.95-1.48s-3.18-1-4.69-1.28l-4.24-1c-1.31-.33-2.52-.58-3.6-.78l-2.8-.54-2.45-.47,2.49,0,2.86,0c1.11,0,2.36,0,3.73,0l4.41.13c1.58,0,3.22.21,4.93.32s3.49.22,5.28.46l5.46.63,5.44.86c1.8.25,3.55.64,5.25,1s3.36.63,4.93,1l4.43,1.1,2,.5,1.69.49,2.74.79.33.1a10,10,0,0,0,.85-.7c.1-.1.26-.22.24-.25s0-.05.07-.07,0,0,0,.07c0-.15.09-.42.09-.48a.24.24,0,0,1,0-.12l0-.77a53.25,53.25,0,0,1-5.17-2.12l-1-.47c-25.76-9.34-53.79-11.67-79.64-6.51-7,1.41-11,3.43-12.41,6.38-1.2,2.42-.64,6,1.38,9s5.13,5.31,10,7.85C465.84,787.3,480,790.4,496.64,790.4Zm-25.89,70.5a68.83,68.83,0,0,1,3.45-6c2.58-4.1,5.36-8,8.21-11.82-1.94.25-3.88.45-5.8.58q-19.5,8.88-39.44,16.88A107.58,107.58,0,0,0,470.75,860.9Zm-39.31-10.78q10.1-4,20.11-8.29a50.87,50.87,0,0,1-9.49-3.38A106.6,106.6,0,0,0,431.44,850.12Zm-16.62-53a109.77,109.77,0,0,0,28,.61c.88-.49,1.75-1,2.6-1.38,2.13-1.08,4.28-2.14,6.45-3.15-1.18-.55-2.35-1.11-3.5-1.71-4.2-2.18-10.26-5.75-14.3-11.62a23.53,23.53,0,0,1-2.64-5q-39.5-2-78.94-6.82C370.75,783.4,392.71,793.76,414.82,797.12Zm-62.88-41Q391.07,761,430.4,763a18,18,0,0,1,1.4-4c3.41-6.93,10.4-10.09,16.58-11.76C415.55,739.31,381.17,742.12,351.94,756.13Zm89.41-23.34c-7.08-10-8.27-19.26-3.35-26,.29-.39.6-.76.91-1.12q-25.59-18.73-50.16-38.95c7.17,22.77,20.13,43.3,37,58A108.73,108.73,0,0,0,436.51,733q2.85.42,5.7,1C441.92,733.58,441.63,733.19,441.35,732.79ZM458.77,712c-5.95-.82-9.84-.23-11.27,1.72-1.94,2.66.52,8.06,3.46,12.24a116.41,116.41,0,0,0,16,18.16c5.13-.51,10.31-.77,15.51-.77A163.23,163.23,0,0,1,505.21,745a131.54,131.54,0,0,1-24-28A139.45,139.45,0,0,0,458.77,712Zm83.55,41.29-3.58-3.88c-1.28-1.34-2.55-3-3.9-4.52L526.46,735c-2.67-3.47-5.34-6.95-7.85-10.2-1.23-1.64-2.5-3.16-3.56-4.72l-3-4.34-6.24-8.93,7.65,7.74,3.69,3.74c1.28,1.35,2.79,2.63,4.27,4l9.33,8.63,7.37,6.21c-.54-.95-1.08-1.9-1.59-2.84-8-14.63-13.71-28.34-17.3-41.37a138.8,138.8,0,0,0-28.05-15.71c-5.54-2.31-9.45-2.73-11.33-1.21-2.55,2.08-1.55,7.94.24,12.72h0a119,119,0,0,0,60.3,65.42,41.88,41.88,0,0,0,4.38,1.76Zm6.6,14.87h0Zm.09,0h0Zm58.49-4,0-.06,0,0-.33-.49-.15-.28-.28-.57a8.72,8.72,0,0,1-.4-1c-.12-.35-.19-.61-.25-.85s-.09-.4-.14-.58l-1.49,0a12,12,0,0,1-3.87-.5l-.27-.09-.43-.16-.28-.14c-.36-.18-.72-.37-1.06-.58l-.52-.32-.41-.33c-.27-.23-.54-.47-.79-.71a14.16,14.16,0,0,1-1.19-1.34l-.82-1.14-.6-.88-.4-.56h0l0,0s-.12-.1-.17-.15l-.35-.29h-.08a7.47,7.47,0,0,0-2.62.51c-1.28.39-2.84,1-4.76,1.38-.48.1-1.27.23-1.68.27l-.57,0-.35,0h-.64a15.9,15.9,0,0,1-3.14-.34c-1.89-.4-3.42-.95-4.75-1.35a11.22,11.22,0,0,0-3-.65c-.17,0-.27,0-.38,0s0,0,0,0l0,0s0,0-.07,0l-.44.2-.06.06a1.36,1.36,0,0,1-.34.23l-1.66,1.6a17.27,17.27,0,0,1-2.06,1.66l-.15.12-.24.14a16,16,0,0,1-5.94,1.67l-1,.14a5.76,5.76,0,0,0-.77.14l-.35.08a.12.12,0,0,0,.06-.06s0,0,0-.06l-.23.15-.36.23-.08.11a9.1,9.1,0,0,0-.63,1.15c-.27.57-.58,1.29-1,2.15a12,12,0,0,1-2.12,3l-.42.39-.21.19-.31.23c-.22.16-.44.3-.66.44l-.34.2-.16.08-.24.13-.13.06,0,0c.07,0-.66.29-.38.16l-.12,0-.77.24c0,.17,0,.35,0,.56l-.1,1c0,.31-.06.4-.09.61a10.39,10.39,0,0,1-.69,2.17,8.46,8.46,0,0,1-1,1.82,9.19,9.19,0,0,1-1.2,1.41,35,35,0,0,1-4,3.18,4.12,4.12,0,0,1-.41.32l-.72.7,0,.07-.12.16a3.25,3.25,0,0,0-.21.37,5,5,0,0,0-.45,2.12c0,.24,0,.3,0,.46v.1l0,.27.09.55.36,1.27c.13.48.42,1,.61,1.48s.53.95.77,1.43a9.25,9.25,0,0,0,.54.86l.6.93.57.83.71,1.09a17.4,17.4,0,0,1,1.43,2.84l.31.89c.09.32.17.68.24,1a9.79,9.79,0,0,1,.13,2.78l0,.37,0,.14,0,.27,0,.27,0,.14v0l-.15.61,0,.14c-.1.3-.21.58-.32.83A21.12,21.12,0,0,1,550,803.8c.29.22.48.35.82.64a12.88,12.88,0,0,1,1,1l.38.46,0,0,0,0c-.05-.07.48.66.27.39l.16.26.29.54a9.31,9.31,0,0,1,.51,1.07l.3.88.14.44.07.27.13.53.14.53.07.27,0,0h0a2.54,2.54,0,0,1,.16.38,4.41,4.41,0,0,0,.52.78,6.2,6.2,0,0,0,1.81,1.48c.15.08.27.12.39.2l.09.06.23.09.52.19.26.09h0l.35.07.72.15c.25.05.47.13.73.16l.82,0a9.92,9.92,0,0,0,1.64.06l.82,0a8.51,8.51,0,0,0,.92,0l2.19-.24,1.08-.13,1.36-.11a18.69,18.69,0,0,1,3.14.06,11.71,11.71,0,0,1,4,1.11,9.19,9.19,0,0,1,2.16,1.45,7.7,7.7,0,0,1,.8.81,17,17,0,0,1,1.64-.65c.36-.1.67-.2,1.08-.29s.8-.15,1.37-.2c.36,0,.72,0,1.08,0l.54,0,.4.06.27.05.14,0,.06,0,.63.15.1,0a9.82,9.82,0,0,1,4.28,3l.73.85a1.63,1.63,0,0,1,.23.22,2.83,2.83,0,0,1,.28.2c.12,0,.21.12.33.18a4.42,4.42,0,0,0,1.79.36,3.74,3.74,0,0,0,3-1.24l1.2-1.92,2.91-.39h0a11.36,11.36,0,0,0,2.75-.57,2.88,2.88,0,0,0,.46-.22V816c0-.28,0-.48,0-.83l.09-1c0-.12.08-.48.13-.74s.13-.55.21-.82.18-.58.25-.77l.11-.26.11-.25.06-.13c-.23.46.31-.66.28-.58l0-.08.09-.16c.27-.41.55-.82.85-1.2s.65-.69,1-1a12.65,12.65,0,0,1,1-.79,13.68,13.68,0,0,1,3.47-1.63c.95-.31,1.68-.49,2.25-.67h0c0-.14-.05-.28-.07-.44a19,19,0,0,1-.4-3.09c0-.37,0-.73,0-1.1s.08-.79.16-1.26c.07-.29.14-.59.23-.88l.13-.44.12-.32.12-.26.05-.13,0-.07.21-.45,0-.08a10.13,10.13,0,0,1,3.32-3.56,22.75,22.75,0,0,1,2.47-1.4l-.15-.34a14.91,14.91,0,0,1-1.08-3.31,8.75,8.75,0,0,1,0-3,6.57,6.57,0,0,1,.27-1.09,9.42,9.42,0,0,1,.47-1.14l.07-.14,0-.06.07-.13.14-.24c.62-1,.21-.32.36-.56l.07-.08.12-.15.27-.31c.18-.21.37-.41.55-.59s.59-.51.87-.72l.29-.21-.21-.16-.37-.27c-.34-.25-.62-.43-1.08-.79-.21-.17-.39-.3-.64-.51l-.73-.68a7.35,7.35,0,0,1-.94-1.09c-.16-.22-.32-.44-.47-.67l-.2-.33-.06-.12-.25-.51,0-.06c.2.47-.3-.67-.26-.59l0-.08-.1-.32-.17-.66a6.56,6.56,0,0,1-.2-1.19l-.05-.56v-.46c0-.65,0-1,.05-1.49v0l-.37-.09-2.17-.46a19.17,19.17,0,0,1-3-.9l-.9-.41a10.85,10.85,0,0,1-.95-.57,9.41,9.41,0,0,1-2.12-1.91Zm10.6,5s0,0-.06,0S618.13,769.27,618.1,769.24Zm32.12-92.68c-.07,1.52-.19,3-.34,4.51.71-.39,1.42-.77,2.13-1.13C651.41,678.82,650.81,677.69,650.22,676.56Zm-9.22,26c-7.89,8-14.32,17.77-19.73,26.35-4.47,7.11-8.86,14.39-13.07,21.65.24,0,.5.08.77.14l0-.06.89-1.72L611,747l2.54-4.36c.88-1.57,2-3.06,3-4.68s2.1-3.27,3.32-4.86l3.58-4.89,3.83-4.69c1.22-1.56,2.57-3,3.84-4.39s2.44-2.79,3.69-4l3.45-3.43,1.53-1.51,1.45-1.29,2.35-2.11,2-1.82L644,707.11,642,709.6l-1.17,1.52c-.38.56-.79,1.14-1.22,1.75l-2.71,3.94c-1,1.38-1.86,3-2.84,4.51s-2,3.17-2.89,4.89l-2.79,5.12c-.85,1.76-1.69,3.52-2.52,5.25s-1.55,3.47-2.26,5.15-1.44,3.28-2,4.83l-1.54,4.33c-.24.67-.47,1.31-.68,1.92s-.36,1.17-.52,1.71l22.71-20.28a101.25,101.25,0,0,1,2.81-19.56,90.73,90.73,0,0,1,8.48-21.76A66.55,66.55,0,0,0,641,702.55Zm137.58-30.42c-12.6-6.76-28-10.41-44.59-10.57-13.43-.16-32.92,2.05-49.27,13.14-13.9,9.42-24.41,25-28.83,42.82-4.09,16.43-3.35,35,2.13,53.68.77,2.6,1.58,5,2.45,7.18a52.25,52.25,0,0,1,11.47-6.24,62.83,62.83,0,0,1,22.72-3.88c1.42,0,2.87,0,4.34.12.66-1.07,1.35-2.13,2.07-3.17a59.52,59.52,0,0,1,16.43-16.29,38.45,38.45,0,0,1,.1-7.2c2-18.34,16.58-31.31,27.37-39.46,7.75-5.86,17.17-11.8,28.24-11.57a52.41,52.41,0,0,1,11.86,2c4.07,1,7.92,2,11.31,1.52a20.1,20.1,0,0,0,5.62-1.85A69.15,69.15,0,0,0,778.58,672.13Zm60.53,28c-7.5-3.51-16-4.11-22.68-1.6a51.87,51.87,0,0,0-5.68,2.66c-3.69,1.89-7.87,4-12.77,4.72a25.16,25.16,0,0,1-3.44.23,50.31,50.31,0,0,1-12.34-2,43.51,43.51,0,0,0-9.25-1.66c-7.52-.18-14.75,4.55-20.88,9.19-14.38,10.87-21.62,20.83-22.76,31.35,0,.14,0,.28,0,.42a52.59,52.59,0,0,1,15.28-2.14,74.26,74.26,0,0,1,14.7,1.56c1.16.24,2.31.5,3.44.77,5.51-5.83,11.46-9.56,18-11.29a36.26,36.26,0,0,1,9.3-1.17c8.84,0,17.39,2.83,24.63,5.22h0c3.18,1,9.79,3.24,11.06,10.5a12.33,12.33,0,0,1,.09,3.38l.63-.06c.88-2.85,1.86-5.62,3-8.31,5.13-12.34,12.31-20.68,21.36-24.77a32.42,32.42,0,0,1,5.82-2A46.32,46.32,0,0,0,839.11,700.12Zm67,52.62c-2.06-2.31-4.2-4.7-6.33-7-5.27-5.62-12.43-12.58-21-16.58-8.1-3.75-16.79-4.26-23.23-1.34-6.23,2.82-11.39,9.06-15.33,18.55-.59,1.43-1.13,2.89-1.65,4.37a97.92,97.92,0,0,1,16,4.23c11.61,4,26.12,10.08,35.32,22.12,9.83,12.87,11.58,31,4.34,45.08A33.54,33.54,0,0,1,886,832.62a36.41,36.41,0,0,1,9.64,8.53,31.35,31.35,0,0,1,5.88,13,79.62,79.62,0,0,0,11.65-11,119.65,119.65,0,0,0,20.39-32.28c4.85-11.37,5.68-20.14,2.52-26.83-2.35-5-7-8.95-11.86-13.17-1.37-1.17-2.73-2.35-4-3.55A190.93,190.93,0,0,1,906.15,752.74Zm43.52-18.81a41.89,41.89,0,0,0-20.09-6c-1.58,7.47-4.31,15.7-9.36,22.8,2.53,2.75,5.09,5.4,7.82,7.88,1.24,1.13,2.53,2.24,3.82,3.35,5.6,4.83,11.4,9.83,14.81,17,4.68,9.91,3.92,21.84-2.33,36.48A131.14,131.14,0,0,1,922,851a91.09,91.09,0,0,1-13.76,12.87c.45.6.9,1.2,1.31,1.82A38.2,38.2,0,0,1,914.17,876a42.1,42.1,0,0,0,14.05-2.35c6.16-2.38,11.5-7.11,16.66-11.69,10.92-9.67,22.21-19.68,30.44-31.59,8.78-12.69,12.83-26.41,11.41-38.61-1.11-9.52-5.49-18.6-9.18-25.44C969,750.53,960.18,740.23,949.67,733.93Zm78.08-50.19c-3.23-7.89-6.44-13.23-10.38-17.33-4.6-4.76-10.32-7.54-15.68-7.61a16.52,16.52,0,0,0-2.7.2,154.51,154.51,0,0,1-43.48,64.5l.4.44a69.9,69.9,0,0,1,15,12.31c1.18.75,2.34,1.45,3.49,2.12l1.66,0c13,0,26.3,2,39.26,4.26,1.53.27,3.13.55,4.75.88.11-.19.21-.38.32-.55l-1.06-.71-1.39-1-3.11-2.22c-1.11-.77-2.17-1.67-3.32-2.55s-2.32-1.8-3.45-2.81l-3.46-3-3.31-3.13c-1.11-1-2.12-2.09-3.11-3.1s-2-2-2.82-3l-2.43-2.73c-1.52-1.67-2.63-3.2-3.48-4.2l-1.29-1.6,1.65,1.24c1.06.77,2.49,1.95,4.35,3.19l3,2c1,.73,2.22,1.39,3.38,2.13s2.38,1.5,3.66,2.19l3.82,2.13,3.9,2c1.27.67,2.58,1.22,3.82,1.78s2.43,1.13,3.58,1.56l3.19,1.25,1.42.55,1.23.43c-.22-1.13-.47-2.43-.76-3.88-.24-1.24-.5-2.57-.77-4s-.68-2.79-1-4.28l-2.38-9.32c-1-3.16-2-6.31-3-9.27-.5-1.48-.89-2.95-1.43-4.27s-1-2.6-1.47-3.76c-1.82-4.68-3-7.8-3-7.8l4.68,7,2.28,3.39c.84,1.2,1.53,2.55,2.36,3.9,1.61,2.75,3.33,5.67,5,8.6,1.55,3,3.09,6.09,4.55,9a123.59,123.59,0,0,1,1.81-16.38c.23-1.24.48-2.46.75-3.67A123.15,123.15,0,0,0,1027.75,683.74Zm34.3,69.39c-2-3.14-5.83-4.64-9.52-5.13-4.12-.55-8.6,0-11.86,2.59-2.24,1.78-3.71,4.34-5.11,6.84-1,1.87-2.13,3.83-2.18,6a6.76,6.76,0,0,0,4.84,6.48c1.93.52,4.28.26,5.62,1.75.78.87,1,2.14,1.69,3.06,1,1.36,3,1.69,4.68,1.57a14.15,14.15,0,0,0,9.94-5.57,18.13,18.13,0,0,0,3.53-11A12.2,12.2,0,0,0,1062.05,753.13Zm2.7,32.92.1.2.5,1c.19.4.38.82.58,1.26l1.25,2.85c.47,1,.75,2.06,1.14,3.14a33.58,33.58,0,0,1,1,3.35c.29,1.15.59,2.32.88,3.48s.41,2.36.62,3.52a34.2,34.2,0,0,1,.41,3.4c.08,1.1.25,2.14.24,3.16s0,2,0,2.83a19.59,19.59,0,0,1-.07,2.36c0,.71-.09,1.32-.12,1.82l-.11,1.57s-.14-.56-.4-1.53c-.12-.48-.27-1.06-.45-1.73a17.9,17.9,0,0,0-.67-2.21l-.9-2.57c-.29-.91-.77-1.82-1.17-2.77a30.11,30.11,0,0,0-1.37-2.88l-1.55-2.87L1063,800.7a28.34,28.34,0,0,0-1.82-2.51c-.62-.78-1.16-1.61-1.77-2.23s-1.12-1.24-1.63-1.79a13.85,13.85,0,0,1-5.69,2.38,12.82,12.82,0,0,1-2.31.16c-.38.77-.79,1.6-1.23,2.47s-.85,1.92-1.31,3-.93,2.1-1.32,3.21l-1.27,3.39c-.37,1.16-.74,2.32-1.11,3.46s-.66,2.29-1,3.4-.62,2.19-.82,3.23-.43,2-.63,2.92c-.41,1.82-.57,3.36-.77,4.44l-.28,1.69s-.08-.61-.23-1.7-.42-2.64-.55-4.52c-.08-.94-.17-2-.27-3s-.1-2.23-.16-3.42-.11-2.43-.07-3.68l.06-3.83c.08-1.28.16-2.57.23-3.83s.23-2.52.36-3.73.23-2.37.43-3.5.37-2.21.53-3.2a1.16,1.16,0,0,0,0-.18,15.6,15.6,0,0,1-2.16-2.14,117.11,117.11,0,0,1-25.37,31.43c-.14.43-.3.85-.43,1.29-3.81,12.42-3.64,24.48.46,34,4.53,10.44,14.58,17.8,24.45,17.89h.21a53.29,53.29,0,0,0,9.13-1.11,79.36,79.36,0,0,1,8.65-1.22,80.76,80.76,0,0,1,11.7.32c5.55.42,10.79.82,15.29-.72h0c6.25-2.12,11.43-8.53,13.2-16.33,1.57-6.89.88-14.89-2.1-24.46C1088.43,816,1078.5,800.05,1064.75,786.05Zm10.63-33.38.8.71-.41-1Zm18.49-8c-5.53,1.56-12.27,3.82-18,7.66l1.73-.47,2.07-.56,1.27-.35,1.56-.35,3.5-.76c1.23-.29,2.51-.4,3.83-.61s2.67-.42,4.07-.49l4.2-.33,4.19-.05c1.36-.06,2.72.05,4,.11s2.55.09,3.74.25l3.31.39a26.4,26.4,0,0,1,2.78.43l2.12.39,1.83.34-1.86.17-2.13.18c-.82.06-1.74.16-2.74.33l-3.21.5c-1.13.15-2.31.49-3.53.74a38.05,38.05,0,0,0-3.72.92l-3.77,1.1-3.67,1.34c-1.22.4-2.36.95-3.48,1.43s-2.21.92-3.15,1.45l-2.66,1.4-1.18.62-1.14.68-1.84,1.1-.86.51a14.47,14.47,0,0,1,.19,2.18l.75.26,1.51.57,3.37,1.32c1.2.45,2.38,1,3.63,1.58s2.54,1.11,3.81,1.78l3.85,1.95,3.74,2.13c1.24.67,2.4,1.44,3.54,2.16s2.24,1.37,3.24,2.1l2.82,2c1.76,1.19,3.11,2.36,4.1,3.09l1.53,1.19-1.79-.75c-1.15-.46-2.72-1.22-4.71-1.91l-3.18-1.16c-1.11-.43-2.34-.76-3.58-1.16s-2.51-.81-3.84-1.13l-4-1-4-.84c-1.31-.3-2.63-.49-3.89-.69s-2.48-.44-3.62-.55l-3.19-.35-1.41-.15-1.36-.1-1.27-.08a16.86,16.86,0,0,1-3.78,3.1,140,140,0,0,1,20.94,27.38,81.27,81.27,0,0,0,38,9.58q3.66,0,7.32-.35c8.31-.8,14.47-2.87,18.83-6.34,7.9-6.3,10.76-17.69,13.21-29.81,2.19-10.79,3.87-22-1.53-29.38-4.06-5.58-12.06-8.77-24.45-9.74A148.41,148.41,0,0,0,1093.87,744.71Zm73.68-66.06a102.17,102.17,0,0,0-16.91,9.58,36.62,36.62,0,0,1,.4,6.48,50.14,50.14,0,0,1-5.87,21.24c27.55-16.59,56-32,85.13-46.1C1208.47,667.26,1186.36,670.26,1167.55,678.65Zm69.55,1c-30.5,14.71-60.28,30.89-89,48.35q1.44.13,2.82.3a94.13,94.13,0,0,1,33.21-1.35C1205.9,716,1224.44,699.7,1237.1,679.63Zm-48,60.1A82.41,82.41,0,0,0,1175.8,738a27.52,27.52,0,0,1,4,4.46,29.66,29.66,0,0,1,5.11,12.09q23.38,3,46.64,7.17C1219.12,750.79,1204.31,743.05,1189.12,739.73Zm271.41,69.87,39.71,2c-9.8-10.9-36.82-40.87-48-52.51h-30Zm-77.16-15.44h45.71c-4.81-6-18.71-24.77-26.79-35.09h-54.37Zm17.69-98.9-.32.19h1.18l-50.63,44.77H1434l31.51-42Zm104.81-11.1-15.71,9.37-43.72,46.69h14.91L1517.23,684Zm100.9-1.85-26.24.48-66.1,57.43h41.42Zm-52.36,76.76h-44.67l56.66,55.81,43.91,2.19Z"/></g></g></svg>