<svg xmlns="http://www.w3.org/2000/svg" viewBox="0 0 1650 1462.98"><title>Asset 44</title><g id="Layer_2" data-name="Layer 2"><g id="Layer_1-2" data-name="Layer 1"><path fill="FRAME_COLOR" d="M1647.11,522.49H1351.63a122.79,122.79,0,0,1-1.79-18.17c-.21-12.36,1.75-24.43-.93-36.61a78.18,78.18,0,0,0-5.27-15.66c13.49,9.78,28.28,17.24,44.28,19.34,39.5,5.16,78.41-18.65,117.53-21.4,6.61-.48,10.5-8.33,5.54-13.38-20.78-21.23-35.09-47.93-53.19-71.33l-22.36-24.18c-1.34-1.21-2.69-2.41-4.1-3.55-30-24.25-64.68-25.84-100.29-14a42.81,42.81,0,0,1-3.58-4c-3.2-4.2-5.19-9.05-7.15-14.14,18.37-11.63,41.42-30.28,63.37-32.69,5.75,8.33,13.18,21.44,24.74,17.31,10.39-3.72,10.18-17,6.64-25.39s-11.73-24-23-17.48a12.1,12.1,0,0,0-6,9.63c-26,.76-50.54,20.44-72.15,34.17a35.62,35.62,0,0,0-3.64-5.27c-.11-.13-.25-.24-.35-.34a376.94,376.94,0,0,1,26.56-32.55c2.62-2.85,14.93-15.89,22.13-22.81,6,6.88,15.82,13.25,23.91,8.46,11.45-6.77,2.13-22.67-4.3-29.38s-19.06-14.52-28.39-9c-8,4.78-5.74,11.53-.89,17.31-5.44,4.75-10.26,10.53-13.63,13.93a395.84,395.84,0,0,0-37.67,44.45,85.46,85.46,0,0,0-11.77-5.26c-1.72-.65-3.44-1.13-5.16-1.69,12.8-16.48,17.79-41.52,20-62.06,7.22-.17,14.41-4.92,19.88-10.57a7.91,7.91,0,0,0,0-11.07c-9.39-9.29-29.69-12.42-41.53-5.82-6.15,3.44-9.08,10.77-5.91,17.34,2.51,5.16,7,7.64,12,8.47-2.07,19.88-7.26,49-22.37,60a79.81,79.81,0,0,0-10.28-.48v-.1a150.23,150.23,0,0,0-33.07,4.54l4.55-4.2a151,151,0,0,0,14-14.55l-.17-.14c9-11.32,15.13-22.6,18.37-33.61,6-20.16-2-35.71-9.7-50.75-4.61-9-9.36-18.23-11.29-28.59-.45-2.44-.82-4.92-1.2-7.33-2.58-16.24-5.23-33-27.29-36.12-8.63-1.17-17.58-.42-26.25.3-4.78.42-9.29.8-13.76.9l-4.34.07c-12.48.17-25.39.38-37.88,3.82-24.94,6.91-42.73,26-54.42,58.25a197.41,197.41,0,0,0-11.36,53.08,140.08,140.08,0,0,0-11.08-18.61c6.37-12.49,12.08-24.74,17.62-36.61l6.6-14a5.77,5.77,0,0,0-.37-5.44,5.87,5.87,0,0,0-4.58-2.89c-18-1-34.3-5.47-51.61-10.15-7.53-2.06-15.34-4.19-23.26-6-25.15-5.71-50.81-3.44-76.34,6.71a90.41,90.41,0,0,0-8.47,3.88,63.8,63.8,0,0,0-10.08,4.61c-1-21.64-6.84-40.56-17.48-56.32-7.46-11-17.61-20.85-27.42-30.34-13-12.63-26.45-25.67-33.44-41.39A6.33,6.33,0,0,0,815.07.31a5.25,5.25,0,0,0-4.33.34C804.85,4,800.35,8.43,796,12.7c-2.55,2.51-5.19,5.12-8.08,7.5a128.34,128.34,0,0,1-11.43,8c-6.47,4.2-13.11,8.54-18.4,14.59-17.89,20.47-27,45.35-28.8,78.27-.21,3.86-.21,8.05,0,12.84-.82,2.1-.55,4.16-.27,6.5v.14c-16.34-7.43-38.43-12.08-56.5-11.49-22,.58-39,9.84-56.8,21.36-4.47-18.34-15.93-39.94-32.72-49.68-14.65-8.5-42.45-22.74-63.37-22.6s-31.66,15.17-37.92,26.49c-3.16,5.67-6.74,11.25-10.22,16.68-10.42,16.21-21.22,33-21.47,54.09-.24,20.33,5.27,40.25,16.76,60.69a153,153,0,0,0-27-12.9,177.9,177.9,0,0,1-30.17-51.44c.07-.07.17-.1.24-.2a11.12,11.12,0,0,0,.45-12.6c-5.75-9-16.72-3.78-23.64.62-7.33,4.68-10.22,13.7-3.65,20.47,4.13,4.24,9.4,4.68,14.45,3.34a200.47,200.47,0,0,0,18.27,33.75,112.54,112.54,0,0,0-19.4-1.24A74.24,74.24,0,0,0,379,218.44,146,146,0,0,1,355,190.92c1.51-4.13,1-8.47-.86-12.63-1.73-3.89-7.37-4.75-10.7-2.82a58.86,58.86,0,0,0-11,8.12c-3.54,3.34-7.26,7.19-7.09,12.38s4.41,9.22,9.29,10.22c3.82.76,7.19-.48,10.15-2.54a162.3,162.3,0,0,0,18.44,21.5,76.76,76.76,0,0,0-13.07,10.12A128.44,128.44,0,0,1,318,218a12,12,0,0,0,.24-6.53,11.66,11.66,0,0,0-14.07-8.3c-12.29,2.89-15.14,17.35-13.66,28,.58,4.06,6,6.71,9.66,5.5a82.09,82.09,0,0,0,10.77-4.54,140.21,140.21,0,0,0,28,15.48c-.52.59-1,1.14-1.52,1.76-4.13,5-10.29,10.25-16.82,15.75C308,275.62,295.07,286.53,291.66,300a29.1,29.1,0,0,0-.86,6.64c-28.21-6.84-56.84-10.39-82.78,6.06-12.35,7.84-22.54,18.13-32.68,28.42l-38.57,45.55a5.46,5.46,0,0,0,1.54.58C186.9,396,223.54,444.52,275,435.4c-1.06,6.19-2,12.46-3,18.72a213.63,213.63,0,0,1-19,59.83,7.65,7.65,0,0,0,.7,8.54H2.89a14.81,14.81,0,0,0,0,17.59H1647.11a14.81,14.81,0,0,0,0-17.59Zm-374.73,0c-40.35-9.15-72.58-37.4-69.52-81.31a126.85,126.85,0,0,0,36.29,9.05,349.75,349.75,0,0,1,63.1,48.65,132.64,132.64,0,0,0-21.71-39.39,55.74,55.74,0,0,0-11.69-11.32c14-3.75,24.63-11.67,34.78-22.75,21.85,20.51,30.69,39.74,30.9,69.92a218.35,218.35,0,0,0,1.67,27.15Zm84.82-160.65c1-11.14-5.23-19.09-12.46-25.9,75.94-19.2,102.57,50.47,144.89,100.39-26.39,4.58-51,14.55-77.62,18.58-38.68,5.88-67.92-20-92.93-46.28,2.72-2.44,5.64-4.92,8.67-7.5,6.43-5.47,13-11,18.3-17a183.78,183.78,0,0,1,90.25,19.13A118.21,118.21,0,0,0,1357.2,361.84Zm-100.12-79.16a73.68,73.68,0,0,1,17.41,3.61A57.22,57.22,0,0,1,1297.57,305c1.69,2.37,3.14,4.85,4.68,7.5,1,1.65,1.93,3.33,3,4.95a66.5,66.5,0,0,0,16.14,18c1.41,1.06,2.89,2.06,4.37,3.06a57.16,57.16,0,0,1,7.12,5.33c6,5.58,9,14.35,8.05,22.95a22.12,22.12,0,0,1-5.47,9.43c-1.86,1.82-4,3.54-6,5.23l-4.81,4a129.23,129.23,0,0,0-12.22,11c-3.75,4-7.15,8-10.46,11.91s-6.36,7.47-9.42,10.7c-10,8.26-23.43,17.79-38.47,18.2-7.81.21-15.52-2-23.36-4.51-12.69-4.06-27.49-9.25-40.7-17.27-8.91-5.4-17.27-12.11-25.36-18.61-2.85-2.31-5.71-4.61-8.77-7-.14-.07-.24-.17-.38-.24a146.68,146.68,0,0,0,49.23,14.18,345.58,345.58,0,0,1-76.89-54.33c0-.38.1-.72.14-1.1a157,157,0,0,1,88.49-30.9c-13.7-2.78-28-5.5-42-5.81C1211.8,290,1237.4,281.06,1257.08,282.68Zm-75.45,148c2.1,1.28,4.19,2.38,6.29,3.51-.27,2.58-.48,5.16-.58,7.74C1185.62,438.15,1183.76,434.44,1181.63,430.65Zm-102.5-224.49c1.17-4.41,2.34-8.78,3.51-13.18l.76-2.85c4.37-12.84,10.49-29.52,19.27-45,3-5.37,6.88-11.53,12.25-16.35,6.43-5.81,14.51-9.35,24.39-12.79a82.75,82.75,0,0,1,11.46-1.76c3.61-.31,7.22-.38,10.8-.45a136,136,0,0,0,15.76-1c2.65-.38,5.3-.9,8-1.45a97,97,0,0,1,9.63-1.65c6.54-.65,11.87.24,15.82,2.72,4.79,3,7.75,8.19,10.53,14.59.73,3.13,1.24,6.43,1.79,9.77,1.21,7.29,2.44,14.89,5.37,21.57a94.48,94.48,0,0,0,7.5,13.42,62.89,62.89,0,0,1-.17,45.55,103,103,0,0,1-10.22,18.27,147.41,147.41,0,0,1-12.87,17,192.27,192.27,0,0,1-15.72,15c-11.66,10.35-23.64,20.85-35.82,31.13A136.52,136.52,0,0,0,1180,241.25a169.2,169.2,0,0,1-62.75,80.17,55.63,55.63,0,0,0-19-2.72,330.18,330.18,0,0,1,19.3-116.26c-14.69,23.91-28.21,49.1-35.09,76.18l-1.14-3.93c-2.06-7.36-4.16-14.76-6.4-22.05-.14-1.93-.31-3.89-.51-5.85-.25-2.61-.52-5.23-.62-7.84C1073.42,227.73,1076.45,216.27,1079.13,206.16ZM1107.55,357c-3.71,2.37-7.39,2.92-10.9,1.58a16.33,16.33,0,0,1-5.82-12.35c.1-3.06,2.27-6.47,6-9.36,3.86-1.14,7.09-1.48,9.43-1a10.18,10.18,0,0,1,6.88,4.64C1115,346.5,1112.54,353.83,1107.55,357Zm-54.26,61.34-22,36.13c-5,8.22-10.19,16.72-17.76,22.67-7,5.5-16.55,9-27.59,10.15a110.6,110.6,0,0,1-14.62.31l-4.55-1.27c-10.11-2.86-20.57-5.85-32.4-5.1a51.59,51.59,0,0,0-5.17.69c-3.06.52-6.22,1.07-8.53.45-16-4.27-15-27.73-14.62-32.41a249.89,249.89,0,0,1,4-25.87l1.07-5.78a173.14,173.14,0,0,1,9.36-21.61c6.33-12.15,13.55-21.16,21.22-26.56A78.49,78.49,0,0,1,955,364.39c18.2-6,38.06-6.43,57.29-6.88l5-.11c4.1-.1,8.33-.24,12.63-.48-18.06,10.84-35.4,22.95-52.64,35.1,32.58-14.52,66-27.32,99.81-38.57-3.75,15.89-12.14,30.58-22.47,43.31-11.69,14.42-25.83,26.67-39.87,38.81A116.34,116.34,0,0,0,1053.29,418.37ZM785,497.57a70.81,70.81,0,0,0,28.14-4.37c-1.85,1.48-3,2.17-3.09,2.24l-.55.34c-.48.38-48.1,35.79-86.36,18.82-28.66-12.69-41-30.27-50.09-43.18-3.51-5-6.82-9.73-10.5-13-4.68-4.23-5.3-8.6-4.95-11.49a12.12,12.12,0,0,1,5.95-9.18c2.44-1.34,7.78-1.72,14-1.72,4,0,8.29.13,12.42.27,8.7.31,17.68.66,25.8-.1a138.41,138.41,0,0,1,24.71-.21,104.1,104.1,0,0,1,40.73,21l2.17,1.86c1.93,1.68,4,3.4,6.12,5A42.76,42.76,0,0,0,821,470.74c-20.13,15.93-46.59,23.87-72.15,21.05C760.78,494.48,772.79,497.16,785,497.57ZM579.26,274.49l28-45.52c3.44,6.16,7.33,13,11.56,19.68,10.22,16.1,24.43,23.29,38.67,28.11a103,103,0,0,0-7.81,7.67c-7.33,7.95-14.49,16.31-21.78,25.56-6.5.18-13.35.45-20.3,1.1a59.87,59.87,0,0,0,17.51-15.51,119.35,119.35,0,0,1-51.74,11.25,33.42,33.42,0,0,0-2.13-6.95,99.59,99.59,0,0,1,57-31.52C611.94,264.2,594.15,266.68,579.26,274.49ZM783.73,403.3l-.59-8.91c-.34-3.44-.79-6.91-1.41-10.39.07-.07.14-.1.17-.17A126.13,126.13,0,0,0,789.2,404a62.08,62.08,0,0,0-5.57,14.49c.06-.86.1-1.69.13-2.55l.11-5.12C783.87,408.32,783.83,405.85,783.73,403.3Zm-3.24-77.41a190,190,0,0,0-17.16,14,189.38,189.38,0,0,1-16.93,13.8,186.76,186.76,0,0,1-61.76,27.49c-20.54,5.06-43.9,5.57-64.1,5.37a186.68,186.68,0,0,0,25.84-5.47,302.64,302.64,0,0,0,65.92-28.94c28-16.48,56.84-35.44,79-62.2.14.44.24,1,.38,1.44A151.69,151.69,0,0,0,780.49,325.89Zm-1.89,13.35a134.57,134.57,0,0,0-.55,15,113.66,113.66,0,0,1-28,33.85c-6,4.89-11.15,8-16.35,9.87-6.57,2.38-13.76,2.93-20.71,3.48l-7.81.62a577.44,577.44,0,0,1-66.4-5.78c-.69-.07-1.41-.17-2.1-.28,22.84-.89,40.7-3.13,57.11-7.15,19.2-4.72,36.58-14.14,51-22.71,8.63-5.16,16.2-11.77,23.56-18.17C771.69,345,775.09,342.06,778.6,339.24Zm-83.5,11.9c-21.68,12.63-44.31,17.45-68.26,22.54-7.78,1.65-15.72,3.34-23.67,5.33,10.94-8.46,22.36-16.58,33.47-24.5,12.7-9,25.81-18.33,38.09-28.1,16.86-13.35,34.41-23.47,53-34.2l1.34-.76c9.81-5.64,20.1-8.67,31-11.87,6.19-1.79,12.59-3.68,18.82-6.06a50.87,50.87,0,0,1,7.33,7.4C763.05,310.2,731.22,330.05,695.1,351.14Zm-89.28,11c1.82-3.1,3.61-6.19,5.57-9.19,17.69-26.9,35.37-49,54.09-67.64,17.68-17.62,40.63-22.6,61-22.6A150.4,150.4,0,0,1,764.63,268c-2.06.55-4.13,1.14-6.16,1.69-8.7,2.34-17.68,4.74-26.11,9-16.62,8.36-35.4,17.82-51.4,30-8.74,6.64-17.34,13.76-25.67,20.61-7.6,6.26-15.48,12.76-23.39,18.85-6.92,5.37-14.35,10.29-21.54,15-2.82,1.9-5.71,3.82-8.6,5.75C603.17,366.69,604.51,364.39,605.82,362.12Zm-20.13-30.21h.45a104.49,104.49,0,0,1,17.65,1.79c1.34.24,3.27.79,5.4,1.41-.9,1.2-1.76,2.41-2.58,3.61a17.86,17.86,0,0,0-2.48-.93Zm67.68-73.63a52.39,52.39,0,0,1-20.61-12.83c-6.47-7.4-12.11-16.45-18.58-29.86,2.75,2.47,5.54,4.88,8.26,7.25,3.37,2.93,6.64,5.82,9.7,8.64,14.93,13.9,30.24,23.5,45.62,28.73A52.34,52.34,0,0,1,653.37,258.28Zm109.92-3a151.68,151.68,0,0,0-35.4-4.43,114.1,114.1,0,0,0-29.9,3.85c-22.81-2.31-41.39-15.38-55-26.53l-3-2.48c-11.32-9.22-24.91-20.29-34.17-32.47,18.58,9.66,38.3,17.41,57.43,24.94,6.57,2.58,13.1,5.16,19.64,7.81l6.3,2.58c15.2,6.26,31,12.73,47.13,16.93,7.4,1.89,15.24,2.61,22.85,3.27a171.19,171.19,0,0,1,17.51,2.13C773.13,253.67,767.87,254.74,763.29,255.32ZM599.8,348.56l-11.32,17.72q-4.61-11.5-8.23-23.33A90.64,90.64,0,0,1,599.8,348.56Zm-3.62,51.78c9.09,14.28,19.92,27.05,33.79,36.78a276.58,276.58,0,0,1-23.81-34.68,617.16,617.16,0,0,0,75.93,10.29c3.07,2.44,6.13,4.92,9.19,7.4a8.47,8.47,0,0,0,1.31-6.71c4,.2,8,.41,12.11.58,28,.93,48.3-5.12,66.71-20.33a154,154,0,0,1-.76,37.5c-2.68-1-5.23-1.75-7.63-2.41-14.76-3.92-31-5.12-48.31-3.51-7.4.69-16,.42-24.46.11-13.59-.49-25.36-.9-32,2.82a23.36,23.36,0,0,0-11.5,17.51c-.85,7.67,2.17,15.07,8.5,20.81,2.72,2.45,5.58,6.51,8.88,11.22a172.29,172.29,0,0,0,14.83,18.92,30.62,30.62,0,0,1-11.29,2.76c-5-.07-10.28-1.83-14.17-3.44a144.89,144.89,0,0,1-13-6.44c-10.63-7.4-20.37-17.68-28.69-30.27a374.57,374.57,0,0,1-20.55-53c-.72-2.48-1.44-4.95-2.16-7.47C591.4,399.35,593.77,399.83,596.18,400.34Zm223.57,53.92a25,25,0,0,1-9.12-6.92,35.7,35.7,0,0,1-8.6-21.95,120.75,120.75,0,0,0,9.12,10.77,96.37,96.37,0,0,0,18.23,14.69c.38,1.93.83,3.54,1.21,4.89-.72.1-1.45.27-2.17.44A26.85,26.85,0,0,1,819.75,454.26Zm-8.46-35.85C800.52,405.61,793.67,390,791,371.92a5.32,5.32,0,0,0-.31-2.3c-2.37-18.37-.34-38.4,5.82-57.53,1.68-3.3,3.58-6.5,5-8.91l.66-1.06a84.2,84.2,0,0,0-2.89,34.13c3.3,26.11,13.48,52.91,28,73.49,14.21,20.19,36,36.5,61.41,45.86l4.82,1.75c0,.76,0,1.52.07,2.27C865.72,455.05,834.68,446.24,811.29,418.41Zm-7.71-165-2.24.86c-3.4,1-4.57.9-4.88.76s-.59-.93-.48-2.48c.13-2.34,1.24-4.54,1.89-4.95a3.94,3.94,0,0,1,2.27-.69,6.8,6.8,0,0,1,3.23,1c1.55.93,2.65,2.44,2.58,3.51S804.44,253.12,803.58,253.43Zm1.07,20.47a5.1,5.1,0,0,1-5.78-3.47c-.52-2,.62-3.48,3.06-4.13a8.2,8.2,0,0,1,2.13-.35,1.85,1.85,0,0,1,1.52.52C806.5,267.67,806,271,804.65,273.9Zm53,190.13a208.88,208.88,0,0,0,31,7.74c1.79.31,3.58.58,5.4.79a11.39,11.39,0,0,1-1.37,2.2,13.11,13.11,0,0,1-3.27,2.69,25.2,25.2,0,0,1-18.51,3.13c-.42-.14-.79-.24-1.21-.42a42.37,42.37,0,0,1-6.6-7.36,31.81,31.81,0,0,0-5.71-8.53A1.94,1.94,0,0,0,857.63,464Zm36.09-17.41c-21.29-7.78-38.6-19.58-54.19-36.92-16.65-18.47-22.94-42.94-29.07-66.64l-.14-.48c-5.47-21.16.83-39.12,7.43-56.43,15.66,40.46,40.5,97,79,138A198.27,198.27,0,0,0,893.72,446.62ZM817.48,256a6.09,6.09,0,0,1,2.79-2.51l.72-.25a5.66,5.66,0,0,1,3.85.69,8.2,8.2,0,0,1,4.27,7.5l-.21.21c-3.09,2.68-9,2.34-11.45.21C816.86,261.31,815.07,259.8,817.48,256Zm8.46,24.63a54.55,54.55,0,0,1,5.75-1.89c12.52,2.79,25.7,10.29,39.15,22.26,4.68,10.63,13.21,19.78,25.36,27.28,8,10.05,14.93,20,19.44,26.56a76.43,76.43,0,0,1,4.09,6.71c-7.81,8.3-13.17,19-16.44,32.76l-.42,1.68c-1.2,5.2-2.54,10.81-3.81,16.59C863.82,372.61,840.6,318.84,825.94,280.61Zm38.95-5.19c.38,3.51.89,6.91,1.51,10.18a105.39,105.39,0,0,0-15.68-9.81A82.37,82.37,0,0,1,864.89,275.42ZM859.83,262c1.31-.44,2.69-.93,4.1-1.44,0,.41,0,.82,0,1.24-1.2.13-2.61.1-3.92.2Zm4.2-11.73c-6,2.34-11.7,4.27-17.1,5.88a52.16,52.16,0,0,1-4.33-6.81c9.7-13.11,18.47-24,27-33.37A138.18,138.18,0,0,0,864,250.23Zm51.23,87.43a211.68,211.68,0,0,0,27.83,8.8,62.36,62.36,0,0,0-16,8.54C923.24,348.73,919.11,342.85,915.26,337.66Zm141.3-76.73c1,3.24,1.93,6.5,2.89,9.81,3.41,11.66,7.06,23.63,12.22,34.64-26.25-25.63-54.64-51.19-90.18-59.35A340.31,340.31,0,0,1,1070,327.58a261,261,0,0,1-90.93-17.9,156.29,156.29,0,0,0,69,29.18c-9.46.72-19.82.83-28.76-.41-17-.66-34-2.45-51.27-4.41-15.41-1.75-31.37-3.57-46.41-8.15a99.06,99.06,0,0,1-24.94-11.35c-7.47-5.58-12.7-12.08-15.52-19.37-8.29-21.16-7.22-61.76,2.13-81.92,2.27-4.89,6.4-9.36,12.63-13.7,2.89-1.13,6-2,9.05-2.85l.65-.18A281.68,281.68,0,0,0,959,175.47l1.31-.69c6.26-3.23,12.73-6.61,19.48-6.71,5,0,10.28,1.76,14.17,3.41a130.26,130.26,0,0,1,13,6.36c10.7,7.36,20.44,17.62,28.83,30.18A373.1,373.1,0,0,1,1056.56,260.93Zm-144.19-82.4a161.35,161.35,0,0,1,32.86-16.1c-2.48,1.34-5,2.72-7.57,4.16s-5.2,2.86-7.88,4.3A159.09,159.09,0,0,1,912.37,178.53ZM1038.23,180c-.66-.69-1.31-1.38-2-2,2.65-3.85,5.41-7.88,8.3-11.8C1042.39,170.75,1040.32,175.4,1038.23,180Zm-3.48-14.86c-1.62,2.34-3.23,4.68-4.85,7a94.44,94.44,0,0,0-8.77-6.61c7.77-4.71,15-8.73,22-12.14C1040.19,157.23,1037.43,161.22,1034.75,165.15Zm-22.81-5.1a97.17,97.17,0,0,0-10.32-4.71,61.66,61.66,0,0,0-13.52-3.65,379,379,0,0,1,45.07-4C1026.6,151.21,1019.54,155.27,1011.94,160.05Zm-117.56-9.77c21.26-17.89,44.28-23.77,66.5-23.77,18.58,0,36.61,4.13,52.51,8.81,4,1.17,7.94,2.23,12,3.2-34.4,1.82-74.49,7.88-111.2,27.8-30.72,16.65-54.84,44.62-74.52,70.77a45.54,45.54,0,0,1-.24-6.78C846.24,203,866.3,173.89,894.38,150.28ZM831.14,38.5c13.52,13.49,27.39,28.18,37.33,44,3.4,8.23,5.95,17.76,8,30.08,2,11.59,3.41,25-.34,36.67a178.84,178.84,0,0,0-29,34.92,231.76,231.76,0,0,0,2.37-50.75,404.56,404.56,0,0,0-9.7-68c-2.37-10.08-6.5-19.71-10.77-29.07ZM813.25,24.88c2.06,5.16,4.3,10.25,6.47,15.2,2.85,6.61,5.81,13.46,8.43,20.27,6.64,17.44,8.43,37.29,10.15,56.49.31,3.37.61,6.71.92,10,3.62,36.71-1.34,70.09-15.2,102q-3.51,2.32-10.43,2.86c-7.12-12.18-11.83-29.18-15-40.57l-.24-.89c-5.19-18.65-5-39-4.78-58.7q.1-5.77.1-11.45C793.67,89.08,800.24,57.08,813.25,24.88Zm-10.22,0c-12.83,33.75-18.89,69-19,110.1v2.47c-.07,20.34-.1,43.36,7.26,63.21,1.07,2.89,2.1,5.92,3.17,9.05.72,2.09,1.44,4.19,2.16,6.33-20-31.45-30.34-64.89-30.55-99.74C766,95.82,770.21,76,773.78,63,778.36,46.31,789.09,35.64,803,24.91ZM767.9,50.58c-7.12,15.41-8.81,33.75-10.32,50.06-.24,2.37-.45,4.74-.69,7-3.71,37.26,8.22,78.34,33.72,116.7-1.14-.51-2.27-1-3.34-1.41l-.27-.17c-27.56-17.44-45.08-50.95-46.83-89.63C738.69,100.46,748.91,70.57,767.9,50.58ZM610.53,167.21c17.58-11.73,34.17-22.81,55.32-25.63,12.84.89,27.77,2.51,41.33,7.77,11.62,4.48,21.19,11.36,27.76,20a125.9,125.9,0,0,0,13.59,30.86c-16.34-10.39-34.78-19.13-56-26.59-15-5.23-29.38-6.89-43.76-6.89-11.77,0-23.53,1.11-35.58,2.24-2,.17-4,.35-6,.55C608.26,168.72,609.39,168,610.53,167.21Zm2.61,11.46c25.71-2.24,49.93-4.37,76,4,36.88,11.77,68.68,31.49,92,57a16.46,16.46,0,0,1-.14,2.51,160.12,160.12,0,0,0-17.1-2.17c-3.78-.31-7.53-.65-11.11-1.17-19.1-2.68-36.4-9.63-54.71-17l-3.85-1.55c-6.5-2.61-13.07-5.12-19.65-7.7-24.8-9.6-50.37-19.51-73.55-32.86ZM474.56,155.31c4.13-8.5,10.05-16.17,15.76-23.61l15.07-19.64c3.3-4.27,6.71-8.71,11.14-11.6,6.34-4.12,13.94-4.61,19.17-4.26,6.16.38,12.14,2,17.55,3.44,12.38,4.71,21.4,9.25,27.62,13.83a49.39,49.39,0,0,1,8.85,8.7c6.77,10.29,10.63,23.78,10.87,38a172.25,172.25,0,0,1-20.27,11.32,6,6,0,0,0-2.27,9.15,240.88,240.88,0,0,1,15,22.85c-1.21,3.82-2.44,7.57-3.75,11.32C583.42,231.38,576.61,248,569.11,264c-1.52,3.1-3.1,6.06-4.68,9.05a184.38,184.38,0,0,0-1.1-72.77c.65,17.69.31,35.55-3.75,52.75-3.41,14.24-9.57,28.07-19,39.19-.06-.14-.13-.28-.2-.42a289.07,289.07,0,0,1-28.56-85.7,225.25,225.25,0,0,0,3.23,66.71c-7.6-9.67-14.86-19.44-21.64-29.24-8.8-12.73-18.61-28-24.53-44.52A70.2,70.2,0,0,1,474.56,155.31ZM557.24,320.8c-.11,3.09-2.27,6.47-6,9.36-3.82,1.1-7.09,1.41-9.43.89a10.11,10.11,0,0,1-6.88-4.64c-1.86-6,.62-13.25,5.64-16.45,3.72-2.34,7.37-2.86,10.91-1.51A16.3,16.3,0,0,1,557.24,320.8ZM312.75,289.94c1.86-1.83,4-3.51,6-5.17l4.78-3.92a131.84,131.84,0,0,0,12.35-11c3.75-3.92,7.19-7.95,10.5-11.87,2.4-2.75,4.64-5.37,6.88-7.85a7.36,7.36,0,0,0,2-2.2l.51-.62c10-8.22,23.5-17.68,38.54-18.06,7.94-.24,15.86,2.17,23.36,4.61,12.69,4.09,27.42,9.36,40.63,17.41,8.91,5.44,17.24,12.18,25.29,18.72,2.89,2.34,5.92,4.74,8.94,7.12a135.54,135.54,0,0,0-72.14-2,185.34,185.34,0,0,1,103.11,36A142.06,142.06,0,0,1,423.88,337,167.7,167.7,0,0,0,486.64,346c-3,2.2-5.89,4.4-8.78,6.57-39.8,23.43-66.68,33.06-87.08,31.31a73.88,73.88,0,0,1-17.41-3.72,56.92,56.92,0,0,1-23-18.75c-1.66-2.41-3.17-5-4.61-7.5-1-1.69-2-3.37-3-5a65.89,65.89,0,0,0-16.07-18.07c-1.4-1.1-2.89-2.09-4.4-3.09a57.29,57.29,0,0,1-7-5.37,27.53,27.53,0,0,1-8.05-22.74A22.6,22.6,0,0,1,312.75,289.94Zm79.93,191.32c-21.92,23.71-55.64,8.81-83.13,8.61a70.77,70.77,0,0,0-33.06,7.81c5.81-16.76,9.56-33.89,12.49-52.09,4.95-30.8,17.37-56.46,44.66-70.95a34,34,0,0,0,4,5.95c6.84,8.09,17.16,12.6,24.32,15.25a97.94,97.94,0,0,0,14,4.06c-25.6,9.77-47.17,30.58-56.08,56.59,20.4-20.12,44.24-38.29,72.25-44.41,7.6-1.69,15.48-2.59,22.74-5.3-8.56,10.63-19,26.18-23.46,43.24C388.3,461.76,389.61,471.91,392.68,481.26ZM159.27,377c13.73-10.29,25.18-23.05,37.78-35.13,29.41-28.21,58.9-28.14,96.85-18.3a8.13,8.13,0,0,0,3.37.17c3.4,4.34,7.71,8.09,11.8,11.66s8.15,7.13,11.15,10.95c-6-2.45-13-2.41-19.55-1.93a254.47,254.47,0,0,0-66.74,14.11,229.72,229.72,0,0,1,88.66,4.64c-16.86,9.81-30.59,23.6-39.08,42a91.2,91.2,0,0,0-4.82,13.28C234.89,431,199.07,392.33,159.27,377ZM266.49,522.49c29.87-23,54.74-12.76,89.23-12.22,16.35.27,31.42-3.2,43.49-13.56.66,1.31,1.28,2.62,1.93,3.92,3.47,7,7,14.14,9.27,21.86Zm156.52,0a68.25,68.25,0,0,0-4-14.29,94.92,94.92,0,0,0-7.47-13.45,62.6,62.6,0,0,1,.34-45.52A101.85,101.85,0,0,1,422.16,431a139.88,139.88,0,0,1,12.94-17A192.43,192.43,0,0,1,451,399c16.51-14.52,33.54-29.39,51.06-43.42a177.23,177.23,0,0,0-33,63.92,415,415,0,0,1,53.32-63.06c4.2-4.06,9-8.19,14.42-10.08l6.3,1.13a224.65,224.65,0,0,1-11,121c20.86-26,27-60.21,29.28-93.86,1.76,5.95,3.44,11.9,5.06,17.78,2.07,7.37,4.13,14.77,6.33,22.09q.21,2.89.52,5.78c.24,2.65.48,5.3.58,7.92.31,11.21-2.75,22.67-5.47,32.75L564.12,477c-4.41,12.76-10.57,29.41-19.41,44.86-.11.21-.25.43-.37.63Zm149.08,0c1.84-3.91,3.59-8,5.2-12.43A196.34,196.34,0,0,0,588.86,457a136.42,136.42,0,0,0,11.93,20l6,7.47c1.82,2.09,3.5,4,5.16,5.6l3.61,3.38a99,99,0,0,0,14,10.49l4.72,2.75A95.56,95.56,0,0,0,645.8,512c19.57,7.71,34.37,3.58,47.37-2.37a122.33,122.33,0,0,0,21.13,12.84Zm219.92,0c.11-.13.24-.25.35-.39,0,.13-.07.27-.1.39Zm12.64,0a103.58,103.58,0,0,1,10.28-17.14c.79-.59,3-2.27,5.75-4.75a142.42,142.42,0,0,0-3.82,21.89Zm22.13,0a153.13,153.13,0,0,1,18.16-36.65c-2.14,9.43-1.72,15.83-.35,22,.24,1.1.59,2.27.9,3.27.92,3.83,2.08,7.67,3.21,11.36Zm35.18,0c-1.67-4.76-3.4-9-4.74-12.22a47.83,47.83,0,0,1-2.2-5.92,46.94,46.94,0,0,1-.73-6.33,67.69,67.69,0,0,0,15.06,24.47Zm17.87,0a108.71,108.71,0,0,1-14.53-24.75,76.94,76.94,0,0,0-3.78-8.56,50.33,50.33,0,0,0,15.58,7.26,31.73,31.73,0,0,0,18.72-.76c.69-.24,1.34-.48,2-.76,6.92,2.72,12.94,9.57,18,20.34.86,1.82,1.68,3.68,2.51,5.57.24.55.51,1.11.75,1.66Zm60.18,0a156.7,156.7,0,0,1-7.62-16,53.92,53.92,0,0,0-7.19-12.31c2.31-.14,4.61-.42,6.85-.69a87.86,87.86,0,0,1,10.05-.76c8.63.21,16.75,2.68,25.39,5.33,9.43,2.86,19.06,5.78,29.55,5.58,13.56-.35,24.84-4.41,34.27-12.35a70.21,70.21,0,0,0,.48,20,88.75,88.75,0,0,0,2.88,11.22Zm110,0a80.62,80.62,0,0,1-2-18.14c.2-18.13,5.5-35.71,11.18-52s12.21-32.34,19.44-48.06a213.67,213.67,0,0,0,3.4,64.17,296.1,296.1,0,0,1,21-94.28,417.31,417.31,0,0,1,41.53,88.08c-1.93-25.59-9.26-50.44-17.07-74.9a2.54,2.54,0,0,0-.17-.51c9.74,11.87,19,24.05,27.63,36.4,8.84,12.73,18.68,27.93,24.7,44.45a70.22,70.22,0,0,1-5.54,43.76,88.4,88.4,0,0,1-6.46,11Zm140.66,0c4.59-9.55,7.86-19.74,7.95-31.21a84.75,84.75,0,0,0,22.88,26.66c2.13,1.63,4.32,3.14,6.57,4.55Z"/><path fill="FRAME_COLOR" d="M1647.11,940.48H1351.63a122.93,122.93,0,0,0-1.79,18.18c-.21,12.35,1.75,24.43-.93,36.61a77.87,77.87,0,0,1-5.27,15.65c13.49-9.77,28.28-17.24,44.28-19.33,39.5-5.17,78.41,18.64,117.53,21.4,6.61.48,10.5,8.32,5.54,13.38-20.78,21.23-35.09,47.93-53.19,71.32l-22.36,24.19c-1.34,1.2-2.69,2.41-4.1,3.54-30,24.26-64.68,25.84-100.29,14a42.91,42.91,0,0,0-3.58,4c-3.2,4.19-5.19,9-7.15,14.14,18.37,11.63,41.42,30.27,63.37,32.68,5.75-8.32,13.18-21.43,24.74-17.3,10.39,3.71,10.18,17,6.64,25.39s-11.73,24.05-23,17.48a12.1,12.1,0,0,1-6-9.64c-26-.75-50.54-20.43-72.15-34.16a35.54,35.54,0,0,1-3.64,5.26c-.11.14-.25.24-.35.35a376.8,376.8,0,0,0,26.56,32.54c2.62,2.86,14.93,15.9,22.13,22.81,6-6.88,15.82-13.24,23.91-8.46,11.45,6.78,2.13,22.67-4.3,29.38s-19.06,14.52-28.39,9c-8-4.78-5.74-11.52-.89-17.3-5.44-4.75-10.26-10.53-13.63-13.94a395,395,0,0,1-37.67-44.45,84.28,84.28,0,0,1-11.77,5.26c-1.72.66-3.44,1.14-5.16,1.69,12.8,16.48,17.79,41.53,20,62.07,7.22.17,14.41,4.92,19.88,10.56a7.93,7.93,0,0,1,0,11.08c-9.39,9.29-29.69,12.42-41.53,5.81-6.15-3.44-9.08-10.76-5.91-17.34,2.51-5.16,7-7.63,12-8.46-2.07-19.89-7.26-49-22.37-60a78.05,78.05,0,0,1-10.28.48v.11a150.15,150.15,0,0,1-33.07-4.55l4.55,4.2a151.1,151.1,0,0,1,14,14.56l-.17.13c9,11.32,15.13,22.61,18.37,33.62,6,20.16-2,35.71-9.7,50.75-4.61,8.94-9.36,18.23-11.29,28.59-.45,2.44-.82,4.92-1.2,7.32-2.58,16.24-5.23,33-27.29,36.13-8.63,1.17-17.58.41-26.25-.31-4.78-.41-9.29-.79-13.76-.89l-4.34-.07c-12.48-.17-25.39-.38-37.88-3.82-24.94-6.92-42.73-26-54.42-58.25a197.48,197.48,0,0,1-11.36-53.09,140.86,140.86,0,0,1-11.08,18.62c6.37,12.48,12.08,24.73,17.62,36.6q3.4,7.23,6.6,14a5.76,5.76,0,0,1-.37,5.43,5.82,5.82,0,0,1-4.58,2.89c-18,1-34.3,5.47-51.61,10.15-7.53,2.07-15.34,4.2-23.26,6-25.15,5.71-50.81,3.44-76.34-6.71a88.11,88.11,0,0,1-8.47-3.89,62,62,0,0,1-10.08-4.61c-1,21.64-6.84,40.57-17.48,56.32-7.46,11-17.61,20.85-27.42,30.35-13,12.63-26.45,25.67-33.44,41.39a6.33,6.33,0,0,1-3.75,3.34,5.29,5.29,0,0,1-4.33-.35c-5.89-3.34-10.39-7.77-14.73-12-2.55-2.51-5.19-5.13-8.08-7.5a128.44,128.44,0,0,0-11.43-8c-6.47-4.19-13.11-8.53-18.4-14.58-17.89-20.48-27-45.35-28.8-78.28-.21-3.85-.21-8.05,0-12.83-.82-2.1-.55-4.16-.27-6.5v-.14c-16.34,7.43-38.43,12.08-56.5,11.49-22-.58-39-9.84-56.8-21.37-4.47,18.34-15.93,40-32.72,49.69-14.65,8.49-42.45,22.74-63.37,22.6s-31.66-15.17-37.92-26.49c-3.16-5.68-6.74-11.25-10.22-16.69-10.42-16.2-21.22-33-21.47-54.08-.24-20.34,5.27-40.26,16.76-60.69a153.75,153.75,0,0,1-27,12.9,177.85,177.85,0,0,0-30.17,51.43c.07.07.17.11.24.21a11.1,11.1,0,0,1,.45,12.59c-5.75,9-16.72,3.79-23.64-.62-7.33-4.68-10.22-13.69-3.65-20.47,4.13-4.23,9.4-4.68,14.45-3.34a200.47,200.47,0,0,1,18.27-33.75,111.55,111.55,0,0,1-19.4,1.24,73.72,73.72,0,0,1-17.31-2.55A146.09,146.09,0,0,0,355,1272.06c1.51,4.13,1,8.46-.86,12.63-1.73,3.88-7.37,4.74-10.7,2.82a59.3,59.3,0,0,1-11-8.12c-3.54-3.34-7.26-7.19-7.09-12.39s4.41-9.22,9.29-10.22c3.82-.75,7.19.48,10.15,2.55a161,161,0,0,1,18.44-21.5,77.78,77.78,0,0,1-13.07-10.12A128.41,128.41,0,0,0,318,1245a12.08,12.08,0,0,1,.24,6.54,11.64,11.64,0,0,1-14.07,8.29c-12.29-2.89-15.14-17.34-13.66-28,.58-4.06,6-6.71,9.66-5.51a80.81,80.81,0,0,1,10.77,4.55,140.75,140.75,0,0,1,28-15.49c-.52-.58-1-1.13-1.52-1.75-4.13-5.06-10.29-10.25-16.82-15.76-12.53-10.53-25.46-21.43-28.87-34.89a29.1,29.1,0,0,1-.86-6.64c-28.21,6.85-56.84,10.39-82.78-6-12.35-7.85-22.54-18.13-32.68-28.42l-38.57-45.55a5.47,5.47,0,0,1,1.54-.59c48.59-8.81,85.23-57.28,136.66-48.17-1.06-6.19-2-12.45-3-18.71a213.63,213.63,0,0,0-19-59.83,7.67,7.67,0,0,1,.7-8.55H2.89a14.8,14.8,0,0,1,0-17.58H1647.11a14.8,14.8,0,0,1,0,17.58Zm-374.73,0c-40.35,9.16-72.58,37.41-69.52,81.31a126.49,126.49,0,0,1,36.29-9,350.66,350.66,0,0,0,63.1-48.65,132.77,132.77,0,0,1-21.71,39.39,56,56,0,0,1-11.69,11.32c14,3.75,24.63,11.66,34.78,22.74,21.85-20.5,30.69-39.74,30.9-69.91a218.51,218.51,0,0,1,1.67-27.16Zm84.82,160.65c1,11.15-5.23,19.1-12.46,25.91,75.94,19.2,102.57-50.47,144.89-100.4-26.39-4.57-51-14.55-77.62-18.57-38.68-5.89-67.92,19.95-92.93,46.27,2.72,2.44,5.64,4.92,8.67,7.5,6.43,5.47,13,11.05,18.3,17a183.89,183.89,0,0,0,90.25-19.13A118.19,118.19,0,0,1,1357.2,1101.13Zm-100.12,79.17a73.68,73.68,0,0,0,17.41-3.61,57.22,57.22,0,0,0,23.08-18.72c1.69-2.37,3.14-4.85,4.68-7.5,1-1.65,1.93-3.34,3-5a66.35,66.35,0,0,1,16.14-18c1.41-1.07,2.89-2.07,4.37-3.06a57.22,57.22,0,0,0,7.12-5.34c6-5.57,9-14.34,8.05-22.95a22.14,22.14,0,0,0-5.47-9.42c-1.86-1.83-4-3.55-6-5.23l-4.81-4a130.74,130.74,0,0,1-12.22-11c-3.75-4-7.15-8-10.46-11.9s-6.36-7.47-9.42-10.7c-10-8.26-23.43-17.79-38.47-18.2-7.81-.21-15.52,2-23.36,4.5-12.69,4.06-27.49,9.26-40.7,17.27-8.91,5.41-17.27,12.12-25.36,18.62-2.85,2.3-5.71,4.61-8.77,7-.14.07-.24.17-.38.24a146.66,146.66,0,0,1,49.23-14.17,345.54,345.54,0,0,0-76.89,54.32c0,.38.1.73.14,1.11a157.05,157.05,0,0,0,88.49,30.89c-13.7,2.79-28,5.51-42,5.82C1211.8,1173,1237.4,1181.92,1257.08,1180.3Zm-75.45-148c2.1-1.27,4.19-2.37,6.29-3.51-.27-2.58-.48-5.16-.58-7.74C1185.62,1024.82,1183.76,1028.54,1181.63,1032.32Zm-102.5,224.5c1.17,4.4,2.34,8.77,3.51,13.17l.76,2.86c4.37,12.83,10.49,29.52,19.27,45,3,5.37,6.88,11.52,12.25,16.34,6.43,5.82,14.51,9.36,24.39,12.8a82.66,82.66,0,0,0,11.46,1.75c3.61.31,7.22.38,10.8.45a136,136,0,0,1,15.76,1c2.65.38,5.3.89,8,1.45,3.3.68,6.43,1.3,9.63,1.65,6.54.65,11.87-.24,15.82-2.72,4.79-3,7.75-8.19,10.53-14.59.73-3.13,1.24-6.43,1.79-9.77,1.21-7.29,2.44-14.9,5.37-21.57a94.48,94.48,0,0,1,7.5-13.42,62.89,62.89,0,0,0-.17-45.55,103,103,0,0,0-10.22-18.27,146.56,146.56,0,0,0-12.87-17,190.58,190.58,0,0,0-15.72-15c-11.66-10.36-23.64-20.85-35.82-31.14a136.61,136.61,0,0,1,18.89,57.49,169.12,169.12,0,0,0-62.75-80.16,56.14,56.14,0,0,1-19,2.72,330.12,330.12,0,0,0,19.3,116.25c-14.69-23.91-28.21-49.09-35.09-76.17l-1.14,3.92c-2.06,7.36-4.16,14.76-6.4,22.06-.14,1.92-.31,3.88-.51,5.84-.25,2.62-.52,5.23-.62,7.85C1073.42,1235.25,1076.45,1246.7,1079.13,1256.82ZM1107.55,1106c-3.71-2.37-7.39-2.92-10.9-1.58a16.3,16.3,0,0,0-5.82,12.35c.1,3.06,2.27,6.47,6,9.36,3.86,1.13,7.09,1.48,9.43,1a10.21,10.21,0,0,0,6.88-4.64C1115,1116.48,1112.54,1109.15,1107.55,1106Zm-54.26-61.35-22-36.12c-5-8.22-10.19-16.72-17.76-22.67-7-5.51-16.55-9-27.59-10.15a108.91,108.91,0,0,0-14.62-.31l-4.55,1.27c-10.11,2.85-20.57,5.85-32.4,5.09a48.84,48.84,0,0,1-5.17-.69c-3.06-.51-6.22-1.06-8.53-.44-16,4.26-15,27.73-14.62,32.41a250.31,250.31,0,0,0,4,25.87l1.07,5.78a173.14,173.14,0,0,0,9.36,21.61c6.33,12.14,13.55,21.15,21.22,26.56a79.3,79.3,0,0,0,13.28,5.78c18.2,6,38.06,6.43,57.29,6.88l5,.1c4.1.1,8.33.24,12.63.48-18.06-10.83-35.4-23-52.64-35.09,32.58,14.52,66,27.32,99.81,38.57-3.75-15.9-12.14-30.59-22.47-43.32-11.69-14.41-25.83-26.66-39.87-38.81A116.55,116.55,0,0,1,1053.29,1044.6ZM785,965.4a71,71,0,0,1,28.14,4.37c-1.85-1.48-3-2.16-3.09-2.23l-.55-.35c-.48-.38-48.1-35.78-86.36-18.82-28.66,12.7-41,30.28-50.09,43.18-3.51,5-6.82,9.74-10.5,13-4.68,4.23-5.3,8.6-4.95,11.49a12.12,12.12,0,0,0,5.95,9.19c2.44,1.34,7.78,1.72,14,1.72,4,0,8.29-.14,12.42-.28,8.7-.31,17.68-.65,25.8.11a138.38,138.38,0,0,0,24.71.2,104.08,104.08,0,0,0,40.73-21l2.17-1.86c1.93-1.69,4-3.41,6.12-5a42.76,42.76,0,0,1,31.52-7c-20.13-15.93-46.59-23.88-72.15-21.06C760.78,968.5,772.79,965.82,785,965.4ZM579.26,1188.49l28,45.52c3.44-6.16,7.33-13,11.56-19.68,10.22-16.11,24.43-23.3,38.67-28.11a103,103,0,0,1-7.81-7.67c-7.33-8-14.49-16.31-21.78-25.57-6.5-.17-13.35-.45-20.3-1.1a60,60,0,0,1,17.51,15.52,119.21,119.21,0,0,0-51.74-11.25,33.6,33.6,0,0,1-2.13,6.95,99.57,99.57,0,0,0,57,31.51C611.94,1198.78,594.15,1196.3,579.26,1188.49Zm204.47-128.82-.59,8.92c-.34,3.44-.79,6.91-1.41,10.39.07.06.14.1.17.17a125.89,125.89,0,0,1,7.3-20.2,62.18,62.18,0,0,1-5.57-14.48c.06.86.1,1.68.13,2.54l.11,5.13C783.87,1054.65,783.83,1057.13,783.73,1059.67Zm-3.24,77.42a190.09,190.09,0,0,1-17.16-14,169.79,169.79,0,0,0-78.69-41.28c-20.54-5.06-43.9-5.58-64.1-5.37a185.23,185.23,0,0,1,25.84,5.47,301.69,301.69,0,0,1,65.92,28.94c28,16.48,56.84,35.43,79,62.2.14-.45.24-1,.38-1.44A151.85,151.85,0,0,1,780.49,1137.09Zm-1.89-13.35a134.66,134.66,0,0,1-.55-15,113.66,113.66,0,0,0-28-33.85c-6-4.89-11.15-8-16.35-9.88-6.57-2.37-13.76-2.92-20.71-3.47l-7.81-.62a575.2,575.2,0,0,0-66.4,5.78c-.69.07-1.41.17-2.1.27,22.84.9,40.7,3.13,57.11,7.16,19.2,4.71,36.58,14.14,51,22.71,8.63,5.16,16.2,11.76,23.56,18.16C771.69,1118,775.09,1120.92,778.6,1123.74Zm-83.5-11.91c-21.68-12.62-44.31-17.44-68.26-22.53-7.78-1.65-15.72-3.34-23.67-5.34,10.94,8.47,22.36,16.59,33.47,24.5,12.7,9,25.81,18.34,38.09,28.11,16.86,13.35,34.41,23.47,53,34.2l1.34.76c9.81,5.64,20.1,8.67,31,11.87,6.19,1.79,12.59,3.68,18.82,6a49.89,49.89,0,0,0,7.33-7.4C763.05,1152.78,731.22,1132.92,695.1,1111.83Zm-89.28-11c1.82,3.09,3.61,6.19,5.57,9.18,17.69,26.91,35.37,49,54.09,67.65,17.68,17.61,40.63,22.6,61,22.6a150.86,150.86,0,0,0,38.15-5.26c-2.06-.55-4.13-1.14-6.16-1.69-8.7-2.34-17.68-4.75-26.11-9-16.62-8.37-35.4-17.83-51.4-30-8.74-6.64-17.34-13.76-25.67-20.61-7.6-6.26-15.48-12.76-23.39-18.85-6.92-5.37-14.35-10.29-21.54-15l-8.6-5.74C603.17,1096.28,604.51,1098.59,605.82,1100.86Zm-20.13,30.21h.45a104.49,104.49,0,0,0,17.65-1.79c1.34-.24,3.27-.79,5.4-1.41-.9-1.21-1.76-2.41-2.58-3.62a17.86,17.86,0,0,1-2.48.93Zm67.68,73.62a52.42,52.42,0,0,0-20.61,12.84c-6.47,7.39-12.11,16.44-18.58,29.86,2.75-2.48,5.54-4.88,8.26-7.26,3.37-2.92,6.64-5.81,9.7-8.63,14.93-13.9,30.24-23.5,45.62-28.73A52.21,52.21,0,0,0,653.37,1204.69Zm109.92,3a151.72,151.72,0,0,1-35.4,4.44,114.53,114.53,0,0,1-29.9-3.85c-22.81,2.3-41.39,15.38-55,26.52l-3,2.48c-11.32,9.22-24.91,20.3-34.17,32.48,18.58-9.67,38.3-17.41,57.43-24.94,6.57-2.58,13.1-5.16,19.64-7.81l6.3-2.58c15.2-6.27,31-12.73,47.13-16.93,7.4-1.89,15.24-2.62,22.85-3.27a174,174,0,0,0,17.51-2.13C773.13,1209.3,767.87,1208.24,763.29,1207.65ZM599.8,1114.41l-11.32-17.72q-4.61,11.52-8.23,23.33A89.52,89.52,0,0,0,599.8,1114.41Zm-3.62-51.78c9.09-14.28,19.92-27,33.79-36.78a277.32,277.32,0,0,0-23.81,34.68,617.14,617.14,0,0,1,75.93-10.28q4.6-3.68,9.19-7.4a8.47,8.47,0,0,1,1.31,6.71q6-.32,12.11-.59c28-.92,48.3,5.13,66.71,20.34a154,154,0,0,0-.76-37.5c-2.68,1-5.23,1.75-7.63,2.4-14.76,3.93-31,5.13-48.31,3.51-7.4-.68-16-.41-24.46-.1-13.59.48-25.36.89-32-2.82a23.36,23.36,0,0,1-11.5-17.51c-.85-7.68,2.17-15.07,8.5-20.82,2.72-2.44,5.58-6.5,8.88-11.21a173.25,173.25,0,0,1,14.83-18.93,30.61,30.61,0,0,0-11.29-2.75c-5,.07-10.28,1.82-14.17,3.44s-8.15,3.75-13,6.43c-10.63,7.4-20.37,17.69-28.69,30.28a374.57,374.57,0,0,0-20.55,53c-.72,2.47-1.44,5-2.16,7.46C591.4,1063.63,593.77,1063.15,596.18,1062.63Zm223.57-53.91a25,25,0,0,0-9.12,6.91,35.75,35.75,0,0,0-8.6,22,120.75,120.75,0,0,1,9.12-10.77,96.37,96.37,0,0,1,18.23-14.69c.38-1.93.83-3.55,1.21-4.89a20.91,20.91,0,0,1-2.17-.45A27.1,27.1,0,0,0,819.75,1008.72Zm-8.46,35.85c-10.77,12.8-17.62,28.45-20.34,46.48a5.34,5.34,0,0,1-.31,2.31c-2.37,18.37-.34,38.39,5.82,57.52,1.68,3.31,3.58,6.51,5,8.91l.66,1.07a84.22,84.22,0,0,1-2.89-34.13c3.3-26.11,13.48-52.91,28-73.49,14.21-20.2,36-36.5,61.41-45.86l4.82-1.76c0-.75,0-1.51.07-2.27C865.72,1007.93,834.68,1016.74,811.29,1044.57Zm-7.71,165-2.24-.86c-3.4-1-4.57-.89-4.88-.75s-.59.93-.48,2.47c.13,2.34,1.24,4.55,1.89,5a3.94,3.94,0,0,0,2.27.69,6.67,6.67,0,0,0,3.23-1c1.55-.92,2.65-2.44,2.58-3.51S804.44,1209.85,803.58,1209.54Zm1.07-20.47a5.11,5.11,0,0,0-5.78,3.48c-.52,2,.62,3.47,3.06,4.13a8.7,8.7,0,0,0,2.13.34,1.85,1.85,0,0,0,1.52-.52C806.5,1195.3,806,1192,804.65,1189.07Zm53-190.12a207.65,207.65,0,0,1,31-7.74c1.79-.31,3.58-.59,5.4-.79a11.17,11.17,0,0,0-1.37-2.21,12.88,12.88,0,0,0-3.27-2.68,25.11,25.11,0,0,0-18.51-3.13c-.42.14-.79.24-1.21.41a42.22,42.22,0,0,0-6.6,7.37,32,32,0,0,1-5.71,8.53A1.46,1.46,0,0,1,857.63,999Zm36.09,17.41c-21.29,7.77-38.6,19.57-54.19,36.91-16.65,18.48-22.94,42.94-29.07,66.65l-.14.48c-5.47,21.16.83,39.12,7.43,56.42,15.66-40.46,40.5-97,79-138A198.27,198.27,0,0,1,893.72,1016.36ZM817.48,1207a6.2,6.2,0,0,0,2.79,2.51l.72.24a5.55,5.55,0,0,0,3.85-.69,8.18,8.18,0,0,0,4.27-7.5l-.21-.2c-3.09-2.69-9-2.34-11.45-.21C816.86,1201.67,815.07,1203.18,817.48,1207Zm8.46-24.64a52.35,52.35,0,0,0,5.75,1.9c12.52-2.79,25.7-10.29,39.15-22.26,4.68-10.64,13.21-19.79,25.36-27.29,8-10,14.93-20,19.44-26.56a75,75,0,0,0,4.09-6.71c-7.81-8.29-13.17-19-16.44-32.75l-.42-1.69c-1.2-5.19-2.54-10.8-3.81-16.58C863.82,1090.36,840.6,1144.14,825.94,1182.36Zm38.95,5.2c.38-3.51.89-6.92,1.51-10.18a105.3,105.3,0,0,1-15.68,9.8A81.39,81.39,0,0,0,864.89,1187.56ZM859.83,1201c1.31.45,2.69.93,4.1,1.45,0-.42,0-.83,0-1.24-1.2-.14-2.61-.1-3.92-.21Zm4.2,11.73c-6-2.34-11.7-4.26-17.1-5.88a52.84,52.84,0,0,0-4.33,6.81c9.7,13.11,18.47,24,27,33.38A138.19,138.19,0,0,1,864,1212.74Zm51.23-87.42a211.66,211.66,0,0,1,27.83-8.81,62.34,62.34,0,0,1-16-8.53C923.24,1114.24,919.11,1120.12,915.26,1125.32Zm141.3,76.72c1-3.23,1.93-6.5,2.89-9.8,3.41-11.66,7.06-23.64,12.22-34.65-26.25,25.63-54.64,51.2-90.18,59.35A340.1,340.1,0,0,0,1070,1135.4a261.26,261.26,0,0,0-90.93,17.89,156.39,156.39,0,0,1,69-29.17,139.82,139.82,0,0,0-28.76.41c-17,.65-34,2.44-51.27,4.4-15.41,1.76-31.37,3.58-46.41,8.16a98.71,98.71,0,0,0-24.94,11.35c-7.47,5.57-12.7,12.08-15.52,19.37-8.29,21.16-7.22,61.76,2.13,81.92,2.27,4.89,6.4,9.36,12.63,13.69,2.89,1.14,6,2,9.05,2.86l.65.17A281.72,281.72,0,0,1,959,1287.51l1.31.69c6.26,3.23,12.73,6.6,19.48,6.7,5,0,10.28-1.75,14.17-3.4a130.54,130.54,0,0,0,13-6.37c10.7-7.36,20.44-17.61,28.83-30.17A372.75,372.75,0,0,0,1056.56,1202Zm-144.19,82.41a162.39,162.39,0,0,0,32.86,16.1c-2.48-1.34-5-2.72-7.57-4.17s-5.2-2.85-7.88-4.3A159.08,159.08,0,0,0,912.37,1284.45Zm125.86-1.48c-.66.68-1.31,1.37-2,2,2.65,3.85,5.41,7.87,8.3,11.8C1042.39,1292.22,1040.32,1287.58,1038.23,1283Zm-3.48,14.86c-1.62-2.34-3.23-4.68-4.85-7a91,91,0,0,1-8.77,6.61c7.77,4.71,15,8.74,22,12.15C1040.19,1305.74,1037.43,1301.75,1034.75,1297.83Zm-22.81,5.09a95.21,95.21,0,0,1-10.32,4.71,61.66,61.66,0,0,1-13.52,3.65,376.87,376.87,0,0,0,45.07,4C1026.6,1311.76,1019.54,1307.7,1011.94,1302.92Zm-117.56,9.77c21.26,17.89,44.28,23.78,66.5,23.78,18.58,0,36.61-4.13,52.51-8.81,4-1.17,7.94-2.24,12-3.2-34.4-1.82-74.49-7.88-111.2-27.8-30.72-16.65-54.84-44.62-74.52-70.77a45.5,45.5,0,0,0-.24,6.78C846.24,1260,866.3,1289.09,894.38,1312.69Zm-63.24,111.79c13.52-13.49,27.39-28.18,37.33-44,3.4-8.22,5.95-17.75,8-30.07,2-11.59,3.41-25-.34-36.68a178.84,178.84,0,0,1-29-34.92,231.79,231.79,0,0,1,2.37,50.75,404.83,404.83,0,0,1-9.7,68c-2.37,10.08-6.5,19.71-10.77,29.07Zm-17.89,13.62c2.06-5.16,4.3-10.25,6.47-15.21,2.85-6.6,5.81-13.45,8.43-20.26,6.64-17.45,8.43-37.3,10.15-56.5.31-3.37.61-6.7.92-10,3.62-36.71-1.34-70.08-15.2-102-2.34-1.54-5.82-2.51-10.43-2.85-7.12,12.18-11.83,29.17-15,40.56l-.24.9c-5.19,18.65-5,39-4.78,58.69q.1,5.79.1,11.46C793.67,1373.9,800.24,1405.9,813.25,1438.1Zm-10.22,0c-12.83-33.76-18.89-69-19-110.1v-2.48c-.07-20.33-.1-43.35,7.26-63.2,1.07-2.89,2.1-5.92,3.17-9,.72-2.1,1.44-4.2,2.16-6.33-20,31.45-30.34,64.89-30.55,99.74-.1,20.51,4.1,40.32,7.67,53.33C778.36,1416.67,789.09,1427.33,803,1438.07ZM767.9,1412.4c-7.12-15.41-8.81-33.75-10.32-50.06-.24-2.37-.45-4.75-.69-7-3.71-37.26,8.22-78.35,33.72-116.71-1.14.52-2.27,1-3.34,1.41l-.27.18c-27.56,17.44-45.08,50.95-46.83,89.62C738.69,1362.51,748.91,1392.41,767.9,1412.4ZM610.53,1295.76c17.58,11.74,34.17,22.82,55.32,25.64,12.84-.9,27.77-2.51,41.33-7.78,11.62-4.47,21.19-11.35,27.76-19.95a126,126,0,0,1,13.59-30.87c-16.34,10.4-34.78,19.13-56,26.6-15,5.23-29.38,6.88-43.76,6.88-11.77,0-23.53-1.1-35.58-2.24-2-.17-4-.34-6-.55C608.26,1294.25,609.39,1295,610.53,1295.76Zm2.61-11.45c25.71,2.23,49.93,4.37,76-4,36.88-11.77,68.68-31.48,92-57a16.59,16.59,0,0,0-.14-2.52,155.15,155.15,0,0,1-17.1,2.17c-3.78.31-7.53.66-11.11,1.17-19.1,2.69-36.4,9.64-54.71,17l-3.85,1.55c-6.5,2.62-13.07,5.13-19.65,7.71-24.8,9.6-50.37,19.51-73.55,32.86C605.13,1283.62,609.15,1284,613.14,1284.31Zm-138.58,23.36c4.13,8.5,10.05,16.17,15.76,23.6l15.07,19.65c3.3,4.26,6.71,8.7,11.14,11.59,6.34,4.13,13.94,4.61,19.17,4.27,6.16-.38,12.14-2,17.55-3.44,12.38-4.72,21.4-9.26,27.62-13.83a49.45,49.45,0,0,0,8.85-8.71c6.77-10.29,10.63-23.77,10.87-38a175.17,175.17,0,0,0-20.27-11.32,6,6,0,0,1-2.27-9.15,240.62,240.62,0,0,0,15-22.84c-1.21-3.82-2.44-7.57-3.75-11.32-5.85-16.55-12.66-33.14-20.16-49.17-1.52-3.09-3.1-6-4.68-9a184.38,184.38,0,0,1-1.1,72.77c.65-17.68.31-35.54-3.75-52.74-3.41-14.25-9.57-28.08-19-39.19-.06.14-.13.27-.2.41a289.22,289.22,0,0,0-28.56,85.71,225.33,225.33,0,0,1,3.23-66.72c-7.6,9.67-14.86,19.44-21.64,29.25-8.8,12.73-18.61,28-24.53,44.52A70.22,70.22,0,0,0,474.56,1307.67Zm82.68-165.49c-.11-3.1-2.27-6.47-6-9.36-3.82-1.1-7.09-1.41-9.43-.89a10.11,10.11,0,0,0-6.88,4.64c-1.86,6,.62,13.25,5.64,16.45,3.72,2.34,7.37,2.85,10.91,1.51A16.33,16.33,0,0,0,557.24,1142.18ZM312.75,1173c1.86,1.82,4,3.51,6,5.16l4.78,3.92a132,132,0,0,1,12.35,11.05c3.75,3.92,7.19,7.95,10.5,11.87,2.4,2.75,4.64,5.36,6.88,7.84a7.48,7.48,0,0,1,2,2.2l.51.62c10,8.23,23.5,17.69,38.54,18.07,7.94.24,15.86-2.17,23.36-4.61,12.69-4.1,27.42-9.36,40.63-17.41,8.91-5.44,17.24-12.18,25.29-18.72,2.89-2.34,5.92-4.75,8.94-7.12a135.54,135.54,0,0,1-72.14,2,185.35,185.35,0,0,0,103.11-36.06A142.16,142.16,0,0,0,423.88,1126a167.69,167.69,0,0,1,62.76-8.94c-3-2.2-5.89-4.41-8.78-6.57-39.8-23.43-66.68-33.07-87.08-31.31a73.86,73.86,0,0,0-17.41,3.71,56.92,56.92,0,0,0-23,18.75c-1.66,2.41-3.17,5-4.61,7.51-1,1.68-2,3.37-3,5a65.84,65.84,0,0,1-16.07,18.06c-1.4,1.1-2.89,2.1-4.4,3.1a57.23,57.23,0,0,0-7,5.36,27.55,27.55,0,0,0-8.05,22.75A22.6,22.6,0,0,0,312.75,1173Zm79.93-191.33c-21.92-23.7-55.64-8.81-83.13-8.6a71,71,0,0,1-33.06-7.81c5.81,16.76,9.56,33.89,12.49,52.09,4.95,30.79,17.37,56.46,44.66,70.94a34.76,34.76,0,0,1,4-5.95c6.84-8.08,17.16-12.59,24.32-15.24a96.66,96.66,0,0,1,14-4.06c-25.6-9.77-47.17-30.59-56.08-56.6,20.4,20.13,44.24,38.3,72.25,44.42,7.6,1.69,15.48,2.58,22.74,5.3-8.56-10.63-19-26.18-23.46-43.25C388.3,1001.22,389.61,991.07,392.68,981.71ZM159.27,1086c13.73,10.29,25.18,23.06,37.78,35.13,29.41,28.21,58.9,28.15,96.85,18.31a8.15,8.15,0,0,1,3.37-.18c3.4-4.33,7.71-8.08,11.8-11.66s8.15-7.12,11.15-10.94c-6,2.44-13,2.41-19.55,1.93a254.87,254.87,0,0,1-66.74-14.11,229.91,229.91,0,0,0,88.66-4.64c-16.86-9.81-30.59-23.61-39.08-42a90.78,90.78,0,0,1-4.82-13.28C234.89,1032,199.07,1070.65,159.27,1086ZM266.49,940.48c29.87,23,54.74,12.77,89.23,12.23,16.35-.28,31.42,3.2,43.49,13.55.66-1.3,1.28-2.61,1.93-3.92,3.47-7,7-14.13,9.27-21.86Zm156.52,0a67.91,67.91,0,0,1-4,14.29,94.92,94.92,0,0,1-7.47,13.45,62.6,62.6,0,0,0,.34,45.52A101.94,101.94,0,0,0,422.16,1032a140.63,140.63,0,0,0,12.94,17A194.23,194.23,0,0,0,451,1064c16.51,14.52,33.54,29.38,51.06,43.42a177.35,177.35,0,0,1-33-63.93,415.53,415.53,0,0,0,53.32,63.07c4.2,4.06,9,8.19,14.42,10.08l6.3-1.14a224.6,224.6,0,0,0-11-121c20.86,26,27,60.21,29.28,93.86,1.76-5.95,3.44-11.91,5.06-17.79,2.07-7.36,4.13-14.76,6.33-22.09q.21-2.88.52-5.78c.24-2.65.48-5.3.58-7.91.31-11.22-2.75-22.67-5.47-32.75L564.12,986c-4.41-12.77-10.57-29.42-19.41-44.87-.11-.2-.25-.42-.37-.63Zm149.08,0c1.84,3.92,3.59,8,5.2,12.43A196.42,196.42,0,0,1,588.86,1006a136.83,136.83,0,0,1,11.93-20l6-7.47c1.82-2.1,3.5-4,5.16-5.61l3.61-3.37a98.29,98.29,0,0,1,14-10.49l4.72-2.76A98.7,98.7,0,0,1,645.8,951c19.57-7.7,34.37-3.58,47.37,2.38a123,123,0,0,1,21.13-12.85Zm219.92,0c.11.14.24.26.35.39,0-.12-.07-.26-.1-.39Zm12.64,0a103.65,103.65,0,0,0,10.28,17.15c.79.58,3,2.27,5.75,4.75a142.76,142.76,0,0,1-3.82-21.9Zm22.13,0a153.38,153.38,0,0,0,18.16,36.66c-2.14-9.43-1.72-15.83-.35-22,.24-1.11.59-2.27.9-3.27.92-3.84,2.08-7.67,3.21-11.37Zm35.18,0c-1.67,4.77-3.4,9-4.74,12.23a47.83,47.83,0,0,0-2.2,5.92,46.94,46.94,0,0,0-.73,6.33,67.65,67.65,0,0,1,15.06-24.48Zm17.87,0a108.71,108.71,0,0,0-14.53,24.75,77.09,77.09,0,0,1-3.78,8.57,50.33,50.33,0,0,1,15.58-7.26,31.65,31.65,0,0,1,18.72.76c.69.24,1.34.48,2,.75,6.92-2.72,12.94-9.56,18-20.33.86-1.82,1.68-3.68,2.51-5.57.24-.56.51-1.11.75-1.67Zm60.18,0a157.72,157.72,0,0,0-7.62,16,54,54,0,0,1-7.19,12.32c2.31.14,4.61.41,6.85.69a87.77,87.77,0,0,0,10.05.75c8.63-.2,16.75-2.68,25.39-5.33,9.43-2.85,19.06-5.78,29.55-5.57,13.56.34,24.84,4.4,34.27,12.35a70.21,70.21,0,0,1,.48-20,88.88,88.88,0,0,1,2.88-11.23Zm110,0a80.71,80.71,0,0,0-2,18.15c.2,18.13,5.5,35.71,11.18,52s12.21,32.34,19.44,48.07a213.67,213.67,0,0,1,3.4-64.17,296,296,0,0,0,21,94.27,417.08,417.08,0,0,0,41.53-88.08c-1.93,25.6-9.26,50.44-17.07,74.9a2.43,2.43,0,0,1-.17.52c9.74-11.87,19-24,27.63-36.4,8.84-12.73,18.68-27.94,24.7-44.45a70.24,70.24,0,0,0-5.54-43.77,89.13,89.13,0,0,0-6.46-11Zm140.66,0c4.59,9.55,7.86,19.74,7.95,31.22A84.53,84.53,0,0,1,1221.47,945c2.13-1.63,4.32-3.14,6.57-4.56Z"/></g></g></svg>