<svg xmlns="http://www.w3.org/2000/svg" viewBox="0 0 1650 1380.25"><title>Asset 55</title><g id="Layer_2" data-name="Layer 2"><g id="Layer_1-2" data-name="Layer 1"><path fill="FRAME_COLOR" d="M1647.1,480.32H1154.8c11.36-4.13,21.48-13.42,27.88-25.74a78,78,0,0,0,6.67-18,91.89,91.89,0,0,0,6.2,12.18c11.49,18.37,30.9,29.66,49.69,29.66a43.2,43.2,0,0,0,9.91-1.1c18.1-4.13,30.62-17.83,42-31.52,2.13-2.55,4.27-5.23,6.4-8A339.56,339.56,0,0,0,1449,475l21.55.48-14.39-16c-37-41-85.48-70.82-138.2-86.31a74.92,74.92,0,0,0-7.43-12.94c18.79-2.06,35-11.7,43.64-25.81a44.24,44.24,0,0,0,6.6-15,43.07,43.07,0,0,0,.83-13l-.62-14.24.76-.28,17.2-7.57.14-.07c55.27-25.39,97.52-58.84,125.67-99.38l8.54-12.39-14.87-2.13A275.21,275.21,0,0,0,1332,199.24c-5.16,2.76-10.25,5.72-15.27,8.81a63.38,63.38,0,0,0-14-1.51c4.47-11.91,5.91-24.09,3.78-35.31-2.34-12.59-8.88-24.91-20-37.64a125.8,125.8,0,0,0-23.19-20.79,98.31,98.31,0,0,0-25.74-12.66A79.26,79.26,0,0,0,1205.32,97a98.2,98.2,0,0,0-17.55-5.92c-15-3.58-28.29-3-39.51,2-13.28,5.85-23.67,17.89-29.45,33.72a53.29,53.29,0,0,0-18.86-8.26c14.8-25.32,27.19-54.92,38-90.71L1143.65,9l-18.17,7.57c-44.11,18.24-82.79,50-110.66,89.26v-.2C1007.45,64.9,980.4,27.25,942.48,4.89L934.29,0l-4.68,8.33C919.36,26.57,897.82,36.75,877,46.52l-3.85,1.86c-23.33,11-51.07,27.39-59.12,55.89-.48,1.79-.9,3.65-1.24,5.43H811c-3.17-2-6.33-3.92-9.57-5.71-23.81-13.35-59.94-30.83-98-28.08-20,1.52-38.4,8.19-56.3,14.59-8,2.89-22.78,8.19-27.73,22-4.82,13.49,2.47,26.22,7.84,35.58,6.33,11,12,22.85,17.55,34.27,5.09,10.46,10.33,21.2,16.11,31.66a58.93,58.93,0,0,0-28.77-6.95c4.54-11.91,5.92-24.09,3.85-35.38-2.34-12.59-8.88-24.84-20-37.57-14.31-16.38-31.24-27.95-48.86-33.45a79.89,79.89,0,0,0-32.28-3.17,99.5,99.5,0,0,0-17.55-6c-15-3.51-28.29-2.9-39.44,2-13.42,5.92-23.67,18-29.45,33.79-10.12-6.88-21.47-10.11-32.28-9.08-11,1-20.65,6.33-28.84,11.22-10.46,6.26-21.47,13.42-30.83,23.12-10.67,11-17.27,23.61-19.2,36.55a51.64,51.64,0,0,0-.62,8,63.14,63.14,0,0,0,4.68,23.26,336.58,336.58,0,0,0-33.79-9.49c-56.16-12.6-111.91-8.19-157,12.59l-13.76,6.33,11.9,9.36c45.29,36,101.17,58.36,158.85,65.59a13.22,13.22,0,0,1,.27,1.65l6.61,28a90,90,0,0,0,6.81,15.35c-4.82,3.1-9.5,6.4-14.17,9.64-34.69,24.08-77.84,54.16-96.77,99.86l-6.13,14.8L220,472c48.52-6.26,95.12-25.26,134.76-53.82.27.28.62.69.89,1,5.58,6.12,11.91,13.07,19.89,18.3a49.59,49.59,0,0,0,15.21,6.75,74.71,74.71,0,0,0,13.63,12.94c10.25,7.5,21.82,12.59,32,17.06a153.58,153.58,0,0,0,15.76,6.13H2.9A14.56,14.56,0,0,0,0,488.51a15,15,0,0,0,2.89,9.36H1647.1a15,15,0,0,0,2.89-9.36A14.56,14.56,0,0,0,1647.1,480.32Zm-325-86.37a283,283,0,0,1,103.38,60.9,322.8,322.8,0,0,1-111.57-32.62C1318.67,413.56,1322,404.13,1322.11,394ZM1119,391.19a178.29,178.29,0,0,0-24.37-36.34c1.93-2.61,3.93-5.09,6-7.64a26.57,26.57,0,0,0,8.47-.06c2-.21,4.06-.42,5.09,0,2.13.75,3.65,5.85,4.47,8.53,1.65,5.44,3.86,9.57,6.68,12.46v.13c-.9,3-1.79,6.06-2.62,9.09s-1.65,6.19-2.48,9.22C1119.77,388.1,1119.36,389.68,1119,391.19Zm55.6,22.58c-1.37,10.39-3.23,22.36-8.39,32.28-4.89,9.49-12.8,16.1-21,17.68a30.66,30.66,0,0,1-11.43-.27c.07-.55.14-1.17.21-1.79,1.24-18.65-1.86-37.58-8.67-55.89,1-2.06,2.13-4.26,3.16-6.47,1.24-2.75,2.55-5.5,3.86-8.32s2.68-5.78,3.92-8.68,2.61-5.78,3.85-8.67l.42-.82a32.71,32.71,0,0,0,7.91-3.38c1.93-1,3.92-2.13,5-2,1.58.14,4,2.68,6.12,4.95,3.72,3.93,8.74,9.3,16.25,9.3h.89c.14,0,.27-.07.48-.07A284,284,0,0,1,1174.55,413.77Zm20.24-62.84c-7.5,1.1-11.56,7-14.52,11.36-1.45,2.06-3.38,4.88-4.48,4.95-1.3.14-3.85-2.68-5.71-4.75-3.72-4-8.4-8.94-15.62-9.49h-1.24c-4.75,0-8.53,2.06-11.7,3.71-1.86,1-3.92,2.2-4.89,2-.75-.14-2.54-1.79-4.13-7.16s-4.47-14.8-13.35-18c-4.27-1.52-8.39-1.1-11.7-.76a18,18,0,0,1-4.54.21c-.21-.76.07-3,1.51-5.78,2.27-4.55,5.51-10.95,3.86-17.62a195.35,195.35,0,0,0,21-18,.9.9,0,0,1,.21.27c2.27,4.48-6.13,10.12-2.76,14,2.76,3.1,9.43-1.3,11,5.1a6.24,6.24,0,0,1-1.59,5.5c-2.34,2.69-4.06,9.22-.14,10.46,3.24,1,6.75-3.44,9.71-1.79,3.85,2.14-.9,9.36,3.78,12a5.34,5.34,0,0,0,5.44-.35c4.54-2.82,5-8.8,9.43-11.9a5.67,5.67,0,0,1,4.13-1.17c3.51.48,4.27,3.92,6.12,6.26a8.94,8.94,0,0,0,11.71,1.93,8.53,8.53,0,0,0,3.51-5.23,7.26,7.26,0,0,1,6.53-5.44,9.72,9.72,0,0,0,4.34-1.17,6.44,6.44,0,0,0,3.44-5.09c.28-3.44-2.68-4.82-4.34-7.09-1.23-1.72-1.17-4.82.9-5.3,4.82,2.13,12-2.75,7.64-9.77a4.76,4.76,0,0,0-1.58-1.72c-2.55-1.59-6.54-2-7-5-.62-4.54,8.74-6.47,6.4-11a4.6,4.6,0,0,0-5.37-2.13c-5.85,1.51-8.33-3.38-9.78-7.58-1.16-3.16-2.47-6.81-5.57-8.19-2.55-1.17-6.06.9-6.26,3.17a3.36,3.36,0,0,1-4.06,3,8.36,8.36,0,0,1-3.72-1.93c-2.75-2.47-5-6.12-9.22-5.5a6.66,6.66,0,0,0-4.27,2.47,11.83,11.83,0,0,0-2.41,5.37,4.1,4.1,0,0,1-5.09,3.17,176.35,176.35,0,0,0,19.41-34.21,103.56,103.56,0,0,0,3.58-9.77,6.75,6.75,0,0,1,1.51,1.86l.76,1c3.3,5,8.39,12.73,17.34,13.08,7.3.27,12.11-4.41,15.69-7.85l.9-.89a9.91,9.91,0,0,1,3.23-2.07,19,19,0,0,1-.62,5.17c-2.06,9.91,1.17,18,8.4,20.71a17.74,17.74,0,0,0,4.47.9,20.25,20.25,0,0,1-1.37,2.47,19.18,19.18,0,0,0-2.27,5.17c-2.41,11.35,4.12,16,8.32,17.75l1.38.55c2.13.9,5.57,2.34,6.06,3.51.06,1-2.28,3.93-3.51,5.58-3.31,4.26-7.44,9.56-7,16.58.28,4.82,2.69,8.81,4.68,12a36.37,36.37,0,0,1,2.21,4.13,33.19,33.19,0,0,1-3.79,1.17c-3.23.89-7.29,2-10.53,4.88-6.26,5.51-6.06,13.56-5.85,19.48v1c.07,3.64-.76,5.71-1.17,6-.69.21-3.23-.82-4.75-1.44C1204,352,1199.74,350.24,1194.79,350.93Zm88,83.07c-9.29,11.22-19.4,22.44-31.79,25.19-15.56,3.51-31.73-7.57-39.64-20.3-9.64-15.42-11.84-35-12.67-52.17-.27-6.19-.41-12.46-.41-18.65v-2.55c1,.28,2.41.83,3.65,1.31,3.71,1.51,8.81,3.72,14.45,2l.62-.21c1.1,1.31,2.2,2.55,3.3,3.85,3.86,5,7.85,9.78,11.63,14.46,1.79,2.27,3.72,4.47,5.37,6.6s3.31,4.13,4.89,5.92c3.1,3.65,5.92,6.61,8,8.6,1.86,1.79,3.1,2.83,3.37,3a41.4,41.4,0,0,0-1.1-4.33c-.82-2.76-2.06-6.68-3.85-11.22-.9-2.27-1.93-4.68-3-7.23a27.47,27.47,0,0,0-1.93-3.78c-.68-1.31-1.44-2.62-2.2-3.93-3-5.3-6.06-10.94-9.36-16.51-1.65-2.62-3.37-5.17-5-7.71a30.88,30.88,0,0,0,.82-7.85l-.07-1c-.06-2.82-.2-7.16,1-8.19a11.89,11.89,0,0,1,3.65-1.45c5.09,2.62,10.18,5.17,15.27,7.57,11.29,5.37,23.34,10.4,36,13.15,1.79,1.51,3.44,3.17,5.09,4.82,6.2,6.33,13.77,16.31,14.66,27.39C1304.63,406.13,1293.41,421.13,1282.81,434Zm57.88-218.31A256.67,256.67,0,0,1,1460,186.24c6.53,0,13.21.27,19.75.75-26.16,32.42-63,59.6-109.85,81-3.57,1.58-7.22,3.16-10.87,4.75a10.06,10.06,0,0,0-.07-1.45c-1.1-14.73-2.34-31.52-12.39-44.87a49.09,49.09,0,0,0-9.08-9C1338.56,216.86,1339.66,216.24,1340.69,215.69Zm-37.92,9.43c12,0,23.06,4.75,29,12.53,6.74,8.94,7.71,21.61,8.67,35,.21,2.41.34,4.82.62,7.23s.41,4.81.69,7.29c1.31,12.73,2.61,24.71-1.86,34.55-6.2,13.76-22.71,20.1-36.34,20.3h-1c-16.11,0-32.07-6.4-46.87-13.35-2.55-1.24-5.09-2.48-7.64-3.78.89-5.65-2.13-10.6-4.34-14.11-1.1-1.86-2.47-4.13-2.61-5.37-.07-1.58,2.2-4.47,4-6.75.62-.82,1.24-1.65,1.93-2.61.48-.07,1-.21,1.51-.28,3-.62,6-1.24,9-1.92s6.19-1.38,9.36-2.14c6.19-1.58,12.45-3,18.3-4.54s11.15-3.37,15.76-5,8.4-3.17,11-4.34,4.19-2,4.19-2-1.72-.34-4.61-.61-7-.62-11.83-.69-10.53-.14-16.59.2-12.32.9-18.79,1.31c-3.17.35-6.33.62-9.5,1-1.65.14-3.23.28-4.81.49-3-5.85-9-8.4-13.36-10.19l-1.3-.55a7.17,7.17,0,0,1,.13-1c.21-.35.49-.9.76-1.31,1.24-2.13,3.58-6.26,3.72-10.94a212.68,212.68,0,0,1,19.89-13.36c10.46-6.26,24.29-13.62,39-14.86A38.23,38.23,0,0,1,1302.77,225.12Zm-116.1-102.89a51.24,51.24,0,0,1,26.91-7.16A61.57,61.57,0,0,1,1232,118c14.39,4.48,28.36,14.11,40.4,27.88,8.88,10.18,14,19.54,15.69,28.77,2.07,11.08-.82,23.67-7.84,35.58-11.5,3.51-21.68,9-29.94,14a242.43,242.43,0,0,0-23.68,16.1h-.55a11.4,11.4,0,0,1,.21-4.13c.83-3.71,3.24-15-5.51-20.64a13.61,13.61,0,0,0-6.33-2.14c2.14-4.33,4.13-8.88,6.2-13.35,2.47-5.78,5-11.49,7.29-16.93,1-2.75,2.13-5.44,3-8s1.72-5,2.41-7.23,1.31-4.47,1.86-6.33,1-3.51,1.24-4.89c.68-2.82,1-4.4,1-4.4s-1.24,1.1-3.23,3.16c-1,1-2.07,2.27-3.45,3.72-1.23,1.51-2.68,3.17-4.13,5s-3.09,3.93-4.74,6.06-3.31,4.47-5,7c-3.3,4.89-6.68,10.19-10.12,15.42-3.23,5.37-6.67,10.6-9.56,15.69-2.83,4.54-5.23,8.88-7.44,12.66-.75-1.1-1.58-2.27-2.2-3.23l-.69-1a25.6,25.6,0,0,0-11.15-9.36,33,33,0,0,0-5-18,35.63,35.63,0,0,0-12.39-11.63c.14-2.06.28-4.06.55-6C1161.62,149.62,1172,131.18,1186.67,122.23Zm-30.9-12.11a34.46,34.46,0,0,1,14.1-2.69,39.17,39.17,0,0,1,5,.28c-15.14,10.12-26.22,26.77-31.66,47.21a104.63,104.63,0,0,0-9.15-13.69C1136.91,128.49,1143.72,115.42,1155.77,110.12Zm-42.33,36.13c5.92,5.44,10.53,12.32,14.52,19.41-26.15-8.33-50.38-12.6-73-12.87,4.06-2.82,8.26-5.44,12.39-7.92,6.74-4,13.9-8,21-8.67C1096.58,135.44,1105.73,139.09,1113.44,146.25Zm-97-8.4c22.5-40,56.71-73.78,97.18-95.18-10.47,30.21-22.3,55.4-36.27,76.88-7.23,2.27-13.77,5.92-19.62,9.36-10.46,6.26-21.47,13.42-30.83,23.12-1,1-1.86,2-2.75,3-2.28.34-4.62.76-6.89,1.24l-3.71.82A129.26,129.26,0,0,0,1016.47,137.85Zm4.54,36.69c34.21-7,72.68-2.27,117.55,14.52,6.4,2.41,13.42,5.37,16.45,10.18,3.51,5.44,2.68,14.25-2.41,26.09-18.31,42.67-55.33,76.74-98.76,93.32-14.94-10.11-30.08-17.48-45.22-21.88.9-1.52,1.72-3,2.48-4.61a36.07,36.07,0,0,0,3.17-18.72,18.52,18.52,0,0,1,5-14.8l.28-.35a22.19,22.19,0,0,0,4.26-6.81c2.62-.34,6.33-.76,10.88-1.44l7.15-1.17c2.48-.35,5.3-1.17,8.13-1.86s5.71-1.38,8.67-2.2,5.85-1.52,8.88-2.41c5.78-2,11.49-4.13,16.86-6.06,2.61-1,5.23-1.93,7.64-3.1s4.61-2.13,6.74-3.09c8.26-3.93,13.56-6.89,13.56-6.89s-6.19.42-15.14,1.59c-2.2.34-4.61.62-7.16,1s-5.3.55-8,.89c-5.58.56-11.5,1.24-17.35,2-3,.14-5.84.48-8.67.69s-5.71.48-8.39.82l-4,.42-3.93.41c-2.54.14-4.95.28-7.16.55-3.51.28-6.53.62-8.94,1a25.3,25.3,0,0,0-5-7.5l-.2-.2a12.94,12.94,0,0,1-3.51-7.57,101.11,101.11,0,0,0-4.89-18.66c-2.34-7-4.47-13.48-4.34-19.89A137.4,137.4,0,0,1,1021,174.54Zm70.34,146.38a25.61,25.61,0,0,0-3,11.84c-.83,1-1.65,1.93-2.48,3l-5.92,3.86c-2.89-2.69-5.92-5.37-9-8A178.68,178.68,0,0,0,1091.35,320.92ZM832,109.29C838,88,861.41,74.54,881.16,65.18L885,63.39c19.55-9.23,41.44-19.55,55.41-37.72,29.45,19.89,50.1,50.52,56,83.21a107.81,107.81,0,0,1,1,31.52c-5.3-5.23-12.8-8.81-22.37-10.53-4-.76-8.67-4.47-14.1-8.88-7.16-5.71-16.25-12.87-28.84-16.79.27-1.24.55-2.48.89-3.86.42-1.65.62-3.57,1-5.5.62-3.72,1.3-7.78,2-11.84.41-4,.83-8,1.17-11.77.14-1.86.48-3.65.48-5.37s.07-3.37.14-4.81c.21-5.92.35-9.91.35-9.91s-1.31,3.71-3.24,9.36c-.41,1.37-1,2.89-1.51,4.47s-1.24,3.23-1.93,5c-1.38,3.38-2.89,7-4.41,10.53-1.72,3.45-3.44,6.82-5,10-.83,1.59-1.45,3.1-2.34,4.55s-1.65,2.89-2.41,4.19c-.48.76-.89,1.45-1.31,2.14-9.36-.42-20.16,1-33,5.3a19.33,19.33,0,0,1-3.93-.76c-3.85-1-9.08-2.27-14.72-.28a41.2,41.2,0,0,0-9.78,5.72,27.5,27.5,0,0,1-4.47,3c-4.82,2.28-11.7.69-19.06-1.17C831.33,111.91,831.68,110.6,832,109.29Zm-27.18,20.65c4.33-2.82,10.59-1.52,20.44,1,.41.14.82.21,1.24.35l16,51.82,1.17-48.93a32.89,32.89,0,0,0,14.66-3,53,53,0,0,0,7.5-4.75,25.56,25.56,0,0,1,5-3.24,20.82,20.82,0,0,1,3.92.76c3.72,1,8.81,2.27,14.25.41,32.69-10.94,46.87.35,60.56,11.22,2,1.65,4.06,3.24,6.06,4.75L939,181.76l31-34.06a6.76,6.76,0,0,0,1.65.41c6.47,1.24,11,3.37,13.49,6.33,4.13,5,4.89,8.33,4.54,9.15-5.78,15.76-1.37,29.12,2.55,40.95a87.1,87.1,0,0,1,4.13,15.21,31,31,0,0,0,8.47,17.9l.2.2c2.14,2.28,2.41,6,.62,8l-.14.14a37.39,37.39,0,0,0-9.77,29.45,17.65,17.65,0,0,1-1.51,8.81,70.74,70.74,0,0,1-7,10.94,79.72,79.72,0,0,0-9,14.53c-3.3,7.29-4.68,15.14-6,22.64-1.79,10.53-3.37,19.68-9.7,23.95-5.09,3.51-12.53,3.17-21.27,2.75-9.63-.48-20.58-1-30.42,4.34-6.74,3.65-11.83,9.43-16.31,14.52-5.78,6.61-9.63,10.53-13.83,10.46-3.58-.14-7.64-3.65-12-7.36-5.92-5.16-13.28-11.57-23.33-12h-1c-5.64,0-10.53,1.93-14.8,3.58-3.23,1.24-6.33,2.41-8.46,2.13-4-.41-7.78-6.05-11.5-11.49-1-1.38-1.92-2.82-2.89-4.13-4.88-6.81-13.83-13.56-23.4-14.25a35.21,35.21,0,0,0-24.7-30.35,20.28,20.28,0,0,1-10.4-7.09c-5.64-7.63-4.88-19.47,1.59-25.94a36.58,36.58,0,0,0,7-9.09c10-18.85-4-30.14-11.5-36.2-1.44-1.1-2.82-2.2-4-3.3a7,7,0,0,1-1.44-1.72,1.61,1.61,0,0,1,0-1.52c.27-.48.55-.62.68-.62,7.78-1.17,14.73-7.77,16.45-15.76,1.59-6.95-.07-13.28-1.58-18.78-.28-1.17-.62-2.41-.89-3.58-1-4.55-.35-7.44.27-7.92.9-.76,4.27-.62,7-.55a38.8,38.8,0,0,0,12.32-1c15.42-4.34,19.06-19.62,22-31.8C798,141.09,800,133,804.77,129.94ZM436.15,306.06c-2.69-4.54-7.16-6.82-10.81-8.6a33.92,33.92,0,0,1-4.06-2.28,11.06,11.06,0,0,1,2.89-2.82l1.24-.82c3.65-2.48,8.74-5.85,10.46-12,1.93-6.74-1.1-12.8-3.51-17.69-.89-1.79-2.34-4.81-2.41-5.92,1.11-.61,5-.41,7.09-.41,6.13.28,14.52.62,19.62-6.33,3.78-5.23,3-11.22,2.27-15.55-.21-1.52-.62-4-.35-4.89,1.11-.21,4.68.41,9.43,3.17,12.05,7.29,22.37,7.43,28.22.27,2.48-3,3.24-6.19,3.85-8.88.14-.48.28-1.24.49-1.79a12.32,12.32,0,0,1,3.85,3.65l.62,1c3.37,5,8.4,12.67,17.41,13.08,7.3.27,12.18-4.41,15.69-7.85l1-.89a11.42,11.42,0,0,1,3.16-2.13,23.38,23.38,0,0,1-.62,5.23c-2.13,10,1,18,8.33,20.71a17.34,17.34,0,0,0,4.54.83c-.41.89-1,1.92-1.3,2.54a15.79,15.79,0,0,0-2.34,5.17c-2.34,11.35,4.2,16,8.25,17.68l1.45.62c2.06.9,5.57,2.34,6.06,3.44.07,1-2.27,4-3.58,5.65-3.31,4.26-7.37,9.5-6.95,16.58.27,4.82,2.75,8.81,4.75,12,.68,1.24,1.78,3.1,2.2,4.13a33.19,33.19,0,0,1-3.79,1.17c-3.3.89-7.29,2-10.53,4.89-6.26,5.5-6,13.55-5.92,19.47l.07.9c.07,3.71-.82,5.71-1.1,6.05-.75.21-3.3-.82-4.82-1.51-3.44-1.38-7.77-3.17-12.66-2.48-7.57,1.1-11.56,7-14.59,11.29-1.38,2.06-3.3,5-4.34,5h-.13c-1.24,0-3.72-2.61-5.65-4.68-3.78-4-8.39-8.94-15.62-9.49a7.37,7.37,0,0,0-1.24-.07c-4.75,0-8.6,2.06-11.7,3.78-1.79,1-4,2.14-4.82,1.93s-2.61-1.72-4.26-7.16-4.41-14.73-13.36-18c-4.19-1.44-8.32-1-11.63-.69-1.37.14-3.85.42-4.61.14-.14-.69.14-2.89,1.59-5.78C436.7,322.23,440.83,314.11,436.15,306.06Zm122.16,33.86a11.18,11.18,0,0,1,3.65-1.45c2.47,1.24,4.88,2.48,7.29,3.65a31.8,31.8,0,0,1-4.33,5.16c-1.45,1.31-3.1,2.62-4.82,4.06-1,.69-1.93,1.52-3,2.34a25.44,25.44,0,0,0,.21-4.61v-1C557.21,345.29,557.14,341,558.31,339.92ZM531.4,367.38c3.72,1.45,8.67,3.58,14.25,2-3.17,10.59.62,23.19,9.84,31.79,8,7.44,18,10.95,27.46,13.9a349,349,0,0,0,37.16,9.43c-2.48,3.44-5.16,6.82-7.84,10.05-9.22,11.22-19.34,22.37-31.66,25.19-15.62,3.44-31.8-7.57-39.78-20.3-9.57-15.49-11.77-35.1-12.6-52.24-.34-7-.48-14.11-.48-21.2A27.16,27.16,0,0,1,531.4,367.38Zm57.05,29.94c-7.77-2.41-15.14-5-20.3-9.77-4.2-3.93-6.12-9.85-4.4-13.63,1.17-2.75,4.26-5.16,7.84-8,2-1.58,4.13-3.23,6.13-5.09,8.67-8.26,13.21-18.72,17.62-28.84,1.24-2.82,2.41-5.57,3.64-8.19A112.79,112.79,0,0,1,665.12,266a109.47,109.47,0,0,1,33.38-5.09,112.67,112.67,0,0,1,38.75,6.81l-.55.55a36.18,36.18,0,0,0-9.63,17.07,3.47,3.47,0,0,0-.9.14c-1.79.41-4,.83-6.47,1.45-1.24.27-2.55.55-4,.89s-3,.89-4.54,1.38c-3.1,1-6.54,2-10.19,3.23-1.79.55-3.58,1.31-5.37,2s-3.71,1.44-5.57,2.27c-3.79,1.58-7.64,3.1-11.5,5.09l-11.42,5.92c-3.79,2.2-7.43,4.47-11.08,6.68s-6.95,4.68-10.26,7.08a103.06,103.06,0,0,0-9.15,7.09c-2.82,2.41-5.51,4.68-7.84,6.82-1.18,1.1-2.35,2.13-3.45,3.09s-1.92,2.07-2.82,3c-1.86,1.86-3.37,3.58-4.68,5-2.2,2.41-3.51,4-3.78,4.33.41-.2,2.27-1.1,5.16-2.61,1.65-.83,3.65-1.86,5.92-3.1l3.58-2c1.3-.69,2.61-1.31,4.06-2,2.82-1.38,5.85-2.89,9-4.54,1.52-.83,3.24-1.59,5-2.34s3.37-1.59,5.16-2.41c3.51-1.58,7.09-3.44,10.87-4.89s7.51-3.1,11.22-4.75c3.86-1.44,7.71-2.82,11.43-4.26s7.5-2.62,11.08-3.86,7.09-2.54,10.39-3.37,6.4-1.86,9.29-2.68c1.38-.49,2.75-.9,4.06-1.24s2.75-.69,4-1c1-.27,1.86-.48,2.69-.75a37.32,37.32,0,0,0,19,24.29c-1.51,1.31-3.16,2.62-4.88,4.13s-4.13,3.17-6.2,5-4.47,3.57-6.88,5.23-4.75,3.44-7.09,5.23c-2.55,1.65-5,3.37-7.43,5s-4.89,3.17-7.3,4.68l-3.51,2.27c-1.1.76-2.27,1.45-3.37,2.07-2.2,1.3-4.4,2.54-6.33,3.78-3.92,2.34-7.3,4.13-9.64,5.51s-3.71,2.06-3.71,2.06,1.51-.2,4.19-.69c1.31-.27,3-.55,4.82-.89,1-.14,1.93-.34,3-.55s2.14-.48,3.24-.76c2.27-.62,4.75-1.24,7.29-2s5.23-1.66,8-2.62a88.06,88.06,0,0,0,8.47-3.1c2.82-1.17,5.71-2.34,8.67-3.64,2.75-1.38,5.58-2.76,8.4-4.13s5.37-2.89,8-4.34,5-2.89,7.3-4.4,4.47-3,6.47-4.34c1-.69,2-1.38,2.82-2s1.37-1,2-1.51a15.79,15.79,0,0,1,2.55,7.85l.07,1a15.41,15.41,0,0,0,5,10.87,174.64,174.64,0,0,0-18.24,24.64,125.07,125.07,0,0,1-54.92,24.57C666,413.9,630.64,410.33,588.45,397.32Zm-17.89-91.4c-.07-1.51,2.13-4.4,4-6.74.55-.76,1.24-1.66,1.86-2.55.55-.14,1.1-.21,1.58-.34,2.89-.56,5.92-1.17,9-1.93s6.19-1.38,9.36-2.07a1.57,1.57,0,0,1,.55-.13,133.55,133.55,0,0,0-14.8,23.67c-1.37,2.89-2.68,5.92-3.92,8.81-.14.34-.28.62-.41,1a.59.59,0,0,0-.28-.13c.83-5.65-2.2-10.67-4.27-14.11C572.07,309.5,570.63,307.16,570.56,305.92Zm72.81-167c-3.78-6.54-8.39-14.73-6.46-20.1,1.72-4.82,8.94-8.05,16.51-10.74,16.66-6,33.86-12.25,51.28-13.56,2.27-.13,4.54-.27,6.81-.27,29.32,0,57.74,13.28,77.91,24.43-6.95,7.37-9.36,17.48-11.56,26.64-2.48,10.46-4.27,16.93-8.88,18.17-1.65.55-4.13.41-6.75.34-4.61-.14-10.53-.21-16,2.68-.9-.55-1.86-1-2.89-1.65-1.52-.82-3.17-1.79-5-2.68s-3.44-2.07-5.37-3c-3.71-2.06-7.7-4.13-11.83-6.13-4.06-2.2-8.19-4.26-12.19-6.12-1-.48-2-1-2.89-1.38a28.58,28.58,0,0,1-2.89-1.3c-1.79-.9-3.51-1.73-5.16-2.41-3.23-1.52-6.06-2.62-8-3.38-1.72-.68-2.82-1-3.1-1.1a20,20,0,0,0,1.86,2.76c1.17,1.72,3,4.19,5.3,6.95,1.17,1.44,2.41,3,3.72,4.47s2.89,3.1,4.47,4.75c3.1,3.17,6.61,6.4,10.18,9.63s7.44,6.06,11.09,8.75c1.79,1.3,3.64,2.68,5.3,3.71s3.23,2.14,4.74,3c.76.48,1.38.89,2.07,1.31a35.36,35.36,0,0,0,.76,12.45c.34,1.38.68,2.83,1,4.2,1,3.79,2,7.44,1.44,10a2.82,2.82,0,0,1-1.1,1.38,19.38,19.38,0,0,0-14.79,11.22,20,20,0,0,0,1.17,19.2,28.35,28.35,0,0,0,3.57,4.47,126.88,126.88,0,0,0-23.88-3.09c-9-9.36-17.48-21.06-25.53-35.38-6-10.6-11.49-22-16.72-32.83C655.83,162.56,650.05,150.45,643.37,138.89ZM632.3,225.6c12,0,23,4.75,28.9,12.6a30.23,30.23,0,0,1,4.47,8.33c-2.06.48-4.12,1.1-6.19,1.72a129.25,129.25,0,0,0-46.59,27h-.28c-6,.34-12.39,1-18.79,1.37-3.16.28-6.4.62-9.49.9-1.66.2-3.24.34-4.89.55-2.89-5.85-8.88-8.4-13.35-10.26l-1.24-.55c0-.2.07-.48.14-1s.48-.83.68-1.24c1.24-2.13,3.65-6.33,3.79-10.94a207.7,207.7,0,0,1,20-13.42c10.39-6.2,24.22-13.56,38.81-14.87C629.61,225.74,630.92,225.6,632.3,225.6ZM516.19,122.71A51.78,51.78,0,0,1,543,115.62a63.85,63.85,0,0,1,18.51,2.83c14.39,4.54,28.36,14.17,40.4,27.94,8.88,10.11,14,19.54,15.69,28.7,2.07,11.08-.82,23.67-7.84,35.58-11.49,3.58-21.75,9.08-29.94,14a238.38,238.38,0,0,0-23.74,16.1h-.49a11.72,11.72,0,0,1,.21-4.19c.76-3.72,3.17-14.94-5.5-20.65a13,13,0,0,0-6.27-2.07c2-4.33,4.06-8.87,6.13-13.35,2.48-5.85,5-11.56,7.29-17,1.1-2.75,2.07-5.37,3-7.91s1.72-5,2.41-7.3,1.31-4.4,1.93-6.26c.41-1.93.89-3.58,1.24-5,.62-2.75.82-4.4.82-4.4s-1.24,1.1-3.16,3.17c-1,1-2.14,2.34-3.44,3.78s-2.76,3.1-4.2,5-3.1,3.86-4.68,6.06-3.31,4.47-5,6.95c-3.37,4.89-6.67,10.19-10.12,15.42s-6.67,10.6-9.63,15.62c-2.75,4.54-5.16,8.88-7.36,12.73-.83-1.1-1.59-2.27-2.21-3.23l-.69-1.1c-2.82-4.2-8-9-14.1-10.19a14.21,14.21,0,0,0-7.23.62,215,215,0,0,0-7.5-21.33,136.52,136.52,0,0,1,.82-14C491.14,150.17,501.53,131.73,516.19,122.71Zm-30.9-12c6.12-2.75,13-3,19.13-2.41-15.21,10-26.36,26.77-31.66,47.21a102.89,102.89,0,0,0-9.22-13.69C466.43,129,473.17,115.9,485.29,110.67ZM355.62,191.81c1.72-11.35,8.68-20.58,14.18-26.36,7.92-8.12,17.62-14.45,27.05-20,6.74-4,13.9-8,21-8.67,8.26-.75,17.41,2.82,25.12,10,7.92,7.3,13.42,17.14,18.31,26.57,8.67,17.27,14.8,33.24,18.37,48.38a24.39,24.39,0,0,1-4.19-2.13c-11.84-7.09-22.3-7.09-28,.07l-5.57-5.17c-4.2-3.44-8.19-6.88-12.11-10-1.93-1.58-3.79-3.23-5.65-4.61s-3.51-2.61-5.09-3.78-3.23-2.2-4.54-3.1-2.75-1.51-3.79-2.06a23.39,23.39,0,0,0-3.51-1.52,26.42,26.42,0,0,0,1.79,3.44,29.55,29.55,0,0,0,2.27,3.58c1,1.31,2.07,2.82,3.31,4.34s2.68,3.1,4.13,4.82,3,3.57,4.47,5.5c3.1,3.79,6.4,7.85,9.7,11.91l9.29,12.11c1,1.24,1.93,2.48,2.83,3.65a8.4,8.4,0,0,1,0,1.93c-1,.68-5.1.55-7.37.41-4.95-.21-11.42-.41-16.31,3.16a237.56,237.56,0,0,0-37.65-12.11c-4.67-1-9.77-2.06-15-2.75C358.72,218,353.83,204.13,355.62,191.81Zm-42.8,58.5c-6.34,10.39-7,22.58-7,32.07,0,1.1.07,2.21.14,3.38-47.62-6.54-93.73-24-132.76-51.42,38.54-13.69,84.1-15.62,130.22-5.3q12.29,2.79,24.7,6.68A42.19,42.19,0,0,0,312.82,250.31ZM235.46,450.66c19.61-32.42,53.89-56.3,82.24-76,4.89-3.45,9.91-6.89,15-10.26A49.39,49.39,0,0,0,336.9,368a35.68,35.68,0,0,0-1.44,6.06c-1.65,11.15,2.41,21.26,7.71,29.52A280.38,280.38,0,0,1,235.46,450.66Zm147.69-64a64.72,64.72,0,0,0-4.26,29.66c-3.31-3-6.4-6.4-9.5-9.77-8.33-9-17-19.61-15.56-29.73a1,1,0,0,0,.07-.48,37.93,37.93,0,0,0,3.86.82,45.39,45.39,0,0,0,6.81.55c9.22,0,18-2.82,25.88-6.26A104,104,0,0,0,383.15,386.65Zm5.78-35c-8.74,4.34-19,8.6-28.35,7.16-7.3-1.17-14.59-6-20-13.35-4.68-6.34-8.26-14.53-11.08-25.81a156.53,156.53,0,0,1-5-37.44c-.07-7,.34-15.76,4.19-22.16s11.7-10.95,21.06-12.32a50.48,50.48,0,0,1,7.3-.49c7.64,0,15.42,1.52,22.3,3.1a212.08,212.08,0,0,1,37.44,12.32,58.33,58.33,0,0,0,2.61,5.71c1.24,2.48,2.89,5.92,2.55,7.23-.34,1-2.82,2.75-4.61,3.92l-1.45,1a23.43,23.43,0,0,0-7.22,7.64c-.69.13-1.38.2-2.07.27a89.69,89.69,0,0,0-9.36,1.45l-9.49,1.85c-3.17.9-6.34,1.72-9.43,2.55s-6.06,1.86-8.95,2.82-5.58,2-8.12,3.24-5,2.34-7.09,3.44a62,62,0,0,0-5.78,3.3c-1.72,1.1-3.17,2-4.34,2.82-2.34,1.66-3.65,2.69-3.65,2.69s1.73,0,4.55-.28c1.44-.07,3.09-.27,5-.48,1-.14,2-.27,3.1-.41s2.2-.21,3.37-.28c2.34-.34,4.89-.55,7.57-1,1.31-.21,2.68-.35,4-.48s2.82-.35,4.27-.48c2.89-.42,5.85-.9,8.88-1.11s6-.62,9-1l9.09-.62c3-.21,5.92-.21,8.81-.34,1.24-.07,2.48-.07,3.71-.14a35.06,35.06,0,0,0,7.09,4.4c1.79.9,4.27,2.14,4.75,3,.69,1.17-1.44,5.44-2.68,7.92a25.16,25.16,0,0,0-3,11.9c-.83,1-1.65,2-2.48,3A222.94,222.94,0,0,1,388.93,351.62Zm55,105.51c-9.77-4.34-19.88-8.74-28.42-15-6.13-4.47-14-11.9-17-22-2.89-9.91-.48-20.1,2.07-26.91,3.71-9.77,9.91-19,15.48-26.84,4.34-6.13,8.95-12.46,14-18.65a28.75,28.75,0,0,0,8.4,0c2.06-.21,4.13-.42,5.16-.07,2.13.75,3.65,5.85,4.47,8.6a30.2,30.2,0,0,0,6.68,12.46c0,.07,0,.07-.07.14-.83,2.95-1.65,6.05-2.55,9.08s-1.72,6.12-2.54,9.15-1.59,6-2.34,8.88-1.45,5.71-2,8.4-1.1,5.23-1.51,7.64c-.9,4.75-1.38,8.74-1.72,11.56s-.35,4.54-.35,4.54,1-1.31,2.62-3.71,3.71-5.79,6.12-10c1.24-2.14,2.41-4.41,3.65-6.82s2.55-5.09,3.85-7.77,2.55-5.51,3.86-8.33,2.68-5.71,4-8.6,2.55-5.85,3.79-8.75a3.21,3.21,0,0,0,.34-.82,29.58,29.58,0,0,0,8-3.3c1.93-1,3.93-2.14,5-2,1.58.14,4,2.68,6.12,4.95,3.72,3.93,8.68,9.3,16.25,9.3h.82c.21,0,.35-.07.55-.07a298.92,298.92,0,0,1-2.54,32.07c-1.38,10.46-3.24,22.37-8.4,32.28-5,9.49-12.8,16.17-21,17.75C465.47,466.07,455.28,462.08,443.92,457.13Zm41.71,23.19C496.44,476.05,506,467,512.2,455.13a85.88,85.88,0,0,0,6.67-18,80,80,0,0,0,6.2,12.11c11.49,18.44,30.9,29.66,49.69,29.66a47.42,47.42,0,0,0,9.91-1,53.84,53.84,0,0,0,19.75-9.29c-1.72,3.85-3.44,7.78-4.95,11.7Zm134,0A220.78,220.78,0,0,1,644,437.37c2.21-3,4.41-5.78,6.68-8.6,5.58.41,11.15.69,16.52.69a182.18,182.18,0,0,0,33-2.89,151.61,151.61,0,0,0,26.43-7.5c-3.3,6.81-7,13.49-10.87,20a292,292,0,0,1-30.63,41.29Zm89.54,0a268.36,268.36,0,0,0,16.72-22.71,192.63,192.63,0,0,0-1.58,22.71Zm33.79,0a174.15,174.15,0,0,1,6.27-44.53,160.05,160.05,0,0,1,39-69.24,17.37,17.37,0,0,1,3.3,3.45c.9,1.23,1.79,2.47,2.62,3.71,5.5,8.12,12.25,18.1,24.7,19.55a22.33,22.33,0,0,0,4.68.07c-.13.55-.34,1-.48,1.51-.89,2.75-1.85,5.78-2.82,9s-2.34,6.4-3.51,9.84c-2.41,6.74-4.88,14-7.43,21.26-1.45,3.58-2.82,7.23-4.27,10.74s-2.75,7.09-4,10.53c-.69,1.65-1.38,3.37-2,5s-1.17,3.3-1.85,4.81q-2.07,4.55-3.72,8.67c-.83,2-1.58,3.86-2.27,5.58Zm52.79,0c.69-1,1.45-2,2.2-3.1l5.58-7.84c2-2.76,3.71-5.85,5.71-9s3.85-6.47,5.85-9.84,4.06-6.75,6-10.19c3.65-7,7.22-14.17,10.53-20.92.82-1.72,1.58-3.37,2.41-5a37.32,37.32,0,0,0,2.13-4.75c1.31-3.1,2.48-6.06,3.58-8.74,2.2-5.44,3.92-10,5.23-13.15,3.51.35,7.43,3.72,11.56,7.3,5.92,5.16,13.28,11.49,23.4,11.9H881c9.16,0,16-4.81,21.48-10.25,1.85,27.39-8.61,55.88-23.61,76.94-1.65,2.27-3.3,4.48-5.09,6.68Zm101.1,0A149.54,149.54,0,0,0,915.37,441a278.52,278.52,0,0,0,39.29,39.3Zm89,0a258.17,258.17,0,0,1-62.9-59.81c-.83-1-1.66-2.2-2.48-3.37a113,113,0,0,0-1.52-37,5.24,5.24,0,0,0,.69-.41c5.37-2.89,12.8-2.48,20.72-2.14,1.93.14,3.92.21,6,.28.27.55.62,1.1.89,1.79,1,1.86,2.27,4.2,3.79,6.81.75,1.31,1.58,2.69,2.4,4.13,1,1.52,2,3,3.1,4.61,2.14,3.24,4.61,6.68,7.23,10.26,1.24,1.86,2.68,3.58,4.13,5.37s3,3.51,4.47,5.36a145,145,0,0,0,9.91,10.95c3.51,3.51,7.09,7.16,10.74,10.67,3.85,3.37,7.71,6.6,11.56,9.84,1.93,1.51,3.79,3.23,5.85,4.61s4,2.82,6,4.13a132,132,0,0,0,11.42,7.5c3.79,2.13,7.44,4.13,10.81,5.92,1.72.82,3.3,1.65,4.82,2.48s3.16,1.3,4.61,1.85c2.89,1.24,5.37,2.21,7.43,2.89,3.65,1.38,5.92,2.14,6.4,2.28a65,65,0,0,0-4.75-5c-1.51-1.51-3.37-3.37-5.64-5.37-1.1-1-2.2-2.2-3.44-3.3s-2.41-2.48-3.72-3.86c-2.61-2.61-5.44-5.43-8.4-8.32-1.51-1.38-3-3-4.47-4.61s-3-3.17-4.61-4.82c-3.1-3.31-6.47-6.54-9.5-10.19s-6.4-7.09-9.63-10.53c-3.1-3.71-6.2-7.29-9.23-10.94-3.16-3.44-5.91-7.16-8.81-10.6-2.68-3.51-5.64-6.81-8.05-10s-4.68-6.26-6.88-9c-1.17-1.38-2.2-2.69-3.23-3.93s-1.93-2.68-2.83-3.92a3.24,3.24,0,0,0-.48-.62,30.67,30.67,0,0,0,4.82-2.68c7-4.75,10.94-11.29,13.42-18.31a18.17,18.17,0,0,1,2.27,1.24c1,.62,2.13,1.24,3.24,1.92,2.27,1.38,4.75,2.9,7.36,4.41s5.37,3.58,8.26,5.37,5.85,3.78,8.74,5.92,6,4.26,8.95,6.33c3,2.27,5.85,4.54,8.74,6.74s5.64,4.48,8.33,6.75,5.36,4.26,7.7,6.47,4.61,4.13,6.75,6,4.06,3.58,5.64,5.24,3.1,3,4.27,4.12c2.06,2,3.37,3.24,3.71,3.51-.13-.34-1-1.92-2.47-4.47-.83-1.44-1.86-3.16-3-5.16-.62-1-1.24-2.13-1.93-3.24s-1.44-2.2-2.27-3.37c-1.65-2.34-3.44-4.88-5.3-7.57s-4.2-5.37-6.47-8.12-4.54-5.71-7.16-8.4-5.16-5.64-7.84-8.46c-2.75-2.62-5.58-5.23-8.33-7.85s-5.64-5-8.4-7.36-5.43-4.61-8.12-6.61-5.43-3.85-7.84-5.57c-1.24-.83-2.41-1.65-3.51-2.41s-2.14-1.31-3.17-1.93c-1.44-.82-2.68-1.58-3.85-2.27,1.1-6.33,2.2-12.39,4.4-17.27.69-1.45,1.52-2.9,2.34-4.27,18.72,4.4,37.65,14,56.37,28.56,40.74,31.8,64.35,77.29,61.53,118.72a79,79,0,0,1-4,20Z"/><path fill="FRAME_COLOR" d="M459,292.31c2.28,4.51-6.1,10.17-2.75,13.95,2.79,3.13,9.4-1.26,10.93,5.14a6.19,6.19,0,0,1-1.58,5.52c-2.34,2.64-4.09,9.24-.16,10.47,3.27,1,6.76-3.46,9.75-1.8,3.86,2.14-.94,9.32,3.73,12a5.41,5.41,0,0,0,5.47-.33c4.57-2.84,5.06-8.87,9.44-12a5.92,5.92,0,0,1,4.15-1.13c3.51.48,4.26,3.91,6.08,6.28a9,9,0,0,0,11.75,1.92,8.66,8.66,0,0,0,3.51-5.23,7.2,7.2,0,0,1,6.54-5.44,10.21,10.21,0,0,0,4.29-1.17,6.45,6.45,0,0,0,3.47-5.05c.28-3.48-2.69-4.85-4.33-7.14-1.24-1.73-1.2-4.82.86-5.3,4.84,2.1,12-2.78,7.68-9.79a5.1,5.1,0,0,0-1.6-1.7c-2.52-1.59-6.55-2-7-4.94-.68-4.54,8.72-6.48,6.4-11a4.67,4.67,0,0,0-5.39-2.15c-5.84,1.53-8.32-3.32-9.82-7.55-1.14-3.2-2.45-6.8-5.54-8.21-2.51-1.15-6,.88-6.26,3.21a3.38,3.38,0,0,1-4.09,2.95,8.74,8.74,0,0,1-3.67-1.94c-2.75-2.48-5-6.11-9.24-5.52a6.9,6.9,0,0,0-4.29,2.53,11.87,11.87,0,0,0-2.36,5.34,4.16,4.16,0,0,1-5.52,3,8.6,8.6,0,0,0-4.91-.43,6.14,6.14,0,0,0-4.42,4.89,3,3,0,0,1-3.46,2.52c-3.83-.59-7.69-.66-11.09,1-4.74,2.38-7,9.84-2.76,13C454.81,289.77,457.85,290.08,459,292.31Z"/><path fill="FRAME_COLOR" d="M813.72,271.49l.75,1.45.7,1.07.67,1.08.37.54,0,.08.29.37.08.12.25.29c.66.75,1.32,1.54,2,2.28a26.1,26.1,0,0,0,2,2.19c1.28,1.29,2.82,2.73,3.64,3.69.54.49,1,1,1.53,1.53.58.74,1.16,1.45,1.79,2.19l.74.91,0,.08v.05l.08.08.25.45.5.87.45.95a56.33,56.33,0,0,1,3.15,9.56,87.45,87.45,0,0,0,4,12.58,36.69,36.69,0,0,0,3.93,7c.54.7,1.08,1.36,1.66,2l.87,1,.53.58,1.16,1.07.5.42.12.08.21.2.46.34.91.7A30.33,30.33,0,0,0,864,332.65a52.85,52.85,0,0,0,15.27-2c2.36-.66,4.56-1.36,6.79-2.19l1.7-.66,1.45-.58,1-.42.7-.33,1.45-.62c3.89-1.69,7.66-3.51,11.46-5.25s7.53-3.48,11.22-5.26L918,313.9l2.77-1.36c1.82-.87,3.72-2,5.58-3.06s3.89-2.36,5.8-3.6a37.25,37.25,0,0,0,4.88-3.77,40.37,40.37,0,0,0,8.94-10,41.36,41.36,0,0,0,2.94-5.88,28.37,28.37,0,0,0,1.07-3.1l.46-1.58.29-1.78a18.63,18.63,0,0,0,.37-3.22v-2.2c0-.41,0-.49,0-.49l0-.09v-.2c-.12-1-.25-2-.33-3s-.46-1.91-.66-2.82a46.06,46.06,0,0,0-3.77-9.35c-1.32-2.57-2.61-5-3.85-7.28a33.2,33.2,0,0,1-3.93-11.71,16.27,16.27,0,0,1,.87-8,14.58,14.58,0,0,1,1-2c.21-.33.34-.54.38-.62a11.09,11.09,0,0,0-2.28,2.07,17.56,17.56,0,0,0-3.68,8.4,34.3,34.3,0,0,0,.95,14.36c1.28,5.17,3.35,10.8,3.77,16.06,0,.66.08,1.32.08,1.94s-.08,1.12-.13,1.7l0,.29v.12l-.12.5-.21,1.24a5.71,5.71,0,0,1-.58,1.78l-.25.74-.45.87a12.48,12.48,0,0,1-.91,1.78,29.69,29.69,0,0,1-2.4,3.4,27.81,27.81,0,0,1-6.75,5.83,41,41,0,0,1-4.59,2.86c-1.49.7-2.65,1.4-4.47,2.19s-3.31,1.49-5.17,2.23l-2.73,1.16-2.65,1.08c-3.81,1.49-7.66,3.06-11.46,4.67-1.29.54-2.57,1-3.81,1.58a86.88,86.88,0,0,1,.62-42.13c.62-2.44,1.36-5.09.29-7.45s-5-3.76-6.7-1.82c1.77-3.14,3.55-6.37,4-9.93a10.27,10.27,0,0,0-4.06-9.73c-4.55-3-11.25-1.19-14.69,2.61s-4.38,9-4.92,14c-2.86-.46-5.88-.87-8.61,0s-4.92,3.39-4.18,5.92c.87,3.1,5.09,4.17,8.4,5.33,11.47,4.1,18,15.81,18.62,26.86.38,7.74-1.61,15.23-4.26,22.55-1,.33-2.07.67-3.06.91a33,33,0,0,1-9.77,1.49,16,16,0,0,1-3.93-.49,9.79,9.79,0,0,1-3.06-1.33l-.37-.2-.17-.13-.08,0,0,0-.83-.71-.58-.53-.12-.21-.38-.37a21.52,21.52,0,0,1-2.27-3.56,92.6,92.6,0,0,1-4-10.22,62.58,62.58,0,0,0-5.5-12.13l-.95-1.49-1.12-1.49-.58-.7-.12-.21-.5-.58-.25-.24-1-1c-.66-.66-1.33-1.32-2-1.94-.82-.75-1.73-1.41-2.56-2.11-1.87-1.49-3.11-2.36-4.47-3.4a13.8,13.8,0,0,1-1.78-1.44c-.58-.46-1.12-.92-1.66-1.37l-.2-.17-.09,0,0,0-.29-.33-.87-.95-.82-.91-.5-.71a25.2,25.2,0,0,1-2-3.14,39.61,39.61,0,0,1-3.81-14.86,96.4,96.4,0,0,1,0-13c.2-3.68.45-6.62.66-8.61s.29-3.06.29-3.06-.46,1-1.33,2.81-2.07,4.51-3.31,8.11a73.07,73.07,0,0,0-3.51,13.45,49.1,49.1,0,0,0-.67,8.86,43,43,0,0,0,1.58,10.3A36.4,36.4,0,0,0,813.72,271.49Z"/><path fill="FRAME_COLOR" d="M2.9,899.93H495.2c-11.36,4.13-21.48,13.42-27.88,25.74a78,78,0,0,0-6.67,18,91.89,91.89,0,0,0-6.2-12.18c-11.49-18.37-30.9-29.66-49.69-29.66a43.2,43.2,0,0,0-9.91,1.1c-18.1,4.13-30.62,17.83-42,31.52-2.13,2.55-4.27,5.23-6.4,8a339.43,339.43,0,0,0-145.42-37.17l-21.55-.48,14.39,16c37,41,85.48,70.81,138.2,86.3a74.55,74.55,0,0,0,7.43,12.94c-18.79,2.06-35,11.7-43.64,25.81a44.33,44.33,0,0,0-6.6,15,43.07,43.07,0,0,0-.83,13l.62,14.25-.76.27-17.2,7.57-.14.07c-55.27,25.4-97.52,58.84-125.67,99.38l-8.54,12.39,14.87,2.13A275.21,275.21,0,0,0,318.05,1181c5.16-2.76,10.25-5.72,15.27-8.81a63.38,63.38,0,0,0,14,1.51c-4.47,11.91-5.91,24.09-3.78,35.31,2.34,12.59,8.88,24.91,20,37.64a125.44,125.44,0,0,0,23.19,20.79,98.31,98.31,0,0,0,25.74,12.66,79.26,79.26,0,0,0,32.21,3.17,98.2,98.2,0,0,0,17.55,5.92c15,3.58,28.29,3,39.51-2,13.28-5.85,23.67-17.89,29.45-33.72a53.29,53.29,0,0,0,18.86,8.26c-14.8,25.32-27.19,54.92-38,90.71l-5.71,18.85,18.17-7.57c44.11-18.23,82.79-50,110.66-89.26v.21c7.37,40.67,34.42,78.32,72.34,100.68l8.19,4.89,4.68-8.33c10.25-18.24,31.79-28.42,52.58-38.19l3.85-1.86c23.33-11,51.07-27.39,59.12-55.89.48-1.79.9-3.64,1.24-5.43H839c3.17,2,6.33,3.92,9.57,5.71,23.81,13.35,59.94,30.83,98,28.08,20-1.52,38.4-8.19,56.3-14.59,8-2.89,22.78-8.19,27.73-22,4.82-13.48-2.47-26.22-7.84-35.58-6.33-11-12-22.85-17.55-34.27-5.09-10.46-10.33-21.2-16.11-31.66a58.93,58.93,0,0,0,28.77,7c-4.54,11.91-5.92,24.09-3.85,35.38,2.34,12.59,8.88,24.84,20,37.57,14.31,16.38,31.24,28,48.86,33.45a79.72,79.72,0,0,0,32.28,3.17,100.36,100.36,0,0,0,17.55,6c15,3.51,28.29,2.89,39.44-2,13.42-5.92,23.67-18,29.45-33.79,10.12,6.88,21.47,10.11,32.28,9.08,11-1,20.65-6.33,28.84-11.22,10.46-6.26,21.47-13.42,30.83-23.12,10.67-11,17.27-23.61,19.2-36.55a51.64,51.64,0,0,0,.62-8,63.14,63.14,0,0,0-4.68-23.26,339.34,339.34,0,0,0,33.79,9.5c56.16,12.59,111.91,8.19,157-12.6l13.76-6.33-11.9-9.36c-45.29-36-101.17-58.36-158.85-65.59a13.22,13.22,0,0,1-.27-1.65l-6.61-28a90,90,0,0,0-6.81-15.35c4.82-3.1,9.5-6.4,14.17-9.64,34.69-24.08,77.84-54.16,96.77-99.86l6.13-14.8-15.9,2.07c-48.52,6.26-95.12,25.26-134.76,53.82-.27-.28-.62-.69-.89-1-5.58-6.13-11.91-13.08-19.89-18.31a49.59,49.59,0,0,0-15.21-6.75,74.71,74.71,0,0,0-13.63-12.94c-10.25-7.5-21.82-12.59-32-17.06a153.58,153.58,0,0,0-15.76-6.13H1647.1a14.56,14.56,0,0,0,2.89-8.19,15,15,0,0,0-2.89-9.36H2.9A15,15,0,0,0,0,891.74,14.56,14.56,0,0,0,2.9,899.93Zm325,86.38A283.15,283.15,0,0,1,224.51,925.4,322.8,322.8,0,0,1,336.08,958C331.33,966.69,328,976.12,327.89,986.31Zm203.16,2.75a178.29,178.29,0,0,0,24.37,36.34c-1.93,2.61-3.93,5.09-6,7.64a26.55,26.55,0,0,0-8.47.07c-2,.2-4.06.41-5.09,0-2.13-.76-3.65-5.86-4.47-8.54-1.65-5.44-3.86-9.57-6.68-12.46V1012c.9-3,1.79-6.06,2.62-9.09s1.65-6.19,2.48-9.22C530.23,992.16,530.64,990.57,531.05,989.06Zm-55.6-22.58c1.37-10.39,3.23-22.36,8.39-32.27,4.89-9.5,12.8-16.11,21-17.69a30.66,30.66,0,0,1,11.43.27c-.07.55-.14,1.17-.21,1.79-1.24,18.65,1.86,37.58,8.67,55.89-1,2.06-2.13,4.26-3.16,6.47-1.24,2.75-2.55,5.5-3.86,8.32s-2.68,5.79-3.92,8.68-2.61,5.78-3.85,8.67l-.42.82a32.71,32.71,0,0,0-7.91,3.38c-1.93,1-3.92,2.13-5,2-1.58-.14-4-2.68-6.12-4.95-3.72-3.93-8.74-9.29-16.25-9.29h-.89c-.14,0-.27.06-.48.06A284.21,284.21,0,0,1,475.45,966.48Zm-20.24,62.84c7.5-1.1,11.56-7,14.52-11.36,1.45-2.06,3.38-4.88,4.48-5,1.3-.14,3.85,2.68,5.71,4.75,3.72,4,8.4,8.94,15.62,9.49h1.24c4.75,0,8.53-2.06,11.7-3.71,1.86-1,3.92-2.2,4.89-2,.75.14,2.54,1.79,4.13,7.16s4.47,14.8,13.35,18c4.27,1.52,8.39,1.1,11.7.76a18,18,0,0,1,4.54-.21c.21.76-.07,3-1.51,5.78-2.27,4.55-5.51,11-3.86,17.62a196.48,196.48,0,0,0-21,18,.79.79,0,0,1-.21-.27c-2.27-4.47,6.13-10.12,2.76-14-2.76-3.1-9.43,1.31-10.95-5.1a6.24,6.24,0,0,1,1.59-5.5c2.34-2.69,4.06-9.22.14-10.46-3.24-1-6.75,3.44-9.71,1.79-3.85-2.14.9-9.36-3.78-12a5.34,5.34,0,0,0-5.44.35c-4.54,2.82-5,8.81-9.43,11.9a5.67,5.67,0,0,1-4.13,1.17c-3.51-.48-4.27-3.92-6.12-6.26a8.94,8.94,0,0,0-11.71-1.93,8.53,8.53,0,0,0-3.51,5.23,7.26,7.26,0,0,1-6.53,5.44,9.72,9.72,0,0,0-4.34,1.17,6.44,6.44,0,0,0-3.44,5.09c-.28,3.44,2.68,4.82,4.34,7.09,1.23,1.72,1.17,4.82-.9,5.3-4.82-2.13-12,2.75-7.64,9.77a4.76,4.76,0,0,0,1.58,1.72c2.55,1.59,6.54,2,7,5,.62,4.54-8.74,6.47-6.4,11a4.62,4.62,0,0,0,5.37,2.14c5.85-1.52,8.33,3.37,9.78,7.57,1.16,3.16,2.47,6.81,5.57,8.19,2.55,1.17,6.06-.9,6.26-3.17a3.36,3.36,0,0,1,4.06-3,8.36,8.36,0,0,1,3.72,1.93c2.75,2.48,5,6.12,9.22,5.5a6.66,6.66,0,0,0,4.27-2.47,11.83,11.83,0,0,0,2.41-5.37,4.1,4.1,0,0,1,5.09-3.17,176.35,176.35,0,0,0-19.41,34.21,103.56,103.56,0,0,0-3.58,9.77,6.75,6.75,0,0,1-1.51-1.86l-.76-1c-3.3-5-8.39-12.73-17.34-13.08-7.3-.27-12.11,4.41-15.69,7.85l-.9.89a9.91,9.91,0,0,1-3.23,2.07,18.89,18.89,0,0,1,.62-5.16c2.06-9.91-1.17-18-8.4-20.72a17.25,17.25,0,0,0-4.47-.89,19.71,19.71,0,0,1,1.37-2.48,19.11,19.11,0,0,0,2.27-5.16c2.41-11.36-4.12-16-8.32-17.76l-1.38-.55c-2.13-.9-5.57-2.34-6.06-3.51-.06-1,2.28-3.92,3.51-5.58,3.31-4.26,7.44-9.56,7-16.58-.28-4.82-2.69-8.81-4.68-12a35.54,35.54,0,0,1-2.21-4.13,33.19,33.19,0,0,1,3.79-1.17c3.23-.89,7.29-2,10.53-4.88,6.26-5.51,6.06-13.56,5.85-19.48v-1c-.07-3.65.76-5.72,1.17-6,.69-.21,3.23.82,4.75,1.44C446,1028.22,450.26,1030,455.21,1029.32Zm-88-83.07c9.29-11.22,19.4-22.44,31.79-25.19,15.56-3.51,31.73,7.57,39.64,20.3,9.64,15.42,11.84,35,12.67,52.17.27,6.2.41,12.46.41,18.65v2.55c-1-.28-2.41-.83-3.65-1.31-3.71-1.51-8.81-3.72-14.45-2l-.62.2c-1.1-1.31-2.2-2.54-3.3-3.85-3.86-5-7.85-9.78-11.63-14.46-1.79-2.27-3.72-4.47-5.37-6.6s-3.31-4.13-4.89-5.92c-3.1-3.65-5.92-6.61-8-8.6-1.86-1.79-3.1-2.83-3.37-3a41.4,41.4,0,0,0,1.1,4.33c.82,2.76,2.06,6.68,3.85,11.22.9,2.27,1.93,4.68,3,7.23a26.92,26.92,0,0,0,1.93,3.78c.68,1.31,1.44,2.62,2.2,3.93,3,5.3,6.06,10.94,9.36,16.51,1.65,2.62,3.37,5.17,5,7.71a30.88,30.88,0,0,0-.82,7.85l.07,1c.06,2.82.2,7.16-1,8.19a11.89,11.89,0,0,1-3.65,1.45c-5.09-2.62-10.18-5.16-15.27-7.57-11.29-5.37-23.34-10.4-36-13.15-1.79-1.51-3.44-3.16-5.09-4.82-6.2-6.33-13.77-16.31-14.66-27.39C345.37,974.12,356.59,959.12,367.19,946.25Zm-57.88,218.31A256.67,256.67,0,0,1,190,1194c-6.53,0-13.21-.27-19.75-.75,26.16-32.42,63-59.6,109.85-81,3.57-1.58,7.22-3.16,10.87-4.75A10,10,0,0,0,291,1109c1.1,14.73,2.34,31.52,12.39,44.87a49.09,49.09,0,0,0,9.08,9C311.44,1163.39,310.34,1164,309.31,1164.56Zm37.92-9.43c-12,0-23.06-4.75-29-12.53-6.74-8.94-7.71-21.61-8.67-35-.21-2.41-.34-4.82-.62-7.22s-.41-4.82-.69-7.3c-1.31-12.73-2.61-24.71,1.86-34.55,6.2-13.76,22.71-20.1,36.34-20.3h1c16.11,0,32.07,6.4,46.87,13.35,2.55,1.24,5.09,2.48,7.64,3.78-.89,5.65,2.13,10.6,4.34,14.11,1.1,1.86,2.47,4.13,2.61,5.37.07,1.58-2.2,4.48-4,6.75-.62.82-1.24,1.65-1.93,2.61-.48.07-1,.21-1.51.28-3,.62-6,1.24-9,1.92s-6.19,1.38-9.36,2.14c-6.19,1.58-12.45,3-18.3,4.54s-11.15,3.37-15.76,5-8.4,3.17-11,4.34-4.19,2-4.19,2,1.72.34,4.61.62,6.95.61,11.83.68,10.53.14,16.59-.2,12.32-.9,18.79-1.31c3.17-.34,6.33-.62,9.5-1,1.65-.14,3.23-.28,4.81-.49,3,5.85,8.95,8.4,13.36,10.19l1.3.55a7.17,7.17,0,0,1-.13,1c-.21.35-.49.9-.76,1.31-1.24,2.14-3.58,6.26-3.72,10.94a212.68,212.68,0,0,1-19.89,13.36c-10.46,6.26-24.29,13.62-38.95,14.86A38.23,38.23,0,0,1,347.23,1155.13ZM463.33,1258a51.24,51.24,0,0,1-26.91,7.16,61.57,61.57,0,0,1-18.44-2.89c-14.39-4.48-28.36-14.11-40.4-27.88-8.88-10.18-14-19.54-15.69-28.76-2.07-11.09.82-23.68,7.84-35.59,11.5-3.51,21.68-9,29.94-14a242.43,242.43,0,0,0,23.68-16.1h.55a11.4,11.4,0,0,1-.21,4.13c-.83,3.71-3.24,15,5.51,20.64a13.61,13.61,0,0,0,6.33,2.14c-2.14,4.33-4.13,8.88-6.2,13.35-2.47,5.78-5,11.49-7.29,16.93-1,2.75-2.13,5.44-3,8s-1.72,5-2.41,7.23-1.31,4.47-1.86,6.33-1,3.51-1.24,4.89c-.68,2.82-1,4.4-1,4.4s1.24-1.1,3.23-3.16c1-1,2.07-2.27,3.45-3.72,1.23-1.51,2.68-3.17,4.13-5s3.09-3.93,4.74-6.06,3.31-4.47,5-7c3.3-4.89,6.68-10.19,10.12-15.42,3.23-5.37,6.67-10.6,9.56-15.69,2.83-4.54,5.23-8.88,7.44-12.66.75,1.1,1.58,2.27,2.2,3.23l.69,1a25.6,25.6,0,0,0,11.15,9.36,33,33,0,0,0,5,18,35.63,35.63,0,0,0,12.39,11.63c-.14,2.06-.28,4.06-.55,6.06C488.38,1230.63,478,1249.07,463.33,1258Zm30.9,12.11a34.46,34.46,0,0,1-14.1,2.69,39.17,39.17,0,0,1-5-.28c15.14-10.11,26.22-26.77,31.66-47.21A104.63,104.63,0,0,0,516,1239C513.09,1251.76,506.28,1264.83,494.23,1270.13ZM536.56,1234c-5.92-5.44-10.53-12.32-14.52-19.41,26.15,8.33,50.38,12.6,73,12.87-4.06,2.82-8.26,5.44-12.39,7.92-6.74,4-13.9,8-21,8.67C553.42,1244.81,544.27,1241.16,536.56,1234Zm97,8.4c-22.5,40-56.71,73.78-97.18,95.18,10.47-30.21,22.3-55.4,36.27-76.88,7.23-2.27,13.77-5.91,19.62-9.36,10.46-6.26,21.47-13.42,30.83-23.12,1-1,1.86-2,2.75-3,2.28-.34,4.62-.76,6.89-1.24l3.71-.82A129.26,129.26,0,0,0,633.53,1242.4ZM629,1205.71c-34.21,7-72.68,2.28-117.55-14.52C505,1188.78,498,1185.82,495,1181c-3.51-5.44-2.68-14.25,2.41-26.09,18.31-42.67,55.33-76.74,98.76-93.32,14.94,10.11,30.08,17.48,45.22,21.88-.9,1.52-1.72,3-2.48,4.62a36,36,0,0,0-3.17,18.71,18.52,18.52,0,0,1-5,14.8l-.28.35a22.19,22.19,0,0,0-4.26,6.81c-2.62.34-6.33.76-10.88,1.44-2.2.35-4.61.76-7.15,1.17s-5.3,1.18-8.13,1.86-5.71,1.38-8.67,2.21-5.85,1.51-8.88,2.4c-5.78,2-11.49,4.13-16.86,6.06-2.61,1-5.23,1.93-7.64,3.1s-4.61,2.13-6.74,3.1C543,1154,537.73,1157,537.73,1157s6.19-.42,15.14-1.59c2.2-.34,4.61-.62,7.16-1s5.3-.55,8.05-.89c5.58-.55,11.5-1.24,17.35-2,3-.14,5.84-.48,8.67-.69s5.71-.48,8.39-.82l4-.42,3.93-.41c2.54-.14,5-.28,7.16-.55,3.51-.28,6.53-.62,8.94-1a25.3,25.3,0,0,0,5,7.5l.2.2a12.94,12.94,0,0,1,3.51,7.58,101.21,101.21,0,0,0,4.89,18.65c2.34,7,4.47,13.49,4.34,19.89A137.4,137.4,0,0,1,629,1205.71Zm-70.34-146.38a25.61,25.61,0,0,0,3-11.84c.83-1,1.65-1.93,2.48-3l5.92-3.85c2.89,2.68,5.92,5.36,9,8A178.68,178.68,0,0,0,558.65,1059.33ZM818.05,1271c-6.06,21.27-29.46,34.75-49.21,44.11l-3.85,1.79c-19.55,9.23-41.44,19.55-55.41,37.72-29.45-19.89-50.1-50.52-56-83.21a107.81,107.81,0,0,1-1-31.52c5.3,5.23,12.8,8.81,22.37,10.53,4,.76,8.67,4.47,14.1,8.88,7.16,5.71,16.25,12.87,28.84,16.79-.27,1.24-.55,2.48-.89,3.86-.42,1.65-.62,3.58-1,5.5-.62,3.72-1.3,7.78-2,11.84-.41,4-.83,8-1.17,11.77-.14,1.86-.48,3.65-.48,5.37s-.07,3.37-.14,4.81c-.21,5.92-.35,9.92-.35,9.92s1.31-3.72,3.24-9.37c.41-1.37,1-2.89,1.51-4.47s1.24-3.23,1.93-5c1.38-3.38,2.89-7,4.41-10.53,1.72-3.45,3.44-6.82,5-10,.83-1.59,1.45-3.1,2.34-4.54s1.65-2.9,2.41-4.2c.48-.76.89-1.45,1.31-2.14,9.36.42,20.16-1,33-5.3a20.05,20.05,0,0,1,3.93.76c3.85,1,9.08,2.27,14.72.28a41.2,41.2,0,0,0,9.78-5.72,28.16,28.16,0,0,1,4.47-3c4.82-2.28,11.7-.69,19.06,1.17C818.67,1268.34,818.32,1269.65,818.05,1271Zm27.18-20.65c-4.33,2.82-10.59,1.52-20.44-1-.41-.14-.82-.21-1.24-.35l-16-51.82-1.17,48.93a33,33,0,0,0-14.66,3,53,53,0,0,0-7.5,4.75,25.56,25.56,0,0,1-5,3.24,20,20,0,0,1-3.92-.76c-3.72-1-8.81-2.27-14.25-.41-32.69,10.94-46.87-.35-60.56-11.22-2-1.65-4.06-3.24-6.06-4.75L711,1198.49l-31,34.07a6.35,6.35,0,0,0-1.65-.42c-6.47-1.24-11-3.37-13.49-6.33-4.13-5-4.89-8.33-4.54-9.15,5.78-15.76,1.37-29.11-2.55-41a87.1,87.1,0,0,1-4.13-15.21,31,31,0,0,0-8.47-17.9l-.2-.2c-2.14-2.27-2.41-6-.62-8l.14-.13a37.42,37.42,0,0,0,9.77-29.46,17.65,17.65,0,0,1,1.51-8.81,70.74,70.74,0,0,1,7-10.94,80,80,0,0,0,9-14.52c3.3-7.3,4.68-15.15,6-22.65,1.79-10.53,3.37-19.68,9.7-24,5.09-3.51,12.53-3.16,21.27-2.75,9.63.48,20.58,1,30.42-4.34,6.74-3.64,11.83-9.43,16.31-14.52,5.78-6.61,9.63-10.53,13.83-10.46,3.58.14,7.64,3.65,12,7.36,5.92,5.17,13.28,11.57,23.33,12h1c5.64,0,10.53-1.93,14.8-3.58,3.23-1.24,6.33-2.41,8.46-2.13,4,.41,7.78,6,11.5,11.49,1,1.38,1.92,2.82,2.89,4.13,4.88,6.81,13.83,13.56,23.4,14.25a35.21,35.21,0,0,0,24.7,30.35,20.34,20.34,0,0,1,10.4,7.09c5.64,7.64,4.88,19.47-1.59,25.94a36.58,36.58,0,0,0-7,9.09c-10,18.85,4,30.14,11.5,36.2,1.44,1.1,2.82,2.2,4,3.3a7,7,0,0,1,1.44,1.72,1.61,1.61,0,0,1,0,1.52c-.27.48-.55.62-.68.62-7.78,1.17-14.73,7.77-16.45,15.76-1.59,7,.07,13.28,1.58,18.79.28,1.17.62,2.4.89,3.57,1,4.55.35,7.44-.27,7.92-.9.76-4.27.62-7,.55a38.8,38.8,0,0,0-12.32,1c-15.42,4.34-19.06,19.62-22,31.8C852,1239.16,850.05,1247.21,845.23,1250.31Zm368.62-176.12c2.69,4.55,7.16,6.82,10.81,8.61a32.7,32.7,0,0,1,4.06,2.27,11.06,11.06,0,0,1-2.89,2.82l-1.24.82c-3.65,2.48-8.74,5.85-10.46,12-1.93,6.74,1.1,12.8,3.51,17.69.89,1.79,2.34,4.81,2.41,5.92-1.11.62-5,.41-7.09.41-6.13-.28-14.52-.62-19.62,6.33-3.78,5.23-3,11.22-2.27,15.55.21,1.52.62,4,.35,4.89-1.11.21-4.68-.41-9.43-3.16-12-7.3-22.37-7.44-28.22-.28-2.48,3-3.24,6.19-3.85,8.88-.14.48-.28,1.24-.49,1.79a12.32,12.32,0,0,1-3.85-3.65l-.62-1c-3.37-5-8.4-12.67-17.41-13.08-7.3-.27-12.18,4.41-15.69,7.85l-1,.89a11.74,11.74,0,0,1-3.16,2.14,23.39,23.39,0,0,1,.62-5.24c2.13-10-1-18-8.33-20.71a17.34,17.34,0,0,0-4.54-.83c.41-.89,1-1.92,1.3-2.54a15.74,15.74,0,0,0,2.34-5.16c2.34-11.36-4.2-16-8.25-17.69l-1.45-.62c-2.06-.9-5.57-2.34-6.06-3.44-.07-1,2.27-4,3.58-5.65,3.31-4.26,7.37-9.49,7-16.58-.27-4.82-2.75-8.81-4.75-12-.68-1.24-1.78-3.1-2.2-4.13a33.19,33.19,0,0,1,3.79-1.17c3.3-.89,7.29-2,10.53-4.88,6.26-5.51,6-13.56,5.92-19.48l-.07-.9c-.07-3.71.82-5.71,1.1-6,.75-.21,3.3.82,4.82,1.51,3.44,1.38,7.77,3.17,12.66,2.48,7.57-1.1,11.56-7,14.59-11.29,1.38-2.06,3.3-5,4.34-5h.13c1.24,0,3.72,2.61,5.65,4.68,3.78,4,8.39,8.94,15.62,9.49a7.37,7.37,0,0,0,1.24.07c4.75,0,8.6-2.06,11.7-3.78,1.79-1,4-2.14,4.82-1.93s2.61,1.72,4.26,7.16,4.41,14.73,13.36,18c4.19,1.45,8.32,1,11.63.69,1.37-.14,3.85-.41,4.61-.14.14.69-.14,2.89-1.59,5.78C1213.3,1058,1209.17,1066.14,1213.85,1074.19Zm-122.16-33.86a11.18,11.18,0,0,1-3.65,1.45c-2.47-1.24-4.88-2.48-7.29-3.65a31.8,31.8,0,0,1,4.33-5.16c1.45-1.31,3.1-2.62,4.82-4.06,1-.69,1.93-1.52,3-2.34a25.44,25.44,0,0,0-.21,4.61v1C1092.79,1035,1092.86,1039.3,1091.69,1040.33Zm26.91-27.46c-3.72-1.44-8.67-3.58-14.25-2,3.17-10.59-.62-23.19-9.84-31.79-8-7.43-18-10.94-27.46-13.9a349,349,0,0,0-37.16-9.43c2.48-3.44,5.16-6.82,7.84-10,9.22-11.22,19.34-22.37,31.66-25.19,15.62-3.44,31.8,7.57,39.78,20.3,9.57,15.49,11.77,35.1,12.6,52.24.34,7,.48,14.11.48,21.2A27.16,27.16,0,0,1,1118.6,1012.87Zm-57-29.94c7.77,2.41,15.14,5,20.3,9.78,4.2,3.92,6.12,9.84,4.4,13.62-1.17,2.76-4.26,5.16-7.84,8-2,1.58-4.13,3.23-6.13,5.09-8.67,8.26-13.21,18.72-17.62,28.84-1.24,2.82-2.41,5.57-3.64,8.19a112.79,112.79,0,0,1-66.14,57.81,109.47,109.47,0,0,1-33.38,5.09,112.67,112.67,0,0,1-38.75-6.81l.55-.55a36.18,36.18,0,0,0,9.63-17.07,3.47,3.47,0,0,0,.9-.14c1.79-.41,4-.83,6.47-1.44,1.24-.28,2.55-.56,4-.9s3-.89,4.54-1.38c3.1-1,6.54-2,10.19-3.23,1.79-.55,3.58-1.31,5.37-2s3.71-1.44,5.57-2.27c3.79-1.58,7.64-3.09,11.5-5.09l11.42-5.92c3.79-2.2,7.43-4.47,11.08-6.67s6.95-4.69,10.26-7.09a103.06,103.06,0,0,0,9.15-7.09c2.82-2.41,5.51-4.68,7.84-6.82,1.18-1.1,2.35-2.13,3.45-3.09s1.92-2.07,2.82-3c1.86-1.86,3.37-3.58,4.68-5,2.2-2.41,3.51-4,3.78-4.33-.41.2-2.27,1.1-5.16,2.61-1.65.83-3.65,1.86-5.92,3.1l-3.58,2c-1.3.68-2.61,1.3-4.06,2-2.82,1.38-5.85,2.89-9,4.54-1.52.83-3.24,1.59-5,2.34s-3.37,1.59-5.16,2.41c-3.51,1.59-7.09,3.44-10.87,4.89s-7.51,3.1-11.22,4.75c-3.86,1.44-7.71,2.82-11.43,4.27s-7.5,2.61-11.08,3.85-7.09,2.55-10.39,3.37-6.4,1.86-9.29,2.69c-1.38.48-2.75.89-4.06,1.23s-2.75.69-4,1c-1,.27-1.86.48-2.69.76a37.37,37.37,0,0,0-19-24.3c1.51-1.31,3.16-2.62,4.88-4.13s4.13-3.17,6.2-5,4.47-3.58,6.88-5.23,4.75-3.45,7.09-5.24c2.55-1.65,5-3.37,7.43-5s4.89-3.17,7.3-4.68l3.51-2.27c1.1-.76,2.27-1.45,3.37-2.07,2.2-1.3,4.4-2.54,6.33-3.78,3.92-2.34,7.3-4.13,9.64-5.51l3.71-2.06s-1.51.2-4.19.69c-1.31.27-3,.55-4.82.89-1,.14-1.93.35-3,.55s-2.14.48-3.24.76c-2.27.62-4.75,1.24-7.29,2s-5.23,1.66-8,2.62a88.06,88.06,0,0,0-8.47,3.1c-2.82,1.17-5.71,2.34-8.67,3.65-2.75,1.37-5.58,2.75-8.4,4.12s-5.37,2.89-8,4.34-5,2.89-7.3,4.41-4.47,3-6.47,4.33c-1,.69-2,1.38-2.82,2s-1.37,1-2,1.51a15.78,15.78,0,0,1-2.55-7.84l-.07-1a15.43,15.43,0,0,0-5-10.87,174.64,174.64,0,0,0,18.24-24.64,125.07,125.07,0,0,1,54.92-24.57C984,966.35,1019.36,969.93,1061.55,982.93Zm17.89,91.4c.07,1.51-2.13,4.41-4,6.74-.55.76-1.24,1.66-1.86,2.55-.55.14-1.1.21-1.58.35-2.89.55-5.92,1.17-9,1.92s-6.19,1.38-9.36,2.07a1.59,1.59,0,0,1-.55.14,134,134,0,0,0,14.8-23.68c1.37-2.89,2.68-5.92,3.92-8.81.14-.34.28-.62.41-1a.51.51,0,0,0,.28.13c-.83,5.65,2.2,10.67,4.27,14.11C1077.93,1070.75,1079.37,1073.09,1079.44,1074.33Zm-72.81,167c3.78,6.53,8.39,14.72,6.46,20.09-1.72,4.82-8.94,8-16.51,10.74-16.66,6-33.86,12.25-51.28,13.56-2.27.13-4.54.27-6.81.27-29.32,0-57.74-13.28-77.91-24.43,6.95-7.36,9.36-17.48,11.56-26.64,2.48-10.46,4.27-16.93,8.88-18.16,1.65-.56,4.13-.42,6.75-.35,4.61.14,10.53.21,16-2.68.9.55,1.86,1,2.89,1.65,1.52.82,3.17,1.79,5,2.68s3.44,2.07,5.37,3c3.71,2.07,7.7,4.13,11.83,6.13,4.06,2.2,8.19,4.26,12.19,6.12,1,.48,2,1,2.89,1.38a26.54,26.54,0,0,1,2.89,1.31c1.79.89,3.51,1.72,5.16,2.4,3.23,1.52,6.06,2.62,8,3.38,1.72.68,2.82,1,3.1,1.1a20,20,0,0,0-1.86-2.76c-1.17-1.72-3-4.19-5.3-7-1.17-1.44-2.41-3-3.72-4.47s-2.89-3.1-4.47-4.75c-3.1-3.16-6.61-6.4-10.18-9.63s-7.44-6.06-11.09-8.74c-1.79-1.31-3.64-2.69-5.3-3.72s-3.23-2.13-4.74-3c-.76-.48-1.38-.89-2.07-1.31a35.36,35.36,0,0,0-.76-12.45c-.34-1.38-.68-2.83-1-4.2-1-3.79-2-7.44-1.44-10a2.82,2.82,0,0,1,1.1-1.38,19.38,19.38,0,0,0,14.79-11.22,20,20,0,0,0-1.17-19.2,28.35,28.35,0,0,0-3.57-4.47,127.72,127.72,0,0,0,23.88,3.1c9,9.36,17.48,21.06,25.53,35.37,6,10.6,11.49,22,16.72,32.83C994.17,1217.69,1000,1229.8,1006.63,1241.37Zm11.07-86.72c-12,0-23-4.75-28.9-12.6a30.32,30.32,0,0,1-4.47-8.32c2.06-.49,4.12-1.11,6.19-1.73a129.37,129.37,0,0,0,46.59-27h.28c6-.35,12.39-1,18.79-1.38,3.16-.28,6.4-.62,9.49-.9,1.66-.2,3.24-.34,4.89-.55,2.89,5.85,8.88,8.4,13.35,10.26l1.24.55c0,.21-.07.48-.14,1s-.48.83-.68,1.24c-1.24,2.14-3.65,6.33-3.79,10.94a207.7,207.7,0,0,1-20,13.42c-10.39,6.2-24.22,13.56-38.81,14.87C1020.39,1154.51,1019.08,1154.65,1017.7,1154.65Zm116.11,102.89a51.78,51.78,0,0,1-26.84,7.09,64.18,64.18,0,0,1-18.51-2.82c-14.39-4.55-28.36-14.18-40.4-28-8.88-10.11-14-19.54-15.69-28.7-2.07-11.08.82-23.67,7.84-35.58,11.49-3.58,21.75-9.08,29.94-14a238.38,238.38,0,0,0,23.74-16.1h.49a11.78,11.78,0,0,1-.21,4.2c-.76,3.71-3.17,14.93,5.5,20.64a13,13,0,0,0,6.27,2.07c-2,4.33-4.06,8.88-6.13,13.35-2.48,5.85-5,11.56-7.29,17-1.1,2.75-2.07,5.37-3,7.91s-1.72,5-2.41,7.3-1.31,4.4-1.93,6.26c-.41,1.93-.89,3.58-1.24,5-.62,2.75-.82,4.4-.82,4.4s1.24-1.1,3.16-3.16c1-1,2.14-2.34,3.44-3.79s2.76-3.1,4.2-5,3.1-3.86,4.68-6.06,3.31-4.47,5-7c3.37-4.89,6.67-10.19,10.12-15.42,3.3-5.3,6.67-10.6,9.63-15.62,2.75-4.54,5.16-8.88,7.36-12.73.83,1.1,1.59,2.27,2.21,3.23l.69,1.1c2.82,4.2,8,9,14.1,10.19a14.21,14.21,0,0,0,7.23-.62,215,215,0,0,0,7.5,21.33,136.52,136.52,0,0,1-.82,14C1158.86,1230.08,1148.47,1248.52,1133.81,1257.54Zm30.9,12c-6.12,2.76-13,3-19.13,2.41,15.21-10,26.36-26.77,31.66-47.21a102.89,102.89,0,0,0,9.22,13.69C1183.57,1251.21,1176.83,1264.35,1164.71,1269.58Zm129.67-81.14c-1.72,11.36-8.68,20.58-14.18,26.36-7.92,8.12-17.62,14.45-27,20-6.74,4-13.9,8-21,8.67-8.26.76-17.41-2.82-25.12-10-7.92-7.3-13.42-17.14-18.31-26.57-8.67-17.27-14.8-33.24-18.37-48.38a24.39,24.39,0,0,1,4.19,2.13c11.84,7.09,22.3,7.09,28-.07q2.78,2.59,5.57,5.17c4.2,3.44,8.19,6.88,12.11,10,1.93,1.58,3.79,3.23,5.65,4.61s3.51,2.61,5.09,3.78,3.23,2.2,4.54,3.1,2.75,1.51,3.79,2.06a22.13,22.13,0,0,0,3.51,1.52,26.42,26.42,0,0,0-1.79-3.44,29.55,29.55,0,0,0-2.27-3.58c-1-1.31-2.07-2.82-3.31-4.34s-2.68-3.09-4.13-4.81-3-3.58-4.47-5.51c-3.1-3.79-6.4-7.85-9.7-11.91l-9.29-12.11c-1-1.24-1.93-2.48-2.83-3.65a8.4,8.4,0,0,1,0-1.93c1-.68,5.1-.55,7.37-.41,4.95.21,11.42.41,16.31-3.16a237.56,237.56,0,0,0,37.65,12.11c4.67,1,9.77,2.06,15,2.75C1291.28,1162.22,1296.17,1176.12,1294.38,1188.44Zm42.8-58.5c6.34-10.39,7-22.57,7-32.07,0-1.1-.07-2.2-.14-3.37,47.62,6.53,93.73,24,132.76,51.41-38.54,13.69-84.1,15.62-130.22,5.3-8.19-1.86-16.44-4.06-24.7-6.68A42.19,42.19,0,0,0,1337.18,1129.94Zm77.36-200.35c-19.61,32.42-53.89,56.3-82.24,76-4.89,3.44-9.91,6.88-15,10.25a49.39,49.39,0,0,0-4.19-3.58,35.68,35.68,0,0,0,1.44-6.06c1.65-11.14-2.41-21.26-7.71-29.52A280.38,280.38,0,0,1,1414.54,929.59Zm-147.69,64a64.72,64.72,0,0,0,4.26-29.66c3.31,3,6.4,6.4,9.5,9.77,8.33,9,17,19.61,15.56,29.73a1,1,0,0,0-.07.48,37.93,37.93,0,0,0-3.86-.82,45.39,45.39,0,0,0-6.81-.55c-9.22,0-18,2.82-25.88,6.26A104,104,0,0,0,1266.85,993.6Zm-5.78,35c8.74-4.33,19-8.6,28.35-7.16,7.3,1.17,14.59,6,20,13.36,4.68,6.33,8.26,14.52,11.08,25.8a156.53,156.53,0,0,1,5,37.44c.07,7-.34,15.76-4.19,22.17s-11.7,10.94-21.06,12.32a52,52,0,0,1-7.3.48c-7.64,0-15.42-1.52-22.3-3.1a212.08,212.08,0,0,1-37.44-12.32,58.33,58.33,0,0,0-2.61-5.71c-1.24-2.48-2.89-5.92-2.55-7.23.34-1,2.82-2.75,4.61-3.92l1.45-1a23.63,23.63,0,0,0,7.22-7.64c.69-.14,1.38-.21,2.07-.28a89.69,89.69,0,0,0,9.36-1.45l9.49-1.85c3.17-.9,6.34-1.72,9.43-2.55s6.06-1.86,8.95-2.82,5.58-2,8.12-3.24,5-2.34,7.09-3.44a62,62,0,0,0,5.78-3.3c1.72-1.1,3.17-2,4.34-2.82,2.34-1.65,3.65-2.69,3.65-2.69s-1.73,0-4.55.28c-1.44.07-3.09.27-5,.48-1,.14-2,.28-3.1.41s-2.2.21-3.37.28c-2.34.34-4.89.55-7.57,1-1.31.21-2.68.35-4,.48s-2.82.35-4.27.49c-2.89.41-5.85.89-8.88,1.1s-6,.62-9,1l-9.09.62c-3,.21-5.92.21-8.81.34-1.24.07-2.48.07-3.71.14a35.06,35.06,0,0,0-7.09-4.4c-1.79-.9-4.27-2.14-4.75-3-.69-1.17,1.44-5.44,2.68-7.92a25.13,25.13,0,0,0,3-11.9c.83-1,1.65-2,2.48-3A224.31,224.31,0,0,1,1261.07,1028.63Zm-55-105.51c9.77,4.34,19.88,8.75,28.42,15,6.13,4.47,14,11.91,17,22,2.89,9.91.48,20.1-2.07,26.91-3.71,9.78-9.91,19-15.48,26.84-4.34,6.13-9,12.46-14,18.65a28.75,28.75,0,0,0-8.4,0c-2.06.21-4.13.42-5.16.07-2.13-.75-3.65-5.85-4.47-8.6a30.2,30.2,0,0,0-6.68-12.46c0-.07,0-.07.07-.13.83-3,1.65-6.06,2.55-9.09s1.72-6.12,2.54-9.15,1.59-6,2.34-8.88,1.45-5.71,2-8.4,1.1-5.23,1.51-7.64c.9-4.75,1.38-8.74,1.72-11.56s.35-4.54.35-4.54-1,1.31-2.62,3.71-3.71,5.79-6.12,10c-1.24,2.14-2.41,4.41-3.65,6.82s-2.55,5.09-3.85,7.77-2.55,5.51-3.86,8.33-2.68,5.72-4,8.61-2.55,5.85-3.79,8.74a3.21,3.21,0,0,0-.34.82,29.58,29.58,0,0,0-8,3.31c-1.93,1-3.93,2.13-5,2-1.58-.14-4-2.68-6.12-5-3.72-3.93-8.68-9.3-16.25-9.3h-.82c-.21,0-.35.07-.55.07a298.92,298.92,0,0,1,2.54-32.07c1.38-10.46,3.24-22.37,8.4-32.28,5-9.49,12.8-16.17,21-17.75C1184.53,914.18,1194.72,918.17,1206.08,923.12Zm-41.71-23.19c-10.81,4.27-20.37,13.28-26.57,25.19a85.88,85.88,0,0,0-6.67,18,80,80,0,0,0-6.2-12.11c-11.49-18.44-30.9-29.66-49.69-29.66a47.42,47.42,0,0,0-9.91,1,53.84,53.84,0,0,0-19.75,9.29c1.72-3.85,3.44-7.78,5-11.7Zm-134,0a220.78,220.78,0,0,1-24.36,43c-2.21,3-4.41,5.78-6.68,8.6-5.58-.41-11.15-.69-16.52-.69a183.09,183.09,0,0,0-33,2.89,151.61,151.61,0,0,0-26.43,7.5c3.3-6.81,7-13.49,10.87-19.95a291.5,291.5,0,0,1,30.63-41.3Zm-89.54,0a268.36,268.36,0,0,0-16.72,22.71,192.63,192.63,0,0,0,1.58-22.71Zm-33.79,0a174.08,174.08,0,0,1-6.27,44.53,160,160,0,0,1-39,69.24,17.59,17.59,0,0,1-3.3-3.44c-.9-1.24-1.79-2.48-2.62-3.72-5.5-8.12-12.25-18.1-24.7-19.55a22.33,22.33,0,0,0-4.68-.07c.13-.55.34-1,.48-1.51.89-2.75,1.85-5.78,2.82-9s2.34-6.4,3.51-9.84c2.41-6.74,4.88-14,7.43-21.26,1.45-3.58,2.82-7.23,4.27-10.74s2.75-7.09,4-10.53c.69-1.65,1.38-3.37,2-5a50.76,50.76,0,0,1,1.85-4.82q2.07-4.54,3.72-8.67c.83-2,1.58-3.86,2.27-5.58Zm-52.79,0c-.69,1-1.45,2-2.2,3.1l-5.58,7.84c-2,2.76-3.71,5.85-5.71,9s-3.85,6.47-5.85,9.84-4.06,6.75-6,10.19c-3.65,7-7.22,14.18-10.53,20.92-.82,1.72-1.58,3.37-2.41,5a37.32,37.32,0,0,0-2.13,4.75c-1.31,3.1-2.48,6.06-3.58,8.74-2.2,5.44-3.92,10-5.23,13.15-3.51-.34-7.43-3.72-11.56-7.3-5.92-5.16-13.28-11.49-23.4-11.9H769c-9.16,0-16,4.82-21.48,10.25-1.85-27.39,8.61-55.88,23.61-76.94,1.65-2.27,3.3-4.48,5.09-6.68Zm-101.1,0a149.54,149.54,0,0,0-18.52,39.3,279,279,0,0,0-39.29-39.3Zm-89,0a258.35,258.35,0,0,1,62.9,59.81c.83,1,1.66,2.2,2.48,3.37a113,113,0,0,0,1.52,37,6.63,6.63,0,0,0-.69.41c-5.37,2.89-12.8,2.48-20.72,2.14-1.93-.14-3.92-.21-6-.28-.27-.55-.62-1.1-.89-1.79-1-1.86-2.27-4.2-3.79-6.81-.75-1.31-1.58-2.69-2.4-4.13-1-1.52-2-3-3.1-4.61-2.14-3.24-4.61-6.68-7.23-10.26-1.24-1.86-2.68-3.58-4.13-5.37s-3-3.51-4.47-5.36a145,145,0,0,0-9.91-11c-3.51-3.51-7.09-7.15-10.74-10.66-3.85-3.38-7.71-6.61-11.56-9.85-1.93-1.51-3.79-3.23-5.85-4.61s-4-2.82-6-4.13a132,132,0,0,0-11.42-7.5c-3.79-2.13-7.44-4.13-10.81-5.92-1.72-.82-3.3-1.65-4.82-2.47s-3.16-1.31-4.61-1.86c-2.89-1.24-5.37-2.21-7.43-2.89-3.65-1.38-5.92-2.14-6.4-2.27a63.71,63.71,0,0,0,4.75,5c1.51,1.51,3.37,3.37,5.64,5.37,1.1,1,2.2,2.2,3.44,3.3s2.41,2.48,3.72,3.86c2.61,2.61,5.44,5.43,8.4,8.32,1.51,1.38,3,3,4.47,4.61s3,3.17,4.61,4.82c3.1,3.31,6.47,6.54,9.5,10.19s6.4,7.09,9.63,10.53c3.1,3.71,6.2,7.29,9.23,10.94,3.16,3.44,5.91,7.16,8.81,10.6,2.68,3.51,5.64,6.81,8.05,10s4.68,6.26,6.88,9c1.17,1.37,2.2,2.68,3.23,3.92s1.93,2.68,2.83,3.92a3.24,3.24,0,0,0,.48.62,30,30,0,0,0-4.82,2.69c-7,4.74-10.94,11.28-13.42,18.3a18.17,18.17,0,0,1-2.27-1.24c-1-.62-2.13-1.24-3.24-1.92-2.27-1.38-4.75-2.89-7.36-4.41s-5.37-3.58-8.26-5.37-5.85-3.78-8.74-5.92-6-4.26-8.95-6.33c-3-2.27-5.85-4.54-8.74-6.74s-5.64-4.48-8.33-6.75-5.36-4.26-7.7-6.47-4.61-4.13-6.75-6-4.06-3.58-5.64-5.23-3.1-3-4.27-4.13c-2.06-2-3.37-3.24-3.71-3.51.13.34,1,1.92,2.47,4.47.83,1.44,1.86,3.17,3,5.16.62,1,1.24,2.14,1.93,3.24s1.44,2.2,2.27,3.37c1.65,2.34,3.44,4.89,5.3,7.57s4.2,5.37,6.47,8.12,4.54,5.71,7.16,8.4,5.16,5.64,7.84,8.46c2.75,2.62,5.58,5.23,8.33,7.85s5.64,5,8.4,7.36,5.43,4.61,8.12,6.61,5.43,3.85,7.84,5.57c1.24.83,2.41,1.66,3.51,2.41s2.14,1.31,3.17,1.93c1.44.83,2.68,1.58,3.85,2.27-1.1,6.33-2.2,12.39-4.4,17.28-.69,1.44-1.52,2.89-2.34,4.26-18.72-4.4-37.65-14-56.37-28.56-40.74-31.8-64.35-77.29-61.53-118.72a79,79,0,0,1,4-20Z"/><path fill="FRAME_COLOR" d="M1191,1087.94c-2.28-4.51,6.1-10.17,2.75-14-2.79-3.13-9.4,1.27-10.93-5.13a6.2,6.2,0,0,1,1.58-5.53c2.34-2.64,4.09-9.24.16-10.47-3.27-1-6.76,3.46-9.75,1.8-3.86-2.14.94-9.32-3.73-12a5.41,5.41,0,0,0-5.47.33c-4.57,2.84-5.06,8.87-9.44,12a5.92,5.92,0,0,1-4.15,1.13c-3.51-.48-4.26-3.91-6.08-6.28a9,9,0,0,0-11.75-1.92,8.69,8.69,0,0,0-3.51,5.23,7.2,7.2,0,0,1-6.54,5.44,10.21,10.21,0,0,0-4.29,1.17,6.45,6.45,0,0,0-3.47,5c-.28,3.48,2.69,4.85,4.33,7.15,1.24,1.72,1.2,4.81-.86,5.3-4.84-2.11-12,2.77-7.68,9.78a5.1,5.1,0,0,0,1.6,1.7c2.52,1.59,6.55,2,7,4.94.68,4.54-8.72,6.49-6.4,11a4.67,4.67,0,0,0,5.39,2.15c5.84-1.53,8.32,3.32,9.82,7.55,1.14,3.21,2.45,6.8,5.54,8.21,2.51,1.15,6-.88,6.26-3.21a3.38,3.38,0,0,1,4.09-3,8.74,8.74,0,0,1,3.67,1.94c2.75,2.48,5,6.11,9.24,5.52a6.9,6.9,0,0,0,4.29-2.53A11.87,11.87,0,0,0,1165,1116a4.17,4.17,0,0,1,5.52-3,8.69,8.69,0,0,0,4.91.44,6.17,6.17,0,0,0,4.42-4.9,3,3,0,0,1,3.46-2.52c3.83.59,7.69.66,11.09-1,4.74-2.38,7-9.84,2.76-13C1195.19,1090.48,1192.15,1090.17,1191,1087.94Z"/><path fill="FRAME_COLOR" d="M836.28,1108.76l-.75-1.44-.7-1.08-.67-1.08-.37-.53,0-.09-.29-.37-.08-.12-.25-.29c-.66-.75-1.32-1.53-2-2.28a26.1,26.1,0,0,0-2-2.19c-1.28-1.29-2.82-2.73-3.64-3.69-.54-.49-1-1-1.53-1.53-.58-.74-1.16-1.45-1.79-2.19l-.74-.91,0-.08v0l-.08-.09-.25-.45-.5-.87-.45-1a56.33,56.33,0,0,1-3.15-9.56,87.45,87.45,0,0,0-4-12.58,36.69,36.69,0,0,0-3.93-7c-.54-.7-1.08-1.36-1.66-2l-.87-1-.53-.57-1.16-1.08-.5-.41-.12-.09-.21-.2-.46-.34-.91-.7A30.33,30.33,0,0,0,786,1047.6a52.85,52.85,0,0,0-15.27,2c-2.36.66-4.56,1.36-6.79,2.19l-1.7.66-1.45.58-1,.42-.7.33-1.45.62c-3.89,1.69-7.66,3.52-11.46,5.25s-7.53,3.48-11.22,5.26l-2.94,1.45-2.77,1.36c-1.82.87-3.72,2-5.58,3.07s-3.89,2.35-5.8,3.6a36.41,36.41,0,0,0-4.88,3.76,40.23,40.23,0,0,0-8.94,10,40.73,40.73,0,0,0-2.94,5.87,27.82,27.82,0,0,0-1.07,3.11l-.46,1.57-.29,1.78a18.63,18.63,0,0,0-.37,3.23v2.19c0,.41,0,.49,0,.49l0,.09v.2c.12,1,.25,2,.33,3s.46,1.9.66,2.81a46.06,46.06,0,0,0,3.77,9.35c1.32,2.57,2.61,5,3.85,7.28a33.18,33.18,0,0,1,3.93,11.72,16.25,16.25,0,0,1-.87,8,14.58,14.58,0,0,1-1,2c-.21.33-.34.54-.38.62a10.44,10.44,0,0,0,2.28-2.07,17.56,17.56,0,0,0,3.68-8.4,34.3,34.3,0,0,0-.95-14.36c-1.28-5.17-3.35-10.8-3.77-16.06,0-.66-.08-1.32-.08-1.94s.08-1.12.13-1.7l0-.29v-.12l.12-.5.21-1.24a5.71,5.71,0,0,1,.58-1.78l.25-.74.45-.87a12.48,12.48,0,0,1,.91-1.78,29.69,29.69,0,0,1,2.4-3.4,27.81,27.81,0,0,1,6.75-5.83,40.77,40.77,0,0,1,4.59-2.85c1.49-.71,2.65-1.41,4.47-2.2s3.31-1.49,5.17-2.23l2.73-1.16,2.65-1.08c3.81-1.49,7.66-3.06,11.46-4.67,1.29-.54,2.57-1,3.81-1.58a86.88,86.88,0,0,1-.62,42.13c-.62,2.44-1.36,5.09-.29,7.45s5,3.76,6.7,1.82c-1.77,3.14-3.55,6.37-4,9.93a10.27,10.27,0,0,0,4.06,9.73c4.55,3,11.25,1.2,14.69-2.61s4.38-9,4.92-14c2.86.46,5.88.87,8.61,0s4.92-3.39,4.18-5.91c-.87-3.11-5.09-4.18-8.4-5.34-11.47-4.1-18-15.81-18.62-26.86-.38-7.74,1.61-15.23,4.26-22.55,1-.33,2.07-.66,3.06-.91a33.3,33.3,0,0,1,9.77-1.49,16,16,0,0,1,3.93.49,9.79,9.79,0,0,1,3.06,1.33l.37.21.17.12.08,0,0,0,.83.71.58.53.12.21.38.37a21.52,21.52,0,0,1,2.27,3.56,92.6,92.6,0,0,1,4,10.22,62.58,62.58,0,0,0,5.5,12.13l.95,1.49,1.12,1.49.58.7.12.21.5.58.25.25,1,1c.66.66,1.33,1.32,2,1.94.82.75,1.73,1.41,2.56,2.11,1.87,1.49,3.11,2.36,4.47,3.4a13,13,0,0,1,1.78,1.45c.58.45,1.12.91,1.66,1.36l.2.17.09,0,0,0,.29.33.87,1,.82.91.5.71a25.2,25.2,0,0,1,2,3.14,39.66,39.66,0,0,1,3.81,14.86,96.4,96.4,0,0,1,0,13c-.2,3.69-.45,6.62-.66,8.61s-.29,3.06-.29,3.06.46-.95,1.33-2.81,2.07-4.51,3.31-8.11a73.07,73.07,0,0,0,3.51-13.45,49.1,49.1,0,0,0,.67-8.86,43,43,0,0,0-1.58-10.3A36.4,36.4,0,0,0,836.28,1108.76Z"/></g></g></svg>