<?xml version="1.0" encoding="utf-8"?>
<!-- Generator: Adobe Illustrator 25.3.1, SVG Export Plug-In . SVG Version: 6.00 Build 0)  -->
<svg version="1.1" id="Layer_1" xmlns="http://www.w3.org/2000/svg" xmlns:xlink="http://www.w3.org/1999/xlink" x="0px" y="0px"
	 viewBox="0 0 841.9 595.3" style="enable-background:new 0 0 841.9 595.3;" xml:space="preserve">
<path d="M743.6,346.6c-0.7,0-1.5,0-2.2,0c-204.3,0-408.7,0-613,0c-2.3,0-4.3,0.1-6,1.9c0,0.5,0,1,0,1.5c1.5,1.8,3.5,1.9,5.7,1.9
	c9.3-0.1,18.5,0,27.8,0c0.9,0,1.8,0,2.8,0c-1.2,2-1.2,2.1-0.1,3.8c3.3,5.2,6.8,10.2,11.1,14.6c6.4,6.7,14.1,11.4,23,13.9
	c6,1.6,12.1,2.3,18.2,2.3c2.4,0,3.9,1,5,3.1c3.9,7.7,8.2,15.1,12.8,22.4c0.3,0.5,0.8,1,0.8,1.6c-0.2,0.1-0.3,0.1-0.4,0.1
	c-0.4-0.2-0.8-0.3-1.1-0.5c-13.1-7.8-27.3-11.1-42.6-10.2c-4.6,0.3-9.1,0.9-13.6,1.9c-0.9,0.2-1.7,0.6-2,1.6c-0.2,1,0.4,1.5,1.1,2
	c8.1,5.3,16.3,10.3,25.2,14.2c13.2,5.7,26.8,7.9,41,5.5c1.3-0.2,2.1,0.2,2.9,1.2c3,3.9,6.1,7.7,9.1,11.6c0.3,0.3,0.7,0.6,0.5,1.3
	c-0.7-0.2-1.4-0.5-2.1-0.7c-5.1-1.8-10.4-2.9-15.8-3.2c-13.3-0.8-26.1,1.6-38.4,6.7c-0.6,0.2-1.2,0.5-1.7,0.9c-0.9,0.7-0.9,2,0,2.7
	c0.4,0.3,1,0.5,1.5,0.7c5.8,1.8,11.5,3.7,17.3,5.5c8.5,2.6,17.2,3.2,26,1.9c1.4-0.2,2,0.1,2.8,1.3c4.1,6.2,9.8,10.2,16.9,12.2
	c1.8,0.5,3.6,0.9,5.5,1.4c0.6,0.2,1.3,0.2,1.6,1.1c-6.8-1-13.6-1.8-20.3-2.5c-0.9-0.1-1.1-0.5-1.1-1.3c0-1.2-0.3-2.3-1.3-3.1
	c-2-1.5-4.2-2.1-6.7-1.9c-1.2,0.1-2.1,0.9-2.5,2.1c-0.2,0.5-0.5,1.1-0.4,1.6c0.1,1.5-0.7,1.6-1.8,1.5c-1.3-0.1-2.6-0.2-3.9-0.1
	c-1.3,0.1-1.7-0.3-1.7-1.6c-0.1-2.1-1.5-3.3-3.6-3c-1.7,0.2-3.3,0.6-3.8,2.6c-0.2,0.8-0.7,0.8-1.3,0.6c-0.7-0.2-0.6-0.6-0.4-1.2
	c0.5-1.8,0-3.3-1.7-4.2c-1.5-0.8-3.2-0.8-4.7,0.1c-1.5,0.9-1.8,2.2-1.4,3.8c0.1,0.2,0,0.5-0.4,0.7c-1.1,0.1-2.3,0.3-3.5,0.1
	c-0.9-0.2-1-1.2-1.6-1.8c-1.3-1.1-3.7-1-5.3,0.2c-1.3,1-1.6,2.5-0.9,3.9c0.8,1.6,2.8,2.3,4.7,1.7c0.6-0.2,1.2-0.5,1.9-0.8
	c0.1,2,1,3.3,2.9,3.8c1.3,0.4,2.4-0.2,3.5-0.8c1.1-0.5,1.9-0.2,2.4,1c0.2,0.4,0.3,0.8,0.4,1.1c1,1.9,3.2,2.8,5.2,2.2
	c1.9-0.6,2.9-2,2.7-4.3c-0.1-0.9,0.1-1.2,0.9-1.3c1-0.1,1.1,0.3,1.2,1.2c0.2,2.1,2.4,3.9,4.6,4c2.2,0.1,4-1.4,4.3-3.9
	c0.1-1.3,0.6-1.5,1.7-1.4c0.8,0.1,1.6,0.3,2.3,0.8c1.2,0.8,2.7,1,4,0.6c1.6-0.5,3.1-0.1,4.6,0c1.3,0.1,2.6,0.3,3.9,0.5
	c3,0.6,6.1,0.7,9.2,1.6c-1.5,1.2-3.1,1.3-4.8,1.2c-5.7-0.1-9.9,2.4-12.6,7.4c-1,1.9-1.9,3.8-2.8,5.7c-0.7,1.5-0.2,2.3,1.4,2
	c3.5-0.5,6.9-1.4,9.9-3.4c3.3-2.1,5.7-4.8,7.8-8c0.4-0.5,0.5-1.3,1.1-1.6c2.8-1.2,5.6-2.7,8.9-2.1c8,1.5,15.9,3.2,23.6,5.8
	c0.7,0.2,1.3,0.4,2.1,0.9c-3.1,1.1-5.9,2-8.7,3.1c-1,0.4-1.9-0.5-2.9-0.3c-0.2,0-0.5,0.1-0.7,0.1c-2.1,0.1-4.2,0.4-6.3,1
	c-1,0.3-1.8,0.2-2.7-0.6c-1.9-1.6-5.4-0.3-6.2,2.1c-0.4,1.4,0,2.6,1.3,3.4c0.6,0.4,1.3,0.6,2,0.9c-0.8,0.9-1.7,1.3-2.8,1.3
	c-3-0.1-5.8,0.7-8.7,1.4c-1.4,0.3-2.5,0.6-3.9-0.3c-1.5-1-3.6-0.3-4.6,1c-1,1.3-1.1,3.2-0.1,4.6c1,1.5,2.5,1.8,4.1,1.6
	c1.5-0.2,2.6-1.2,3-2.8c0.1-0.6-0.1-1.4,0.8-1.5c1.6-0.2,3.3-0.8,5.4-0.6c-2,1.8-3.7,3.3-5.4,4.8c-0.3,0.3-0.7,0.4-1.1,0.4
	c-2.7,0.2-5,1.4-7.5,2.3c-1.1,0.4-2,0.7-3.2,0c-1.8-1.1-3.5-0.6-4.6,0.7c-1,1.3-1.1,4-0.1,5.3c1,1.4,3,2.1,4.6,1.6
	c1.7-0.5,2.5-1.7,2.7-3.4c0-0.6-0.1-1.4,0.7-1.7c1.5-0.5,2.9-1.3,4.9-1.4c-1.1,1.5-2.1,2.8-3,4.1c-0.5,0.8-1.1,1.2-2.1,1.5
	c-2.3,0.7-3.2,2.8-2.4,4.8c0.8,2,3.6,3.2,5.5,2.5c1.9-0.7,3-3.3,1.8-5.1c-0.9-1.5-0.6-2.4,0.4-3.6c1.5-1.8,3-3.7,4.7-5.4
	c0.6-0.6,1-1.3,2.1-1.5c-0.3,2.4,0,4.7-1.8,6.7c-1.3,1.4-1,3.2,0,4.3c1.6,1.7,4.4,1.7,6,0c1.4-1.5,1.3-4.2-0.6-5.4
	c-1.6-1-1.6-2-1.3-3.4c0.2-1,0.3-1.9,0.5-2.9c0.4-1.7,1.2-3.1,2.8-4.1c2.5-1.6,5-3.1,7.7-4.4c0.5-0.2,0.9-0.7,1.6-0.3
	c-0.1,0.9-0.3,1.8-0.2,2.6c0,1.3-0.2,2.2-1.7,2.8c-2,0.9-2.3,2.6-1.5,4.5c0.6,1.3,1.5,2.1,2.8,2.7c1.9,0.9,4.4,0.1,5.4-1.6
	c1.1-1.9,0.4-4.3-1.5-5.6c-0.3-0.2-0.6-0.3-0.9-0.4c-0.5-0.2-0.6-0.6-0.5-1c0.1-1.6,0.1-3.3,0.6-4.9c0.1-0.5,0.3-0.9,0.8-1.1
	c2.6-1.1,5.2-2.3,8.3-3.1c-0.6,1.7-1.2,3-1.7,4.3c-0.3,0.7-0.7,1.1-1.5,1.4c-1.7,0.7-2.2,1.7-2,3.5c0.2,1.5,1.4,2.6,2.9,2.9
	c1.7,0.3,3.2-0.4,3.9-1.8c0.7-1.3,0.5-2.7-0.9-4c-0.8-0.7-0.8-1.3-0.5-2.1c0.6-1.3,1.2-2.5,1.6-3.8c0.4-1.1,1-1.8,2.2-2.1
	c2.2-0.6,4.4-1.2,6.6-1.8c1-0.3,1.9-0.2,2.9,0.2c13.1,4.8,25.9,10.2,37.9,17.4c0.6,0.4,1.4,0.5,1.7,1.4c-5.1-0.8-10-0.5-15-0.1
	c-8.8,0.9-17.5,2.5-25.8,5.6c-5.1,1.9-9.9,4.9-15.6,4.8c-0.5,0-0.9,0.3-1,0.9c0,0.6,0.3,0.9,0.8,1c1.1,0.3,2.2,0.4,3.4,0.5
	c6,0.3,11.9-0.4,17.9-1.2c7-1,14.1-2.3,21.2-2.8c6.9-0.6,13.9-0.6,20.7-2.2c2.6-0.6,5.3-0.1,7.8,1.3c3,1.7,6.2,3.1,9.2,4.6
	c0.4,0.2,1.2,0.2,1.2,1.1c-3.3,0.7-6.7,1.6-10,2.2c-6.4,1.1-12.8,1.8-19.1,3.2c-16.5,3.7-28.7,13-35.8,28.6
	c-0.2,0.4-0.4,0.9-0.5,1.4c-0.1,0.6-0.1,1.2,0.5,1.5c0.5,0.3,1.1,0.3,1.6-0.1c0.4-0.4,0.9-0.7,1.3-1.2c1.5-1.6,3.3-2.6,5.3-3.5
	c5.6-2.4,11.3-4.4,17-6.3c5.6-1.8,11-4.2,16.1-7.2c6.5-3.8,12.2-8.8,18.5-12.9c2-1.2,3.9-2.4,6.1-3.1c2.4-0.8,4.7-0.8,7.3,0.3
	c9.8,4.4,19.7,8.5,29.5,12.7c1.1,0.5,2.3,0.9,3.5,0.9c1.2,0,1.9,0.6,2.5,1.6c1.5,2.5,3.4,4.6,5.4,6.7c3.3,3.3,7,6.1,10.8,8.9
	c4.4,3.3,9,6.6,13,10.5c1.6,1.6,3.4,3.1,4.5,5.1c0.7,0,1.3,0,2,0c0.1-0.9,0.8-1.4,1.3-2c2.3-2.6,4.9-4.8,7.6-7
	c4.3-3.3,8.6-6.6,12.8-9.9c4.2-3.2,8.1-6.7,11-11.1c1.1-1.7,2.2-3.1,4.6-3c0.7,0,1.4-0.4,2.1-0.7c10.3-4.4,20.6-8.8,30.9-13.2
	c0.7-0.3,1.4-0.8,2.3-0.7c2.9,0.4,5.7,1,8.1,2.7c3.8,2.8,8,5.1,11.7,8.1c6.9,5.6,14.7,9.7,23.2,12.6c5.3,1.8,10.7,3.5,15.9,5.7
	c3.2,1.4,6.4,2.5,8.7,5.3c0.1,0.1,0.2,0.2,0.4,0.3c0.6,0.4,1.2,0.6,1.8,0.2c0.6-0.4,0.7-1.1,0.4-1.8c-0.6-1.4-1.3-2.8-2-4.2
	c-7.7-14.4-19.9-22.7-35.8-25.7c-8.8-1.7-17.8-2.6-26.5-4.9c-0.4-0.1-1,0.1-1.1-0.7c3.3-1.7,6.8-3.2,10-5.1c3-1.7,6-2,9.2-1.3
	c5.1,1,10.1,1.9,15.3,1.7c0.8,0,1.6,0.1,2.4,0.1c7.8,0.7,15.6,2,23.3,3.1c5.8,0.8,11.5,1.4,17.4,1.2c1.2-0.1,2.5-0.1,3.6-0.5
	c0.5-0.1,0.9-0.5,0.8-1c-0.1-0.6-0.5-0.8-1-0.9c-0.2,0-0.5,0-0.7,0c-2.4,0-4.7-0.7-6.9-1.6c-3-1.2-6-2.3-8.9-3.4
	c-11.2-4.4-23-5.7-34.9-5.8c-1.6,0-3.2,0.3-4.9,0.4c0.5-0.9,1.3-1.1,2-1.5c11-6.6,22.7-11.6,34.6-16.2c3.3-1.3,6.2-1.3,9.5-0.4
	c3.1,0.8,5.3,2.1,6.1,5.4c0.4,1.6,1.4,2.7-0.4,4.3c-1.4,1.3-0.8,3.6,0.9,4.6c1.8,1.1,4.4,0.5,5.3-1.4c0.9-1.8,0.4-3.6-1.5-4.5
	c-0.5-0.2-1.1-0.2-1.4-0.9c-0.6-1.6-1.2-3.1-2-5.1c2,0.8,3.6,1.3,5.2,2c4.4,1.7,4.3,1.7,4.5,6.5c0,1-0.1,1.6-1.1,2.1
	c-2,1-2.8,3-2.1,4.9c0.5,1.7,2.2,2.7,4.3,2.6c2.1-0.1,4-1.7,4.5-3.8c0.4-1.9-0.1-2.9-2.3-4c-0.6-0.3-1.2-0.5-1.1-1.4
	c0-1.3,0-2.6,0-4c2.3,0.8,4.3,1.9,6.2,3.1c5.5,3.5,5,2.5,6.2,8.8c0.3,1.5,0.4,2.4-1.2,3.4c-1.7,1-2,3.8-0.8,5.2
	c1.3,1.6,3.7,1.9,5.5,0.7c1.6-1.1,2-3.1,0.5-4.9c-1.6-2-1.4-4.1-1.6-6.7c2.8,2.3,4.7,4.8,6.8,7.3c0.9,1.1,1.3,2,0.4,3.4
	c-1,1.5-0.3,3.6,0.9,4.7c1.3,1.1,3.2,1,4.8-0.1c2.2-1.5,2.4-3.4,0.8-6.2c-3.6-0.5-4.6-3.7-6.8-6.2c2,0.1,3.4,0.9,4.9,1.4
	c0.6,0.2,1,0.6,0.9,1.3c-0.2,1.3,0.5,2.3,1.2,3.4c0.7,0.2,1.4,0.5,2.1,0.6c1.9,0.2,3.8-0.8,4.4-2.4c0.6-1.4,0.2-3.8-0.8-4.8
	c-1.2-1.2-2.7-1.4-4.7-0.3c-0.8,0.5-1.5,0.4-2.3,0.1c-2.7-1-5.3-2.3-8.2-2.6c-0.3,0-0.7-0.2-0.9-0.4c-1.8-1.6-3.6-3.2-5.6-5
	c2-0.1,3.6,0.5,5.3,0.7c0.8,0.1,1.1,0.5,1.1,1.3c0,1.3,0.7,2.1,1.8,2.7c1.5,0.9,3.9,0.4,5-0.8c1.3-1.4,1.4-3.5,0.3-5
	c-1.1-1.4-3.2-2-4.9-1c-1.2,0.8-2.2,0.6-3.4,0.3c-3-0.7-6-1.6-9.2-1.5c-1.1,0-1.9-0.5-2.7-1.3c0.8-0.4,1.5-0.6,2.1-1
	c1.2-0.8,1.6-2.1,1.2-3.4c-0.7-2.2-4.3-3.6-6-2.1c-1.1,0.9-2,0.9-3.1,0.6c-2.1-0.6-4.2-0.7-6.3-1c-1-0.2-1.9,0.7-2.9,0.3
	c-3-1-6-2.1-9.3-3.2c0.7-0.3,1.2-0.5,1.6-0.7c7.9-2.6,16-4.7,24.3-5.9c4.2-0.6,8.1,0.5,10.5,4.5c0.4,0.6,0.8,1.2,1.3,1.8
	c4.1,5.2,9.5,7.9,15.9,8.7c1.3,0.2,1.9-0.6,1.4-1.8c-1.2-2.4-2.1-5-3.6-7.2c-1.6-2.5-3.8-4.3-6.6-5.3c-1.9-0.7-4-0.9-6-0.8
	c-1.4,0.1-2.7-0.2-4.1-1.2c3.2-0.9,6.4-1.1,9.5-1.6c3-0.4,5.9-1.2,9-0.5c1.1,0.3,2.3-0.1,3.3-0.8c0.8-0.5,1.6-0.7,2.6-0.8
	c0.9-0.1,1.4,0.1,1.3,1.2c-0.1,0.8,0.2,1.6,0.7,2.3c1.1,1.5,2.8,2.1,4.6,1.6c1.9-0.6,3.5-1.6,3.6-3.8c0.1-0.7,0-1.3,1-1.2
	c1,0.1,1.1,0.5,1,1.4c-0.2,2.3,1,3.9,3.1,4.3c2.2,0.5,4.2-0.7,5.1-2.8c0.8-1.9,1.3-2.1,3.1-1.2c2.9,1.4,5,0.4,5.8-2.9
	c0-0.1,0.2-0.2,0.3-0.4c2.4,1.1,3.3,1.2,4.7,0.7c1.2-0.5,1.9-1.3,2-2.6c0.1-1.3-0.3-2.2-1.3-3c-1.9-1.5-4.4-1.2-5.8,0.7
	c-0.6,0.8-1.2,1.1-2,1c-0.9-0.1-1.8-0.1-2.8-0.2c0-0.7,0.1-1.4,0.1-2c0-1.4-0.8-2.3-2-2.8c-3.4-1.4-6.2,0.6-5.9,4.3
	c0.1,0.6,0.3,1.1-0.5,1.3c-0.8,0.2-0.9-0.3-1.2-0.8c-0.9-1.8-2.8-2.7-4.6-2.4c-1.3,0.2-2.2,1-2.7,2.2c-0.3,0.8,0.5,1.7-0.4,2.3
	c-0.8,0.5-1.8,0-2.6,0.2c-0.7,0.1-1.5,0.1-2.2,0.1c-1.8,0-1.8,0-2.2-1.8c-0.6-2.8-2.4-3.9-5.2-3.2c-0.7,0.2-1.4,0.4-2.1,0.6
	c-2.1,0.6-3.5,1.9-3.5,4.1c0,1.1-0.5,1.3-1.5,1.5c-6.4,0.8-12.8,1.6-19.2,2.4c-0.2,0-0.5,0.1-0.5-0.4c1.3-1,3-1.1,4.5-1.5
	c8.3-1.8,15-6,19.6-13.3c0.6-1,1.3-1,2.3-0.8c9.1,1.4,18.1,0.7,26.9-2.1c5.6-1.8,11.2-3.6,16.8-5.3c1-0.3,1.9-0.7,2-1.9
	c0.1-1.2-0.8-1.7-1.7-2.1c-0.5-0.2-1.1-0.4-1.6-0.7c-6.9-2.8-14-4.7-21.3-5.7c-11.2-1.6-22.2-1-32.9,2.8c-0.4,0.1-0.8,0.6-1.3,0
	c3.4-4.3,6.8-8.6,10.1-12.9c0.7-0.9,1.6-0.9,2.6-0.8c13.3,2.2,26.1,0.5,38.5-4.5c9.9-4,18.8-9.5,27.7-15.2c0.7-0.4,1.2-0.9,1.1-1.8
	c-0.1-0.9-0.7-1.5-1.6-1.6c-2.2-0.4-4.3-0.9-6.5-1.2c-17.6-2.6-34.2,0.2-49.7,9.2c-0.6,0.3-1.1,0.9-2,0.8c0.2-0.4,0.2-0.6,0.3-0.8
	c4.9-7.8,9.6-15.8,13.8-24.1c0.9-1.8,2.2-2.4,4.1-2.5c3.5-0.1,7-0.2,10.5-0.7c11-1.4,20.8-5.7,28.9-13.3c5.4-5,9.7-10.9,13.5-17.1
	c1-1.6,1-1.6-0.2-3.6c0.9,0,1.7,0,2.5,0c6.4,0,12.8,0,19.2,0c1.4,0,2.6-0.1,3.4-1.4c0-0.8,0-1.6,0-2.5
	C746,346.8,744.9,346.5,743.6,346.6z M210.6,471.1c-0.8,0.2-1.2-0.1-1.3-1c-0.1-1,0.5-1,1.2-1c1.7,0,3.4,0.2,5.4,0.8
	C213.9,470.5,212.3,470.8,210.6,471.1z M238.6,488.3c1.2-3,2.8-5.7,5.9-7.2c-0.3,1.1-1.2,1.6-1.8,2.3c-0.4,0.5-0.9,1-1.2,1.5
	c-0.2,0.3-0.3,0.6,0,0.9c0.3,0.3,0.6,0.2,0.9,0.1c0.8-0.4,1.5-0.9,2.3-1.3C243.1,486.4,241,487.6,238.6,488.3z M270,491.2
	c0,0-0.1-0.3-0.1-0.4c0.3-0.5,0.7-0.5,1.4-0.3C270.9,491,270.4,491.2,270,491.2z M327.5,538.1c-6.9,2.9-13.9,5.3-20.7,8.3
	c-1.5,0.6-3,1.3-4.5,2c3.8-9.9,20.6-21.5,33-22.5c-0.8,0.8-1.8,1-2.6,1.3c-4.7,1.8-9.5,3.6-14,6c-2.8,1.5-5.5,3.3-7.8,5.5
	c-0.7,0.6-1.3,1.3-1.9,1.9c-0.4,0.5-1.1,1-0.4,1.7c0.7,0.6,1.2-0.1,1.6-0.5c2.6-2.7,5.7-4.7,9-6.3c9.3-4.4,19-8,28.8-11.3
	c0.8-0.3,1.7-0.4,2.6-0.5C343,528.9,335.9,534.5,327.5,538.1z M534.8,524.8c8.2,3.1,16.5,6,24.4,9.6c4,1.9,7.8,4.1,11,7.3
	c0.2,0.2,0.5,0.5,0.7,0.6c0.3,0.2,0.6,0.1,0.9-0.1c0.3-0.3,0.3-0.6,0.1-0.9c-0.4-0.6-0.9-1.2-1.4-1.7c-3.1-3.2-6.9-5.5-10.9-7.5
	c-3.8-1.9-7.8-3.4-11.8-4.9c-0.9-0.3-1.8-0.7-3.2-1.3c10.8,0.5,27.8,10.6,33.4,22.1c-0.6,0.4-1.1-0.2-1.6-0.4
	c-3.9-1.8-7.8-3.3-11.8-4.8c-7.1-2.7-14.2-5.4-20.8-9.3c-4.7-2.8-9-6.3-13.6-9.3c-0.1-0.1-0.1-0.3-0.2-0.5
	C532,523.7,533.4,524.3,534.8,524.8z M610.4,490.8c0,0.1-0.1,0.4-0.1,0.4c-0.5,0-0.9-0.2-1.3-0.7
	C609.8,490.3,610.2,490.3,610.4,490.8z M641.7,488.2c-2.2-0.4-4-1.6-5.8-3c1-0.2,1.4,0.4,1.9,0.6c0.4,0.2,0.8,0.3,1.1,0
	c0.4-0.4,0.1-0.8-0.2-1.1c-0.8-1.1-1.9-2-2.9-3c-0.3-0.3-0.5-0.6-0.8-0.8C638.7,482.1,640.2,485,641.7,488.2z M669.6,469.2
	c0.5,0,1.4-0.4,1.3,0.8c-0.1,0.9-0.4,1.4-1.4,1.1c-1.6-0.4-3.2-0.5-4.8-1.1C666.4,469.4,668,469.3,669.6,469.2z M682.4,351.7
	c7,0.1,14.1,0,21.1,0.1c0.1,0,0.3,0.1,0.7,0.4c-11.6,3.3-21.3,9.5-29.8,17.9c-0.3-0.9,0.1-1.3,0.3-1.7c2.1-4.9,4-9.8,5.8-14.8
	C680.8,352.6,681,351.7,682.4,351.7z M636.6,354.2c5.5,2.6,15.1,18.7,16.2,27.2c-0.9-0.6-1.1-1.6-1.6-2.4c-1.3-2.3-2.5-4.6-4.2-6.6
	c-0.4-0.5-0.7-1.1-1.4-1.4c-0.6-0.3-1.1-0.2-1.6,0.2c-0.4,0.3-0.5,0.8-0.4,1.3c0.2,0.5,0.4,0.9,0.6,1.3c2.3,5,4.7,10.1,7,15.1
	c0.2,0.5,0.4,1,0.6,1.5c-2.6-1-4.4-2.8-5.9-4.8c-4.5-5.7-6.9-12.4-8.2-19.4C637.1,362.2,636.5,358.3,636.6,354.2z M243.5,354.2
	c-0.2,10.1-1.7,19.8-7.1,28.4c-1.6,2.5-3.4,4.8-5.7,6.7c-0.6,0.5-1.2,1.2-2.1,1.3c-0.3-0.9,0.3-1.6,0.7-2.3c2.3-5,4.6-9.9,6.9-14.9
	c0.2-0.5,0.6-1,0.5-1.6c-0.1-0.5-0.5-0.8-1-1c-0.7-0.2-1.3,0.2-1.7,0.7c-1.4,1.6-2.6,3.4-3.6,5.2c-0.8,1.5-1.5,3-2.7,4.2
	C230.2,370.5,235.3,361.4,243.5,354.2z M178.2,351.8c6.3,0,12.6,0,18.9,0c2.1,0,2.2,0,2.9,2.1c1.9,5.4,4.1,10.6,6.1,16
	c-4.4-3.9-8.9-7.6-13.9-10.7c-5-3.1-10.4-5.4-16.2-7.1C176.9,351.6,177.5,351.8,178.2,351.8z M181.2,375c-8.4-5-16.5-14.1-17.6-19.6
	c9.5-1.3,33.9,8.7,41.9,19.2c-0.7,0.2-1.1-0.2-1.5-0.4c-3.6-2-7.1-4-10.7-5.9c-3.9-2-7.9-3.5-12.3-3.9c-0.3,0-0.7-0.1-1-0.1
	c-0.1,0-0.3,0.1-0.8,0.3c10.2,5.7,20.9,10.1,29.9,17.5C199,382.7,189.8,380.1,181.2,375z M220.9,389.2
	c-5.7-10.5-10.9-21.2-15.3-32.4c-1.4-3.5-1.3-3.6,2.4-4.7c0.8-0.2,1.6-0.4,2.4-0.4c9.2,0,18.3,0,27.5,0c0.4,0,0.8-0.1,1.3,0.4
	c-8.5,7.5-15.3,21.3-17.3,37.9C221.2,390.2,221.1,389.6,220.9,389.2z M230.9,424.8c-2.7,1-12.3,0.4-20.3-1.3
	c-12.2-2.7-23.3-8-33.7-15.7c16.7-4.1,43.7,1.4,55.1,12.6c-5.2-1.9-9.7-4-14.5-5.4c-4.8-1.4-9.6-2.2-14.7-1.5
	C212.1,417.7,222,419.8,230.9,424.8z M200.8,447.4c8.4-4.1,35.5-6.3,45-2.4c-0.6,0.4-1.2,0.2-1.7,0.2c-4.1-0.2-8.2-0.6-12.3-0.5
	c-3.9,0.1-7.8,0.6-11.6,1.9c-0.6,0.2-1.1,0.5-1.7,0.9c4.6,0.8,9.3,0.5,13.9,0.8c4.6,0.4,9.3,0.5,13.9,1.4
	C231,454.7,215.8,454.8,200.8,447.4z M246.2,460.1c1.9,1.6,3.8,3.3,5.7,4.9C249.5,464,247.5,462.4,246.2,460.1z M255.3,464.1
	c-2.7-1.5-5.1-3.5-7.6-5.3c-0.9-0.6-1.7-2.1-3-0.5c-0.3,0.4-0.6-0.1-0.7-0.3c-0.5-0.6-1.1-1.2-1.2-2.1c1.3-0.8,2.5-0.8,3.8,0.1
	c2.5,1.7,5.1,3.2,7.2,5.4c0.7,0.7,1.3,1.6,1.9,2.4C255.6,463.9,255.4,464,255.3,464.1z M291.3,478.9c-4.4-1.4-8.8-2.5-13.3-3.5
	c-6.8-1.5-12.4-5-16.6-10.5c-3.1-4.1-6.5-7.8-11.1-10.2c-0.2-0.1-0.3-0.3-0.6-0.6c2.4-1,4.8-1.5,7.1-2.2c1.1-0.3,1.7,0.4,2.3,1.1
	c2.8,3.2,5.9,6.1,9.2,8.9c7.1,6,14.9,10.9,22.8,15.8c0.7,0.4,1.4,0.9,2.1,1.3c0.1,0.1,0.2,0.3,0.3,0.4
	C292.6,479.4,292,479.1,291.3,478.9z M629.3,464.9c-0.1-0.1-0.3-0.3-0.4-0.4c1.8-1.5,3.6-3.1,5.3-4.6
	C633.1,462.1,631.2,463.6,629.3,464.9z M634.5,445.2c8.7-4.1,36.4-2,45,2.2c-15,7.4-30.2,7.3-45.6,2.5c9.1-1.4,18.4-1.5,27.6-2.2
	C652.7,443.6,643.6,444.9,634.5,445.2z M633.2,456.3c1.4-1,2.8-1.3,4.3-0.5c0.1,0.9-0.7,1.4-1.1,2.1c-0.4,0.6-0.8,0.9-1.3,0
	c-0.5-0.8-1.2-0.1-1.7,0.2c-1.6,1.2-3.1,2.4-4.7,3.5c-1.2,0.9-2.4,1.9-4.4,2.7c1.5-2.7,3.4-4.3,5.4-5.7
	C630.9,457.8,632.1,457.1,633.2,456.3z M630.5,454.1c-0.2,0.2-0.2,0.4-0.3,0.5c-4.8,2.5-8.2,6.3-11.5,10.5
	c-4.1,5.4-9.7,8.8-16.5,10.3c-4.6,1-9.1,2.2-13.5,3.6c-0.6,0.2-1.2,0.3-2.1,0.5c0.6-1,1.5-1.3,2.2-1.7c6.6-4.1,13.2-8.2,19.4-13
	c4.5-3.5,8.9-7.3,12.7-11.6c1.1-1.3,2.2-1.7,3.8-1.1C626.6,453,628.7,453.1,630.5,454.1z M703.3,407.8c-7.1,5.4-14.7,9.5-22.8,12.5
	c-9.9,3.7-20.2,5.2-30.8,4.7c8.7-5.2,18.6-7.3,27.7-11.5c-5.1-0.7-9.9,0.1-14.7,1.5c-4.8,1.4-9.3,3.5-14,5.1
	C659.6,409.2,686.6,403.7,703.3,407.8z M653.6,399.3c-5.3,9.3-11.4,18.2-17.5,27c-0.1,0.2-0.4,0.3-0.7,0.6c-0.5-0.9-0.5-1.7-0.7-2.6
	c-3.2-13.3-9.2-25.2-18.8-35c-2.1-2.2-4.6-4-7.6-4.7c-0.5-0.1-1-0.2-1.4-0.2c-0.9,0-1.6,0.4-1.7,1.4c0,0.2,0,0.3,0,0.5
	c0.4,9,0.6,18,2.9,26.8c2.7,10.4,8.7,18,18.9,22c1.9,0.8,1.9,0.9,0.5,2.5c-3.8,4.4-7.5,8.9-11.1,13.4c-5.4,6.7-11.9,12.1-19.2,16.6
	c-5.3,3.3-10.7,6.4-16,9.6c-4.3,2.6-8.5,5.3-12.4,8.4c-0.7,0.5-1.3,0.9-2.1,1.2c-9,3.3-17.3,7.7-25.6,12.4c-0.6,0.3-1.1,0.6-1.7,0.9
	c-0.4-0.8,0.1-1.2,0.4-1.6c2.1-3.8,4-7.7,5.9-11.6c0.6-1.2,1.3-2,2.6-2.3c0.8-0.2,1.6-0.4,2.3-0.8c1.4-0.6,2.5-0.8,3.9,0.5
	c1.7,1.6,4.5,1,6.4-0.9c1.6-1.7,1.7-3.5,0.3-5.5c-1.5-2.2-3.6-2.8-5.7-1.8c-1.1,0.5-2,1.4-2.2,2.5c-0.3,1.7-1.4,2.2-2.8,2.5
	c-0.5,0.1-0.9,0.2-1.8,0.5c0.7-2,1.9-3.3,2.7-4.9c1.3-2.7,3.4-3.8,6.3-3.6c0.5,0,1,0,1.5-0.1c1.3-0.3,2.2-0.3,3.2,0.9
	c1.4,1.5,3.3,1.5,5.2,0.7c1.7-0.7,2.8-1.9,3-3.8c0.2-2.7-1.3-3.9-3.4-4.8c-1.6-0.8-4.1-0.1-4.9,1.6c-1.1,2.5-2.9,2.7-5.2,2.5
	c-0.4-0.7,0.3-1,0.6-1.4c0.9-1,1.9-2,2.9-3c1.4-1.7,3.1-2.8,5.4-2.8c1.6,0,3.2-0.7,4.8-1c0.7-0.2,1.3-0.2,1.7,0.8
	c0.9,2.1,2.4,2.9,4.4,2.6c1.8-0.2,3.3-1.5,3.6-3.2c0.3-1.7-0.8-3.6-2.6-4.6c-0.3-0.2-0.6-0.2-0.9-0.7c0.4-0.3,1-0.7,1.4-1.1
	c1.9-1.8,1.8-5.2,0-6.9c-1.9-1.7-4.4-1.4-6.3,0.6c-0.4,0.5-0.7,1.1-1.4,1.2c0.5-2.4,0-3.5-2-4.6c-2-1.1-4.5-0.8-5.9,0.8
	c-1.2,1.3-1.5,3.4-0.3,5c0.9,1.2,0.7,2,0,3c-1.3,1.9-2.2,4-3,6.2c-0.2,0.5-0.4,0.9-0.7,1.3c-2.4,2.7-4.8,5.3-7.3,8.6
	c-0.3-2,0.1-3.4,0.2-4.8c0.1-0.5,0.3-0.7,0.8-0.8c0.5-0.1,0.9-0.3,1.4-0.5c1.6-0.7,2.5-1.8,2.7-3.5c0.1-1.6-0.5-2.8-1.9-3.7
	c-2.5-1.7-4.3-1.7-5.9,0c-1.7,1.8-1.8,4.4-0.1,6.4c0.5,0.7,0.7,1.2,0.6,2c-0.5,2.5-0.9,5-1,7.5c-0.1,1.8-0.8,3.3-1.6,4.8
	c-1.2,2-2.2,4-3.4,6.3c-1-2.1-1-4.1-1.6-6c-0.2-0.5,0.2-0.9,0.6-1.3c0.6-0.6,0.8-1.4,1-2.2c0.6-2.1,0.1-3.6-1.3-4.6
	c-1.3-0.9-2.9-0.9-4.4,0.1c-1.6,1.1-2.4,2.9-1.9,4.7c0.4,1.3,1,2.5,2.3,3c0.9,0.3,1.2,0.8,1.3,1.6c0.4,3.1,0.8,6.2,1.2,9.2
	c0.1,0.7-0.1,1.3-0.3,1.9c-1.8,3.7-3.5,7.4-5.6,10.9c-0.7,1.2-1.6,2-2.8,2.7c-9.3,5.3-19.2,9.6-29,13.8c-3.7,1.6-7.5,3.2-11.8,5
	c1.6-2.8,2.4-5.4,4.8-6.9c1.9-1.2,3.6-2.6,5.4-3.9c6.3-4.7,10.3-11.4,13.9-18.2c2.4-4.5,3-9.6,3.7-14.7c0.4-2.8,0.6-5.5,0.7-8.3
	c0.1-4.8,0.8-9.5,1.4-14.2c0.1-0.4,0.2-0.8,0.2-1.2c0-0.4-0.2-0.8-0.6-1c-0.5-0.2-1-0.1-1.3,0.3c-5.3,6.7-12,12-16.4,19.5
	c-2.8,4.6-5.9,9.1-8.1,14c-3.4,7.5-5.6,15.4-4.9,23.8c0.2,2.2,0.2,4.5-0.3,6.6c-0.7,3-1.7,6-5.2,7.1c-1.8,0.6-3.5,1.4-5.4,2.2
	c-0.1-1.8,0.4-3.4,0.5-5c0.4-6.2-0.9-11.9-4.6-16.9c-6.5-9-18.2-10.8-27.2-4.2c-2.4,1.8-4.4,3.9-6.1,6.4c-0.4,0.5-0.6,1.2-1.3,1.5
	c-0.7-0.3-0.9-1.1-1.3-1.6c-2-2.8-4.4-5.3-7.4-7.1c-9-5.6-20.3-3.2-26.2,5.7c-3.7,5.6-5.2,11.8-4,18.5c0.1,0.8,0.3,1.6,0.4,2.4
	c0,0.1-0.1,0.1-0.2,0.4c-2.6-0.7-5.1-1.6-7.3-3c-2-1.3-2.9-3.7-3.4-6.1c-0.4-1.9-0.4-3.9-0.3-5.9c0.7-8.4-1.5-16.2-4.5-23.9
	c-0.8-1.9-1.9-3.6-2.9-5.4c-4.9-8.9-10.5-17.2-18-24.1c-1.4-1.3-2.6-2.7-3.7-4.3c-0.4-0.6-0.9-1.1-1.6-0.8c-0.7,0.3-0.8,1-0.7,1.7
	c1.6,7.9,1.2,16,2.3,23.9c0.6,3.8,1.4,7.6,2.5,11.2c0.6,1.9,1.5,3.6,2.6,5.3c2,3,3.9,6.1,6,9c2.3,3.2,5.4,5.6,8.6,8
	c0.9,0.7,1.8,1.4,2.8,2c2.7,1.5,3.5,4.3,5,6.6c-0.5,0.5-0.8,0.2-1.1,0.1c-11.1-4.8-22.4-9.3-33.1-14.8c-1.7-0.9-3.3-1.9-5-2.7
	c-2.4-1.1-3.9-2.8-5.1-5c-1.7-3-3.1-6.1-4.6-9.2c-0.4-0.8-0.5-1.5-0.3-2.4c0.4-2.8,0.8-5.7,1.1-8.5c0.1-1,0.5-1.5,1.4-2
	c3.1-1.7,3.2-5.8,0.3-7.7c-1.3-0.8-2.6-1-3.9-0.2c-1.4,0.8-1.9,2-1.8,3.5c0.1,1.2,0.3,2.5,1.2,3.4c0.7,0.7,0.6,1.5,0.4,2.3
	c-0.4,1.6-0.7,3.2-1.1,4.8c-0.8,0-0.9-0.7-1.1-1.2c-1.3-2.3-2.8-4.5-3.7-6.9c-0.8-2.4-0.8-5-1.1-7.5c-0.1-0.8-0.2-1.6-0.4-2.4
	c-0.2-0.9-0.1-1.6,0.6-2.4c1.7-1.9,1.3-5-0.5-6.6c-1.2-1-2.5-1.4-3.9-0.7c-1.7,0.9-3.6,1.7-3.6,4.2c0,1.7,0.8,3,2.2,3.8
	c0.4,0.2,0.9,0.5,1.4,0.5c1.2,0.1,1.4,0.8,1.5,1.8c0,1.1,0.2,2.1,0.2,3.1c-0.7,0.4-0.9-0.3-1.2-0.6c-0.4-0.4-0.7-0.9-1.1-1.3
	c-4.4-3.8-6.6-9-9.2-14c-0.4-0.7-0.6-1.2,0-2c1.4-2,1.4-4,0.1-5.4c-1.3-1.5-3.7-1.9-5.7-1c-2.1,1-2.8,2.5-2.4,5
	c0,0.1,0.1,0.2,0.2,0.3c-0.6-0.3-0.8-0.9-1.1-1.4c-1.2-1.6-2.7-2.5-4.6-2c-1.5,0.3-2.7,1.3-3.1,2.8c-0.4,2-0.3,3.9,1.5,5.3
	c0.3,0.2,0.7,0.5,1.2,0.8c-1,0.8-2.3,1.2-2.9,2.4c-1.2,2.2-0.8,4.3,1.2,5.5c2.1,1.2,5.1,0.6,5.9-1.5c0.6-1.8,1.6-1.5,2.8-1.1
	c1.9,0.5,3.8,1.1,5.8,1.1c0.7,0,1.3,0.3,1.8,0.8c1.1,1,2.1,2,3.1,3.1c0.8,0.9,1.6,1.8,2.5,2.8c-2.8,0.8-3.8,0.5-5.1-1.6
	c-1.4-2.2-3.8-3-5.9-1.9c-2.6,1.4-3.6,3.7-2.5,6.1c1.3,2.8,5.6,3.8,7.9,1.5c1-1,1.8-0.8,3-0.9c4.9-0.5,7.5,2.2,9.4,6.2
	c0.4,0.7,0.9,1.3,1.1,2.2c-1,0.3-1.9-0.4-2.8-0.5c-0.8-0.1-1.2-0.6-1.4-1.4c-0.3-1.3-1-2.4-2.2-3.1c-2.2-1.2-4.5-0.5-6,1.7
	c-1.5,2.2-1.3,4.1,0.7,5.9c2.1,1.9,4.5,2,6.6,0.1c0.8-0.7,1.4-0.7,2.2-0.4c0.2,0.1,0.3,0.1,0.5,0.2c3.6,0.6,5.8,2.7,7.1,6.1
	c1.3,3.5,3.2,6.8,5.1,10c-0.7,0.5-1.1-0.1-1.6-0.3c-8.4-4.9-17-9.4-26.2-12.8c-0.6-0.2-1.2-0.6-1.7-1c-5.7-4.4-11.9-8.1-18.1-11.8
	c-4.6-2.8-9.3-5.5-13.8-8.5c-6.3-4.2-11.9-9.3-16.6-15.2c-3.4-4.2-6.8-8.4-10.3-12.5c-0.5-0.5-1.1-1-1.2-1.8
	c0.3-0.6,0.9-0.7,1.4-0.9c10.2-4.1,16.3-11.7,19-22.2c1.5-5.6,2-11.3,2.4-17c0.2-3,0.4-6,0.5-9.1c0.1-2.2-0.7-2.8-2.8-2.4
	c-2.4,0.5-4.4,1.6-6.3,3.2c-3.5,2.9-6.4,6.3-8.9,10.1c-5.6,8.8-10.4,18-12,28.5c0,0.1-0.2,0.2-0.3,0.3c-0.5,0.1-0.7-0.4-0.9-0.7
	c-6-8.7-11.9-17.4-17.2-26.6c-0.2-0.4-0.4-0.7-0.6-1.1c-0.5-1-0.3-1.7,0.7-2.2c11.8-6,16.8-16.6,19.5-28.8c1-4.5,1.1-9.1,1.1-13.7
	c0-1.8,0-1.8,1.7-1.8c0.7,0,1.3,0,2,0c126,0,252,0,378,0c3.8,0,3.8,0,3.8,3.7c0,9.1,1.8,17.7,5.9,25.8c3.2,6.2,7.7,11.1,13.9,14.4
	C654.9,396.9,654.9,397,653.6,399.3z M617.9,408.5c1.9,3.4,3.9,6.8,5.8,10.2c1.8,3.2,3.4,6.5,4.3,10.1c0.1,0.5,0.2,1,0.3,1.4
	c0,0.1-0.1,0.3-0.2,0.6c-4.7-2-8.6-5-11.6-9.1c-2.2-3-3.7-6.4-4.7-9.9c-2-7.3-2.4-14.8-2.7-22.4c5.8,2.4,17.4,20.1,19.1,29.2
	c-1.7-2.4-3-4.6-4.7-6.6c-1.7-2-3.6-3.8-5.9-5.2C617.3,407.6,617.7,408,617.9,408.5z M569.1,454.5c-1.6,1-3.2,2-4.8,3
	c0.1-2.4,0.7-3.2,2.8-3.7c1.7-0.4,3.3-1.1,3.6-3.1C571,453.2,571,453.2,569.1,454.5z M574.7,457.3c-1.6,2.4-4.4,2-7.2,2.8
	c0.8-1.3,1.6-1.6,2.3-2.2C571.3,456.6,572.9,455.7,574.7,457.3z M512,470.6c-0.3-0.2-0.6-0.1-0.9,0.1c-0.8,0.8-1.4,1.8-1.9,2.8
	c-4.1,7.5-7.5,15.2-10.5,23.2c-1.8,4.7-4.2,9.2-5.6,14.1c0,0.1-0.2,0.2-0.6,0.4c-0.2-4,0.2-7.7,1.2-11.4c1.5-5.1,3.1-10.1,5.9-14.7
	c4.6-7.6,8.9-15.3,15.2-21.6c0.6-0.6,1.1-1.4,2.3-1.9c-0.4,2.9-1.1,5.6-1.3,8.3c-0.6,6.3-1.3,12.5-2.9,18.6
	c-0.3,1.3-0.7,2.6-1.3,3.7c-3.9,7.1-8.2,13.7-14,19.4c-0.1,0.1-0.3,0.1-0.6,0.3c-0.2-0.7,0.2-1.3,0.4-1.8c3.7-8.2,6.3-16.8,9.3-25.3
	c1.5-4.2,3.3-8.3,5.2-12.4c0.2-0.4,0.4-0.7,0.5-1.1C512.5,471.1,512.3,470.8,512,470.6z M368,471.7c0.1,0.2,0.2,0.4,0.3,0.7
	c3.9,8.4,7,17.1,9.7,25.9c1.2,3.8,3.2,7.4,4.5,11.1c0.3,0.7,0.8,1.4,0.5,2.8c-2.5-2.9-5.1-5.2-7-8c-1.1-1.6-2-3.2-3.1-4.7
	c-4.4-5.6-6.3-12.1-7.3-19c-0.9-6.1-1.1-12.4-2.4-18.5c0,0,0.1-0.1,0.2-0.3c1.1,1.1,2.2,2.1,3.3,3.3c5.8,6.1,9.9,13.4,14.1,20.6
	c3.3,5.6,5.2,11.6,6.5,17.9c0.5,2.4,0.5,4.9,0.2,7.4c-0.6-0.1-0.6-0.5-0.7-0.7c-2.5-7.4-5.8-14.4-8.6-21.6c-2-5.3-4.7-10.3-7.4-15.2
	c-0.5-0.9-1-1.7-1.6-2.5c-0.2-0.3-0.7-0.5-1.1-0.3C367.9,470.8,367.9,471.3,368,471.7z M310,453.6c-0.7-0.5-0.6-1.4-0.2-2.1
	c0.7,1.3,1.7,2.2,3.2,2.3c1.6,0.1,2.5,0.9,3,2.3c0.2,0.4,0.4,0.9,0.4,1.6C314.2,456.3,312,455,310,453.6z M312.5,459.7
	c-2.6-0.1-5.3-0.3-7.1-2.5C308.7,455.1,310.4,458.1,312.5,459.7z M252.1,418.3c3.4-11.5,9.9-21,18.6-29.1c0.3,0.3,0.5,0.4,0.4,0.5
	c-0.2,7.3-0.6,14.5-2.5,21.6c-2,7.6-6.1,13.7-13,17.8c-1.1,0.7-2.2,1.4-3.5,1.6c-0.3-0.9,0-1.7,0.2-2.5c0.9-3.3,2.3-6.3,4-9.2
	c1.7-3.1,3.5-6.1,5.3-9.1c0.5-0.8,0.9-1.7,1.4-2.8C259.8,408.3,258.6,409.5,252.1,418.3z M659.5,389c-0.2,0.4-0.3,0.9-1,1.2
	c-0.5-2.9-1-5.7-1.6-8.6c-1.7-7.6-4.6-14.7-8.8-21.2c-2-3-4.2-5.8-7.2-8.3c1.1-0.5,1.8-0.3,2.5-0.3c8.6,0,17.2,0,25.8,0
	c1.8,0,3.4,0.4,5,1c1.5,0.6,1.6,0.9,1.1,2.4c-0.6,1.8-1.4,3.5-2.1,5.3C669.2,370.2,664.5,379.7,659.5,389z M702.5,372.7
	c-9.3,6.7-19.7,9.9-31.5,9.6c0.3-1.1,1.1-1.4,1.7-1.8c6.2-4.5,12.9-8,19.7-11.4c2.8-1.4,5.5-2.8,8.2-4.3c0-0.2-0.1-0.4-0.1-0.5
	c-1.5,0.2-3.1,0.3-4.6,0.6c-3.2,0.7-6.2,1.9-9.1,3.5c-3.3,1.7-6.5,3.5-9.7,5.3c-0.7,0.4-1.3,0.9-2.5,1.1c0.5-0.7,0.8-1.2,1.2-1.6
	c1.8-1.9,3.8-3.6,5.9-5.1c9-6.3,18.8-10.6,29.6-12.5c1.8-0.3,3.5-0.5,5.6-0.2C713.8,362.7,708.7,368.2,702.5,372.7z M742.9,219.2
	c-15.6,0-31.3,0-46.9,0c-2.6,0-5.2,0-7.9,0c-2,0-2,0-2.5-1.8c-0.1-0.2-0.1-0.5-0.2-0.7c-4.4-16.7-10.3-32.7-18.1-48.1
	c-26-51.2-64.7-89.6-116.2-114.9c-22.3-11-45.8-18.3-70.4-22.1c-10.3-1.6-20.6-2.6-31-3c-0.7,0-1.5,0.2-2.1-0.4c-4.3,0-8.5,0-12.8,0
	c-0.9,0.7-1.9,0.4-2.9,0.4c-10.7,0.4-21.4,1.4-32,3.2c-24.9,4.1-48.7,11.6-71.2,23c-51.3,26-89.7,64.8-115.2,116.4
	c-7.3,14.7-12.8,30.1-17,45.9c-0.6,2.2-0.6,2.2-2.7,2.2c-0.5,0-1,0-1.5,0c-21.5,0-43.1,0-64.6,0c-2.2,0-4,0.2-5.4,2c0,0.3,0,0.7,0,1
	c1.2,1.8,2.8,2.4,4.8,2.1c0.3,0,0.7,0,1,0c204.5,0,409,0,613.6,0c0.7,0,1.3,0,2,0c1.2,0.1,2.2-0.2,3.1-1.1c0-1,0-2,0-2.9
	C745.7,219.2,744.3,219.2,742.9,219.2z M205.2,219.1c-0.2-6.1,12.3-38.4,21.5-55.1c9.5-17.4,21-33.4,34.4-48
	c13.5-14.7,28.5-27.5,45-38.6c16.5-11,34.1-19.8,52.7-26.5c18.7-6.7,38-11.1,57.8-13c132.6-12.7,235.6,78.9,260.6,181.2
	C519.7,219.1,362.5,219.1,205.2,219.1z"/>
</svg>
