<?xml version="1.0" encoding="utf-8"?>
<!-- Generator: Adobe Illustrator 25.3.1, SVG Export Plug-In . SVG Version: 6.00 Build 0)  -->
<svg version="1.1" id="Layer_1" xmlns="http://www.w3.org/2000/svg" xmlns:xlink="http://www.w3.org/1999/xlink" x="0px" y="0px"
	 viewBox="0 0 841.9 595.3" style="enable-background:new 0 0 841.9 595.3;" xml:space="preserve">
<path d="M745.6,346c-0.5,0-1,0-1.5,0c-213.4,0-426.8,0-640.1,0c-0.6,0-1.2,0-1.7,0c-2.3,0-3.8,1.2-3.7,2.8c0.1,1.5,1.4,2.4,3.7,2.4
	c4.9,0,9.8,0,14.7,0c1.2,0,2.1,0.2,3.1,1.2c1.8,1.9,4.2,1.8,5.8-0.2c1-1.2,1.9-0.9,3.1-0.8c-0.9,3.1-0.2,5.4,1.9,6.6
	c0.8,0.5,1.7,0.6,2.6,0.5c1.8-0.3,2.7-1.6,3.5-3.1c1.5,0.9,2.9,1.7,3.6,3.2c0.5,1.1,1.5,1.9,2.7,2.1c1.9,0.4,3.3,1.6,4.7,2.7
	c3.2,2.5,6.5,5,9.7,7.5c0.4,0.3,1.1,0.5,1.1,1.2c-3.2,0-3.2,0-5.6-1.4c-3.2-1.8-6.6-2.7-10.3-1.8c-4,1-7,3.7-10.2,6
	c-0.8,0.5-0.3,1.2,0.4,1.5c1.6,0.6,3.1,1.2,4.7,1.5c5.9,1.3,11.4,0.1,16.6-2.7c0.6-0.3,1.1-0.9,1.8-0.8c3.1,0.3,6.3,0.3,9,2.4
	c6.5,5.3,12.7,11,18.4,17.2c0.6,0.7,1.4,1.2,1.6,2.3c-3.5-0.6-6.9-1.3-10.3-1.9c-0.3-0.1-0.7-0.2-0.8-0.5c-0.7-1.2-2-1.4-3.1-2
	c-1.7-0.8-3.6-1.3-5.4-1.8c-0.7-0.2-1.3-0.4-1.6-1.3c-0.7-2.2-2-2.8-4.4-2.4c-2.3,0.4-3.2,2.5-2,4.5c0.5,0.8,1.4,1.1,2.1,2
	c-1.7,0.2-3.1,0.4-4.4-0.3c-2.8-1.7-6-2.4-9.1-3.3c-1.2-0.3-2-0.7-2.6-1.9c-0.7-1.5-2.5-2.1-4-1.7c-1.6,0.4-2.5,1.6-2.6,3.3
	c-0.1,1.8,0.9,3.2,2.6,3.8c1.5,0.5,2.9,0.1,4-1.2c0.2-0.3,0.5-0.7,0.7-1c2.4,0.9,4.8,1.5,7.3,2.8c-3.2,0.7-6,1.3-8.8,1.9
	c-0.3,0.1-0.6-0.1-0.9-0.3c-2.5-1-5.1-1.3-7.8-1.6c-1.3-0.1-2.3-0.4-3-1.8c-1-1.9-3.1-2.3-4.7-1.3c-1.3,0.9-2.2,2.8-1.9,4.3
	c0.3,1.6,1.6,2.9,3.1,3.2c1.8,0.3,3.1-0.4,3.9-2c0.3-0.8,0.8-1,1.5-0.9c1.9,0.4,3.9,0.4,6.1,1.4c-2,0.9-3.7,1.6-5.3,2.4
	c-1.1,0.5-2,0.8-3.3,0.5c-2.8-0.6-4.6,1.7-3.8,4.4c0.6,2,2.3,3.3,4,3.1c1.8-0.3,3.1-1.9,3.1-3.9c0-0.1,0-0.2,0-0.2
	c-0.4-1.2,0.4-1.6,1.3-2c2.4-1,4.9-2.1,7.5-2.8c1.2-0.3,2.3-0.8,3.8-0.8c-1.9,2.3-2.8,5.1-5.9,6c-1.3,0.4-2,1.6-1.8,3
	c0.3,1.6,1.3,2.7,2.9,3.2c1.3,0.4,2.5,0.1,3.4-0.9c1-1,1.4-3,0.5-4.1c-1-1.3-0.6-2.2,0.3-3.1c0.4-0.3,0.7-0.7,1-1.2
	c1.9-2.9,4.4-4.2,7.9-4.2c3,0,6.1-0.1,9.3,0.4c-0.8,1.3-1.6,2.4-2.2,3.5c-0.5,1-1.1,1.5-2.3,1.2c-1.4-0.3-2.7,0.1-3.4,1.5
	c-1.2,2.4,0.2,5.8,2.8,6.5c1.4,0.4,2.8,0.4,3.9-0.9c1.1-1.3,1.4-2.8,0.7-4.4c-0.1-0.3-0.3-0.6-0.5-0.8c-0.7-0.7-0.5-1.3,0-1.9
	c0.3-0.4,0.6-0.8,0.9-1.2c2.4-3.5,2.4-3.6,6.6-2.9c2,0.3,4.2,0.3,6.4,1.2c-1.6,1.3-3.1,2.4-4.5,3.6c-0.6,0.5-1.1,0.5-1.8,0.3
	c-1.3-0.4-2.3,0.2-2.9,1.3c-0.8,1.4-0.6,3,0.5,4.1c1.1,1.1,2.8,1.4,4.1,0.6c1.3-0.7,1.9-2.2,1.2-3.9c-0.5-1-0.2-1.5,0.6-2.1
	c0.5-0.4,1.1-0.7,1.6-1.2c2.3-2.7,5.1-2.7,8.3-1.8c3.4,0.9,6.1,2.4,8.4,5.2c8.6,10.4,16.7,21.1,23.4,32.9c0.4,0.7,1.1,1.4,1.1,2.8
	c-2.5-2.4-5-4.2-7.8-5.6c-10.8-5.5-22-9.8-34.1-11.3c-4.9-0.6-10-0.6-14.5-3.3c-0.4-0.2-0.8-0.2-1.1,0.3c-0.2,0.4,0.1,0.8,0.4,1.1
	c1.1,1,2.4,1.8,3.7,2.5c6.3,3.9,13.2,6.3,20,8.9c8.3,3.2,16.6,6.3,24.4,10.6c1.4,0.8,2.9,1.3,4.4,1.8c2,0.7,4,1.2,5.9,2
	c2.3,1,4.5,2.1,5.9,4.3c2.3,3.6,4.7,7.1,7.2,10.5c0.3,0.4,0.8,0.8,0.5,1.5c-0.8-0.3-1.5-0.6-2.2-0.8c-8.4-2.2-16.4-5.5-24.5-8.4
	c-17.3-6.2-33.5-4.3-48.5,6.5c-0.4,0.3-0.8,0.6-1.1,1c-0.3,0.3-0.5,0.7-0.3,1.1c0.2,0.4,0.5,0.7,1,0.6c0.5,0,1-0.1,1.5-0.3
	c2.4-0.8,4.9-0.8,7.4-0.5c5.6,0.7,11.2,1.5,16.7,2.7c7.5,1.6,15.2,2.3,22.8,1.6c6.4-0.5,12.7-1.4,19.1-2c2.4-0.2,4.7-0.1,6.9,0.4
	c2.5,0.5,4.8,1.5,6.3,4c1.7,2.8,4,5.3,6,8c0.4,0.5,1,0.9,0.7,1.7c-1.1,0.2-2.2,0.1-3.2-0.2c-6.4-1.5-12.7-1.7-19.2-0.3
	c-6,1.3-11.9,2.5-17.2,5.6c-10.9,6.3-17.4,15.6-18.4,28.4c-0.1,0.8-0.2,1.6,0.7,1.9c0.8,0.3,1.4-0.1,1.9-0.8c0.9-1.5,2.4-2.2,4-2.9
	c1.2-0.5,2.5-0.9,3.8-1.1c5.9-1.1,11.3-3.4,16.3-6.6c5.8-3.6,11.5-7.3,17.1-11.3c3.8-2.7,7.8-5.1,11.9-7.3c1.3-0.7,2.6-1.1,4-1.4
	c1.4-0.3,2.3,0,3.2,1.2c2.3,3.1,4.8,6,7,9.1c2,2.8,4.6,4.7,7.4,6.6c1,0.7,1.7,0.6,2.6-0.3c1-1,0.6-1.7-0.1-2.5
	c-2.5-3-4.8-6.2-7.4-9.1c-2.1-2.3-2.7-4.8-2.4-7.7c0.1-1.1,0.4-2.1,0.9-3.1c1.2-2.6,2.6-5,4.1-7.4c2.3-3.8,3.8-7.9,4.7-12.3
	c1-4.7,1.4-9.5,1.6-14.3c0.4-12.5-2.2-24.4-5.2-36.4c-0.1-0.4-0.3-0.6-0.6-0.7c-0.5-0.1-0.8,0.1-1,0.6c-0.2,0.4-0.3,0.8-0.4,1.2
	c-1.8,4.4-3.5,9-5.9,13.2c-2.2,4.1-3.9,8.4-5.3,12.9c-1,3-2.1,6.1-2,9.2c0,8,0.2,16,3.5,23.5c0.9,2,1.8,3.9,2.7,5.9
	c0.9,2.1,1.2,6.1,0.5,8.6c-0.7-0.4-1.1-1.2-1.6-1.8c-3.4-4.3-6.7-8.7-10-13.1c-5.4-7-10.5-14.1-15.1-21.7c-1-1.7-1.5-3.4-1.5-5.4
	c0-3.5,0.3-7,0.4-10.5c0.1-1.5,0.4-2.7,1.3-3.9c1.8-2.2,3.5-4.5,5.2-6.7c0.5-0.7,1-1.1,2.1-0.9c1.7,0.3,3-0.7,3.9-2.1
	c0.9-1.5,0.7-3-0.2-4.5c-0.7-1.1-1.8-1.7-3.1-1.7c-1.4,0.1-2.4,0.8-2.9,2c-0.5,1.1-0.9,2.3-0.6,3.6c0.1,0.5,0.3,1-0.1,1.4
	c-1.6,1.6-2.9,3.6-5,5.4c0-1,0-1.5,0-2c0-2.3,0.1-4.7,0.1-7c0-1.2,0.1-2.4,0.7-3.6c1.1-2.1,1.9-4.4,2.7-6.7c0.5-1.4,1-2.5,2.7-3.1
	c2.5-0.8,3.1-4.8,1.4-6.8c-1.4-1.6-3.2-1.2-4.9-0.8c-2.6,0.6-3.6,3.1-2.3,5.5c0.4,0.7,0.9,1.2,1.4,1.7c0.4,0.3,0.7,0.7,0.4,1.3
	c-0.7,1.6-1.2,3.4-2.5,5.1c-0.6-3.2-1.1-6-1.8-8.8c-0.6-2.2-0.9-4.4-0.4-6.6c0.3-1.6,0.4-3.3,0.2-5c-0.1-1.4,0-2.4,1.7-3.1
	c1.9-0.7,2.5-3,1.7-4.9c-1-2.2-3.6-3.3-5.9-2.5c-1.7,0.6-2.7,2.4-2.3,4.4c0.2,1.1,0.9,1.9,1.8,2.6c0.4,0.4,1.2,0.5,1.2,1.2
	c0.1,1.7,0.1,3.3-0.4,5c-0.8-1.1-1.3-2.2-1.9-3.3c-0.6-1.1-1.1-2.2-1.8-3.3c-0.6-1-0.8-1.9-0.3-3c0.4-0.9,0.4-2,0.1-2.9
	c-0.4-1.7-1.5-2.8-3.2-3.2c-1.7-0.3-3.1,0.3-4.1,1.7c-2,2.9-0.6,6.4,2.8,7.1c0.5,0.1,1.1-0.1,1.6,0.5c0.6,0.7,2.4,5.3,2.5,6.6
	c-1.1-0.9-2.1-1.8-3.1-2.6c-1-0.9-2-1.6-2.4-3c-0.8-2.3-3-2.9-5.1-1.8c-2.3,1.2-3,3.3-1.6,5.4c1.3,1.9,3.9,2.5,5.7,1.3
	c0.5-0.3,0.6-1,1.4-1.1c1.7,1.5,3.2,3.3,5.2,4.5c1.8,1.1,2.5,2.5,3,4.3c0.4,1.6,0.8,3.2,1.2,4.8c0.2,0.7,0.5,1.4-0.1,2.3
	c-1.3-0.9-2.5-1.6-3.7-2.6c-0.9-0.8,0-1.9-0.3-2.8c-0.4-1.6-1.1-3.1-2.8-3.5c-1.7-0.4-3.5-0.4-4.9,1c-1.2,1.2-1.5,2.8-1,4.4
	c0.9,2.6,3.5,4,6.2,3.2c1-0.3,1.6-0.1,2.2,0.4c0.5,0.4,1.1,0.8,1.6,1.2c4.8,3.4,3.6,1.6,4.3,7.6c0.2,1.7,0.2,3.5,0,5.5
	c-1.2-0.7-1.7-1.6-2.4-2.2c-0.9-0.7-1.3-1.6-0.9-2.8c0.4-1.3,0.2-2.6-0.7-3.8c-1.4-1.7-3.5-2-5.6-0.9c-2.1,1.1-2.8,2.7-2.1,5
	c0.7,2.3,2.8,4.1,4.8,3.4c2-0.6,2.9,0.3,3.9,1.6c0.6,0.7,1.2,1.4,1.8,2c1.1,1,1.4,2.1,1.2,3.5c-0.4,4.7-0.6,9.5-0.6,14.2
	c0,0.5,0.4,1.1-0.3,1.6c-0.8-0.5-1-1.3-1.4-2c-5.1-8.5-10.4-16.8-16.9-24.4c-0.5-0.6-0.9-1.2-1.2-1.9c-2.3-5.5-5.2-10.8-8.2-16
	c-3.2-5.6-6.4-11.1-9.4-16.7c-3.8-7.2-6.3-14.8-7.7-22.8c-0.3-2-0.3-2.1,1.8-2.2c5.2,0,10.3,0,15.5,0c154.2,0,308.3,0,462.5,0
	c0.9,0,1.8,0,2.7,0c0.7,0,1.1,0.4,0.9,1.1c-0.1,0.6-0.1,1.2-0.2,1.7c-1.3,7.1-3.5,13.8-6.7,20.3c-2.5,5-5.2,9.8-8,14.6
	c-3.8,6.5-7.6,13.1-10.5,20.1c-0.3,0.6-0.6,1.2-1.1,1.7c-6.5,7.6-11.9,16-17,24.6c-0.4,0.6-0.6,1.3-1.6,1.9c0.3-4.7,0-8.9-0.4-13.2
	c-0.3-3.3,0.2-6,2.9-8.1c1.2-1,1.8-2.2,3.9-1.6c2.2,0.7,4.3-1.2,5-3.8c0.6-2.2-0.3-3.7-2.6-4.7c-1.5-0.7-3.1-0.7-4.5,0.3
	c-1.5,1.1-1.9,2.7-1.6,4.4c0.1,0.6,0.7,1.2,0.3,1.7c-1.1,1.2-1.9,2.6-3.6,3.4c-0.2-3.2,0.2-6.1,0.4-8.9c0.1-0.9,0.5-1.5,1.2-2
	c1.6-1.1,3.1-2.2,4.7-3.3c0.6-0.5,1.1-0.4,1.8-0.2c2.5,0.7,4.2,0.1,5.6-1.9c1.2-1.7,1.3-3.4,0.1-5.1c-1-1.4-3.2-2.1-5.2-1.6
	c-1.5,0.4-2.7,1.9-2.9,3.7c-0.1,0.6,0,1.2,0,1.7c0,0.4,0,0.8-0.4,1.1c-1.2,0.9-2.4,1.9-4.2,2.6c0.7-2.8,1.3-5.1,1.8-7.4
	c0.4-1.8,1.1-3.2,2.9-4.1c0.8-0.4,1.4-1.2,2.1-1.8c1.1-1,2.2-2,3.5-3.1c0.3,0.4,0.4,0.7,0.5,0.8c1.6,1.5,3.1,1.7,4.7,0.7
	c1.5-0.9,2.4-2.6,2.1-4.2c-0.3-1.4-1.9-2.8-3.6-3c-1.8-0.2-3.1,0.7-3.9,2.8c-0.6,1.4-4,4.3-5.8,5c0.8-1.8,1.6-3.5,2.4-5.3
	c0.4-0.9,0.8-1.5,2-1.5c1.4,0,2.5-0.9,3.3-2c1.4-1.9,0.6-5-1.6-6.3c-1.8-1.1-4.3-0.5-5.4,1.4c-0.7,1.3-0.9,2.6-0.4,4.1
	c0.2,0.7,0.8,1.3,0.3,2.1c-1.3,2.5-2.7,5.1-4,7.6c-0.5-2.4-1.6-4.8,1.2-6.6c1.9-1.3,1.8-4.3,0.2-5.7c-1.4-1.2-3.1-1.2-4.7-0.6
	c-1.7,0.6-2.7,2-2.8,3.8c0,1.7,0.8,3.1,2.5,3.6c1.1,0.3,1.3,0.9,1.3,2c0,5.7,0.8,11.4-1.3,17c-0.2,0.6-0.2,1.3-0.3,2
	c-0.1,0.7-0.3,1.3-0.5,2.1c-0.9-0.8-1-1.8-1.5-2.6c-1-1.8-1.4-3.2,0.5-4.9c1.6-1.5,1.1-4.1-0.5-5.3c-1.8-1.4-5.2-1.2-6.4,0.3
	c-1.8,2.2-0.9,6,1.8,6.9c1.3,0.4,1.8,1.1,2.2,2.3c0.9,2.9,2.6,5.6,3.3,8.6c0.7,3,0.3,6.3,0.3,9.4c0,0.5,0.3,1.2-0.5,1.6
	c-1.2-1.3-2.3-2.6-3.5-3.9c-0.9-0.9-1.4-1.7-1.1-3.1c0.2-1.1-0.1-2.2-0.6-3.1c-0.6-1.2-1.5-1.9-2.9-2c-1.4-0.1-2.4,0.5-3.1,1.7
	c-0.9,1.4-1.1,3-0.2,4.5c0.9,1.4,2.2,2.4,3.9,2.1c1-0.2,1.5,0.2,2.1,0.9c1.7,2.3,3.5,4.6,5.3,6.9c0.8,1,1,2,1.1,3.2
	c0.4,4.1,0.4,8.1,0.4,12.2c0,1.2-0.3,2.2-1,3.3c-2.2,3.6-4.5,7.2-6.9,10.7c-6.2,8.9-13,17.3-19.5,25.9c-0.2,0.3-0.4,0.7-1.1,0.7
	c0-1.1,0.1-2.2,0-3.4c-0.2-2.2,0.3-4.3,1.3-6.2c0.8-1.6,1.5-3.3,2.3-5c2.6-5.6,2.9-11.7,3.4-17.8c0.4-5-0.3-9.8-1.9-14.5
	c-0.8-2.4-1.6-4.7-2.6-7c-2.9-6.8-6.6-13.2-9-20.3c-0.2-0.5-0.4-0.9-1-0.9c-0.6,0.1-0.8,0.6-0.8,1.1c-0.2,3.7-1.7,7.1-2.6,10.6
	c-2,7.7-2.5,15.6-2.5,23.5c0,3.6-0.1,7.1,0.5,10.7c1.2,7.3,3.1,14.3,7.3,20.5c0.5,0.8,0.9,1.6,1.3,2.4c1.5,2.5,2.2,5.1,2,8.1
	c-0.1,1.4-0.4,2.5-1.3,3.6c-2.9,3.5-5.7,7.1-8.6,10.7c-0.7,0.8-1,1.5-0.1,2.3c0.8,0.7,1.4,1.1,2.6,0.4c2.8-1.9,5.4-3.8,7.4-6.6
	c2-2.9,4.3-5.5,6.4-8.3c2-2.6,2-2.6,5.2-1.8c0.5,0.1,1,0.3,1.4,0.5c3,1.6,6.1,3,8.9,5c6.1,4.3,12.4,8.4,18.6,12.5
	c6.2,4,12.7,7.2,20,8.5c2.6,0.5,5.2,1.4,6.8,3.8c0.4,0.6,1,0.9,1.7,0.7c0.8-0.2,0.9-0.9,0.8-1.6c-0.6-3.8-0.7-7.7-2.3-11.2
	c-3.2-6.7-7.7-12.4-14.1-16.4c-4.3-2.7-8.9-4.5-13.8-5.6c-8.1-1.9-16.3-3.3-24.6-0.9c-1.1,0.3-2.2,0.5-3.4,0.2c0.1-1,0.7-1.5,1.1-2
	c1.9-2.6,4.1-5.1,5.8-7.8c1.8-2.9,4.6-3.6,7.6-4.1c2.3-0.4,4.6-0.2,6.9,0.1c4.3,0.5,8.6,0.6,12.9,1.3c7.3,1.1,14.6,1,21.9-0.2
	c5.4-0.9,10.8-2,16.2-2.8c4.8-0.7,9.7-2,14.5-0.1c0.2,0.1,0.5,0.1,0.7,0c0.8-0.2,1.1-0.8,0.7-1.5c-0.2-0.4-0.6-0.8-1-1
	c-1.9-1.3-3.8-2.7-5.8-3.8c-14-7.5-28.5-8.2-43.3-2.6c-5.4,2-10.9,4.1-16.4,6c-3.3,1.1-6.6,2-10,3c0.1-1,0.8-1.6,1.3-2.3
	c1.9-2.8,3.9-5.4,5.6-8.3c1.9-3.1,4.6-5,7.9-6.1c4.8-1.6,9.6-3.3,14-5.9c1.5-0.9,3.1-1.5,4.7-2.2c7.8-3.5,15.9-6.3,23.9-9.4
	c4.6-1.8,8.9-4.1,13.1-6.7c0.8-0.5,1.6-1,2.1-1.7c0.1-0.2,0.1-0.5,0-0.7c-0.1-0.2-0.4-0.3-0.6-0.3c-0.4,0.1-0.8,0.3-1.1,0.4
	c-2.4,1.2-5,1.8-7.6,2.1c-12.9,1.3-25.1,4.6-36.7,10.4c-3.6,1.8-7.1,3.6-10.1,6.3c-0.4,0.3-0.7,0.8-1.3,0.9c0.1-0.4,0.1-0.5,0.1-0.7
	c0.3-0.6,0.7-1.2,1-1.7c6.8-11.9,15-22.8,23.7-33.3c2.2-2.7,4.7-4.3,8-4.9c0.2,0,0.3,0,0.5-0.1c3.1-1.3,5.7-0.7,8.1,1.7
	c1.3,1.3,2.8,1.9,2,4.3c-0.6,1.8,1.1,3.4,3,3.4c1.9,0,3.5-1.7,3.4-3.5c-0.1-2-1.4-3.2-3.4-2.9c-0.5,0.1-1,0.4-1.4,0
	c-1.4-1.4-3.4-2.3-4.7-4.1c1.9-0.6,3.6-0.7,5.3-0.9c5.1-0.8,5-0.8,8,3.5c0.7,1.1,0.9,1.7,0,3c-1.5,2-0.3,5.2,1.9,5.7
	c1.8,0.4,3.4,0,4.5-1.5c1.1-1.5,1.5-3.1,0.8-4.9c-0.5-1.1-1.5-1.9-2.5-1.7c-2.3,0.6-3.1-0.7-3.9-2.4c-0.4-0.8-1.2-1.4-1.5-2.4
	c2.3-0.4,4.4-0.6,6.6-0.4c8.4,0.5,6.6-0.5,12.1,6c0.1,0.1,0.2,0.3,0.3,0.4c0.4,0.4,0.4,0.9,0,1.3c-0.3,0.4-0.6,0.8-0.7,1.3
	c-0.6,1.9,0.3,3.9,2,4.5c1.8,0.6,3.9-0.4,4.7-2.2c0.7-1.7,0.1-3.4-2-4.1c-2.8-1-3.4-3.7-5-5.7c4.1,0.6,7.9,2.1,11.6,3.8
	c0.5,0.2,0.8,0.6,0.7,1.1c0,0.4-0.1,0.8-0.1,1.2c0.2,2.1,1.9,3.7,3.8,3.5c2-0.2,3.9-2.7,3.6-4.7c-0.3-2-2-3.2-4.2-2.8
	c-0.5,0.1-1.1,0.4-1.4,0.2c-2.3-0.9-4.5-1.9-7.1-3.1c2.4-0.8,4.4-0.9,6.3-1.3c1-0.2,1.2,0.5,1.6,1.1c1.1,1.6,2.4,2.2,4,1.7
	c1.6-0.4,3-2.2,3-3.9c0-1.4-1.4-3.5-2.7-3.9c-1.6-0.6-3.1,0-4.2,1.8c-0.6,1-1.3,1.4-2.3,1.5c-2.9,0.3-5.8,0.6-8.5,1.8
	c-0.2,0.1-0.5,0.2-0.7,0.2c-2.8-0.6-5.6-1.2-8.4-1.8c2.1-1.1,4.2-1.9,6.4-2.6c0.6-0.2,0.9,0.1,1.1,0.6c0.3,0.7,0.9,1.2,1.6,1.5
	c1.7,0.6,3.9-0.2,4.7-1.9c0.9-1.7,0.1-4.1-1.5-5c-1.6-0.8-3.9-0.3-4.7,1.5c-0.6,1.2-1.4,1.6-2.6,1.9c-3.1,0.8-6.3,1.6-9.1,3.3
	c-1.3,0.8-2.8,0.5-4.6,0.2c0.7-0.4,0.9-0.6,1.2-0.8c1.2-0.9,1.9-2.1,1.5-3.6c-0.4-1.3-1.5-2-3.4-2c-2,0-3,0.4-3.4,2.1
	c-0.3,1.3-1.1,1.5-2.1,1.8c-2.5,0.6-5.1,1.3-7.1,2.8c-1.4,1.1-2.8,1.5-4.5,1.8c-2,0.3-4.1,0.8-6.1,1.2c-0.5,0.1-1,0.5-1.6,0
	c0.2-0.8,0.9-1.3,1.4-1.8c5.6-6.2,11.7-11.8,18.1-17.1c1.4-1.2,2.9-1.9,4.6-2.3c2.8-0.6,5.6-1,8.1,0.9c0.5,0.4,1.2,0.6,1.8,0.8
	c6,2.4,12,2.2,17.9-0.3c1.3-0.5,1.3-1.1,0.2-1.9c-1.2-0.9-2.4-1.7-3.6-2.6c-5.5-4.1-11.3-4.6-17.2-0.9c-1.5,1-3.1,1-5,1.1
	c0.6-1.1,1.5-1.5,2.2-2c3.3-2.6,6.6-5.1,9.9-7.6c0.9-0.7,1.8-1.3,3-1.6c1.4-0.3,2.6-1.1,3.3-2.5c0.8-1.5,2.1-2.3,3.5-3
	c1.8,2.8,3.5,3.7,5.7,2.8c2.5-1,3.3-3.4,2.4-6.7c1.3-0.4,2.2-0.4,3.2,0.9c1.3,1.8,4,1.9,5.5,0.2c1.1-1.3,2.3-1.3,3.7-1.3
	c8.1,0,16.3,0,24.4,0c1.5,0,2.8-0.1,3.8-1.3c0-0.8,0-1.7,0-2.5C748.3,346.3,747.1,345.9,745.6,346z M137.1,352.9
	c-0.4-0.2-0.8-0.5-1.3-0.8c-0.1-0.1-0.2-0.2-0.3-0.4c1.5-0.6,2.4-0.7,5.3-0.3C139.3,354.8,139.7,354.3,137.1,352.9z M140.8,374
	c2.2,0,4.3,0,6.5,0c-3.8,1.5-7.6,1.7-11.5,0.8c3.4-2.7,6.9-4.8,12-3.8c-2.4,1.4-5,1.1-7,2.4C140.8,373.7,140.8,373.9,140.8,374z
	 M161.3,393.3c2-1.8,2-1.8,4.6,0C164.4,393.3,162.9,393.3,161.3,393.3z M219.4,462.1c-4.6,0.1-9.1,0.8-13.6,1.2
	c-6.1,0.6-12.1,0.2-18.1-0.4c-8.6-0.9-17-2.9-25.9-3.1c10.5-8.3,32.7-9.3,43.8-3c-3-0.4-6-0.9-9-1.3c-5.9-0.8-11.7-1.5-17.6-0.8
	c-1.9,0.2-3.8,0.7-5.6,1.2c-0.5,0.2-1.1,0.3-1.4,0.8c0.1,0.7,0.6,0.6,1,0.5c6.6-1.9,13.2-1.2,19.8-0.4c6.5,0.8,13,1.9,19.5,2.9
	c2.5,0.4,5,1,7.4,1.9C219.5,461.8,219.5,462.1,219.4,462.1z M237,482.9c-8.5,4.8-16.3,10.9-24.6,16.1c-5.4,3.4-11,6.2-17.2,7.6
	c-2.2,0.5-4.2,1.5-6.3,2.6c-0.4-2.2,0.2-4.1,0.8-5.9c3.2-8.4,8.8-14.5,16.8-18.6c4.6-2.3,9.6-3.6,14.7-4.5c2.4-0.4,4.8-0.7,7.1-1.2
	c1.8-0.3,3.5-0.2,5.6,0.4c-10.5,2.1-19.9,5.8-28.7,10.9c-2.8,1.6-5.4,3.6-7.7,5.9c-0.6,0.6-1.4,1.2-1.5,2.2c0.8,0.5,0.9-0.3,1.1-0.6
	c2-1.9,4.2-3.5,6.6-4.8c8.8-4.4,17.9-7.9,27.5-10c1.9-0.4,3.8-0.8,5.9-0.7C237.1,482.6,237.1,482.9,237,482.9z M252,466.6
	c-0.8-3.5-1.8-6.9-2-10.5c-0.2-3.3-0.5-6.6-0.7-9.9c-0.2-2.9,0.3-5.6,1.1-8.4c0.9-3.2,2-6.3,3.2-9.4c2.1-5.4,4.9-10.5,6.4-16.7
	c1.2,2.7,1.6,5.1,2.2,7.4c1.8,7.7,1.6,15.5,2,23.3c0.2,5.5-0.9,10.7-2,16c-0.9,4.1-2.8,7.8-4.9,11.4c-0.2,0.3-0.4,0.5-0.9,0.6
	c0.4-3.5,1.3-6.8,1.6-10.3c0.5-7.2,2-14.3,2.5-21.5c0.3-4.1,0.3-8.1,0.4-12.2c0-0.8,0-1.7-0.4-2.4c-0.2,0.3,0.1,0-0.3,0
	c-0.1,0-0.2,0-0.2,0.1c-0.1,0.2-0.3,0.4-0.3,0.7c-1,14.8-5,29.1-6.5,43.8c0,0.1-0.1,0.1-0.1,0.2C252.2,468.3,252.2,467.4,252,466.6z
	 M161.4,352.5c1.6,3.2,2.8,6.5,2.8,10.2c-1.6-1.3-4.7-7.4-5.6-11.2C159.9,351,160.7,351.2,161.4,352.5z M161.5,364.1
	c-3-3.7-4.7-7.8-4.9-12.5C158.5,355.7,159.9,359.9,161.5,364.1z M149.3,361c-0.7-0.5-1-0.8-0.6-1.8c1.2-2.6,0.9-3.7-1.1-5.7
	c-0.6-0.6-1.1-1.2-1.9-2.1c2.4-0.3,4.3-0.2,6.3-0.1c0.7,0,0.9,0.5,1.1,1.1c0.3,1.1,0.6,2.2,1,3.3c1.8,5.2,4.9,9.5,9.1,13.2
	c1.1,1,2.2,2,3.2,3.2c0.5,0.5,1,1.1,1,2.4C161.2,369.7,155.3,365.3,149.3,361z M183.4,381.6c2.5,4.7,5.1,9.3,7.8,14.3
	c-0.9-0.2-1.2-0.8-1.6-1.2c-3.8-4.2-7.9-8.1-12.1-11.9c-5.5-5-8.7-11.2-9.6-18.6c-0.5-4-1.3-7.8-3.4-11.4c-0.2-0.4-0.6-0.8-0.4-1.5
	c2.2-0.3,4.4-0.1,6.6-0.1c1,0,1.4,0.8,1.6,1.6c0.4,1.6,0.8,3.2,1.2,4.8C175.9,366.1,179.4,374,183.4,381.6z M583,460.7
	c-0.4-5.4-1.6-10.7-2.7-16c-1.1-5.6-1.8-11.3-2.4-17c-0.1-1.3-0.1-2.6-0.7-3.9c-1.1,0.7-0.8,1.7-0.8,2.5c-0.1,4.7,0.1,9.3,0.6,13.9
	c0.9,8.2,2,16.3,3,24.5c0.2,1.9,0.7,3.7,0.8,5.6c-2.2-2.7-3.8-5.6-4.8-8.9c-2.1-7-3.2-14.1-2.9-21.4c0.2-4.6,0.4-9.1,0.8-13.7
	c0.4-4.5,1.5-8.8,2.7-13.1c0.1-0.4,0.3-0.7,0.6-1.3c2.4,8.8,7,16.5,9.4,25c1,3.6,1.5,7.1,1.3,10.8c-0.4,6.2-0.7,12.4-2.5,18.5
	c-0.3,0.9-0.3,1.9-1.3,2.9C583.7,466,583.2,463.3,583,460.7z M605.8,483c9.6,2.2,18.8,5.6,27.5,10c2.9,1.4,5.4,3.4,7.9,6
	c-0.1-1.4-0.7-1.9-1.3-2.5c-2.2-2.2-4.7-4.2-7.4-5.8c-9-5.3-18.6-9-29.2-11.2c1.6-0.5,3-0.8,4.5-0.5c5.1,0.9,10.2,1.4,15.2,2.8
	c6.2,1.8,11.9,4.6,16.6,9.2c3.2,3.1,5.6,6.8,7.4,10.8c1,2.3,1.6,4.7,1.6,7c-9.9-2.9-19.6-6.3-28-12.5c-4.9-3.7-10.1-6.9-15.3-10.3
	c-1.8-1.2-3.6-2.2-5.4-3.5C602,482.2,603.9,482.5,605.8,483z M619,461.2c4.9-1.6,10.1-2.1,15.2-2.8c6-0.9,12-2,18-2.2
	c4-0.1,8-0.2,11.9,1c0.5,0.1,1,0.3,1.5-0.1c-0.2-1-1.2-1-1.9-1.2c-4.4-1.3-9-1.6-13.6-1.3c-5.3,0.3-10.6,1.2-15.8,2
	c-0.7,0.1-1.5,0.3-2.2,0.2c7.2-4.9,29.4-6.7,43.8,2.9c-3.4,0.4-6.3,0.6-9.3,1c-4,0.5-8.1,1.1-12.1,1.8c-9.9,1.5-19.8,1.7-29.8,0.2
	c-2.3-0.4-4.6-0.3-7-0.5C617.7,461.2,618.5,461.4,619,461.2z M676,393.2c-1.6,0-3.1,0-4.8,0C672.9,392.1,674.3,391.3,676,393.2z
	 M701.6,374.6c-2.3,1.3-8.8,1-11.8-0.5c2.5,0,4.6,0,7.2,0c-2.3-2-5-1.7-7.6-3C694.5,370,698.1,372.2,701.6,374.6z M675.8,363.8
	c1.6-4.1,3.1-8.2,4.7-12.3C680.7,355.8,678.6,361.3,675.8,363.8z M676.2,352c0.3-0.5,0.6-0.7,1.2-0.8c1.2-0.1,1.6,0.3,1.1,1.4
	c-0.8,1.9-1.6,3.8-2.5,5.7c-0.7,1.5-1.4,2.9-2.5,4.2C673,358.6,674.6,355.3,676.2,352z M659.8,382.9c-4,3.6-7.8,7.3-11.4,11.2
	c-0.5,0.6-0.9,1.3-2.1,1.7c0.5-1,0.9-1.8,1.3-2.6c3.9-7,7.8-13.9,11-21.2c2.6-5.9,4.8-12,6.2-18.4c0.5-2.3,0.6-2.4,3-2.4
	c1.8,0,3.6,0,5.2,0c0.3,0.7,0.1,1,0,1.3c-2.2,3.7-3.1,7.8-3.6,12.1C668.4,371.9,665.2,378,659.8,382.9z M689.5,353.8
	c-1.8,1.8-2,3.1-0.9,5.4c0.4,0.8,0.5,1.2-0.3,1.8c-5.9,4.3-11.8,8.7-17.7,13c-0.1,0.1-0.3,0-0.5,0.1c0.4-1.4,1.2-2.3,2.2-3.2
	c1.2-1.1,2.4-2.3,3.6-3.4c4.1-3.9,6.7-8.6,8.2-14c0.6-2.1,0.6-2.1,2.8-2.1c1.4,0,2.8-0.2,4.5,0.2
	C690.8,352.6,690.1,353.1,689.5,353.8z M698,354.2c-0.6-1-1.1-1.8-1.7-2.7c2-0.5,3.7-0.2,5.5-0.2c0.1,0.2,0.1,0.4,0.2,0.6
	C700.6,352.6,699.3,353.4,698,354.2z M745.3,216.7c-24.1,0-48.2,0-72.3,0c-0.9,0-1.8,0.2-2.6-0.1c0-0.7,0.4-0.9,0.8-1.1
	c2.1-1.1,3.7-2.8,5.1-4.7c3.3-4.1,5.7-8.8,6.9-14c1.1-4.3,2-8.7,3-13.1c0.8-3.7,1.6-7.5,2.3-11.2c0.2-0.8,0.3-1.5-0.4-2.1
	c-0.8-0.6-1.6-0.4-2.3-0.1c-0.4,0.2-0.7,0.4-1.1,0.6c-1.4,0.9-2.8,1.8-4.3,2.6c-7.8,4.4-12.4,11.1-14.8,19.5
	c-1.5,5.2-2.1,10.6-2.4,16c0,0.9,0.2,1.9-0.7,2.9c-0.3-1-0.5-1.8-0.8-2.6c-1.7-6.2-3.7-12.2-6.1-18.2c-1.3-3.3-1.3-3.3,1.3-5.5
	c5-4.5,8.6-9.9,10.5-16.4c2-6.8,2.6-13.7,2-20.7c-0.1-1.7-0.3-3.5-0.5-5.2c-0.1-0.6-0.2-1.2-0.9-1.4c-0.7-0.3-1.3,0.1-1.8,0.6
	c-0.6,0.7-1.1,1.4-1.7,2.2c-6.3,8.2-10.9,17.3-12.6,27.6c-0.4,2.2-0.6,4.4-0.9,6.8c-2.5-3.2-3.4-6.4-2.7-10.2c1-5.9,0.9-11.8-1-17.5
	c-4-12.4-12.5-20.5-24.5-25.2c-1.3-0.5-2.9-0.4-3.7-1.8c-0.1-0.2-0.4-0.3-0.6-0.1c-1.4,0.8-2.9,0.5-4.4,0.6c-1.4,0.1-2.3,1.7-1.8,3
	c0.2,0.6,0.7,1.1,1.2,1.6c2.6,2.5,4.5,5.5,5.8,8.9c1.2,3.1,2.2,6.3,3.3,9.4c1,2.9,2.1,5.8,3.8,8.4c2.6,3.9,6.2,6.2,10.9,6.6
	c1.5,0.1,2.4,0.7,3.1,2c4.2,8.2,8.1,16.6,11.3,25.2c0.2,0.5,0.6,1,0,1.6c-0.6-0.4-1.1-0.7-1.7-1.1c-9.7-5.6-20.1-8.3-31.2-7.8
	c-2.9,0.1-5.6,0.8-7.8,2.8c-1.2,1.1-1.2,1.2,0.1,2.4c0.4,0.3,0.7,0.7,1.1,1.1c4.4,4.2,9.3,7.8,14.8,10.4c8.5,3.9,17.1,4.6,25.9,1.2
	c2.2-0.8,2.4-0.8,3.1,1.6c1.1,3.6,2.1,7.2,3,10.8c0.9,3.7,1.4,3.5-2.6,3.5c-48.3,0-96.6,0-144.9,0c-110.3,0-220.5,0-330.8,0
	c-1.1,0-2.3,0.2-3.6-0.3c1.2-5.2,2.6-10.2,4.2-15.1c0.3-0.8,0.9-1.2,1.7-0.9c0.6,0.2,1.2,0.5,1.9,0.7c5.3,1.9,10.7,2.3,16.2,1.3
	c6-1.1,11.3-3.8,16.3-7.2c2.9-2.1,5.6-4.4,8.2-6.9c1.6-1.5,1.6-1.7-0.1-3c-2.2-1.7-4.8-2.3-7.5-2.4c-11.3-0.5-21.7,2.3-31.4,8
	c-0.5,0.3-1,0.8-1.8,0.8c0.1-0.4,0.1-0.6,0.1-0.8c3.3-9,7.3-17.7,11.7-26.2c0.7-1.3,1.6-1.7,3-1.8c4.7-0.4,8.3-2.7,10.9-6.6
	c1.3-2,2.3-4.2,3.1-6.5c1-2.9,2-5.8,3-8.7c1.5-4.3,3.5-8.4,7-11.7c0.4-0.3,0.7-0.7,0.9-1.2c0.6-1.4-0.2-3.1-1.7-3.2
	c-1.5-0.1-3,0.1-4.4-0.7c-0.2-0.1-0.5-0.1-0.6,0.2c-0.6,1.3-1.9,1.2-2.9,1.6c-2.9,1.1-5.7,2.3-8.3,4c-12.1,8-18.8,19-18.4,33.8
	c0.1,2.3,0.4,4.6,0.7,6.9c0.4,3.3-1.1,5.8-2.9,8.5c-0.1-0.4-0.2-0.6-0.2-0.7c-0.6-13.5-6.2-25-14.4-35.4c-0.6-0.7-1.1-1.6-2.2-1.2
	c-1,0.3-0.9,1.3-1,2.1c-0.8,6.4-0.9,12.8,0.1,19.1c1.5,9,5.3,16.7,12.3,22.8c2.1,1.8,2.2,2.2,1.2,4.7c-2.5,6.4-4.7,13-6.5,19.6
	c-0.2,0.6-0.2,1.3-1,1.8c-0.2-1.9-0.3-3.6-0.4-5.4c-0.2-4.5-0.9-8.9-2.1-13.3c-2.3-8.6-7.1-15.5-15-20c-1.4-0.8-2.8-1.7-4.3-2.6
	c-1-0.6-2-1.4-3.2-0.6c-1.2,0.9-0.5,2.2-0.3,3.2c1.1,5.5,2.2,10.9,3.4,16.3c0.9,4.1,1.7,8.3,3.4,12.2c2.5,5.4,5.5,10.5,10.8,13.7
	c0.2,0.1,0.3,0.4,0.1,0.9c-0.8,0-1.6,0-2.5,0c-20.4,0-40.7,0-61.1,0c-0.8,0-1.7,0-2.5,0.1c-1.1,0.2-2.1,1.4-2.1,2.5
	c0,1,1,2.2,2.2,2.4c0.6,0.1,1.3,0.1,2,0.1c14.2,0,28.4,0,42.7,0c25.6,0,51.2,0,76.8,0c147.2,0,294.3,0,441.5,0c27.1,0,54.2,0,81.3,0
	c0.3,0,0.7,0,1,0c1.4,0.2,2.4-0.4,3.1-1.5c0-0.7,0-1.3,0-2C748.3,216.6,746.8,216.7,745.3,216.7z M666.2,147.2
	c1.9,12.6-1.8,27.3-10.7,34.9c0-2.1,0.5-4,1.1-5.9c1.1-3.3,2.2-6.6,3.3-9.9c1-2.8,1.9-5.6,1.9-8.7c-3,3.5-4.7,7.7-6.8,11.8
	C656.9,161.2,660.8,154.1,666.2,147.2z M644.9,167.4c-1.2-2.2-2.2-3.9-3.2-5.7c-1.9-3.4-3.6-6.9-5.8-10.1c-1.7-2.4-3.6-4.8-6.1-6.5
	c1,2.7,2.6,5,4,7.5c1.4,2.5,2.9,5,4.3,7.5c-0.9,0.5-1.5-0.1-2-0.3c-3.8-1.8-6.2-4.9-7.9-8.6c-1.4-3.1-2.3-6.4-3.5-9.6
	c-1.5-4.1-2.7-8.4-5.7-11.8c0.8-0.6,1.4-0.2,2-0.1c6.4,1.6,11.6,5.2,15.8,10.3c6.2,7.6,8.5,16.4,8.4,26
	C645.2,166.3,645.1,166.5,644.9,167.4z M645.6,199.7c-11.1,0.8-20.5-2.9-28.1-11.1c-0.3-0.3-0.5-0.7-0.7-1c-0.1-0.1,0-0.3-0.1-0.7
	c11.7-1.1,24.1,1.1,30.9,6.3c-5.5-1.2-10.9-3.5-17.2-1.1c7.3,1.3,13.9,2.9,20.5,5.7C649.1,199.2,647.4,199.6,645.6,199.7z
	 M206.3,192.1c-5.7-2.4-11.1,0-16.6,1c9.5-6,20-7,30.9-6.3c0.1,1.1-0.7,1.7-1.3,2.3c-4.5,4.9-10.2,7.9-16.6,9.6
	c-4.2,1.1-8.5,1.5-12.8,0.5c-1.1-0.3-2.3-0.5-3.5-1.5C193.1,195.1,199.6,193.4,206.3,192.1z M218,129.6c0,0.2,0.1,0.4,0,0.4
	c-3.2,4.2-4.5,9.2-6.2,14c-1.1,3-2,6-3.5,8.8c-1.8,3.3-4.3,5.9-7.9,7.3c-0.3,0.1-0.6,0.3-1.2-0.1c2.8-4.9,5.7-9.8,8.7-14.9
	c-0.9,0-1.2,0.4-1.6,0.8c-2.6,2.4-4.7,5.1-6.5,8.2c-1.9,3.4-3.8,6.8-5.7,10.2c-0.5,0.8-0.8,1.7-1.7,2.5
	C190.3,149.6,203.1,131.3,218,129.6z M176.1,162.3c0.8,3.1,1.9,6,3,9c1.2,3.4,2.4,6.9,2.7,10.6c-7.3-3.7-13.4-23.5-10.6-34.5
	c5.3,6.7,9.1,13.7,11,21.9c-2.1-3.9-3.7-8.1-6.8-12C175.2,159.3,175.8,160.8,176.1,162.3z M163.5,193.6c-0.1,6.2,2.3,12,3.2,18.1
	c-10-10-12.4-23-14.1-36.3c2.7,0.7,7.7,5,10.9,9.4c5.5,7.5,7.4,16.1,7.4,25.3C168.5,204.5,167.1,198.6,163.5,193.6z M666.5,210
	c-1.2-13.6,8-31,18.2-34.7c-0.7,5.8-1.6,11.6-3.2,17.2c-1.9,6.6-4.7,12.6-9.2,17.8c-0.5,0.6-1,1.4-2.1,1.8
	c1.3-6.3,3.6-12.3,3.7-18.7C670.3,198.3,668.8,204.3,666.5,210z M427.7,51.3c-3.6-4.9-5.7-10.3-5-16.5c0.8-7.2,5.4-12.4,12.5-14.1
	c0.4-0.1,0.8-0.1,1.1-0.5c0.7,0,1.3,0,2,0c0.3,0.1,0.6,0.3,0.9,0.4c5.7,0.8,9.7,4,12.4,9c0.2,0.4,0.3,0.8,0.9,1
	c0.8-0.3,1.2-1.2,1.9-1.8c3.2-3,6.8-5.1,11.3-5.2c8.3-0.1,14.8,6.3,15,15c0.1,5.4-1.8,10.1-5.3,14.1c-2.6,3-5.6,5.4-9,7.4
	c-3.1,1.9-6.3,3.7-9.4,5.7c-2.9,1.8-5.6,3.9-8,6.3c-1.1,1.1-1.3,1.1-2.1-0.1c-3.3-5.5-8.1-9.6-12.7-14
	C431.9,56,429.6,53.8,427.7,51.3z M489.4,554.8c0.7,3.6,0.2,7.1-1.5,10.4c-3.7,7.2-12.6,9.5-19.7,5.3c-1.7-1-3.2-2.4-4.6-3.9
	c-0.3,0.2-0.6,0.3-0.6,0.4c-2.3,5.2-6.1,8.6-11.7,9.9c-1.5,0-3,0-4.5,0c-0.2-0.1-0.4-0.3-0.6-0.4c-6.7-1.9-10.8-7.1-11.3-14.1
	c-0.3-4.3,0.7-8.2,2.8-12c1.5-2.6,3.3-5,5.3-7.2c1.1-1.2,2.2-2.3,3.3-3.4c3.6-3.8,7.3-7.6,9.8-12.2c0.5-0.9,1-1.4,1.9-0.5
	c4.7,4.6,10.6,7.1,16.2,10.2c2.3,1.3,4.7,2.5,6.8,4.2C485.1,545,488.4,549.2,489.4,554.8z M231.2,100.8c-3.2-9.8,4.4-20.4,16.2-19
	c1.7,0.2,3.4,0.6,5.4,1.4c0-2.1,0-3.7,0.3-5.3c1-5.7,3.8-10.1,9.4-12.2c5.7-2.1,10.8-0.9,15.3,3c4.3,3.8,6.4,8.6,6.7,14.3
	c0.3,4.5-0.5,8.9-1.8,13.3c-1.6,5.2-3.1,10.5-3.9,16c-0.2,1.2-0.2,2.5-0.3,3.7c0,1-0.5,1.4-1.4,1.1c-6.8-1.9-13.7-1.5-20.6-1.5
	c-3.8,0-7.6-0.3-11.3-1.5C238.5,111.8,233.5,107.8,231.2,100.8z M520.4,74.5c-1.9-5.2-2.3-10.5-0.8-15.9c1.3-4.4,3.9-7.9,7.8-10.3
	c8-5,18.4-1.2,21.6,7.9c0.7,2,0.9,4.1,1.3,6.4c2-0.7,3.8-1.6,5.8-2c11.2-2.5,20.5,7.1,17.7,18.2c-1.5,5.7-5.1,9.8-10.2,12.6
	c-3.6,2-7.6,3-11.6,3.6c-3.5,0.5-6.9,1-10.4,1.4c-3.7,0.5-7.3,1.3-10.8,2.7c-1.6,0.6-1.8,0.5-2-1c-0.6-4.9-2.4-9.3-4.3-13.7
	C523,81.1,521.6,77.9,520.4,74.5z M328.5,57.8c-3.3-4.4-4.6-9.3-3.6-14.8c2-10.5,12.5-14.4,20.9-10.6c1.6,0.7,3,1.7,4.4,2.9
	c0.4,0.4,0.7,0.9,1.5,0.9c0.7-0.6,0.8-1.5,1.2-2.3c2.5-5,6.1-8.5,11.8-9.3c5.9-0.9,10.7,1.2,14.1,6c3.8,5.4,4.3,11.4,2.4,17.6
	c-1.3,4.5-3.9,8.2-6.8,11.8c-1.9,2.3-3.8,4.6-5.7,6.9c-2.4,3-4.6,6.1-6.2,9.6c-0.7,1.6-0.9,1.6-2.1,0.7c-3.8-3.1-8.1-5.1-12.5-7.1
	c-2.7-1.2-5.5-2.4-8.2-3.7C335.2,64.4,331.4,61.7,328.5,57.8z M396,549.8c2.4,4.7,3.7,9.6,2.3,14.9c-0.8,3.2-2.4,6-4.9,8.2
	c-5.9,5.2-14.7,4.4-20-1.8c-1.4-1.6-2.3-3.4-3.2-5.3c-1,0.1-1.4,1-2,1.5c-2.7,2.3-5.8,3.9-9.4,4.1c-9.2,0.5-16.2-7.6-14.6-17.1
	c0.7-4.6,2.9-8.4,6.2-11.7c2.9-2.8,6.3-4.9,9.9-6.6c1.4-0.7,2.9-1.3,4.3-2.1c4.1-2.1,8.1-4.3,11.6-7.3c1.2-1.1,1.5-1,2.1,0.1
	c2.9,5.6,7.3,9.9,11.4,14.4C392,544,394.4,546.6,396,549.8z M307.4,512.7c1.7,4.9,2.9,9.9,2.2,15.1c-0.7,5.1-2.8,9.3-7,12.5
	c-8.9,6.6-20.7,1.8-22.5-9.1c-0.2-1.5-0.4-2.9-0.6-4.5c-2,0.5-3.7,1.2-5.7,1.5c-10.4,1.4-18.4-7.7-15.5-17.8
	c1.6-5.5,5.2-9.3,10.3-11.8c4.4-2.2,9.2-2.7,14-2.9c5.1-0.3,10.1-0.4,15.1-1.5c1-0.2,2.1-0.6,3.1-0.9c0.9-0.3,1.5,0,1.5,1
	C302.8,500.8,305.4,506.7,307.4,512.7z M581.6,514.1c2.1,9.7-5.9,18.3-15.7,16.8c-2-0.3-3.9-0.9-5.8-1.6c-0.6,1.1-0.4,2.3-0.6,3.5
	c-0.9,6.4-5,11.1-10.9,12.5c-4.6,1-8.8-0.1-12.3-3.1c-4.7-4.1-6.6-9.4-6.5-15.5c0.1-4.5,1.3-8.8,3-13c1.8-4.6,3.4-9.2,4.4-14
	c0.2-1,0.3-2,0.4-3c0.1-1,0.4-1.6,1.6-1.1c6,2.1,12.2,2.4,18.4,2.7c5,0.3,9.9,1.1,14.4,3.6C577.1,504.5,580.4,508.5,581.6,514.1z
	 M574.9,108.9c0-5.8,4.5-10.5,10.1-10.5c5.3,0,9.8,4.3,9.9,9.5c0.1,5.6-4.8,10.5-10.5,10.5C578.8,118.5,574.9,114.6,574.9,108.9z
	 M394.9,45.8c0-5.5,4.3-10,9.6-10c5.5,0,9.9,4.4,10,10c0,5.7-4.2,10.4-9.5,10.5C399.5,56.4,394.9,51.7,394.9,45.8z M295.4,70.4
	c-0.1-5.6,4.1-9.9,9.6-9.9c5.8,0,10.1,4.4,10.1,10.4c0,5.7-4,9.8-9.3,9.9C300.2,80.7,295.5,76,295.4,70.4z M485,57.6
	c0.1-5.8,4.5-10.2,10.1-10.1c5.4,0.1,9.6,4.5,9.6,10.1c-0.1,5.6-5,10.5-10.4,10.4C489,67.8,484.8,63.2,485,57.6z M423,554
	c0,5.4-4.1,9.6-9.3,9.5c-5.2-0.1-9.3-4.2-9.3-9.4c0-5.5,4.2-10,9.3-10.1C418.9,544.1,423,548.5,423,554z M518.8,537.7
	c0,5.3-4,9.4-9.2,9.3c-5.3,0-9.4-4.3-9.4-9.8c0-5.4,3.9-9.6,9-9.6C514.4,527.7,518.8,532.3,518.8,537.7z M342.5,536.9
	c0,5.6-4.3,9.9-9.7,9.8c-4.9-0.1-9.1-4.3-9.1-9.3c0-5.3,4.6-9.9,9.8-10C338.5,527.3,342.5,531.5,342.5,536.9z"/>
</svg>
