<?xml version="1.0" encoding="utf-8"?>
<!-- Generator: Adobe Illustrator 25.3.1, SVG Export Plug-In . SVG Version: 6.00 Build 0)  -->
<svg version="1.1" id="Layer_1" xmlns="http://www.w3.org/2000/svg" xmlns:xlink="http://www.w3.org/1999/xlink" x="0px" y="0px"
	 viewBox="0 0 841.9 595.3" style="enable-background:new 0 0 841.9 595.3;" xml:space="preserve">
<path d="M391.5,33c0.1-2.5,1.5-4.4,3.2-4.3c2.6,0.1,4.6,1.9,4.5,4.3c-0.1,2.3-1.9,4.4-3.9,4.4C393.1,37.4,391.4,35.4,391.5,33z
	 M618.2,173.9c2.4,0,4.6-2.4,4.6-4.9c0-1.6-2.2-3.3-4.4-3.3c-2.1,0-4,2.2-3.9,4.6C614.6,172.5,616,173.9,618.2,173.9z M707.4,353.8
	c0,0.8,0,1.6,0,2.4c-0.9,1.7-2.4,1.9-4.1,1.9c-13.8,0-27.7,0-41.5,0c-1.8,0-3.2,0.4-4.5,1.6c-8.5,7.7-17.9,14.2-27.7,20.1
	c-3.2,1.9-6.2,4-8.9,6.5c-0.9,0.8-1.3,1.4-0.5,2.6c1.1,1.7,1,3.7,1.2,5.6c0.2,1.2,0.1,2.4,0.1,3.6c0,1.1,0.1,1.7,1.5,1.9
	c1.7,0.2,2.6,1.6,2.7,3.2c0.1,1.7-0.5,3.4-2.1,3.9c-2,0.7-2.1,2-1.9,3.9c2.9-1.3,5.4-3,8-4.6c0.5-0.3,0.7-0.8,0.9-1.4
	c0.2-0.7,0.4-1.4,0.7-2c0.5-0.9,0.6-1.5-0.2-2.5c-1.3-1.7-0.9-4.2,0.7-5.3c1.4-1,3-0.7,4.1,0.5c1.4,1.6,1.3,3.9-0.3,5.4
	c-0.4,0.4-1.2,0.6-0.9,1.7c2-1.5,4-3,5.9-4.4c0.6-0.4,0.2-1,0.2-1.5c-0.1-1.8,0.8-3.1,2.4-3.7c1.8-0.7,3.7,0,4.3,1.8
	c0.6,1.8-0.6,4.3-2.5,4.5c-2,0.2-3.1,1.3-4.5,2.6c0.9,0.5,1.5,0.2,2.2-0.3c1.6-1.3,3-1.4,4.4-0.5c1.5,1,2.1,2.4,1.9,4.1
	c-0.2,1.4-1.1,2.5-2.5,2.9c-1.5,0.4-2.6,0-3.5-1.3c-0.3-0.5-0.6-1-0.8-1.5c-0.2-0.4-0.4-0.7-0.9-0.8c-1.8-0.1-3.6-0.7-5.2,0.9
	c-0.8,0.8-1.9,1.4-2.9,2.2c0.7,0.6,1.2,0.2,1.7-0.2c2.2-1.6,4.9-1.1,6.1,1.1c1.2,2.1,0,5.1-2.4,6.2c-2.3,1.1-4.7,0.2-5.5-2.4
	c-0.4-1.1-0.9-1.5-2-1.6c-1.7-0.2-3.2,0-4.8,1c-2.2,1.4-4.6,2.5-7.2,3.8c1.7,1,2.9,1.7,4.6,0.4c1.7-1.3,4.2-0.5,5.6,1.2
	c1.5,1.9,1,4.4-1.2,5.5c-2.7,1.4-5.4,0.6-6.6-2.1c-0.3-0.6-0.6-0.9-1.1-1.1c-0.9-0.4-1.8-0.8-2.6-1.1c-2.4-1-2.4-1-3.9,1.4
	c0.6,0.4,1.2,0.1,1.8,0.2c2.3,0.1,3.8,1.6,3.8,3.7c0,2.4-2.1,4.4-4.3,4.2c-2.2-0.2-3.7-2.1-3.5-4.3c0-0.2,0.1-0.5,0.1-0.7
	c0-0.2,0.1-0.5-0.1-0.7c-0.7,0-1,0.6-1.5,1c-3.2,2.6-6.7,4.6-10.6,6c-3,1.1-3.7,1.8-5.1,4.4c0.6,0.3,1.1-0.2,1.5-0.4
	c8.2-3.4,16.7-4.1,25.4-2.9c1,0.1,2.1,0.2,3.1,0.5c1.5,0.4,1.8,1.7,0.5,2.6c-8.1,5.8-16.8,10.3-27.2,9.6c-2.6-0.2-5.1-0.8-7.4-1.7
	c-1.1-0.4-2.1-0.5-3,0.5c-3.6,4.3-7.5,8.3-11.8,12.5c1.2,0,1.9-0.5,2.7-0.9c4.8-2.2,9.8-4,15.1-4.4c4.2-0.3,8.1,0.3,11.9,2.2
	c2.2,1.1,4.3,2.5,6.4,3.7c0.7,0.4,1.2,1.1,1.1,2c-0.1,0.8-0.8,1.2-1.5,1.4c-7.5,2.2-14.8,5.1-22.6,6.4c-3.8,0.7-7.5,0.4-11.2-0.6
	c-0.8-0.2-1.5-0.4-2.2-0.9c-2-1.4-4.3-1.5-6.7-1.5c-0.8,0-1.6,0.3-2.2,0.8c-5.9,4.9-12,9.6-18.2,14.3c2.3-0.3,4.5-0.7,6.8-1
	c7.9-0.9,15.6-0.2,23.1,2.6c3.3,1.2,6.1,3.1,8.2,6c0.9,1.4,0.9,2-0.5,2.7c-7.4,3.7-15.1,6.6-23.5,7c-7.9,0.4-15.2-1.9-22-5.6
	c-1.2-0.7-2.4-1.3-3.5-2.1c-1.6-1.2-3-1-4.6,0c-5.3,3.2-10.9,6.1-16.4,9c-1,0.5-2.2,0.9-3.1,1.7c0.3,0.7,0.8,0.4,1.3,0.4
	c15.7,0.4,28.7,6.7,39.7,17.7c0.4,0.4,0.8,0.8,1,1.3c0.5,1,0,1.9-1.2,2.1c-0.2,0-0.3,0-0.5,0c-9.3,0.2-18.5,0.2-27.7-1.8
	c-9.1-2-17.2-6-24.1-12.2c-1.2-1.1-2.2-1.5-3.8-0.8c-3.3,1.4-6.7,2.5-10.1,3.8c-0.3,0.1-0.6,0.2-0.8,0.6c0.3,0.6,0.9,0.4,1.4,0.6
	c3.5,0.9,6.9,2.1,10.1,3.8c1.1,0.6,2.2,0.8,3.4,0.7c2.4-0.2,4.8-0.1,7.2-0.6c0.9-0.2,1.8-0.2,2.2,0.8c0.4,0.9-0.2,1.5-0.9,2
	c-1,0.8-2.6,1.4-2.6,2.6c0,1.2,1.6,1.8,2.6,2.6c4.2,3.8,7.9,7.9,11,12.6c0.7,1.1,1.6,2.1,1.6,3.7c2.4-0.4,4.4,0.1,5.6,2.1
	c0.8,1.4,0.6,2.4-1,4.7c0.7,0.4,1.5,0.8,2.2,1.3c0.9,0.6,1.6,0.6,2.6,0c2.1-1.3,5.1,0.3,5.5,2.8c0.3,1.5-0.4,3-1.7,3.6
	c-1.2,0.6-3.1,0.3-4.3-0.7c-0.5-0.5-0.7-1.3-1.4-1.6c-0.6,0.7-1.1,1.5-2,1.9c-1.6,0.7-3.2,0.2-4.4-1.3c-1.5-1.9-1.8-2-3.6-0.4
	c-2.3,2-5.7,1.4-6.9-1.2c-0.7-1.8-0.2-3.3,1.1-4.6c-0.3-0.8-1-1-1.6-1.3c-1.9,2.8-4.5,3.7-6.9,2.4c-2.2-1.2-2.6-3.3-1.2-6.5
	c-1.2-0.8-2.5-1.2-4.1-1.1c-1.4,0.2-2.7-0.4-3.7-1.3c-0.8-0.8-1.8-1.2-2.9-1.6c-4.4-1.4-8.8-2.9-13.5-4.4c0.9,1.7,1.9,2.6,3.3,3.3
	c5.5,2.6,8.2,7,8.1,13c0,2.1-0.2,4.1-0.4,6.2c-0.1,1.6-0.8,2-2.1,1.1c-4.9-3.3-8.1-7.9-9.4-13.7c-0.3-1.4-0.6-2.9-0.5-4.3
	c0-1.6-0.7-2.7-1.6-3.8c-1.9-2.5-4.3-4-7.4-4.8c-6.9-1.8-13.8-3.4-20.8-4.5c-0.8-0.1-1.7-0.3-2.7,0c2.2,2.4,4.2,4.6,6.3,6.8
	c0.1,0.1,0.2,0.3,0.4,0.3c3.3,0.6,5.6,3,8,5c0.7,0.6,1.2,0.6,2.1,0.4c2.4-0.6,4.9,1.9,4.6,4.4c-0.2,1.5-1.3,2.6-2.9,2.7
	c-0.6,0.1-1.3,0-2.1,0c0.2,1.1,0.7,1.9,1.7,2.4c2.8,1.3,5,3.4,7.3,5.4c0.9,0.8,1.7,1.4,3.1,1.2c2.3-0.2,3.9,1.6,3.8,3.9
	c-0.2,2.3-2.5,4.2-4.7,3.7c-2.4-0.5-3.8-2.5-3-4.8c0.4-1.1,0.3-1.6-0.6-2.1c-1.2-0.8-2.4-1.8-3.9-2.5c0.8,2.3,1.6,4.6,2.5,6.9
	c0.1,0.3,0.4,0.5,0.6,0.7c2.2,1.5,3.9,3.6,5.6,5.6c0.8,0.9,1.4,1.4,2.8,1.3c2.1-0.2,3.6,1.3,3.8,3.2c0.1,2.2-1.6,4.5-3.6,4.8
	c-2.2,0.4-4.2-0.7-4.7-2.7c-0.3-1-0.1-2,0.4-2.8c0.6-0.9,0.3-1.4-0.3-2.1c-0.9-1-1.8-2-3-3.2c-0.4,1.7,0.2,2.9,0.3,4.2
	c0.1,1.3,0.2,2.6,1.4,3.7c1.6,1.5,1.3,3.9-0.3,5.3c-1.7,1.4-4.6,1.3-5.9-0.1c-1.3-1.5-1.3-4.2,0.5-5.3c2-1.2,1.8-2.7,1.4-4.4
	c-0.5-2.9-1.1-5.7-2.3-9c-1,2.5-2.4,4.4-1.9,6.9c0.5,2.3-0.5,4-2.3,4.3c-2.2,0.5-4.2-0.6-4.8-2.6c-0.6-1.8,0.6-4.4,2.7-4.6
	c2.7-0.3,2.9-2,3.4-3.8c0.1-0.2,0.2-0.5,0.2-0.7c1-2.5,0.9-4.9-0.6-7.3c-1.3-2.1-2.5-4.3-4-6.3c-0.3-0.4-0.6-1-1.3-1.1
	c-0.4,0.9-0.7,1.8-1.1,2.6c-0.7,1.2-0.9,2.1,0.1,3.4c1.3,1.6,0.9,3.3-0.7,4.7c-1,0.9-2.1,1.4-3.5,1.4c-2.3,0-4.1-1.6-4.3-3.7
	c-0.2-2.2,1.5-4.5,3.7-4.5c1.7,0,2.1-0.8,2.7-2.1c1.7-4.2,1.7-4.2-1.2-7.7c-1-1.2-2.1-2.4-3.5-4c-0.3,2.2-0.4,3.9-0.6,5.6
	c-0.1,0.5,0.1,0.9,0.5,1.2c1.3,1.1,0.9,2.6,0.9,4c0,0.2,0,0.6-0.2,0.6c-1.4,0-2.4,1.5-4,1.1c-1.6-0.4-2.7-1.5-2.9-3.1
	c-0.2-1.6,0.6-3.2,2.2-3.6c1.6-0.4,1.8-1.2,1.8-2.5c0-0.3,0.1-0.6,0.1-1c0.5-5.5,1-3.8-2.7-7.7c-2.3-2.4-4.8-3.7-8.3-4
	c-12.6-1-25.2-1.6-37.9-0.5c-0.9,0.1-1.7,0.2-2.8,0.4c0.4,0.6,1,0.6,1.4,0.8c1.1,0.5,2.3,0.8,3.3,1.3c9.4,4.8,18.1,10.5,25.4,18.3
	c2.7,2.9,5.3,6,7.9,9c1.7,2,3.5,3.9,5.9,5.2c0.2,0.1,0.4,0.2,0.6,0.4c0.3,0.3,0.6,0.6,0.4,1c-0.2,0.5-0.6,0.8-1.1,0.7
	c-1-0.1-2-0.5-3-0.9c-4-1.8-7.9-3.9-11.5-6.4c-4.7-3.3-9.4-6.7-14.1-10c-4.6-3.3-9.2-6.4-14.2-8.9c-3.2-1.6-5.8-4-8.6-6.1
	c-2.9-2.2-6-3.5-9.8-3.1c-2.9,0.3-5.8,0.1-8.6,0.2c-0.6,0-1.3-0.2-2,0.3c2.2,2.3,4.7,4.3,7.1,6.3c4.4,3.4,9,6.7,13.5,10.1
	c11.8,8.8,18.5,20.5,19.9,35.2c0.3,3,0.1,5.9,0,8.9c0,0.4-0.1,0.8-0.1,1.2c-0.1,0.7-0.4,1.3-1.2,1.3c-0.8,0.1-1.1-0.5-1.4-1.1
	c-0.1-0.3-0.2-0.6-0.3-0.9c-0.5-2.6-2-4.6-3.6-6.7c-3.6-4.5-7.5-8.7-11.5-12.9c-6.5-6.8-11.7-14.4-15.3-23.1
	c-1.4-3.3-3.4-6.4-4.9-9.6c-1-2.1-2-4-3.5-5.7c-1.9-2.1-3.9-3.7-7.1-3.7c-6.1,0-12.1-0.4-18.3-0.7c0.2,0.3,0.3,0.6,0.5,0.7
	c6.3,2.7,10.6,7.6,14.4,13c4.6,6.4,7.3,13.6,8.4,21.5c0.2,1.5-0.4,2.6-1.7,3.1c-1.3,0.4-2.5,0-3.3-1.2c-0.8-1.3-1.4-2.7-1.8-4.2
	c-1.6-6.8-5.6-12.1-10.1-17.2c-0.8-0.9-1.8-1.5-3-1.7c-11.6-2.2-22.4-6.5-32.6-12.2c-1.2-0.6-2.3-1.1-3.6-0.9
	c-8.8,1.1-17.6,2.3-26.2,4.6c-3.6,1-6.8,2.8-10.2,4.1c-1,0.4-1.9,0.8-3,0.4c-1.1-0.3-1.9-0.9-2.2-2c-0.3-1.2,0.3-2,1.2-2.6
	c2.5-1.8,5.3-3.4,8.2-4.4c7-2.6,14.1-5.1,21.6-6.2c0.5-0.1,1.1,0,1.5-0.5c-0.2-0.6-0.8-0.8-1.2-1.1c-3.1-2.3-6.3-4.4-9.3-6.8
	c-1.7-1.4-3.5-1.5-5.4-0.9c-1,0.3-1.9,0.8-2.8,1.4c-4.7,3.2-9.9,5.6-15,8c-2.5,1.2-5.1,2.3-7.5,3.7c-10.3,5.9-21.3,10.2-32.9,13.1
	c-1.6,0.4-3.1,0.9-4.6,1.3c-2.3,0.6-4.6,1.2-6.5,2.9c-0.5,0.5-1.1,0.6-1.7,0.1c-0.5-0.4-0.5-1-0.4-1.5c3.2-17.1,13.8-27.4,30-32.4
	c8.8-2.7,17.8-2.9,26.9-2.2c4.1,0.3,8.1,0.3,12.2,1.1c0.1-0.5-0.3-0.7-0.6-1c-8.6-7-17.1-14.3-25.4-21.6c-2.4-2.1-4.9-2.5-7.7-2.1
	c-6.1,1-11.8,3.5-17.4,5.9c-5.7,2.4-11.6,4.1-17.7,5.1c-5.1,0.9-10.2,1-15.3,1.3c-4.3,0.3-8.6,1-12.9,1.5c-1.4,0.2-2.6,0.8-3.8,1.5
	c-0.6,0.4-1.3,0.7-1.9,1c-0.5,0.2-1,0.1-1.3-0.2c-0.5-0.4-0.5-1-0.2-1.5c0.2-0.4,0.5-0.8,0.8-1.2c11.9-14.4,27-20.7,45.6-18.4
	c7.2,0.9,14.4,1.8,21.7,2c1.2,0,2.3,0,3.9,0c-0.9-0.9-1.4-1.4-2-1.9c-2.3-2.2-4.6-4.2-6.7-6.5c-1.9-2-4.2-3.3-6.7-3.4
	c-7-0.4-13.7-2.2-20.5-3.5c-6.7-1.3-13.6-2-20.4-2.9c-6-0.8-11.9-1.7-17.5-3.8c-1-0.4-1.9-0.8-2.8-1.3c-0.4-0.2-0.7-0.7-0.4-1.2
	c0.2-0.4,0.6-0.5,1-0.5c0.2,0,0.3,0,0.5,0.1c4.1,1.2,8.1,0.2,12.1-0.2c5.5-0.6,11-1.2,16.5-0.7c7.4,0.6,14.8,1.7,21.9,3.8
	c1.7,0.5,3.4,1.3,5.4,2.2c-0.5-1.3-1.2-1.8-1.8-2.4c-8.9-10-19-18.5-29.6-26.6c-1.6-1.2-3.4-1.3-5.2-1.6c-2.1-0.3-4.6-0.6-6.4,0.3
	c-1.9,1-2.8,3.4-4.2,5.1c-0.7,0.8,0.2,1.3,0.4,1.9c0.7,1.7,0.4,3.3-0.9,4.4c-1.2,1-2.9,1.1-4.2,0.1c-1.3-0.9-1.7-2.3-1.4-3.8
	c0.3-1.5,1.1-2.4,2.7-2.5c1-0.1,1.4-0.5,1.9-1.2c0.8-1.2,1.7-2.3,2.7-3.7c-3.2-0.2-6,0.4-8.8,0.8c-0.3,0-0.7,0.3-0.8,0.5
	c-0.8,1.8-1.5,3.5-2.2,5.3c-0.2,0.5,0.2,0.9,0.6,1.2c0.7,0.5,1,1.2,1.3,2c0.6,2-0.3,4.1-1.9,5c-1.8,0.9-4,0.4-5.4-1.3
	c-0.5-0.6-0.8-1.4-1-2.1c-0.6-2.4,0.4-4.2,2.8-4.6c1.3-0.2,1.7-0.8,2-1.9c0.3-1.1,0.7-2.1,1.1-3.3c-2.4,0.1-4.5,0.7-6.6,1.3
	c-6.3,2-5.6,1.2-8.4,7.1c-0.2,0.4-0.4,0.9-0.6,1.3c-0.4,0.7-0.5,1.3,0.3,1.8c0.8,0.6,1.1,1.5,1.2,2.5c0.1,2-0.7,3.5-2.3,4
	c-1.7,0.6-3.9-0.2-4.8-1.8c-0.8-1.4-0.5-3.4,1.2-4.4c2.3-1.5,2.5-3.8,3.5-6.2c-1.4,0.3-2.2,0.9-3,1.5c-1.5,1-3,2.1-4.5,3.2
	c-1.5,1.1-2.9,1.9-2.2,4.4c0.5,1.6-0.5,3.1-2.1,3.9c-1.3,0.7-2.9,0.3-4-0.8c-1.2-1.3-2-2.7-1.3-4.6c0.5-1.5,1.6-2.4,3.2-2.4
	c1.2,0,1.9-0.5,2.8-1.2c1.2-1.1,2.5-2.1,4-3.3c-2-0.4-3.6,0.1-5.3,0.2c-0.9,0.1-0.9,0.8-1.1,1.4c-0.8,2-2.1,2.9-4,2.7
	c-1.7-0.2-3.2-1.6-3.6-3.4c-0.3-1.5,0.8-4.1,2.1-4.8c1.5-0.8,2.9-0.6,4.5,1c0.6,0.7,1.3,0.9,2.1,0.7c2.9-0.4,5.7-0.7,8.6-0.4
	c0.4,0,0.8-0.1,1.1-0.3c2.1-1,4.1-2.1,6.7-3.4c-2.3-0.3-4.1-0.5-5.9-0.6c-0.8-0.1-0.8,0.6-1,1.1c-0.9,1.9-2.4,2.6-4.3,2.2
	c-1.8-0.5-3-1.9-3-3.9c0-1.7,0.7-2.9,2.2-3.7c1.3-0.7,3.2-0.4,4.2,0.8c0.8,1,1.7,1.2,2.9,1.2c3.1,0.2,6.3,0,9.3,1
	c1.1,0.4,2-0.3,3-0.4c-0.4-0.8-1.2-1-1.7-1.5c-1.5-1.8-0.9-4.2,1.2-5.2c2.3-1,3.7-0.7,5.1,1.4c0.5,0.7,1,0.7,1.6,0.7
	c2.2,0.1,4.5,0.2,6.7,0.8c0.5,0.1,1.2,0.2,1.6,0.5c1.5,1.2,3,0.5,4.5,0.3c-0.1-0.9-0.8-0.9-1.2-1.2c-6.3-3.3-11.9-7.5-16.8-12.6
	c-1-1.1-2-1.2-3.4-1.2c-2.5,0.1-4.3,1.1-6.1,2.8c-5.1,4.7-11.2,6.5-18.2,5.6c-0.3,0-0.6-0.1-0.9-0.2c-1-0.3-1.3-1-0.6-1.8
	c2.1-2.5,3.9-5.3,6.6-7.3c3.7-2.8,7.7-3.3,12-2c1.6,0.5,3.1,0.7,4.7,0.2c-0.1-0.4-0.4-0.5-0.6-0.7c-4.3-2-8.4-4.3-12.9-5.8
	c-2.7-0.9-5.5-1.3-7.6-3.4c-0.4-0.4-1.1-0.6-1.8-0.5c-0.3,0.3-0.3,0.7-0.5,1.1c-1,2.2-2.8,3.3-5,2.8c-2.2-0.5-3.7-2.7-3.5-5
	c0-0.5,0.8-1.3-0.3-1.6c-0.8-0.2-1.4-0.4-1.6,0.9c-0.4,2.4-1.9,3.6-4,3.5c-2.2-0.1-3.8-1.7-4-4c-0.1-0.6,0.2-1.3-0.1-1.6
	c-0.5-0.7-1.2-1-2.3-0.8c-3.3,0.7-4.9-0.6-4.9-3.9c0-0.2,0-0.5-0.1-0.9c-1.2,0.2-2.3,0.6-3.5,0.1c-1.7-0.8-2.5-2-2.3-3.8
	c0.2-1.7,1.5-2.7,3.4-2.7c2.3-0.1,3.2,0.5,3.9,2.6c0.3,0.8,0.6,1.2,1.4,1.4c0.9,0.2,1.8,0.4,3,0.7c0-2.2,0.6-4,2.9-4.4
	c1.7-0.3,3.6,0.1,4.3,1.4c1,1.6,1.7,3.8-0.7,5.2c0.9,0.7,1.6,1.3,2.3,0c0.7-1.3,1.9-1.3,3.1-1.4c1-0.1,1.8,0.7,2.9,0.3
	c0.5-0.2,0.4,0.4,0.4,0.6c0.3,1.2,0.7,2.5,0.1,3.7c-0.4,0.8,0,1.2,0.7,1.4c1.6,0.5,3.2,0.9,4.8,1.5c0.8,0.3,1.2,0,1.4-0.8
	c0.4-1.5,1.2-2.6,2.7-3.1c2.9-0.9,7.5,2.7,7.5,5.8c0,0.8-0.9,1.7-0.1,2.4c0.6,0.5,1.6,0.8,2.4,1.1c2.1,0.9,4.1,1.7,6.3,2.7
	c0.1-0.8-0.4-1.2-0.8-1.7c-3.6-4.9-7-10-10.1-15.2c-1-1.7-1.8-3.4-2.4-5.2c-0.2-0.5-0.3-1.1-0.3-1.6c0-0.5,0.1-1,0.7-1.1
	c0.4-0.1,0.8,0.2,1,0.5c0.3,0.5,0.5,1,0.8,1.5c0.5,1,1.1,1.9,1.8,2.8c0.5-1.4,0.2-2.8,0.2-4.1c0-0.6-0.2-1.1-0.2-1.7
	c-0.1-0.8,0-1.7,0.9-2c0.8-0.3,1.4,0.1,1.8,0.8c1.2,1.6,2.6,3.1,4,4.5c1.9,1.9,3.7,3.7,5.6,5.6c3.2,3.2,5.6,7,6.9,11.4
	c0.9,3,2.7,5.6,4,8.5c0.4,0.9,1.2,1.5,2,2.1c4.4,3.6,9,6.8,14.2,9.4c3.2,1.6,6.3,3.4,9.7,5c-0.3-0.5-0.6-1-0.9-1.5
	c-11.4-16.2-20.8-33.6-27.8-52.2c-1.1-3-5.2-5.6-8.5-5.6c-19.4,0-38.9,0-58.3,0c-2.4,0-4.7,0-6.6-1.9c0-0.8,0-1.6,0-2.4
	c1.9-1.9,4.3-1.8,6.8-1.8c199.5,0,399,0,598.5,0c0.7,0,1.4,0,2.2,0C705.3,351.8,706.6,352.4,707.4,353.8z M125.1,386.9
	c-1.8-1.2-3.4-1.7-4.9-2.3c-0.5-0.2-1.1-0.5-1.2,0.5c-0.1,0.7-0.4,1.4,0.8,1.6C121.4,386.8,123,386.9,125.1,386.9z M144.8,408.7
	c0.4-0.3,0.7-0.6,1.1-0.9c1.3-0.8,2.6-1.5,3.9-2.3c-3.9,0.3-6.3,2.8-8.9,5.6c2.6,0.1,5.7-0.7,7.7-2.2c-1.1,0.2-2.1,0.5-3.2,0.8
	c-0.3,0.1-0.7,0-0.8-0.3C144.4,409.3,144.6,409,144.8,408.7z M157.7,387.5c-0.4-1-0.9-1.8-1.9-2.9
	C156.6,387.1,156.6,387.1,157.7,387.5z M164.3,391.5c-1.9-6.1-6.3-10.1-10.5-14.3c-0.1,2,0.4,3.7,1.1,5.4c0.2,0.4,0.3,0.8,0.8,0.4
	c1.1-1,1.5,0,2,0.7c1.7,2.3,3.4,4.6,5.1,6.9C163,391,163.3,391.5,164.3,391.5z M172.1,422.1c-1.1-0.1-1.9-0.5-2.5,0.6
	C170.5,422.9,171.1,422.6,172.1,422.1z M236.5,476.8c-1.1-0.4-2.1-0.5-3-0.4c-8.1,0.5-16.1,1.4-24.1,2.5c-5.7,0.7-11.4,1.9-16.4,5
	c-0.1,0-0.1,0.1-0.2,0.1c-0.5,0.3-0.9,0.2-1.2-0.3c-0.2-0.4,0-0.8,0.4-1c1.1-0.7,2.1-1.4,3.3-2c5-2.6,10.5-3.7,16.1-4.4
	c3.4-0.4,6.8-0.8,10.4-1.2c-9.2-2.7-29.2,2.7-37.8,13.1c1.3,0.2,2.4-0.3,3.6-0.5c6.7-1.2,13.5-1.5,20.2-2.3
	C217.7,484.1,227,480.5,236.5,476.8z M272.3,507.5c-1.7,0.3-3.3,0.5-5,0.8c-5.6,1.1-11.4,1.7-16.8,3.8c-6.1,2.5-12.4,4.6-17.9,8.5
	c-0.4,0.3-0.8,0.6-1.3,0.1c-0.4-0.5-0.1-0.9,0.3-1.2c0.3-0.3,0.7-0.7,1.1-1c1.7-1.4,3.6-2.6,5.7-3.5c3.8-1.8,7.7-3.5,11.6-5.2
	c2.9-1.3,6-2.3,9.1-3c3.2-0.8,6.3-1.7,9.7-2.6c-0.5-0.1-0.7-0.2-0.9-0.2c-6.2-0.1-12.5,0-18.6,1.1c-8.5,1.4-16.1,4.5-22.6,10.2
	c-5.3,4.6-9.1,10.2-10.4,17.5c1.2-0.5,2.3-0.9,3.4-1.3c6.2-2.6,12.7-4.3,18.9-6.9c11.4-4.8,22-11.3,33.3-16.3
	C272,508.1,272.3,507.9,272.3,507.5z M374.8,532.5c1.9,3.3,3.4,6.7,5,10c2.1,4.2,4.5,8.3,7.3,12.1c5.7,7.7,12.6,14.4,18.6,22.5
	c0.7-14-10.1-31.3-18.8-35.8c0.7,0.8,1.3,1.5,1.9,2.2c3,3.5,6.1,6.9,8.8,10.8c2.4,3.5,4.5,7.2,5.6,11.3c0.2,0.7,0.4,1.4,0.3,2.1
	c0,0.4-0.3,0.6-0.6,0.6c-0.2,0-0.5-0.1-0.6-0.3c-0.2-0.2-0.3-0.6-0.4-0.9c-1.4-5-4.3-9.3-7.5-13.3c-4.8-6.1-10.1-11.8-15.1-17.7
	c-0.9-1.1-2-2-3.1-3C375.9,532.9,375.6,532.4,374.8,532.5z M459.6,536.8c0.2,0.9,0.6,1.4,1.4,1.9
	C461.1,537.5,460.5,537.2,459.6,536.8z M485.1,543.1c1.2,2.5,2.3,4.7,4.3,6.5c0.3-3.5,0.3-6.9-2.2-10.2c-0.1,1.3,0.4,2,0.6,2.9
	c0.2,1,0.5,2,0.7,3c0.1,0.3,0,0.7-0.3,0.8c-0.4,0.2-0.8,0-1-0.4c-0.3-0.5-0.5-1-0.8-1.4C486.1,543.9,485.9,543.3,485.1,543.1z
	 M519,539.7c-0.6,1.6,0.6,1.3,1.6,1.6c-0.1-1.3,0.5-2.2,1.1-3.5c-1.1,0.4-1.8-0.2-2.7,0C518.9,538.5,519.3,539,519,539.7z
	 M517.7,542.9c1.3,1.1,2.3,2,3.4,2.8c1.5,1.2,1.5,1.2,2.9-0.7C521.9,544.2,520.2,543.1,517.7,542.9z M592.8,455.8
	c-4.7,2.6-9.6,3.3-14.3,5c10.1,2.5,19.2-0.7,28.6-4.3c-7.6-5-19.3-5.1-27.9,0.1C583.9,456,588.1,455,592.8,455.8z M181.7,358.2
	c-3.4,0-6.7,0-10.4,0c2.6,7,5.4,13.7,8.7,20.1C179.3,371.5,180.8,364.9,181.7,358.2z M275.4,472.9c2.2-6.9,1.9-14,1.1-20.9
	c-0.8-6.9-2.9-13.6-4.8-20.3c-1.2-4-2.9-7.8-4.8-11.5c-0.2-0.5-0.4-1.1-1.2-1.4c-0.2,1.9-0.3,3.7-0.6,5.5c-0.8,4.9-1.9,9.7-2.4,14.7
	c-0.4,4-1.2,8.1-0.3,12.2c1.6,7.6,3.7,15,7.3,22c0.2,0.3,0.3,0.8,0.9,0.6c0-1.7,0-3.3-0.2-5c-0.4-3.3-0.8-6.5-0.9-9.8
	c-0.2-9.3-0.5-18.7-1.8-28c-0.1-0.7-0.8-1.8,0.3-2.1c1.3-0.4,1.2,1,1.4,1.8c0.8,3.9,1.6,7.8,2.2,11.8c1.4,10.4,2.2,20.8,2.9,31.3
	c0,0.2,0,0.5,0.4,0.4c0.1-0.1,0.2-0.2,0.3-0.4C275.2,473.5,275.3,473.2,275.4,472.9z M300.6,496.6c1.9-4.8,4.6-9.1,6.5-13.9
	c2.2-5.7,3.4-11.6,3.3-17.8c-0.2-10-2.4-19.7-5.2-29.4c-1,0.7-1.4,1.6-1.9,2.5c-1.4,2.3-2.8,4.5-4.4,6.6c-7,9.7-8.8,20.7-7.9,32.4
	c0.4,5.1,2.2,9.8,3.9,14.5c0.2,0.6,0.2,1.3,0.9,1.6c0.1-0.2,0.2-0.3,0.2-0.5c0-0.7,0-1.4-0.1-2.2c-1.1-10,0.3-19.8,2.5-29.5
	c0.6-2.7,1.5-5.2,2.9-7.6c0.3-0.5,0.6-1.3,1.4-0.9c0.6,0.4,0.3,0.9,0.1,1.5c-0.7,1.6-1.3,3.3-1.6,5
	C298.5,471.4,298,483.9,300.6,496.6z M332.9,526.1c-0.1-0.7-0.8-0.7-1.2-0.9c-2.4-1.1-4.9-2.3-7.4-3.3c-0.5-0.2-1.1-0.8-1.9-0.2
	C325.9,523.3,329.2,525.1,332.9,526.1z M335,527c-0.8-0.6-1.3-1.1-2.1-0.9C333.4,526.7,334,526.8,335,527z M481.4,517.8
	c-1.4-1.7-2.8-3.1-3.9-4.7c-0.9-1.3-1.9-1.4-3.3-0.9c-6.2,1.8-12.6,2.7-19.1,2.9c-5.3,0.2-10.7,0.3-16,0.5c-0.8,0-1.7-0.2-2.6,0.6
	c0.5,0.1,0.8,0.2,1.1,0.2c7.2,0.6,14.4,1.7,21.5,3.5c3.6,0.9,7.2,1.3,10.9,1.1C474,520.8,477.5,519.3,481.4,517.8z M495.1,529.5
	c-1.7-1.2-3.4-2.3-5.1-3.5c-0.3-0.2-0.7-0.3-1.1-0.3c-4,0.2-7.7-0.9-11.6-1.6c-0.6-0.1-1.2-0.4-2,0.3c5.4,1.9,10.7,3.8,15.9,5.7
	c1.1,0.4,2.1,0.8,3.1,1.2c0.5,0.2,0.9,0.1,1.1-0.5C495.7,530.2,495.5,529.8,495.1,529.5z M512.8,535.9c-2-0.5-3.9-1-5.7-1.5
	c-0.6-0.2-1.3-0.4-1.6,0.4c-0.4,0.9,0.5,1,0.9,1.3c1.2,0.6,2.4,1.2,3.6,1.8c1.5,0.8,1.5,0.8,2.3-0.9
	C512.4,536.7,512.6,536.4,512.8,535.9z M485.3,515.5c-0.1,0.6,0.1,0.8,0.3,1.1c3.6,4.1,7.6,7.8,12.3,10.6c0.8,0.5,1.7,0.8,2.7,0.9
	c2.1,0.3,4.4,0.4,5.6,2.7c0.1,0.2,0.4,0.3,0.6,0.4c2.8,0.9,5.6,1.6,8.6,1.7c-3.6-6.7-20.6-19.2-28.2-20.5c3.5,2,6.6,3.6,9.6,5.7
	c2.9,2,5.5,4.5,7.3,7.7C497.6,522.4,491.8,518.4,485.3,515.5z M495.3,489.7c2.7-6.8,3-21,0.4-26.5c-0.9,1.5-1.8,2.9-2.6,4.4
	c-2.6,4.4-4.9,9-6.3,13.9c-1.5,5.4-1.1,10.6,1.2,15.7c0.3,0.8,0.6,1.7,1.6,2.1c2.9-6.6,2-13.9,3.4-21.3
	C495.3,482,495.2,485.9,495.3,489.7z M507.9,501c7.9,1.5,15.7,2.4,21.9,7.7c-1.7,0.1-3.2-0.3-4.7-0.7c-1.6-0.3-3.1-0.7-4.7-1.1
	c-1.6-0.3-3.1-0.7-4.7-1c-1.6-0.3-3.1-0.7-4.7-0.9c-1.5-0.2-3-0.3-5-0.5c12,9.1,29.4,12.9,42.9,11.1C540.2,506,520,498.2,507.9,501z
	 M528.5,466.4c0.1,1.1,0.2,2.2,0.1,3.3c0,1.5-0.5,3-0.1,4.5c2.7-7.8,3.4-15.6,1.5-24.1c-1.5,2.1-2.5,4-3.4,6
	c-2.7,5.5-4.7,11.2-4.9,17.4c-0.1,2.8,0.1,5.5,1.6,8.6c0.6-3.3,1.1-6.1,1.5-9c0.4-2.2,0.7-4.4,1.1-6.6c0.1-0.8,0.4-1.4,1.3-1.4
	C528.2,465.1,528.4,465.7,528.5,466.4z M547.6,480c-0.5,0.1-1,0.2-1.3,0.9c3.8,0,7.4,0.2,11,0.5c3,0.3,5.9,0.9,8.5,2.2
	c0.5,0.3,1.2,0.3,1.4,1.4c-4.5-0.4-9-0.8-13.4-1.1c-4.5-0.3-8.9-0.4-13.5,0.4c7.2,5.3,15.4,7.3,24.3,6.8c6.6-0.4,15-3.3,17.2-6
	c-1.1-0.9-2.5-1.5-3.8-2c-3.8-1.6-7.9-2.6-12-3.3C559.9,478.8,553.7,478.6,547.6,480z M551.2,432.3c-3.8,6.2-1.8,20.8,4,26.5
	c0.3-4.8-0.8-9.4-1.4-14.4c1.9,1.9,2.8,3.8,3.4,5.9c0.8,2.8,0.9,5.7,1,8.5c0,0.8-0.1,1.7,0.4,2.6
	C562.2,451.6,556.4,436.8,551.2,432.3z M576,414.2c-5,8.6-1.5,24,3.7,26.5c0.1-2.9-0.5-5.6-1-8.3c-0.5-2.7-1.3-5.3-2.1-8.3
	c3.4,2.7,4.5,6.1,5.3,10.1C583,430.1,579.6,419.1,576,414.2z M594.2,438.8c7.3,2.7,19.6-0.4,25.7-5.8c-2.8-0.8-8.9-1-13.4-0.2
	c2.6,0.4,4.8-0.1,7.3,0.8c-2.4,1.3-4.7,1.8-7,2.3c-3.4,0.7-6.8,1-10.1,1.9C595.8,438,594.9,438.1,594.2,438.8z M600.1,419.2
	c-1.7-4.3-0.8-8.2,1.6-12.1c2.5-4.2,4.1-8.8,3.2-14c-0.3-1.7-0.2-3.5-0.2-5.3c0.1-4.7,0.3-9.4,0.6-14.1c0.3-4.7,0.8-9.4,2-14
	c0.1-0.5,0.5-1,0-1.7c-0.9,0-1.9,0-3,0c-138,0-276,0-414,0c-0.6,0-1.1,0-1.7,0c-1.3-0.1-1.8,0.4-2,1.7c-1,5.3-1.9,10.5-2.7,15.8
	c-0.8,5.1-0.4,10,2.1,14.7c7.8,14.4,16.9,27.9,27.5,40.4c0.6,0.7,1.1,1.4,1.8,1.9c6.6,5.3,12.4,11.4,18.1,17.5
	c0.3,0.4,0.6,0.9,1.4,0.9c-1-4-1.9-7.9-2.1-11.9c-0.3-3.8-1.9-6.2-5.1-7.9c-0.1-0.1-0.3-0.2-0.4-0.3c-0.6-0.5-1.1-0.7-1.9-0.1
	c-2.3,1.7-5.4,0.1-6.6-2.3c-0.9-1.8-0.8-3.4,0.6-4.9c1.3-1.4,2.8-2.5,4.9-1.9c1.8,0.5,3.1,2,3,4.1c0,1.6,0.6,2.5,1.9,3.1
	c0.5,0.3,0.9,0.9,1.7,0.8c-0.2-1.7-0.6-3.3-1.1-4.9c-1.7-5.2-0.5-3.9-5.5-6c-0.6-0.2-1.2-0.4-1.8-0.7c-0.6-0.3-1.1-0.3-1.7,0.1
	c-2.6,1.5-4.7,1.1-6.6-1.1c-1.1-1.4-1.4-3.6-0.5-5.2c0.8-1.5,3-2.6,4.9-2.5c1.9,0.2,2.9,1.5,3.6,3.1c0.2,0.4,0.2,0.8,0.2,1.2
	c0,0.8,0.4,1.3,1.2,1.6c1,0.3,1.8,0.9,3.2,0.8c-0.9-1.8-1.7-3.4-2.4-5.1c-0.9-2.1-2.1-3.9-4.6-4.4c-0.7-0.2-1.4-0.8-2.1-1.2
	c-1-0.6-2.1-1.2-3.1-1.8c-1.8,2.5-3.5,3.2-5.5,2.4c-1.7-0.7-2.8-2.3-2.6-4.2c0.1-0.9,0.5-1.6,1.1-2.3c1-1.2,2.3-1.7,4-1.7
	c-2.1-2.6-2.4-4.3-1.3-6.5c0.7-1.6,1.9-2.5,3.7-2.5c1.7,0,3.2,1,3.8,2.7c0.4,1,0.5,2,0.4,3.1c-0.1,0.5-0.2,1.1,0.2,1.6
	c1.6,1.9,3.1,3.8,4.9,5.9c0.2-1.7-0.2-2.9-0.6-4.1c-0.3-0.8-1.4-0.7-2-1.2c-1.6-1.1-2.4-3.1-1.9-4.7c0.7-2.2,2.1-3,4.3-3.2
	c1.8-0.2,3.7,1.1,4.4,2.8c0.7,1.7,0.2,3.6-1.4,4.9c-0.9,0.7-1,1.3-0.8,2.2c0.4,1.5,0.8,3,0.9,4.5c0.1,3,0.8,5.8,2.3,8.4
	c0.4,0.8,0.7,1.6,1.1,2.4c0.6,1.3,0.9,2.7,1.8,3.9c0.7-1.3,0.6-2.7,0.9-3.9c0.3-0.9,0-1.5-0.9-1.9c-1.2-0.7-2.1-1.7-2.3-3.2
	c-0.4-2.5,0.8-4.1,3.9-5.1c1.9-0.6,3.3-0.1,4.3,1.6c1.3,2.1,0.7,5.3-1.3,6.6c-1,0.6-1.2,1.4-1.3,2.3c-0.4,2.7-0.8,5.4-1.1,8.1
	c-0.1,0.7-0.5,1.3-0.3,2.1c0.7,3.1,1.3,6.2,2.1,9.8c1-1.9,1.8-3.4,2.6-4.9c0.5-0.8,0.7-1.5,0.2-2.5c-0.5-1.1-0.4-2.4-0.2-3.5
	c0.2-1.6,1.5-2.8,3-3.1c1.5-0.3,2.9,0.5,3.8,1.9c1.6,2.7,0.4,6.1-2.7,6.9c-1.1,0.3-1.6,0.7-2,1.7c-1.1,2.5-2.2,5-3.2,7.5
	c-0.3,0.9-0.9,1.6-0.7,2.7c0.7,3.5,1.2,6.9,1.8,10.4c0.4,2.8,1.5,5.1,3.7,7c1.4,1.2,2.6,2.6,3.9,3.9c8.4,8.3,17.7,15.7,26.6,23.5
	c0.3,0.2,0.5,0.6,1,0.4c-0.3-3.8-1.5-7.1-4.1-9.9c-0.3-0.3-0.5-0.6-0.8-0.9c-2.3-3.3-4.6-6.6-5.8-10.4c-0.9-2.6-1.5-5.2-2.3-7.8
	c-1.5-4.5-1.9-9.1-1.5-13.7c0.2-2.9,0.5-5.9,1-8.8c1.3-7.5,3.6-14.8,4.2-22.4c0.1-0.7,0.4-1.3,1.1-1.3c0.8-0.1,1,0.5,1.2,1.2
	c0.7,2.4,1.9,4.6,3.1,6.7c2.4,4.5,4.5,9,5.9,13.9c1.5,5.3,2.9,10.6,4,16.1c1.2,6.2,1.2,12.4,0.6,18.6c-0.4,4.3-2,8.4-3.2,12.5
	c-0.8,2.9-0.8,5.6,0,8.5c0.4,1.4,1,2.5,2.2,3.3c2,1.3,3.8,2.9,5.7,4.4c4.3,3.5,8.7,7,13.3,10.3c0.4,0.3,0.8,0.8,1.7,0.6
	c-1.3-2.6-2.4-5.1-3.8-7.4c-1.9-3.2-3.5-6.5-5-9.8c-3.1-7.4-4.6-15-3.4-23c1-6.9,3-13.6,6.7-19.6c2.8-4.5,6-8.6,9-13.1
	c0.7-1.1,1.6-2,2.5-2.9c1-0.9,2.3-0.7,3,0.5c0.4,0.6,0.4,1.4,0.5,2.1c0.2,1.8,0.4,3.7,1.1,5.4c1.8,4.6,2.8,9.5,3.8,14.3
	c2.5,12.1,1.3,23.7-5.2,34.5c-1.4,2.3-2.7,4.7-4,7.1c-1.5,2.7-2.2,5.6-2.1,8.8c0.1,2,1,3.9,1.5,5.8c0.5,2.1,1.2,2.5,3.6,2.3
	c0-0.5-0.5-0.8-0.7-1.2c-0.6-0.9-0.7-1.8-0.2-2.7c0.5-1,1.4-1.5,2.6-1.5c0.8,0,1.6,0.4,2.3,0.7c2.1,1.1,4.2,2.3,6.4,3.4
	c2.5,1.2,5,2.6,7.8,3c2.1,0.3,4.2,0.4,6.2,1c3.9,1.2,6.8-0.5,9.6-2.9c0.9-0.8,1.5-1.9,2.1-2.9c1.3-2.3,2.5-4.7,3.7-7
	c1.8-3.6,4.1-6.9,6.8-9.8c3.7-3.9,7.5-7.6,12.1-10.5c5.5-3.6,10.9-7.2,16.9-10.1c5-2.5,10.6-3.5,15.5-6.3c0.1,0,0.1-0.1,0.2-0.1
	c0.9-0.2,1.6,0.5,1.3,1.4c-0.1,0.4-0.4,0.7-0.6,1c-3,4.3-5.8,8.6-8.4,13.1c-3.2,5.8-6.8,11.3-11.5,15.9
	c-6.7,6.4-14.5,10.9-23.6,13.2c-1.7,0.4-3.4,0.8-5.2,0.9c-3.4,0.3-5.8,2.2-8.4,4.2c0.9,0.6,1.7,0.4,2.5,0.5c2.6,0.1,5.1,0.2,7.7,0.3
	c11.3,0.6,22.5,1.1,33.8,0.3c1.3-0.1,2.5-0.4,3.6-1.2c3.2-2.1,6.2-4.5,9.3-6.8c1.4-1,2.3-2.3,2.7-3.8c0.7-2.5,1.7-4.8,2.6-7.2
	c0.3-0.9,0.4-1.6-0.3-2.6c-1.8-2.6-0.4-5.9,2.7-6.9c1.5-0.5,2.9-0.2,3.9,1c1,1.1,1.2,2.8,0.4,4.2c-0.7,1.2-1.6,2.2-2.9,2.8
	c-0.4,0.2-0.9,0.3-1.1,0.9c-0.5,2-1.1,3.9-1.7,6.4c3.1-2.2,5.7-4,8.4-5.9c0.2-0.2,0.4-0.5,0.6-0.7c1.6-2.7,3.3-5.3,5.3-7.7
	c0.5-0.7,0.9-1.3,0.5-2.2c-0.7-1.8,0.2-3.3,1.3-4.6c1.3-1.5,3.3-2,4.8-1.3c1.4,0.6,2.9,3.5,2.7,5c-0.3,2.6-2.1,4.2-4.8,3.8
	c-1.8-0.3-2.7,0.5-3.4,1.8c-0.4,0.8-1.1,1.4-1.2,2.2c0.3,0.3,0.5,0.2,0.7,0.1c2.9-1.4,5.8-2.7,8.8-3.8c0.7-0.2,1.3-0.7,1.8-1.2
	c1.8-1.8,3.7-3.3,5.8-4.6c1-0.6,1.5-1.3,1.2-2.5c-0.2-1,0-1.9,0.5-2.8c1.1-1.8,3.3-2.5,5.2-1.8c2.2,0.8,3.3,2.9,3,5.1
	c-0.1,0.7-0.9,1.4-0.3,2.3c1.7-1.5,3.6-1.7,5.2-0.7c1.6,1.1,2.2,3,1.4,5.1c-0.9,2.5-2.8,3.5-5.3,3.5c0.1,0.3,0.3,0.5,0.6,0.7
	c1.5,1.1,1.4,4.4,0.6,5.6c-1,1.5-3.1,2.1-4.9,1.5c-2-0.7-2.8-2-2.6-4.5c0.1-0.7-0.1-1-0.7-1.2c-2.4-0.6-4.9-0.8-7.1-2
	c-0.4-0.2-1-0.1-1.4,0c-2.7,0.9-5.4,1.8-8.1,3.2c2.1,1.2,3.7,2.3,5.9,0.4c1.5-1.3,3.8-0.8,5.1,0.4c1.5,1.5,2,4,1.1,5.7
	c-1,1.8-2.5,2.7-4.5,2.6c-2.3-0.1-3.8-1.2-4.5-3.3c-0.2-0.7-0.2-1.4-1.1-1.7c-1.7-0.5-3.3-1.2-4.9-1.8c-0.5-0.2-1.1-0.5-1.6-0.2
	c-2.7,1.4-5.3,2.8-7.7,4.8c0.8,0.5,1.5,0.3,2.2,0.6c1.2,0.4,2,0.1,2.9-0.8c1.5-1.7,3.5-2,5.2-1.2c1.6,0.7,2.5,2.7,2.4,4.9
	c-0.1,2.1-1.5,3.6-3.8,4.1c-2.2,0.4-4.6-0.3-5.1-2.1c-0.6-2-1.8-2.3-3.5-2.3c-0.6,0-1.1-0.1-1.7-0.3c-1.6-0.3-2.9,0.1-4.2,1.1
	c-3.4,2.8-6.9,5.5-10.5,8c-0.4,0.3-1.1,0.4-1,1.2c6.4-0.4,12.8-0.9,19.2-0.8c1.5,0,2.9-0.2,4.2-0.6c4.5-1.5,9.1-2.4,13.9-2.3
	c6.9,0.1,13.8,0.1,20.6,0.1c5.4,0,10.7-0.4,15.9-2c6.3-1.9,12.4-4.1,18.6-6.2c0.1,0,0.2-0.2,0.3-0.4c-0.1-0.8-0.7-1.4-1.1-2.1
	c-2.7-4.4-3.8-9.1-3.5-14.2c0.3-4.2,1.6-8.1,3.2-12c2.2-5.1,5.1-9.8,7.9-14.5c1.8-3.1,2.8-3.1,4.8-0.1c0.6,0.9,1.1,2,1.4,3
	c0.5,1.6,0.8,3.3,1,4.9c1,10.5-0.4,20.6-4.3,30.3c-0.1,0.3-0.5,0.7,0,1.2c1.6-0.7,3.3-1.4,5-2.1c6.3-2.8,12.5-5.7,18.6-8.9
	c2.1-1.1,2.1-1.1,1.1-3.2c-1.7-3.4-2.6-7-2.6-10.9c0-10.6,4.1-19.8,10.2-28.1c1.1-1.6,2.1-1.4,3.1,0.3c1.6,2.6,2.4,5.4,2.6,8.4
	c0.6,9.4-1.5,18.2-5.4,26.7c-0.3,0.7-0.9,1.3-0.8,2.4c0.6-0.3,1-0.5,1.5-0.8c5.7-3.2,11.3-6.7,16.7-10.3c2.5-1.7,4.9-3.4,7.3-5.1
	c2.2-1.6,2.2-1.6,0.5-3.7c-1.4-1.8-2.7-3.6-3.9-5.5c-3.6-5.8-5.4-12-5-18.9c0.3-4.2,2.2-7.8,3.3-11.7c0.4-1.6,1.7-1.8,2.9-0.5
	c2.2,2.3,4.1,4.9,5.7,7.7c4.5,7.5,6.1,15.5,4.6,24.2c-0.1,0.6-0.4,1.3,0,2.1c6.2-5.1,12.1-10.3,17.4-15.9c-0.2-0.7-0.6-1.1-1.1-1.4
	c-5.3-4.8-7.7-10.9-7.9-17.9c-0.2-5.3,0.7-10.5,2.4-15.6c0.3-0.8-0.2-2.2,1.1-2.3c1-0.1,1.8,0.5,2.6,1c0.8,0.5,1.4,1.1,2,1.8
	c1.3,1.6,2.2,3.3,3,5.2c2.7,6.4,4,13,3.8,19.9c0,0.8,0,1.7,0,2.6c0.3-0.1,0.5-0.1,0.6-0.2c5-5.5,9.5-11.4,13.8-17.5
	C600.3,420.6,600.4,419.9,600.1,419.2z M446.1,484.1c-0.2,0-0.5-0.1-0.7,0c-1.8,1.1-3.6,1.6-5.6,0.5c-0.4-0.2-0.8,0-1.1,0.2
	c-0.9,0.7-1.9,1.3-2.8,2.4c1.9-0.2,3.4-0.5,5-0.6c1.8-0.2,3.6-0.4,4.6-2.3C445.5,484.2,445.8,484.2,446.1,484.1
	C446.1,484.1,446.1,484.1,446.1,484.1z M444.6,490.1c-0.3-0.4-0.7-0.7-1.2-0.6c-1.8,0.3-3.6,0.4-5.6,1.2c1.3,0.4,2.3,0.6,3.2,0.9
	c0.9,0.2,1.8,0.8,2.8,0.4c1.1-0.4,2.2-0.2,3.3-0.2C446.2,491.5,445.2,491.1,444.6,490.1z M384.4,477.2c-0.2,0.2-0.4,0.3-0.6,0.4
	c-5.9,4.8-11.5,10-16.7,15.4c-3.4,3.5-6.8,7-10.6,10c-1.5,1.2-3,2.5-4.2,4.1c0.4,0.3,0.7,0.2,1,0.1c2.4-1,5-1.8,7.3-3.1
	c14.1-8.1,14.4-7.4,23.9-21.1c3-4.3,5.4-8.9,9.3-13.2c-2.2,0.4-3.7,1.1-5.3,1.7c-8,3.1-15,8.1-22.1,12.8c-5.1,3.4-9.1,7.8-13,12.3
	c-2,2.3-3.5,5.1-4.5,8c3.7-4,8.1-7,12-10.7c6.4-6.1,13.1-11.7,20.3-16.8c0.8-0.6,1.6-1,2.5-1.5c0.3-0.2,0.8-0.3,1.1,0.1
	C385,476.4,384.8,476.8,384.4,477.2z M217.1,400.1c-1-1.8-2.4-2.3-4.3-1.6c1.1,2.8,3.7,3.4,6.1,4.4
	C218.4,402,217.6,401.1,217.1,400.1z M617.3,393.8c-1.2,2-2.4,3.8-3.8,5.3c-1.9,2-3.8,4.1-5.7,6.2c-1.8,2.1-3.7,4.2-4.7,6.9
	c-0.6,1.5-1.1,3-0.6,5.2c2.8-4.5,5.4-8.5,7.9-12.5c-0.7,7.8-5.8,13.3-9.4,19.6C614.3,418,620.4,403.3,617.3,393.8z M632.4,358
	c-5.8,0-11.4,0-17,0c-0.9,0-1.3,0.3-1.3,1.3c0,0.6,0,1.3,0,1.9c0.1,8.9-0.4,17.9-0.9,26.8c-0.1,1.2-0.3,2.4-0.5,3.9
	C615.5,388.8,630.4,363.1,632.4,358z M650.5,358.2c-0.8-0.1-1.2-0.1-1.7-0.1c-3.6,0-7.2,0.1-10.8,0c-1.9-0.1-2.9,0.7-3.7,2.3
	c-2.9,6.1-6.3,12-9.7,17.9c-0.3,0.5-0.8,1-0.6,1.8C633,373,642.4,366.6,650.5,358.2z M626.8,205c0,3,3,5.8,6.4,5.8
	c3.4,0,6.2-3.2,6.1-7c0-3.2-2.7-5.7-6.1-5.7C629.6,198.1,626.8,201.1,626.8,205z M620.5,185.2c0.2,4,2.5,6,5.3,5.9
	c3,0,5.3-2.6,5.2-6c0-3.1-2.4-5.6-5.4-5.6C622.7,179.5,620.4,181.9,620.5,185.2z M334.3,46.9c2.5,1.5,5,1.5,7.5,0.1
	c2.6-1.4,3.7-3.8,3.8-6.4c0-3.6-2.3-6.8-5.2-7.6c-4.6-1.2-7.7,1.3-8.8,5.7C330.6,42.6,331.5,45.2,334.3,46.9z M379.3,38.9
	c1.6-0.3,3-1.1,4-2.5c2.3-3.1,1.4-6.6-2.2-8.2c-0.2-0.1-0.4-0.3-0.6-0.4c-0.8,0-1.6,0-2.4,0c-0.3,0.6-1,0.5-1.4,0.7
	c-1.8,1-2.9,2.5-3.3,4.5C372.7,36.7,375.7,39.7,379.3,38.9z M707.4,229c0,1,0,1.9,0,2.9c-0.9,1.2-2,1.7-3.5,1.6c-0.6,0-1.3,0-1.9,0
	c-199.8,0-399.6,0-599.4,0c-0.2,0-0.5,0-0.7,0c-2.2,0.3-4.1-0.3-5.5-2.1c0-0.6,0-1.3,0-1.9c1.5-1.8,3.6-2,5.8-2
	c12.6,0.1,25.3,0,37.9,0c0.9,0,1.7,0,2.5,0c0.6-0.6,0.4-1.2,0.2-1.7c-2.2-8.7-3-17.5-3.2-26.4c-0.1-1.8-0.2-3.7-0.4-5.5
	c0-0.6-0.1-1.3-0.1-1.9c0-0.7,0.3-1.1,1-1.2c0.8-0.1,1.2,0.3,1.3,1.1c0.3,1.8,0.5,3.6,0.8,5.5c1.4,8.2,3.6,16.2,6.2,24.1
	c0.4,1.1,0.8,2.3,1.1,3.4c0.7,2.9,0.3,2.5,3.5,2.5c1,0,1.4-0.3,1.6-1.3c0.3-1.7,0.8-3.4,1.2-5.1c0.7-3.1,1.6-6.2,2.7-9.2
	c0.4-1.2,0.6-2.2-0.2-3.4c-0.7-1-1.4-1.7-2.8-1.8c-2-0.1-3.3-1.7-3.5-3.6c-0.1-1.8,1-3.3,2.8-4c1.9-0.7,3.9,0,4.9,1.5
	c0.6,0.9,0.6,1.8,0.4,2.8c-0.3,1.1-0.3,2,0.7,2.9c0.8-0.8,1.1-1.7,0.9-2.6c-0.3-1.6-0.7-3.3-1.2-4.9c-0.1-0.5-0.6-0.7-1-1
	c-1.9-1.4-2.2-3.9-0.9-6.2c1.2-2,3-2.5,5.3-1.4c0.3,0.1,0.5,0.3,0.9,0.3c0.8-2.5,1.6-5,2.4-7.5c0.9-2.8,2-5.6,3.4-8.2
	c0.6-1.2,0.5-2-0.3-3c-2.2-2.5-4.4-5.1-6.4-7.8c-5.3-6.8-9-14.4-10.2-23c-0.5-3.8-0.8-7.6-1.1-11.5c-0.2-2-0.4-4-0.5-6
	c-0.1-0.9-0.1-1.8,0.8-2.3c1.1-0.6,1.8,0.1,2.5,0.8c9.8,9.3,17.1,20.1,19.9,33.5c0.3,1.3,0.5,2.7,0.6,4c0.1,1.2,0.2,2.5,0.3,3.8
	c0.9,0,0.9-0.7,1.2-1.1c1.9-3.3,3.7-6.6,5.6-9.8c0.7-1.2,0.8-2.2,0-3.5c-6.9-10.7-9.3-22.5-8.6-35c0.4-6.9,1.5-13.7,2.8-20.4
	c0.1-0.4,0.1-0.8,0.3-1.2c0.4-1.4,1.6-1.8,2.7-0.8c0.4,0.3,0.6,0.7,0.9,1.1c8.5,11.9,12.8,25.1,11.8,39.9c-0.1,1.8-0.7,3.6-0.4,5.4
	c0.8-0.1,1-0.7,1.3-1.1c4.2-5.8,8.6-11.5,13.3-17c1.4-1.6,1.6-3.1,0.7-5c-2.3-5.2-3.8-10.7-4.2-16.4c-0.5-7.3,1-14.1,4-20.7
	c2.1-4.6,4.8-8.9,7.8-12.9c1.3-1.9,2-1.9,3.6-0.2c2.3,2.4,3.6,5.3,4.3,8.4c1.9,9.1,1.1,18.1-1.7,27c-0.5,1.7-1.1,3.3-1.8,5.2
	c1.1-0.5,1.6-1.2,2.2-1.8c4.7-4.7,9.4-9.4,14.6-13.5c3.1-2.5,3.6-5.8,2.6-9c-2.1-6.7-1-13,1.7-19.1c2.3-5.1,4.9-10.1,7.4-15.1
	c0.6-1.2,1.2-2.5,1.8-3.6c1-1.8,2.5-1.7,3.4,0.1c4.2,8.5,5.4,17.2,1,26.1c-1.5,3.1-3.2,6.1-5.2,8.9c-0.5,0.7-0.9,1.3-1.4,2.1
	c0.8,0.2,1.1-0.3,1.5-0.6c4.2-3.1,8.5-6,13-8.6c1.4-0.8,2-1.8,1.7-3.5c-1.7-8.6,0.6-16.3,5.2-23.5c2.5-3.9,5.4-7.3,8.7-10.5
	c0.6-0.6,1.1-1.2,2.1-0.9c0.9,0.3,0.9,1.2,0.9,2c0.2,10.4-2,20.2-7.8,29c-0.2,0.3-0.3,0.6-0.6,1.1c1.8-0.3,3.1-1.1,4.2-2.3
	c0.6-0.7,1.2-1.5,1.6-2.4c9.9-17.6,28.9-20.1,41.8-15.6c1.5,0.5,3,1,4.2,2.2c1.6,1.6,1.1,3.9-1.1,4.2c-5.4,0.7-9.9,3.6-14.2,6.6
	c-2.6,1.8-5.3,3.6-8.3,4.8c-4,1.7-7.9,1.7-11.7-0.6c-0.8-0.5-1.5-0.8-2.4-0.3c-7.1,3.4-14,7.1-20.6,11.2c-0.2,0.1-0.4,0.3-0.4,0.7
	c0.8,0.1,1.8,0.1,2.7,0.3c6.6,0.9,12.7,3.2,18.4,6.4c2.1,1.2,4,2.6,5.7,4.3c1.4,1.4,2.3,3,2.7,5c0.1,0.8,0.1,1.6-1.1,1.6
	c-3.5,0.2-7,0.8-10.5,0.6c-3.5-0.1-7-0.6-10.4-1.6c-6.1-1.8-10.9-5.3-14.3-10.7c-0.9-1.5-1-1.5-2.4-0.5c-6.2,4.4-12.1,9.1-17.9,14.1
	c-0.1,0.1-0.2,0.3-0.3,0.4c0.5,0.7,1.2,0.3,1.7,0.3c13.2-0.1,23.2,6.1,31.2,16.1c1.4,1.7,1,2.9-1.2,3.2c-5.8,0.8-11.6,2.2-17.6,0.3
	c-6-1.8-11-5-15.4-9.4c-1.2-1.2-2.3-2.4-3.5-3.7c-1.3-1.4-1.6-1.4-2.9-0.1c-2.1,2-4.1,4-6.1,6.1c-5.3,5.5-10.3,11.2-15.1,17.1
	c-0.2,0.3-0.6,0.5-0.5,1.2c1.8-0.4,3.5-0.9,5.3-1.3c8.5-2,17.1-2.4,25.7-0.3c2.9,0.7,5.6,2,7.9,3.9c2.1,1.7,2,2.7-0.3,3.9
	c-8.5,4.2-17.3,6.5-26.9,5.8c-5.3-0.4-10.1-2.1-14.4-5.2c-1.7-1.3-1.8-1.3-3,0.3c-5.6,7.3-10.8,14.9-15.8,22.6c-0.1,0.1,0,0.3,0,0.6
	c2.6-0.3,5.1-1.1,7.8-1.3c9.2-0.6,18.4-0.5,27.3,2.6c1.5,0.5,3,1.1,4.4,2c1.1,0.7,2.1,1.5,2.8,2.6c1.2,1.7,1.1,2.4-0.9,3.2
	c-1.9,0.8-3.9,1.5-5.8,2.3c-4.9,1.8-9.8,3.5-14.9,4.5c-9.6,1.9-18.1,0.2-25.3-6.8c-0.2-0.2-0.4-0.2-0.7-0.4
	c-0.2,0.3-0.4,0.5-0.6,0.7c-2.6,5-5.2,9.9-8,14.8c-0.6,1-0.8,1.7,0.6,2.4c2.1,1,2.3,3.1,2,5.4c1.6-1,1.9-2.3,1.9-3.7
	c0-0.7-0.1-1.3-0.8-1.6c-0.1-0.1-0.3-0.2-0.4-0.3c-1.4-1.1-2.1-2.4-1.5-4.2c0.5-1.4,1.8-2.3,3.4-2.3c1.8,0,3.4,1.1,4,2.8
	c0.2,0.5,0.2,1.1,0.3,1.6c0.6-0.1,0.8-0.7,1.3-1c1.5-1.1,3.2-1.2,4.5-0.2c1.1,0.8,1.5,2.3,1.1,3.7c-0.5,1.6-2,2.7-3.6,2.8
	c-0.7,0-1.4-0.5-2.1-0.2c-0.1,0.1-0.3,0.2-0.4,0.3c-0.6,0.7-1.2,1.4-1.9,2.1c0.6,0.6,1.3,0.3,1.9,0.6c1.4,0.5,2.6,1.4,2.8,3
	c0.2,1.3-0.3,2.4-1.4,3.1c-1.4,0.9-2.9,0.8-4.3,0.1c-0.7-0.4-1-1.6-2.2-1.2c-1.7,0.5-3.6,0.4-4.9,2.2c-1.2,1.7-2.6,3.2-4,4.9
	c1.4,0.5,2.2,0.4,2.9-0.8c0.5-1,1.4-1.5,2.5-1.7c2-0.4,3.8,0.5,4.6,2.2c0.7,1.7,0.1,3.7-1.6,4.8c-1.7,1.2-3.9,1-5.2-0.4
	c-1.7-1.8-5-1.6-6.3,0.5c-1.1,1.7-2,3.6-3.2,5.8c1.1-0.3,1.2-0.8,1.6-1.2c1.9-1.9,5.2-1.5,6.6,0.9c0.7,1.2,0.6,2.5-0.3,3.6
	c-1,1.3-2.3,1.9-4,1.7c-0.9-0.1-1.6-0.6-2.4-1.1c-1.5-0.9-3-0.6-3.5,1.1c-1.2,4.1-2.9,8-3.7,12.2c-0.1,0.3-0.2,0.6,0.2,1
	c158,0,316.2,0,474.3,0c0.4-0.6-0.1-1.1-0.2-1.6c-1.6-5.7,3.3-11,9.1-9.9c3.5,0.7,5.9,4.2,5.1,7.7c-0.3,1.2-0.7,2.4-1.1,3.6
	c0.9,0.3,1.8,0.2,2.7,0.2c18.6,0,37.1,0,55.7,0C704.9,227.5,706.3,227.7,707.4,229z M210.6,130.1c7.4,5.2,23.2,3.4,33.6-1.8
	c-8.6-3.3-17.1-4.1-26-2.1c1.1,0.1,2.2,0.1,3.3,0.2c1.9,0.1,3.8,0.5,5.7,0.9c0.8,0.2,1.3,0.7,1.1,1.6c-0.1,0.8-0.8,0.9-1.4,0.9
	c-0.4,0-0.8,0-1.2,0c-4.6,0-9.1,0-13.7,0C211.6,129.7,210.9,129.3,210.6,130.1z M283.3,59.9c3.5-1.6,7-3.2,10.5-4.7
	c3.6-1.5,7.3-2.5,11.4-2c-4.6,2-9.3,4-13.9,5.9c1.7,0.9,3.3,0.9,4.8,0.6c2.6-0.5,4.8-1.6,7-3c3.1-2,6.2-4,9.2-6
	c1.7-1.1,3.6-1.8,5.9-2.8c-7.5-2.9-14.3-2.3-21,0.4C291.2,50.9,284.2,56.6,283.3,59.9z M267,64.6c1-1,1.3-1.8,1.7-2.6
	c1.1-2.5,2-5,2.9-7.6c1-2.8,2-5.6,3.5-8.1c0.2-0.4,0.4-1.1,1.2-0.9c0,2.3-0.5,4.6-0.8,7.1c1.9-3.9,2.9-11.6,1.9-14.1
	C270.8,45.8,266.3,53.9,267,64.6z M262.4,78.7c2.9,6.6,17.5,12,27.4,8.6c-6.2-5.1-12.6-8.9-20.3-9.9c3.6,1.6,7.2,3.1,9.1,7
	C273.4,82.2,268.2,80,262.4,78.7z M241.8,77c2.4-4.7,4-9.7,7.5-13.6c0.1,2.4-0.4,4.7-1.1,6.9c-0.6,2.1-1.3,4.2-2,6.3
	c6.5-7.9,9.2-19.3,5.1-28.7C244.6,56.8,240,71.1,241.8,77z M237.5,97.2c3,0.8,6.1,1.4,9,2.3c3.8,1.2,6.3,3.1,7.4,5.3
	c-2.3-0.8-4.7-1.5-7-2.3c-2.4-0.7-4.8-1.3-7.6-1.9c5.3,7.3,20.5,12.1,27.2,8.9c-0.3-0.8-0.9-1.3-1.5-1.9c-3.9-4-8.5-7-13.7-9
	c-4-1.5-8.1-2.4-12.4-2.2C238.4,96.6,237.8,96.5,237.5,97.2z M211,112.1c2.7-9.2,2.7-18.8,4.1-28.1c3.2,7.4,0.9,14.9,0.3,22.8
	c5.4-8.4,6.2-30.3,1.6-38.2c-6.4,7-9.3,15.2-10.1,24.3C206.3,99.3,208.5,109.7,211,112.1z M186.5,161.5c0,0.8,0.4,1,0.8,1.3
	c3.5,2.6,7.2,4.4,11.6,4.8c9.3,0.9,17.6-2.8,26-6.2c-8.9-4-18.2-5.2-27.9-4.1c2,0.6,4,1,5.9,1.5c2.1,0.5,4,1.3,5.7,2.8
	c-1.6,0.1-3.1,0.1-4.7-0.1c-4.4-0.4-8.7-1-13.1-0.7C189.3,160.9,187.9,161.1,186.5,161.5z M183.9,143.3c0.3-2.2,0.3-4.3,0.3-6.3
	c0-2.1-0.1-4.2-0.2-6.2c-0.1-2.1-0.3-4.1-0.4-6.2c0-2-0.4-4,0.1-6.4c4.2,7.7,3.9,15.7,4.2,23.7c5.1-13.6-0.7-35.6-8-44.3
	C175.1,108.2,177.5,136.5,183.9,143.3z M172.4,161.3c0.2-7.9-10.5-27.7-16.2-32.2c-1,13.7,4,24.9,12.7,34.8
	c-1.8-7.4-4.9-14.3-7.2-21.5c3,2.3,4.9,5.4,6.6,8.7C169.9,154.3,170.9,157.9,172.4,161.3z M167.6,195.8c1.7-1.8,3.1-3.4,2.7-5.8
	c-0.1-0.4-0.1-0.8-0.6-0.9c-0.5,0-0.7,0.3-0.8,0.7C168.4,191.7,167.8,193.5,167.6,195.8z M359.3,41.7c3.3,0,5.9-2.8,5.9-6.5
	c0-3.6-2.8-6.4-6.4-6.3c-3.2,0-6,3.2-6,6.9C352.8,39.1,355.6,41.7,359.3,41.7z"/>
</svg>
