<?xml version="1.0" encoding="utf-8"?>
<!-- Generator: Adobe Illustrator 25.3.1, SVG Export Plug-In . SVG Version: 6.00 Build 0)  -->
<svg version="1.1" id="Layer_1" xmlns="http://www.w3.org/2000/svg" xmlns:xlink="http://www.w3.org/1999/xlink" x="0px" y="0px"
	 viewBox="0 0 841.9 595.3" style="enable-background:new 0 0 841.9 595.3;" xml:space="preserve">
<path d="M710.4,327.6c-0.8,0-1.6,0-2.4,0c-102.5,0-204.9,0-307.4,0c-97.6,0-195.2,0-292.8,0c-0.9,0-1.8-0.1-2.6,0.1
	c-1.2,0.2-2,1.1-2,2.3c0,1.2,0.7,2.2,1.9,2.4c0.7,0.1,1.4,0.1,2.2,0.1c8.9,0,17.8,0,26.6,0c1.3,0,3-0.4,2.8,1.9
	c0,0.3,0.5,0.6,0.7,0.9c0.9,1,1.6,2.2,2.2,3.4c4.2,8.4,9.5,15.9,15.8,22.8c0.4,0.4,1,0.8,1,1.5c-0.9,0-1.6-0.5-2.3-0.7
	c-3.4-1.4-6.9-2.6-10.5-3.3c-4.7-1-9.4-1.5-14.1-0.5c-6.8,1.5-13,4.3-17.9,9.5c-3.2,3.4-6.7,6.7-9,10.8c-0.1,0.3-0.5,0.4-0.7,0.6
	c0,0.5,0,1,0,1.4c1.5,1.3,2.9,1,4.2-0.3c0.2-0.2,0.5-0.4,0.7-0.6c2.1-1.9,4.8-2.9,7.3-4c1.2-0.5,2.4-0.6,3.7-0.4
	c7.7,1.1,15.4,2,23.2,2.1c3,0,5.9-0.2,8.8-0.8c5.2-1,10.3-2.4,15.5-2.9c1.6-0.2,2.9,0,4.2,1.1c8,6.8,16.6,12.7,25.7,18
	c2.6,1.5,5,3.2,7.3,5.1c2,1.6,3.6,3.4,4.9,5.5c3,4.9,6.2,9.7,9.6,14.4c0.3,0.5,0.8,0.9,0.9,1.7c-0.7-0.2-1.2-0.4-1.7-0.6
	c-1.3-0.4-2.4,0-3.3,0.9c-1.9,1.9-1.7,5.2,0.5,6.7c0.5,0.3,1.2,0.4,1.4,1.2c-0.3,0-0.6,0.1-0.8,0c-1.7-0.6-3.3-1.3-5-1.7
	c-1.8-0.5-2.8-1.5-3-3.5c-0.1-1.2-0.7-2.3,0.5-3.5c1.4-1.4,1.2-3.4-0.1-5c-1.3-1.6-3.5-2.2-5.2-1.5c-1.6,0.7-2.5,2.6-2.1,4.6
	c0.3,1.5,1,2.6,2.4,3c1.5,0.5,1.7,1.4,1.4,2.8c-2-0.7-3.5-1.8-5.1-2.8c-1.6-0.9-2.9-2-3.5-4c-0.3-1.3-0.8-2.1,0.1-3.4
	c1.1-1.4,0.6-3.6-0.6-4.9c-1-1-2.5-1.3-3.8-0.7c-1.5,0.7-2.4,2.5-2.2,4.4c0.1,0.5,0.6,1-0.1,1.6c-1-0.7-1.9-1.4-2.9-2.1
	c-0.2-0.1-0.4-0.3-0.5-0.5c-0.1-0.8,0-1.6-0.1-2.4c-0.3-1.7-2.3-3.1-4.1-3c-1.7,0.1-3,1.3-3.2,3c-0.2,2,1,3.6,2.8,4.2
	c0.7,0.2,1.6,0,2,0.8c-0.3,0-0.6,0-0.9-0.1c-2.9-0.6-5.3,1.3-5.3,4.2c0,1.4,0.5,2.5,1.7,3.3c1.8,1.3,3.8,0.7,5.1-1.2
	c0.5-0.7,0.5-1.7,1.6-1.9c1.9-0.4,3.6-0.4,5,1.3c-0.8,0.1-1.6,0-2.3,0.2c-2.1,0.4-3.5,2-3.5,4c-0.1,2.3,1.7,4.6,3.9,5.1
	c2.1,0.5,4-0.2,4.7-2.3c0.7-2.1,2-2.1,3.7-2.1c1.2,0,2.2,0.4,3.1,1c1.5,1,3.1,1.7,4.6,2.5c0.5,0.3,1.3,0.3,1.5,1.1
	c-1.2,1-2.2,0.8-3.5,0c-1.7-1.1-3.7-0.7-5.3,0.7c-1.4,1.2-1.9,2.9-1.2,4.5c0.8,2,2.5,2.6,4.4,2.7c1.8,0,3.6-0.3,4.2-2.4
	c0.3-0.9,0.8-1.3,1.6-1.6c1-0.4,2-1,3-1.4c1.4-0.6,2.8-0.7,4.3,0.3c-0.9,1-1.8,1.4-3.1,1.3c-1.7-0.2-3,0.6-3.8,2
	c-0.8,1.5-0.4,3.7,0.9,5.1c1.2,1.2,3.1,1.6,4.6,0.9c1.6-0.7,2.9-2.4,2.4-4.2c-0.1-0.6-0.3-1.3,0.2-1.8c0.8-0.8,1.6-1.6,2.5-2.2
	c0.6-0.4,1.4,0.2,2.1,0.2c0.3,0,0.6,0.1,1,0.1c2.7,0.5,5.6,0.5,8.3,1.3c1.5,0.4,2.7,1.1,3.8,2.3c12.6,15,27.1,28,43.1,39.4
	c0.7,0.5,1.6,0.8,2,1.8c-3.4-0.6-6.8-1.3-10.2-1.7c-6-0.7-11.8-2.2-17.4-4.3c-0.8-0.3-1.7-0.6-2.3-1.2c-2.1-2.2-4.6-4-6.4-6.5
	c-2.8-3.9-6.4-6.6-10.7-8.7c-4.1-2-8.3-3.7-12.2-6.2c-0.6-0.4-1.3-0.7-2-0.1c-0.8,0.6-0.7,1.4-0.2,2.2c1.2,1.8,1.7,4,2.6,5.9
	c0.2,0.5,0.5,1,0.8,1.5c4.5,6.6,10.7,10.9,18.6,12.6c1.6,0.3,3.3,0.7,4.9,1c0.5,0.1,1.1,0.2,1.3,0.8c-0.2,0.3-0.6,0.2-0.9,0.2
	c-2.8-0.2-5.6-0.4-8.4-0.6c-3.2-0.2-6.4-0.4-9.6-0.6c-1.3-0.1-2.1-0.3-2.1-1.8c-0.1-1.6-1.1-2.9-2.7-3.4c-1.3-0.4-2.6-0.8-3.9-0.9
	c-2.2-0.2-3.7,1.1-4,3.2c-0.1,0.5,0,1.1-0.1,1.7c0,0.5-0.2,0.8-0.7,0.8c-2.1,0-4.3,0-6.4,0c-0.2-2.7-0.7-3.7-2.2-4.2
	c-2-0.6-4.3,0.5-5.1,2.5c-0.3,0.7-0.4,1.1-1.3,1c-0.9-0.2-0.6-0.7-0.5-1.3c0.4-1.8-0.3-3.1-1.8-4.1c-1.3-0.8-3.6-0.6-4.8,0.4
	c-1.3,1.1-1.6,2.5-0.9,4.1c0.1,0.2,0.2,0.5-0.5,0.7c-0.8,0.1-2,0.3-3.2,0.3c-1,0-1-1.3-1.8-1.8c-1.3-0.9-3.8-0.7-5.1,0.5
	c-1.2,1.1-1.4,2.8-0.6,4.2c0.9,1.5,2.9,2.1,4.6,1.3c0.6-0.2,1.1-0.6,1.7-0.9c0.9,2.7,1.8,3.6,3.7,3.7c1,0.1,1.8-0.4,2.7-0.9
	c1.3-0.8,2.1-0.5,2.7,0.8c0.1,0.3,0.2,0.6,0.4,0.9c1,1.9,3.1,2.8,5.1,2.2c2.1-0.7,3-2.2,2.6-4.7c-0.1-0.4-0.3-0.8,0-1.1
	c1.7-0.2,1.7-0.2,1.9,0.9c0.6,2.4,2.9,4,5.4,3.7c1.7-0.2,3.9-2.3,3.4-4.8c0-0.2,0-0.5,0-0.8c1.3-0.3,2.5-0.2,3.7,0.5
	c1.1,0.7,2.5,1,3.7,0.6c2-0.7,3.9-0.5,5.9-0.3c3.5,0.3,7,0.6,10.5,1c0.4,0,1-0.1,1.1,0.6c-1.2,1-2.5,1.2-4,1.3
	c-5.4,0.2-9.4,2.8-11.8,7.7c-1.1,2.2-1.8,4.6-2.7,6.9c-0.6,1.5,0,2.1,1.6,1.8c3.6-0.7,6.9-2,9.8-4.3c3-2.3,5.1-5.3,6.7-8.6
	c0.5-1.1,1.2-1.8,2.3-2.3c0.7-0.3,1.4-0.8,2.1-1.1c1.3-0.5,2.7-1.2,4.2-1c8.4,1.1,16.8,2.5,24.9,4.9c0.4,0.1,1,0.1,1.5,0.8
	c-1.4,0.6-2.5,1-3.7,1.5c-2.5,1-4.9,2.7-7.8,2.1c-0.1,0-0.2,0-0.2,0c-2.2,0.2-4.2,0.8-6.3,1.5c-0.8,0.3-1.6,0.5-2.4-0.4
	c-0.9-1-2.1-1.1-3.3-0.5c-1.3,0.7-2.6,1.6-2.8,3.3c-0.1,1.3,0.6,2.5,1.8,3.1c0.6,0.3,1.3,0.4,2.1,0.7c-0.9,0.7-1.6,1.5-2.6,1.6
	c-3.3,0.1-6.3,1.2-9.3,2.2c-1.1,0.4-2,0.5-3.1-0.2c-1.7-1-3.8-0.3-4.8,1.3c-0.9,1.6-0.7,3.1,0.3,4.5c0.9,1.4,2.7,1.9,4.2,1.5
	c1.6-0.5,2.6-1.6,2.6-3.3c0-0.7,0.1-1.3,0.9-1.4c1.7-0.4,3.3-1,5.4-1.2c-1.9,2-3.6,3.8-5.3,5.6c-0.2,0.2-0.5,0.4-0.8,0.4
	c-2.8,0.5-5.2,1.9-7.8,3.1c-0.8,0.4-1.4,0.6-2.2,0.1c-1.5-0.9-3-1-4.4,0.3c-1.2,1-1.5,3.3-0.9,4.9c0.7,1.7,2.6,2.9,4.4,2.6
	c1.9-0.3,3.2-1.7,3.3-3.8c0-0.6-0.5-1.3,0.3-1.7c1.5-0.7,3-1.7,5-1.9c-0.9,1.5-1.7,2.8-2.5,4.1c-0.6,1-1.1,1.8-2.4,2.2
	c-1.4,0.4-2.1,1.6-2.2,3.1c-0.1,1.8,1,3.3,2.8,4.1c1.5,0.6,3,0.4,4-0.6c1.1-1.1,1.4-3.1,0.7-4.7c-0.1-0.3-0.3-0.6-0.5-0.8
	c-0.7-0.6-0.5-1.2-0.1-1.9c1.7-2.6,3.4-5.3,5.4-7.6c0.3-0.4,0.5-1,1.3-0.8c0,2.4,0.2,4.8-1.4,7.1c-1.3,1.8-0.4,4,1.5,4.8
	c1.9,0.9,4,0.2,5-1.5c0.9-1.7,0.4-4.3-1.5-5.2c-1.4-0.7-1.6-1.5-1.3-2.8c0.1-0.5,0.2-1,0.2-1.4c-0.1-3.5,1.4-6.1,4.4-7.9
	c2.2-1.4,4.3-3,6.9-4.3c0,1.5-0.1,2.7,0,3.9c0.1,1-0.2,1.5-1.1,2c-2.3,1.4-2.7,3.5-1.1,5.7c0.5,0.7,1.1,1.2,1.8,1.6
	c2,1.1,4.6,0.5,5.7-1.3c1.1-1.8,0.6-4.8-1.4-5.6c-1.9-0.8-1.8-1.9-1.7-3.4c0.1-1,0.1-2.1,0.1-3.1c0-0.7,0.2-1.2,0.9-1.5
	c2.5-1.3,4.9-2.6,7.8-3.7c-0.5,1.6-0.9,3-1.3,4.3c-0.3,0.9-0.4,1.8-1.7,2.1c-0.7,0.1-1,0.7-1.3,1.3c-0.7,1.5,0,3.6,1.3,4.5
	c1.5,1,3.7,0.7,4.8-0.7c1.1-1.4,1.2-3.5-0.3-4.5c-1.6-1.2-1-2.2-0.6-3.5c1.8-5.4,1.8-5.5,7.2-7c1.8-0.5,3.7-1,5.6-0.4
	c13.1,4.1,25.8,9,37.8,15.6c0.5,0.3,1.2,0.4,1.5,1.2c-2.3-0.1-4.5-0.3-6.7-0.2c-6.8,0.5-13.5,1.8-20.1,3.5
	c-6.6,1.6-12.7,4.8-18.8,7.8c-2.8,1.4-5.6,2.8-8.8,2.9c-0.6,0-1.1,0.3-1.2,1c0,0.7,0.5,0.9,1.1,1c1.6,0.3,3.2,0.3,4.8,0.2
	c5.6-0.2,11.1-1.3,16.6-2.4c7.2-1.5,14.3-3.3,21.6-4.3c2.8-0.4,5.7-0.5,8.6-1c2.8-0.5,5.6-1.3,8.4-2c3.2-0.8,6.3-0.7,9.3,0.9
	c2.9,1.5,6,2.7,8.9,4.1c0.5,0.2,1.2,0.3,1.5,1c-3.7,1-7.2,2.4-10.8,3.2c-5.5,1.2-10.8,2.7-16.3,3.8c-2,0.4-3.9,1-5.7,1.8
	c-14,5.8-23.6,15.9-28.6,30.2c-0.2,0.4-0.3,0.9-0.3,1.4c-0.1,0.6-0.1,1.2,0.6,1.4c0.6,0.3,1.1,0.2,1.6-0.2c0.5-0.4,0.9-0.9,1.3-1.4
	c1.1-1.5,2.6-2.6,4.2-3.4c4.8-2.4,9.6-4.8,14.5-6.8c5.9-2.4,11.5-5.2,16.7-8.8c6.4-4.4,11.6-10.1,17.7-14.7c1.8-1.4,3.6-2.7,5.6-3.6
	c2.2-0.9,4.5-1.4,7.1-0.3c10.3,4.1,20.7,8.1,31.1,11.9c0.3,0.1,0.8,0.1,0.9,0.8c-3.7,0.6-7.2,1.9-10.8,2.8
	c-7.5,1.9-14.6,4.7-21.3,8.6c-7.7,4.5-13.8,10.5-18,18.5c-3.3,6.2-4.9,12.8-3.8,19.9c0.2,1.3,0.3,2.6,0.2,3.8c0,1.1,0.3,2,0.9,2.9
	c0.3,0,0.6,0,1,0c1.1-2.4,3-4.1,5.1-5.6c3.2-2.2,6.4-4.5,9.6-6.8c4.5-3.2,8.8-6.6,12.8-10.5c6.3-6.2,12.1-13,18.5-19.2
	c2.8-2.7,5.3-5.5,7.6-8.7c0.7-0.9,1.5-1.7,2.4-2.4c1.6-1.1,3.1-1.6,5.1-0.9c3.5,1.2,7.2,2.1,10.8,3.2c0.6,0.2,1.3,0.4,1.9,0.6
	c-0.3,0.8-0.9,0.9-1.4,1.1c-7.4,4.1-14.1,9.2-20.2,14.9c-1.6,1.5-3.1,3.3-4.3,5.1c-0.6,0.9-0.9,1.9-0.2,2.9c0.7,0.9,1.6,1.2,2.7,1.1
	c1.2-0.1,2-0.8,2.8-1.6c3.2-3,6.3-6.1,10-8.5c5.7-3.7,11.7-6.8,17.7-10.1c3.4-1.9,6.7-2.2,10.5-1.6c10.5,1.7,21,1.8,31.5,0.1
	c1.2-0.2,2.2,0,3.2,0.6c6.1,3.3,11.7,7.1,15.6,13.1c0.8,1.3,1.9,2.4,3.1,3.3c1.1,0.7,2.4,0.6,3.3-0.2c0.9-0.8,1.2-1.9,0.7-3
	c-0.1-0.3-0.3-0.6-0.4-0.9c-5.3-10.2-13.4-17.4-23.8-22.1c-2.5-1.1-5.1-1.8-7.8-2.1c-0.5,0-1.2,0.2-1.4-0.6c0.2-0.1,0.4-0.2,0.6-0.3
	c6-1.9,12-3.8,18.1-5.6c0.7-0.2,1.4-0.4,2.1-0.2c2.7,0.7,5.4,1.8,7.4,3.8c3.1,3.2,6.7,5.9,9.7,9.3c6.4,7.1,14,12.6,22.5,16.9
	c2.4,1.2,4.8,2.3,7,3.6c5,3,10.8,5,14.2,10.3c0.3,0.5,1,0.8,1.7,0.5c0.7-0.3,0.7-1,0.7-1.6c-0.1-1.4-0.7-2.6-1.1-3.9
	c-5.6-16.5-16.8-27.2-33.5-32.2c-8.3-2.5-16.5-4.8-24.6-8.4c3.6-1.3,7.2-2.5,10.6-4c3.4-1.4,6.6-1.4,10-0.3c3.6,1.2,7.1,2.6,10.8,3
	c2.4,0.3,4.7,0.8,7.1,1.3c8.2,1.9,16.2,4.5,24.3,6.7c4.5,1.2,9,2,13.7,2.5c1.1,0.1,2.2,0.2,3.3-0.1c0.5-0.1,0.9-0.4,0.8-1
	c0-0.5-0.4-0.7-0.8-0.8c-0.3-0.1-0.6-0.2-0.9-0.2c-2.4-0.3-4.4-1.3-6.4-2.5c-3.4-1.9-6.8-3.9-10.2-5.7c-3.7-2-7.6-3.7-11.7-4.9
	c-8-2.3-15.9-4.7-24.7-4.3c0.9-0.9,1.8-1.1,2.5-1.4c11.5-5.4,23.5-9,35.8-12.3c3.5-0.9,6.5-0.7,9.6,0.8c3.8,1.9,3.9,1.8,4.9,5.9
	c0.4,1.7,1.3,3.3-0.9,4.8c-1.7,1.1-1.1,3.8,0.6,5c1.6,1.1,3.8,0.7,4.9-0.8c1.3-1.8,0.9-3.8-0.9-5c-0.4-0.3-1-0.3-1.1-0.9
	c-0.4-1.8-0.8-3.5-1.2-5.5c1.7,0.6,3.1,1.5,4.4,2.3c4,2.3,4,2.3,3.8,7.1c0,1.3-0.3,2-1.7,2.6c-2.7,1.1-3.3,4.9-1.2,6.8
	c1.9,1.6,4.9,1.3,6.6-0.8c1.5-1.9,1.7-4.4-0.9-5.9c-0.5-0.3-1-0.5-0.9-1.2c0.2-1.4,0.3-2.9,0.5-4.5c2.3,1.4,4.1,3,6,4.3
	c3.2,2.3,4.7,5.3,4.4,9.2c-0.1,1.6,0.3,2.9-1.8,3.8c-1.9,0.8-2.3,3.6-1.3,5.2c1.1,1.7,3.4,2.3,5.3,1.2c1.7-1,2.3-2.9,1-5
	c-1.4-2.2-0.6-4.4-0.7-6.6c0.9,0,1,0.6,1.4,1.1c1.4,1.9,2.7,4,3.8,6.1c0.8,1.5,2.1,3,0.1,4.5c-0.2,0.1-0.2,0.4-0.3,0.7
	c-0.7,2,0.2,4.1,2,4.8c1.7,0.7,4.4-0.4,5.3-2.2c1-1.9,0.5-4.1-1.5-4.9c-1.5-0.6-1.9-1.8-2.5-3c-0.6-1.1-1.4-2.2-1.8-3.7
	c1.5,0.3,2.5,1,3.5,1.6c1,0.6,1.6,1.3,1.4,2.6c-0.2,1.5,0.5,2.6,1.8,3.4c1.6,0.9,3.8,0.4,5-1c1.2-1.3,1.4-4.2,0.4-5.6
	c-1-1.4-2.5-1.8-4.5-0.9c-1,0.4-1.6,0.2-2.4-0.2c-2.4-1.4-4.8-2.9-7.5-3.6c-0.3-0.1-0.6-0.3-0.8-0.5c-1.5-1.8-3-3.7-4.7-5.8
	c1.5,0.1,2.5,0.6,3.6,0.9c1.4,0.4,2.9,0.6,2.4,2.7c-0.1,0.6,0.4,1.2,0.8,1.7c1.1,1.4,3.5,1.7,5,0.7c1.7-1.1,2.4-3.5,1.5-5.3
	c-0.9-1.7-2.9-2.6-4.7-1.7c-1.2,0.6-2,0.4-3.1,0c-2.9-1.2-5.7-2.5-8.9-2.8c-1.2-0.1-1.8-0.9-2.5-1.6c0.5-0.5,1-0.3,1.4-0.4
	c1.4-0.5,2.4-1.3,2.5-2.9c0.2-1.8-1-2.8-2.2-3.7c-1.2-0.8-2.5-1-3.5,0c-0.9,0.9-1.7,0.6-2.6,0.2c-2.2-1-4.5-2-6.9-1.9
	c-2.1,0.1-3.6-0.8-5.3-1.6c-1.3-0.7-2.6-1.3-3.9-1.9c-0.5-0.3-1.1-0.4-1.5-1c0.5-0.2,0.9-0.3,1.3-0.4c7.4-1.5,15-2.4,22.6-3.1
	c3.5-0.3,6.4,0.6,9.2,2.5c0.8,0.6,1.4,1.2,1.8,2.1c0.8,2,1.8,3.9,3.1,5.7c3.1,4.3,7.3,7.1,12.4,8.4c1.8,0.5,2.3-0.1,1.8-1.9
	c-0.5-1.8-1-3.7-1.6-5.5c-2-5.9-6-9.3-12.3-9.8c-1.4-0.1-2.5-0.7-3.8-1.9c5.4-0.3,10.4-0.5,15.4-0.5c0.7,0,1.2,0.3,1.8,0.5
	c1.4,0.5,2.8,0.7,4.2,0c1.3-0.7,2.6-0.6,4-0.4c0,0.3,0,0.5,0,0.7c-0.2,2.8,0.9,4.6,3.2,5.1c2.4,0.5,4.7-1,5.4-3.5
	c0.2-0.8,0.5-1.1,1.3-0.9c1,0.2,0.9,0.7,0.7,1.6c-0.8,2.5,0.9,4.8,3.7,5c2.1,0.1,3.4-1.1,4.3-2.9c0.6-1.4,1.4-1.6,2.7-0.7
	c0.2,0.1,0.4,0.3,0.6,0.4c2.1,1.3,4.3,0.7,5.4-1.5c0.2-0.4,0.2-1,0.6-1.3c0.5,0.3,1,0.7,1.6,1c1.8,0.9,4,0.3,4.8-1.3
	c0.8-1.5,0.5-3.2-0.9-4.3c-1.6-1.2-4-1.5-5-0.1c-1.1,1.5-2.2,1.2-3.6,1c-0.5-0.1-1.1-0.3-1.7-0.4c0.1-0.3,0.1-0.5,0.1-0.7
	c0.8-3.1-0.6-4.9-3.7-5.1c-1.4-0.1-2.3,0.9-3.5,1.2c0.5-1.4-0.6-1.9-1.4-2.6c-5.1-3.9-10.7-7-16.7-9.3c-0.8-0.3-1.7-0.4-2.2-1.1
	c0.3-1.3,1-2.2,1.7-3.2c0.5-0.8,0.9-1.6,0.1-2.4c-0.7-0.7-1.5-0.4-2.2,0c-0.2,0.1-0.4,0.2-0.6,0.3c-1.8,1-3.8,1.7-5.7,2.5
	c-1.4,0.6-2.9,0.8-4.4,0.6c-3.5-0.5-7-0.5-10.5-0.1c-0.4,0-0.9,0.3-1.4-0.3c3-2.5,6.1-5,9-7.6c1.3-1.1,2.3-1.2,3.9-0.6
	c9.6,4,19.5,4.7,29.6,3c8.2-1.4,15.9-4.2,23.6-7c0.2-0.1,0.5-0.2,0.7-0.3c1.1-0.6,1.2-1.7,0.2-2.6c-0.3-0.3-0.7-0.4-1-0.6
	c-12.5-6-25.5-8.1-39.2-4.7c-1.9,0.5-3.8,1-5.8,1.6c0.2-0.7,0.7-1.1,1.1-1.5c4.8-5,9.4-10,13.8-15.3c1.3-1.5,2.5-2,4.6-1.5
	c6.2,1.5,12.5,2,18.8,0.9c11.3-2,19.7-8.7,27.4-16.6c1-1.1,0.9-1.8-0.4-2.8c-1.2-0.9-2.6-1.5-4.1-2c-3.6-1.2-7.3-1-10.9-0.7
	c-7.6,0.7-14.6,3.3-21.2,7c-0.6,0.4-1.2,1-2.1,0.9c0.1-1,0.8-1.5,1.2-2.2c3.4-4.9,6.9-9.9,9.7-15.1c1.5-2.7,3.6-3.9,6.4-4.4
	c1-0.2,1.9-0.2,2.9,0c1.9,0.4,3.8,0.2,5.7-0.1c3.7-0.7,7.1-2,10.2-4c5.8-3.8,11.3-8.2,16.8-12.3c0.7-0.5,1.3-1,1-2
	c-0.3-0.9-1-1.3-1.8-1.4c-1.3-0.3-2.7-0.4-4-0.8c-7-1.8-13.3-0.3-19.2,3.5c-3.2,2-6,4.5-8.7,7.1c-0.4,0.4-0.8,0.9-1.4,1
	c-0.2-0.9,0.3-1.4,0.5-1.9c1.9-4,3.7-8.1,5.4-12.3c1-2.4,1-2.5,3.7-2.5c5.4,0.1,10.2-1.5,14.8-4.3c6-3.7,10.5-8.9,14.4-14.5
	c0.1-0.2,0.3-0.4,0.4-0.6c0.4-1.1-0.1-1.9-1.3-1.9c-0.4,0-0.8,0.1-1.2,0.1c-9.3,1.6-17.8,5.1-24.9,11.5c-0.4,0.4-0.7,1.1-1.5,1
	c0.4-2.9,0.8-3.7,3.1-5.6c3.5-2.9,6.4-6.2,8.6-10.2c0.2-0.3,0.3-0.7,0.8-0.6c0.5,3,2.2,4.7,4.6,4.3c2.2-0.4,3.7-2.8,3.1-5.1
	c-0.2-1-0.7-1.8-1.6-2.3c-1.7-1.1-3.3-0.4-5,0.4c0.2-3,0.2-3,2.6-2.9c0.8,0,1.6,0.1,2.4,0.1c1.1,0.1,1.9,0.3,2.7,1.2
	c1.3,1.6,3.9,1.4,5.9-0.1c1.8-1.4,2.1-3.1,1-5.1c-0.2-0.4-0.8-0.6-0.5-1.4c0.8,0,1.5,0,2.3,0c7.7,0,15.4,0,23,0c0.6,0,1.3,0,1.9,0
	c1.7-0.1,2.7-1,2.7-2.4C713,328.7,712,327.7,710.4,327.6z M182.1,413.6c0.7-0.1,1,0.3,1.3,1C182.6,414.5,182.2,414.2,182.1,413.6z
	 M191.3,475c-0.2-0.8-0.4-1.4-0.5-2.2c2.3-0.4,4.4,0,6.6,0.5C195.4,473.9,193.5,474.4,191.3,475z M251.3,492
	c-0.1-1.2,0.8-1.1,1.8-1.2C252.5,491.6,252,491.8,251.3,492z M483.1,527c9.9,4.9,19.6,10.2,28.6,16.5c2.5,1.8,4.7,3.9,6.5,6.4
	c0.2,0.3,0.5,0.6,0.7,0.9c0.3,0.3,0.7,0.4,1.1,0.1c0.4-0.3,0.4-0.7,0.2-1c-0.3-0.5-0.7-1.1-1-1.6c-2.5-3.5-5.6-6.3-9.1-8.8
	c-3.8-2.7-7.9-4.9-11.9-7.2c-0.7-0.4-1.5-0.7-2.3-1.5c10.1,1.9,25,13.7,29.5,27.1c-0.7,0.4-1-0.3-1.4-0.5c-3.9-2.6-7.9-4.8-12-7.1
	c-6.8-3.8-13.5-7.7-19.3-12.8c-3.9-3.4-7.3-7.4-11.4-10.8C482.1,526.3,482.7,526.7,483.1,527z M564.5,503.5c-0.8,0-1.3-0.4-1.8-1.1
	C563.8,502.3,564.3,502.6,564.5,503.5z M592.7,500.5c-0.7-1.3-1.6-2.4-2.5-3.5c-0.2-0.3-0.5-0.6-0.7-1c3.4,1.7,4.6,5,5.7,8.4
	c-2.1-0.6-4.5-2.4-6.3-4.9c1.2,0.5,1.8,1.2,2.6,1.9c0.3,0.2,0.6,0.5,1,0.2C593,501.3,592.9,500.9,592.7,500.5z M625.9,488.5
	c0.2,0.9-0.3,1.4-0.4,2.1c-2-0.4-3.7-1.2-5.5-2C622,488.2,623.9,488.2,625.9,488.5z M621.6,482c0,1.1-0.6,2.1-0.3,3.2
	c0.1,0.4,0.1,0.8-0.4,0.9c-0.6,0.1-1.2,0.1-1.3-0.6c-0.1-0.8-0.5-1.5-0.8-2.1C619.8,482.7,621.1,483.1,621.6,482z M674.6,377.4
	c-7.5,6.4-15.1,12.5-25.4,13.5c3.8-3.1,8.1-5.4,11.4-9.1c-1.8-0.2-2.9,0.2-6.2,1.8c-1.9,1-3.8,2-5.8,3
	C652.4,379.9,667.6,374.4,674.6,377.4z M661.1,361.5c2.8-1.7,5.8-3.1,8.5-4.9c1.3-0.9,2.5-1.8,3.7-3.1c-1.7-0.3-10.2,3.5-10.7,3.9
	c3.2-3.1,8.6-4.6,9.8-5c2.1-0.8,4.3-1.5,7-1.6c-6.1,7.7-13,13.2-22.8,14.1C657.8,363.3,659.5,362.4,661.1,361.5z M190.8,333.7
	c0.1-0.7,0.4-1.2,1.2-1.1c0.8,0,0.8,0.6,0.8,1.1c0,0.6-0.1,1.2-0.1,2.3C191.6,335.2,190.6,334.9,190.8,333.7z M180.7,332.5
	c1.3-0.2,1.9,0.3,2.4,1.6c0.8,2.1,2,2.7,4.3,2.6c2.5-0.2,5.1,2.5,4.7,4.9c-0.4,2.2-0.7,4.4-1.7,6.6c-0.1-2.2-0.3-4.3-2.7-5.3
	c-2.3-1-4.2-0.4-5.8,1.7c-1.4-4.1-2.5-7.9-3.5-11.7C179.3,332.4,180,332.6,180.7,332.5z M189,353.3c-0.7,1.6-1.2,3.2-2.3,4.9
	c-1.2-2.7-2-5.2-3-7.9c2,0,3.8-0.2,5,1.6C189,352.4,189.3,352.7,189,353.3z M116.3,372.2c-1.2,0.7-2.7,1-4.5,1.7
	c9.8-12.1,27.5-16.1,41.9-8.2c-1-0.1-2-0.1-2.9-0.2C138.7,364.7,127,366,116.3,372.2z M164,371.1c-5.4,0.6-10.7,1.8-16,3
	c-2,0.4-3.9,0.7-6,0.6c-4.2-0.2-8.5-0.3-12.7-0.6c-2.7-0.2-5.3-0.7-8.1-1c6.8-4.9,33.4-7.1,43-2.3C164.2,371,164.2,371.1,164,371.1z
	 M198.2,390.4c-6.4-4.8-12.6-9.8-18.7-15c-7.4-6.2-14.5-12.8-20.9-20.1c-2.2-2.5-4.3-5-6.1-7.7c-3.4-4.9-7.4-9.3-11.7-13.3
	c-0.4-0.4-1.1-0.7-1.2-1.6c0.7-0.4,1.2-0.2,1.8-0.2c10.2,0,20.3,0,30.5,0c1.6,0,2.5,0.5,3.2,1.9c1.2,2.4,2.4,4.9,3.1,7.5
	c4.5,16.5,11.9,31.9,20.4,46.6c0.5,0.9,1.1,1.7,1.4,2.8C199,391.3,198.6,390.7,198.2,390.4z M207.4,386.4
	c-4.5-10.2,0-25.6,11.3-32.4c-0.6,1.4-1,2.4-1.6,3.2c-5.3,6.8-7.9,14.7-9.1,23.1C207.7,382.3,207.5,384.3,207.4,386.4z M216.8,362.1
	c1.2,11.8-1.7,22.7-6.6,33.3C208.9,383.6,211.4,372.5,216.8,362.1z M220.2,429.3c-1.5-0.4-2.2-1.9-1.4-3.4c0.6-1.2,0.8-2.4,1.1-3.9
	c1.9,2.5,3.8,5,5.8,7.6C223.7,430.2,221.9,429.7,220.2,429.3z M558.6,486.3c-9.4,0.9-18.6,2.9-27.7,5.2c-0.5,0.1-1,0.4-1.7,0
	c4.8-1.7,9.4-3.3,14.1-5c6.2-2.2,12.4-4.7,18.2-8c1.6-0.9,3.1-1.9,4.7-2.8c1.4-0.8,2.5-2.5,4-2.4c1.5,0.2,2.8,1.4,4.2,2.2
	c0.8,0.4,1.5,0.9,2.3,1.4c-0.5,0.9-1.2,1.4-1.8,2C570.2,483.1,564.8,485.7,558.6,486.3z M612.1,486.5c-2.1-0.2-4.1-0.4-6.2-0.6
	c-0.4,0-0.8-0.2-0.8-0.7c0-0.5,0.2-1,0.8-1.1c0.6-0.1,1.1-0.1,1.7-0.1c1.6,0,3.1-0.5,4.9-0.3C612.4,484.8,612.3,485.5,612.1,486.5z
	 M590,475.1c3.5,0.5,6.8,1.6,10.4,1.7c-5.6-4.9-12.8-5.4-19.6-7c11.9,0.1,22.7,3.8,33,9.5c-0.4,0.9-1,0.8-1.5,0.9
	c-1.8,0.3-3.6,0.6-5.4,0.8c-1.2,0.1-2.3,0.2-3.4-0.7c-0.9-0.8-2.1-0.8-3.2-0.4c-2.7,0.8-5.3,0.4-8-0.3c-4.6-1.3-10.1-3.8-13-6
	C583.1,473.7,586.6,474.6,590,475.1z M583.1,483c3-1.2,5.8-1,8.7,0.1c0.6,0.2,1.2,0.3,1.9,0.5c0.6,0.1,0.7,0.5,0.7,1.1
	c0,0.5-0.3,0.7-0.8,0.7c-0.4,0-0.8,0-1.2,0c-6.3-0.1-12.6-0.1-18.9,0c-0.1,0-0.3-0.1-0.5-0.2c0.7-1,1.9-0.9,2.8-1
	C578.3,483.9,580.9,483.9,583.1,483z M575.1,438.4c1,4.6,2.7,9,3.3,13.7c0.2,1.6,0.2,3.1,0.2,4.9c-1.3-0.3-1.9-1.1-2.5-1.8
	c-3.8-4-5.9-8.8-6.2-14.4c-0.4-6.8,0.9-13.3,2.5-19.9c5.2,7.7,7.9,16.2,8.5,25.5c-1.5-3.6-2.7-7.5-5.8-10.5
	C574.6,436.9,574.9,437.6,575.1,438.4z M611.5,447.8c8.9-0.8,17.6,0.2,25.9,3.5c0.7,0.3,1.5,0.4,2.3,1.3
	c-14.2,6.4-28.6,8.1-43.6,3.9c7.6-2.6,15.7-2.4,23.5-4.2c-7.6-2.9-15.3-1.3-22.9,0c0-0.6,0.5-0.7,0.9-0.9c0.3-0.2,0.7-0.3,1.1-0.5
	C602.7,449.1,607,448.1,611.5,447.8z M606.7,421.2c-0.7-2.3-1.2-4.3-1.8-6.2c-0.2-0.6-0.5-1.2-0.7-1.8c-0.3-0.8-0.8-1.4-1.8-1.1
	c-0.9,0.3-0.8,1.1-0.7,1.8c0.4,2.1,0.8,4.2,1.2,6.4c0.5,2.8,1,5.6,1.5,8.5c-1.6-1.1-2.5-2.5-3.2-4.1c-1.8-4-2.6-8.2-2.8-12.5
	c-0.2-4.9,0.4-9.7,1.5-14.5C603.7,400.9,607.5,415,606.7,421.2z M660.5,412.7c-5.9,10.1-25.3,18.3-39.7,13
	c8.4-4.2,17.4-5.7,26.2-8.4c-2.1-0.9-3.9-1-6.7-0.6c-4,0.5-7.8,1.8-11.6,3c-0.9,0.3-1.7,0.9-2.8,0.6
	C630.9,415.1,650.5,409.8,660.5,412.7z M629.5,396c-1-2.3-1.9-4.7-3.3-6.9c-1.4-2.2-3.1-4-5.5-5c2.2,4.1,4.3,8.3,6,12.7
	c-5.4-1.7-14.1-14.1-12.9-23.4c6.9,1.2,16.9,15.8,17,24.9C629.9,397.6,629.8,396.7,629.5,396z M656,346.7c-2,7-4.2,13.9-7,20.7
	c-0.1,0.2-0.3,0.4-0.6,0.8c-0.3-0.9-0.5-1.6-0.7-2.3c-2.3-7.2-6.1-13.5-11.4-18.9c-1-1-2.1-1.9-3.4-2.7c-1.2-0.8-2.6-1.3-4.1-1.3
	c-1.7,0-1.9,0.1-1.8,1.8c0.2,4.7,0.7,9.4,2.2,13.9c2.4,7.7,6.9,13.7,14.6,16.7c1.4,0.5,1.1,1.2,0.7,2.2c-2.5,5.3-5.2,10.5-8.2,15.5
	c-0.8,1.3-1.5,2.6-2.3,3.9c-0.7-0.3-0.7-0.8-0.8-1.2c-1.3-8.8-5.4-15.9-12.2-21.6c-2.4-2-5-3.8-7.7-5.2c-2.2-1.2-3.3-0.6-3.1,1.8
	c0.2,2.6-0.1,5.1,0.2,7.7c0.8,7.2,4.2,13,9.3,17.9c2.5,2.4,5.3,4.3,8.3,6.2c1.8,1.1,1.8,1.3,0.7,3c-5.6,8.3-11.7,16.2-18.3,23.7
	c-0.1,0.2-0.3,0.4-0.8,0.2c0-0.8,0.1-1.8,0.1-2.7c0.7-7.8,0-15.5-2.5-23c-1.3-4-3.2-7.7-6.6-10.4c-1.7-1.4-2.6-1.2-3.3,1
	c-2.5,8.5-3.3,17.1-1.3,25.8c1.2,5.2,3.6,9.7,7.6,13.4c1.4,1.3,1.4,1.4,0.3,2.7c-6,6.6-12.3,12.7-19,18.8c-0.6-0.7-0.3-1.4-0.3-2.1
	c0.3-9-1.6-17.6-4.8-26c-1-2.6-2.3-5.1-4-7.4c-1.1-1.5-2.4-2.8-4.2-3.5c-1.3-0.5-2.1-0.2-2.3,1.2c-1.3,7.1-3,14.2-3.1,21.6
	c-0.1,9.1,2.9,16.6,10.5,22c0.2,0.1,0.3,0.3,0.5,0.5c-0.3,0.8-1.1,1.2-1.7,1.7c-3.2,2.5-6.5,5-9.6,7.6c-6.8,5.7-14.7,9.3-23,12.1
	c-6.3,2.1-12.6,4-18.7,6.7c-1.2,0.5-2.4,1-3.4,1.7c-1.2,0.8-1.3,1.4-0.8,3.1c-9,2.4-17.6,6-26.4,9.4c0.5-0.7,1-1.4,1.4-2.1
	c2.3-3.5,4.7-7.1,6.9-10.7c0.6-0.9,1.2-1.6,2.4-1.7c0.9-0.1,1.7-0.3,2.6-0.6c1.5-0.5,2.7-0.7,3.9,1c1.2,1.7,3.7,1.6,5.7,0.3
	c2.1-1.3,2.8-3.2,2-5.3c-0.7-1.8-1.7-3.3-3.9-3.4c-2.2-0.1-3.7,0.9-4.5,2.9c-0.4,1.2-1.1,1.6-2.3,1.6c-0.7,0-1.4,0.5-2.3,0.2
	c0.7-1.8,2-3.2,3.2-4.6c3.2-3.6,1.6-3,6.6-2.9c0.6,0,1.3,0.1,1.9,0c1-0.1,1.6,0.2,2.1,1.1c1.3,1.9,3.2,2.4,5.5,1.7
	c2-0.6,3.2-2.2,3.3-4.2c0.1-1.7-1.1-3.7-2.9-4.6c-1.5-0.8-4-0.5-5,1.2c-1.4,2.5-3.4,2.1-5.9,1.9c1.1-1.4,2.3-2.3,3.4-3.3
	c0.8-0.7,1.6-1.3,2.4-2c1-0.9,2.1-1.3,3.5-1.1c1.8,0.3,3.6-0.3,5.5-0.5c1.1-0.1,1.6,0,1.8,1.2c0.2,1.7,1.4,2.6,3.1,2.9
	c1.7,0.3,3.2-0.1,4.2-1.6c1-1.4,0.8-3.8-0.4-5.4c-1.1-1.3-3-1.8-4.5-0.7c-2.1,1.4-4.3,1-6.6,1.1c1.3-1.3,3-2,4.5-2.9
	c0.5-0.3,0.9,0,1.3,0.2c1.8,1,3.6,0.9,5.2-0.3c1.6-1.2,1.9-3.1,1.7-5c-0.4-3-3.7-4.4-6.2-2.7c-0.8,0.6-1.5,1.3-1.9,2.2
	c-0.1-0.5,0-1,0.1-1.5c0.2-2.2-0.7-3.8-2.6-4.6c-1.7-0.8-3.9-0.4-5.1,0.9c-1.3,1.3-1.6,3.2-0.6,5.1c0.5,1,0.4,1.6-0.2,2.3
	c-1.7,2.1-3.2,4.4-4.3,6.9c-0.1,0.2-0.2,0.4-0.4,0.6c-0.3,0.3-0.5,0.6-0.8,0.9c-2.6,2.1-5,4.4-7.4,6.9c-0.5-1.2,0.1-2,0.2-2.8
	c0.2-1.5,0.6-2.6,2.5-2.8c1.7-0.1,2.9-1.4,3.3-3.1c0.4-1.7,0-3-1.4-4.2c-2.1-1.8-3.5-2.1-5.3-0.9c-1.9,1.4-2.8,4.5-1.5,6.4
	c0.7,1.1,0.6,2,0.3,3.1c-0.8,2.5-1.5,5.1-2,7.6c-0.3,1.2-0.7,2.2-1.5,3.2c-0.8,1.1-1.6,2.2-2.4,3.3c-0.7,1.1-1.4,2.1-2.1,3.2
	c-0.5-1-1.1-5.6-0.9-6.4c0.1-0.5,0.6-0.7,0.9-1.1c0.9-1.2,1.6-2.6,1.5-4.2c-0.1-2.7-2.7-4.3-5.1-3.1c-3.2,1.5-3.6,5.8-0.8,7.9
	c0.8,0.6,1.1,1.2,1.1,2.2c0,2.6,0,5.3,0,7.9c0,1.6-0.4,2.9-1.3,4.2c-2.1,3.1-4,6.3-6.3,9.3c-0.9,1.2-2,2-3.3,2.6
	c-9.4,4.1-19.1,7.2-28.9,10.2c-4.2,1.3-8.4,2.6-12.7,3.9c1.3-3,3.1-5.1,5.6-6.6c1.3-0.8,2.7-1.4,4-2.2c3.8-2.5,7.2-5.4,10.5-8.7
	c7.7-7.9,11.6-17.5,13.7-28c1.3-6.3,2.3-12.7,4.3-18.9c0.2-0.7,0.3-1.3-0.4-1.7c-0.6-0.3-1.1-0.1-1.5,0.4c-2.4,2.9-5.6,5-8.5,7.4
	c-6.3,5.3-11.3,11.7-16.1,18.3c-2.4,3.3-4.6,6.7-6.4,10.4c-3,6-4.8,12.3-5.3,19c-0.1,1-0.3,2.1-0.4,3.1c-0.2,2.9-1.4,5.4-3.2,7.6
	c-1,1.3-2.1,2-3.7,2.4c-7.5,1.9-14.9,2.4-22.5,0.6c-0.8-0.2-1.6-0.3-2.4-0.3c-1.7-0.1-2.8,0.6-3.2,1.9c-0.5,1.2-0.1,2.1,1.3,3.2
	c0.2,0.2,0.6,0.3,0.6,0.7c-1.9,1-2.9,0.8-4-0.8c-1.3-2.1-3.2-3.8-3.8-6.3c-0.8-2.9-0.8-5.8-0.3-8.8c0.6-3.5,1.2-7.1,1.7-10.6
	c1.2-8.1-0.1-15.8-3.4-23.2c-3-6.8-6.8-13.2-11.6-18.9c-1.3-1.5-2.3-3.2-3.2-5.1c-0.4-0.8-0.7-1.6-1.4-2.2c-1.1-0.9-2.4-0.6-3,0.7
	c-0.8,1.7-1.5,3.3-1.9,5.2c-0.8,3.4-1.6,6.9-2.7,10.2c-2.1,6.2-1.9,12.6-1.4,19c0.9,10.3,5.2,19,12.4,26.4c2.3,2.4,4.6,4.7,7.2,6.7
	c2.2,1.8,4.1,3.9,6,6.1c-3.4-0.6-6.5-1.7-9.7-2.7c-5-1.6-9.9-3.6-15-5c-1.2-0.3-2-1.1-2.8-2.1c-2.4-3.1-2.9-6.7-3.1-10.4
	c-0.2-5.4-0.7-10.8-2.5-16c-2.3-6.8-5.7-13-9.7-18.9c-4.9-7.3-10.3-14.1-17-19.8c-1.3-1.1-2.4-2.4-3.4-3.7c-0.3-0.5-0.8-0.8-1.4-0.5
	c-0.6,0.3-0.7,0.8-0.6,1.4c0.3,1.5,0.6,3,0.9,4.5c1,4.5,1.4,9.2,1.9,13.8c0.7,5.8,2.1,11.5,3.9,17c1.3,3.9,3.9,7.1,6.2,10.5
	c3.7,5.6,8.3,10.1,14.1,13.5c3,1.7,5,4.3,6.5,7.4c-0.2,0.4-0.5,0.3-0.8,0.2c-12.6-4.9-25.3-9.3-37.5-15.3c-3-1.5-5.3-3.4-6.8-6.3
	c-1.5-2.8-3-5.6-4.7-8.4c-0.7-1.1-0.6-2.3-0.4-3.5c0.3-2.5,0.4-5.1,0.5-7.7c0-1,0.4-1.7,1.4-2.3c2.6-1.7,2.7-5.4,0.2-7.4
	c-1.2-1-2.6-1.3-4-0.7c-1.4,0.6-2.2,2.1-2,3.8c0.2,1.3,0.5,2.6,1.4,3.5c0.6,0.7,0.8,1.3,0.7,2.2c-0.3,1.7-0.5,3.4-0.7,5.2
	c-0.9,0.1-0.9-0.7-1.2-1.1c-0.2-0.2-0.4-0.5-0.5-0.8c-1.1-2.8-3.6-4.8-4.1-8c-0.4-2.9-1.1-5.8-1.8-8.7c-0.2-0.9,0.2-1.5,0.7-2.2
	c1.5-2.3,0.7-5.7-1.7-7.1c-0.4-0.2-0.9-0.4-1.3-0.5c-1.6-0.2-4.4,1.8-4.9,3.5c-0.6,2.2,0.2,4.6,2.3,5.1c2.8,0.6,2.9,2.4,3.1,4.5
	c0,0.4,0.1,0.8,0.2,1.2c-0.8,0.2-1-0.4-1.3-0.8c-1.8-2-3.6-4-5.6-5.9c-0.7-0.7-1.3-1.4-1.6-2.3c-0.9-2.2-2-4.4-3.4-6.3
	c-0.7-1-0.9-1.8-0.2-3c1.1-1.7,0.6-4-0.8-5.2c-1.5-1.4-3.8-1.5-5.6-0.3c-1.9,1.2-2.3,2.5-1.6,4.9c0.3,1.7,1.5,2.8,3,2.8
	c2.1,0,2.9,1.2,3.6,2.8c0.2,0.3,0.4,0.7,0.4,1.3c-2.2-1.3-4.4-2.5-6.4-3.8c-1.1-0.7-0.8-2-0.6-3.1c-0.9,0.1-1.1-0.8-1.6-1.3
	c-1.3-1.4-2.9-1.8-4.6-1.1c-1.7,0.7-2.5,2.1-2.6,4c-0.1,3.9,2.9,6,6.6,4.6c0.5-0.2,1-0.5,1.6-0.1c1.4,1,2.9,1.9,4.2,3.1
	c-2.2-0.4-4.5,0.2-6.5-1.5c-1.8-1.5-4.1-0.8-5.2,1.3c-1.4,2.4-0.9,4.6,1.2,5.8c2.1,1.2,4.8,0.4,5.8-1.6c0.1-0.3,0.3-0.6,0.3-0.9
	c0-0.7,0.4-1,1.1-0.9c2.5,0.5,5,1.2,7.6,1c0.2,0,0.5,0.1,0.6,0.3c2.4,1.9,4.5,4,6.7,6.5c-1.4,0.3-2.4,0.2-3.5,0.1
	c-0.7,0-1.2-0.3-1.5-1c-0.1-0.4-0.3-0.7-0.6-1c-1.2-1.6-2.9-2.4-4.5-1.9c-1.8,0.5-3.6,2.5-3.8,4.3c-0.2,2,0.8,3.8,2.6,4.7
	c2.3,1.1,4.3,0.7,6-1.2c0.5-0.5,0.8-0.9,1.6-0.8c1.8,0.1,3.5,0.2,5.3,0.2c0.8,0,1.4,0.2,1.9,0.9c1.7,2.2,3.4,4.4,4.8,7.1
	c-1.4,0.3-2.4-0.4-3.5-0.6c-0.8-0.1-0.8-0.9-1-1.5c-0.5-1.2-1.2-2.3-2.4-2.9c-1.8-0.8-3.8-0.3-5,1.1c-1.6,2-1.9,4.3-0.6,5.9
	c1.9,2.5,5.8,3.3,7.6,0.6c0.5-0.8,1.1-0.8,1.9-0.5c0.1,0,0.1,0.1,0.2,0.1c5.1,1.4,5.1,1.4,7.7,6.1c1.8,3.4,3.7,6.8,5.9,10.3
	c-1.2,0-1.9-0.6-2.7-1c-7-3.6-14.1-7.1-21.6-9.8c-0.8-0.3-1.6-0.7-2.4-1.1c-14.2-8.2-27.4-18-39.6-29c-3.3-3-5.4-6.6-6.4-11
	c-2.2-9.7-3.6-19.5-4.7-29.3c-1.1-9.5-2.5-19-4.9-28.3c-1.4-5.4-4-10.3-7-14.9c-1.1-1.7-2.3-3.5-3.5-5.2c-0.4-0.6-0.9-1.5-1.9-1
	c-1.1,0.7-0.5,1.5,0,2.3c2.3,4.1,4.2,8.5,5.5,13c3,10.6,5.4,21.4,6.6,32.4c0.9,8.4,2,16.8,4.2,25c0.6,2.2,1.3,4.4,2.3,6.6
	c0.1,0.3,0.3,0.6,0,1c-1.4-1-2.4-2.3-3.6-3.5c-10-10.4-18.9-21.7-27-33.6c-2.8-4.1-2.9-8.1-2-12.5c0.2-1.2,0.7-2.5,1.1-3.7
	c1-2.9,2.1-5.9,3.2-8.8c0.8-2.2,1.3-4.4,1.5-6.8c0.6-5.6,1.3-11.3,1-17c-0.2-4,1.7-6.7,4-9.4c0.6-0.7,1.3-1.2,1.9-1.9
	c0.7-0.7,1.5-1.4,0.7-2.5c-0.7-1-1.8-0.7-2.6-0.2c-1.6,0.8-3.2,1.5-4.6,2.5c-1.6,1-3.1,2.2-4.7,3.3c-4.9,3.4-7.9,8.1-10.1,13.4
	c-0.8,2-1.1,4.2-1.3,6.3c-0.7,7.7,1.1,14.9,3.6,22.1c0.2,0.5,0.4,1,0.6,1.6c0,0.1,0,0.1,0,0.3c-0.5,0-0.6-0.4-0.7-0.7
	c-6-10-11.9-20.1-17-30.6c-0.8-1.7-1.1-3.2,0.1-4.9c1.2-1.7,2-3.6,2.5-5.7c0.5-1.8,1.5-2.9,3.3-3.4c1-0.3,1.8-0.3,2.6,0.5
	c1.6,1.3,3.3,1.4,4.9,0.4c1.4-0.9,2-2.2,1.9-3.9c-0.2-1.9-1.5-3.5-3.3-4c-1.7-0.5-3.2,0-4.1,1.6c-0.7,1.2-1.4,2.1-2.8,2.4
	c-0.4-0.4-0.2-0.8-0.1-1.1c0.7-2.3,4.8-5.1,7.2-4.9c2.3,0.2,4.5-2,4.8-4.7c0.2-2.4-1.3-4.3-3.6-4.5c-2.4-0.2-4.8,1.8-5,4.2
	c-0.1,1.4,0.1,2.8-1.9,3.1c-0.2-2.2,0.2-4.4,0.2-6.6c0-1.1,0.9-1,1.6-1c2.9,0,5.8,0,8.6,0c105.4,0,210.7,0,316.1,0
	c42.2,0,84.3,0,126.5,0c0.6,0,1.1,0,1.7,0c2.2,0,2.2,0,1.9,2.2c-0.4,3.4,0.4,6.5,2.6,9.2C655.9,344.8,656.3,345.5,656,346.7z
	 M639.9,364.3c1.4,2.3,2.7,4.7,3.9,7.5c-7.5-2.4-14.2-15.8-12.6-23.8c4,1.6,11.4,11.4,12.7,17.2c-2.3-3.7-4.4-6.8-8.7-8.2
	C636.9,359.7,638.4,361.9,639.9,364.3z M523.6,463.2c0.7-1,1.4-2,2-3c0.2-0.4,0.6-0.5,1-0.4c1.9,0.2,3.4-0.5,4.6-1.9
	c0.1-0.1,0.2,0,0.4,0c-0.3,1.6-1.2,2.5-2.7,3.1C527.2,461.7,525.5,462.6,523.6,463.2z M471.7,470.1c-0.4-0.2-0.8-0.1-1.1,0.3
	c-0.7,0.8-1.3,1.6-1.9,2.4c-5.1,7.3-9.5,14.9-13.6,22.8c-2.4,4.6-5.3,8.9-7.4,13.6c-0.2-3.3,0.5-6.5,1.6-9.5
	c2.2-5.5,4.5-10.9,8.1-15.7c5.1-6.8,10.1-13.8,16.6-19.5c1.1-0.9,2.2-1.8,3.3-2.7c0.1-0.1,0.3,0,0.6-0.1c-0.4,1.3-0.8,2.4-1.1,3.7
	c-1.3,4.9-2.5,9.7-3.7,14.6c-0.4,1.4-0.8,2.8-1.2,4.1c-1.5,5.1-4,9.7-7.5,13.8c-3.4,3.9-6.6,8-10.7,11.3c-0.6,0.5-1.2,1-1.8,1.5
	c-0.1-0.1-0.3-0.2-0.4-0.3c0.9-1.7,1.6-3.4,2.6-5c2.8-4.6,5.1-9.4,7.3-14.3c3-6.6,6.4-13,10.2-19.3c0.1-0.2,0.3-0.4,0.4-0.6
	C472.1,470.9,472.2,470.4,471.7,470.1z M656.5,333.7c0.2-0.8,0.7-1.2,1.6-1.1c0.8,0,1.3,0.3,1,1.1c-0.6,2.6-1.2,5.1-1.8,7.7
	C655.7,338.8,655.7,336.3,656.5,333.7z M665.9,336c-1.5,5-4,9.3-7.7,13c0.1-2.5,1-4.7,1.5-7c0.6-2.6,1.3-5.1,1.5-7.7
	c0.2-1.8,0.2-1.8,2.1-1.8C667,332.4,667,332.4,665.9,336z M672.4,334.7c1.1-2,2.6-2.6,4.5-2.1C675.7,335.2,675.7,335.2,672.4,334.7z
	 M722.1,135.1c-0.7-0.9-1-2.1-1.9-3c-0.4-0.3-0.5-0.8-0.5-1.3c-0.1-1.7-0.9-3.1-2.2-4.1c-0.9-0.7-1.3-1.5-1.4-2.6
	c-0.1-2.4-1.3-4.2-3.3-5.5c-1.1-0.7-2.2-1.6-3-2.7c-0.9-1.3-2.2-2.1-3.7-2.4c-0.9-0.2-1.7-0.5-2.5-0.7c-5.8-1.7-11.5-1.4-17.2,0.8
	c-0.5,0.2-0.8,0.4-1.2,0.7c-2,1.7-2.4,1.8-5,0.8c0.3-0.7,1-1,1.5-1.5c3-2.4,6-4.8,9-7.2c1.4-1.1,2.8-2.4,3.9-3.9
	c2.4-3.2,2.5-5.9,0.4-9.3c-0.5-0.8-0.7-1.5-0.5-2.4c0.7-3.5-0.3-6.5-3.1-8.7c-1-0.8-1.7-1.7-1.9-2.9c-0.5-2.1-1.6-3.9-3.2-5.2
	c-1.3-1.1-2.1-2.4-2.7-3.9c-2.7-5.7-5.9-11.2-10.2-15.9c-1.6-1.7-3.3-3.3-5.4-4.4c-5.1-2.6-7.4-2.1-11,2.3
	c-10,12.2-14.4,26.6-15.4,42.1c-0.9,14,1.1,27.6,4.9,41c0.2,0.7,0.5,1.4,0.5,2.3c-0.6-0.3-1-0.9-1.8-0.8c-1.8,0.1-4.2,2.2-4.6,4.1
	c-0.2,0.8-0.1,1.5,0.7,1.9c2.9,1.4,4.7,4.1,7,6.2c6.4,5.8,12.2,12.2,17.2,19.3c1.6,2.3,3.5,4.3,5.8,6.1c1.3,1,2.7,1.8,4.1,2.5
	c0.9,0.4,1.8,0.5,2.7-0.3c0.7-0.7,0.7-1.6,0.4-2.4c-0.1-0.5-0.4-0.9-0.6-1.3c-1.7-3.6-4.2-6.6-7.3-9.1c-2.3-1.9-4.5-3.8-6.7-5.8
	c-0.6-0.5-1.2-0.9-1.7-2.1c1,0.6,1.7,1,2.3,1.4c4.2,2.8,8.5,5.3,13,7.7c5.2,2.7,10.5,5.1,16.1,6.7c2.5,0.7,5,0.7,7.5-0.1
	c2-0.6,3.9-1.5,5.7-2.4c3.6-1.6,6-4.4,7.9-7.7c0.6-1,1.1-1.9,1.9-2.7c1.7-1.6,2.6-3.7,2.1-6.1c-0.2-1.1,0.1-1.8,0.8-2.6
	c1.9-2,2.5-4.5,1.8-7.1c-0.6-2.1-0.2-3.8,0.9-5.6C722.1,136.4,722.1,135.8,722.1,135.1z M708.2,124.7c1.2,1.3,1.2,2.5-0.1,3.8
	c-0.5,0.5-1.1,0.9-1.7,1.3c-3.7,1.8-7.4,3.7-11.4,5c-1.3,0.4-2.6,0.7-3.9,0.8c-0.4,0-0.7,0-1-0.1c-0.8-0.2-2.1-0.1-2.3-0.9
	c-0.2-1.1,1.1-1.1,1.8-1.5c2.6-1.6,5-3.5,7.4-5.2c2-1.4,4-2.9,6.3-3.8C705.4,123.1,707,123.4,708.2,124.7z M699.9,120.2
	c1.4,0.6,1.6,1.6,0.3,2.4c-4.8,3-9.2,6.6-14,9.6c-0.8,0.5-1.6,0.6-2.7,0.7c-0.2,0-0.6,0-1-0.1c-0.7-0.2-1.6-0.3-1.7-1.1
	c-0.2-0.7,0.7-1,1.2-1.3c3.3-2.6,6.5-5.5,9.4-8.5C694.1,119.2,696.7,118.7,699.9,120.2z M686.4,119c1.1,0.3,2.7-0.2,3.2,0.9
	c0.5,1.2-1.1,1.8-1.8,2.5c-2.5,2.4-5.3,4.6-8.2,6.5c-0.4,0.3-0.8,0.6-1.2,0.7c-0.6,0.2-1-0.2-0.8-0.7c0.7-2.3,1.2-4.6,2.2-6.8
	C681.1,119.6,683.8,119.3,686.4,119z M678.6,80.9c1.9,1,2.5,3,2.7,4.6c0,2-0.5,3.4-1.6,4.6c-2,2.2-4,4.4-6,6.5
	c-3.5,3.7-6.8,7.4-9.6,11.6c-0.1,0.2-0.3,0.4-0.4,0.6c-0.2,0.4-0.6,0.6-1,0.5c-0.6-0.2-0.6-0.7-0.5-1.2c1-8.7,3.3-17.1,8.3-24.4
	c0.6-0.9,1.4-1.7,2.4-2.3C674.7,80.3,676.7,79.8,678.6,80.9z M661.2,95.3c-1.8-3-2.5-6.2-1.5-9.7c0.3-1,0.8-1.9,1.7-2.5
	c1-0.6,2.1-0.9,3.1-0.2c1,0.7,1.3,1.8,1,3c-0.1,0.4-0.2,0.8-0.4,1.1c-0.9,2.4-1.9,4.7-2.9,7.1C662.2,94.6,662.1,95.2,661.2,95.3z
	 M673.3,70.3c1.1,1.2,1.4,2.6,0.7,4.2c-0.6,1.4-1.6,2.4-2.7,3.3c-0.8,0.6-1.6,1.2-2.6,0.7c-1.1-0.5-0.8-1.6-0.9-2.5
	c0.1-2.3,0.8-4.2,2.4-5.8C671.4,69.1,672.3,69.2,673.3,70.3z M664.8,64.5c0.6-0.7,1.3-1.3,2.2-1.2c1,0.1,1.9,0.5,2.4,1.4
	c0.6,0.9,0,1.7-0.5,2.4c-1.6,2-2.7,4.3-3.5,6.7c-0.4,1.4-1.3,2.5-2.4,3.5c-0.5,0.5-1.1,1-1.9,0.7c-0.9-0.3-1-1.1-1-2
	c0-0.2,0-0.3,0-0.5C660.6,71.4,662,67.6,664.8,64.5z M655.5,74.1c0.4-2.2,0.3-4.9,0.9-7.4c0.3-1.2,0.7-2.3,1.7-3
	c0.7-0.5,1.5-0.6,2.2-0.1c0.7,0.5,0.7,1.1,0.5,1.9c-0.9,3.2-1.8,6.4-2.7,9.6c-0.2,0.8-0.6,1.6-1.6,1.4
	C655.4,76.3,655.3,75.4,655.5,74.1z M657.4,84.3c0.4,2.3-0.4,4.4-1.5,6.4c-0.4,0.8-1,0.3-1.3-0.2c-1-1.5-1.7-3.1-1.7-5.2
	c0-0.1,0-0.5,0.1-0.9c0.3-1.5,1-2.2,2.1-2.2C656.2,82.3,657.2,83,657.4,84.3z M651.4,69.6c0.2-0.6,0.5-1,1.1-1.1
	c0.8,0,1.1,0.5,1.3,1.2c0.1,0.4,0.1,0.8,0,1.2c-0.2,1.7-0.4,3.5-0.3,5.2c0,0.6,0,1.4-0.9,1.4c-0.8,0-1.1-0.7-1.1-1.3
	c-0.1-1.1-0.2-2.2-0.3-3.3C651.2,71.8,651.1,70.6,651.4,69.6z M647.6,75.3c0.6-0.9,1.3-0.8,1.8,0.2c0.4,0.9,0.7,1.9,0.6,2.9
	c0.1,1-0.1,2-0.6,2.8c-0.3,0.6-0.8,1-1.5,0.9c-0.6-0.1-1-0.5-1.2-1.1C646.1,79,646.4,77.1,647.6,75.3z M645.9,89.3
	c0.3-1.7,1.6-3.2,2.8-3.1c1.3,0,2.5,1.8,2.5,3.5c-0.1,1.1-0.3,2-1.1,2.7c-1.2,1-2.9,0.8-3.7-0.5C646,91.1,645.8,90.3,645.9,89.3z
	 M645.8,110.5c-0.1,0.5-0.2,0.9-0.8,1.4c-0.9-3.8-1-7.5-0.5-11.1c0.2-1.5,0.6-2.9,1.7-4.1c0.5-0.5,1-1,1.8-1.1
	c1.4-0.3,2.4,0.7,2,2.1c-0.1,0.4-0.3,0.8-0.4,1.1C647.9,102.5,646.6,106.4,645.8,110.5z M651.5,138.3c-0.1,0.5-0.2,0.9-0.8,1.4
	c-1.7-3.4-2.6-6.9-3.3-10.4c-1.8-9.9-0.5-19.4,3.7-28.5c0.8-1.7,1.8-3.4,3.1-4.8c0.8-0.8,1.6-1.7,2.9-1.3c1.3,0.4,1.9,1.4,2.1,2.7
	c0.8,3.6,0.7,7.2,0.3,10.7c-0.6,6.2-2.1,12.3-4.3,18.1C653.8,130.1,652.5,134.1,651.5,138.3z M654.1,138.6c-0.2-1.1,0.1-2.1,0.4-2.9
	c3.5-10.8,7.7-21.3,14.8-30.5c3.3-4.3,6.9-8.2,11.1-11.6c0.6-0.5,1.2-1,1.9-1.5c2.5-1.7,4.4-1.7,6.5,0.1c2.3,2,2.7,4.2,1.3,6.9
	c-1.1,2.1-2.6,3.8-4.4,5.3c-6.5,5.2-11.9,11.3-16.8,18c-4,5.3-8.4,10.3-13,15C655.3,137.9,655,138.5,654.1,138.6z M656.7,141.2
	c5.2-4.8,10.4-9.7,14.8-15.3c0.7-0.9,1.6-1.6,2.6-2c1.5-0.6,2.2-0.1,2.1,1.4c-0.2,2.7-1.2,5-3.6,6.7c-3.9,2.9-8.1,5.5-12.2,8
	c-1.5,0.9-2.9,1.8-4.5,2.7C655.7,141.8,656.3,141.6,656.7,141.2z M658.9,143.1c5.4-3.5,11-6.4,16.7-9.3c1.4-0.7,2.9-0.8,4.4-0.2
	c2.9,1.2,6,2.3,9.1,3c0.5,0.1,1.2,0.2,1.2,0.9c0,0.7-0.6,0.8-1.1,1.1c-5,2.2-10.1,4-15.4,5.1c-4.5,0.9-9.2,1.3-13.7,1.8
	c-1,0.1-2.1,0.2-2.9-0.6C657.4,144,658.2,143.6,658.9,143.1z M695.5,167.7c-0.8,0.3-1.7,0.5-2.6,0.3c-1-0.2-2.1-0.4-3-0.7
	c-11.1-4.1-21.2-10-30.6-17.1c-0.4-0.3-0.8-0.5-0.9-1.3c2,0.3,3.7,1.1,5.4,1.7c10.2,4,20.2,8.4,30.5,12c0.7,0.2,1.3,0.6,1.9,1
	C697.8,164.9,697.5,167,695.5,167.7z M704.3,157.8c-0.3,1.5-1.5,2.2-2.8,2.7c-1.6,0.6-3.3,0.6-4.9,0c-11.4-4.5-23-8.2-34.6-12
	c-0.4-0.1-0.8-0.2-1-0.7c1.4-0.7,2.9-0.7,4.4-0.5c10.3,1.2,20.6,2.3,30.8,4.2c2.4,0.4,4.6,1.3,6.5,2.9
	C703.8,155.2,704.6,156.2,704.3,157.8z M707.4,150.6c-1.8,0.4-3.5,0.1-5.2-0.3c-6.4-1.6-12.9-2.8-19.5-3.4c-2.2-0.2-4.4-0.3-6.6-0.4
	c0-0.2-0.1-0.4-0.1-0.5c2.8-1,5.7-1.5,8.5-2.1c6.8-1.4,13.6-1.9,20.5-1c0.9,0.1,1.9,0.3,2.8,0.5c2.1,0.6,3,1.6,2.9,3.5
	C710.6,148.7,709.3,150.2,707.4,150.6z M711.5,140.1c-1,0.6-2.1,0.9-3.2,0.7c-5.3-0.9-10.6-0.9-16-1c5.2-3,10.6-5.5,16.6-6
	c0.6,0,1.1,0,1.7,0.1c1.7,0.3,2.8,1.4,2.9,2.7C713.7,138.2,712.9,139.3,711.5,140.1z M710.9,203.2c-0.7-0.1-1.4-0.1-2.2-0.1
	c-8.9,0-17.8,0-26.6,0c-0.6,0-1.1,0-1.7,0c-1,0-1.4-0.3-1.2-1.4c1-7.1,0.7-14.4,1.4-21.5c0.1-0.8,0.4-2.1-0.8-2.1
	c-1.1,0-0.8,1.2-0.8,1.9c-1,7.4-3,14.6-4.7,21.8c-0.3,1.1-0.9,1.4-1.9,1.3c-1.5,0-3,0-4.6,0c-1.6-0.1-3.4,0.6-4.7-0.3
	c-1.1-0.8-1.1-2.8-1.7-4.1c-0.5-1.1-0.6-2.1,0.2-3.1c0.8-0.9,1.1-2.1,2.8-2.1c2.1,0.1,3.7-2,3.5-4c-0.2-2-2.5-3.6-4.6-3.3
	c-2.2,0.4-3.5,2.2-2.8,4.4c0.4,1.5-0.2,2.4-1,3.7c-0.6-1.2-1.5-2.1-1.3-3.2c0.3-2,0.9-3.9,1.5-5.8c0-0.2,0.4-0.2,0.6-0.4
	c2-1.5,2.4-2.9,1.5-5.2c-0.7-2-2.3-3-4-2.7c-1.8,0.4-3.1,2.1-3.2,4c0,1.1,0.4,2,1.1,2.8c1.2,1.5,1.2,1.8,0,3.6c-1.5-2-2.9-4-4.6-5.8
	c-1.2-1.3-1.5-2.7-1.5-4.4c0-0.8,0.1-1.3,1-1.7c1.8-0.8,2.4-2.2,2.1-4.1c-0.3-1.8-1.9-3.2-3.8-3.5c-1.5-0.3-2.8,0.3-3.9,1.4
	c-0.7-1.1-1.2-1.8-0.5-3c1-1.8,0.2-3.7-1.7-4.3c-1.3-0.4-1.7-1.3-2.2-2.3c-1.5-3.4-3-6.9-4.5-10.3c-3.6-8.1-7.8-16-13.6-22.8
	c-0.9-1-0.8-1.9-0.2-3c1.3-2.4,2.4-4.9,3.6-7.3c2.7-6,4.5-12.1,4.7-18.7c0.2-5.7-0.9-11.3-1.8-16.9c-0.3-1.9-0.6-3.8-0.9-5.7
	c-0.1-0.9-0.4-1.8-1.5-1.9c-0.9-0.2-1.5,0.4-1.9,1.1c-0.2,0.3-0.4,0.7-0.7,1c-2.8,4.3-5,8.9-6.8,13.7c-2.9,8.3-4.3,16.7-3,25.5
	c0.1,0.9,0.6,1.9,0.3,3.3c-3-3.1-5.7-6.1-8.5-8.9c-1.1-1.1-1.2-2-0.7-3.4c1.7-4.9,2.5-9.9,2.7-15c0.2-7.4-1.2-14.5-3.6-21.4
	c-1.9-5.7-4.3-11.2-6.9-16.6c-0.3-0.7-0.6-1.3-1.5-1.4c-1-0.1-1.4,0.6-1.8,1.3c-0.1,0.3-0.2,0.6-0.4,0.9c-5.6,14.2-6,28.5-0.4,42.8
	c0.2,0.5,0.7,1,0.3,1.8c-1.9-1.6-3.7-3.1-5.6-4.6c-3.9-3.2-7.9-6.3-12-9.2c-1.5-1.1-2.1-2.3-1.7-4.1c0.1-0.4,0.1-0.8,0.2-1.2
	c0.8-5.5,0.9-11-0.3-16.5c-2.5-11.9-10.1-20.3-19-27.7c-1-0.8-1.7-0.6-2.4,0.5c-1.1,1.6-1.7,3.4-2.1,5.3c-0.7,3.3-0.3,6.5,0.2,9.8
	c1.2,7.6,4.3,14.5,8.5,20.9c0.5,0.7,1.1,1.3,1.3,2.2c-0.3,0-0.4,0.1-0.4,0c-6.4-3.8-12.9-7.5-19.5-10.7c-0.7-0.4-1.4-0.8-1.7-1.6
	c-1-2.3-2.2-4.5-1.5-7.1c0.2-0.7,0-1.4-0.1-2.1c-0.8-5-2.8-9.5-5.9-13.5c-4.1-5.2-8.5-10-12.7-15c-0.6-0.7-1.2-1.4-2.2-1
	c-0.9,0.4-1.2,1.2-1.3,2.1c-0.1,1.1-0.2,2.2-0.4,3.3c-1.2,7,0.3,13.3,4.5,19c2.3,3.1,4.9,5.9,7.8,8.4c0.6,0.5,1.3,0.9,1.8,2.1
	c-5.5-2.2-10.6-4.1-15.9-5.7c-1.4-0.4-1.8-1.3-1.9-2.7c-0.2-6.6-2.8-12.2-7-17.2c-3.6-4.2-7.8-7.5-12.5-10.4
	c-0.7-0.5-1.6-0.7-2.1-1.5c-0.3,0-0.6,0-1,0c-0.7,0.8-1,1.6-0.7,2.8c2.4,9.6,6.6,18.1,14,24.9c0.2,0.2,0.3,0.3,0.5,0.5
	c0,0.1,0,0.2,0.1,0.3c-2.3,0-4.1-0.9-5.7-2.5c-1.2-1.2-2.5-2.5-3.8-3.6c-9.1-7.4-19.4-8.8-30.4-5.8c-1.5,0.4-2.9,0.6-4.5,0.5
	c-5.1-0.5-10.2-0.9-15.3-0.8c-3.1,0.1-6-0.7-8.9-1.7c-3.5-1.3-6.8-3.1-10.1-4.9c-6-3.3-12.3-5.8-18.4-8.6c-1.5-0.7-3.1-0.4-4.6-1.2
	c-1.3,0-2.6,0-3.8,0c-2.1,0.8-4.3,0.3-6.4,0.5c-0.7,0.1-1.5-0.2-2.5,0.6c14.4,4.3,28.3,8.9,42.1,15.2c-7.4-0.1-14.3,0.1-21.3,0.6
	c-3.4,0.2-6.5-0.7-9.2-2.8c-2.4-2-5.2-3.1-8.1-3.9c-1.6-0.4-3.2-0.9-4.9-1.3c-6-1.6-12-2.7-18.2-2.7c-5.4,0-10.9,0.5-16.3,0.6
	c-2.2,0-4.5,0.3-6.7,0.5c-0.7,0.1-1.3,0.2-1.4,1c0,0.8,0.7,0.8,1.2,0.9c1.1,0.1,2.2,0.3,3.3,0.3c5.2,0.2,10.4,0.9,15.5,1.8
	c10.6,1.8,21.3,3.5,31.8,6.1c0.3,0.1,0.6,0.2,0.5,0.7c-7.4,1-14.7,2.6-22,4.4c-4.1,1-8.4,1.2-12.6,0.9c-3.8-0.3-7.6-0.7-11.2-2.2
	c-0.7-0.3-1.5-0.4-2.3-0.5c-5.6-0.5-11.2-0.7-16.8-0.3c-6.4,0.5-12.7,1.9-19,2.5c-0.6,0.1-1.1,0.1-1.6,0.3c-0.4,0.1-0.7,0.5-0.6,0.9
	c0.1,0.3,0.4,0.5,0.7,0.6c0.3,0,0.6,0,0.9,0c9.1-0.5,18.2,0.1,27.3,1c5.9,0.6,11.7,1.5,17.7,0.4c1.4-0.3,2.9-0.3,4.5-0.1
	c-0.1,0.3-0.1,0.4-0.1,0.4c-0.6,0.2-1.2,0.4-1.8,0.6c-9.2,2.9-18.1,6.5-26.3,11.5c-1.3,0.8-2.1,0.2-3.1-0.2c-1-0.3-1.7-0.7-2-2
	c-0.4-2.2-2.5-3.2-4.6-2.6c-1.8,0.6-2.9,2.9-2.2,4.9c0.6,2,2.7,3,4.6,1.9c1.4-0.7,2.4-0.2,3.8,0.1c-1.2,1.5-2.4,2.3-4.2,2.1
	c-1.1-0.2-2.2-0.2-3.3-0.2c-0.6,0-1-0.1-1.5-0.6c-1.9-1.7-3.3-1.8-5.3-0.5c-1.3,0.8-2.1,2-1.9,3.6c0.2,1.5,1.3,2.6,3.1,3
	c1.6,0.3,3-0.2,4.1-1.5c1.3-1.6,1.4-1.6,3.5-0.8c-1.6,1.9-3.4,3.6-4.8,5.6c-1.1,1.5-2.5,1.8-4.1,2.2c-0.6,0.1-1.1-0.1-1.4-0.6
	c-1.1-1.6-2.6-2.1-4.4-1.4c-1.8,0.6-2.5,2.2-2.7,3.9c-0.2,1.9,0.7,3.3,2.5,3.9c1.8,0.6,3.3,0.1,4.3-1.5c0.3-0.4,0.4-1,1.3-0.8
	c-0.6,1-1.3,1.8-1.7,2.8c-0.7,1.6-2.3,1.9-3.7,2.3c-1.2,0.4-1.7-0.6-2.4-1.2c-1.1-0.8-2.1-1-3.3-0.3c-1.3,0.7-1.8,1.8-1.6,3.2
	c0.1,1.6,1.4,3,3,3.4c1.4,0.3,2.7-0.2,3.6-1.7c0.4-0.6,0.6-1.3,1.5-0.9c-0.8,1.9-0.8,1.9-2.7,3.2c-1.4,1-1.9,3-1.1,4.5
	c0.7,1.2,2.1,1.7,3.5,1.2c1.6-0.5,2.6-2.4,2.2-4.1c-0.1-0.4-0.3-0.7-0.5-1.1c-0.2-0.3-0.2-0.6-0.1-0.9c0.2-0.8,3.1-4.8,3.9-5.3
	c0.2,0.8-0.6,1.3-0.8,1.9c-0.4,1.5,0.4,3.4,1.8,4.1c1.3,0.7,2.8,0.4,3.7-0.7c1-1.2,0.9-3.2-0.3-4.4c-0.3-0.4-0.7-0.7-1.1-0.9
	c-0.5-0.2-0.7-0.6-0.7-1.1c0.1-2.3,0.1-4.6,2-6.3c1-0.9,1.7-2.1,2.6-3.1c0.3-0.4,0.6-1,1.3-0.8c0.5,1.4,0.6,2.4-0.7,3.6
	c-1.4,1.2-1.2,3.4,0,4.8c1,1.2,2.7,1.6,4.1,0.8c1.4-0.8,2.1-2,2.1-3.5c0.1-1.4-0.5-2.6-1.8-3.1c-1.2-0.4-1.2-1.3-1.5-2.2
	c-0.8-2.3,0.1-3.9,1.9-5.3c0.8-0.5,1.4-1.3,2.2-1.8c0.7-0.5,1.4-1.8,2.1-1.2c1,0.9-0.7,1.3-0.9,2c0,0.1-0.2,0.3-0.2,0.4
	c-0.6,1.5-0.5,2.8,0.6,4c1,1.2,2.4,1.7,3.6,1.1c1.4-0.7,2.1-1.9,2.2-3.4c0.1-1.2-0.5-2.1-1.4-2.9c-1.8-1.6-1.5-3.3,0.5-4.5
	c1.6-0.9,3.3-1.7,4.7-2.9c2.3-1.8,4.9-2.9,7.6-3.9c8.8-3.3,17.7-5.9,26.8-8.1c1.4-0.4,2.9-0.9,4.5-0.9c-1.2,2.1-1.4,2.9-0.8,4.1
	c1.1,2.3,3.6,3.1,5.8,1.7c0.7-0.4,1.2-1.1,2.2-0.3c-1.2,1.5-2.8,2.6-4.1,4c-1.7,2-3.6,2.6-6.1,1.4c-1-0.4-1.7-0.6-2.1-1.9
	c-0.7-2.2-3.2-2.9-5.4-1.8c-2,1-2.8,3.2-1.7,5c1.1,1.9,4,2.8,5.6,1.3c1.6-1.5,2.8-0.8,4.3,0c-2.4,1.9-5,3.4-7.6,4.7
	c-1.7,0.8-3.4-0.3-5.1-0.3c-0.4,0-0.4-0.6-0.6-1c-0.3-0.8-0.9-1.3-1.6-1.7c-1.8-1-4-0.5-4.8,1.1c-0.8,1.6,0.1,3.7,1.9,4.6
	c1,0.5,2,0.5,3,0.1c0.4-0.2,0.9-0.8,1.6,0.2c-1.5,0.7-3,1.4-4.5,2.2c-1.3,0.7-2.4,1.1-3.9,0.1c-1.4-1-3.6,0-4.6,1.5
	c-0.9,1.5-0.6,3.1,0.7,4.1c1.4,1,3.6,0.7,4.8-0.6c0.1-0.1,0.1-0.1,0.1-0.2c0.7-1.7,2.3-1.8,3.9-2.3c0,1.1-0.7,1.4-1.4,1.7
	c-1.6,0.5-2.3,1.7-2.2,3.3c0,1.6,0.8,2.7,2.1,3.5c1.5,0.8,3.1,0.6,4.2-0.6c1.1-1.2,1.4-2.6,0.3-3.9c-1.4-1.6-0.9-3,0-4.5
	c0.7-1.3,3.3-2.7,5.5-3c-0.2,0.8-0.9,0.8-1.4,1.1c-1.4,0.6-1.9,1.8-2,3.3c0,1.5,0.4,2.7,1.7,3.5c1.8,1.1,4.7,0.7,6.1-1
	c1.3-1.6,1.2-3.5-0.4-5.4c-0.3-0.4-0.8-0.6-0.7-1.2c0.4-1.3,0.5-2.9,1.6-3.6c2.7-1.9,5.4-3.6,8.3-5.7c0,2.1,0,3.5-2,4.4
	c-1.8,0.8-2,2.8-1.5,4.6c0.3,1.5,1.5,2.6,3,2.8c1.9,0.2,3.2-0.9,4.1-2.4c0.9-1.4,1.3-3.1,0-4.5c-0.8-0.9-1-1.8-0.8-2.8
	c0.1-1,0.3-2.1,0.3-3.1c-0.1-1.9,1.1-3,2.7-4c0.3,1.6,0.4,2.7-0.4,4.1c-1.2,1.9-0.5,4.1,1.5,5.1c2.1,1,4.7,0.2,5.5-1.8
	c0.9-2.1,0-4.5-2.4-5.1c-1.5-0.4-1.4-1.5-1.7-2.5c-0.3-1-0.7-2,0.3-3.1c1.3-1.4,2.3-3.1,3.5-4.6c1-1.3,1.3-3.2,2.7-3.8
	c1.5-0.6,3.3-0.5,5-0.6c13.5-0.9,27-1,40.5-0.7c0.5,0,1-0.1,1.5,0.3c-1.8,0.8-3.4,1.4-5,2.2c-7,3.8-14.3,7.3-21,11.6
	c-4.2,2.7-8.9,4.3-13.7,5.5c-0.8,0.2-2.3-0.2-2.2,1.3c0.1,1.1,1.5,1.2,2.4,1.2c6.3,0.3,12.5,0.1,18.5-2.1
	c8.6-3.1,16.4-7.9,24.4-12.2c1-0.6,1.8-1.3,2.7,0c0.4,0.5,1.2,0.5,1.8,0.4c4.7-0.6,9,0.7,13.3,2.4c2.9,1.1,5.8,2.2,8.9,2.8
	c4.3,0.8,8.3,0.3,11.6-3c0.9-0.9,1.8-1,3-0.8c6.8,1.4,13.6,3.1,20.2,5.2c0.4,0.1,1,0,1.1,0.7c-0.3,0.6-1,0.5-1.5,0.7
	c-6.4,2.4-11.9,6.2-16.8,10.9c-1.7,1.6-3.1,3.5-4.2,5.5c-0.8,1.5-1.2,3.1-0.9,4.9c0.1,0.7,0.2,1.3,1.2,1.1c5.5-0.8,10.9-1.7,16-4
	c6.7-3.1,11.7-7.8,14.1-14.9c0.5-1.6,0.6-1.6,2.2-1c6.7,2.5,13.1,5.6,19.5,8.7c0.3,0.1,0.6,0.3,0.6,0.7c-0.3,0.4-0.7,0.3-1,0.4
	c-12.4,2.8-20.4,10.8-25.6,22c-1,2.2-0.3,3.1,2.1,2.9c1.3-0.1,2.5-0.5,3.8-0.5c5.6,0,10.5-1.9,14.9-5.1c4.6-3.3,7.9-7.7,10.6-12.5
	c0.3-0.6,0.7-1.3,1-1.9c1-1.7,1.1-1.8,2.8-0.9c0.3,0.1,0.6,0.3,0.8,0.5c8.2,4.8,16.1,10.1,23.7,15.8c0.4,0.3,0.9,0.4,0.9,1.2
	c-0.8,0-1.5,0-2.3,0c-5.9-0.2-11.7,0.4-17.3,2c-3.5,1-6.9,2.2-10,4c-2.4,1.4-4.6,3.2-6.1,5.6c-0.9,1.4-0.6,2.2,1,2.7
	c0.4,0.1,0.8,0.2,1.2,0.2c6.3,1.3,12.7,1.8,19.1,0.7c7.5-1.2,14.2-4,19-10.1c0.1-0.1,0.2-0.2,0.3-0.4c0.6-0.7,1.2-0.7,1.9-0.2
	c0.3,0.2,0.6,0.5,0.9,0.7c6.6,5.2,12.8,10.9,19,16.6c0.2,0.2,0.5,0.4,0.4,0.7c-0.1,0.3-0.4,0.3-0.6,0.3c-8.1-0.1-15.6,2.1-23.1,4.9
	c-3.8,1.4-7.4,3.4-10.6,6c-1.4,1.2-2.7,2.5-3.3,4.3c-0.6,1.7-0.2,2.4,1.5,2.6c0.7,0.1,1.4,0.2,2.1,0.3c6.7,0.9,13.3,1.7,20.1,1.1
	c8.4-0.7,15.2-4,19.9-11.2c0.3-0.4,0.5-1,1.1-1.2c0.7,0.2,1,0.8,1.4,1.3c2.9,3.3,5.9,6.6,8.9,9.8c4,4.2,7.2,8.9,9.8,14.2
	c3,6,5.3,12.3,8,18.5c0.3,0.7,0.4,1.3,0.2,2.1c-0.5,1.5-0.2,2.8,1.2,3.8c0.5,0.4,0.9,0.9,0.5,1.6c-1.8-1.1-1.8-1.1-2.8-3.3
	c-0.7-1.4-2.3-2.3-3.7-2.1c-1.3,0.2-2.2,1.1-2.4,2.3c-0.3,1.4,0.6,3,2,3.8c0.8,0.4,1.7,0.6,2.5,0.2c0.5-0.2,0.9-0.3,1.3,0.1
	c1.6,1.5,3.4,3,5,4.9c-1.3,0-1.6-0.9-2.3-1.2c-1.3-0.6-3.1-0.3-4.2,0.7c-1.1,1-1.3,2.3-0.6,3.5c0.7,1.3,2,1.8,3.7,1.6
	c0.8-0.1,1.5-0.5,2.1-1.1c0.3-0.3,0.7-0.8,0.8-0.8c1.5,0.5,3.4,0.2,4.5,1.2c2.1,1.9,4,4,5.6,6.6c-1.8,0.6-2.9,0.2-3.9-1.4
	c-0.8-1.3-2.4-1.6-3.9-1.2c-1.4,0.4-2.4,1.3-2.6,2.8c-0.2,1.6,0.5,2.8,1.8,3.7c1.7,1.1,3.7,1,4.9-0.6c0.7-0.9,1.4-1.1,2.5-0.9
	c0.7,0.1,1.4,0.1,2.2,0.1c0.5,0,1,0,1.3,0.5c1.6,2.3,2.9,4.6,4.1,7.2c-0.4,0.1-0.6,0.2-0.7,0.2c-0.3,0-0.6-0.2-0.8-0.5
	c-0.3-0.4-0.5-0.8-0.9-1.1c-1.2-1.1-3-1.2-4.5-0.3c-1.5,0.9-2.1,2.2-1.6,3.6c0.4,1.4,2,2.6,3.7,2.6c0.9,0,1.8-0.1,2.4-0.9
	c0.9-1.1,2-0.7,3.1-0.6c0.7,0.1,1.9,2,1.6,2.9c-0.3,1-1.2,0.5-1.8,0.6c-0.6,0.1-1.3,0-1.9,0c-139.7,0-279.4,0-419,0
	c-0.8,0-1.6,0-2.4,0c-0.4,0-0.8,0.1-1.2-0.5c1.3-0.9,2.6-1.7,4-2.6c2-1.3,2-2.1,0.2-3.6c-1.9-1.6-4.2-2.3-6.6-2.6
	c-10.6-1.4-20.7,0.3-30.5,4.3c-0.6,0.2-1.2,0.7-2.1,0.6c0.6-1.5,1.2-2.9,1.7-4.3c2.6-6.5,5.4-13,8.4-19.3c1.1-2.3,1.1-2.3,3.3-1.2
	c3.2,1.5,6.6,2.3,10.2,2.3c10.4-0.1,19.2-4.5,27.1-10.7c1.5-1.2,1.4-2.1-0.3-3.1c-2.8-1.7-5.9-2.4-9.2-2.5
	c-8.3-0.1-16.1,1.9-23.6,5.5c-1,0.5-2.1,1-3.6,1.7c0.4-1,0.7-1.6,1-2.1c4.2-8,8.8-15.8,13.9-23.3c0.4-0.5,0.7-1,1.1-1.6
	c0.6-0.9,1.3-1,2.2-0.3c0.8,0.7,1.6,1.3,2.5,1.9c3,2.2,6.3,4.1,9.9,5.4c5.7,2,11.4,2.4,17.2,0.4c1.9-0.7,3.7-1.5,5.6-2.1
	c2.4-0.8,2.6-2,0.6-3.7c-3.1-2.7-6.5-5-10.2-6.7c-5.8-2.7-11.9-3.7-18.2-2.7c-1.3,0.2-2.6,0.8-3.8,0.6c-0.2-0.4,0-0.6,0.1-0.8
	c4.3-5.5,8.7-10.9,13.5-15.9c1.2-1.2,1.2-1.3,2.4,0c5.4,5.8,12.2,7.8,20,7.4c4.8-0.2,9.4-1.6,14-3c0.9-0.3,0.9-0.8,0.7-1.5
	c-0.5-1.8-1.7-3.2-3.2-4.3c-1.8-1.2-3.7-2.2-5.7-3c-6-2.2-12.2-3.2-18.6-2.8c-0.6,0-1.4,0.5-2-0.4c5.3-5.1,10.9-9.7,16.7-14.2
	c0.9-0.7,1.8-0.5,2.7-0.2c2.3,0.8,4.7,0.9,7.1,0.1c2.6-0.9,4.7-2.4,6.6-4.3c2-1.9,3.9-4,5.9-5.9c2.6-2.5,5.4-4.8,8.9-5.9
	c0.2-0.1,0.4-0.2,0.7-0.3c1.6-1,1.7-2.8,0.2-3.9c-0.8-0.6-1.8-1-2.8-1.2c-2-0.3-4-0.5-6-0.5c-13.6-0.1-25.4,8.1-30.3,21
	c-0.4,1.1-0.8,2.3-1.3,3.4c-0.8,1.8-1.8,2.6-3.5,3c0.1-0.2,0.2-0.5,0.2-0.7c3.7-9.2,3.9-18.7,2.1-28.3c-0.2-0.8-0.4-1.6-1.2-1.9
	c-1-0.2-1.4,0.6-1.8,1.2c-2.9,4.3-5.3,8.9-6.9,13.9c-2.1,6.8-2.4,13.5,0.3,20.2c0.6,1.5,0.3,2.5-0.9,3.6c-3.5,3.1-6.7,6.5-9.8,9.9
	c-0.3,0.4-0.6,0.8-1.4,0.9c0.4-0.9,0.6-1.6,0.9-2.2c1-2.3,1.8-4.6,2.5-7c1.3-4.8,1.8-9.7,0.7-14.7c-1-4.2-3.5-7.7-5.7-11.3
	c-0.4-0.7-1.1-0.9-1.9-0.8c-1,0.2-1.1,1.1-1.3,1.8c-1.8,6.5-3.8,12.9-5.1,19.5c-1.2,5.9-1,11.6,1.9,17.3c1.5,2.9,1.7,6.2-0.9,9.2
	c-3.9,4.6-7.3,9.7-10.6,14.8c-0.4,0.6-0.7,1.4-1.5,1.8c-0.1-0.1-0.2-0.1-0.1-0.2c0.2-1.5,0.4-3,0.6-4.5c0.9-8.4,0.3-16.6-2.8-24.6
	c-1.2-3.2-3-6-5.8-8.1c-1.7-1.3-2.4-1.1-3.3,0.8c-1.9,4.2-3.6,8.6-4.7,13.1c-1.7,7-1.9,14.1,0.1,21.1c1.4,5,3.6,9.6,6.5,13.8
	c1.1,1.7,1.1,3.1,0.2,4.9c-3.3,5.9-6.2,11.9-9,18c-0.2,0.5-0.3,1.3-1.1,1.4c0-0.5-0.1-1-0.1-1.5c-0.4-7.4-2.1-14.5-5.3-21.3
	c-3.2-6.7-7.6-12.6-13-17.7c-0.6-0.6-1.3-1.3-2.3-0.7c-0.8,0.4-0.8,1.1-0.8,1.8c0.1,7,0.2,14.1,1.2,21.1
	c1.7,11.4,5.9,21.7,13.9,30.2c0.9,0.9,1.2,1.7,0.7,3c-0.5,1.2-0.8,2.4-1.2,3.6c-0.7,2.2-0.7,2-3,2.2c-1.6,0.1-2-0.8-2.5-2
	c-5-11.6-13.3-20.2-23.7-26.9c-0.7-0.4-1.4-0.9-2.2-0.3c-0.9,0.6-0.8,1.5-0.5,2.4c0.4,1.5,0.9,3.1,1.3,4.6c1.9,7.5,3.9,15,8.2,21.6
	c0,0.1,0,0.1,0,0.4c-0.9,0.4-1.8,0.2-2.8,0.2c-20,0-40,0-60,0c-0.7,0-1.4,0-2.2,0c-1.5,0.1-2.3,0.9-2.4,2.2
	c-0.1,1.4,0.8,2.4,2.2,2.6c0.9,0.1,1.9,0.1,2.9,0.1c199.8,0,399.7,0,599.5,0c0.7,0,1.4,0,2.2,0c0.5,0,1-0.1,1.4-0.2
	c1.2-0.4,1.8-1.5,1.6-2.7C712.8,204.1,712.1,203.3,710.9,203.2z M391,45.3c-1,1.3-3.2,1.4-4.2,0.1c-0.4-0.5-0.6-1.1-1.1-1.6
	c-0.4-0.4-1.2-0.5-1.5-1.2c3.2-0.7,6.4-1.4,10.1-1.8C393,42.6,392,43.9,391,45.3z M644.7,174.4c1.1,0.3,1.6,0.5,1.6,1.5
	C645.4,175.8,645.1,175.3,644.7,174.4z M218.3,170.7c3.6-0.7,7.2-1.4,10.8-2.1c0.1,0,0.2,0,0.2,0c0.8-0.2,1.9-0.2,1.7-1.5
	c-0.2-1.2-1.2-1.1-2.1-1.1c-1.3-0.1-2.6,0-3.8,0.2c-0.9,0.1-1.9,0.2-2.9,0.1c7.3-3,14.9-3.6,22.9-2.2c-9.1,7.4-23.3,11-30.1,7.5
	C216.5,171.2,217.4,170.9,218.3,170.7z M262.3,142.6c-5.4,4-18.4,2.6-26.1-3.2c4.9-0.4,9.4,0.4,13.9,0.9c-2.1-2.2-4.8-3.1-7.6-3.5
	c-2.7-0.5-5.6,0-8.5-0.6C241.7,132.4,256.5,136.7,262.3,142.6z M281.2,79c5.2-3,10.6-4.4,17.1-3.1c-5.5,3.5-9,8.4-13.6,12.3
	c-3,2.6-5.4,3.4-8.7,3.2c1.8-1.8,3.9-2.9,5.8-4.2c1.9-1.4,3.8-2.6,5.9-4c-2.6-0.2-5.9,1.1-9.9,3.8c-3,2-5.8,4.1-8.9,6.3
	C269.8,89,275.6,82.3,281.2,79z M260.1,73.9c1.2,4.9,0.9,9.3,0.6,13.6c-0.4-2.2,0-4.5-0.9-7c-1.7,3.3-2,6.6-2.5,9.8
	c-0.5,3.2-0.8,6.5-2.1,9.5C252.6,90.6,255.1,82.3,260.1,73.9z M269.7,117.4c-2.7-3.7-6.5-4.5-10.3-5.4c7.2-0.3,13.8,2,20,5.6
	c-5.7,4.3-21.1,3.6-26.1-3C259,114.7,264.2,115.9,269.7,117.4z M237.8,88.1c5.1,8.8,4.7,17.7,0.7,26.7c0-4.1,1.2-8.2,0.2-12.9
	c-2.6,4.8-3,9.8-4.6,14.4C231.4,106.5,234.3,97.3,237.8,88.1z M210.2,113.5c0.9,0.3,1.2,1.2,1.5,1.9c2.1,4.2,3.4,8.6,4.2,13.2
	c1.1,6.2,1.4,12.4,0.2,18.6c-0.1,0.3-0.2,0.6-0.2,0.9c-1,0-0.6-0.7-0.6-1c-0.2-3.9-0.4-7.8-1.1-11.7c-0.5-2.7-1.2-5.4-3.1-7.6
	c0.4,8.7,2,17.2,1.4,25.9c0,0.3,0,0.6-0.3,0.8C203.8,144.9,202.5,125.3,210.2,113.5z M182.8,202.2c-1.1-1.8-2.2-3.5-3.6-5.1
	c-1.7-2.1-3.6-4-6.2-5.2c1.6,3.8,4.3,7.1,6.2,11c-2.3,0.4-3.9,0.3-5.4-1.7c-4.2-5.9-6.9-12.4-8.1-19.5c0-0.3,0-0.6,0-1.4
	c7.9,6.4,13.8,13.9,18.5,22.4C183.4,203.2,183.1,202.7,182.8,202.2z M196.7,186.8c-1.3-6.6-2.4-13.1-5.9-18.8
	c-0.6-0.9-1.1-1.9-2.3-2.8c1.4,8,4.1,15.4,4.8,23.4c-6.9-5.2-13.4-28.8-11.5-41.6C192.9,157.1,199.2,178,196.7,186.8z M224.3,203.1
	c-4.8,0-9.6,0-14.7,0c3.1-1.2,6.4-0.6,9.7-1.9c-3.9-1.7-7.7-1.9-11.5-1.7c8.5-2.9,17-3.2,25.9-1c-2.4,1.4-4.7,2.9-7.1,4.3
	C225.9,203.3,225.1,203.1,224.3,203.1z"/>
</svg>
