<?xml version="1.0" encoding="utf-8"?>
<!-- Generator: Adobe Illustrator 25.3.1, SVG Export Plug-In . SVG Version: 6.00 Build 0)  -->
<svg version="1.1" id="Layer_1" xmlns="http://www.w3.org/2000/svg" xmlns:xlink="http://www.w3.org/1999/xlink" x="0px" y="0px"
	 viewBox="0 0 841.9 595.3" style="enable-background:new 0 0 841.9 595.3;" xml:space="preserve">
<path d="M130.7,216.8c0.1,0,0.2,0,0.2,0c200.1,0,400.3,0,600.4,0c0.6,0,1.3,0,1.9,0c2.3-0.1,3.1-0.9,3.1-3c0-2-0.9-2.8-3-2.9
	c-0.6,0-1.3,0-1.9,0c-14.8,0-29.6,0-44.4,0c-1,0-1.9,0.1-2.9-0.2c-2.6-0.7-5.3-1.3-8-1.4c-2.4-0.1-3.7-1.3-4.6-3.5
	c-3.3-8.5-7.2-16.7-11.6-24.7c-0.2-0.4-0.8-0.8-0.3-1.6c1.6,1.5,3.1,3.1,4.6,4.6c5.9,5.8,12.1,11.2,19.2,15.4c5.2,3,10.8,5.1,16.8,6
	c5.3,0.7,10.5-0.2,15.8-0.1c0.2,0,0.5,0,0.7-0.1c1.6-0.6,2.1-2.1,1-3.5c-0.3-0.4-0.7-0.7-1-1c-7.9-7-15.9-13.9-24.2-20.5
	c-6.1-4.7-12.7-8.4-20.2-10.2c-3.1-0.8-6.2-1.6-9.5-0.9c-0.8,0.2-1.7,0-2.6-0.1c-2.1-0.4-4.1-1.2-6.2-1.9c-2.4-0.7-3.9-2.2-5.3-4.3
	c-6.5-10-13.7-19.5-21.5-28.6c-0.4-0.5-1.1-0.9-1.2-1.8c0.9,0.1,1.5,0.6,2.1,1c4.1,2.2,8.2,4.3,12.4,6.2c11.8,5.2,24,8.7,36.9,9.5
	c5.2,0.3,10.2-0.3,14.9-2.7c2.3-1.2,2.5-2.2,0.7-4c-7.3-7.5-15.1-14.3-24.2-19.6c-10.2-5.9-21.1-9.4-33-9.9
	c-7.6-0.4-15,0.3-22.4,1.7c-3,0.6-5.2,0-7.4-2.1c-9-8.6-18.6-16.4-28.5-23.8c-0.5-0.4-1.1-0.6-1.4-1.4c0.9,0.2,1.8,0.4,2.6,0.6
	c7.1,1.7,14.3,2.9,21.5,3.5c19,1.5,37.3-1.2,55-8c0.4-0.2,0.9-0.3,1.3-0.5c0.9-0.4,1.4-1.1,1.3-2.1c-0.1-0.9-0.7-1.4-1.5-1.7
	c-1.2-0.4-2.4-0.8-3.6-1.3c-13.7-4.8-27.7-8.8-42.2-10.4c-17.4-1.9-34.3,0.1-50.5,7.1c-1.4,0.6-2.5,0.5-3.8-0.2
	c-6.5-3.5-12.9-7-19.4-10.5c-0.4-0.2-1-0.3-0.8-1c3.7,0.4,7.3,0.1,11,0c3.8-0.1,7.5-0.6,11.2-1.2c13.4-2.2,26-6.7,38-12.8
	c4.9-2.5,9.5-5.3,13.9-8.4c0.8-0.6,1.6-1.2,1.3-2.3c-0.3-1.2-1.2-1.6-2.3-1.7c-0.3,0-0.6,0-1-0.1c-7.4-0.3-14.7-0.6-22.1-0.8
	c-12.8-0.5-25.2,1.3-37.1,5.9c-8.5,3.3-16.3,7.8-23.9,12.6c-4.6,2.8-3.3,2.4-7.8,0.6c-15.6-6.2-32-8.9-48.6-10.5
	c-7-0.7-14-1.2-21-1.7c-5.7-0.4-11.5-0.7-17.2-1.1c-1.2-0.1-2,0.3-2.7,1.2c-0.5,0.6-0.4,1,0.1,1.4c1,1,2.4,1.3,3.7,1.5
	c6.2,0.9,12.4,1.4,18.6,1.9c10.8,0.8,21.5,1.5,32.2,2.9c11.4,1.5,22.4,4.5,32.8,9.5c6.7,3.2,13.4,6.4,20.1,9.6
	c2.9,1.4,2.9,1.4,0.4,3.3c-5.8,4.4-10.1,10-12,17.2c-1.5,5.9-1.1,11.7,0.1,17.6c1.9,9.2,5.6,17.8,8.8,26.6c0.7,1.8,1.5,2.1,3.4,1.4
	c2.7-1,4.8-2.9,6.5-5.2c1.9-2.7,3.4-5.6,4.7-8.6c2.7-6.4,3.8-13.2,4.6-20c0.9-7.6,0.9-15.2-1.2-22.6c-0.1-0.3-0.1-0.6,0.3-0.9
	c1.7,0.5,3.1,1.8,4.6,2.8c11.2,7,22,14.6,32.2,23c0.6,0.5,1.1,0.9,1.6,1.4c0.7,0.7,0.7,1.4,0,2.1c-0.5,0.4-1,0.8-1.4,1.3
	c-5,4.4-8.3,9.9-10,16.3c-1.3,5.2-1.7,10.6-1.3,15.9c0.6,8.3,2.8,16.2,5.9,23.9c1.5,3.7,2.6,4,5.7,1.4c4.3-3.6,7-8.3,8.7-13.6
	c3.3-10.4,3.8-21,2.1-31.8c-0.4-2.8-1-5.6-1.6-8.4c0.5,0,0.7,0.2,1,0.4c12.7,11.4,24.5,23.6,35,37.2c2.1,2.8,2,3.1-1.1,4.7
	c-0.4,0.2-0.7,0.4-1.1,0.6c-5.8,3-11.2,6.6-15.6,11.4c-6.3,6.8-10.1,14.7-10,24.2c0,3.3,0.6,6.5,0.2,9.8c0,0.5,0.1,1,0.2,1.4
	c0.4,1.4,1.3,2,2.7,1.7c0.5-0.1,1.1-0.3,1.6-0.6c5.3-2.6,10.3-5.5,14.8-9.3c8.4-7,13.8-15.8,15.7-26.7c0.3-1.8,0.2-3.6,0.9-5.5
	c0.9,0.5,1.3,1.3,1.7,2c6.4,9.7,12.4,19.6,17.5,30c0.2,0.4,0.4,0.7,0.5,1.1c0.5,1,0.3,1.7-0.8,2c-0.5,0.1-0.9,0.2-1.4,0.4
	c-7,2.1-12.7,5.9-16.9,12c-0.9,1.4-2,1.8-3.5,1.8c-142.6,0-285.3,0-427.9,0c-0.8,0-1.6,0.2-2.3-0.2c-0.2-0.5-0.1-0.9,0.1-1.2
	c3.9-9.4,8.2-18.6,13-27.5c1.1-2.1,1.5-2.1,3.4-0.6c7.6,6,16.3,7.9,25.7,6.9c11.8-1.2,22.2-6.2,31.9-12.8c2.1-1.4,2.2-2.7,0.4-4.5
	c-2.2-2.1-4.9-3.6-7.7-4.7c-4.2-1.6-8.5-2.1-12.9-2.3c-11.4-0.5-22.2,2.1-32.6,6.8c-0.7,0.3-1.4,0.8-2.1,0.8
	c-0.3-0.6,0.1-0.9,0.2-1.2c8.6-14.5,18.2-28.4,29.3-41.2c0.4-0.5,0.9-0.9,1.3-1.4c0.8-0.9,1.6-0.9,2.4,0c0.6,0.7,1.2,1.5,1.8,2.2
	c4.4,5.4,9.3,10.4,15.5,13.8c9,5.1,18.5,6.9,28.6,3.3c1-0.3,2-0.5,3.1-0.6c1.2-0.1,2.4-0.3,3.5-0.7c1.8-0.7,2.3-1.9,1.3-3.6
	c-0.2-0.3-0.4-0.7-0.7-1c-3.2-4.3-6.8-8.3-10.9-11.8c-9.9-8.5-21.3-12.3-34.4-10.8c-0.5,0.1-1.1,0.3-1.6-0.2
	c0.2-0.3,0.4-0.6,0.6-0.8c2-2,4-3.9,6-5.9c6.8-6.7,14.1-12.8,21.6-18.7c1.6-1.3,1.8-1.2,2.8,0.6c0.2,0.4,0.5,0.8,0.7,1.3
	c3.8,7,9.4,11.9,16.8,14.6c7,2.6,14.4,3,21.8,2.4c3.1-0.3,6.2-0.8,9.3-1.3c1.9-0.2,2.2-0.4,2-2.3c-0.3-2.8-1.4-5.2-3.3-7.3
	c-1.4-1.5-2.8-2.9-4.4-4.1c-8-5.9-16.9-9.5-26.7-11.3c-2.3-0.4-4.7-0.5-7-0.6c-0.1-0.7,0.3-0.8,0.5-1c10.4-7.1,21.3-13.2,32.7-18.6
	c1.1-0.5,1.9-0.4,2.9,0.3c5,3.6,10.4,3.6,16,1.6c3.5-1.3,6.8-3.2,10-5.2c3.8-2.4,7.6-4.8,11.4-7.1c4.2-2.5,8.8-4.2,13.7-4.8
	c0.6-0.1,1.1-0.1,1.6-0.3c2.5-1,3-3.7,1.2-5.6c-1-1.1-2.3-2-3.7-2.6c-13.8-5.6-27.5-4.9-41,1c-10,4.4-17.5,11.7-23.4,20.7
	c-0.9,1.4-1.8,2.8-2.9,4.1c-2,2.4-4.7,3.6-7.8,4.8c0.4-0.7,0.5-1,0.7-1.2c3.3-4.5,6.2-9.3,8.6-14.4c4.9-10.2,7.7-21,9.5-32.1
	c0.2-1.2-0.2-2-0.8-2.8c-0.5,0-1,0-1.4,0c-1.6,1.5-3.3,3-4.9,4.5c-6.9,6.5-12.8,13.7-17.2,22c-4.6,8.6-6.6,17.8-5.6,27.5
	c0.3,2.5-0.5,4.1-2.6,5.4c-7.5,4.7-14.6,10.1-21.4,15.8c-0.5,0.4-0.9,1.1-2.1,1.2c0.9-1.3,1.6-2.5,2.3-3.5
	c4.4-6.5,8.4-13.2,11.4-20.5c3-7.3,4.6-14.8,3.7-22.7c-0.5-4.7-2.1-9.2-3-13.8c-0.1-0.4-0.3-0.8-0.5-1.1c-0.9-1.2-2.3-1.2-3.3-0.2
	c-0.3,0.3-0.6,0.8-0.8,1.2c-5.5,9.5-11,18.9-15.9,28.8c-3.2,6.5-5.2,13.4-5.7,20.7c-0.2,2.7-0.4,5.5,0.5,8.1c1.1,3,0.8,5.9,0.5,9
	c-0.4,3.5-1.9,6.2-4.5,8.7c-8.2,7.9-15.6,16.5-22.7,25.4c-0.4,0.6-0.8,1.3-1.6,1.7c0-0.3,0-0.5,0-0.6c0.3-1,0.6-2,0.9-3
	c5.1-16.1,7.5-32.5,5.5-49.4c-0.7-5.4-2.2-10.5-5.7-14.8c-1.7-2.1-2.7-2.1-4.2,0.1c-5,7.3-9.5,15-12.8,23.3
	c-5.1,12.7-6.9,25.9-4.7,39.5c1.2,7.3,3.3,14.3,6.1,21.1c1,2.3,0.8,4.4-0.5,6.6c-6.8,10.8-12.8,21.9-18.2,33.5
	c-0.2,0.4-0.2,1.1-1,1.1c0.4-7.7,0.2-15.4-0.6-23c-2-19.4-8.3-37.2-18.7-53.6c-0.2-0.3-0.4-0.7-0.6-1c-0.5-0.7-1.2-1.4-2.2-1.2
	c-1.1,0.2-1.5,1-1.7,2.1c-0.2,1.4-0.4,2.9-0.6,4.3c-1.7,11.4-2.6,22.9-2.4,34.4c0.4,17.8,4.3,34.7,13.3,50.2
	c0.2,0.4,0.6,0.8,0.2,1.4c-3.2,0-6.5-0.1-9.7,0c-2,0.1-2.9-0.6-3.8-2.4c-6.2-12.4-14.1-23.6-23.9-33.4c-0.8-0.8-1.7-1.7-2.6-2.5
	c-1.2-0.9-2.5-0.4-3,1.1c-0.2,0.7-0.2,1.4,0,2.1c0.4,2.3,0.7,4.6,1.1,6.9c1.5,9.1,2.7,18.2,5.1,27.1c0.1,0.3,0.1,0.6-0.4,1
	c-0.7,0-1.6,0-2.4,0c-8.1,0-16.2,0.1-24.2,0c-2.4,0-4.2,0.4-5.5,2.5c0,0.3,0,0.6,0,1C126.4,216.5,128.3,217.2,130.7,216.8z
	 M686.7,190.2c-5.7-6.6-13-11.2-20.2-16.5c1.2-0.4,1.9-0.1,2.6,0c7,1.5,13.5,4.4,19.6,8.2c8,5.1,15,11.5,21.6,18.1
	c0.1,0.1,0.1,0.3,0.4,0.7c-9,0.3-17.3-1.8-25.2-5.8c-7.9-4-14.5-9.6-20.4-16.1C672.2,183,678.9,187.7,686.7,190.2z M599.6,40.5
	c-9.2,7.9-48.5,19.6-60.6,17.9c2.3-0.5,4.6-1,6.9-1.5c6-1.3,12-2.6,17.8-4.7c3.3-1.2,6.5-2.7,9.5-4.6c0.7-0.4,1.4-0.7,2-1.8
	c-13.1,2.8-25.7,6.1-38.6,8C555.9,41.6,576.7,36.6,599.6,40.5z M536.8,129.9c-0.2-0.2-0.4-0.3-0.4-0.5c-2.7-7.3-5.7-14.6-7.1-22.3
	c-1-5.4-1.4-10.8,0.2-16.1c1.7-5.4,4.9-9.8,9.2-13.5c0.5-0.5,1.1-0.9,2.1-1.2c1.1,4.3,1.1,8.5,0.5,12.7c-0.7,4.5-1.6,9-2.4,13.5
	c-0.2,1.3-0.3,2.6-0.3,4c5-5,6.5-11.6,7.8-18.3C549,98,545.1,117.7,536.8,129.9z M570,80.9c4.2,0.4,8.1,0.8,11.9,1.2
	c8.5,0.8,16.9,1.3,25.3-0.2c1.6-0.3,3.3-0.6,5.2-1.3c-2.3-0.9-4.5-0.9-6.6-1c-8.2-0.7-16.4-1.3-24.6-2c-3.6-0.3-7.1-0.9-10.7-1.5
	c-0.2,0-0.5-0.1-0.5-0.4c4.4-2.5,25.5-5.8,39.8-4.5c13.5,1.2,26.4,4.3,39,9.4c-0.2,1.1-1.1,1-1.7,1.2c-6.9,2.4-14,3.9-21.2,4.9
	c-7.9,1.1-15.9,1.3-23.9,1c-9.9-0.5-19.6-2-28.9-5.2C572.1,82,571.2,81.8,570,80.9z M586.9,161.8c-0.5,0-0.5-0.5-0.6-0.8
	c-2.7-8.2-4.5-16.6-4.4-25.4c0.1-5.3,1.1-10.5,3.3-15.3c1.2-2.5,2.7-4.8,5-6.9c0.4,1.1,0.1,2,0,2.9c-0.8,7-1.6,14-2.4,20.9
	c-0.1,1,0.1,1.8,1.1,2.1c1.1,0.4,1.9-0.2,2.3-1.2c0.9-2.1,1.7-4.3,2.1-6.6c0.5-2.8,1.1-5.6,1.6-8.4
	C597.2,135.5,594.3,151.4,586.9,161.8z M617.1,119.3c25.5-7.5,57.7,5.7,70.2,23.8c-2.6,0.6-5.1,0.6-7.6,0.4
	c-16.8-0.9-32.8-5.1-47.9-12.5c-2.4-1.2-4.7-2.4-7-4.3c1.1-0.1,1.9,0.3,2.6,0.5c7.2,2.1,14.3,4.6,21.6,6.2c3.6,0.8,7.2,1.3,10.9,1.2
	c0.8,0,1.6,0,2.6-0.6C647.4,129,631.9,125.8,617.1,119.3z M638.1,161.2c-0.3,6.9-2.5,13.1-6.3,18.9c-4.5,7-10.4,12.5-17.7,16.6
	c-0.8,0.5-1.6,1-2.6,1.2c-3.2-10.9,6-30.2,20.2-36.3c-1.2,3.6-2.8,6.8-4.3,10c-1.5,3.2-3.4,6.3-5,9.5c1.8-0.6,3.2-1.7,4.6-2.9
	c2.5-2.3,4.2-5,5.6-8c1.3-2.8,2.5-5.7,3.7-8.6c0.4-0.9,0.7-1.8,1.4-2.5C638.5,159.6,638.2,160.5,638.1,161.2z M667.5,207.5
	c1,0.9,1.1,2.1,1.7,3.1c-1.1,0.3-1.7,0.4-2.5,0C666.8,209.6,667.1,208.6,667.5,207.5z M661.1,210.3c0.1-0.3,0.2-0.6,0.6-0.7
	c0.2,0,0.3,0.3,0.3,0.5c-0.1,0.3-0.1,0.6-0.5,0.6C661.2,210.7,661,210.5,661.1,210.3z M660.8,201.7c-1.4,3.3-2.9,6-4.5,8.6
	c-0.2,0.4-0.5,0.6-1,0.6c-2.4,0-4.9,0-7.9,0C651.1,206.2,655,203,660.8,201.7z M255.2,173.5c-2.3-0.5-4.7-0.9-7.1-0.9
	c-2.8,0-5.7,0-8.5,0c13.2-4.6,26.4-4.8,39.5,0.1c0,0.8-0.6,0.9-0.9,1.2c-8.1,4.5-16.5,8.2-25.7,9.4c-6.2,0.8-12.3,0.6-18.1-2
	c-1.2-0.6-2.4-1.1-3.6-2.4c4.3-0.4,8.2-0.7,12.1-1.1c4-0.3,8-0.7,11.9-1c1-0.1,1.7-0.5,1.8-1.5C256.8,174.3,256.2,173.7,255.2,173.5
	z M341.1,57.9c7.9-7.5,17-12.7,27.8-14.6c6.4-1.1,12.7-0.8,18.9,1.6c0.6,0.2,1.2,0.5,1.7,0.8c0.2,0.1,0.4,0.3,0.6,0.4
	c-0.1,0.4-0.4,0.5-0.7,0.6c-4,1-7.6,2.9-11.1,5.1c-4.3,2.6-8.6,5.3-12.9,7.9c-3.4,2-6.9,3.7-10.9,4.3c-2.5,0.4-4.9,0.2-7.8-0.9
	c7.8-3.3,15.2-6.3,22.6-9.4c-5.3-0.3-10.2,0.9-15,2.7c-5.5,2.1-10.8,4.8-16.2,7.2c-0.8,0.3-1.5,0.8-2.7,0.9
	C337.2,61.8,339.1,59.8,341.1,57.9z M333.2,29.7c0.9,4-5,23.6-8.7,28.3c1.9-5.7,3.8-11,4.6-16.7c-1.1,0.4-1.4,1.3-1.9,2
	c-2.4,3.4-4.1,7.2-5.8,11c-2,4.5-3.8,9.2-6.1,13.5c-0.7,1.3-1.5,2.6-2.4,4C310.2,62.2,321.2,39.5,333.2,29.7z M304.4,92.8
	c8,1.9,15.4,4.9,22.7,8.9c-0.9-2.9-3.2-5.4-6.8-7.5c-3-1.7-6.3-2.6-9.6-4c9-1,24.7,6.8,32.5,15.6c-2.3,1.2-4.7,1.6-7.2,1.8
	c-8.9,0.8-17.2-1-24.7-5.9c-2.6-1.7-4.7-3.8-6.3-6.5C304.7,94.5,304.1,93.9,304.4,92.8z M275.7,80.8c1.4-7.5,4.2-14.4,7.7-21.1
	c2.6-5,5.6-9.8,8.7-14.6c0.3-0.4,0.5-0.8,1-1c4.7,11.7-1.6,36.5-12.5,48.9c2.5-7.8,6-15.3,6.9-23.5c-5.4,6.9-8.4,15.1-12.4,22.8
	C274.7,88.3,275,84.5,275.7,80.8z M281.9,123.3c10.8,2.6,19.6,8.4,26.7,16.8c0.2,0.2,0.3,0.4,0.4,0.6c0.7,1.1,0.7,1.2-0.5,1.6
	c-3.1,1-6.2,1.5-9.4,1.3c-11.1-0.5-20.4-4.8-27.9-13c-0.4-0.5-1-0.9-1.1-1.8c7.3,1.2,14.2,3.1,21,5.5c-1.2-2-2.9-3.4-4.8-4.7
	c-3.1-2-6.5-3-10-3.7c-2.9-0.6-5.8-1.3-8.7-1.9c-0.4-0.1-1-0.1-1.2-0.8C271.6,122,276.8,122.1,281.9,123.3z M225.2,117.6
	c1.7-16.3,8.9-34.1,15.9-39.4c5.7,15,3.3,50.5-4.1,63.9c0.2-2.5,0.5-5.1,0.7-7.6c0.6-6.4,1.4-12.9,1.3-19.4
	c-0.1-3.7-0.5-7.3-1.9-11.3c-0.8,3.2-0.8,6-1.1,8.7c-0.9,10-1.4,20.1-2.9,30.1c-0.4,2.9-0.9,5.8-1.6,8.7
	C227.5,146.6,224.1,128.5,225.2,117.6z M185.8,168.4c-1.7-13.5-1-26.9,1.7-40.7c13.2,19.8,20.6,56.1,15.6,77.1
	c-0.2-1.7-0.4-3.5-0.5-5.2c-0.8-8.5-1.5-17-3.9-25.3c-1-3.4-2.2-6.8-4.1-10.5c-0.4,1.6-0.2,2.6-0.1,3.7c0.7,6,1.4,12.1,2.1,18.1
	c0.7,6.2,1.5,12.4,1.6,18.6c0,0.8,0.2,1.6-0.3,2.8C191.4,194.6,187.5,181.8,185.8,168.4z M157.8,185.8c0-0.5-0.1-0.9,0.4-1.6
	c7,8.1,12.6,17,17.7,26.4c-2.5,0.6-4.4,0.5-5.7-1.6c-0.5-0.7-1.1-1.4-2-1.8c-0.3,1.3,0.9,2.2,0.7,3.7c-1.8,0-3.6,0-5.4,0
	c-1.1,0-1.2-0.9-1.5-1.6c-1.4-4.1-2.4-8.3-3.1-12.5C158.3,193.2,157.8,189.5,157.8,185.8z M733.9,335.4c-0.9-0.1-1.9-0.1-2.9-0.1
	c-199.9,0-399.8,0-599.7,0c-2.5,0-4.6,0.3-6.1,2.4c0,0.5,0,1,0,1.4c1.5,2.1,3.6,2.4,6.1,2.4c17.6-0.1,35.2,0,52.8,0
	c2.9,0,2.3-0.2,3,2.3c2.3,7.8,6.1,14.7,11.8,20.6c1.8,1.8,3.6,3.6,5.4,5.4c3.1,3,6.2,6.1,8.5,9.7c0.8,1.2,1.6,2.5,2.1,4.5
	c-14.3-12.5-30.4-20.2-48.9-22.9c0,0.5,0,0.7,0.1,0.8c0.2,0.5,0.5,1,0.8,1.5c11,18.5,27.1,29.2,48.4,31.8c3.6,0.5,6.2,1.9,8.1,5.1
	c4,6.7,8.2,13.3,12.4,20c0.3,0.5,0.8,1,0.7,1.7c-0.8-0.3-1.3-0.8-1.9-1.3c-3.4-2.7-6.8-5.3-10.4-7.7c-7.7-5.2-15.9-9.3-25.1-10.8
	c-7.3-1.2-14.3-0.8-21.2,2.1c-0.7,0.3-1.5,0.4-1.9,1.2c7.4,7.5,23.5,18.6,32.9,22.7c4.7,2.1,9.6,3.6,14.7,4.3c4,0.6,8,0.7,12,0.9
	c6.7,0.4,12.3,2.8,16.9,7.8c6.9,7.5,14.1,14.9,21.1,22.3c0.4,0.4,1,0.8,1.1,1.5c-0.7,0.2-1.3-0.3-1.8-0.5
	c-5.6-2.3-11.4-4.3-17.2-5.8c-8.7-2.3-17.4-4-26.5-4.2c-6.5-0.1-12.8,0.6-18.7,3.4c-1.5,0.7-3,1.4-4.2,2.6c0.2,0.7,0.6,1,1,1.4
	c14.7,14.8,32.6,22.5,53.3,23.8c9.2,0.6,18.2-0.5,27-3.2c4-1.3,7.6-0.7,11.1,1.7c9.5,6.4,19.1,12.6,28.6,18.9
	c0.5,0.3,1.2,0.5,1.4,1.4c-13.9-1.8-27.7-1.6-41.3,1c-13.7,2.6-26.6,7.2-38.7,14.1c0.7,0.9,1.5,1,2.2,1.2c10.7,4,21.7,6.4,33.1,7.3
	c12,0.9,24,0.2,35.8-2.3c8.3-1.8,16.4-4.3,24.1-7.9c4.4-2,8.5-2.2,12.9-0.2c4.3,2,8.9,3.6,13.3,5.4c0.6,0.2,1.2,0.3,1.7,1.1
	c-27.6,3.3-51.7,14.2-72.2,33.2c1.1,0.6,2,0.6,2.9,0.7c8,0.8,16,0.7,23.9-0.3c19.2-2.4,36.6-9.3,52.2-20.8c2-1.5,3.9-3.1,5.9-4.5
	c2.5-1.9,5.4-2.4,8.4-1.9c1.1,0.2,2.2,0.4,3.3,0.7c7.6,1.7,15.2,3.6,23.1,4.2c6.5,0.5,12.9,0.1,19.2-2c0.5-0.2,1.2,0,1.3-1
	c-23.8-1.2-46.9-5.3-68.5-16c0-0.1,0-0.2,0.1-0.2c0.2-0.2,0.3-0.4,0.5-0.5c4.6-3.9,7.3-9,8.8-14.8c2.1-8.2,1.3-16.2-1.3-24.1
	c-2.5-7.8-6.7-14.9-10.6-22c-0.2-0.3-0.3-0.5-0.6-0.8c-1.3-1.5-2.7-1.8-4.5-0.9c-1.5,0.8-2.7,2-3.7,3.3c-1.6,2.1-2.6,4.4-3.4,6.8
	c-5,14.9-5.1,30-0.8,45.1c0.2,0.7,0.4,1.5,0.6,2.1c-0.5,0.3-0.8,0.2-1.1,0c-13.8-6-27-13.2-39.4-21.7c-1.2-0.8-0.8-1.4-0.2-2.3
	c8.3-12.6,10.1-26.4,6.7-40.9c-1.6-6.9-4.8-13.2-9.4-18.7c-1.2-1.5-1.2-1.4-2.5-0.2c-2.1,2.1-3.8,4.5-5.2,7.1
	c-3.6,6.8-4.8,14-4.6,21.6c0.2,8.1,2.1,16,4.3,23.8c0.2,0.8,0.6,1.6,0.5,2.5c-9.2-4.6-38.9-30.6-41.3-36.2c3.2-1.5,6.2-3.3,8.9-5.7
	c9.5-8.3,14.7-18.8,15.8-31.3c0.4-5.1-0.2-10.1-1.8-14.9c-0.5-1.5-0.5-1.5-2-0.9c-2.1,0.9-4,1.9-5.9,3.2
	c-13.5,9.2-21.1,21.9-22.5,38.3c-0.1,1.1,0.2,2.2-0.5,3.5c-8.8-9.7-16.5-19.9-23.2-31c1.2-0.7,2.3-1.3,3.3-2
	c11.4-7.6,17.7-18.4,19.6-31.9c0.7-5,0.3-10.1-1-15c-0.5-2.1-0.6-2.1-2.6-1.5c-3.2,0.9-6.1,2.4-8.7,4.5c-4.2,3.2-7.4,7.3-9.8,11.9
	c-2.7,5-4.3,10.3-5.7,15.7c-0.5,2.2-1.1,4.4-1.6,6.7c-0.9-0.5-1.1-1.2-1.5-1.8c-5-8.9-9.4-18.2-13.4-27.6c-1.5-3.7-1.8-7,0.3-10.5
	c2-3.5,2.2-7.3,1.6-11.2c-0.4-3-0.5-3,2.7-3c54,0,108,0,162,0c98.9,0,197.7,0,296.6,0c1.1,0,2.2-0.2,3.3,0.2c0.2,0.4,0.1,0.8,0,1.2
	c-1.5,7.9-3.9,15.5-7.2,22.8c-3,6.7-6,13.4-9.1,20.1c-1.6,3.4-1.4,3.7-3.8,0.6c-4.7-5.9-10.7-10.1-18.2-11.6
	c-6-1.2-11.9-0.4-17.8,1.1c-8.6,2.2-16.7,5.8-25,9c-1.8,0.7-2.1,1.6-1.4,3.4c1.1,2.7,3.1,4.9,5.5,6.5c3.1,2.1,6.4,3.6,9.9,4.8
	c6.4,2.3,13,3.2,19.7,3.8c5.5,0.5,11,0.5,16.5-0.5c2-0.4,4-0.9,6.2-1.3c-0.6,2-1.8,3.4-2.7,5c-6.7,11.3-14.1,22.1-22.2,32.5
	c-0.5,0.6-1,1.3-1.5,1.8c-1,1-1.4,0.9-2.4-0.1c-0.4-0.4-0.7-0.8-1.1-1.2c-4.3-4.6-9.4-7.6-15.4-9.3c-6-1.6-12-1.8-18.1-1.2
	c-8,0.8-15.6,3.2-23,6.4c-0.5,0.2-1,0.4-1.5,0.7c-1.4,0.9-1.6,1.9-0.8,3.2c0.5,0.8,1.1,1.6,1.8,2.3c3.2,3.5,7.2,5.8,11.7,7.3
	c11.7,3.8,23.5,4.1,35.5,1.6c2.1-0.4,4.1-0.9,6.2-1.4c0.1,0.5,0,0.6-0.2,0.8c-11.1,12.9-23.1,25-36.4,35.8c-2.9,2.4-3.2,2.3-5-1.1
	c-2.8-5.1-5.9-9.9-10-14c-7.4-7.5-16.1-12-26.9-11.6c-3.2,0.1-6.4,0.6-9.6,0.4c-0.4,0-0.8,0-1.2,0.1c-1.6,0.4-2.2,1.4-1.8,3.1
	c0.1,0.5,0.3,0.9,0.6,1.3c2.5,5,5.5,9.8,9.1,14.1c7.4,8.7,16.5,14.2,27.9,15.8c1.6,0.2,3.3,0.4,5,0.6c-0.4,1.2-1.3,1.5-1.9,2
	c-1.8,1.3-3.7,2.5-5.6,3.7c-7.8,5.3-15.9,10.1-24.3,14.5c-2.1,1.1-2.4,1-3.1-1.1c-3.2-10.8-10.4-17.7-20.8-21.5
	c-4.9-1.8-10-2.8-15.2-3.2c-2.9-0.2-5.9-0.2-8.8-0.4c-1.6-0.1-2,0-2.1,1.5c-0.3,2.7,0.3,5.2,1.7,7.6c1.2,2.1,2.6,4,4.3,5.7
	c7.8,7.9,16.9,13.5,27.6,16.6c1,0.3,2.1,0.5,3.2,0.8c-0.2,0.5-0.6,0.7-1,0.8c-11.3,5.1-23,9.1-35,12.5c-1.4,0.4-2.4,0.1-3.4-1
	c-3.5-3.5-7.8-4.8-12.7-4.4c-4.6,0.4-8.9,1.9-13.1,3.6c-4.1,1.6-8.1,3.4-12.2,4.9c-4.8,1.7-9.7,2.8-14.8,2.3c-0.6-0.1-1.3,0-1.9,0.2
	c-2.3,0.7-3.1,3.1-1.9,5.1c0.8,1.3,1.8,2.4,3.2,3.2c16.2,9.8,32.9,10.5,50,2.9c7.3-3.2,13.3-8.3,18.6-14.2c2.9-3.2,6.4-4.9,10.6-5.5
	c0.1,0.5-0.3,0.7-0.6,1c-2.1,2.1-4.2,4.2-6.1,6.4c-9.2,10.6-15.4,22.9-19.8,36.1c-0.5,1.5,0.1,2.4,1,3.4c0.3,0,0.6,0,1,0
	c0.8-1.1,2-1.6,3-2.2c6.5-4.1,12.6-8.7,18-14.3c8.8-9.1,14.8-19.4,15.5-32.3c0.1-2.3,1.2-3.6,3.3-4.5c8.5-3.5,16.7-7.6,24.7-12.2
	c0.4-0.2,0.8-0.8,1.5-0.3c-2.3,2.4-4.6,4.8-6.8,7.2c-4.9,5.4-9.4,11.1-12.9,17.5c-2.7,5-4.5,10.2-5.3,15.8
	c-0.8,5.5,0.3,10.9,0.3,16.3c0,0.5,0.2,0.9,0.4,1.4c0.6,1.1,1.8,1.4,2.9,0.8c0.5-0.3,0.9-0.7,1.2-1.1c6.9-8.2,13.8-16.4,20.3-25
	c3.4-4.6,6.3-9.5,8.1-14.9c1.7-4.9,3.2-9.9,2.2-15.3c-0.1-0.5,0-1.1,0.1-1.7c0.2-2.4,1.2-4.6,1.9-6.9c0.7-2.1,1.9-3.6,3.7-4.8
	c10.2-6.9,19.8-14.4,28.8-22.7c0.4-0.3,0.7-0.8,1.4-0.8c-1.6,3.3-3.2,6.4-4.7,9.5c-6.2,13.1-10.3,26.8-11,41.4
	c-0.3,5.6,0.3,11,3.2,16c1.1,2,2.1,2.1,3.7,0.5c8.3-8.4,15.8-17.5,21-28.1c4.5-9,7-18.5,7.4-28.6c0.3-8.1-0.5-16.1-2.2-24
	c-0.6-2.6,0-4.7,1.8-6.6c8.4-9.2,16.2-19,23.4-29.2c0.3-0.5,0.5-1.2,1.3-1.2c0,0.1,0.1,0.2,0.1,0.3c-0.1,0.4-0.1,0.8-0.2,1.2
	c-4,17.9-4.7,35.8-1.2,53.8c1.6,8.3,4.1,16.3,7.3,24.1c0.4,1.1,0.9,2.1,2.3,2c1.4-0.1,1.7-1.2,2.1-2.3c1-3.1,2-6.2,3-9.4
	c3.9-12.6,6.9-25.5,7.7-38.7c1.1-16.6-1.4-32.5-8.4-47.7c-0.6-1.3-0.5-2.4,0.1-3.6c3.5-6.5,6.8-13,10.1-19.6c0.2-0.3,0.2-1,0.9-0.8
	c-0.2,6.6,0.3,13.1,1.4,19.6c3.3,19.4,10.8,37.1,22.1,53.1c0.3,0.5,0.6,0.9,1,1.3c1.2,1.3,2.7,1.1,3.4-0.6c0.2-0.6,0.3-1.2,0.3-1.9
	c0.1-7.6,0.2-15.2,0.4-22.8c0.4-19-4.9-36.4-15-52.5c-2-3.1-3.9-6.2-5.9-9.3c-0.9-1.3-1.1-2.5-0.5-4c3.4-8.3,5.7-17,7.3-25.8
	c0.5-2.8,0.5-2.7,3.2-2.7c15.4,0,30.7,0,46.1,0c0.8,0,1.6,0,2.4-0.1c1.7-0.3,2.4-1.2,2.4-3C736.4,336.6,735.6,335.6,733.9,335.4z
	 M173.4,366.1c9.6,1.9,18.6,5.5,26.9,10.7c-5.1-1.9-10.1-4.2-15.8-5.5c0.2,0.8,0.8,1.1,1.2,1.5c3.6,3.1,7.7,5.4,11.9,7.6
	c4.8,2.5,9.7,4.9,14.1,8.1c0.7,0.5,1.5,0.8,1.9,1.9C196.3,388.7,183.8,379.1,173.4,366.1z M231.2,429.5c-4.2,0.1-8.2-0.7-12.2-1.8
	c-6.9-1.9-13.2-5.1-19.3-8.9c-4.9-3.1-9.6-6.6-14.2-10.2c-0.4-0.3-1-0.5-1.1-1.2c15.2-2.9,33,3.4,47.5,16.6c-3.7-1.7-7.3-3.5-11-5.1
	c-3.7-1.6-7.5-3.1-11.6-3.8C215.7,421.2,223.7,424.9,231.2,429.5z M312.7,554c8.8-8.5,43.8-24.7,58.2-24.9c-0.7,0.7-1.6,0.8-2.3,1
	c-5.8,2-11.7,3.8-17.4,6.2c-5,2.1-9.7,4.6-13.8,8.1c-0.4,0.4-0.8,0.7-1.2,1.1c12.5-3.7,24.8-8.4,37.4-11.9
	C355.9,548.1,335.9,555.3,312.7,554z M365.1,457.8c1.5,3,3,5.8,4.3,8.6c2.6,5.4,5,10.9,6.6,16.7c2.5,9.4,0.8,17.9-5.1,25.5
	c-1,1.3-2,2.5-3.4,3.4c-0.9-0.9-1-2.1-1.2-3.1c-1.1-4.5-1.1-9-0.8-13.6c0.3-3.3,0.5-6.7,0.7-10c0.1-1.1,0-2.2,0-4
	c-2.6,3.1-3.7,6.2-4.5,9.5c-0.8,3.2-1.1,6.6-1.4,10.1C356,493.4,358.6,470.2,365.1,457.8z M298.5,516c5.8-0.1,11.5-0.2,17.3-0.5
	c6.7-0.3,13.4-0.4,20.1-0.2c0.8,0,1.6-0.1,2.6,0.7c-12.7,5.4-25.8,8.2-39.3,8.7c-13.6,0.6-26.9-1.3-40.2-5.1
	c19.1-11,56.8-16.1,77.7-9.2c-6,0.2-12,0.2-18,0.5c-6.7,0.3-13.4,1.2-19.8,3.3c-1,0.3-2.2,0.6-3.1,1.3
	C296.7,516.2,297.6,516.1,298.5,516z M311.5,431.9c0.8,0.4,0.9,1,1.1,1.6c3.7,8.4,6.7,17,7.1,26.2c0.3,5.4-0.3,10.7-2.5,15.7
	c-0.8,1.9-1.8,3.7-3.8,5.5c0-8.2,0-15.8,0-23.4c0-0.3,0-0.6,0-1c0.1-1-0.3-1.7-1.4-1.8c-1-0.1-1.7,0.4-2,1.3c-0.7,2.6-1.3,5.3-1.5,8
	c-0.2,2.6-0.4,5.2-0.8,7.8C304.3,458.1,305.4,444.8,311.5,431.9z M286,477.6c-2.9,2.5-18,5.5-30.7,4.1c-15.3-1.7-34-10.3-41.4-19.5
	c14.5-4.6,51.8,0.9,63.9,9.4c-5.9-1.1-11.5-2.1-17.2-3.1c-5.5-1-11.1-1.7-16.7-1.2c-1.5,0.1-2.9,0.4-4.4,0.9
	C255,471.5,270.8,472.9,286,477.6z M263.7,421.6c3.8-8.7,9.6-15.8,17.3-21.3c0.6-0.4,1.2-1.1,2.1-1.1c4.4,11.5-3.3,31.2-16,38.3
	c1.7-7.1,4.3-13.8,7.1-20.4c-2.3,1.2-4,2.9-5.4,4.9c-1.7,2.4-2.9,5.2-3.8,8c-0.8,2.7-1.6,5.4-2.4,8c-0.3,0.9-0.6,1.8-1.2,3.2
	c-0.5-1.6-0.6-2.7-0.7-3.8C260.4,431.9,261.5,426.7,263.7,421.6z M250,362.6c1,2.5,1.2,5,1.2,7.5c0,10.2-3,19.2-10.3,26.5
	c-1.9,1.9-4.1,3.4-7.2,4.1c2.7-8.1,6.3-15.4,10.7-22.3c-7.3,2.6-9.7,9.3-12.8,15.5C231.9,384.4,240.7,369.4,250,362.6z M207.7,366.4
	c-5.3-3-14.9-17.9-15.8-24.9c2.5,0,4.8,0,7.1,0c0.8,0,1.2,0.3,1.3,1c1.4,7.7,4.7,14.9,7.2,22.3C207.7,365.3,208,365.8,207.7,366.4z
	 M208.4,353.9c-0.1,0.4-0.2,1-0.9,1.1c-1.4-4.4-2.8-8.8-4.2-13.1c0.3-0.2,0.4-0.4,0.5-0.4c4.6,0,4-1,5.1,4.1
	C209.5,348.4,209.2,351.2,208.4,353.9z M615.8,441.5c-6.1-0.5-12.2-1.1-18.4-1.6c-1-0.1-1.9-0.2-2.8-0.4c-1-0.1-1.8,0.1-2.1,1.1
	c-0.3,1,0,1.8,1.2,2.3c2.6,1.1,5.4,1.9,8.3,2.3c2.3,0.4,4.5,0.8,6.8,1.2c0,0.2-0.1,0.4-0.1,0.6c-13.8,1.8-26.7-0.5-38.8-7.6
	c0.2-0.5,0.4-0.7,0.7-0.8c9.4-3.3,19-5.6,29.1-4.9c6,0.4,11.6,1.9,16.5,5.6c0.8,0.6,1.7,1.2,2.3,2.3
	C617.4,441.9,616.6,441.5,615.8,441.5z M494.3,537.4c-8.1,6.8-17.3,11.5-27.8,13.2c-7.9,1.3-15.6,0.7-23-2.7
	c-1.8-0.8-3.5-1.8-5.5-3.5c8.7-0.8,16-4.5,23.4-7.4c4.3-1.7,8.6-3.4,13.3-3.6c2.6-0.1,5.1,0.2,7.5,1.2c0.4,0.2,0.9,0.3,1.3,1.1
	c-7.9,1.8-15.7,3.5-23.4,5.2c3.8,1.1,7.6,1,11.4,0.6c5.8-0.6,11.4-2.3,17.1-3.8c2.2-0.6,4.3-1.1,6.5-1.7
	C495.3,536.9,494.7,537,494.3,537.4z M491.3,570.7c2.8-9.3,7.1-17.8,13-25.5c-2.3,4.8-4.9,9.4-6.7,14.9c1.5-0.9,2.3-1.9,3.1-2.8
	c3-3.2,5.5-6.9,7.9-10.6c2.5-3.9,5-7.8,8-11.4c0.8-0.9,1.4-1.9,2.8-2.8C515.9,550,505.2,561.5,491.3,570.7z M531.1,513.7
	c-3.8-1.6-7.4-3.5-10.9-5.6c-3.5-2.1-6.8-4.5-10.4-7.4c0.5,2.7,1.7,4.6,3.2,6.4c1.4,1.7,3.2,3.1,5.1,4.4c1.9,1.3,4,2.2,5.9,3.8
	c-8.6-0.6-24.6-12.4-29-21c0.4-0.5,1-0.4,1.5-0.5c10.7-1,20,2.3,28.1,9.2c2.9,2.5,5.1,5.5,6.3,9.2
	C531.2,512.5,531.4,512.9,531.1,513.7z M555,535.5c-2.9,6-6.7,11.5-10.8,16.6c-2.9,3.5-5.9,6.9-9.1,10.2c-0.4,0.4-0.7,1.1-1.7,1.2
	c-0.6-18.7,8-33.2,20.9-45.7c-3.7,7.1-8.3,13.9-10.7,21.7c6.6-5.9,11.1-13.5,16.3-20.6C559.2,524.8,557.5,530.3,555,535.5z
	 M567.7,490.1c-9.6-1.4-17.5-6.2-24.3-13c-3.1-3.1-5.7-6.5-7.9-10.2c-0.4-0.7-0.9-1.5-1.1-2.4c11.7-3.3,30.7,5.9,36.7,19.5
	c-3.6-1.1-6.8-2.6-10-4.1c-3.2-1.5-6.3-3.2-9.3-4.9c-0.6,0.7,0,1.1,0.3,1.5c2.1,3.4,5,5.7,8.5,7.5c2.9,1.5,6,2.6,9,3.9
	c1.5,0.6,3,1.1,4.8,2.3C571.8,490.5,569.7,490.4,567.7,490.1z M612.8,504.8c-4,13.5-10.8,25.3-22.1,34.7c-0.5-3.1-0.7-5.8-0.6-8.4
	c0.7-16.6,4.5-32.4,11.5-47.5c1.1-2.4,2.4-4.8,4.4-6.8c-1.3,4.6-2.6,9.2-3.9,13.8c-1.4,5.2-2.9,10.5-3.3,15.9
	c-0.2,2.5-0.4,5.1,0.5,8.1c4.7-15.5,7.6-31.2,13.7-46C616,475.5,616.7,491.7,612.8,504.8z M639.9,391.7c-4-0.6-8-1.3-12.1-2
	c-1.1-0.2-2.2-0.4-3.7-0.1c5.4,4.9,11.9,6.2,18.8,7.5c-10.9,2.8-29.7-0.6-42.2-8.7c0.5-0.6,1.2-0.7,1.8-0.9
	c6.4-2.5,12.7-5.1,19.4-6.8c5.4-1.3,10.9-2,16.4-0.8c6.1,1.4,10.9,4.7,15.1,9.3c0.5,0.5,1,1,1.1,2
	C649.6,392.6,644.8,392.4,639.9,391.7z M652.2,499.9c-9.4-21.4-10.5-58.5-1.8-78.4c-0.2,2.9-0.4,5.9-0.7,8.8
	c-0.4,5.2-0.8,10.4-0.7,15.6c0.1,5,0.6,9.9,1.8,14.7c0.2,0.7,0.4,1.4,0.6,2.3c0.8-0.9,0.7-1.7,0.7-2.5c0.8-7.9,1-15.8,1.5-23.7
	c0.3-5,0.8-10,1.5-15c0.1-0.5,0.1-1,0.7-1.5C664.2,447.1,662.3,473.5,652.2,499.9z M677.7,409.9c1.5,4.5,3.3,8.8,5.8,12.8
	c0.5,0.7,0.8,1.6,2,2.3c-1.1-6.7-3.2-12.8-4.6-19.1c-1.4-6.3-2.9-12.6-4.3-18.8c12.8,17.6,18.5,40.7,14.9,62.2
	c-1-0.3-1.2-1.2-1.6-1.9c-4.2-7.5-7.5-15.3-10.4-23.4c-3.3-9.4-6-18.9-7.2-28.7c-0.2-1.9-0.3-3.8-0.3-6.2c0.7,1.1,0.8,1.9,1,2.6
	C674.4,397.7,675.7,403.9,677.7,409.9z"/>
</svg>
