<?xml version="1.0" encoding="utf-8"?>
<!-- Generator: Adobe Illustrator 25.3.1, SVG Export Plug-In . SVG Version: 6.00 Build 0)  -->
<svg version="1.1" id="Layer_1" xmlns="http://www.w3.org/2000/svg" xmlns:xlink="http://www.w3.org/1999/xlink" x="0px" y="0px"
	 viewBox="0 0 841.9 595.3" style="enable-background:new 0 0 841.9 595.3;" xml:space="preserve">
<path d="M708.1,238.3c-11,0-22.1,0-33.1,0c-0.8,0-1.7,0.2-2.6-0.2c0.1-0.4,0.2-0.7,0.4-1c3.7-7,5.3-14.5,5.7-22.3
	c0-0.7,0.3-1.5-0.5-2c-0.9-0.5-1.5,0-2.1,0.5c-7.4,6.3-13.5,13.6-17.1,22.8c-0.2,0.4-0.3,0.9-0.5,1.3c-0.4,0.8-1.5,1.2-2.7,0.9
	c-1.1-0.3-0.7-1.2-0.6-1.8c0.2-1.2,0.6-2.3,1-3.4c2-5.9,2.9-12,1.5-18.2c-2.7-12.2-10-20.7-21-26.1c-1-0.5-2-0.5-3-0.7
	c-1.1-0.2-1.9,0.2-2.5,1c-0.6,0.9-0.4,1.9,0.2,2.7c3,4.2,4,9,4.7,13.9c0.4,3.3,0.8,6.7,1.7,9.9c1.4,5.3,4.4,9.2,9.9,10.6
	c0.8,0.2,1.5,0.5,1.8,1.4c1,3.4,2.1,6.9,2.8,10.5H208.5c0.6-2,1.1-3.7,1.5-5.5c0.3-1.2,1.1-1.8,2.3-2.2c4.7-1.3,7.6-4.4,9.2-9
	c1-2.9,1.4-5.9,1.8-8.9c0.7-5.8,1.4-11.6,5-16.5c0.6-0.8,0.8-1.8,0.1-2.7c-0.6-0.8-1.5-1-2.5-1c-2.7,0.2-4.8,1.7-7,3
	c-11.3,6.7-21.9,22-15.8,41c0.2,0.6,0.7,1.1,0.2,1.9c-0.6,0-1.2,0-1.8,0.1c-1.2,0.1-1.8-0.3-2.4-1.5c-3.6-7.4-8.9-13.4-15-18.8
	c-0.4-0.4-0.8-0.8-1.3-1c-1-0.5-1.7,0-1.8,1.1c0,0.3,0.1,0.6,0.1,1c0.3,5.9,1.4,11.7,3.5,17.3c0.2,0.5,0.6,1,0.3,1.7
	c-0.8,0.3-1.7,0.2-2.5,0.2c-14.8,0-29.6,0-44.4,0c-0.8,0-1.6,0-2.4,0.1c-1.4,0.2-2.4,1.5-2.3,2.6c0.1,1.1,1.1,2.2,2.4,2.3
	c1,0.1,1.9,0,2.9,0c189.5,0,379,0,568.5,0c0.5,0,1-0.1,1.4,0c1.4,0.2,2.6-0.3,3.6-1.3v-2.4C710.9,238.5,709.6,238.3,708.1,238.3z
	 M191.2,234c0.6,1.3,1.3,2.7,2,4c-0.3,0.2-0.5,0.3-0.6,0.3c-5,0-3.9,0.7-5.7-3.6c-1.7-4.1-2.5-8.4-3-13.1c4.7,2.8,12.5,12.7,13.4,17
	c-2.5-3.3-4.5-6.4-7.3-8.9C189.9,231.3,190,231.6,191.2,234z M206.7,235.2c-4.7-14.1,2.5-33.1,16.3-37.7c0.1,0.1,0.2,0.3,0.2,0.4
	c-2.2,4.5-2.5,9.4-3.2,14.2c-0.4,2.6-0.7,5.2-1.5,7.8c-1.1,3.5-3,6.5-6.9,8.6c1.5-5.4,3.6-10.2,5.1-15.5c-1.2,0.7-1.6,1.5-2.1,2.3
	c-2.2,3.2-3.5,6.8-4.7,10.5c-0.8,2.5-1.6,5-2.4,7.5C207.3,233.9,207.1,234.6,206.7,235.2z M653.2,230.1c0,0.2-0.2,0.4-0.4,0.8
	c-0.5-0.5-0.7-1.1-0.8-1.6c-1.1-3.5-2.2-7-3.4-10.5c-1.6-4.7-3.2-7.6-5.6-9.9c1.3,5,3.3,9.7,4.6,14.8c-3.1-1.5-5-3.9-6.2-7
	c-1.1-2.8-1.4-5.7-1.8-8.6c-0.4-2.8-0.9-5.5-1.3-8.3c-0.3-2.2-1.2-4.3-2.1-6.4c1.1-0.3,1.8,0.3,2.5,0.7c6.9,3.7,11.3,9.5,13.8,16.8
	C654.6,217,654.7,223.5,653.2,230.1z M665.7,238.3c-0.6-0.1-1.3-0.1-2.2-0.1c2.2-4.3,5.1-8,6.1-12.7c-3.2,2.5-5.4,5.9-7.9,9
	c3-6.8,7.6-12.4,13.5-17.4c0.4,1.7-0.1,2.9-0.3,4.1c-0.9,5.2-2.5,10.2-5.1,14.8C668.9,237.8,667.7,238.6,665.7,238.3z M708.8,356.5
	c-0.7,0-1.4,0-2.2,0c-189.3,0-378.5,0-567.8,0c-0.7,0-1.4,0-2.2,0c-0.5,0-1,0-1.4,0.1c-1.3,0.3-2.2,1.4-2.2,2.5
	c0.1,1.1,1.1,2.2,2.4,2.4c0.7,0.1,1.4,0,2.2,0c11.9,0,23.8,0,35.8,0c1.3,0,2.3,0.3,3.3,1.1c9.3,7.9,19.9,13,32,14.9
	c1.4,0.2,2.2,0.9,2.7,2.3c1.4,4.2,3,8.4,4.5,12.6c0.2,0.7,0.6,1.3,0.5,2c-0.1,0-0.2,0.1-0.3,0c-0.3-0.2-0.6-0.3-0.8-0.5
	c-4.6-3.9-9.7-6.7-15.2-8.9c-8.7-3.4-17.7-4.9-26.9-5.2c-2.9-0.1-5.8,0.1-8.6,0.3c-0.7,0.1-1.5,0.2-1.7,1.1
	c-0.2,0.8,0.2,1.4,0.8,1.8c0.1,0.1,0.3,0.2,0.4,0.3c4.9,3.5,9.7,7,14.6,10.5c3.7,2.6,7.7,4.6,11.9,6.1c3.7,1.3,7.5,2.2,11.4,2.9
	c0.4,2.7,0.5,5.5,1.1,8.1c1.7,6.7,5.7,11.7,11.5,15.4c1.8,1.2,3.8,2.1,5.7,3.1c0.9,0.5,1.7,0.9,2.1,1.9c-0.3,0.3-0.6,0.2-0.8,0.1
	c-5.8-2.4-11.7-4.7-17.7-6.8c-0.9-0.3-1.2-0.7-0.9-1.8c0.5-1.8-0.3-3.1-1.7-4.1c-0.8-0.5-1.6-1-2.5-1.4c-2-0.9-3.8-0.2-4.7,1.8
	c-0.3,0.6-0.1,1.3-0.7,1.8c-1.9-0.5-3.8-1-5.8-1.5c-0.8-0.2-1.1-0.5-0.8-1.6c0.5-1.7,0.1-2.6-1.1-3.3c-1.2-0.7-3.8-0.7-4.4,0.5
	c-0.9,1.6-1.8,1.2-2.9,0.3c1-1.4,1.6-2.8,0.5-4.4c-0.7-1.1-2.8-1.7-4.1-1.4c-2.1,0.5-2.3,2.2-2.2,4c-0.5-0.1-0.8-0.1-1.1-0.2
	c-1.7-0.4-3.5-0.4-4.2-2.7c-0.4-1.4-2.9-1.7-4.5-0.9c-1.4,0.7-1.9,2.1-1.3,3.4c0.6,1.4,2.4,2.3,4,1.8c0.3-0.1,0.6-0.2,0.9-0.3
	c0.4-0.1,0.7-0.8,1.4-0.7c-1,2.2-0.9,3.4,0.3,4.5c1.1,0.9,2.4,1.1,3.6,0.4c1.1-0.6,1.6,0.2,2.3,0.6c0.6,0.4,0.1,1,0.2,1.6
	c0.3,2.1,1.9,3.5,3.9,3.5c2,0,3.1-1.2,3.3-3.6c0-0.2,0.1-0.4,0.2-0.6c0.8-0.1,1.6-0.1,2.4,0.3c-0.5,3,0.6,5,3,5.6
	c1,0.2,1.9,0.1,2.8-0.4c1.3-0.7,1.7-2,1.9-3.4c1.3,0.2,2.5,0.4,3.2,1.2c1.4,1.4,3,2.1,4.9,1.9c0.5,0,0.9,0.1,1.4,0.3
	c4.4,1.8,8.7,3.6,13.1,5.4c0.2,0.1,0.4,0.2,0.4,0.5c-2.1,0.7-2.1,0.7-5.8,0c-4.6-1-8.6,0.2-11.8,3.6c-1.4,1.5-2.7,3.2-4,4.8
	c-0.9,1.1-0.7,1.6,0.7,1.8c6.5,0.7,12.3-0.7,17-5.3c2-2,4.3-2.6,6.9-2.7c1.3-0.1,2.5-0.1,3.8,0.5c7.4,3.4,14.7,7,21.6,11.5
	c0.4,0.3,1.1,0.3,0.9,1.2c-1.1,0-2.2,0.1-3.3,0.2c-1.6,0.1-3.2,0.1-4.8,0.5c-1.8,0.4-3-0.9-4.6-1.1c-2-0.2-4-0.3-6-0.4
	c-0.6,0-1.2,0-1.6-0.7c-1.4-1.9-2.1-2-4.3-1.3c-1.2,0.4-1.9,1.2-2,2.4c-0.1,1,0.8,2.3,2,2.7c0.6,0.2,1.3,0.2,2.1,0.4
	c-1.6,0.5-3,1.4-4.4,1.1c-3-0.8-6-0.8-9.1-0.8c-1.1,0-2.1-0.1-2.9-1.1c-1.2-1.3-3.1-1.2-4.4-0.1c-1.2,1.1-1.5,3-0.6,4.4
	c0.8,1.2,1.9,1.7,3.3,1.6c1.3-0.1,2.3-0.7,2.7-2c0.2-0.5,0.2-1.1,1-1.1c2,0.2,4.1,0.3,6.1,0.5c-2.3,1.5-4.6,2.7-6.9,3.9
	c-0.3,0.1-0.6,0.1-0.9,0.1c-2.5-0.3-4.9,0.1-7.4,0.5c-1.1,0.2-1.9,0.2-2.8-0.8c-1.4-1.5-3.4-1.4-4.5-0.1c-1.1,1.4-1.8,3.5-0.2,5.2
	c1.9,2,4.8,1.4,5.8-1.1c0.2-0.6,0.1-1.5,1.1-1.5c1.8-0.1,3.6-0.3,5.3-0.4c-1.2,1.5-2.6,2.5-3.9,3.7c-0.7,0.6-1.5,1-2.5,1.1
	c-2.1,0.1-3.2,1.6-2.9,3.6c0.3,1.8,2.1,3.3,3.9,3.2c1.8-0.1,3.1-1.8,2.9-3.8c0-0.4-0.2-0.8-0.3-1.1c-0.2-0.5-0.2-0.9,0.2-1.3
	c2.9-2.4,5.8-4.6,9.7-6.5c-1.2,2.6-1.2,5.2-3.6,6.7c-1.3,0.9-1.5,2.5-0.8,3.6c1,1.6,3.3,2.2,4.8,1.2c1.5-0.9,2.1-3.4,0.7-4.6
	c-1.6-1.4-1-2.5-0.3-3.9c0.6-1.1,1.1-2.3,1.7-3.4c0.3-0.6,0.6-1.1,1.3-1.4c3.7-1.5,7.4-2.7,11.5-3.2c-0.4,1.3-0.9,2.3-1.1,3.4
	c-0.2,1.1-0.6,1.8-2,1.9c-1.6,0.1-2.4,1.1-2.5,2.4c-0.3,2.2,1.6,4.5,3.8,4.7c1.7,0.1,2.9-0.4,3.5-1.6c0.7-1.5,0.6-3.5-0.7-4.4
	c-1.3-0.9-1.1-1.7-0.6-2.8c0.3-0.7,0.5-1.3,0.7-2c0.4-1.5,1.2-2.4,3-2.5c1.8-0.1,3.6-0.5,5.5-0.7c0.6-0.1,1.2-0.2,1.7,0.1
	c0,0.3,0,0.4-0.1,0.4c-0.8,1.1-1.6,2.2-2.4,3.3c-0.5,0.7-0.9,1.3-1.9,1.2c-0.7-0.1-1.4,0.3-1.8,0.9c-0.8,1.1-0.6,2.8,0.3,3.8
	c1,1.1,2.9,1.4,4.2,0.6c1.1-0.7,1.8-2.5,0.9-3.6c-1.3-1.5-0.4-2.4,0.4-3.5c0.7-0.9,1.3-1.8,2-2.7c0.4-0.5,0.8-1,1.5-1.1
	c2.7-0.2,5.4-0.3,8.1-0.1c0.7,0.1,1.2,0.4,1.7,0.8c11.2,7.6,22,15.7,31.5,25.4c0.3,0.3,0.8,0.6,0.9,1.5c-2.2-1.1-4.2-1.9-6.3-2.4
	c-7.2-1.8-14.5-2.6-21.8-3c-5-0.2-10,0.6-15.1,1.1c-2.7,0.3-5.4,1-8.1,0.7c-1-0.1-2-0.3-3.1-0.4c-0.3,0-0.6,0-0.7,0.4
	c-0.1,0.4,0.1,0.7,0.3,0.8c1.3,0.7,2.8,1.1,4.3,1.5c6.2,1.8,12.6,2.3,18.9,2.9c5.2,0.5,10.5,0.9,15.7,1.8c6.3,1,12.5,2.5,19,2.6
	c2.5,0,4.9,1.1,6.9,2.9c2.5,2.3,5.2,4.5,7.8,6.7c0.4,0.3,1.1,0.5,0.9,1.3c-0.3,0-0.6,0-0.9,0c-8.3,0.1-16.5-0.7-24.6-1.6
	c-4.5-0.5-9-0.2-13.4,0.6c-9.6,1.9-18,6.1-24.7,13.3c-1.3,1.3-2.4,2.8-3.5,4.2c-0.3,0.4-0.6,1-0.1,1.5c0.4,0.4,0.9,0.3,1.3,0.1
	c0.6-0.3,1.1-0.6,1.7-0.9c1.1-0.7,2.3-1.2,3.5-1.4c5.4-0.9,10.9-1.6,16.4-2c9.4-0.6,18.5-2.5,27.1-6.4c5-2.2,10.1-4.4,15.6-5.3
	c2.5-0.5,5.1-0.4,7.2,1.6c1.3,1.2,2.8,2.2,4.2,3.2c7.4,5.5,14.6,11.5,22.4,16.5c0.4,0.3,0.5,0.6,0.6,1c0.5,2.7,2.2,4.5,4.5,5.9
	c1.1,0.7,2,1.6,2.2,3c0.3,1.3,0.9,2.6,1.7,3.9c-2.6,1.1-4.6,2.9-6.3,5c-0.7,0.9-1.4,1.8-0.8,3c0.3,0.8,0,1.3-0.4,2
	c-1.1,1.9-1,2.5,0.6,3.9c1.5,1.3,1.5,1.3,0.7,3.2c-1,2.2-0.9,2.4,0.6,4.2c1.1,1.2,2.5,2.3,2.5,4.2c0,0.9,0.8,1.5,1.7,1.9
	c0.7,0.3,1.3,0.6,2,0.8c1.1,0.3,1.5,0.9,1.2,2.1c-0.5,2.8,0.2,3.5,3.1,3.9c2.6,0.3,5.3,0.4,7.9,0.5c2.7,0.1,4.8-0.8,6.7-2.7
	c0.4-0.4,0.6-0.9,1.3-1.1c0.7,1.2,0.5,2.6,1,3.9c1.3,3.3,3.1,4.4,6.7,3.7c1.3-0.3,2.3-0.1,3.3,0.9c0.9,0.9,2,1.4,3.3,1
	c1.2-0.3,1.9,0,2.8,0.8c1.3,1.1,2.9,1.8,4.4,0.8c1.9-1.2,3.8-1.4,5.9-1.2c3.2,0.2,7.4-2.2,7-7c0-0.4-0.1-0.8-0.1-1.2
	c0-0.9,0.3-1.8,1.2-2.1c0.7-0.3,1.1-0.8,1.4-1.5c0.7-1.4,2.4-1.9,3.9-1.1c1.9,1,3.9,1.9,5.8,2.8c3.4,1.6,6.6,1.7,9.8-0.2
	c0.1-0.1,0.3,0.1,0.5,0.1c-0.2,1.2-0.5,2.3-0.5,3.5c-0.1,4.2,1.5,6.1,4.9,6.4c1.4,0.1,2.2,0.7,2.7,1.9c0.5,1.1,1.3,2,2.7,2.2
	c1.2,0.1,1.8,0.7,2.3,1.7c1.3,2.3,2.3,2.6,5,2.2c0.9-0.2,1.7-0.2,2.6,0.2c1.5,0.7,3.1,1.3,4.6,2h0.5c0.1-0.1,0.2-0.3,0.4-0.3
	c3.3-0.5,5.3-2.4,6.2-5.6c0.3-1.1,0.9-1.9,2.1-1.9c0.7,0,1.3-0.3,1.6-0.9c0.3-0.6,0.8-0.6,1.4-0.6c1.6,0,2.7-0.8,3.7-2
	c1.3-1.5,2.8-2.6,4.8-3c2.4-0.6,4-2,4.7-4.3c0.3-1.1,1.1-1.7,2.1-2c1.2-0.4,2.1-1.2,2.6-2.3c0.8-1.9,0.6-3.7-0.2-5.6
	c-0.2-0.5-0.9-0.9-0.7-1.6c2.8-0.3,3.2-0.5,5.4-2.2c1.3-1.1,1.5-1.2,2.3,0.3c1.5,2.5,4,3.2,6.7,1.1c1.2-1,2.4-1.3,4-0.9
	c3,0.7,5.3-0.8,6.2-3.8c0.3-0.9,0.4-1.9,0.5-2.8c0.2-1.1,0.6-1.9,1.3-2.8c2-2.2,2.2-3.4,0.7-6c-1-1.7-1.1-3,0.1-4.6
	c1.1-1.6,1.2-3.5-0.3-4.8c-2.5-2.2-2.5-4.4-0.9-7c0.3-0.5,0.4-1.1,0.5-1.6c0.2-0.4,0.5-0.6,0.9-0.5c2,0.7,4,1.3,4.4,3.8
	c0.2,1,0.5,2,1,2.9c1.1,2.4,4.2,4,7,1.6c0.2-0.2,0.5-0.4,0.7-0.6c0.8-0.7,1.4-0.6,1.9,0.3c0.5,0.9,1,1.8,1.6,2.7
	c2,2.8,5,2.7,6.7-0.4c0.6-1.2,1.1-2.5,1.1-3.9c0.1-1.7,0-3.3-0.5-5c-0.2-0.7-0.6-1.5,0.1-2c1.5-0.9,2.2-2.5,3.6-3.5
	c8.7-6.3,17.1-12.9,25.7-19.4c0.6-0.5,1.3-1,2.1-1c2.7-0.3,5.4-0.2,7.8,0.8c4.7,1.9,9.5,3.3,14.1,5.4c6.6,3,13.6,4.6,20.8,5.3
	c6.1,0.6,12.3,1,18.4,2c2.4,0.4,4.7,0.8,6.7,2.3c0.6,0.5,1.5,1,2.2,0.3c0.8-0.9-0.1-1.6-0.6-2.3c-9.9-12.4-23-17.9-38.6-17.6
	c-4.5,0.1-8.9,0.7-13.4,1.1c-4.9,0.4-9.8,0.6-15.2,0.6c0.9-0.8,1.5-1.3,2.1-1.8c2.4-2.1,4.9-4.1,7.3-6.2c2.1-1.9,4.5-2.8,7.2-2.9
	c5.3-0.3,10.5-0.8,15.7-2.1c0.5-0.1,1.1-0.2,1.6-0.3c8.5-1.4,17-1.9,25.5-2.9c4.5-0.5,8.8-1.4,13.1-2.8c0.7-0.2,1.4-0.4,1.9-0.9
	c0.1-0.1,0.2-0.4,0.2-0.6c0-0.3-0.3-0.4-0.5-0.4c-0.4,0-0.8,0-1.2,0.1c-2.2,0.5-4.4,0.4-6.7,0c-8.5-1.2-17-2.3-25.6-1.2
	c-7.1,0.9-14.3,1.5-20.9,4.7c-0.1,0-0.3-0.1-0.5-0.2c0.3-0.4,0.7-0.7,1-1.1c9.4-9.5,19.9-17.5,30.9-25c1.3-0.9,2.7-1.4,4.2-1.4
	c0.9,0,1.8,0.1,2.6,0c3.1-0.2,5.5,0.8,7,3.7c0.7,1.4,1.9,2.3,0.5,4.1c-1,1.3,0.1,3.1,1.7,3.6c1.6,0.6,3.6-0.4,4.1-2
	c0.5-1.7-0.3-3.3-2-3.7c-0.5-0.1-1.1,0.1-1.5-0.4c-1-1.4-2-2.8-2.9-4.2c0.2-0.4,0.4-0.4,0.7-0.4c1.4,0.2,2.9,0.3,4.3,0.5
	c5.3,0.8,4-0.4,6,4.9c0.4,1.1,0.5,1.7-0.6,2.6c-1.7,1.3-1.7,3.8-0.4,5.2c0.9,0.9,2.9,1.2,4.3,0.6c1.7-0.7,2.8-2.7,2.5-4.5
	c-0.2-1.4-0.9-2-2.9-2.4c-0.6-0.1-1.1,0-1.3-0.8c-0.4-1.4-0.8-2.8-1.3-4.5c2.3,0.3,4.3,0.8,6.2,1.4c6.7,2.2,5.7,1.3,8.6,7.5
	c0.5,1,0.7,1.7-0.4,2.6c-1.7,1.5-1.3,4.1,0.5,5.1c1.5,0.8,3.5,0.3,4.5-1c1-1.3,0.7-2.6-0.7-4c-0.8-0.8-2-1.3-2.1-2.7
	c-0.1-1.2-1-2.2-1.1-3.7c2.8,1.4,5.2,3,7.5,4.8c1.4,1,3.1,1.9,1.9,4.1c-0.1,0.1,0,0.3,0,0.5c0.1,1.8,1.3,3.1,3,3.1
	c1.9,0.1,3.7-1.6,3.8-3.5c0.1-1.7-1-3-2.8-3.2c-0.6-0.1-1.3,0.1-1.8-0.4c-1.6-1.4-3.3-2.7-5.1-4.2c1.8-0.3,3.3,0.2,4.8,0.2
	c1.2,0,1.8,0.3,2.2,1.6c0.4,1.7,1.6,2.4,3.2,2.3c1.5-0.1,3-1.2,3.4-2.6c0.4-1.4-0.4-3.5-1.6-4.3c-1.2-0.7-2.8-0.6-3.9,0.6
	c-0.9,1-1.7,0.8-2.8,0.7c-2.4-0.3-4.9-0.9-7.4-0.5c-0.3,0-0.7,0.1-0.9-0.1c-2.3-1.2-4.6-2.4-6.9-3.6c1.9-0.5,3.7-0.6,5.5-0.8
	c1-0.1,1.5,0.2,1.7,1.1c0.3,1.2,1.3,1.8,2.5,2c1.5,0.2,3.2-0.8,3.7-2.1c0.6-1.5,0.1-3.2-1.1-4.1c-1.2-0.8-3.1-0.8-4.2,0.4
	c-0.9,1-1.8,1-3,1c-2.4,0-4.8-0.3-7.2,0.4c-2.1,0.6-4,0.2-6-0.8c0.9-0.2,1.6-0.1,2.3-0.5c1.6-0.9,2.1-2.7,1.1-4.1
	c-1.3-1.7-4.3-1.8-5.5,0c-0.5,0.8-1.1,1-1.9,1c-1,0-2.1,0-3.1,0.1c-1.5,0.1-3.2,0.1-4.4,0.8c-1.2,0.7-2.2,0.6-3.4,0.4
	c-2-0.2-4-0.3-6-0.5c-0.5,0-1.1,0.2-1.5-0.3c0-0.3,0.1-0.5,0.3-0.6c7.2-4.7,14.7-8.8,22.7-11.9c3.1-1.2,6.6-0.9,9.3,1.7
	c4.9,4.7,10.8,6.7,17.6,6c0.6-0.1,1.2,0,1.4-0.6c0.2-0.5-0.2-0.9-0.5-1.3c-1.5-1.7-2.7-3.6-4.3-5.1c-3.2-3-6.9-4.1-11.3-3.2
	c-0.7,0.1-1.4,0.4-2.1,0.5c-1.4,0.3-2.7,0.2-4.4-0.6c4.4-1.8,8.5-3.5,12.6-5.1c1.2-0.5,2.3-0.9,3.7-0.9c1.3,0,2.5-0.5,3.5-1.4
	c1.1-1.1,2.4-1.4,3.7-1.7c1,3.1,2.4,4.2,4.8,3.7c2.3-0.5,3.5-2.6,3-5.6c0.4-0.1,0.8-0.2,1.2-0.2c0.4,0,0.8-0.2,1.2,0.1
	c0.4,0.4,0.1,0.9,0.2,1.4c0.5,2.1,2.2,3.2,4.3,2.6c1.7-0.5,2.7-1.7,2.9-3.7c0.2-1.6,0.9-2.2,2.5-1.8c1.5,0.4,2.9,0.4,3.9-0.9
	c1-1.2,0.8-2.5,0.1-3.8c0-0.1,0.1-0.3,0.1-0.4c2.1,1.4,3.6,1.6,5,0.5c1.5-1.1,1.6-3.2,0.2-4.3c-1.3-1.1-4.9-1.1-5.4,1.3
	c-0.3,1.2-1.1,1.4-2,1.6c-0.9,0.2-1.8,0.4-2.8,0.6c-0.1-2.6-0.6-3.5-2.1-4c-1.3-0.4-3.4,0.2-4.2,1.2c-1.2,1.6-0.7,3.1,0.4,4.6
	c-1.2,0.8-2,1.2-2.9-0.4c-0.6-1-3-1.2-4.2-0.6c-1.3,0.6-1.8,1.6-1.3,3.4c0.2,0.8,0.1,1.3-0.6,1.4c-2.1,0.4-4,1.3-6.2,1.5
	c-0.3-0.8-0.5-1.5-0.8-2.2c-0.4-0.8-1-1.4-2-1.6c-2.1-0.5-6.2,1.8-6.8,4c-0.1,0.5-0.2,1-0.1,1.4c0.8,1.7-0.3,2-1.5,2.4
	c-5.6,2.1-11.2,4.3-16.8,6.5c-0.4,0.2-0.9,0.4-1.5,0.3c1.1-1.5,2.6-2.2,4-2.9c2.8-1.5,5.7-3,8-5.2c4-3.8,6.9-8.1,8-13.6
	c0.4-2,0.4-4,0.7-5.9c0.1-0.9,0.4-1.3,1.2-1.4c0.5,0,0.9-0.2,1.4-0.3c7.8-1.5,15-4.4,21.5-9c4.6-3.3,9.2-6.6,13.8-10
	c0.4-0.3,0.8-0.6,1.1-0.9c0.7-0.9,0.3-1.9-0.8-2.2c-0.5-0.1-1-0.1-1.4-0.2c-8.2-0.8-16.3,0-24.3,1.7c-9.7,2.1-18.5,6-26.2,12.4
	c-0.2,0.1-0.4,0.3-0.6,0.1c0-0.2-0.1-0.3,0-0.5c1.8-4.9,3.5-9.8,5.3-14.7c0.4-1.3,1.4-1.6,2.6-1.8c9.5-1.5,18.3-5.1,26.2-10.6
	c1.2-0.8,2.4-1.1,3.8-1.1c9.2,0,18.4,0,27.6,0c1.5,0,2.6-0.3,3.6-1.4v-1.9C711.3,356.9,710.2,356.4,708.8,356.5z M206.8,364.2
	c-0.8-0.7-1.4-1.5-2.2-2.6C206.5,361.7,206.5,361.7,206.8,364.2z M180.2,361.5c3.6,0,6.8,0,10,0c0.6,0,1.1,0.1,1.6,0.4
	c4.5,3.4,9,6.9,12.8,11.1c0.2,0.2,0.2,0.4,0.3,0.6C199.3,373.1,184.9,366.1,180.2,361.5z M197.3,361.7c2.6-0.8,4.5,0.2,6.1,2.4
	c1.4,2,2.9,3.9,4.2,6.3C205.5,369.2,197.9,362.7,197.3,361.7z M173.3,418.3c-0.1-0.9,0-1.7,0.3-2.5c2.4,0.6,4.6,1.5,6.8,2.9
	C178.1,418.6,175.8,418.4,173.3,418.3z M194.8,440.3c2.7-3.2,5.2-6,9.9-6.3c-1.9,1.9-4.4,2.2-6,4.5c2.2-0.6,4-1,6.1-1.5
	C202.9,438.6,198.7,440,194.8,440.3z M222.5,450c1.2-1.7,1.2-1.7,4.1-0.8C225,449.5,223.8,449.7,222.5,450z M289.4,496.8
	c-7.5,2.7-14.7,6.2-22.6,7.6c-6.2,1.1-12.5,1.9-18.7,2.6c-2.5,0.3-5,0.8-7.6,1.2c-0.5,0.1-1.1,0.3-2.1,0
	c10.9-10.5,23.5-14.5,38-13.1c-2.6,0.9-5.4,1-8.1,1.3c-4.3,0.6-8.5,1.2-12.7,2.4c-2.6,0.8-5.1,1.8-7.4,3.3c-0.3,0.2-0.7,0.4-1,0.7
	c-0.3,0.2-0.7,0.5-0.4,1c0.3,0.4,0.6,0.1,0.8,0c0.1,0,0.1-0.1,0.2-0.1c4.7-2.9,9.9-4,15.2-4.8c6.1-0.9,12.2-1.7,18.3-2.4
	c2.7-0.3,5.4-0.5,8-0.1C289.5,496.6,289.5,496.8,289.4,496.8z M580.9,492.6c5.8,0.8,11.6,1.3,17.3,2.3c4.6,0.9,9.1,1.9,13.1,4.4
	c0.3,0.2,0.7,0.6,1,0.1c0.4-0.6-0.2-0.8-0.6-1.1c-2.5-1.7-5.3-2.9-8.2-3.8c-5.1-1.6-10.3-2.1-15.5-2.8c-1.7-0.2-3.5-0.4-5.3-0.6
	c8.4-2.9,29.2,1.9,37.9,13.1c-2-0.4-3.7-0.7-5.5-1c-6.8-1.1-13.6-1.6-20.4-2.8c-3.7-0.7-7.3-1.6-10.9-2.7c-4.9-1.6-9.6-3.9-14.5-5.6
	C573.2,491.6,577.1,492,580.9,492.6z M636.8,445.5c-1.3,0.3-2.3-0.6-3.9-0.3C635,443.8,635.5,443.8,636.8,445.5z M655.1,429.8
	c4.2,0.2,6.7,3,9.3,6c-3,0-6.9-1.1-10.2-3.1c2.3,0.1,4,0.9,5.8,1C658.8,431.8,656.5,431.4,655.1,429.8z M685.9,411.4
	c0.1,0.9,0.1,1.6,0.2,2.4c-2.4,0.4-4.7,0.5-7.1,0.4C681.1,412.9,683.4,412,685.9,411.4z M627.8,361.5c0.6,0,1.1,0.3,1.5,0.7
	c2.5,2.6,4.8,5.3,6.6,8.5c-4.1-3.2-8-6.7-13.7-8.1c1.3,1.6,2.6,2.7,3.8,3.8c2.8,2.4,5.6,4.8,8.1,7.4c1.8,1.9,3.4,3.9,4.6,6.4
	c-10.6,0.4-20-7.7-24.3-18.7C619,361.5,623.4,361.5,627.8,361.5z M234.3,362.6c0.9-0.8,1.8-1.2,3-1.1c3.1,0.1,6.2,0,9.2,0
	c0.5,0.7,0.1,1.2-0.1,1.7c-2.4,5.4-5.1,10.5-9.3,14.6c-4.2,4-9.2,6.2-14.9,6.9c-0.4,0.1-1,0.2-1.5-0.4c3.7-7.2,10.7-11.3,16-17.1
	c-5.3,1.1-9.1,4.6-13.2,8c-0.1-0.9,0.4-1.3,0.8-1.8C227.2,369.5,230.5,365.8,234.3,362.6z M215.9,379.4c-2-5.8-3.8-11.6-5.2-17.8
	c6.4-0.2,12.7-0.1,19.1,0.1C224.4,367.1,219.4,372.6,215.9,379.4z M170.4,383.8c12.5-0.9,37.9,6.5,42.9,12.8
	c-8.4-3.2-16.3-7.4-25.6-7.1c0.6,1,1.5,1.1,2.3,1.4c6.6,2.4,13.2,5,19.6,7.8c0.7,0.3,1.4,0.7,2,1.2
	C196,399.9,182.1,395.4,170.4,383.8z M210.3,417.5c0.7,1.2,1.5,2.2,2.3,3.3c0.8,1.1,1.6,2.1,2.6,3.4c-4.3-2-9.5-10.8-9.5-15.8
	c5.1,3.2,10.6,10.1,11.2,14.2c-3.3-2.4-5.2-6.1-8.3-9C208.4,415.6,209.7,416.4,210.3,417.5z M246.7,444.2c-4.2-2.6-8.4-4.9-12.8-7.1
	c-5.8-2.9-10.2-7.3-12.6-13.3c-2.2-5.5-5.6-10-10.1-13.7c-1.6-1.3-3.1-2.7-4.7-4.2c-0.7-0.7-1.4-1.5-2.1-2.1
	c0.2-0.7,0.6-0.5,0.9-0.5c4.3,0.5,8.6,0.5,12.9,0.8c1.2,0.1,2.1,0.3,2.6,1.6c4.6,10.8,11.6,20,19.1,28.9c2.8,3.4,5.6,6.7,8.7,10.3
	C247.6,445.1,247.2,444.5,246.7,444.2z M324.3,494.8c-0.4-3.2-0.5-6.5-1.1-9.7c-1.2-6.3-1.5-12.7-2.9-19c-0.8-3.6-1.6-7.2-2.5-10.7
	c-0.2-0.8-0.3-1.7-1.1-2.2c-0.8,0.3-0.5,0.9-0.4,1.3c1.6,8.3,2.4,16.6,2.9,25c0.3,4.5,1.5,8.8,1.8,13.3c0,0.5,0.3,1.1,0,1.6
	c-0.7-0.1-0.9-0.7-1.1-1.1c-1.7-3.1-3.6-6.1-4.7-9.4c-0.7-2.1-1.4-4.3-2.2-6.3c-1.7-4.3-2-8.7-1.7-13.2c0.3-5.4,1.3-10.8,1.9-16.2
	c0.2-1.6,0.2-3.2,0.3-4.8c0.8-0.1,0.8,0.6,1.1,1c4.9,7.6,7.4,16.2,9.9,24.8c1.6,5.5,1.9,11.2,1.9,16.8c0,1.5-0.3,3-0.6,4.5
	c-0.3,1.5-0.7,2.9-1.1,4.3L324.3,494.8z M334.5,510.9c-0.4,0.3-0.4,1.2-0.6,1.8c-0.7,0.3-1-0.3-1.5-0.6c-1-0.7-2-1.6-3.1-2.3
	c-3.6-2.1-4-5.5-3.6-9.2c0.3-2.2,0.9-4.4,1.5-6.5c1.3-4.7,1.8-9.4,1.3-14.4c1.7,2.3,3.9,3.5,6.5,4.2c1.1,0.3,1.7,1.2,2.2,2.1
	c2.7,4.4,5.2,5.2,10,3.3c1-0.4,2-0.8,3-0.6c1.5,0.3,3.1,0.5,5,0.5c-1.5,2.6-3,4.8-4,7.3c-0.2,0.6-0.8,0.6-1.4,0.6
	c-5.8-0.6-9.2,3-12.3,7.2C337.4,507,336.6,509.2,334.5,510.9z M363.7,448.9c1,0.7,1.8,1.6,1.9,2.9c0.1,0.5,0.2,0.9,0,1.4
	c-1.4,3-0.7,5.8,0.6,8.5c0.2,0.4,0.3,0.7,0.4,1.1c0,0.1-0.1,0.1-0.2,0.3c-3.5-4.3-5.8-9.2-8.5-13.9c1.7,7.4,4.8,13.9,10.7,19
	c-0.5,0.7-0.9,0.3-1.3,0.1c-3.1-1.3-5.2-3.7-6.4-6.8c-0.7-1.7-1.3-3.4-2.4-4.9c-0.7-1.1-1.6-2-2.8-2.6c-1.4-0.7-2.8-0.9-4.1,0
	c-1.5,1.1-2.7,1-4-0.2c-0.6-0.5-1.4-0.7-2.3-0.6c-0.9,0.2-1.3-0.3-1.6-1c-1.1-2.5-1.8-5.1-1.6-7.9c0.1-1.7,0.5-2.3,2.3-2.5
	c2.2-0.2,3-1.6,3.5-3.4c0.4-1.6,0.7-3.3,1.6-4.8c0.2-0.4,0.5-0.8,0.8-1.2c0.5-0.6,1-1.5,1.9-1.2c0.8,0.2,0.7,1.2,0.8,1.9
	c0.1,0.9,0.1,1.8,0.3,2.6c0.6,2.5,2.4,3.6,4.9,2.9c0.9-0.2,1.8-1.1,2.7-0.3c0.9,0.8,0.6,2.1,0.5,3.2c-0.1,0.7-0.2,1.4-0.3,2.1
	C361,446,362,447.7,363.7,448.9z M374.1,440.4c-1-2.4-1-2.5,1.1-4.1c1.6-1.3,2.3-2.8,1.9-4.8c-0.1-0.5-0.1-1-0.2-1.4
	c-0.1-0.9,0.1-1.6,1.1-1.8c2.1-0.6,3.3-2.1,4.2-4c0.2-0.5,0.6-1,0.9-1.4c1.1-1.2,2.1-1.4,3.3-0.4c1.8,1.5,3.7,1.6,5.8,1
	c2.2-0.6,2.2-0.6,2.8,1.5c1,3.5,2.2,4.2,5.8,3.5c0.5-0.1,0.9-0.2,1.4-0.2c2.2-0.1,3.3,1.3,2.7,3.4c-0.1,0.3-0.2,0.6-0.4,0.9
	c-1,2.5-0.7,4.7,1.2,6.6c1.3,1.4,1.3,1.4,0.1,3c-0.4,0.5-0.8,1-1.2,1.5c-1.1,1.5-1.3,3-0.7,4.8c0.3,0.9,0.8,1.7,0.6,3
	c-2.7-0.4-4.7,0.5-5.9,2.8c-0.5,0.9-1.3,1.4-2.4,1.3c-0.8,0-1.6,0.1-2.4,0.3c-1.5,0.3-2.9-1.1-2.7-2.7c0.1-0.6,0.2-1.3,0.3-1.9
	c0.4-3.4-1.4-5.4-4.7-5.3c-0.5,0-1.1,0.1-1.9,0.1c1-5.4,4.6-9.1,7.3-13.3c-0.8-0.5-1,0.1-1.3,0.4c-3.4,3.7-6.6,7.4-7.7,12.5
	c-0.2,1-0.8,1.3-1.7,1.4c-0.7,0-1.4-0.1-2.1-0.4c-2.6-1.1-4.8-0.4-6.8,1.4c-0.6,0.5-1.1,1.1-1.7,1.7c-0.3,0.3-0.7,0.7-1.1,1
	c-0.3,0.2-0.8,0.3-1.1,0c-0.4-0.3-0.1-0.8,0.1-1.1c0.4-0.5,0.9-0.9,1.4-1.2c1-0.7,2-1.4,2.8-2.3C374.6,444.5,375,442.6,374.1,440.4z
	 M409.4,443.6c-0.6-1-0.6-1.6,0.4-2.1c0.9-0.5,1.4-1.3,1.2-2.4c-0.1-0.9,0.3-1.3,1-1.7c1.4-0.8,2.9-1.4,4.4-1.8
	c1.7-0.4,3.2-0.3,4.5,1.3c1.1,1.5,3,2,4.7,2.8c1.2,0.5,2.5,1,3.1,2.4c-0.4,0.8-1.2,0.7-1.8,1c-1.2,0.7-1.9,0.5-2.7-0.8
	c-1.3-2.1-2.5-2.4-4.5-0.9c-2.3,1.7-4.6,3.4-6.8,5.3c-1.8,1.6-2.7,3.7-2.8,6.1c0,0.5,0.1,1.1-0.4,1.9c-0.9-1-1.3-2-1.7-3
	c-0.5-1.3-0.6-2.5,0.8-3.6C410.3,446.7,410.4,445.4,409.4,443.6z M420.7,415.9c-0.4-2.1,0.1-3.6,2.4-4.1c0.8-0.2,1.3-0.9,1.7-1.6
	c2.5-3.9,8.7-5.7,12.9-3.6c1.4,0.7,2.8,1,4.2,0.5c1.1-0.4,1.8-0.1,2.6,0.6c0.3,0.3,0.6,0.6,1,0.7c2.4,0.9,3.2,2.6,3.1,5
	c0,1,0.1,1.9-0.5,2.8c-3.2,4.5-3.3,9.6-2.3,14.7c0.6,2.7,0.9,5.5,0.9,8.3c-2.2-8.1-5.7-15.8-6.4-24.4c-1.2,0.8-1,1.8-1,2.6
	c-0.1,2.7,0.5,5.4,1.2,8c1,3.6,2,7.2,3,11c-1,0-1.3-0.8-1.8-1.3c-2.6-2.5-5.2-4.9-8.2-7c-1.8-1.2-3.8-2.1-5.9-2.5
	c-0.4-0.1-0.8-0.2-1.1,0.6c2.5,0.8,4.8,1.8,6.9,3.4c2.1,1.7,4.2,3.5,6.1,5.4c1.8,1.9,3.6,3.8,5.4,6.2c-3.2,0-5.8,0.8-8.5,1.5
	c-2.1,0.5-3.9,0.2-5.1-1.9c-1.1-1.9-3-3-5.1-3.9c-1.5-0.6-2.9-1.4-3.7-2.9c-0.8-1.3-1-2.7-0.8-4.2c0.3-2.3-0.2-4.3-1.6-6
	c-0.5-0.6-0.8-1.2-1.1-1.8c-0.8-1.7-0.8-2.1,0.8-3.4C420.5,417.9,420.9,417,420.7,415.9z M481.9,437c1.7,2.4,0.9,4.6-0.5,6.7
	c-1.3,2-3.4,2.2-5.6,1.6c-2.4-0.6-4.7-1.6-7.2-1.8c-0.9-0.1-1.8-0.4-2.6-0.2c-2.1,0.5-4.1,0.3-6-0.5c-0.6-0.3-1.4,0-2.1-0.5
	c1.1-1.3,2.9-1.2,4.4-2.4c-3.7-0.5-6.5,0.9-9.4,2.3c2.3-5,6.6-7.4,11.8-9.1c-2.1-0.6-5.5,0.4-8.7,2.4c-2.6,1.6-4.5,4-5.9,6.7
	c-1.1-0.7-1.1-1.6-1-2.5c0.5-4.2-0.2-8.3-0.7-12.4c-0.5-4.4,0.7-8.2,4-11.3c3.1-2.9,6.7-3.6,10.7-2.4c1.9,0.6,3.7,1.5,5.4,2.6
	c1.9,1.3,3.8,2.4,6,2.9c1.7,0.4,2.5,1.6,2.4,3.1c-0.1,2.9,1.3,4.9,3.3,6.6c1.3,1.1,1.6,2.3,1,3.8C480.8,434.2,481,435.6,481.9,437z
	 M530.2,492c0.1,0.5-0.6,0.7-1.1,0.8c-0.7,0.2-1.4,0-2.1,0c-3.9-0.1-6.8,1.9-8,5.6c-0.1,0.2-0.1,0.5-0.2,0.7
	c-0.8,2.6-0.9,2.7-3.5,1.8c-1.7-0.6-3.1-0.2-4.3,1.1c-1.9,2.1-2.4,2.1-4.5,0.3c-1-0.9-2-1.8-3-2.8c-1.5-1.5-3-2.8-5.1-3.9
	c1.3-0.8,2.6-0.2,3.9-0.8c-4.2-1.6-8.2-0.6-12.2-0.4c5.7-2.9,11.2-6.3,18.1-5.7c0-0.5-0.4-0.6-0.9-0.8c-2.2-0.7-4.3-0.3-6.4,0.2
	c-4.5,1-8.8,2.7-12.9,5c-0.7,0.4-1.3,0.9-2.5,1c4-3.7,8.1-6.6,12.3-9.3c-2.4,0.1-4.5,1.1-6.5,2.1c-0.6-0.6,0-1.1,0.2-1.5
	c0.8-1.9,1.8-3.8,2.9-5.5c1.5-2.2,3.2-3.9,6.1-4.1c1.5-0.1,2.9-0.9,4-2c0.6-0.6,1.3-1.2,2-1.8c1.1-0.9,2.3-0.9,3.6-0.2
	c0.5,0.3,1.1,0.7,1.6,1.1c1.7,1.3,3.5,1.7,5.6,1.4c3.9-0.5,5,0.1,6.5,3.6c1,2.4,2.4,4.3,4.5,5.8c0.7,0.5,1.3,1.1,1.9,1.8
	c0.5,0.5,0.8,1.1,0.7,1.7C530.8,488.8,530,490.3,530.2,492z M463.2,531.2c1.2,1.2,1.7,2.5,1.1,4.1c-0.2,0.6-0.6,0.9-1.3,0.8
	c-2.3-0.5-4.6-0.8-6.9-0.1c-0.3,0.1-0.6,0-0.9-0.1c-1.4-0.6-3-0.9-4.7-1.2c1.3-1.3,2.9-1.4,4.3-2.1c-2-0.9-3.1-0.6-9.4,2.1
	c2.6-5.1,6.9-7.5,12.2-9.3c-4.1-1.3-10.7,2.9-14.7,9c-1-0.8-1.1-1.9-1-3c0.5-3.5,0.2-6.9-0.5-10.2c-0.4-1.9,0-3.5,1.6-4.9
	c2.5-2.2,4.2-5,5-8.3c0.4-1.8,1.4-2.4,3.1-2.6c3.1-0.3,5.9,0.5,8.5,2.1c2.7,1.6,5.3,3.2,8.3,4.2c2.1,0.7,2.2,2.7,0.5,4
	c-1.4,1.1-2.9,2.2-4.2,3.6c-1.2,1.3-2.2,2.7-2.7,4.4C460.7,526.5,461,529.1,463.2,531.2z M414.6,521.5c0.6-0.3,1.1,0.1,1.5,0.5
	c1.6,1.7,3.4,2.3,5.6,1.6c0.8-0.2,1.5-0.6,2.3-0.8c1.5-0.5,2.9-0.2,4.1,0.7c3.4,2.9,6.5,6.1,9.5,10c-3,0-5.4,0.5-7.7,1.3
	c-0.8,0.3-1.7,0.5-2.6,0.4c-1.2-0.1-2.2-0.4-2.8-1.5c-1.4-2.4-3.6-3.8-6.1-4.8c-2.9-1.3-4.2-3.3-4-6.1
	C414.3,522.4,414.2,521.8,414.6,521.5z M377,527.5c-0.2-1.9,0.1-3.1,1.4-5.7c0.9-1.7,1.8-3.3,4-3.8c1.4-0.3,2.2-1.5,2.8-2.8
	c1-2.2,1.4-4.6,1.1-7c-0.1-1-0.4-1.9-0.2-2.9c0.2-1,0.9-1.3,1.6-0.6c2.2,2.1,4.7,2.3,7.3,1.2c1.1-0.4,1.8-0.1,2.8,0.6
	c1.3,1,2.4,1.8,2.5,3.5c0.1,0.8,0.8,1.3,1.5,1.8c0.8,0.6,1.4,1.3,1.8,2.2c1.8,3.6,0.1,7-3.8,7.8c-2.4,0.5-4.9,0.3-7.4,0.9
	c-1.7,0.4-3.3,0.8-4.6,1.8c-0.5,0.4-1.1,0.7-1.7,0.6c-1.4-0.1-2.9,0.1-4.6,0.6c0.8-1.9,2.4-2.5,3.3-3.7
	C382.4,522.1,380.4,523.5,377,527.5z M375.3,523.8c-0.6,1.4-0.7,2.9-1.1,4.7c-2.3-1.8-2.3-4.3-3.3-7c2.8,0.9,4.7-0.1,6.3-1.8
	C376.6,521.1,375.9,522.4,375.3,523.8z M376,531.7c-0.4,0.8-0.8,1.6-1.4,2.2c-1.1,1.3-1.9,1.1-2.6-0.5c-0.2-0.4-0.3-0.7-0.5-1.4
	c1.6,0,2.1-1.6,3.5-1.6c0.4,0,0.8-0.2,1.1,0.2C376.4,531,376.1,531.4,376,531.7z M367.7,517.2c-2.5,1.4-3.6,1.1-5.1-1.3
	c-0.7-1.2-1.3-2.6-1.9-3.9c-1.2-2.6-2.7-4.7-5.7-5.3c-0.8-0.2-1.2-0.7-1.3-1.5c-0.3-1.7-0.1-3.3,0.3-5c0.5-2,1.4-3.9,2.5-5.7
	c2.8-4.5,6-8.9,9.6-12.9c1.7-1.9,3.7-3.5,5.9-4.8c0.4-0.2,0.8-0.6,1.8-0.4c-4.1,3.4-6.9,7.3-8.4,12c2-2.5,3.9-5.1,6.3-7.3
	c-3,5.6-4.8,11.5-3.9,18.1c1.1-0.3,0.8-1.2,0.9-1.8c0.8-6.7,2.9-12.9,7.2-18.2c0.2-0.2,0.4-0.5,0.8-0.7c-0.8,2.9-1.7,5.8-1.7,8.9
	c0,3.1,0.2,6.1,1.2,9c0.4-4.4-0.4-8.9,1.2-13.4c0.7,1,0.8,1.9,1.1,2.7c0.9,2.4,2.1,4.7,3.9,6.5c0.7,0.7,1.2,1.4,1.3,2.4
	c0.1,1.3,1,2.3,1.8,3.3c0.8,0.8,0.8,1.6-0.1,2.3c-2.9,2.2-3.7,5-2.8,8.5c0.3,1.5,0,3-0.5,4.5c-0.5,1.4-1.1,1.9-2.5,1.6
	c-2.4-0.5-4.1,0.4-5.4,2.2c-0.8,1.1-1.4,1.3-2.5,0.3C370.5,516.3,369.1,516.4,367.7,517.2z M369.1,525.5c-1.2-0.9-1.9-2.1-2.5-3.5
	C368.5,522.5,368.7,524.1,369.1,525.5z M383,486.2c-1.3-2.6-2.1-4.9-2.6-7.3c-0.1-0.4-0.1-1,0-1.4c0.2-0.8,1.3-0.9,1.6-0.2
	c0.8,1.7,2.1,3.4,0.9,5.6C382.6,483.8,383.1,484.8,383,486.2z M379.6,474.5c-0.6,0.3-1.1,0.9-2.2,1c0.2-1.6,0.5-3.2-1.4-3.9
	c-0.1,0-0.1-0.4,0-0.6c0.1-0.2,0.3-0.3,0.6-0.3c0.9,0.2,1.9,0.3,2.8,0.5c1.3,0.3,1,1.6,1.4,2.5C381,474.5,380.1,474.4,379.6,474.5z
	 M412.3,459.3c-0.7-1.9-0.7-3.8-0.7-5.7c0-2.4,1-4.4,2.9-5.8c1.9-1.5,3.9-3,5.9-4.5c1.2-0.9,1.4-0.8,2.2,0.6
	c1.3,2.1,2.4,2.6,4.8,1.8c1.4-0.5,2.7-0.8,4,0.3c0.9,0.7,2.2,0.2,3.3,0.3c1.5,0.2,2.4,0.5,2.8,2.3c0.4,2.1,1.5,2.9,3.8,2.8
	c1.2,0,1.6,0.2,1.7,1.4c0.1,1,0.4,1.9,1.6,2.2c0.8,0.2,1.1,0.8,1.1,1.6c0,1.7-0.1,3.4-0.6,5c-0.5,1.6-1.2,2.8-3.2,3.1
	c-1.6,0.2-2.8,1.4-4,2.5c-1.5,1.3-3.1,2.2-5.1,2.5c-2.7,0.4-4.2,2-4.8,4.7c-0.4,1.8-0.7,3.6-1,5.4c-0.1,0.9-0.4,1.7-0.8,2.4
	c-1.4-0.4-1.9-1.2-1.5-2.5c0.6-1.8,1.1-3.7,1.6-5.5c0.2-0.6,0.6-1.1,0.3-2.2c-2.3,2.7-2.5,5.9-3.9,9c-0.4-1.7-0.2-2.9,0.1-4.2
	c0.6-3,1.8-5.8,2.8-8.7c0.7-2,1.2-4,1.6-6c0.1-0.4,0.2-0.8-0.3-1c-0.6,0-0.5,0.5-0.6,0.8c-0.7,2.9-1.9,5.6-3,8.3
	c-1.2,3-2.4,5.9-2.4,9.2c0,0.6-0.1,1.1-0.7,1.3c-1,0.3-1.6,1.1-2.1,2c-0.7-0.5-0.5-1-0.4-1.4c0.3-1.4,0.4-2.9,0.3-4.3
	c0-3.4-1.2-6.3-3.9-8.4c-1.7-1.3-2.3-2.7-1.5-4.8C413.1,462.2,412.9,460.7,412.3,459.3z M453.8,455.2c-0.3-1-0.6-2-0.8-3
	c-0.2-1-0.4-2-0.1-3.1c0.2,0,0.4,0,0.4,0.1c1.5,3,3,6,5.1,8.6c0.3,0.3,0.4,0.7,0.3,1.1c-0.9,2.7-0.3,5.3,0.9,8.4
	c-2.4-0.8-4.4-1-6.4-0.6c-0.9,0.2-1.9,0-2.8-0.3c-2.3-0.9-2.7-1.5-2.6-3.9c0.2-3.8,0.9-7.4,2-11c0.2-0.6,0.2-1.4,1.2-1.9
	c0.4,3.1,1.3,6,3,8.8C454.4,456.9,454.4,456.9,453.8,455.2z M463.8,480.5c1.2,1.6,1.4,3.4,1,5.3c-0.3,1.3-0.5,2.7-0.9,4
	c-0.4,1.5-1.2,2.8-2.6,3.6c-1.5,0.9-2.4,2.2-2.8,4c-0.4,1.8-5,3.8-6.8,3.3c-2.3-0.7-3.8-2-5-4.1c-1.9-3.2-5.1-5-8.6-6.2
	c-1.9-0.7-4-1.2-5.9-1.9c-1-0.3-2-0.5-2.6-1.5c7.7,1.5,15.5,1.9,23.1,5.3c-0.2-1.4-1-1.7-1.7-2.1c-1.8-1.1-3.8-1.7-5.8-2.2
	c-3.7-0.9-7.5-1.6-11.2-2.4c-0.7-0.1-1.4-0.2-2.1-0.7c5.8-2.3,12.1-3.6,16.5-8.5c0.4-0.4,1-0.9,0.7-1.6c-0.4-0.2-0.6,0.1-0.8,0.3
	c-2.1,2.5-4.8,3.9-7.7,5.1c-4.2,1.7-8.5,3.1-13.5,3.9c1.7-2.8,2-5.8,2.7-8.6c0.5-2.1,1.7-3.3,4-3.4c1.9-0.1,3.5-1,5-2.1
	c0.8-0.6,1.6-1.3,2.5-1.8c2-1.1,4-1.2,5.9,0.1c2.2,1.5,4.6,2.2,7.3,1.5c0.8-0.2,1.6-0.1,2.4,0c1,0.1,1.8,0.6,1.8,1.8
	c0,1.5,1,2.2,2.2,2.8c2.5,1.1,2.5,1.1,2.3,3.7C463.1,478.9,463.2,479.7,463.8,480.5z M461.6,505.2c-3.8-1.5-7.5-2-11.4-1.6
	c-1.3,0.1-1.3,0-1.1-1.7c0.4-0.1,0.8,0.1,1.1,0.2c1.9,0.9,3.8,1,5.6-0.4c1.2-0.9,2.9-0.9,4.2-1.7c0.8-0.5,2,0.7,1.8,1.8
	C461.5,502.9,461.3,503.9,461.6,505.2z M460.7,456.4c-0.4,0.1-0.7-0.3-0.9-0.6c-2-3.1-3.9-6.4-5.4-9.9c2.2-0.9,4.2-1,6.2-0.2
	c1.6,0.6,3.2,0.7,4.9,0.4c2.5-0.5,4.8,0.5,7.4,1.5c-0.6,0.8-1,1.2-1.3,1.8c-0.4,0.7-0.8,0.9-1.7,0.7c-2.9-0.6-4.4,0.4-5.4,3.3
	c-0.2,0.7-0.2,1.5-0.9,1.9C462.6,455.7,461.6,456.1,460.7,456.4z M450.3,446.1c-0.5,0.5-1.1,0.9-1.7,1.3c-1.5,0.9-2.4,0.4-2.4-1.4
	c0-0.4,0-0.8,0.1-1.3c0.8-0.1,1.5,0.2,2-0.2c0.5-0.4,1-0.4,1.5-0.2c0.4,0.2,1,0,1.2,0.6C451.4,445.5,450.7,445.8,450.3,446.1z
	 M447.9,450c-0.4,0.9-1.2,0.9-1.9,1.1c-0.4,0.2-1,0.4-1.3-0.1c-0.4-0.6-0.8-1.3-0.9-2.1c-0.1-0.3,0.6-0.6,0.9-0.3
	C445.6,449.6,446.7,449.9,447.9,450z M440,448.3c-0.3,0.1-0.6-0.2-0.6-0.5c0-0.4,0.1-0.7,0.5-0.7c1.4-0.1,2.7-0.8,4.5-0.7
	C442.9,447.7,441.4,448,440,448.3z M441.9,445.4c-0.6,0.1-1.3,0.2-1.8,0.4c-1.1,0.4-1.6-0.2-2.2-1.3c1.9-0.9,3.7-1.5,5.7-1.6
	C444,444.4,443.4,445.2,441.9,445.4z M423.4,483.7c-1.3,1.1-0.3,3.4-2.6,4.1c-0.9-1.1-0.9-2.3-1-3.5c-0.1-1.7,0.8-2.2,2.4-1.4
	C422.5,483.2,422.9,483.4,423.4,483.7z M416.6,485.4c-2.9-0.7-5.7-1.4-8.7-0.8c2.7,1.1,5.9,0.9,8.3,3c-6.8-0.2-13.4,0.8-19.8,4
	c1,0.9,1.7,0.5,2.4,0.3c5.8-1.5,11.7-1.9,17.6-1.8c0.6,0,1.3,0.1,2.1,0.2c-0.4,2.5-1.4,4.3-3.1,5.8c-1.1,0.9-1.7,2.1-2.1,3.4
	c-0.9,3.3-3.3,5.4-6.2,6.9c-1.6,0.8-3.2,0.8-4.8-0.7c-1.4-1.3-3.4-2-5.3-2.7c-1.1-0.4-2.2,0.1-3.3,0.5c-1.1,0.3-2.2,0.3-3.2-0.3
	c-0.9-0.6-1.6-1.3-1.4-2.5c0.3-1.8-0.4-3.1-1.7-4.3c-1.2-1.1-1.4-2.3-1.1-3.9c0.4-2.2,0.2-4.4-0.6-6.6c-0.9-2.5-0.9-2.7,1.5-4
	c1.8-1,3-2.3,3.6-4.3c1.1-3.5,3.3-5,7-4.5c1,0.1,2.1,0.4,3,0.8c5.8,2.5,10.9,6,15.3,10.5C416.4,484.6,416.7,484.8,416.6,485.4z
	 M407.3,519.4c0.4,0.2,0.7,0.5,1,0.5c2.7,0.7,3,2.6,2.8,4.9c0,0.8-0.2,1.2-1,1.2c-1.6,0-3.2,0.5-4.6,1.2c-1.1,0.5-1.6,0.3-2-0.8
	c-0.2-0.6-0.6-1.1-1.1-1.9C404.7,523.4,406.4,521.8,407.3,519.4z M408.1,515.4c-1.2-2.1-0.5-4,1-5.7c1.1-1.3,2.3-2.4,3.4-3.7
	c1.6-1.8,3.1-3.7,3.5-6.1c0.1-0.6,0.3-1.1,0.8-1.4c1.1-0.9,2-2,3.1-3.6c0.5,1.9-0.2,3.4,0.1,5.4c2-3.2,2.2-6.3,2-9.4
	c0.9-0.2,1,0.6,1.2,1c2,3.5,2.5,7.4,2,11.4c-0.1,0.5-0.1,0.9-0.2,1.4c0,0.3,0,0.5,0.3,0.6c0.4,0.2,0.6-0.1,0.7-0.4
	c0.1-0.1,0.1-0.3,0.1-0.5c1.1-5.2,1.2-10.3-2-15c-0.2-0.3-0.3-0.6-0.4-0.8c0-0.1,0-0.2,0.1-0.3c1-0.5,1.8,0.1,2.6,0.6
	c3,2,6.4,3.3,9.8,4.5c3.5,1.2,6.4,3.2,8.3,6.5c2.4,4.2,2.1,8.7-0.9,12.5c-1.4,1.8-3.2,3.1-5.2,4.2c-2.1,1.2-4.1,2.5-5.8,4.2
	c-1.1,1.2-2.4,1.3-3.7,0.7c-2.4-1.3-4.8-1.2-7.2-0.2c-1.7,0.7-3.1,0.6-4.3-0.9c-1-1.2-2.3-1.6-3.9-1.4
	C411.1,519.2,409.4,517.5,408.1,515.4z M435.8,528.7c-1.4-1.3-2.6-2.5-4.1-3.9c1.1-0.5,2-0.9,2.8-1.3
	C435.5,525.7,435.8,526.6,435.8,528.7z M436.6,522.9c-0.4-1.2-0.3-1.3,0.9-2.3c1,2.1,1.9,7.7,1.4,10
	C438.2,528.1,437.4,525.5,436.6,522.9z M439.9,536.9c1.3-0.2,2.7-1.1,4,0.4c-0.8,1.2-2,2-3.2,2.6c-0.9,0.4-1.6,0-1.8-0.9
	C438.6,537.9,439,537,439.9,536.9z M466.4,505.5c-1.9-0.9-2.1-1.4-1.7-3.5c0.4-2,0.2-2.6-1.7-3.8c-0.3-0.2-0.7-0.4-1-0.6
	c-0.6-0.5-0.7-1.1-0.1-1.6c0.5-0.4,1-0.8,1.5-1.2c1.4-1.1,2.2-2.5,2.8-4.1c0.5-1.3,1.6-1.6,2.3-0.4c1.5,2.9,3.8,5,5.8,7.5
	c1.3,1.7,1.1,3.9,1.4,6c0.1,0.7-0.3,1.2-1.2,1.8c-0.6-4.1-3.3-6.6-6.1-9.3c-0.4,0.9,0.1,1.3,0.5,1.8c1.1,1.6,2.4,3,3.2,4.8
	c0.4,1,0.7,1.9,0.9,3c0.2,1-0.3,1.5-0.9,2c-0.8,0.7-1.1-0.1-1.6-0.4C469.2,506.6,467.7,506.1,466.4,505.5z M467.4,484.6
	c2.5,0.9,4.2,2.5,5.8,4.3c1.2,1.4,2.5,2.7,3.3,4.4c0.3,0.5,0.4,1-0.1,1.5c-0.6,0.5-1,0.2-1.4-0.2c-1.4-1.1-2.6-2.3-3.3-4
	c-0.6-1.4-1.5-2.8-3-3.2C467.1,486.9,466.9,486,467.4,484.6z M472.4,514.1c0.2-2.4,0.5-4.8,2.9-6.2c0.3-0.2,0.5-0.4,0.7-0.6
	c0.6-0.5,0.9-1.6,1.7-1.6c1,0,1.5,1.1,2.2,1.7c1.2,1.2,2,2.7,2.6,4.2c0.2,0.5,0.2,1.1,1.1,1.4c-0.4-4-2.2-7.2-5.3-9.5
	c0.6-0.7,0.9-0.2,1.2,0c2.8,1.9,5.2,4.2,6.9,7.2c0.2,0.3,0.3,0.6,0.5,0.8c0.2,0.4,0.5,0.9,1.1,0.6c0.4-0.2,0.3-0.7,0.1-1.1
	c-1.4-3.5-2.4-7.2-5.6-9.6c-0.1-0.1-0.1-0.3-0.3-0.7c1.5-0.2,2.8,0.1,4.2,0.5c3.4,0.9,6.2,2.9,8.6,5.4c0.7,0.8,1.2,1.7,1.5,2.7
	c0.2,0.9,0.1,1.6-0.7,2c-1.7,0.8-2.2,2.4-2.6,4.1c-0.2,0.8-0.3,1.6-0.6,2.3c-0.6,1.5-1.3,2-2.9,1.7c-2.1-0.4-3.9,0.3-5.5,1.6
	c-0.6,0.5-1.2,1.1-1.8,1.6c-1.8,1.3-2.9,1-3.6-1.1c-0.2-0.7-0.4-1.4-0.6-2.1c-0.4-1.6-1.3-2.6-3.1-2.7
	C472.8,516.9,472.2,516.1,472.4,514.1z M477.8,497c0.9-0.5,1.4-1.5,2.5-2.6c0.2,2.1,0.8,3.4,2.8,3.4c0.2,0,0.4,0.3,0.3,0.6
	c-0.1,0.3-0.3,0.4-0.5,0.4c-1.2,0.3-2.4,0.7-3.7,0.9c-0.6,0.1-1.3,0.4-1.6-0.5C477.4,498.5,477,497.6,477.8,497z M492.9,465.9
	c-0.5,7.3-2.5,14.3-5.3,21.1c-1,2.4-2.5,4.5-4.4,6.1c2.4-4.6,3.7-9.4,3.4-14.6c-1.2,3-1.6,6.3-3.4,9.2c1.1-6.6,0.2-12.8-3.2-18.5
	c1.6,7.5,2.7,15-0.3,22.5c-0.1-6.4-2.4-11.9-6.2-16.9c1.4,4.3,3.6,8.3,4.1,12.9c-0.8-0.1-1.1-0.7-1.4-1.2c-2.2-2.7-4.8-4.9-8.2-6
	c-0.7-0.2-1.3-0.6-2-0.9c-1-0.5-1.6-1.1-1-2.3c0.2-0.5,0.4-1.2,0.1-1.6c-0.9-1.8-0.5-3.7-0.4-5.5c0.1-1.1-0.5-2-1.1-2.9
	c-1-1.7-1.7-3.4-1.9-5.4c-0.2-1.9,0.1-2.4,2-2.9c2-0.5,3.2-1.7,3.8-3.6c0.6-1.9,0.7-1.9,2.6-1.6c1.4,0.3,2.5-0.2,3.4-1.2
	c2.1-2.5,3.2-2.6,5.7-0.4c1.2,1,2.3,2.2,3.5,3.2c1.7,1.5,3.7,2.5,6.1,2.1c1.3-0.2,1.9,0.4,2.4,1.4
	C492.6,461.2,493.1,463.5,492.9,465.9z M408.7,458c1,1.5,1.5,3.1,1,5c-0.1,0.5-0.2,1-0.3,1.4c-0.7,2.2,0,3.9,1.7,5.3
	c0.9,0.7,1.7,1.4,2.4,2.3c1.9,2.4,2.6,5.2,2.6,8.5c-1.2-0.3-1.6-1-2.2-1.5c-3.8-3.3-8.1-6-12.9-7.7c-2.7-0.9-5.3-1-8,0
	c-2.3,0.8-3.9,2.2-4.3,4.7c-0.3,1.7-1.1,3.2-2.9,3.7c-0.7-0.5-0.1-0.9,0-1.3c0.3-1.2,0-2.2-0.7-3.2c-0.5-0.7-1-1.2-1.5-1.9
	c-1.6-2.1-1.5-4.1,0.4-6c0.4-0.4,0.8-0.7,1.3-1c1.3-0.9,2.3-2,2.7-3.5c0.4-1.5,1.3-2.1,2.8-2c1.6,0,2.8-0.5,3.3-2.2
	c0.3-0.9,1-1.2,1.9-1.1c1.9,0,3.1-0.8,4.1-2.4c1.3-2.1,1.9-2.1,4.1-0.9C406.2,455.2,407.6,456.4,408.7,458z M370,454
	c1.4-0.3,2.3-1.1,3-2.2c0.6-0.8,1.2-1.7,1.8-2.5c0.8-1,1.9-1.3,3-0.6c2.3,1.6,4.7,1.4,7.1,0.4c0.3-0.1,0.6-0.2,0.9-0.3
	c2.5-0.7,3.3,0,3.2,2.5c0,0.3,0,0.6-0.1,1c-0.5,2.4,0,4.3,2.6,5.1c0.1,0,0.1,0.3,0.3,0.6c-0.7,0.5-1.5,0.1-2.2,0.3
	c-1.8,0.3-3.1,1.2-3.5,3.1c-0.3,1.7-1.4,2.8-3,3.6c-1.4-2.3-1.4-4.8-1.5-7.6c-1.4,1.6-0.8,3.2-1,4.7c-0.2,1.6,0.7,3,0.7,4.6
	c-0.9,0-1-0.6-1.3-1.1c-1.2-2.1-1.9-4.4-2.3-6.8c-0.1-0.8,0.1-1.8-0.8-2.4c-1.3,2-0.9,7,1,12.6c-5.6-2.2-8.6-6.4-10.1-12
	C367.5,455.2,368.1,454.4,370,454z M343.8,456.6c1.3-1.5,1.7-1.6,3.1-0.2c1.7,1.7,3.4,1.8,5.4,0.7c1.6-0.9,2.1-0.7,3.2,0.8
	c0.8,1.2,1.3,2.5,1.9,3.9c0.9,2.1,1.9,4.2,3.6,6.3c-1.6,0.1-2.5-0.9-3.9-0.9c1.4,2,3.5,2.6,5.5,3.3c1.9,0.7,4,1.1,6.1,1.7
	c-6.4,1.5-14.8,0.9-19.2-1.4c-0.4,0.7,0.2,1,0.6,1.3c2.5,1.7,5.5,2.1,8.4,2.3c4.1,0.4,8.3,0.3,12.4-0.3c0.4-0.1,0.9-0.2,1.5,0.2
	c-4.8,1.9-9.7,3.1-14.7,4.1c2.3,0.7,4.6,0.3,7.3,0.3c-2.6,2.6-5,4.8-7.8,6.4c-1.6,0.9-3.3,1.2-5.1,0.7c-1.9-0.6-3.8-0.4-5.6,0.4
	c-0.4,0.2-0.9,0.4-1.3,0.5c-2,0.6-3.3,0.3-4.3-1.5c-1.5-2.6-3.5-4.2-6.5-4.8c-2.5-0.5-3.5-1.9-3.5-4.4c0-3.3-0.8-6.3-2.7-9
	c-1.1-1.6-1.2-3.3,0.4-4.7c0.6-0.5,1-1.3,1.2-2.1c0.3-1.2,1.1-1.3,2-1c0.7,0.2,1.3,0.6,2,0.8c3.5,1.3,6.6,0.5,9.1-2.3
	C343.2,457.3,343.4,456.9,343.8,456.6z M338.9,521.9c-0.8-0.4-1.4-1-2-2c0.8-0.2,1.6-0.2,2-1c0.4-0.9,0.7-1.5-0.3-2.2
	c-1.4-1-1.6-2.7-2.1-4.1c-0.3-0.8,0.1-1.6,0.8-2.1c1.2-0.8,1.7-1.9,1.8-3.2c0.2-1.5,0.9-2.7,2.1-3.7c1.3-1.2,2.7-2.2,4.2-3.1
	c0.7-0.4,1.4-0.7,2.2-0.8c2.1-0.3,2.5,0,2.3,2.1c-0.1,1.7-0.1,3.3,0.4,5c0.5,1.8,1.5,3.1,3.3,3.4c1.5,0.3,2.4,1.1,3,2.4
	c0.8,1.6,1.6,3.1,2.3,4.7c0.6,1.3,1.3,2.6,2.6,3.4c1.8,1.1,2.8,2.8,3.9,4.5c-6.3-1.8-12.1-5.3-19-3.6c8.3,0.1,15.1,3.9,22.6,7.8
	c-3.1,1-5.3,2.7-7.4,4.3c-1.9,1.4-3.8,1.8-5.9,0.1c-1.2-1-2.7-1.4-4.2-1.5c-1.1-0.1-2.2-0.1-3.3-0.3c-2.5-0.4-4.3-1.7-4.9-4.3
	C342.8,525.1,341.3,523.1,338.9,521.9z M363.6,557.5c-0.8,2.2-2.4,3.8-3.9,5.4c-1.1,1.1-2.5,1.7-4.1,1.8c-3.1,0.2-6.1-0.4-9.1-0.6
	c-0.9-0.1-1.1-0.6-0.9-1.5c0.5-3.1,0.1-3.8-2.7-5c-1.2-0.5-2.1-1.1-2.3-2.4c-0.3-1.5-1.8-2-2.6-3c-0.8-0.9-1-1.6-0.4-2.7
	c1.3-2.6,1.1-3.3-1.2-5.3c-0.5-0.5-0.7-0.8-0.2-1.4c0.8-1.1,1.4-2.2,0.4-3.5c-0.4-0.6,0.1-1,0.4-1.5c1-1.2,2-2.3,3.3-3.1
	c1.6-1.1,3.2-1.8,5.1-0.5c1.1,0.8,2.6,0.7,4,0.7c2.2-0.1,4.2,0.4,6.1,1.6c2,1.3,4.1,1.1,6.1-0.1c1.5-0.9,2.8-2.2,4.2-3.2
	c0.9-0.7,1.7-1.4,2.8-1.7c0.9,1.3,0.6,2.2-0.7,2.9c-1.6,0.9-3.1,1.9-4.7,2.9c-0.5,0.3-1.2,0.4-1.5,1.1c1.3,0.1,1.9,0,4.2-1.3
	c1.4-0.8,2.7-1.7,4.2-2.6c0.3,0.8-0.3,1.2-0.7,1.6c-2.1,2-4.6,3.4-7.2,4.8c-2.3,1.3-4.7,2.5-6.7,4.1c-0.6,0.5-1.4,0.7-1.5,1.7
	c0.3,0.3,0.6,0.3,0.9,0.1c2.6-1.9,5.5-3.2,8.4-4.6c2.7-1.4,5.4-2.7,7.5-5.1c0.4-0.4,0.8-0.9,1.4-0.6c1.1,0.5,2.1,0.3,3.3-0.1
	c-0.5,1.3-1.5,1.7-2.2,2.4c-2.8,2.6-5.1,5.6-4.6,9.6c0.4,3-0.1,5.1-2.9,6.5C364.6,555.3,364,556.4,363.6,557.5z M394.3,565.6
	c-0.1,3.3-1.8,4.9-5.1,4.5c-2.1-0.2-4-0.2-5.7,1c-0.9,0.6-1.8,0.4-2.6-0.3c-1.4-1.2-2.8-1.8-4.5-0.7c-0.8,0.5-1.4,0-1.9-0.5
	c-1.4-1.3-3-1.4-4.7-0.9c-2.3,0.6-2.9,0.2-3.7-2.1c-0.5-1.5-0.7-3.1-0.7-4.7c0-2.2,0.9-4,2.7-5.4c0.4-0.3,0.8-0.6,1.2-0.8
	c2-1.3,2.6-3,2.2-5.4c-0.8-4.2,0.5-8,3.8-11.2c0.3,2.2,0.4,4,0.7,5.8c0.8,3.8,2,7.4,3.8,10.8c1.3,2.4,3.1,4.3,5.6,5.4
	c2.5,1.1,4.9,1.2,7.2-0.5c2-1.4,2.6-1.4,4.8-0.5C394.7,561.1,394.4,563.3,394.3,565.6z M401.1,555.1c-0.1,0.1-0.1,0.3-0.2,0.4
	c-0.8,1.9-1.3,2.2-3.3,1.9c-0.2,0-0.3,0-0.5-0.1c-2.1-0.7-4-0.3-5.7,1c-2.1,1.6-4.1,1.3-6.2,0c-1.1-0.7-2-1.6-2.7-2.7
	c-2.5-3.6-6-16-5.1-20.9c2,2.6,3.4,5.6,6.7,7.3c-0.7-1.8-2-2.7-2.8-4c-0.9-1.3-1.8-2.6-2.1-4.4c1,0.4,1.4,1.1,1.9,1.6
	c4,3.8,8.7,6.4,13.9,8.2c0.5,0.2,1.3,0.8,1.7,0c0.3-0.8-0.7-0.9-1.2-1.2c-5.2-2.7-9.9-6.1-14.3-10c-0.6-0.6-1.4-1-1.8-2
	c1.7-1.6,3.8-2.2,6.1-2.3c1.5,0,2.7-0.6,4-1.3c3-1.6,6.2-2,9.5-0.7c2.4,1,3.3,3.1,2.5,5.5c-0.2,0.7-0.9,0.9-1.3,1.3
	c-1.4,1.1-1.6,1.9-0.7,3.5c1.1,1.9,1.1,2-0.5,3.4c-1.4,1.2-1.7,2.5-0.9,4.2c0.7,1.5,1.3,3,0.8,4.8c-0.3,1.1,0.5,2.1,1.3,2.9
	C402,553.1,402,553.1,401.1,555.1z M416,561.6c-1.4,0.5-3,0.4-4.5-0.3c-2.4-1.1-4.8-2.2-7.2-3.4c-1.4-0.7-1.5-1-0.6-2.1
	c1.5-1.9,0.9-3.8-0.6-5.1c-1.1-1-2-2-1.7-3.7c0.2-1-0.6-1.8-1-2.6c-1-2.1-1-2.3,0.7-3.9c1.5-1.5,1.8-2.8,0.7-4.7
	c-0.6-1.1-0.4-1.5,0.5-2.1c0.8-0.5,1.5-1.2,1.3-2.4c-0.2-0.9,0.3-1.3,1-1.7c1.3-0.7,2.7-1.3,4.2-1.7c1.8-0.5,3.4-0.4,4.7,1.3
	c0.9,1.2,2.3,1.8,3.6,2.2c2.1,0.8,3.9,1.9,5.1,3.8c1.2,1.8,3,2.3,5,2.1c1.3-0.1,2.5-0.6,3.7-1c1.7-0.5,3.3-1.3,5.2-1.2
	c0.5,1.6-0.3,2.2-1.6,2.4c-1.9,0.4-3.8,0.7-5.6,1.1c-0.5,0.1-1.1-0.1-1.6,0.8c1.6,0.2,3,0.2,4.4,0c1.5-0.2,3-0.6,4.7-0.9
	c-0.5,1.2-1.4,1.3-2.1,1.5c-3.3,1.2-6.9,1.5-10.3,2c-2.1,0.3-4.1,0.6-6.1,1.4c-0.4,0.2-1,0.2-1,0.9c0.3,0.2,0.6,0.2,0.9,0.2
	c3.7-0.9,7.4-1,11.2-1.4c2.3-0.2,4.6-0.7,6.7-1.7c0.8-0.4,1.4-0.7,2.1,0.1c0.7,0.8,1.7,0.6,2.7,0.8c-0.6,1-1.5,1-2.3,1.3
	c-4.6,1.5-7.8,4.3-8.7,9.2c-0.3,1.6-1.1,2.5-2.8,2.7c-1.9,0.3-3.5,1.3-4.9,2.7C420.2,559.9,418.1,560.8,416,561.6z M449.6,573.6
	c-0.8,1-1.1,2.1-1.7,3.2c-1.2,2.5-3.2,3.4-5.7,2.2c-2.1-1-4.2-1.8-6.7-1.3c-0.9,0.2-1.5-0.5-1.9-1.2c-0.8-1.7-2-2.7-4-2.3
	c-0.7,0.1-1.2-0.3-1.5-1c-0.9-1.8-2.3-2.7-4.4-2.8c-1.9-0.1-2.5-0.9-2.5-2.8c0-1.6,0.3-3.2,0.9-4.7c0.9-2.4,2.5-4,5.1-4.6
	c1.1-0.2,2.2-0.4,3.1-1.2c1.2-1,1.6-2.3,1.9-3.8c0.9-4.1,3.4-6.7,7.2-8.4c-1.4,5.1-1.9,10.3-1.6,15.5c0.2,3.5,1.2,6.6,3.9,9
	c1.8,1.6,3.7,2.4,6.1,1.7c1.7-0.5,3.3-0.5,4.8,1C451.7,572.8,450.4,572.6,449.6,573.6z M469.4,559.5c-1.4,0.8-2.3,1.8-2.8,3.4
	c-0.4,1.4-1.4,2.4-2.8,2.7c-2.5,0.6-4.4,2-6.1,4c-1.3,1.5-1.9,1.6-3.5,0.5c-2.1-1.5-4.3-2-6.8-1.3c-1.5,0.5-2.8-0.1-4-1.1
	c-2-1.8-2.9-4.1-3-6.6c-0.4-6.4,0.4-12.6,2.5-18.6c0.1-0.2,0.3-0.4,0.6-0.9c0.6,3.4,1.4,6.3,3.3,8.7c-0.1-3-2-5.6-1.3-8.7
	c0.8,0.1,0.7,0.8,1,1.2c2.3,5,5.6,9.3,9.8,12.9c0.4,0.3,0.7,0.6,1.1,0.9c0.3,0.2,0.7,0.5,1,0.1c0.2-0.3,0.1-0.6-0.1-0.9
	c-0.4-0.4-0.7-0.8-1.1-1.3c-4-4.6-7.2-9.8-9.8-15.3c-0.1-0.3-0.2-0.6-0.4-1c2.1-1,4.2-0.9,6.2-0.1c1.6,0.5,3,0.6,4.7,0.3
	c2.4-0.4,4.4,0.2,6.5,2c2.3,2,3.4,4,3.2,6.9c-0.1,1,0.4,2,0.3,3.1c-0.1,1.1,0.5,2,1.2,2.8c0.5,0.5,1,1,1.4,1.6
	C471.8,556.7,471.5,558.4,469.4,559.5z M497.3,516.9c-0.5,0.7-1,1.5-1.4,2.2c-1.3,2.2-1.4,5.4,1,7.4c1.5,1.3,1.6,1.6,0.5,3.3
	c-1.4,2.2-1.3,4.3,0,6.5c1,1.6,0.9,1.7-0.4,3c-1.2,1.2-1.7,2.6-2,4.3c-0.1,0.7-0.2,1.4-0.4,2.1c-0.6,1.7-1.3,2.2-3,1.7
	c-2.2-0.7-4,0-5.8,1.4c-1.6,1.3-1.7,1.3-3-0.3c-0.4-0.4-0.7-0.9-1.1-1.3c-1.3-1.3-2.7-1.6-4.4-0.7c-0.9,0.4-1.6,1.1-2.5,1.5
	c-1.9,1-3.6,0.1-3.9-2c0-0.3,0-0.6,0-1c0.1-2.8-1.1-4.7-3.7-5.9c-1.6-0.7-1.6-0.9-1.1-2.6c0.1-0.5,0.3-0.9,0.4-1.4
	c0.7-2.1,0.2-3.9-1.2-5.6c-2.3-2.7-2.3-4.7-0.2-7.5c1.4-1.9,3.3-3.2,5-4.8c0.3-0.3,0.7-0.4,1,0c0.8,1.1,1.8,1.7,3.2,1.8
	c0.8,0.1,1.2,0.7,1.3,1.5c0.1,0.8,0.3,1.6,0.5,2.3c1,3,3.3,4,6.2,2.8c0.5-0.2,1-0.5,1.9-0.9c1,5.4-0.9,10.2-1.9,14.9
	c0.3,0.3,0.6,0.2,0.7,0c1.8-4,3.1-8.2,3.1-12.7c0-0.6-0.1-1.3-0.2-1.9c-0.2-1.7,0.1-2.3,1.7-2.7c0.2-0.1,0.5-0.1,0.7-0.1
	c3.8,0.2,5.8-2.1,7-5.4c0.4-1,0.4-2.5,2-2.6C498.2,515.4,497.7,516.1,497.3,516.9z M523.1,510.3c-0.9,0.6-1.7,1.3-2.6,1.8
	c-1,0.6-0.9,1.2-0.4,2.2c0.4,0.7,1.3,1.1,1.2,2.2c-0.2,2.8,1.1,5.7-0.1,8.5c-0.2,0.6-0.3,1.3-1.1,1.4c-0.8,0-1-0.7-1.3-1.2
	c-0.4-0.8-0.8-1.8-1.3-2.5c-1.5-2.1-3.8-2.4-5.8-0.7c-0.2,0.2-0.4,0.5-0.7,0.7c-1.1,0.9-1.8,0.8-2.4-0.5c-0.4-0.8-0.7-1.8-0.9-2.7
	c-0.6-2.7-2.1-4.4-4.8-5c-2-0.5-3.1-1.7-3.2-3.9c0-1.8-0.7-3.4-1.8-4.8c-0.7-0.9-1.5-1.7-2.2-2.5c2.5,0.8,4.6,2.4,6.6,4.1
	c2,1.7,3.9,3.4,6.1,4.9c-4.4-6.3-9.8-11.3-17.6-13.9c1.8-0.8,3.3-0.3,4.7,0c1.9,0.4,3.5,1.5,4.9,2.9c1,1,2,2,3.1,3
	c1.1,1,2.2,1.8,3.6,2.3c2.3,0.8,4.1,0.3,5.5-1.6c0.8-1.1,1.6-1.6,3-1.1c0.9,0.3,1.9,0.3,2.8-0.2c0.8-0.4,1.3-0.2,1.9,0.4
	c1.4,1.3,2.6,2.8,3.5,4.5C524.1,509.2,524,509.8,523.1,510.3z M532.6,502.6c-0.3,0.7-0.7,1.2-1.3,1.7c-1.6,1.2-3.2,2.4-5,3.7
	c-2.2-2.2-3.5-4.8-5.7-6.7c-0.6-0.5-0.4-1.2-0.1-1.8c0.8-2.2,2.4-3.5,4.7-3.9c0.5-0.1,1-0.1,1.4,0c2.4,0.2,4.4-0.3,5.8-2.6
	C533.9,496.3,533.9,499.5,532.6,502.6z M532.7,478.6c0.1-6.5,1.4-12.7,3.4-18.8c2.1-6.6,4.3-13.2,8.1-19.2c0.4-0.6,0.6-1.5,1.6-2
	c0.1,2.1,0.2,4,0.4,6c0.4,3.5,0.9,7,1.3,10.5c0.5,3.7,0.5,7.3,0.4,11c0,0.6,0,1.1-0.2,1.7c-2,7.5-4.5,14.8-8.7,21.5
	c-0.1,0.2-0.2,0.4-0.6,0.5c-0.2-4.7,1.1-9.1,1.5-13.6c0.4-4.5,0.7-9.1,1.1-13.6c0.4-4.6,1.4-9.1,2.1-14.2c-1.4,1-1.5,2-1.7,2.9
	c-1.9,7-3.2,14-4.1,21.2c-0.4,2.9-0.7,5.9-1.3,8.8c-0.4,1.9-0.5,3.8-0.7,5.7c-0.1,1.3-0.2,2.5-0.7,4.1
	C533.2,486.7,532.6,482.8,532.7,478.6z M608.7,437.1c-2.5,2.9-4.8,6-6.9,9.2c-0.5,0.8-1.1,1.4-1.8,1.9c-9.2,5.9-17.5,12.9-25.3,20.6
	c-0.4,0.4-0.7,0.9-1.4,1c0-0.2-0.1-0.5-0.1-0.7c1.4-4.5,2.3-9.2,3.2-13.8c0.2-1.1,0.7-1.7,1.6-2.2c0.8-0.4,1.5-0.9,2.2-1.4
	c1.2-0.9,2.2-1.5,3.8-0.5c1.6,1,3.3,0.2,4.5-1.1c1.1-1.2,1.8-2.5,1-4.1c-0.8-1.6-2-2.7-3.9-2.8c-1.9-0.1-3.8,1.2-3.8,3.2
	c0,2-1.1,2.8-2.6,3.5c-0.5,0.3-1,0.5-1.7,1c0.5-3.2,1.6-5.9,2.7-8.6c0.2-0.6,0.8-0.7,1.3-0.9c1.6-0.6,3.3-1.2,4.9-1.8
	c0.7-0.3,1.2,0.1,1.7,0.4c1.8,1.1,3.5,0.8,5.1-0.4c1.5-1.1,2-2.5,1.6-4.2c-0.4-1.9-2-2.6-3.7-3c-1.6-0.4-2.8,0.5-3.7,1.7
	c-0.2,0.3-0.4,0.6-0.4,0.8c-0.2,3.2-2.8,2.8-5.2,3.7c1.4-3,2.8-5.5,4.5-7.8c0.2-0.3,0.6-0.6,0.9-0.7c2.3-0.5,4.2-1.9,6.3-2.9
	c0.8-0.4,1.1-0.4,1.7,0.5c1.1,1.7,2.8,2.1,4.6,1.2c1.4-0.6,2.1-1.7,2.1-3.2c0-1.6-1.1-2.6-2.5-3.3c-1.3-0.6-2.8-0.2-3.5,0.8
	c-1.6,2.4-4.4,2.5-6.5,4c-0.1-0.1-0.2-0.3-0.3-0.4c1.3-1.5,2.6-3,3.8-4.5c0.5-0.6,1.1-0.4,1.8-0.3c3.4,0.1,5.4-2.6,4.2-5.7
	c-0.5-1.4-1.5-2.2-3-2.4c-1.5-0.2-2.6,0.5-3.5,1.7c-0.5,0.7-0.9,1.6-0.7,2.5c0.4,1.7-0.6,2.7-1.6,3.7c-1.3,1.3-2.6,2.8-4.1,4.4
	c-0.2-1.7,0.4-3.1,0.7-4.4c0.1-0.3,0.3-0.5,0.7-0.6c0.4-0.1,0.8-0.2,1.1-0.4c1.8-0.9,2.7-2.8,2.1-4.6c-0.6-1.6-2.5-2.6-4.6-2.3
	c-1.8,0.3-3.3,1.9-3.3,3.6c0,1.1,0.3,2.2,1.3,2.7c1.2,0.7,1.1,1.6,0.7,2.6c-0.7,2-1.2,4.1-1.3,6.3c0,0.5-0.1,1-0.3,1.4
	c-1.7,3.2-3.4,6.4-5,10c-0.8-1.8-0.7-3.4-1-4.9c-0.1-0.7,0.2-1,0.8-1.3c0.5-0.2,1-0.6,1.4-0.9c2-1.8,1.6-4.5-0.8-5.7
	c-2.4-1.2-4.1-1-5.3,0.8c-1.3,1.9-0.8,4.4,1.3,5.8c0.6,0.4,0.9,0.8,0.9,1.5c0.1,3,0.4,5.9,1,8.8c0.1,0.3,0,0.6,0,0.9
	c-0.8,3-1.6,6-2.5,9.4c-1.4-2.1-2.1-4.1-3.1-6.1c-0.3-0.5,0.2-0.9,0.4-1.3c0.5-1.2,0.6-2.5,0.1-3.7c-0.8-2.1-3.2-2.7-4.9-1.3
	c-1.2,1-1.7,2.3-1.4,3.8c0.3,1.5,1.2,2.8,2.8,2.9c1.3,0.1,1.6,0.8,2,1.7c0.9,2.2,1.7,4.5,2.7,6.7c0.6,1.2,0.6,2.3,0.3,3.7
	c-0.8,3.4-1.5,6.9-2.5,10.2c-0.4,1.3-1,2.3-2,3.2c-7.4,7-15.4,13.2-23.6,19.3c-3.1,2.3-6.1,4.6-9.6,7.3c1-3.5,1.4-6.5,3.7-8.9
	c1.2-1.2,2.2-2.5,3.3-3.8c4.7-5.8,6.8-12.8,8.6-19.9c1-3.8,0.5-7.8,0.2-11.7c-0.3-3.7-0.9-7.3-1.7-10.9c-0.9-3.7-1.1-7.4-1.6-11.2
	c-0.1-0.6,0-1.1-0.3-1.6c-0.3-0.7-0.9-0.6-1.4-0.1c-0.1,0.1-0.1,0.1-0.1,0.2c-2.3,5.5-6.1,10.1-8.3,15.7c-1.8,4.6-3.4,9.3-4.8,14.1
	c-1.7,5.8-2.4,11.7-2.4,17.7c0,0.2-0.1,0.5-0.2,0.9c-1.8-0.9-2.9-2.3-3.7-3.9c-0.4-0.9-0.8-1.9-1.2-2.9c-1.4-2.8-3.7-4.3-6.7-4.1
	c-2.5,0.2-4.5-0.4-6.4-1.9c-2.6-1.9-5.3-2-7.5,0.1c-2.2,2-4.5,3.6-7.5,3.9c-0.3,0-0.6,0.3-0.9,0.4c-0.2,0.1-0.4,0.2-0.8-0.1
	c0.6-3,1-6,0.9-9.2c-0.1-2.9-0.8-5.5-2.4-8c-1.2-1.9-2.8-3-5.2-2.5c-1.6,0.3-2.8-0.3-3.9-1.3c-1.4-1.3-2.7-2.7-4.2-4.3
	c3.7-1.6,4.6-4.7,4.7-8.3c0-1.4-0.2-2.7-1.1-3.8c-0.8-1-1-2.1-0.5-3.4c0.8-2.2,0.1-4.1-1.8-5.5c-1.8-1.4-2.7-3.2-2.6-5.6
	c0.1-3.2-0.7-4.2-3.7-5.3c-2-0.7-3.8-1.7-5.6-2.6c-6.2-3.3-12.5-3.7-18.8-0.4c-0.1,0.1-0.3,0-0.4,0c-0.1-0.1-0.3-0.2-0.3-0.3
	c0-2.7-1-4.8-3.5-6c-0.5-0.3-0.9-0.9-1.4-1.3c-1-1-2.1-1.5-3.5-1.1c-1.4,0.4-2.6,0.2-3.9-0.6c-1.6-0.9-3.3-1.1-5.1-0.8
	c-2.4,0.3-4.6,1.2-6.8,2.3c-1.3,0.6-2.4,1.6-2.9,3.1c-0.4,1.1-1,1.7-2.1,1.9c-2,0.3-3,1.8-3.2,3.7c-0.1,1.3-0.3,2.3-1.6,3
	c-1,0.5-1.3,1.6-1.3,2.7c0,2.1,0.6,4,1.9,5.6c1.1,1.5,1.7,3,1.2,4.9c-0.3,1,0.1,2,0.2,3.2c-3.6,0.7-7.1,1.4-9.8,4.3
	c-1.2-1.2-1.5-2.5-0.7-4c0.4-0.9,0.8-1.8,0.9-2.7c0.5-4.3-3.5-7.5-7.9-6.4c-0.9,0.2-1.8,1.1-2.7,0.6c-0.8-0.4-0.6-1.6-0.9-2.4
	c-0.8-2.2-2.4-3.2-4.9-2.6c-1.9,0.5-3.3,0.3-4.9-0.8c-2.1-1.4-4.6-1-6.3,0.8c-0.6,0.6-1,1.2-1.4,1.9c-0.8,1.6-1.8,2.9-3.7,3.5
	c-1.4,0.4-2,1.7-2.2,3.2c0,0.6-0.1,1.1,0,1.7c0.5,2-0.1,3.3-1.9,4.4c-1.7,1.1-2,2.8-1.4,4.7c0.1,0.5,0.3,0.9,0.5,1.3
	c0.7,1.5,0.4,2.8-0.8,3.9c-1.1,1-2.2,1.8-3.4,2.9c-0.5-0.2-1-0.9-1.7-1.5c-1-0.8-1.3-1.8-1.2-3c0.1-1.2,0.2-2.4,0.2-3.6
	c-0.1-3.6-2.5-5.4-5.9-4.3c-2.1,0.6-2.4,0.4-2.7-1.8c-0.1-0.6-0.1-1.1-0.2-1.7c-0.3-1.6-0.9-3-2.6-3.5c-1.6-0.5-3,0.1-4.2,1.2
	c-1.6,1.5-2.6,3.4-3.2,5.5c-0.1,0.4-0.2,0.8-0.2,1.2c0,1.9-0.6,3-2.8,3.4c-1.6,0.3-2.4,1.7-2.7,3.3c-0.3,1.4-0.2,2.7,0.2,4
	c0.5,2.2,1,4.4,2,6.4c0.6,1.2,0.2,2.1-0.7,3c-1.9,1.8-4.1,2.1-6.4,1.1c-1.3-0.6-2.6-1.1-4.1-1c-1.2,0.1-2.3,0.6-2.6,1.8
	c-0.5,2-2,3.1-3.1,4.9c-0.8-1.4-1.2-2.8-1.6-4.2c-1.6-5.2-4-9.9-6.8-14.5c-1.2-2-2.5-3.9-3.3-6.1c-0.2-0.5-0.4-1.1-1.1-1
	c-0.8,0.1-0.7,0.8-0.7,1.3c-0.4,5.7-1.6,11.2-2.6,16.8c-0.9,4.6-1,9.2-1,13.9c0,3.9,1.4,7.5,2.6,11.2c1.9,5.9,4.7,11.2,9.1,15.6
	c2.5,2.5,3.4,5.7,4.1,8.9c-0.2,0.4-0.4,0.3-0.6,0.1c-9.1-6.9-18.4-13.6-27-21.1c-0.9-0.8-1.7-1.7-2.7-2.4c-3.3-2.4-5-5.7-5.7-9.6
	c-0.4-2.3-0.9-4.5-1.5-6.8c-0.2-1-0.1-1.9,0.3-2.8c1-2.4,2-4.9,3-7.3c0.3-0.8,0.7-1.2,1.7-1.4c3.2-0.7,4.1-4.3,1.8-6.5
	c-0.9-0.9-2-1.3-3.3-0.9c-1.3,0.4-2,1.3-2.1,2.6c-0.1,0.9-0.3,1.9,0.2,2.6c0.9,1.4,0.2,2.4-0.4,3.5c-0.7,1.3-1.3,2.6-1.9,3.8
	c-1-0.3-0.7-1.1-0.9-1.6c-1.7-5-2.2-10.1-1-15.3c0.1-0.5,0.1-1.1,0.1-1.7c0-0.7,0.1-1.3,1-1.7c1.1-0.5,1.6-1.5,1.7-2.7
	c0.3-2-0.7-3.9-2.4-4.5c-1.6-0.6-4.6,0.8-5.3,2.4c-0.7,1.6-0.1,3.5,1.7,4.5c1.4,0.7,1.5,1.6,1.3,2.9c-0.2,1.1-0.4,2.2-0.6,3.3
	c-0.8,0.2-0.8-0.4-0.9-0.8c-0.3-0.6-0.5-1.2-0.8-1.7c-3-4.6-4.2-9.8-5.4-15c-0.3-1.3,0.2-1.8,1-2.5c1.6-1.5,1.4-3.8-0.3-5.3
	c-1.8-1.5-4.7-1.3-6,0.5c-1.2,1.6-0.6,4,1.2,5.2c0.7,0.4,1.6,0.4,2.1,1c0.1,0.1,0.1,0.3,0.2,0.4c0.3,1.3,0.8,2.6,0.8,4.2
	c-1.3-0.8-1.9-2.1-2.9-3c-0.9-0.9-1.8-1.8-2.7-2.8c-0.4-0.4-0.4-0.9-0.3-1.3c0.1-0.7,0-1.4-0.2-2.1c-0.7-2.1-2.4-3.4-4.3-3
	c-1.9,0.3-3.2,2-3.2,4.2c0,1.9,1.4,3.9,3.3,3.7c2.8-0.3,3.8,1.5,5.2,3c0.5,0.6,1,1.3,1.4,2.2c-2.2-1.2-4.8-1.4-6.5-3.7
	c-1.2-1.8-3.5-1.6-5,0c-1.5,1.6-1.5,3.4,0,4.9c1.5,1.4,4.4,1.5,5.3-0.2c0.8-1.5,1.5-1.1,2.6-0.6c1.8,0.9,3.4,2,5.4,2.5
	c0.6,0.1,1,0.5,1.3,1c1.5,2.3,3,4.7,4.2,7.5c-1.5-0.1-2.6-0.7-3.8-1c-0.8-0.2-0.9-0.8-1-1.5c-0.2-0.8-0.4-1.5-0.9-2.2
	c-1-1.2-2.2-1.8-3.8-1.3c-1.6,0.5-3,1.1-3.3,3c-0.3,1.7,0.2,3,1.5,4c1.7,1.3,3.5,1.7,5.3,0.3c0.7-0.5,1.2-0.5,2-0.2
	c0.5,0.3,1,0.4,1.6,0.6c5.1,1.8,3.9,0.8,5.8,5.7c0.6,1.5,1.2,3,1.2,4.8c-1.3-0.7-2.4-1.4-3.4-2c-0.6-0.3-0.5-0.9-0.5-1.5
	c0-1.1-0.2-2.1-1-2.9c-1.4-1.6-3.6-1.8-5.4-0.4c-2,1.6-2.4,3.5-1,5.4c1.4,2,3.5,2.6,5.6,1.5c0.8-0.5,1.4-0.4,2.2,0
	c4.5,2.6,4.5,2.6,5.6,7.8c0.8,3.7,1.6,7.3,2.7,11.1c-0.8,0-1.1-0.5-1.4-0.8c-7.9-7.8-16.3-14.9-25.6-20.9c-0.5-0.3-1-0.7-1.4-1.3
	c-4.1-6.3-9.1-12-14-17.6c-3-3.5-6-7-8.9-10.7c-4.3-5.6-7.6-11.6-10-18.2c-1.6-4.4-3.3-8.7-5-13c-0.1-0.4-0.3-0.7-0.4-1.1
	c-0.6-1.8-0.6-2,1.2-2.1c1.8-0.1,3.5-0.3,5.2-0.7c6.4-1.4,11.6-4.9,15.7-10c3.2-4,5.7-8.4,7.4-13.1c1-2.7,2.4-3.2,5.1-3.2
	c33.2,0.1,66.4,0.1,99.6,0.1h253.4c0.7,0,1.4,0.1,2.2,0c1.1-0.1,1.7,0.4,2.2,1.4c1.5,3.3,3.3,6.6,5.6,9.5c4.3,5.7,9.8,9.6,16.9,11
	c1.7,0.4,3.5,0.5,5.2,0.7c1.1,0.1,1.5,0.5,1,1.5c-0.2,0.5-0.4,1-0.6,1.6c-1.8,4.3-3.5,8.6-5,13c-2.8,7.9-7,14.9-12.3,21.3
	C617.7,426.7,613.2,431.9,608.7,437.1z M644.2,420.1c-0.1-0.7,0.5-1,0.7-1.4c1.6-2.2,3.2-4.4,4.8-6.6c0.4-0.7,1.7-1.6,0.9-2.1
	c-1-0.7-1.4,0.9-2,1.5c-1.6,1.7-3,3.5-4.5,5.3c-0.5,0.6-1,1.3-2.2,1.7c2-6.6,6.9-10.3,11.5-14.7C653.7,408.6,649,416.7,644.2,420.1z
	 M649.1,389.5c3.9-2.4,8.1-4.1,12.5-5.5c8.2-2.7,16.6-4.5,25.4-4.7c0.5,0,0.9,0,1.5,0c-4.4,8.5-26,17.1-40.7,16.1
	c7.7-3.9,15.8-6.8,24-9.9c-2.2-0.6-4.2-0.5-7.8,0.3c-4.9,1-9.4,3-14,4.8c-1.1,0.4-2.1,1-3.7,1.3C647,390.6,648.1,390.1,649.1,389.5z
	 M653.8,399c0.3,0,0.6-0.1,1,0.4c-0.5,0.8-1.2,1.5-2,2.2c-2.8,2.5-5.6,5-8.3,7.6c-2.4,2.3-4.3,5-5.4,8.1c-1.1,3-2.6,5.7-4.5,8.2
	c-2,2.6-4.6,5-7.6,6.5c-5.2,2.7-10.3,5.4-15.3,8.5c-0.2,0.1-0.4,0.3-0.8,0c0.6-0.7,1.1-1.4,1.7-2.1c5-6,10.2-11.9,14.8-18.2
	c4.2-5.7,8-11.7,10.8-18.3c0.5-1.2,1.2-1.9,2.6-1.9C645.1,399.6,649.5,399.6,653.8,399z M643.4,375c-2.6-4.8-5.8-9.1-9.8-13.4h13.9
	C646.3,366.2,645.1,370.6,643.4,375z M657.1,361.8c-1.7,1.5-3.2,2.8-4.9,4.2C652.7,362.9,654.4,361.4,657.1,361.8z M654.4,369.6
	c-0.2-0.8,0.4-1.1,0.8-1.4c1.9-2.1,4.1-4,6.3-5.9c0.6-0.5,1.1-0.8,1.9-0.8c2.9,0,5.7,0,8.6,0c0,0.2,0.1,0.3,0.1,0.5
	C666.7,365.3,660.8,367.8,654.4,369.6z M230.1,183.4c1.3,0,2.5-1.1,2.7-2.5c0.1-0.6,0-1.2,0-1.8c2.7,1.4,4.4,0.7,4.8-1.9
	c0.3-2,0.3-2,2.5-1.8c1.8,0.2,3.1-0.6,3.6-2.1c0.5-1.5-0.1-2.7-1.8-3.7c-0.8-0.5-0.9-1.2-0.3-1.8c0.5-0.5,0.8,0,1.3,0.1
	c1.9,0.6,3.7-0.1,4.5-1.7c0.8-1.5,0.3-2.9-1.6-4.2c-0.2-0.1-0.4-0.2-0.4-0.9c2.1-1.8,3.9-4,5.5-6.6c1.6-2.6,3.9-4.9,5.9-7.2
	c0.4-0.5,0.6-1.1,1.4-1.2c0.4,1.5-0.3,2.6-1,3.8c-2.2,3.6-2.2,7.3-0.1,10.9c0.9,1.4,1.9,2.8,2.8,4.2c0.3,0.4,0.5,1.1,1.2,1
	c0.7-0.1,0.7-0.7,1-1.2c2.2-5.1,1.8-10.2-0.8-15c-0.8-1.5-1.1-2.9-0.7-4.5c0.3-1.7,0.7-3.2,1.9-4.6c4.1-4.6,8.5-9,13.2-12.9
	c0.6-0.5,1.1-1.2,2.1-1.3c-0.5,2.5-0.9,4.9-1.4,7.3c0,0.2-0.1,0.5-0.2,0.7c-1.9,1.8-2.4,4.3-3.2,6.6c-0.2,0.6-0.4,1.1-1.2,1.3
	c-1.4,0.2-1.9,1.3-1.9,2.6c0,1.1,0.3,2.1,1.4,2.6c1.2,0.5,2.2,0.2,3-0.7c0.2-0.2,0.3-0.6,0.8-0.4c0,0.9,0.3,1.9-0.3,2.8
	c-1.3,2.1-1.9,4.4-2.6,6.7c-0.3,0.9-0.6,1.6-1.6,2.2c-1.6,0.8-1.9,2.6-1,3.9c1,1.4,3.1,1.7,4.4,0.6c1.3-1.1,1.4-2.9,0.1-4.2
	c-0.3-0.3-1.1-0.4-0.9-1c0.6-1.6,0.9-3.3,2.1-4.7c0.4,1.9,0.7,3.5,1.1,5.1c0.1,0.7,0.3,1.4,0,2.1c-0.8,1.9-1,3.9-1.3,5.8
	c-0.1,1-0.4,1.5-1.3,2c-1.5,0.9-1.9,2.2-1.2,3.4c0.8,1.2,1.8,2,3.4,1.9c1.2-0.1,2.4-0.9,2.7-2.1c0.4-1.4-0.1-2.5-1.4-3.3
	c-0.5-0.3-1-0.6-0.8-1.3c0.3-1.4,0.2-2.8,1.2-4.3c0.8,2.5,2.6,4.4,2.1,7.2c-0.2,1.4,1.1,2.5,2.6,2.6c1.6,0.1,3.2-1.1,3.4-2.5
	c0.2-1.3-0.7-2.7-2.1-3.1c-0.4-0.1-0.9-0.1-1.4-0.1c-0.4,0-0.8-0.1-1-0.5c-1.3-2.8-2.5-5.7-3.1-9.3c2,1.6,3.9,2.4,4.6,4.6
	c0.5,1.4,1.9,1.9,3.1,1.4c1.3-0.5,2.2-1.9,1.9-3.2c-0.3-1.6-2.2-2.8-4-2c-1.4,0.6-2.1,0.1-2.9-0.7c-0.9-0.8-1.8-1.6-2.6-2.4
	c-0.4-0.4-0.8-0.8-0.9-1.4c-0.4-3.2-0.7-6.5,0.1-9.9c0.9,0.6,1.7,1.2,2.5,1.6c0.9,0.5,1.3,1,1.1,2.1c-0.2,0.9,0.1,1.7,0.9,2.3
	c1.2,0.9,3.5,0.7,4.7-0.4c1-1,1.3-2.9,0.5-4c-0.9-1.3-2.7-1.8-4.3-0.9c-0.9,0.5-1.4,0.4-2.1-0.2c-0.8-0.7-1.6-1.3-2.5-1.9
	c-0.4-0.3-0.9-0.6-0.8-1.1c0.3-2.3,0.4-4.7,1.2-7.2c1.1,0.9,1.6,2,2.4,2.8c0.6,0.6,0.8,1.1,0.7,2.1c-0.3,1.4,1,2.5,2.5,2.6
	c1.3,0.1,2.5-1,2.7-2.2c0.3-1.8-1.1-3.3-3.1-2.8c-1.1,0.2-1.6-0.1-2.2-0.8c-3-3.7-3-3.7-1.7-8.4c0.2-0.5,0.4-1.1,0.5-1.6
	c0.2-0.9,0.7-1.5,1.5-2.1c8.8-6.8,17.9-13.1,28-18c0.5-0.3,1-0.7,1.8-0.6c-1.5,1.7-2.9,3.3-3.9,5.1c-4.3,7.7-7.7,15.8-9.1,24.6
	c-0.7,4.2-0.6,8.7-2.9,12.5c0,0.1-0.1,0.2-0.1,0.2c0.1,0.2,0.1,0.5,0.3,0.6c0.2,0.2,0.5,0.1,0.6,0c0.6-0.6,1.2-1.3,1.7-2
	c2.3-3.4,4.1-7,5.7-10.8c2.5-6,4.7-12.2,7.8-18.1c2.2-4.3,4.4-8.5,6-13.1c0.6-1.7,1.6-3.2,3.1-4.2c4.2-2.6,8.6-4.9,13-7.3
	c0.7-0.4,1.1-0.4,1.7,0.1c0.5,0.5,0.6,1,0.4,1.7c-0.7,2.5-2.8,4.3-5.4,4.4c-1,0.1-2.1-0.1-3.1,0c-2.8,0.3-4,1.7-3.8,4.4
	c0.1,0.9-0.2,1.7-0.5,2.5c-0.8,1.8-0.4,3.4,0.7,4.9c0.7,0.9,1.4,1.7,2.3,2.4c1.9,1.4,3.1,3.2,3.9,5.3c1.7,4.5,4,6,8.8,5.7
	c1.8-0.1,3.3,0.4,4.7,1.4c3.9,2.9,6.5,2.7,10-0.6c1.2-1.2,2.6-2.1,4.3-2.5c1.3-0.2,2.5-0.6,3.6-1.2c0.3,0.6,0.1,1.2,0,1.7
	c-0.6,2.8-0.9,5.7-0.7,8.6c0.2,2.8,1,5.5,2.5,7.9c1.2,1.8,2.8,2.9,5,2.4c1.2-0.2,2.4-0.1,3.4,0.7c2,1.4,3.4,3.4,5.3,5.1
	c-4.9,2.9-6.2,8.1-3.5,13c0.5,0.9,0.8,1.7,0.4,2.7c-1,2.6-0.2,4.6,2,6.3c1.8,1.4,2.7,3.3,2.5,5.7c0,0.6,0,1.3,0.1,1.9
	c0.3,1.4,1,2.6,2.4,3c3,1,5.7,2.5,8.5,3.9c3.9,1.9,8,2.6,12.4,1.8c2.2-0.4,4.3-1.2,6.3-2.2c0.4,0.7,0.5,1.4,0.6,2.1
	c0,1.8,0.8,3.1,2.3,3.9c0.9,0.5,1.6,1.1,2.2,1.8c1.1,1.4,2.5,1.9,4.2,1.4c1.1-0.3,2.1-0.3,3,0.3c2.6,1.7,5.3,1.5,8.1,0.8
	c1.2-0.3,2.4-0.9,3.6-1.3c2.1-0.8,3.8-2.1,4.5-4.3c0.2-0.8,0.7-1.2,1.5-1.3c2.7-0.3,3.7-2.2,4-4.6c0.1-0.9,0.3-1.7,1.2-2.2
	c1.4-0.8,1.6-2.1,1.6-3.5c-0.1-2.1-0.8-3.9-2.1-5.5c-0.7-1-1.4-2-1.3-3.3c0.2-1.7,0.3-3.3-0.2-5c4.1-0.5,7.6-1.6,10.3-4.4
	c1.4,1.4,1.4,2.9,0.5,4.6c-0.8,1.4-1,3-0.6,4.6c1.1,3.8,4.5,5.5,8.8,4.1c2.1-0.7,2.1-0.7,2.7,1.4c0.9,3.1,2.5,4.2,5.5,3.3
	c1.8-0.5,3.2-0.3,4.7,0.7c2.4,1.7,5.2,1.2,7.1-1.1c0.7-0.8,1.2-1.9,1.8-2.8c0.5-0.9,1.2-1.6,2.2-2c2.6-1.1,3.6-2.5,3.1-5.2
	c-0.4-2.3,0.2-3.8,2.1-5c1.6-1,1.9-2.7,1.3-4.5c-0.2-0.6-0.4-1.2-0.7-1.8c-0.6-1.3-0.3-2.5,0.7-3.5c1.2-1.1,2.5-2.2,3.8-3.3
	c0.1,0.1,0.4,0.4,0.7,0.6c2,1.4,2.7,3.2,2.1,5.6c-0.2,0.7-0.2,1.4-0.2,2.1c0.2,3.8,2.7,5.6,6.3,4.5c0.2-0.1,0.5-0.1,0.7-0.2
	c1-0.5,1.5,0,1.7,0.9c0.2,1.1,0.3,2.2,0.5,3.3c0.8,3.4,3.8,4.5,6.6,2.3c0.6-0.4,1-1,1.5-1.6c1.5-2,2.4-4.2,2.6-6.6
	c0.1-1.4,0.6-2.2,2.1-2.4c2-0.3,3-1.6,3.5-3.5c0.2-1,0.3-2,0.1-3.1c-0.5-2.7-1.1-5.3-2.3-7.8c-0.6-1.3-0.3-2.3,0.7-3.2
	c1.9-1.8,4-2.2,6.4-1.2c1.1,0.5,2.2,1,3.4,1.1c2.3,0.2,3.4-0.4,4.2-2.7c0.3-0.9,0.8-1.7,1.5-2.4c1.1-1.1,1.4-2.5,1.2-4
	c-0.1-1.1-0.4-2.2-1-3.2c-1.6-2.5-2.1-5.1-2-8c0.1-3.7-1.9-6.5-5.4-7.6c-2.1-0.6-3.6-1.7-4.7-3.7c-1.9-3.4-4.9-4.3-8.6-3
	c-0.7,0.2-1.3,0.5-2,0.8c-0.7,0.3-1.4,0.5-2.1,0.3c-1.7-0.4-3.4-0.5-5.5-0.4c1.7-2.7,3.2-5,4.2-7.6c0.3-0.9,1.1-0.8,1.8-0.7
	c2.2,0.4,4.1-0.3,6-1.3c1.1-0.6,2.1-1.2,2.9-2.1c0.8-0.9,1.5-0.9,2.5-0.3c3.1,1.8,6.2,3.6,9.4,5.3c2.6,1.3,4.2,3.4,5.1,6.1
	c1.2,3.6,2.8,7.1,4.7,10.5c1.3,2.3,2.4,4.9,3.5,7.4c1.6,3.8,3.2,7.7,4.8,11.5c1.6,3.8,3.3,7.5,5.5,10.9c0.6,0.9,1.2,1.7,1.9,2.5
	c0.2,0.3,0.6,0.6,1,0.3c0.3-0.2,0.3-0.6,0.1-0.9c-1.8-3-1.9-6.4-2.4-9.7c-1-7.4-3.2-14.5-6.4-21.3c-1.8-3.8-3.7-7.6-6.7-10.9
	c1.2-0.1,1.8,0.5,2.4,0.8c9.1,4.5,17.5,10.3,25.6,16.4c1.8,1.4,3.1,2.9,3.5,5.2c0.1,0.5,0.2,0.9,0.4,1.4c0.7,2,0.5,3.6-1,5.2
	c-1.2,1.3-1.9,2.8-4.1,2.2c-1.2-0.3-2.4,1.2-2.3,2.5c0,1.4,1.3,2.6,2.6,2.6c1.4,0,2.7-0.9,2.6-2.2c-0.1-1.2,0.1-2,0.9-2.8
	c0.8-0.7,1.1-1.9,2.2-2.4c0.6,1.3,0.6,2.6,0.8,3.9c0.6,4.4,1,3.4-2.6,6c-0.8,0.6-1.3,1.1-2.5,0.3c-1.3-0.9-3-0.4-3.9,0.7
	c-0.9,0.9-0.9,2.3-0.2,3.6c0.8,1.3,2.7,2,4.2,1.6c1.3-0.4,1.9-1.1,1.9-2.9c0-0.5-0.2-1.1,0.4-1.5c1-0.7,2.1-1.3,3.4-2.1
	c0.1,2.4,0.1,4.5,0.2,6.5c0.1,2.9-0.9,5.1-3.3,6.7c-1.2,0.8-2,2.1-3.9,1.1c-1.3-0.7-2.9,0.4-3.4,1.5c-0.5,1.3,0,2.8,1.3,3.5
	c1.5,0.9,3,0.3,3.8-1.6c0.8-2,2.5-2.8,4.5-4c-0.6,2.8-1.5,5.1-2.4,7.4c-0.5,1.3-1,2.3-2.8,2.3c-1.7,0-2.8,1.8-2.5,3.2
	c0.3,1.4,2,2.5,3.5,2.4c1.6-0.1,2.7-1.5,2.6-3.2c-0.1-2,0.9-4.7,2.3-6.2c0.4,1.1,0.5,2.3,0.8,3.5c0.2,0.8,0.1,1.4-0.8,1.7
	c-0.3,0.2-0.6,0.5-0.9,0.8c-0.9,1.2-0.6,2.9,0.5,3.9c1.4,1.1,3.4,0.8,4.7-0.6c0.9-1.1,1-2.9-0.3-3.6c-1.8-0.9-1.8-2.4-2.1-4
	c-0.3-1.5-0.4-3-1.1-4.4c-0.1-0.3-0.3-0.6-0.2-0.9c0.4-2.1,0.9-4.1,1.4-6.4c0.3,0.5,0.4,0.7,0.5,0.9c0.4,1,0.8,2.1,1.2,3.1
	c0.3,0.7,0.4,1.3-0.5,1.8c-1,0.6-1.2,1.6-1,2.7c0.3,1.2,1.3,2.1,2.5,2.2c1.4,0.1,2.8-0.8,3.2-2c0.4-1.2,0-2.5-1.2-3.1
	c-1.2-0.6-1.5-1.4-1.9-2.5c-0.6-2.1-1.2-4.3-2.4-6.2c-0.6-0.9-0.6-1.9-0.2-3c0.2,0.1,0.4,0.2,0.5,0.3c0.9,0.9,2,1.4,3.2,0.8
	c1.1-0.5,1.3-1.5,1.3-2.6c0-1.3-0.4-2.4-1.9-2.6c-0.7-0.1-0.9-0.6-1.1-1.1c-0.8-2.4-1.9-4.6-3.2-6.9c-1.2-2.2-1.2-5.1-1.8-8.1
	c0.8,0.5,1.1,0.7,1.4,1c4.9,4,9.4,8.5,13.6,13.2c2.6,2.9,3,6.3,1.4,9.7c-0.2,0.5-0.5,1-0.7,1.5c-1.8,4.5-1.8,9,0.2,13.5
	c0.6,1.4,1,1.4,1.9,0.2c0.7-0.9,1.3-1.8,2-2.7c3.1-4.3,3.5-8.6,0.6-13.2c-0.7-1-1-2.2-0.8-3.8c2.2,2.6,4.1,4.8,5.9,7.1
	c1.2,1.5,2.6,2.8,3.1,4.8c0.2,0.8,0.9,1.5,1.8,1.9c1.1,0.5,1.7,1.4,2.2,2.5c-0.5,0.4-1.1,0.7-1.5,1.1c-1.4,1.4-1.1,3.7,0.5,4.8
	c1.1,0.7,2.4,1.1,3.6,0.3c0.9-0.6,1.1,0.1,1.4,0.6c0.3,0.7,0.2,0.9-0.5,1.2c-1.8,0.8-2.4,2-1.9,3.6c0.4,1.5,1.8,2.3,3.6,2.2
	c2.2-0.2,2.2-0.2,2.6,2.2c0.3,1.6,1.5,2.5,3.1,2.3c0.5-0.1,1-0.3,1.7-0.5c0,0.6,0,1,0,1.5c0.1,1.2,0.9,2.1,2,2.5
	c0.9,0.3,1.7,0,2.4-0.7c0.9-0.9,0.8-2,0.4-3.1c-0.4-1.1-1.2-1.8-2.4-1.7c-1,0.1-1.4-0.5-1.8-1.2c-0.3-0.6-0.7-1.3-1-2
	c0.4-0.1,0.7-0.2,1-0.3c1.9-0.9,2.4-2.3,1.3-4.1c-1.1-1.9-2.7-2.1-4.6-0.6c-0.4,0.3-0.6,0.8-1.1,0.2c-0.4-0.4-0.7-0.9-0.1-1.4
	c0.1-0.1,0.2-0.2,0.3-0.4c0.6-1.2,0.4-2.9-0.6-3.7c-1-0.9-2.1-0.9-3.1-0.1c-0.7,0.6-1.1,0.3-1.5-0.3c-0.8-1.4-1.7-2.7-2.5-4.1
	c0.6-0.5,1.2-0.9,1.7-1.4c0.7-0.7,1-1.6,0.7-2.6c-0.6-2.4-4-4.3-6.2-3.3c-1.1,0.5-1.5,0.1-2.1-0.6c-2.4-3-4.8-6-7.1-9
	c-0.9-1.1-1.8-2.2-2.9-3.5c1.5,0.2,2.2,1,2.9,1.7c1.8,1.7,3.5,3.5,5.6,4.9c6.1,3.8,12.5,4.4,19.4,2.5c0.5-0.1,0.9-0.3,1-0.9
	c0.1-0.7-0.4-1-1-1.2c-2.9-1.3-5.6-3-8.4-4.6c-3.6-2.1-7.4-3.3-11.6-3.5c-5.5-0.3-10.5-2.3-14.4-6.2c-12.4-12.1-25.8-22.7-41.2-30.7
	c-0.7-0.4-1.6-0.6-2.1-1.3c0.4-0.5,1-0.4,1.4-0.4c2.9,0,5.8-0.2,8.6-0.8c2.9-0.6,4.9,0.3,6.8,2.2c0.7,0.7,1,1.2,0.9,2.2
	c-0.3,2.2,0.9,3.6,3.1,4c1.4,0.3,2.5-0.2,3.3-1.4c0.8-1.2,1.2-2.4,0.5-3.8c-0.7-1.2-1.9-1.8-3.5-1.6c-2.3,0.3-2.7,0.1-4-2.2
	c2.4-0.3,4.7-0.3,6.9,0c0.3,0,0.7,0.1,0.9,0.3c1.2,2,3.9,3.1,3.1,6.2c-0.5,1.8,1.5,3.7,3.4,3.9c2.1,0.2,3.6-1.2,3.7-3.4
	c0.1-2.2-1.1-3.6-3.3-3.4c-2.4,0.2-2.8-1.4-3.8-3c2.6,0,4.8,0.7,7.1,1.2c0.6,0.1,1,0.5,1.3,1c0.7,1.3,1.9,2.2,2.9,3.2
	c0.9,0.8,1.4,1.4,0.3,2.7c-1.1,1.3-0.2,3.5,1.4,4.2c1.7,0.8,3.2,0.1,4.1-1.7c0.8-1.6,0.3-3.1-1.4-3.7c-2.1-0.8-3.1-2.5-4.3-4.1
	c0.9,0.2,1.7,0.5,2.5,0.8c1.4,0.5,2.7,0.9,3,2.9c0.3,1.7,2.4,2.4,4.1,1.8c1.8-0.6,3-2.2,2.7-3.8c-0.3-1.7-1.8-2.7-3.8-2.5
	c-0.5,0.1-1.1,0.2-1.6,0.4c-0.5,0.2-0.9,0.2-1.4,0c-1.8-0.8-3.6-1.7-5.7-2.7c2.2-0.5,3.7-1.1,5.3,0.8c1.2,1.5,3.5,1.2,4.6-0.3
	c1.2-1.5,0.8-3.8-0.7-4.9c-1.4-1-3.8-0.9-4.4,0.7c-0.8,1.9-2.2,1.7-3.6,1.8c-1.4,0.1-2.9,0.3-4.3,0.5c-0.6,0.1-1.1,0.3-1.7,0.2
	c-2.9-0.5-5.8-1-8.6-1.4c1.8-1.1,3.4-3.2,5.7-0.8c0.2,0.2,0.6,0.3,0.9,0.4c1.6,0.4,3.1-0.5,3.6-2c0.7-2,0.1-3.8-1.3-4.4
	c-1.7-0.8-4.2,0-4.9,1.8c-0.4,1.1-1.1,1.6-2.1,2c-1.1,0.4-2.3,0.7-3.3,1.4c-3.6,2.5-7.8,1.4-11.8,2.1c0.9-1.1,1.9-2,2.8-3
	c0.7-0.7,1.3-1.3,2.5-1.1c0.9,0.2,1.9-0.2,2.7-0.7c0.9-0.6,1.5-1.5,1.4-2.6c-0.1-1-0.8-1.7-1.7-2.1c-2.3-1-4.8,0.4-4.8,2.9
	c0,1.3-0.6,1.9-1.4,2.5c-1.6,1.3-3.3,2.6-4.9,3.9c-0.5,0.4-0.9,0.8-1.7,0.9c-3.5,0.4-7,0.9-10.5,0.9c-0.8,0-1.6-0.1-2.3-0.5
	c-4.9-2.6-9.6-5.7-14.8-7.9c-0.6-0.3-0.8-0.6-0.6-1.3c0.2-0.7,0.2-1.4,0.2-2.1c0-0.9,0.3-1.5,1.1-2c2.2-1.4,2.8-3.4,1.9-5.8
	c-0.3-0.7-0.3-1.3,0.2-2c1.3-1.7,0.9-3.5-0.1-5.1c-0.9-1.5-2.1-2.6-3.6-3.5c-1.1-0.6-2-1.5-2.3-2.7c-0.4-1.6-0.9-3-1.9-4.5
	c2.8-1.3,5-3.2,6.8-5.4c0.6-0.8,1.2-1.7,0.7-2.6c-0.5-1.1-0.1-1.8,0.5-2.6c1-1.6,0.8-2.5-0.6-3.7c-1.6-1.4-1.6-1.4-0.7-3.6
	c0.8-1.9,0.7-2.5-0.7-4.1c-0.9-1-2.2-1.8-2.4-3.2c-0.3-2.3-1.7-3.3-3.6-3.9c-1.9-0.7-1.9-0.7-1.7-2.7c0.3-2.4-0.3-3.2-2.7-3.6
	c-2.4-0.4-4.8-0.3-7.2-0.5c-3.9-0.4-7.1,0.7-9.5,3.9c-0.1,0.1-0.3,0.1-0.6,0.1c-0.2-1.5-0.4-3-1-4.4c-1.3-3.3-3.3-4.5-6.8-3.6
	c-1.4,0.4-2.4,0.1-3.4-0.9c-0.9-0.9-2.1-1.5-3.3-1.1c-1.4,0.5-2.2-0.1-3.2-0.9c-1.3-1-2.9-1.8-4.4-0.7c-1.9,1.3-3.9,1.5-6.2,1.3
	c-2.2-0.2-4.1,0.7-5.6,2.3c-1.4,1.5-1.8,3.3-1.7,5.3c0.1,1.4,0.1,2.7-1.6,3.3c-0.5,0.2-0.8,0.7-1,1.3c-0.7,1.5-2.5,2.2-4,1.3
	c-2.2-1.2-4.6-2.2-6.9-3.3c-3.1-1.3-6-1.3-9,0.4c-0.3,0.2-0.6,0.3-0.9,0c0.2-1.2,0.5-2.4,0.6-3.7c0.3-3.8-1.3-5.8-5.1-6.4
	c-1.3-0.2-2.2-0.7-2.8-1.9c-0.6-1.4-1.7-2.4-3.3-2.5c-0.9-0.1-1.4-0.6-1.8-1.4c-1.1-2.4-3-3.2-5.5-2.6c-0.9,0.2-1.8,0.2-2.6-0.2
	c-1.4-0.8-3-1.1-4.4-1.8h-1c-0.3,0.3-0.7,0.4-1.1,0.4c-2.3,0.2-3.8,1.6-4.8,3.5c-0.3,0.6-0.6,1.3-0.8,2c-0.3,1.1-0.9,1.9-2.2,1.9
	c-0.8,0-1.4,0.3-1.8,1c-0.3,0.4-0.6,0.7-1.2,0.6c-1.9-0.2-3.2,0.9-4.3,2.2c-1.2,1.4-2.7,2.4-4.6,2.9c-2.5,0.6-4.3,2.1-5.1,4.6
	c-0.3,1-1,1.6-1.9,2c-2.9,1.2-4,3.6-3.3,6.8c0.3,1.1,0.9,2,1.5,3.3c-1.8,0-3.3,0.3-4.7,1.3c-0.6,0.4-1.1,0.9-1.7,1.4
	c-0.7,0.6-1.2,0.6-1.8-0.2c-0.4-0.5-0.7-1.1-1.2-1.5c-1.2-1.4-2.9-1.7-4.6-1c-0.6,0.3-1.3,0.7-1.8,1.2c-1.1,0.9-2.1,1.1-3.5,0.7
	c-3.5-0.8-5.9,0.8-6.8,4.3c-0.2,0.8-0.3,1.7-0.4,2.6c-0.2,1.1-0.6,1.9-1.3,2.8c-2.2,2.4-2.4,3.5-0.8,6.2c1,1.7,1.2,3.1,0,4.8
	c-1.4,2.1-1.1,3.5,0.5,5.4c0.3,0.3,0.5,0.6,0.8,0.9c1.2,1,1.4,2.3,0.8,3.7c-0.6,1.5-1.3,3.1-1.9,4.6c-0.5-0.2-0.8-0.3-1.2-0.4
	c-2.4-0.6-3.7-2-4.1-4.4c-0.2-1.2-0.7-2.5-1.5-3.5c-1.6-1.9-3.8-2.3-5.8-1.1c-0.9,0.6-1.6,2-2.7,1.6c-1.1-0.4-1.4-1.9-2-2.9
	c0-0.1-0.1-0.1-0.1-0.2c-0.9-1.4-2-2.5-3.8-2.4c-1.8,0.1-2.8,1.3-3.5,2.8c-1.3,2.7-1.3,5.6-0.5,8.4c0.3,1.3,0.5,2.4-1,3.2
	c-1.8,1.1-2.3,3-1.8,5c0.3,1.4,1,2.7,1.8,3.9c0.5,0.6,1.1,1.1,1.3,2c-1,0.9-2.3,1.1-3.5,1.6c-4.4,1.9-8.4,4.6-12.6,6.9
	c-1.5,0.8-2.9,1.2-4.6,1.1c-2.7-0.3-5.4-0.6-8.1-0.7c-1.4-0.1-2.4-0.6-3.4-1.4c-1.4-1.2-2.8-2.3-4.3-3.5c-0.8-0.7-1.3-1.2-1.3-2.5
	c0-2.3-2.5-3.8-4.6-3c-1.1,0.4-1.8,1-1.9,2.2c-0.1,1.3,0.5,2.2,1.5,2.8c0.9,0.5,1.8,0.7,2.8,0.6c0.5,0,1-0.1,1.4,0.2
	c1.3,1.2,2.5,2.4,3.8,3.5c-4.2-0.2-8.5,0.5-12.1-2c-0.6-0.4-1.5-0.7-2.2-0.9c-1.3-0.5-2.5-0.9-3.1-2.6c-0.5-1.5-2.1-1.8-3.6-1.8
	c-1.1,0.1-2,0.5-2.4,1.6c-0.5,1.3,0.1,3.6,1.1,4.4c1.2,1,2.8,1,4.1-0.2c1-0.9,1.8-0.8,2.7-0.2c0.8,0.5,1.8,0.7,2.6,1.6
	c-4.8,0.5-9.3,2-13.9,0.7c-0.6-0.2-1.3-0.1-1.9-0.1c-1.1,0.1-1.8-0.3-2.4-1.4c-0.9-1.8-3.2-2.2-4.7-1c-1.5,1.1-1.8,3.6-0.7,4.9
	c1.2,1.4,3.4,1.7,4.7,0.2c1.5-1.9,3.1-1.3,5.3-0.7c-1.4,0.6-2.4,1-3.4,1.5c-1.6,0.8-3.2,1.8-5.2,0.8c-0.4-0.2-0.9-0.1-1.4,0
	c-1.2,0.1-2.1,0.9-2.5,2c-0.4,1.1-0.1,2.2,0.7,3.1c2.1,2.2,5.3,1.5,6.2-1.4c0.2-0.6,0.2-1.2,1-1.5c1.4-0.5,2.7-1.3,4.8-1.6
	c-2,1.5-2.7,3.5-4.8,4.2c-1.8,0.6-2.3,2.2-1.4,3.9c0.9,1.7,2.4,2.3,4,1.6c1.6-0.7,2.3-2.7,1.6-4.2c-0.2-0.5-0.9-0.7-1-1.4
	c1.3-1.7,3.3-3,4.4-4.9c0.1-0.2,0.4-0.3,0.6-0.4c2.3-0.6,4.7-1.4,7.5-1.3c-1.1,1.7-1.7,3.2-4,3c-2.1-0.2-3.3,1.4-3.2,3.3
	c0.1,2.3,1.8,3.8,3.9,3.5c2.1-0.2,3.7-2.2,3.2-4.3c-0.3-1.2,0-2,0.8-2.8c0.7-0.8,1.3-1.6,1.9-2.5c0.3-0.4,0.6-0.8,1.1-0.8
	c2.4-0.3,4.9-0.5,7.6,0.1c-1.4,1.4-2.3,2.7-4.6,2.1c-2.4-0.6-4.1,1.7-3.5,4c0.5,2,2,3,3.9,2.7c2.2-0.4,3.6-1.9,3.1-4
	c-0.3-1.3,0.3-1.8,1-2.4c0.6-0.4,1.2-0.8,1.7-1.4c0.9-1.1,2-1.1,3.3-0.9c3.3,0.4,6.7,0.8,10,0.9c0.6,0,1.3-0.2,1.8,0.4
	c-0.6,0.7-1.5,1-2.2,1.4c-14.9,7.8-28.1,18-40.1,29.7c-4.5,4.4-9.8,6.8-16,7.1c-3.4,0.2-6.6,1.1-9.6,2.7c-2,1.1-3.9,2.2-5.8,3.3
	c-1.4,0.8-2.8,1.5-4.3,2.2c-0.5,0.2-0.8,0.6-0.7,1.1c0.1,0.5,0.5,0.8,1,0.9c2,0.3,3.9,0.8,5.9,1c6.3,0.4,11.8-1.7,16.5-5.9
	c1-0.9,2-1.9,2.9-2.8c0.6-0.6,1.2-1.2,2.4-1.2c-3.5,4.5-6.9,8.7-10.2,13c-0.7,0.8-1.1,0.4-1.8,0.1c-2.4-1-4.1,0.3-6,2.8
	c-1,1.4-0.4,2.6,1.8,4.3c0.1,0.1,0.1,0.3,0.3,0.5c-0.7,1.2-1.5,2.4-2.2,3.6c-0.5,0.9-0.9,1.2-2,0.5c-1.7-1-3.2-0.1-3.6,1.7
	c-0.2,0.9-0.3,1.9,0.6,2.7c0.6,0.6,0.2,1-0.2,1.4c-0.5,0.6-0.7,0.1-1.1-0.3c-1.9-1.6-3.7-1.3-4.7,0.7c-1,2-0.3,3.2,2.3,4.2
	c-0.8,1.5-1.1,3.3-3.5,3.3c-1.3,0-2.2,2-1.9,3.4C227.9,182.5,228.9,183.4,230.1,183.4z M275.4,142.5c0,0.4-0.1,0.8-0.3,1.6
	c-0.7-1.5-0.7-1.5,0.2-2.9C275.7,141.6,275.5,142.1,275.4,142.5z M581.5,144.2c-0.1-1.2-0.1-2-0.1-2.8
	C582.5,142.6,582.5,142.6,581.5,144.2z M621.6,174.1c-1.9,1-1.9,1-2.5-0.7c-0.4-1.2-0.8-2.4-1.4-4
	C619.6,171,620.6,172.5,621.6,174.1z M610.6,143.6c-1.4-0.7-3-1.1-4.3-2c3-0.9,8.5,1,13.9,4.8c-3.9,1.3-11.1-0.1-15.3-3.1
	c3.6,0.8,6.6,2.4,10.4,2.7C613.7,144.4,612,144.3,610.6,143.6z M596.7,155.2v4.6c1.7-1.6,1.3-3.6,2.1-5.1c1.1,2.4-0.1,5.9-2.8,8.5
	C595.6,160.4,595.7,157.8,596.7,155.2z M362.1,115.8c-1.2,1.6-2.8,2.6-4.8,2.8c-2,0.2-3.6,1.1-5,2.5c-0.3,0.3-0.6,0.6-0.9,0.8
	c-2,1.8-3.1,2-5.3,0.3c-2.4-1.9-4.9-2.5-7.8-1.9c-2.2,0.5-3.9-0.5-4.9-2.5c-0.3-0.6-0.6-1.1-0.8-1.7c-0.8-2.2-2.3-4-4.2-5.4
	c-0.6-0.5-1.3-1-1.9-1.5c-1.1-1.1-1.7-2.3-0.9-3.9c0.5-0.9,0.5-1.8,0.5-2.8c-0.1-1.1,0.5-1.6,1.6-1.6c0.8,0,1.6,0,2.4,0
	c3.6-0.1,6.4-2.1,7.6-5.5c0.2-0.7,0.4-1.4,0.6-2.1c0.6-1.5,1-1.7,2.5-1.2c0.2,0.1,0.3,0.1,0.4,0.2c1.9,0.9,3.5,0.5,4.9-1.1
	c1.7-1.9,2.4-1.9,4.3-0.3c1.2,1,2.2,2.1,3.3,3.1c1.5,1.5,3.1,2.9,4.9,4.4c-1.2,0.1-2.4,0.1-3.6,0.2c4.1,2.2,8.4,0.9,12.7,0.7
	c-6,3-11.8,6.6-19.4,6c1.7,1.2,3.2,1.2,4.7,1.1c4.3-0.4,8.4-1.8,12.4-3.5c2-0.9,4-1.9,6.1-2.7c-0.9,1.3-2.2,2.3-3.5,3.3
	c-1.4,1.1-2.8,2.1-4.3,3.1c-1.4,0.9-2.8,1.8-4.6,2.9c1.7,0.1,2.8-0.4,3.9-0.8c1.2-0.4,2.3-1,3.7-1.6
	C365.6,110.4,364.1,113.2,362.1,115.8z M395.6,61.1c-1.3-1.2-1.8-2.6-1.1-4.3c0.3-0.6,0.5-0.9,1.2-0.7c2.4,0.5,4.7,0.9,7.1,0.1
	c0.3-0.1,0.7,0,0.9,0.1c1.5,0.6,3.1,1,5,1.3c-1.4,1.4-3.1,1.4-4.4,2.4c3.4,0.5,6.3-0.7,9.2-2.3c0.6,0.7,0,1.1-0.3,1.5
	c-2.2,3.5-5.5,5.7-9.3,7.2c-0.7,0.3-1.5,0.3-2.1,1.1c4.1,1,10.7-3.2,14.9-9.5c0.8,0.2,0.8,0.9,1,1.5c0.1,0.4,0.1,0.8,0.1,1.2
	c-0.4,4-0.1,8,0.6,11.9c0.3,1.5-0.1,2.5-1.3,3.6c-2.9,2.5-4.9,5.7-5.8,9.5c-0.4,1.5-1.2,2.1-2.6,2.3c-2,0.3-4,0.1-5.9-0.6
	c-1.8-0.6-3.5-1.5-5.1-2.6c-1.9-1.3-4-2.4-6.2-3.1c-0.4-0.1-0.8-0.2-1.1-0.4c-1.6-0.9-1.8-2.7-0.3-3.9c1.6-1.2,3.2-2.4,4.6-3.9
	c1.1-1.2,2.1-2.4,2.6-4C398.2,66.4,398.1,63.6,395.6,61.1z M485.4,64.7c-0.3,3.5-1.6,6.2-3.4,8.7c-0.4,0.6-1.1,0.9-1.8,1.1
	c-2,0.5-3.1,1.8-3.9,3.6c-1,2.4-1.2,4.9-0.9,7.5c0.1,0.6,0.2,1.1,0.2,1.7c0.1,0.7-0.2,1.3-0.8,1.6c-0.7,0.4-1-0.3-1.4-0.7
	c-1.9-1.7-4.1-2.1-6.5-1.3c-1.5,0.5-2.6,0.5-4.1-0.7c-1.1-0.9-1.8-1.7-2.1-3c-0.2-0.9-0.8-1.6-1.5-2.1c-0.9-0.7-1.6-1.5-2.1-2.6
	c-1.7-3.7,0-7.2,4.1-7.9c1.6-0.3,3.3-0.3,5-0.5c2.7-0.3,5.4-0.6,7.6-2.4c0.4-0.3,0.8-0.5,1.3-0.5c1.6,0.1,3.2-0.2,5-0.5
	c-0.8,1.8-2.4,2.5-3.5,3.8C479.3,70.5,480.6,69.7,485.4,64.7z M487.7,63.7c2.6,2.1,2.5,4.8,3.6,7.3c-3-0.8-5.1,0.3-6.8,2.5
	C486.2,70.6,487.6,67.6,487.7,63.7z M485.9,61c0.4-1.1,1-2.2,1.9-3c1-0.9,1.8-0.7,2.4,0.6c0.2,0.5,0.3,1.1,0.5,1.7
	c-0.8,0.2-1.7,0.4-2.2,1.2c-0.4,0.6-1.2,0.4-1.8,0.5C486,62.2,485.7,61.7,485.9,61z M476,108.6c0.8,2.1,0.6,2.6-1.4,3.6
	c-2.2,1.1-3.7,2.8-4.1,5.3c-0.4,2-1.7,3.1-3.7,3.7c-2,0.6-4,0.5-5.9-0.3c-6.5-2.6-12.1-6.5-16.9-11.5c-0.2-0.2-0.4-0.5-0.4-1
	c2.5,0.9,5,1.4,7.7,1.4c0.6,0,1.1,0.1,2-0.4c-3-1.2-6.3-0.7-9.3-3.1c3.4,0,6.2,0.1,9-0.4c3.5-0.5,6.9-1.4,10.1-2.8
	c0.5-0.2,1.5-0.3,1.3-1.1c-0.2-0.9-1-0.3-1.6-0.2c-6.4,1.6-12.9,2.2-19.5,2c-0.4,0-0.8,0-1.3-0.1c0-2.5,1.1-4.3,2.8-5.9
	c1.3-1.2,2-2.6,2.6-4.2c1.1-3.3,3.5-5.5,6.6-6.8c1.7-0.7,3.5-0.8,4.7,1c0.7,1.1,2.1,0.2,2.8,0.9c0.8,0.7,1.4,1.6,2.5,1.6
	c1,0.1,2.1,0,3.1-0.3c1-0.3,2-0.5,3.1-0.2c1.5,0.4,2.4,1.4,2.2,3c-0.1,1.8,0.5,3.3,1.8,4.5c1.1,1,1.4,2.2,1.1,3.7
	C474.8,103.6,475.1,106.1,476,108.6z M478.9,108.3c1.3,2.2,2.1,4.7,2.6,7.2c0.1,0.4,0,0.8,0,1.2c-0.1,0.5-0.5,0.6-0.9,0.7
	c-0.5,0.2-0.8,0-0.9-0.5c-0.8-1.8-2.1-3.6-1-5.8C479.2,110.4,478.7,109.4,478.9,108.3z M485.7,122.7c0.4,0.1,0.7,0.5,0.5,0.9
	c-0.1,0.3-0.5,0.4-0.8,0.3c-0.9-0.3-1.9-0.4-2.8-0.5c-0.6,0-0.8-0.4-0.9-0.9c-0.2-0.7-0.4-1.4-0.6-2.2c1.2-0.4,2.2-0.9,3.5-1.9
	c0,0.9,0,1.3-0.1,1.7C484.3,121.3,484.5,122.2,485.7,122.7z M477,127.8c-1.8,1.3-3.3,2.7-3.9,5c-0.2,0.9-0.8,1.3-1.8,1.3
	c-2,0-3.8,0.4-4.5,2.7c-0.2,0.7-0.9,0.8-1.6,0.8c-2,0-3.4,0.8-4.5,2.6c-1.2,1.9-1.9,2-4,0.9c-1.4-0.8-2.7-1.7-3.8-2.9
	c-1.8-2.1-2.7-4.3-1.8-7.1c1-2.9,0-5-2.3-6.9c-3.3-2.7-4.6-6.1-4.3-10.8c2.4,2.2,4.5,4,6.9,5.6c2.7,1.7,5.5,3.3,8.5,4.3
	c2.5,0.8,5,0.9,7.5,0.2c2.7-0.8,4.7-2.4,5.2-5.3c0.3-1.8,1.3-3,3-3.7c0.6,0.4,0.1,0.9,0,1.2c-0.3,1.3-0.1,2.5,0.7,3.6
	c0.4,0.5,0.8,1,1.2,1.5C479.9,123.4,479.7,125.8,477,127.8z M406,146.2c-1.6-3.1-3.3-6.1-5.4-8.8c-0.3-0.4-0.6-0.8-0.4-1.3
	c0.4-1.4,0.5-2.8,0.3-4.3c-0.2-1.4-0.7-2.6-1-3.8c0.3-0.5,0.6-0.4,0.8-0.2c1.7,0.6,3.4,0.7,5.2,0.4c1.4-0.2,2.7,0,3.9,0.6
	c1.5,0.7,2.2,1.7,2,3.4c-0.4,4.2-1,8.4-2.3,12.4c-0.2,0.5-0.2,1.1-1,1.5c-0.6-3.2-1.4-6.3-3.4-8.9C405.1,140.2,406.9,143,406,146.2z
	 M395,113.7c-1.2-1.7-1.5-3.7-1-5.7c0.3-1.2,0.5-2.5,0.8-3.7c0.4-1.6,1.3-2.9,2.7-3.8c1.6-0.9,2.6-2.3,2.8-4.2c0-0.4,0.1-0.8,0.5-1
	c1.6-0.9,3.2-1.8,4.8-2.6c0.1-0.1,0.4-0.2,0.5-0.1c1.8,1,4.3,0.8,5.5,3c2.5,4.8,6.9,7.2,11.8,8.8c2.8,0.9,5.7,1.6,8.3,3
	c0.1,0,0.1,0.1,0.6,0.5c-8.8-2.1-17.5-2.5-25.8-6.1c0.4,1.7,1.6,2,2.5,2.5c2.3,1.3,4.9,1.8,7.5,2.4c3.2,0.7,6.4,1.3,9.6,2
	c0.7,0.1,1.4,0.2,2,0.7c-5.7,2.2-11.7,3.6-16.3,7.9c-0.7,0.7-1.5,1.4-1.9,2.8c1.9-0.7,2.6-2.3,4-3.1c1.4-0.9,2.9-1.7,4.4-2.3
	c1.6-0.6,3.1-1.2,4.7-1.8c1.6-0.5,3.2-1,4.8-1.5c1.6-0.5,3.2-0.9,5.1-1.1c-1.6,2.8-2,5.6-2.6,8.4c-0.5,2.3-1.7,3.8-4.4,3.9
	c-2,0.1-3.8,1.1-5.4,2.4c-0.9,0.8-1.9,1.5-3,2c-1.8,0.7-3.7,0.8-5.3-0.4c-2.4-1.7-5.1-2.2-8-1.7c-0.7,0.1-1.4,0.1-2.1,0
	c-1.1-0.1-1.9-0.6-2-1.9c-0.1-1.6-1.1-2.3-2.5-2.9c-2.4-1-2.4-1.1-2.3-3.7C395.7,115.4,395.6,114.5,395,113.7z M397.2,87.9
	c3.9,1.8,7.8,2.4,11.9,1.9c1.5-0.2,1.6,0.6,1.3,1.7c-0.2,0.2-0.4,0.2-0.6,0.1c-2.5-1.3-4.8-1.3-7.1,0.4c-1.1,0.8-2.6,0.7-3.7,1.5
	c-0.6,0.5-2-0.6-1.8-1.5C397.4,90.7,397.3,89.4,397.2,87.9z M399.3,139.5c2.1,3.2,3.9,6.5,5.6,10.2c-2.4,0.9-4.5,0.9-6.6,0.1
	c-1.3-0.5-2.6-0.9-4-0.5c-3.1,0.8-5.8-0.2-8.5-1.4c0-0.7,0.6-1,0.9-1.5c0.5-1,1.1-1.4,2.4-1.1c2.4,0.6,4.3-0.5,5-3.2
	c0.5-2.1,1.7-2.8,3.5-3.3C398.5,138.7,398.9,138.9,399.3,139.5z M408.5,149.9c0.8-0.7,1.6-1.4,2.5-1.9c1.4-0.8,2.3-0.2,2.3,1.4
	c0,0.5,0,1,0,1.7c-0.8-0.1-1.6-0.5-2.2,0.1c-0.8,0.8-1.5,0.2-2.2,0.1C408,151.1,407.8,150.5,408.5,149.9z M411.1,145.4
	c1-1.1,2.2-1.3,3.3-1.5c0.6,0.4,0.6,1,0.8,1.5c0.2,0.4,1.2,0.6,0.4,1.3c-0.5,0.4-0.9,0.1-1.2-0.3
	C413.6,145.5,412.4,145.6,411.1,145.4z M419.6,147.1c0.4-0.1,0.8,0.1,0.8,0.6c0.1,0.5-0.3,0.6-0.8,0.7c-1.3,0.3-2.6,0.5-3.9,0.8
	C416.6,147.7,418.2,147.5,419.6,147.1z M417.2,150.3c1.5-0.1,3.3-1.8,4.7,0.8c-2,0.8-3.9,1.7-6.2,1.6
	C415.9,151.6,415.6,150.4,417.2,150.3z M418.4,144.1c-1.1,0-1.7-0.1-1.6-1.4c0-1.1-0.5-2.1-1.6-2.4c-1-0.3-1.1-1-1.1-1.8
	c0-1.7,0.2-3.4,0.6-5c0.5-1.7,1.3-3,3.3-3.3c1.5-0.2,2.6-1.2,3.7-2.2c1.8-1.6,3.7-2.7,6.1-3.1c2.5-0.3,4-1.9,4.5-4.4
	c0.4-1.6,0.6-3.3,0.9-4.9c0.2-1.3,0.4-2.5,1.1-3.7c1.8,1.1,1.8,1.1,1.4,2.9c-0.4,2-1,3.9-1.7,5.7c-0.2,0.6-0.6,1.2-0.1,2
	c2-2.8,2.7-6,3.8-9c0.6,1.2,0.3,2.4,0.1,3.6c-0.5,2.7-1.5,5.2-2.4,7.8c-0.8,2.1-1.5,4.2-1.9,6.4c-0.2,0.8-0.5,1.7-0.1,2.4
	c0.4,0.1,0.6-0.1,0.7-0.3c0.8-3.3,2.1-6.4,3.4-9.5c1.2-3,2.3-6,2.4-9.2c0-0.5,0-1,0.6-1.2c1.2-0.4,1.9-1.3,2.6-2.4
	c0.5,0.9,0.2,1.6,0.1,2.3c-0.9,5.1,0,9.7,4.4,13.1c1.2,0.9,1.6,2.2,1.1,3.6c-0.7,2.2-0.2,4.2,0.2,6.3c1.1,6.2,0.6,9-4,12.2
	c-1.6,1.1-3,2.3-4.6,3.5c-1.2,0.8-1.5,0.7-2.2-0.5c-1.3-2.2-2.5-2.8-5-1.9c-1.5,0.5-2.8,0.8-4.2-0.3c-0.9-0.7-2.2-0.2-3.3-0.3
	c-1.5-0.2-2.6-0.4-2.9-2.4C422,144.8,420.8,144.1,418.4,144.1z M436.9,110.4c1.4-1.2,0.4-3.7,2.7-4.2c0.9,1.1,1,2.4,1,3.7
	c0,1.6-0.9,2.1-2.3,1.3C437.9,111,437.5,110.8,436.9,110.4z M455.9,69.8c-0.5,0.5-0.9,1.1-1.3,1.7c-0.4,0.6-0.5,1.4-1.1,1.8
	c-0.1,0-0.2,0-0.2,0c-1-1-2.9-0.9-3.4-2.3c-0.5-1.3,0-2.8-0.4-4.4c2.6,0,4.9-0.9,7.3-1.9c0.7,1.2,1.7,2.2,1.6,3.1
	C458.3,68.7,456.7,69,455.9,69.8z M451.9,76.3c1.8,1.9,2,4.2,0.5,6.4c-0.8,1.1-1.8,2.1-2.7,3.1c-2.3,2.5-4.7,4.8-5.3,8.4
	c-0.1,0.4-0.4,0.7-0.6,1c-1.3,1-2.3,2.2-3.4,3.9c-0.6-1.9,0.2-3.5,0-5.2c-1.8,1.7-2.3,3.9-2.2,10c-3.7-4.9-3.9-10.2-3-15.6
	c-1,0-1,0.5-1.1,1c-1.3,5.5-1.3,10.8,2.1,15.6c0.2,0.3,0.6,0.6,0.2,1c-0.3,0.3-0.7,0.3-1.1,0.1c-0.6-0.2-1.2-0.4-1.7-0.8
	c-3-2-6.2-3.3-9.6-4.4c-2.2-0.7-4.3-1.7-6.1-3.2c-6.3-5.4-6.3-13.6,0.1-18.9c1.2-1,2.5-1.8,3.8-2.5c1.9-1,3.7-2.3,5.2-3.9
	c1.2-1.3,2.5-1.6,4.1-0.8c2.5,1.3,4.9,1.2,7.4,0.1c1.8-0.8,3.2-0.6,4.5,1c1,1.2,2.3,1.7,3.9,1.4C448.9,73.6,450.5,74.7,451.9,76.3z
	 M424,63.7c1.4,1.3,2.7,2.6,4.3,4c-1.2,0.6-2,1-3,1.5C424.5,67.5,424.1,65.7,424,63.7z M446,71.2c-0.6,0.3-1.1-0.1-1.5-0.5
	c-2.1-2.4-4.5-2.4-7.2-1.2c-2.3,1.1-4.3,0.5-6.1-1.2c-3.1-2.9-6.1-5.9-9-9.6c3,0.1,5.4-0.5,7.8-1.2c0.8-0.3,1.7-0.5,2.6-0.5
	c1.3-0.1,2.6,0.2,3.3,1.5c1.5,2.5,3.7,3.9,6.2,5c3,1.3,4.4,3.5,4.3,6.3C446.4,70.2,446.6,70.9,446,71.2z M423.4,70.5
	c0.2,0.5-0.1,0.9-0.5,1.3c-0.5,0.4-1.1,0.6-1.2-0.3c-0.5-3.5-1.6-6.9-1.2-10.6C421.5,64.1,422.5,67.3,423.4,70.5z M420.8,55.2
	c-0.8,0.2-1.7-0.1-2.5,0.4c-0.7,0.5-1.4-0.1-2-0.2c-0.7-0.2-0.6-0.7-0.2-1.1c0.8-0.8,1.6-1.6,2.6-2c1.4-0.7,2.3-0.2,2.3,1.5
	C420.9,54.2,420.8,54.6,420.8,55.2z M392.2,87.7c2.2,1,2.4,1.5,1.9,3.9c-0.4,1.9-0.1,2.6,1.5,3.6c0.3,0.2,0.7,0.3,1,0.6
	c1,0.7,1,1.3,0.1,2.1c-0.2,0.2-0.4,0.3-0.6,0.4c-1.8,1.1-2.9,2.7-3.6,4.6c-0.6,1.7-1.6,1.8-2.7,0.5c-0.4-0.5-0.8-1.2-1.1-1.9
	c-0.7-1.5-1.6-2.7-2.9-3.7c-1.4-1-2.2-2.5-2.6-4.2c-0.3-1.1-0.4-2.2-0.6-3.3c-0.1-1,0-1.9,1.2-2.7c0.7,4.3,3.5,6.9,6.4,9.8
	c0.1-1.5-0.8-2.2-1.4-2.9c-1.5-2.1-2.9-4.2-3.4-6.8c-0.1-0.6-0.3-1.2,0.3-1.8c0.7-0.7,1.2-1.2,2.2-0.3
	C389.1,86.7,390.8,87.1,392.2,87.7z M391.6,109.8c-4.6-2.1-7.3-5.5-9.7-9.1c-0.2-0.3-0.2-0.6-0.3-0.9c-0.1-0.5,0.2-0.7,0.5-1
	c0.4-0.3,0.7-0.3,1,0c1.3,1.2,2.8,2.3,3.6,4.1c0.8,1.9,1.9,3.4,4.1,4C392.3,107.3,391.1,108.5,391.6,109.8z M386.1,79.2
	c-0.2,2.5-0.8,4.9-3.2,6.3c-0.9,0.5-1.4,1.5-2.3,2.4c-2.8-2.1-4.5-4.8-5.7-8.4c-0.4,2.2,0.1,3.9,1.2,6.1c0.9,1.8,2.5,3,3.9,4.5
	c-0.8,0.4-1.2-0.2-1.6-0.4c-3-2-5.4-4.5-7.1-7.7c-0.2-0.3-0.3-0.6-0.5-0.8c-0.2-0.3-0.4-0.5-0.8-0.4c-0.5,0.2-0.5,0.6-0.3,1
	c1.4,3.7,2.4,7.5,5.7,10c0.1,0.1,0.2,0.2,0.3,0.4c-0.2,0.7-0.7,0.5-1.2,0.4c-4.9-0.4-8.8-2.8-12-6.2c-0.6-0.6-1.1-1.4-1.4-2.2
	c-0.5-1.4-0.4-1.9,0.9-2.8c1.3-0.8,2-2,2.3-3.5c0.1-0.4,0.1-0.8,0.2-1.2c0.8-3.3,1.1-3.6,4.5-3.5c2,0.1,3.6-0.6,5-1.9
	c0.7-0.6,1.3-1.2,2-1.7c1.6-1,2.7-0.7,3.4,1.1c0.3,0.8,0.5,1.7,0.7,2.5c0.4,1.7,1.4,2.6,3.2,2.7C385.8,76.1,386.3,76.8,386.1,79.2z
	 M380.3,96.7c-0.9,0.6-1.4,1.5-2.3,2.6c-0.3-0.8-0.5-1.2-0.5-1.6c-0.2-1.1-0.7-1.7-1.9-1.9c-0.5,0-1,0-1-0.7c0-0.5,0.5-0.5,0.9-0.6
	c1.1-0.3,2.1-0.6,3.2-0.8c0.6-0.1,1.6-0.5,1.8,0.5C380.9,95.1,381.3,96.1,380.3,96.7z M375.8,140.3c-2.1-1.9-4.3-3.3-7.3-2.7
	c-1,0.2-1.5-0.3-1.9-1.1c-1-1.9-1.6-3.8-1.7-6c-0.1-3.8,0.5-7.5,1.5-11.1c0.8-3.3,1.7-6.6,2.9-9.9c1.2-3.4,3-6.3,5.6-8.9
	c-1.7,3.6-3.1,7.3-3.5,11.3c-0.1,1.3-0.1,2.5,0,3.8c1.1-1.4,0.9-3.2,1.5-4.7c0.6-1.6,1-3.3,2.1-4.8c-1.1,6.1-0.3,11.9,2.1,17.5
	c0.3,0.6,0.4,1.4,1.5,1.6c-1.2-5.4-2.4-10.8-1.8-16.4c0.3-2.4,0.9-4.7,1.8-7c0.5,2,0.3,4.1,0.8,6.1c0.5,2.1,1.2,4.1,2.2,6.1
	c1,1.9,1.9,3.9,3.5,5.5c-1.5-4.4-3.8-8.5-4.2-13.2c0.9-0.1,1.1,0.6,1.5,1.1c2.2,2.8,5,4.9,8.4,6.1c0.5,0.2,0.9,0.4,1.3,0.6
	c2.1,1,2.2,1,1.6,3.2c-0.4,1.6,0.9,2.7,0.8,4.1c-0.1,1.3-0.8,2.6-0.2,4c0.4,0.8,0.8,1.6,1.2,2.3c1,1.7,1.6,3.5,1.7,5.4
	c0.1,1.7-0.2,2.2-1.8,2.6c-2.4,0.5-3.7,2-4.4,4.2c-0.5,1.6-0.6,1.7-2.1,1.3c-1.7-0.5-3.1-0.1-4,1.3c-1.8,2.8-3.8,2.1-5.8,0.4
	C377.9,142.3,376.8,141.2,375.8,140.3z M407.5,179.8c-3.2,3.6-7.1,4.7-11.7,3.5c-1.9-0.5-3.8-1.4-5.4-2.5c-2.1-1.4-4.3-2.7-6.8-3.4
	c-1.5-0.4-2.4-1.4-2.3-3c0.1-2.9-1.2-5.1-3.3-6.9c-1.4-1.1-1.9-2.4-1.2-4.2c0.6-1.6,0.4-3.1-0.6-4.6c-1.6-2.3-0.9-4.6,0.5-6.7
	c1.3-2.1,3.4-2.4,5.7-1.8c2.3,0.6,4.6,1.2,6.9,1.8c1.3,0.3,2.6,0.6,3.8,0.2c2.9-0.9,5.3,0.7,8.2,1.1c-1.4,1.3-3.1,1.4-4.5,2.2
	c1.9,0.8,2.5,0.7,9.7-2.2c-1.2,2.7-3.1,4.6-5.3,6.2c-2.1,1.5-4.6,2.5-7.3,3.4c1.9,0.7,5.8-0.5,9-2.5c2.7-1.7,4.6-4.1,6.1-7
	c1.1,0.9,1.1,1.9,1,2.8c-0.5,4.3,0.2,8.6,0.7,12.9C411.2,173.1,410.2,176.7,407.5,179.8z M440.9,177.8c-1.1,0.9-1.3,1.9-1.2,3.2
	c0.1,2.8,0.1,2.8-2.6,4c-0.7,0.3-1.3,0.7-1.6,1.4c-1.1,2.4-3.2,3.5-5.6,4.2c-1.3,0.4-2.6,0.6-4,0.8c-1.3,0.2-2.6-0.1-3.7-0.8
	c-1.6-1-3.3-1.3-5-0.6c-0.4,0.1-0.8,0.3-1.2,0.1c-1.6-1.1-3.1-2.2-4.7-3.3c-0.3-0.2-0.4-0.7-0.4-1.1c0-1-0.1-1.9-0.3-2.9
	c-0.2-0.8,0-1.6,0.5-2.3c3.5-4.8,3.5-10.1,2.4-15.6c-0.6-2.8-1-5.6-0.9-8.5c2.2,8.4,5.8,16.4,6.6,25.1c0.9,0.1,0.8-0.5,0.9-0.9
	c0.4-2.8-0.1-5.6-0.8-8.3c-1.1-4.2-2.3-8.5-3.5-12.8c0.8,0,1.1,0.6,1.5,1c2.8,2.7,5.6,5.3,8.7,7.5c1.5,1,3,1.8,4.7,2.3
	c0.8,0.2,1.6,0.6,2.5,0.2c0-0.6-0.4-0.7-0.8-0.8c-2.9-0.7-5.2-2.3-7.5-4.2c-3.8-3.2-7.3-6.7-10.2-10.6c0.1-0.6,0.4-0.6,0.8-0.6
	c2.1,0.1,4.1-0.4,6.1-1c1-0.3,2-0.6,3-0.6c1.4,0,2.7,0.2,3.5,1.6c1.4,2.3,3.4,3.7,5.9,4.7c1.3,0.5,2.4,1.2,3.3,2.3
	c1,1.3,1.5,2.7,1.3,4.3c-0.5,2.9,0.2,5.4,2.2,7.6c0.4,0.4,0.6,0.9,0.8,1.5C442.4,176.3,442.4,176.7,440.9,177.8z M452.7,146.8
	c-2.3,2.4-2.4,2.7-1,5.6c0.4,0.8,0.2,1.2-0.4,1.6c-1.1,0.7-1.8,1.6-1.5,3c0.2,0.8-0.4,1.1-1,1.4c-1.4,0.8-2.8,1.4-4.4,1.8
	c-1.9,0.4-3.5,0.5-4.9-1.3c-1.1-1.5-3-2-4.7-2.8c-1.4-0.6-2.8-1.1-3.5-2.6c0.4-0.4,0.8-0.5,1.3-0.7c2.3-0.9,2.3-0.9,3.8,1
	c1.2,1.5,2.3,1.9,3.9,0.8c2.9-1.9,5.6-3.9,8.1-6.3c1.5-1.5,2.2-3.5,2.5-5.6c0.1-0.7-0.1-1.4,0.3-2.3c1.2,1.5,2,3.1,2.2,4.9
	C453.4,146,453.1,146.4,452.7,146.8z M492.6,146.5c-0.6,0.4-1.2,0.8-1.8,1.2c-0.9,0.7-1.7,1.4-2.4,2.4c-1.1,1.7-1.2,3.4-0.4,5.2
	c1,2.5,1,2.6-1,4.2c-1.7,1.3-2.4,2.9-2.2,5c0.1,0.6,0.1,1.1,0.2,1.7c0.1,1-0.3,1.7-1.3,2c-1.9,0.5-3.1,1.9-4,3.6
	c-0.4,0.8-0.8,1.6-1.5,2.2c-1,1-1.9,1.2-3,0.3c-2-1.7-4.1-1.9-6.5-1.1c-1.9,0.6-2.1,0.5-2.7-1.5c-0.1-0.5-0.2-0.9-0.4-1.4
	c-0.7-2-1.9-2.8-4-2.6c-0.8,0-1.6,0.2-2.4,0.4c-1.2,0.3-2.2,0.2-3.1-0.8c-0.9-1-0.8-2-0.3-3.1c0.7-1.4,1-2.9,0.7-4.4
	c-0.1-0.5-0.2-0.8-0.5-1.2c-0.3-0.4-0.6-0.9-0.9-1.3c-0.6-0.9-1.3-2-1.7-3c-0.2-0.6-0.2-1.2-0.3-1.8c-0.2-1.1-0.1-2.5,0.5-3.5
	c0.5-0.8,1.2-1.4,1.6-2.3c0.3-0.8,0.3-1.9,1-2.5c0.4-0.4,1-0.1,1.5-0.1c1.5,0,3-0.4,3.7-1.8c1.1-2,2.7-2.7,4.9-2.7
	c1,0,1.9-0.2,2.9,0.5c0.8,0.6,1.3,1.1,1,2.2c-0.4,1.1-0.4,2.2-0.3,3.3c0.1,2.6,1.7,4.1,4.3,4.2c0.8,0,1.6-0.3,2.6,0.1
	c-1.1,5.4-4.7,9.2-7.6,13.4c0.3,0.4,0.5,0.4,0.7,0.2c3-3,5.7-6.2,7.5-10.1c0.4-0.9,0.7-2,1-3c0.5-1.6,0.8-1.9,2.5-1.8
	c0.5,0.1,1.1,0.2,1.6,0.4c2.6,1,4.9,0.3,6.9-1.4c0.8-0.7,1.4-1.5,2.2-2.2c0.6-0.5,1.3-1.4,2-0.6C494.2,145.3,493.2,146,492.6,146.5z
	 M492.2,141.2c-1.4,0.3-2.2,1.2-3,2.2c-0.7,0.9-1.3,1.8-2,2.7c-0.8,1-1.9,1.2-3,0.5c-2.5-1.6-5-1.4-7.5-0.3
	c-0.5,0.2-1.1,0.4-1.6,0.5c-1.7,0.3-2.6-0.5-2.6-2.2c0-0.8,0.1-1.6,0.3-2.4c0.3-2.4,0-2.9-2-4c-0.4-0.2-0.9-0.3-1-1.2
	c0.7,0,1.3,0,2-0.1c2-0.2,3.5-1.1,4-3.2c0.1-0.4,0.2-0.8,0.3-1.1c0.6-1.1,1.4-2.4,2.5-2.3c1.1,0,1,1.6,1.3,2.5
	c0.5,1.5,0.3,3.2,0.4,4.8c1-1.1,1.1-1.8,1.1-4.6c0-1.7-0.7-3.2-0.9-4.8c0.9-0.4,1,0.3,1.2,0.6c1.6,2.5,2.4,5.4,2.8,8.3
	c0.1,0.5,0,1,0.3,1.4c0.2,0.3,0.6,0.3,0.8,0c0.1-0.2,0.2-0.4,0.2-0.7c0.1-3.8,0.5-7.7-1.5-11.2c-0.2-0.3-0.4-0.5-0.1-1
	c5.7,2.2,8.8,6.6,10.3,12.2C495,140,494.3,140.8,492.2,141.2z M521,151.2c-0.1,1.8-0.5,2.3-2.3,2.5c-2.2,0.2-3.2,1.6-3.7,3.5
	c-0.5,1.9-0.8,3.8-1.9,5.4c-0.6,0.9-1.1,2.3-2.4,2.1c-1.5-0.3-0.8-1.8-1-2.9c-0.2-0.8-0.2-1.6-0.5-2.3c-0.8-2.2-2.6-3.1-5-2.4
	c-2.9,0.8-3.3,0.5-3.2-2.5c0-0.3,0-0.6,0.1-1c0.6-3.2-0.2-5.8-3.1-7.7c-1.3-0.9-1.9-2.4-1.3-3.7c1.1-3,0.7-5.8-0.5-8.6
	c-0.2-0.4-0.4-0.7-0.2-1.7c3.4,4.6,5.9,9.5,8.6,14.3c-1.8-7.8-5.2-14.7-11.3-20.2c2.9,0.6,5.1,2.2,6.7,4.5c0.9,1.3,1.4,2.7,2,4.1
	c0.7,1.8,1.5,3.5,2.8,5c2.1,2.3,4.2,2.7,6.8,1.1c1.2-0.7,2-0.6,3,0.2c0.8,0.6,1.7,1.1,2.7,0.9c1.1-0.2,1.6,0.3,2,1.2
	C520.6,145.7,521.3,148.4,521,151.2z M510.9,108.3c2,0.6,3.9,0.4,5.8-0.5c0.6-0.3,1.2-0.5,1.8-0.6c1.7-0.5,3,0,3.9,1.5
	c0.4,0.6,0.8,1.2,1.1,1.8c1,1.5,2.3,2.4,4,2.9c0.8,0.2,1.6,0.4,2.3,0.6c1.8,0.6,2.8,1.9,3,3.7c0.1,0.8,0.1,1.6,0.1,2.4
	c0,2.2,0.6,4.3,1.7,6.1c0.5,0.8,0.9,1.5,1.3,2.3c0.6,1.4,0.7,2.8-0.6,3.9c-0.7,0.7-1.3,1.5-1.5,2.4c-0.3,1.2-1,1.3-2,1
	c-0.8-0.2-1.5-0.6-2.2-0.9c-3.6-1.3-6.8-0.6-9.3,2.3c-0.1,0.1-0.2,0.2-0.3,0.4c-2.1,2.5-2.1,2.5-4.5,0.5c-1.4-1.2-2.9-1.1-4.5-0.4
	c-2.5,1.2-3,1-4.3-1.4c-0.7-1.4-1.3-2.9-2-4.4c-0.8-1.9-1.9-3.7-3.2-5.4c1.5-0.1,2.6,0.9,4,0.9c-3.2-3.4-7.8-3.9-12.3-5.2
	c8.7-1.4,14.4-1,20.6,1.4c0.2-0.8-0.5-0.9-0.9-1.2c-1.5-1.1-3.3-1.6-5.1-1.9c-5.5-1-11-1-16.5-0.1c-0.4,0.1-0.8,0.1-1.2,0.1
	c-0.2,0-0.3-0.1-0.9-0.2c5.3-2.1,10.5-3.4,15.8-4.4c-2.4-1.3-5-0.3-7.9-0.3c2.8-2.7,5.3-5.1,8.3-6.8
	C507.3,108.1,509.1,107.7,510.9,108.3z M508.7,93.5c-0.5,1.9-1.3,3.8-2.4,5.5c-3.1,5-6.5,9.7-10.5,14c-2.5,2.7-5.6,4.8-8.5,5.7
	c4.5-3.4,7.7-7.8,9.5-13.2c-2,2.6-4,5.3-6.5,7.6c3.1-5.9,5-12,4-19c-1.1,0.6-0.8,1.5-0.9,2.2c-0.8,7-3,13.4-7.5,18.9
	c-0.2,0.3-0.5,0.6-0.9,0.8c1-3.1,1.9-6.2,1.9-9.5c0-3.2-0.2-6.4-1.3-9.5c0,4.6,0.4,9.2-0.9,13.7c-0.9-0.1-0.8-0.9-1-1.5
	c-1-3.1-2.4-5.9-4.8-8.2c-0.4-0.4-0.8-0.8-0.9-1.4c-0.1-1.6-0.8-2.9-1.9-4c-0.9-0.9-1-1.8,0-2.6c0.3-0.3,0.5-0.6,0.9-0.8
	c2.1-1.7,2.7-3.8,2.1-6.4c-0.5-2-0.3-4.1,0.5-6.1c0.5-1.4,1.2-2,2.5-1.6c2.5,0.6,4.1-0.4,5.6-2.2c1.1-1.4,1.2-1.4,2.6-0.4
	c1.4,1,2.7,1,4.2,0.1c2.5-1.4,3.7-1.1,5.2,1.5c0.8,1.4,1.4,2.9,2.1,4.3c1.2,2.5,2.8,4.7,5.8,5.2c0.9,0.1,1.1,0.8,1.3,1.5
	C509.6,89.9,509.2,91.7,508.7,93.5z M492.5,66.5c0.2-0.1,0.3-0.2,0.5-0.4c1,1.4,2.1,2.8,3.1,4.2c-0.2,0.1-0.3,0.2-0.5,0.4
	C493.4,70.2,493.7,67.8,492.5,66.5z M523.9,70.4c0.8,0.4,1.5,1,2.1,1.6c1.2,1.2,1.3,1.7,0.3,3.3c-0.7,1.3-0.5,2.4,0.1,3.6
	c1.1,2.4,1.1,2.4-0.8,4.3c-0.6,0.6-1.1,1.4-1.2,2.3c-1,4.7-4.6,6.8-8.6,8.4c-0.4,0.2-0.9,0.2-1.4,0.2c-1.4,0-1.7-0.3-1.5-1.7
	c0.2-1.7,0.2-3.4-0.1-5c-0.4-2.2-1.4-3.9-3.8-4.3c-1.3-0.2-2.1-1-2.7-2.1c-0.9-1.7-1.8-3.4-2.6-5.1c-0.6-1.5-1.5-2.9-2.9-3.7
	c-1.9-1.1-2.8-2.9-4.1-4.6c1-0.2,1.7,0.3,2.4,0.6c3.3,1.3,6.7,2.6,10.2,3.4c2.1,0.5,4.3,0.5,6.4,0.3c0.5-0.1,1-0.1,1.1-0.9
	c-8.6,0.4-15.7-3.7-22.9-7.7c2.3-1,4.2-2.3,6-3.7c0.7-0.6,1.6-1.1,2.4-1.6c1.4-0.8,2.7-0.8,4,0.2c2.1,1.6,4.5,2.2,7.2,2.2
	c3.7,0.1,5.6,1.6,6.7,5.2C520.7,67.5,521.9,69.3,523.9,70.4z M499,33.7c0.9-2.3,2.6-4,4.3-5.7c1.4-1.3,3.2-1.7,5.1-1.6
	c2.6,0.1,5.3,0.4,7.9,0.6c1.1,0.1,1.5,0.5,1.3,1.7c-0.5,3.1-0.1,3.9,2.9,5.1c1.2,0.5,2.1,1.1,2.3,2.5c0.2,1.6,1.8,2.2,2.8,3.2
	c1,1,1,1.7,0.4,2.9c-1.3,2.5-1.1,3.4,1.1,5.3c0.7,0.6,0.8,1,0.2,1.7c-0.8,1-1.2,2.1-0.4,3.3c0.4,0.6,0.1,1.1-0.3,1.5
	c-1.4,1.7-2.9,3.2-4.9,4.2c-1.1,0.5-2.1,0.7-3.2,0c-1.5-0.9-3.1-1.1-4.9-1.1c-2.3,0.1-4.4-0.4-6.4-1.7c-2-1.3-4.1-1.2-6.1,0.1
	c-1.1,0.7-2.2,1.6-3.2,2.5c-1.3,1-2.5,2.2-4.3,2.9c-0.7-1.5-0.4-2.5,0.9-3.3c1.7-1,3.3-2.2,5.1-3.1c0.5-0.2,1.1-0.4,1.3-1.4
	c-3.3,0.8-6,2.6-8.8,4.5c-0.3-1,0.3-1.3,0.7-1.7c1.9-1.8,4.2-3.2,6.5-4.5c2.3-1.3,4.7-2.5,6.8-4c1-0.7,2.1-1.4,2.8-2.4
	c-0.4-0.4-0.7-0.5-1-0.3c-2.8,2-5.9,3.4-9,5c-2.8,1.4-5.6,2.8-7.6,5.3c-0.4,0.5-0.8,0.8-1.5,0.5c-1.1-0.6-2.2-0.2-3.3,0.1
	c0.1-1,0.8-1.3,1.4-1.8c1.2-1,2.3-2,3.2-3.2c2-2.6,2.9-5.5,2.3-8.8c-0.4-2.1,0.1-3.6,2-4.6C497.4,36.6,498.4,35.3,499,33.7z
	 M467.1,25c0.1-2.9,1.7-4.3,4.6-4.3c0.6,0,1.1,0,1.7,0.1c1.6,0.2,3.2,0,4.6-1c1.1-0.7,2.1-0.7,3,0.2c1.3,1.3,2.8,1.8,4.6,0.8
	c0.8-0.4,1.5-0.1,2.2,0.5c1.3,1.3,2.9,1.5,4.7,1c2.5-0.7,3.2-0.2,4,2.3c0.5,1.5,0.7,3.1,0.7,4.7c0,2.4-1,4.3-2.9,5.7
	c-0.3,0.2-0.5,0.4-0.8,0.5c-2.3,1.4-3,3.3-2.5,5.9c0.9,4.1-0.5,7.5-3,10.7c-0.1,0.2-0.4,0.3-0.6,0.4c0,0-0.1,0-0.4,0
	c-0.4-2.2-0.5-4.5-1-6.7c-0.8-3.5-2-6.9-3.7-10.1c-1.4-2.6-3.4-4.6-6.2-5.8c-2.4-1-4.8-1.1-7,0.6c-1.5,1.1-3,1.6-5.2,0.6
	C466.8,30,467,27.6,467.1,25z M459.7,37.1c0.2-0.3,0.3-0.7,0.4-1.1c0.9-2.2,1.4-2.5,3.9-1.9c2.2,0.5,4.3,0.3,6.1-1.1
	c1.9-1.5,3.8-1.4,5.8-0.2c1.8,1.1,3.2,2.5,4.1,4.3c2.9,6.1,4.4,12.5,4.9,19.2c0,0.4,0.1,0.8-0.5,1.3c-1.8-2.8-3.4-5.7-6.9-7.6
	c1.8,3.2,4.7,5.2,5.3,8.6c-1-0.2-1.3-0.9-1.8-1.3c-4.2-4-9.1-6.8-14.5-8.6c-0.4-0.1-0.8-0.3-1.1-0.4c-0.3,0-0.7,0-0.7,0.4
	c0,0.3,0.1,0.5,0.3,0.6c0.5,0.3,1,0.5,1.5,0.8c5.6,2.9,10.7,6.7,15.3,11.1c0.3,0.3,0.8,0.6,0.8,1.2c-1.6,1.4-3.6,2.2-5.8,2.2
	c-1.7,0-3.2,0.6-4.7,1.4c-3,1.7-6.4,2-9.7,0.7c-2.5-1-3.5-3.5-2.6-5.9c0.2-0.6,0.8-0.8,1.2-1.1c1.6-1.3,1.7-2.1,0.7-3.9
	c-1-1.8-0.9-1.9,0.5-3.2c1.8-1.8,1.9-2.1,1.1-4.4c-0.6-1.6-1.3-3.2-0.8-5.1c0.4-1.4-0.7-2.6-1.9-3.4C459.3,38.9,459,38.2,459.7,37.1
	z M444.1,29.8c1.5-0.7,3.1-0.6,4.7,0c2.8,1,5.4,2.4,8,3.7c1,0.5,1.2,1,0.5,2.1c-1.6,2.5-1.4,3.6,0.7,5.6c1,0.9,1.7,1.8,1.4,3.3
	c-0.2,1.1,0.5,2,1,2.9c1.2,2.4,1.2,2.4-0.7,4.2c-1.5,1.5-1.7,3-0.7,4.8c0.2,0.4,0.6,0.7,0.7,1.2c-0.2,0.6-0.8,0.8-1.2,1.1
	c-0.8,0.6-1.3,1.2-1.1,2.2c0.2,0.8-0.1,1.4-0.8,1.8c-1.9,1-3.9,1.9-6.1,2.1c-1.2,0.1-2.2-0.1-3-1.2c-1-1.3-2.4-2.1-3.9-2.6
	c-2.3-0.8-4.3-2.1-5.7-4.2c-1.1-1.6-2.7-2.1-4.6-2c-1.4,0.1-2.7,0.5-4,0.9c-1.9,0.7-3.8,1.4-5.8,1.5c-0.1-2.2-0.1-2.2,1.9-2.7
	c1.9-0.4,3.7-0.9,5.6-1c0.5,0,1.1,0,1.5-0.5c-1.4-0.5-2.8-0.5-4.7-0.3c-1.6,0.2-3,0.8-4.7,0.8c0.5-1.1,1.4-1.2,2.2-1.4
	c3-1.1,6.2-1.5,9.4-1.9c2.5-0.3,4.9-0.7,7.3-1.4c0.6-0.2,1.2-0.3,1.5-0.9c-0.2-0.4-0.4-0.5-0.6-0.4c-4.1,1.1-8.4,1.1-12.6,1.6
	c-2.2,0.3-4.4,0.7-6.4,1.7c-0.7,0.3-1.3,0.6-1.9-0.1c-0.8-0.8-1.8-0.9-2.9-0.9c0.2-0.9,0.9-1,1.4-1.1c1.3-0.4,2.6-0.9,3.8-1.5
	c3-1.6,5.2-4,5.9-7.4c0.5-2.3,1.4-3.8,3.9-4c1.6-0.2,3-1.1,4.1-2.3C439.9,31.6,442,30.7,444.1,29.8z M411.1,14.8
	c1.6-3.9,3.7-4.6,7.3-2.7c1.7,0.9,3.4,1.4,5.3,0.9c1.3-0.3,2,0.2,2.5,1.3c0.8,1.6,1.9,2.8,3.9,2.4c0.8-0.1,1.4,0.3,1.7,1
	c0.9,1.9,2.3,2.7,4.3,2.8c2.3,0.2,2.9,1,2.7,3.3c-0.1,1.4-0.3,2.9-0.8,4.2c-0.9,2.7-2.7,4.6-5.5,5.1c-3,0.5-4.5,2.2-5.1,5.2
	c-0.8,4.2-3.5,6.9-7.4,8.9c-0.2-1.3,0.4-2.2,0.6-3.2c1.1-5.1,1.7-10.2,0.8-15.5c-0.4-2.7-1.7-5-3.7-6.8c-1.8-1.7-3.8-2.5-6.3-1.8
	c-1.8,0.5-3.6,0.6-5.3-1.4C409,18.3,410.3,16.9,411.1,14.8z M389.1,31.8c1.4-0.8,2.4-1.8,2.8-3.3c0.4-1.6,1.5-2.6,3.1-3
	c2.5-0.6,4.5-2,6.1-3.9c1.4-1.6,2.2-1.7,3.9-0.5c2,1.4,4.1,2,6.5,1.3c2.2-0.6,3.9,0.2,5.3,1.9c1.2,1.5,2,3.3,2.2,5.2
	c0.5,6.8-0.2,13.4-2.4,19.8c-0.1,0.4-0.3,0.8-0.8,1c-0.5-3.2-1.4-6.1-3.3-9.2c-0.6,1.4,0.2,2.2,0.4,3.1c0.2,1.1,0.7,2.1,0.9,3.2
	c0.2,1,0.4,2,0,3.2c-0.8-0.4-0.8-1.1-1.1-1.7c-2.4-5.2-6-9.6-10.3-13.4c-0.3-0.3-0.6-0.5-0.9-0.7c-0.3-0.2-0.6-0.3-0.9-0.1
	c-0.3,0.3-0.2,0.6,0,0.8c0.3,0.4,0.7,0.8,1.1,1.3c4.1,4.7,7.4,10,10.1,15.6c0.8,1.6,0.7,1.6-1,2c-1.7,0.3-3.3,0.2-4.9-0.4
	c-1.5-0.6-3-0.8-4.7-0.3c-1.7,0.5-3.3,0-4.9-0.5c-0.4-0.1-0.9-0.3-1.1-0.8c-0.2-0.3-0.4-0.8-0.7-1c-2.7-1.5-3.5-3.8-3.3-6.8
	c0.1-1.1-0.4-2.3-0.4-3.5c0-1.2-0.7-2.1-1.4-2.9c-0.5-0.5-1-1-1.4-1.6C386.7,34.7,387.1,32.9,389.1,31.8z M360.3,76
	c0.5-0.7,1-1.5,1.4-2.2c1.7-3.1,1.4-5.3-1.1-7.8c-1.4-1.5-1.5-1.7-0.4-3.5c1.4-2.2,1.3-4.3,0-6.5c-1.1-1.8-1-1.8,0.5-3.4
	c1-1.1,1.6-2.4,1.8-3.8c0.1-0.6,0.2-1.3,0.3-1.9c0.3-2.1,1.6-3.4,3.9-2.5c1.6,0.7,3.1,0.1,4.5-0.8c0.6-0.4,1.2-0.9,1.7-1.3
	c0.7-0.6,1.3-0.4,1.8,0.3c0.4,0.5,0.8,1,1.2,1.5c1.6,1.9,3.3,2.2,5.5,1c0.7-0.4,1.3-0.9,2-1.3c1.9-1.1,3.8-0.1,4,2c0,0.3,0,0.6,0,1
	c-0.1,2.9,1.1,4.9,3.7,6.1c1.8,0.8,1.7,0.9,1.2,2.7c-0.2,0.8-0.5,1.5-0.6,2.3c-0.3,1.8,0,3.5,1.4,4.9c2.6,2.5,2.3,4.8,0.2,7.9
	c-0.3,0.4-0.6,0.8-0.9,1.1c-1.5,1.4-3.1,2.8-4.8,4.4c-0.9-1.5-2.1-2.3-3.6-2.5c-1-0.1-1.3-0.7-1.5-1.5c-0.2-0.9-0.4-1.9-0.7-2.8
	c-1.1-2.8-3.3-3.8-6.2-2.6c-0.6,0.2-1.2,0.5-1.9,0.9c-0.7-1.5-0.6-3-0.5-4.4c0.3-3.1,1-6.1,1.8-9.1c0.2-0.7,0.5-1.3,0.3-2.1
	c-0.3,0.2-0.5,0.3-0.6,0.5c-1.7,4.2-3.2,8.4-3.1,12.9c0,0.7,0.1,1.4,0.2,2.1c0.2,1.7-0.1,2.3-1.7,2.7c-0.6,0.2-1.3,0.2-1.9,0.2
	c-2.5,0.1-4.2,1.4-5.3,3.5c-0.5,1-0.9,2-1.3,3.1c-0.2,0.5-0.4,1.1-0.9,1.4c-0.3,0.2-0.6,0.3-0.9,0.1c-0.1-0.1-0.2-0.4-0.2-0.7
	C359.5,77.1,359.9,76.6,360.3,76z M332,82.7c-0.6-1.7-0.4-2.4,1.3-3.4c1.6-0.9,2.2-2.2,2-4c-0.1-1-0.2-2.1-0.4-3.1
	c-0.3-1.8,0-3.5,0.7-5.2c0.5-1.3,1.3-1.4,2-0.2c0.5,0.7,0.8,1.6,1.2,2.3c1.7,3.1,4.2,3.5,6.9,1.3c1.6-1.4,2.4-1.2,3.2,0.7
	c0.4,0.9,0.6,1.8,0.8,2.7c0.6,2.5,2.1,4.1,4.6,4.7c0.5,0.1,0.9,0.2,1.4,0.5c1.3,0.7,2.2,1.7,2.2,3.1c0,2.9,1.4,5.2,3.3,7.2
	c0.5,0.6,1.1,1.1,1.6,1.6c-5.2-2.3-9.2-6.2-13.6-9.6c4.5,6.5,10.1,11.5,17.7,14.2c-1.6,0.7-3.2,0.2-4.8-0.2c-1.9-0.5-3.5-1.6-4.9-3
	c-1.1-1.1-2.3-2.3-3.4-3.3c-1.2-1.1-2.5-1.9-4.1-2.3c-2.1-0.5-3.9-0.1-5.1,1.7c-0.8,1.3-1.8,1.7-3.2,1.2c-1-0.4-2.1-0.3-3,0.3
	c-0.7,0.4-1.2,0.2-1.7-0.3C334.6,87.7,332.9,85.4,332,82.7z M237,146.5c2.6-2.7,9.8-5.4,14.1-5.2c-1.8,1.2-3.4,1.7-4.9,2.3
	c-1.4,0.6-3,0.8-4.1,2.1c3.4-0.1,6.4-1.5,9.7-2.4C248.9,146,241,147.7,237,146.5z M260.6,155.1c0.4,2.9,1,5.4,0,8.4
	c-1.9-2.8-3.4-5.4-2.8-8.7c1.1,1.4,0.8,3.3,2.1,4.9C260.6,158.3,259.8,156.7,260.6,155.1z M239.1,169.4c-0.6,2.1-1.2,3.9-2,5.6
	c-0.7-0.2-1.3-0.3-1.8-0.9C236.3,172.5,237.4,171,239.1,169.4z"/>
</svg>
