<?xml version="1.0" encoding="utf-8"?>
<!-- Generator: Adobe Illustrator 25.3.1, SVG Export Plug-In . SVG Version: 6.00 Build 0)  -->
<svg version="1.1" id="Layer_1" xmlns="http://www.w3.org/2000/svg" xmlns:xlink="http://www.w3.org/1999/xlink" x="0px" y="0px"
	 viewBox="0 0 841.9 595.3" style="enable-background:new 0 0 841.9 595.3;" xml:space="preserve">
<path d="M740.1,364.8c-3-3.1-6.4-5.8-10-8.2c-7.7-5.1-16.1-6.9-25.1-5c-6.9,1.4-13.1,4.6-19,8.3c-0.7,0.4-1.4,0.9-2.3,1.4
	c0.2-1,0.8-1.3,1.2-1.8c2.8-3.3,5.8-6.4,8.5-9.8c1-1.3,2.1-1.7,3.7-1.7c9.4,0.1,18.9,0,28.3,0c0.6,0,1.3,0,1.9,0
	c1.5-0.1,2.5-1.1,2.5-2.4c0-1.4-1-2.4-2.6-2.5c-0.6,0-1.1,0-1.7,0c-200.5,0-400.9,0-601.4,0c-0.6,0-1.1,0-1.7,0
	c-1.6,0.1-2.6,1.1-2.6,2.5c0,1.4,0.9,2.3,2.5,2.4c0.6,0.1,1.3,0,1.9,0c10.9,0,21.8,0,32.6,0c1.5,0,2.5,0.4,3.5,1.6
	c2.5,3.1,5.2,6,7.9,9.1c0.4,0.5,0.8,1,1.4,1.8c-1.1-0.2-1.7-0.8-2.3-1.2c-5-3.2-10.2-6-16-7.6c-4.3-1.2-8.7-2.1-13.2-1.3
	c-4.3,0.7-8.5,1.5-12.3,3.8c-5,3-9.6,6.6-13.7,10.8c-0.8,0.9-1.2,2.1-2.3,2.7c0,0.3,0,0.6,0,1c1.4,1.3,2.8,1.2,4.3,0.2
	c0.3-0.2,0.7-0.4,1-0.6c2.2-1.5,4.9-2,7.4-2.8c1.2-0.4,2.5-0.4,3.8,0c7.1,2.1,14.3,4,21.7,5.2c3.3,0.6,6.6,0.8,10,0.6
	c5.1-0.3,10.2-0.9,15.3-0.6c3.6,0.2,7.1,1.1,10,3c3.8,2.6,7.4,5.6,10.7,8.9c2.3,2.2,4.6,4.5,5.9,7.5c4.2,9.7,9,19.1,14.2,28.3
	c0.3,0.5,0.9,1,0.5,1.7c-1.8,0.4-3.3-0.4-4.9-0.9c-1.9-0.5-2.5-1.5-2.3-3.4c0.1-0.8,0.8-1.1,1.2-1.8c0.8-1.4,0.6-3.1-0.5-4.5
	c-1-1.3-2.5-1.8-3.8-1.4c-1.4,0.4-2.6,2.1-2.6,3.7c0,1.5,0.5,2.7,1.8,3.4c0.7,0.4,1.4,0.8,0.8,2c-1.9-1-3.6-2-5.4-2.7
	c-2.4-1-3.4-2.6-3.2-5.1c0.1-1,0-1.9,1-2.7c1.9-1.5,1.7-4.1-0.1-5.9c-1.7-1.6-4.2-1.6-5.5,0.1c-1.4,1.8-1.1,4.8,0.9,5.9
	c1.8,1,1.6,2.2,1.4,4.1c-2.9-1.9-5.4-3.7-7.4-6c-0.9-1.1-1-3-1.4-4.5c-0.1-0.5,0.5-0.8,0.8-1.1c1.1-1.1,1.4-2.5,1-4
	c-0.4-1.4-1.3-2.2-2.7-2.4c-1.2-0.2-2.2,0.5-2.9,1.4c-1.2,1.6-1.2,3.2,0.1,4.8c0.4,0.5,1.1,0.7,0.7,1.6c-0.2-0.1-0.4-0.2-0.6-0.4
	c-1.2-1.2-2.4-2.4-3.6-3.5c-0.9-0.8-1.5-1.6-1-3.1c0.5-1.7-1.1-3.6-2.9-4c-1.7-0.4-3.2,0.4-3.7,1.9c-0.6,1.8,0.4,3.8,2.1,4.6
	c0.2,0.1,0.4,0.2,0.7,0.2c1.7,0.2,2.3,1.6,3.1,2.8c-1.1,0.3-1.5-0.2-2-0.8c-1.1-1.3-2.6-1.6-4.1-1c-1.6,0.7-2.4,2.1-2.6,3.8
	c-0.1,2.4,2.4,4.2,4.6,3.4c1-0.4,1.5-1.2,2-2c0.5-0.8,1.1-1,2-1c2.8,0.1,4.6,1.2,6.4,4.3c-0.7,0.2-1-0.3-1.4-0.7
	c-0.5-0.7-1.2-1.1-2-1.2c-2.2-0.3-4.3,1-4.8,3.1c-0.5,2,1,4.7,3,5.5c1.9,0.8,4,0,5.1-1.9c0.3-0.5,0.3-1.3,0.9-1.3
	c1.6,0,3.3-0.5,4.8,0.7c2,1.6,4.1,3,6.2,4.5c0.4,0.3,1.1,0.4,1,1.1c-1.6,0.8-2.9,0.8-4.5-0.5c-1.8-1.5-4.9-0.7-6.1,1.3
	c-1.1,1.8-0.6,3.8,1.2,5c2.2,1.5,5.3,1.2,6.4-0.8c0.5-1,1.2-1.4,2.2-1.6c1-0.3,2-0.4,3-0.8c1.8-0.7,3.4-0.2,5,1
	c-1.2,0.8-2.2,1.5-3.8,1.1c-1.9-0.5-3.3,0.2-4.1,1.7c-0.8,1.4-0.5,3.4,0.5,4.7c1.1,1.3,2.7,1.8,4.3,1.2c1.6-0.6,2.6-1.9,2.5-3.7
	c-0.1-1.5,0.7-2,1.6-2.6c1-0.6,1.7-1.5,3.2-0.9c2.3,1,4.8,1.4,7.1,2.1c2.2,0.7,4.5,1.4,6,3.6c10.7,17.1,23.5,32.3,38.1,46.1
	c0.6,0.5,1.3,0.9,1.5,1.8c-1,0.3-1.7-0.3-2.5-0.6c-2.7-1-5.4-1.9-8.2-2.7c-5.7-1.5-11.1-3.6-16.2-6.5c-6-3.3-12-6.7-18-10.1
	c-4-2.3-7.7-5.1-11.1-8.3c-1.5-1.4-2.9-3-4.1-4.7c-0.2-0.3-0.5-0.7-1-0.5c-0.6,0.3-0.4,0.8-0.2,1.2c0.3,0.6,0.6,1.1,0.9,1.7
	c1.5,2.4,3.2,4.6,5.3,6.5c4.4,4.2,8.8,8.4,13.2,12.6c7,6.6,15.2,11.4,24.3,14.5c5.7,2,11.5,3.5,17.6,3.1c1.8-0.1,3.5,0,5.3,0
	c1.4,0,2.6,0.4,3.7,1.3c9.2,7.6,19.1,14.3,29,20.9c0.5,0.3,1.1,0.5,1.3,1.2c-0.5,0.2-1,0-1.4-0.1c-13.2-3-26.5-6.2-40.1-7
	c-3.5-0.2-6.9-1.6-9.9-3.4c-2.6-1.5-5-3.4-7.1-5.7c-2.2-2.5-4.8-4.7-7.9-6.2c-5.4-2.7-11.3-4-16.7-6.7c-0.7-0.4-1.4-0.3-1.9,0.4
	c-0.5,0.6-0.3,1.2,0,1.8c0.9,1.3,1.7,2.7,2.4,4.2c0.6,1.4,1.5,2.6,2.5,3.8c4.5,5.1,10,8.5,16.7,9.6c2.2,0.4,4.4,0.6,6.7,0.8
	c0.8,0.1,1.6-0.1,2.3,1c-6.8-0.1-13.4,0.3-20,0.4c-0.8,0-1.1-0.4-1.2-1.2c-0.2-1.7-1.2-3-2.9-3.5c-1.4-0.4-2.8-0.6-4.3-0.6
	c-2.1-0.1-3.4,1.3-3.6,3.4c-0.1,0.9,0.5,1.9-0.2,2.5c-0.7,0.6-1.7,0.3-2.5,0.5c-0.5,0.1-0.9,0.2-1.4,0.2c-0.9,0-1.8,0.6-2.6,0
	c-0.7-0.4-0.2-1.3-0.5-2c-0.7-1.7-1.6-2.3-3.4-1.9c-1.8,0.4-3.5,1-3.7,3.2c-0.1,0.8-0.5,0.9-1.1,0.9c-0.7,0-0.6-0.5-0.6-1
	c0-0.5,0.1-1,0-1.4c-0.3-1.3-0.9-2.5-2.2-2.8c-3.6-0.9-6,1.3-5.3,5c0.2,0.8,0,1-0.7,1.2c-0.5,0.1-1,0.1-1.4,0.2
	c-1.1,0.4-1.9,0.2-2.7-0.8c-1.2-1.5-2.9-1.5-4.8-0.4c-1.4,0.8-2.1,2.3-1.7,3.9c0.4,1.4,1.6,2.3,3.2,2.4c1.5,0.1,2.6-0.7,3.6-1.6
	c0.5,0.4,0.4,0.9,0.6,1.3c1,2,3.3,2.7,5.2,1.6c0.4-0.2,0.7-0.6,1.1-0.9c0.8-0.5,1.9-0.3,2.4,0.5c0.2,0.4,0.4,0.9,0.7,1.3
	c1.3,1.8,3.4,2.4,5.3,1.5c1.9-0.9,2.6-2.5,2.1-4.8c-0.3-1.3-0.3-1.3,1.7-1.5c0.1,0.5,0.1,0.9,0.3,1.4c0.7,1.9,3.2,3.3,5.2,2.9
	c2-0.4,3.4-2,3.4-4.3c0-1.8,0.2-1.9,1.9-1.9c0.6,0,1.1,0.2,1.6,0.4c1.5,0.7,3.1,0.7,4.6,0c0.8-0.4,1.7-0.5,2.6-0.5
	c4.2,0,8.3,0,12.5,0c0.5,0,1.1-0.2,1.7,0.4c-1.1,1.1-2.5,1.5-4,1.7c-4.8,0.6-8.3,3.1-10.4,7.5c-1.3,2.7-1.8,5.6-2.5,8.5
	c-0.4,1.4,0.3,2,1.7,1.6c3.4-1,6.5-2.5,9.2-5c2.9-2.7,4.8-6,6.2-9.6c0.2-0.5,0.2-1.1,0.7-1.5c2.6-1.7,5-3.6,8.5-3.5
	c7.2,0.3,14.4,0.9,21.5,2.1c1.3,0.2,2.7,0.2,4.1,1c-1.7,0.9-3.2,1.7-4.7,2.5c-1.9,1-3.7,2.6-6.2,2.1c-0.3-0.1-0.6,0.1-0.9,0.2
	c-2,0.4-4,1.2-5.9,2c-0.5,0.2-1,0.5-1.8,0.1c-2.4-1.4-3.7-1.1-5.4,0.9c-1.5,1.8-0.9,4.3,1.2,5.2c0.6,0.2,1.3,0.3,2,0.5
	c-0.8,1-1.5,1.6-2.7,1.8c-3.1,0.4-5.8,1.7-8.6,3c-1.1,0.5-1.9,0.6-3.1,0.1c-2.7-1.2-5.4,1.1-5,4.1c0.3,2.2,2,3.6,4.2,3.5
	c2.1-0.1,3.4-1.4,3.6-3.7c0-0.6-0.2-1.3,0.7-1.6c1.6-0.5,3.2-1.3,5.2-1.6c-1.6,2-3,3.9-4.4,5.7c-0.2,0.3-0.6,0.7-0.9,0.8
	c-2.9,0.8-5.4,2.5-7.8,4.1c-0.9,0.5-1.5,0.2-2.2-0.1c-2-0.7-3.8-0.1-4.5,1.5c-0.7,1.7-0.7,3.5,0.5,5c1.1,1.5,3.1,2,4.7,1.4
	c1.7-0.7,2.4-1.9,2.3-4c0-0.6-0.4-1.3,0.3-1.7c1.3-0.8,2.6-1.7,4.6-2.3c-1,2.1-1.9,3.8-2.6,5.5c-0.4,1-1.4,0.9-2.1,1.5
	c-1.4,1.2-1.8,3.1-0.9,4.8c0.9,1.7,3.5,2.7,5.1,2.1c1.7-0.6,2.6-2.4,2.3-4.3c-0.1-0.8-0.4-1.6-1-2.1c-0.9-0.7-0.7-1.4-0.3-2.3
	c1.3-2.6,2.7-5.2,4.5-7.7c0.3-0.4,0.4-1.1,1.3-1c0.1,2.4,0.9,4.9-0.8,7.1c-0.1,0.2-0.2,0.5-0.2,0.7c-0.2,1.3-0.1,2.6,1.1,3.5
	c1.3,0.9,2.7,1.1,4.1,0.5c1.3-0.6,2.2-1.7,2.1-3.2c0-1.8-0.9-3.3-2.6-3.9c-1.1-0.4-1.3-1-1.2-2c0.1-1.6,0.1-3.2,0.2-4.8
	c0.1-1.5,0.7-2.7,1.8-3.8c2.1-2.1,4.4-4,6.8-5.7c0.4-0.3,0.8-0.9,1.5-0.4c0.1,0.8,0,1.7,0.2,2.6c0.3,1.4,0.2,2.3-1.2,3.2
	c-1.6,1-1.8,2.8-0.9,4.5c1.4,2.6,4.3,3.5,6.9,2c0.5-0.3,1.4-0.3,1.6-1.2c0.6-2.5-0.6-5.1-3-6.1c-0.3-0.1-0.7-0.1-0.9-0.3
	c-0.7-0.6-0.9-6.4-0.2-6.9c2.4-1.7,4.8-3.2,7.8-4.8c-0.3,1.6-0.6,2.6-0.8,3.7c-0.2,1.3-0.4,2.7-1.9,3.2c-0.5,0.2-0.7,0.8-0.9,1.4
	c-0.4,1.6,0.4,3.5,1.9,4.2c1.6,0.8,3.5,0.3,4.5-1.1c1-1.4,1-3.6-0.5-4.5c-1.7-1-1.4-2.2-1-3.6c0.3-1.2,0.5-2.3,0.8-3.5
	c0.2-0.9,0.6-1.4,1.4-1.8c1.6-0.8,3.2-1.5,4.7-2.3c1.9-1,3.8-1.1,6-0.6c12.8,2.9,25.4,6.4,37.5,11.6c0.8,0.3,1.6,0.5,2.5,1.4
	c-2,0.1-3.7,0-5.5,0.3c-11.9,2-23.4,5.4-33.7,11.8c-1.4,0.9-2.9,1.7-4.3,2.6c-2.9,1.8-5.8,3.8-9.3,4.3c-0.2,0-0.3,0.1-0.5,0.2
	c-0.4,0.2-0.6,0.5-0.6,0.9c0,0.5,0.3,0.9,0.9,1c1,0.1,1.9,0.1,2.9,0c4.4-0.5,8.7-1.3,12.9-2.5c8.5-2.5,16.9-5.5,25.5-7.7
	c5.3-1.4,10.9-1.9,16-4.1c0.9-0.4,1.8-0.7,2.7-1c2.7-0.7,5.3-1,8,0.1c2.4,1,4.8,1.7,7.2,2.5c1.3,0.5,2.8,0.6,4.1,1.5
	c-1.3,0.6-2.5,1.1-3.6,1.6c-7,3-14.3,5.2-21.5,7.6c-2.1,0.7-4.1,1.4-6,2.3c-13.8,7.1-22.7,18.1-26.5,33.2c-0.3,1.1-0.2,2,0.1,3
	c0.5,0,1,0,1.4,0c0.6-0.8,1.2-1.5,1.7-2.3c1-1.6,2.4-2.8,4-3.8c4.7-3,9.5-5.9,14.5-8.5c6.1-3.1,11.8-7,17-11.6
	c0.8-0.7,1.7-1.4,2.5-2.3c4.1-4.7,8.7-9,13-13.4c2.2-2.3,5-3.6,8-4.5c0.9-0.3,1.7,0.2,2.5,0.5c10.5,2.9,20.9,6,31.4,8.7
	c1,0.3,2,0.5,3,0.8c0.5,0.1,1,0.2,1.2,0.7c0.5,1.5,1.8,1.7,3,2c9.5,2.5,19.2,3.4,29,3.4c3,0,6.1,0.2,9.1,0.3
	c9.9,0.3,19.6-0.6,29.2-3.1c1.5-0.4,3.2-0.5,3.4-2.7c0.1-0.9,1.1-0.8,1.8-0.9c4.8-1.3,9.6-2.5,14.4-3.8c6.2-1.7,12.5-3.3,18.7-5.2
	c3-0.9,5.5-0.3,7.8,1.4c5.1,3.6,9.3,8.3,13.5,12.8c2.1,2.3,4.2,4.5,6.6,6.6c4.4,3.8,9.1,7,14.2,9.7c5.1,2.7,10.1,5.6,14.9,8.7
	c2.7,1.7,4.9,3.8,6.3,6.6c0.6,0,1.3,0,1.9,0c0.3-1.1,0.2-2.2-0.1-3.3c-1-3.6-2.1-7.1-3.7-10.4c-5.9-11.7-15-19.9-27.4-24.5
	c-4.6-1.7-9.2-3.1-13.9-4.7c-4.2-1.4-8.2-3.1-12.3-5c0.6-0.5,1.1-0.6,1.7-0.8c3-1,6.1-1.8,9.1-3.1c3.3-1.4,6.4-1.1,9.6,0
	c3.6,1.3,7.1,2.8,11,3.4c5.2,0.8,10.3,2.3,15.3,3.9c6.6,2,13,4.3,19.7,6.1c4,1.1,8.1,1.8,12.3,1.8c0.6,0,1.4,0,1.4-0.9
	c0.1-0.8-0.5-1-1.2-1.2c-2.9-0.5-5.4-1.9-7.8-3.5c-10.5-7.1-21.9-11.9-34.2-14.5c-3.3-0.7-6.7-1.2-10-1.2c-0.1-0.3,0-0.4,0.2-0.5
	c0.7-0.3,1.3-0.6,2-0.9c11.2-4.7,22.7-8.1,34.5-10.7c6.5-1.4,6.5-1.4,12.2,1.5c1.8,0.9,3,2,3,4.1c0,0.8,0.3,1.6,0.5,2.3
	c0.4,1.3,0.4,2.3-1,3.2c-1.7,1.1-1.7,3.5-0.4,4.9c1.3,1.4,3.4,1.6,5,0.3c0.4-0.3,0.8-1.1,1.2-1.1c0.7,0,0.8-0.1,0.6-0.7
	c-0.5-1.5-0.5-3.2-2.4-3.9c-0.4-0.1-0.6-0.4-0.7-0.9c-0.3-1.7-0.6-3.4-1-5.4c1.8,0.7,3.1,1.7,4.5,2.5c3.9,2.4,3.8,2.4,3.5,7
	c-0.1,1.3-0.3,2.1-1.8,2.6c-2.8,1-3.5,4.8-1.5,6.7c1.8,1.7,4.9,1.5,6.6-0.5c1.9-2.1,1.7-4.1-0.6-5.9c-0.4-0.3-1-0.5-0.9-1.3
	c0.2-1.4,0.1-2.9,0.7-4.5c2.2,1.4,3.9,3,5.8,4.5c3.1,2.4,4.5,5.4,4.1,9.3c-0.2,1.6,0.1,2.9-1.9,3.7c-1.9,0.8-2.4,3.5-1.5,5.2
	c1,1.7,3.1,2.3,5,1.4c1.8-0.8,2.6-2.8,1.4-4.9c-1.4-2.3-0.5-4.5-0.5-6.8c0.8,0,1,0.5,1.2,0.9c1.5,2.1,2.7,4.3,3.9,6.6
	c0.8,1.4,1.4,2.6,0,4.2c-1.5,1.7-0.7,4.4,1,5.5c1.7,1,4.5,0.1,5.7-1.7c1.2-1.9,0.6-4-1.5-5.3c-0.4-0.2-1-0.3-1.2-0.7
	c-0.9-1.9-1.8-3.8-2.8-5.9c1.5,0.4,2.4,1.1,3.4,1.6c1.3,0.6,1.9,1.3,1.7,2.9c-0.3,1.8,0.8,3.1,2.4,3.7c1.6,0.6,3.6-0.1,4.7-1.5
	c0.9-1.3,1-4,0.2-5.2c-0.9-1.3-2.5-1.9-4.3-1.1c-1.2,0.5-1.9,0.2-2.8-0.4c-2.2-1.4-4.4-2.9-7-3.6c-0.5-0.1-0.8-0.4-1.1-0.8
	c-1.4-1.8-2.8-3.6-4.3-5.6c0.3,0,0.6-0.1,0.8-0.1c1.4,0.5,2.7,1,4.1,1.4c0.9,0.3,1,0.7,0.9,1.6c-0.1,1.9,0.9,3.2,2.4,3.7
	c1.7,0.5,3.5,0,4.5-1.5c1.1-1.5,1-3.6-0.1-4.9c-1-1.2-2.7-1.7-4.3-0.9c-0.9,0.5-1.6,0.4-2.4,0c-3.1-1.4-6.1-2.9-9.5-3.3
	c-1-0.1-1.6-0.9-2.2-1.7c0.6-0.2,1.1-0.2,1.5-0.4c2.1-0.8,3-2.7,2.2-4.5c-1-2.2-3.5-3.2-5.3-2c-0.9,0.5-1.5,0.6-2.4,0.2
	c-2.9-1.1-5.6-2.7-8.9-2.2c-0.3,0-0.7-0.3-1.1-0.5c-1-0.6-1.9-1.1-2.9-1.7c-1.5-0.8-3-1.6-4.5-2.5c0.3-0.6,0.8-0.5,1.1-0.6
	c8-1.5,16.1-2.2,24.3-2.5c2.7-0.1,4.7,1.2,6.9,2.3c1.7,0.9,2.3,2.3,2.9,3.9c0.2,0.5,0.4,1,0.7,1.5c2.9,6,7.6,10,14,11.8
	c1.6,0.5,2.1-0.1,1.7-1.7c-0.5-2.1-1-4.2-1.7-6.3c-0.6-1.8-1.4-3.6-2.6-5.1c-2.3-2.7-5.2-4.2-8.7-4.6c-1.5-0.2-2.9-0.5-3.9-1.8
	c0.3-0.5,0.8-0.4,1.1-0.4c4.4,0,8.8,0,13.2,0c0.8,0,1.6,0.2,2.3,0.6c1.5,0.7,3.1,0.8,4.7,0.1c1.2-0.6,2.5-0.4,3.7-0.2
	c-0.1,3.7,1,5.6,3.5,6c1.2,0.2,2.2-0.2,3.2-0.8c1.5-0.8,2.1-2.1,2.2-3.7c1.9,0.4,1.9,0.4,1.6,2.1c-0.3,1.7,0.2,3,1.6,3.9
	c1.4,0.9,2.8,1,4.3,0.2c1-0.6,1.7-1.4,2.2-2.5c0.5-1,1.5-1.2,2.5-0.6c0.3,0.2,0.6,0.5,0.9,0.7c1.9,1.2,4.2,0.6,5.3-1.4
	c0.2-0.4,0-1,0.6-1.3c0.6,0.4,1.1,0.8,1.8,1.1c1.6,0.8,3.6,0.3,4.5-1c1-1.4,0.8-3.2-0.4-4.4c-1.7-1.6-4.1-1.7-5.7,0
	c-0.6,0.6-1.1,0.9-1.8,0.7c-1-0.3-2-0.2-3-0.8c0.1-0.4,0.3-0.7,0.3-1c0.7-2.4-0.3-4.1-2.7-4.7c-2.9-0.7-4.9,0.9-4.9,4.1
	c0,0.6,0.2,1.1-0.7,1.2c-0.7,0-1-0.3-1-1c0-0.3-0.1-0.6-0.3-0.9c-0.9-1.5-2.3-2.2-4-2.2c-1.4,0-2.4,0.8-2.9,2.1
	c-0.3,0.6,0.1,1.5-0.7,1.9c-0.7,0.3-1.4-0.1-2.1-0.1c-0.9-0.1-1.7-0.2-2.6-0.4c-1.8-0.2-1.8-0.2-1.8-2.1c0.1-2.7-1.6-4.4-4.3-4.2
	c-0.9,0.1-1.7,0.2-2.6,0.3c-2.1,0.3-3.5,1.4-3.8,3.4c-0.3,1.4-0.9,1.6-2.1,1.5c-4.9-0.2-9.8-0.3-14.6-0.5c-1.6,0-3.1,0-5.1,0
	c0.6-0.6,1-0.9,1.5-0.9c1.4-0.2,2.9-0.4,4.3-0.5c6-0.4,11.3-2.5,16.2-6c4.3-3.1,6.6-7.7,9.2-12.1c0.3-0.6,0.4-1.3-0.1-1.8
	c-0.5-0.5-1.1-0.6-1.8-0.3c-0.2,0.1-0.4,0.2-0.7,0.3c-2.8,1.4-5.7,2.5-8.7,3.4c-6.3,2-11.9,5-16.3,10.1c-1.9,2.2-4.4,4-7.1,5.2
	c-4.2,1.9-8.5,3.2-13.2,3.2c-2.1,0-4.1,0.4-6.2,0.6c-9.8,1.2-19.5,3.6-29.2,5.7c-0.6,0.1-1.2,0.5-1.9,0c0.8-0.5,1.5-1,2.2-1.5
	c9.3-6.1,18.5-12.3,27.1-19.4c1.9-1.6,3.9-2.2,6.4-2.2c5.1,0,10.2,0.1,15.2-1.2c10.7-2.7,20.4-7.5,28.8-14.7
	c4.9-4.2,9.5-8.8,14.2-13.3c2.4-2.3,4.6-4.7,6.2-7.6c0.4-0.6,0.6-1.3,0.9-1.9c0.1-0.2-0.1-0.5-0.2-0.6c-0.3-0.2-0.6-0.1-0.8,0.1
	c-0.2,0.2-0.3,0.4-0.5,0.6c-4,5.4-9.2,9.3-14.9,12.6c-6.3,3.7-12.7,7.1-19.1,10.6c-4.4,2.4-9,4.2-13.8,5.5c-3.5,1-6.9,2-10.3,3.2
	c-0.7,0.3-1.4,0.8-2.3,0.4c0.3-0.4,0.6-0.7,0.9-0.9c15.2-14.1,28.5-29.8,39.6-47.4c0.3-0.5,0.5-1.1,1.1-1.2c1.8-0.6,3.4-1.8,5.3-2.1
	c1.7-0.3,3.5-0.7,5.1-1.4c1.8-0.8,3.3-0.6,4.8,0.6c0.8,0.7,1.6,1.3,1.3,2.5c-0.2,0.8,0.2,1.6,0.6,2.2c1.1,1.6,3.3,2.1,4.9,1.3
	c1.7-0.9,2.7-3.3,2.1-5.2c-0.6-1.7-2.2-2.8-4.2-2.3c-1.6,0.4-2.7-0.2-4.1-1.3c1.3-0.5,2.1-1.4,3.3-1.2c2,0.4,4,1,6,1.5
	c0.3,0.1,0.4,0.4,0.6,0.7c1.7,2.5,4.5,3,6.9,1.3c1.9-1.4,2.1-3.7,0.5-5.4c-1.5-1.6-4.2-2.1-5.9-0.6c-1.6,1.4-2.8,1.1-4.5,0.3
	c2.5-1.8,5-3.4,7.1-5.2c1.6-1.3,3.3-1,5-1c0.6,0,0.7,0.5,0.9,0.9c0.7,1.8,2.1,2.7,3.9,2.7c1.9,0,3.2-1.3,4-3c0.9-2,0.5-4-1.2-5.1
	c-1.8-1.3-3.7-1.1-5.4,0.5c-0.4,0.4-0.7,0.9-1.6,0.2c0.9-0.8,1.8-1.4,2.5-2.3c1.2-1.5,2.9-1.5,4.6-1.6c1.4-0.2,1.5,1.2,2.3,1.8
	c0.1,0.1,0.1,0.1,0.2,0.2c1.8,2,4.6,1.4,5.6-1c0.7-1.6-0.1-3.8-1.6-4.8c-1.4-1-3.3-0.8-4.6,0.5c-0.6,0.5-1,1.3-2.1,0.8
	c0.8-1.4,1.7-2.5,3.5-2.9c1.7-0.4,2.8-2.5,2.5-4.1c-0.3-1.6-1.6-2.6-3.3-2.5c-2.3,0.1-3.9,2.2-3.4,4.5c0.1,0.5,0.5,1.1,0,1.6
	c-1.7,1.6-3.3,3.4-5.3,5.1c-0.2-1.4,0.8-1.6,1.2-2.3c0.9-1.5,0.6-3.6-0.8-4.8c-1.1-1-2.5-1.2-3.7-0.4c-1.4,0.8-2,2.8-1.4,4.5
	c0.2,0.7,0.6,1.3,1.2,1.7c0.4,0.3,0.5,0.7,0.4,1.3c-0.6,2.5-1.2,4.9-3.7,6.3c-1.3,0.7-2.4,1.9-3.6,2.8c-0.4,0.3-0.8,0.9-1.4,0.5
	c-0.1-2.4-0.1-2.4,1.6-3.7c1.8-1.4,2.1-4.3,0.6-6c-1.4-1.5-3.7-1.6-5.4-0.1c-1.9,1.7-2.1,4.4-0.2,5.9c1,0.8,1.2,1.6,1,2.6
	c-0.1,0.8-0.2,1.6-0.2,2.4c0,0.5-0.1,1-0.5,1.3c-2.6,1.6-5.2,3.1-8,4.1c-0.4-0.7-0.2-1.1,0.2-1.4c0.4-0.3,0.8-0.5,1.2-0.8
	c1.3-1.2,1.7-3.2,0.8-4.8c-0.8-1.6-2.2-2.3-3.7-2c-1.6,0.3-3,2-3.2,3.8c-0.1,1.1,0.4,2,1,2.8c0.9,1.1,0.7,3.7-0.3,4
	c-2.1,0.6-4.1,1.7-6.4,1.3c0-1,0.6-1.6,1-2.3c4.7-8,9-16.2,12.7-24.8c2-4.6,4.8-8.2,8.5-11.4c3.1-2.7,6.3-5.2,9.4-7.8
	c0.4-0.4,0.9-0.6,1.4-0.8c4.8-1.9,9.7-2.6,14.8-2.1c4,0.4,8,0.6,12,0.8c1.4,0.1,2.7,0,4.1-0.2c8.1-1.3,16-3,23.8-5.4
	c2.2-0.7,4.2-0.5,6.3,0.1c2.6,0.8,5.1,1.9,7.4,3.3c1.1,0.7,2.2,1.1,3.1-0.3c0-0.5,0-1,0-1.4C742,366.9,741.1,365.8,740.1,364.8z
	 M193.3,502.8c-1.6,0.6-1.7,0.6-2.1-1.6c1.9-0.3,3.8-0.5,5.7,0.2C195.7,501.9,194.5,502.4,193.3,502.8z M328.8,543.6
	c-5.9,6.2-13,10.9-20.2,15.3c-4.8,2.9-9.7,5.6-14.2,8.9c-0.2,0.1-0.4,0.2-0.6,0.3c2.3-10.2,15.3-24.3,28.5-28
	c-0.6,0.9-1.4,1.2-2,1.6c-3.5,2.1-7,4.1-10.4,6.5c-4,2.8-7.7,6-10.4,10.2c-0.5,0.7-1.7,1.7-0.7,2.4c1.3,0.9,1.6-0.8,2.1-1.5
	c2-2.6,4.4-4.9,7-6.8c2.5-1.9,5.1-3.6,7.8-5.2c4.7-2.8,9.3-5.6,14-8.4c2.1-1.3,4.3-2.4,6.7-3C333.7,538.3,331.3,541,328.8,543.6z
	 M521.1,537.7c7.3,4.5,14.8,8.5,21.8,13.5c3.5,2.5,6.8,5.3,9.3,8.9c0.2,0.3,0.4,0.5,0.6,0.7c0.2,0.2,0.6,0.3,0.9,0.1
	c0.4-0.2,0.5-0.6,0.3-1c-0.3-0.6-0.6-1.1-1-1.7c-2.2-3.4-5.1-6.2-8.3-8.6c-3.9-3-8.1-5.5-12.3-8c-0.8-0.5-1.7-0.8-2.3-1.7
	c11.8,2.8,26,16.8,28.6,28c-0.1,0-0.3,0-0.4-0.1c-7.4-5.3-15.6-9.4-23.1-14.6c-3-2.1-5.9-4.4-8.6-6.9c-3.7-3.5-7.3-7.1-10.8-10.9
	C517.8,536,519.5,536.8,521.1,537.7z M598.8,513.9c0.4,0,0.7,0.2,0.8,0.7c-0.1,0.3-0.3,0.3-0.5,0.2c-0.3-0.2-0.7-0.3-0.7-0.8
	C598.4,514,598.7,513.9,598.8,513.9z M661.4,501.6c0.2,0.8-0.2,1.4-0.4,2.2c-1.9-0.4-3.6-1.3-5.4-2.1
	C657.5,501.2,659.5,501.5,661.4,501.6z M120.7,362.9c3.3-4.4,11.8-8.3,20.9-9c7.8-0.6,14.8,2.2,21.4,6.3c-7.1-1.5-14.2-2-21.3-2
	C134.4,358.3,127.8,361.1,120.7,362.9z M155.7,368.1c-2.3,0.2-4.6-0.1-6.9-0.5c-5.9-1.1-11.8-2.1-17.5-3.9c-0.4-0.1-0.8-0.1-1-0.5
	c7.4-3.8,34.4-1.9,42.9,4.3C167,367.3,161.3,367.8,155.7,368.1z M195,379.4c-5.9-4.9-25.2-26.2-28.1-30.9c0.2-0.4,0.7-0.4,1-0.4
	c4.9,0,9.7,0,14.6,0c1.2,0,1.9,0.2,2.2,1.6c2.7,9.7,6.2,19.1,10,28.4C195,378.4,195.3,378.9,195,379.4z M647.2,396.9
	c-6.9,14.9-15.4,28.9-25.3,42.1c-0.4,0.6-0.9,1.1-1.3,1.7c-0.1,0.1-0.3,0.2-0.4,0.2c-0.3-0.2-0.2-0.6-0.1-0.8
	c1.6-4,1.9-8.2,2.3-12.5c0.7-7.8,0.5-15.7,0.3-23.5c-0.2-9.6,0.5-19.2,1.7-28.7c0.7-5.4,1.9-10.5,3.9-15.5c0.3-0.7,0.9-1.7,0-2.1
	c-1-0.5-1.3,0.6-1.6,1.3c-3.1,6.1-6.1,12.2-7.1,19c-0.9,6.1-1.3,12.2-1.4,18.4c-0.1,8.4,0.6,16.8,0.3,25.2
	c-0.2,5.9-0.2,11.8-0.8,17.7c-0.4,3.8-1.9,7.4-4.3,10.3c-8.2,10-17.3,19.1-27,27.6c-9.7,8.5-20.3,15.7-31.1,22.8
	c-1.7,1.1-3.4,2.1-5,3.2c-6,4.4-12.9,7-19.8,9.6c-0.4,0.1-0.7,0.3-1.1,0.1c-0.1-0.5,0.2-0.7,0.4-1c2.7-3.5,5.2-7.3,7.7-11
	c0.9-1.4,2-2,3.5-2.2c0.6-0.1,1.1-0.1,1.7-0.3c1.6-0.4,2.9-0.7,4.1,1.1c1.1,1.6,3.8,1.6,5.7,0.4c2-1.2,2.7-3,2.1-5.1
	c-0.9-3.1-3.4-4.5-6-3.4c-1.1,0.5-1.9,1.3-2.3,2.3c-0.4,1.3-1.2,1.7-2.5,1.7c-0.7,0-1.4,0.4-2.3,0.1c1.8-2.6,3.7-4.8,5.9-6.9
	c0.5-0.4,1-0.4,1.6-0.3c1.8,0.1,3.5,0.2,5.3,0.2c0.9,0,1.2,0.7,1.6,1.2c1.3,1.8,3,2.2,5.1,1.8c2-0.5,3.2-1.6,3.6-3.7
	c0.4-2.1-0.8-4.4-2.7-5.4c-1.6-0.8-3.8-0.2-5.2,1.4c-0.6,0.6-0.7,1.7-1.8,1.8c-1.2,0-2.4,0.1-3.7-0.6c2.2-2.1,4.5-3.9,6.9-5.5
	c0.3-0.2,0.8-0.5,1.1-0.4c2.4,0.6,4.8-0.1,7.2-0.2c1,0,1.3,0.3,1.5,1.3c0.4,2.3,2.5,3.5,4.9,3c2.2-0.5,3.5-2.6,2.9-5
	c-0.7-2.7-3.1-4.2-5.2-2.8c-2.2,1.4-4.4,0.9-6.7,0.9c1.3-1.2,3-1.9,4.6-2.7c0.6-0.3,1,0.2,1.5,0.4c2.1,1,4,0.8,5.5-0.7
	c1.3-1.4,1.8-4.2,1-5.8c-1.1-2.3-4.1-2.9-6.2-1.3c-0.6,0.5-1.1,1-1.6,1.6c0.1-0.4,0.1-0.8,0.1-1.3c0.2-2-0.7-3.6-2.5-4.5
	c-1.6-0.8-3.9-0.6-5.2,0.6c-1.4,1.3-1.8,3.4-0.8,5.3c0.5,0.9,0.3,1.4-0.2,2.1c-1.8,2.1-3.3,4.3-4.5,6.7c-0.1,0.3-0.4,0.5-0.6,0.8
	c-0.2,0.2-0.4,0.5-0.7,0.7c-2.5,2.2-5.1,4.3-7.8,6.6c-0.1-1.8,0.5-3.1,0.9-4.6c0.2-0.7,0.9-0.6,1.4-0.7c0.9-0.1,1.7-0.3,2.5-0.9
	c1.6-1.2,2.2-3.3,1.3-5.1c-0.6-1.2-1.5-2.1-2.6-2.8c-2.1-1.2-5.1,0.3-5.6,2.7c-0.4,1.7-0.6,3.3,0.7,4.7c0.5,0.5,0.1,1.1-0.1,1.6
	c-1.1,3-1.9,6.1-2.7,9.2c-0.1,0.5-0.3,0.9-0.6,1.3c-1.8,2.4-3.6,4.9-5.6,7.5c-0.7-1.1-0.3-2.2-0.4-3.3c-0.1-1-0.2-2.1-0.2-3.1
	c0-0.5,0.5-0.8,0.8-1.1c1-0.9,1.4-2.1,1.8-3.4c0.4-1.5-0.1-2.9-1.3-3.9c-1.2-0.9-2.6-1-4-0.1c-2.9,1.7-3.3,5.5-0.7,7.7
	c0.6,0.5,1.1,0.8,1,1.7c-0.1,3.3-0.3,6.5-0.3,9.8c0,0.7-0.2,1.2-0.6,1.8c-2.3,3.5-4.6,6.9-7.2,10.2c-0.9,1.2-2,2-3.4,2.5
	c-10.2,4.1-20.7,7-31.3,9.9c-3.5,1-7.1,1.9-11,3c2-3.3,4.1-5.9,7.4-7.3c1.4-0.6,2.7-1.4,4-2.1c7.1-4,12-10.2,16.7-16.6
	c3-4.1,4.4-9,5.9-13.9c1-3.1,1.8-6.2,2.3-9.3c0.8-4.6,2.3-9,3.5-13.4c0.1-0.3,0.2-0.6,0.3-0.9c0.2-0.7,0.2-1.3-0.5-1.7
	c-0.6-0.3-1.1,0-1.5,0.5c-2.1,2.4-4.7,4.1-7.2,6c-0.9,0.7-1.9,1.5-2.8,2.3c-5.8,4.8-10.4,10.6-15.1,16.4c-3,3.8-5.5,7.8-7.7,12.1
	c-2.6,5.2-4.3,10.7-5,16.4c-0.2,2-0.6,3.9-1,5.9c-0.3,1.3-0.8,2.4-1.5,3.5c-1.5,2.5-3.6,3.8-6.4,4.5c-11,2.7-22.1,5.4-33.3,6.9
	c-1.6,0.2-3.2,0.4-4.8,0.6c-0.5,0.1-1.1,0.3-1.6-0.3c0.3-0.8,1-0.9,1.6-1.2c4.5-2.2,8.8-4.8,12.9-7.8c0.8-0.6,1.6-1.1,2.5-1.4
	c6-2.5,10.3-7,13.7-12.3c4.3-6.8,9.1-13.1,15.1-18.6c0.3-0.3,0.6-0.6,0.8-0.9c0.2-0.4,0.2-0.8-0.2-1.1c-0.2-0.3-0.6-0.3-0.9-0.2
	c-0.6,0.3-1.1,0.6-1.7,0.9c-7.2,4.8-14.5,9.6-21.7,14.6c-4.9,3.4-9.3,7.3-12.5,12.4c-3.3,5.3-8.2,8.9-13.3,12.3
	c-0.9,0.6-1.5,0.6-2.4,0c-4.9-3.3-9.6-7-12.8-12.1c-3.2-5.2-7.6-9.1-12.5-12.5c-7.1-4.9-14.3-9.7-21.5-14.5
	c-0.5-0.4-1.1-0.7-1.7-0.9c-0.4-0.2-0.8-0.1-1.1,0.2c-0.4,0.4-0.3,0.9,0.1,1.3c0.3,0.4,0.7,0.7,1,1c5.3,4.9,9.8,10.5,13.6,16.7
	c1.9,3.2,4.2,6,6.8,8.6c1.9,1.9,4.1,3.6,6.6,4.7c1.9,0.9,3.7,2,5.3,3.2c3.1,2.3,6.4,4.3,9.8,6c0.8,0.4,1.8,0.7,2.4,1.6
	c-1.2,0.8-2.4,0.4-3.5,0.3c-5.7-0.7-11.4-1.7-17-2.9c-6.8-1.5-13.5-3.2-20.3-4.9c-1.4-0.4-2.3-1.1-3.3-2.2c-2.1-2.4-2.8-5.3-3.3-8.3
	c-0.3-2-0.6-3.9-0.9-5.9c-0.5-3.8-1.7-7.3-3.2-10.8c-2.9-6.7-7-12.5-11.5-18.2c-5.5-6.8-11.6-13-18.8-18.1c-1.3-0.9-2.4-2.1-3.5-3.2
	c-0.4-0.4-0.8-0.8-1.5-0.5c-0.7,0.4-0.7,1-0.5,1.7c0.3,1.2,0.6,2.3,1,3.4c2,5.7,2.6,11.7,4.2,17.5c0.6,2.3,1.3,4.6,2.1,6.9
	c1.9,5.6,4.6,10.6,8.5,15.1c4.9,5.7,10.2,10.6,17,13.7c3.1,1.4,4.9,3.9,6.7,6.6c-0.4,0.3-0.7,0.2-1,0.1
	c-12.1-3.5-24.4-6.4-36.3-10.9c-0.4-0.1-0.7-0.3-1.1-0.4c-5.8-2.2-5.8-2.2-9.4-7.2c-1.4-1.9-2.5-3.9-3.9-5.7c-1-1.3-1.5-2.7-1.4-4.2
	c0.1-2.6-0.1-5.1-0.2-7.7c-0.1-1,0.1-1.8,1.1-2.6c2.6-1.9,2.2-5.8-0.6-7.5c-1.3-0.8-2.7-1-4.1-0.1c-1.3,0.9-1.8,2.3-1.5,3.8
	c0.2,1.3,0.7,2.6,1.8,3.6c0.5,0.5,0.8,0.9,0.8,1.6c-0.1,1.8-0.2,3.6-0.2,5.4c-0.8,0.3-0.9-0.3-1.2-0.7c-1.5-2.1-3-4.1-4.5-6.2
	c-0.3-0.4-0.7-0.9-0.8-1.5c-0.6-3.1-1.5-6-2.6-9c-0.3-0.8-0.5-1.4,0.1-2.2c1.2-1.6,0.9-3.3,0.1-5c-0.8-1.8-2.6-2.8-4.2-2.5
	c-1.6,0.2-3.6,2.3-4,4.1c-0.4,1.8,0.4,3.6,2,4.5c0.2,0.1,0.4,0.3,0.7,0.3c3.7,0.1,3.2,3.1,3.7,5.4c-2.8-2.4-5.6-4.7-8.4-7.2
	c-0.2-0.2-0.4-0.5-0.6-0.8c-1.2-2.4-2.7-4.7-4.5-6.8c-0.6-0.7-0.8-1.3-0.3-2.1c1.1-1.8,0.8-3.6-0.6-5.1c-1.2-1.3-2.9-1.7-4.6-1.1
	c-2,0.7-3.2,2-3.2,4.3c0,0.3,0,0.6-0.1,1.2c-1.6-1.1-3-2.3-5-1.7c-1,0.3-1.8,1-2.4,1.9c-1.4,2.5-0.2,5.6,3.2,7.7
	c-1.5,0.7-2.3,1.7-2.7,3.1c-0.7,2.3,0.4,4.4,2.7,5.1c2.2,0.7,4.7-0.5,5.1-2.7c0.3-1.7,1-1.5,2.2-1.5c2,0.1,4,0.6,6,0.2
	c0.4-0.1,0.8-0.1,1.2,0.2c2.5,1.7,4.9,3.5,7.1,5.7c-0.9,0.5-1.7,0.3-2.5,0.5c-1.1,0.2-1.9,0-2.4-1.1c-0.1-0.2-0.3-0.4-0.4-0.6
	c-1.3-1.5-3.4-2.2-4.9-1.6c-1.8,0.7-3.3,2.8-3.2,4.6c0,2.1,1.2,3.7,3.1,4.4c2.4,0.8,4.4,0.3,5.9-1.8c0.5-0.7,1-0.9,1.7-0.9
	c0.5,0,1,0,1.4-0.1c5.7-0.5,4.2-0.9,8.1,3.4c1,1.1,1.9,2.3,3.1,3.9c-1.5-0.2-2.6-0.3-3.6-0.4c-0.8-0.1-0.9-0.8-1.2-1.3
	c-0.7-1.4-1.6-2.6-3.3-2.9c-3.1-0.6-6.2,2.6-5.4,5.9c0.5,2,2,3.1,3.8,3.6c1.7,0.5,3.4,0.2,4.5-1.4c0.7-1,1.4-1.1,2.6-1
	c3.6,0.3,6.1,1.9,7.9,5.1c1.9,3.4,4.3,6.5,6.7,9.6c-0.7,0.5-1.2,0-1.6-0.1c-3.3-1.3-6.6-2.6-9.8-3.9c-0.7-0.3-1.5-0.6-2.1-1
	c-12.4-7.6-24.6-15.5-36.1-24.6c-12.6-10-24-21.4-34.3-33.8c-3.2-3.9-4.5-8.6-4.7-13.6c-0.5-11.8-0.6-23.7-0.1-35.5
	c0.3-6.9-0.4-13.7-1-20.6c-0.4-4.5-1.7-8.8-3.5-12.9c-1.2-2.7-2.4-5.4-3.8-8c-0.3-0.7-0.5-2.1-1.7-1.5c-1.1,0.5-0.1,1.5,0,2.3
	c0,0.2,0.2,0.4,0.3,0.7c1.9,4.8,2.8,9.8,3.5,14.9c1.9,12.8,1.7,25.7,1.4,38.5c-0.2,7.2,0.2,14.4,1.4,21.5c0.3,1.8,1.1,3.5,1.6,5.7
	c-1.1-0.7-1.5-1.5-2-2.2c-10.7-14.3-19.7-29.5-26.9-45.8c-6.1-13.7-12-27.6-16.5-41.9c-0.3-0.8-0.7-1.6-0.6-2.5
	c1.8-0.5,476.5-0.6,479.2-0.1c0,0.9-0.3,1.7-0.6,2.5C660.6,366.6,654.1,381.8,647.2,396.9z M560,473.4c0.6-0.9,1.3-1.9,1.9-2.8
	c0.2-0.3,0.6-0.6,1-0.5c2.2,0.4,3.7-0.7,5.1-2.1c-0.2,1.8-1.2,2.8-2.9,3.4C563.5,472,561.9,472.9,560,473.4z M507.8,478.8
	c-0.5-0.3-0.9,0-1.2,0.4c-0.6,0.7-1.3,1.4-1.8,2.2c-5.2,7-9.8,14.4-14,22c-2.5,4.6-5.6,8.8-7.7,13.5c-0.1,0.2-0.3,0.3-0.7,0.6
	c0.4-3.7,1.1-7.2,2.6-10.5c2.3-5.2,4.7-10.3,8.3-14.8c5.6-7,11-14.1,18.1-19.7c0.9-0.7,1.7-1.5,2.7-1.9c0,0.1,0.1,0.2,0.1,0.2
	c-2.6,6.9-3.9,14.1-6.3,21.1c-1.9,5.6-4.7,10.6-8.7,15c-3.4,3.7-6.7,7.5-10.7,10.6c-0.6,0.4-1.1,1-1.8,1.2c-0.5-0.7,0.1-1.1,0.3-1.5
	c5.2-8.2,9.3-17.1,13.9-25.7c2-3.6,4.2-7.1,6.4-10.7c0.1-0.2,0.3-0.4,0.4-0.6C508.1,479.8,508.4,479.2,507.8,478.8z M344.6,479.8
	c0.1,0.2,0.2,0.4,0.4,0.6c4.7,7.3,8.9,14.8,12.5,22.7c2.1,4.6,4.9,8.8,7.4,13.2c0.4,0.7,0.8,1.5,0.9,2.4c-2.6-1.9-5.3-3.8-7.4-6.2
	c-2.7-3-5.3-6-7.9-9.1c-1.6-1.8-2.7-3.9-3.7-6.2c-1.8-4.2-3.2-8.5-4.4-12.9c-1.2-4.5-2.2-9-4-13.5c0.8-0.1,1.2,0.3,1.6,0.7
	c4.2,3.4,8.2,6.9,11.6,11.1c3.1,3.9,6.4,7.5,9.2,11.7c4.7,7,8.4,14.3,9.4,23c-0.8-0.3-0.9-0.8-1.1-1.2c-3.8-7.3-8.2-14.3-12.3-21.4
	c-2.7-4.7-5.9-9.1-9.1-13.6c-0.6-0.8-1.2-1.7-2.1-2.3c-0.3-0.2-0.6-0.3-0.9-0.1C344.5,479.1,344.4,479.4,344.6,479.8z M286.1,470.5
	c-0.9-0.4-0.9-1.2-1-2.1c1.3,1.1,2.7,1.7,4.4,1.5c0.7-0.1,1.2,0.2,1.6,0.8c0.5,0.8,1.1,1.7,1.4,2.7
	C290.3,472.5,288.2,471.4,286.1,470.5z M289.4,475.9c-4.7,0.4-4.7,0.4-7.4-1.2c1.3-1.3,2.7-1.7,4.3-0.5
	C287.3,474.9,288.4,475.4,289.4,475.9z M658,379.9c-0.2-0.8,0.3-1.3,0.5-1.9c3.8-9.2,7.3-18.6,10-28.2c0.3-1,0.6-1.9,2-1.8
	c5.3,0.1,10.5,0,15.8,0.1c0.1,0,0.3,0.1,0.7,0.3C678,359.6,668.6,370.1,658,379.9z M708.5,367.6c-1.8,0.3-3.6,0.7-5.4,1
	c-3.1,0.6-6.2,0.2-9.3,0c-4.4-0.3-8.9-0.7-13.6-0.4c6.3-5.5,33-8.4,43.2-4.1C718.4,365.6,713.5,366.8,708.5,367.6z M727.4,362.3
	c-8.1-3.2-16.6-3.9-25.2-3.1c-4.2,0.4-8.4,1-12.7,2.1c9.9-9.4,34.2-8.3,42.6,2C730.4,363.2,728.9,362.9,727.4,362.3z M122,223.5
	c0.8,0.1,1.6,0.1,2.4,0.1c200.3,0,400.6,0,600.9,0c0.7,0,1.4,0,2.2,0c1.3-0.2,2.2-1.1,2.3-2.4c0.1-1.3-0.8-2.4-2.3-2.6
	c-0.8-0.1-1.6-0.1-2.4-0.1c-21.8,0-43.5,0-65.3,0c-2.5,0-2.3-0.1-2.9-2.4c-1.3-4.8-2.2-9.6-4.2-14.2c-2.4-5.3-4.4-10.8-6.9-16.1
	c-1.4-2.9-0.8-5.4,0.3-8.2c1-2.5,2.9-4.2,4.3-6.3c1.8-2.6,3.6-5.1,5.7-7.4c5.5-6.1,9.7-13.1,12.8-20.7c1.1-2.8,2.1-5.7,3.4-8.5
	c2.4-5.1,3.7-11,8.5-14.8c0.6-0.5,0.9-1.2,0.5-1.9c-0.4-0.8-1.2-0.7-1.9-0.4c-1.4,0.5-2.8,1.1-4.2,1.7c-13.8,6.5-22.5,17.3-26.3,32
	c-1.1,4.2-1.7,8.5-2.5,12.7c-0.9,4.7-2,9.3-3.6,14c-0.3-0.4-0.5-0.7-0.7-1c-1.7-3.4-3.3-6.9-5-10.3c-0.5-1-0.6-2-0.7-3
	c-0.2-1.8,0.1-3.5,0.5-5.2c1.1-4.2,1.9-8.4,1.9-12.8c0-0.6,0.1-1.1,0.2-1.7c0.7-6.9,2.1-13.7,3.4-20.6c1.1-6.2,2.3-12.4,2.1-18.8
	c0-0.9-0.1-1.8-0.2-2.6c-0.1-0.7-0.1-1.6-1.1-1.6c-1,0-1,0.9-1,1.6c-0.1,2.4-0.9,4.5-1.9,6.6c-1.6,3.5-3.2,7-4.6,10.6
	c-4.1,10.6-5.8,21.6-5.6,32.9c0,0.5,0.4,1.1-0.4,1.4c-0.5-0.8-1-1.7-1.4-2.5c-5.9-10.1-10.3-20.9-14.4-31.8c-1.3-3.3-1.4-6.3,0-9.4
	c0-0.1,0.1-0.2,0.1-0.2c0.5-2.6,1.9-4.2,4.6-4.8c1.8-0.4,3.3-1.4,5.2,0.4c1.4,1.3,3.5,0.6,4.5-1c0.5-0.8,0.5-1.6,0.4-2.5
	c-0.1-1.6-1.9-2-2.5-3.2c-0.2-0.4-2.7,0.6-3.3,1.4c-0.3,0.4-0.5,0.8-0.7,1.3c-0.1,0.3-0.2,0.6-0.6,0.7c-1.6,0.5-3.2,1-5.1,1.6
	c0.5-1.9,1.3-3.3,1.9-4.8c1.7-3.7,1.7-3.7,5.8-3.9c1.3,0,2.4-0.2,3,1.5c0.6,1.5,2.2,2,3.9,1.9c1.5-0.1,2.6-0.9,3.2-2.2
	c0.9-2.2-0.1-4.7-2.3-5.9c-1.7-0.9-4-0.8-5.1,1.8c-0.2,0.6-0.5,0.9-1.2,0.9c-1.3,0-2.6,0-4.2,0c1-2.2,2.1-4.1,3.4-5.8
	c3.7-5.1,2.5-4.5,9.3-5.5c1.2-0.2,2.4-0.3,2.9,1.3c0.2,0.6,0.9,0.9,1.5,1.2c1.7,0.8,3.5,0.5,4.5-0.9c1.1-1.4,1-3.5-0.2-4.9
	c-1-1.2-2.7-1.3-4.4-0.4c-0.3,0.2-0.6,0.3-0.8,0.5c-1.6,1-3.8,1.2-5.7,0.5c2.3-2.3,4.9-4.1,7.5-5.9c0.8-0.5,1.5-0.9,2.3-0.1
	c0.4,0.3,1,0.5,1.5,0.6c2.2,0.4,4-0.7,4.5-2.7c0.4-1.7-1.1-4.1-2.9-4.7c-1.9-0.6-3.6,0.1-4.5,2.1c-0.3,0.7-0.4,1.3-1.1,1.7
	c-1.5,0.9-2.9,1.9-4.6,2.9c0-1.4,0.7-2.4,1.1-3.6c0.4-1.1,0.9-1.7,2.2-1.6c1.5,0.1,2.6-0.7,3.2-2.1c0.7-1.6,0.1-3.6-1.3-4.7
	c-1.4-1.1-4.1-1.1-5.4,0c-1.3,1.1-1.7,2.6-0.6,4.5c0.5,0.9,0.3,1.6,0,2.4c-1.1,2.4-2.3,4.7-2.7,7.4c0,0.3-0.2,0.6-0.4,0.8
	c-1.6,1.7-3.2,3.3-4.8,5c-0.1-1.5,0.2-2.8,0.4-4.1c0.2-1.1,0.5-1.6,1.8-1.7c2.3-0.3,3.5-2.4,2.9-4.6c-0.6-2.2-3.1-3.4-5.2-2.6
	c-2.1,0.8-3,3-1.8,5.1c0.5,0.9,0.6,1.7,0.3,2.7c-0.9,2.9-1.8,5.8-1.9,8.9c0,1-0.5,1.8-1.4,2.5c-0.2-0.3-0.3-0.5-0.4-0.7
	c-0.5-1.5-1.4-2.5-3.1-2.5c-1.7,0-2.6,1.1-3.3,2.4c-0.7,1.3-0.7,2.6,0.4,3.7c0.8,0.7,0.5,1.4,0.3,2.2c-0.7,2.8-1.6,5.5-1,8.5
	c0.1,0.3,0,0.6-0.2,0.9c-1,2.6-2.1,5.1-3.1,7.7c-0.8-0.5-0.8-1.3-1-1.9c-2.2-7.1-3.9-14.4-4.9-21.7c-0.6-4.3,0.6-8,4.8-10.2
	c0.3-0.2,0.5-0.3,0.8-0.5c5.6-3.5,8.9-8.6,10-15.1c0.2-1.5-0.3-2.2-1.6-1.6c-2.7,1.1-5.4,1.9-7.9,3.5c-2.7,1.7-4.5,4-5.4,7.1
	c-0.4,1.5-0.6,3-0.6,4.5c0,1.2-0.2,2.4-1.1,3.2c-0.5-0.3-0.4-0.7-0.4-1.1c-0.5-4-1-7.9-1.5-11.9c-0.1-1-0.2-2,0.2-3.1
	c0.5-1.4,0.3-2.7-0.4-3.9c-0.7-1.2-0.9-2.3-0.6-3.7c0.5,0,1,0,1.4-0.1c3.5-0.7,4.8-4.1,2.6-6.9c-0.8-1-1.7-1.7-3-1.6
	c-0.6,0-0.9-0.2-0.8-0.9c0.1-0.6,0.2-1.1,1-1c0.4,0.1,0.8,0.1,1.2,0.1c2.7-0.1,4.4-2.8,3.4-5.3c-0.5-1.3-1.4-2-2.7-2.5
	c-1.6-0.6-1.8-1.2-1-2.8c0.1-0.1,0.2-0.3,0.2-0.4c1-2.1,0.3-4-1.8-5c-0.4-0.2-0.9-0.3-1.5-0.5c0.7-1.1,1.2-2.2,1-3.4
	c-0.2-1.6-1.2-2.7-2.7-3c-1.4-0.2-2.8,0.6-3.5,2c-0.9,2-0.7,3.4,1.1,4.8c0.7,0.5,0.9,1,0.8,1.8c-0.1,0.9,0.1,1.8-0.3,2.6
	c-0.2,0-0.5,0.1-0.7,0c-2.3-0.8-4.4,1.1-4.4,3.3c0,2.7,1.4,4.2,4.1,4.1c0.2,0,0.5-0.1,0.7-0.1c0.4-0.1,0.8-0.1,0.9,0.5
	c0.1,0.5,0,0.9-0.6,1.1c-0.4,0.1-0.8,0.2-1.1,0.5c-1.3,1-1.7,2.5-1.6,4c0.1,1.2,1,2.2,2.2,2.5c0.7,0.2,1.5-0.3,2,0.4
	c0.5,0.7,0.1,1.6,0.1,2.4c0,0.7,0,1.4,0,2.2c0.1,1.3-0.1,1.9-1.7,2.1c-3,0.2-4.1,2.2-3.4,5.1c0.1,0.5,0.3,1.1,0.4,1.6
	c0.6,2.2,1.8,3.6,4.1,3.7c1.1,0,1.3,0.6,1.4,1.5c0.1,1.4,0.2,2.9,0.3,4.3c0.5,4.7,0.9,9.5,1.5,14.8c-1.3-1.7-1.4-3.2-1.7-4.7
	c-0.8-3.5-1.8-6.8-3.6-9.9c-3.9-6.5-9.7-10.4-16.8-12.7c-0.7-0.2-1.5-0.3-2,0.4c-0.5,0.7-0.2,1.4,0.2,2c2,2.9,3.5,6.1,5.1,9.3
	c2.5,5.2,6,9.5,10.7,13c3.2,2.3,5.9,5.3,7.7,9c1.3,2.8,2.4,5.6,2.9,8.6c0.3,1.9,0.8,3.7,1.3,5.6c2.3,9.4,5.8,18.4,9.1,27.5
	c0.3,0.7,0.8,1.4,0.6,2.3c-0.9-0.3-1.3-1.2-1.9-1.8c-7.1-8.2-14.2-16.3-22-23.7c-1.5-1.4-2.2-3-2.4-5c-0.6-5.2-1.2-10.4-3.3-15.4
	c-3.8-9.4-9.3-17.7-16.8-24.6c-5.1-4.6-10.6-8.8-15.9-13.1c-2.2-1.8-4.7-3.3-7.4-4.4c-0.5-0.2-1-0.4-1.6-0.5c-0.2,0-0.5,0.1-0.6,0.3
	c-0.1,0.2-0.1,0.5,0.1,0.7c0.2,0.2,0.5,0.4,0.8,0.6c5.5,3.1,9.9,7.6,13.7,12.6c4.3,5.6,8.5,11.4,12.7,17.2c2.7,3.8,4.9,7.9,6.7,12.1
	c1.3,3.1,2.6,6.2,4.2,9.2c0.3,0.6,0.9,1.2,0.6,2c-0.7,0.1-1-0.4-1.4-0.7c-15.1-12.4-31.3-22.9-49-31.2c-0.6-0.3-1.3-0.4-1.6-1
	c-0.8-1.6-2.1-3-2.7-4.8c-0.6-1.8-1.4-3.6-2.3-5.3c-0.5-1.1-0.8-2-0.1-3.1c0.7-1.1,0.9-2.3,2.8-2.4c2.2-0.1,3.5-2.4,3-4.6
	c-0.4-1.9-2.8-3.2-4.9-2.7c-2.1,0.5-3.2,2.5-2.5,4.7c0.5,1.5,0.1,2.5-0.6,3.8c-0.8-1.1-1.7-1.9-1.6-3.1c0-2,0.4-4,0.8-5.9
	c0-0.2,0.3-0.4,0.5-0.5c1.3-0.6,1.8-1.7,1.8-3.1c0-1.4-0.5-2.7-1.5-3.7c-1.5-1.6-3.9-1.4-5.3,0.2c-1.4,1.7-1.5,4.2,0.2,5.7
	c1.5,1.3,1.2,2.5,0.9,4.1c-0.8-0.2-1-0.7-1.4-1.1c-1.4-1.5-2.7-3.2-4.3-4.6c-1.3-1.2-1.6-2.7-1.9-4.2c-0.1-0.8,0.1-1.3,0.9-1.7
	c1.6-0.9,2.2-2.3,1.9-4c-0.3-1.7-1.5-2.7-3.1-3.3c-2.1-0.8-4-0.1-4.9,1.7c-1,1.9-0.6,3.6,1.1,5c0.4,0.3,0.9,0.6,0.5,1.4
	c-1-0.8-1.9-1.6-2.9-2.3c-1.5-1-1.4-2.6-1.8-4c-0.3-1.2,0.9-1.4,1.3-2.1c0.1-0.1,0.2-0.2,0.3-0.4c0.9-1,1.1-2.1,0.5-3.3
	c-0.6-1.2-1.5-1.9-2.8-2c-1.7-0.1-3.3,0.9-4,2.5c-0.7,1.6-0.3,3,1.3,4.2c0.6,0.5,1.1,0.8,0.9,1.8c-1.5-0.7-2.6-1.4-3.2-3
	c-0.6-1.6-2.5-2.4-4.2-2c-1.3,0.3-2.1,1.4-2.1,2.9c0,1.6,1.1,3,2.8,3.5c0.7,0.2,1.4,0.1,2.1-0.1c0.4-0.2,0.8-0.6,1.3-0.2
	c1.8,1.4,3.6,2.8,5.7,4.4c-1.4,0.2-1.8-0.6-2.5-0.8c-1.6-0.6-3.7,0.1-4.6,1.6c-0.8,1.2-0.5,2.7,0.5,3.7c1.2,1.1,3.3,1.2,4.7,0.1
	c0.4-0.3,0.7-0.7,1-1c0.2-0.2,0.4-0.7,0.7-0.6c1.5,0.4,3.4-0.1,4.6,0.8c2.3,1.7,4.4,3.8,6.5,6.2c-1.7,0.4-2.9,0.8-4.1-0.8
	c-1.3-1.9-4.1-1.8-5.7-0.2c-1.4,1.5-1.2,3.9,0.5,5.3c1.9,1.6,4.4,1.4,5.6-0.6c0.7-1.1,1.4-1.3,2.5-1.3c0.6,0,1.3,0,1.9-0.1
	c0.9-0.2,1.5,0.2,2,0.9c1,1.4,2.1,2.8,3.1,4.3c0.4,0.7,1.6,1.6,1,2.2c-1,0.9-1.2-0.7-1.9-1.1c-0.1,0-0.1-0.1-0.2-0.2
	c-1.2-0.9-2.9-1.1-4.3-0.2c-1.2,0.8-2.1,1.8-2,3.3c0.1,1.4,1.4,2.7,3,3.1c1.5,0.4,2.6,0,3.7-1.1c1.2-1.1,3.5-1.3,4-0.2
	c0.9,1.8,2,3.6,2,5.8c-0.9,0.2-1.5-0.3-2.2-0.6c-7.4-3.1-14.9-5.9-22.5-8.3c-1.3-0.4-2.1-0.9-2.5-2.4c-0.8-3.2-3.8-4.1-6.5-2.1
	c-0.9,0.6-1.6,0.6-2.5,0.4c-1.2-0.3-2.4-1-3.5-0.8c-2.7,0.4-4.5-0.9-6.7-2.3c1.4-0.8,2.5-1.3,3.7,0c0.4,0.5,1.1,0.6,1.7,0.7
	c1.7,0.2,3-0.5,3.9-1.8c0.7-1,0.9-2.2,0.2-3.4c-1.4-2.5-5.7-2.7-7.2-0.2c-0.4,0.7-0.8,1.1-1.6,1.3c-1.1,0.3-2.3,0.7-3.4,1.1
	c-1.4,0.5-2.6,0.1-3.7-0.9c1-1,2-1.2,3.3-1c1.8,0.3,3.3-0.9,3.7-2.7c0.4-1.7-0.9-3.9-2.5-4.4c-1.6-0.5-3.5,0.3-4.3,1.8
	c-0.4,0.7-0.3,1.4-0.3,2.1c0,1.5-2.4,3.5-3.8,3.1c-3.5-1.1-7.1-1.4-10.5-2.2c-5.6-1.3-11.2-2.1-16.8-2.3c-6.8-0.3-13.6-0.2-20.4,0.4
	c-0.9,0.1-1.9,0.3-2.9-0.1c-2.8-1.1-5.8-1.9-8.2-3.8c-2.3-1.7-4.9-2.7-7.5-3.6c-7.1-2.4-14.3-4-21.7-4.8c-3.3-0.3-6.7-0.9-10-1.3
	c-0.7-0.1-1.4-0.1-1.4,0.8c0,0.7,0.6,0.8,1.2,0.9c3.1,0.5,6,1.5,9,2.3c10,2.8,19.5,7.2,29.3,10.5c0,0,0,0.1-0.1,0.1
	c-7.9,1-15.8,2.3-23.6,4.1c-1.8,0.4-2.1,0.1-2.1-1.9c0-1.6-0.8-2.7-2.2-3.4c-1.3-0.6-2.8-0.3-3.7,0.8c-1.1,1.2-1.6,2.6-0.9,4.2
	c0.3,0.7,0.8,1.3,1.2,1.9c-2.3,0.8-2.3,0.8-3-0.4c-1.2-1.8-3-2.3-5.2-1.4c-2,0.8-2.7,2-2.2,4.4c0.2,1.1-0.4,1.5-1,1.3
	c-1.9-0.5-3.4,0.6-5,1.1c-9.4,2.7-18.5,6-27.5,9.8c-0.6,0.3-1.2,0.8-2.1,0.5c0.1-2.2,1.2-3.9,2-5.8c0.2-0.4,0.5-0.6,1-0.6
	c1.3,0,2.4,0,3.4,1.2c1.1,1.3,3.4,1.2,4.8,0c1.3-1,1.8-2.5,1.2-3.8c-1.1-2.4-4.2-3.1-6.2-1.4c-0.4,0.3-0.6,0.7-1,1
	c-0.2,0.1-0.5,0.2-0.7,0.1c-0.3-0.2-0.4-0.5-0.2-0.8c0.9-1.3,1.9-2.6,2.6-4c1.2-2.2,2.9-3.1,5.4-2.6c0.9,0.2,1.7,0.2,2.3,1.2
	c1.3,2,3.7,2.2,5.6,0.6c1.8-1.5,2-3.8,0.5-5.3c-1.6-1.6-4.4-1.7-5.7,0.2c-1.1,1.6-2.3,1.2-3.9,0.9c1.1-1.6,2.4-2.6,3.6-3.8
	c1.6-1.6,3.2-3.3,5.9-3.1c1.1,0.1,1.9-0.1,2.6,1c0.5,0.8,1.4,1,2.3,1.2c1.7,0.3,3.3-0.7,3.8-2.3c0.4-1.3-0.4-2.8-1.8-3.6
	c-1.3-0.7-2.6-0.7-3.9,0.1c-0.4,0.3-0.7,1-1.4,0.3c0.2-0.2,0.3-0.4,0.5-0.5c1.3-1.1,2.6-2.1,3.9-3.2c0.7-0.6,1.3-0.8,2.3-0.4
	c1.8,0.7,3.6-0.2,4.4-1.9c1.1-2.1-0.3-4.4-2.7-4.4c-1.6,0-2.9,0.7-3.4,2.2c-0.5,1.6-1.6,2.1-3,2.7c-0.3-1.1,0.4-1.3,0.9-1.7
	c2.2-1.9,1.8-5-0.8-6.3c-1.6-0.8-3.4-0.4-4.3,0.9c-1,1.3-0.9,2.9,0.4,4.3c0.6,0.7,1.7,1.1,1.3,2.3c-0.3,1-0.1,2.2-0.9,2.9
	c-1.1,1.1-2.4,2.1-3.9,3c-0.1-1,0.5-1.2,0.9-1.5c1.3-1,1.6-2.3,1.2-3.8c-0.4-1.5-1.3-2.5-2.9-2.9c-1.9-0.4-4.4,0.8-5.2,2.6
	c-0.8,1.8-0.2,3.6,1.6,5c0.4,0.3,1,0.4,0.9,1c-0.1,1.3,0.1,2.7-0.8,3.7c-2.1,2.4-4.4,4.6-6.6,7.3c-0.5-1.9-0.9-3.3,0.8-4.4
	c0.4-0.2,0.6-0.7,0.8-1.2c0.6-1.5,0.4-3-0.5-4.3c-0.8-1.1-2-1.7-3.3-1.5c-1.8,0.3-2.7,1.6-3.2,3.2c-0.5,1.6-0.6,3.3,1,4.3
	c0.9,0.6,1.2,1.4,1.3,2.4c0.1,0.8,0.1,1.6,0.3,2.4c0.5,2,0.1,3.5-1.5,4.9c-0.8-1.3-1.2-2.5-0.5-3.9c0.5-1.1,0.2-2.2-0.5-3.2
	c-1-1.3-2.9-1.7-4.6-1.1c-1.7,0.7-2.5,2-2.4,3.7c0.1,1.8,1.3,3.3,3.1,3.3c1.5,0,1.9,0.9,2.4,1.9c0.5,1.1,1.2,2,0.4,3.3
	c-1.1,1.9-1.8,4.1-2.7,6.1c-1.1,2.6-2.7,4.8-5.6,6.1c-16.5,7.7-31.7,17.6-45.8,29.1c-0.9,0.7-1.8,1.5-2.8,2.3
	c-0.3-1,0.3-1.5,0.6-2.2c1.3-2.6,2.7-5.3,3.8-8c2.1-5.2,4.8-10.1,8.1-14.7c3.8-5.2,7.6-10.5,11.6-15.6c3.2-4.2,6.9-8,11.2-11.1
	c1-0.7,2-1.2,3.1-1.9c0.4-0.2,0.6-0.6,0.3-1c-0.2-0.3-0.6-0.3-0.9-0.2c-0.6,0.2-1.2,0.4-1.8,0.7c-3.2,1.4-6,3.4-8.6,5.6
	c-3.9,3.2-7.8,6.4-11.7,9.6c-7.6,6.3-13.3,14-17.4,22.9c-2.1,4.7-4,9.4-4.3,14.6c-0.1,1.8-0.5,3.6-0.7,5.5c-0.2,1.3-0.8,2.4-1.8,3.3
	c-8.1,7.6-15.4,16-22.7,24.4c-0.4,0.5-0.7,1.2-1.5,1.4c-0.2-0.9,0.4-1.6,0.6-2.3c4.3-11.8,8.6-23.6,10.9-36c0.6-3.3,2.3-6.4,4.3-9
	c1.8-2.4,4-4.6,6.6-6.3c2.3-1.5,4.3-3.4,5.9-5.6c3.6-5,5.6-11,9.1-16.1c0.3-0.5,0.3-1.1-0.1-1.6c-0.5-0.6-1.1-0.8-1.7-0.4
	c-2.7,1.5-5.9,2-8.5,3.9c-5.6,3.9-9.4,9-11.3,15.6c-0.5,1.6-0.7,3.3-1.2,4.9c-0.2,0.8-0.1,1.8-1.1,2.3c0-0.2-0.1-0.3-0.1-0.4
	c0.6-6,1.2-12.1,1.8-18.1c0.1-1.1,0.7-1.2,1.5-1.3c2.2-0.3,3.5-1.5,3.9-3.6c0.2-0.8,0.5-1.5,0.6-2.3c0.4-2-0.7-3.7-2.6-4.2
	c-0.5-0.1-1.1-0.2-1.7-0.2c-0.7,0-1-0.3-1-1c0-1.4,0.1-2.7-0.1-4.1c-0.1-1.3,0.2-1.6,1.5-1.8c2.5-0.2,3.5-2,2.8-4.4
	c-0.4-1.3-1.1-2.3-2.5-2.6c-0.7-0.1-0.6-0.6-0.5-1.1c0.1-0.5,0.5-0.5,0.9-0.4c0.5,0.1,1,0.1,1.4,0.1c1.2,0,2.4-0.6,2.8-1.5
	c0.7-1.4,0.7-3.1-0.2-4.6c-0.9-1.4-2.2-1.8-3.8-1.3c-0.3,0.1-0.6,0.1-0.9-0.2c0-0.1-0.1-0.3-0.1-0.4c-0.2-1.6-0.6-3.3,1.4-4.3
	c1-0.5,0.9-1.8,0.8-2.8c-0.1-1.7-1.4-2.6-2.5-3.6c-0.5,0-1,0-1.4,0c-1.2,0.7-2.3,1.4-2.6,2.9c-0.3,1.4,0.4,2.6,0.9,3.7
	c-1.1,0.4-2,0.6-2.7,1.4c-1.1,1.3-1.2,2.6-0.1,4.6c0.7,1.4,0.5,2-0.8,2.6c-2.5,1-3.6,2.6-3.2,4.7c0.4,2.2,1.7,3.1,4.8,3.1
	c0.6,0,0.9,0.1,0.9,0.7c0,0.6,0.1,1.2-0.7,1.2c-0.2,0-0.5,0-0.7,0.1c-2,0.5-3.5,2.6-3.4,4.7c0.1,2,1.6,3.4,3.7,3.7
	c0.5,0.1,0.9-0.2,1.4,0.2c0.2,1.3,0.1,2.5-0.7,3.6c-0.7,1.1-0.9,2.5-0.5,3.7c0.5,1.4,0.3,2.8,0.2,4.3c-0.4,3.6-0.9,7.1-1.4,10.7
	c-0.1,0.4,0.1,1-0.6,1.1c-1-1.1-1-2.5-1.1-3.8c-0.1-5.6-2.8-9.5-7.9-11.8c-1.9-0.9-3.8-1.6-5.8-2.4c-1.4-0.5-2,0-1.8,1.5
	c0.6,3.8,2,7.2,4.4,10.2c2.1,2.5,4.6,4.4,7.4,6c0.5,0.3,1.3,0.4,1.6,1c1.3,2.6,2.8,5,2.3,8.1c-1.3,7.7-2.9,15.4-5.3,22.9
	c-0.1,0.4-0.1,0.9-0.9,1c-1.1-4-3.6-7.6-3.1-12.1c0.2-1.7-0.6-3.4-1.1-5.1c-0.2-0.7-0.3-1.3,0.3-2c1.5-2,1.1-4.1-0.9-5.6
	c-1.5-1-3.4-0.7-4.4,0.9c-0.4,0.6-0.6,1.2-0.9,1.9c-0.8-0.8-1.4-1.6-1.4-2.6c0.1-2.6-0.7-5-1.4-7.5c-0.4-1.4-0.8-2.7,0.1-4.3
	c1.1-1.9-0.2-4.2-2.2-4.8c-2.1-0.7-4.6,0.7-5.1,2.8c-0.5,2.1,0.7,4.1,2.9,4.3c1.1,0.1,1.6,0.5,1.7,1.5c0.2,1.4,0.8,2.7,0.8,4.2
	c-1.8-1.7-3.4-3.3-5.1-4.9c-0.2-0.2-0.4-0.5-0.4-0.8c-0.3-2.5-1.5-4.7-2.5-7c-0.5-1.1-0.6-2,0-3.1c0.9-1.7,0.4-3.3-0.9-4.3
	c-1.2-0.9-3.8-0.9-5-0.1c-1.4,1-2.1,2.7-1.7,4.4c0.4,1.5,1.5,2.4,3.4,2.6c0.5,0.1,1.3-0.3,1.6,0.3c0.7,1.4,1.7,2.8,1.6,4.8
	c-2.3-1.9-5-2.6-6.1-5.5c-0.6-1.6-2.9-1.9-4.4-1.1c-1.8,0.9-2.8,3.1-2.3,4.8c0.5,1.5,2.2,2.7,4,2.4c0.6-0.1,1.3-0.3,1.8-0.6
	c0.8-0.7,1.5-0.6,2.3,0c2.3,1.6,4.6,3.2,6.7,5.1c0.4,0.3,1,0.6,0.8,1.3c-3.4,0-3.4,0-6.5-1.6c-1.6-0.8-3.2-0.6-4.2,0.5
	c-1.1,1.2-1.3,3.1-0.5,4.5c0.8,1.4,2.4,2,4.2,1.5c1-0.3,2-0.8,2.4-1.8c0.4-1,1-1.1,1.9-0.9c0.6,0.1,1.1,0.3,1.7,0.3
	c3.7-0.1,6.1,1.7,7.9,4.8c1.2,2,2.7,3.9,3.5,6.3c-1,0-1.9-0.1-2.8,0c-1.3,0.1-2.1-0.2-2.8-1.5c-0.9-1.8-2.4-2.1-4.3-1.3
	c-2.4,1-3.6,3.3-2.8,5.9c0.2,0.6,0,1.4,0.8,1.9c2.3,1.3,5.3,0.5,6.6-1.9c0.4-0.7,0.7-1,1.4-0.9c0.7,0,1.4,0.1,2.2,0.1
	c2.2,0,4,0.7,4.6,3.2c0.3,1.3,1.1,2.5,1.6,3.7c0.2,0.5,0.7,0.9,0.1,1.6c-2.1-1-4.9-0.8-5.9-3.6c-0.1-0.2-0.4-0.3-0.6-0.4
	c-1.3-0.7-3.4-0.2-4.4,0.9c-1.1,1.4-1.1,3.3,0.2,4.6c1.2,1.2,3.2,1.6,4.3,0.3c1.4-1.7,2.7-1.1,4.2-0.5c0.9,0.4,1.8,0.6,2.7,1
	c0.5,0.2,1,0.2,1.2,0.7c1.3,2.8,2.3,5.6,2.7,8.6c0.1,0.4-0.2,0.8-0.3,1.1c-4.4,12.4-9.3,24.5-16,35.9c-0.3,0.5-0.5,1.1-1.3,1.6
	c0.3-4.7,0.2-9.1-0.4-13.5c-1-7-2.1-13.9-4.9-20.5c-1.3-3-2.5-6.1-3.9-9c-1.3-2.8-2.7-5.6-2.8-8.9c0-0.6-0.2-1.1-0.9-1.1
	c-0.7,0-0.9,0.5-1,1.1c-0.2,1.4-0.3,2.9-0.3,4.3c0.1,5.8,1,11.5,2,17.1c1.2,6.5,2.7,13,3.2,19.6c0.5,5.9,1.1,11.7,2.6,17.5
	c0.6,2.5,0.2,5-1.1,7.4c-1.6,2.8-2.8,5.7-4.2,8.6c-0.2,0.5-0.2,1.2-1,1.2c-2.1-6.1-3.1-12.4-4.5-18.6c-0.9-4-1.2-8.1-2.6-11.9
	c-5.1-13.9-14.4-23.6-28.2-28.9c-0.5-0.2-1.1-0.4-1.6-0.5c-0.5-0.1-0.9,0.1-1.3,0.5c-0.4,0.5-0.3,1.1,0.1,1.5
	c0.4,0.4,0.8,0.8,1.2,1.2c1.7,1.3,2.7,3.1,3.7,5c2.3,4.8,4.4,9.7,6.3,14.8c2.4,6.5,5.5,12.6,9.7,18.2c3.6,4.8,7.6,9.2,11.2,14
	c1.3,1.7,2.5,3.4,3.2,5.3c0.9,2.3,1.4,4.6,0.1,7.1c-2.1,4.2-3.7,8.7-5.6,13c-3,7.1-5.9,14.2-8.6,21.4c-0.7,1.9-0.7,1.9-2.7,1.9
	c-0.6,0-1.3,0-1.9,0c-21.8,0-43.5,0-65.3,0c-0.8,0-1.6,0-2.4,0.1c-1.3,0.2-2.2,1.2-2.2,2.4C119.8,222.3,120.7,223.4,122,223.5z
	 M649,165.7c3.9-9.8,7.8-19.6,13.1-28.7c1.4-2.4,3.2-4.6,5.3-6.5c0.2-0.2,0.5-0.4,0.7-0.6c0.3-0.3,0.4-0.7,0.2-1.1
	c-0.3-0.5-0.9-0.4-1.3-0.1c-0.6,0.4-1.2,0.9-1.7,1.3c-3.2,2.8-5.5,6.2-7.5,9.9c-2,3.6-3.6,7.3-5.2,11c-0.4,0.8-0.6,1.7-1.3,2.4
	c1.2-10.1,11-24.9,23.4-30.5c-1,1.9-1.7,3.4-2.4,4.9c-2.9,5.8-5.1,11.9-8,17.7c-2.4,4.8-5.2,9.4-8.5,13.6c-2.2,2.8-4.5,5.6-6.8,8.4
	C648.5,166.7,648.9,166.2,649,165.7z M599.6,43.5c-0.8-1.6-1.6-9.3-1.3-11.4c0.8,0.9,2.7,0.4,2.4,1.8
	C600.5,35.1,599.9,42.1,599.6,43.5z M254.4,30.8c1.1-0.1,0.8,0.7,0.8,1.3c0,1.4,0.1,2.8-0.7,4.6c-0.4-1.7-0.7-3-1.1-4.3
	C253.1,31.4,253.3,30.8,254.4,30.8z M205.2,163.9c-0.2-0.1-0.4-0.1-0.5-0.2c-7.6-8.8-14-18.3-18.4-29.1c-1.9-4.7-3.9-9.3-6.3-13.7
	c-0.1-0.2-0.1-0.4-0.2-0.7c9.2,3.1,21,17.3,22.9,29.5c-0.8-0.2-0.9-1-1.1-1.5c-1.5-3.4-2.9-6.8-4.6-10c-2.3-4.3-5-8.4-8.8-11.6
	c-0.5-0.4-1-0.8-1.6-1.1c-0.3-0.2-0.6,0-0.8,0.3c-0.2,0.3-0.2,0.6,0,0.9c0.2,0.2,0.4,0.5,0.7,0.7c3.1,2.7,5.3,6.1,7.3,9.7
	c2.3,4.1,4.1,8.5,6,12.8c1.6,3.8,3.5,7.3,4.8,11.2C204.8,162,205.3,162.9,205.2,163.9z M495.1,58.2c0.8-0.4,1.5,0.4,2.3,0.4
	c-0.1,1-0.5,1.9-1.2,2c-1.3,0.2-2.7,0.3-3.9-0.6c-0.5-0.4-1.1-0.8-1.4-1.5C492.2,58.6,493.7,59,495.1,58.2z M490.7,58.5
	c-0.6-0.2-1-0.6-1.3-1.3C490.3,57.3,490.8,57.6,490.7,58.5z M459.5,45.9c-11-1.9-22-2.9-33.5-2.8C431,41.3,454.4,43.3,459.5,45.9z
	 M446.9,47.7c-0.9,0.7-1.9,1.5-2.8,2.2c-1.6,1.2-3.6,0.7-4.3-1.2c-0.3-0.9-0.7-1.7-1.8-2.7c3.5-0.1,6.5,0.4,9.4,0.7
	C447.8,47.3,447.2,47.4,446.9,47.7z M369.2,52.3c0.9-0.1,1.7-0.5,2.5-0.8c1.1-0.4,2.2-1.1,3.5,0c-2.5,1.6-4.8,3.4-7.4,4.9
	c-1.1,0.7-2.5,0.4-3.7,0.1c-0.9-0.2-0.7-1.5-1.5-2.3C365,53.3,367.1,52.7,369.2,52.3z M200.8,215.2c1-2.5,2.1-5,2.9-7.6
	c1.2-3.6,4.1-4.9,7.4-5.6c2.7-0.6,5.6-0.5,8.4-0.5c4.4,0,8.6-0.9,12.7-2.1c6.2-1.9,11.8-4.9,17.2-8.2c7.2-4.4,13.9-9.5,19.6-15.7
	c1.1-1.2,2.3-2.2,3.6-3.1c0.5-0.4,0.8-0.8,0.6-1.4c-0.2-0.7-0.8-0.7-1.4-0.6c-1.1,0.2-2.2,0.3-3.3,0.6c-5.6,1.1-11.3,1.2-16.9,1.9
	c-4.8,0.6-9.5,1.6-14,3.1c-2,0.6-3.9,1.5-5.6,2.7c-3,2-6,3.9-8.9,6.1c-3.1,2.3-5.5,5.4-7.7,8.5c-0.7,0.9-1.4,1.8-1.9,2.7
	c-1.4,2.4-3.9,3.2-6.2,4.5c-0.3-0.5-0.1-0.8,0-1c4.1-9.6,7.9-19.4,12.5-28.8c1.2-2.4,2.6-4.8,3.7-7.2c1-2.1,2.6-3.6,4.6-4.7
	c3-1.7,6.1-3.2,9.1-4.8c1.2-0.6,2.3-0.5,3.5-0.3c2.3,0.3,4.6,0.6,6.9,0.7c1.1,0,1.8,0.4,2.5,1.4c1.5,2.4,4.8,2.6,6.8,0.6
	c1.2-1.2,1.6-3,0.8-4.4c-0.7-1.3-2.3-2-3.9-1.7c-1,0.2-2.1,0.4-2.9,1.1c-0.7,0.7-1.5,0.8-2.4,0.6c-1.4-0.3-2.8-0.5-4.2-0.8
	c-0.1,0-0.1-0.1-0.3-0.2c0.1-0.6,0.7-0.7,1.2-0.9c4.3-2.8,8.9-4.6,14-4.9c0.6,0,1.1-0.2,1.6-0.3c1.2-0.2,2.1-0.4,3.3,0.6
	c2,1.6,5.4,0.6,6.7-1.6c1.1-1.9,0.3-3.7-1.9-5.5c-1.7-1.4-4.2-0.9-5.5,0.9c-0.1,0.2-0.3,0.4-0.4,0.6c-0.6,3.3-3.1,2.8-5.4,2.8
	c2.7-2.3,5.2-4.7,7.8-7c0.3-0.3,0.8-0.5,1.3-0.6c2-0.8,4-1.7,5.8-2.9c1.1-0.7,1.9-0.9,3.2-0.1c2.2,1.4,5,0.2,5.9-2.2
	c0.8-2.3-0.6-5-2.9-5.8c-0.5-0.2-1.1,0.1-1.5-0.4c2.5-2.9,2.7-5.1,0.6-6.8c-2.2-1.9-5.4-1-7.9,2.1c-0.3-1.8-1.4-2.6-2.9-3.2
	c-2-0.7-4,0.2-4.8,2c-0.9,2-0.1,4.2,1.6,5.2c1.7,0.9,1.7,0.9,1.3,2.7c-0.4,1.7-0.9,3.4-0.8,5.2c0,0.6-0.2,1.1-0.6,1.5
	c-1.8,1.9-3.6,3.8-5.9,5.7c-0.4-1.3-0.2-2.4-0.1-3.4c0-0.5,0.3-0.7,0.7-0.9c0.5-0.3,1-0.5,1.5-0.8c1.4-1.1,2.2-2.9,1.6-4.4
	c-0.6-1.7-1.8-3-3.7-3.4c-1.8-0.4-3.6,0.5-4.6,2c-1.4,2.2-1.2,4.4,0.8,6.2c0.6,0.6,0.8,1.1,0.7,1.9c-0.1,0.6-0.1,1.1-0.1,1.7
	c-0.3,4.3-0.3,4.3-4.1,6.8c-1.2,0.8-2.4,1.6-3.7,2.2c-0.5-0.8,0.2-1.4,0.2-2.1c0.1-1.1,0.7-1.6,1.7-1.9c1.7-0.5,2.9-1.6,3.1-3.5
	c0.3-2.3-1.4-4.4-4-4.9c-2.3-0.4-4.6,1.1-5.2,3.6c-0.3,1.5-0.3,3,0.9,4c1,0.8,0.8,1.6,0.6,2.7c-0.6,3.4-2.5,5.4-5.7,6.7
	c-3.2,1.3-6.2,3-9.1,4.8c-0.3,0.1-0.5,0.4-0.8,0.2c0-0.1-0.1-0.2-0.1-0.2c2.5-4.4,4.4-9.2,7.7-13.2c8.5-10.5,17.2-20.9,26.9-30.3
	c10.9-10.6,22.9-20,35.7-28.1c2.9-1.9,6.3-2.8,9.8-2.8c5.5,0,11,0.7,16.5,1.3c8.4,0.8,16.6,2.5,24.9,3.4c6.7,0.8,13.4,1.3,20.1,0.7
	c5.9-0.5,11.4-2.5,16.9-4.4c0.5-0.2,1.1-0.5,0.9-1.2c-0.2-0.7-0.8-0.6-1.4-0.5c-1.9,0.4-3.7,0.8-5.6,1.3c-4.5,1.1-9.1,0.5-13.6,0.6
	c-9.4,0.2-18.7-0.9-27.9-2.3c-8.1-1.2-16.1-2.3-24.3-2.2c-2.4,0-4.7,0.5-7.2,0.7c15-9.1,30.9-16,47.9-21.3c-0.2,2.2,0.2,4,2.3,4.9
	c2,0.9,3.5-0.1,4.9-1.4c-1.4,2.4-3,3.4-5,3.6c-1.4,0.1-2.2-0.5-2.9-1.6c-0.7-1.1-1.7-1.6-3.1-1.4c-1.2,0.2-2,0.9-2.4,2.1
	c-0.5,1.4,0.1,3.3,1.4,4.3c1.1,0.8,2.8,0.8,4,0c0.5-0.4,0.8-1.3,1.9-0.8c-0.7,1.1-1.4,2.2-2.9,2.2c-0.2,0-0.3,0-0.5,0.1
	c-1.5,0.6-2.5,2.4-2.2,3.9c0.3,1.4,1.6,2.3,3,2.2c1.6-0.1,3.4-1.6,3.2-3c-0.4-2.2,0.9-3.2,2.2-4.3c0.8-0.7,1.6-1.6,2.7-2.2
	c0.2,0.8-0.5,1-0.8,1.4c-0.6,0.8-0.9,1.7-0.7,2.7c0.3,1.9,1.9,3.2,3.5,2.9c1.8-0.4,3-2.3,2.4-4.3c-0.1-0.2-0.2-0.4-0.3-0.7
	c-0.2-0.9-1.6-1.2-1-2.4c0.7-1.7,0.8-3.7,2.8-4.8c1.8-1,3.3-2.5,5.2-3.5c0.4,1.6,0.1,2.6-1.4,3.4c-1.9,1-2.2,3.6-1,5.2
	c1.2,1.6,3.4,1.8,5.1,0.4c1.7-1.5,1.9-3.7,0.5-5.3c-1.6-1.9-1.1-5.2,1.1-6.3c1.9-1,3.8-1.9,6-2.7c0.3,1.2-0.5,1.3-1,1.7
	c-1.2,0.9-1.8,2.1-1.5,3.5c0.3,1.4,1,2.6,2.4,3c1.4,0.4,2.5-0.2,3.4-1.3c0.9-1.2,1.3-2.7,0.4-4c-0.6-0.9-0.9-1.8-0.7-2.9
	c0.2-0.8,0.5-1.2,1.3-1.5c7.2-2.2,14.5-3.8,22.1-3.9c7.3-0.1,14.5-0.4,21.8,0c0.7,0,1.4-0.1,2.2,0.3c-1.4,1.1-2.2,2.3-1.5,4.1
	c0.8,2.1,2.5,3.2,4.7,2.7c0.5-0.1,0.9-0.3,1.4-0.4c0.2,0,0.5,0.1,0.6,0.2c0.2,0.3,0.1,0.6-0.2,0.8c-2.3,1.3-4.6,2.5-7.1,3.5
	c-0.5,0.2-0.9-0.1-1.3-0.3c-0.7-0.4-1.3-0.9-2-1.3c-0.8-0.4-1.3-0.9-1.3-2c0-1.5-0.9-2.6-2.3-3.1c-1.5-0.5-3-0.4-4.3,0.6
	c-1.3,1-1.6,2.8-0.8,4.3c0.9,1.7,2.9,2.5,4.7,2c2-0.6,2-0.6,3.7,0.8c-0.1,0.7-0.8,0.7-1.3,0.8c-1.3,0.4-2.6,0.7-3.9,1.2
	c-2.5,1.1-4.8,0.4-7.1-0.6c-0.8-0.3-0.8-0.9-0.9-1.5c-0.2-1.3-1-2.2-2.1-2.7c-1.3-0.7-2.9-0.4-3.8,0.5c-0.9,0.9-1,2.2-0.5,3.6
	c0.7,1.5,2,2.3,3.6,2.3c0.5,0,1.1-0.5,1.6,0.3c-2.1,0.7-4.3,0.9-6.5,1.2c-0.6,0.1-1-0.2-1.4-0.7c-0.5-0.8-1.3-1.2-2.2-1.2
	c-1.6-0.2-3.2,0.6-3.8,2c-0.6,1.3-0.3,2.6,0.7,3.5c1.2,1,3.2,1.3,4.4,0.2c1.3-1.1,2.6-1.3,4.2-1.2c-0.2,1.2-1.1,1-1.9,1.2
	c-1.7,0.4-2.7,1.4-2.8,3.1c-0.1,1.8,0.9,3.6,2.4,4.1c1.2,0.4,2.4,0.4,3.4-0.5c1.2-0.9,1.5-2.2,0.9-3.4c-0.9-1.9,0-3,1.2-4.2
	c0.5-0.5,0.9-0.9,1.6-1c1.4-0.2,2.8-0.5,4.2-0.7c-0.1,1.1-0.8,0.8-1.3,0.9c-2,0.4-3,1.7-3.2,3.7c-0.1,1.9,0.9,3.3,2.8,3.9
	c1.8,0.6,3.5,0.3,4.9-1.1c1.3-1.4,1.4-3,0.4-4.6c-0.5-0.8-0.3-1.4,0.2-2.1c1-1.5,2.2-2.4,3.9-2.8c2.4-0.6,4.7-1.5,7.3-2.4
	c-0.4,1.7-0.7,2.9-2.7,3.4c-2.3,0.5-3.4,2.7-2.9,5.1c0.4,2,2.4,3.1,4.4,2.6c2.8-0.8,4.1-3.3,3.1-6.1c-0.1-0.1-0.2-0.3-0.2-0.4
	c0.3-2.1,1.2-4,2-5.9c0.5-1.1,1.7-1.5,3-1.9c-0.1,1.6-0.3,2.7-1.5,3.8c-1.7,1.5-1.5,3.8,0.2,5.2c1.7,1.4,4.3,1.3,5.6-0.3
	c1.3-1.6,1.2-4.3-0.5-5.3c-1.6-0.9-1.2-2.1-1.3-3.4c-0.1-1.3,0.4-2,1.5-2.7c2.3-1.6,4.5-3.3,6.5-5.3c0.5-0.6,1.1-0.9,1.9-0.7
	c1.6,0.3,3.2,0.5,4.7,0.8c2.8,0.6,5.6,1,8.5,2c-1.2,1.9-1.5,3.8,0.2,5.5c0.9,0.9,2.1,1.4,3.3,0.8c1.9-0.9,2.4-2.6,2.2-4.7
	c1.2-0.2,2.2,0.3,3.2,0.6c2.2,0.6,3,3.1,1.4,4.9c-1.3,1.5-1.5,2.8-0.6,4.4c0.8,1.4,2.3,2.2,3.8,2c1.3-0.2,2.3-1.1,2.7-2.4
	c0.4-1.6-0.2-3.2-1.6-4.2c-1.5-1-1.5-1-1.4-3.4c2.5,1.4,4.9,3,6.8,5c0.9,0.9,1,2.6,1.4,4c0,0.2-0.2,0.4-0.3,0.6
	c-0.2,0.3-0.6,0.6-0.8,0.9c-0.9,1.5-0.5,3.6,0.8,4.6c1.1,0.9,2.7,0.8,3.7-0.3c1.3-1.3,1.4-3.2,0.4-4.6c-0.3-0.4-0.7-0.8-0.9-1.4
	c1.8,1.1,3.3,2.5,4.8,4c0.5,0.5,0.1,1.1,0,1.6c-0.1,1.3,0.4,2.3,1.5,3.1c1.1,0.7,2.2,0.9,3.4,0.3c1-0.5,1.5-1.5,1.4-2.6
	c-0.2-1.4-0.8-2.7-2.3-3c-1.3-0.3-2.3-0.9-3.1-2c-0.1-0.1-0.1-0.3-0.1-0.4c0.5-0.4,0.9-0.1,1.2,0.2c2.6,2.2,4.9,1.6,6.1-1.5
	c0.1-0.3,0.2-0.6,0.4-1.2c14.7,4.9,28.6,11.3,41.9,19c-0.2,0.7-0.7,0.5-1,0.4c-5.6-1.1-11.2-0.6-16.7-0.2
	c-8.6,0.7-17.1,2.4-25.7,3.3c-5.3,0.5-10.7,0.9-16,0.8c-4.1-0.1-8.2,0.4-12.2-0.4c-2-0.4-3.9-0.8-5.9-1.2c-0.6-0.1-1.3-0.2-1.9-0.3
	c-0.3,0-0.6,0.1-0.7,0.5c-0.1,0.3,0,0.7,0.3,0.8c0.5,0.3,1,0.5,1.5,0.7c9.5,3.8,19.2,5,29.4,4.1c7.6-0.7,15.1-1.8,22.6-2.9
	c8.2-1.2,16.4-2,24.6-2.5c4-0.3,7.9,0.8,11.2,2.9c10.4,6.6,20.2,14,29.5,22.2c10.5,9.3,19.7,19.8,28.7,30.6c0.3,0.4,0.6,0.8,0.9,1.1
	c5,5.2,8.2,11.6,11.6,17.8c0.1,0.1,0,0.3,0.1,0.5c-0.6,0.3-1-0.2-1.5-0.5c-3.7-2.1-7.5-4-11.3-5.9c-1.2-0.6-1.9-1.3-2.2-2.6
	c-0.2-0.8-0.4-1.5-0.7-2.3c-0.5-1.3-0.7-2.2,0.6-3.4c1.5-1.4,1.3-3.9-0.2-5.7c-1.4-1.8-3.3-2.3-5.3-1.3c-1.7,0.8-3,1.9-3,4
	c0,1.9,0.9,3.5,3.1,4c2.3,0.6,1.7,2.5,2.2,4c-2.6-1-4.9-2.6-7.1-4.3c-0.4-0.3-0.5-0.8-0.6-1.3c-0.4-1.8-0.2-3.7-0.5-5.5
	c-0.1-0.9,0.7-1.2,1.1-1.7c1.3-1.4,1.6-3,0.9-4.9c-0.7-1.8-1.9-2.9-3.9-3.1c-2.2-0.2-4.2,1.1-4.9,3.4c-0.6,1.6,0.3,3.6,1.9,4.7
	c2.3,1.5,2.3,1.5,1.8,4.8c-2.3-1.7-4.3-3.7-6.1-5.8c-0.2-0.2-0.4-0.6-0.4-0.8c0.1-2.7-1-5.2-1.3-7.9c1.2-0.3,2.4-0.7,3.1-1.9
	c0.5-0.8,0.6-1.6,0.5-2.5c-0.2-1.7-1.3-3.1-2.8-3.5c-2-0.5-3.9,0.6-5.6,3.2c-2-2.9-5.2-3.8-7.5-2.1c-2.2,1.7-1.9,4.2,0.7,7.1
	c-1.8,0.2-3.3,0.7-4.2,2.4c-1,1.9-0.8,4.1,0.8,5.5c1.3,1.2,3.7,1.4,5.3,0.3c0.7-0.5,1.2-0.6,1.9-0.1c2.3,1.5,4.7,2.7,7.3,3.6
	c0.4,0.1,0.7,0.4,1,0.6c2.3,2.3,4.8,4.4,7.6,6.8c-1.8,0.4-3.1,0-4.4-0.3c-0.5-0.1-0.5-0.5-0.7-0.9c-0.2-0.6-0.4-1.2-0.7-1.8
	c-1.3-2.2-4-2.8-6-1.2c-0.8,0.6-1.5,1.5-1.9,2.4c-0.6,1.1-0.4,2.2,0.2,3.2c1.4,2.2,4.7,3,6.8,1.4c1-0.7,1.8-0.9,2.8-0.6
	c2.6,0.7,5.4,0.9,8,1.3c0.5,0.1,0.9,0,1.4,0.3c2.6,1.5,5.2,3,8.3,4.7c-2.3,0.4-4.1,0.8-5.9,1.1c-0.6,0.1-1-0.4-1.5-0.7
	c-1.1-0.8-2.4-1.2-3.8-1.2c-1.4,0-2.5,0.6-3.2,1.8c-0.7,1.3-0.5,2.6,0.4,3.8c1.9,2.5,5.7,2.6,7.3-0.1c0.6-1,1.3-1.3,2.3-1.4
	c2.5-0.3,5.1-0.5,7.6-0.8c1.4-0.1,2.6,0.1,3.9,0.8c3.2,1.6,6.4,3.2,9.5,5.1c1.3,0.8,2.2,1.8,2.9,3.1c3.8,6.8,7,13.8,10,21
	c2.1,4.9,4.1,9.9,6.2,14.8c0.3,0.7,0.9,1.4,0.5,2.4c-2.3-1.2-4.6-2.1-6.1-4.4c-1.1-1.8-2.4-3.4-3.6-5.1
	c-4.7-6.2-11.2-10.2-17.9-13.8c-4.8-2.6-10.3-3.3-15.7-4.2c-4.5-0.7-9.1-0.7-13.6-1.4c-2.4-0.4-4.9-0.7-7.3-1.2
	c-0.8-0.1-1.7-0.4-2.1,0.5c-0.5,1,0.5,1.4,1.1,1.8c1.4,1.1,2.7,2.2,3.9,3.5c6.5,7.2,14.5,12.4,22.8,17.4c5.7,3.4,11.8,5.7,18.2,7.3
	c3.2,0.8,6.5,0.9,9.8,0.9c2.2,0,4.5,0.2,6.7,0.4c0.9,0.1,1.7,0.4,2.5,0.7c2.7,1,4.3,2.9,4.7,5.7c0.3,1.7,0.9,3.4,1.3,5.1
	c0.3,1.4,0.2,1.5-1.2,1.6c-0.6,0-1.3,0-1.9,0c-148.4,0-296.8,0-445.2,0C199.3,218.6,199.4,218.8,200.8,215.2z M258.3,179.3
	c-0.4-0.7-1.1-0.3-1.7-0.1c-7.8,3.8-16,6.9-24.3,9.6c-4.2,1.4-8.1,3.5-12.2,5c-0.7,0.3-1.4,0.7-2.6,0.6c2.6-2.4,4.8-4.8,7.5-6.6
	c3-2,6-4,9-6c3.7-2.5,8.1-3.4,12.4-4.3c5.1-1.1,10.3-1.5,15.4-2.4c1.5-0.3,3.1-0.6,4.6-0.9c0,0.8-0.5,1.1-0.9,1.5
	c-2.6,2.6-5.3,5.1-8.4,7.2c-5.6,3.9-11.2,7.8-17.4,10.6c-6.1,2.8-12.4,5.2-19.3,5.2c-0.4,0-0.8-0.1-1.2-0.1c0,0-0.1-0.1-0.1-0.2
	c0.1-0.4,0.5-0.4,0.7-0.5c6.8-2.4,13.2-5.6,19.9-8.3c5.4-2.2,10.6-4.9,15.7-7.7c0.7-0.4,1.4-0.8,2-1.3
	C258,180.3,258.6,179.9,258.3,179.3z M267.2,126.9c0.4-2.5,0.2-5.1,2.6-6.8C270.8,122.9,270.4,123.9,267.2,126.9z M274.7,123.8
	c-0.8,1.3-1.5,2.4-1.5,4c0,0.6-0.3,1-0.8,1.3c-0.8,0.4-1.7,0.8-2.6,1C271.4,127.9,272.1,125.1,274.7,123.8z M583.3,125.8
	c-0.7-1.1,0.5-1.8,0.7-2.8c2.2,1.8,2.1,4.2,2,6.7C585.1,128.4,584.1,127.1,583.3,125.8z M584.1,133.1c-1.1,0-1.8-0.8-2.6-1
	c-1.3-0.4-0.9-1.5-1.1-2.4c-0.3-1.1-0.9-2-1.9-2.9c1.3-0.4,1.8,0.1,2.2,0.8C581.8,129.4,582.9,131.2,584.1,133.1z M595.7,183.5
	c0.8,0.6,1.7,1.2,2.6,1.7c7.3,4.1,14.8,7.6,22.5,10.6c4.7,1.8,9,4.4,13.9,5.9c-2.8,0.6-5.5,0.2-8.1-0.4c-7-1.7-13.5-4.4-19.6-8.3
	c-6.3-4.1-12.8-7.9-18.1-13.3c-0.4-0.5-0.9-0.9-1.4-1.4c-0.2-0.2-0.3-0.4-0.4-0.6c0.1-0.1,0.3-0.3,0.3-0.3c6.1,1.4,12.3,1.7,18.5,3
	c2.7,0.6,5.4,1.3,8.2,2c0.8,0.2,1.7,0.5,2.5,0.9c7.1,3.9,13.8,8.3,19.4,14.4c-1.5-0.1-2.9-0.7-4.3-1.4c-5.7-2.8-11.7-4.7-17.7-6.8
	c-5.7-2-11.1-4.4-16.6-6.9c-0.3-0.1-0.6-0.3-0.9-0.4c-0.4-0.2-0.8-0.1-1,0.2C595.3,182.8,595.4,183.2,595.7,183.5z"/>
</svg>
