<?xml version="1.0" encoding="utf-8"?>
<!-- Generator: Adobe Illustrator 25.3.1, SVG Export Plug-In . SVG Version: 6.00 Build 0)  -->
<svg version="1.1" id="Layer_1" xmlns="http://www.w3.org/2000/svg" xmlns:xlink="http://www.w3.org/1999/xlink" x="0px" y="0px"
	 viewBox="0 0 841.9 595.3" style="enable-background:new 0 0 841.9 595.3;" xml:space="preserve">
<path d="M246.4,108.2c0-8.3,7.3-15.7,15.6-15.7c8,0,14.5,6.6,14.4,14.8c0,8.5-6.7,15.1-15,15.1C253.1,122.5,246.5,116.1,246.4,108.2
	z M346.3,67.9c5.4-0.1,9.6-4.4,9.6-9.9c0-5.4-4-9.3-9.4-9.3c-5.7,0-10.1,4.2-10.1,9.6C336.3,63.6,340.8,67.9,346.3,67.9z
	 M377.1,64.6c8.3,0,15.1-6.8,15.1-15.1c0.1-8.3-6.3-14.5-14.9-14.5c-8.4,0-15.4,6.6-15.4,14.5C361.9,57.6,368.9,64.7,377.1,64.6z
	 M315.5,85.8c8.3,0.1,15-6.5,15.1-15c0.1-8.2-6.2-14.6-14.5-14.7c-8.3-0.1-15.6,6.8-15.7,14.9C300.4,79.2,307,85.7,315.5,85.8z
	 M287.6,97c5.4,0,9.7-4.3,9.8-9.7c0-5.4-4.1-9.6-9.5-9.6c-5.5,0-9.9,4.5-10,9.9C277.9,92.8,282.2,97,287.6,97z M238.7,140.1
	c5.7,0,9.8-4.1,9.9-9.8c0-5.4-4.2-9.6-9.5-9.5c-5.3,0-9.8,4.6-9.8,10C229.2,136.1,233.4,140.1,238.7,140.1z M505.9,72.3
	c8.5,0,15.4-6.6,15.4-14.8c0-8.2-6.9-14.9-15.6-14.9c-8.2,0-14.6,6.2-14.7,14.2C491.1,65.1,497.8,72.2,505.9,72.3z M536.9,79.6
	c5.3,0,9.8-4.3,9.8-9.4c0-5.3-4.6-9.8-10-9.8c-5.5,0-9.6,4.1-9.5,9.5C527.1,75.2,531.5,79.5,536.9,79.6z M409.8,55
	c5.4,0,9.9-4.4,9.9-9.9c0-5.2-4.2-9.3-9.5-9.3c-5.7,0-10,4-10.1,9.3C400,50.3,404.6,55,409.8,55z M444.6,59.8
	c6.7-0.9,12.5-7.3,12.9-14.1c0.4-7.2-4.3-13.2-11.9-15c-0.7-0.2-1.5,0-2-0.6c-1,0-1.9,0-2.9,0c-1.1,0.6-2.3,0.6-3.4,1
	c-7.9,2.6-12,10.5-9.4,18.4C430.2,56.5,437.2,60.9,444.6,59.8z M474.9,58.9c5.5,0.1,9.9-4.2,10-9.5c0.1-5.3-4.3-9.6-9.8-9.7
	c-5.5,0-9.8,4-9.8,9.3C465.2,54.4,469.6,58.8,474.9,58.9z M230,434.1c0-5.4-4.5-9.9-9.9-9.8c-5.3,0.1-9.3,4.2-9.3,9.5
	c0,5.6,4.6,10.1,10,10C225.9,443.7,230,439.4,230,434.1z M289.8,488c-8.3,0-15.2,6.5-15.2,14.4c0,8.4,7.3,15.4,15.8,15.4
	c7.9,0,14.4-6.6,14.3-14.6C304.7,494.7,298.1,488,289.8,488z M348.8,516.5c-9.5,0.1-15.4,7.3-15.5,14.7c-0.1,8.1,7,14.9,15.6,15
	c8.4,0,14.7-6.2,14.6-14.5C363.5,523.4,356.8,516.4,348.8,516.5z M317.8,509.2c-5.3,0-9.7,4.3-9.7,9.5c0,5.4,4.5,9.8,10,9.8
	c5.5,0,9.6-4.1,9.5-9.5C327.5,513.5,323.1,509.2,317.8,509.2z M218.5,171.7c8.5,0,15.2-6.6,15.3-14.9c0-8.3-6.6-15.2-14.4-15.2
	c-8.4,0-15.4,7.2-15.4,15.8C204,165.5,210.4,171.8,218.5,171.7z M741.7,236.5c0,0.6,0,1.3,0,1.9c-0.7,1.1-1.6,1.7-3,1.5
	c-0.6-0.1-1.1,0-1.7,0c-205.9,0-411.8,0-617.7,0c-0.2,0-0.3,0-0.5,0c-2,0.3-3.8-0.2-5-2c0-0.3,0-0.6,0-1c1.3-1.8,3.2-2,5.3-2
	c166.7,0,333.4,0,500.1,0c1.1,0,2.2,0,3.6,0c-1.8-3.1-3.5-5.6-6.7-6.7c-0.5-0.2-1.1-0.3-1.6-0.5c-1.6-0.7-3.1-0.8-4.8-0.2
	c-4.7,1.6-9.6,1.7-14.4,0.2c-2.3-0.7-4.3-2.1-6.4-3.3c-1-0.6-0.9-1.4,0.1-1.8c2.7-1.1,5.3-2.6,8.2-3.4c4.8-1.2,9-0.1,12.7,3.2
	c2.1,1.9,2.1,1.9,5.4,2.8c-0.1-0.7-0.5-1.1-0.9-1.6c-3-3.7-5.9-7.3-8.9-11c-0.6-0.7-1.2-1.3-2-1.6c-1.4-0.6-2.5-1.6-2.8-3.1
	c-0.4-1.7-1.6-2.7-2.8-4.1c-1,1.6-2.3,2.6-4.2,2.5c-1,0-1.9-0.4-2.6-1.2c-1.8-1.8-1.6-4.5,0.4-6.8c-0.5-0.9-1.4-1.2-2.1-1.8
	c-0.5,0.2-0.6,0.4-0.7,0.7c-0.9,2.4-3.6,2.7-5.2,1.8c-2-1.1-2.7-3.4-1.7-5.6c0.2-0.5,1.1-0.9,0.7-1.4c-0.5-0.7-0.3-1.9-1.9-1.9
	c-2,0-3.1-1.1-3.4-2.7c-0.3-1.6,0.3-2.8,1.7-3.6c0.3-0.1,0.5-0.4,0.8-0.6c-0.6-0.4-1.1,0-1.7,0.1c-1.7,0.2-3.4-0.9-4-2.5
	c-0.7-2,0.5-4,2.6-4.2c2.5-0.2,4.5,1.7,4.1,4.1c-0.2,1.3,0.2,1.9,1,2.6c0.8,0.6,1.6,1.3,2.6,2.2c0.7-2.2,1.8-3.5,4.2-3.1
	c1.4,0.3,3,1.9,3.2,3.2c0.3,1.8-0.5,3-2.9,4.4c0.3,0.8,0.8,1.3,1.5,2c1-0.5,1.8-1.5,3.2-1c1,0.4,2,0.7,2.6,1.6
	c1.2,1.5,0.7,3-1.4,5.1c1.6,2,3.8,3.6,5.6,5.5c0.9-0.3,1.2-1.1,1.8-1.6c2-1.5,4.2-1.2,5.6,0.8c0.4,0.6,0.7,1.2,1.1,1.8
	c1.3,2.3,1.3,3.8-0.4,5.9c-0.5,0.6-0.7,0.9-0.2,1.6c4.9,5.5,9.6,11.1,14.3,16.8c0.1,0.1,0.3,0.1,0.5,0.1c-0.1-1.3-0.5-2.5-1.3-3.6
	c-1.2-1.8-2.4-3.6-3.5-5.5c-3.8-6.8-4.8-14-3-21.5c0.6-2.7,2.2-5,2.9-7.6c0.1-0.6,0.6-0.9,1.3-0.9c0.5,0,0.9,0.4,1,0.9
	c1.2,6.2,4.2,11.9,5.5,18.1c0.6,3,0.7,6,0.2,9.1c-0.6,3.4-0.4,6.9-0.1,10.3c0.1,2,1.2,3.9,1.9,5.9c0.2,0.6,0.7,0.8,1.3,0.8
	c3.7,0,7.4,0,11,0c0.8,0,1.1-0.5,1.1-1.2c0-1.9,0-3.8,0-5.8c0-0.5-0.1-1.1,0.6-1.1c0.6,0,0.7,0.5,0.8,1c0.2,1.8,0.5,3.6,0.6,5.5
	c0.1,1.2,0.5,1.7,1.8,1.6c6.3,0,12.6,0,19,0c1.1,0,1.5-0.4,1.5-1.6c-0.2-4.3-1.4-8.3-3.6-12c-1.7-2.8-3.1-5.8-4.2-8.9
	c-1.4-4.2-4.3-7.1-8.2-8.9c-4.5-2.1-8.8-4.5-12.9-7.4c-4.8-3.4-10-6-15.2-8.7c-4.3-2.3-8.6-4.6-12.9-6.9c-3.9-2.2-7.6-4.8-10.9-7.7
	c-0.7-0.6-2-1.3-1.4-2.2c0.8-1.2,1.6,0.3,2.3,0.7c1.8,1,3.6,1.7,5.6,2.2c2.5,0.6,4.9,1.3,7.4,1.9c11,2.4,20.8,7.6,30.2,13.7
	c3.1,2,6,4.2,8.3,7.2c0.2,0.2,0.4,0.5,0.7,0.5c0.2-0.6-0.2-1.1-0.4-1.6c-2.3-5.9-4.9-11.6-7.5-17.4c-1.7-3.6-4.3-6.7-6.1-10.3
	c-2.1-4-4.1-8.1-6.6-11.9c-0.9-1.3-1.9-2.3-3.4-2.9c-2-0.7-3.9-1.4-5.8-2.1c-1.1-0.4-2.1-0.4-3.2,0.4c-1.2,0.9-2.4,1.6-3.6,2.3
	c-1.1,0.6-1.8,1.2-1.4,2.8c0.5,1.6-0.6,3.1-2.1,3.6c-1.4,0.5-2.9,0-3.8-1.3c-0.8-1.1-0.8-2.8,0.1-4.1c0.8-1.2,1.7-1.5,3.3-1
	c0.6,0.2,1,0.3,1.6-0.1c1.6-1.1,3.3-2.2,5.1-3.4c-0.5-0.5-1.1-0.7-1.7-0.8c-2.3-0.5-4.5-1-6.7-1.7c-1.3-0.4-2.1-0.1-2.9,0.9
	c-0.9,1.1-1.9,2.2-2.9,3.2c-0.6,0.7-0.8,1.2-0.2,2.1c1,1.6,0.7,3.2-0.4,4.7c-0.9,1.2-2.2,1.7-3.6,1.3c-1.8-0.4-2.9-1.6-3.3-3.4
	c-0.8-3.3,1.3-5.6,4.6-5c0.7,0.1,1.2,0.3,1.7-0.4c0.9-1.4,2-2.6,3.4-3.9c-1.6-0.8-3.2-0.8-4.6-1c-2.3-0.3-4.6-0.3-6.9-0.5
	c-1.4-0.1-2.6,0.3-3.8,1.2c-1.6,1.3-3,2.9-4.6,4.2c-0.6,0.5-0.6,1-0.2,1.7c0.5,0.8,0.6,1.6,0.4,2.5c-0.4,1.9-1.5,3-3.1,3.1
	c-1.7,0.2-3.2-0.8-3.8-2.6c-0.6-1.6,0.1-3.5,1.8-3.9c2.8-0.6,4.2-2.7,5.9-4.5c0.3-0.3,0.6-0.7,1.1-1.3c-2.9,0.1-5.3,0.8-7.8,1.4
	c-1.1,0.3-2.1,0.7-3.2,0.9c-1.5,0.4-2.7,0.8-2.7,2.9c0,2.1-2.4,3.6-4.3,3.2c-1.9-0.4-3.2-2.8-2.8-5c0.4-2.1,2.4-3.3,4.6-2.6
	c1.1,0.4,2,0.2,3-0.1c2-0.7,3.9-1.3,6.1-2c-2.2-1.1-4.3-1.4-6.3-2.1c-1-0.3-1.2,0.6-1.6,1.1c-0.9,1.1-2.1,1.8-3.6,1.5
	c-1.6-0.3-2.5-1.4-2.9-2.9c-0.7-2.2,1.3-5.1,3.5-5.4c1.5-0.2,2.9,0.5,3.5,2.3c0.4,1.1,1.1,1.6,2.2,1.8c2.7,0.6,5.5,1.2,7.9,2.6
	c0.4,0.2,0.7,0.3,1.1,0.3c2.8-0.3,5.7-0.6,8.9-1c-2.3-1.6-4.5-2.4-6.6-3.4c-0.6-0.3-0.8,0.3-1.1,0.7c-1,1.4-2.3,1.6-3.8,1.2
	c-1.4-0.4-2.4-1.8-2.5-3.2c-0.1-1.6,0.5-3,2-3.8c2-1.1,4.3-0.3,5,2c0.3,1.1,1,1.5,1.9,1.8c3.2,1.3,6.5,2.4,9.2,4.6
	c0.6,0.5,1.3,0.5,2,0.6c0.9,0.1,1.8-0.1,2.6,0.4c0.1-0.7-0.5-0.8-1-1.1c-1.4-1.1-2-2.6-1.4-4c0.5-1.4,1.9-2,3.8-1.9
	c2,0.2,2.8,0.8,3.1,2.7c0.1,1,0.5,1.4,1.3,1.7c2,0.8,4,1.6,5.8,2.8c0.8,0.5,1.7,0.9,2.1,1.9c0.2,0.4,0.5,0.6,0.9,0.7
	c3.4,0.9,6.7,1.9,10.1,3.2c-0.1-1.1-0.7-1.7-1.1-2.3c-4.8-7.2-10.4-13.8-16.2-20.2c-1.3-1.4-2.9-1.9-4.6-2.5
	c-0.8-0.3-1.6-0.3-2.3-0.6c-1.1-0.3-2.1-0.2-3.2,0.3c-5.1,2.3-10.4,3-15.9,1.7c-2.1-0.5-3.8-1.6-5.7-2.5c-1-0.5-1-1.2,0-1.8
	c2-1.2,4-2.4,6.1-3.4c5.3-2.6,10.4-2.2,15,1.5c1.5,1.2,3.1,1.7,5,1.7c0-0.8-0.6-1.1-0.9-1.5c-3.2-3.3-6.5-6.6-9.8-9.9
	c-0.7-0.7-1.4-1.2-2.4-1.6c-1.4-0.5-2.5-1.5-3-2.9c-0.6-1.7-1.9-2.5-3.1-3.5c-2.1,3-4.5,3.7-6.6,2c-2-1.7-2.1-4.5-0.2-6.8
	c-0.7-0.8-1.6-1.2-2.6-1.7c-0.2,0.3-0.3,0.6-0.5,0.9c-1.1,2.3-2.7,3.1-4.8,2.4c-2-0.7-3.3-3-2.4-5.1c0.7-1.5,0.3-2.6-0.5-3.8
	c-1.5,0.6-2.8,0.2-3.9-0.9c-1.2-1.3-1.2-3.2,0-4.6c0.4-0.4,1-0.5,1.2-1.3c-0.9,0-1.6,0.4-2.5,0.4c-2.5-0.2-4.2-2.5-3.3-4.7
	c0.5-1.3,1.9-2.1,3.3-1.9c1.7,0.2,3.7,1.5,3.5,2.8c-0.5,3.3,2.1,3.8,4,5.3c0.7-2.1,1.6-3.7,4-3.4c1.5,0.2,3.3,1.7,3.6,3.2
	c0.3,1.6-0.4,2.9-2.5,4.4c0.3,0.8,0.9,1.2,1.6,1.7c2.3-1.6,4.5-1.5,6,0.1c1.3,1.4,1,2.8-0.9,5.1c1.8,2,4.2,3.3,6.2,5.1
	c3.2-4.2,5.1-4.2,8.1-0.2c2,2.7,2.1,3.6,0.3,6.4c-0.4,0.6-0.4,1,0.1,1.4c0.6,0.5,1.2,1.1,1.8,1.6c4.7,4.4,9.3,8.8,13.7,13.4
	c0.2,0.2,0.5,0.4,1,0.9c-0.3-1.6-0.8-2.7-1.6-3.7c-1.2-1.5-2.4-3-3.6-4.5c-4.9-6.6-6.8-14-5.6-22.2c0.4-2.5,1.7-4.8,2-7.4
	c0.1-0.7,0.5-1.2,1.3-1.2c0.7,0,1,0.5,1.2,1c0.4,1.1,0.8,2.3,1.2,3.4c1.3,3.1,2.7,6.1,4.1,9.2c2.1,4.6,3.1,9.4,2.8,14.4
	c-0.3,6.2,1.3,12,4.4,17.4c0.4,0.7,0.8,1.4,1.4,2c4.1,4.8,8,9.8,11.5,15c0.1,0.2,0.3,0.3,0.5,0.5c0.7-0.3,0.4-0.8,0.3-1.2
	c-0.7-6.5-1-13.1-1.9-19.6c-0.2-1.7-0.6-3.5-0.9-5.2c-0.1-0.5-0.1-1.1-0.1-1.7c0-0.3,0.1-0.7,0.4-0.7c0.5-0.1,0.8,0.2,0.9,0.6
	c1.1,3.8,3.2,7.1,4.5,10.8c0.9,2.7,1.9,5.3,2.9,7.9c1.9,4.8,3.4,9.6,4.3,14.7c0.3,1.4,0.5,2.8,1,4.2c1.1,3.3,1.6,6.7,1.7,10.1
	c0,0.8,0.2,1.6,0.6,2.3c4,7,7.2,14.5,10.2,21.9c0.2,0.5,0.4,1,0.7,1.5c0.1,0.1,0.2,0.2,0.5,0.4c0.7-6,2.1-11.8,3.2-17.6
	c0.1-0.7,0-1.2-0.4-1.7c-0.6-0.8-1.2-1.7-1.7-2.6c-0.9-1.5-1.6-2.9-4-2.4c-1.8,0.4-3.5-1.4-4-3.5c-0.6-2.3,0-4,1.8-5
	c1.4-0.8,3-1.2,4.6-0.5c2,0.8,2.9,3.2,1.9,5.5c-0.5,1.2-0.5,2.1,0.4,3c0.7,0.7,1,1.8,2.1,2.6c0.8-2.3,0.6-4.6,1-6.8
	c0.6-2.8-0.3-5-2.7-6.6c-0.5-0.3-0.9-0.7-1.3-1.1c-1-1.2-1.9-1.7-3.6-1.3c-2.4,0.5-5-2-5.1-4.6c-0.1-2.5,1.9-4.5,4.5-4.6
	c3-0.1,4.9,1.7,4.4,4.6c-0.5,2.3,0.5,3.4,2,4.5c0.5,0.4,0.8,1,1.8,0.9c0-3.4-0.4-6.7-1-9.9c-0.1-0.3-0.2-0.6-0.5-0.8
	c-2.5-1.7-3.9-4.4-6-6.5c-0.7-0.1-0.9,0.6-1.3,0.9c-1.4,0.9-3.1,0.8-4.5-0.3c-1.4-1.2-1.9-2.9-1.3-4.5c0.6-1.4,2.6-2.7,4.3-2.6
	c1.5,0.1,2.9,1.2,3.1,2.8c0.1,1.3,0.8,2,1.6,2.8c1,1.1,2,2.3,3,3.4c0,0,0.1,0,0.5,0.1c-0.3-2.4-1.2-4.6-1.8-6.8
	c-0.2-0.6-0.7-0.7-1.3-0.8c-2.3-0.6-3.5-2.1-3.4-4.3c0-2,1.7-4.2,3.5-4.7c2.2-0.6,4.5,0.8,4.8,3.1c0.2,1.4,0.1,2.7-0.7,3.9
	c-0.5,0.8-0.5,1.5-0.1,2.3c1,2.4,1.8,5,2.6,7.9c1.1-1.9,1-3.7,1.4-5.4c0-0.2-0.3-0.5-0.5-0.8c-0.3-0.3-0.6-0.5-0.9-0.8
	c-1.3-1.5-1.5-3.5-0.5-5.1c0.9-1.5,2.7-2.2,4.6-1.7c1.9,0.5,3.2,2,3.4,3.9c0.1,1.8-0.8,3.6-2.7,4.1c-1.5,0.4-1.9,1.2-2,2.5
	c-0.2,2.6-0.7,5.2-1.6,7.7c-0.2,0.5-0.2,1.1-0.2,1.7c0.2,3.9,0.7,7.8,0.5,12.2c1.8-1.8,2.6-3.6,3.6-5.4c0.3-0.6-0.2-0.9-0.5-1.2
	c-0.6-0.8-1.1-1.6-1.2-2.6c-0.3-2.4,1.1-4.3,3.5-4.6c0.2,0,0.5,0,0.7,0c2.9-0.1,4.1,0.8,4.4,3.2c0.3,2.2-1.4,4.9-3.6,5.2
	c-1.2,0.2-1.6,0.7-2.1,1.6c-1.4,3-3,5.8-4.8,8.5c-0.2,0.3-0.4,0.7-0.4,1.1c-0.3,3.3-1,6.5-1.6,9.7c-0.1,0.3-0.2,0.6,0.3,1
	c1.7-1.6,3.5-3.1,5.3-4.7c0.5-0.4,0.5-0.9,0.4-1.5c-0.2-1.4,0.5-2.5,1.1-3.6c0.8-1.4,2.4-2.1,3.9-1.7c1.4,0.4,2.4,1.5,2.6,3.1
	c0.4,3.1-2,5.6-5,5.1c-1-0.2-1.6,0-2.3,0.7c-2.2,2.3-4.4,4.7-6.6,6.9c-0.7,0.7-1,1.4-1.2,2.2c-0.9,4.4-1.9,8.7-2.3,13.2
	c0,0.5-0.2,1-0.1,1.4c0.9,2.9,2.1,5.7,3.3,8.6c0.9-0.6,0.8-1.3,0.9-1.9c1.3-5.2,3.4-10.2,5.8-14.9c0.5-0.9,1.1-1.8,1.6-2.6
	c0.2-0.3,0.6-0.6,1-0.4c0.4,0.2,0.4,0.6,0.3,1c-1.2,3.3-1.7,6.8-2.3,10.3c-0.9,4.7-1.3,9.5-1.2,14.3c0,1.6,0.1,3.2-0.1,4.8
	c-0.1,1.1,0.3,1.9,1.3,2.6c4.6,3.1,8.5,6.9,11.4,11.5c0.9,1.5,1.9,1.8,3.5,1.8c18.2,0,36.3,0,54.5,0
	C739.4,235,740.8,235,741.7,236.5z M604.5,93.2c-1.8,7.3-1.3,14.4,2.5,21.1c-0.8-4.6-2.2-9.1-2.5-14.2c1.2,0.6,1.2,1.3,1.4,2
	c0.8,2.8,1.6,5.7,2.5,8.5c0.2,0.8,0.4,1.7,1.4,2.4C610.7,105.5,607.4,99.4,604.5,93.2z M575,94.1c-2-2.7-4.1-4.5-6.4-6.3
	c-0.8,1-0.7,2.7-2.5,2.6C569.1,90.9,571.6,92.8,575,94.1z M584.2,121.9c2.6-1.6,5.3-1.1,8.1-2.2c-5.2-1.7-9.1,0.4-12.9,2.7
	c4,1.2,8,1.5,12.4,0.7C589.3,122.3,586.9,122.4,584.2,121.9z M607.3,144.3c-1.7-1.2-2.9-2.2-4.7-1.1c-0.4,0.3-1,0.4-1.5,0.5
	C603.1,143.6,604.9,144.5,607.3,144.3z M589.6,194.7c-1.5-2.6-3.1-4.8-5.5-6.8c-0.4,1.1-0.9,1.8-1.6,2.6
	C585,191.9,587.3,193.3,589.6,194.7z M596.5,223.4c2.7-1.4,5.4-0.5,7.9-1.2c-3.1-2.1-9.7-1.3-12.7,1.5c3.9,1.3,7.7,2,12.2,1.7
	C601.4,224.4,599,224.3,596.5,223.4z M619.3,196.4c-2.2,7.5-2.5,14.7,0.9,21.8c-0.3-2.4-0.7-4.7-0.9-7.1c-0.2-2.3-0.8-4.6-0.2-7.2
	c1,0.6,0.9,1.5,1.1,2.2c0.3,1.4,0.4,2.8,0.7,4.3c0.5,2.2,0.7,4.5,1.7,6.7C624.8,213,621.9,201,619.3,196.4z M677,235
	c-2.4-3.6-5-6.2-8.6-8.5c0.4,2.8,1.1,5.1,0.9,7.5c0,0.7,0.4,1,1.1,1C672.4,235,674.5,235,677,235z M741.7,364.7c0,0.6,0,1.3,0,1.9
	c-0.8,1.6-2.2,1.5-3.7,1.5c-14.2,0-28.5,0-42.7,0c-1.8,0-3.4,0.4-5,1.3c-6.9,4-14.6,6.1-22.4,7.3c-0.7,0.1-1.4,0.3-2.1,0.3
	c-1.6,0.2-2.6,1.2-3.1,2.6c-0.7,1.9-1.5,3.9-2.2,5.8c-2.6,6.8-5.5,13.5-8.5,20.1c-0.3,0.7-0.8,1.4-0.8,2.2c0.7,0,1.1-0.5,1.5-0.8
	c14.5-11.6,31.2-16.9,49.7-16.5c2.1,0,4.2,0.1,6.2,0.3c0.8,0.1,1.6,0.3,1.8,1.3c0.2,0.9-0.4,1.3-1,1.8c-7.2,6-14.4,11.9-22.5,16.8
	c-8.8,5.3-18.2,9-28.4,10.4c-4,0.6-8.1,0.9-12.2,0.7c-1.6-0.1-2.5,0.5-3.3,1.8c-2.6,4.4-5.3,8.8-7.9,13.2c-0.3,0.5-0.7,0.9-0.6,1.5
	c0.2,0,0.3,0.1,0.4,0.1c10.7-5.9,22.3-8.1,34.4-7.9c7.6,0.1,15.1,1.2,22.5,3.2c1,0.3,2.2,0.2,2.4,1.6c0.2,1.5-1,1.8-2,2.3
	c-5.3,2.5-10.6,4.9-15.9,7.3c-8.1,3.7-16.7,5.5-25.6,5.3c-1.8,0-2.6,0.5-3.4,2.1c-3,6.1-7.7,10.5-13.9,13.4c-2,0.9-4,1.6-6,2.4
	c-1.2,0.5-2.3,1-3.1,2.1c0.5,0.2,0.9,0.1,1.2,0c6.5-1.9,13.1-3.5,19.7-5.1c1.2-0.3,1.9-0.6,1.5-2c-0.2-0.6,0-1.3,0.3-1.9
	c0.9-2,5.3-4.1,7.4-3.5c1.5,0.4,2.2,1.5,2.5,2.9c0.4,1.8,0.5,1.8,2.3,1.6c1.6-0.2,3.2-0.4,4.7-0.7c0.5-0.1,1.2-0.2,1.1-1.2
	c-0.3-2.5,0.3-3.5,2-3.9c2.3-0.5,3.8,0.3,4.8,2.4c0,0.1,0.1,0.1,0.2,0.2c0.8,0,1.5-0.2,2.3-0.7c-0.9-1.7-1.4-3.5,0.2-5
	c1.3-1.2,3-1.3,4.5-0.7c2.1,0.7,2.1,2.6,1.6,4.6c1.6-0.1,2.9-0.3,4.3-0.4c0.7,0,0.9-0.4,1.2-1c1.2-2.2,3.2-2.9,5.4-1.7
	c1,0.5,1.6,1.3,1.7,2.5c0,1.1-0.5,2-1.4,2.6c-1.3,0.9-3.2,0.8-4.5-0.1c-0.4-0.3-0.6-1-1.2-1c0.8,2.9,0.4,4.2-1.4,5.1
	c-1.6,0.8-3.2,0.4-4.5-1.2c0,0,0,0,0,0c-0.2,0.3-0.4,0.8-0.7,0.9c-1,0.4-1.1,1-1.3,1.9c-0.5,2.9-3.5,4.4-6,3.1
	c-1.9-1-2.1-2.6-1.6-4.5c-1-0.4-1.9-0.2-3.1,0c0.3,1.4,0.5,2.8-0.6,3.9c-0.9,0.9-1.8,1.6-3.1,1.7c-2.7,0.3-4.2-1.1-4.7-4.6
	c-1.6,0.2-3.1,0.4-4.4,1.5c-1.1,0.9-2.5,1.3-3.8,1c-1.3-0.2-2.5,0-3.7,0.4c-4.2,1.2-8.5,2.4-12.7,3.5c-0.6,0.2-1.2,0.3-1.8,0.8
	c1.9,0.6,3.7,1.1,5.7,0.8c6-0.9,10.8,1.1,14.2,6.3c1,1.5,2,3.1,2.9,4.7c0.7,1.2,0.4,1.8-0.9,1.8c-6.4,0-12.1-2-16.7-6.6
	c-0.6-0.6-1.2-1.3-1.8-1.9c-2.7-3.4-6.6-4-10.2-3.1c-9,2.4-17.7,5.9-26.1,10.1c-0.1,0.1-0.2,0.2-0.5,0.5c1,0.2,1.9,0.4,2.7,0.5
	c1.8,0.4,3.6,0.7,5.4,1.1c1.5,0.3,2.8,0.6,4.4,0c1.6-0.6,3.5-0.4,5.2-0.2c1,0.1,2.1,0.2,3.1,0.3c0.8,0.1,1.3-0.1,1.8-0.8
	c1.5-1.8,4.7-1.4,5.9,0.6c1.1,1.7,0.1,3.9-2.1,4.4c-0.7,0.2-1.4,0.2-2.2,0c1.7,1.3,3.5,2.2,5.7,1.8c3-0.5,5.9,0.2,8.8,0.5
	c1.1,0.1,1.9,0.2,2.8-0.7c1.5-1.4,3.4-1.2,4.8,0c1.2,1.2,1.4,3.2,0.5,4.6c-0.9,1.4-3.1,2.1-4.7,1.4c-1.5-0.7-2-2-2.1-3.7
	c-2.5,0-4.8,0-7.4,0c0.4,0.9,1.3,1.1,2,1.5c1.6,1.1,3.1,2.3,4.8,3.2c1.7,0.8,3.8,0.3,5.6,0.9c0.7,0.3,1.6,0.3,2.3,0.5
	c1.7,0.4,3.2,1.1,4.8-0.5c1-1,2.8-0.6,3.8,0.2c1,0.8,1.6,3.2,1.1,4.4c-0.6,1.7-2.3,2.8-4.1,2.6c-1.7-0.1-2.9-1.1-3.1-3
	c-0.1-1.1-0.5-1.5-1.5-1.7c-1.8-0.3-3.6-0.7-5.6-0.8c1.6,1.7,3.3,3.4,4.9,5.1c0.4,0.5,1,0.3,1.6,0.5c2.3,0.5,3.4,2.2,2.9,4.2
	c-0.5,2.1-3.1,3.6-5.1,2.9c-1.9-0.6-2.9-2.9-1.9-4.9c0.6-1.2,0.4-1.8-0.5-2.6c-2.7-2.6-5.3-5.3-8.7-7.1c0.7,2.4,0.3,5.1,2.5,7
	c1.7,1.5,1.6,3.3,0.3,4.6c-1.6,1.5-4.1,1.4-5.4-0.1c-1.2-1.4-1.1-3.9,0.5-4.9c1.5-0.9,1.3-1.8,0.9-3.1c-2.3-6.8-1.4-5.8-8.1-9
	c-2.1-1-4.3-1.8-6.7-2.3c0.3,1.7,0.6,3.2,0.8,4.8c0.1,1,0.9,1,1.5,1.2c2.1,0.7,2.9,1.8,2.6,3.7c-0.4,2.2-2.4,3.9-4.5,4
	c-1.9,0.1-3.5-1.1-3.8-2.9c-0.4-1.8,0.3-3.2,1.8-4c1-0.5,1.2-1.1,0.9-2.1c-0.4-1.2-0.7-2.5-0.9-3.7c-0.2-1.2-0.7-1.8-1.9-2.1
	c-2.8-0.6-5.5-1.4-8.7-2.2c0.8,2.4,2.2,4,3,5.9c0.2,0.4,0.7,0.2,1.1,0.3c1.6,0.4,2.3,1.2,2.4,2.6c0.1,1.5-0.8,2.8-2.2,3.4
	c-1.4,0.5-3,0.1-3.9-1c-0.7-1-0.8-2.5,0-3.6c0.2-0.3,0.4-0.5,0.7-0.7c0.6-0.4,0.5-0.9,0.2-1.5c-0.9-1.7-1.9-3.3-2.8-5
	c-0.4-0.7-1.1-0.9-1.8-1.1c-2.6-0.6-5.2-0.9-7.8-1.2c-0.8-0.1-1.6,0.2-2.3,0.6c-13.2,6.8-25.9,14.3-37.5,23.6
	c-0.5,0.4-1.2,0.7-1.5,1.5c10.8-3.5,21.8-3,32.8-2.1c6,0.5,11.8,2.2,17.6,3.7c2.7,0.7,5.4,1.3,8.3,1c0.2,0,0.5,0,0.7,0
	c0.4,0,0.8,0.1,0.9,0.6c0,0.4-0.3,0.7-0.7,0.8c-1.4,0.5-2.9,0.7-4.4,1c-7.3,1.2-14.7,1-22,0.7c-8.2-0.2-16.5-0.4-24.7,0.6
	c-3.4,0.4-6.9,0.1-10.3-0.2c-3.8-0.3-7.2,0.4-10.4,2.8c-2.9,2.2-6,4-9,6c-0.4,0.2-0.7,0.5-1.4,1c3.8,0.4,7.1,0.9,10.5,1
	c5.8,0.3,11.7,0.4,17.5,0.6c18.2,0.7,32.5,8.4,42.3,24c0.2,0.3,0.3,0.5,0.5,0.8c0.3,0.6,0.6,1.2-0.1,1.7c-0.5,0.4-1.1,0.2-1.5-0.2
	c-4.3-3.9-10-4.3-15.3-5.8c-5-1.4-10.2-2-15.2-3.3c-6.9-1.9-13.5-4.4-19.6-8.2c-2.8-1.7-5.7-3.2-8.7-4.6c-1.1-0.5-2.1-1.1-3.2-1.7
	c-3.1-1.9-6.5-2.5-10.1-2.5c-1,0-1.6,0.6-2.4,1c-9.5,5.5-18.9,11.1-28.3,16.6c-0.4,0.2-0.8,0.5-1.3,0.7c-1.9,1-3,2.1-4.2,3.9
	c-0.8,1.2-1.8,2.1-3.1,2.5c-1,0.3-1.5,0.9-1.8,1.9c-0.5,1.7-1.8,2.9-3.4,3.4c-1.3,0.5-2.4,1.2-3.6,1.9c-2.7,1.5-5.6,2.7-8.9,2.5
	c-0.5,0-1,0-1.4,0c-4.9,0.1-8.7-1.8-12-5.5c-5-5.6-9.3-11.6-13.1-18c-0.4-0.6-0.6-1.4-1.5-2c0.3,1.6,1,2.9,1.5,4.2
	c1.3,3.1,2.6,6.2,3,9.6c0.1,1.1,0.6,2.1,1,3.2c0.3,0.9,0.3,1.6-0.7,1.9c-1,0.3-1.5-0.2-1.8-1c-2-4.9-4.4-9.6-5.5-14.8
	c-0.2-0.8-0.2-1.7-1.2-2.4c0.9,5.7,1.4,11.4,1.6,17c0.1,3.9-0.1,7.8-0.7,11.7c-0.2,1.5-0.7,3-1.7,4.2c-3.8,4.9-8.4,8.5-15,8.7
	c-1.1,0-2.2,0.5-3.1,1.1c-0.8,0-1.6,0-2.4,0c-0.7-0.4-1.4-0.7-2.1-1.2c-0.7-0.5-1.3-0.5-2-0.3c-2.6,1-4.9,0.2-6.9-1.4
	c-0.9-0.8-1.8-1.1-3.1-1c-1.8,0.2-3.1-0.7-3.9-2.2c-0.5-1-1.1-1.7-2-2.3c-1-0.6-1.6-1.6-1.8-2.7c-0.3-1-0.8-1.7-1.7-2.1
	c-1.8-0.9-2.7-2.4-3.1-4.3c-0.3-1.4-0.6-2.8-1.3-4.1c-0.5-0.8-0.5-1.7-0.4-2.6c0.6-5.9,2.1-11.5,6.5-15.8c0.6-0.6,1.2-1.3,2.1-1.6
	c1.4-0.4,1.7-1.5,1.9-2.9c-0.8,0-1.3,0.3-1.8,0.6c-2.7,1.4-5.4,2.8-8.1,4.2c-1.6,0.8-3.2,1.5-4.9,1.9c-3.3,0.7-5.7-0.1-7.5-2.8
	c-0.6-0.9-1.3-1.3-2.2-1.6c-2.9-0.7-4.7-2.7-5.5-5.5c-0.3-1.1-0.7-1.9-1.6-2.6c-1.5-1.2-2.5-2.7-3-4.5c-0.4-1.3-1.2-2.4-2-3.5
	c-3.7-4.3-6.8-8.8-9-14.1c-1-2.5-1.5-5-1.3-7.7c0.2-3,1.3-4.5,4.2-5.4c6.4-1.9,13-2.7,19.7-2.3c11.7,0.8,22.5,4.5,32.7,10.1
	c6.2,3.4,12.1,7.5,17.6,12c0.6,0.5,1.2,1,1.9,1.5c1.9-3.4,4.6-4.3,8.4-3c0.9-4,1.8-8,2.9-11.9c3.6-11.9,8.8-23,16.9-32.6
	c6-7.1,13-12.7,21.6-16.4c0.7-0.3,1.3-0.6,2-0.8c2.3-0.8,4.2-0.2,5.9,1.5c2,2,3.2,4.5,4,7.3c1.5,5.4,1.8,10.9,1.7,16.4
	c0,1.5,0.1,2.8,0.6,4.2c0.7,1.7,0.9,3.6,0.4,5.4c-0.3,0.9-0.2,1.7,0.2,2.6c1.3,2.9,1.1,5.8-0.9,8.3c-0.5,0.7-0.7,1.4-0.6,2.2
	c0.4,3-1,5.6-4.4,7.2c-2.4,1.1-5.1,1.5-7.6,1.9c-2.6,0.5-5.2,0.9-7.8,1.7c0.8,1.1,1.7,1.5,2.9,1.3c3.9-0.7,7.4,0.6,10.8,2.3
	c2.8,1.5,5,3.7,7.3,5.8c0.2,0.2,0.4,0.3,0.5,0.5c1,2.7,2,5.3,2.9,8.1c0.4,1.4-0.6,2.8-0.8,4.2c-0.1,1.4,1,2.7,0.8,4.2
	c-0.1,0.9-0.9,1.8-0.4,2.8c2.7-0.4,5.2-2.3,6.3-4.6c1.2-2.5,1.5-5,1.1-7.7c-0.4-2.6-0.7-5.2-1.1-7.8c-0.6-4.6,0.2-9.1,1-13.6
	c0.7-4.3,2.2-8.3,3.9-12.3c3.7-9,8-17.6,14.4-25.1c1.2-1.5,2.3-3,3.2-4.8c0.3-0.5,0.5-1.1,1.2-0.9c0.6,0.2,0.6,0.8,0.6,1.4
	c0,1,0,1.9,0,2.9c-0.3,6,0.6,12,0.7,18c0.1,4.6-0.2,9.3-0.9,13.9c-0.6,3.9-2.5,7.2-4.1,10.7c-2.7,6.1-6.5,11.4-11.7,15.6
	c-3,2.4-4.4,5.7-5.5,9.1c0.2,0.4,0.5,0.3,0.7,0.1c11.5-6.8,23.2-13.2,34.1-20.9c6.1-4.4,6.1-4.4,8.7-11.5c0.6-1.8,1.1-3.7,1.9-5.4
	c0.5-1.3,0.5-2.4,0.2-3.7c-0.8-2.7-1.5-5.4-2.3-8.1c-0.2-0.9-0.6-1.5-1.7-1.7c-1.8-0.4-2.6-1.8-2.8-3.5c-0.2-1.7,0.6-3,1.9-3.9
	c2.2-1.6,5.1-0.2,5.3,2.5c0.1,1.2,0.1,2.5-0.7,3.5c-0.7,0.8-0.6,1.5-0.3,2.4c0.7,1.7,1.2,3.5,1.9,5.2c0.1,0.1,0.2,0.3,0.3,0.4
	c0.7-0.1,0.7-0.8,0.8-1.3c1.1-2.8,2.5-5.4,3.1-8.3c0.5-2.8,0.2-5.7,0.2-8.6c0-0.6,0-1.1,0.1-1.7c0.1-0.9-0.1-1.6-0.9-2.2
	c-1.8-1.4-2-4-0.7-5.8c1.1-1.7,2.8-2.2,4.6-1.4c0.4,0.2,0.9,0.4,1.3,0.7c2.7,1.7,2.8,5.3-0.1,6.5c-2.2,1-2.4,2.3-2.2,4.2
	c0.1,0.9,0.1,1.9,0.2,2.8c0.9-0.1,1-0.7,1.3-1.2c0.3-0.5,0.6-1,0.9-1.4c1.6-2.5,3.6-4.8,4.9-7.4c1.2-2.6,1.6-5.7,2.9-8.3
	c0.5-1,0.3-1.7-0.5-2.5c-1.3-1.3-1.5-3.2-0.6-4.6c1-1.6,3.1-2.4,5-1.8c1.9,0.5,3,1.9,3.1,3.5c0.1,1.7-1.1,3.5-2.9,3.9
	c-1.7,0.3-2.4,1.2-2.8,2.7c-0.2,0.9-0.6,1.8-1,2.9c0.8-0.1,1.1-0.5,1.5-0.9c1.2-1.1,2.4-2.2,3.6-3.2c1.4-1.1,2.6-2.2,2.6-4.2
	c0-1.6,1-2.8,2.6-3.5c1.9-0.8,4-0.1,5,1.7c1.1,2.1,0.7,4.6-1.1,5.8c-1.1,0.8-2.4,1.3-3.8,0.8c-0.7-0.3-1.3-0.3-2,0.3
	c-1.5,1.5-3.3,2.8-4.9,4.9c2.4-0.8,4.5-1.4,6.5-2.1c0.6-0.2,0.8-0.8,1.2-1.2c1.3-1.2,3-1.6,4.4-0.9c1.4,0.7,2.5,2.7,2.3,4
	c-0.2,1.6-1.8,3.1-3.7,3.3c-1.6,0.2-3.3-0.6-3.8-2.2c-0.4-1.2-0.9-1-1.7-0.7c-2.3,0.8-4.5,2-7.1,2.3c-0.4,0-0.8,0.3-1,0.5
	c-2.2,2.3-4,4.9-5.8,7.8c1.8,0.3,3.1-0.3,4.5-0.6c1-0.2,0.9-1.2,1.2-1.9c1-2.3,3-3.4,5.2-2.8c2.3,0.7,3.7,2.5,3.5,4.5
	c-0.2,2.1-2.1,3.9-4.3,4.1c-1.3,0.1-2.6,0-3.5-1.1c-0.6-0.7-1.3-0.7-2.1-0.5c-1.5,0.4-2.9,0.8-4.4,1c-1.6,0.3-2.5,1.1-3.2,2.5
	c-1.1,2.4-2.3,4.7-3.3,7.6c1.6-0.7,2.9-1.3,4.2-1.8c0.5-0.2,0.7-0.6,0.8-1.1c0-0.3,0.1-0.6,0.1-0.9c0.6-2.3,2.3-3.7,4.4-3.5
	c1.9,0.2,4.2,2.3,4.3,4.3c0.1,1.8-1,3-2.3,3.9c-1.5,1-3.3,1.4-4.7,0.2c-1.4-1.2-2.4-0.7-3.6-0.1c-1.5,0.8-3.3,1.2-4.3,2.4
	c-1,1.2-1.2,3.1-1.8,4.7c-1.3,3.9-2.7,7.9-4.5,11.8c0.8,0.1,1.1-0.3,1.5-0.6c8.2-6.2,16.5-12.1,25.6-16.9c0.5-0.3,1-0.6,1.3-1
	c6-6.1,12.9-11.2,19.7-16.5c3.3-2.6,6.6-5.3,9.8-8.1c5.8-5,10.7-10.8,14.6-17.3c2.8-4.6,5.6-9.1,8.6-13.6c0.3-0.5,0.6-0.9,0.9-1.4
	c0.4-0.7,0.2-1.2-0.6-1.5c-0.5-0.2-1.1-0.3-1.6-0.5c-8.7-2.3-15-7.6-19.2-15.5c-2.2-4.1-3.6-8.5-4.7-13.1c-1.3-5.4-2.3-11-3.2-16.5
	c-0.3-1.9,0.1-2.3,2-2.3c2.5,0.1,4.7,1,6.7,2.3c3.7,2.4,7,5.3,9.9,8.7c6.9,8.2,12.9,16.9,15.8,27.4c0.1,0.2,0.3,0.4,0.4,0.5
	c0.7-0.1,0.9-0.7,1.1-1.2c4.9-9.5,9.8-19.1,13.9-29c0.2-0.4,0.3-0.7,0.4-1.1c0.5-1.4,0.3-1.7-1.1-2.4c-0.1-0.1-0.3-0.1-0.4-0.2
	c-8.5-3-14.5-9-18.5-16.9c-1.3-2.6-2.7-3.4-5.6-3.4c-142.2,0.1-284.5,0.1-426.7,0.1c-1,0-2,0-3.5,0c1.3,1.9,2.6,3.4,2.9,5.3
	c0.3,1.9,0.3,3.8-0.4,5.7c-0.7,1.8-1.8,3.4-3.4,4.5c-3.7,2.7-8.8,2.3-12.1-0.9c-3.8-3.6-4-8.9-0.5-14.3c-0.8-0.6-1.6-0.3-2.5-0.3
	c-21,0-41.9,0-62.9,0c-2.1,0-3.8-0.3-5-2c0-0.3,0-0.6,0-1c1.3-1.8,3.2-2,5.3-2c206,0,412.1,0,618.1,0
	C738.8,363.2,740.6,362.8,741.7,364.7z M631.4,424.5c-1-2.7-2.5-5.2-4.2-7.5c-2-2.7-4-5.4-6.1-8c-0.9-1.3-1.8-2.5-2.7-3.8
	c5.6,2.2,9,6.7,12.7,11c-4.9-12.3-13.1-21.9-23.8-29.4c-0.2,0.1-0.3,0.2-0.5,0.3c0.5,2.7,0.9,5.3,1.5,8c1.1,5.9,2.6,11.7,5.3,17.1
	c3.2,6.6,8.3,11,14.9,13.8c1.1,0.5,2.2,0.9,3.5,0.8C632,425.9,631.6,425.2,631.4,424.5z M430.9,530.5c-4.7,3-9.1,6.5-13.4,10
	c-0.9,0.7-1.5,1.7-1.5,2.9c-0.2,3.2-0.5,6.3-0.9,9.8c6.1-3.8,17.2-18.9,17.4-23.2C431.8,529.8,431.4,530.2,430.9,530.5z M416,537.5
	c4.6-2.3,8.9-5.4,13.5-8.5c-0.7-0.1-0.8-0.2-1-0.1c-5.3,2.3-10.7,4.2-16.3,5.7c-0.9,0.2-1.6,0.7-2.2,1.4c-0.5,0.6-0.5,1.2,0.3,1.5
	C412.2,538.1,414.1,538.4,416,537.5z M407.1,539.6c-1-0.1-1.9,0.3-2.7,0.9c-1.6,1.2-2.5,2.9-2.9,4.8c-0.2,0.8,0.1,1.3,1,0.9
	c2.2-0.8,4.4-1.8,6.5-3c1.4-0.8,2.8-1.4,4.3-2.8C411,540.1,409,539.8,407.1,539.6z M397.3,509.6c-1,0.1-2.1,0.3-3,0.8
	c-1.3,0.7-1.5,1.8-0.6,3c0.7,0.9,1.7,1.4,2.7,2c4.4,2.5,9.1,3.8,14,4.8c5.2,1.1,10.6,1.1,15.9,1.9c1.2,0.2,2.5,0.7,3.8,0.4
	c-0.1-0.3-0.2-0.5-0.3-0.7C420.9,512.8,410.1,508.6,397.3,509.6z M397,506c0.1,1,0.9,1,1.6,1.1c3.7,0.1,7.4,0.4,11.2,1
	c-2.9-2.3-6.1-4-9.9-4.1c-0.5,0-1.1,0.2-1.6,0.3C397.5,504.5,396.9,505,397,506z M389.5,502.7c-0.1,1.3,1.6,2.8,3.1,2.8
	c1.3,0,2.2-0.8,2.2-2c0-1.2-1.4-2.3-2.9-2.3C390.7,501.1,389.5,501.8,389.5,502.7z M386.4,505.1c-0.9-0.2-1.6-0.1-2.1,0.7
	c-0.5,0.9-0.2,1.7,0.5,2.3c0.4,0.4,0.9,0.6,1.5,0.7c1.4,0.4,2.8,0.5,4.6,0.3C389.7,507,388.4,505.6,386.4,505.1z M384.6,510.8
	c-1.6-0.1-3.1,0.8-3.3,2.1c-0.2,1.2,0.9,2.2,2.7,2.3c2.5,0.1,4.9,0,7.6,0C389.9,512.6,387.3,511,384.6,510.8z M380.8,498.7
	c0.6,1.1,3.4,2.3,4.6,2c0.5-0.1,0.8-0.4,0.9-1c-0.1-0.1-0.1-0.3-0.2-0.4c-0.7-1.3-3.9-2.3-5.1-1.6
	C380.5,497.9,380.6,498.3,380.8,498.7z M374.5,499.9c1.9,0.8,3.8,1.6,5.7,2.4c0.3,0.1,0.6-0.1,0.7-0.5c0-0.1,0-0.3-0.1-0.4
	c-1.7-1.5-3.7-2.3-5.9-2.8c-0.3-0.1-0.6,0.2-0.7,0.5C374.1,499.5,374.3,499.8,374.5,499.9z M368.6,504.1c3,0.5,6,0.9,9,1.3
	c0.5,0.1,1-0.1,1.1-0.6c0.1-0.6-0.2-1-0.7-1.1c-2.6-0.8-5-2-7.4-2.2c-1.4,0-2,0.1-2.4,0.5C367.3,502.6,367.4,503.9,368.6,504.1z
	 M367.2,511c1.6-0.4,3.3-0.5,5-0.4c3.2,0.1,4.1,0,5.1-0.5c0.4-0.2,0.9-0.4,0.9-1c0.1-0.7-0.4-1-0.9-1.2c-3.7-1.4-7.4-1.7-11.2-0.3
	c-1.1,0.4-1.5,1.4-1.2,2.5C365.2,511.3,366.2,511.2,367.2,511z M375.8,515.8c0.3-0.6,0.2-1.1-0.3-1.4c-1.2-0.7-2.4-1.1-4.2-1.2
	c-0.5,0.1-1.3,0.1-2,0.4c-1.2,0.4-1.5,1.3-0.9,2.5c0.3,0.5,0.6,0.9,1.1,1.2C371.1,518.3,374.8,517.4,375.8,515.8z M381.6,527.7
	c1.2-0.4,2.4-0.8,3.6-1.2c4.5-1.5,8.9-3.2,13.5-4.1c1.2-0.2,2.4-0.2,3.5-0.9c-0.1-0.6-0.4-0.7-0.7-0.8c-6.6-2.2-13.4-3-20.3-2.3
	c-1.4,0.1-2.8,0.4-4.1,1.2c-1.7,1.1-2.7,3-2.4,4.6c0.3,1.7,2.1,3.3,4,3.7C379.8,528.1,380.7,528,381.6,527.7z M400.9,533.2
	c4.9-1.6,9.9-2.5,14.8-3.9c4.1-1.1,8.2-2.4,12.3-4.1c-0.5-0.6-0.9-0.7-1.3-0.7c-9.6-1.1-19.1-1.6-28.6,0.5c-5.6,1.2-10.9,3-15.9,5.8
	c-2.2,1.2-2.8,2.7-2.2,4.7c0.7,2.5,2.2,3.6,4.7,3.5c2.2-0.1,4.2-0.8,6.2-1.8C394.2,535.7,397.5,534.3,400.9,533.2z M398.6,555.6
	c0.6,0.4,1.1,0,1.5-0.3c1.8-1.1,3.5-2.2,5.3-3.3c2.1-1.3,4.3-2.5,6.4-3.8c1.6-1,2.5-2.4,2-4.7c-4,2.2-8.2,3.8-12.3,5.5
	c-2.1,0.9-3.1,2.7-3.2,4.9C398.2,554.6,398,555.2,398.6,555.6z M410.4,556.5c0.9-0.9,1.8-1.8,2.4-3c0.5-1,1-1.9,0.7-3.4
	c-3,2.3-6.1,3.8-9.1,5.6c-1.3,0.8-2.5,1.6-3.8,2.5c-0.7,0.5-1.4,1.1-1.7,1.9c-0.5,1.1-0.3,2.5,0.5,3.3c0.9,0.8,1.9,0.6,2.9,0
	c0.5-0.3,1-0.6,1.4-0.9C405.9,560.6,408.2,558.6,410.4,556.5z M414.7,558.7c0.3-0.7,0.8-1.4,0.8-2.6c-3.7,2.9-6.9,5.7-9.1,9.5
	c-0.5,0.8-1,1.6-1.2,2.6c-0.2,1.1,0,2.1,1,2.8c1,0.7,2,0.5,2.9,0c1.4-0.8,1.9-2.1,2.3-3.5C412.2,564.4,413.4,561.5,414.7,558.7z
	 M425.9,547.9c0.2-0.5,0.6-1,0.3-1.6c-0.3-0.1-0.4,0.1-0.6,0.2c-4.7,5.8-8.7,12.1-11.1,19.2c-0.4,1.2-0.8,2.4-1,3.7
	c-0.2,1.7,0.9,2.9,2.6,3.1c1.4,0.1,2.5-0.4,3.2-1.7c0.9-1.5,1.3-3.1,1.6-4.8C422,559.9,423.7,553.8,425.9,547.9z M433.4,534.2
	c-1.7,2.4-2.2,4.7-2.9,6.9c-2.3,7.2-4.5,14.3-6.3,21.6c-0.5,2.2-0.7,4.4,0.1,6.6c0.8,2.1,2.7,2.6,4.4,1.1c1.3-1.2,1.9-2.7,2.1-4.4
	c0.5-8.5,1.3-17,2.2-25.5C433.1,538.5,433.6,536.6,433.4,534.2z M437.7,543c-0.5-3.3-1-6.6-2.1-9.8c-0.6,1.4-0.6,2.9-0.6,4.3
	c-0.4,9.2-0.5,18.3-1.3,27.5c0,0.5,0,1,0,1.4c0.1,0.9,0.3,1.8,1.4,2c1.1,0.2,1.8-0.4,2.3-1.3c0.6-1,0.8-2,1-3.2
	C439.2,556.9,438.6,550,437.7,543z M466.6,525.1c1,2.2,2.6,2.5,4.5,2.4c4.5-0.4,9-1.4,13.5-1.7c0.2,0,0.3,0,0.5-0.1
	c1-0.3,1.2-0.9,0.4-1.8c-1.7-2-3.8-2.9-6.4-2.1C475.1,523.2,471,524.3,466.6,525.1z M443.1,526.5c9.1,4,18.1,7.2,28.1,7.1
	c-0.1-0.4,0-0.6-0.1-0.7c-2.1-2-4.3-4.1-6.2-6.4c-0.9-1.1-2.2-1.5-3.6-1.6c-5.3,0-10.7,0-16,0.5
	C444.6,525.6,443.9,525.6,443.1,526.5z M461.2,521.7c1.8-0.4,3-1.8,4-3.3c0.7-1,0.4-1.6-0.9-1.7c-1.2-0.1-2.4,0.3-3.4,0.8
	c-4.1,1.8-8.3,3.3-12.6,4.5c-1.2,0.3-2.5,0.5-3.5,1.3C450.3,523.1,455.8,522.9,461.2,521.7z M470.5,517.2c-1.4,0.5-4.4,3.7-5.1,5.4
	c4.2-0.5,8.3-1.1,12.3-2.7C475.9,517.4,472.8,516.3,470.5,517.2z M483.1,495.6c-4.1,0.7-8.1,2-11.9,3.5c-10.3,4.2-18.7,11.2-26.5,19
	c-0.4,0.4-0.8,0.7-0.8,1.4c0.5,0.1,0.9-0.1,1.4-0.3c5-1.7,9.9-3.6,14.7-5.9c6.8-3.3,13.7-6.1,21.1-7.6c1.9-0.4,3.7-1.1,5.3-2.2
	c2-1.4,2.6-3.4,1.6-5.7C487.1,495.9,485.7,495.2,483.1,495.6z M485.2,486.1c-0.7-1.8-2.8-2.8-5.2-2.4c-0.9,0.1-1.7,0.4-2.5,0.9
	c-6.8,3.8-11.9,9.3-16.1,15.9c1.1,0.5,1.5-0.1,2.1-0.4c2-1.1,4-2.1,6.1-2.8c3.7-1.4,7.4-2.7,11-4c0.8-0.3,1.7-0.6,2.4-1
	C484.9,490.9,485.9,488.2,485.2,486.1z M466.1,489.6c1.7-1.5,3.1-2.6,4.4-3.8c0.8-0.7,1.6-1.3,2.3-2.1c0.6-0.7,0.8-1.6,0.3-2.4
	c-0.5-0.8-1.4-1-2.3-0.9c-0.7,0.1-1.2,0.4-1.7,0.8C466.9,483.4,466,486,466.1,489.6z M482.3,474.1c-1.9,0.8-3.1,2.2-3.8,4.1
	c-0.4,1-0.1,1.5,1,1.6c1.4,0.1,2.7-0.3,3.9-1c1-0.6,1.7-1.5,1.7-2.7C485,474.1,484,473.4,482.3,474.1z M477.6,469.1
	c-2,1.4-3.6,3.2-4.8,5.3c-0.3,0.5-0.5,1-0.1,1.5c0.3,0.4,0.8,0.4,1.3,0.3c1.1-0.2,2.2-0.7,3-1.4c1.8-1.7,3.7-3.2,6-4.3
	c0.6-0.3,1.1-0.7,1-1.5c-0.1-1.2-1.4-2.1-2.6-1.8C480.1,467.6,478.8,468.3,477.6,469.1z M473.6,465.7c-1.5,1.7-2.5,3.7-3.8,5.5
	c-0.4,0.5-0.7,1.2,0,1.7c0.7,0.5,1.2,0,1.6-0.5c1.9-2,3.8-4.1,5.7-6.1c0.3-0.3,0.5-0.6,0.5-1c0-0.7-0.8-1.3-1.7-1.2
	C475,464.3,474.3,465,473.6,465.7z M466.3,472.1c0.7,0,0.9-0.2,1-0.5c0.8-1.5,1.7-2.9,2.5-4.4c0.1-0.3,0.2-0.6,0.3-0.9
	c0-0.3-0.1-0.7-0.5-0.7c-0.2,0-0.5,0-0.7,0.1c-1.3,1.7-2.3,3.6-2.8,5.7C466,471.7,466.1,472.1,466.3,472.1z M463.6,478.5
	c-1,1.6-1.1,3.2-0.6,5.3c1.7-0.9,2.8-2.1,3.6-3.4c0.8-1.3,0.6-2.6-0.3-3.2C465.4,476.7,464.5,477.1,463.6,478.5z M461.1,473.9
	c0.5,0.3,0.9,0.1,1.3-0.2c1.1-1,1.7-2.2,2-3.7c0.1-0.4,0.1-0.9-0.2-1.1c-0.5-0.3-0.9,0-1.3,0.3c-1.2,0.9-1.9,2.1-2.3,3.5
	C460.5,473.2,460.6,473.7,461.1,473.9z M456.1,481.3c0.3,0.9,1.3,1.5,2.3,1.3c1.2-0.3,2.1-1.6,2.1-3.1c-0.1-1.8-1.2-2.4-2.7-1.6
	C456.5,478.6,455.8,480.2,456.1,481.3z M447.5,494.8c1.8-1.9,3.6-3.7,5.4-5.4c0.9-0.9,1.9-1.7,2.9-2.5c0.4-0.4,0.8-0.8,0.6-1.4
	c-0.3-0.7-0.9-0.9-1.6-0.9c-1.1,0-2,0.5-2.7,1.3C449.7,488.4,448.3,491.4,447.5,494.8z M441.1,518.6c3.8-4.4,8.2-8,12.1-12.2
	c3.8-4.1,7.1-8.6,9.3-13.8c0.4-1,0.9-2.1,0.9-3.2c0.1-1.8-0.9-2.5-2.6-2.1c-1.5,0.4-2.8,1.2-4,2.1c-9.9,7.4-15.3,17.2-16.5,29.6
	C440.7,518.8,441,518.7,441.1,518.6z M465.4,555.8c-0.4-0.6-0.8-1.2-1.3-1.7c-5.7-6.1-11-12.5-16.4-18.8c-1.4-1.6-2.9-3.2-4.6-5.1
	c-0.1,0.6-0.1,0.7-0.1,0.9c0.2,0.5,0.4,1,0.7,1.5c3,5.9,6.4,11.6,10.4,16.9c1.8,2.4,3.8,4.8,5.9,6.9c0.9,0.9,1.9,1.7,3.2,2
	c0.8,0.2,1.6,0,2.1-0.7C465.9,557.1,465.8,556.4,465.4,555.8z M474,551c-1-2.2-2.7-3.7-4.6-5.1c-6.7-5-13.6-9.6-20.4-14.2
	c-1-0.6-1.9-1.4-3.5-1.5c0.3,0.5,0.3,0.6,0.4,0.7c7.3,7.4,14.6,14.7,21.5,22.5c0.9,1,2,1.6,3.3,1.8c1.2,0.2,2.4,0.3,3.3-0.8
	C474.9,553.3,474.6,552.1,474,551z M482.7,545.1c-0.8-0.8-1.7-1.4-2.7-2c-4.6-3-9.5-5.2-14.8-6.7c-2.3-0.7-4.7-1.2-7.3-1.9
	c0.3,0.4,0.4,0.6,0.5,0.7c6.4,3.7,12.2,8.1,17.8,13c1,0.9,2.2,1.6,3.5,2c1.4,0.4,2.9-0.3,3.7-1.6C484,547.3,483.9,546.3,482.7,545.1
	z M489,539.4c-0.6-0.7-1.5-1.1-2.4-1.5c-4.2-1.7-8.6-2-13.3-1.9c0.2,0.7,0.7,0.8,1,1c3.2,1.6,6.3,3.3,9.3,5.4c1.4,1,2.9,1.8,4.7,0.9
	C489.8,542.5,490.2,540.8,489,539.4z M490,530.4c-0.5-1.2-1.5-1.9-2.8-2c-1.1-0.1-2.2-0.1-3.3,0c-4.3,0.4-8.4,1.5-13.1,1.5
	c0.9,1.4,1.8,2,2.9,2.3c4.7,1.4,9.6,1.3,14.5,1.2c0.2,0,0.3-0.1,0.5-0.1C490,532.9,490.6,531.8,490,530.4z M506.6,525.1
	c1-5.4,2.9-10.5,4.2-15.7c2.1-8.6,4.5-17,7.7-25.2c0.3-0.8,0.7-1.6,1.1-2.4c0.2-0.4,0.5-0.8,0.9-0.5c0.4,0.2,0.2,0.7,0.1,1.1
	c-0.9,3-1.8,6-2.6,9c-2.7,10.9-4.4,22.1-7.6,32.9c-0.1,0.3-0.2,0.6,0.2,0.8c0.4,0,0.5-0.3,0.7-0.5c0.5-0.6,0.9-1.1,1.3-1.7
	c4.2-5.3,6.9-11.5,9.7-17.6c1.1-2.3,1.6-4.8,1.9-7.4c1.2-9-0.2-18.1,0.8-27.2c-1,0.2-1.2,1-1.6,1.5c-4.7,5.8-8,12.5-11.1,19.2
	c-3.1,7-5.7,14-6.6,21.7C505.2,517.1,505.4,521.1,506.6,525.1z M543.1,530.9c0.3,0.8,1,0.8,1.6,1.1c2.1,1.1,4.4,2,6.4,3.3
	c8.4,5,17.5,8.1,27,10.4c5.8,1.4,11.7,2.6,17.4,4.6c0.6,0.2,1.3,0.7,2,0.4c-8.3-12.8-28.1-20.5-39.5-19c1.9,0.8,3.8,1.1,5.6,1.5
	c5.8,1.4,11.7,2.8,17.2,5.3c2.8,1.3,5.4,2.8,7.7,4.8c0.4,0.3,0.9,0.7,0.7,1.2c-0.7,0.4-1,0-1.4-0.3c-3.4-2.7-7.3-4.3-11.3-5.7
	c-6.2-2.1-12.7-3.3-19-5C552.8,532.3,548,531.2,543.1,530.9z M617.9,488.3c1.8,0.6,3.4,1.5,5.3,1.4
	C621.7,488.6,620.3,487.1,617.9,488.3z M649,480.2c-2.5-0.9-4.5-1.7-6.5-2.4c2.8,2.6,7.6,4.8,10.3,4.8c-2-4.4-6-7.6-9.6-7.7
	c0.9,1,2,1.6,3,2.4C647.2,478,648.3,478.6,649,480.2z M671.3,461.5c2.9,0.1,5.8,0.3,8.6,0.4c-1.3-0.6-0.2-1.9-0.9-2.8
	C676.4,459.4,673.8,460,671.3,461.5z M644.6,450.1c-1.4-0.3-2.7-0.8-3.7-0.1c-3.9,2.9-7.7,6-9.6,10.9c0.8,0.2,1.2-0.4,1.6-0.7
	c2.5-1.9,4.6-4.2,6.9-6.3c0.5-0.5,1-1.7,1.8-0.9c0.6,0.6-0.4,1.2-0.8,1.7c-2,2.2-4,4.4-6,6.5c-0.6,0.7-1.2,1.3-1.8,1.9
	C638.5,460.3,642,455.7,644.6,450.1z M637.4,440.8c4.8-0.6,9.4-1.7,14.2-2.4c5.2-0.7,11.2-0.5,14.5,0.9c-9.7,1.6-18.9,3-28,5.6
	c7.8,1.8,15.7,2.1,23.6,1c8.6-1.2,16.5-4.3,23.8-9.4c-1.8-0.9-3.4-0.9-5-1.1c-7.9-0.9-15.8-0.8-23.7,0c-5.2,0.6-10.4,1.5-15.4,3.3
	C639.9,439.1,638.5,439.6,637.4,440.8z M630.5,448c-1.7-0.4-2.7,0.1-3.6,1.5c-3.8,5.6-8.4,10.6-13.3,15.3
	c-5.6,5.4-11.7,10.2-17.7,15c-0.6,0.5-1.3,0.8-1.8,1.7c0.4-0.1,0.7-0.1,0.9-0.2c5.9-2.8,11.9-5.3,18.1-7.5c0.7-0.2,1.3-0.6,1.9-0.9
	c5.3-3,9.6-7,12.5-12.5c2.1-4,4.9-7.2,8.5-9.9c0.5-0.4,1.2-0.6,1.3-1.5C635.1,448.7,632.8,448.5,630.5,448z M649,414.4
	c9-4.8,17.6-10.4,28.2-11c-8.7,5.2-18.3,8.7-26.3,15.1c10.1-0.5,19.7-3.1,28.8-7.4c9.1-4.3,22.1-13.7,23.9-17.3
	c-0.9-0.3-1.9-0.2-2.8-0.2c-11.9-0.2-23.1,2.5-33.9,7.4c-5.6,2.6-10.8,5.9-15.3,10.2C650.7,412.1,649.7,413.1,649,414.4z M645,368.5
	c1.5,2.1,3,4.2,4.5,6.2c0.4,0.5,0.6,1.1,1.4,1.4c-0.5-2.3-1.6-4.2-2.5-6.2C647.5,367.9,647.5,368,645,368.5z M650.9,383.9
	c-2.6-4.1-5.1-8.2-7.7-12.2c-2.5-4-2.5-4-7.2-3.5c-0.1,0-0.1,0.1-0.3,0.2C638.5,375.5,646.5,383.7,650.9,383.9z M661.3,368.1
	c-3.2,0-6.5-0.2-10,0.1c2.2,4.9,3.8,9.8,5,14.7c0.5,0,0.6-0.2,0.7-0.4c1.6-4.2,3.2-8.5,4.7-12.8c0.1-0.2,0.2-0.5,0.2-0.7
	C662.1,368.5,661.9,368.1,661.3,368.1z M684.5,368.7c0-0.2-0.1-0.4-0.1-0.6c-3.2,0-6.5,0-9.7,0c-1.5,0-3-0.2-4.2,1.2
	c-1,1.2-2.4,1.9-3.2,3.6C673.5,372.7,679.1,371.1,684.5,368.7z M190,230.6c8.3,0,15.1-6.7,15.2-14.8c0-8.6-6.4-15.4-14.6-15.5
	c-8.3,0-14.9,6.8-15,15.5C175.4,224.1,181.9,230.6,190,230.6z M263.3,473.1c-5.3,0-9.5,4-9.6,9.2c-0.1,5.4,4.5,10,10,10
	c5.2,0,9.4-4.1,9.4-9.4C273.2,477.4,269,473.2,263.3,473.1z M202.6,194.7c5.3,0,9.8-4.3,10-9.6c0.1-5.2-4.2-9.9-9.3-10
	c-5.3-0.1-9.9,4.4-10,9.8C193.2,190.4,197.3,194.6,202.6,194.7z M240.3,445.3c-8.3,0-14.8,6.3-14.8,14.4c0,8.4,7.2,15.5,15.7,15.5
	c8,0,14.2-6.6,14.2-15C255.5,451.8,248.9,445.3,240.3,445.3z M218.9,406c0.1-8.1-6.7-14.8-15-14.9c-8.3-0.1-14.6,6.1-14.7,14.4
	c0,8.6,6.8,15.7,15.1,15.8C212.3,421.3,218.8,414.5,218.9,406z"/>
</svg>
