<?xml version="1.0" encoding="utf-8"?>
<!-- Generator: Adobe Illustrator 25.3.1, SVG Export Plug-In . SVG Version: 6.00 Build 0)  -->
<svg version="1.1" id="Layer_1" xmlns="http://www.w3.org/2000/svg" xmlns:xlink="http://www.w3.org/1999/xlink" x="0px" y="0px"
	 viewBox="0 0 841.9 595.3" style="enable-background:new 0 0 841.9 595.3;" xml:space="preserve">
<path d="M747.3,332.6c-210.3,0-420.5,0-630.8,0c-1.9,0-3.6,0.3-5,1.7c0,0.7,0,1.3,0,2c1.8,1.6,4.1,1.5,6.3,1.5c13.1,0,26.2,0,39.3,0
	c1.5,0,2.7,0.3,3.9,1.3c3.4,2.9,7.3,5,11.4,6.8c6,2.6,12.3,4.1,18.7,4.9c2.4,0.3,3.8,1.3,4.6,3.6c3.3,9,7,17.8,11,26.5
	c0.2,0.4,0.7,0.9,0.2,1.6c-0.4-0.3-0.7-0.5-1-0.8c-16.6-13.4-35.7-18.4-56.7-16.7c-0.4,0-0.9,0-1.2,0.2c-1.2,0.5-1.5,1.6-0.6,2.6
	c0.8,0.8,1.7,1.4,2.5,2.1c7,5.9,14.2,11.5,22.1,16.2c12.4,7.3,25.7,11,40.1,10.6c1.5,0,2.5,0.4,3.3,1.7c2.7,4.6,5.5,9.2,8.3,13.8
	c0.2,0.4,0.8,0.7,0.3,1.3c-0.2-0.1-0.5-0.1-0.7-0.2c-6.7-3.8-13.8-5.9-21.4-7c-8.6-1.3-17.2-1-25.8,0.2c-3.7,0.5-7.3,1.4-10.8,2.4
	c-0.9,0.2-1.9,0.4-2,1.6c-0.1,1.3,0.9,1.7,1.8,2.1c0.1,0,0.2,0.1,0.2,0.1c4.2,1.9,8.4,3.8,12.5,5.8c9.6,4.8,19.7,7.5,30.6,7.1
	c1.3,0,1.9,0.4,2.5,1.6c3.4,7.1,8.9,12.1,16.2,15c1.5,0.6,3,1.1,4.5,1.7c1.1,0.5,2.2,1,3.2,2.4c-7.9-2-15.5-4-23.1-5.9
	c0.3-4-0.2-4.7-3.9-6.3c-0.5-0.2-1.1-0.5-1.6-0.7c-2.1-0.6-3.9,0.3-4.7,2.3c-0.3,0.8,0.2,1.9-0.7,2.3c-0.8,0.4-1.8-0.2-2.7-0.3
	c-1.2-0.1-2.5-0.3-3.7-0.5c-1-0.1-1.4-0.4-1.2-1.7c0.4-1.9-0.3-2.9-1.7-3.5c-1.6-0.6-3.9,0-4.8,1.2c-1.1,1.5-1.1,1.5-3.1,0.5
	c1.2-1.6,1.4-3.3,0-4.8c-1.3-1.4-3.1-1.4-4.7-0.9c-2.2,0.7-2.1,2.7-1.8,4.6c-1.2-0.1-2.2-0.2-3.2-0.2c-1.2,0-1.9-0.4-2.5-1.6
	c-1-2.3-4.9-2.4-6.4-0.3c-0.9,1.3-0.6,3.1,0.7,4c1.3,1,3,1.1,4.5,0.3c0.6-0.3,0.8-1.1,1.8-1.2c-0.5,1.3-1.1,2.5-0.3,3.8
	c1.1,1.7,2.9,2.3,5.1,1.1c1.2-0.7,1.9,0.1,2.6,0.5c0.6,0.3,0.2,1.1,0.3,1.6c0.6,2.2,2.5,3.6,4.7,3.4c2.2-0.2,3.3-1.6,3.3-4.2
	c0-0.3-0.1-0.7,0.3-0.9c0.9-0.2,1.8-0.2,2.6,0.3c-0.1,0.4-0.2,0.8-0.3,1.2c-0.1,2,1.7,3.9,3.9,4.3c2.3,0.3,4.1-0.8,4.6-2.9
	c0.5-1.9,0.5-1.9,2.4-1.5c0.8,0.2,1.6,0.5,2.2,1.1c1.1,0.9,2.4,1.4,3.8,1.2c1.8-0.3,3.5,0.2,5.2,0.7c3.9,1.1,7.7,2.2,11.6,3.3
	c0.7,0.2,1.5,0.2,2,0.9c-2.1,1-4.2,1-6.4,0.7c-4-0.5-7.7,0.4-10.8,3.1c-2.7,2.4-4.2,5.6-6.2,8.5c-0.5,0.8-0.1,1.3,0.8,1.4
	c0.4,0.1,0.8,0,1.3,0c7.6-0.1,13.6-3.3,18.3-9c0.4-0.5,0.8-1.3,1.3-1.5c3-1.1,6-2.3,9.3-1.3c8.5,2.6,16.8,5.7,24.8,9.6
	c0.5,0.3,1.2,0.4,1.5,1.2c-3.3,0.6-6.6,1.1-9.7,2c-0.6,0.2-1.1,0.3-1.7-0.1c-0.9-0.6-1.9-0.5-2.9-0.6c-2.1-0.2-4.2,0.2-6.3,0.3
	c-0.7,0-1.4,0.1-2-0.6c-1.7-1.8-2.7-1.9-4.8-0.7c-1.1,0.6-1.8,1.5-1.8,2.8c0,1.3,0.9,2.1,2,2.7c0.7,0.4,1.5,0.2,2.5,0.6
	c-1.6,0.6-2.8,1.7-4.3,1.5c-3.4-0.5-6.7,0-10,0.4c-1.3,0.1-2.3,0.3-3.4-0.8c-1-1.1-2.6-1.1-4-0.3c-1.3,0.8-1.8,1.9-1.7,3.4
	c0.2,2,1.5,3.3,3.6,3.5c1.7,0.1,3.1-0.9,3.6-2.8c0.2-0.6,0.2-1.1,1-1.2c2.3-0.1,4.6-0.2,6.9-0.4c0.1,0.2,0.1,0.3,0.2,0.5
	c-2.5,1.5-5,3-7.3,4.8c-0.2,0.1-0.5,0.2-0.7,0.2c-3.2-0.1-6.1,0.9-9.1,1.6c-0.8,0.2-1.4,0.3-2-0.4c-1.3-1.2-2.7-1.6-4.4-0.7
	c-1.6,0.9-1.7,2.4-1.7,3.9c0,1.7,1.5,3.3,3.3,3.6c2,0.3,3.8-0.6,4-2.5c0.2-2.1,1.4-2.4,2.9-2.6c1.4-0.3,2.9-0.6,4.9-1
	c-1.8,1.9-3.2,3.3-4.6,4.7c-0.7,0.8-1.4,1.3-2.5,1.4c-2.3,0.4-3.4,2.2-2.9,4.2c0.5,2,3,3.6,4.8,3.2c2.2-0.5,3.4-3,2.2-5.4
	c-0.5-1-0.3-1.5,0.3-2.2c2.4-2.5,4.9-4.8,7.7-6.8c0.4-0.3,0.8-0.9,1.6-0.6c-0.8,2.6-0.6,5.4-3,7.4c-1.2,1-1.2,2.6-0.5,3.7
	c1,1.6,3.5,2.2,5.2,1.3c1.6-0.9,2.1-2.7,1.3-4.6c-0.3-0.7-0.7-1.3-1.5-1.7c-0.8-0.4-0.9-0.8-0.7-1.6c0.6-1.8,1.2-3.7,1.8-5.5
	c0.4-1.2,1.3-2.1,2.5-2.7c3.1-1.6,6.2-3,9.5-4c0.5-0.2,1-0.7,1.6-0.1c-0.2,1.2-0.6,2.4-0.7,3.7c-0.1,1.3-0.5,1.8-1.8,2.2
	c-2.3,0.5-3,2.3-2.2,4.5c0.7,1.8,2,2.9,3.9,3.2c1.7,0.2,3.5-0.6,4.1-1.8c0.8-1.8,0.5-4-1.2-4.9c-1.5-0.8-1.5-1.8-1.1-3.1
	c0.3-1.2,0.6-2.4,0.9-3.7c0.1-0.6,0.3-1.1,1-1.3c3.1-0.9,6.2-1.8,9.8-2.4c-1,1.9-1.9,3.4-2.7,4.9c-0.4,0.8-0.9,1.2-1.8,1.4
	c-2,0.4-2.7,2.2-2,4c0.6,1.4,1.7,2,3.1,2.1c1.4,0.1,2.5-0.5,3.1-1.7c0.7-1.3,0.5-2.6-0.5-3.5c-1.1-0.9-0.9-1.6-0.3-2.5
	c0.2-0.3,0.3-0.6,0.5-0.9c2.9-4.9,2.9-4.8,8.5-5.6c3.1-0.4,5.6,0.2,8.4,1.6c12.2,6.5,24,13.5,34.8,22.1c0.7,0.6,1.6,0.9,2.1,2.1
	c-2-0.6-3.8-1.3-5.7-1.7c-6-1.1-12-1.1-18.1-1.1c-4.2,0-8.4,0.2-12.5,0.9c-5.6,1-11.1,2.4-16.7,3.8c-2,0.5-3.9,0.8-6,0.7
	c-0.8,0-2.1-0.8-2.3,0.5c-0.1,1.1,1.3,1.1,2.1,1.2c5.3,1.1,10.6,1.5,16,1.5c8.6,0,17.1-0.5,25.7-0.2c7.1,0.3,14.2,1.1,21.4,0.5
	c2.5-0.2,5,0.3,7.2,1.8c3.6,2.5,7.2,4.9,10.9,7.2c0.4,0.2,1,0.3,0.6,1.2c-0.7,0-1.5-0.1-2.2,0c-9.1,1.1-18.3,1.2-27.4,1.5
	c-3,0.1-6,0.4-9,1.1c-14,3.3-25,10.8-32.5,23.1c-0.3,0.5-0.5,1-0.7,1.6c-0.2,0.4-0.1,0.8,0.3,1.1c0.4,0.3,0.8,0.3,1.2,0.1
	c0.6-0.4,1.3-0.8,1.8-1.3c1.3-1,2.6-1.8,4.2-2.2c4.4-1.1,8.7-2.5,13.2-3.3c7.6-1.5,15.1-3,22.3-5.9c7.6-3.1,14.3-7.8,21.7-11.2
	c2.1-1,4.1-2,6.3-2.4c2.7-0.5,5.2-0.5,7.9,1.2c8.8,5.5,17.9,10.5,26.8,15.9c3,1.8,6.2,2.5,9.4,3.2c0.8,0.2,1.3,0,1.7-0.7
	c0.9-1.6,0.8-2-0.9-2.9c-4-2.3-8.1-4.5-12.1-6.8c-0.8-0.5-1.6-0.9-2-1.8c-1.1-2.6-2.2-5.1-1.7-8c0.3-1.4,0.3-2.8,0.5-4.2
	c0.4-3.5,1.1-7,0.8-10.5c-0.6-6.8-2-13.4-4.6-19.7c-3.9-9.4-8.3-18.5-14.9-26.4c-1.2-1.5-2.4-3-3.3-4.8c-0.3-0.6-0.6-1.3-1.4-1.1
	c-0.7,0.2-0.6,0.9-0.5,1.5c0.3,6.7-0.4,13.4-0.7,20.1c-0.3,6.2-0.3,12.6,1.8,18.4c2.7,7.3,5.9,14.5,11.6,20.1
	c1.2,1.2,2.3,2.4,3.7,3.4c3.2,2.4,4.4,5.9,5.7,9.5c-1,0.1-1.6-0.5-2.2-0.9c-4.2-2.4-8.4-4.9-12.6-7.4c-8.5-5-17-10.2-24.9-16.1
	c-1.1-0.8-1.9-1.8-2.5-3.1c-1.8-3.9-3.1-8-4.5-12c-0.3-0.7-0.2-1.4,0-2.2c0.9-3.1,1.7-6.1,2.5-9.2c0.2-0.8,0.6-1.3,1.5-1.4
	c1.4-0.2,2.1-1.2,2.7-2.4c0.7-1.7,0.3-3.5-1.1-4.8c-1.1-1.1-2.9-1.3-4.2-0.6c-1.4,0.8-2,2.3-1.7,4.4c0.1,0.8,0.3,1.7,0.9,2.3
	c0.3,0.3,0.5,0.7,0.3,1.1c-0.8,2.2-1.6,4.5-2.6,7.1c-1.4-3.5-2.6-6.7-3.8-9.8c-0.1-0.2-0.1-0.3-0.2-0.5c-0.1-0.3-0.2-0.7-0.2-1
	c0.3-3.2,0.3-6.4-0.1-9.5c-0.1-0.9,0.1-1.5,0.9-2.1c1.6-1.3,2-3.6,1.2-5.4c-1.2-2.7-3.9-3.1-6.7-1.1c-2.1,1.5-2.2,4.4-0.2,6
	c0.6,0.5,1.3,0.8,2,1.1c0.5,0.2,0.9,0.4,0.9,1c0.1,1.9,0.1,3.7-0.4,6c-2.2-3.8-4.3-6.9-6.5-9.9c-0.3-0.5-0.7-1-0.8-1.6
	c-0.5-2.7-1.5-5.3-2.6-7.8c-0.4-0.9-0.4-1.4,0.4-2.2c1.6-1.6,1.7-3.7,0.6-5.2c-1.2-1.6-3.5-2.2-5.4-1.4c-1.8,0.7-2.7,1.8-2.6,3.6
	c0,1.8,0.9,3,2.5,3.7c0.5,0.2,1,0.3,1.4,0.4c0.4,0.1,0.9,0.1,1.1,0.6c0.5,1.6,1.5,3,1.4,5.2c-2-2-3.8-3.6-5.7-5.1
	c-1.1-0.8-1.8-1.7-1.6-3.1c0.1-1.1-0.5-2.1-1.2-2.9c-1.1-1.3-2.5-1.6-4.1-1.3c-1.5,0.4-2.4,1.4-2.8,2.9c-0.9,3.6,1.6,6.3,5.3,5.7
	c0.6-0.1,1.2-0.5,1.9,0.1c1.6,1.5,3.4,2.9,4.6,4.8c-2.5-1.1-5.6-0.9-7.6-3.3c-1-1.2-2.6-1.2-4-0.6c-1.3,0.6-2.5,2.6-2.3,3.9
	c0.2,1.7,1.2,2.7,2.7,3.3c2.4,0.8,4.1-0.1,5.5-3.1c2.9,0.8,5.5,2.4,8.6,2.8c0.3,0,0.6,0.2,0.9,0.5c2.2,2.4,4.1,5.1,6,8
	c-1.9,0.1-3.3-0.3-4.7-0.8c-1.2-0.3-0.9-1.7-1.4-2.5c-1.3-2.3-3.6-3-6-1.7c-2.3,1.2-3.2,3.5-2.1,5.7c1.2,2.5,5,3.7,7.1,2
	c1.3-1,2.3-1.1,3.6-0.6c1.2,0.4,2.4,0.6,3.7,0.8c1.4,0.2,2.4,0.9,3,2.3c1,2,2,4,2.9,6.2c0.2,0.5,0.7,1,0.1,1.6
	c-0.9-0.4-1.8-0.9-2.7-1.2c-1.2-0.4-1.8-1-1.9-2.3c-0.1-1.4-0.8-2.5-2.1-3.2c-2-1.1-4-0.6-5.6,1.3c-1.5,1.8-1.6,3.5-0.3,5.2
	c1.5,2,4.3,3,6,1.6c1.6-1.3,2.8-0.8,4.3,0c0.9,0.5,1.8,1,2.7,1.3c1.2,0.4,1.7,1.2,2,2.3c1.6,4.6,3,9.2,4.9,13.7
	c0.2,0.5,0.7,1,0.3,1.6c-0.2,0-0.3,0-0.5-0.1c-0.6-0.4-1.1-0.8-1.6-1.2c-7.9-6-16-11.7-24.8-16.2c-0.8-0.4-1.4-0.9-2-1.5
	c-3.4-3.4-7-6.5-10.8-9.5c-5.6-4.5-11.3-8.9-16.9-13.5c-6-4.9-11.2-10.4-15.3-16.9c-3.6-5.6-7-11.4-10.8-17c-1.2-1.7-1-2,1-2.5
	c11.1-2.8,18.2-9.9,22.3-20.4c3.3-8.4,4.5-17.3,6.2-26.2c0.3-1.5-0.2-1.9-1.8-2c-2.3-0.1-4.5,0.7-6.4,1.9c-2.5,1.5-4.8,3.2-6.8,5.2
	c-9,9.1-16.2,19.4-20.1,31.8c-0.1,0.3,0,0.7-0.5,0.8c-0.2-0.1-0.4-0.1-0.4-0.2c-0.9-1-1.3-2.3-1.9-3.5c-4.6-8.8-9-17.6-12.8-26.8
	c-1.3-3-1.2-3,1.7-4.2c4.4-1.7,8.3-4.3,11.6-7.8c3.8-4,6.8-8.6,8.8-13.7c1-2.4,2.2-3.1,4.7-3.1c137.2,0.1,274.3,0.1,411.5,0.1
	c0.6,0,1.2,0.1,1.8,0c1.2-0.2,1.8,0.5,2.2,1.5c1.3,3.4,3,6.6,5,9.6c4.1,6.2,9.4,10.9,16.4,13.5c2.5,0.9,2.6,1.2,1.6,3.7
	c-0.1,0.2-0.1,0.3-0.2,0.5c-4.2,10-9.1,19.6-14.1,29.2c-0.2,0.5-0.4,1.1-1,1.2c-0.2-0.2-0.4-0.3-0.4-0.4
	c-2.8-10.2-8.6-18.7-15.1-26.8c-3.1-3.9-6.7-7.3-10.9-10c-2.1-1.3-4.2-2.4-6.8-2.5c-2.3-0.1-2.7,0.3-2.3,2.6
	c0.5,3.1,1.1,6.3,1.7,9.4c1.2,6.4,2.7,12.8,5.5,18.8c3.8,8.2,9.9,14.1,18.6,17c1,0.3,1.9,0.5,2.9,0.8c1.5,0.5,1.6,0.7,0.8,2.1
	c-0.3,0.6-0.7,1.1-1.1,1.7c-2.8,4.2-5.5,8.4-8.1,12.8c-4.1,6.8-9.1,12.9-15.2,18c-3.2,2.7-6.4,5.4-9.7,8c-7,5.5-14.1,10.8-20.4,17.1
	c-0.4,0.4-0.9,0.7-1.4,1c-9,4.7-17.2,10.5-25.2,16.5c-0.6,0.4-1.1,1.1-1.9,1.1c-0.3-0.5,0-0.8,0.1-1.2c1.6-3.8,3.1-7.6,4.2-11.6
	c0.8-3.1,2.4-5.2,5.5-6.1c0.2,0,0.3-0.1,0.4-0.2c1.4-0.9,2.5-1.2,4,0.1c1.4,1.2,3.8,0.6,5.3-0.8c1.5-1.4,2-2.9,1.4-4.5
	c-0.7-2-2.7-3.4-4.6-3.4c-2.2,0-3.6,1.4-4.1,3.7c-0.1,0.7,0.1,1.6-0.8,1.9c-1.3,0.5-2.7,1.1-4.3,1.8c0.5-2,1.2-3.5,2-5
	c3-5.8,1.3-4.3,7.4-5.9c0.6-0.1,1.2-0.2,1.7-0.4c0.8-0.3,1.3-0.1,2,0.5c2.1,1.7,4,1.6,6.2,0.1c2.6-1.8,2.5-5.2,0-7
	c-2.8-1.9-5.7-1.1-7,2.1c-0.3,0.8-0.3,1.7-1.4,1.9c-1.4,0.3-2.7,0.8-4.5,0.7c1.9-2.9,3.7-5.6,5.9-8c0.2-0.2,0.5-0.5,0.8-0.5
	c3-0.4,5.7-2,8.6-2.8c0.1,0.2,0.3,0.4,0.4,0.6c1,2.1,2.4,2.9,4.3,2.6c1.7-0.3,3.2-1.6,3.5-3.2c0.3-1.3-0.9-3.5-2.3-4.2
	c-1.5-0.8-3.2-0.3-4.8,1.2c-1.1,1-5.1,2.4-7,2.4c0.6-1,1.6-1.7,2.4-2.5c1.4-1.4,2.7-2.6,5.1-2.1c2.3,0.5,4.2-1.5,4.5-3.8
	c0.2-2.4-1-4.4-3.1-4.9c-2.3-0.5-4.4,0.8-5.2,3.3c-0.2,0.6-0.2,1.2-0.2,1.7c0,0.6-0.1,1.2-0.6,1.6c-2.3,1.8-4.5,3.7-6.7,5.6
	c0.2-1.2,0.5-2.2,0.8-3.2c0.4-1.4,1.1-2.2,2.7-2.5c2-0.4,3.2-2.3,3.1-4.1c-0.1-1.7-1.3-3.1-3.3-3.6c-1.8-0.5-3.9,0.3-4.9,1.8
	c-1,1.4-0.9,3.5,0.5,4.8c0.9,0.9,1,1.5,0.6,2.6c-2,5.6-3.9,11.2-7.9,15.8c-0.5,0.6-0.8,1.3-1.2,1.9c-0.2,0.4-0.3,1-1.2,0.7
	c0-0.8,0-1.6,0-2.5c-0.1-2-0.4-4.1,2.4-4.6c0.1,0,0.3-0.2,0.4-0.3c1.7-1.4,2.1-3.8,0.7-5.3c-1.4-1.5-4.2-3.1-6.2-1.4
	c-2,1.7-2.4,5.2-0.4,6.9c1,0.8,1.3,1.6,1.1,2.8c-0.1,0.7-0.2,1.5-0.1,2.3c0.6,5.1-0.5,10-2.7,14.6c-0.5,1-0.5,2.2-1.5,3.2
	c-0.7-1.9-1.2-3.6-1.9-5.4c-0.4-1.1-0.7-2.1,0.2-3.2c0.7-0.9,0.7-2.2,0.6-3.4c-0.2-1.9-1.7-3.2-3.6-3c-1.7,0.1-3.4,1.7-3.8,3.5
	c-0.3,1.8,0.8,4.1,2.7,4.6c1.2,0.3,1.6,0.9,1.9,2c0.7,2.6,1.2,5.2,2.2,7.7c0.5,1.4,0.4,2.9-0.2,4.4c-0.8,1.9-1.3,3.8-2,5.7
	c-2.5,6.8-2.5,6.8-8.4,11c-11.2,8-23.2,14.5-34.9,21.5c-0.2,0.1-0.5,0.2-0.8-0.2c1.2-2.8,1.8-6,4.5-8c0.9-0.7,1.8-1.6,2.6-2.4
	c2.8-2.8,5.7-5.5,7.6-9c1.8-3.4,3.4-6.9,5.2-10.4c0.9-1.8,1.5-3.7,1.8-5.7c0.7-4,1-8,1.1-12c0.1-8-1.4-15.9-0.8-23.9
	c0-0.5,0-1.1-0.5-1.3c-0.7-0.3-1,0.3-1.3,0.8c-1,1.9-2.2,3.6-3.6,5.2c-6.3,7.5-10.6,16.1-14.3,25c-1.6,3.9-3.1,7.9-3.9,12.2
	c-1,5.6-1.7,11.1-0.8,16.7c0.4,2.6,0.9,5.3,0.9,8c0,3.9-1,7.4-5,9.3c-3.8,1.9-7.5,4.1-11.2,6.2c-0.7,0.4-1.4,0.7-0.9,1.7
	c0.4,0.8,0.4,2.1,1.7,1.7c2.8-0.7,5.8-1,8.4-2.5c9.7-5.8,19.5-11.5,29.3-17.2c0.7-0.4,1.4-1.1,2.3-1c3.2,0.1,6.4,0.4,9.3,1.9
	c5.3,2.9,10.9,5.3,16,8.6c1.5,0.9,3.1,1.6,4.7,2.4c7.9,3.7,16.4,5.3,24.8,7.1c6.6,1.5,13.5,2,19,6.6c0.5,0.4,1.1,0.5,1.6,0
	c0.4-0.4,0.3-0.9,0.1-1.4c-0.2-0.4-0.4-0.8-0.6-1.1c-9.6-15.3-23.5-23.2-41.4-24.3c-2.2-0.1-4.4-0.1-6.5-0.2
	c-7.3-0.2-14.6-0.5-21.9-1.4c-0.5-0.1-1.2,0.5-1.5-0.5c3.5-2.4,7.2-4.6,10.6-7.1c2.5-1.8,5.3-2.6,8.3-2.5c6,0.3,11.9,0.2,17.8-0.3
	c9.7-0.8,19.5,0,29.2,0c4.8,0,9.6-0.3,14.3-1.1c1.1-0.2,2.1-0.5,3.2-0.8c0.4-0.1,0.9-0.4,0.8-0.8c-0.1-0.6-0.6-0.8-1.2-0.7
	c-3.4,0.6-6.7-0.4-9.9-1.2c-5.3-1.3-10.6-2.7-16-3.4c-7.3-1-14.6-0.7-21.9-0.4c-3.5,0.2-7,0.6-10.4,1.8c-0.6,0.2-1.1,0.8-1.8,0.4
	c0.1-0.5,0.5-0.7,0.8-0.9c12-9.6,25.1-17.3,38.7-24.4c0.8-0.4,1.6-0.6,2.4-0.5c1.2,0.2,2.5,0.3,3.8,0.4c3.6,0.1,6.4,1.5,7.7,5.2
	c0.5,1.5,1.8,2.6,0.1,4.3c-1.3,1.3-0.3,3.6,1.4,4.4c1.8,0.8,4.1-0.1,4.8-2c0.7-1.9-0.2-3.4-2.2-4c-0.4-0.1-0.9,0-1.1-0.4
	c-0.9-1.9-2.3-3.6-3-5.8c2,0.2,3.7,0.7,5.4,1.2c5.2,1.4,5.2,1.4,6.3,6.8c0.2,1.1,0,1.6-1,2.1c-2,1.2-2.5,4.2-1.2,5.7
	c1,1.2,3.2,1.7,4.9,1c1.7-0.7,3.2-2.8,3.1-4.5c-0.1-1.8-1.3-2.7-2.9-3c-0.7-0.2-1.2-0.4-1.4-1.2c-0.2-1.5-0.5-3.1-0.8-4.8
	c2.5,0.5,4.8,1.4,7,2.4c6.6,3.1,5.8,2.1,8.1,8.9c0.4,1.3,0.9,2.4-0.8,3.3c-1.4,0.8-1.7,3.2-0.9,4.5c0.7,1.3,2.3,1.9,3.9,1.6
	c2.9-0.6,3.8-3.2,1.9-5.5c-0.6-0.7-1.6-1.1-1.8-2c-0.4-1.8-0.8-3.5-1.2-5.7c3.4,2.1,6,4.6,8.6,7.1c1.1,1,1.8,1.9,0.9,3.6
	c-1,1.9,0.3,4.3,2.3,4.8c1.9,0.5,4.4-1,4.9-3c0.6-2.1-0.5-3.8-2.7-4.3c-0.6-0.1-1.2,0.1-1.7-0.4c-1.7-1.8-3.4-3.6-5.3-5.7
	c1.5,0.2,2.5,0.4,3.5,0.6c0.7,0.1,1.5,0.4,2.2,0.5c1,0.2,1.8,0.5,1.8,1.9c0,1.3,0.9,2.3,2.2,2.8c1.7,0.7,3.8-0.1,4.8-1.7
	c0.9-1.4,0.6-3.9-0.6-5.1c-1.3-1.3-3-1.4-4.8,0c-0.9,0.8-1.7,0.7-2.7,0.5c-2.8-0.7-5.5-1.6-8.4-1.5c-0.8,0-1.4-0.5-2-0.9
	c-1.7-1.1-3.4-2.2-5-3.3c-0.4-0.3-1.1-0.4-1.2-1.3c2.3,0.1,4.5,0.3,6.8,0.4c0.9,0,0.9,0.6,1.1,1.3c0.4,1.7,1.7,2.6,3.2,2.7
	c1.8,0.1,3.3-1,3.9-2.6c0.5-1.6,0.1-3.1-1.1-4.1c-1.3-1-3.3-1.1-4.6,0.2c-0.9,0.8-1.6,0.8-2.7,0.7c-3-0.3-6-1-9-0.5
	c-2.1,0.3-3.7-0.3-5.5-1.4c1-0.3,1.8-0.2,2.6-0.7c1.3-0.8,1.9-2,1.6-3.4c-0.6-2.4-4.6-3.6-6.1-1.7c-0.9,1-1.6,1.2-2.8,1.1
	c-3.2-0.2-6.3-0.9-9.4,0.5c-0.2,0.1-0.5,0-0.7,0c-3.4-0.7-6.8-1.4-10.4-2.2c0.5-0.4,0.8-0.6,1-0.7c8.3-4.1,16.9-7.5,25.8-9.9
	c3.8-1,7.8-0.4,10.7,3.1c0.7,0.9,1.6,1.8,2.4,2.6c4.6,4.3,10.1,6.2,16.3,6.2c1.5,0,1.8-0.5,1-1.9c-1-1.6-2-3.3-3.1-4.9
	c-1.4-2.1-3.2-3.9-5.5-5.1c-2.9-1.5-6-1.6-9.1-1.2c-2,0.3-3.6-0.3-5.9-0.9c1.1-0.4,1.6-0.6,2.2-0.7c4.4-1.2,8.7-2.4,13.1-3.7
	c1.1-0.3,2.3-0.5,3.5-0.4c1.6,0.2,3.2-0.1,4.5-1.3c0.9-0.8,2-0.9,3-1.2c0.9-0.2,1.4,0,1.4,1.1c0,1.7,1.1,2.8,2.6,3.3
	c1.6,0.5,3.1,0.2,4.4-1c1.4-1.2,2-2.6,1.1-4.4c1.2-0.3,2.2-0.5,3.2-0.1c-0.5,2-0.1,3.6,1.7,4.6c2.5,1.3,5.5-0.1,6-3
	c0.2-0.9,0.2-1.8,1.3-2.1c0.2-0.1,0.3-0.6,0.4-1c0.6,0.8,1.3,1.2,2.2,1.5c1.4,0.4,2.7,0.2,3.7-0.8c1.1-1.1,1.3-2.3,0.6-3.7
	c-0.1-0.3-0.4-0.6,0.1-0.9c1.5,1.6,3.2,2.3,5.3,1.3c1.2-0.6,1.8-1.5,1.8-2.8c0-1.3-0.7-2.2-2-2.7c-2.3-0.9-4-0.4-5.2,1.9
	c-0.4,0.7-0.8,1-1.5,1.1c-1.3,0.1-2.6,0.3-4,0.1c0.5-1.8,0.4-3.3-1.3-4.3c-1.2-0.7-3.7-0.5-4.8,0.4c-1.9,1.6-1.3,3.5-0.5,5.3
	c-1.9,0.7-1.9,0.7-3-0.8c-0.9-1.2-3.3-1.7-4.8-1.1c-1.4,0.6-2,1.6-1.6,3.7c0.2,1-0.2,1.2-1,1.3c-1.6,0.2-3.2,0.4-4.7,0.7
	c-2.1,0.3-2.1,0.3-2.6-1.6c-0.7-2.5-2.6-3.5-5-2.7c-1,0.4-2,0.8-3,1.3c-1.6,0.8-2.3,2.1-2.4,3.8c0,1.9,0,1.9-1.9,2.4
	c-6.4,1.6-12.8,3.3-19.3,4.9c-0.5,0.1-1,0.5-1.6,0.1c0.8-1,1.9-1.6,3.1-2.1c1.9-0.7,3.8-1.4,5.6-2.2c6.5-2.9,11.5-7.5,14.7-13.9
	c0.8-1.6,1.7-2.2,3.4-2.1c6.9,0.2,13.7-0.8,20.3-3.1c7.9-2.8,15.3-6.9,23-10.2c0.1,0,0.1-0.1,0.2-0.1c0.6-0.4,1.1-0.8,1-1.6
	c0-0.8-0.6-1.2-1.2-1.4c-0.6-0.2-1.3-0.4-1.9-0.6c-8.7-2.3-17.6-3.4-26.7-3.1c-10.5,0.3-20.6,2.5-29.9,7.6c-0.4,0.2-0.7,0.5-1.1,0.1
	c0.1-0.9,0.8-1.6,1.2-2.4c2.4-4,4.8-7.9,7.1-11.9c0.9-1.7,2-2.3,4-2.2c8.6,0.3,17.1-1,25.2-3.9c15-5.2,27.1-14.8,39-24.9
	c1.2-1,0.7-2.4-0.9-2.7c-1.1-0.2-2.3-0.2-3.5-0.3c-20-1.1-38,4-53.8,16.6c-0.5,0.4-1,0.7-1.6,1.1c0-0.4-0.1-0.6,0-0.7
	c4.3-9.2,8.2-18.6,11.8-28.1c0.7-1.8,1.9-2.6,3.8-2.9c2.1-0.3,4.1-0.6,6.2-1c8.8-1.8,17.1-4.9,24.2-10.6c1.4-1.1,2.8-1.5,4.6-1.5
	c9.7,0.1,19.5,0,29.2,0c1.5,0,2.8-0.2,3.7-1.5c0-0.8,0-1.7,0-2.5C750.5,332.3,748.9,332.6,747.3,332.6z M190.3,346.8
	c-8.9-0.6-17.1-3.5-24.6-8.5c0.5-0.9,1.2-0.6,1.7-0.6c3.9,0,7.9,0,11.8,0c0.8,0,1.6,0,2.4,0.6c3,2.4,6,4.9,8.7,7.6
	C190.4,346.1,190.6,346.3,190.3,346.8z M178.4,437.5c-0.1-1-0.1-1.9-0.2-3c3,0.5,5.6,1.1,8.2,2.4
	C183.8,437.1,181.2,437.3,178.4,437.5z M205.4,458.7c1.9-4.5,5.9-7.7,9.7-7.9c-1.8,1.8-4.2,2.8-5.5,5.2c2-0.8,4.1-1.5,6.2-2.3
	C214,455.8,209,458.2,205.4,458.7z M236.6,465.6c0.9-2.3,2.6-1.4,4.3-1.5C239.2,465.2,239,465.3,236.6,465.6z M316.5,508.5
	c-5.3,2.7-10.5,5.6-15.9,8.1c-7.8,3.7-16.1,5.6-24.5,7.5c-4.7,1.1-9.4,2.4-14.1,4c4.4-10,27.6-21.5,39.5-19.5
	c-1.4,0.9-2.9,1-4.3,1.3c-5,1.2-10,2.4-14.8,4.1c-3.7,1.4-7.2,3.1-10.4,5.5c-0.5,0.4-0.9,0.7-1.3,1.1c-0.3,0.3-0.6,0.6-0.3,1.1
	c0.3,0.3,0.6,0.1,0.9-0.1c6-4.8,13.3-6.7,20.5-8.5c6.1-1.6,12.2-3,18.3-4.4c2.1-0.5,4.3-0.9,6.5-0.8
	C316.6,508.2,316.6,508.5,316.5,508.5z M354.9,501.5c-0.1,0.2-0.1,0.5-0.3,0.9c-0.9-1.6-0.9-3.3-1.3-4.8
	c-3.4-12.6-6.1-25.4-11.1-37.6c-0.4-1-0.6-2.3-2.3-3.1c2.2,7.8,4.5,15.1,5.6,22.7c1.2,7.6,3.6,14.8,5.3,22.3
	c-0.9,0.1-1.2-0.5-1.4-0.9c-2.4-3.3-4.9-6.4-6.6-10.1c-1-2.2-2-4.4-3.2-6.6c-2.3-4.2-3.2-8.6-3.4-13.3c-0.2-4.2-0.4-8.4-0.2-12.6
	c0.2-3.9,0.2-7.9-0.4-11.8c1-0.3,1.1,0.5,1.4,0.9c3.7,4.8,7,9.8,9.5,15.4c2,4.5,4.3,8.9,5.9,13.6
	C355.1,484.7,356.7,492.9,354.9,501.5z M233.3,384.4c-1.9,2.1-3.7,4.3-5.7,6.3c5-12.4,13.3-22.1,24.1-29.7c0.7,0.5,0.4,1,0.4,1.5
	c-1,5.9-2.1,11.9-4,17.6c-1.1,3.2-2.3,6.3-4.1,9.2c-3.4,5.7-8.5,9.4-14.5,11.9c-0.6,0.2-1.3,0.4-1.9,0.5c-0.2,0.1-0.5,0-1.1-0.1
	c2.6-8.8,9.2-14.8,13.8-22.2C237.5,380.5,235.3,382.2,233.3,384.4z M201.4,413.1c-3.1-0.1-6.1,0-9.4,1c1.8,0.9,3.5,0.9,5.1,1.2
	c3,0.6,5.9,1.1,8.9,1.5c1.4,0.2,2.4,0.5,2.4,2.2c0,0.3,0.2,0.6,0.3,0.9c0.5,1.7,0.5,1.8-1.2,1.8c-12.6,0.3-24.2-2.7-34.8-9.8
	c-0.1-0.1-0.2-0.3-0.4-0.5c11.2-3.4,41-1.4,48.4,4.4c-1,0.3-1.8,0-2.7-0.2C212.5,414.5,207,413.2,201.4,413.1z M212,418
	c3.1,0.5,5.9,1.1,9,2C217.4,421.1,214.3,421.7,212,418z M227.1,436.8c-1.5-1-2.8-2.1-4.1-3.3c-1.7-1.6-3.4-3.3-5.1-4.9
	c-0.3-0.3-0.7-0.6-1.1-0.3c-0.4,0.4-0.1,0.8,0.2,1.1c2.2,2.5,4.5,5,6.8,7.5c0.5,0.6,1.3,1,1.7,1.8c-4.1-1.4-9.7-7.9-11.5-13.2
	c1.9-1,3.4-0.5,5,0.9c2.9,2.6,5.9,5,7.7,8.5c0.2,0.4,0.4,0.7,0.5,1.1C227.3,436.2,227.2,436.4,227.1,436.8z M228.7,423.3
	c1.2-0.2,2.1,0.1,2.8,1.1c7.2,10.6,16.7,19,26.5,27c2.2,1.8,4.4,3.6,6.7,5.4c-0.7,0.5-1.1,0.1-1.6-0.1c-5.6-2.6-11.3-4.7-17-7
	c-6-2.4-10.8-6.4-14-12.1c-2.8-4.9-6-9.3-10.7-12.5c-0.1-0.1-0.2-0.3-0.4-0.7C223.7,424,226.2,423.7,228.7,423.3z M182,378.9
	c4,2.1,8.1,4.1,12.1,6.1c3.9,2,7.7,4,11.3,6.5c0.7,0.5,1.5,0.8,2,1.9c-21.2-1.8-38.9-10.5-54.2-25.1c15.3-3.9,48.6,8.5,56.1,21
	c-9.4-5.2-18-10.9-28.7-11.8C180.7,378.5,181.5,378.6,182,378.9z M201.6,357.1c-2.8-6.2-5.1-12.6-7.2-19.3c5,0,9.6,0,14.6,0
	C205.8,344.1,203.3,350.5,201.6,357.1z M207.9,358.4c-0.2-0.1-0.3-0.3-0.5-0.4c3.5-5.5,7-11.1,10.4-16.6c0.2-0.4,0.5-0.7,0.7-1
	c0.4-0.6,0.4-1.1-0.2-1.6c-0.6-0.4-1.1-0.4-1.6,0.1c-1.7,1.4-3.1,3.1-4.4,4.8c-1.6,2.2-3.2,4.3-4.9,6.4c0.1-1.6,0.8-3,1.5-4.4
	c1.1-2.3,2.3-4.5,3.5-6.7c0.4-0.7,0.8-1.2,1.7-1.2c3.4,0,6.9,0,10.7,0C221.3,346.7,216.5,354.1,207.9,358.4z M645.1,400.7
	c-6.9-2.9-12.1-7.7-15.3-14.6c-2.4-5.1-3.8-10.6-4.9-16.1c-0.6-2.9-1.1-5.9-1.6-9c7.9,3,22.6,20.9,24.9,30.2
	c-3.1-3.9-5.9-7.7-9.9-10.4c-0.9-0.6-1.8-1.1-2.9-1.8c-0.2,1,0.4,1.4,0.7,1.9c2,2.7,4.1,5.3,6.1,8c2.3,3.1,4.5,6.3,6,9.9
	c0.3,0.8,0.6,1.7,1,2.7C647.5,401.9,646.3,401.2,645.1,400.7z M521.2,483.5c0.7-3.3,1.6-6.5,3-9.6c3.7-8.9,7.5-17.8,13.6-25.4
	c0.5-0.7,1.1-1.3,1.9-2.2c0.1,0.5,0.2,0.8,0.2,1c-0.6,5.7-0.1,11.4-0.1,17.1c0,3.1-0.3,6.2-0.5,9.3c-0.3,3.5-1.3,6.7-2.8,9.9
	c-2.7,5.5-5.2,11.1-9,15.9c-0.7,0.9-1.3,2-2.5,2.8c0.3-2.5,0.8-4.7,1.5-6.8c1.8-5.6,2.8-11.4,3.9-17.1c1.2-6.5,3-12.9,4.9-19.2
	c0.1-0.4,0.3-0.8,0.4-1.2c0.1-0.3-0.1-0.5-0.3-0.6c-0.3-0.1-0.5,0-0.6,0.2c-0.5,0.9-1,1.8-1.3,2.7c-2.6,6.6-4.9,13.2-6.5,20.1
	c-1.6,6.9-4.1,13.7-5.2,20.7c-0.1,0.5-0.1,1-0.7,1.2C519.3,495.9,519.9,489.7,521.2,483.5z M564.9,508.7c9.1,2.1,18.2,4.1,27,6.8
	c4.3,1.3,8.3,3.1,11.9,5.9c0.4,0.3,0.8,0.9,1.3,0.4c0.6-0.7-0.2-1-0.6-1.4c-1.6-1.5-3.5-2.6-5.4-3.7c-4.5-2.5-9.4-3.9-14.4-5.2
	c-2.8-0.7-5.5-1.4-8.3-2c-0.8-0.2-1.6-0.4-2.8-0.7c11.6-1.7,32.4,6.8,40.1,19.4c-1.1-0.4-2-0.7-3-1c-4-1.2-8.1-2.3-12.1-3.2
	c-11.7-2.6-23-6.1-33.3-12.4c-2-1.2-4.3-2.2-6.4-3.4C560.9,507.9,563,508.3,564.9,508.7z M639.1,465.8c-1.8-0.2-3-0.7-4.3-1.3
	C637.6,463.8,637.7,463.9,639.1,465.8z M660.7,450.7c4.7,0.6,7.2,4,9.7,7.7c-2.7,0.1-7.4-1.9-10.3-4.3c2.2,0.1,3.8,1.3,6.3,2
	C664.8,453.5,662.2,452.7,660.7,450.7z M697,434.6c0.5,0.9,0,1.9,0.4,2.8c-2.8,0.3-5.5-0.4-8.3-0.5
	C691.5,435.5,694.2,435.1,697,434.6z M650.7,438.4c2.1-2.5,4.4-5,6.6-7.5c0.5-0.6,1-1.1,1.4-1.7c0.2-0.3,0.3-0.6,0-0.9
	c-0.3-0.3-0.6-0.1-0.9,0.1c-1,0.9-1.9,1.9-2.9,2.8c-2,1.9-3.9,3.8-6.3,5.2c0.3-1.8,1.2-3.2,2.3-4.6c2-2.4,4.4-4.4,6.8-6.3
	c1.1-0.8,1.1-0.8,4,0C659.2,430.9,655.9,435.4,650.7,438.4z M654.8,420c2.9-1.1,5.8-1.4,8.8-2.1C660.7,421.5,659.8,421.5,654.8,420z
	 M655.7,414.9c4.8-2.3,10-3.4,15.2-4.1c8.9-1.3,17.9-1.5,26.8-0.5c1.8,0.2,3.6,0.3,5.4,1c-0.1,0.8-0.7,1-1.2,1.3
	c-10,6.5-21.1,9.3-32.9,9.3c-0.4,0-0.8-0.1-1.3-0.1c-1,0-1.4-0.4-1.1-1.4c0.2-0.6,0.5-1.1,0.5-1.7c0.1-1.2,0.8-1.7,1.9-1.8
	c4-0.6,7.9-1.3,11.9-2c0.7-0.1,1.5-0.1,2.4-0.9c-9.9-2.3-19.3,0.5-28.9,2.2C654.6,415.2,655.3,415.1,655.7,414.9z M654.5,424.5
	c-0.5,1.1-1.3,1.4-1.9,1.9c-3.3,2.5-6.1,5.5-7.9,9.3c-1.5,3-3.5,5.8-5.9,8.1c-2.6,2.5-5.6,4.7-9,5.9c-6.1,2.2-12.2,4.7-18.1,7.5
	c-0.3,0.1-0.6,0.4-0.9,0.1c0.3-0.8,1.1-1.2,1.8-1.7c6.3-5.1,12.6-10.1,18.4-15.7c4.8-4.6,9.2-9.5,13-15c0.9-1.4,1.9-1.9,3.6-1.6
	C649.6,423.8,651.9,424.1,654.5,424.5z M683.6,375.8c11.6-5.5,23.8-8.4,36.7-8c0.5,0,1,0.1,1.5,0.2c0.1,0,0.1,0.1,0.3,0.4
	c-15.1,14.5-32.9,23.2-53.9,25c0.1-1,0.8-1.2,1.3-1.5c4.9-3.5,10.2-6.1,15.5-8.8c2.8-1.4,5.6-2.8,8.3-4.2c0.5-0.3,1.3-0.4,1.5-1.4
	c-10.7,0.9-19.4,6.6-28.6,11.3c0.4-0.5,0.8-1.1,1.2-1.6C672.1,382.4,677.6,378.7,683.6,375.8z M657.5,340.9
	c3.2,5.1,6.4,10.2,9.6,15.3c0.3,0.6,0.9,1,1,2.3c-9.1-4.4-13.8-11.8-17.5-20.8c4,0,7.6,0,11.2,0c0.6,0,0.9,0.4,1.1,0.9
	c2.1,3.5,3.9,7.2,5.4,11.4c-0.9-0.4-1.2-1-1.6-1.5c-1.5-2-2.9-4.1-4.5-6.1c-0.9-1.1-1.9-2.1-2.9-3.1c-0.6-0.6-1.3-1.3-2.2-0.5
	C656.2,339.6,657.1,340.3,657.5,340.9z M674,357c-1.8-6.6-4.2-12.9-7.4-19.2c5,0,9.7,0,14.6,0C679.1,344.5,676.7,350.8,674,357z
	 M684.5,346.9c1.7-2,3.1-3.3,4.6-4.6c5.2-4.5,5.2-4.5,12-4.5c2.9,0,5.8,0,8.7,0c0,0.2,0.1,0.4,0.1,0.5
	C702.4,343.3,694.2,346.2,684.5,346.9z M747.8,201.8c-16.5,0-32.9,0-49.4,0c-1.7,0-2.8-0.4-3.8-1.8c-2.3-2.9-5.1-5.3-8.2-7.4
	c-1.3-0.8-1.7-1.8-1.5-3.1c0.1-0.9,0.3-1.8,0.2-2.8c-0.6-8.6,1-16.9,2.9-25.1c0.2-0.8,1.5-2,0.2-2.6c-1.1-0.4-1.3,1.2-1.9,1.9
	c-0.2,0.2-0.3,0.4-0.4,0.7c-2.5,4.9-4.7,10-6,15.4c-0.2,0.7-0.2,1.5-0.7,2.1c-0.7-0.3-0.8-1-1.1-1.6c-0.8-1.9-1.4-3.8-2.2-5.6
	c-0.5-1.1-0.4-2.1-0.3-3.2c0.5-4.4,1.4-8.8,2.3-13.1c0.2-0.8,0.5-1.5,1.1-2.2c2.2-2.3,4.4-4.6,6.6-6.9c0.8-0.8,1.5-1.2,2.8-1
	c3.2,0.5,5.6-2.6,4.8-5.7c-0.4-1.5-1.3-2.6-2.9-2.8c-1.6-0.2-2.8,0.5-3.6,1.8c-0.7,1.1-1.3,2.4-1.1,3.8c0.1,0.5,0.1,1-0.3,1.4
	c-1.9,1.6-3.6,3.5-5.8,5c-0.1-0.4-0.1-0.7-0.1-0.9c0.6-3.1,1.2-6.3,1.6-9.4c0.1-0.7,0.2-1.3,0.6-1.9c1.8-2.7,3.4-5.6,4.8-8.5
	c0.4-0.9,0.9-1.4,2-1.6c2.5-0.5,4.2-3.3,3.7-5.7c-0.5-2.4-1.6-3.3-5.2-2.9c-2.7,0.2-4.2,2.8-3.4,5.3c0.2,0.8,0.7,1.5,1.3,2.1
	c0.4,0.4,0.6,0.8,0.3,1.3c-1,1.7-1.9,3.4-3.4,4.9c-0.2-1.6-0.2-3.2-0.3-4.7c-0.2-4.7-0.8-9.3,1-13.9c0.3-0.8,0.4-1.8,0.4-2.7
	c0-1.6,0.5-2.5,2.3-3c2.2-0.6,3.1-3.2,2.2-5.4c-0.8-2.1-3.5-3.3-5.6-2.6c-2.2,0.7-3.4,3-2.7,5.3c0.3,0.9,0.9,1.6,1.6,2.2
	c0.5,0.4,0.9,0.8,0.8,1.4c-0.4,1.6-0.3,3.4-1.3,5.2c-0.8-2.5-1.5-4.8-2.3-7c-0.6-1.5-1-2.8,0-4.2c0.6-0.9,0.6-2.1,0.5-3.2
	c-0.4-2.6-3.2-4.1-5.5-3c-1.7,0.8-3.1,3-3,4.9c0.1,2,1.3,3.4,3.5,4.1c0.6,0.2,1.2,0.2,1.4,0.9c0.7,2.2,1.5,4.4,1.8,7.3
	c-1.2-1.4-2.1-2.4-3-3.3c-1-1.1-2.1-2.1-2.2-3.8c-0.1-1.2-1.1-2.1-2.3-2.4c-1.6-0.5-4,0.5-4.8,2c-0.9,1.5-0.5,3.8,0.9,5
	c1.5,1.3,3.3,1.5,5,0.1c0.8-0.7,1.2-0.6,1.8,0.1c1.7,2,3,4.3,5.2,5.8c0.4,0.3,0.6,0.6,0.6,1.1c0.6,3.3,1.1,6.5,0.9,9.9
	c-1,0-1.3-0.6-1.8-1c-1.5-1.1-2.5-2.2-1.9-4.4c0.5-1.7-0.3-3.3-1.9-4.3c-1.5-0.9-4.5-0.5-5.7,0.6c-1.5,1.4-1.9,3.5-1,5.3
	c1,2.3,2.8,3.5,5,3c1.4-0.3,2.2,0,3,1c0.3,0.4,0.7,0.7,1.1,1c3.5,3.1,3.5,3.1,3.2,7.6c-0.1,1,0,2-0.3,3c-0.2,1.1,0,2.3-0.8,3.5
	c-1.4-2.2-3.6-3.6-2.2-6.7c1-2.2-1-4.7-3.3-5c-2.1-0.2-3.9,0.5-5,2.2c-1.1,1.6-0.7,3.4,0.2,5c1,1.8,2.6,2.7,4.6,2.2
	c1.1-0.3,1.5,0.2,2,0.9c3.4,4.7,3.4,4.7,2.3,10.5c0,0.2-0.1,0.5-0.1,0.7c-0.9,4.1-1.6,8.3-2.2,12.6c-0.9-0.5-0.9-1.2-1.2-1.8
	c-3.2-7.7-6.4-15.3-10.6-22.5c-0.5-0.8-0.6-1.7-0.6-2.6c0.1-3.1-0.5-6.2-1.4-9.1c-0.7-2.2-1.1-4.6-1.6-6.9
	c-0.7-3.6-1.8-7.2-3.1-10.6c-2.7-7.2-5.5-14.4-8.5-21.5c-0.2-0.4-0.3-0.8-0.8-0.8c-0.5,0.1-0.7,0.5-0.6,1c0.1,0.6,0.1,1.2,0.3,1.7
	c1.7,8.7,1.9,17.6,2.9,26.5c-0.7-0.1-0.9-0.6-1.2-1c-3.6-5.2-7.4-10.2-11.5-15c-2.5-2.9-4-6.5-5-10.1c-0.8-2.9-1.1-6.1-0.9-9.2
	c0.3-4.1-0.2-8-1.6-11.9c-2-5.5-5.1-10.6-6.8-16.2c-0.2-0.6-0.6-1.1-1.3-1c-0.6,0.1-1.1,0.5-1.2,1.2c-0.4,2.7-1.7,5.1-2.1,7.8
	c-1.1,8.3,0.8,15.8,5.8,22.5c1.1,1.5,2.3,2.9,3.4,4.3c0.9,1,1.4,2.2,1.7,3.6c-0.3-0.1-0.4-0.1-0.5-0.1c-5.4-5.2-10.7-10.4-16.1-15.5
	c-0.7-0.7-0.5-1.1,0-1.8c1.5-2.2,1.4-3.6-0.1-5.8c-0.5-0.7-1.1-1.5-1.7-2.2c-1.5-1.6-3.5-1.8-5.1-0.3c-0.7,0.6-1.2,1.3-1.9,2.1
	c-2.2-1.6-4.3-3.2-6.2-4.9c0.2-0.9,0.8-1.1,1.1-1.6c1-1.6,0.7-3.4-0.9-4.4c-1.5-0.9-3.1-1.5-4.6,0c-0.6,0.6-1,0.5-1.4-0.1
	c-0.3-0.4-0.7-0.7-1.1-1.2c2.1-1,3.2-2.6,2.6-4.9c-0.4-1.4-2.3-2.8-3.8-2.9c-2.3-0.1-3.1,1.6-3.7,3.5c-1-0.7-1.9-1.4-2.8-1.9
	c-0.9-0.6-1.4-1.2-1.3-2.4c0.2-2.4-1.7-4-4.2-3.8c-2.4,0.2-3.7,2.7-2.5,4.8c0.8,1.4,2.4,2.1,4.1,1.9c0.5-0.1,1-0.7,1.6-0.2
	c-2.1,2-2.6,3.8-1.5,5.4c1,1.5,2.7,1.9,4.7,1c0,0,0,0,0,0c0.2,1.6,0.5,3.1,0,4.8c-0.6,2,1,4.1,3,4.6c2,0.5,3.6-0.4,4.5-2.6
	c0.1-0.3,0.1-0.7,0.7-0.7c0.7,0.5,1.7,0.7,2.2,1.6c-2,2.5-1.8,5.4,0.5,7.1c2.1,1.5,4.5,0.8,6.6-2.1c1.3,0.9,2.6,1.8,3.1,3.4
	c0.4,1.2,1.3,2.3,2.5,2.7c1.9,0.7,3.2,2.1,4.6,3.4c2.7,2.7,5.4,5.5,8.1,8.3c0.5,0.6,1.3,1,1.5,1.9c-3.3-0.4-3.3-0.4-5.7-2.2
	c-4.4-3.2-9-3.7-14-1.6c-2.5,1.1-4.7,2.6-7,3.9c-1.1,0.6-1.1,1.3,0,1.8c1.8,0.9,3.6,1.9,5.5,2.4c5.2,1.4,10.4,1,15.3-1.1
	c2.2-1,4.1-1,6.3-0.3c1.9,0.6,3.8,1.1,5.3,2.7c6,6.5,11.7,13.4,16.7,20.8c0.4,0.6,0.9,1.1,1,2.1c-3.5-1.3-6.8-2.3-10.1-3.1
	c-0.5-0.1-1-0.2-1.2-0.8c-0.4-1.1-1.4-1.4-2.2-2c-1.8-1.2-3.9-2-5.9-2.8c-0.7-0.3-1.2-0.6-1.4-1.5c-0.4-2.5-3.2-3.8-5.5-2.6
	c-1.2,0.6-1.9,2.1-1.5,3.4c0.5,2,2.7,3.5,4.6,2.7c1.7-0.7,2.6,0,3.7,1c-0.4,0.4-0.7,0.3-1,0.3c-2.7-0.4-5.5-1-8.2-1.1
	c-0.5,0-1-0.3-1.4-0.6c-2.4-2-5.4-3.1-8.3-4.2c-1.4-0.6-2.5-1.1-3.1-2.8c-0.7-2-3.3-2.5-5.1-1.4c-1.9,1.2-2.4,4-1,5.8
	c1.4,1.8,4,2.2,5.2,0.5c1.1-1.6,2-1,3.1-0.4c0.9,0.5,1.8,0.8,2.7,1.3c0.7,0.4,1.7,0.6,2.3,1.6c-3,0.1-5.8,0.4-8.5,0.7
	c-0.5,0.1-1,0.1-1.5-0.2c-2.4-1.4-5.2-2-7.8-2.6c-1.3-0.3-2.2-0.7-2.7-2.1c-0.9-2.3-3.4-2.9-5.1-1.4c-0.6,0.5-1.2,1.2-1.6,1.9
	c-0.9,1.6-0.3,4.1,1.3,5.2c1.4,1,3.6,1,4.5-0.5c1.2-1.9,2.6-1.5,4.2-1c1.3,0.4,2.7,0.7,4.3,1.5c-2.4,0.8-4.4,1.4-6.4,2.2
	c-0.9,0.3-1.7,0.4-2.6,0.1c-1.5-0.6-3-0.3-4.1,1.1c-1.1,1.3-1.1,3.3-0.1,5c0.7,1.3,2.1,1.9,3.4,1.7c1.6-0.3,3-1.6,3.4-3.4
	c0.1-0.3,0.1-0.7,0.1-1c-0.1-0.7,0.3-1.1,0.9-1.3c4-1.3,8.1-2.6,12.9-2.9c-2.4,2.3-3.6,5-6.8,5.8c-2.3,0.6-3,2.6-2.1,4.5
	c0.9,1.8,2.8,2.7,4.6,2c1.7-0.6,3.1-3,2.2-4.8c-0.8-1.7-0.3-2.6,1-3.6c0.7-0.5,1.3-1.1,1.8-1.7c1.9-2.2,4.2-3.2,7.2-2.7
	c1.3,0.2,2.7,0.1,4,0.2c2,0.3,4.1,0.3,6.3,1.2c-1.5,1.3-2.5,2.5-3.4,3.8c-0.4,0.6-0.8,0.8-1.7,0.6c-3.6-0.6-5.5,1.3-4.8,4.9
	c0.3,1.8,1.4,3.1,3.2,3.5c1.5,0.4,2.8,0.1,3.9-1.2c1.2-1.4,1.6-3.1,0.6-4.7c-0.8-1.2-0.4-1.8,0.4-2.6c0.6-0.6,1.1-1.3,1.6-1.9
	c2.2-2.4,2.2-2.5,5.3-1.7c2.4,0.6,4.9,1,7.4,2.1c-1.8,1.2-3.3,2.1-4.9,3.2c-0.7,0.5-1.3,0.7-2.3,0.4c-1.5-0.5-2.4,0-3.2,1.2
	c-0.9,1.3-0.9,3,0.1,4.2c1,1.3,2.6,1.7,4.1,1c1.4-0.6,2.4-2.1,1.9-3.7c-0.5-1.5,0.2-1.9,1.2-2.5c1.4-0.8,2.7-1.7,4-2.6
	c0.9-0.6,1.8-0.7,2.8-0.4c2.3,0.8,4.6,1.6,6.8,2.5c1.1,0.5,1.9,1.3,2.6,2.3c2.6,4,4.8,8.3,7,12.5c1.8,3.5,4.4,6.5,6.1,10.1
	c2.8,5.8,5.4,11.8,7.7,17.8c0.2,0.6,0.7,1.2,0.3,2.2c-1.6-2.3-3.5-4.2-5.7-5.8c-9.4-6.6-19.2-12.3-30.4-15.3
	c-3.6-1-7.1-1.8-10.7-2.7c-2.1-0.5-4.2-1.2-6.1-2.3c-0.8-0.4-1.7-1.9-2.5-0.7c-0.6,0.9,0.8,1.7,1.5,2.3c3.5,3.1,7.2,5.7,11.3,7.9
	c4.3,2.4,8.7,4.7,13.1,7c5.3,2.8,10.6,5.4,15.5,8.9c4.1,2.9,8.3,5.3,12.9,7.3c4.2,1.9,7.1,4.9,8.6,9.4c1.2,3.4,2.9,6.6,4.7,9.7
	c1.5,2.5,2.4,5.3,2.8,8.4c-163.4,0-326.6,0-489.8,0c-0.2-0.9,0.1-1.6,0.3-2.4c0.4-2.2,2.1-4.1,1.6-6.5c0-0.2,0.2-0.4,0.4-0.6
	c3-3.3,4.7-7.4,6.2-11.5c1.6-4.4,4.5-7.3,8.7-9.3c3.2-1.5,6.5-2.8,9.3-4.9c4.9-3.7,10.3-6.7,15.7-9.5c5-2.7,10.1-5.4,15.1-8
	c3.9-2.1,7.6-4.6,11.1-7.4c0.9-0.7,1.7-1.6,2.6-2.4c0.3-0.3,0.5-0.8,0.3-1.1c-0.3-0.5-0.9-0.4-1.3-0.1c-2.4,1.7-5,2.7-7.8,3.3
	c-1.6,0.4-3.3,0.8-4.9,1.2c-15.8,3.9-29.8,10.8-41.6,22.1c0,0.1-0.1-0.1,0-0.2c0.2-0.6,0.5-1.3,0.7-1.9c5-13.2,11.7-25.6,19.1-37.6
	c1.9-3.1,4.2-5.1,7.5-6c0.1,0,0.2,0,0.2-0.1c2.9-1.5,5.7-1.7,8.3,0.8c0.3,0.3,0.7,0.5,1.1,0.7c1.4,0.7,2.4,1.4,1.8,3.4
	c-0.5,1.8,1.5,3.6,3.3,3.6c1.9,0,3.7-2,3.4-3.9c-0.3-2-2-3.7-4.1-2.9c-0.4,0.2-0.8,0.4-1.2,0.2c-1.8-1.2-3.7-2.4-6-4
	c3.7-0.9,6.7-1.6,9.8-2.4c0.8-0.2,1.3,0.2,1.7,0.7c0.9,1,1.8,2,2.8,2.9c1.1,1,1.4,1.9,0.6,3.4c-1,1.7,0.1,4.2,1.9,5.2
	c1.7,0.9,4.1,0.4,5.1-1.3c1.1-1.7,1.3-3.6,0.2-5.5c-1-1.7-2.5-1.7-4.2-1.4c-0.6,0.1-1.1,0.3-1.6-0.3c-1.1-1.4-2.2-2.7-3.4-4.2
	c2.5-0.8,5-1,7.5-1.2c7-0.5,6.2-0.7,11.1,3.9c1.2,1.2,2.4,2,1.4,4.2c-0.8,1.7,0.6,4,2.2,4.5c1.8,0.6,3.8-0.2,4.6-2
	c1-2.1,0-4-2.7-4.9c-2.1-0.7-4.7-3.2-5.6-5.5c3.6,0.4,7.1,1.3,10.6,2.4c1.6,0.5,2.7,0.9,2.9,3c0.2,2.6,3.2,4,5.3,2.8
	c1.6-0.9,2.5-3.6,1.7-5.3c-0.7-1.8-2.4-2.6-4.6-2c-0.5,0.1-1,0.6-1.7,0.4c-2.4-0.8-4.8-1.7-7.6-2.6c1-0.3,1.5-0.6,2.1-0.7
	c1.2-0.4,2.4-0.6,3.6-1.1c1.1-0.4,1.7-0.2,2.5,0.8c1.2,1.6,2.6,2,4.2,1.4c1.6-0.6,2.8-2.4,2.6-4.2c-0.2-1.7-2-3.8-3.6-4.1
	c-1.7-0.2-2.9,0.5-3.8,2.6c-0.4,0.9-0.8,1.3-1.8,1.5c-2.9,0.7-5.9,1.2-8.6,2.8c-0.3,0.2-0.6,0.3-1,0.2c-2.9-0.3-5.8-0.6-8.9-0.9
	c1-0.8,5.6-3.3,6.3-3.5c0.7-0.2,0.9,0.2,1.2,0.6c0.4,0.6,1,1.1,1.8,1.3c1.9,0.5,4-0.6,4.6-2.5c0.6-1.8-0.4-4.1-2.2-4.9
	c-1.9-0.8-4.1,0-4.8,2c-0.4,1.3-1.2,1.8-2.3,2.3c-2.8,1.1-5.7,2-8.1,3.9c-1.6,1.3-3.2,1.3-5.3,1.2c0.7-0.6,1.2-1,1.6-1.6
	c0.8-1.1,1-2.3,0.3-3.5c-0.9-1.6-2.4-1.6-4-1.5c-1.4,0.1-2.7,0.6-2.7,2.1c0,1.8-1.2,2.2-2.4,2.7c-2.3,0.9-4.8,1.7-6.3,3.5
	c-1.3,1.5-2.7,1.8-4.3,2.3c-2.1,0.7-4.1,1.3-6.2,2c-0.5,0.1-1,0.7-1.6,0.2c0.2-0.9,0.8-1.5,1.3-2.2c4.7-6.9,10-13.3,15.5-19.5
	c2-2.2,4.5-3,7.2-3.8c2.1-0.7,3.8,0.1,5.5,0.8c0.3,0.1,0.6,0.3,0.9,0.4c6.6,2.3,13,1.8,19.2-1.6c1.5-0.8,1.6-1.4,0.1-2.2
	c-2.1-1.2-4.2-2.5-6.4-3.5c-5.1-2.4-10-2-14.4,1.5c-1.7,1.3-3.6,2-5.8,2.3c0.2-1,1-1.5,1.5-2c3-3.1,6.1-6.2,9.2-9.3
	c0.9-0.9,1.8-1.7,3-2.1c1.4-0.5,2.4-1.5,2.9-2.9c0.6-1.6,1.8-2.5,3.1-3.5c2.2,2.9,4.4,3.7,6.5,2.1c1.1-0.8,1.6-1.9,1.9-3.2
	c0.3-1.6-0.2-2.9-1.6-3.9c1-0.9,1.8-1.4,2.8-1.7c0.2,0.5,0.3,1,0.6,1.4c1.4,2.6,5.1,2.7,6.7,0.2c0.9-1.4,1-2.9,0.2-4.3
	c-0.5-0.9,0-1.4,0.2-2.2c0.4-1,1-0.7,1.6-0.7c1.7,0,3-0.6,3.5-2.3c0.6-1.7,0.1-3.1-1.4-4.2c-0.2-0.1-0.4-0.3-0.3-0.6
	c0.5-0.1,0.9,0.2,1.4,0.3c1.9,0.3,3.7-0.7,4.3-2.3c0.6-1.5,0.1-2.8-1.5-4.1c-0.2-0.2-0.3-0.3-0.5-0.5c-0.7,0-1.3,0-2,0
	c-0.2,0.2-0.3,0.4-0.5,0.5c-1.9,0.7-2.9,2-2.4,4.1c0.1,0.7-0.1,1.1-0.7,1.5c-1.1,0.8-2.2,1.5-3.4,2.4c-0.6-2-1.4-3.7-3.8-3.5
	c-1.7,0.2-3.1,1-3.7,2.7c-0.8,2.3,0.3,4,2.4,5c-0.5,0.8-1,1.3-1.6,1.7c-0.1,0-0.2,0-0.3,0c-2.1-1.6-3.9-1.6-5.6-0.1
	c-1.4,1.2-1.4,2.4,0.2,4.8c0.5,0.7,0.2,1.1-0.3,1.5c-1.8,1.4-3.7,2.8-5.6,4.3c-0.7-0.8-1.1-1.5-1.7-2c-1.1-1-2.5-1.6-3.9-0.7
	c-2.2,1.4-3.8,3.3-4.1,6c-0.1,0.9,0.2,1.8,0.7,2.6c0.3,0.5,0.9,0.7,0.8,1.6c-5.7,5.3-11.3,10.7-17.2,16.7c0.4-2.6,1.6-4,2.8-5.4
	c2.1-2.5,4.1-5.1,5.6-8.1c4-8.4,3.8-16.9,0.6-25.4c-0.2-0.6-0.6-1.1-1.2-1.1c-0.8,0-1.1,0.6-1.3,1.3c-1.4,4.3-3.5,8.3-5.3,12.5
	c-1.6,3.7-2.9,7.5-3,11.6c0,1.7,0,3.4,0,5c-0.1,6.7-1.9,13-6.2,18.2c-4.9,6-9.6,12.1-13.8,18.6c-0.3,0.5-0.5,1.3-1.5,1.4
	c0.5-3.2,0.8-6.4,1.4-9.5c1.5-7.1,3.3-14.2,3.7-21.5c0-0.8,0.6-2-0.4-2.2c-1-0.2-0.9,1.1-1.1,1.9c-1,4.1-1.7,8.2-2.9,12.2
	c-3.2,10.2-6.4,20.5-8.2,31.1c-0.2,0.9-0.4,1.8-0.9,2.6c-5.1,8.2-8.8,16.9-12.5,25.8c-0.3,0.6-0.3,1.4-1.3,2
	c-0.7-6.1-2.1-11.9-3.2-17.8c-0.1-0.5-0.1-1,0.2-1.4c1.1-1.6,2.2-3.2,3.3-4.8c0.3-0.5,0.7-0.7,1.4-0.7c3.7,0.4,5.9-1.8,5.7-5.4
	c-0.1-2.1-2-3.7-4.5-4c-2.2-0.2-3.8,0.9-4.4,2.9c-0.4,1.2-0.1,2.3,0.4,3.4c0.2,0.5,0.6,1,0.2,1.6c-0.9,1.2-1.7,2.4-2.9,3.9
	c-0.9-3.8-1-7.2-1-10.6c0-0.7,0.5-1,0.9-1.4c1.4-1.3,2.9-2.6,4.2-4c0.6-0.6,1.1-0.5,1.8-0.4c2.8,0.5,4.6-0.6,5.6-3.1
	c0.7-1.8,0.2-4-1.3-5.3c-1.2-1.1-4-1.3-5.5-0.5c-1.4,0.8-2.3,2.7-2,4.6c0.1,0.4,0.2,0.8,0.3,1.2c0.1,0.4,0.1,0.9-0.2,1.2
	c-1.1,1.1-2.1,2.3-3.7,2.9c-0.2-2.6,0.2-4.9,0.4-7.2c0.2-2.1,0.5-3.9,2.5-5.2c0.7-0.4,1.1-1.2,1.7-1.9c1-1.2,1.9-2.3,2.5-3.1
	c0.8-0.4,0.9-0.1,1.1,0c1.8,1.4,3.4,1.6,5,0.4c1.5-1.1,2.1-3,1.5-4.7c-0.5-1.4-2.5-2.7-4.2-2.7c-1.8,0-2.9,1.1-3.5,3.4
	c-0.1,0.5-0.1,1-0.5,1.4c-1.4,1.5-2.8,3.1-4.5,5c0.4-2.9,1.2-5.2,1.9-7.4c0.2-0.6,0.7-0.6,1.2-0.7c4-1.3,4.8-5.4,1.7-8.2
	c-2.4-2.2-5.9-1.1-6.6,2.1c-0.3,1.4,0.1,2.7,0.6,3.9c0.3,0.6,0.7,1.1,0.5,1.9c-1,2.8-2,5.6-3.1,9c-0.6-3.1-2-5.5,0.6-8.2
	c2-2,0.3-5.7-2.5-6.3c-2.3-0.5-4.7,0.9-5.4,3.1c-0.7,2.3,0.4,4.5,3,5.3c1.1,0.3,1.4,0.8,1.5,1.9c0.3,2.4,0.5,4.8,1.4,7.1
	c0.6,1.6,0.7,3.3,0.4,4.9c-0.4,2.5-0.4,5-0.4,7.5c0,0.8,0,1.6,0,2.4c-0.2,0.1-0.4,0.1-0.6,0.2c-0.5-0.8-1-1.6-1.6-2.4
	c-1.2-1.7-2-3.2-0.3-5.2c1.3-1.6,0.6-4-0.9-5.2c-1.6-1.3-5-1.3-6.4,0c-0.4,0.4-0.7,0.9-0.9,1.5c-0.8,2.7,0.8,5.6,3.5,6.3
	c1,0.2,1.6,0.7,2,1.6c1.4,3,3.1,6,4.9,8.8c0.3,0.4,0.4,0.9,0.5,1.4c0.3,3.3,1,6.5,1.6,9.7c0,0.2,0.2,0.7-0.5,0.8
	c-1.5-1.3-3-2.8-4.6-4.1c-0.8-0.6-1.2-1.3-1.1-2.4c0.1-1.4-0.6-2.6-1.3-3.7c-0.8-1.2-2-1.8-3.5-1.6c-1.5,0.2-2.3,1.2-2.8,2.6
	c-1,3.2,1.4,6.3,4.8,5.9c1.3-0.2,2,0.2,2.8,1.1c1.9,2,3.8,4.1,5.8,6c0.8,0.8,1.7,1.5,1.9,2.8c0.8,4.3,1.8,8.5,2.3,12.9
	c0.2,1.5,0,2.9-0.5,4.4c-1.7,4.5-3.9,8.7-6,13c-0.3,0.5-0.4,1.3-1.2,1.5c-1.5-9.3-4.7-18-9.1-26.2c-0.2-0.4-0.4-0.7-0.7-1.1
	c-0.1-0.1-0.5-0.2-0.7-0.2c-0.3,0-0.4,0.3-0.3,0.6c0.1,0.4,0.1,0.8,0.2,1.2c2.4,7.1,2.9,14.6,3.4,22.1c0.3,3.9,0,7.9,0.8,11.8
	c0.2,1-0.1,1.7-0.9,2.4c-1.9,1.5-3.7,3.1-5.2,5.1c-1,1.4-2.3,1.7-3.9,1.7c-19.6,0-39.3,0-58.9,0c-2.3,0-4.6,0-6.6,1.5
	c0,0.7,0,1.3,0,2c1.4,1.6,3.2,2,5.2,1.8c0.3,0,0.7,0,1,0c209.5,0,419.1,0,628.6,0c0.7,0,1.3-0.1,2,0c1.3,0.1,2.4-0.3,3.4-1.3
	c0-0.8,0-1.7,0-2.5C750.8,201.9,749.3,201.8,747.8,201.8z M626,81.4c-2.3-3.9-2.7-8.5-4.7-12.5c-0.6,2.5,0.3,4.8,0.7,7.2
	c0.4,2.4,1.1,4.7,1.7,7.1c-3.7-4.2-5.3-16.5-2.6-22C623.9,67.8,627.1,74,626,81.4z M582.2,58.3c1.5,0,1.2-1.6,2.1-2.2
	c2.3,1.6,4.2,3.6,5.9,6.1C587.5,61,584.9,59.6,582.2,58.3z M607.1,91.7c-2.9,1.1-8.7,0.8-12-0.6c4.2-2.3,8.2-4.4,13.3-2.6
	c-2.7,1-5.5,0.5-7.8,2.2C602.6,91.1,604.7,91.4,607.1,91.7z M258.4,110.4c-1.8,0.3-3.1,0.5-4.4,0.7c-0.2,0-0.5,0-0.8,0
	C255.2,109.1,255.3,109,258.4,110.4z M281.2,88.7c-4,1.2-8,1.6-12,0.6c2.2-0.6,4.5-0.5,6.7-1.2c0,0,0-0.2,0-0.3
	c-2.4-1.1-5-0.8-7.9-1.7C273.2,84.1,277.2,86.3,281.2,88.7z M292.3,53.4c0.6,1,1,1.8,1.5,2.6c-2.5,1.2-5.1,2.4-7.6,3.6
	C287.8,57.2,289.8,55.3,292.3,53.4z M255.4,58.7c2.6,4.5,1.4,16.2-2.1,21.4c-0.3-0.6,0-1.1,0.1-1.6c0.7-3.3,1.4-6.5,2.1-9.8
	c0.1-0.6,0.1-1.2,0.2-1.7c0-0.2-0.1-0.5-0.4-0.6c-0.3-0.1-0.5,0.1-0.6,0.3c-0.2,0.6-0.4,1.3-0.6,1.9c-0.8,2.9-1.5,5.8-2.6,8.7
	c-0.2,0.6-0.3,1.3-1.2,1.8C249.4,71.4,252.6,65.2,255.4,58.7z M184.6,201.6c1.5-1.8,3-2.9,4.7-3.8C189.1,202,189.1,202,184.6,201.6z
	 M686.2,197.8c1.8,0.9,3.2,2.1,4.6,3.5C686.5,202.4,686.4,201.8,686.2,197.8z M504.7,492.4c-0.1-1.2,0.1-2.1,0.7-3.1
	c1-1.6,1.5-3.4,1.4-5.3c0-1.5,0.3-2.8,0.8-4.2c1.7-4.3,3-8.7,3.6-13.3c0.5-3.7,0.7-7.4-0.9-10.9c-1.3-3-3-4.1-6.3-4
	c-3.1,0.1-6.2,0.6-9.2,1.2c-9.9,2.1-18.6,6.7-26.5,12.9c-10.1,7.8-18,17.6-24.6,28.4c-0.5,0.8-0.7,1.7-1.6,2.1
	c-2.9-2.5-5.4-2.5-8.9-0.1c-0.6-0.4-0.8-1-1.2-1.6c-2.7-4.6-5.7-8.9-9-13c-8-10-17.4-18.4-29-24c-7.1-3.5-14.6-5.4-22.5-5.8
	c-3.4-0.2-4.9,0.9-6.3,4c-1.1,2.6-1.4,5.3-1.2,8.1c0.4,5.5,1.8,10.7,3.8,15.8c0.6,1.6,1.1,3.2,1,4.9c-0.1,1.6,0.4,3.2,1.2,4.6
	c0.7,1,1,2.1,0.9,3.3c-0.2,3.1,1,5.6,3.6,7.3c0.7,0.4,1.1,0.9,1.4,1.7c1.3,4.2,3.3,5.6,7.7,5.7c2.6,0.1,5.2-0.5,7.7-0.8
	c2.4-0.3,4.7-1,7.3-0.7c-0.4,1.1-1,1.9-2,2c-3.3,0.2-5.8,2-7.9,4c-4.1,4-8,8.3-7.3,14.7c0.1,0.7-0.1,1.5-0.2,2.3c0,0.7-0.1,1.3,0,2
	c0.2,1.7,1.6,2.7,2.2,4.1c0.7,1.5-0.1,3.4,1.1,4.8c0.7,0.9,1,1.9,1.2,3c0.3,1.7,1.2,3,2.9,3.4c1.4,0.3,2.1,1.1,2.8,2.2
	c1.3,2.1,3.2,3.4,5.8,3.4c0.9,0,1.6,0.3,2.1,1c1.4,1.9,3.3,2.5,5.5,2.4c1.2-0.1,2.3,0.1,3.3,1c2.5,0,5,0,7.6,0
	c1.1-0.9,2.6-1.2,3.9-1.7c4.1-1.5,6.9-4.2,8.7-8.2c3.3-7.4,5.4-15.1,7.1-23c0.1-0.6,0.2-1.2,0.4-1.7c0.1-0.2,0.2-0.4,0.4-0.7
	c0,0.3,0.1,0.6,0.1,0.8c-0.6,5.9-0.4,11.9,0.2,17.8c0.1,0.9,0.3,1.6,1.4,1.7c1.2,0,1.3-0.8,1.3-1.7c0.2-5.1,1.1-10.2,0.3-15.3
	c-0.2-1,0-2,0.2-3c0.9,3.8,1.8,7.5,2.7,11.3c1.3,5,3.1,9.9,5.2,14.7c1.6,3.5,4.1,5.8,7.6,7.2c1.4,0.6,3.1,0.8,4.2,2c2.5,0,5,0,7.6,0
	c1.2-0.8,2.4-1,3.8-1c2.2,0.1,4-0.6,5.3-2.4c0.5-0.7,1-1,1.9-1c2.9,0.1,4.9-1.5,6.3-3.9c0.6-1,1.3-1.5,2.3-1.7
	c1.8-0.5,2.9-1.7,3.1-3.5c0.1-1,0.4-1.9,1.1-2.7c0.7-0.9,1-1.9,0.9-3.1c-0.1-1.3,0.2-2.2,1.1-3.2c1-1.1,1.5-2.4,1.4-3.9
	c-0.1-2.1-0.4-4.2-0.1-6.3c0.1-0.6-0.2-1.2-0.4-1.7c-1.4-2.9-2.9-5.7-5-8.1c-2.6-2.9-5.7-5.2-9.7-5.9c-1.2-0.2-1.9-0.8-2.1-2.2
	c2.7,0,5,0.5,7.4,0.9c2.8,0.4,5.6,0.9,8.5,0.8c3.5-0.2,5.7-1.9,6.6-5.2c0.3-1,0.7-1.8,1.6-2.4C503.8,497.8,504.9,495.3,504.7,492.4z
	 M431.8,499.4c0.2,0.4,0.4,0.7,0.2,1.6c-7.1-4.3-15-6.6-21.7-11.3c-3.2-2.3-6.4-4.7-8.8-7.8c-0.9-1.1-2.1-2.3-1.2-3.8
	c0.9-1.5,2.5-1,3.9-0.8c1.4,0.1,2.8,0.6,4.1,1.1C419.1,482.1,426.9,489.2,431.8,499.4z M414.1,513.7c5.4-1.9,10.8-3.8,16.3-5.1
	c0.5-0.1,1-0.2,1.5,0.1c-1.7,4.4-18.9,15.9-24.5,16.3c1.7-3,3-6.1,4.3-9.1C412.1,514.8,413,514.1,414.1,513.7z M408.3,508.5
	c-0.8-0.6-0.7-1.2,0.2-1.7c1-0.6,2.1-0.5,3.2-0.5c6.1,0.4,12.2,0.3,18.8-0.3c-1.7,1.1-3.2,1.2-4.7,1.6c-3.7,1-7.4,1.9-11.2,2.6
	C412.1,510.8,410.1,510,408.3,508.5z M405.8,473.6c0.3-1.1,1.2-1.3,2.2-1.3c0.6,0,1.2,0.1,1.7,0.4c3.2,1.5,5.6,3.9,7.7,6.7
	c-0.3,0.4-0.4,0.4-0.6,0.3c-3-1.8-6.2-3.2-9.5-4.4C406.5,475,405.5,474.7,405.8,473.6z M401.5,467.1c1.7,0,3.3,1.5,3.1,2.9
	c-0.1,1-1,1.8-2.1,1.7c-1.6,0-3-1.5-2.9-3.2C399.7,467.6,400.3,467.1,401.5,467.1z M394.3,472.5c-0.5-0.4-0.9-0.8-1-1.4
	c-0.2-0.8-0.2-1.5,0.5-2c0.6-0.5,1.2-0.4,1.9,0c2,1.1,2.9,2.9,3.2,5.4C396.9,474.3,395.5,473.5,394.3,472.5z M397.8,481
	c-3.1-0.8-5.6-2-8.2-3.1c-0.9-0.4-1.6-1.2-1.3-2.4c0.3-1.1,1.8-1.9,3.1-1.6c1.2,0.3,2.1,0.9,3,1.7C396,476.9,397,478.6,397.8,481z
	 M393.2,460.3c1.5-0.2,4.4,2.2,4.4,3.6c-0.1,0.7-0.6,0.9-1.2,0.8c-1.2-0.1-3.4-2.3-3.7-3.5C392.6,460.7,392.7,460.3,393.2,460.3z
	 M386.2,459.6c0.1-0.2,0.3-0.3,0.5-0.5c0.3,0.1,0.6,0.1,0.7,0.2c1.5,1.3,3.1,2.6,4.2,4.2c0.2,0.3,0.2,0.7-0.1,0.9
	c-0.3,0.2-0.6,0.1-0.9-0.1c-1.4-1.2-2.8-2.4-4.2-3.6C386.2,460.4,386,460,386.2,459.6z M378.6,461c0.3-1,1.2-1.1,1.7-1
	c1.1,0.1,1.8,0.4,2.4,0.8c1.8,1.3,3.6,2.7,5.4,4c0.5,0.4,0.9,0.9,0.5,1.5c-0.4,0.6-1,0.5-1.6,0.2c-2.4-1.3-4.9-2.6-7.3-3.9
	C379.1,462.3,378.3,462,378.6,461z M373.6,466.8c0.1-1.3,1-2.1,2.6-2.1c0.2,0,0.3,0,0.4,0c3.6,0.3,6.6,1.5,9.3,3.7
	c0.6,0.5,1.3,1,0.9,1.9c-0.3,0.7-1.1,0.6-1.8,0.6c-1.2,0.1-2.3-0.2-3.4-0.7c-1.8-0.8-3.7-1.4-5.7-1.7
	C373.9,468.3,373.5,467.9,373.6,466.8z M375,473.9c-0.2-1.4,0.3-2.1,1.7-2.1c2.4-0.1,4.2,1.1,5.6,2.8c0.6,0.7,0.2,1.2-0.5,1.6
	c-0.8,0.4-1.7,0.6-2.6,0.5C376.8,476.7,375.2,475.7,375,473.9z M381,480.5c1-0.5,2.1-0.7,3.2-0.5c8.2,1.2,15.2,4.9,21.5,10.1
	c-2.2,0.4-4.4-0.2-6.5-0.4c-5.1-0.4-10.2-0.2-15.3-0.3c-2.1-0.1-3.7-0.8-4.8-2.6C377.6,484.2,378.4,481.7,381,480.5z M389.9,501.8
	c-2.3,0.3-4.7,0.4-7-0.3c-2.3-0.7-3.5-2.3-3.4-4.7c0.1-2.3,1.1-3.5,3.7-4c4.1-0.8,8.3-1,12.5-0.7c11.4,0.6,21.8,4.4,31.9,9.3
	c0.5,0.3,1.1,0.5,1.6,1.4c-3,0.3-5.7,0.1-8.5,0c-6.5-0.2-13-1.3-19.6-1.5C397.4,501.1,393.7,501.3,389.9,501.8z M399.6,510.4
	c1.9-1.3,3.8-1.6,5.9-0.4c1.3,0.8,2.8,1.5,4.5,2.4c-4.6,1.3-8.8,1.8-13.5,1.8C397.3,512.3,398.3,511.2,399.6,510.4z M390.8,520.4
	c1-2.3,2.7-3.7,5.2-3.8c4.3-0.1,8.5-0.4,12.7-1c0.1,0,0.3,0.1,0.5,0.2c-0.2,2.2-1.7,3.1-3.6,3.6c-2.7,0.6-5.4,1.1-8.1,1.6
	c-1.8,0.4-3.6,0.8-5.4,1.2c-0.5,0.1-1,0.3-1.4-0.1C390.3,521.5,390.6,521,390.8,520.4z M388.7,529.6c-0.5-1.3,0-2.8,1.4-3.7
	c0.9-0.6,2-0.9,3-1.2c4.4-1.2,9-1.5,13.5-2.8c-0.5,1.9-1.7,3-3.1,3.9c-3.5,2.1-7.3,3.3-11.1,4.8c-0.2,0.1-0.3,0.1-0.5,0.1
	C390.1,531.1,389.1,530.7,388.7,529.6z M398.3,538.5c-0.8,1.1-2,1.8-3.4,1.8c-2-0.1-3-1.6-2.3-3.5c0.3-0.9,1-1.5,1.7-2.1
	c3.6-3.2,7.9-4.9,12.4-6.2C403.7,531.7,400.8,535,398.3,538.5z M407.6,541.4c-0.6,1-1.4,1.9-2.4,2.6c-1.3,0.9-3,0.8-4.2-0.3
	c-1-0.9-1.2-2.2-0.4-3.6c0.6-1,1.3-2,2-2.9c4.9-6.3,11.1-11.1,18-15c-4.2,5.1-8,10.5-11.3,16.2C408.8,539.3,408.2,540.4,407.6,541.4
	z M418.3,542.4c-0.7,1.8-1.9,3.2-3.7,3.9c-2,0.9-3.7-0.2-3.9-2.4c-0.1-1.6,0.4-3.2,1.1-4.6c0.6-1.2,1.3-2.3,2.1-3.4
	c4.6-6.7,9.4-13.2,14.3-19.8c0.8-1,1.6-2.1,2.9-2.8c0,1.2-0.6,2-1,2.7C426.1,524.8,421.9,533.4,418.3,542.4z M432,525.5
	c-1.2,5.7-2.9,11.2-5.2,16.5c-0.6,1.3-1.1,2.6-2.1,3.7c-1.1,1.1-2.2,1.4-3.1,0.9c-1.2-0.8-0.8-1.9-0.5-2.9c0.1-0.2,0.2-0.5,0.3-0.7
	c4-9.1,7.4-18.5,11.2-27.7c0.3-0.7,0.5-1.6,1.6-2.5C433.7,517.4,432.9,521.5,432,525.5z M494.9,460c0.2,0,0.3,0,0.5-0.1
	c0.8,0,1.5,0.2,1.8,1.1c0.3,0.9-0.4,1.2-1,1.5c-2.4,1.3-4.9,2.6-7.3,3.9c-0.3,0.2-0.6,0.2-0.9,0.3c-0.4,0.1-0.7-0.1-0.8-0.4
	c-0.2-0.3-0.2-0.7,0.1-0.9C489.5,463.4,491.7,461,494.9,460z M484.1,463.3c1.2-1.5,2.6-2.8,4-4c0.4-0.3,0.9-0.3,1.3,0.1
	c0.3,0.4,0.1,0.8-0.2,1.1c-1.5,1.3-3,2.6-4.5,3.9c-0.1,0.1-0.3,0.1-0.5,0.1c-0.3-0.1-0.4-0.2-0.4-0.5
	C483.9,463.8,484,463.5,484.1,463.3z M485.6,473.9c0.9,0.3,1.7,0.8,1.8,1.9c0.1,0.9-0.4,1.7-1.2,2c-2.6,1.1-5.2,2.1-7.8,3.2
	c-0.1-0.2-0.2-0.4-0.4-0.6c0.9-2.7,2.5-4.8,5.1-6.1C484,473.9,484.8,473.6,485.6,473.9z M478.1,463.5c0.3-1.3,2.7-3.2,4.2-3.2
	c0.5,0,0.8,0.2,0.8,0.7c-0.1,1.3-2.8,3.8-4.2,3.7C478.3,464.6,478,464.2,478.1,463.5z M479.9,469.2c0.8-0.5,1.5-0.7,2.3,0
	c0.8,0.8,0.7,1.7,0,2.5c-1.3,1.6-3.1,2.3-5.4,3C477.3,472.1,478,470.3,479.9,469.2z M474.4,467.1c1.1,0,1.8,0.6,1.7,1.7
	c-0.1,1.6-1.6,3.1-3.1,3c-1.1-0.1-1.9-0.8-1.9-1.9C471.1,468.4,472.7,467.1,474.4,467.1z M464.7,473.4c1.1-0.7,2.2-1.2,3.6-1
	c0.8,0.1,1.4,0.5,1.6,1.4c0.1,0.9-0.5,1.2-1.2,1.4c-3.6,1.3-7.1,2.9-10.5,4.8C459.9,477.2,462.1,475,464.7,473.4z M443.6,499.8
	c5.4-11.3,14-18.8,26.1-22.3c1.2-0.4,2.5-0.5,3.7-0.5c2.1,0.1,2.8,1.5,1.7,3.3c-0.7,1.1-1.5,2.2-2.5,3.2c-4.1,4.2-8.8,7.4-14,10
	c-4.9,2.5-10.1,4.5-15.2,7.5C443.5,500.3,443.5,500.1,443.6,499.8z M462.4,510.4c-5.6-0.8-11.1-2.4-16.5-4.1
	c6.2,0.4,12.3,0.4,18.5,0c0.9-0.1,1.8,0,2.7,0.4c1.1,0.5,1.2,1.1,0.3,1.8C465.9,509.7,464.3,510.7,462.4,510.4z M464,515.8
	c1.3,3,2.6,6.1,4.2,9c-0.8,0.6-1.3,0.2-1.8,0c-5.9-2.4-11.4-5.7-16.3-9.8c-1.7-1.4-3.3-2.8-5-4.2c-0.6-0.5-1.3-1-1.6-2.1
	c1.4-0.4,2.6,0.1,3.7,0.4c4.7,1.3,9.3,2.8,13.8,4.4C462.3,514,463.5,514.6,464,515.8z M454.3,546.5c-0.9,0.7-2.2,0.3-3.3-0.9
	c-0.8-0.9-1.3-1.9-1.8-3c-4.1-9.5-6.4-19.5-7.6-30.1c1,0.7,1.1,1.5,1.4,2.1c3.9,9.4,7.3,19.1,11.5,28.4c0.1,0.2,0.1,0.3,0.2,0.5
	C455,544.6,455.4,545.7,454.3,546.5z M463.7,546.2c-1.2,0.8-2.2,0.3-3.3-0.2c-1.2-0.7-2.2-1.6-2.7-2.9c-3.9-9.7-8.5-19.1-12.9-28.6
	c-0.1-0.3-0.3-0.6,0-0.9c1,0.2,1.5,1.1,2,1.8c5.5,7.3,11,14.6,16,22.2c1.1,1.7,1.9,3.5,2,5.6C464.9,544.3,464.8,545.5,463.7,546.2z
	 M474.6,543.7c-1.4,1.2-3,1.2-4.6-0.2c-1-0.8-1.7-1.8-2.4-2.9c-3.5-6.3-7.5-12.3-12.2-17.8c-0.1-0.1-0.1-0.3-0.5-1
	c7.9,4.7,14.5,10.1,19.5,17.2c0.1,0.2,0.3,0.4,0.4,0.6C475.9,541.5,475.8,542.7,474.6,543.7z M482.9,539.2c-0.6,0.8-1.4,1.1-2.4,1
	c-1.4,0-2.4-0.8-3.2-1.8c-2.5-3.6-5.4-6.8-8.4-10.1c4.3,1.2,8.3,2.8,11.7,5.6c0.8,0.7,1.7,1.4,2.2,2.4
	C483.5,537.3,483.6,538.3,482.9,539.2z M486.8,527.2c0.5,1,0.5,1.9-0.1,2.9c-0.5,0.8-1.4,1-2.2,0.8c-5-1.5-9.9-3-14.1-6.3
	c-0.8-0.6-1.4-1.4-1.5-2.7c5,1.5,10.1,1.8,14.9,3.4C485,525.5,486.2,526,486.8,527.2z M479.9,516.7c2.6,0.1,4.3,1.7,5.2,4.1
	c0.4,1.1,0,1.7-1.1,1.4c-4.8-1-9.7-2-14.5-3.1c-1.7-0.4-2.7-1.6-3.1-3.7C471,516.3,475.4,516.5,479.9,516.7z M479.1,514.2
	c-4.4,0.2-8.6-0.4-13.3-1.7c2.3-1.4,4.2-2.5,6.3-3.2c1.3-0.4,2.5,0.1,3.6,0.7C477.2,511,478.1,512,479.1,514.2z M492.8,501.4
	c-2.2,0.7-4.5,0.7-6.7,0.4c-6.4-0.9-12.7-0.7-19,0c-5.9,0.6-11.8,1.1-17.8,1.1c-0.8,0-1.7,0-2.8,0c0.5-1.2,1.2-1.4,1.9-1.7
	c8.4-3.9,16.9-7.4,26.1-8.6c5.7-0.8,11.4-0.9,17-0.1c3.3,0.5,4.5,1.7,4.6,4.3C496.2,499.2,495.1,500.7,492.8,501.4z M492.8,489.3
	c-1.4,0.1-2.8,0.1-4.3,0.1c-5.8,0-11.6,0-17.3,0.9c-0.4,0.1-0.8,0.2-1.5-0.4c4.4-3.5,9.1-6.3,14.2-8.1c2.1-0.8,4.3-1.4,6.5-1.8
	c0.8-0.1,1.7-0.2,2.5-0.1c2.6,0.4,4.5,2.3,4.4,4.4C497.3,486.8,495.2,489.1,492.8,489.3z M500.8,473.9c-0.4,1.8-2,2.9-4.6,2.8
	c0,0,0,0,0,0c-1.1-0.1-2.4-0.1-2.8-1.2c-0.5-1.2,0.9-1.8,1.7-2.4c1.2-0.9,2.6-1.5,4.2-1.4C500.5,471.8,501.1,472.6,500.8,473.9z
	 M501.2,468.3c-3.2,0.3-6.1,1.7-9.1,2.6c-0.3,0.1-0.7,0.1-0.9,0.1c-0.4,0-0.7,0-1.1-0.1c-0.5-0.1-1-0.2-1.2-0.8
	c-0.2-0.6,0.2-1,0.5-1.3c2-1.8,4.2-3,6.8-3.6c1.2-0.3,2.4-0.6,3.7-0.5c1.3,0.1,2,0.8,2.2,2C502.1,467.5,502,468.2,501.2,468.3z"/>
</svg>
