<?xml version="1.0" encoding="utf-8"?>
<!-- Generator: Adobe Illustrator 17.0.0, SVG Export Plug-In . SVG Version: 6.00 Build 0)  -->
<!DOCTYPE svg PUBLIC "-//W3C//DTD SVG 1.1//EN" "http://www.w3.org/Graphics/SVG/1.1/DTD/svg11.dtd" [
	<!ENTITY ns_extend "http://ns.adobe.com/Extensibility/1.0/">
	<!ENTITY ns_ai "http://ns.adobe.com/AdobeIllustrator/10.0/">
	<!ENTITY ns_graphs "http://ns.adobe.com/Graphs/1.0/">
	<!ENTITY ns_vars "http://ns.adobe.com/Variables/1.0/">
	<!ENTITY ns_imrep "http://ns.adobe.com/ImageReplacement/1.0/">
	<!ENTITY ns_sfw "http://ns.adobe.com/SaveForWeb/1.0/">
	<!ENTITY ns_custom "http://ns.adobe.com/GenericCustomNamespace/1.0/">
	<!ENTITY ns_adobe_xpath "http://ns.adobe.com/XPath/1.0/">
]>
<svg version="1.1" id="Layer_1" xmlns:x="&ns_extend;" xmlns:i="&ns_ai;" xmlns:graph="&ns_graphs;"
	 xmlns="http://www.w3.org/2000/svg" xmlns:xlink="http://www.w3.org/1999/xlink" x="0px" y="0px" width="864px" height="864px"
	 viewBox="0 0 864 864" enable-background="new 0 0 864 864" xml:space="preserve">
<metadata>
	<sfw  xmlns="&ns_sfw;">
		<slices></slices>
		<sliceSourceBounds  x="920" y="-811.846" width="792" height="759.692" bottomLeftOrigin="true"></sliceSourceBounds>
	</sfw>
</metadata>
<g>
	<path fill-rule="evenodd" clip-rule="evenodd" d="M525.615,136.087c-0.086-0.254-0.268-0.53-0.564-0.829
		c-0.84-0.846-2.704-1.298-3.776-1.777c-2.632-1.176-5.304-2.243-7.979-3.317c-6.789-2.724-15.582-6.596-19.527-8.556
		c-9.42-4.643-12.888-5.754-17.488-5.472c-3.98,0.204-9.872,2.049-12.951,4.042l-2.075,1.389l-6.861-2.024
		c-3.934-1.158-9.839-3.32-13.846-5.145c-7.387-3.281-15.079-5.438-22.885-7.446c-4.033-1.037-8.192-2.343-12.353-2.771
		c-1.539-0.158-2.784-0.427-2.76-0.66c0.066-0.182,1.845-0.989,4.049-1.799c5.337-1.95,11.494-4.993,16.04-7.966
		c3.682-2.355,3.78-2.392,7.4-2.303c9.264,0.197,18.002,0.011,22.491-0.565c14.208-1.69,24.358-12.018,34.878-20.688
		c1.928-1.589,3.918-3.205,5.555-5.104c2.539-2.946,1.873-4.147-1.924-4.091c-6.9,0.187-14.701,0.894-22.112,1.923
		c-18.074,2.527-28.625,5.684-34.865,10.463c-2.861,2.157-3.773,3.241-6.767,8.071c-1.87,3.06-3.696,5.7-4.051,5.946
		c-5.401,3.746-11.309,6.794-17.267,9.542c-6.459,2.979-12.818,5.407-19.993,5.74c-5.069,0.235-10.13,0.605-15.185,1.054
		c-1.743,0.155-3.568,0.209-5.281,0.592c-2.511,0.59-2.431,0.269,0.407-2.126c3.507-2.939,8.26-4.713,16.661-6.206
		c8.307-1.503,13.313-3.44,17.717-6.852c3.833-2.905,5.986-5.512,9.374-11.432c4.129-7.163,7.182-11.657,10.449-15.469
		c1.225-1.432,3.14-3.078,3.953-4.817c2.432-5.203-6.413-0.781-7.826-0.153c-7.996,3.514-12.899,5.367-19.117,7.179
		c-7.969,2.339-9.533,2.885-12.317,4.296c-7.759,3.963-14.902,12.938-19.092,23.912c-0.831,2.13-1.705,4.208-1.971,4.51
		c-2.298,2.606-5.765,4.584-8.526,6.676c-9.542,7.231-19.034,15.713-29.814,21.103c-9.998,5.249-21.111,8.982-32.074,11.74
		c-2.661,0.669-5.326,1.385-5.91,1.561c-0.63,0.171-1.111,0.263-1.096,0.123c0.01-0.093,1.133-1.392,2.559-2.895
		c1.38-1.508,4.395-5.628,6.691-9.163c0,0,4.141-6.44,4.15-6.454c0.417-0.648,5.249-0.923,6.209-1.206
		c2.132-0.631,4.203-1.597,5.807-3.173c3.215-3.159,5.347-7.618,8.415-11.006c5.601-6.352,7.479-9.034,9.23-13.237
		c1.315-3.164,1.382-3.817,1.779-10.892c0.424-8.722,1.385-18.991,2.262-24.321c0.254-1.53,1.381-4.069-1.171-3.868
		c-1.656,0.131-2.966,2.464-3.843,3.589c-8.028,10.25-22.397,29.935-26.388,36.217c-5.678,8.937-7.622,17.314-5.474,23.473
		l0.625,1.714c0,0-3.261,5.171-3.265,5.179c-3.841,6.091-8.623,14.434-15.395,17.741c-1.882,0.891-16.922,4.624-17.215,4.264
		c-0.079-0.15,0.708-1.388,1.747-2.79c1.039-1.401,2.356-3.67,2.924-5.072c1.01-2.488,1.538-3.047,8.96-10.155
		c3.863-3.656,7.241-9.012,8.709-13.669c1.527-4.896,1.149-10.116,1.312-15.174c0.144-4.468,0.365-8.952,0.822-13.4
		c0.493-4.804,0.551-7.201,0.216-7.612c-1.046-1.286-2.181-0.79-4.18,1.691c-1.086,1.397-4.872,6.145-8.486,10.581
		c-10.32,12.843-12.837,17.155-15.067,26.022c-1.82,7.165-1.607,9.685,1.359,15.22c2.567,4.835,2.567,4.835-0.904,10.181
		c-3.738,5.648-4.724,6.537-10.081,8.673c-10.675,4.37-17.465,8.527-32.044,19.707c-3.375,2.575-6.221,4.592-6.3,4.443
		c-0.13-0.108,0.484-1.505,1.3-3.024c1.973-3.615,2.51-5.162,4.395-12.509c1.48-5.692,1.785-6.367,4.858-11.047
		c3.906-5.914,11.006-21.35,12.002-26.007c1.13-5.492-0.062-9.95-5.047-19.228c-6.02-11.128-8.351-18.719-9.595-31.383
		c-0.159-1.666-1.687-2.388-2.926-1.337c-1.038,0.93-5.706,10.583-8.134,16.79c-1.226,3.219-1.872,5.839-2.533,10.435
		c-0.637,4.431-0.857,8.698-0.116,13.13c0.939,5.617,1.898,10.539,0.779,16.207c-1.527,7.525-1.481,11.206,0.205,15.903
		c1.426,4.011,3.83,8.594,5.588,10.753l1.469,1.753c0,0-0.865,4.293-0.865,4.294c-2.216,10.999-7.974,20.7-17.704,26.458
		c-7.125,4.217-20.029,15.144-23.433,19.837c-11.251,15.48-19.877,26.047-27.692,33.774c-7.928,7.904-15.236,15.731-19.817,21.34
		c-3.501,4.259-12.842,19.04-15.633,24.645c-3.213,6.504-5.956,17.155-7.06,26.986c-0.751,6.851-0.709,6.902-2.582-4.224
		c-1.538-9.348-2.187-17.709-1.832-24.836c0.619-13.368,3.289-22.849,9.164-32.331c2.151-3.502,2.249-3.539,4.339-3.702
		c6.126-0.455,8.488-0.966,11.085-2.396c4.041-2.177,6.975-5.505,12.788-14.38c6.038-9.229,7.773-10.983,16.507-16.637
		c7.369-4.757,9-5.956,11.181-8.371c2.812-3.057,4.187-6.356,6.037-14.272c2.034-8.792,2.594-10.573,5.465-18.337
		c2.608-7.037,2.798-8.431,1.092-8.795c-0.97-0.194-1.685,0.345-4.604,3.533c-8.824,9.745-21.238,20.487-28.559,24.778
		c-1.906,1.124-5.793,3.175-8.722,4.618c-11.752,5.674-14.457,7.234-18.417,10.456c-6.227,5.11-9.189,10.084-11.143,18.555
		c-1.128,5.021-1.084,11.011,0.091,16.551l0.844,3.715l-2.333,3.908c-4.508,7.643-7.051,14.969-8.613,25.13
		c-1.533,9.881-0.823,19.945,2.725,38.17c2.424,12.644,2.976,19.204,2.243,26.339l-0.415,3.586c0,0-0.971-3.399-0.971-3.399
		c-2.866-10.035-6.052-20.882-12.446-29.319l-2.068-2.805l0.158-6.582c0.279-11.895-1.63-16.709-10.027-25.348
		c-4.094-4.191-5.464-6.452-8.69-14.041c-4.2-10.045-5.714-12.274-14.069-20.862c-2.089-2.147-4.646-5.237-5.659-6.849
		c-3.646-5.794-3.688-5.846-5.008-5.84c-1.227,0.015-1.232,0.062-1.563,3.751c-0.328,4.114,0.179,13.403,1.094,18.257
		c0.294,1.727,1.359,6.502,2.397,10.615c1.872,7.648,2.7,15.487,3.123,23.336c0.307,5.696,0.455,11.594,2.621,16.954
		c0.978,2.42,2.403,4.599,3.996,6.659c3.119,4.043,6.471,6.744,10.743,8.738c5.628,2.557,13.139,2.386,17.998-0.414l2.205-1.282
		l0.897,1.365c1.561,2.234,3.8,7.507,7.273,17.289c3.625,10.128,4.331,13.358,4.884,22.652c0.322,5.123,0.2,7.231-0.57,12.43
		c-1.429,9.326-2.201,11.792-7.104,22.363c-5.762,12.51-6.373,14.332-7.092,21.327c-0.838,8.161-0.231,13.266,3.118,25.628
		c1.928,7.135,4.367,14.468,5.203,21.836c0.773,6.813-0.419,13.762-0.419,20.599l-0.054,2.822l-1.069-1.524
		c-1.724-2.486-4.251-10.003-5.017-14.936c-0.399-2.539-1.088-8.218-1.529-12.646c-0.897-8.245-2.009-14.392-3.195-17.53
		c-0.904-2.214-3.104-4.655-6.024-6.509l-2.207-1.452l0.547-2.112c0.358-1.189,0.817-3.828,1.028-5.88
		c0.396-3.4,0.286-4.165-1.074-8.358c-2.545-7.802-2.573-9.36-0.772-25.057c0.477-4.154,1.534-8.307,1.241-12.512
		c-0.309-4.441-2.661-8.07-5.272-11.56c-4.55-6.17-5.818-8.515-9.597-18.517c-1.746-4.562-3.504-8.56-3.895-8.883
		c-0.568-0.435-1.034-0.483-1.632-0.168c-1.093,0.547-1.574,2.478-3.562,14.951c-0.821,5.241-2.415,13.419-3.524,18.253
		c-4.487,18.909-4.804,20.62-5.032,25.592c-0.399,8.018,1.217,15.677,4.51,21.246c2.28,3.957,8.252,8.671,15.291,12.174
		c5.11,2.551,11.95,7.542,13.022,9.491c1.393,2.499,2.377,7.596,3.719,18.856c2.021,17.032,3.079,20.958,7.393,28.046
		c6.293,10.307,13.926,27.303,15.887,35.281c1.255,5.219,5.576,16.832,7.563,20.429c1.156,2.051,3.053,4.225,6.241,7.145
		c2.499,2.283,4.9,4.603,5.271,5.113c0.367,0.556,1.099,2.611,1.555,4.59c2.16,9.365,8.653,20.021,15.139,27.428
		c3.371,3.88,4.895,4.65,6,3.067c1.453-2.081-2.332-6.178-3.362-7.753c-5.898-9.009-9.061-18.836-11.456-29.209
		c-3.099-13.42-3.388-15.193-3.014-18.831l0.335-3.265l3.866-3.232c6.91-5.794,8.414-9.881,6.283-17.121
		c-1.609-5.466,0.531-10.431,0.833-15.869c0.227-4.079-1.264-7.661-3.288-11.129c-1.937-3.318-4.132-6.472-6.32-9.627
		c-8.285-12.02-8.99-12.045-10.335-0.779c-1.259,10.427-4.67,34.913-5.346,38.284c-0.837,4.014-0.227,6.339,2.664,10.312
		c1.357,1.93,3.374,4.776,4.433,6.393l2.007,2.94l-0.465,4.524c-0.207,2.477-0.277,5.91-0.076,7.627
		c0.154,1.712,0.192,3.177,0.089,3.261c-0.108,0.13-1.257-1.072-2.559-2.619c-5.161-6.185-12.38-24.458-15.897-40.23
		c-1.355-6.077-2.508-16.422-2.187-19.547c0.675-6.576,8.508-19.061,14.884-23.779c1.477-1.074,3.243-2.212,3.981-2.513
		c1.228-0.487,1.358-0.379,3.647,2.118c3.182,3.437,8.22,6.688,11.409,7.298c1.991,0.346,3.227,0.237,6.967-0.84
		c6.839-1.89,8.783-1.548,19.183,3.195c7.921,3.641,8.326,3.824,13.083,4.313c4.519,0.511,5.135,0.48,8.072-0.585
		c1.76-0.62,5.348-2.514,7.979-4.27c2.626-1.71,6.611-3.798,8.815-4.609c6.71-2.468,16.374-3.408,26.989-2.601
		c4.673,0.386,5.718,0.305,6.252-0.301c1.067-1.21,0.439-1.981-4.254-5.385c-11.63-8.358-18.136-10.628-39.749-14.026
		c-5.246-0.774-11.754-2.103-14.546-2.908c-11.075-3.211-13.057-3.65-18.559-4.216c-6.436-0.661-10.989-0.375-16.895,1.14
		c-10.162,2.585-17.59,8.373-19.068,14.96c-0.534,2.443-0.641,2.573-3.322,3.9c-3.779,1.921-10.019,6.7-11.724,9.07
		c-0.819,1.094-2.329,3.861-3.413,6.153c-1.881,4.095-1.933,4.137-2.04,2.43c-0.044-0.947,0.032-3.06,0.199-4.692
		c0.436-4.244-0.158-9.018-2.261-17.905c-1.766-7.58-1.821-7.963-1.31-12.482c0.636-5.731,2.229-10.233,5.372-15.142l2.3-3.581
		l2.529,1.532c1.602,0.919,3.643,1.694,5.453,1.974c4.402,0.735,6.232-0.114,10.99-5.139c4.341-4.644,7.183-6.614,14.913-10.297
		c9.22-4.426,13.078-8.035,16.588-15.592c3.144-6.746,6.866-22.34,5.718-24.013c-0.902-1.318-2.157-1.023-3.767,0.886
		c-4.769,5.59-13.66,10.944-25.974,15.665c-4.861,1.904-9.83,3.939-11.077,4.612c-7.886,4.28-14.385,13.415-15.827,22.41
		c-0.626,3.8-0.875,4.387-3.122,7.455c-2.538,3.604-5.963,10.793-6.202,13.124c-0.254,2.472-0.899,1.416-1.779-2.869
		c-0.488-2.595-0.809-6.351-0.766-9.975c0.127-9.035,0.791-11.371,8.532-28.013c7.315-15.696,13.618-22.919,25.268-28.98
		c6.872-3.583,11.219-5.069,21.31-7.425c4.971-1.139,10.096-2.403,11.315-2.797c1.219-0.393,5.746-1.342,10.11-2.072
		c8.83-1.544,9.843-1.77,16.454-3.73c5.196-1.493,10.871-2.607,17.409-3.396c1.807-0.211,3.577-0.733,5.216,0.285
		c3.407,2.117,4.586,7.227,7.44,10.016c1.67,1.632,4.174,2.031,8.025,1.248c4.569-0.897,7.171-0.536,11.942,1.651
		c6.527,2.98,11.337,2.955,16.784-0.067c1.196-0.631,4.738-3.001,7.79-5.185c9.399-6.622,17.115-10.166,28.074-12.716
		c5.214-1.208,6.648-1.862,6.763-2.981c0.125-1.213-1.217-1.916-5.674-3.033c-13.514-3.32-26.209-4.53-36.461-3.368
		c-3.336,0.364-7.385,0.325-14.684-0.189c-7.257-0.463-10.788-0.495-12.711-0.127c-4.859,0.962-8.792,3.009-13.785,7.114
		c-3.24,2.636-5.114,3.905-5.813,3.833c-2.192-0.225-11.287,1.15-15.699,2.346c-10.569,2.873-15.064,3.967-20.053,4.821
		c-2.88,0.505-9.475,1.855-14.59,3.026c-5.111,1.125-9.54,2.036-9.867,2.003c-0.28-0.029,0.212-0.685,1.091-1.443
		c0.874-0.711,3.377-3.517,5.577-6.119c2.204-2.648,5.583-6.637,7.511-8.89c6.857-8.102,11.258-17.993,20.83-23.403
		c6.055-3.431,9.066-7.976,9.025-13.541c-0.014-1.698,0.27-6.759,0.637-11.245c0.722-8.409,0.586-11.675-0.599-14.813
		c-0.862-2.162-0.842-2.82,0.045-2.729c1.352,0.139,23.31-8.54,28.444-11.264l5.428-2.836l6.542,1.002
		c11.601,1.757,15.593,0.518,22.555-7.156c1.75-1.894,4.321-3.986,6.788-5.524c7.789-4.714,10.481-8.443,13.765-18.851
		c2.841-8.851,3.939-11.283,9.309-19.969c1.293-2.092,3.245-4.213,3.888-6.631c1.306-4.91-4.474-0.851-6.012,0.239
		c-10.67,7.529-18.842,12.297-30.99,18.166c-8.875,4.273-11.552,6.024-14.758,9.701c-3.247,3.625-5.404,7.645-8.106,15.144
		c-2.105,5.816-3.605,8.49-5.958,10.746c-1.721,1.614-20.548,10.096-28.266,12.743c-5.421,1.847-5.239,1.912-7.989-2.517
		c-2.555-4.033-5.53-9.475-6.629-12.086c-0.454-1.083-0.971-1.561-1.857-1.652c-1.492-0.153-1.961,0.741-2.813,5.366
		c-0.383,1.893-1.357,6.788-2.24,10.798l-1.559,7.38l-6.541,7.246c-3.565,3.97-9.006,9.679-12.097,12.707
		c-7.128,6.997-11.7,12.512-17.325,20.936c-4.974,7.595-14.689,26.014-19.547,37.061c-1.671,3.881-3.084,7.082-3.187,7.166
		c-0.458,0.33-0.215-5.253,0.4-11.694c1.375-13.384,3.222-18.52,12.075-34.058l3.445-6.008l4.268-1.635
		c5.94-2.312,11.751-7.04,16.723-13.693c1.971-2.672,4.956-6.042,6.574-7.572c7.692-6.986,10.012-10.754,13.287-21.539
		c1.163-3.981,2.711-8.959,3.449-11.098c1.317-4.106,1.274-5.524-0.311-5.687c-0.513-0.053-2.425,1.589-5.012,4.292
		c-5.717,6.105-13.159,12.033-21.556,17.156c-8.195,5.002-11.884,7.875-14.444,11.241c-4.747,6.299-7.422,15.827-6.58,23.689
		l0.346,3.052l-3.799,5.784c-2.07,3.181-4.475,7.316-5.324,9.161l-1.567,3.327l0.999-7.438c1.998-14.404,4.771-22.131,12.488-34.864
		c5.955-9.804,8.188-12.732,18.013-23.505c11.252-12.276,24.115-23.726,30.553-27.212c7.778-4.15,15.817-8.084,16.423-8.021
		c0.373,0.038,1.757,0.793,3.079,1.683c5.113,3.447,10.263,3.316,20.312-0.459c3.525-1.287,8.792-3.009,11.695-3.747
		c7.504-1.962,10.765-3.418,14.312-6.304c3.093-2.516,5.661-5.853,8.287-8.828c3.188-3.611,6.502-7.29,9.31-11.206
		c4.133-5.763-2.79-3.327-5.793-2.179c-10.152,3.859-15.893,5.154-28.319,6.376c-9.379,0.922-14.481,2.424-20.308,5.926
		c-4.873,2.94-11.137,9.318-13.317,13.572c-0.713,1.435-1.769,2.081-7.958,4.979c-3.909,1.813-7.169,3.27-7.206,3.171
		c-0.084-0.103,0.731-1.15,1.839-2.309c1.114-1.205,3.557-4.347,5.43-6.983c7.038-9.787,13.949-16.052,27.328-24.716
		c4.743-3.047,11.458-7.4,14.944-9.681c3.481-2.234,9.1-6.464,12.467-9.418c10.247-8.828,25.193-15.834,38.803-16.868
		c3.18-0.242,6.417,0.32,9.319,1.688c4.989,2.312,6.897,6.923,7.565,12.134c1.294,9.888,2.552,13.694,5.771,17.229
		c2.284,2.544,4.967,3.95,11.17,5.954c1.868,0.616,5.735,1.955,8.55,2.998c1.623,0.601,3.683,1.738,5.453,1.565
		c3.338-0.326,0.392-4.115-0.635-5.783c-1.286-2.159-3.453-6.764-4.791-10.247c-1.334-3.53-3.301-7.785-4.35-9.495
		c-2.48-4.115-5.976-7.635-10.153-10.022c-4.341-2.481-9.427-2.79-13.657-5.477c-1.686-1.021-4.239-2.32-5.6-2.837
		c-1.454-0.526-2.209-0.981-1.77-1.124c8.833-2.486,16.117-1.832,22.694,2.048c4.979,2.915,9.684,7.121,17.637,15.95
		c0,0,5.075,5.612,5.121,5.662c0.799,0.883,0.729,4.46,0.94,5.619c1.145,6.298,3.229,11.1,8.499,14.909
		c1.797,1.316,4.388,4.079,7.187,7.572c6.718,8.466,9.318,9.77,23.568,11.893c9.004,1.349,13.829,2.551,18.199,4.508
		c1.174,0.498,2.824,0.95,3.673,0.943c2.542,0.025,2.183-1.52-2.385-9.812c-9.679-17.724-14.257-22.247-27.823-27.364
		c-4.809-1.813-7.497-3.173-12.447-6.368c-5.757-3.715-11.242-4.548-17.843-5.226l-1.605-1.814
		c-3.381-3.788-10.727-11.187-13.622-13.747c-4.97-4.375-8.752-6.554-15.123-8.764c-1.179-0.451-0.157-0.77,7.569-2.569
		c5.842-1.303,11.53-4.043,17.617-2.668c3.823,0.864,10.903,4.89,10.778,6.103c-0.105,1.026,2.791,6.319,5.157,9.437
		c3.9,5.16,11.322,10.447,17.921,12.727c4.684,1.659,10.836,1.867,17.468,0.616c7.446-1.402,16.894-3.494,18.468-4.088
		c2.371-0.895,1.484-3.324-0.113-4.395c-2.566-1.63-8.638-3.998-17.498-6.746c-8.809-2.79-9.173-2.921-15.676-6.134
		c-8.344-4.109-14.101-5.407-20.033-4.555l-2.963,0.403l-3.94-2.478l-3.888-2.52l1.904-0.182c1.05-0.128,5.173,0.107,9.137,0.514
		c5.783,0.594,8.739,1.18,14.785,2.885c11.639,3.222,15.749,3.126,24.11-0.728c2.027-0.923,5.166-2.58,6.974-3.667
		c0.916-0.55,2.269-1.16,2.901-2.075c2.348-3.458-2.27-2.893-4.492-3.084c-2.803-0.241-7.691-0.366-10.808-0.309
		c-6.62,0.215-11.475-0.236-16.44-1.453c-4.368-1.061-11.302-1.915-13.775-1.698l-1.857,0.186l3.491-2.328
		c1.879-1.315,5.529-3.815,8.062-5.534c7.305-5.046,11.707-6.15,18.481-4.653c6.676,1.534,10.795,3.182,16.151,6.56
		c11.247,7.046,16.982,13.149,23.788,25.347c4.787,8.456,9.31,14.435,13.206,17.333c3.026,2.196,8.598,4.842,13.623,6.395
		c3.618,1.107,7.317,1.977,11.015,2.768c1.946,0.416,3.813,1.165,5.822,1.274c2.202,0.12,4.196-1.461,1.601-3.233
		c-5.769-3.939-10.211-8.872-15.865-17.606c-5.816-8.986-7.267-10.926-9.878-13.032c-2.919-2.326-4.088-2.87-10.2-4.394
		c-2.387-0.622-7.024-2.277-10.225-3.689c-5.004-2.21-6.648-3.181-10.865-6.63c-2.742-2.214-7.086-5.346-9.647-7.023
		c-3.977-2.576-6.031-3.683-11.822-6.493c-1.528-0.723,2.255-0.852,8.281-0.328c12.093,1.101,26.323,7.086,44.728,18.779
		l5.085,3.256l1.663,4.459c1.547,4.212,1.997,4.871,7.973,11.847c7.283,8.477,9.157,10.413,12.798,13.049
		c3.818,2.749,7.493,4.587,15.243,7.598c3.761,1.47,11.137,4.443,16.428,6.636c3.737,1.55,13.924,7.848,10.53-1.134
		c-3.446-9.12-8.117-15.49-16.254-22.076c-20.188-16.353-25.407-20.141-30.309-21.964c-3.132-1.17-9.791-1.948-13.925-1.619
		l-2.897,0.221l-9.733-6.184c-10.175-6.465-19.655-11.444-25.886-13.639c-6.911-2.454-6.781-2.346-3.194-2.402
		c1.791-0.005,7.252,0.509,12.135,1.152c11.998,1.562,20.571,3.904,34.486,9.292c5.979,2.358,13.612,5.121,16.94,6.217
		c3.333,1.049,6.366,2.256,6.748,2.672c0.386,0.37,2.554,2.666,4.759,5.06c7.298,7.866,8.365,8.494,18.233,11.063
		c11.01,2.922,13.796,2.878,25.144-0.245c3.786-1.072,8.724-2.355,10.998-2.923C522.037,138.624,526.229,137.896,525.615,136.087z
		 M431.356,80.465c4.838-7.185,14.121-10.85,35.327-14.045c7.849-1.173,19.183-2.318,21.576-2.214
		c0.564,0.011-1.438,2.067-5.735,5.82c-12.742,11.18-16.621,14.081-20.684,15.549c-4.165,1.552-9.154,2.406-15.784,2.715
		c-5.118,0.275-15.199,0.23-15.403-0.074c-0.13-0.108,1.711-1.521,4.048-3.166c3.963-2.798,8.797-4.893,17.808-7.738
		c1.9-0.606,2.618-2.087,1.318-2.739c-1.346-0.657-15.474,3.83-20.608,6.555l-3.649,2.029L431.356,80.465z M373.292,84.162
		c6.502-10.344,16.604-14.035,27.669-17.621c3.278-1.062,6.554-2.171,9.748-3.467c3.246-1.316,5.987-2.307,6.07-2.204
		c0.084,0.103-0.586,1.118-1.457,2.254c-2.935,3.799-4.382,5.959-7.438,11.395c-7.012,12.287-11.699,15.717-24.814,18.14
		c-3.203,0.609-5.972,1.075-6.185,1.061c0.245,0.016,2.472-2.601,2.678-2.818c1.696-1.781,3.282-3.662,5.084-5.339
		c2.661-2.507,3.183-3.915,1.457-4.092c-0.42-0.043-2.789,1.457-5.196,3.331c-6.147,4.788-11.779,8.687-12.076,8.374
		C368.543,92.77,370.982,87.837,373.292,84.162z M298.913,107.674c0.311-3.031,1.744-6.89,4.116-11.171
		c1.898-3.34,15.44-22.308,22.303-31.311l3.642-4.716l-0.357,6.231c-0.163,3.424-0.506,9.515-0.727,13.498
		c-0.368,6.796-0.482,7.444-1.753,10.188c-1.652,3.695-3.019,5.534-8.849,12.287c-2.569,2.988-5.457,6.791-6.382,8.442
		c-1.807,3.058-4.713,4.245-8.092,4.916c-1.008,0.179-1.096,0.123-0.693-0.59c1.636-3.084,4.237-9.132,5.342-12.553
		c1.227-3.691,1.275-4.158,0.69-4.878c-1.046-1.286-2.182-0.318-3.203,2.734c-1.166,3.556-5.23,12.376-5.65,12.333
		C298.787,113.034,298.626,110.473,298.913,107.674z M260.805,125.392c-2.301-6.482,1.288-14.431,4.496-19.984
		c3.244-5.616,7.507-10.66,11.563-15.691c0.002-0.002,5.509-6.833,5.509-6.833l-0.285,3.694c-0.164,2.057-0.329,7.789-0.417,12.776
		c-0.145,10.589-0.655,12.799-4.051,18.341c-2.033,3.279-7.559,9.356-8.445,9.265c-0.56-0.057,1.371-6.928,4.408-15.384
		c0.802-2.268,2.17-4.624,2.382-7.062c0.29-3.337-1.777-1.69-3.088-0.152c-3.722,4.369-5.126,10.159-6.655,15.556
		c-1.479,5.221-2.778,9.612-2.834,9.7C263.074,129.914,261.5,127.349,260.805,125.392z M212.5,148.33
		c-1.608-2.239-4.005-7.81-4.742-11.185c-0.747-3.281-0.675-3.981,1.404-15.502c0.625-3.329,0.594-3.945-0.697-9.733
		c-1.263-5.597-1.34-6.688-1.022-12.075c0.476-6.926,1.48-10.734,5.267-19.158l2.506-5.586c0,0,1.246,5.724,1.249,5.736
		c0.759,3.488,1.759,6.828,2.971,10.084c1.387,3.726,3.052,7.342,4.954,10.947c2.374,4.499,4.875,9.259,5.092,14.447
		c0.226,5.386-2.174,10.092-4.378,14.845c-3.941,8.549-6.45,13.24-7.102,13.173c-0.373-0.038,2.775-24.73,3.549-27.675
		c0.359-1.365,0.54-5.676-2.101-4.33c-0.992,0.506-1.947,3.376-2.255,4.342c-1.482,4.655-2.063,9.842-2.506,14.691
		c-0.154,1.692-0.303,3.393-0.402,5.089c-0.19,3.266-0.017,6.561-0.395,9.818l-0.406,3.493L212.5,148.33z M104.531,230.459
		c0.329-5.951,1.67-10.291,4.659-15.074c3.996-6.329,8.633-9.717,21.361-15.715c12.672-5.909,22.43-12.824,33.127-23.366
		c2.732-2.736,5.028-4.903,5.07-4.852c0.042,0.051-0.508,1.739-1.232,3.738c-0.724,1.999-2.034,6.954-3.015,11.001
		c-2.025,8.699-2.97,11.477-4.833,14.019c-1.751,2.365-6.01,5.745-12.411,9.8c-8.112,5.105-10.689,7.715-16.394,16.46
		c-5.265,8.131-8.33,11.822-11.097,13.517c-2.215,1.375-6.855,2.501-8.654,2.127l-1.338-0.279l3.163-3.728
		c1.717-2.039,4.221-4.845,5.545-6.264c5.023-5.327,19.709-23.557,22.571-27.981c0.527-0.814,2.023-3.005,1.051-3.859
		c-1.677-1.473-4.436,3.226-5.08,4.102c-4.326,5.871-11.748,14.817-20.428,24.529c-4.103,4.621-8.216,9.336-9.087,10.471
		c-0.922,1.178-1.769,2.081-1.909,2.066C104.899,241.101,104.277,234.769,104.531,230.459z M78.394,298.655
		c-0.12,4.842-0.032,4.898-4.739-2.042c-6.426-9.473-16.789-27.88-19.181-33.973c-0.434-1.103-1.278-4.271-3.231-3.47
		c-1.529,0.627-0.384,2.861-0.043,3.925c1.623,5.067,3.511,10.043,5.902,14.805c3.712,7.45,11.265,19.254,17.75,27.696
		c1.91,2.505,3.374,4.777,3.252,5.047c-0.371,0.857-3.439,2.286-5.936,2.736c-11.052,2.069-23.298-8.095-25.218-21.064
		c-0.257-1.629-0.626-6.756-0.809-11.394c-0.402-10.315-0.859-13.661-3.365-23.674c-2.211-8.757-2.716-11.637-3.11-17.898
		c-0.442-5.795-0.386-5.883,1.255-3.5c0.827,1.122,3.655,4.334,6.297,7.056c6.266,6.44,8.2,9.184,10.828,15.25
		c5.317,12.469,5.517,12.82,13.401,21.406C76.703,285.285,78.579,290.426,78.394,298.655z M65.143,423.077l-0.807,1.896l-1.81-1.647
		c-4.83-4.36-10.131-18.804-11.104-30.449c-0.132-1.583-0.727-3.167-2.533-2.581c-1.838,0.596-1.624,2.598-1.632,4.128
		c-0.039,7.725,1.353,15.738,4.017,22.374c0.751,1.868,1.418,3.633,1.487,3.876c0.287,0.878-5.495-3.392-7.356-5.468
		c-3.474-3.797-5.889-11.491-6.139-19.152c-0.155-4.917,0.662-10.112,3.378-20.955c2.164-8.685,4.353-19.441,5.776-28.249
		c0.451-3.017,0.933-5.418,0.971-5.32c0.084,0.103,1.089,2.704,2.326,5.8c2.793,7.215,4.623,10.513,9.01,16.43
		c5.21,7.086,5.335,7.711,3.628,19.742c-2.253,15.509-2.178,18.91,0.471,27.995C66.483,417.371,66.58,419.643,65.143,423.077z
		 M112.332,517.466c-3.435-4.641-4.004-6.444-3.196-10.178c0.284-1.385,1.285-7.927,2.203-14.572
		c0.918-6.645,2.126-15.192,2.747-18.946l1.04-6.915c0,0,1.376,1.743,1.376,1.744c1.792,2.271,3.72,4.74,5.477,7.324
		c1.897,2.789,3.595,5.711,4.71,8.662c1.038,2.746,1.033,2.792,0.128,11.607c-0.9,8.767-0.915,8.907,0.147,11.42
		c1.84,4.572,0.486,8.58-4.194,12.388l-2.366,1.925l0.488-7.962c0.476-6.926,0.402-8.96-0.494-15.838
		c-0.886-6.972-1.122-7.891-1.993-8.122c-1.743-0.462-2.12,0.913-1.686,5.859c0.553,6.089,0.188,18.823-0.63,22.651l-0.647,3.091
		L112.332,517.466z M117.476,443.062c3.679-4.618,11.716-8.081,21.637-9.23c4.769-0.547,15.084,0.889,22.527,3.209
		c6.255,1.962,11.286,2.997,24.962,5.203c13.214,2.111,20.135,4.472,27.964,9.47l3.316,2.131l-2.122,0.018
		c-18.543,0.216-24.527,1.581-34.018,7.722c-7.07,4.599-9.363,5.354-14.395,4.79c-3.539-0.411-4.723-0.815-11.153-3.832
		c-7.822-3.678-12.432-5.141-15.744-5.01c-1.185,0.067-4.069,0.619-6.446,1.27c-2.329,0.656-4.733,1.116-5.293,1.059
		c-2.099-0.216-10.926-6.495-10.802-7.707c0.096-0.933,5.886-1.328,15.467-1.004c10.145,0.335,17.064-0.038,22.688-1.11
		c2.502-0.497,2.899-0.692,3.004-1.718c0.163-1.586-1.138-1.766-6.692-0.923c-5.414,0.858-11.119,0.884-21.505,0.148
		c-4.118-0.282-9.198-0.379-11.293-0.17c-2.09,0.162-3.989,0.297-4.222,0.273C114.702,447.584,115.795,445.198,117.476,443.062z
		 M98.474,405.529c2.469-7.522,7.451-14.268,12.931-17.617c1.458-0.887,6.287-2.936,10.746-4.599
		c4.459-1.663,9.881-3.981,12.068-5.076c4.578-2.358,13.279-8.156,13.454-8.939c0.08-0.322,0.196-0.074,0.227,0.542
		c0.078,0.621-0.48,3.297-1.182,6.005c-2.554,9.729-6.402,16.45-11.277,19.861c-1.215,0.818-5.008,2.879-8.334,4.517
		c-7.296,3.586-10.904,6.138-14.792,10.498c-3.35,3.709-4.803,4.549-7.554,4.267c-2.192-0.225-6.357-2.349-6.266-3.236
		c0.115-1.119,6.752-6.093,11.083-8.334c2.434-1.211,5.521-2.826,6.965-3.573c6.876-3.629,18.153-12.934,18.074-14.921
		c-0.031-0.616-0.403-1.125-0.999-1.281c-0.737-0.17-2.101,0.727-5.323,3.648c-5.396,4.818-11.266,8.74-17.614,11.811
		c-2.676,1.28-6.634,3.56-8.765,5.038C98.317,406.597,98.07,406.712,98.474,405.529z M204.691,336.321
		c1.199-0.207,4.652-0.323,7.618-0.301c11.718,0.167,15.543,0.088,21.114-0.471c6.663-0.635,16.329-2.517,17.404-3.349
		c1.487-1.167-0.57-1.331-6.828-0.513c-8.978,1.151-16.089,1.552-24.079,1.344c-6.484-0.195-13.678,0.103-15.755,0.597
		c-1.405,0.374,1.475-1.969,4.979-3.966c5.709-3.278,8.052-3.603,19.889-2.764c7.817,0.52,11.441,0.562,15.067,0.134
		c4.335-0.45,10.521-0.569,15.623-0.233c1.026,0.105,5.204,0.723,9.279,1.424c4.029,0.697,7.488,1.429,7.655,1.635
		c0.214,0.21-1.897,1.03-4.665,1.83c-8.557,2.561-15.826,6.339-24.997,13.032c-8.306,6.075-12.044,6.68-19.648,3.166
		c-4.682-2.13-8.362-2.555-13.878-1.614c-2.45,0.455-3.439,0.448-4.007,0.012c-0.391-0.323-2.134-2.623-3.858-5.109l-3.118-4.515
		L204.691,336.321z M220.49,237.562c3.11-8.258,6.165-13.222,10.176-16.486c1.851-1.507,6.154-3.939,11.568-6.635
		c9.921-4.825,16.116-8.242,22.934-12.678c2.626-1.71,4.841-3.085,4.888-3.08c0.093,0.01-0.764,1.477-1.795,3.256
		c-2.793,4.709-4.713,9.177-6.806,15.796c-3.298,10.548-5.125,13.188-12.643,18.024c-3.033,1.998-6.011,4.378-7.714,6.277
		c-3.658,3.96-5.243,5.164-8.119,6.094c-2.685,0.903-7.629,0.866-11.023-0.048l-2.34-0.617l6.309-4.065
		c6.962-4.469,21.114-16.07,21.258-17.473c0.378-3.718-7.903,3.318-8.29,3.63c-5.493,4.384-20.477,14.91-20.723,14.555
		C218.126,244.059,219.184,241.104,220.49,237.562z M166.726,252.164c0.163-1.586,0.84-1.752,1.452-0.369
		c0.18,0.537,1.945,3.546,3.933,6.672c4.115,6.738,4.236,6.939,5.454,10.221c1.102,3.035,1.251,8.47,0.356,13.515
		c-0.402,2.079-0.58,5.643-0.526,8.335c0.102,3.592-0.004,5.089-0.563,6.399c-1.061,2.53-4.953,6.466-7.213,7.365
		c-1.032,0.412-1.961,0.741-1.961,0.741c-0.233-0.024,0.771-5.67,1.705-9.722c1.128-5.021,2.413-19.828,1.95-22.657
		c-0.17-1.101-0.509-1.466-1.395-1.557c-1.073-0.11-1.134,0.025-1.313,2.693c-1.154,14.444-1.712,18.958-2.852,23.177
		c-0.72,2.424-1.604,5.066-2.012,5.826l-0.708,1.388l-1.806-3.06c-3.534-5.971-3.921-11.383-1.382-18.663
		C161.047,279.009,166.386,255.475,166.726,252.164z M101.928,361.348c0.183-0.405,0.685-1.626,1.075-2.67
		c3.669-9.567,20.038-40.922,26.113-50.054c4.843-7.232,7.005-9.931,12.427-15.454c3.625-3.634,8.318-8.948,14.341-16.2
		c1.656-1.904,2.751-2.922,2.801-2.493c0.05,0.429-0.76,3.268-1.738,6.372c-0.974,3.058-1.856,6.596-1.975,7.762
		c-0.512,4.99,1.536,11.657,4.966,16.345l1.948,2.604l-2.152,3.973c-7.75,14.426-27.061,34.97-35.713,37.993
		c-11.631,4.037-11.337,3.926-17.021,8.337C103.979,360.192,101.698,361.749,101.928,361.348z M117.214,290.059
		c0.44-5.657,1.474-8.85,4.375-13.689c2.554-4.215,6.168-7.284,14.966-12.648c7.588-4.593,13.711-9.148,17.855-13.247
		c1.417-1.41,2.656-2.461,2.74-2.358c0.084,0.103-0.684,2.993-1.697,6.424c-3.12,10.189-5.014,13.482-11.327,19.431
		c-2.034,1.912-4.734,4.792-5.979,6.361c-1.245,1.569-3.192,4.008-4.329,5.446c-1.137,1.438-3.35,3.709-4.897,5.011
		c-2.74,2.358-7.501,5.121-7.878,4.658c-0.335-0.411,20.077-24.329,24.75-28.986c2.68-2.694,3.515-4.399,2.551-5.111
		c-0.265-0.169-0.82-0.273-1.301-0.181c-1.256,0.295-7.336,6.268-11.964,11.873c-2.256,2.69-6.107,7.149-8.507,9.871
		c-2.4,2.722-5.573,6.544-7.043,8.466l-2.668,3.496L117.214,290.059z M193.711,201.87c3.328-2.58,8.368-4.843,13.054-5.964
		c1.545-0.36,6.277-1.005,10.565-1.46c8.478-0.873,17.58-2.766,22.049-4.522c1.616-0.588,3.175-1.088,3.506-1.101
		c0.327,0.034-1.485,2.534-4.059,5.568c-10.3,12.185-11.365,12.924-22.55,15.828c-2.81,0.748-7.633,2.279-10.724,3.47
		c-7.065,2.715-10.197,3.383-13.746,3.065c-3.358-0.345-6.26-1.915-5.087-2.785c2.856-2.11,26.864-11.945,33.11-13.565
		c1.844-0.518,3.646-1.086,4.048-1.328c0.911-0.613,1.008-2.017,0.161-2.481c-1.57-0.774-14.802,3.711-30.424,10.354
		c-4.437,1.901-8.121,3.36-8.2,3.211C185.079,209.749,190.594,204.236,193.711,201.87z M286.597,158.768
		c0.053-0.513,1.583,1.105,7.964,8.264c2.837,3.119,5.819,6.206,6.704,6.768c1.457,0.95,1.686,1.021,2.401,0.483
		c2.049-1.545-5.074-7.261-6.148-8.502c-2.149-2.483-5.102-5.849-6.585-7.463l-2.707-3.011l2.442,1.005
		c1.361,0.517,3.494,1.773,4.811,2.709c6.873,4.885,10.173,14.467,13.441,21.915c0.484,1.104,2.791,5.324,0.286,4.567
		c-3.438-1.039-6.946-2.239-10.347-3.419c-5.597-1.942-8.384-4.631-9.994-9.604C288.258,170.579,286.477,159.934,286.597,158.768z
		 M323.344,173.57c0.117-0.224,1.756,0.793,3.674,2.31c6.857,5.276,29.976,19.243,31.688,19.089c0.429-0.05,0.804-0.483,0.856-0.996
		c0.072-0.7-0.701-1.439-2.782-2.736c-1.593-1.012-7.661-4.793-13.51-8.41c-8.904-5.533-17.113-11.419-18.875-13.532
		c-0.293-0.36,0.836-0.338,3.247,0.051c3.474,0.592,4.061,0.841,9.751,4.63c4.773,3.082,7.41,4.484,12.126,6.288
		c10.933,4.139,15.932,8.234,21.84,17.701c3.279,5.238,6.751,11.815,6.438,12.113c-0.154,0.126-1.805-0.327-3.627-0.938
		c-1.869-0.616-7.035-1.712-11.674-2.424c-9.979-1.496-12.142-2.001-15.291-3.456c-3.331-1.52-5.788-3.752-9.051-8.234
		c-1.817-2.496-4.287-5.059-7.071-7.324c-2.434-1.994-4.695-4.3-5.373-5.5C324.548,180.197,322.931,174.376,323.344,173.57z
		 M331.428,145.794c0.154-0.126,1.23,0.409,2.427,1.145c4.112,2.637,10.076,5.135,16.812,7.005
		c7.882,2.176,12.532,2.795,13.523,1.86c1.258-1.237,0.015-1.978-4.573-2.732c-8.02-1.295-15.831-4.171-23.427-8.674
		c-3.246-1.889-3.591-2.207-2.583-2.386c1.825-0.331,5.644,0.108,8.618,0.979c1.464,0.433,5.392,2.109,8.713,3.723
		c5.875,2.913,8.279,3.819,18.184,6.957c6.754,2.155,13.268,4.803,12.81,5.133c-0.509,0.372-14.573,3.31-18.689,3.924
		c-1.577,0.215-4.045,0.386-5.464,0.428c-4.576,0.048-11.552-2.695-17.121-6.754C338.164,154.545,330.867,146.208,331.428,145.794z
		 M349.887,129.876c6.872,1.46,7.432,1.517,14.938,1.393c4.297-0.077,8.542-0.112,9.432-0.068l1.637,0.121l-2.504,1.439
		c-1.397,0.752-4.362,2.097-6.571,2.954c-3.721,1.361-4.492,1.518-8.423,1.256c-3.978-0.266-7.821-1.226-11.637-2.326
		c-5.999-1.7-8.587-2.202-14.836-2.843c-4.197-0.431-7.597-0.827-7.587-0.921c0.043-0.42,6.009-2.069,9.169-2.546
		C337.858,127.698,340.754,127.948,349.887,129.876z M403.983,137.741c8.444,6.805,14.121,10.263,17.749,10.73
		c1.534,0.205,1.875,0.098,1.952-0.648c0.067-0.653-0.85-1.36-3.934-2.996c-4.202-2.222-8.393-5.009-11.683-7.845
		c-1.08-0.959-1.54-1.525-1.041-1.332c0.499,0.193,3.067,0.88,5.682,1.573c8.037,2.051,9.554,3.338,16.22,13.684
		c2.234,3.481,6.036,8.679,8.38,11.559c3.352,4.067,4.124,5.278,3.378,5.201c-2.705-0.278-10.834-2.809-15.074-4.659
		c-9.021-3.943-12.025-7.267-21.376-23.591C402.68,136.665,402.68,136.665,403.983,137.741z M433.332,135.1
		c0.056-0.089,2.287,1.13,4.914,2.626c8.537,4.977,12.242,6.536,13.83,5.756c1.345-0.71,0.103-1.922-3.852-3.789
		c-5.255-2.519-14.23-7.824-13.814-8.205c0.514-0.418,8.101,0.502,10.376,1.301c3.509,1.162,8.841,4.773,17.196,11.522
		c4.441,3.566,10.273,8.266,12.973,10.428c6.14,4.919,10.459,10.123,13.136,15.723c1.081,2.326,1.868,4.292,1.766,4.376
		c-0.103,0.084-1.198-0.264-2.419-0.767c-1.268-0.507-8.234-3.343-15.564-6.311c-17.423-7.021-20.916-9.264-28.43-18.236
		c-1.93-2.319-4.539-5.367-5.855-6.775C435.547,140.606,432.72,135.555,433.332,135.1z M513.234,137.651
		c-14.085,4.067-17.458,4.334-26.088,2.08c-3.984-1.052-8.259-1.688-11.724-4.069c-2.916-2.004-5.896-5.028-7.971-7.897
		l-1.032-1.425l1.366,0.47c2.195,0.65,17.113,2.7,18.55,2.471c1.003-0.133,1.317-0.43,1.258-1.238
		c-0.039-0.994-0.268-1.064-6.996-2.085c-6.112-0.91-15.419-3.133-15.412-3.653c0.01-0.767,5.858-2.299,6.542-2.503
		c6.897-2.063,13.297,0.82,19.28,3.926c3.848,1.998,11.689,5.489,17.342,7.814c5.704,2.282,10.4,4.273,10.489,4.329
		C518.925,135.926,516.39,136.75,513.234,137.651z"/>
	<path fill-rule="evenodd" clip-rule="evenodd" d="M647.049,265.9c-1.411,1.826-0.514,6.563-0.292,8.445
		c0.41,3.482,1.072,7.237,2.305,10.533c3.34,8.779,6.77,13.467,13.033,17.645c5.113,3.447,6.196,4.831,8.545,10.869
		c1.112,2.942,2.917,6.473,3.949,7.899c3.585,4.954,9.148,7.757,13.571,11.826c4.683,4.308,7.118,10.467,9.415,16.27
		c1.413,3.571,2.728,7.181,3.738,10.89c0.795,2.815,1.385,5.326,1.361,5.559c-0.029,0.28-0.684-0.683-1.436-2.08
		c-1.936-3.639-5.971-8.861-9.116-11.729c-3.397-3.176-7.029-5.435-14.208-8.953c-10.459-5.08-17.181-10.295-20.599-16.018
		c-0.474-0.805-1.369-2.568-2.424-2.67c-1.878-0.181-1.797,2.014-1.309,3.229c0.333,0.883,1.323,4.095,2.182,7.199
		c2.934,10.599,6.32,22.739,16.693,28.351c3.827,2.071,7.805,4.022,10.922,7.124c2.839,2.825,4.97,6.303,7.049,9.699
		c4.157,6.789,5.436,8.099,11.216,11.473c2.934,1.715,4.247,2.698,4.404,3.469c0.087,0.527-0.247,6.996-0.766,14.342
		c-1.316,18.632,0.095,37.821-6.702,55.605c-4.904,12.83-8.299,25.651-10.392,39.251l-1.016,6.682l-0.461-3.77
		c-0.209-2.095-0.797-7.387-1.247-11.721c-0.45-4.335-1.699-11.909-2.754-16.777c-1.102-4.873-2.501-11.897-3.163-15.547
		c-1.518-8.168-1.333-10.882,1.437-20.871c1.267-4.535,2.203-9.058,2.599-12.457c0.903-7.872,0.157-11.624-4.164-21.4
		c-4.052-9.182-6.523-16.788-8.559-26.328c-0.957-4.391-1.863-8.826-3.225-13.11c-0.29-0.912-0.454-1.906-1.103-2.648
		c-1.821-2.081-2.65-0.244-3.068,1.598c-0.622,2.734-0.83,5.603-1.153,8.382c-0.646,5.573-1.534,10.998-2.99,16.418
		c-1.882,7.005-3.986,14.128-3.238,21.463c0.67,6.577,3.09,12.922,5.866,18.87c1.345,2.966,3.154,6.922,3.946,8.841
		c0.797,1.873,2.63,5.596,4.107,8.198c1.476,2.602,2.897,5.293,3.161,5.933c0.408,1.079,3.973,16.384,3.92,16.897
		c-0.01,0.093-0.956-1.701-2.13-4.036c-2.528-5.208-12.477-23.055-16.072-28.891c-4.366-7.046-7.564-11.239-13.383-17.445
		c-6.07-6.514-5.774-5.73-5.522-12.773c0.337-9.25-1.029-17.967-3.852-24.902c-0.83-2.017-3.656-7.539-6.242-12.187
		c-2.581-4.695-7.087-13.594-10.032-19.787c-5.566-11.882-7.084-14.536-13.998-24.766c-4.591-6.692-7.325-11.733-10.194-18.673
		c-0.983-2.363-1.994-4.446-2.208-4.657c-0.266-0.169-0.965-0.241-1.632-0.168c-1.055,0.174-1.172,0.398-1.411,2.73
		c-0.144,1.399-0.023,5.276,0.294,8.607c1.082,12.411,1.074,15.238-0.144,31.231c-0.932,11.828-1.122,16.427-0.797,18.769
		c0.898,5.936,3.388,11.517,10.633,23.572c3.78,6.326,7.486,12.457,8.206,13.709c2.048,3.462,5.54,7.544,8.208,9.562
		c2.97,2.284,8.286,4.668,11.927,5.467c3.874,0.822,8.88,2.561,10.738,3.742c2.389,1.518,11.586,12.925,15.092,18.705
		c3.46,5.775,13.943,24.383,16.101,28.611c2.39,4.723,5.282,13.267,6.465,19.185c0.631,3.034,2.101,9.83,3.211,15.081
		c2.502,11.426,2.783,16.498,1.617,28.301c-1.247,12.596-2.648,16.6-9.711,27.562c-2.694,4.201-3.616,5.378-3.515,4.398
		c0.324-4.078-0.728-8.606-1.233-12.636c-1.18-9.416-3.832-17.661-8.175-26.079c-0.931-1.8-2.336-3.742-2.822-5.705
		c-1.01-4.081,1.03-10.128,1.896-14.183c3.171-14.853,2.573-28.858-7.84-40.675c-2.316-2.689-5.779-7.05-7.676-9.695
		c-1.845-2.687-5.109-6.698-7.188-8.938c-4.168-4.387-6.668-8.037-8.889-13.025c-1.582-3.414-1.995-3.975-3.254-4.104
		c-1.679-0.172-1.925,1.31-1.355,7.684c0.357,4.325,0.34,9.083-0.062,16.206c-0.796,13.255-0.78,15.849-0.138,20.156
		c1.168,7.896,4.672,14.618,10.312,19.816c3.443,3.181,4.015,4.041,7.253,10.594c1.465,2.964,2.9,6.042,5.007,8.619
		c3.186,3.897,6.81,6.259,9.154,10.885c3.063,6.044,5.819,12.011,6.958,18.734c1.308,7.718,2.831,15.501,1.806,23.352
		c-0.683,5.228-2.735,10.322-4.887,15.098c-1.676,3.72-3.518,7.38-5.412,10.993c-4.806,9.167-6.346,11.318-16.375,23.154
		c-3.318,3.854-9.329,10.07-14.08,14.577c-1.721,1.614-4.411,4.401-6.001,6.123c-1.544,1.727-2.905,3.048-2.989,2.945
		c-0.084-0.103,0.081-0.793,0.396-1.562c0.315-0.769,0.88-3.067,1.273-5.053c1.685-9.064,4.551-18.619,7.889-26.335
		c2.042-4.739,2.206-4.957,7.163-9.632c6.575-6.205,7.878-8.334,8.372-13.608c0.225-2.192,0.35-5.242,0.326-6.847
		c-0.077-2.459,0.177-3.563,1.84-7.823c2.936-7.474,3.623-10.043,4.046-14.618c0.575-5.596-0.182-8.784-3.554-15.87
		c-1.517-3.125-3.191-7.02-3.685-8.626c-1.614-5.397-3.585-18.324-4.066-26.95c-0.42-6.924-2.668-7.06-6.735-0.503
		c-3.392,5.495-4.403,8.455-6.122,17.845c-1.68,9.017-3.203,13.291-7.407,20.729c-6.974,12.385-8.914,17.04-10,23.951
		c-1.599,10.062,2.111,19.822,11.877,31.193c2.358,2.74,4.086,5.18,4.196,5.945c0.152,0.817-0.385,2.835-1.414,5.51
		c-1.909,4.845-3.22,9.978-4.419,15.037c-1.668,7.038-2.896,12.863-7.386,18.719c-4.514,5.889-9.8,11.166-13.995,17.304
		c-7.946,11.627-21.289,18.846-34.246,23.784c-7.014,2.673-17.909,7.351-20.512,8.827c-4.2,2.349-3.732,1.926,3.5-3.788
		c6.61-5.165,16.748-14.398,22.465-20.502c1.226-1.382,3.408-4.269,4.808-6.434c2.478-3.94,2.868-4.984,6.343-16.786
		c1.521-5.169,4.005-9.627,8.325-14.98c1.947-2.439,3.404-4.693,3.476-5.393c0.675-6.576-20.911,6.288-33.234,19.82
		c-6.639,7.283-11.536,15.498-16.185,27.274c-2.09,5.205-3.322,7.105-6.632,9.97c-7.294,6.32-8.892,9.031-9.56,16.455l-0.408,4.435
		c0,0-4.131,2.592-4.131,2.592c-6.02,3.82-12.375,7.466-19.067,9.98c-11.775,4.423-24.909,4.227-37.05,7.348
		c-6.68,1.717-16.201,3.567-17.414,3.443c-0.373-0.038,0.459-0.801,1.866-1.646c3.481-2.234,5.334-4.212,12.004-12.717
		c4.271-5.446,8.637-10.827,13.261-15.978c3.986-4.44,7.645-9.163,13.773-10.464c8.005-1.77,12.008-3.574,17.393-7.828
		c3.842-2.998,5.668-5.167,8.086-9.443c1.045-1.919,3.424-5.351,5.259-7.613c3.398-4.175,3.848-4.883,11.382-17.211
		c7.988-13.081,16.221-23.499,23.271-29.278c1.506-1.234,6.216-6.372,1.441-5.278c-5.259,1.204-10.699,4.283-15.546,6.542
		c-4.655,2.169-9.29,4.388-13.899,6.651c-16.278,7.989-19.658,10.611-25.803,19.971c-2.234,3.399-5.768,7.985-7.832,10.176
		c-8.898,9.548-10.075,11.831-11.067,21.487c-0.247,2.409-0.297,5.243-1.339,7.473c-1.259,2.696-3.993,4.58-5.972,6.742
		c-1.867,2.04-3.668,4.142-5.453,6.254c-3.982,4.711-7.865,9.509-11.559,14.45c-5.627,7.528-11.167,11.907-20.714,16.299
		c-10.434,4.814-21.231,5.613-32.507,6.322c-7.115,0.447-20.968-0.033-38.276-1.292l-8.885-0.677l8.259-2.404
		c13.847-4.045,23.804-8.3,37.016-15.803l5.859-3.357l5.443,0.229c13.741,0.657,24.145-1.526,32.882-6.755
		c7.387-4.472,9.233-7.299,27.871-42.851c5.219-9.973,12.068-22.513,15.212-27.892c6.228-10.624,6.984-12.478,5.826-13.587
		c-0.996-0.856-1.621-0.732-9.37,2.666c-12.923,5.601-19.395,9.884-26.977,17.635c-13.481,13.791-16.351,16.041-28.067,22.283
		c-14.701,7.774-18.78,13.529-22.158,31.279c-1.439,7.581-2.448,10.07-4.738,11.719c-2.692,1.891-16.528,9.047-23.441,12.108
		c-11.334,5.011-23.589,8.572-35.719,11.034c-7.36,1.494-13.495,1.016-20.646-0.975c-7.003-1.95-13.919-4.401-20.598-7.266
		c-2.8-1.183-8.63-3.62-12.977-5.339c-12.493-5.006-17.935-7.544-16.819-7.854c0.486-0.139,1.81-0.191,2.93-0.076
		c2.616,0.221,8.617-0.388,12.244-1.287c2.222-0.526,4.111-0.567,8.033-0.212c6.534,0.624,10.053-0.146,16.327-3.413
		c11.846-6.253,23.723-16.484,27.293-29.881c1.039-3.9,1.642-7.965,2.263-11.948c2.212-14.193,3.081-18.063,5.545-23.701
		c0.911-2.085,4.025-8.677-0.908-7.102c-4.906,1.566-9.769,6.517-13.676,9.609c-13.23,10.423-16.709,15.391-21.934,31.396
		c-2.761,8.529-3.502,9.773-8.809,14.647c-5.359,4.916-6.792,6.937-7.524,10.396c-0.529,2.396-0.534,2.443-3.336,3.569
		c-12.5,5.077-26.742,5.275-38.481-1.596c-5.468-3.201-17.161-10.952-21.839-14.496l-1.308-1.03l4.897,0.503
		c4.615,0.474,5.073,0.615,8.678,2.633c13.076,7.317,29.331,1.589,43.416,1.775c8.424,0.111,8.326,0.148,8.298-1.41
		c-0.025-1.134-0.765-1.728-6.652-5.443c-13.636-8.564-17.647-10.343-26.241-11.555c-4.873-0.736-6.1-0.721-8.984-0.169
		c-4.037,0.764-7.989,2.997-12.502,7.01c0,0-3.262,2.868-3.264,2.87c-2.091,1.826-12.656-2.398-15.161-3.349
		c-11.202-4.254-21.172-13.165-30.027-21.04c-1.371-1.219-5.386-5.498-7.376-4.606c-3.011,1.35,2.698,6.852,3.775,8.192
		c2.458,3.06,5.157,5.924,8.041,8.586c6.165,5.692,13.04,10.541,19.986,15.22c3.879,2.613,9.341,6.332,12.106,8.313
		c13.879,9.861,20.992,14.032,32.523,19.222c6.034,2.74,7.589,3.654,10.884,6.443c10.914,9.368,22.148,21.126,24.589,25.807
		c0.831,1.546,2.703,6.263,4.203,10.47c5.82,16.291,8.694,19.508,23.229,26.656c6.909,3.396,8.939,4.735,13.541,9.025
		c4.815,4.499,10.613,9.052,12.688,9.974c3.925,1.744,2.974-2.357,1.679-4.398c-2.476-3.883-6.017-10.703-10.497-20.306
		c-3.142-6.729-6.227-13.615-10.983-19.393c-4.929-5.988-11.758-9.472-18.138-13.665c-3.609-2.372-7.039-4.101-11.348-4.701
		l-5.157-0.718l-4.604-5.186c-2.535-2.852-6.191-6.715-8.117-8.61c-1.973-1.899-3.555-3.476-3.55-3.522
		c0.01-0.093,5.023,2.024,11.202,4.732c18.586,8.083,20.94,9.031,29.162,11.572c8.785,2.813,18.069,3.699,26.816,6.641
		c6.716,2.259,12.827,6.809,18.564,10.839c5.14,3.638,5.098,3.587,4.303,6.286c-1.973,6.819,0.995,13.251,10.676,23.152
		c4.61,4.668,6.107,6.613,10.023,13c5.044,8.247,7.942,11.231,12.951,13.395c0.853,0.417,4.563,1.458,8.241,2.354
		c8.685,2.164,15.196,4.388,23.095,7.792c1.792,0.784,10.52,5.128,7.753-0.712c-0.775-1.635-7.832-10.466-17.793-22.234
		c-5.124-6.087-8.768-10.986-12.666-17.089c-7.999-12.509-12.042-16.742-19.575-20.484c-4.3-2.185-9.54-3.478-14.423-3.649
		l-3.242-0.097l-6.564-4.916c-3.636-2.683-8.329-6.087-10.443-7.529c-2.114-1.442-3.827-2.655-3.827-2.655
		c0.005-0.047,7.43,0.622,16.482,1.504c16.84,1.682,26.08,2.113,35.261,1.736c7.572-0.306,14.558,0.505,19.558,2.292
		c9.232,3.257,42.628,19.035,44.367,20.91c0.46,0.566,2.376,3.024,4.188,5.567c1.817,2.496,4.528,5.932,6.1,7.601
		c2.675,2.867,4.039,3.808,14.592,10.264c2.086,1.251,6.313,4.607,9.375,7.372c3.8,3.432,7.717,7.158,12.583,9.015
		c7.221,2.756,15.64,1.579,23.22,2.021c6.372,0.372,13.135,0.659,19.333,2.309c2.018,0.537,5.537,1.606,7.812,2.405
		c4.595,1.603,5.682,1.573,5.86-0.152c0.086-0.839-0.894-2.307-3.806-5.622c-5.571-6.322-10.472-10.454-19.818-16.739
		c-11.022-7.4-13.884-9.815-19.278-16.495c-5.64-7.036-7.143-8.463-11.842-11.349c-5.323-3.233-8.241-4.193-15.581-5.229
		c-7.293-1.032-12.014-0.951-16.86,0.342c-1.741,0.434-4.36,1.155-5.812,1.524c-3.632,0.947-8.063,0.963-11.602,0.081
		c-1.841-0.425-7.111-2.804-13.381-5.993c-5.739-2.852-13.999-6.857-18.37-8.814c-4.417-1.962-7.729-3.669-7.384-3.822
		c0.299-0.158,4.984-0.808,10.374-1.432c16.085-1.977,19.244-2.453,27.698-4.46c4.442-1.051,9.733-2.11,11.741-2.375
		c5.104-0.675,7.852,2.82,11.041,6.318c4.693,5.242,8.091,7.947,11.93,9.567c2.8,1.183,3.775,1.33,9.958,1.683
		c8.246,0.47,13.691,5.101,20.957,8.452c6.059,2.795,12.535,4.575,19.249,4.349c3.307-0.084,12.481-1.31,22.024-2.922
		c2.331-0.394,3.298-2.499,0.66-3.656c-0.815-0.319-3.183-1.128-5.332-1.773c-9.415-2.852-20.662-8.06-32.073-14.888
		c-11.941-7.165-17.785-9.461-28.439-11.263l-5.236-0.868l3.167-1.466c1.779-0.807,5.718-2.9,8.726-4.665
		c9.017-5.201,12.745-7.08,17.395-8.77c9.007-3.269,17.375-4.436,27.776-3.839l6.651,0.4l2.372,4.438
		c5.491,10.319,10.338,13.598,19.212,13.001c2.991-0.211,3.779-0.083,5.997,0.804c5.657,2.278,10.691,1.899,22.429-1.797
		c8.278-2.59,10.205-3.005,23.692-4.919c11.902-1.744,12.203-1.81,12.208-3.689c0.006-2.047-1.22-2.022-2.995-2.546
		c-13.831-4.085-28.027-6.876-41.624-11.798c-7.317-2.637-8.422-2.891-13.785-3.442c-4.715-0.437-6.744-0.41-10.529,0.191
		c-4.602,0.753-12.585,3.232-15.388,4.829c-1.252,0.72-2.153,0.769-6.117,0.362c-5.317-0.546-11.288-0.217-17.104,0.883
		c-2.166,0.437-4.074,0.666-4.158,0.563c-0.549-0.622,11.165-5.922,23.278-10.522c10.497-4.012,24.285-12.068,30.033-17.557
		c5.224-4.977,16.588-10.549,24.518-12.044l2.595-0.487c0,0,2.349,2.782,2.353,2.786c4.588,5.433,11.344,5.948,17.913,6.914
		c11.262,1.656,23.94,6.166,35.232,2.409c1.513-0.504,5.062-2.025,7.986-3.421c7.917-3.664,11.881-5.095,19.895-6.958
		c1.954-0.454,6.472-0.412,7.334-2.611c1.719-4.396-25.123-8.722-28.05-9.227c-2.694-0.465-5.394-0.869-8.1-1.254
		c-7.153-1.017-14.665-2.213-16.688-2.704c-7.45-1.802-15.494-1.026-24.086,2.333c-5.057,1.978-10.556,5.042-12.352,6.931
		c-0.842,0.856-2.205,1.282-6.326,1.942c-2.879,0.505-6.296,1.191-7.561,1.58c-1.265,0.389-2.376,0.651-2.418,0.6
		c-0.084-0.103,2.675-2.647,6.093-5.642c3.423-3.042,8.955-8.27,12.323-11.694c7.526-7.663,12.931-12.103,17.906-14.656
		c4.428-2.279,5.875-2.601,7.142-1.623c5.795,4.601,10.049,6.782,16.445,8.287c2.988,0.731,4.714,0.908,6.949,0.714
		c3.849-0.311,5.717-1.062,9.886-4.027c1.879-1.315,5.714-3.325,8.469-4.456c7.08-2.855,9.805-5.072,17.13-13.981
		c3.342-4.087,7.193-8.545,8.558-9.913c2.577-2.61,3.133-4.344,1.529-4.791c-0.457-0.141-2.483,0.31-4.579,0.991
		c-7.176,2.42-14.862,3.375-28.218,3.558c-4.81,0.024-10.404,0.345-12.457,0.606c-8.895,1.254-16.021,5.942-21.935,14.43
		c-1.934,2.77-2.294,3.063-4.918,3.831c-3.156,0.901-3.161,0.948,1.106-3.421c6.376-6.556,9.662-11.025,14.397-19.493
		c2.545-4.593,6.1-7.998,13.273-12.681c4.949-3.215,8.4-4.698,17.345-7.361c11.037-3.297,15.669-3.433,22.971-0.657
		c4.758,1.855,7.882,4.014,13.862,9.577c11.479,10.746,17.174,14.488,30.166,19.687c6.244,2.526,23.092,8.263,24.678,8.425
		c0.653,0.067,1.302-0.29,1.705-1.003c0.576-1.025,0.349-1.566-2.795-6.743c-1.942-3.121-4.854-7.803-6.522-10.378
		c-1.663-2.621-3.613-6.121-4.294-7.746c-3.749-9.386-8.081-14.921-15.123-19.32c-2.477-1.574-5.696-3.271-7.192-3.849
		c-3.905-1.438-11.38-2.535-16.064-2.357c-6.914,0.327-17.576,3.19-23.701,6.379c-1.144,0.589-3.992,1.239-7.286,1.655
		c-8.586,1.003-18.772,3.822-24.06,6.672c-1.299,0.715-3.859,2.243-5.672,3.376l-3.332,2.156l4.515-6.794
		c2.459-3.753,7.255-10.99,10.614-16.159c6.314-9.625,10.761-15.295,11.88-15.18c0.373,0.038,3.294-0.416,6.562-1.023
		c3.262-0.56,8.185-1.233,10.943-1.468c13.535-1.013,18.461-2.628,23.209-7.56c0.954-1.033,3.656-4.856,6.054-8.474
		c4.918-7.507,9.453-13.12,12.847-15.882c3.385-2.669,3.243-5.417-0.166-4.353c-7.442,2.252-14.617,4.201-23.065,6.161
		c-5.555,1.315-12.543,3.283-15.527,4.343c-9.203,3.343-14.146,7.878-21.329,19.535c-3.851,6.297-5.072,7.632-4.295,4.649
		c0.245-1.012,1.052-4.275,1.741-7.314c2.614-11.231,5.919-19.091,11.329-27.254c4.857-7.371,12.668-15.052,20.037-19.809
		c2.517-1.625,4.83-3.138,7.885-3.338c4.969-0.324,10.174,0.513,15.125,0.865c5.234,0.372,10.924-2.186,16.063-3.112
		c4.718-0.85,9.447-0.96,14.23-0.864c11.671,0.162,16.487-0.38,22.123-2.488c5.977-2.214,10.194-5.645,17.269-13.967
		c2.948-3.467,7.411-8.38,9.937-10.949c1.338-1.36,5.163-3.907,4.589-6.092c-0.746-2.841-6.737-0.764-8.391-0.474
		c-12.722,2.275-15.988,2.411-30.862,1.307c-11.637-0.86-23.054-0.69-33.363,5.48c-4.827,2.945-12.49,9.651-21.125,18.472
		c-6.792,6.937-8.082,8.03-12.133,10.3c-9.647,5.371-19.608,14.716-26.657,25.067c-1.447,2.161-2.707,3.869-2.846,3.855
		c-0.653-0.067,3.833-20.342,6.451-29.311c2.189-7.551,4.479-12.406,9.355-19.964c7.059-10.915,17.201-21.561,32.535-34.125
		c10.912-8.965,12.884-10.27,19.123-12.74c11.147-4.369,24.487-12.66,30.26-18.853c6.194-6.622,7.929-11.58,8.245-23.377
		c0.207-9.357,1.514-18.412,3.438-24.294c0.632-1.932,2.751-5.158,1.993-7.209c-2.472-6.655-19.309,15.215-20.416,16.815
		c-4.262,6.16-6.198,8.035-11.894,11.644c-6.448,4.051-9.972,8.072-12.114,13.79c-0.526,1.454-1.625,5.724-2.386,9.463
		c-1.743,8.257-3.08,12.549-5.486,17.628c-2.328,4.913-6.163,8.132-10.264,11.62c-10.759,9.149-21.048,18.172-30.394,28.787
		c-1.469,1.668-3.062,3.322-4.316,5.165c-0.45,0.708-0.875,1.182-0.959,1.08c-0.084-0.103,0.3-2.467,0.868-5.236
		c1.529-7.468,1.748-15.134,2.286-22.716l1.686-2.654c2.239-3.446,4.722-5.595,12.358-10.654
		c11.318-7.415,15.791-12.422,22.73-25.377c1.919-3.582,5.081-7.428,5.45-11.585c0.394-4.445-3.011-2.417-4.914-0.649
		c-5.576,5.18-11.441,10.308-17.809,14.602c-6.266,4.225-11.891,7.521-15.999,14.15l-2.366,3.763l0.343-6.091
		c0.305-5.718,0.029-17.717-0.533-22.346c-0.287-2.716,1.252-7.6,3.528-10.948c0.895-1.369,5.854-6.986,10.982-12.398
		c4.34-4.615,9.369-8.813,12.163-14.633c1.502-3.129,1.979-6.773,2.439-10.178c0.463-3.433,0.841-6.88,1.212-10.324
		c0.995-9.229,1.908-15.827,2.393-17.333c0.95-2.824,0.627-4.271-1.005-4.439c-0.793-0.082-2.279,1.085-5.479,4.244
		c-12.418,12.156-19.06,20.852-23.697,31.121c-3.224,7.068-4.119,10.275-5.293,18.496l-1.056,7.526l-1.494-4.725
		c-1.596-5.112-4.307-11.753-6.859-16.728c-2.274-4.475-3.424-8.882-3.661-14.373c-0.429-8.668-1.158-13.503-2.756-17.673
		c-2.515-6.715-5.976-10.181-17.167-17.315c-7.963-5.059-12.496-9.107-18.689-16.718c-1.369-1.682-5.675-8.548-8.142-6.189
		C647.18,265.743,647.112,265.819,647.049,265.9z M662.284,284.163c1.773,1.549,6.601,5.014,10.75,7.749
		c8.256,5.419,11.165,7.839,13.037,10.717c2.838,4.486,4.545,11.73,4.409,19.021l-0.018,3.391l-2.831-5.475
		c-1.573-3.036-3.981-8.044-5.358-11.154c-3.398-7.748-4.356-8.978-5.923-7.489c-0.636,0.689,1.424,6.32,7.433,20.321
		c1.446,3.353,2.526,6.15,2.423,6.234c-0.108,0.13-1.639-1.017-3.427-2.425c-4.697-3.828-7.081-7.231-9.322-13.399
		c-2.209-6.024-3.711-7.922-9.214-11.691c-4.452-3.002-6.494-5.144-8.732-9.05c-3.347-5.952-5.354-12.568-5.595-18.483l-0.098-1.801
		l4.632,5.377C656.971,278.999,660.506,282.66,662.284,284.163z M736.873,319.582c-0.837,6.928-1.737,13.799-1.856,14.409
		c-1.157,5.963-5.581,10.358-9.511,14.679c-3.703,4.073-7.442,8.124-11.294,12.058c-0.193,0.198-2.728,2.392-2.698,2.527
		c-0.069-0.243,1.25-3.453,2.897-7.101c2.919-6.392,7.237-14.479,13.45-24.963c2.91-4.932,3.301-6.447,1.669-6.615
		c-1.119-0.115-1.55,0.406-4.871,5.673c-4.343,6.953-9.331,16.055-12.376,22.764l-2.787,6.029l0.58-5.643
		c0.326-3.171,1.083-7.335,1.723-9.437c3.46-11.662,10.998-23.565,22.056-34.871c2.367-2.396,4.359-4.359,4.453-4.35
		C738.58,304.783,737.763,312.215,736.873,319.582z M595.312,316.777c1.414,3.209,5.65,10.147,10.692,17.499
		c4.098,5.982,6.549,10.569,11.674,21.699c3.084,6.679,5.358,11.154,10.604,20.647c4.405,8.04,6.329,12.715,7.494,18.348
		c1.063,5.246,1.716,17.708,0.923,17.626c-0.513-0.053-5.918-7.536-8.092-11.152c-1.04-1.803-2.992-6.198-4.284-9.677
		c-1.589-4.263-3.723-8.724-6.495-13.392c-3.687-6.317-4.226-7.032-5.485-7.161c-2.425-0.249-2.21,1.328,0.743,6.533
		c3.283,5.663,6.441,12.538,8.149,17.473c1.694,5.075,3.685,8.626,8.482,15.151l4.137,5.609l-1.935-0.434
		c-10.919-2.441-16.067-6.457-22.475-17.483c-1.681-2.906-5.294-9.027-8.034-13.55c-5.165-8.448-7.408-13.674-8.318-19.046
		c-0.386-2.207-0.193-6.382,0.749-18.303c0.638-8.512,1.081-16.949,0.983-18.75c-0.243-4.973-0.682-11.711-0.884-12.957
		C593.734,313.787,594.204,314.26,595.312,316.777z M798.354,344.606c-1.572,5.211-2.791,14.323-3.104,23.339
		c-0.366,11.367-1.172,14.159-5.805,19.81c-2.967,3.654-6.371,6.509-11.876,10.091c-5.5,3.535-10.695,6.395-15.188,8.384
		c-3.549,1.521-3.774,1.874,4.862-6.436c5.306-5.114,10.582-10.414,15.269-16.111c1.573-1.912,3.226-3.799,4.427-5.977
		c2.318-4.205-1.229-3.008-3.343-0.448c-3.88,4.738-7.061,8.182-12.431,13.663c-5.304,5.299-14.436,13.457-14.776,13.092
		c-0.084-0.103,0.298-1.525,0.885-3.114c0.541-1.594,1.78-6.321,2.724-10.465c2.129-9.254,2.679-10.941,4.581-13.856
		c2.192-3.451,4.068-5.19,8.96-8.317c5.948-3.772,8.151-5.949,13.012-12.896c2.313-3.25,4.996-6.886,6.058-8.049
		c2.021-2.243,6.44-6.266,6.654-6.056C799.301,341.357,798.914,342.825,798.354,344.606z M667.272,341.134
		c1.458,0.951,5.431,3.103,8.841,4.773c7.268,3.574,10.504,5.556,13.431,8.26c5.165,4.772,8.887,10.291,11.338,16.717
		c1.552,4.165,3.16,9.609,2.903,9.818c-0.103,0.084-0.846-0.935-1.65-2.29c-2.285-3.911-9.126-11.635-16.254-18.4
		c-6.408-5.983-8.307-7.215-9.02-5.781c-0.53,1.029,0.637,2.516,5.881,7.438c8.552,8.042,13.176,13.041,15.824,17.083
		c2.769,4.243,5.693,9.727,5.338,9.974c-0.313,0.298-5.249-3.037-6.477-4.388c-0.637-0.678-2.682-3.716-4.581-6.786
		c-5.499-8.859-8.579-11.909-15.874-15.674c-6.624-3.414-9.485-6.3-12.962-12.83c-1.336-2.588-4.548-12.155-4.433-13.274
		c0.029-0.28,1.179,0.451,2.571,1.584C663.487,338.53,665.81,340.23,667.272,341.134z M744.343,381.803
		c-4.596,8.954-8.764,15.123-13.128,19.529c-1.417,1.41-5.61,4.608-9.358,7.145c-3.748,2.537-8.071,5.628-9.526,6.939
		c-1.501,1.307-2.716,2.125-2.687,1.845c0.125-1.212,2.722-7.685,4.128-10.368c3.324-6.209,6.939-9.75,13.835-13.566
		c5.648-3.143,8.915-5.588,13.929-10.351c2.039-1.958,3.755-3.526,3.849-3.516C745.478,379.469,744.99,380.55,744.343,381.803z
		 M667.72,383.123c1.782,8.807,3.966,15.535,8.157,25.203c4.455,10.307,5.151,13.631,4.489,20.537
		c-0.322,3.596-1.122,7.708-2.403,12.383l-1.857,7.067l-0.628-2.609c-1.558-6.852-4.246-23.811-4.743-29.989
		c-0.51-6.509-0.602-6.99-1.613-7.235c-0.597-0.156-1.259-0.129-1.516,0.08c-0.463,0.377-0.374,7.314,0.226,14.774
		c0.247,3.56,2.127,17.373,2.671,19.879c0.092,0.481-0.391-0.323-1.04-1.803c-0.696-1.485-2.546-5.493-4.081-8.902
		c-6.845-15.03-7.735-22.426-4.171-34.643c1.869-6.264,3.965-15.663,4.324-19.161c0.153-1.492,0.371-2.695,0.464-2.686
		C666.139,376.033,666.895,379.221,667.72,383.123z M818.273,449.39c-1.857,2.024-5.109,5.696-7.154,8.172
		c-7.366,8.858-12.069,12.428-18.702,14.15c-4.747,1.256-8.503,1.577-18.052,1.398c-7.22-0.104-14.264,0.412-21.254,2.294
		c-6.54,1.732-9.676,1.975-15.579,1.18l-4.789-0.633l13.551-6.667c7.497-3.707,16.414-7.928,19.916-9.454
		c5.329-2.327,6.287-2.936,6.388-3.918c0.261-2.578-3.23-0.724-4.318-0.319c-2.643,0.985-5.235,2.106-7.819,3.233
		c-6.783,2.958-13.518,6.083-20.098,9.471c-2.289,1.179-4.12,2.027-4.105,1.888c0.067-0.653,11.057-10.835,15.152-13.996
		c5.38-4.207,8.931-6.199,14.207-8.013c6.154-2.101,8.333-2.207,22.968-1.081c13.936,1.054,18.998,0.867,28.365-0.857
		C822.044,445.253,822.081,445.351,818.273,449.39z M633.331,448.339c1.785,1.974,3.587,3.934,5.207,6.045
		c3.115,4.061,6.06,8.215,9.352,12.145c7.815,9.328,10.184,19.132,8.5,31.035c-0.622,4.225-1.419,9.233-1.802,11.125
		c-0.804,4.159-0.688,4.407-3.289-6.983c-2.075-9.167-2.523-12.607-2.467-17.738c0.052-3.718-0.439-4.899-1.844-4.525
		c-0.63,0.171-0.852,0.949-1.168,4.027c-0.742,7.228,0.282,16.524,2.663,24.544c0.55,1.989,0.937,3.725,0.788,3.804
		c-0.571,0.507-4.376-5.115-6.347-9.323c-3.242-6.978-4.269-8.45-7.787-11.828c-4.42-4.224-6.469-7.215-8.239-12.015
		c-4.465-12.116-0.949-25.435-1.05-37.951l-0.018-2.122c0,0,1.872,2.879,1.873,2.879
		C629.372,443.921,631.34,446.138,633.331,448.339z M745.684,508.243c-0.22,0.307-1.563,1.913-2.916,3.612
		c-1.394,1.648-3.942,5.344-5.736,8.129c-2.626,4.076-5.245,8.726-9.364,11.494c-4.023,2.704-9.046,3.117-13.728,3.656
		c-3.56,0.41-7.141,0.636-10.692,1.121c-1.02,0.139-6.604,1.744-7.243,0.959c-0.167-0.206,1.395-1.648,3.489-3.223
		c2.814-2.162,5.01-3.35,8.881-4.79c5.244-1.959,6.623-2.996,5.721-4.314c-0.242-0.402-0.772-0.739-1.145-0.777
		c-1.119-0.115-10.268,3.611-13.477,5.496c-1.607,0.966-2.948,1.629-2.933,1.49c0.105-1.026,5.192-6.96,8.142-9.532
		c4.699-3.995,9.462-5.862,24.296-9.428c6.185-1.485,12.477-3.101,14.032-3.554c1.555-0.453,2.867-0.837,2.96-0.827
		C746.068,507.717,745.899,507.982,745.684,508.243z M630.207,509.296c1.526,13.588,3.378,20.8,7.378,28.657
		c4.668,9.151,4.599,13.951-0.403,26.868c-2.001,5.261-2.317,6.501-2.357,9.183c-0.073,9.889,0.036,9.288-1.871,12.25
		c-0.956,1.504-3.141,3.966-4.805,5.492l-3.063,2.749l-0.039-2.832c-0.015-6.741-0.265-10.725-1.521-24.191
		c-0.749-7.853-1.329-15.971-1.304-18.043c0.009-1.465-0.615-6.204-2.227-2.631c-0.864,1.985-0.757,5.53,0.562,20.228
		c1.408,16.121,1.481,26.873,0.18,28.531c-0.707,0.917-8.606-8.896-11.08-13.721c-4.237-8.306-5.019-12.156-3.891-19.015
		c0.892-5.469,2.953-10.395,8.329-20.069c5.657-10.117,7.1-14.069,9.03-24.144c0.786-4.443,1.933-9.18,2.496-10.536
		c1.305-3.071,3.34-6.82,3.591-6.512C629.295,501.661,629.785,505.152,630.207,509.296z M743.308,564.41
		c10.505,3.718,16.743,9.967,21.28,21.319c0.797,1.873,3.383,6.521,5.78,10.255c5.927,9.28,6.364,10.079,5.478,9.988
		c-1.353-0.139-15.991-5.365-21.415-7.619c-12.381-5.183-16.427-8.002-29.916-20.745c-1.633-1.534-4.562-3.767-6.518-4.911
		l-3.46-2.099l3.676,0c2.071,0.024,8.447,0.349,14.244,0.803l10.522,0.798l0.115-1.119c0.091-0.886-0.197-1.293-1.236-1.729
		c-1.673-0.69-26.982-3.431-28.662-3.132c-2.693,0.525,3.713-1.739,7.186-2.514C728.583,561.861,736.709,562.13,743.308,564.41z
		 M707.041,598.623c-0.014,0.14-2.659,3.403-5.888,7.313c-6.458,7.82-9.409,10.391-14.069,12.175
		c-4.459,1.663-8.196,3.635-11.15,5.782c-4.431,3.221-8.319,3.906-13.917,2.435c-3.72-0.948-8.235-2.872-11.108-4.723
		c-3.851-2.422-3.949-2.385,6.449-5.888c9.815-3.328,15.006-4.774,16.643-4.653c1.865,0.192,3.15-2.221,1.627-2.99
		c-1.482-0.718-10.475,1.045-18.133,3.557c-4.193,1.36-7.643,2.373-7.623,2.186c0.081-0.793,4.048-5.004,6.666-7.091
		c3.23-2.543,8.302-4.661,12.749-5.289c1.577-0.215,6.784-0.434,11.598-0.505c9.577-0.1,18.704-0.86,22.811-1.852
		C706.5,598.379,707.074,598.297,707.041,598.623z M538.675,614.933c-6.35,7.218-10.611,13.378-22.657,32.924
		c-1.021,1.686-3.386,4.978-5.216,7.193c-1.835,2.262-4.214,5.694-5.259,7.613c-3.356,6.065-7.004,9.46-13.614,12.787
		c-5.166,2.58-10.726,3.941-7.543,1.864c1.421-0.985,10.051-9.76,12.896-13.144c3.116-3.732,6.789-9.669,7.51-12.094
		c0.252-0.848,0.756-2.892-0.392-3.395c-1.353-0.592-2.282,1.836-2.834,2.686c-2.469,3.846-5.375,7.365-9.509,11.371
		c-3.143,3.07-10.591,9.516-12.774,11.036l-1.168,0.823l0.833-6.277c0.982-7.722,1.516-8.799,8.772-16.583
		c3.074-3.313,6.378-7.498,8.458-10.772c6.108-9.458,8.932-11.713,22.749-18.682c5.811-2.891,22.308-10.716,22.588-10.687
		C541.609,611.605,540.322,613.123,538.675,614.933z M576.584,628.063c-3.09,4.395-5.235,9.218-7.129,16.187
		c-0.834,3.072-1.841,6.456-2.227,7.453c-1.075,2.67-4.321,7.662-6.815,10.375c-5.095,5.556-16.281,15.812-22.32,20.47
		c-3.581,2.743-8.064,6.477-9.893,8.221c-1.833,1.791-3.868,3.703-4.494,4.298l-1.099,1.065l0.573-3.287
		c0.744-4.495,2.192-6.656,7.377-11.26c5.13-4.516,6.398-6.318,8.775-12.483c6.892-18.002,18.025-31.421,34.482-41.607
		c2.72-1.7,4.976-3.023,5.06-2.921C578.963,624.632,577.904,626.22,576.584,628.063z M484.25,618.533
		c-0.413,0.806-2.353,4.094-4.232,7.247c-4.166,7.065-8.638,15.278-15.986,29.462c-12.51,24.07-16.864,31.587-20.401,35.277
		c-6.797,6.984-18.978,10.87-33.419,10.612l-3.764-0.057l4.753-3.141c11.869-7.735,20.048-15.331,35.101-32.494
		c1.947-2.22,6.009-5.928,6.291-8.936c0.37-3.943-4.582,0.332-5.646,1.351c-3.021,2.895-5.992,5.873-8.928,8.854
		c-13.579,13.828-18.647,18.208-29.61,25.377c-2.477,1.631-4.589,2.922-4.729,2.908c-0.14-0.014-0.106-0.341,0.118-0.695
		c0.178-0.359,0.962-3.86,1.779-7.688c1.617-7.94,3.069-11.985,5.889-16.502c3.036-4.778,5.808-6.991,14.936-11.897
		c10.273-5.496,16.719-10.442,24.9-18.98c7.124-7.421,11.309-10.997,16.533-14.137c3.57-2.178,16.055-8.106,16.848-8.025
		C484.917,617.093,484.705,617.778,484.25,618.533z M654.456,644.874c5.236,1.249,10.664,1.859,15.994,2.585
		c7.018,0.956,14.665,2.213,16.926,2.681c5.114,1.138,11.701,3.087,11.657,3.507c-0.019,0.186-1.723,0.718-3.759,1.263
		c-4.841,1.247-11.411,3.729-16.526,6.267c-5.063,2.496-10.143,4.236-13.382,4.564c-3.098,0.342-11.026-0.473-16.887-1.687
		c-2.396-0.529-8.234-1.505-13.014-2.232c-9.512-1.448-11.465-2.167-13.706-5.131l-1.209-1.538l1.381-0.141
		c0.714-0.068,4.633-0.137,8.635-0.103c8.434,0.018,14.313-0.321,17.923-0.989c0.715-0.141,2.032-0.207,2.444-0.944
		c1.87-3.345-6.491-1.896-7.496-1.788c-4.811,0.496-20.466,0.584-20.843,0.121c-0.339-0.365,3.552-2.463,7.68-4.112
		C639.658,643.496,646.129,642.888,654.456,644.874z M338.498,630.332c-1.864,4.38-2.638,7.788-4.249,18.886
		c-1.706,11.56-3.012,16.939-5.263,21.421c-2.734,5.516-8.591,11.606-17.154,17.89c-6.777,4.959-11.905,7.166-17.004,7.255
		l-2.365,0.087l1.463-0.934c8.159-5.1,12.924-9.748,18.053-17.468c2.787-4.191,7.116-9.637,10.128-12.773
		c1.067-1.157,0.953-2.2-0.617-2.023c-0.794,0.089-2.211,1.372-2.815,1.837c-3.674,2.825-6.873,6.449-10.004,9.838
		c-3.397,3.704-7.148,7.654-8.304,8.808c-2.254,2.219-7.947,6.253-8.235,5.846c-0.544-0.669,3.093-5.338,6.347-8.114
		c6.2-5.301,6.945-6.591,11.022-18.756c3.654-10.794,6.151-14.92,13.424-21.949c3.19-3.066,15.675-12.67,16.421-12.593
		C339.532,627.61,339.123,628.841,338.498,630.332z M602.31,696.024c4.134,1.508,14.099,4.511,22.163,6.753
		c8.069,2.196,14.329,4.111,13.941,4.212c-0.392,0.148-3.407,0.593-6.706,1.055c-9.179,1.272-13.52,2.24-20.677,4.474
		c-11.686,3.654-15.437,3.928-21.01,1.754c-2.358-0.902-3.239-1.04-6.039-0.856c-1.806,0.144-4.068,0.148-5.048,0.047
		c-2.285-0.235-5.787-2.385-7.759-4.756c-1.799-2.211-5.216-8.406-4.805-8.741c0.154-0.126,4.94,0.083,10.648,0.481
		c10.382,0.784,13.601,0.643,14.192-0.522c0.769-1.523-0.699-1.91-9.216-2.502c-4.543-0.278-9.528-0.837-11.043-1.229l-2.765-0.614
		l2.442-0.833C581.756,691.039,589.453,691.358,602.31,696.024z M260.525,665.445c5.221,1.479,9.535,3.524,16.227,7.652
		c3.102,1.921,5.621,3.546,5.523,3.583c-0.051,0.042-2.659,0.198-5.78,0.302c-3.121,0.104-9.107,0.573-13.307,1.084
		c-6.584,0.785-8.52,0.822-13.935,0.313c-4.482-0.413-6.701-0.83-7.633-1.397c-1.29-0.745-0.954-0.805,6.73-1.288
		c4.46-0.296,10.329-0.542,13.161-0.581c4.81-0.024,5.052-0.094,5.158-1.12c0.177-1.725-1.599-2.332-7.746-2.586
		c-2.957-0.115-8.979-0.215-13.369-0.148c-4.385,0.021-8.098-0.078-8.224-0.232c-0.126-0.154,0.768-1.052,2.039-1.958
		C246.796,663.752,251.687,662.935,260.525,665.445z M508.955,723.054c6.615,1.669,12.108,4.165,20.855,9.399
		c10.563,6.363,19.14,10.496,30.003,14.392c1.044,0.39,1.85,0.803,1.747,0.886c-0.617,0.502-13.552,2.096-16.612,2.064
		c-7.202-0.08-14.705-2.736-24.336-8.532c-4.357-2.622-8.262-3.725-13.475-4.165c-10.745-0.915-12.222-1.679-20.576-10.738
		c-4.916-5.359-5.095-5,2.202-5.382C494.589,720.683,503.124,721.56,508.955,723.054z M504.892,752.516
		c6.357,2.349,9.978,5.172,16.521,13.054c6.505,7.784,9.749,10.615,19.458,17.032c3.395,2.281,7.445,5.053,9.019,6.252
		c3.017,2.289,9.21,8.062,10.451,9.745c0.697,1.014,0.697,1.014-2.594,0.016c-5.854-1.732-20.013-3.375-29.948-3.453
		c-13.938-0.112-17.136-1.1-23.907-7.215c-7.72-6.967-11.258-9.686-16.913-12.906c-3.158-1.832-7.037-4.446-8.591-5.831
		c-2.797-2.597-9.291-10.945-8.405-10.854c1.259,0.129,17.827,5.837,24.123,8.321c3.891,1.578,9.781,3.879,12.997,5.152
		c3.267,1.231,7.222,3.098,8.875,4.024c0.696,0.421,1.911,1.499,2.76,1.443c1.25-0.082,1.973-1.34,0.873-2.438
		c-1.363-1.412-6.226-4.08-10.797-5.916c-2.712-1.127-8.718-3.676-13.322-5.657c-4.552-2.023-12.069-5.01-16.612-6.655
		c-4.539-1.691-8.155-3.194-8.043-3.371c0.159-0.172,0.985-0.417,1.839-0.471c0.901-0.049,3.463-0.681,5.695-1.3
		c3.786-1.072,7.281-1.609,11.433-1.653C493.107,749.797,501.574,751.327,504.892,752.516z M305.647,735.445
		c3.493,2.244,7.968,5.013,9.882,6.105c9.359,5.339,13.551,16.383,17.914,25.639c2.825,5.993,5.947,12.298,6.899,14.046
		c2.103,3.845,1.791,3.671-5.236-2.706c-5.733-5.207-8.071-6.767-15.026-10.168c-13.646-6.633-15.668-8.961-21.496-24.263
		c-2.631-6.962-2.626-7.009-1.197-5.778c0.782,0.646,2.945,2.989,4.796,5.158c1.851,2.169,5.353,6.158,7.809,8.861
		c1.955,2.18,3.548,4.699,5.733,6.677c0.632,0.572,2.486,2.34,3.437,2.178c3.128-0.531-0.631-4.028-1.53-5.008
		c-2.388-2.604-4.713-5.268-7.032-7.933c-4.595-5.279-10.055-11.307-12.112-13.309c-2.098-2.053-3.759-3.779-3.749-3.872
		c0.005-0.047,1.04-0.035,2.3,0.095C298.95,731.364,300.338,732.072,305.647,735.445z M382.097,750.036
		c5.811,2.152,11.756,6.674,15.651,11.881c0.916,1.178,4.015,5.879,6.983,10.473c4.148,6.411,7.928,11.371,16.414,21.432
		c6.045,7.219,10.904,13.137,10.852,13.179c-0.103,0.084-2.601-0.833-5.588-2.035c-6.016-2.456-14.326-5.053-21.734-6.804
		c-8.233-1.977-11.068-4.2-16.469-13.096c-4.11-6.784-5.565-8.678-11.315-14.641c-8.141-8.376-10.165-12.072-9.661-17.44
		c0.207-2.477,0.405-3.022,1.006-2.913c0.835,0.133,20.105,15.779,24.014,19.479c1.419,1.324,4.298,4.494,6.489,7.03
		c0.877,1.043,3.254,4.837,5.164,3.938c1.761-0.829-0.497-3.023-1.222-3.873c-4.686-5.496-9.547-10.675-14.738-15.702
		c-3.185-3.084-6.403-6.091-9.823-8.915c0,0-4.301-3.552-4.301-3.552l2.798,0.287C378.158,748.925,380.643,749.51,382.097,750.036z"
		/>
</g>
</svg>
